G75*
%MOIN*%
%OFA0B0*%
%FSLAX25Y25*%
%IPPOS*%
%LPD*%
%AMOC8*
5,1,8,0,0,1.08239X$1,22.5*
%
%ADD10C,0.01000*%
%ADD11C,0.01500*%
%ADD12C,0.03100*%
D10*
X0100075Y0082387D02*
X0102744Y0082387D01*
X0101410Y0082387D02*
X0101410Y0086390D01*
X0102744Y0085056D01*
X0111099Y0085056D02*
X0113768Y0082387D01*
X0111099Y0082387D01*
X0111099Y0085056D02*
X0111099Y0085723D01*
X0111766Y0086390D01*
X0113100Y0086390D01*
X0113768Y0085723D01*
X0121729Y0085723D02*
X0121729Y0085056D01*
X0122396Y0084388D01*
X0121729Y0083721D01*
X0121729Y0083054D01*
X0122396Y0082387D01*
X0123730Y0082387D01*
X0124398Y0083054D01*
X0123063Y0084388D02*
X0122396Y0084388D01*
X0121729Y0085723D02*
X0122396Y0086390D01*
X0123730Y0086390D01*
X0124398Y0085723D01*
X0131965Y0084388D02*
X0134634Y0084388D01*
X0132632Y0086390D01*
X0132632Y0082387D01*
X0143382Y0083054D02*
X0144049Y0082387D01*
X0145384Y0082387D01*
X0146051Y0083054D01*
X0146051Y0084388D02*
X0144717Y0085056D01*
X0144049Y0085056D01*
X0143382Y0084388D01*
X0143382Y0083054D01*
X0146051Y0084388D02*
X0146051Y0086390D01*
X0143382Y0086390D01*
X0155193Y0086390D02*
X0156528Y0085723D01*
X0157862Y0084388D01*
X0155860Y0084388D01*
X0155193Y0083721D01*
X0155193Y0083054D01*
X0155860Y0082387D01*
X0157195Y0082387D01*
X0157862Y0083054D01*
X0157862Y0084388D01*
X0166217Y0085723D02*
X0168886Y0083054D01*
X0168886Y0082387D01*
X0168886Y0086390D02*
X0166217Y0086390D01*
X0166217Y0085723D01*
X0176847Y0085723D02*
X0176847Y0085056D01*
X0177514Y0084388D01*
X0178848Y0084388D01*
X0179516Y0085056D01*
X0179516Y0085723D01*
X0178848Y0086390D01*
X0177514Y0086390D01*
X0176847Y0085723D01*
X0177514Y0084388D02*
X0176847Y0083721D01*
X0176847Y0083054D01*
X0177514Y0082387D01*
X0178848Y0082387D01*
X0179516Y0083054D01*
X0179516Y0083721D01*
X0178848Y0084388D01*
X0187477Y0084388D02*
X0189478Y0084388D01*
X0190146Y0085056D01*
X0190146Y0085723D01*
X0189478Y0086390D01*
X0188144Y0086390D01*
X0187477Y0085723D01*
X0187477Y0083054D01*
X0188144Y0082387D01*
X0189478Y0082387D01*
X0190146Y0083054D01*
X0196532Y0083054D02*
X0197199Y0082387D01*
X0198534Y0082387D01*
X0199201Y0083054D01*
X0196532Y0085723D01*
X0196532Y0083054D01*
X0199201Y0083054D02*
X0199201Y0085723D01*
X0198534Y0086390D01*
X0197199Y0086390D01*
X0196532Y0085723D01*
X0201136Y0082387D02*
X0203805Y0082387D01*
X0202470Y0082387D02*
X0202470Y0086390D01*
X0203805Y0085056D01*
X0207555Y0082387D02*
X0210224Y0082387D01*
X0208890Y0082387D02*
X0208890Y0086390D01*
X0210224Y0085056D01*
X0212159Y0082387D02*
X0214828Y0082387D01*
X0213494Y0082387D02*
X0213494Y0086390D01*
X0214828Y0085056D01*
X0218185Y0085056D02*
X0218185Y0085723D01*
X0218853Y0086390D01*
X0220187Y0086390D01*
X0220854Y0085723D01*
X0218185Y0085056D02*
X0220854Y0082387D01*
X0218185Y0082387D01*
X0222789Y0082387D02*
X0225458Y0082387D01*
X0224124Y0082387D02*
X0224124Y0086390D01*
X0225458Y0085056D01*
X0229209Y0085056D02*
X0229876Y0084388D01*
X0229209Y0083721D01*
X0229209Y0083054D01*
X0229876Y0082387D01*
X0231211Y0082387D01*
X0231878Y0083054D01*
X0230543Y0084388D02*
X0229876Y0084388D01*
X0229209Y0085056D02*
X0229209Y0085723D01*
X0229876Y0086390D01*
X0231211Y0086390D01*
X0231878Y0085723D01*
X0235147Y0086390D02*
X0235147Y0082387D01*
X0233813Y0082387D02*
X0236482Y0082387D01*
X0236482Y0085056D02*
X0235147Y0086390D01*
X0239839Y0084388D02*
X0242508Y0084388D01*
X0240506Y0086390D01*
X0240506Y0082387D01*
X0244443Y0082387D02*
X0247112Y0082387D01*
X0245777Y0082387D02*
X0245777Y0086390D01*
X0247112Y0085056D01*
X0250469Y0084388D02*
X0250469Y0083054D01*
X0251136Y0082387D01*
X0252471Y0082387D01*
X0253138Y0083054D01*
X0253138Y0084388D02*
X0251803Y0085056D01*
X0251136Y0085056D01*
X0250469Y0084388D01*
X0250469Y0086390D02*
X0253138Y0086390D01*
X0253138Y0084388D01*
X0255073Y0082387D02*
X0257742Y0082387D01*
X0256407Y0082387D02*
X0256407Y0086390D01*
X0257742Y0085056D01*
X0261492Y0086390D02*
X0262827Y0085723D01*
X0264161Y0084388D01*
X0262160Y0084388D01*
X0261492Y0083721D01*
X0261492Y0083054D01*
X0262160Y0082387D01*
X0263494Y0082387D01*
X0264161Y0083054D01*
X0264161Y0084388D01*
X0266096Y0082387D02*
X0268765Y0082387D01*
X0267431Y0082387D02*
X0267431Y0086390D01*
X0268765Y0085056D01*
X0271729Y0085723D02*
X0274398Y0083054D01*
X0274398Y0082387D01*
X0276333Y0082387D02*
X0279002Y0082387D01*
X0277667Y0082387D02*
X0277667Y0086390D01*
X0279002Y0085056D01*
X0282752Y0085056D02*
X0283420Y0084388D01*
X0284754Y0084388D01*
X0285421Y0085056D01*
X0285421Y0085723D01*
X0284754Y0086390D01*
X0283420Y0086390D01*
X0282752Y0085723D01*
X0282752Y0085056D01*
X0283420Y0084388D02*
X0282752Y0083721D01*
X0282752Y0083054D01*
X0283420Y0082387D01*
X0284754Y0082387D01*
X0285421Y0083054D01*
X0285421Y0083721D01*
X0284754Y0084388D01*
X0287356Y0082387D02*
X0290025Y0082387D01*
X0288691Y0082387D02*
X0288691Y0086390D01*
X0290025Y0085056D01*
X0293776Y0085723D02*
X0293776Y0083054D01*
X0294443Y0082387D01*
X0295778Y0082387D01*
X0296445Y0083054D01*
X0295778Y0084388D02*
X0293776Y0084388D01*
X0293776Y0085723D02*
X0294443Y0086390D01*
X0295778Y0086390D01*
X0296445Y0085723D01*
X0296445Y0085056D01*
X0295778Y0084388D01*
X0298380Y0082387D02*
X0301049Y0082387D01*
X0299714Y0082387D02*
X0299714Y0086390D01*
X0301049Y0085056D01*
X0274398Y0086390D02*
X0271729Y0086390D01*
X0271729Y0085723D01*
X0271882Y0056862D02*
X0271215Y0056195D01*
X0271215Y0055528D01*
X0271882Y0054861D01*
X0271215Y0054194D01*
X0271215Y0053526D01*
X0271882Y0052859D01*
X0273216Y0052859D01*
X0273883Y0053526D01*
X0272549Y0054861D02*
X0271882Y0054861D01*
X0271882Y0056862D02*
X0273216Y0056862D01*
X0273883Y0056195D01*
X0277241Y0056862D02*
X0278575Y0056195D01*
X0279909Y0054861D01*
X0277908Y0054861D01*
X0277241Y0054194D01*
X0277241Y0053526D01*
X0277908Y0052859D01*
X0279242Y0052859D01*
X0279909Y0053526D01*
X0279909Y0054861D01*
X0281844Y0055528D02*
X0281844Y0056195D01*
X0282512Y0056862D01*
X0283846Y0056862D01*
X0284513Y0056195D01*
X0283179Y0054861D02*
X0282512Y0054861D01*
X0281844Y0054194D01*
X0281844Y0053526D01*
X0282512Y0052859D01*
X0283846Y0052859D01*
X0284513Y0053526D01*
X0282512Y0054861D02*
X0281844Y0055528D01*
X0289052Y0056195D02*
X0291720Y0053526D01*
X0291720Y0052859D01*
X0293655Y0053526D02*
X0294323Y0052859D01*
X0295657Y0052859D01*
X0296324Y0053526D01*
X0294990Y0054861D02*
X0294323Y0054861D01*
X0293655Y0054194D01*
X0293655Y0053526D01*
X0294323Y0054861D02*
X0293655Y0055528D01*
X0293655Y0056195D01*
X0294323Y0056862D01*
X0295657Y0056862D01*
X0296324Y0056195D01*
X0291720Y0056862D02*
X0289052Y0056862D01*
X0289052Y0056195D01*
X0269280Y0056862D02*
X0269280Y0054861D01*
X0267945Y0055528D01*
X0267278Y0055528D01*
X0266611Y0054861D01*
X0266611Y0053526D01*
X0267278Y0052859D01*
X0268612Y0052859D01*
X0269280Y0053526D01*
X0269280Y0056862D02*
X0266611Y0056862D01*
X0262860Y0056195D02*
X0262193Y0056862D01*
X0260858Y0056862D01*
X0260191Y0056195D01*
X0260191Y0055528D01*
X0260858Y0054861D01*
X0260191Y0054194D01*
X0260191Y0053526D01*
X0260858Y0052859D01*
X0262193Y0052859D01*
X0262860Y0053526D01*
X0261525Y0054861D02*
X0260858Y0054861D01*
X0258256Y0054861D02*
X0255587Y0054861D01*
X0256254Y0056862D02*
X0256254Y0052859D01*
X0258256Y0054861D02*
X0256254Y0056862D01*
X0253017Y0056195D02*
X0252350Y0056862D01*
X0251016Y0056862D01*
X0250348Y0056195D01*
X0250348Y0055528D01*
X0251016Y0054861D01*
X0250348Y0054194D01*
X0250348Y0053526D01*
X0251016Y0052859D01*
X0252350Y0052859D01*
X0253017Y0053526D01*
X0251683Y0054861D02*
X0251016Y0054861D01*
X0248413Y0056195D02*
X0247746Y0056862D01*
X0246412Y0056862D01*
X0245744Y0056195D01*
X0245744Y0055528D01*
X0246412Y0054861D01*
X0245744Y0054194D01*
X0245744Y0053526D01*
X0246412Y0052859D01*
X0247746Y0052859D01*
X0248413Y0053526D01*
X0247079Y0054861D02*
X0246412Y0054861D01*
X0241206Y0056195D02*
X0240539Y0056862D01*
X0239205Y0056862D01*
X0238537Y0056195D01*
X0238537Y0055528D01*
X0239205Y0054861D01*
X0238537Y0054194D01*
X0238537Y0053526D01*
X0239205Y0052859D01*
X0240539Y0052859D01*
X0241206Y0053526D01*
X0239872Y0054861D02*
X0239205Y0054861D01*
X0236602Y0056195D02*
X0235935Y0056862D01*
X0234601Y0056862D01*
X0233933Y0056195D01*
X0233933Y0055528D01*
X0236602Y0052859D01*
X0233933Y0052859D01*
X0231364Y0053526D02*
X0230697Y0052859D01*
X0229362Y0052859D01*
X0228695Y0053526D01*
X0228695Y0054194D01*
X0229362Y0054861D01*
X0230029Y0054861D01*
X0229362Y0054861D02*
X0228695Y0055528D01*
X0228695Y0056195D01*
X0229362Y0056862D01*
X0230697Y0056862D01*
X0231364Y0056195D01*
X0226760Y0055528D02*
X0225425Y0056862D01*
X0225425Y0052859D01*
X0224091Y0052859D02*
X0226760Y0052859D01*
X0219553Y0053526D02*
X0218886Y0052859D01*
X0217551Y0052859D01*
X0216884Y0053526D01*
X0216884Y0054194D01*
X0217551Y0054861D01*
X0218218Y0054861D01*
X0217551Y0054861D02*
X0216884Y0055528D01*
X0216884Y0056195D01*
X0217551Y0056862D01*
X0218886Y0056862D01*
X0219553Y0056195D01*
X0214949Y0056195D02*
X0214282Y0056862D01*
X0212947Y0056862D01*
X0212280Y0056195D01*
X0214949Y0053526D01*
X0214282Y0052859D01*
X0212947Y0052859D01*
X0212280Y0053526D01*
X0212280Y0056195D01*
X0209710Y0056195D02*
X0209043Y0056862D01*
X0207709Y0056862D01*
X0207041Y0056195D01*
X0207041Y0055528D01*
X0209710Y0052859D01*
X0207041Y0052859D01*
X0205106Y0053526D02*
X0204439Y0052859D01*
X0203105Y0052859D01*
X0202437Y0053526D01*
X0202437Y0056195D01*
X0203105Y0056862D01*
X0204439Y0056862D01*
X0205106Y0056195D01*
X0205106Y0055528D01*
X0204439Y0054861D01*
X0202437Y0054861D01*
X0197899Y0056195D02*
X0197232Y0056862D01*
X0195897Y0056862D01*
X0195230Y0056195D01*
X0195230Y0055528D01*
X0197899Y0052859D01*
X0195230Y0052859D01*
X0193295Y0053526D02*
X0193295Y0054194D01*
X0192628Y0054861D01*
X0191294Y0054861D01*
X0190626Y0054194D01*
X0190626Y0053526D01*
X0191294Y0052859D01*
X0192628Y0052859D01*
X0193295Y0053526D01*
X0192628Y0054861D02*
X0193295Y0055528D01*
X0193295Y0056195D01*
X0192628Y0056862D01*
X0191294Y0056862D01*
X0190626Y0056195D01*
X0190626Y0055528D01*
X0191294Y0054861D01*
X0187269Y0056195D02*
X0186602Y0056862D01*
X0185268Y0056862D01*
X0184600Y0056195D01*
X0184600Y0055528D01*
X0187269Y0052859D01*
X0184600Y0052859D01*
X0182665Y0052859D02*
X0182665Y0053526D01*
X0179996Y0056195D01*
X0179996Y0056862D01*
X0182665Y0056862D01*
X0176246Y0056195D02*
X0175578Y0056862D01*
X0174244Y0056862D01*
X0173577Y0056195D01*
X0173577Y0055528D01*
X0176246Y0052859D01*
X0173577Y0052859D01*
X0171642Y0053526D02*
X0170974Y0052859D01*
X0169640Y0052859D01*
X0168973Y0053526D01*
X0168973Y0054194D01*
X0169640Y0054861D01*
X0171642Y0054861D01*
X0171642Y0053526D01*
X0171642Y0054861D02*
X0170307Y0056195D01*
X0168973Y0056862D01*
X0166403Y0056195D02*
X0165736Y0056862D01*
X0164401Y0056862D01*
X0163734Y0056195D01*
X0163734Y0055528D01*
X0166403Y0052859D01*
X0163734Y0052859D01*
X0161799Y0053526D02*
X0161132Y0052859D01*
X0159798Y0052859D01*
X0159130Y0053526D01*
X0159130Y0054861D01*
X0159798Y0055528D01*
X0160465Y0055528D01*
X0161799Y0054861D01*
X0161799Y0056862D01*
X0159130Y0056862D01*
X0154592Y0056195D02*
X0153925Y0056862D01*
X0152590Y0056862D01*
X0151923Y0056195D01*
X0151923Y0055528D01*
X0154592Y0052859D01*
X0151923Y0052859D01*
X0149988Y0054861D02*
X0147319Y0054861D01*
X0147986Y0056862D02*
X0147986Y0052859D01*
X0149988Y0054861D02*
X0147986Y0056862D01*
X0144750Y0056195D02*
X0144082Y0056862D01*
X0142748Y0056862D01*
X0142081Y0056195D01*
X0142081Y0055528D01*
X0144750Y0052859D01*
X0142081Y0052859D01*
X0140146Y0053526D02*
X0139478Y0052859D01*
X0138144Y0052859D01*
X0137477Y0053526D01*
X0137477Y0054194D01*
X0138144Y0054861D01*
X0138811Y0054861D01*
X0138144Y0054861D02*
X0137477Y0055528D01*
X0137477Y0056195D01*
X0138144Y0056862D01*
X0139478Y0056862D01*
X0140146Y0056195D01*
X0132939Y0056195D02*
X0132271Y0056862D01*
X0130937Y0056862D01*
X0130270Y0056195D01*
X0130270Y0055528D01*
X0132939Y0052859D01*
X0130270Y0052859D01*
X0128335Y0052859D02*
X0125666Y0055528D01*
X0125666Y0056195D01*
X0126333Y0056862D01*
X0127667Y0056862D01*
X0128335Y0056195D01*
X0128335Y0052859D02*
X0125666Y0052859D01*
X0123096Y0052859D02*
X0120427Y0055528D01*
X0120427Y0056195D01*
X0121094Y0056862D01*
X0122429Y0056862D01*
X0123096Y0056195D01*
X0123096Y0052859D02*
X0120427Y0052859D01*
X0118492Y0052859D02*
X0115823Y0052859D01*
X0117158Y0052859D02*
X0117158Y0056862D01*
X0118492Y0055528D01*
X0111285Y0056195D02*
X0110618Y0056862D01*
X0109283Y0056862D01*
X0108616Y0056195D01*
X0108616Y0055528D01*
X0111285Y0052859D01*
X0108616Y0052859D01*
X0106681Y0053526D02*
X0104012Y0056195D01*
X0104012Y0053526D01*
X0104679Y0052859D01*
X0106014Y0052859D01*
X0106681Y0053526D01*
X0106681Y0056195D01*
X0106014Y0056862D01*
X0104679Y0056862D01*
X0104012Y0056195D01*
X0214949Y0056195D02*
X0214949Y0053526D01*
X0214161Y0255615D02*
X0211492Y0255615D01*
X0212827Y0255615D02*
X0212827Y0259618D01*
X0214161Y0258284D01*
X0216096Y0255615D02*
X0218765Y0255615D01*
X0217431Y0255615D02*
X0217431Y0259618D01*
X0218765Y0258284D01*
X0222122Y0258284D02*
X0222122Y0258951D01*
X0222790Y0259618D01*
X0224124Y0259618D01*
X0224791Y0258951D01*
X0222122Y0258284D02*
X0224791Y0255615D01*
X0222122Y0255615D01*
X0226726Y0255615D02*
X0229395Y0255615D01*
X0228061Y0255615D02*
X0228061Y0259618D01*
X0229395Y0258284D01*
X0232752Y0258678D02*
X0233420Y0258010D01*
X0232752Y0257343D01*
X0232752Y0256676D01*
X0233420Y0256009D01*
X0234754Y0256009D01*
X0235421Y0256676D01*
X0234087Y0258010D02*
X0233420Y0258010D01*
X0232752Y0258678D02*
X0232752Y0259345D01*
X0233420Y0260012D01*
X0234754Y0260012D01*
X0235421Y0259345D01*
X0238691Y0260012D02*
X0238691Y0256009D01*
X0240025Y0256009D02*
X0237356Y0256009D01*
X0240025Y0258678D02*
X0238691Y0260012D01*
X0243776Y0257617D02*
X0246445Y0257617D01*
X0244443Y0259618D01*
X0244443Y0255615D01*
X0248380Y0255615D02*
X0251049Y0255615D01*
X0249714Y0255615D02*
X0249714Y0259618D01*
X0251049Y0258284D01*
X0254800Y0258010D02*
X0254800Y0256676D01*
X0255467Y0256009D01*
X0256801Y0256009D01*
X0257469Y0256676D01*
X0257469Y0258010D02*
X0256134Y0258678D01*
X0255467Y0258678D01*
X0254800Y0258010D01*
X0254800Y0260012D02*
X0257469Y0260012D01*
X0257469Y0258010D01*
X0259403Y0256009D02*
X0262072Y0256009D01*
X0260738Y0256009D02*
X0260738Y0260012D01*
X0262072Y0258678D01*
X0265429Y0259618D02*
X0266764Y0258951D01*
X0268098Y0257617D01*
X0266097Y0257617D01*
X0265429Y0256949D01*
X0265429Y0256282D01*
X0266097Y0255615D01*
X0267431Y0255615D01*
X0268098Y0256282D01*
X0268098Y0257617D01*
X0270033Y0255615D02*
X0272702Y0255615D01*
X0271368Y0255615D02*
X0271368Y0259618D01*
X0272702Y0258284D01*
X0276847Y0258951D02*
X0279516Y0256282D01*
X0279516Y0255615D01*
X0281451Y0255615D02*
X0284120Y0255615D01*
X0282785Y0255615D02*
X0282785Y0259618D01*
X0284120Y0258284D01*
X0287083Y0258284D02*
X0287750Y0257617D01*
X0289085Y0257617D01*
X0289752Y0258284D01*
X0289752Y0258951D01*
X0289085Y0259618D01*
X0287750Y0259618D01*
X0287083Y0258951D01*
X0287083Y0258284D01*
X0287750Y0257617D02*
X0287083Y0256949D01*
X0287083Y0256282D01*
X0287750Y0255615D01*
X0289085Y0255615D01*
X0289752Y0256282D01*
X0289752Y0256949D01*
X0289085Y0257617D01*
X0291687Y0255615D02*
X0294356Y0255615D01*
X0293021Y0255615D02*
X0293021Y0259618D01*
X0294356Y0258284D01*
X0298500Y0258951D02*
X0298500Y0256282D01*
X0299168Y0255615D01*
X0300502Y0255615D01*
X0301169Y0256282D01*
X0300502Y0257617D02*
X0301169Y0258284D01*
X0301169Y0258951D01*
X0300502Y0259618D01*
X0299168Y0259618D01*
X0298500Y0258951D01*
X0298500Y0257617D02*
X0300502Y0257617D01*
X0303104Y0255615D02*
X0305773Y0255615D01*
X0304439Y0255615D02*
X0304439Y0259618D01*
X0305773Y0258284D01*
X0279516Y0259618D02*
X0276847Y0259618D01*
X0276847Y0258951D01*
X0276606Y0289080D02*
X0277941Y0289080D01*
X0278608Y0289747D01*
X0277273Y0291081D02*
X0276606Y0291081D01*
X0275939Y0290414D01*
X0275939Y0289747D01*
X0276606Y0289080D01*
X0276606Y0291081D02*
X0275939Y0291748D01*
X0275939Y0292416D01*
X0276606Y0293083D01*
X0277941Y0293083D01*
X0278608Y0292416D01*
X0281178Y0293083D02*
X0282512Y0292416D01*
X0283846Y0291081D01*
X0281845Y0291081D01*
X0281178Y0290414D01*
X0281178Y0289747D01*
X0281845Y0289080D01*
X0283179Y0289080D01*
X0283846Y0289747D01*
X0283846Y0291081D01*
X0285781Y0290414D02*
X0285781Y0289747D01*
X0286449Y0289080D01*
X0287783Y0289080D01*
X0288450Y0289747D01*
X0287116Y0291081D02*
X0286449Y0291081D01*
X0285781Y0290414D01*
X0286449Y0291081D02*
X0285781Y0291748D01*
X0285781Y0292416D01*
X0286449Y0293083D01*
X0287783Y0293083D01*
X0288450Y0292416D01*
X0292989Y0292416D02*
X0295657Y0289747D01*
X0295657Y0289080D01*
X0297592Y0289747D02*
X0298260Y0289080D01*
X0299594Y0289080D01*
X0300261Y0289747D01*
X0298927Y0291081D02*
X0298260Y0291081D01*
X0297592Y0290414D01*
X0297592Y0289747D01*
X0298260Y0291081D02*
X0297592Y0291748D01*
X0297592Y0292416D01*
X0298260Y0293083D01*
X0299594Y0293083D01*
X0300261Y0292416D01*
X0295657Y0293083D02*
X0292989Y0293083D01*
X0292989Y0292416D01*
X0274004Y0293083D02*
X0274004Y0291081D01*
X0272669Y0291748D01*
X0272002Y0291748D01*
X0271335Y0291081D01*
X0271335Y0289747D01*
X0272002Y0289080D01*
X0273337Y0289080D01*
X0274004Y0289747D01*
X0274004Y0293083D02*
X0271335Y0293083D01*
X0266797Y0292416D02*
X0266130Y0293083D01*
X0264795Y0293083D01*
X0264128Y0292416D01*
X0264128Y0291748D01*
X0264795Y0291081D01*
X0264128Y0290414D01*
X0264128Y0289747D01*
X0264795Y0289080D01*
X0266130Y0289080D01*
X0266797Y0289747D01*
X0265462Y0291081D02*
X0264795Y0291081D01*
X0262193Y0291081D02*
X0259524Y0291081D01*
X0260191Y0289080D02*
X0260191Y0293083D01*
X0262193Y0291081D01*
X0256954Y0289747D02*
X0256287Y0289080D01*
X0254953Y0289080D01*
X0254285Y0289747D01*
X0254285Y0290414D01*
X0254953Y0291081D01*
X0255620Y0291081D01*
X0254953Y0291081D02*
X0254285Y0291748D01*
X0254285Y0292416D01*
X0254953Y0293083D01*
X0256287Y0293083D01*
X0256954Y0292416D01*
X0252350Y0292416D02*
X0251683Y0293083D01*
X0250349Y0293083D01*
X0249681Y0292416D01*
X0249681Y0291748D01*
X0250349Y0291081D01*
X0249681Y0290414D01*
X0249681Y0289747D01*
X0250349Y0289080D01*
X0251683Y0289080D01*
X0252350Y0289747D01*
X0251016Y0291081D02*
X0250349Y0291081D01*
X0245143Y0289747D02*
X0244476Y0289080D01*
X0243142Y0289080D01*
X0242474Y0289747D01*
X0242474Y0290414D01*
X0243142Y0291081D01*
X0243809Y0291081D01*
X0243142Y0291081D02*
X0242474Y0291748D01*
X0242474Y0292416D01*
X0243142Y0293083D01*
X0244476Y0293083D01*
X0245143Y0292416D01*
X0240539Y0292416D02*
X0239872Y0293083D01*
X0238538Y0293083D01*
X0237870Y0292416D01*
X0237870Y0291748D01*
X0240539Y0289080D01*
X0237870Y0289080D01*
X0235301Y0289747D02*
X0234634Y0289080D01*
X0233299Y0289080D01*
X0232632Y0289747D01*
X0232632Y0290414D01*
X0233299Y0291081D01*
X0233966Y0291081D01*
X0233299Y0291081D02*
X0232632Y0291748D01*
X0232632Y0292416D01*
X0233299Y0293083D01*
X0234634Y0293083D01*
X0235301Y0292416D01*
X0230697Y0291748D02*
X0229362Y0293083D01*
X0229362Y0289080D01*
X0228028Y0289080D02*
X0230697Y0289080D01*
X0223490Y0289747D02*
X0222823Y0289080D01*
X0221488Y0289080D01*
X0220821Y0289747D01*
X0220821Y0290414D01*
X0221488Y0291081D01*
X0222155Y0291081D01*
X0221488Y0291081D02*
X0220821Y0291748D01*
X0220821Y0292416D01*
X0221488Y0293083D01*
X0222823Y0293083D01*
X0223490Y0292416D01*
X0218886Y0292416D02*
X0218219Y0293083D01*
X0216884Y0293083D01*
X0216217Y0292416D01*
X0218886Y0289747D01*
X0218219Y0289080D01*
X0216884Y0289080D01*
X0216217Y0289747D01*
X0216217Y0292416D01*
X0218886Y0292416D02*
X0218886Y0289747D01*
X0212466Y0289080D02*
X0209797Y0291748D01*
X0209797Y0292416D01*
X0210464Y0293083D01*
X0211799Y0293083D01*
X0212466Y0292416D01*
X0212466Y0289080D02*
X0209797Y0289080D01*
X0207862Y0289747D02*
X0207195Y0289080D01*
X0205860Y0289080D01*
X0205193Y0289747D01*
X0205193Y0292416D01*
X0205860Y0293083D01*
X0207195Y0293083D01*
X0207862Y0292416D01*
X0207862Y0291748D01*
X0207195Y0291081D01*
X0205193Y0291081D01*
X0201836Y0292416D02*
X0201169Y0293083D01*
X0199834Y0293083D01*
X0199167Y0292416D01*
X0199167Y0291748D01*
X0201836Y0289080D01*
X0199167Y0289080D01*
X0197232Y0289747D02*
X0196565Y0289080D01*
X0195231Y0289080D01*
X0194563Y0289747D01*
X0194563Y0290414D01*
X0195231Y0291081D01*
X0196565Y0291081D01*
X0197232Y0291748D01*
X0197232Y0292416D01*
X0196565Y0293083D01*
X0195231Y0293083D01*
X0194563Y0292416D01*
X0194563Y0291748D01*
X0195231Y0291081D01*
X0196565Y0291081D02*
X0197232Y0290414D01*
X0197232Y0289747D01*
X0191994Y0289080D02*
X0189325Y0291748D01*
X0189325Y0292416D01*
X0189992Y0293083D01*
X0191326Y0293083D01*
X0191994Y0292416D01*
X0191994Y0289080D02*
X0189325Y0289080D01*
X0187390Y0289080D02*
X0187390Y0289747D01*
X0184721Y0292416D01*
X0184721Y0293083D01*
X0187390Y0293083D01*
X0180183Y0292416D02*
X0179515Y0293083D01*
X0178181Y0293083D01*
X0177514Y0292416D01*
X0177514Y0291748D01*
X0180183Y0289080D01*
X0177514Y0289080D01*
X0175579Y0289747D02*
X0174912Y0289080D01*
X0173577Y0289080D01*
X0172910Y0289747D01*
X0172910Y0290414D01*
X0173577Y0291081D01*
X0175579Y0291081D01*
X0175579Y0289747D01*
X0175579Y0291081D02*
X0174244Y0292416D01*
X0172910Y0293083D01*
X0169553Y0292416D02*
X0168886Y0293083D01*
X0167551Y0293083D01*
X0166884Y0292416D01*
X0166884Y0291748D01*
X0169553Y0289080D01*
X0166884Y0289080D01*
X0164949Y0289747D02*
X0164282Y0289080D01*
X0162947Y0289080D01*
X0162280Y0289747D01*
X0162280Y0291081D01*
X0162947Y0291748D01*
X0163614Y0291748D01*
X0164949Y0291081D01*
X0164949Y0293083D01*
X0162280Y0293083D01*
X0158529Y0292416D02*
X0157862Y0293083D01*
X0156527Y0293083D01*
X0155860Y0292416D01*
X0155860Y0291748D01*
X0158529Y0289080D01*
X0155860Y0289080D01*
X0153925Y0291081D02*
X0151256Y0291081D01*
X0151923Y0289080D02*
X0151923Y0293083D01*
X0153925Y0291081D01*
X0146718Y0292416D02*
X0146051Y0293083D01*
X0144716Y0293083D01*
X0144049Y0292416D01*
X0144049Y0291748D01*
X0146718Y0289080D01*
X0144049Y0289080D01*
X0142114Y0289747D02*
X0141447Y0289080D01*
X0140112Y0289080D01*
X0139445Y0289747D01*
X0139445Y0290414D01*
X0140112Y0291081D01*
X0140780Y0291081D01*
X0140112Y0291081D02*
X0139445Y0291748D01*
X0139445Y0292416D01*
X0140112Y0293083D01*
X0141447Y0293083D01*
X0142114Y0292416D01*
X0136876Y0292416D02*
X0136208Y0293083D01*
X0134874Y0293083D01*
X0134207Y0292416D01*
X0134207Y0291748D01*
X0136876Y0289080D01*
X0134207Y0289080D01*
X0132272Y0289080D02*
X0129603Y0291748D01*
X0129603Y0292416D01*
X0130270Y0293083D01*
X0131604Y0293083D01*
X0132272Y0292416D01*
X0132272Y0289080D02*
X0129603Y0289080D01*
X0127033Y0289080D02*
X0124364Y0291748D01*
X0124364Y0292416D01*
X0125031Y0293083D01*
X0126366Y0293083D01*
X0127033Y0292416D01*
X0127033Y0289080D02*
X0124364Y0289080D01*
X0122429Y0289080D02*
X0119760Y0289080D01*
X0121095Y0289080D02*
X0121095Y0293083D01*
X0122429Y0291748D01*
X0115222Y0292416D02*
X0114555Y0293083D01*
X0113220Y0293083D01*
X0112553Y0292416D01*
X0112553Y0291748D01*
X0115222Y0289080D01*
X0112553Y0289080D01*
X0110618Y0289747D02*
X0109951Y0289080D01*
X0108616Y0289080D01*
X0107949Y0289747D01*
X0107949Y0292416D01*
X0110618Y0289747D01*
X0110618Y0292416D01*
X0109951Y0293083D01*
X0108616Y0293083D01*
X0107949Y0292416D01*
X0105347Y0259618D02*
X0105347Y0255615D01*
X0106681Y0255615D02*
X0104012Y0255615D01*
X0106681Y0258284D02*
X0105347Y0259618D01*
X0115823Y0258951D02*
X0116490Y0259618D01*
X0117825Y0259618D01*
X0118492Y0258951D01*
X0115823Y0258951D02*
X0115823Y0258284D01*
X0118492Y0255615D01*
X0115823Y0255615D01*
X0125666Y0256282D02*
X0126333Y0255615D01*
X0127667Y0255615D01*
X0128335Y0256282D01*
X0127000Y0257617D02*
X0126333Y0257617D01*
X0125666Y0256949D01*
X0125666Y0256282D01*
X0126333Y0257617D02*
X0125666Y0258284D01*
X0125666Y0258951D01*
X0126333Y0259618D01*
X0127667Y0259618D01*
X0128335Y0258951D01*
X0137477Y0257617D02*
X0140146Y0257617D01*
X0138144Y0259618D01*
X0138144Y0255615D01*
X0147319Y0256282D02*
X0147986Y0255615D01*
X0149321Y0255615D01*
X0149988Y0256282D01*
X0149988Y0257617D02*
X0148654Y0258284D01*
X0147986Y0258284D01*
X0147319Y0257617D01*
X0147319Y0256282D01*
X0149988Y0257617D02*
X0149988Y0259618D01*
X0147319Y0259618D01*
X0157949Y0259618D02*
X0159284Y0258951D01*
X0160618Y0257617D01*
X0158616Y0257617D01*
X0157949Y0256949D01*
X0157949Y0256282D01*
X0158616Y0255615D01*
X0159951Y0255615D01*
X0160618Y0256282D01*
X0160618Y0257617D01*
X0168973Y0258951D02*
X0171642Y0256282D01*
X0171642Y0255615D01*
X0171642Y0259618D02*
X0168973Y0259618D01*
X0168973Y0258951D01*
X0180390Y0258678D02*
X0181057Y0258010D01*
X0182392Y0258010D01*
X0183059Y0258678D01*
X0183059Y0259345D01*
X0182392Y0260012D01*
X0181057Y0260012D01*
X0180390Y0259345D01*
X0180390Y0258678D01*
X0181057Y0258010D02*
X0180390Y0257343D01*
X0180390Y0256676D01*
X0181057Y0256009D01*
X0182392Y0256009D01*
X0183059Y0256676D01*
X0183059Y0257343D01*
X0182392Y0258010D01*
X0191414Y0258010D02*
X0193415Y0258010D01*
X0194083Y0258678D01*
X0194083Y0259345D01*
X0193415Y0260012D01*
X0192081Y0260012D01*
X0191414Y0259345D01*
X0191414Y0256676D01*
X0192081Y0256009D01*
X0193415Y0256009D01*
X0194083Y0256676D01*
X0200469Y0256282D02*
X0200469Y0258951D01*
X0203138Y0256282D01*
X0202471Y0255615D01*
X0201136Y0255615D01*
X0200469Y0256282D01*
X0203138Y0256282D02*
X0203138Y0258951D01*
X0202471Y0259618D01*
X0201136Y0259618D01*
X0200469Y0258951D01*
X0205073Y0255615D02*
X0207742Y0255615D01*
X0206407Y0255615D02*
X0206407Y0259618D01*
X0207742Y0258284D01*
D11*
X0210245Y0235748D02*
X0210245Y0229643D01*
X0212280Y0229643D02*
X0208210Y0229643D01*
X0205282Y0230660D02*
X0201212Y0234731D01*
X0201212Y0230660D01*
X0202229Y0229643D01*
X0204264Y0229643D01*
X0205282Y0230660D01*
X0205282Y0234731D01*
X0204264Y0235748D01*
X0202229Y0235748D01*
X0201212Y0234731D01*
X0210245Y0235748D02*
X0212280Y0233713D01*
X0244519Y0233713D02*
X0244519Y0234731D01*
X0245536Y0235748D01*
X0247571Y0235748D01*
X0248589Y0234731D01*
X0244519Y0233713D02*
X0248589Y0229643D01*
X0244519Y0229643D01*
X0251517Y0229643D02*
X0255587Y0229643D01*
X0253552Y0229643D02*
X0253552Y0235748D01*
X0255587Y0233713D01*
X0283889Y0232696D02*
X0287959Y0232696D01*
X0284906Y0235748D01*
X0284906Y0229643D01*
X0290887Y0229643D02*
X0294957Y0229643D01*
X0292922Y0229643D02*
X0292922Y0235748D01*
X0294957Y0233713D01*
X0321074Y0235474D02*
X0323109Y0234457D01*
X0325144Y0232422D01*
X0322092Y0232422D01*
X0321074Y0231404D01*
X0321074Y0230386D01*
X0322092Y0229369D01*
X0324127Y0229369D01*
X0325144Y0230386D01*
X0325144Y0232422D01*
X0328072Y0229369D02*
X0332142Y0229369D01*
X0330107Y0229369D02*
X0330107Y0235474D01*
X0332142Y0233439D01*
X0362629Y0233713D02*
X0363647Y0232696D01*
X0365682Y0232696D01*
X0366699Y0233713D01*
X0366699Y0234731D01*
X0365682Y0235748D01*
X0363647Y0235748D01*
X0362629Y0234731D01*
X0362629Y0233713D01*
X0363647Y0232696D02*
X0362629Y0231678D01*
X0362629Y0230660D01*
X0363647Y0229643D01*
X0365682Y0229643D01*
X0366699Y0230660D01*
X0366699Y0231678D01*
X0365682Y0232696D01*
X0369627Y0229643D02*
X0373697Y0229643D01*
X0371662Y0229643D02*
X0371662Y0235748D01*
X0373697Y0233713D01*
X0371662Y0196378D02*
X0371662Y0190273D01*
X0373697Y0190273D02*
X0369627Y0190273D01*
X0366699Y0191290D02*
X0365682Y0190273D01*
X0363647Y0190273D01*
X0362629Y0191290D01*
X0362629Y0195361D01*
X0363647Y0196378D01*
X0365682Y0196378D01*
X0366699Y0195361D01*
X0366699Y0194343D01*
X0365682Y0193325D01*
X0362629Y0193325D01*
X0371662Y0196378D02*
X0373697Y0194343D01*
X0372680Y0157008D02*
X0370645Y0157008D01*
X0369627Y0155990D01*
X0369627Y0154973D01*
X0370645Y0153955D01*
X0369627Y0152938D01*
X0369627Y0151920D01*
X0370645Y0150903D01*
X0372680Y0150903D01*
X0373697Y0151920D01*
X0371662Y0153955D02*
X0370645Y0153955D01*
X0373697Y0155990D02*
X0372680Y0157008D01*
X0366699Y0157008D02*
X0362629Y0157008D01*
X0362629Y0155990D01*
X0366699Y0151920D01*
X0366699Y0150903D01*
X0334327Y0151920D02*
X0333310Y0150903D01*
X0331274Y0150903D01*
X0330257Y0151920D01*
X0330257Y0152938D01*
X0331274Y0153955D01*
X0332292Y0153955D01*
X0331274Y0153955D02*
X0330257Y0154973D01*
X0330257Y0155990D01*
X0331274Y0157008D01*
X0333310Y0157008D01*
X0334327Y0155990D01*
X0327329Y0157008D02*
X0327329Y0153955D01*
X0325294Y0154973D01*
X0324276Y0154973D01*
X0323259Y0153955D01*
X0323259Y0151920D01*
X0324276Y0150903D01*
X0326312Y0150903D01*
X0327329Y0151920D01*
X0327329Y0157008D02*
X0323259Y0157008D01*
X0294957Y0155990D02*
X0293939Y0157008D01*
X0291904Y0157008D01*
X0290887Y0155990D01*
X0290887Y0154973D01*
X0291904Y0153955D01*
X0290887Y0152938D01*
X0290887Y0151920D01*
X0291904Y0150903D01*
X0293939Y0150903D01*
X0294957Y0151920D01*
X0292922Y0153955D02*
X0291904Y0153955D01*
X0287959Y0151920D02*
X0286941Y0150903D01*
X0284906Y0150903D01*
X0283889Y0151920D01*
X0283889Y0152938D01*
X0284906Y0153955D01*
X0285924Y0153955D01*
X0284906Y0153955D02*
X0283889Y0154973D01*
X0283889Y0155990D01*
X0284906Y0157008D01*
X0286941Y0157008D01*
X0287959Y0155990D01*
X0286941Y0190273D02*
X0284906Y0190273D01*
X0283889Y0191290D01*
X0283889Y0193325D01*
X0284906Y0194343D01*
X0285924Y0194343D01*
X0287959Y0193325D01*
X0287959Y0196378D01*
X0283889Y0196378D01*
X0287959Y0191290D02*
X0286941Y0190273D01*
X0290887Y0190273D02*
X0294957Y0190273D01*
X0292922Y0190273D02*
X0292922Y0196378D01*
X0294957Y0194343D01*
X0323259Y0195361D02*
X0327329Y0191290D01*
X0327329Y0190273D01*
X0330257Y0190273D02*
X0334327Y0190273D01*
X0332292Y0190273D02*
X0332292Y0196378D01*
X0334327Y0194343D01*
X0327329Y0196378D02*
X0323259Y0196378D01*
X0323259Y0195361D01*
X0255587Y0194343D02*
X0253552Y0196378D01*
X0253552Y0190273D01*
X0255587Y0190273D02*
X0251517Y0190273D01*
X0248589Y0191290D02*
X0247571Y0190273D01*
X0245536Y0190273D01*
X0244519Y0191290D01*
X0244519Y0192308D01*
X0245536Y0193325D01*
X0246554Y0193325D01*
X0245536Y0193325D02*
X0244519Y0194343D01*
X0244519Y0195361D01*
X0245536Y0196378D01*
X0247571Y0196378D01*
X0248589Y0195361D01*
X0216217Y0194343D02*
X0214182Y0196378D01*
X0214182Y0190273D01*
X0216217Y0190273D02*
X0212147Y0190273D01*
X0209219Y0190273D02*
X0205149Y0190273D01*
X0207184Y0190273D02*
X0207184Y0196378D01*
X0209219Y0194343D01*
X0173786Y0194343D02*
X0172768Y0193325D01*
X0169716Y0193325D01*
X0169716Y0191290D02*
X0169716Y0195361D01*
X0170733Y0196378D01*
X0172768Y0196378D01*
X0173786Y0195361D01*
X0173786Y0194343D01*
X0173786Y0191290D02*
X0172768Y0190273D01*
X0170733Y0190273D01*
X0169716Y0191290D01*
X0134416Y0191290D02*
X0134416Y0190273D01*
X0134416Y0191290D02*
X0130346Y0195361D01*
X0130346Y0196378D01*
X0134416Y0196378D01*
X0133398Y0229643D02*
X0131363Y0229643D01*
X0130346Y0230660D01*
X0130346Y0231678D01*
X0131363Y0232696D01*
X0134416Y0232696D01*
X0134416Y0230660D01*
X0133398Y0229643D01*
X0134416Y0232696D02*
X0132381Y0234731D01*
X0130346Y0235748D01*
X0165779Y0234731D02*
X0165779Y0233713D01*
X0166796Y0232696D01*
X0168831Y0232696D01*
X0169849Y0233713D01*
X0169849Y0234731D01*
X0168831Y0235748D01*
X0166796Y0235748D01*
X0165779Y0234731D01*
X0166796Y0232696D02*
X0165779Y0231678D01*
X0165779Y0230660D01*
X0166796Y0229643D01*
X0168831Y0229643D01*
X0169849Y0230660D01*
X0169849Y0231678D01*
X0168831Y0232696D01*
X0095046Y0232696D02*
X0090975Y0232696D01*
X0091993Y0235748D02*
X0095046Y0232696D01*
X0091993Y0235748D02*
X0091993Y0229643D01*
X0090975Y0196378D02*
X0095046Y0196378D01*
X0095046Y0193325D01*
X0093011Y0194343D01*
X0091993Y0194343D01*
X0090975Y0193325D01*
X0090975Y0191290D01*
X0091993Y0190273D01*
X0094028Y0190273D01*
X0095046Y0191290D01*
X0055676Y0191290D02*
X0054658Y0190273D01*
X0052623Y0190273D01*
X0051605Y0191290D01*
X0051605Y0192308D01*
X0052623Y0193325D01*
X0053640Y0193325D01*
X0052623Y0193325D02*
X0051605Y0194343D01*
X0051605Y0195361D01*
X0052623Y0196378D01*
X0054658Y0196378D01*
X0055676Y0195361D01*
X0053707Y0229643D02*
X0049637Y0229643D01*
X0053707Y0229643D02*
X0049637Y0233713D01*
X0049637Y0234731D01*
X0050654Y0235748D01*
X0052689Y0235748D01*
X0053707Y0234731D01*
X0014270Y0196378D02*
X0014270Y0190273D01*
X0016305Y0190273D02*
X0012235Y0190273D01*
X0016305Y0194343D02*
X0014270Y0196378D01*
X0026081Y0157008D02*
X0026081Y0150903D01*
X0028116Y0150903D02*
X0024046Y0150903D01*
X0028116Y0154973D02*
X0026081Y0157008D01*
X0031044Y0155990D02*
X0032062Y0157008D01*
X0034097Y0157008D01*
X0035114Y0155990D01*
X0031044Y0155990D02*
X0031044Y0154973D01*
X0035114Y0150903D01*
X0031044Y0150903D01*
X0063416Y0151920D02*
X0064434Y0150903D01*
X0066469Y0150903D01*
X0067487Y0151920D01*
X0065452Y0153955D02*
X0064434Y0153955D01*
X0063416Y0152938D01*
X0063416Y0151920D01*
X0064434Y0153955D02*
X0063416Y0154973D01*
X0063416Y0155990D01*
X0064434Y0157008D01*
X0066469Y0157008D01*
X0067487Y0155990D01*
X0070414Y0155990D02*
X0071432Y0157008D01*
X0073467Y0157008D01*
X0074485Y0155990D01*
X0070414Y0155990D02*
X0070414Y0154973D01*
X0074485Y0150903D01*
X0070414Y0150903D01*
X0102787Y0151920D02*
X0103804Y0150903D01*
X0105839Y0150903D01*
X0106857Y0151920D01*
X0106857Y0153955D02*
X0104822Y0154973D01*
X0103804Y0154973D01*
X0102787Y0153955D01*
X0102787Y0151920D01*
X0106857Y0153955D02*
X0106857Y0157008D01*
X0102787Y0157008D01*
X0109784Y0155990D02*
X0110802Y0157008D01*
X0112837Y0157008D01*
X0113855Y0155990D01*
X0109784Y0155990D02*
X0109784Y0154973D01*
X0113855Y0150903D01*
X0109784Y0150903D01*
X0142157Y0155990D02*
X0146227Y0151920D01*
X0146227Y0150903D01*
X0149155Y0150903D02*
X0153225Y0150903D01*
X0149155Y0154973D01*
X0149155Y0155990D01*
X0150172Y0157008D01*
X0152207Y0157008D01*
X0153225Y0155990D01*
X0146227Y0157008D02*
X0142157Y0157008D01*
X0142157Y0155990D01*
X0185464Y0155990D02*
X0185464Y0151920D01*
X0186481Y0150903D01*
X0188516Y0150903D01*
X0189534Y0151920D01*
X0188516Y0153955D02*
X0185464Y0153955D01*
X0185464Y0155990D02*
X0186481Y0157008D01*
X0188516Y0157008D01*
X0189534Y0155990D01*
X0189534Y0154973D01*
X0188516Y0153955D01*
X0192462Y0154973D02*
X0192462Y0155990D01*
X0193479Y0157008D01*
X0195514Y0157008D01*
X0196532Y0155990D01*
X0192462Y0154973D02*
X0196532Y0150903D01*
X0192462Y0150903D01*
X0232708Y0150903D02*
X0236778Y0150903D01*
X0234743Y0150903D02*
X0234743Y0157008D01*
X0236778Y0154973D01*
X0239706Y0154973D02*
X0240723Y0153955D01*
X0239706Y0152938D01*
X0239706Y0151920D01*
X0240723Y0150903D01*
X0242758Y0150903D01*
X0243776Y0151920D01*
X0241741Y0153955D02*
X0240723Y0153955D01*
X0239706Y0154973D02*
X0239706Y0155990D01*
X0240723Y0157008D01*
X0242758Y0157008D01*
X0243776Y0155990D01*
X0253410Y0117638D02*
X0252393Y0116620D01*
X0252393Y0115603D01*
X0256463Y0111533D01*
X0252393Y0111533D01*
X0253410Y0117638D02*
X0255445Y0117638D01*
X0256463Y0116620D01*
X0259391Y0116620D02*
X0259391Y0115603D01*
X0260408Y0114585D01*
X0259391Y0113568D01*
X0259391Y0112550D01*
X0260408Y0111533D01*
X0262443Y0111533D01*
X0263461Y0112550D01*
X0261426Y0114585D02*
X0260408Y0114585D01*
X0259391Y0116620D02*
X0260408Y0117638D01*
X0262443Y0117638D01*
X0263461Y0116620D01*
X0303574Y0114585D02*
X0307644Y0114585D01*
X0304591Y0117638D01*
X0304591Y0111533D01*
X0310572Y0112550D02*
X0311589Y0111533D01*
X0313624Y0111533D01*
X0314642Y0112550D01*
X0312607Y0114585D02*
X0311589Y0114585D01*
X0310572Y0113568D01*
X0310572Y0112550D01*
X0311589Y0114585D02*
X0310572Y0115603D01*
X0310572Y0116620D01*
X0311589Y0117638D01*
X0313624Y0117638D01*
X0314642Y0116620D01*
X0342944Y0117638D02*
X0344979Y0116620D01*
X0347014Y0114585D01*
X0343962Y0114585D01*
X0342944Y0113568D01*
X0342944Y0112550D01*
X0343962Y0111533D01*
X0345997Y0111533D01*
X0347014Y0112550D01*
X0347014Y0114585D01*
X0349942Y0113568D02*
X0349942Y0112550D01*
X0350959Y0111533D01*
X0352995Y0111533D01*
X0354012Y0112550D01*
X0351977Y0114585D02*
X0350959Y0114585D01*
X0349942Y0113568D01*
X0350959Y0114585D02*
X0349942Y0115603D01*
X0349942Y0116620D01*
X0350959Y0117638D01*
X0352995Y0117638D01*
X0354012Y0116620D01*
X0216217Y0116620D02*
X0215199Y0117638D01*
X0213164Y0117638D01*
X0212147Y0116620D01*
X0212147Y0115603D01*
X0213164Y0114585D01*
X0212147Y0113568D01*
X0212147Y0112550D01*
X0213164Y0111533D01*
X0215199Y0111533D01*
X0216217Y0112550D01*
X0214182Y0114585D02*
X0213164Y0114585D01*
X0209219Y0112550D02*
X0209219Y0116620D01*
X0208201Y0117638D01*
X0206166Y0117638D01*
X0205149Y0116620D01*
X0209219Y0112550D01*
X0208201Y0111533D01*
X0206166Y0111533D01*
X0205149Y0112550D01*
X0205149Y0116620D01*
X0176847Y0116620D02*
X0175829Y0117638D01*
X0173794Y0117638D01*
X0172777Y0116620D01*
X0172777Y0115603D01*
X0176847Y0111533D01*
X0172777Y0111533D01*
X0169849Y0112550D02*
X0169849Y0113568D01*
X0168831Y0114585D01*
X0166796Y0114585D01*
X0165779Y0113568D01*
X0165779Y0112550D01*
X0166796Y0111533D01*
X0168831Y0111533D01*
X0169849Y0112550D01*
X0168831Y0114585D02*
X0169849Y0115603D01*
X0169849Y0116620D01*
X0168831Y0117638D01*
X0166796Y0117638D01*
X0165779Y0116620D01*
X0165779Y0115603D01*
X0166796Y0114585D01*
X0137477Y0116620D02*
X0136459Y0117638D01*
X0134424Y0117638D01*
X0133407Y0116620D01*
X0133407Y0115603D01*
X0137477Y0111533D01*
X0133407Y0111533D01*
X0130479Y0112550D02*
X0129461Y0111533D01*
X0127426Y0111533D01*
X0126409Y0112550D01*
X0126409Y0113568D01*
X0127426Y0114585D01*
X0130479Y0114585D01*
X0130479Y0112550D01*
X0130479Y0114585D02*
X0128444Y0116620D01*
X0126409Y0117638D01*
X0094170Y0116620D02*
X0093152Y0117638D01*
X0091117Y0117638D01*
X0090099Y0116620D01*
X0090099Y0115603D01*
X0094170Y0111533D01*
X0090099Y0111533D01*
X0087172Y0114585D02*
X0083101Y0114585D01*
X0084119Y0111533D02*
X0084119Y0117638D01*
X0087172Y0114585D01*
X0054799Y0116620D02*
X0053782Y0117638D01*
X0051747Y0117638D01*
X0050729Y0116620D01*
X0050729Y0115603D01*
X0054799Y0111533D01*
X0050729Y0111533D01*
X0047802Y0111533D02*
X0043731Y0115603D01*
X0043731Y0116620D01*
X0044749Y0117638D01*
X0046784Y0117638D01*
X0047802Y0116620D01*
X0047802Y0111533D02*
X0043731Y0111533D01*
X0021335Y0111533D02*
X0017265Y0115603D01*
X0017265Y0116620D01*
X0018282Y0117638D01*
X0020317Y0117638D01*
X0021335Y0116620D01*
X0021335Y0111533D02*
X0017265Y0111533D01*
X0014337Y0112550D02*
X0010267Y0116620D01*
X0010267Y0112550D01*
X0011284Y0111533D01*
X0013319Y0111533D01*
X0014337Y0112550D01*
X0014337Y0116620D01*
X0013319Y0117638D01*
X0011284Y0117638D01*
X0010267Y0116620D01*
D12*
X0023950Y0217795D02*
X0023950Y0221248D01*
X0025101Y0222399D01*
X0029705Y0222399D01*
X0030856Y0221248D01*
X0030856Y0217795D01*
X0023950Y0217795D01*
X0025101Y0227003D02*
X0023950Y0228154D01*
X0023950Y0230456D01*
X0025101Y0231607D01*
X0026252Y0231607D01*
X0027403Y0230456D01*
X0027403Y0228154D01*
X0028554Y0227003D01*
X0029705Y0227003D01*
X0030856Y0228154D01*
X0030856Y0230456D01*
X0029705Y0231607D01*
X0030856Y0236211D02*
X0025101Y0236211D01*
X0023950Y0237362D01*
X0023950Y0239664D01*
X0025101Y0240815D01*
X0030856Y0240815D01*
X0030856Y0245418D02*
X0023950Y0245418D01*
X0023950Y0248871D01*
X0025101Y0250022D01*
X0026252Y0250022D01*
X0027403Y0248871D01*
X0027403Y0245418D01*
X0030856Y0245418D02*
X0030856Y0248871D01*
X0029705Y0250022D01*
X0028554Y0250022D01*
X0027403Y0248871D01*
X0015856Y0250790D02*
X0011252Y0250790D01*
X0008950Y0253092D01*
X0011252Y0255394D01*
X0015856Y0255394D01*
X0023950Y0266136D02*
X0030856Y0266136D01*
X0030856Y0263834D02*
X0030856Y0268438D01*
X0029705Y0273042D02*
X0025101Y0273042D01*
X0023950Y0274193D01*
X0023950Y0276495D01*
X0025101Y0277646D01*
X0029705Y0277646D01*
X0030856Y0276495D01*
X0030856Y0274193D01*
X0029705Y0273042D01*
X0015856Y0272658D02*
X0015856Y0270356D01*
X0014705Y0269205D01*
X0015856Y0272658D02*
X0014705Y0273809D01*
X0013554Y0273809D01*
X0008950Y0269205D01*
X0008950Y0273809D01*
X0008950Y0278413D02*
X0008950Y0279564D01*
X0010101Y0279564D01*
X0010101Y0278413D01*
X0008950Y0278413D01*
X0010101Y0283017D02*
X0008950Y0284168D01*
X0008950Y0286470D01*
X0010101Y0287621D01*
X0014705Y0287621D01*
X0010101Y0283017D01*
X0014705Y0283017D01*
X0015856Y0284168D01*
X0015856Y0286470D01*
X0014705Y0287621D01*
X0023950Y0291458D02*
X0030856Y0291458D01*
X0030856Y0294911D01*
X0029705Y0296062D01*
X0027403Y0296062D01*
X0026252Y0294911D01*
X0026252Y0291458D01*
X0023950Y0300666D02*
X0023950Y0302968D01*
X0023950Y0301817D02*
X0030856Y0301817D01*
X0030856Y0300666D02*
X0030856Y0302968D01*
X0030856Y0306804D02*
X0023950Y0306804D01*
X0023950Y0311408D02*
X0030856Y0311408D01*
X0030856Y0306804D02*
X0023950Y0311408D01*
X0025101Y0316012D02*
X0023950Y0317163D01*
X0023950Y0319465D01*
X0025101Y0320616D01*
X0026252Y0320616D01*
X0027403Y0319465D01*
X0027403Y0317163D01*
X0028554Y0316012D01*
X0029705Y0316012D01*
X0030856Y0317163D01*
X0030856Y0319465D01*
X0029705Y0320616D01*
X0363281Y0097494D02*
X0363281Y0095192D01*
X0364432Y0094041D01*
X0369036Y0098645D01*
X0364432Y0098645D01*
X0363281Y0097494D01*
X0364432Y0094041D02*
X0369036Y0094041D01*
X0370187Y0095192D01*
X0370187Y0097494D01*
X0369036Y0098645D01*
X0364432Y0090588D02*
X0363281Y0090588D01*
X0363281Y0089437D01*
X0364432Y0089437D01*
X0364432Y0090588D01*
X0363281Y0084833D02*
X0363281Y0080229D01*
X0367885Y0084833D01*
X0369036Y0084833D01*
X0370187Y0083682D01*
X0370187Y0081380D01*
X0369036Y0080229D01*
X0378281Y0077160D02*
X0385187Y0077160D01*
X0385187Y0074858D02*
X0385187Y0079462D01*
X0384036Y0084066D02*
X0379432Y0084066D01*
X0378281Y0085217D01*
X0378281Y0087519D01*
X0379432Y0088670D01*
X0384036Y0088670D01*
X0385187Y0087519D01*
X0385187Y0085217D01*
X0384036Y0084066D01*
X0385187Y0102481D02*
X0378281Y0102481D01*
X0380583Y0102481D02*
X0380583Y0105934D01*
X0381734Y0107085D01*
X0384036Y0107085D01*
X0385187Y0105934D01*
X0385187Y0102481D01*
X0385187Y0111689D02*
X0385187Y0113991D01*
X0385187Y0112840D02*
X0378281Y0112840D01*
X0378281Y0111689D02*
X0378281Y0113991D01*
X0378281Y0117828D02*
X0385187Y0117828D01*
X0378281Y0122432D01*
X0385187Y0122432D01*
X0384036Y0127036D02*
X0382885Y0127036D01*
X0381734Y0128187D01*
X0381734Y0130489D01*
X0380583Y0131640D01*
X0379432Y0131640D01*
X0378281Y0130489D01*
X0378281Y0128187D01*
X0379432Y0127036D01*
X0384036Y0127036D02*
X0385187Y0128187D01*
X0385187Y0130489D01*
X0384036Y0131640D01*
X0370187Y0066417D02*
X0365583Y0066417D01*
X0363281Y0064115D01*
X0365583Y0061813D01*
X0370187Y0061813D01*
X0378281Y0059895D02*
X0378281Y0056442D01*
X0385187Y0056442D01*
X0385187Y0059895D01*
X0384036Y0061046D01*
X0382885Y0061046D01*
X0381734Y0059895D01*
X0381734Y0056442D01*
X0381734Y0059895D02*
X0380583Y0061046D01*
X0379432Y0061046D01*
X0378281Y0059895D01*
X0379432Y0051838D02*
X0385187Y0051838D01*
X0379432Y0051838D02*
X0378281Y0050687D01*
X0378281Y0048385D01*
X0379432Y0047234D01*
X0385187Y0047234D01*
X0384036Y0042630D02*
X0385187Y0041479D01*
X0385187Y0039177D01*
X0384036Y0038026D01*
X0382885Y0038026D01*
X0381734Y0039177D01*
X0381734Y0041479D01*
X0380583Y0042630D01*
X0379432Y0042630D01*
X0378281Y0041479D01*
X0378281Y0039177D01*
X0379432Y0038026D01*
X0379432Y0033422D02*
X0384036Y0033422D01*
X0385187Y0032271D01*
X0385187Y0028819D01*
X0378281Y0028819D01*
X0378281Y0032271D01*
X0379432Y0033422D01*
M02*
