G75*
%MOIN*%
%OFA0B0*%
%FSLAX25Y25*%
%IPPOS*%
%LPD*%
%AMOC8*
5,1,8,0,0,1.08239X$1,22.5*
%
%ADD10C,0.07137*%
%ADD11OC8,0.07200*%
%ADD12C,0.20800*%
D10*
X0022774Y0109309D02*
X0022774Y0115646D01*
X0042459Y0148679D02*
X0042459Y0155016D01*
X0022774Y0188049D02*
X0022774Y0194386D01*
X0062144Y0194386D02*
X0062144Y0188049D01*
X0081829Y0155016D02*
X0081829Y0148679D01*
X0062144Y0115646D02*
X0062144Y0109309D01*
X0101514Y0109309D02*
X0101514Y0115646D01*
X0121199Y0148679D02*
X0121199Y0155016D01*
X0101514Y0188049D02*
X0101514Y0194386D01*
X0140884Y0194386D02*
X0140884Y0188049D01*
X0160569Y0155016D02*
X0160569Y0148679D01*
X0140884Y0115646D02*
X0140884Y0109309D01*
X0180254Y0109309D02*
X0180254Y0115646D01*
X0199939Y0148679D02*
X0199939Y0155016D01*
X0180254Y0188049D02*
X0180254Y0194386D01*
X0219624Y0194386D02*
X0219624Y0188049D01*
X0249309Y0155016D02*
X0249309Y0148679D01*
X0268994Y0115646D02*
X0268994Y0109309D01*
X0318050Y0109309D02*
X0318050Y0115646D01*
X0337735Y0148679D02*
X0337735Y0155016D01*
X0337735Y0188049D02*
X0337735Y0194386D01*
X0377105Y0194386D02*
X0377105Y0188049D01*
X0377105Y0155016D02*
X0377105Y0148679D01*
X0357420Y0115646D02*
X0357420Y0109309D01*
X0298365Y0148679D02*
X0298365Y0155016D01*
X0298365Y0188049D02*
X0298365Y0194386D01*
X0258994Y0194386D02*
X0258994Y0188049D01*
X0258994Y0227419D02*
X0258994Y0233756D01*
X0298365Y0233756D02*
X0298365Y0227419D01*
X0337735Y0227419D02*
X0337735Y0233756D01*
X0377105Y0233756D02*
X0377105Y0227419D01*
X0219624Y0227419D02*
X0219624Y0233756D01*
X0180254Y0233756D02*
X0180254Y0227419D01*
X0140884Y0227419D02*
X0140884Y0233756D01*
X0101514Y0233756D02*
X0101514Y0227419D01*
X0062144Y0227419D02*
X0062144Y0233756D01*
X0219624Y0115646D02*
X0219624Y0109309D01*
D11*
X0220655Y0075300D03*
X0231555Y0075300D03*
X0242455Y0075300D03*
X0247855Y0065300D03*
X0236955Y0065300D03*
X0226155Y0065300D03*
X0215255Y0065300D03*
X0209855Y0075300D03*
X0198955Y0075300D03*
X0188055Y0075300D03*
X0177255Y0075300D03*
X0182655Y0065300D03*
X0193555Y0065300D03*
X0204355Y0065300D03*
X0171755Y0065300D03*
X0160955Y0065300D03*
X0150055Y0065300D03*
X0139155Y0065300D03*
X0133755Y0075300D03*
X0144555Y0075300D03*
X0155455Y0075300D03*
X0166355Y0075300D03*
X0128255Y0065300D03*
X0117455Y0065300D03*
X0106555Y0065300D03*
X0101155Y0075300D03*
X0111955Y0075300D03*
X0122855Y0075300D03*
X0253255Y0075300D03*
X0264155Y0075300D03*
X0275055Y0075300D03*
X0285855Y0075300D03*
X0280455Y0065300D03*
X0269555Y0065300D03*
X0258755Y0065300D03*
X0291355Y0065300D03*
X0296755Y0075300D03*
X0296834Y0271965D03*
X0286034Y0271965D03*
X0275134Y0271965D03*
X0264234Y0271965D03*
X0253434Y0271965D03*
X0242534Y0271965D03*
X0231634Y0271965D03*
X0220734Y0271965D03*
X0209934Y0271965D03*
X0199034Y0271965D03*
X0188134Y0271965D03*
X0177334Y0271965D03*
X0166434Y0271965D03*
X0155534Y0271965D03*
X0144734Y0271965D03*
X0133834Y0271965D03*
X0122934Y0271965D03*
X0112134Y0271965D03*
X0101234Y0271965D03*
X0106634Y0281965D03*
X0117534Y0281965D03*
X0128434Y0281965D03*
X0139234Y0281965D03*
X0150134Y0281965D03*
X0161034Y0281965D03*
X0171834Y0281965D03*
X0182734Y0281965D03*
X0193634Y0281965D03*
X0204434Y0281965D03*
X0215334Y0281965D03*
X0226234Y0281965D03*
X0237134Y0281965D03*
X0247934Y0281965D03*
X0258834Y0281965D03*
X0269734Y0281965D03*
X0280534Y0281965D03*
X0291434Y0281965D03*
D12*
X0073955Y0070300D03*
X0074034Y0276965D03*
X0324034Y0276965D03*
X0323955Y0070300D03*
M02*
