%
M48
M72
T01C0.0394
T02C0.0400
T03C0.1300
%
T01
X2277Y11248
X6214Y11248
X10151Y11248
X14088Y11248
X18025Y11248
X21962Y11248
X19994Y15185
X16057Y15185
X12120Y15185
X8183Y15185
X4246Y15185
X6214Y19122
X10151Y19122
X14088Y19122
X18025Y19122
X21962Y19122
X25899Y19122
X29836Y19122
X33773Y19122
X37710Y19122
X37710Y23059
X33773Y23059
X29836Y23059
X25899Y23059
X21962Y23059
X18025Y23059
X14088Y23059
X10151Y23059
X6214Y23059
X2277Y19122
X24931Y15185
X26899Y11248
X31805Y11248
X35742Y11248
X37710Y15185
X33773Y15185
X29836Y15185
T02
X29676Y7530
X29136Y6530
X28046Y6530
X26956Y6530
X25876Y6530
X26416Y7530
X27506Y7530
X28586Y7530
X25326Y7530
X24786Y6530
X23696Y6530
X22616Y6530
X21526Y6530
X22066Y7530
X23156Y7530
X24246Y7530
X20986Y7530
X19896Y7530
X18806Y7530
X17726Y7530
X18266Y6530
X19356Y6530
X20436Y6530
X17176Y6530
X16096Y6530
X15006Y6530
X13916Y6530
X14456Y7530
X13376Y7530
X12826Y6530
X11746Y6530
X10656Y6530
X11196Y7530
X10116Y7530
X12286Y7530
X15546Y7530
X16636Y7530
X16643Y27197
X15553Y27197
X14473Y27197
X13383Y27197
X12293Y27197
X11213Y27197
X10123Y27197
X10663Y28197
X11753Y28197
X12843Y28197
X13923Y28197
X15013Y28197
X16103Y28197
X17183Y28197
X18273Y28197
X19363Y28197
X20443Y28197
X21533Y28197
X22623Y28197
X23713Y28197
X24793Y28197
X25883Y28197
X26973Y28197
X28053Y28197
X29143Y28197
X28603Y27197
X27513Y27197
X26423Y27197
X25343Y27197
X24253Y27197
X23163Y27197
X22073Y27197
X20993Y27197
X19903Y27197
X18813Y27197
X17733Y27197
X29683Y27197
T03
X7396Y7030
X7403Y27697
X32403Y27697
X32396Y7030
M30
