*
G04 Mass Parameters ***
*
G04 Image ***
*
%IND:\DOCUMENTS\CIRCUIT LAYOUTS AND SCHEMATICS\SWTICH NETWORK\FINAL\SWITCH NETWORK.BOT*%
%ICAS*%
%MOIN*%
%IPPOS*%
%ASAXBY*%
G74*%FSLAN2X34Y34*%
*
G04 Aperture Definitions ***
*
%ADD10O,0.0900X0.0160*%
%ADD11R,0.0900X0.0160*%
%ADD12C,0.0620*%
%ADD13R,0.0620X0.0620*%
%ADD14R,0.0580X0.0580*%
%ADD15C,0.1200*%
%ADD16C,0.0630*%
%ADD17R,0.0630X0.0630*%
%ADD18R,0.0500X0.0500*%
%ADD19C,0.0300*%
%ADD20C,0.0300*%
%ADD21C,0.0100*%
%ADD22C,0.0300*%
*
G04 Plot Data ***
*
G54D21*
G01X0047500Y0009000D02*
Y0007750D01*
X0047750Y0024750D02*
Y0024500D01*
X0047500Y0024250D01*
Y0009000D01*
X0029250Y0025000D02*
Y0026500D01*
X0047750Y0024750D02*
X0047250Y0025250D01*
Y0026250D01*
X0048250Y0031000D02*
Y0026500D01*
X0029250Y0031250D02*
Y0026500D01*
X0041000Y0031000D02*
X0042250Y0032250D01*
X0046000D01*
X0047250Y0031000D01*
Y0026250D01*
Y0025250D01*
X0047750Y0024750D01*
X0029750Y0011500D02*
X0029500Y0011750D01*
Y0015500D01*
X0029875Y0015875D01*
Y0016125D01*
X0029427Y0016573D01*
X0029250D01*
Y0025000D01*
Y0016573D01*
X0029073D01*
X0028750Y0016250D01*
Y0011000D01*
X0028500Y0010750D01*
Y0007000D01*
X0028750Y0006750D01*
X0035750Y0032750D02*
Y0030750D01*
X0035250Y0030250D01*
Y0026000D01*
X0021750Y0025000D02*
X0021500Y0024750D01*
Y0023250D01*
X0022250Y0022500D01*
Y0018500D01*
X0022000Y0018250D01*
Y0011250D01*
X0022250Y0011000D01*
X0036500D02*
Y0008500D01*
X0042500Y0012750D02*
X0043000Y0013250D01*
X0043500D01*
X0027000Y0009000D02*
Y0010000D01*
X0057000Y0023000D02*
Y0019500D01*
X0057500Y0019000D01*
Y0012250D01*
X0055000Y0009750D01*
X0054000D01*
X0034250Y0029000D02*
X0034000Y0029250D01*
Y0030000D01*
X0027250Y0028250D02*
Y0029250D01*
X0045750Y0025000D02*
Y0016875D01*
X0045125Y0016250D01*
Y0013375D01*
X0045750Y0012750D01*
X0036500Y0007250D02*
Y0004000D01*
X0030500Y0032750D02*
X0030750Y0033000D01*
X0035500D01*
X0035750Y0032750D01*
X0045750Y0031750D02*
Y0025000D01*
X0036500Y0004000D02*
Y0007250D01*
Y0008500D01*
Y0011000D01*
X0046500Y0032500D02*
X0047250D01*
X0047750Y0032000D01*
Y0031500D01*
X0036750Y0032000D02*
Y0028000D01*
X0026750Y0027500D02*
Y0025250D01*
X0030000Y0012250D02*
Y0011750D01*
X0030250Y0011500D01*
Y0010750D01*
X0030000Y0010500D01*
Y0006500D01*
X0036750Y0025000D02*
Y0028000D01*
Y0032000D01*
X0043250Y0006750D02*
Y0011500D01*
X0042750Y0012000D01*
X0049000Y0025250D02*
Y0021250D01*
X0049500Y0020750D01*
Y0013500D01*
X0026750Y0031750D02*
Y0027500D01*
Y0025250D01*
X0049000Y0032250D02*
Y0025250D01*
X0024750Y0022500D02*
Y0002500D01*
X0025250Y0002000D01*
X0029500D01*
X0030000Y0002500D01*
Y0002750D01*
X0029750Y0003000D01*
Y0004000D01*
X0040000D02*
Y0003250D01*
X0040250Y0003000D01*
X0057000Y0029000D02*
Y0028500D01*
X0056500Y0028000D01*
Y0024750D01*
X0029750Y0004000D02*
Y0005000D01*
X0024750Y0028750D02*
X0024500Y0028500D01*
Y0025000D01*
X0026500Y0005750D02*
X0026000Y0006250D01*
Y0010750D01*
X0025250Y0011500D01*
X0039250Y0009000D02*
Y0011500D01*
X0025250D02*
Y0024250D01*
X0024500Y0025000D01*
X0024750Y0028750D02*
Y0031000D01*
X0024250Y0031500D01*
X0046250Y0031000D02*
Y0025500D01*
X0046750Y0025000D01*
Y0024000D01*
X0046250D01*
X0032250Y0031500D02*
Y0024750D01*
X0032500Y0024500D01*
X0039000Y0005500D02*
X0039250Y0005750D01*
Y0009000D01*
Y0011500D01*
X0046250Y0024000D02*
X0046750D01*
Y0008250D01*
X0049750Y0021750D02*
Y0028500D01*
Y0028750D01*
X0036250Y0030250D02*
X0035750Y0029750D01*
Y0024250D01*
X0036250Y0023750D01*
X0041250Y0006500D02*
Y0005000D01*
X0042250Y0004000D01*
X0042500D01*
X0043000Y0004500D01*
Y0006500D01*
X0042750Y0006750D01*
Y0011500D01*
X0042000Y0012250D01*
X0041750D01*
X0028250Y0012500D02*
Y0014750D01*
X0041750D02*
Y0012250D01*
X0031500Y0012000D02*
X0031000Y0012500D01*
Y0015625D01*
X0030875Y0015750D01*
Y0016375D01*
X0031500Y0017000D01*
Y0027500D01*
X0039250D02*
Y0025250D01*
X0036250Y0028500D02*
Y0024250D01*
X0036750Y0023750D01*
Y0018500D01*
X0036250Y0018000D01*
X0036145D01*
X0035645Y0017500D01*
X0035515D01*
X0035265D01*
Y0017120D01*
Y0017500D01*
X0035515D01*
Y0017750D01*
X0035750D01*
X0036250Y0018250D01*
Y0020500D01*
X0034250Y0022500D01*
X0039250Y0025250D02*
Y0027500D01*
X0031500D02*
X0031000D01*
X0030500Y0028000D01*
Y0031500D01*
X0029750Y0032250D01*
X0026500D01*
X0026250Y0026250D02*
X0026000Y0026500D01*
Y0031750D01*
X0026500Y0032250D01*
X0031500Y0012000D02*
X0031250Y0011750D01*
Y0008500D01*
X0031500Y0008250D01*
Y0006750D01*
X0043750Y0012500D02*
Y0007250D01*
X0044000Y0007000D01*
X0033000Y0023250D02*
Y0024750D01*
X0032750Y0025000D01*
Y0030250D01*
X0033000Y0023250D02*
X0032000Y0022250D01*
Y0018500D01*
X0032750Y0017750D01*
X0032835D01*
X0033085Y0017500D01*
Y0017120D01*
X0048000Y0024000D02*
X0048250Y0024250D01*
Y0024750D01*
X0047750Y0025250D01*
Y0031000D01*
X0048500Y0025250D02*
Y0020750D01*
X0049250Y0020000D01*
Y0014250D01*
X0049000Y0014000D01*
X0038750Y0029750D02*
X0038500Y0029500D01*
Y0023000D01*
X0039750Y0030500D02*
Y0025000D01*
Y0024250D01*
Y0024125D01*
X0039625D01*
Y0017120D01*
X0038750Y0032000D02*
Y0030500D01*
X0039500Y0029750D01*
Y0028750D01*
X0039250Y0028500D01*
Y0027500D01*
Y0025250D01*
X0034000Y0024000D02*
X0033750Y0024250D01*
Y0029500D01*
X0033500Y0029750D01*
Y0030750D01*
X0033750Y0031000D01*
X0035000Y0032500D02*
Y0027500D01*
X0034750Y0027250D01*
Y0026000D01*
X0035000Y0025750D01*
Y0025500D01*
X0034175Y0017120D02*
Y0017575D01*
X0033500Y0018250D01*
Y0022750D01*
Y0029000D01*
X0033250Y0029250D01*
Y0022750D02*
X0033500D01*
Y0018250D01*
X0034175Y0017575D01*
Y0017120D01*
X0043985D02*
Y0017485D01*
X0044750Y0018250D01*
Y0022250D01*
X0045000D01*
Y0029000D01*
X0048500Y0032000D02*
X0048750Y0031750D01*
Y0025750D01*
X0048500Y0025500D01*
Y0025250D01*
X0038750Y0022500D02*
X0039000Y0022750D01*
Y0023000D01*
X0038750Y0023250D01*
Y0028500D01*
X0039000Y0028750D01*
X0038535Y0017120D02*
Y0017535D01*
X0039250Y0018250D01*
Y0023250D01*
X0037445Y0017120D02*
Y0017695D01*
X0038000Y0018250D01*
Y0022500D01*
X0038500Y0023000D01*
X0036355Y0017120D02*
X0037250Y0018015D01*
Y0028750D01*
X0028725Y0017120D02*
Y0017525D01*
X0028250Y0018000D01*
Y0023000D01*
X0027500D01*
Y0024500D01*
X0028250Y0025250D01*
Y0030250D01*
X0044750Y0004000D02*
X0044500Y0003750D01*
X0041500D01*
X0041000Y0004250D01*
Y0005500D01*
X0040750Y0005750D01*
Y0015000D01*
X0040170Y0015580D01*
Y0016000D01*
X0038500Y0003750D02*
Y0013000D01*
Y0014500D01*
X0037750Y0015250D01*
X0037650D01*
X0036900Y0016000D01*
X0031995Y0017120D02*
X0032557Y0016557D01*
X0032615Y0016500D01*
X0034250D01*
X0034750Y0017000D01*
Y0017750D01*
X0033750Y0018750D01*
Y0023750D01*
X0034000Y0024000D01*
X0031500Y0005000D02*
X0031000Y0004500D01*
Y0003500D01*
X0031500Y0003000D01*
X0032500D01*
X0033000Y0003500D01*
Y0004500D01*
X0033500D01*
X0034000Y0005000D01*
Y0015250D01*
X0033630Y0015620D01*
Y0016000D01*
X0021750Y0022250D02*
X0021250Y0022750D01*
Y0029500D01*
X0021750Y0030000D01*
X0035810Y0016000D02*
Y0015500D01*
X0036000Y0015310D01*
Y0012250D01*
X0038000Y0010250D01*
Y0004500D01*
X0035250Y0010000D02*
X0034500D01*
Y0015280D01*
X0034720Y0015500D01*
Y0016000D01*
X0045000Y0009250D02*
Y0009750D01*
X0044750Y0010000D01*
Y0010250D01*
X0045073Y0010573D01*
X0045750D01*
Y0003250D01*
X0027635Y0017120D02*
Y0017615D01*
X0026500Y0018750D01*
Y0022000D01*
Y0024500D01*
X0028000Y0026000D01*
Y0029500D01*
X0027500Y0030000D01*
X0032250Y0004000D02*
Y0008250D01*
X0031750Y0008750D01*
Y0010000D01*
X0040000D02*
Y0013000D01*
X0038500D01*
Y0014500D01*
X0037750Y0015250D01*
X0037650D01*
X0036900Y0016000D01*
X0032250Y0009250D02*
X0032500Y0009000D01*
Y0004500D01*
X0032750Y0004250D01*
Y0004000D01*
X0032250Y0003500D01*
X0031500D01*
X0033630Y0016000D02*
Y0015620D01*
X0034000Y0015250D01*
Y0005000D01*
X0033500Y0004500D01*
X0033000D01*
Y0004750D01*
X0032750Y0005000D01*
Y0010500D01*
X0032250Y0011000D01*
X0026000Y0032500D02*
X0025250Y0031750D01*
Y0028500D01*
X0025000Y0028250D01*
Y0027250D01*
X0025500Y0026750D01*
Y0015000D01*
X0025750Y0014750D01*
X0046250Y0014500D02*
Y0011750D01*
X0048000Y0024000D02*
Y0019250D01*
X0022250Y0024000D02*
X0022750Y0023500D01*
Y0020000D01*
X0023000Y0019750D01*
X0043500D02*
Y0016500D01*
X0043440Y0016440D01*
Y0016000D01*
X0033500Y0032500D02*
X0033250Y0032250D01*
X0030500D01*
X0030177Y0032573D01*
Y0032927D01*
X0029823D01*
X0029750Y0033000D01*
X0025250D01*
X0024750Y0032500D01*
Y0032250D01*
X0045750Y0003250D02*
Y0010573D01*
Y0012000D01*
X0044750Y0013000D01*
Y0014750D01*
X0044000Y0015500D01*
X0039625Y0017120D02*
Y0024125D01*
X0039750D01*
Y0024000D01*
X0039250Y0027500D02*
Y0025250D01*
X0028000Y0024000D02*
X0028750Y0024750D01*
Y0030500D01*
X0028250Y0031000D01*
X0042500Y0002500D02*
X0041250D01*
X0040750Y0003000D01*
Y0004750D01*
X0040250Y0005250D01*
Y0009250D01*
X0044750Y0004000D02*
X0045500Y0004750D01*
Y0010000D01*
X0045250Y0010250D01*
X0042250Y0010500D02*
Y0004750D01*
X0042500Y0004500D01*
X0038000Y0010250D02*
X0036000Y0012250D01*
Y0015310D01*
X0035810Y0015500D01*
Y0016000D01*
X0037990D02*
X0038740Y0015250D01*
X0039750D01*
X0040500Y0014500D01*
Y0009750D01*
X0040250Y0009500D01*
Y0009250D01*
X0031500Y0003500D02*
Y0004500D01*
X0032000Y0005000D01*
Y0005250D01*
X0030750Y0006500D01*
Y0015250D01*
X0030360Y0015640D01*
Y0016000D01*
X0052750Y0026000D02*
Y0017250D01*
X0057000Y0013000D01*
X0052750Y0032000D02*
Y0026000D01*
Y0017250D01*
X0057000Y0013000D01*
X0023250Y0025500D02*
Y0032500D01*
X0027000Y0005000D02*
Y0006000D01*
X0026250Y0006750D01*
Y0010750D01*
X0026500Y0011000D01*
X0025500Y0009000D02*
Y0005000D01*
X0027000Y0003500D01*
X0027250D01*
X0027500Y0003750D01*
Y0015000D01*
X0028180Y0015680D01*
Y0016000D01*
X0021750Y0032000D02*
Y0032500D01*
X0022250Y0033000D01*
X0023250D01*
X0024500Y0031750D01*
X0025250D01*
X0026000Y0032500D01*
X0026500Y0012500D02*
X0026750Y0012750D01*
Y0014250D01*
X0035250Y0011750D02*
Y0016375D01*
X0035375Y0016500D01*
X0039875D01*
X0040125Y0016750D01*
Y0023875D01*
X0040250Y0024000D01*
Y0024250D01*
X0022000Y0023500D02*
Y0023250D01*
X0022500Y0022750D01*
Y0017750D01*
X0028750Y0004000D02*
X0029000Y0004250D01*
Y0006250D01*
X0029250Y0006500D01*
Y0008250D01*
X0029000Y0008500D01*
Y0010250D01*
X0028000Y0006500D02*
Y0012250D01*
X0028250Y0012500D01*
X0027635Y0017120D02*
Y0017615D01*
X0026500Y0018750D01*
Y0022000D01*
X0024250Y0030500D02*
Y0026000D01*
X0023500Y0025250D01*
Y0024000D01*
X0024000Y0023500D01*
X0024250D01*
X0043500Y0030500D02*
X0043000Y0030000D01*
Y0023500D01*
X0041260Y0016000D02*
Y0015510D01*
X0041250Y0015500D01*
Y0011000D01*
X0041750Y0010500D01*
X0042250D01*
X0032540Y0016000D02*
Y0015605D01*
X0032645Y0015500D01*
X0032750D01*
X0033250Y0015000D01*
Y0005000D01*
X0029270Y0016000D02*
Y0015520D01*
X0029250Y0015500D01*
Y0011000D01*
X0029500Y0010750D01*
Y0008750D01*
Y0005250D01*
X0029250Y0005000D01*
Y0002750D01*
X0029500Y0002500D01*
X0034500Y0005000D02*
Y0010000D01*
Y0015280D01*
X0034720Y0015500D01*
Y0016000D01*
X0024250Y0008250D02*
Y0023000D01*
X0024750Y0023500D01*
Y0024250D01*
X0024000Y0025000D01*
X0029500Y0008750D02*
Y0010750D01*
X0029250Y0011000D01*
Y0015500D01*
X0029270Y0015520D01*
Y0016000D01*
X0027250Y0015250D02*
Y0011000D01*
X0026500Y0010250D01*
Y0009000D01*
X0026750Y0008750D01*
Y0007000D01*
X0028250Y0031000D02*
X0029000Y0031750D01*
X0029750D01*
X0030250Y0031250D01*
Y0018250D01*
X0030905Y0017595D01*
Y0017120D01*
X0026545D02*
Y0017705D01*
X0026000Y0018250D01*
Y0021500D01*
X0025750Y0021750D01*
Y0028000D01*
X0025500Y0028250D01*
X0041805Y0017120D02*
X0042685Y0018000D01*
X0042750D01*
X0043000Y0018250D01*
Y0023500D01*
X0026545Y0017120D02*
Y0017705D01*
X0026000Y0018250D01*
Y0021500D01*
X0046500Y0032500D02*
X0040250D01*
X0039250Y0031500D01*
X0044500Y0010750D02*
Y0005500D01*
X0045000Y0005000D01*
Y0004750D01*
X0027250Y0003500D02*
X0027500Y0003750D01*
Y0015000D01*
X0028180Y0015680D01*
Y0016000D01*
X0026500Y0011000D02*
Y0011500D01*
X0026000Y0012000D01*
Y0012750D01*
X0026250Y0013000D01*
Y0015000D01*
X0026000Y0015250D01*
Y0016000D01*
X0031450D02*
Y0015550D01*
X0032000Y0015000D01*
Y0012000D01*
X0031750Y0011750D01*
Y0010000D01*
X0029815Y0017120D02*
Y0017685D01*
X0029750Y0017750D01*
Y0023500D01*
X0043985Y0017120D02*
Y0017485D01*
X0044750Y0018250D01*
Y0022250D01*
X0045620Y0016000D02*
X0046250Y0016630D01*
Y0020750D01*
X0021750D02*
Y0022250D01*
X0044500Y0010750D02*
Y0014000D01*
X0043000Y0015500D01*
X0042850D01*
X0042350Y0016000D01*
X0037750Y0025750D02*
Y0032750D01*
X0037250Y0033250D01*
X0030500D01*
X0030177Y0032927D01*
Y0032573D01*
X0030500Y0032250D01*
X0033250D01*
X0033500Y0032500D01*
X0022000Y0023500D02*
X0021750Y0023750D01*
Y0024000D01*
X0022250Y0024500D01*
Y0030250D01*
X0028725Y0017120D02*
Y0017525D01*
X0028250Y0018000D01*
Y0023000D01*
G54D12*
X0057000Y0014000D03*
Y0015000D03*
Y0016000D03*
Y0009000D03*
Y0010000D03*
Y0011000D03*
G54D13*
Y0013000D03*
Y0008000D03*
G54D14*
Y0023000D03*
Y0029000D03*
G54D15*
X0048310Y0016560D03*
X0023310D03*
G54D16*
X0027090Y0016000D03*
X0028180D03*
X0029270D03*
X0030360D03*
X0031450D03*
X0032540D03*
X0033630D03*
X0034720D03*
X0036900D03*
X0037990D03*
X0039080D03*
X0040170D03*
X0041260D03*
X0042350D03*
X0043440D03*
X0044530D03*
X0045620D03*
X0027635Y0017120D03*
X0028725D03*
X0029815D03*
X0030905D03*
X0031995D03*
X0033085D03*
X0034175D03*
X0035265D03*
X0036355D03*
X0038535D03*
X0039625D03*
X0040715D03*
X0041805D03*
X0042895D03*
X0043985D03*
X0045075D03*
G54D17*
X0026000Y0016000D03*
X0035810D03*
X0026545Y0017120D03*
X0037445D03*
G54D19*
X0039250Y0025250D03*
G54D20*
X0028250Y0023000D03*
G54D22*
X0047500Y0007750D03*
Y0009000D03*
X0047250Y0026250D03*
X0048250Y0031000D03*
Y0026500D03*
X0029250Y0031250D03*
Y0026500D03*
X0041000Y0031000D03*
X0047750Y0024750D03*
X0029750Y0011500D03*
X0029250Y0025000D03*
X0028750Y0006750D03*
X0035250Y0026000D03*
X0021750Y0025000D03*
X0022250Y0011000D03*
X0036500Y0008500D03*
X0042500Y0012750D03*
X0043500Y0013250D03*
X0027000Y0009000D03*
Y0010000D03*
X0054000Y0009750D03*
X0034250Y0029000D03*
X0034000Y0030000D03*
X0027250Y0028250D03*
Y0029250D03*
X0045750Y0012750D03*
X0036500Y0007250D03*
X0030500Y0032750D03*
X0035750D03*
X0045750Y0031750D03*
Y0025000D03*
X0036500Y0004000D03*
Y0011000D03*
X0047750Y0031500D03*
X0036750Y0028000D03*
X0026750Y0027500D03*
X0030000Y0012250D03*
Y0006500D03*
X0036750Y0025000D03*
Y0032000D03*
X0043250Y0006750D03*
X0049500Y0013500D03*
X0026750Y0031750D03*
Y0025250D03*
X0049000Y0032250D03*
Y0025250D03*
X0024750Y0022500D03*
X0040000Y0004000D03*
X0040250Y0003000D03*
X0056500Y0024750D03*
X0029750Y0004000D03*
Y0005000D03*
X0042750Y0012000D03*
X0026500Y0005750D03*
X0039250Y0009000D03*
X0025250Y0011500D03*
X0024500Y0025000D03*
X0024750Y0028750D03*
X0024250Y0031500D03*
X0046250Y0031000D03*
X0032250Y0031500D03*
X0032500Y0024500D03*
X0039000Y0005500D03*
X0039250Y0011500D03*
X0046250Y0024000D03*
X0046750Y0008250D03*
X0049750Y0021750D03*
Y0028750D03*
X0036250Y0030250D03*
Y0023750D03*
X0041250Y0006500D03*
X0028250Y0014750D03*
X0041750D03*
Y0012250D03*
X0036250Y0028500D03*
X0034250Y0022500D03*
X0031500Y0027500D03*
X0026250Y0026250D03*
X0026500Y0032250D03*
X0031500Y0012000D03*
Y0006750D03*
X0043750Y0012500D03*
X0044000Y0007000D03*
X0032750Y0030250D03*
X0033000Y0023250D03*
X0047750Y0031000D03*
X0049000Y0014000D03*
X0038750Y0029750D03*
X0039750Y0030500D03*
X0038750Y0032000D03*
X0033750Y0031000D03*
X0035000Y0032500D03*
Y0025500D03*
X0033250Y0029250D03*
Y0022750D03*
X0045000Y0029000D03*
X0048500Y0032000D03*
Y0025250D03*
X0038750Y0022500D03*
X0039000Y0028750D03*
X0039250Y0023250D03*
X0038500Y0023000D03*
X0037250Y0028750D03*
X0028250Y0030250D03*
X0038500Y0003750D03*
X0034000Y0024000D03*
X0031500Y0005000D03*
X0021750Y0030000D03*
X0038000Y0004500D03*
X0035250Y0010000D03*
X0045000Y0009250D03*
X0027500Y0030000D03*
X0032250Y0004000D03*
X0040000Y0010000D03*
X0032250Y0009250D03*
Y0011000D03*
X0025750Y0014750D03*
X0046250Y0014500D03*
Y0011750D03*
X0048000Y0024000D03*
Y0019250D03*
X0022250Y0024000D03*
X0023000Y0019750D03*
X0043500D03*
X0024750Y0032250D03*
X0045750Y0003250D03*
X0044000Y0015500D03*
X0039750Y0024000D03*
X0039250Y0027500D03*
X0028000Y0024000D03*
X0042500Y0002500D03*
X0044750Y0004000D03*
X0045250Y0010250D03*
X0042500Y0004500D03*
X0038000Y0010250D03*
X0040250Y0009250D03*
X0031500Y0003500D03*
X0052750Y0026000D03*
Y0032000D03*
X0023250Y0025500D03*
Y0032500D03*
X0027000Y0005000D03*
X0025500Y0009000D03*
X0021750Y0032000D03*
X0026000Y0032500D03*
X0026500Y0012500D03*
X0026750Y0014250D03*
X0035250Y0011750D03*
X0040250Y0024250D03*
X0022500Y0017750D03*
X0028750Y0004000D03*
X0029000Y0010250D03*
X0028000Y0006500D03*
X0028250Y0012500D03*
X0026500Y0022000D03*
X0024250Y0030500D03*
Y0023500D03*
X0043500Y0030500D03*
X0042250Y0010500D03*
X0033250Y0005000D03*
X0029500Y0002500D03*
X0034500Y0005000D03*
X0024250Y0008250D03*
X0024000Y0025000D03*
X0029500Y0008750D03*
X0027250Y0015250D03*
X0026750Y0007000D03*
X0028250Y0031000D03*
X0025500Y0028250D03*
X0043000Y0023500D03*
X0026000Y0021500D03*
X0046500Y0032500D03*
X0045000Y0004750D03*
X0027250Y0003500D03*
X0026500Y0011000D03*
X0031750Y0010000D03*
X0029750Y0023500D03*
X0044750Y0022250D03*
X0039250Y0031500D03*
X0046250Y0020750D03*
X0021750D03*
Y0022250D03*
X0044500Y0010750D03*
X0037750Y0025750D03*
X0033500Y0032500D03*
X0022000Y0023500D03*
X0022250Y0030250D03*
M02*
