*
G04 Mass Parameters ***
*
G04 Image ***
*
%IND:\DOCUMENTS\CIRCUIT LAYOUTS, SCHEMATICS AND MISC TECHNICAL\SWTICH NETWORK\NEW DESIGN MARCH 2015\SWITCH-NETWORK-ROUTED.TOP*%
%ICAS*%
%MOIN*%
%IPPOS*%
%ASAXBY*%
G74*%FSLAN2X34Y34*%
*
G04 Aperture Definitions ***
*
%ADD10C,0.1200*%
%ADD11C,0.0630*%
%ADD12R,0.0630X0.0630*%
%ADD13R,0.0580X0.0580*%
%ADD14O,0.0160X0.0900*%
%ADD15R,0.0160X0.0900*%
%ADD16R,0.0500X0.0500*%
%ADD17C,0.0300*%
%ADD18C,0.0300*%
%ADD19C,0.0120*%
%ADD20C,0.0300*%
%ADD21C,0.0300*%
*
G04 Plot Data ***
*
G54D19*
G01X0001750Y0030050D02*
Y0009100D01*
X0007950Y0008700D02*
X0008050D01*
X-0005200Y-0001300D02*
X-0004650D01*
Y-0003700D01*
X-0007440D01*
Y-0002792D01*
X0008000Y0008730D02*
X0001750D01*
Y0009100D01*
Y0030050D01*
Y0009100D01*
X-0007440Y-0002792D02*
Y-0003700D01*
X-0004650D01*
X-0059100Y0027342D02*
Y0011200D01*
X-0008046Y0026320D02*
Y0027090D01*
X0000000Y0030050D02*
Y0026560D01*
X-0000240Y0026320D02*
X-0008046D01*
Y0027090D01*
X-0047500Y0025720D02*
Y0025700D01*
X-0047232D01*
Y0024792D01*
X-0049300Y-0003328D02*
X-0063260D01*
X-0063500Y-0003088D02*
Y0012030D01*
X-0063260Y0012270D02*
X-0062000D01*
X-0007848Y0011892D02*
Y0011150D01*
X-0006750D01*
Y0011172D01*
X-0048652Y-0006208D02*
Y-0004990D01*
X-0048892Y-0004750D02*
X-0049060D01*
X-0049300Y-0004510D02*
Y-0003328D01*
X-0062000Y0011180D02*
Y0011150D01*
X-0060350D01*
Y0013900D01*
Y0035360D01*
X-0060110Y0035600D02*
X-0050160D01*
X-0007848Y0014592D02*
X-0007864D01*
Y0015386D01*
X-0006700Y0016550D01*
Y0019500D01*
X-0062000Y0011180D02*
Y0011150D01*
X-0060350D01*
Y0013900D01*
X-0063760D01*
X-0064000Y0013660D02*
Y-0008310D01*
X-0063760Y-0008550D02*
X-0052160D01*
Y-0009000D01*
X0002960Y0030900D02*
Y0035360D01*
X0002720Y0035600D02*
X-0050160D01*
X-0049160Y0022000D02*
X-0048600D01*
X-0053600Y0005450D02*
Y0010160D01*
X-0053840Y0010400D02*
X-0060110D01*
X-0060350Y0010640D02*
Y0011150D01*
X-0062000D01*
Y0011180D01*
X-0051400Y0001440D02*
X-0052500D01*
Y0001450D01*
X-0053600D01*
X-0048600Y0022000D02*
X-0049160D01*
X-0059630Y-0005230D02*
X-0054550D01*
Y-0005330D01*
X-0049630D01*
X-0049148D01*
X-0048908Y-0005570D02*
Y-0006208D01*
X-0007790Y0027090D02*
X-0007400D01*
Y0027200D01*
X-0007592Y0011892D02*
Y0012550D01*
X-0006390D01*
X-0006150Y0012310D02*
Y0008750D01*
X-0049630Y-0005330D02*
X-0049148D01*
X-0048908Y-0005570D02*
Y-0006208D01*
X-0005850Y-0003350D02*
X-0006200D01*
Y-0003450D01*
X-0007184D01*
Y-0002792D01*
X0001250Y0008750D02*
Y0007880D01*
X0001490Y0007640D02*
X0008000D01*
X0001490D01*
X0001250Y0007880D02*
Y0008750D01*
Y0030160D01*
X0001010Y0030400D02*
X-0001000D01*
Y0027440D01*
X-0001240Y0027200D02*
X-0007400D01*
Y0027090D01*
X-0007790D01*
X-0047488Y0024792D02*
Y0024150D01*
X-0048610D01*
X-0048850Y0024390D02*
Y0024810D01*
X-0049090Y0025050D02*
X-0050800D01*
Y0027650D01*
Y0025050D01*
X-0050810D01*
X-0051050Y0024810D02*
Y0020200D01*
Y0013590D01*
X-0051290Y0013350D02*
X-0058750D01*
X-0004300Y-0003350D02*
Y-0000700D01*
X0001250Y0008750D02*
Y0007880D01*
X0001490Y0007640D02*
X0008000D01*
X-0007790Y0027090D02*
X-0007400D01*
Y0027200D01*
X-0001240D01*
X-0001000Y0027440D02*
Y0030400D01*
Y0034260D01*
X-0001240Y0034500D02*
X-0038160D01*
X-0038400Y0034260D02*
Y0020440D01*
X-0038640Y0020200D02*
X-0051050D01*
Y0013590D01*
X-0051290Y0013350D02*
X-0058750D01*
X-0007790Y0029790D02*
Y0029150D01*
X-0007350D01*
X-0007110Y0029390D02*
Y0030540D01*
X-0040950Y0031750D02*
Y0030650D01*
Y0030640D01*
X-0041190Y0030400D02*
X-0047500D01*
Y0030372D01*
X0005542Y0004842D02*
X0001700Y0001000D01*
X0000150D01*
X-0060880Y0009545D02*
X-0056800D01*
X-0056750Y-0008150D02*
X-0050250D01*
X-0049492Y-0008908D01*
X-0048908D01*
X-0060880Y0009545D02*
X-0056800D01*
X-0056750Y0001000D02*
X-0055550D01*
X-0053750D02*
X-0050850D01*
X0000140Y0000990D02*
Y-0007710D01*
X-0000100Y-0007950D02*
X-0007184D01*
X-0047488Y0022092D02*
Y0022860D01*
X-0047728Y0023100D02*
X-0050100D01*
X-0056800Y0009545D02*
X-0060880D01*
X-0007184Y-0000092D02*
Y0002560D01*
X-0006944Y0002800D02*
X-0006106D01*
X-0005866Y0003040D02*
Y0005142D01*
X-0007592Y0014592D02*
Y0013940D01*
X-0007352Y0013700D02*
X-0004240D01*
X-0004000Y0013460D02*
Y0007320D01*
X0000920Y0023850D02*
X-0005410D01*
X-0005650Y0023610D02*
Y0022350D01*
X-0007790Y0029790D02*
Y0029150D01*
X-0007350D01*
X-0007110Y0029390D02*
Y0030540D01*
X-0047500Y0030372D02*
Y0030400D01*
X-0041190D01*
X-0040950Y0030640D02*
Y0030650D01*
X-0039390D01*
X-0039150Y0030410D02*
Y0020690D01*
X-0039390Y0020450D02*
X-0050560D01*
X-0050800Y0020690D02*
Y0024010D01*
X-0050560Y0024250D02*
X-0050340D01*
X-0050100Y0024010D02*
Y0023100D01*
X-0047728D01*
X-0047488Y0022860D02*
Y0022092D01*
X-0005840Y0029000D02*
Y0029850D01*
Y0030310D01*
X-0006400Y0030870D01*
X-0007760D01*
X-0008030Y0030600D01*
Y0029790D01*
X-0008046D01*
X-0002700Y0028770D02*
Y0029610D01*
X-0002940Y0029850D02*
X-0005840D01*
Y0029000D01*
X-0047232Y0022092D02*
Y0021462D01*
X-0047472Y0021222D02*
X-0047782D01*
X-0048560Y0022000D01*
X-0048600D01*
X-0049160D01*
X-0002700Y0019500D02*
Y0016000D01*
X-0003160D01*
X-0050160Y0035600D02*
X0002720D01*
X0002960Y0035360D02*
Y0030900D01*
X-0004550D02*
X-0005140Y0030310D01*
X-0005840D01*
Y0029850D01*
Y0029000D01*
X-0003840Y0000000D02*
X-0005260D01*
X-0005500Y-0000240D02*
Y-0000722D01*
X-0005530D01*
X-0007440D01*
Y-0000092D01*
X-0052160Y-0009000D02*
X-0051622Y-0009538D01*
X-0048648D01*
Y-0008908D01*
X-0048652D01*
X-0005530Y-0000722D02*
X-0007440D01*
Y-0000092D01*
X-0044928Y0024792D02*
Y0026652D01*
X-0037075Y0026675D02*
Y-0009880D01*
Y0032880D02*
Y0026675D01*
Y-0009880D01*
X-0044928Y0024792D02*
Y0026652D01*
Y0022092D02*
Y0021450D01*
X-0044220D01*
X-0043980Y0021690D02*
Y0027180D01*
X-0035985Y0027200D02*
Y-0009880D01*
X-0043980Y0027180D02*
Y0021690D01*
X-0044220Y0021450D02*
X-0044928D01*
Y0022092D01*
X-0035985Y0032880D02*
Y0027200D01*
Y-0009880D01*
X-0045440Y0022092D02*
Y0021440D01*
X-0045200Y0021200D02*
X-0043690D01*
X-0043450Y0021440D02*
Y0027670D01*
X-0034895Y0027695D02*
Y-0009880D01*
Y0032880D02*
Y0027695D01*
Y-0009880D01*
X-0045440Y0022092D02*
Y0021440D01*
X-0045200Y0021200D02*
X-0043690D01*
X-0043450Y0021440D02*
Y0027670D01*
X-0045952Y0022092D02*
Y0021190D01*
X-0045712Y0020950D02*
X-0043200D01*
X-0042960Y0021190D02*
Y0028100D01*
X-0033805Y0028105D02*
Y-0009880D01*
Y0032880D02*
Y0028105D01*
Y-0009880D01*
X-0045952Y0022092D02*
Y0021190D01*
X-0045712Y0020950D02*
X-0043200D01*
X-0042960Y0021190D02*
Y0028100D01*
X-0046464Y0022092D02*
Y0020940D01*
X-0046224Y0020700D02*
X-0042720D01*
X-0042480Y0020940D02*
Y0028540D01*
X-0032715Y0028515D02*
Y-0009880D01*
Y0032880D02*
Y0028515D01*
Y-0009880D01*
X-0046464Y0022092D02*
Y0020940D01*
X-0046224Y0020700D02*
X-0042720D01*
X-0042480Y0020940D02*
Y0028540D01*
X-0031625Y-0009880D02*
Y0026290D01*
Y0026375D02*
Y0032880D01*
X-0008888Y0026270D02*
X-0008830D01*
X-0008814Y0026286D01*
Y0027090D01*
X-0031625Y-0009880D02*
Y0026290D01*
X-0009326Y0027090D02*
Y0025970D01*
X-0009330D01*
X-0030535Y0025985D02*
Y-0009880D01*
Y0032880D02*
Y0025985D01*
Y-0009880D01*
X-0009326Y0027090D02*
Y0025970D01*
X-0009330D01*
X-0009838Y0027090D02*
Y0025560D01*
X-0009840D01*
X-0029445D02*
Y-0009880D01*
Y0032880D02*
Y0025560D01*
Y-0009880D01*
X-0009838Y0027090D02*
Y0025560D01*
X-0009840D01*
X-0028355Y-0009880D02*
Y0025190D01*
X-0010340Y0025200D02*
X-0010350D01*
Y0027090D01*
X-0028355Y-0009880D02*
Y0025190D01*
Y0025255D02*
Y0032880D01*
X-0010350Y0027090D02*
Y0025200D01*
X-0010340D01*
X-0010350Y0029790D02*
Y0030450D01*
X-0011040D01*
X-0011280Y0030210D02*
Y0024860D01*
X-0027265Y0024890D02*
Y-0009880D01*
Y0024890D01*
Y0025035D02*
Y0032880D01*
X-0010350Y0029790D02*
Y0030450D01*
X-0011040D01*
X-0011280Y0030210D02*
Y0024860D01*
X-0026175Y-0009880D02*
Y0024470D01*
Y-0009880D02*
Y0024470D01*
Y0024525D02*
Y0032880D01*
X-0011770Y0024460D02*
Y0030460D01*
X-0011530Y0030700D02*
X-0010078D01*
X-0009838Y0030460D02*
Y0029790D01*
X-0025085Y0024070D02*
Y-0009880D01*
Y0032880D02*
Y0024085D01*
Y0024070D02*
Y-0009880D01*
X-0012290Y0024050D02*
Y0030710D01*
X-0012050Y0030950D02*
X-0009566D01*
X-0009326Y0030710D02*
Y0029790D01*
X-0023995Y-0009880D02*
Y0023710D01*
Y-0009880D02*
Y0023710D01*
Y0023795D02*
Y0032880D01*
X-0012790Y0023680D02*
Y0030960D01*
X-0012550Y0031200D02*
X-0009054D01*
X-0008814Y0030960D02*
Y0029790D01*
X-0022905Y0011105D02*
Y-0009880D01*
Y0032880D02*
Y0011105D01*
Y-0009880D01*
X-0008690Y0011040D02*
X-0008620D01*
X-0008616Y0011044D01*
Y0011892D01*
X-0021815Y-0009880D02*
Y0010660D01*
X-0009140D02*
X-0009128D01*
Y0011892D01*
X-0021815Y-0009880D02*
Y0010660D01*
Y0010715D02*
Y0032880D01*
X-0009128Y0011892D02*
Y0010660D01*
X-0009140D01*
X-0020725Y0032880D02*
Y0010310D01*
Y-0009880D01*
X-0009640Y0010310D02*
Y0011892D01*
X-0020725Y-0009880D02*
Y0010310D01*
X-0010152Y0011892D02*
Y0009930D01*
X-0010140D01*
X-0019635Y0009970D02*
Y-0009880D01*
X-0010140Y0009930D02*
X-0010152D01*
Y0011892D01*
X-0019635Y0032880D02*
Y0009970D01*
Y-0009880D01*
X-0010152Y0014592D02*
Y0015250D01*
X-0010850D01*
X-0011090Y0015010D02*
Y0009560D01*
X-0018545Y0009550D02*
Y-0009880D01*
Y0032880D02*
Y0009550D01*
Y-0009880D01*
X-0010152Y0014592D02*
Y0015250D01*
X-0010850D01*
X-0011090Y0015010D02*
Y0009560D01*
X-0037620Y0034000D02*
Y0009070D01*
Y-0011000D01*
Y0009070D02*
Y-0011000D01*
X-0009640Y0014592D02*
Y0015260D01*
X-0009880Y0015500D02*
X-0011350D01*
X-0011590Y0015260D02*
Y0009090D01*
X-0037620Y0009070D02*
Y-0011000D01*
X-0036530Y0008630D02*
Y-0011000D01*
Y0034000D02*
Y0008630D01*
Y-0011000D01*
X-0012090Y0008670D02*
Y0015510D01*
X-0011850Y0015750D02*
X-0009368D01*
X-0009128Y0015510D02*
Y0014592D01*
X-0008616D02*
Y0016010D01*
X-0008856Y0016250D02*
X-0012350D01*
X-0012590Y0016010D02*
Y0008170D01*
X-0035440Y0008140D02*
Y-0011000D01*
Y0034000D02*
Y0008140D01*
Y-0011000D01*
X-0008616Y0014592D02*
Y0016010D01*
X-0008856Y0016250D02*
X-0012350D01*
X-0012590Y0016010D02*
Y0008170D01*
X-0047884Y-0006208D02*
Y-0005364D01*
X-0047880Y-0005360D01*
X-0047810D01*
X-0034350Y-0005400D02*
Y-0011000D01*
Y0034000D02*
Y-0005400D01*
Y-0011000D01*
X-0047884Y-0006208D02*
Y-0005364D01*
X-0047880Y-0005360D01*
X-0047810D01*
X-0033260Y-0004860D02*
Y-0011000D01*
Y0034000D02*
Y-0004860D01*
Y-0011000D01*
X-0047370Y-0004870D02*
X-0047372D01*
Y-0006208D01*
X-0046860D02*
Y-0004420D01*
X-0032170D02*
Y-0011000D01*
Y0034000D02*
Y-0004420D01*
Y-0011000D01*
X-0046860Y-0006208D02*
Y-0004420D01*
X-0031080Y-0004030D02*
Y-0011000D01*
Y0034000D02*
Y-0004030D01*
Y-0011000D01*
X-0046340Y-0004000D02*
X-0046348D01*
Y-0006208D01*
X-0029990Y-0003540D02*
Y-0011000D01*
Y0034000D02*
Y-0003540D01*
Y-0011000D01*
X-0045400Y-0003510D02*
Y-0009310D01*
X-0045640Y-0009550D02*
X-0046350D01*
Y-0008908D01*
X-0046348D01*
X-0044910Y-0002980D02*
Y-0009660D01*
X-0045408Y-0010158D01*
X-0046408D01*
X-0046860Y-0009706D01*
Y-0008908D01*
X-0028900Y0034000D02*
Y-0003000D01*
Y-0011000D01*
Y-0003000D01*
X-0027810Y0034000D02*
Y-0002510D01*
Y-0011000D01*
Y-0002510D01*
X-0047372Y-0008908D02*
Y-0009694D01*
X-0046658Y-0010408D01*
X-0045158D01*
X-0044410Y-0009660D01*
Y-0002510D01*
X-0027810D02*
Y-0011000D01*
X-0026720Y-0002070D02*
Y-0011000D01*
Y0034000D02*
Y-0002070D01*
Y-0011000D01*
X-0043890Y-0002030D02*
Y-0010660D01*
X-0044130Y-0010900D02*
X-0047560D01*
X-0047800Y-0010660D02*
Y-0009600D01*
X-0047884D01*
Y-0008908D01*
X-0025630Y-0003530D02*
Y-0011000D01*
Y0034000D02*
Y-0003530D01*
Y-0011000D01*
X-0008282Y-0003560D02*
X-0008230D01*
Y-0002814D01*
X-0008208Y-0002792D01*
X-0024540Y0034000D02*
Y-0004000D01*
Y-0011000D01*
X-0008720Y-0002792D02*
Y-0003830D01*
X-0008710D01*
X-0024540Y-0004000D02*
Y-0011000D01*
X-0023450Y0034000D02*
Y-0004330D01*
Y-0011000D01*
X-0009232Y-0002792D02*
Y-0004180D01*
X-0009220D01*
X-0023450Y-0011000D02*
Y-0004330D01*
X-0022360Y-0004510D02*
Y-0011000D01*
Y0034000D02*
Y-0004510D01*
Y-0011000D01*
X-0009744Y-0004532D02*
Y-0002792D01*
X-0021270Y-0011000D02*
Y-0004920D01*
Y-0004880D02*
Y0034000D01*
Y-0011000D02*
Y-0004920D01*
X-0010710D02*
Y0000310D01*
X-0010470Y0000550D02*
X-0009744D01*
Y-0000092D01*
X-0021270Y-0004920D02*
Y-0011000D01*
X-0009232Y-0000092D02*
Y0000560D01*
X-0009472Y0000800D02*
X-0010960D01*
X-0011200Y0000560D02*
Y-0005380D01*
X-0020180Y-0005320D02*
Y-0011000D01*
Y0034000D02*
Y-0005230D01*
Y-0005320D02*
Y-0011000D01*
X-0011200Y-0005380D02*
Y0000560D01*
X-0010960Y0000800D02*
X-0009472D01*
X-0009232Y0000560D02*
Y-0000092D01*
X-0019090Y-0011000D02*
Y-0005910D01*
X-0011690Y-0005900D02*
Y0000650D01*
X-0011530D01*
X-0008720D02*
Y-0000092D01*
X-0019090Y-0011000D02*
Y-0005910D01*
Y-0011000D02*
Y-0011500D01*
X-0017500D01*
Y-0000950D01*
X-0019090D02*
Y0034000D01*
X-0008208Y-0000092D02*
Y0000760D01*
X-0008448Y0001000D02*
X-0008750D01*
Y0001050D01*
X-0011700D01*
X-0012010D01*
X-0012250Y0000810D02*
Y-0002500D01*
X-0012200Y-0002550D01*
Y-0006300D01*
X-0012250Y-0006350D01*
X-0012200Y-0006400D01*
Y-0006450D01*
X-0018000Y0034000D02*
Y0005240D01*
X-0017760Y0005000D02*
X-0011940D01*
X-0011700Y0004760D02*
Y0001050D01*
X-0008750D01*
Y0001000D01*
X-0008448D01*
X-0008208Y0000760D02*
Y-0000092D01*
X-0006800Y0022650D02*
X-0014550D01*
X-0014850Y0022950D01*
Y0032000D01*
X-0015050Y0032200D01*
X-0041150Y0032450D02*
X-0042050Y0033350D01*
X-0047300D01*
X-0005000Y0029000D02*
Y0028050D01*
X-0005240Y0027810D02*
X-0007850D01*
X-0008302D01*
Y0027090D01*
X-0046976Y0022092D02*
Y0020850D01*
X-0016000D02*
Y0027810D01*
X-0015970D01*
X-0007850D02*
X-0008302D01*
Y0027090D01*
X-0007200Y0008330D02*
X-0007450D01*
Y0008300D01*
X-0007200D01*
Y0008330D01*
X-0007450Y0009430D02*
Y0008330D01*
X-0007200D01*
X-0003350Y0004000D02*
Y0005760D01*
X-0003590Y0006000D02*
X-0009010D01*
X-0009250Y0006240D02*
Y0008090D01*
X-0009010Y0008330D02*
X-0007450D01*
X-0007200D01*
X-0012700Y0001900D02*
Y-0008300D01*
X-0012460Y-0008540D02*
X-0006800D01*
X-0004000Y0016000D02*
X-0004700D01*
X-0007092Y0010592D02*
X-0007842D01*
X-0008104Y0010854D01*
Y0011892D01*
X-0008302Y0029790D02*
Y0028990D01*
X-0008062Y0028750D02*
X-0006360D01*
X-0004450D02*
Y0028070D01*
Y0023520D02*
Y0022480D01*
Y0020600D02*
Y0020250D01*
X-0004700D01*
Y0016000D01*
X-0004000D01*
X-0053000Y-0009000D02*
X-0056350D01*
Y-0002950D02*
X-0049000D01*
X-0048990D01*
X-0048750Y-0003190D02*
Y-0004250D01*
X-0048636D01*
X-0048396Y-0004490D02*
Y-0006208D01*
X-0053000Y-0009000D02*
X-0056350D01*
Y-0002950D02*
X-0049000D01*
Y-0001940D01*
X-0048760Y-0001700D02*
X-0038190D01*
X-0037950Y-0001460D02*
Y0013450D01*
X-0008030D02*
X-0008104D01*
Y0014592D01*
X-0007696Y-0002792D02*
Y-0003810D01*
X-0007456Y-0004050D02*
X-0007450D01*
Y-0004300D01*
X-0002790D01*
X-0002550Y-0004060D02*
Y0000000D01*
X-0003000D01*
X-0048396Y-0008908D02*
Y-0008150D01*
X-0047958D01*
X-0016920D02*
X-0013190D01*
X-0012950Y-0008390D02*
Y-0008660D01*
X-0012710Y-0008900D02*
X-0010350D01*
Y-0006200D02*
X-0007690D01*
X-0007450Y-0005960D02*
Y-0004300D01*
X-0002790D01*
X-0002550Y-0004060D02*
Y0000000D01*
X-0003000D01*
X-0044672Y0029700D02*
X-0045696D01*
X-0009070Y0022020D02*
X-0009582D01*
X-0010094D01*
X-0010606D01*
X-0047116Y-0001250D02*
X-0054760D01*
X-0055000Y-0001010D02*
Y0001330D01*
X-0045696Y0029700D02*
X-0046200D01*
X-0054760D01*
X-0055000Y0029460D02*
Y0021000D01*
Y0029460D01*
X-0054760Y0029700D02*
X-0046200D01*
X-0008464Y-0007600D02*
X-0002540D01*
X-0002300Y-0007360D02*
Y0003300D01*
X-0002360D01*
X-0002600Y0003540D02*
Y0006950D01*
X-0008872D01*
X-0002600D01*
X-0002590D01*
X-0002350Y0007190D02*
Y0021760D01*
X-0002590Y0022000D02*
X-0009070D01*
Y0022020D01*
X-0010606D02*
X-0015110D01*
X-0015350Y0022260D02*
Y0029700D01*
X-0039480D02*
X-0044672D01*
X-0047116Y-0008908D02*
Y-0007600D01*
Y-0006200D01*
X-0045184Y0024792D02*
Y0023300D01*
Y0022146D01*
X-0009582Y0027090D02*
Y0028400D01*
Y0029748D01*
X-0010094Y0027090D02*
Y0028400D01*
Y0029594D01*
Y0027090D02*
Y0028400D01*
X-0010366D01*
X-0010606Y0028640D02*
Y0028650D01*
Y0029356D01*
X-0046208Y0024792D02*
Y0023300D01*
Y0022122D01*
X-0046604Y-0006208D02*
Y-0007550D01*
Y-0007600D01*
Y-0008854D01*
X-0045184Y0024792D02*
Y0023300D01*
X-0045696D01*
Y0024800D01*
X-0009070Y0027090D02*
Y0028400D01*
Y0029510D01*
X-0008976Y-0000092D02*
Y-0001386D01*
Y-0001450D01*
X-0009488D01*
Y-0000146D01*
X-0008976Y-0000092D02*
Y-0001386D01*
Y-0001450D01*
Y-0002800D01*
X-0009384Y0014592D02*
Y0013850D01*
X-0009896D01*
Y0014538D01*
X-0047628Y-0006208D02*
Y-0007600D01*
Y-0008908D01*
Y-0007600D01*
X-0047116D01*
Y-0008908D01*
X-0008464Y-0000092D02*
Y-0001386D01*
Y-0002792D01*
X-0008872Y0014592D02*
Y0013150D01*
Y0011892D01*
X-0010094Y0027090D02*
Y0028400D01*
X-0009582D01*
Y0027090D01*
Y0028400D01*
X-0009070D01*
Y0027090D01*
X-0045696Y0022092D02*
Y0022850D01*
Y0023300D01*
X-0045184D01*
Y0024792D01*
Y0023300D01*
X-0044912D01*
X-0044672Y0023060D02*
Y0023050D01*
Y0022092D01*
Y0024792D02*
X-0044400D01*
Y0023290D01*
X-0044640Y0023050D02*
X-0044672D01*
Y0022092D01*
X-0046208Y0024792D02*
Y0023300D01*
X-0045750D01*
Y0022850D01*
X-0045696D01*
Y0022092D01*
X-0009896Y0011892D02*
Y0013150D01*
Y0013850D01*
X-0009384D01*
Y0014592D01*
X-0009896Y0011892D02*
Y0013150D01*
X-0010700D01*
Y0014592D01*
X-0010408D01*
X-0009896Y0011892D02*
Y0013150D01*
X-0009350D01*
X-0008872D01*
Y0011892D01*
Y0013150D01*
X-0009350D01*
Y0012950D01*
X-0009384D01*
Y0011892D01*
X-0008464Y-0002792D02*
Y-0001386D01*
X-0008500D01*
X-0008976D01*
Y-0000092D01*
X-0046092Y-0006208D02*
Y-0007500D01*
X-0046100D01*
Y-0007550D01*
X-0046604D01*
Y-0006208D01*
X-0047116Y-0008908D02*
Y-0007600D01*
X-0046604D01*
Y-0007550D01*
Y-0006208D01*
X-0047650Y-0007600D02*
X-0047628D01*
Y-0008908D01*
X-0046604Y-0006208D02*
Y-0007550D01*
X-0046100D01*
X-0046040D01*
X-0045800Y-0007790D02*
Y-0008908D01*
X-0046092D01*
X-0009488Y-0002792D02*
Y-0001900D01*
X-0009700D01*
Y-0001650D01*
X-0009760D01*
X-0010000Y-0001890D02*
Y-0002792D01*
Y-0001890D01*
X-0009760Y-0001650D02*
X-0009700D01*
Y-0001450D01*
X-0009760D01*
X-0010000Y-0001210D02*
Y-0000092D01*
Y-0001210D01*
X-0009760Y-0001450D02*
X-0009700D01*
X-0009488D01*
X-0008976D01*
Y-0001386D01*
Y-0000092D01*
X-0045696Y0022092D02*
Y0022850D01*
X-0010408Y0014592D02*
X-0010700D01*
Y0013150D01*
Y0010800D01*
X-0010500D01*
X-0010408D01*
Y0011892D01*
X-0010606Y0027090D02*
X-0010900D01*
Y0028410D01*
X-0010660Y0028650D02*
X-0010606D01*
Y0028640D01*
X-0010366Y0028400D02*
X-0010094D01*
Y0027090D01*
X-0010408Y0011892D02*
Y0010800D01*
X-0010500D01*
Y0001950D01*
X-0008500Y-0001386D02*
X-0008976D01*
Y-0000092D01*
X-0009384Y0014592D02*
Y0013850D01*
X-0009896D01*
X-0009384Y0014592D02*
Y0013850D01*
X-0009896D01*
X-0010950Y0018820D02*
Y0021510D01*
X-0010900Y0024500D02*
Y0027090D01*
X-0010606D01*
X-0008558Y0029790D02*
Y0031010D01*
X-0008318Y0031250D02*
X-0001630D01*
X0004150Y0031300D02*
Y0011100D01*
X0004340Y0010910D01*
X0008000D01*
X-0008558Y0029790D02*
Y0027090D01*
X-0008360Y0014592D02*
Y0011892D01*
X-0007952Y-0004498D02*
Y-0002792D01*
X-0008360Y0009610D02*
Y0011892D01*
X-0046720Y0024792D02*
Y0024042D01*
Y0022092D01*
X-0008558Y0024808D02*
Y0027090D01*
Y0021540D02*
Y0018750D01*
X-0008360D01*
Y0014592D01*
Y0004460D02*
X-0009260D01*
X-0009500Y0004700D02*
Y0009370D01*
X-0009260Y0009610D02*
X-0008360D01*
Y0011892D01*
X-0046720Y0022092D02*
Y0024042D01*
X-0008360Y0004460D02*
Y0002650D01*
X-0008300D01*
Y0002300D01*
Y0001250D01*
X-0008192D01*
X-0007952Y0001010D02*
Y-0000092D01*
X-0048140Y-0006208D02*
Y-0006900D01*
X-0048400D01*
Y-0007250D01*
X0008000Y0010910D02*
Y0010850D01*
X0008510D01*
X0008750Y0010610D02*
Y-0011760D01*
X0008510Y-0012000D02*
X-0047900D01*
X-0048140Y-0011760D02*
Y-0010200D01*
Y-0008908D01*
X-0046720Y0022092D02*
Y0024042D01*
X-0045650Y0025800D02*
Y0026660D01*
X-0045890Y0026900D02*
X-0046720D01*
X-0048140Y-0006208D02*
Y-0006900D01*
X-0048400D01*
Y-0007250D01*
X-0048760D01*
X-0049000Y-0007490D02*
Y-0007500D01*
X-0062500D01*
Y-0007510D01*
Y-0007500D01*
X-0049000D01*
X-0048750D01*
Y-0007930D01*
Y-0010200D02*
X-0048140D01*
Y-0008908D01*
X-0007952Y-0000092D02*
Y0001010D01*
X-0008192Y0001250D02*
X-0008300D01*
Y0002300D01*
X0006880Y0010365D02*
X0002700D01*
X-0041150Y0029250D02*
X-0047050D01*
X-0046976Y0024792D02*
Y0025950D01*
X-0047050D01*
Y0026200D01*
X-0047300D01*
X-0050450D01*
Y0023780D02*
Y0022000D01*
X-0050000D01*
X0006880Y0009275D02*
X0002340D01*
X0002100Y0009515D02*
Y0017100D01*
X-0039750Y0028900D02*
X-0047060D01*
X-0047300Y0028660D02*
Y0026200D01*
X-0047050D01*
Y0025950D01*
X-0046976D01*
Y0024792D01*
X-0007696Y-0000092D02*
Y0000850D01*
X-0007600D01*
Y0001180D01*
X-0040700Y0001550D02*
X-0042000Y0002850D01*
X-0061500D01*
X-0063250Y0004600D01*
Y0011250D01*
X-0062775Y0011725D01*
X-0060880D01*
G01X-0000240Y0026320D02*
G03X0000000Y0026560I0000000J0000240D01*
G01X-0063500Y-0003088D02*
G03X-0063260Y-0003328I0000240J0000000D01*
Y0012270D02*
G03X-0063500Y0012030I0000000J0000240D01*
G01X-0048652Y-0004990D02*
G03X-0048892Y-0004750I0000240J0000000D01*
G01X-0049300Y-0004510D02*
G03X-0049060Y-0004750I0000240J0000000D01*
G01X-0060110Y0035600D02*
G03X-0060350Y0035360I0000000J0000240D01*
G01X-0063760Y0013900D02*
G03X-0064000Y0013660I0000000J0000240D01*
Y-0008310D02*
G03X-0063760Y-0008550I0000240J0000000D01*
G01X0002960Y0035360D02*
G03X0002720Y0035600I0000240J0000000D01*
G01X-0053600Y0010160D02*
G03X-0053840Y0010400I0000240J0000000D01*
G01X-0060350Y0010640D02*
G03X-0060110Y0010400I0000240J0000000D01*
G01X-0048908Y-0005570D02*
G03X-0049148Y-0005330I0000240J0000000D01*
G01X-0006150Y0012310D02*
G03X-0006390Y0012550I0000240J0000000D01*
G01X-0048908Y-0005570D02*
G03X-0049148Y-0005330I0000240J0000000D01*
G01X0001250Y0007880D02*
G03X0001490Y0007640I0000240J0000000D01*
G01X0001250Y0007880D02*
G03X0001490Y0007640I0000240J0000000D01*
G01X0001250Y0030160D02*
G03X0001010Y0030400I0000240J0000000D01*
G01X-0001240Y0027200D02*
G03X-0001000Y0027440I0000000J0000240D01*
G01X-0048850Y0024390D02*
G03X-0048610Y0024150I0000240J0000000D01*
G01X-0048850Y0024810D02*
G03X-0049090Y0025050I0000240J0000000D01*
G01X-0050810D02*
G03X-0051050Y0024810I0000000J0000240D01*
G01X-0051290Y0013350D02*
G03X-0051050Y0013590I0000000J0000240D01*
G01X0001250Y0007880D02*
G03X0001490Y0007640I0000240J0000000D01*
G01X-0001240Y0027200D02*
G03X-0001000Y0027440I0000000J0000240D01*
Y0034260D02*
G03X-0001240Y0034500I0000240J0000000D01*
G01X-0038160D02*
G03X-0038400Y0034260I0000000J0000240D01*
G01X-0038640Y0020200D02*
G03X-0038400Y0020440I0000000J0000240D01*
G01X-0051290Y0013350D02*
G03X-0051050Y0013590I0000000J0000240D01*
G01X-0007350Y0029150D02*
G03X-0007110Y0029390I0000000J0000240D01*
G01X-0041190Y0030400D02*
G03X-0040950Y0030640I0000000J0000240D01*
G01X-0000100Y-0007950D02*
G03X0000140Y-0007710I0000000J0000240D01*
G01X-0047488Y0022860D02*
G03X-0047728Y0023100I0000240J0000000D01*
G01X-0006944Y0002800D02*
G03X-0007184Y0002560I0000000J0000240D01*
G01X-0006106Y0002800D02*
G03X-0005866Y0003040I0000000J0000240D01*
G01X-0007592Y0013940D02*
G03X-0007352Y0013700I0000240J0000000D01*
G01X-0004000Y0013460D02*
G03X-0004240Y0013700I0000240J0000000D01*
G01X-0005410Y0023850D02*
G03X-0005650Y0023610I0000000J0000240D01*
G01X-0007350Y0029150D02*
G03X-0007110Y0029390I0000000J0000240D01*
G01X-0041190Y0030400D02*
G03X-0040950Y0030640I0000000J0000240D01*
G01X-0039150Y0030410D02*
G03X-0039390Y0030650I0000240J0000000D01*
Y0020450D02*
G03X-0039150Y0020690I0000000J0000240D01*
G01X-0050800D02*
G03X-0050560Y0020450I0000240J0000000D01*
Y0024250D02*
G03X-0050800Y0024010I0000000J0000240D01*
G01X-0050100D02*
G03X-0050340Y0024250I0000240J0000000D01*
G01X-0047488Y0022860D02*
G03X-0047728Y0023100I0000240J0000000D01*
G01X-0002700Y0029610D02*
G03X-0002940Y0029850I0000240J0000000D01*
G01X-0047472Y0021222D02*
G03X-0047232Y0021462I0000000J0000240D01*
G01X0002960Y0035360D02*
G03X0002720Y0035600I0000240J0000000D01*
G01X-0005260Y0000000D02*
G03X-0005500Y-0000240I0000000J0000240D01*
G01X-0044220Y0021450D02*
G03X-0043980Y0021690I0000000J0000240D01*
G01X-0044220Y0021450D02*
G03X-0043980Y0021690I0000000J0000240D01*
G01X-0045440Y0021440D02*
G03X-0045200Y0021200I0000240J0000000D01*
G01X-0043690D02*
G03X-0043450Y0021440I0000000J0000240D01*
G01X-0045440D02*
G03X-0045200Y0021200I0000240J0000000D01*
G01X-0043690D02*
G03X-0043450Y0021440I0000000J0000240D01*
G01X-0045952Y0021190D02*
G03X-0045712Y0020950I0000240J0000000D01*
G01X-0043200D02*
G03X-0042960Y0021190I0000000J0000240D01*
G01X-0045952D02*
G03X-0045712Y0020950I0000240J0000000D01*
G01X-0043200D02*
G03X-0042960Y0021190I0000000J0000240D01*
G01X-0046464Y0020940D02*
G03X-0046224Y0020700I0000240J0000000D01*
G01X-0042720D02*
G03X-0042480Y0020940I0000000J0000240D01*
G01X-0046464D02*
G03X-0046224Y0020700I0000240J0000000D01*
G01X-0042720D02*
G03X-0042480Y0020940I0000000J0000240D01*
G01X-0011040Y0030450D02*
G03X-0011280Y0030210I0000000J0000240D01*
G01X-0011040Y0030450D02*
G03X-0011280Y0030210I0000000J0000240D01*
G01X-0011530Y0030700D02*
G03X-0011770Y0030460I0000000J0000240D01*
G01X-0009838D02*
G03X-0010078Y0030700I0000240J0000000D01*
G01X-0012050Y0030950D02*
G03X-0012290Y0030710I0000000J0000240D01*
G01X-0009326D02*
G03X-0009566Y0030950I0000240J0000000D01*
G01X-0012550Y0031200D02*
G03X-0012790Y0030960I0000000J0000240D01*
G01X-0008814D02*
G03X-0009054Y0031200I0000240J0000000D01*
G01X-0010850Y0015250D02*
G03X-0011090Y0015010I0000000J0000240D01*
G01X-0010850Y0015250D02*
G03X-0011090Y0015010I0000000J0000240D01*
G01X-0009640Y0015260D02*
G03X-0009880Y0015500I0000240J0000000D01*
G01X-0011350D02*
G03X-0011590Y0015260I0000000J0000240D01*
G01X-0011850Y0015750D02*
G03X-0012090Y0015510I0000000J0000240D01*
G01X-0009128D02*
G03X-0009368Y0015750I0000240J0000000D01*
G01X-0008616Y0016010D02*
G03X-0008856Y0016250I0000240J0000000D01*
G01X-0012350D02*
G03X-0012590Y0016010I0000000J0000240D01*
G01X-0008616D02*
G03X-0008856Y0016250I0000240J0000000D01*
G01X-0012350D02*
G03X-0012590Y0016010I0000000J0000240D01*
G01X-0045640Y-0009550D02*
G03X-0045400Y-0009310I0000000J0000240D01*
G01X-0044130Y-0010900D02*
G03X-0043890Y-0010660I0000000J0000240D01*
G01X-0047800D02*
G03X-0047560Y-0010900I0000240J0000000D01*
G01X-0010470Y0000550D02*
G03X-0010710Y0000310I0000000J0000240D01*
G01X-0009232Y0000560D02*
G03X-0009472Y0000800I0000240J0000000D01*
G01X-0010960D02*
G03X-0011200Y0000560I0000000J0000240D01*
G01X-0010960Y0000800D02*
G03X-0011200Y0000560I0000000J0000240D01*
G01X-0009232D02*
G03X-0009472Y0000800I0000240J0000000D01*
G01X-0008208Y0000760D02*
G03X-0008448Y0001000I0000240J0000000D01*
G01X-0012010Y0001050D02*
G03X-0012250Y0000810I0000000J0000240D01*
G01X-0018000Y0005240D02*
G03X-0017760Y0005000I0000240J0000000D01*
G01X-0011700Y0004760D02*
G03X-0011940Y0005000I0000240J0000000D01*
G01X-0008208Y0000760D02*
G03X-0008448Y0001000I0000240J0000000D01*
G01X-0005240Y0027810D02*
G03X-0005000Y0028050I0000000J0000240D01*
G01X-0003350Y0005760D02*
G03X-0003590Y0006000I0000240J0000000D01*
G01X-0009250Y0006240D02*
G03X-0009010Y0006000I0000240J0000000D01*
Y0008330D02*
G03X-0009250Y0008090I0000000J0000240D01*
G01X-0012700Y-0008300D02*
G03X-0012460Y-0008540I0000240J0000000D01*
G01X-0008302Y0028990D02*
G03X-0008062Y0028750I0000240J0000000D01*
G01X-0048750Y-0003190D02*
G03X-0048990Y-0002950I0000240J0000000D01*
G01X-0048396Y-0004490D02*
G03X-0048636Y-0004250I0000240J0000000D01*
G01X-0048760Y-0001700D02*
G03X-0049000Y-0001940I0000000J0000240D01*
G01X-0038190Y-0001700D02*
G03X-0037950Y-0001460I0000000J0000240D01*
G01X-0007696Y-0003810D02*
G03X-0007456Y-0004050I0000240J0000000D01*
G01X-0002790Y-0004300D02*
G03X-0002550Y-0004060I0000000J0000240D01*
G01X-0012950Y-0008390D02*
G03X-0013190Y-0008150I0000240J0000000D01*
G01X-0012950Y-0008660D02*
G03X-0012710Y-0008900I0000240J0000000D01*
G01X-0007690Y-0006200D02*
G03X-0007450Y-0005960I0000000J0000240D01*
G01X-0002790Y-0004300D02*
G03X-0002550Y-0004060I0000000J0000240D01*
G01X-0055000Y-0001010D02*
G03X-0054760Y-0001250I0000240J0000000D01*
Y0029700D02*
G03X-0055000Y0029460I0000000J0000240D01*
G01X-0054760Y0029700D02*
G03X-0055000Y0029460I0000000J0000240D01*
G01X-0002540Y-0007600D02*
G03X-0002300Y-0007360I0000000J0000240D01*
G01X-0002600Y0003540D02*
G03X-0002360Y0003300I0000240J0000000D01*
G01X-0002590Y0006950D02*
G03X-0002350Y0007190I0000000J0000240D01*
Y0021760D02*
G03X-0002590Y0022000I0000240J0000000D01*
G01X-0015350Y0022260D02*
G03X-0015110Y0022020I0000240J0000000D01*
G01X-0010606Y0028640D02*
G03X-0010366Y0028400I0000240J0000000D01*
G01X-0044672Y0023060D02*
G03X-0044912Y0023300I0000240J0000000D01*
G01X-0044640Y0023050D02*
G03X-0044400Y0023290I0000000J0000240D01*
G01X-0045800Y-0007790D02*
G03X-0046040Y-0007550I0000240J0000000D01*
G01X-0009760Y-0001650D02*
G03X-0010000Y-0001890I0000000J0000240D01*
G01X-0009760Y-0001650D02*
G03X-0010000Y-0001890I0000000J0000240D01*
Y-0001210D02*
G03X-0009760Y-0001450I0000240J0000000D01*
G01X-0010000Y-0001210D02*
G03X-0009760Y-0001450I0000240J0000000D01*
G01X-0010660Y0028650D02*
G03X-0010900Y0028410I0000000J0000240D01*
G01X-0010606Y0028640D02*
G03X-0010366Y0028400I0000240J0000000D01*
G01X-0008318Y0031250D02*
G03X-0008558Y0031010I0000000J0000240D01*
G01X-0009500Y0004700D02*
G03X-0009260Y0004460I0000240J0000000D01*
Y0009610D02*
G03X-0009500Y0009370I0000000J0000240D01*
G01X-0007952Y0001010D02*
G03X-0008192Y0001250I0000240J0000000D01*
G01X0008750Y0010610D02*
G03X0008510Y0010850I0000240J0000000D01*
Y-0012000D02*
G03X0008750Y-0011760I0000000J0000240D01*
G01X-0048140D02*
G03X-0047900Y-0012000I0000240J0000000D01*
G01X-0045650Y0026660D02*
G03X-0045890Y0026900I0000240J0000000D01*
G01X-0048760Y-0007250D02*
G03X-0049000Y-0007490I0000000J0000240D01*
G01X-0007952Y0001010D02*
G03X-0008192Y0001250I0000240J0000000D01*
G01X0002100Y0009515D02*
G03X0002340Y0009275I0000240J0000000D01*
G01X-0047060Y0028900D02*
G03X-0047300Y0028660I0000000J0000240D01*
G54D10*
X-0040310Y-0010440D03*
X-0015310D03*
X-0040310Y0033440D03*
X-0015310D03*
X0007440Y0014740D03*
Y0004900D03*
X-0061440Y0006260D03*
Y0016100D03*
G54D11*
X-0019090Y-0011000D03*
X-0020180D03*
X-0021270D03*
X-0022360D03*
X-0023450D03*
X-0024540D03*
X-0025630D03*
X-0026720D03*
X-0028900D03*
X-0029990D03*
X-0031080D03*
X-0032170D03*
X-0033260D03*
X-0034350D03*
X-0035440D03*
X-0036530D03*
X-0037620D03*
X-0019635Y-0009880D03*
X-0020725D03*
X-0021815D03*
X-0022905D03*
X-0023995D03*
X-0025085D03*
X-0026175D03*
X-0027265D03*
X-0028355D03*
X-0030535D03*
X-0031625D03*
X-0032715D03*
X-0033805D03*
X-0034895D03*
X-0035985D03*
X-0037075D03*
X-0019090Y0034000D03*
X-0020180D03*
X-0021270D03*
X-0022360D03*
X-0023450D03*
X-0024540D03*
X-0025630D03*
X-0026720D03*
X-0028900D03*
X-0029990D03*
X-0031080D03*
X-0032170D03*
X-0033260D03*
X-0034350D03*
X-0035440D03*
X-0036530D03*
X-0037620D03*
X-0019635Y0032880D03*
X-0020725D03*
X-0021815D03*
X-0022905D03*
X-0023995D03*
X-0025085D03*
X-0026175D03*
X-0027265D03*
X-0028355D03*
X-0030535D03*
X-0031625D03*
X-0032715D03*
X-0033805D03*
X-0034895D03*
X-0035985D03*
X-0037075D03*
X0008000Y0010910D03*
Y0009820D03*
Y0008730D03*
Y0007640D03*
X0006880Y0011455D03*
Y0010365D03*
Y0009275D03*
Y0008185D03*
X-0062000Y0010090D03*
Y0011180D03*
Y0012270D03*
Y0013360D03*
X-0060880Y0009545D03*
Y0010635D03*
Y0011725D03*
Y0012815D03*
G54D12*
X-0018000Y-0011000D03*
X-0027810D03*
X-0018545Y-0009880D03*
X-0029445D03*
X-0018000Y0034000D03*
X-0027810D03*
X-0018545Y0032880D03*
X-0029445D03*
X0008000Y0012000D03*
X-0062000Y0009000D03*
G54D13*
X-0055000Y0021000D03*
X-0056000Y0002000D03*
G54D14*
X-0047232Y0022092D03*
X-0046976D03*
X-0046720D03*
X-0046464D03*
X-0046208D03*
X-0045952D03*
X-0045696D03*
X-0045440D03*
X-0045184D03*
X-0044928D03*
X-0044672D03*
Y0024792D03*
X-0044928D03*
X-0045184D03*
X-0045440D03*
X-0045696D03*
X-0045952D03*
X-0046208D03*
X-0046464D03*
X-0046720D03*
X-0046976D03*
X-0047232D03*
X-0047488D03*
X-0008046Y0029790D03*
X-0008302D03*
X-0008558D03*
X-0008814D03*
X-0009070D03*
X-0009326D03*
X-0009582D03*
X-0009838D03*
X-0010094D03*
X-0010350D03*
X-0010606D03*
Y0027090D03*
X-0010350D03*
X-0010094D03*
X-0009838D03*
X-0009582D03*
X-0009326D03*
X-0009070D03*
X-0008814D03*
X-0008558D03*
X-0008302D03*
X-0008046D03*
X-0007790D03*
X-0007848Y0014592D03*
X-0008104D03*
X-0008360D03*
X-0008616D03*
X-0008872D03*
X-0009128D03*
X-0009384D03*
X-0009640D03*
X-0009896D03*
X-0010152D03*
X-0010408D03*
Y0011892D03*
X-0010152D03*
X-0009896D03*
X-0009640D03*
X-0009384D03*
X-0009128D03*
X-0008872D03*
X-0008616D03*
X-0008360D03*
X-0008104D03*
X-0007848D03*
X-0007592D03*
X-0048652Y-0008908D03*
X-0048396D03*
X-0048140D03*
X-0047884D03*
X-0047628D03*
X-0047372D03*
X-0047116D03*
X-0046860D03*
X-0046604D03*
X-0046348D03*
X-0046092D03*
Y-0006208D03*
X-0046348D03*
X-0046604D03*
X-0046860D03*
X-0047116D03*
X-0047372D03*
X-0047628D03*
X-0047884D03*
X-0048140D03*
X-0048396D03*
X-0048652D03*
X-0048908D03*
X-0007440Y-0000092D03*
X-0007696D03*
X-0007952D03*
X-0008208D03*
X-0008464D03*
X-0008720D03*
X-0008976D03*
X-0009232D03*
X-0009488D03*
X-0009744D03*
X-0010000D03*
Y-0002792D03*
X-0009744D03*
X-0009488D03*
X-0009232D03*
X-0008976D03*
X-0008720D03*
X-0008464D03*
X-0008208D03*
X-0007952D03*
X-0007696D03*
X-0007440D03*
X-0007184D03*
G54D15*
X-0047488Y0022092D03*
X-0007790Y0029790D03*
X-0007592Y0014592D03*
X-0048908Y-0008908D03*
X-0007184Y-0000092D03*
G54D16*
X-0050000Y0022000D03*
X-0049160D03*
X-0005000Y0029000D03*
X-0005840D03*
X-0004000Y0016000D03*
X-0003160D03*
X-0053000Y-0009000D03*
X-0052160D03*
X-0003000Y0000000D03*
X-0003840D03*
G54D17*
X0000140Y0000990D03*
X0001750Y0030050D03*
G54D18*
X-0007600Y0001180D03*
X-0040700Y0001550D03*
G54D20*
X0008050Y0008700D03*
X-0005200Y-0001300D03*
X0001750Y0009100D03*
X-0004650Y-0003700D03*
X-0059092Y0027342D03*
X-0059100Y0011200D03*
X-0008046Y0026320D03*
X0000000Y0030050D03*
X-0047500Y0025720D03*
X-0006750Y0011172D03*
X-0049300Y-0003328D03*
X-0006700Y0019500D03*
X-0053600Y0005450D03*
X-0051400Y0001440D03*
X-0053600Y0001450D03*
X-0048600Y0022000D03*
X-0059630Y-0005230D03*
X-0007400Y0027200D03*
X-0006150Y0008750D03*
X-0049630Y-0005330D03*
X-0005850Y-0003350D03*
X-0050800Y0027650D03*
X-0004300Y-0003350D03*
Y-0000700D03*
X0001250Y0008750D03*
X-0058750Y0013350D03*
X-0040950Y0031750D03*
X0005542Y0004842D03*
X-0056750Y-0008150D03*
X-0007184Y-0007950D03*
X-0050100Y0023100D03*
X-0005866Y0005142D03*
X-0004000Y0007320D03*
X0000920Y0023850D03*
X-0005650Y0022350D03*
X-0007110Y0030540D03*
X-0047500Y0030372D03*
X-0002700Y0028770D03*
Y0019500D03*
X-0050160Y0035600D03*
X0002960Y0030900D03*
X-0004610Y0030910D03*
X-0005530Y-0000722D03*
X-0037075Y0026675D03*
X-0044928Y0026652D03*
X-0035985Y0027200D03*
X-0043980Y0027180D03*
X-0034895Y0027695D03*
X-0043450Y0027670D03*
X-0033805Y0028105D03*
X-0042960Y0028100D03*
X-0032715Y0028515D03*
X-0042480Y0028540D03*
X-0008888Y0026270D03*
X-0031625Y0026290D03*
X-0030535Y0025985D03*
X-0009330Y0025970D03*
X-0029445Y0025560D03*
X-0009840D03*
X-0028355Y0025190D03*
X-0010340Y0025200D03*
X-0027265Y0024890D03*
X-0011280Y0024860D03*
X-0026175Y0024470D03*
X-0011770Y0024460D03*
X-0025085Y0024070D03*
X-0012290Y0024050D03*
X-0023995Y0023710D03*
X-0012790Y0023680D03*
X-0022905Y0011105D03*
X-0008690Y0011040D03*
X-0021815Y0010660D03*
X-0009140D03*
X-0009640Y0010310D03*
X-0020725D03*
X-0019635Y0009970D03*
X-0010140Y0009930D03*
X-0018545Y0009550D03*
X-0011090Y0009560D03*
X-0011590Y0009090D03*
X-0037620Y0009070D03*
X-0036530Y0008630D03*
X-0012090Y0008670D03*
X-0035440Y0008140D03*
X-0012590Y0008170D03*
X-0034350Y-0005400D03*
X-0047810Y-0005360D03*
X-0033260Y-0004860D03*
X-0047370Y-0004870D03*
X-0032170Y-0004420D03*
X-0046860D03*
X-0031080Y-0004030D03*
X-0046340Y-0004000D03*
X-0029990Y-0003540D03*
X-0045400Y-0003510D03*
X-0044910Y-0002980D03*
X-0028900Y-0003000D03*
X-0044410Y-0002510D03*
X-0027810D03*
X-0026720Y-0002070D03*
X-0043890Y-0002030D03*
X-0025630Y-0003530D03*
X-0008282Y-0003560D03*
X-0008710Y-0003830D03*
X-0024540Y-0004000D03*
X-0009220Y-0004180D03*
X-0023450Y-0004330D03*
X-0022360Y-0004510D03*
X-0009744Y-0004532D03*
X-0010710Y-0004920D03*
X-0021270D03*
X-0020180Y-0005320D03*
X-0011200Y-0005380D03*
X-0011690Y-0005900D03*
X-0011530Y0000650D03*
X-0008720D03*
X-0019090Y-0005910D03*
X-0017500Y-0000950D03*
X-0019090D03*
X-0012180Y-0006400D03*
X-0006770Y0022700D03*
X-0015050Y0032200D03*
X-0041150Y0032450D03*
X-0047300Y0033350D03*
X-0046976Y0020850D03*
X-0016000D03*
X-0015970Y0027810D03*
X-0007850D03*
X-0007450Y0009430D03*
X-0003350Y0004000D03*
X-0007200Y0008330D03*
X-0012700Y0001900D03*
X-0006800Y-0008540D03*
X-0004700Y0016000D03*
X-0007100Y0010512D03*
X-0006360Y0028750D03*
X-0004450D03*
Y0028070D03*
Y0023520D03*
Y0022480D03*
Y0020600D03*
X-0056350Y-0009000D03*
Y-0002950D03*
X-0037950Y0013450D03*
X-0008030D03*
X-0047958Y-0008150D03*
X-0016920D03*
X-0010350Y-0008900D03*
Y-0006200D03*
X-0009582Y0022020D03*
X-0010094D03*
X-0047116Y-0001250D03*
X-0055000Y0001330D03*
X-0045696Y0029700D03*
X-0046200D03*
X-0008464Y-0007600D03*
X-0008872Y0006950D03*
X-0009070Y0022020D03*
X-0010606D03*
X-0015350Y0029700D03*
X-0039480D03*
X-0044672D03*
X-0047650Y-0007600D03*
X-0045696Y0022850D03*
X-0010500Y0001950D03*
X-0008500Y-0001386D03*
X-0009896Y0013850D03*
X-0010950Y0018820D03*
Y0021510D03*
X-0010900Y0024500D03*
X-0001630Y0031250D03*
X0004140Y0031310D03*
X-0007952Y-0004498D03*
X-0008360Y0009610D03*
X-0008558Y0024808D03*
Y0021540D03*
X-0008360Y0004460D03*
X-0048400Y-0007250D03*
X-0046720Y0024042D03*
X-0045650Y0025800D03*
X-0046720Y0026900D03*
X-0062500Y-0007510D03*
X-0048750Y-0007930D03*
Y-0010200D03*
X-0008300Y0002300D03*
X0002700Y0010365D03*
X-0041150Y0029250D03*
X-0047050D03*
X-0050450Y0026200D03*
Y0023780D03*
X0002100Y0017100D03*
X-0039750Y0028900D03*
G54D21*
X-0056800Y0009545D03*
Y0001000D03*
X-0055550D03*
X-0053750D03*
X-0050850D03*
M02*
