G75*
%MOIN*%
%OFA0B0*%
%FSLAX25Y25*%
%IPPOS*%
%LPD*%
%AMOC8*
5,1,8,0,0,1.08239X$1,22.5*
%
%ADD10C,0.12008*%
%ADD11C,0.06921*%
%ADD12OC8,0.06984*%
%ADD13C,0.20984*%
%ADD14C,0.04165*%
D10*
X0055484Y0158154D03*
X0303028Y0158170D03*
D11*
X0224346Y0151540D03*
X0134346Y0151540D03*
D12*
X0086848Y0065300D03*
X0097748Y0065300D03*
X0108548Y0065300D03*
X0119448Y0065300D03*
X0130348Y0065300D03*
X0141248Y0065300D03*
X0152048Y0065300D03*
X0162948Y0065300D03*
X0173848Y0065300D03*
X0184648Y0065300D03*
X0195548Y0065300D03*
X0206448Y0065300D03*
X0217248Y0065300D03*
X0228148Y0065300D03*
X0239048Y0065300D03*
X0249848Y0065300D03*
X0260748Y0065300D03*
X0271648Y0065300D03*
X0277048Y0075300D03*
X0266148Y0075300D03*
X0255348Y0075300D03*
X0244448Y0075300D03*
X0233548Y0075300D03*
X0222748Y0075300D03*
X0211848Y0075300D03*
X0200948Y0075300D03*
X0190148Y0075300D03*
X0179248Y0075300D03*
X0168348Y0075300D03*
X0157548Y0075300D03*
X0146648Y0075300D03*
X0135748Y0075300D03*
X0124848Y0075300D03*
X0114048Y0075300D03*
X0103148Y0075300D03*
X0092248Y0075300D03*
X0081448Y0075300D03*
D13*
X0054248Y0070300D03*
X0304248Y0070300D03*
D14*
X0216906Y0134808D03*
X0211689Y0134709D03*
X0206768Y0134611D03*
X0201846Y0134611D03*
X0192004Y0134709D03*
X0187083Y0135202D03*
X0187083Y0152524D03*
X0191807Y0152426D03*
X0196925Y0152524D03*
X0201846Y0152426D03*
X0206768Y0152426D03*
X0211886Y0152426D03*
X0216807Y0152426D03*
X0136886Y0168174D03*
X0134425Y0135694D03*
M02*
