G75*
%MOIN*%
%OFA0B0*%
%FSLAX25Y25*%
%IPPOS*%
%LPD*%
%AMOC8*
5,1,8,0,0,1.08239X$1,22.5*
%
%ADD10C,0.00400*%
%ADD11C,0.00600*%
%ADD12C,0.03200*%
%ADD13C,0.00500*%
%ADD14R,0.01000X0.09500*%
%ADD15R,0.04000X0.06500*%
%ADD16R,2.25000X0.03000*%
%ADD17R,2.74000X0.02000*%
%ADD18R,0.03200X0.28500*%
%ADD19R,0.03200X0.18500*%
D10*
X0106419Y0114202D02*
X0106419Y0119407D01*
X0109021Y0119407D01*
X0109889Y0118539D01*
X0109889Y0116804D01*
X0109021Y0115937D01*
X0106419Y0115937D01*
X0104732Y0115937D02*
X0104732Y0118539D01*
X0103865Y0119407D01*
X0102998Y0118539D01*
X0102998Y0115937D01*
X0101263Y0115937D02*
X0101263Y0119407D01*
X0102130Y0119407D01*
X0102998Y0118539D01*
X0099576Y0118539D02*
X0099576Y0115937D01*
X0096974Y0115937D01*
X0096106Y0116804D01*
X0096974Y0117672D01*
X0099576Y0117672D01*
X0099576Y0118539D02*
X0098709Y0119407D01*
X0096974Y0119407D01*
X0094420Y0118539D02*
X0090950Y0118539D01*
X0089263Y0116804D02*
X0088396Y0115937D01*
X0086661Y0115937D01*
X0085794Y0116804D01*
X0085794Y0120274D01*
X0086661Y0121141D01*
X0088396Y0121141D01*
X0089263Y0120274D01*
X0090950Y0121141D02*
X0090950Y0115937D01*
X0094420Y0115937D02*
X0094420Y0121141D01*
X0095247Y0124337D02*
X0097849Y0124337D01*
X0098717Y0125204D01*
X0097849Y0126072D01*
X0096114Y0126072D01*
X0095247Y0126939D01*
X0096114Y0127807D01*
X0098717Y0127807D01*
X0101271Y0127807D02*
X0103006Y0127807D01*
X0103873Y0126939D01*
X0103873Y0124337D01*
X0101271Y0124337D01*
X0100403Y0125204D01*
X0101271Y0126072D01*
X0103873Y0126072D01*
X0105560Y0124337D02*
X0105560Y0127807D01*
X0106427Y0127807D01*
X0107295Y0126939D01*
X0108162Y0127807D01*
X0109029Y0126939D01*
X0109029Y0124337D01*
X0107295Y0124337D02*
X0107295Y0126939D01*
X0110716Y0127807D02*
X0112451Y0127807D01*
X0111584Y0128674D02*
X0111584Y0125204D01*
X0112451Y0124337D01*
X0114154Y0125204D02*
X0114154Y0126939D01*
X0115021Y0127807D01*
X0116756Y0127807D01*
X0117623Y0126939D01*
X0117623Y0126072D01*
X0114154Y0126072D01*
X0114154Y0125204D02*
X0115021Y0124337D01*
X0116756Y0124337D01*
X0119310Y0125204D02*
X0120178Y0124337D01*
X0122780Y0124337D01*
X0119310Y0125204D02*
X0119310Y0126939D01*
X0120178Y0127807D01*
X0122780Y0127807D01*
X0088404Y0126939D02*
X0087536Y0127807D01*
X0085802Y0127807D01*
X0084934Y0126939D01*
X0084934Y0125204D01*
X0085802Y0124337D01*
X0087536Y0124337D01*
X0088404Y0125204D01*
X0088404Y0126939D01*
X0083231Y0127807D02*
X0081497Y0127807D01*
X0082364Y0128674D02*
X0082364Y0125204D01*
X0083231Y0124337D01*
X0083223Y0122009D02*
X0083223Y0121141D01*
X0083223Y0119407D02*
X0083223Y0115937D01*
X0082356Y0115937D02*
X0084091Y0115937D01*
X0080653Y0115937D02*
X0079786Y0116804D01*
X0079786Y0120274D01*
X0078918Y0119407D02*
X0080653Y0119407D01*
X0082356Y0119407D02*
X0083223Y0119407D01*
X0077232Y0119407D02*
X0074629Y0119407D01*
X0073762Y0118539D01*
X0073762Y0116804D01*
X0074629Y0115937D01*
X0077232Y0115937D01*
X0072075Y0115937D02*
X0072075Y0118539D01*
X0071208Y0119407D01*
X0069473Y0119407D01*
X0069473Y0117672D02*
X0068606Y0116804D01*
X0069473Y0115937D01*
X0072075Y0115937D01*
X0072075Y0117672D02*
X0069473Y0117672D01*
X0069497Y0124337D02*
X0066895Y0124337D01*
X0066027Y0125204D01*
X0066027Y0127807D01*
X0064341Y0127807D02*
X0061738Y0127807D01*
X0060871Y0126939D01*
X0061738Y0126072D01*
X0063473Y0126072D01*
X0064341Y0125204D01*
X0063473Y0124337D01*
X0060871Y0124337D01*
X0059184Y0126939D02*
X0055715Y0126939D01*
X0054028Y0127807D02*
X0051426Y0127807D01*
X0050558Y0126939D01*
X0050558Y0125204D01*
X0051426Y0124337D01*
X0054028Y0124337D01*
X0054028Y0129541D01*
X0052293Y0121141D02*
X0051426Y0120274D01*
X0051426Y0115937D01*
X0053996Y0116804D02*
X0053996Y0118539D01*
X0054863Y0119407D01*
X0056598Y0119407D01*
X0057465Y0118539D01*
X0057465Y0116804D01*
X0056598Y0115937D01*
X0054863Y0115937D01*
X0053996Y0116804D01*
X0052293Y0118539D02*
X0050558Y0118539D01*
X0059152Y0117672D02*
X0060887Y0119407D01*
X0061754Y0119407D01*
X0059152Y0119407D02*
X0059152Y0115937D01*
X0069497Y0124337D02*
X0069497Y0127807D01*
X0071184Y0127807D02*
X0073786Y0127807D01*
X0074653Y0126939D01*
X0074653Y0125204D01*
X0073786Y0124337D01*
X0071184Y0124337D01*
X0071184Y0129541D01*
D11*
X0070248Y0024300D02*
X0042248Y0024300D01*
X0042248Y0026300D01*
X0052248Y0026300D01*
X0062248Y0026300D01*
X0062248Y0028300D01*
X0062748Y0028300D01*
X0062748Y0037800D01*
X0062750Y0037898D01*
X0062756Y0037996D01*
X0062765Y0038094D01*
X0062779Y0038191D01*
X0062796Y0038288D01*
X0062817Y0038384D01*
X0062842Y0038479D01*
X0062870Y0038573D01*
X0062903Y0038665D01*
X0062938Y0038757D01*
X0062978Y0038847D01*
X0063020Y0038935D01*
X0063067Y0039022D01*
X0063116Y0039106D01*
X0063169Y0039189D01*
X0063225Y0039269D01*
X0063285Y0039348D01*
X0063347Y0039424D01*
X0063412Y0039497D01*
X0063480Y0039568D01*
X0063551Y0039636D01*
X0063624Y0039701D01*
X0063700Y0039763D01*
X0063779Y0039823D01*
X0063859Y0039879D01*
X0063942Y0039932D01*
X0064026Y0039981D01*
X0064113Y0040028D01*
X0064201Y0040070D01*
X0064291Y0040110D01*
X0064383Y0040145D01*
X0064475Y0040178D01*
X0064569Y0040206D01*
X0064664Y0040231D01*
X0064760Y0040252D01*
X0064857Y0040269D01*
X0064954Y0040283D01*
X0065052Y0040292D01*
X0065150Y0040298D01*
X0065248Y0040300D01*
X0065748Y0040300D02*
X0062248Y0040300D01*
X0042248Y0040300D01*
X0042248Y0040800D01*
X0042248Y0080800D01*
X0044248Y0082800D01*
X0063748Y0082800D01*
X0065748Y0080800D01*
X0065748Y0040300D01*
X0066748Y0040300D01*
X0066748Y0043300D01*
X0291748Y0043300D01*
X0291748Y0040300D01*
X0066748Y0040300D01*
X0062248Y0040300D02*
X0062248Y0040800D01*
X0042248Y0040800D01*
X0042248Y0040300D02*
X0042248Y0028300D01*
X0052248Y0028300D01*
X0052248Y0029300D01*
X0062248Y0029300D01*
X0062248Y0028300D01*
X0062748Y0028300D02*
X0295748Y0028300D01*
X0295748Y0037800D01*
X0295746Y0037898D01*
X0295740Y0037996D01*
X0295731Y0038094D01*
X0295717Y0038191D01*
X0295700Y0038288D01*
X0295679Y0038384D01*
X0295654Y0038479D01*
X0295626Y0038573D01*
X0295593Y0038665D01*
X0295558Y0038757D01*
X0295518Y0038847D01*
X0295476Y0038935D01*
X0295429Y0039022D01*
X0295380Y0039106D01*
X0295327Y0039189D01*
X0295271Y0039269D01*
X0295211Y0039348D01*
X0295149Y0039424D01*
X0295084Y0039497D01*
X0295016Y0039568D01*
X0294945Y0039636D01*
X0294872Y0039701D01*
X0294796Y0039763D01*
X0294717Y0039823D01*
X0294637Y0039879D01*
X0294554Y0039932D01*
X0294470Y0039981D01*
X0294383Y0040028D01*
X0294295Y0040070D01*
X0294205Y0040110D01*
X0294113Y0040145D01*
X0294021Y0040178D01*
X0293927Y0040206D01*
X0293832Y0040231D01*
X0293736Y0040252D01*
X0293639Y0040269D01*
X0293542Y0040283D01*
X0293444Y0040292D01*
X0293346Y0040298D01*
X0293248Y0040300D01*
X0292748Y0040300D02*
X0292748Y0080800D01*
X0294748Y0082800D01*
X0313748Y0082800D01*
X0316248Y0080300D01*
X0316248Y0040800D01*
X0296248Y0040800D01*
X0296248Y0040300D01*
X0292748Y0040300D01*
X0291748Y0040300D01*
X0296248Y0040300D02*
X0316248Y0040300D01*
X0316248Y0040800D01*
X0316248Y0040300D02*
X0316248Y0028300D01*
X0316248Y0026300D01*
X0306248Y0026300D01*
X0306248Y0028300D01*
X0306248Y0029300D01*
X0296248Y0029300D01*
X0296248Y0028300D01*
X0295748Y0028300D01*
X0296248Y0028300D02*
X0296248Y0026300D01*
X0062248Y0026300D01*
X0066248Y0024300D02*
X0066346Y0024298D01*
X0066444Y0024292D01*
X0066542Y0024283D01*
X0066639Y0024269D01*
X0066736Y0024252D01*
X0066832Y0024231D01*
X0066927Y0024206D01*
X0067021Y0024178D01*
X0067113Y0024145D01*
X0067205Y0024110D01*
X0067295Y0024070D01*
X0067383Y0024028D01*
X0067470Y0023981D01*
X0067554Y0023932D01*
X0067637Y0023879D01*
X0067717Y0023823D01*
X0067796Y0023763D01*
X0067872Y0023701D01*
X0067945Y0023636D01*
X0068016Y0023568D01*
X0068084Y0023497D01*
X0068149Y0023424D01*
X0068211Y0023348D01*
X0068271Y0023269D01*
X0068327Y0023189D01*
X0068380Y0023106D01*
X0068429Y0023022D01*
X0068476Y0022935D01*
X0068518Y0022847D01*
X0068558Y0022757D01*
X0068593Y0022665D01*
X0068626Y0022573D01*
X0068654Y0022479D01*
X0068679Y0022384D01*
X0068700Y0022288D01*
X0068717Y0022191D01*
X0068731Y0022094D01*
X0068740Y0021996D01*
X0068746Y0021898D01*
X0068748Y0021800D01*
X0068748Y0003300D01*
X0070248Y0003300D02*
X0070248Y0024300D01*
X0288248Y0024300D01*
X0316248Y0024300D01*
X0316248Y0026300D01*
X0316248Y0028300D02*
X0306248Y0028300D01*
X0306248Y0026300D02*
X0296248Y0026300D01*
X0292248Y0024300D02*
X0292150Y0024298D01*
X0292052Y0024292D01*
X0291954Y0024283D01*
X0291857Y0024269D01*
X0291760Y0024252D01*
X0291664Y0024231D01*
X0291569Y0024206D01*
X0291475Y0024178D01*
X0291383Y0024145D01*
X0291291Y0024110D01*
X0291201Y0024070D01*
X0291113Y0024028D01*
X0291026Y0023981D01*
X0290942Y0023932D01*
X0290859Y0023879D01*
X0290779Y0023823D01*
X0290700Y0023763D01*
X0290624Y0023701D01*
X0290551Y0023636D01*
X0290480Y0023568D01*
X0290412Y0023497D01*
X0290347Y0023424D01*
X0290285Y0023348D01*
X0290225Y0023269D01*
X0290169Y0023189D01*
X0290116Y0023106D01*
X0290067Y0023022D01*
X0290020Y0022935D01*
X0289978Y0022847D01*
X0289938Y0022757D01*
X0289903Y0022665D01*
X0289870Y0022573D01*
X0289842Y0022479D01*
X0289817Y0022384D01*
X0289796Y0022288D01*
X0289779Y0022191D01*
X0289765Y0022094D01*
X0289756Y0021996D01*
X0289750Y0021898D01*
X0289748Y0021800D01*
X0289748Y0003300D01*
X0288248Y0003300D02*
X0288248Y0024300D01*
X0286748Y0022300D02*
X0286748Y0001300D01*
X0071748Y0001300D01*
X0070748Y0001300D01*
X0071748Y0001300D02*
X0071748Y0022300D01*
X0052248Y0026300D02*
X0052248Y0028300D01*
X0042248Y0028300D02*
X0042248Y0026300D01*
X0068748Y0003300D02*
X0068750Y0003213D01*
X0068756Y0003126D01*
X0068765Y0003039D01*
X0068778Y0002953D01*
X0068795Y0002867D01*
X0068816Y0002782D01*
X0068841Y0002699D01*
X0068869Y0002616D01*
X0068900Y0002535D01*
X0068935Y0002455D01*
X0068974Y0002377D01*
X0069016Y0002300D01*
X0069061Y0002225D01*
X0069110Y0002153D01*
X0069161Y0002082D01*
X0069216Y0002014D01*
X0069273Y0001949D01*
X0069334Y0001886D01*
X0069397Y0001825D01*
X0069462Y0001768D01*
X0069530Y0001713D01*
X0069601Y0001662D01*
X0069673Y0001613D01*
X0069748Y0001568D01*
X0069825Y0001526D01*
X0069903Y0001487D01*
X0069983Y0001452D01*
X0070064Y0001421D01*
X0070147Y0001393D01*
X0070230Y0001368D01*
X0070315Y0001347D01*
X0070401Y0001330D01*
X0070487Y0001317D01*
X0070574Y0001308D01*
X0070661Y0001302D01*
X0070748Y0001300D01*
X0095748Y0006300D02*
X0095748Y0015300D01*
X0104748Y0015300D01*
X0104748Y0006300D01*
X0103248Y0006300D01*
X0103248Y0013800D01*
X0097248Y0013800D01*
X0097248Y0006300D01*
X0095748Y0006300D01*
X0111248Y0006300D02*
X0111248Y0015300D01*
X0120248Y0015300D01*
X0120248Y0006300D01*
X0118748Y0006300D01*
X0118748Y0013800D01*
X0112748Y0013800D01*
X0112748Y0006300D01*
X0111248Y0006300D01*
X0126748Y0006300D02*
X0126748Y0015300D01*
X0135748Y0015300D01*
X0135748Y0006300D01*
X0134248Y0006300D01*
X0134248Y0013800D01*
X0128248Y0013800D01*
X0128248Y0006300D01*
X0126748Y0006300D01*
X0142748Y0006300D02*
X0142748Y0015300D01*
X0151748Y0015300D01*
X0151748Y0006300D01*
X0150248Y0006300D01*
X0150248Y0013800D01*
X0144248Y0013800D01*
X0144248Y0006300D01*
X0142748Y0006300D01*
X0159248Y0006300D02*
X0159248Y0015300D01*
X0168248Y0015300D01*
X0168248Y0006300D01*
X0166748Y0006300D01*
X0166748Y0013800D01*
X0160748Y0013800D01*
X0160748Y0006300D01*
X0159248Y0006300D01*
X0174748Y0006300D02*
X0174748Y0015300D01*
X0183748Y0015300D01*
X0183748Y0006300D01*
X0182248Y0006300D01*
X0182248Y0013800D01*
X0176248Y0013800D01*
X0176248Y0006300D01*
X0174748Y0006300D01*
X0190248Y0006300D02*
X0190248Y0015300D01*
X0199248Y0015300D01*
X0199248Y0006300D01*
X0197748Y0006300D01*
X0197748Y0013800D01*
X0191748Y0013800D01*
X0191748Y0006300D01*
X0190248Y0006300D01*
X0206748Y0006300D02*
X0206748Y0015300D01*
X0215748Y0015300D01*
X0215748Y0006300D01*
X0214248Y0006300D01*
X0214248Y0013800D01*
X0208248Y0013800D01*
X0208248Y0006300D01*
X0206748Y0006300D01*
X0222748Y0006300D02*
X0222748Y0015300D01*
X0231748Y0015300D01*
X0231748Y0006300D01*
X0230248Y0006300D01*
X0230248Y0013800D01*
X0224248Y0013800D01*
X0224248Y0006300D01*
X0222748Y0006300D01*
X0238248Y0006300D02*
X0238248Y0015300D01*
X0247248Y0015300D01*
X0247248Y0006300D01*
X0245748Y0006300D01*
X0245748Y0013800D01*
X0239748Y0013800D01*
X0239748Y0006300D01*
X0238248Y0006300D01*
X0253748Y0006300D02*
X0253748Y0015300D01*
X0262748Y0015300D01*
X0262748Y0006300D01*
X0261248Y0006300D01*
X0261248Y0013800D01*
X0255248Y0013800D01*
X0255248Y0006300D01*
X0253748Y0006300D01*
X0286748Y0001300D02*
X0287748Y0001300D01*
X0287835Y0001302D01*
X0287922Y0001308D01*
X0288009Y0001317D01*
X0288095Y0001330D01*
X0288181Y0001347D01*
X0288266Y0001368D01*
X0288349Y0001393D01*
X0288432Y0001421D01*
X0288513Y0001452D01*
X0288593Y0001487D01*
X0288671Y0001526D01*
X0288748Y0001568D01*
X0288823Y0001613D01*
X0288895Y0001662D01*
X0288966Y0001713D01*
X0289034Y0001768D01*
X0289099Y0001825D01*
X0289162Y0001886D01*
X0289223Y0001949D01*
X0289280Y0002014D01*
X0289335Y0002082D01*
X0289386Y0002153D01*
X0289435Y0002225D01*
X0289480Y0002300D01*
X0289522Y0002377D01*
X0289561Y0002455D01*
X0289596Y0002535D01*
X0289627Y0002616D01*
X0289655Y0002699D01*
X0289680Y0002782D01*
X0289701Y0002867D01*
X0289718Y0002953D01*
X0289731Y0003039D01*
X0289740Y0003126D01*
X0289746Y0003213D01*
X0289748Y0003300D01*
X0207553Y0032731D02*
X0207553Y0034866D01*
X0206486Y0035933D01*
X0203283Y0035933D01*
X0203283Y0038068D02*
X0203283Y0031663D01*
X0206486Y0031663D01*
X0207553Y0032731D01*
X0201108Y0031663D02*
X0201108Y0035933D01*
X0196838Y0035933D02*
X0196838Y0032731D01*
X0197905Y0031663D01*
X0201108Y0031663D01*
X0194662Y0032731D02*
X0193595Y0033798D01*
X0191460Y0033798D01*
X0190392Y0034866D01*
X0191460Y0035933D01*
X0194662Y0035933D01*
X0194662Y0032731D02*
X0193595Y0031663D01*
X0190392Y0031663D01*
X0188217Y0034866D02*
X0183947Y0034866D01*
X0181771Y0035933D02*
X0178569Y0035933D01*
X0177501Y0034866D01*
X0177501Y0032731D01*
X0178569Y0031663D01*
X0181771Y0031663D01*
X0181771Y0038068D01*
X0168880Y0034866D02*
X0168880Y0033798D01*
X0164610Y0033798D01*
X0164610Y0032731D02*
X0164610Y0034866D01*
X0165678Y0035933D01*
X0167813Y0035933D01*
X0168880Y0034866D01*
X0167813Y0031663D02*
X0165678Y0031663D01*
X0164610Y0032731D01*
X0162448Y0031663D02*
X0160313Y0031663D01*
X0161381Y0031663D02*
X0161381Y0038068D01*
X0160313Y0038068D01*
X0158138Y0034866D02*
X0157070Y0035933D01*
X0154935Y0035933D01*
X0154935Y0033798D02*
X0158138Y0033798D01*
X0158138Y0034866D02*
X0158138Y0031663D01*
X0154935Y0031663D01*
X0153868Y0032731D01*
X0154935Y0033798D01*
X0151692Y0031663D02*
X0151692Y0038068D01*
X0149557Y0035933D01*
X0147422Y0038068D01*
X0147422Y0031663D01*
X0047748Y0070300D02*
X0047750Y0070461D01*
X0047756Y0070621D01*
X0047766Y0070782D01*
X0047780Y0070942D01*
X0047798Y0071102D01*
X0047819Y0071261D01*
X0047845Y0071420D01*
X0047875Y0071578D01*
X0047908Y0071735D01*
X0047946Y0071892D01*
X0047987Y0072047D01*
X0048032Y0072201D01*
X0048081Y0072354D01*
X0048134Y0072506D01*
X0048190Y0072657D01*
X0048251Y0072806D01*
X0048314Y0072954D01*
X0048382Y0073100D01*
X0048453Y0073244D01*
X0048527Y0073386D01*
X0048605Y0073527D01*
X0048687Y0073665D01*
X0048772Y0073802D01*
X0048860Y0073936D01*
X0048952Y0074068D01*
X0049047Y0074198D01*
X0049145Y0074326D01*
X0049246Y0074451D01*
X0049350Y0074573D01*
X0049457Y0074693D01*
X0049567Y0074810D01*
X0049680Y0074925D01*
X0049796Y0075036D01*
X0049915Y0075145D01*
X0050036Y0075250D01*
X0050160Y0075353D01*
X0050286Y0075453D01*
X0050414Y0075549D01*
X0050545Y0075642D01*
X0050679Y0075732D01*
X0050814Y0075819D01*
X0050952Y0075902D01*
X0051091Y0075982D01*
X0051233Y0076058D01*
X0051376Y0076131D01*
X0051521Y0076200D01*
X0051668Y0076266D01*
X0051816Y0076328D01*
X0051966Y0076386D01*
X0052117Y0076441D01*
X0052270Y0076492D01*
X0052424Y0076539D01*
X0052579Y0076582D01*
X0052735Y0076621D01*
X0052891Y0076657D01*
X0053049Y0076688D01*
X0053207Y0076716D01*
X0053366Y0076740D01*
X0053526Y0076760D01*
X0053686Y0076776D01*
X0053846Y0076788D01*
X0054007Y0076796D01*
X0054168Y0076800D01*
X0054328Y0076800D01*
X0054489Y0076796D01*
X0054650Y0076788D01*
X0054810Y0076776D01*
X0054970Y0076760D01*
X0055130Y0076740D01*
X0055289Y0076716D01*
X0055447Y0076688D01*
X0055605Y0076657D01*
X0055761Y0076621D01*
X0055917Y0076582D01*
X0056072Y0076539D01*
X0056226Y0076492D01*
X0056379Y0076441D01*
X0056530Y0076386D01*
X0056680Y0076328D01*
X0056828Y0076266D01*
X0056975Y0076200D01*
X0057120Y0076131D01*
X0057263Y0076058D01*
X0057405Y0075982D01*
X0057544Y0075902D01*
X0057682Y0075819D01*
X0057817Y0075732D01*
X0057951Y0075642D01*
X0058082Y0075549D01*
X0058210Y0075453D01*
X0058336Y0075353D01*
X0058460Y0075250D01*
X0058581Y0075145D01*
X0058700Y0075036D01*
X0058816Y0074925D01*
X0058929Y0074810D01*
X0059039Y0074693D01*
X0059146Y0074573D01*
X0059250Y0074451D01*
X0059351Y0074326D01*
X0059449Y0074198D01*
X0059544Y0074068D01*
X0059636Y0073936D01*
X0059724Y0073802D01*
X0059809Y0073665D01*
X0059891Y0073527D01*
X0059969Y0073386D01*
X0060043Y0073244D01*
X0060114Y0073100D01*
X0060182Y0072954D01*
X0060245Y0072806D01*
X0060306Y0072657D01*
X0060362Y0072506D01*
X0060415Y0072354D01*
X0060464Y0072201D01*
X0060509Y0072047D01*
X0060550Y0071892D01*
X0060588Y0071735D01*
X0060621Y0071578D01*
X0060651Y0071420D01*
X0060677Y0071261D01*
X0060698Y0071102D01*
X0060716Y0070942D01*
X0060730Y0070782D01*
X0060740Y0070621D01*
X0060746Y0070461D01*
X0060748Y0070300D01*
X0060746Y0070139D01*
X0060740Y0069979D01*
X0060730Y0069818D01*
X0060716Y0069658D01*
X0060698Y0069498D01*
X0060677Y0069339D01*
X0060651Y0069180D01*
X0060621Y0069022D01*
X0060588Y0068865D01*
X0060550Y0068708D01*
X0060509Y0068553D01*
X0060464Y0068399D01*
X0060415Y0068246D01*
X0060362Y0068094D01*
X0060306Y0067943D01*
X0060245Y0067794D01*
X0060182Y0067646D01*
X0060114Y0067500D01*
X0060043Y0067356D01*
X0059969Y0067214D01*
X0059891Y0067073D01*
X0059809Y0066935D01*
X0059724Y0066798D01*
X0059636Y0066664D01*
X0059544Y0066532D01*
X0059449Y0066402D01*
X0059351Y0066274D01*
X0059250Y0066149D01*
X0059146Y0066027D01*
X0059039Y0065907D01*
X0058929Y0065790D01*
X0058816Y0065675D01*
X0058700Y0065564D01*
X0058581Y0065455D01*
X0058460Y0065350D01*
X0058336Y0065247D01*
X0058210Y0065147D01*
X0058082Y0065051D01*
X0057951Y0064958D01*
X0057817Y0064868D01*
X0057682Y0064781D01*
X0057544Y0064698D01*
X0057405Y0064618D01*
X0057263Y0064542D01*
X0057120Y0064469D01*
X0056975Y0064400D01*
X0056828Y0064334D01*
X0056680Y0064272D01*
X0056530Y0064214D01*
X0056379Y0064159D01*
X0056226Y0064108D01*
X0056072Y0064061D01*
X0055917Y0064018D01*
X0055761Y0063979D01*
X0055605Y0063943D01*
X0055447Y0063912D01*
X0055289Y0063884D01*
X0055130Y0063860D01*
X0054970Y0063840D01*
X0054810Y0063824D01*
X0054650Y0063812D01*
X0054489Y0063804D01*
X0054328Y0063800D01*
X0054168Y0063800D01*
X0054007Y0063804D01*
X0053846Y0063812D01*
X0053686Y0063824D01*
X0053526Y0063840D01*
X0053366Y0063860D01*
X0053207Y0063884D01*
X0053049Y0063912D01*
X0052891Y0063943D01*
X0052735Y0063979D01*
X0052579Y0064018D01*
X0052424Y0064061D01*
X0052270Y0064108D01*
X0052117Y0064159D01*
X0051966Y0064214D01*
X0051816Y0064272D01*
X0051668Y0064334D01*
X0051521Y0064400D01*
X0051376Y0064469D01*
X0051233Y0064542D01*
X0051091Y0064618D01*
X0050952Y0064698D01*
X0050814Y0064781D01*
X0050679Y0064868D01*
X0050545Y0064958D01*
X0050414Y0065051D01*
X0050286Y0065147D01*
X0050160Y0065247D01*
X0050036Y0065350D01*
X0049915Y0065455D01*
X0049796Y0065564D01*
X0049680Y0065675D01*
X0049567Y0065790D01*
X0049457Y0065907D01*
X0049350Y0066027D01*
X0049246Y0066149D01*
X0049145Y0066274D01*
X0049047Y0066402D01*
X0048952Y0066532D01*
X0048860Y0066664D01*
X0048772Y0066798D01*
X0048687Y0066935D01*
X0048605Y0067073D01*
X0048527Y0067214D01*
X0048453Y0067356D01*
X0048382Y0067500D01*
X0048314Y0067646D01*
X0048251Y0067794D01*
X0048190Y0067943D01*
X0048134Y0068094D01*
X0048081Y0068246D01*
X0048032Y0068399D01*
X0047987Y0068553D01*
X0047946Y0068708D01*
X0047908Y0068865D01*
X0047875Y0069022D01*
X0047845Y0069180D01*
X0047819Y0069339D01*
X0047798Y0069498D01*
X0047780Y0069658D01*
X0047766Y0069818D01*
X0047756Y0069979D01*
X0047750Y0070139D01*
X0047748Y0070300D01*
X0297748Y0070300D02*
X0297750Y0070461D01*
X0297756Y0070621D01*
X0297766Y0070782D01*
X0297780Y0070942D01*
X0297798Y0071102D01*
X0297819Y0071261D01*
X0297845Y0071420D01*
X0297875Y0071578D01*
X0297908Y0071735D01*
X0297946Y0071892D01*
X0297987Y0072047D01*
X0298032Y0072201D01*
X0298081Y0072354D01*
X0298134Y0072506D01*
X0298190Y0072657D01*
X0298251Y0072806D01*
X0298314Y0072954D01*
X0298382Y0073100D01*
X0298453Y0073244D01*
X0298527Y0073386D01*
X0298605Y0073527D01*
X0298687Y0073665D01*
X0298772Y0073802D01*
X0298860Y0073936D01*
X0298952Y0074068D01*
X0299047Y0074198D01*
X0299145Y0074326D01*
X0299246Y0074451D01*
X0299350Y0074573D01*
X0299457Y0074693D01*
X0299567Y0074810D01*
X0299680Y0074925D01*
X0299796Y0075036D01*
X0299915Y0075145D01*
X0300036Y0075250D01*
X0300160Y0075353D01*
X0300286Y0075453D01*
X0300414Y0075549D01*
X0300545Y0075642D01*
X0300679Y0075732D01*
X0300814Y0075819D01*
X0300952Y0075902D01*
X0301091Y0075982D01*
X0301233Y0076058D01*
X0301376Y0076131D01*
X0301521Y0076200D01*
X0301668Y0076266D01*
X0301816Y0076328D01*
X0301966Y0076386D01*
X0302117Y0076441D01*
X0302270Y0076492D01*
X0302424Y0076539D01*
X0302579Y0076582D01*
X0302735Y0076621D01*
X0302891Y0076657D01*
X0303049Y0076688D01*
X0303207Y0076716D01*
X0303366Y0076740D01*
X0303526Y0076760D01*
X0303686Y0076776D01*
X0303846Y0076788D01*
X0304007Y0076796D01*
X0304168Y0076800D01*
X0304328Y0076800D01*
X0304489Y0076796D01*
X0304650Y0076788D01*
X0304810Y0076776D01*
X0304970Y0076760D01*
X0305130Y0076740D01*
X0305289Y0076716D01*
X0305447Y0076688D01*
X0305605Y0076657D01*
X0305761Y0076621D01*
X0305917Y0076582D01*
X0306072Y0076539D01*
X0306226Y0076492D01*
X0306379Y0076441D01*
X0306530Y0076386D01*
X0306680Y0076328D01*
X0306828Y0076266D01*
X0306975Y0076200D01*
X0307120Y0076131D01*
X0307263Y0076058D01*
X0307405Y0075982D01*
X0307544Y0075902D01*
X0307682Y0075819D01*
X0307817Y0075732D01*
X0307951Y0075642D01*
X0308082Y0075549D01*
X0308210Y0075453D01*
X0308336Y0075353D01*
X0308460Y0075250D01*
X0308581Y0075145D01*
X0308700Y0075036D01*
X0308816Y0074925D01*
X0308929Y0074810D01*
X0309039Y0074693D01*
X0309146Y0074573D01*
X0309250Y0074451D01*
X0309351Y0074326D01*
X0309449Y0074198D01*
X0309544Y0074068D01*
X0309636Y0073936D01*
X0309724Y0073802D01*
X0309809Y0073665D01*
X0309891Y0073527D01*
X0309969Y0073386D01*
X0310043Y0073244D01*
X0310114Y0073100D01*
X0310182Y0072954D01*
X0310245Y0072806D01*
X0310306Y0072657D01*
X0310362Y0072506D01*
X0310415Y0072354D01*
X0310464Y0072201D01*
X0310509Y0072047D01*
X0310550Y0071892D01*
X0310588Y0071735D01*
X0310621Y0071578D01*
X0310651Y0071420D01*
X0310677Y0071261D01*
X0310698Y0071102D01*
X0310716Y0070942D01*
X0310730Y0070782D01*
X0310740Y0070621D01*
X0310746Y0070461D01*
X0310748Y0070300D01*
X0310746Y0070139D01*
X0310740Y0069979D01*
X0310730Y0069818D01*
X0310716Y0069658D01*
X0310698Y0069498D01*
X0310677Y0069339D01*
X0310651Y0069180D01*
X0310621Y0069022D01*
X0310588Y0068865D01*
X0310550Y0068708D01*
X0310509Y0068553D01*
X0310464Y0068399D01*
X0310415Y0068246D01*
X0310362Y0068094D01*
X0310306Y0067943D01*
X0310245Y0067794D01*
X0310182Y0067646D01*
X0310114Y0067500D01*
X0310043Y0067356D01*
X0309969Y0067214D01*
X0309891Y0067073D01*
X0309809Y0066935D01*
X0309724Y0066798D01*
X0309636Y0066664D01*
X0309544Y0066532D01*
X0309449Y0066402D01*
X0309351Y0066274D01*
X0309250Y0066149D01*
X0309146Y0066027D01*
X0309039Y0065907D01*
X0308929Y0065790D01*
X0308816Y0065675D01*
X0308700Y0065564D01*
X0308581Y0065455D01*
X0308460Y0065350D01*
X0308336Y0065247D01*
X0308210Y0065147D01*
X0308082Y0065051D01*
X0307951Y0064958D01*
X0307817Y0064868D01*
X0307682Y0064781D01*
X0307544Y0064698D01*
X0307405Y0064618D01*
X0307263Y0064542D01*
X0307120Y0064469D01*
X0306975Y0064400D01*
X0306828Y0064334D01*
X0306680Y0064272D01*
X0306530Y0064214D01*
X0306379Y0064159D01*
X0306226Y0064108D01*
X0306072Y0064061D01*
X0305917Y0064018D01*
X0305761Y0063979D01*
X0305605Y0063943D01*
X0305447Y0063912D01*
X0305289Y0063884D01*
X0305130Y0063860D01*
X0304970Y0063840D01*
X0304810Y0063824D01*
X0304650Y0063812D01*
X0304489Y0063804D01*
X0304328Y0063800D01*
X0304168Y0063800D01*
X0304007Y0063804D01*
X0303846Y0063812D01*
X0303686Y0063824D01*
X0303526Y0063840D01*
X0303366Y0063860D01*
X0303207Y0063884D01*
X0303049Y0063912D01*
X0302891Y0063943D01*
X0302735Y0063979D01*
X0302579Y0064018D01*
X0302424Y0064061D01*
X0302270Y0064108D01*
X0302117Y0064159D01*
X0301966Y0064214D01*
X0301816Y0064272D01*
X0301668Y0064334D01*
X0301521Y0064400D01*
X0301376Y0064469D01*
X0301233Y0064542D01*
X0301091Y0064618D01*
X0300952Y0064698D01*
X0300814Y0064781D01*
X0300679Y0064868D01*
X0300545Y0064958D01*
X0300414Y0065051D01*
X0300286Y0065147D01*
X0300160Y0065247D01*
X0300036Y0065350D01*
X0299915Y0065455D01*
X0299796Y0065564D01*
X0299680Y0065675D01*
X0299567Y0065790D01*
X0299457Y0065907D01*
X0299350Y0066027D01*
X0299246Y0066149D01*
X0299145Y0066274D01*
X0299047Y0066402D01*
X0298952Y0066532D01*
X0298860Y0066664D01*
X0298772Y0066798D01*
X0298687Y0066935D01*
X0298605Y0067073D01*
X0298527Y0067214D01*
X0298453Y0067356D01*
X0298382Y0067500D01*
X0298314Y0067646D01*
X0298251Y0067794D01*
X0298190Y0067943D01*
X0298134Y0068094D01*
X0298081Y0068246D01*
X0298032Y0068399D01*
X0297987Y0068553D01*
X0297946Y0068708D01*
X0297908Y0068865D01*
X0297875Y0069022D01*
X0297845Y0069180D01*
X0297819Y0069339D01*
X0297798Y0069498D01*
X0297780Y0069658D01*
X0297766Y0069818D01*
X0297756Y0069979D01*
X0297750Y0070139D01*
X0297748Y0070300D01*
D12*
X0277048Y0070800D02*
X0277048Y0074800D01*
X0266148Y0074800D02*
X0266148Y0070800D01*
X0260748Y0064800D02*
X0260748Y0060800D01*
X0249848Y0060800D02*
X0249848Y0064800D01*
X0244448Y0070800D02*
X0244448Y0074800D01*
X0233548Y0074800D02*
X0233548Y0070800D01*
X0228148Y0064800D02*
X0228148Y0060800D01*
X0217248Y0060800D02*
X0217248Y0064800D01*
X0211848Y0070800D02*
X0211848Y0074800D01*
X0200948Y0074800D02*
X0200948Y0070800D01*
X0195548Y0064800D02*
X0195548Y0060800D01*
X0184648Y0060800D02*
X0184648Y0064800D01*
X0179248Y0070800D02*
X0179248Y0074800D01*
X0168348Y0074800D02*
X0168348Y0070800D01*
X0162948Y0064800D02*
X0162948Y0060800D01*
X0152048Y0060800D02*
X0152048Y0064800D01*
X0146648Y0070800D02*
X0146648Y0074800D01*
X0135748Y0074800D02*
X0135748Y0070800D01*
X0130348Y0064800D02*
X0130348Y0060800D01*
X0119448Y0060800D02*
X0119448Y0064800D01*
X0114048Y0070800D02*
X0114048Y0074800D01*
X0103148Y0074900D02*
X0103148Y0070900D01*
X0097748Y0064900D02*
X0097748Y0060900D01*
X0086848Y0060900D02*
X0086848Y0064900D01*
X0081448Y0070800D02*
X0081448Y0074800D01*
X0092248Y0074800D02*
X0092248Y0070800D01*
X0108548Y0064900D02*
X0108548Y0060900D01*
X0124848Y0070800D02*
X0124848Y0074800D01*
X0141248Y0064800D02*
X0141248Y0060800D01*
X0157548Y0070800D02*
X0157548Y0074800D01*
X0173848Y0064800D02*
X0173848Y0060800D01*
X0190148Y0070800D02*
X0190148Y0074800D01*
X0206448Y0064800D02*
X0206448Y0060800D01*
X0222748Y0070800D02*
X0222748Y0074800D01*
X0239048Y0064800D02*
X0239048Y0060800D01*
X0255348Y0070800D02*
X0255348Y0074800D01*
X0271648Y0064800D02*
X0271648Y0060800D01*
D13*
X0281498Y0063801D02*
X0282249Y0063050D01*
X0283750Y0063050D01*
X0284501Y0063801D01*
X0284501Y0064551D01*
X0283750Y0065302D01*
X0282999Y0065302D01*
X0283750Y0065302D02*
X0284501Y0066053D01*
X0284501Y0066803D01*
X0283750Y0067554D01*
X0282249Y0067554D01*
X0281498Y0066803D01*
X0286102Y0067554D02*
X0289105Y0067554D01*
X0289105Y0066803D01*
X0286102Y0063801D01*
X0286102Y0063050D01*
X0285501Y0073050D02*
X0282498Y0073050D01*
X0283999Y0073050D02*
X0283999Y0077554D01*
X0282498Y0076053D01*
X0287102Y0076053D02*
X0287853Y0075302D01*
X0290105Y0075302D01*
X0290105Y0073801D02*
X0290105Y0076803D01*
X0289354Y0077554D01*
X0287853Y0077554D01*
X0287102Y0076803D01*
X0287102Y0076053D01*
X0287102Y0073801D02*
X0287853Y0073050D01*
X0289354Y0073050D01*
X0290105Y0073801D01*
X0085708Y0036554D02*
X0085708Y0035803D01*
X0082706Y0032801D01*
X0082706Y0032050D01*
X0081105Y0032801D02*
X0081105Y0033551D01*
X0080354Y0034302D01*
X0079603Y0034302D01*
X0080354Y0034302D02*
X0081105Y0035053D01*
X0081105Y0035803D01*
X0080354Y0036554D01*
X0078853Y0036554D01*
X0078102Y0035803D01*
X0076501Y0036554D02*
X0076501Y0032050D01*
X0078102Y0032801D02*
X0078853Y0032050D01*
X0080354Y0032050D01*
X0081105Y0032801D01*
X0082706Y0036554D02*
X0085708Y0036554D01*
X0076501Y0036554D02*
X0074999Y0035053D01*
X0073498Y0036554D01*
X0073498Y0032050D01*
X0049498Y0043550D02*
X0046495Y0046553D01*
X0045745Y0046553D01*
X0044994Y0045802D01*
X0044994Y0044301D01*
X0045745Y0043550D01*
X0049498Y0043550D02*
X0049498Y0046553D01*
X0050999Y0048154D02*
X0049498Y0049655D01*
X0049498Y0048905D01*
X0048747Y0048905D01*
X0048747Y0049655D01*
X0049498Y0049655D01*
X0048747Y0051223D02*
X0049498Y0051974D01*
X0049498Y0053475D01*
X0048747Y0054226D01*
X0047246Y0054226D01*
X0046495Y0053475D01*
X0046495Y0052724D01*
X0047246Y0051223D01*
X0044994Y0051223D01*
X0044994Y0054226D01*
X0047246Y0055827D02*
X0047246Y0058830D01*
X0044994Y0058079D02*
X0047246Y0055827D01*
X0049498Y0058079D02*
X0044994Y0058079D01*
X0068998Y0062550D02*
X0072001Y0065553D01*
X0072001Y0066303D01*
X0071250Y0067054D01*
X0069749Y0067054D01*
X0068998Y0066303D01*
X0068998Y0062550D02*
X0072001Y0062550D01*
X0073602Y0063301D02*
X0073602Y0066303D01*
X0074353Y0067054D01*
X0075854Y0067054D01*
X0076605Y0066303D01*
X0073602Y0063301D01*
X0074353Y0062550D01*
X0075854Y0062550D01*
X0076605Y0063301D01*
X0076605Y0066303D01*
X0076501Y0073050D02*
X0073498Y0073050D01*
X0074999Y0073050D02*
X0074999Y0077554D01*
X0073498Y0076053D01*
D14*
X0064748Y0033050D03*
X0293748Y0033050D03*
D15*
X0304548Y0043550D03*
X0053948Y0043550D03*
D16*
X0179248Y0041800D03*
D17*
X0179248Y0025300D03*
D18*
X0179248Y0057550D03*
X0168348Y0057550D03*
X0157548Y0057550D03*
X0146648Y0057550D03*
X0135748Y0057550D03*
X0124848Y0057550D03*
X0114048Y0057550D03*
X0114048Y0057550D03*
X0103148Y0057550D03*
X0092248Y0057550D03*
X0081448Y0057550D03*
X0190148Y0057550D03*
X0200948Y0057550D03*
X0211848Y0057550D03*
X0222748Y0057650D03*
X0233548Y0057550D03*
X0244448Y0057550D03*
X0255348Y0057550D03*
X0266148Y0057550D03*
X0277048Y0057550D03*
D19*
X0271648Y0052550D03*
X0260748Y0052550D03*
X0249848Y0052550D03*
X0239048Y0052550D03*
X0228148Y0052550D03*
X0217248Y0052550D03*
X0206448Y0052550D03*
X0195548Y0052550D03*
X0184648Y0052550D03*
X0173848Y0052550D03*
X0162948Y0052550D03*
X0152048Y0052550D03*
X0141248Y0052550D03*
X0130348Y0052550D03*
X0119448Y0052550D03*
X0119448Y0052550D03*
X0108548Y0052550D03*
X0097748Y0052550D03*
X0086848Y0052550D03*
M02*
