%
M48
M72
T01C0.0118
T02C0.0394
T03C0.0400
T04C0.1102
T05C0.1300
%
T01
X13443Y13569
X13689Y16817
X18708Y15252
X19181Y15243
X19693Y15252
X20185Y15243
X20677Y15243
X21189Y15243
X21681Y15243
X21691Y13481
X21169Y13471
X20677Y13461
X20185Y13461
X19200Y13471
X18708Y13520
T02
X22435Y15154
X13435Y15154
T03
X8685Y6530
X9775Y6530
X10855Y6530
X11945Y6530
X13035Y6530
X14125Y6530
X15205Y6530
X16295Y6530
X17385Y6530
X18465Y6530
X19555Y6530
X20645Y6530
X21725Y6530
X22815Y6530
X23905Y6530
X24985Y6530
X26075Y6530
X27165Y6530
X27705Y7530
X26615Y7530
X25535Y7530
X24445Y7530
X23355Y7530
X22275Y7530
X21185Y7530
X20095Y7530
X19015Y7530
X17925Y7530
X16835Y7530
X15755Y7530
X14665Y7530
X13575Y7530
X12485Y7530
X11405Y7530
X10315Y7530
X9225Y7530
X8145Y7530
T04
X5548Y15815
X30303Y15817
T05
X30425Y7030
X5425Y7030
M30
