G75*
%MOIN*%
%OFA0B0*%
%FSLAX25Y25*%
%IPPOS*%
%LPD*%
%AMOC8*
5,1,8,0,0,1.08239X$1,22.5*
%
%ADD10C,0.05937*%
%ADD11OC8,0.06000*%
%ADD12C,0.20000*%
%ADD13C,0.03181*%
%ADD14C,0.00500*%
%ADD15C,0.02400*%
D10*
X0134346Y0151540D03*
X0224346Y0151540D03*
D11*
X0222748Y0075300D03*
X0233548Y0075300D03*
X0244448Y0075300D03*
X0255348Y0075300D03*
X0266148Y0075300D03*
X0277048Y0075300D03*
X0271648Y0065300D03*
X0260748Y0065300D03*
X0249848Y0065300D03*
X0239048Y0065300D03*
X0228148Y0065300D03*
X0217248Y0065300D03*
X0206448Y0065300D03*
X0195548Y0065300D03*
X0184648Y0065300D03*
X0173848Y0065300D03*
X0162948Y0065300D03*
X0152048Y0065300D03*
X0141248Y0065300D03*
X0130348Y0065300D03*
X0119448Y0065300D03*
X0108548Y0065300D03*
X0097748Y0065300D03*
X0086848Y0065300D03*
X0081448Y0075300D03*
X0092248Y0075300D03*
X0103148Y0075300D03*
X0114048Y0075300D03*
X0124848Y0075300D03*
X0135748Y0075300D03*
X0146648Y0075300D03*
X0157548Y0075300D03*
X0168348Y0075300D03*
X0179248Y0075300D03*
X0190148Y0075300D03*
X0200948Y0075300D03*
X0211848Y0075300D03*
D12*
X0304248Y0070300D03*
X0054248Y0070300D03*
D13*
X0134425Y0135694D03*
X0136886Y0168174D03*
X0187083Y0152524D03*
X0191807Y0152426D03*
X0196925Y0152524D03*
X0201846Y0152426D03*
X0206768Y0152426D03*
X0211886Y0152426D03*
X0216807Y0152426D03*
X0216906Y0134808D03*
X0211689Y0134709D03*
X0206768Y0134611D03*
X0201846Y0134611D03*
X0192004Y0134709D03*
X0187083Y0135202D03*
D14*
X0187083Y0132741D01*
X0097988Y0104080D01*
X0097748Y0065300D01*
X0086848Y0065300D02*
X0086965Y0105753D01*
X0184130Y0135694D01*
X0184130Y0149965D01*
X0187083Y0152524D01*
X0189543Y0150950D02*
X0191807Y0152426D01*
X0189543Y0150950D02*
X0189543Y0129690D01*
X0108913Y0102800D01*
X0108548Y0065300D01*
X0119448Y0065300D02*
X0119150Y0101225D01*
X0192004Y0126540D01*
X0192004Y0134709D01*
X0201846Y0134611D02*
X0201846Y0115615D01*
X0151950Y0096328D01*
X0152048Y0065300D01*
X0141248Y0065300D02*
X0141248Y0098127D01*
X0199189Y0118568D01*
X0199287Y0150654D01*
X0201846Y0152426D01*
X0204209Y0150654D02*
X0206768Y0152426D01*
X0209228Y0150753D02*
X0211886Y0152426D01*
X0214150Y0150556D02*
X0216807Y0152426D01*
X0214150Y0150556D02*
X0214150Y0100654D01*
X0206448Y0087441D01*
X0206448Y0065300D01*
X0217248Y0065300D02*
X0217248Y0134957D01*
X0216906Y0134808D01*
X0217248Y0133580D01*
X0211689Y0134709D02*
X0211689Y0104296D01*
X0195745Y0089336D01*
X0195548Y0065300D01*
X0184648Y0065300D02*
X0184648Y0091330D01*
X0209425Y0107249D01*
X0209228Y0150753D01*
X0204209Y0150654D02*
X0204406Y0112662D01*
X0162948Y0094433D01*
X0162948Y0065300D01*
X0173848Y0065300D02*
X0173848Y0092735D01*
X0206965Y0110103D01*
X0206768Y0134611D01*
X0194465Y0123883D02*
X0194465Y0149965D01*
X0196925Y0152524D01*
X0194465Y0123883D02*
X0130567Y0099749D01*
X0130348Y0065300D01*
X0134425Y0135694D02*
X0134425Y0139631D01*
X0139346Y0144552D01*
X0139346Y0165221D01*
X0136886Y0168174D01*
D15*
X0039354Y0174170D02*
X0039354Y0028319D01*
X0319063Y0028319D01*
X0319063Y0174170D01*
X0039354Y0174170D01*
X0039354Y0174136D02*
X0319063Y0174136D01*
X0319063Y0171738D02*
X0140663Y0171738D01*
X0141286Y0171114D02*
X0139826Y0172574D01*
X0137918Y0173365D01*
X0135853Y0173365D01*
X0133946Y0172574D01*
X0132485Y0171114D01*
X0131695Y0169206D01*
X0131695Y0167142D01*
X0132485Y0165234D01*
X0133946Y0163774D01*
X0135496Y0163131D01*
X0135496Y0158109D01*
X0133040Y0158109D01*
X0130626Y0157109D01*
X0128778Y0155261D01*
X0127778Y0152847D01*
X0127778Y0150234D01*
X0128778Y0147819D01*
X0130626Y0145972D01*
X0133040Y0144972D01*
X0134321Y0144972D01*
X0131161Y0141812D01*
X0130575Y0140397D01*
X0130575Y0139184D01*
X0130025Y0138634D01*
X0129235Y0136726D01*
X0129235Y0134661D01*
X0130025Y0132753D01*
X0131485Y0131293D01*
X0133393Y0130503D01*
X0135458Y0130503D01*
X0137365Y0131293D01*
X0138826Y0132753D01*
X0139616Y0134661D01*
X0139616Y0136726D01*
X0138839Y0138600D01*
X0141527Y0141288D01*
X0142610Y0142371D01*
X0143196Y0143786D01*
X0143196Y0165047D01*
X0143250Y0165635D01*
X0143196Y0165807D01*
X0143196Y0165987D01*
X0142970Y0166533D01*
X0142794Y0167098D01*
X0142679Y0167236D01*
X0142610Y0167402D01*
X0142192Y0167820D01*
X0142076Y0167959D01*
X0142076Y0169206D01*
X0141286Y0171114D01*
X0142021Y0169339D02*
X0319063Y0169339D01*
X0319063Y0166941D02*
X0305664Y0166941D01*
X0304840Y0167282D02*
X0301215Y0167282D01*
X0297866Y0165895D01*
X0295303Y0163331D01*
X0293916Y0159983D01*
X0293916Y0156358D01*
X0295303Y0153009D01*
X0297866Y0150445D01*
X0301215Y0149058D01*
X0304840Y0149058D01*
X0308189Y0150445D01*
X0310752Y0153009D01*
X0312139Y0156358D01*
X0312139Y0159983D01*
X0310752Y0163331D01*
X0308189Y0165895D01*
X0304840Y0167282D01*
X0300391Y0166941D02*
X0142843Y0166941D01*
X0143196Y0164542D02*
X0296514Y0164542D01*
X0294811Y0162144D02*
X0143196Y0162144D01*
X0143196Y0159745D02*
X0293916Y0159745D01*
X0293916Y0157347D02*
X0227493Y0157347D01*
X0228067Y0157109D02*
X0225653Y0158109D01*
X0223040Y0158109D01*
X0220626Y0157109D01*
X0220045Y0156528D01*
X0219747Y0156826D01*
X0217840Y0157617D01*
X0215775Y0157617D01*
X0214346Y0157025D01*
X0212918Y0157617D01*
X0210853Y0157617D01*
X0209327Y0156984D01*
X0207800Y0157617D01*
X0205735Y0157617D01*
X0204307Y0157025D01*
X0202879Y0157617D01*
X0200814Y0157617D01*
X0199505Y0157074D01*
X0197958Y0157715D01*
X0195893Y0157715D01*
X0194247Y0157033D01*
X0192840Y0157617D01*
X0190775Y0157617D01*
X0189564Y0157115D01*
X0188115Y0157715D01*
X0186050Y0157715D01*
X0184142Y0156925D01*
X0182682Y0155465D01*
X0181892Y0153557D01*
X0181892Y0153172D01*
X0181505Y0152785D01*
X0181030Y0152373D01*
X0180966Y0152246D01*
X0180866Y0152146D01*
X0180626Y0151565D01*
X0180344Y0151004D01*
X0180334Y0150862D01*
X0180280Y0150731D01*
X0180280Y0150103D01*
X0180235Y0149476D01*
X0180280Y0149341D01*
X0180280Y0138536D01*
X0086390Y0109604D01*
X0086210Y0109605D01*
X0085663Y0109380D01*
X0085099Y0109207D01*
X0084960Y0109091D01*
X0084793Y0109023D01*
X0084374Y0108606D01*
X0083919Y0108230D01*
X0083835Y0108070D01*
X0083707Y0107943D01*
X0083479Y0107398D01*
X0083203Y0106876D01*
X0083186Y0106696D01*
X0083117Y0106530D01*
X0083115Y0105939D01*
X0083060Y0105351D01*
X0083113Y0105178D01*
X0083046Y0081900D01*
X0078714Y0081900D01*
X0074848Y0078034D01*
X0074848Y0072566D01*
X0078714Y0068700D01*
X0080914Y0068700D01*
X0080248Y0068034D01*
X0080248Y0062566D01*
X0084114Y0058700D01*
X0089582Y0058700D01*
X0092298Y0061416D01*
X0095014Y0058700D01*
X0100482Y0058700D01*
X0103148Y0061366D01*
X0105814Y0058700D01*
X0111282Y0058700D01*
X0113998Y0061416D01*
X0116714Y0058700D01*
X0122182Y0058700D01*
X0124898Y0061416D01*
X0127614Y0058700D01*
X0133082Y0058700D01*
X0135798Y0061416D01*
X0138514Y0058700D01*
X0143982Y0058700D01*
X0146648Y0061366D01*
X0149314Y0058700D01*
X0154782Y0058700D01*
X0157498Y0061416D01*
X0160214Y0058700D01*
X0165682Y0058700D01*
X0168398Y0061416D01*
X0171114Y0058700D01*
X0176582Y0058700D01*
X0179248Y0061366D01*
X0181914Y0058700D01*
X0187382Y0058700D01*
X0190098Y0061416D01*
X0192814Y0058700D01*
X0198282Y0058700D01*
X0200998Y0061416D01*
X0203714Y0058700D01*
X0209182Y0058700D01*
X0211848Y0061366D01*
X0214514Y0058700D01*
X0219982Y0058700D01*
X0222698Y0061416D01*
X0225414Y0058700D01*
X0230882Y0058700D01*
X0233598Y0061416D01*
X0236314Y0058700D01*
X0241782Y0058700D01*
X0244448Y0061366D01*
X0247114Y0058700D01*
X0252582Y0058700D01*
X0255298Y0061416D01*
X0258014Y0058700D01*
X0263482Y0058700D01*
X0266198Y0061416D01*
X0268914Y0058700D01*
X0274382Y0058700D01*
X0278248Y0062566D01*
X0278248Y0068034D01*
X0277582Y0068700D01*
X0279782Y0068700D01*
X0283648Y0072566D01*
X0283648Y0078034D01*
X0279782Y0081900D01*
X0274314Y0081900D01*
X0271598Y0079184D01*
X0268882Y0081900D01*
X0263414Y0081900D01*
X0260748Y0079234D01*
X0258082Y0081900D01*
X0252614Y0081900D01*
X0249898Y0079184D01*
X0247182Y0081900D01*
X0241714Y0081900D01*
X0238998Y0079184D01*
X0236282Y0081900D01*
X0230814Y0081900D01*
X0228148Y0079234D01*
X0225482Y0081900D01*
X0221098Y0081900D01*
X0221098Y0131660D01*
X0221306Y0131868D01*
X0222096Y0133775D01*
X0222096Y0135840D01*
X0221306Y0137748D01*
X0219846Y0139208D01*
X0218000Y0139973D01*
X0218000Y0147302D01*
X0218916Y0147681D01*
X0220626Y0145972D01*
X0223040Y0144972D01*
X0225653Y0144972D01*
X0228067Y0145972D01*
X0229915Y0147819D01*
X0230915Y0150234D01*
X0230915Y0152847D01*
X0229915Y0155261D01*
X0228067Y0157109D01*
X0230045Y0154948D02*
X0294500Y0154948D01*
X0295762Y0152550D02*
X0230915Y0152550D01*
X0230881Y0150151D02*
X0298577Y0150151D01*
X0307478Y0150151D02*
X0319063Y0150151D01*
X0319063Y0147753D02*
X0229848Y0147753D01*
X0226576Y0145354D02*
X0319063Y0145354D01*
X0319063Y0142956D02*
X0218000Y0142956D01*
X0218000Y0145354D02*
X0222117Y0145354D01*
X0218000Y0140557D02*
X0319063Y0140557D01*
X0319063Y0138159D02*
X0220895Y0138159D01*
X0222096Y0135760D02*
X0319063Y0135760D01*
X0319063Y0133362D02*
X0221925Y0133362D01*
X0221098Y0130963D02*
X0319063Y0130963D01*
X0319063Y0128565D02*
X0221098Y0128565D01*
X0221098Y0126166D02*
X0319063Y0126166D01*
X0319063Y0123768D02*
X0221098Y0123768D01*
X0221098Y0121369D02*
X0319063Y0121369D01*
X0319063Y0118970D02*
X0221098Y0118970D01*
X0221098Y0116572D02*
X0319063Y0116572D01*
X0319063Y0114173D02*
X0221098Y0114173D01*
X0221098Y0111775D02*
X0319063Y0111775D01*
X0319063Y0109376D02*
X0221098Y0109376D01*
X0221098Y0106978D02*
X0319063Y0106978D01*
X0319063Y0104579D02*
X0221098Y0104579D01*
X0221098Y0102181D02*
X0319063Y0102181D01*
X0319063Y0099782D02*
X0221098Y0099782D01*
X0221098Y0097384D02*
X0319063Y0097384D01*
X0319063Y0094985D02*
X0221098Y0094985D01*
X0221098Y0092587D02*
X0319063Y0092587D01*
X0319063Y0090188D02*
X0221098Y0090188D01*
X0221098Y0087790D02*
X0319063Y0087790D01*
X0319063Y0085391D02*
X0221098Y0085391D01*
X0221098Y0082993D02*
X0299072Y0082993D01*
X0298999Y0082973D02*
X0295897Y0081183D01*
X0293365Y0078651D01*
X0291575Y0075549D01*
X0290648Y0072090D01*
X0290648Y0068510D01*
X0291575Y0065051D01*
X0293365Y0061949D01*
X0295897Y0059417D01*
X0298999Y0057627D01*
X0302458Y0056700D01*
X0306039Y0056700D01*
X0309497Y0057627D01*
X0312599Y0059417D01*
X0315131Y0061949D01*
X0316921Y0065051D01*
X0317848Y0068510D01*
X0317848Y0072090D01*
X0316921Y0075549D01*
X0315131Y0078651D01*
X0312599Y0081183D01*
X0309497Y0082973D01*
X0306039Y0083900D01*
X0302458Y0083900D01*
X0298999Y0082973D01*
X0295309Y0080594D02*
X0281088Y0080594D01*
X0283486Y0078196D02*
X0293103Y0078196D01*
X0291718Y0075797D02*
X0283648Y0075797D01*
X0283648Y0073399D02*
X0290999Y0073399D01*
X0290648Y0071000D02*
X0282082Y0071000D01*
X0277680Y0068602D02*
X0290648Y0068602D01*
X0291266Y0066203D02*
X0278248Y0066203D01*
X0278248Y0063805D02*
X0292294Y0063805D01*
X0293909Y0061406D02*
X0277088Y0061406D01*
X0274690Y0059008D02*
X0296607Y0059008D01*
X0311889Y0059008D02*
X0319063Y0059008D01*
X0319063Y0061406D02*
X0314588Y0061406D01*
X0316202Y0063805D02*
X0319063Y0063805D01*
X0319063Y0066203D02*
X0317230Y0066203D01*
X0317848Y0068602D02*
X0319063Y0068602D01*
X0319063Y0071000D02*
X0317848Y0071000D01*
X0317497Y0073399D02*
X0319063Y0073399D01*
X0319063Y0075797D02*
X0316778Y0075797D01*
X0315393Y0078196D02*
X0319063Y0078196D01*
X0319063Y0080594D02*
X0313187Y0080594D01*
X0309424Y0082993D02*
X0319063Y0082993D01*
X0319063Y0056609D02*
X0039354Y0056609D01*
X0039354Y0054211D02*
X0319063Y0054211D01*
X0319063Y0051812D02*
X0039354Y0051812D01*
X0039354Y0049414D02*
X0319063Y0049414D01*
X0319063Y0047015D02*
X0039354Y0047015D01*
X0039354Y0044617D02*
X0319063Y0044617D01*
X0319063Y0042218D02*
X0039354Y0042218D01*
X0039354Y0039820D02*
X0319063Y0039820D01*
X0319063Y0037421D02*
X0039354Y0037421D01*
X0039354Y0035023D02*
X0319063Y0035023D01*
X0319063Y0032624D02*
X0039354Y0032624D01*
X0039354Y0030226D02*
X0319063Y0030226D01*
X0268607Y0059008D02*
X0263790Y0059008D01*
X0266188Y0061406D02*
X0266208Y0061406D01*
X0257707Y0059008D02*
X0252890Y0059008D01*
X0255288Y0061406D02*
X0255308Y0061406D01*
X0246807Y0059008D02*
X0242090Y0059008D01*
X0236007Y0059008D02*
X0231190Y0059008D01*
X0233588Y0061406D02*
X0233608Y0061406D01*
X0225107Y0059008D02*
X0220290Y0059008D01*
X0222688Y0061406D02*
X0222708Y0061406D01*
X0214207Y0059008D02*
X0209490Y0059008D01*
X0203407Y0059008D02*
X0198590Y0059008D01*
X0200988Y0061406D02*
X0201008Y0061406D01*
X0192507Y0059008D02*
X0187690Y0059008D01*
X0190088Y0061406D02*
X0190108Y0061406D01*
X0181607Y0059008D02*
X0176890Y0059008D01*
X0170807Y0059008D02*
X0165990Y0059008D01*
X0168388Y0061406D02*
X0168408Y0061406D01*
X0159907Y0059008D02*
X0155090Y0059008D01*
X0157488Y0061406D02*
X0157508Y0061406D01*
X0149007Y0059008D02*
X0144290Y0059008D01*
X0138207Y0059008D02*
X0133390Y0059008D01*
X0135788Y0061406D02*
X0135808Y0061406D01*
X0127307Y0059008D02*
X0122490Y0059008D01*
X0124888Y0061406D02*
X0124908Y0061406D01*
X0116407Y0059008D02*
X0111590Y0059008D01*
X0113988Y0061406D02*
X0114008Y0061406D01*
X0105507Y0059008D02*
X0100790Y0059008D01*
X0094707Y0059008D02*
X0089890Y0059008D01*
X0092288Y0061406D02*
X0092308Y0061406D01*
X0083807Y0059008D02*
X0061889Y0059008D01*
X0062599Y0059417D02*
X0059497Y0057627D01*
X0056039Y0056700D01*
X0052458Y0056700D01*
X0048999Y0057627D01*
X0045897Y0059417D01*
X0043365Y0061949D01*
X0041575Y0065051D01*
X0040648Y0068510D01*
X0040648Y0072090D01*
X0041575Y0075549D01*
X0043365Y0078651D01*
X0045897Y0081183D01*
X0048999Y0082973D01*
X0052458Y0083900D01*
X0056039Y0083900D01*
X0059497Y0082973D01*
X0062599Y0081183D01*
X0065131Y0078651D01*
X0066921Y0075549D01*
X0067848Y0072090D01*
X0067848Y0068510D01*
X0066921Y0065051D01*
X0065131Y0061949D01*
X0062599Y0059417D01*
X0064588Y0061406D02*
X0081408Y0061406D01*
X0080248Y0063805D02*
X0066202Y0063805D01*
X0067230Y0066203D02*
X0080248Y0066203D01*
X0080816Y0068602D02*
X0067848Y0068602D01*
X0067848Y0071000D02*
X0076414Y0071000D01*
X0074848Y0073399D02*
X0067497Y0073399D01*
X0066778Y0075797D02*
X0074848Y0075797D01*
X0075010Y0078196D02*
X0065393Y0078196D01*
X0063187Y0080594D02*
X0077409Y0080594D01*
X0083049Y0082993D02*
X0059424Y0082993D01*
X0049072Y0082993D02*
X0039354Y0082993D01*
X0039354Y0085391D02*
X0083056Y0085391D01*
X0083063Y0087790D02*
X0039354Y0087790D01*
X0039354Y0090188D02*
X0083070Y0090188D01*
X0083077Y0092587D02*
X0039354Y0092587D01*
X0039354Y0094985D02*
X0083084Y0094985D01*
X0083090Y0097384D02*
X0039354Y0097384D01*
X0039354Y0099782D02*
X0083097Y0099782D01*
X0083104Y0102181D02*
X0039354Y0102181D01*
X0039354Y0104579D02*
X0083111Y0104579D01*
X0083257Y0106978D02*
X0039354Y0106978D01*
X0039354Y0109376D02*
X0085650Y0109376D01*
X0093434Y0111775D02*
X0039354Y0111775D01*
X0039354Y0114173D02*
X0101218Y0114173D01*
X0109002Y0116572D02*
X0039354Y0116572D01*
X0039354Y0118970D02*
X0116785Y0118970D01*
X0124569Y0121369D02*
X0039354Y0121369D01*
X0039354Y0123768D02*
X0132353Y0123768D01*
X0140137Y0126166D02*
X0039354Y0126166D01*
X0039354Y0128565D02*
X0147920Y0128565D01*
X0155704Y0130963D02*
X0136568Y0130963D01*
X0139077Y0133362D02*
X0163488Y0133362D01*
X0171271Y0135760D02*
X0139616Y0135760D01*
X0139022Y0138159D02*
X0179055Y0138159D01*
X0180280Y0140557D02*
X0140796Y0140557D01*
X0142852Y0142956D02*
X0180280Y0142956D01*
X0180280Y0145354D02*
X0143196Y0145354D01*
X0143196Y0147753D02*
X0180280Y0147753D01*
X0180280Y0150151D02*
X0143196Y0150151D01*
X0143196Y0152550D02*
X0181233Y0152550D01*
X0182468Y0154948D02*
X0143196Y0154948D01*
X0143196Y0157347D02*
X0185161Y0157347D01*
X0189004Y0157347D02*
X0190123Y0157347D01*
X0193491Y0157347D02*
X0195004Y0157347D01*
X0198847Y0157347D02*
X0200162Y0157347D01*
X0203530Y0157347D02*
X0205084Y0157347D01*
X0208452Y0157347D02*
X0210202Y0157347D01*
X0213570Y0157347D02*
X0215123Y0157347D01*
X0218491Y0157347D02*
X0221200Y0157347D01*
X0135496Y0159745D02*
X0064596Y0159745D01*
X0064596Y0159967D02*
X0063209Y0163316D01*
X0060646Y0165879D01*
X0057297Y0167266D01*
X0053672Y0167266D01*
X0050323Y0165879D01*
X0047760Y0163316D01*
X0046372Y0159967D01*
X0046372Y0156342D01*
X0047760Y0152993D01*
X0050323Y0150430D01*
X0053672Y0149043D01*
X0057297Y0149043D01*
X0060646Y0150430D01*
X0063209Y0152993D01*
X0064596Y0156342D01*
X0064596Y0159967D01*
X0063694Y0162144D02*
X0135496Y0162144D01*
X0133177Y0164542D02*
X0061982Y0164542D01*
X0058082Y0166941D02*
X0131778Y0166941D01*
X0131750Y0169339D02*
X0039354Y0169339D01*
X0039354Y0166941D02*
X0052886Y0166941D01*
X0048986Y0164542D02*
X0039354Y0164542D01*
X0039354Y0162144D02*
X0047274Y0162144D01*
X0046372Y0159745D02*
X0039354Y0159745D01*
X0039354Y0157347D02*
X0046372Y0157347D01*
X0046950Y0154948D02*
X0039354Y0154948D01*
X0039354Y0152550D02*
X0048203Y0152550D01*
X0050995Y0150151D02*
X0039354Y0150151D01*
X0039354Y0147753D02*
X0128845Y0147753D01*
X0127812Y0150151D02*
X0059973Y0150151D01*
X0062766Y0152550D02*
X0127778Y0152550D01*
X0128648Y0154948D02*
X0064019Y0154948D01*
X0064596Y0157347D02*
X0131200Y0157347D01*
X0132117Y0145354D02*
X0039354Y0145354D01*
X0039354Y0142956D02*
X0132305Y0142956D01*
X0130642Y0140557D02*
X0039354Y0140557D01*
X0039354Y0138159D02*
X0129828Y0138159D01*
X0129235Y0135760D02*
X0039354Y0135760D01*
X0039354Y0133362D02*
X0129773Y0133362D01*
X0132282Y0130963D02*
X0039354Y0130963D01*
X0090806Y0102908D02*
X0094113Y0103927D01*
X0094089Y0103630D01*
X0094134Y0103487D01*
X0094001Y0081900D01*
X0090746Y0081900D01*
X0090806Y0102908D01*
X0090804Y0102181D02*
X0094126Y0102181D01*
X0094112Y0099782D02*
X0090797Y0099782D01*
X0090790Y0097384D02*
X0094097Y0097384D01*
X0094082Y0094985D02*
X0090784Y0094985D01*
X0090777Y0092587D02*
X0094067Y0092587D01*
X0094052Y0090188D02*
X0090770Y0090188D01*
X0090763Y0087790D02*
X0094037Y0087790D01*
X0094022Y0085391D02*
X0090756Y0085391D01*
X0090749Y0082993D02*
X0094008Y0082993D01*
X0101708Y0082993D02*
X0104870Y0082993D01*
X0104860Y0081900D02*
X0101701Y0081900D01*
X0101821Y0101268D01*
X0105022Y0102298D01*
X0105057Y0102193D01*
X0104860Y0081900D01*
X0104894Y0085391D02*
X0101723Y0085391D01*
X0101737Y0087790D02*
X0104917Y0087790D01*
X0104940Y0090188D02*
X0101752Y0090188D01*
X0101767Y0092587D02*
X0104964Y0092587D01*
X0104987Y0094985D02*
X0101782Y0094985D01*
X0101797Y0097384D02*
X0105010Y0097384D01*
X0105034Y0099782D02*
X0101812Y0099782D01*
X0104658Y0102181D02*
X0105057Y0102181D01*
X0112736Y0100017D02*
X0115272Y0100862D01*
X0115262Y0100685D01*
X0115305Y0100560D01*
X0115460Y0081900D01*
X0112560Y0081900D01*
X0112736Y0100017D01*
X0112734Y0099782D02*
X0115311Y0099782D01*
X0115331Y0097384D02*
X0112711Y0097384D01*
X0112687Y0094985D02*
X0115351Y0094985D01*
X0115371Y0092587D02*
X0112664Y0092587D01*
X0112641Y0090188D02*
X0115391Y0090188D01*
X0115411Y0087790D02*
X0112617Y0087790D01*
X0112594Y0085391D02*
X0115431Y0085391D01*
X0115451Y0082993D02*
X0112571Y0082993D01*
X0123151Y0082993D02*
X0126610Y0082993D01*
X0126603Y0081900D02*
X0123160Y0081900D01*
X0123022Y0098495D01*
X0126716Y0099779D01*
X0126695Y0099105D01*
X0126712Y0099058D01*
X0126603Y0081900D01*
X0126626Y0085391D02*
X0123131Y0085391D01*
X0123111Y0087790D02*
X0126641Y0087790D01*
X0126656Y0090188D02*
X0123091Y0090188D01*
X0123071Y0092587D02*
X0126671Y0092587D01*
X0126687Y0094985D02*
X0123052Y0094985D01*
X0123032Y0097384D02*
X0126702Y0097384D01*
X0134400Y0097081D02*
X0137397Y0098213D01*
X0137363Y0097568D01*
X0137398Y0097468D01*
X0137398Y0081900D01*
X0134304Y0081900D01*
X0134400Y0097081D01*
X0135202Y0097384D02*
X0137398Y0097384D01*
X0137398Y0094985D02*
X0134387Y0094985D01*
X0134371Y0092587D02*
X0137398Y0092587D01*
X0137398Y0090188D02*
X0134356Y0090188D01*
X0134341Y0087790D02*
X0137398Y0087790D01*
X0137398Y0085391D02*
X0134326Y0085391D01*
X0134311Y0082993D02*
X0137398Y0082993D01*
X0145098Y0082993D02*
X0148142Y0082993D01*
X0148145Y0081900D02*
X0145098Y0081900D01*
X0145098Y0095402D01*
X0148099Y0096461D01*
X0148099Y0096368D01*
X0148082Y0095655D01*
X0148102Y0095604D01*
X0148145Y0081900D01*
X0148134Y0085391D02*
X0145098Y0085391D01*
X0145098Y0087790D02*
X0148127Y0087790D01*
X0148119Y0090188D02*
X0145098Y0090188D01*
X0145098Y0092587D02*
X0148111Y0092587D01*
X0148104Y0094985D02*
X0145098Y0094985D01*
X0155808Y0093692D02*
X0159086Y0094959D01*
X0159098Y0094392D01*
X0159098Y0081900D01*
X0155845Y0081900D01*
X0155808Y0093692D01*
X0155811Y0092587D02*
X0159098Y0092587D01*
X0159098Y0090188D02*
X0155819Y0090188D01*
X0155827Y0087790D02*
X0159098Y0087790D01*
X0159098Y0085391D02*
X0155834Y0085391D01*
X0155842Y0082993D02*
X0159098Y0082993D01*
X0166798Y0082993D02*
X0169998Y0082993D01*
X0169998Y0081900D02*
X0166798Y0081900D01*
X0166798Y0091920D01*
X0169998Y0093327D01*
X0169998Y0093321D01*
X0169945Y0093150D01*
X0169998Y0092561D01*
X0169998Y0081900D01*
X0169998Y0085391D02*
X0166798Y0085391D01*
X0166798Y0087790D02*
X0169998Y0087790D01*
X0169998Y0090188D02*
X0166798Y0090188D01*
X0168314Y0092587D02*
X0169996Y0092587D01*
X0177698Y0090406D02*
X0180798Y0092032D01*
X0180798Y0091744D01*
X0180723Y0091400D01*
X0180798Y0090986D01*
X0180798Y0081900D01*
X0177698Y0081900D01*
X0177698Y0090406D01*
X0177698Y0090188D02*
X0180798Y0090188D01*
X0180798Y0087790D02*
X0177698Y0087790D01*
X0177698Y0085391D02*
X0180798Y0085391D01*
X0180798Y0082993D02*
X0177698Y0082993D01*
X0188498Y0082993D02*
X0191843Y0082993D01*
X0191834Y0081900D02*
X0188498Y0081900D01*
X0188498Y0089227D01*
X0193244Y0092276D01*
X0193078Y0092113D01*
X0192552Y0091620D01*
X0192533Y0091577D01*
X0192499Y0091544D01*
X0192218Y0090881D01*
X0191921Y0090224D01*
X0191920Y0090177D01*
X0191901Y0090134D01*
X0191895Y0089413D01*
X0191872Y0088693D01*
X0191889Y0088649D01*
X0191834Y0081900D01*
X0191862Y0085391D02*
X0188498Y0085391D01*
X0188498Y0087790D02*
X0191882Y0087790D01*
X0191920Y0090188D02*
X0189994Y0090188D01*
X0199581Y0087656D02*
X0205178Y0092908D01*
X0203373Y0089811D01*
X0203184Y0089622D01*
X0202991Y0089155D01*
X0202736Y0088718D01*
X0202700Y0088453D01*
X0202598Y0088207D01*
X0202598Y0087701D01*
X0202530Y0087200D01*
X0202598Y0086942D01*
X0202598Y0081900D01*
X0199534Y0081900D01*
X0199581Y0087656D01*
X0199723Y0087790D02*
X0202598Y0087790D01*
X0202598Y0085391D02*
X0199563Y0085391D01*
X0199543Y0082993D02*
X0202598Y0082993D01*
X0202280Y0090188D02*
X0203593Y0090188D01*
X0204836Y0092587D02*
X0204991Y0092587D01*
X0211108Y0087790D02*
X0213398Y0087790D01*
X0213398Y0090188D02*
X0212506Y0090188D01*
X0213398Y0091719D02*
X0213398Y0081900D01*
X0210298Y0081900D01*
X0210298Y0086401D01*
X0213398Y0091719D01*
X0213398Y0085391D02*
X0210298Y0085391D01*
X0210298Y0082993D02*
X0213398Y0082993D01*
X0226788Y0080594D02*
X0229509Y0080594D01*
X0237588Y0080594D02*
X0240409Y0080594D01*
X0248488Y0080594D02*
X0251309Y0080594D01*
X0259388Y0080594D02*
X0262109Y0080594D01*
X0270188Y0080594D02*
X0273009Y0080594D01*
X0310293Y0152550D02*
X0319063Y0152550D01*
X0319063Y0154948D02*
X0311556Y0154948D01*
X0312139Y0157347D02*
X0319063Y0157347D01*
X0319063Y0159745D02*
X0312139Y0159745D01*
X0311244Y0162144D02*
X0319063Y0162144D01*
X0319063Y0164542D02*
X0309541Y0164542D01*
X0133109Y0171738D02*
X0039354Y0171738D01*
X0039354Y0080594D02*
X0045309Y0080594D01*
X0043103Y0078196D02*
X0039354Y0078196D01*
X0039354Y0075797D02*
X0041718Y0075797D01*
X0040999Y0073399D02*
X0039354Y0073399D01*
X0039354Y0071000D02*
X0040648Y0071000D01*
X0040648Y0068602D02*
X0039354Y0068602D01*
X0039354Y0066203D02*
X0041266Y0066203D01*
X0042294Y0063805D02*
X0039354Y0063805D01*
X0039354Y0061406D02*
X0043909Y0061406D01*
X0046607Y0059008D02*
X0039354Y0059008D01*
M02*
