G75*
%MOIN*%
%OFA0B0*%
%FSLAX25Y25*%
%IPPOS*%
%LPD*%
%AMOC8*
5,1,8,0,0,1.08239X$1,22.5*
%
%ADD10R,0.03937X0.11417*%
%ADD11C,0.01000*%
%ADD12C,0.03569*%
D10*
X0011028Y0015476D03*
X0016028Y0015476D03*
X0021028Y0015476D03*
X0026028Y0015476D03*
X0031028Y0015476D03*
X0036028Y0015476D03*
X0041028Y0015476D03*
X0046028Y0015476D03*
X0051028Y0015476D03*
X0056028Y0015476D03*
X0061028Y0015476D03*
X0066028Y0015476D03*
X0071028Y0015476D03*
X0076028Y0015476D03*
X0081028Y0015476D03*
X0086028Y0015476D03*
X0091028Y0015476D03*
X0096028Y0015476D03*
X0101028Y0015476D03*
X0106028Y0015476D03*
X0106028Y0039098D03*
X0101028Y0039098D03*
X0096028Y0039098D03*
X0091028Y0039098D03*
X0086028Y0039098D03*
X0081028Y0039098D03*
X0076028Y0039098D03*
X0071028Y0039098D03*
X0066028Y0039098D03*
X0061028Y0039098D03*
X0056028Y0039098D03*
X0051028Y0039098D03*
X0046028Y0039098D03*
X0041028Y0039098D03*
X0036028Y0039098D03*
X0031028Y0039098D03*
X0026028Y0039098D03*
X0021028Y0039098D03*
X0016028Y0039098D03*
X0011028Y0039098D03*
X0011028Y0062720D03*
X0016028Y0062720D03*
X0021028Y0062720D03*
X0026028Y0062720D03*
X0031028Y0062720D03*
X0036028Y0062720D03*
X0041028Y0062720D03*
X0046028Y0062720D03*
X0051028Y0062720D03*
X0056028Y0062720D03*
X0061028Y0062720D03*
X0066028Y0062720D03*
X0071028Y0062720D03*
X0076028Y0062720D03*
X0081028Y0062720D03*
X0086028Y0062720D03*
X0091028Y0062720D03*
X0096028Y0062720D03*
X0101028Y0062720D03*
X0106028Y0062720D03*
D11*
X0001500Y0076303D02*
X0001500Y0001500D01*
X0115673Y0001500D01*
X0115673Y0076303D01*
X0001500Y0076303D01*
X0006500Y0071303D02*
X0110673Y0071303D01*
X0110673Y0006500D01*
X0006500Y0006500D01*
X0006500Y0071303D01*
X0006500Y0070511D02*
X0110673Y0070511D01*
X0110673Y0069513D02*
X0108751Y0069513D01*
X0108535Y0069729D02*
X0008521Y0069729D01*
X0007759Y0068968D01*
X0007759Y0056473D01*
X0008521Y0055712D01*
X0028535Y0055712D01*
X0033521Y0055712D01*
X0108535Y0055712D01*
X0109296Y0056473D01*
X0109296Y0068968D01*
X0108535Y0069729D01*
X0109296Y0068514D02*
X0110673Y0068514D01*
X0110673Y0067516D02*
X0109296Y0067516D01*
X0109296Y0066517D02*
X0110673Y0066517D01*
X0110673Y0065519D02*
X0109296Y0065519D01*
X0109296Y0064520D02*
X0110673Y0064520D01*
X0110673Y0063522D02*
X0109296Y0063522D01*
X0109296Y0062523D02*
X0110673Y0062523D01*
X0110673Y0061525D02*
X0109296Y0061525D01*
X0109296Y0060526D02*
X0110673Y0060526D01*
X0110673Y0059528D02*
X0109296Y0059528D01*
X0109296Y0058529D02*
X0110673Y0058529D01*
X0110673Y0057531D02*
X0109296Y0057531D01*
X0109296Y0056532D02*
X0110673Y0056532D01*
X0110673Y0055534D02*
X0006500Y0055534D01*
X0006500Y0056532D02*
X0007759Y0056532D01*
X0007759Y0057531D02*
X0006500Y0057531D01*
X0006500Y0058529D02*
X0007759Y0058529D01*
X0007759Y0059528D02*
X0006500Y0059528D01*
X0006500Y0060526D02*
X0007759Y0060526D01*
X0007759Y0061525D02*
X0006500Y0061525D01*
X0006500Y0062523D02*
X0007759Y0062523D01*
X0007759Y0063522D02*
X0006500Y0063522D01*
X0006500Y0064520D02*
X0007759Y0064520D01*
X0007759Y0065519D02*
X0006500Y0065519D01*
X0006500Y0066517D02*
X0007759Y0066517D01*
X0007759Y0067516D02*
X0006500Y0067516D01*
X0006500Y0068514D02*
X0007759Y0068514D01*
X0008304Y0069513D02*
X0006500Y0069513D01*
X0006500Y0054535D02*
X0110673Y0054535D01*
X0110673Y0053537D02*
X0006500Y0053537D01*
X0006500Y0052538D02*
X0110673Y0052538D01*
X0110673Y0051540D02*
X0006500Y0051540D01*
X0006500Y0050541D02*
X0110673Y0050541D01*
X0110673Y0049543D02*
X0006500Y0049543D01*
X0006500Y0048544D02*
X0110673Y0048544D01*
X0110673Y0047546D02*
X0006500Y0047546D01*
X0006500Y0046547D02*
X0110673Y0046547D01*
X0110673Y0045549D02*
X0109093Y0045549D01*
X0109296Y0045346D02*
X0108535Y0046107D01*
X0008521Y0046107D01*
X0007759Y0045346D01*
X0007759Y0032851D01*
X0008521Y0032090D01*
X0028535Y0032090D01*
X0033521Y0032090D01*
X0108535Y0032090D01*
X0109296Y0032851D01*
X0109296Y0045346D01*
X0109296Y0044550D02*
X0110673Y0044550D01*
X0110673Y0043552D02*
X0109296Y0043552D01*
X0109296Y0042553D02*
X0110673Y0042553D01*
X0110673Y0041555D02*
X0109296Y0041555D01*
X0109296Y0040556D02*
X0110673Y0040556D01*
X0110673Y0039558D02*
X0109296Y0039558D01*
X0109296Y0038559D02*
X0110673Y0038559D01*
X0110673Y0037560D02*
X0109296Y0037560D01*
X0109296Y0036562D02*
X0110673Y0036562D01*
X0110673Y0035563D02*
X0109296Y0035563D01*
X0109296Y0034565D02*
X0110673Y0034565D01*
X0110673Y0033566D02*
X0109296Y0033566D01*
X0109013Y0032568D02*
X0110673Y0032568D01*
X0110673Y0031569D02*
X0006500Y0031569D01*
X0006500Y0030571D02*
X0110673Y0030571D01*
X0110673Y0029572D02*
X0006500Y0029572D01*
X0006500Y0028574D02*
X0110673Y0028574D01*
X0110673Y0027575D02*
X0006500Y0027575D01*
X0006500Y0026577D02*
X0110673Y0026577D01*
X0110673Y0025578D02*
X0006500Y0025578D01*
X0006500Y0024580D02*
X0110673Y0024580D01*
X0110673Y0023581D02*
X0006500Y0023581D01*
X0006500Y0022583D02*
X0110673Y0022583D01*
X0110673Y0021584D02*
X0109296Y0021584D01*
X0109296Y0021724D02*
X0108535Y0022485D01*
X0008521Y0022485D01*
X0007759Y0021724D01*
X0007759Y0009229D01*
X0008521Y0008468D01*
X0028535Y0008468D01*
X0033521Y0008468D01*
X0108535Y0008468D01*
X0109296Y0009229D01*
X0109296Y0021724D01*
X0109296Y0020586D02*
X0110673Y0020586D01*
X0110673Y0019587D02*
X0109296Y0019587D01*
X0109296Y0018589D02*
X0110673Y0018589D01*
X0110673Y0017590D02*
X0109296Y0017590D01*
X0109296Y0016592D02*
X0110673Y0016592D01*
X0110673Y0015593D02*
X0109296Y0015593D01*
X0109296Y0014595D02*
X0110673Y0014595D01*
X0110673Y0013596D02*
X0109296Y0013596D01*
X0109296Y0012598D02*
X0110673Y0012598D01*
X0110673Y0011599D02*
X0109296Y0011599D01*
X0109296Y0010601D02*
X0110673Y0010601D01*
X0110673Y0009602D02*
X0109296Y0009602D01*
X0108670Y0008604D02*
X0110673Y0008604D01*
X0110673Y0007605D02*
X0006500Y0007605D01*
X0006500Y0006607D02*
X0110673Y0006607D01*
X0008385Y0008604D02*
X0006500Y0008604D01*
X0006500Y0009602D02*
X0007759Y0009602D01*
X0007759Y0010601D02*
X0006500Y0010601D01*
X0006500Y0011599D02*
X0007759Y0011599D01*
X0007759Y0012598D02*
X0006500Y0012598D01*
X0006500Y0013596D02*
X0007759Y0013596D01*
X0007759Y0014595D02*
X0006500Y0014595D01*
X0006500Y0015593D02*
X0007759Y0015593D01*
X0007759Y0016592D02*
X0006500Y0016592D01*
X0006500Y0017590D02*
X0007759Y0017590D01*
X0007759Y0018589D02*
X0006500Y0018589D01*
X0006500Y0019587D02*
X0007759Y0019587D01*
X0007759Y0020586D02*
X0006500Y0020586D01*
X0006500Y0021584D02*
X0007759Y0021584D01*
X0008042Y0032568D02*
X0006500Y0032568D01*
X0006500Y0033566D02*
X0007759Y0033566D01*
X0007759Y0034565D02*
X0006500Y0034565D01*
X0006500Y0035563D02*
X0007759Y0035563D01*
X0007759Y0036562D02*
X0006500Y0036562D01*
X0006500Y0037560D02*
X0007759Y0037560D01*
X0007759Y0038559D02*
X0006500Y0038559D01*
X0006500Y0039558D02*
X0007759Y0039558D01*
X0007759Y0040556D02*
X0006500Y0040556D01*
X0006500Y0041555D02*
X0007759Y0041555D01*
X0007759Y0042553D02*
X0006500Y0042553D01*
X0006500Y0043552D02*
X0007759Y0043552D01*
X0007759Y0044550D02*
X0006500Y0044550D01*
X0006500Y0045549D02*
X0007962Y0045549D01*
D12*
X0011028Y0039098D03*
X0016028Y0039098D03*
X0021028Y0039098D03*
X0026028Y0039098D03*
X0031028Y0039098D03*
X0036028Y0039098D03*
X0041028Y0039098D03*
X0046028Y0039098D03*
X0051028Y0039098D03*
X0056028Y0039098D03*
X0061028Y0039098D03*
X0066028Y0039098D03*
X0071028Y0039098D03*
X0076028Y0039098D03*
X0081028Y0039098D03*
X0086028Y0039098D03*
X0091028Y0039098D03*
X0096028Y0039098D03*
X0101028Y0039098D03*
X0106028Y0039098D03*
X0106028Y0062720D03*
X0101028Y0062720D03*
X0096028Y0062720D03*
X0091028Y0062720D03*
X0086028Y0062720D03*
X0081028Y0062720D03*
X0076028Y0062720D03*
X0071028Y0062720D03*
X0066028Y0062720D03*
X0061028Y0062720D03*
X0056028Y0062720D03*
X0051028Y0062720D03*
X0046028Y0062720D03*
X0041028Y0062720D03*
X0036028Y0062720D03*
X0031028Y0062720D03*
X0026028Y0062720D03*
X0021028Y0062720D03*
X0016028Y0062720D03*
X0011028Y0062720D03*
X0011028Y0015476D03*
X0016028Y0015476D03*
X0021028Y0015476D03*
X0026028Y0015476D03*
X0031028Y0015476D03*
X0036028Y0015476D03*
X0041028Y0015476D03*
X0046028Y0015476D03*
X0051028Y0015476D03*
X0056028Y0015476D03*
X0061028Y0015476D03*
X0066028Y0015476D03*
X0071028Y0015476D03*
X0076028Y0015476D03*
X0081028Y0015476D03*
X0086028Y0015476D03*
X0091028Y0015476D03*
X0096028Y0015476D03*
X0101028Y0015476D03*
X0106028Y0015476D03*
M02*
