G75*
%MOIN*%
%OFA0B0*%
%FSLAX25Y25*%
%IPPOS*%
%LPD*%
%AMOC8*
5,1,8,0,0,1.08239X$1,22.5*
%
%ADD10C,0.05543*%
%ADD11C,0.05937*%
%ADD12R,0.05150X0.05150*%
%ADD13C,0.00787*%
%ADD14C,0.03575*%
%ADD15C,0.03969*%
%ADD16C,0.00800*%
%ADD17C,0.01600*%
%ADD18R,0.03969X0.03969*%
D10*
X0112120Y0031828D03*
X0119994Y0031828D03*
D11*
X0090057Y0031859D02*
X0090057Y0037796D01*
X0080057Y0037796D02*
X0080057Y0031859D01*
X0070057Y0031859D02*
X0070057Y0037796D01*
D12*
X0099057Y0048828D03*
X0177057Y0048828D03*
D13*
X0116297Y0095896D02*
X0109057Y0095896D01*
X0097960Y0095896D01*
X0093177Y0091113D01*
D14*
X0093177Y0091113D03*
X0097960Y0095896D03*
X0116297Y0095896D03*
D15*
X0117057Y0085828D03*
D16*
X0112057Y0090828D01*
X0112057Y0092896D01*
X0109057Y0095896D01*
D17*
X0067652Y0043318D02*
X0178973Y0043318D01*
X0178958Y0044453D02*
X0179154Y0029628D01*
X0124031Y0029628D01*
X0124565Y0030918D01*
X0124565Y0032737D01*
X0123869Y0034417D01*
X0122583Y0035703D01*
X0120903Y0036399D01*
X0119084Y0036399D01*
X0117404Y0035703D01*
X0116118Y0034417D01*
X0116034Y0034215D01*
X0116030Y0034224D01*
X0115607Y0034806D01*
X0115098Y0035315D01*
X0114516Y0035738D01*
X0113875Y0036064D01*
X0113190Y0036287D01*
X0112479Y0036399D01*
X0112206Y0036399D01*
X0112206Y0031913D01*
X0112034Y0031913D01*
X0112034Y0031742D01*
X0107548Y0031742D01*
X0107548Y0031468D01*
X0107661Y0030757D01*
X0107883Y0030073D01*
X0108110Y0029628D01*
X0094294Y0029628D01*
X0094825Y0030911D01*
X0094825Y0038745D01*
X0094099Y0040497D01*
X0092758Y0041839D01*
X0091005Y0042565D01*
X0089108Y0042565D01*
X0087356Y0041839D01*
X0086014Y0040497D01*
X0085288Y0038745D01*
X0085288Y0030911D01*
X0085820Y0029628D01*
X0084294Y0029628D01*
X0084825Y0030911D01*
X0084825Y0038745D01*
X0084099Y0040497D01*
X0082758Y0041839D01*
X0081005Y0042565D01*
X0079108Y0042565D01*
X0077356Y0041839D01*
X0076014Y0040497D01*
X0075288Y0038745D01*
X0075288Y0030911D01*
X0075820Y0029628D01*
X0074294Y0029628D01*
X0074825Y0030911D01*
X0074825Y0038745D01*
X0074099Y0040497D01*
X0072758Y0041839D01*
X0071005Y0042565D01*
X0069108Y0042565D01*
X0067670Y0041969D01*
X0066881Y0101728D01*
X0178202Y0101728D01*
X0178843Y0053202D01*
X0173736Y0053202D01*
X0172682Y0052148D01*
X0172682Y0045507D01*
X0173736Y0044453D01*
X0178958Y0044453D01*
X0178994Y0041719D02*
X0092877Y0041719D01*
X0094255Y0040121D02*
X0179015Y0040121D01*
X0179037Y0038522D02*
X0094825Y0038522D01*
X0094825Y0036924D02*
X0179058Y0036924D01*
X0179079Y0035325D02*
X0122961Y0035325D01*
X0124155Y0033727D02*
X0179100Y0033727D01*
X0179121Y0032128D02*
X0124565Y0032128D01*
X0124404Y0030530D02*
X0179142Y0030530D01*
X0173273Y0044916D02*
X0067631Y0044916D01*
X0067610Y0046515D02*
X0172682Y0046515D01*
X0172682Y0048113D02*
X0067589Y0048113D01*
X0067568Y0049712D02*
X0172682Y0049712D01*
X0172682Y0051310D02*
X0067547Y0051310D01*
X0067526Y0052909D02*
X0173443Y0052909D01*
X0178825Y0054507D02*
X0067504Y0054507D01*
X0067483Y0056106D02*
X0178804Y0056106D01*
X0178783Y0057705D02*
X0067462Y0057705D01*
X0067441Y0059303D02*
X0178762Y0059303D01*
X0178741Y0060902D02*
X0067420Y0060902D01*
X0067399Y0062500D02*
X0178720Y0062500D01*
X0178699Y0064099D02*
X0067378Y0064099D01*
X0067357Y0065697D02*
X0178678Y0065697D01*
X0178656Y0067296D02*
X0067335Y0067296D01*
X0067314Y0068894D02*
X0178635Y0068894D01*
X0178614Y0070493D02*
X0067293Y0070493D01*
X0067272Y0072091D02*
X0178593Y0072091D01*
X0178572Y0073690D02*
X0067251Y0073690D01*
X0067230Y0075288D02*
X0178551Y0075288D01*
X0178530Y0076887D02*
X0067209Y0076887D01*
X0067188Y0078485D02*
X0178509Y0078485D01*
X0178488Y0080084D02*
X0067167Y0080084D01*
X0067145Y0081682D02*
X0178466Y0081682D01*
X0178445Y0083281D02*
X0119862Y0083281D01*
X0120265Y0083684D02*
X0120841Y0085075D01*
X0120841Y0086580D01*
X0120265Y0087971D01*
X0119200Y0089036D01*
X0117809Y0089612D01*
X0116384Y0089612D01*
X0114257Y0091739D01*
X0114257Y0092863D01*
X0114265Y0092855D01*
X0115583Y0092309D01*
X0117010Y0092309D01*
X0118329Y0092855D01*
X0119338Y0093864D01*
X0119884Y0095183D01*
X0119884Y0096610D01*
X0119338Y0097929D01*
X0118329Y0098938D01*
X0117010Y0099484D01*
X0115583Y0099484D01*
X0114265Y0098938D01*
X0113417Y0098090D01*
X0109974Y0098090D01*
X0109968Y0098096D01*
X0108145Y0098096D01*
X0108139Y0098090D01*
X0100840Y0098090D01*
X0099992Y0098938D01*
X0098674Y0099484D01*
X0097247Y0099484D01*
X0095928Y0098938D01*
X0094919Y0097929D01*
X0094373Y0096610D01*
X0094373Y0095411D01*
X0093662Y0094700D01*
X0092463Y0094700D01*
X0091145Y0094154D01*
X0090136Y0093145D01*
X0089589Y0091827D01*
X0089589Y0090399D01*
X0090136Y0089081D01*
X0091145Y0088072D01*
X0092463Y0087526D01*
X0093890Y0087526D01*
X0095209Y0088072D01*
X0096218Y0089081D01*
X0096764Y0090399D01*
X0096764Y0091598D01*
X0097475Y0092309D01*
X0098674Y0092309D01*
X0099992Y0092855D01*
X0100840Y0093703D01*
X0108139Y0093703D01*
X0109857Y0091985D01*
X0109857Y0089916D01*
X0111145Y0088628D01*
X0113272Y0086501D01*
X0113272Y0085075D01*
X0113849Y0083684D01*
X0114913Y0082619D01*
X0116304Y0082043D01*
X0117809Y0082043D01*
X0119200Y0082619D01*
X0120265Y0083684D01*
X0120760Y0084879D02*
X0178424Y0084879D01*
X0178403Y0086478D02*
X0120841Y0086478D01*
X0120160Y0088076D02*
X0178382Y0088076D01*
X0178361Y0089675D02*
X0116321Y0089675D01*
X0114722Y0091273D02*
X0178340Y0091273D01*
X0178319Y0092872D02*
X0118346Y0092872D01*
X0119589Y0094470D02*
X0178297Y0094470D01*
X0178276Y0096069D02*
X0119884Y0096069D01*
X0119446Y0097667D02*
X0178255Y0097667D01*
X0178234Y0099266D02*
X0117537Y0099266D01*
X0115057Y0099266D02*
X0099200Y0099266D01*
X0096720Y0099266D02*
X0066913Y0099266D01*
X0066934Y0097667D02*
X0094811Y0097667D01*
X0094373Y0096069D02*
X0066955Y0096069D01*
X0066977Y0094470D02*
X0091908Y0094470D01*
X0090022Y0092872D02*
X0066998Y0092872D01*
X0067019Y0091273D02*
X0089589Y0091273D01*
X0089890Y0089675D02*
X0067040Y0089675D01*
X0067061Y0088076D02*
X0091140Y0088076D01*
X0095213Y0088076D02*
X0111697Y0088076D01*
X0113272Y0086478D02*
X0067082Y0086478D01*
X0067103Y0084879D02*
X0113353Y0084879D01*
X0114252Y0083281D02*
X0067124Y0083281D01*
X0066892Y0100864D02*
X0178213Y0100864D01*
X0109857Y0091273D02*
X0096764Y0091273D01*
X0096464Y0089675D02*
X0110098Y0089675D01*
X0108970Y0092872D02*
X0100009Y0092872D01*
X0087236Y0041719D02*
X0082877Y0041719D01*
X0084255Y0040121D02*
X0085858Y0040121D01*
X0085288Y0038522D02*
X0084825Y0038522D01*
X0084825Y0036924D02*
X0085288Y0036924D01*
X0085288Y0035325D02*
X0084825Y0035325D01*
X0084825Y0033727D02*
X0085288Y0033727D01*
X0085288Y0032128D02*
X0084825Y0032128D01*
X0084667Y0030530D02*
X0085446Y0030530D01*
X0094667Y0030530D02*
X0107734Y0030530D01*
X0107548Y0031913D02*
X0112034Y0031913D01*
X0112034Y0036399D01*
X0111760Y0036399D01*
X0111049Y0036287D01*
X0110365Y0036064D01*
X0109724Y0035738D01*
X0109141Y0035315D01*
X0108633Y0034806D01*
X0108210Y0034224D01*
X0107883Y0033582D01*
X0107661Y0032898D01*
X0107548Y0032187D01*
X0107548Y0031913D01*
X0107548Y0032128D02*
X0094825Y0032128D01*
X0094825Y0033727D02*
X0107957Y0033727D01*
X0109156Y0035325D02*
X0094825Y0035325D01*
X0077236Y0041719D02*
X0072877Y0041719D01*
X0074255Y0040121D02*
X0075858Y0040121D01*
X0075288Y0038522D02*
X0074825Y0038522D01*
X0074825Y0036924D02*
X0075288Y0036924D01*
X0075288Y0035325D02*
X0074825Y0035325D01*
X0074825Y0033727D02*
X0075288Y0033727D01*
X0075288Y0032128D02*
X0074825Y0032128D01*
X0074667Y0030530D02*
X0075446Y0030530D01*
X0112034Y0032128D02*
X0112206Y0032128D01*
X0112206Y0033727D02*
X0112034Y0033727D01*
X0112034Y0035325D02*
X0112206Y0035325D01*
X0115083Y0035325D02*
X0117026Y0035325D01*
D18*
X0120057Y0048828D03*
X0141057Y0067828D03*
X0160057Y0074828D03*
X0153057Y0034828D03*
X0109057Y0082828D03*
X0083057Y0076828D03*
X0084057Y0067828D03*
X0076057Y0096828D03*
M02*
