G75*
%MOIN*%
%OFA0B0*%
%FSLAX25Y25*%
%IPPOS*%
%LPD*%
%AMOC8*
5,1,8,0,0,1.08239X$1,22.5*
%
%ADD10C,0.00400*%
%ADD11C,0.00600*%
%ADD12C,0.00300*%
%ADD13C,0.00800*%
%ADD14C,0.00000*%
%ADD15C,0.00100*%
%ADD16C,0.01000*%
D10*
X0058425Y0051028D02*
X0060827Y0053430D01*
X0060827Y0054030D01*
X0060227Y0054631D01*
X0059026Y0054631D01*
X0058425Y0054030D01*
X0058425Y0051028D02*
X0060827Y0051028D01*
X0062108Y0051028D02*
X0064510Y0053430D01*
X0064510Y0054030D01*
X0063910Y0054631D01*
X0062709Y0054631D01*
X0062108Y0054030D01*
X0062108Y0051028D02*
X0064510Y0051028D01*
X0065792Y0052829D02*
X0068194Y0052829D01*
X0069475Y0054030D02*
X0070075Y0054631D01*
X0071276Y0054631D01*
X0071877Y0054030D01*
X0071877Y0053430D01*
X0069475Y0051028D01*
X0071877Y0051028D01*
X0073158Y0051628D02*
X0073758Y0051028D01*
X0074959Y0051028D01*
X0075560Y0051628D01*
X0075560Y0052229D01*
X0074959Y0052829D01*
X0074359Y0052829D01*
X0074959Y0052829D02*
X0075560Y0053430D01*
X0075560Y0054030D01*
X0074959Y0054631D01*
X0073758Y0054631D01*
X0073158Y0054030D01*
X0076841Y0052829D02*
X0079243Y0052829D01*
X0080524Y0054030D02*
X0081125Y0054631D01*
X0082326Y0054631D01*
X0082926Y0054030D01*
X0082926Y0053430D01*
X0080524Y0051028D01*
X0082926Y0051028D01*
X0084207Y0051628D02*
X0086609Y0054030D01*
X0086609Y0051628D01*
X0086009Y0051028D01*
X0084808Y0051028D01*
X0084207Y0051628D01*
X0084207Y0054030D01*
X0084808Y0054631D01*
X0086009Y0054631D01*
X0086609Y0054030D01*
X0087890Y0054030D02*
X0088491Y0054631D01*
X0089692Y0054631D01*
X0090292Y0054030D01*
X0090292Y0053430D01*
X0089692Y0052829D01*
X0090292Y0052229D01*
X0090292Y0051628D01*
X0089692Y0051028D01*
X0088491Y0051028D01*
X0087890Y0051628D01*
X0089091Y0052829D02*
X0089692Y0052829D01*
X0091574Y0053430D02*
X0092775Y0054631D01*
X0092775Y0051028D01*
X0091574Y0051028D02*
X0093976Y0051028D01*
X0101253Y0050304D02*
X0101253Y0048770D01*
X0102020Y0048002D01*
X0105089Y0048002D01*
X0102020Y0051072D01*
X0105089Y0051072D01*
X0105857Y0050304D01*
X0105857Y0048770D01*
X0105089Y0048002D01*
X0103555Y0046468D02*
X0103555Y0043398D01*
X0102787Y0041864D02*
X0102020Y0041864D01*
X0101253Y0041096D01*
X0101253Y0039562D01*
X0102020Y0038794D01*
X0102020Y0037260D02*
X0102787Y0037260D01*
X0103555Y0036492D01*
X0104322Y0037260D01*
X0105089Y0037260D01*
X0105857Y0036492D01*
X0105857Y0034958D01*
X0105089Y0034191D01*
X0105089Y0032656D02*
X0105857Y0031889D01*
X0105857Y0030354D01*
X0105089Y0029587D01*
X0103555Y0031121D02*
X0103555Y0031889D01*
X0104322Y0032656D01*
X0105089Y0032656D01*
X0103555Y0031889D02*
X0102787Y0032656D01*
X0102020Y0032656D01*
X0101253Y0031889D01*
X0101253Y0030354D01*
X0102020Y0029587D01*
X0102020Y0034191D02*
X0101253Y0034958D01*
X0101253Y0036492D01*
X0102020Y0037260D01*
X0103555Y0036492D02*
X0103555Y0035725D01*
X0105857Y0038794D02*
X0102787Y0041864D01*
X0105857Y0041864D02*
X0105857Y0038794D01*
X0101253Y0050304D02*
X0102020Y0051072D01*
X0102020Y0052606D02*
X0101253Y0053374D01*
X0101253Y0054908D01*
X0102020Y0055676D01*
X0102787Y0055676D01*
X0105857Y0052606D01*
X0105857Y0055676D01*
X0082722Y0073028D02*
X0079653Y0073028D01*
X0081187Y0073028D02*
X0081187Y0077631D01*
X0079653Y0076097D01*
X0078118Y0076864D02*
X0078118Y0075330D01*
X0077351Y0074562D01*
X0075049Y0074562D01*
X0076583Y0074562D02*
X0078118Y0073028D01*
X0075049Y0073028D02*
X0075049Y0077631D01*
X0077351Y0077631D01*
X0078118Y0076864D01*
X0078118Y0088028D02*
X0076583Y0088028D01*
X0075816Y0088795D01*
X0078885Y0091864D01*
X0078885Y0088795D01*
X0078118Y0088028D01*
X0080420Y0088028D02*
X0080420Y0092631D01*
X0078885Y0091864D02*
X0078118Y0092631D01*
X0076583Y0092631D01*
X0075816Y0091864D01*
X0075816Y0088795D01*
X0074281Y0088795D02*
X0073514Y0088028D01*
X0071980Y0088028D01*
X0071212Y0088795D01*
X0074281Y0091864D01*
X0074281Y0088795D01*
X0071212Y0088795D02*
X0071212Y0091864D01*
X0071980Y0092631D01*
X0073514Y0092631D01*
X0074281Y0091864D01*
X0069678Y0091864D02*
X0069678Y0088795D01*
X0068910Y0088028D01*
X0067376Y0088028D01*
X0066608Y0088795D01*
X0069678Y0091864D01*
X0068910Y0092631D01*
X0067376Y0092631D01*
X0066608Y0091864D01*
X0066608Y0088795D01*
X0065074Y0088028D02*
X0062004Y0088028D01*
X0063539Y0088028D02*
X0063539Y0092631D01*
X0062004Y0091097D01*
X0080420Y0089562D02*
X0082722Y0091097D01*
X0083257Y0091097D02*
X0084791Y0092631D01*
X0084791Y0088028D01*
X0083257Y0088028D02*
X0086326Y0088028D01*
X0087861Y0088795D02*
X0090930Y0091864D01*
X0090930Y0088795D01*
X0090163Y0088028D01*
X0088628Y0088028D01*
X0087861Y0088795D01*
X0087861Y0091864D01*
X0088628Y0092631D01*
X0090163Y0092631D01*
X0090930Y0091864D01*
X0092465Y0091864D02*
X0093232Y0092631D01*
X0094767Y0092631D01*
X0095534Y0091864D01*
X0092465Y0088795D01*
X0093232Y0088028D01*
X0094767Y0088028D01*
X0095534Y0088795D01*
X0095534Y0091864D01*
X0097068Y0091097D02*
X0099370Y0091097D01*
X0100138Y0090330D01*
X0100138Y0088028D01*
X0102257Y0088028D02*
X0105326Y0088028D01*
X0103791Y0088028D02*
X0103791Y0092631D01*
X0102257Y0091097D01*
X0097068Y0091097D02*
X0097068Y0088028D01*
X0092465Y0088795D02*
X0092465Y0091864D01*
X0082722Y0088028D02*
X0080420Y0089562D01*
X0084024Y0103028D02*
X0085559Y0103028D01*
X0086326Y0103795D01*
X0087861Y0103028D02*
X0090930Y0103028D01*
X0089395Y0103028D02*
X0089395Y0107631D01*
X0087861Y0106097D01*
X0086326Y0106864D02*
X0085559Y0107631D01*
X0084024Y0107631D01*
X0083257Y0106864D01*
X0083257Y0103795D01*
X0084024Y0103028D01*
X0102257Y0103795D02*
X0103024Y0103028D01*
X0104559Y0103028D01*
X0105326Y0103795D01*
X0106861Y0103028D02*
X0109930Y0106097D01*
X0109930Y0106864D01*
X0109163Y0107631D01*
X0107628Y0107631D01*
X0106861Y0106864D01*
X0105326Y0106864D02*
X0104559Y0107631D01*
X0103024Y0107631D01*
X0102257Y0106864D01*
X0102257Y0103795D01*
X0106861Y0103028D02*
X0109930Y0103028D01*
X0109163Y0092631D02*
X0107628Y0092631D01*
X0106861Y0091864D01*
X0106861Y0088795D01*
X0109930Y0091864D01*
X0109930Y0088795D01*
X0109163Y0088028D01*
X0107628Y0088028D01*
X0106861Y0088795D01*
X0109930Y0091864D02*
X0109163Y0092631D01*
X0111465Y0091097D02*
X0113767Y0091097D01*
X0114534Y0090330D01*
X0114534Y0088028D01*
X0111465Y0088028D02*
X0111465Y0091097D01*
X0144104Y0063930D02*
X0157009Y0063930D01*
X0156857Y0063839D02*
X0156089Y0063839D01*
X0153020Y0066909D01*
X0152253Y0066909D01*
X0152253Y0063839D01*
X0153020Y0062305D02*
X0152253Y0061537D01*
X0152253Y0060003D01*
X0153020Y0059235D01*
X0153787Y0059235D01*
X0154555Y0060003D01*
X0154555Y0061537D01*
X0155322Y0062305D01*
X0156089Y0062305D01*
X0156857Y0061537D01*
X0156857Y0060003D01*
X0156089Y0059235D01*
X0156857Y0056166D02*
X0152253Y0056166D01*
X0152253Y0054631D02*
X0152253Y0057701D01*
X0153020Y0053097D02*
X0152253Y0052330D01*
X0152253Y0050795D01*
X0153020Y0050028D01*
X0156089Y0050028D01*
X0156857Y0050795D01*
X0156857Y0052330D01*
X0156089Y0053097D01*
X0158009Y0045725D02*
X0144104Y0045725D01*
X0144163Y0041631D02*
X0141861Y0039330D01*
X0144930Y0039330D01*
X0144163Y0041631D02*
X0144163Y0037028D01*
X0140326Y0037795D02*
X0139559Y0037028D01*
X0138024Y0037028D01*
X0137257Y0037795D01*
X0137257Y0040864D01*
X0138024Y0041631D01*
X0139559Y0041631D01*
X0140326Y0040864D01*
X0130857Y0037260D02*
X0130857Y0034191D01*
X0130857Y0035725D02*
X0126253Y0035725D01*
X0127787Y0034191D01*
X0126253Y0032656D02*
X0130857Y0029587D01*
X0130857Y0032656D02*
X0126253Y0029587D01*
X0137257Y0025864D02*
X0137257Y0022795D01*
X0140326Y0025864D01*
X0140326Y0022795D01*
X0139559Y0022028D01*
X0138024Y0022028D01*
X0137257Y0022795D01*
X0137257Y0025864D02*
X0138024Y0026631D01*
X0139559Y0026631D01*
X0140326Y0025864D01*
X0141861Y0022795D02*
X0142628Y0022795D01*
X0142628Y0022028D01*
X0141861Y0022028D01*
X0141861Y0022795D01*
X0144163Y0022028D02*
X0147232Y0022028D01*
X0145697Y0022028D02*
X0145697Y0026631D01*
X0144163Y0025097D01*
X0148767Y0025097D02*
X0148767Y0022795D01*
X0149534Y0022028D01*
X0151836Y0022028D01*
X0151836Y0025097D01*
X0161049Y0025864D02*
X0161049Y0022795D01*
X0161816Y0022028D01*
X0163351Y0022028D01*
X0164118Y0022795D01*
X0165653Y0022795D02*
X0166420Y0022028D01*
X0167955Y0022028D01*
X0168722Y0022795D01*
X0168722Y0023562D01*
X0167955Y0024330D01*
X0167187Y0024330D01*
X0167955Y0024330D02*
X0168722Y0025097D01*
X0168722Y0025864D01*
X0167955Y0026631D01*
X0166420Y0026631D01*
X0165653Y0025864D01*
X0164118Y0025864D02*
X0163351Y0026631D01*
X0161816Y0026631D01*
X0161049Y0025864D01*
X0161816Y0037028D02*
X0161049Y0037795D01*
X0164118Y0040864D01*
X0164118Y0037795D01*
X0163351Y0037028D01*
X0161816Y0037028D01*
X0161049Y0037795D02*
X0161049Y0040864D01*
X0161816Y0041631D01*
X0163351Y0041631D01*
X0164118Y0040864D01*
X0165653Y0040097D02*
X0165653Y0037795D01*
X0166420Y0037028D01*
X0168722Y0037028D01*
X0168722Y0040097D01*
X0159514Y0037028D02*
X0156445Y0037028D01*
X0157980Y0037028D02*
X0157980Y0041631D01*
X0156445Y0040097D01*
X0139857Y0050028D02*
X0135253Y0050028D01*
X0135253Y0052330D01*
X0136020Y0053097D01*
X0137555Y0053097D01*
X0138322Y0052330D01*
X0138322Y0050028D01*
X0138322Y0051562D02*
X0139857Y0053097D01*
X0139857Y0054631D02*
X0135253Y0054631D01*
X0139857Y0057701D01*
X0135253Y0057701D01*
X0136787Y0059235D02*
X0135253Y0060770D01*
X0139857Y0060770D01*
X0139857Y0059235D02*
X0139857Y0062305D01*
X0152253Y0070745D02*
X0154555Y0068443D01*
X0154555Y0071513D01*
X0156857Y0070745D02*
X0152253Y0070745D01*
X0153020Y0073047D02*
X0152253Y0073814D01*
X0152253Y0075349D01*
X0153020Y0076116D01*
X0153787Y0076116D01*
X0156857Y0073047D01*
X0156857Y0076116D01*
X0156089Y0077651D02*
X0156857Y0078418D01*
X0156857Y0079953D01*
X0156089Y0080720D01*
X0156089Y0082255D02*
X0153020Y0085324D01*
X0156089Y0085324D01*
X0156857Y0084557D01*
X0156857Y0083022D01*
X0156089Y0082255D01*
X0153020Y0082255D01*
X0152253Y0083022D01*
X0152253Y0084557D01*
X0153020Y0085324D01*
X0153020Y0086859D02*
X0153787Y0086859D01*
X0154555Y0087626D01*
X0154555Y0089161D01*
X0155322Y0089928D01*
X0156089Y0089928D01*
X0156857Y0089161D01*
X0156857Y0087626D01*
X0156089Y0086859D01*
X0155322Y0086859D01*
X0154555Y0087626D01*
X0153020Y0086859D02*
X0152253Y0087626D01*
X0152253Y0089161D01*
X0153020Y0089928D01*
X0153787Y0089928D01*
X0154555Y0089161D01*
X0156089Y0091463D02*
X0156857Y0092230D01*
X0156857Y0093765D01*
X0156089Y0094532D01*
X0155322Y0094532D01*
X0154555Y0093765D01*
X0154555Y0092998D01*
X0154555Y0093765D02*
X0153787Y0094532D01*
X0153020Y0094532D01*
X0152253Y0093765D01*
X0152253Y0092230D01*
X0153020Y0091463D01*
X0153020Y0080720D02*
X0152253Y0079953D01*
X0152253Y0078418D01*
X0153020Y0077651D01*
X0156089Y0077651D01*
X0093976Y0019030D02*
X0093375Y0019631D01*
X0092174Y0019631D01*
X0091574Y0019030D01*
X0090292Y0019631D02*
X0087890Y0016028D01*
X0090292Y0016028D02*
X0087890Y0019631D01*
X0091574Y0016028D02*
X0093976Y0018430D01*
X0093976Y0019030D01*
X0093976Y0016028D02*
X0091574Y0016028D01*
D11*
X0121157Y0049128D02*
X0121157Y0053128D01*
X0123157Y0059728D02*
X0123157Y0064628D01*
X0123157Y0067028D01*
X0123157Y0071928D01*
X0123157Y0067028D02*
X0123088Y0067026D01*
X0123020Y0067020D01*
X0122952Y0067010D01*
X0122885Y0066997D01*
X0122819Y0066979D01*
X0122754Y0066958D01*
X0122690Y0066933D01*
X0122628Y0066905D01*
X0122567Y0066873D01*
X0122508Y0066838D01*
X0122452Y0066799D01*
X0122397Y0066757D01*
X0122346Y0066712D01*
X0122296Y0066664D01*
X0122250Y0066614D01*
X0122207Y0066561D01*
X0122166Y0066505D01*
X0122129Y0066448D01*
X0122096Y0066388D01*
X0122065Y0066326D01*
X0122039Y0066263D01*
X0122016Y0066199D01*
X0121996Y0066133D01*
X0121981Y0066066D01*
X0121969Y0065999D01*
X0121961Y0065931D01*
X0121957Y0065862D01*
X0121957Y0065794D01*
X0121961Y0065725D01*
X0121969Y0065657D01*
X0121981Y0065590D01*
X0121996Y0065523D01*
X0122016Y0065457D01*
X0122039Y0065393D01*
X0122065Y0065330D01*
X0122096Y0065268D01*
X0122129Y0065208D01*
X0122166Y0065151D01*
X0122207Y0065095D01*
X0122250Y0065042D01*
X0122296Y0064992D01*
X0122346Y0064944D01*
X0122397Y0064899D01*
X0122452Y0064857D01*
X0122508Y0064818D01*
X0122567Y0064783D01*
X0122628Y0064751D01*
X0122690Y0064723D01*
X0122754Y0064698D01*
X0122819Y0064677D01*
X0122885Y0064659D01*
X0122952Y0064646D01*
X0123020Y0064636D01*
X0123088Y0064630D01*
X0123157Y0064628D01*
X0110957Y0059728D02*
X0110957Y0071928D01*
X0079657Y0065528D02*
X0076457Y0065528D01*
X0076457Y0054128D02*
X0076857Y0054128D01*
X0079257Y0054128D01*
X0079657Y0054128D01*
X0079257Y0054128D02*
X0079255Y0054197D01*
X0079249Y0054265D01*
X0079239Y0054333D01*
X0079226Y0054400D01*
X0079208Y0054466D01*
X0079187Y0054531D01*
X0079162Y0054595D01*
X0079134Y0054657D01*
X0079102Y0054718D01*
X0079067Y0054777D01*
X0079028Y0054833D01*
X0078986Y0054888D01*
X0078941Y0054939D01*
X0078893Y0054989D01*
X0078843Y0055035D01*
X0078790Y0055078D01*
X0078734Y0055119D01*
X0078677Y0055156D01*
X0078617Y0055189D01*
X0078555Y0055220D01*
X0078492Y0055246D01*
X0078428Y0055269D01*
X0078362Y0055289D01*
X0078295Y0055304D01*
X0078228Y0055316D01*
X0078160Y0055324D01*
X0078091Y0055328D01*
X0078023Y0055328D01*
X0077954Y0055324D01*
X0077886Y0055316D01*
X0077819Y0055304D01*
X0077752Y0055289D01*
X0077686Y0055269D01*
X0077622Y0055246D01*
X0077559Y0055220D01*
X0077497Y0055189D01*
X0077437Y0055156D01*
X0077380Y0055119D01*
X0077324Y0055078D01*
X0077271Y0055035D01*
X0077221Y0054989D01*
X0077173Y0054939D01*
X0077128Y0054888D01*
X0077086Y0054833D01*
X0077047Y0054777D01*
X0077012Y0054718D01*
X0076980Y0054657D01*
X0076952Y0054595D01*
X0076927Y0054531D01*
X0076906Y0054466D01*
X0076888Y0054400D01*
X0076875Y0054333D01*
X0076865Y0054265D01*
X0076859Y0054197D01*
X0076857Y0054128D01*
X0150157Y0085428D02*
X0150157Y0089628D01*
X0150157Y0092028D01*
X0150157Y0096228D01*
X0161957Y0096228D02*
X0161957Y0085428D01*
D12*
X0151923Y0082214D02*
X0148787Y0079078D01*
X0148787Y0080646D02*
X0151923Y0080646D01*
X0151923Y0079078D02*
X0148787Y0082214D01*
X0150355Y0082214D02*
X0150355Y0079078D01*
X0125727Y0077678D02*
X0122591Y0074542D01*
X0122591Y0076110D02*
X0125727Y0076110D01*
X0125727Y0074542D02*
X0122591Y0077678D01*
X0124159Y0077678D02*
X0124159Y0074542D01*
X0086007Y0053694D02*
X0082871Y0050558D01*
X0082871Y0052126D02*
X0086007Y0052126D01*
X0086007Y0050558D02*
X0082871Y0053694D01*
X0084439Y0053694D02*
X0084439Y0050558D01*
D13*
X0061055Y0046959D02*
X0056117Y0042021D01*
X0061055Y0042021D02*
X0061055Y0049428D01*
X0063668Y0048193D02*
X0064902Y0049428D01*
X0067371Y0049428D01*
X0068605Y0048193D01*
X0068605Y0043256D01*
X0067371Y0042021D01*
X0064902Y0042021D01*
X0063668Y0043256D01*
X0059821Y0045724D02*
X0056117Y0049428D01*
X0071218Y0048193D02*
X0071218Y0043256D01*
X0072453Y0042021D01*
X0074921Y0042021D01*
X0076156Y0043256D01*
X0076156Y0048193D01*
X0074921Y0049428D01*
X0072453Y0049428D01*
X0071218Y0048193D01*
X0078769Y0049428D02*
X0083706Y0049428D01*
X0083706Y0042021D01*
X0086319Y0043256D02*
X0087554Y0042021D01*
X0090022Y0042021D01*
X0091257Y0043256D01*
X0091257Y0048193D01*
X0090022Y0049428D01*
X0087554Y0049428D01*
X0086319Y0048193D01*
X0099957Y0047591D02*
X0099957Y0045123D01*
X0101191Y0043888D01*
X0102425Y0043888D01*
X0103660Y0045123D01*
X0103660Y0046357D01*
X0103660Y0045123D02*
X0104894Y0043888D01*
X0106129Y0043888D01*
X0107363Y0045123D01*
X0107363Y0047591D01*
X0106129Y0048826D01*
X0106129Y0051439D02*
X0104894Y0051439D01*
X0103660Y0052673D01*
X0103660Y0055142D01*
X0104894Y0056376D01*
X0106129Y0056376D01*
X0107363Y0055142D01*
X0107363Y0052673D01*
X0106129Y0051439D01*
X0103660Y0052673D02*
X0102425Y0051439D01*
X0101191Y0051439D01*
X0099957Y0052673D01*
X0099957Y0055142D01*
X0101191Y0056376D01*
X0102425Y0056376D01*
X0103660Y0055142D01*
X0103660Y0058989D02*
X0103660Y0062692D01*
X0104894Y0063927D01*
X0106129Y0063927D01*
X0107363Y0062692D01*
X0107363Y0060224D01*
X0106129Y0058989D01*
X0101191Y0058989D01*
X0099957Y0060224D01*
X0099957Y0062692D01*
X0101191Y0063927D01*
X0101191Y0066540D02*
X0106129Y0066540D01*
X0107363Y0067774D01*
X0107363Y0071477D01*
X0099957Y0071477D01*
X0099957Y0067774D01*
X0101191Y0066540D01*
X0099957Y0074090D02*
X0104894Y0074090D01*
X0107363Y0076559D01*
X0104894Y0079028D01*
X0099957Y0079028D01*
X0103660Y0079028D02*
X0103660Y0074090D01*
X0091257Y0076928D02*
X0091257Y0069521D01*
X0083706Y0069521D02*
X0078769Y0069521D01*
X0081237Y0069521D02*
X0081237Y0076928D01*
X0086319Y0076928D02*
X0091257Y0076928D01*
X0076156Y0075693D02*
X0076156Y0070756D01*
X0074921Y0069521D01*
X0072453Y0069521D01*
X0071218Y0070756D01*
X0068605Y0073224D02*
X0064902Y0073224D01*
X0063668Y0074459D01*
X0063668Y0075693D01*
X0064902Y0076928D01*
X0067371Y0076928D01*
X0068605Y0075693D01*
X0068605Y0073224D01*
X0066137Y0070756D01*
X0063668Y0069521D01*
X0061055Y0070756D02*
X0061055Y0071990D01*
X0059821Y0073224D01*
X0056117Y0073224D01*
X0056117Y0070756D02*
X0056117Y0075693D01*
X0057352Y0076928D01*
X0059821Y0076928D01*
X0061055Y0075693D01*
X0061055Y0070756D02*
X0059821Y0069521D01*
X0057352Y0069521D01*
X0056117Y0070756D01*
X0053504Y0070756D02*
X0052270Y0069521D01*
X0049801Y0069521D01*
X0048567Y0070756D01*
X0053504Y0075693D01*
X0052270Y0076928D01*
X0049801Y0076928D01*
X0048567Y0075693D01*
X0048567Y0070756D01*
X0045954Y0073224D02*
X0042251Y0073224D01*
X0041016Y0074459D01*
X0041016Y0075693D01*
X0042251Y0076928D01*
X0044720Y0076928D01*
X0045954Y0075693D01*
X0045954Y0073224D01*
X0043485Y0070756D01*
X0041016Y0069521D01*
X0038404Y0069521D02*
X0035935Y0069521D01*
X0037169Y0069521D02*
X0037169Y0076928D01*
X0035935Y0076928D02*
X0038404Y0076928D01*
X0033370Y0075693D02*
X0032136Y0076928D01*
X0029667Y0076928D01*
X0028432Y0075693D01*
X0028432Y0074459D01*
X0029667Y0073224D01*
X0032136Y0073224D01*
X0033370Y0071990D01*
X0033370Y0070756D01*
X0032136Y0069521D01*
X0029667Y0069521D01*
X0028432Y0070756D01*
X0025820Y0073224D02*
X0022116Y0073224D01*
X0020882Y0074459D01*
X0020882Y0075693D01*
X0022116Y0076928D01*
X0024585Y0076928D01*
X0025820Y0075693D01*
X0025820Y0073224D01*
X0023351Y0070756D01*
X0020882Y0069521D01*
X0018269Y0069521D02*
X0014566Y0069521D01*
X0013332Y0070756D01*
X0013332Y0073224D01*
X0014566Y0074459D01*
X0018269Y0074459D01*
X0018269Y0076928D02*
X0018269Y0069521D01*
X0010719Y0069521D02*
X0007015Y0069521D01*
X0005781Y0070756D01*
X0005781Y0071990D01*
X0007015Y0073224D01*
X0010719Y0073224D01*
X0010719Y0069521D02*
X0010719Y0076928D01*
X0007015Y0076928D01*
X0005781Y0075693D01*
X0005781Y0074459D01*
X0007015Y0073224D01*
X0003168Y0073224D02*
X0000699Y0073224D01*
X0003168Y0069521D02*
X0003168Y0076928D01*
X0003168Y0069521D02*
X-0001769Y0069521D01*
X0053504Y0070756D02*
X0053504Y0075693D01*
X0071218Y0075693D02*
X0072453Y0076928D01*
X0074921Y0076928D01*
X0076156Y0075693D01*
X0101191Y0048826D02*
X0099957Y0047591D01*
X0101191Y0041275D02*
X0099957Y0040041D01*
X0099957Y0037572D01*
X0101191Y0036338D01*
X0102425Y0036338D01*
X0103660Y0037572D01*
X0103660Y0038807D01*
X0103660Y0037572D02*
X0104894Y0036338D01*
X0106129Y0036338D01*
X0107363Y0037572D01*
X0107363Y0040041D01*
X0106129Y0041275D01*
X0108576Y0035174D02*
X0108576Y0028481D01*
X0114482Y0028481D01*
X0114483Y0028481D02*
X0114519Y0028554D01*
X0114560Y0028625D01*
X0114603Y0028695D01*
X0114650Y0028762D01*
X0114700Y0028827D01*
X0114753Y0028889D01*
X0114808Y0028949D01*
X0114867Y0029006D01*
X0114928Y0029061D01*
X0114992Y0029112D01*
X0115058Y0029161D01*
X0115126Y0029206D01*
X0115196Y0029248D01*
X0115268Y0029287D01*
X0115342Y0029323D01*
X0115417Y0029354D01*
X0115494Y0029383D01*
X0115572Y0029407D01*
X0115651Y0029428D01*
X0115731Y0029445D01*
X0115812Y0029459D01*
X0115893Y0029468D01*
X0115975Y0029474D01*
X0116057Y0029476D01*
X0116139Y0029474D01*
X0116221Y0029468D01*
X0116302Y0029459D01*
X0116383Y0029445D01*
X0116463Y0029428D01*
X0116542Y0029407D01*
X0116620Y0029383D01*
X0116697Y0029354D01*
X0116772Y0029323D01*
X0116846Y0029287D01*
X0116918Y0029248D01*
X0116988Y0029206D01*
X0117056Y0029161D01*
X0117122Y0029112D01*
X0117186Y0029061D01*
X0117247Y0029006D01*
X0117306Y0028949D01*
X0117361Y0028889D01*
X0117414Y0028827D01*
X0117464Y0028762D01*
X0117511Y0028695D01*
X0117554Y0028625D01*
X0117595Y0028554D01*
X0117631Y0028481D01*
X0117632Y0028481D02*
X0123537Y0028481D01*
X0123537Y0035174D01*
X0117632Y0035174D01*
X0117631Y0035174D02*
X0117595Y0035101D01*
X0117554Y0035030D01*
X0117511Y0034960D01*
X0117464Y0034893D01*
X0117414Y0034828D01*
X0117361Y0034766D01*
X0117306Y0034706D01*
X0117247Y0034649D01*
X0117186Y0034594D01*
X0117122Y0034543D01*
X0117056Y0034494D01*
X0116988Y0034449D01*
X0116918Y0034407D01*
X0116846Y0034368D01*
X0116772Y0034332D01*
X0116697Y0034301D01*
X0116620Y0034272D01*
X0116542Y0034248D01*
X0116463Y0034227D01*
X0116383Y0034210D01*
X0116302Y0034196D01*
X0116221Y0034187D01*
X0116139Y0034181D01*
X0116057Y0034179D01*
X0115975Y0034181D01*
X0115893Y0034187D01*
X0115812Y0034196D01*
X0115731Y0034210D01*
X0115651Y0034227D01*
X0115572Y0034248D01*
X0115494Y0034272D01*
X0115417Y0034301D01*
X0115342Y0034332D01*
X0115268Y0034368D01*
X0115196Y0034407D01*
X0115126Y0034449D01*
X0115058Y0034494D01*
X0114992Y0034543D01*
X0114928Y0034594D01*
X0114867Y0034649D01*
X0114808Y0034706D01*
X0114753Y0034766D01*
X0114700Y0034828D01*
X0114650Y0034893D01*
X0114603Y0034960D01*
X0114560Y0035030D01*
X0114519Y0035101D01*
X0114483Y0035174D01*
X0114482Y0035174D02*
X0108576Y0035174D01*
X0107363Y0033725D02*
X0107363Y0030022D01*
X0106129Y0028787D01*
X0104894Y0028787D01*
X0103660Y0030022D01*
X0103660Y0033725D01*
X0099957Y0033725D02*
X0107363Y0033725D01*
X0103660Y0030022D02*
X0102425Y0028787D01*
X0101191Y0028787D01*
X0099957Y0030022D01*
X0099957Y0033725D01*
X0099957Y0026174D02*
X0107363Y0026174D01*
X0107363Y0022471D01*
X0106129Y0021237D01*
X0103660Y0021237D01*
X0102425Y0022471D01*
X0102425Y0026174D01*
X0102425Y0023706D02*
X0099957Y0021237D01*
X0099957Y0018624D02*
X0107363Y0018624D01*
X0104894Y0016155D01*
X0107363Y0013686D01*
X0099957Y0013686D01*
X0099957Y0011074D02*
X0099957Y0006136D01*
X0099957Y0011074D02*
X0101191Y0011074D01*
X0106129Y0006136D01*
X0107363Y0006136D01*
X0107363Y0011074D01*
X0128691Y0058989D02*
X0127457Y0060224D01*
X0127457Y0062692D01*
X0128691Y0063927D01*
X0131160Y0062692D02*
X0131160Y0060224D01*
X0129925Y0058989D01*
X0128691Y0058989D01*
X0131160Y0062692D02*
X0132394Y0063927D01*
X0133629Y0063927D01*
X0134863Y0062692D01*
X0134863Y0060224D01*
X0133629Y0058989D01*
X0133629Y0066540D02*
X0128691Y0066540D01*
X0127457Y0067774D01*
X0127457Y0071477D01*
X0134863Y0071477D01*
X0134863Y0067774D01*
X0133629Y0066540D01*
X0140350Y0073762D02*
X0141585Y0072528D01*
X0146522Y0072528D01*
X0147757Y0073762D01*
X0147757Y0076231D01*
X0146522Y0077465D01*
X0141585Y0077465D01*
X0140350Y0076231D01*
X0140350Y0073762D01*
X0134863Y0075324D02*
X0133629Y0074090D01*
X0128691Y0074090D01*
X0127457Y0075324D01*
X0127457Y0079028D01*
X0134863Y0079028D01*
X0134863Y0075324D01*
X0140350Y0080078D02*
X0140350Y0083781D01*
X0141585Y0085016D01*
X0144054Y0085016D01*
X0145288Y0083781D01*
X0145288Y0080078D01*
X0147757Y0080078D02*
X0140350Y0080078D01*
X0142819Y0087628D02*
X0140350Y0090097D01*
X0142819Y0092566D01*
X0147757Y0092566D01*
X0147757Y0095179D02*
X0140350Y0095179D01*
X0142819Y0097648D01*
X0140350Y0100116D01*
X0147757Y0100116D01*
X0147757Y0102729D02*
X0140350Y0102729D01*
X0140350Y0106432D01*
X0141585Y0107667D01*
X0144054Y0107667D01*
X0145288Y0106432D01*
X0145288Y0102729D01*
X0144054Y0092566D02*
X0144054Y0087628D01*
X0142819Y0087628D02*
X0147757Y0087628D01*
X0164750Y0087832D02*
X0164750Y0085363D01*
X0165985Y0084128D01*
X0170922Y0084128D01*
X0172157Y0085363D01*
X0172157Y0087832D01*
X0170922Y0089066D01*
X0170922Y0091679D02*
X0168454Y0091679D01*
X0168454Y0095382D01*
X0169688Y0096616D01*
X0170922Y0096616D01*
X0172157Y0095382D01*
X0172157Y0092913D01*
X0170922Y0091679D01*
X0168454Y0091679D02*
X0165985Y0094148D01*
X0164750Y0096616D01*
X0168454Y0099229D02*
X0168454Y0104167D01*
X0169688Y0106780D02*
X0168454Y0108014D01*
X0168454Y0110483D01*
X0169688Y0111717D01*
X0170922Y0111717D01*
X0172157Y0110483D01*
X0172157Y0108014D01*
X0170922Y0106780D01*
X0169688Y0106780D01*
X0168454Y0108014D02*
X0167219Y0106780D01*
X0165985Y0106780D01*
X0164750Y0108014D01*
X0164750Y0110483D01*
X0165985Y0111717D01*
X0167219Y0111717D01*
X0168454Y0110483D01*
X0165985Y0114330D02*
X0164750Y0115565D01*
X0164750Y0118033D01*
X0165985Y0119268D01*
X0167219Y0119268D01*
X0172157Y0114330D01*
X0172157Y0119268D01*
X0172157Y0121881D02*
X0172157Y0124349D01*
X0172157Y0123115D02*
X0164750Y0123115D01*
X0164750Y0121881D02*
X0164750Y0124349D01*
X0164750Y0126914D02*
X0167219Y0129383D01*
X0164750Y0131852D01*
X0172157Y0131852D01*
X0172157Y0134465D02*
X0164750Y0134465D01*
X0167219Y0136934D01*
X0164750Y0139402D01*
X0172157Y0139402D01*
X0172157Y0126914D02*
X0164750Y0126914D01*
X0164750Y0102932D02*
X0168454Y0099229D01*
X0172157Y0102932D02*
X0164750Y0102932D01*
X0165985Y0089066D02*
X0164750Y0087832D01*
X0164750Y0081516D02*
X0172157Y0081516D01*
X0172157Y0076578D02*
X0164750Y0076578D01*
X0167219Y0079047D01*
X0164750Y0081516D01*
X0172157Y0073965D02*
X0172157Y0069028D01*
X0164750Y0069028D01*
D14*
X0150157Y0089628D02*
X0150226Y0089630D01*
X0150294Y0089636D01*
X0150362Y0089646D01*
X0150429Y0089659D01*
X0150495Y0089677D01*
X0150560Y0089698D01*
X0150624Y0089723D01*
X0150686Y0089751D01*
X0150747Y0089783D01*
X0150806Y0089818D01*
X0150862Y0089857D01*
X0150917Y0089899D01*
X0150968Y0089944D01*
X0151018Y0089992D01*
X0151064Y0090042D01*
X0151107Y0090095D01*
X0151148Y0090151D01*
X0151185Y0090208D01*
X0151218Y0090268D01*
X0151249Y0090330D01*
X0151275Y0090393D01*
X0151298Y0090457D01*
X0151318Y0090523D01*
X0151333Y0090590D01*
X0151345Y0090657D01*
X0151353Y0090725D01*
X0151357Y0090794D01*
X0151357Y0090862D01*
X0151353Y0090931D01*
X0151345Y0090999D01*
X0151333Y0091066D01*
X0151318Y0091133D01*
X0151298Y0091199D01*
X0151275Y0091263D01*
X0151249Y0091326D01*
X0151218Y0091388D01*
X0151185Y0091448D01*
X0151148Y0091505D01*
X0151107Y0091561D01*
X0151064Y0091614D01*
X0151018Y0091664D01*
X0150968Y0091712D01*
X0150917Y0091757D01*
X0150862Y0091799D01*
X0150806Y0091838D01*
X0150747Y0091873D01*
X0150686Y0091905D01*
X0150624Y0091933D01*
X0150560Y0091958D01*
X0150495Y0091979D01*
X0150429Y0091997D01*
X0150362Y0092010D01*
X0150294Y0092020D01*
X0150226Y0092026D01*
X0150157Y0092028D01*
D15*
X0122896Y0030052D02*
X0122896Y0029319D01*
X0122896Y0029685D02*
X0121796Y0029685D01*
X0122163Y0029319D01*
D16*
X0095057Y0029828D02*
X0095057Y0022328D01*
X0065057Y0022328D01*
X0065057Y0029828D01*
X0095057Y0029828D01*
X0095057Y0047328D01*
X0065057Y0047328D01*
X0065057Y0029828D01*
M02*
