G75*
%MOIN*%
%OFA0B0*%
%FSLAX25Y25*%
%IPPOS*%
%LPD*%
%AMOC8*
5,1,8,0,0,1.08239X$1,22.5*
%
%ADD10C,0.00800*%
%ADD11C,0.00600*%
%ADD12C,0.01300*%
%ADD13C,0.00200*%
%ADD14C,0.00300*%
%ADD15C,0.00500*%
%ADD16C,0.00400*%
%ADD17C,0.03000*%
%ADD18R,0.03000X0.02000*%
%ADD19R,0.03000X0.04000*%
D10*
X0072725Y0166986D02*
X0071924Y0167787D01*
X0071924Y0169388D01*
X0072725Y0170189D01*
X0073526Y0170189D01*
X0074326Y0169388D01*
X0074326Y0167787D01*
X0075127Y0166986D01*
X0075928Y0166986D01*
X0076728Y0167787D01*
X0076728Y0169388D01*
X0075928Y0170189D01*
X0075127Y0172143D02*
X0072725Y0172143D01*
X0071924Y0172943D01*
X0072725Y0173744D01*
X0071924Y0174545D01*
X0072725Y0175345D01*
X0075127Y0175345D01*
X0075127Y0177299D02*
X0075127Y0178100D01*
X0071924Y0178100D01*
X0071924Y0178900D02*
X0071924Y0177299D01*
X0072725Y0181537D02*
X0071924Y0182338D01*
X0072725Y0181537D02*
X0075928Y0181537D01*
X0075127Y0180737D02*
X0075127Y0182338D01*
X0074326Y0184174D02*
X0072725Y0184174D01*
X0071924Y0184975D01*
X0071924Y0187377D01*
X0071924Y0189331D02*
X0076728Y0189331D01*
X0075127Y0190131D02*
X0075127Y0191733D01*
X0074326Y0192533D01*
X0071924Y0192533D01*
X0074326Y0189331D02*
X0075127Y0190131D01*
X0075127Y0187377D02*
X0075127Y0184975D01*
X0074326Y0184174D01*
X0076728Y0178100D02*
X0077529Y0178100D01*
X0080324Y0178783D02*
X0083527Y0178783D01*
X0085128Y0177182D01*
X0083527Y0175580D01*
X0080324Y0175580D01*
X0080324Y0173744D02*
X0080324Y0172143D01*
X0080324Y0172943D02*
X0085128Y0172943D01*
X0085128Y0172143D02*
X0085128Y0173744D01*
X0082726Y0175580D02*
X0082726Y0178783D01*
X0085128Y0170189D02*
X0085128Y0166986D01*
X0085128Y0168588D02*
X0080324Y0168588D01*
D11*
X0113037Y0087647D02*
X0111336Y0086513D01*
X0113037Y0086513D02*
X0113037Y0089916D01*
X0115019Y0089916D02*
X0116720Y0088215D01*
X0114452Y0088215D01*
X0113037Y0087647D02*
X0111336Y0088782D01*
X0115019Y0089916D02*
X0115019Y0086513D01*
X0120784Y0086513D02*
X0122486Y0087647D01*
X0120784Y0088782D01*
X0122486Y0089916D02*
X0122486Y0086513D01*
X0123900Y0086513D02*
X0126169Y0086513D01*
X0123900Y0088782D01*
X0123900Y0089349D01*
X0124468Y0089916D01*
X0125602Y0089916D01*
X0126169Y0089349D01*
X0131021Y0088782D02*
X0132722Y0087647D01*
X0131021Y0086513D01*
X0132722Y0086513D02*
X0132722Y0089916D01*
X0135271Y0089916D02*
X0135271Y0086513D01*
X0136405Y0086513D02*
X0134137Y0086513D01*
X0136405Y0088782D02*
X0135271Y0089916D01*
X0139369Y0089349D02*
X0139369Y0087080D01*
X0139936Y0086513D01*
X0141070Y0086513D01*
X0141637Y0087080D01*
X0139369Y0089349D01*
X0139936Y0089916D01*
X0141070Y0089916D01*
X0141637Y0089349D01*
X0141637Y0087080D01*
X0143052Y0087080D02*
X0143619Y0086513D01*
X0144753Y0086513D01*
X0145321Y0087080D01*
X0143052Y0089349D01*
X0143052Y0087080D01*
X0145321Y0087080D02*
X0145321Y0089349D01*
X0144753Y0089916D01*
X0143619Y0089916D01*
X0143052Y0089349D01*
X0146735Y0089916D02*
X0149004Y0089916D01*
X0149004Y0088215D01*
X0147869Y0088782D01*
X0147302Y0088782D01*
X0146735Y0088215D01*
X0146735Y0087080D01*
X0147302Y0086513D01*
X0148437Y0086513D01*
X0149004Y0087080D01*
X0113271Y0107971D02*
X0109471Y0107971D01*
X0109471Y0119771D02*
X0110171Y0119771D01*
X0112571Y0119771D01*
X0113271Y0119771D01*
X0112571Y0119771D02*
X0112569Y0119702D01*
X0112563Y0119634D01*
X0112553Y0119566D01*
X0112540Y0119499D01*
X0112522Y0119433D01*
X0112501Y0119368D01*
X0112476Y0119304D01*
X0112448Y0119242D01*
X0112416Y0119181D01*
X0112381Y0119122D01*
X0112342Y0119066D01*
X0112300Y0119011D01*
X0112255Y0118960D01*
X0112207Y0118910D01*
X0112157Y0118864D01*
X0112104Y0118821D01*
X0112048Y0118780D01*
X0111991Y0118743D01*
X0111931Y0118710D01*
X0111869Y0118679D01*
X0111806Y0118653D01*
X0111742Y0118630D01*
X0111676Y0118610D01*
X0111609Y0118595D01*
X0111542Y0118583D01*
X0111474Y0118575D01*
X0111405Y0118571D01*
X0111337Y0118571D01*
X0111268Y0118575D01*
X0111200Y0118583D01*
X0111133Y0118595D01*
X0111066Y0118610D01*
X0111000Y0118630D01*
X0110936Y0118653D01*
X0110873Y0118679D01*
X0110811Y0118710D01*
X0110751Y0118743D01*
X0110694Y0118780D01*
X0110638Y0118821D01*
X0110585Y0118864D01*
X0110535Y0118910D01*
X0110487Y0118960D01*
X0110442Y0119011D01*
X0110400Y0119066D01*
X0110361Y0119122D01*
X0110326Y0119181D01*
X0110294Y0119242D01*
X0110266Y0119304D01*
X0110241Y0119368D01*
X0110220Y0119433D01*
X0110202Y0119499D01*
X0110189Y0119566D01*
X0110179Y0119634D01*
X0110173Y0119702D01*
X0110171Y0119771D01*
X0109471Y0125471D02*
X0113271Y0125471D01*
X0113271Y0137271D02*
X0112571Y0137271D01*
X0110171Y0137271D01*
X0109471Y0137271D01*
X0110171Y0137271D02*
X0110173Y0137202D01*
X0110179Y0137134D01*
X0110189Y0137066D01*
X0110202Y0136999D01*
X0110220Y0136933D01*
X0110241Y0136868D01*
X0110266Y0136804D01*
X0110294Y0136742D01*
X0110326Y0136681D01*
X0110361Y0136622D01*
X0110400Y0136566D01*
X0110442Y0136511D01*
X0110487Y0136460D01*
X0110535Y0136410D01*
X0110585Y0136364D01*
X0110638Y0136321D01*
X0110694Y0136280D01*
X0110751Y0136243D01*
X0110811Y0136210D01*
X0110873Y0136179D01*
X0110936Y0136153D01*
X0111000Y0136130D01*
X0111066Y0136110D01*
X0111133Y0136095D01*
X0111200Y0136083D01*
X0111268Y0136075D01*
X0111337Y0136071D01*
X0111405Y0136071D01*
X0111474Y0136075D01*
X0111542Y0136083D01*
X0111609Y0136095D01*
X0111676Y0136110D01*
X0111742Y0136130D01*
X0111806Y0136153D01*
X0111869Y0136179D01*
X0111931Y0136210D01*
X0111991Y0136243D01*
X0112048Y0136280D01*
X0112104Y0136321D01*
X0112157Y0136364D01*
X0112207Y0136410D01*
X0112255Y0136460D01*
X0112300Y0136511D01*
X0112342Y0136566D01*
X0112381Y0136622D01*
X0112416Y0136681D01*
X0112448Y0136742D01*
X0112476Y0136804D01*
X0112501Y0136868D01*
X0112522Y0136933D01*
X0112540Y0136999D01*
X0112553Y0137066D01*
X0112563Y0137134D01*
X0112569Y0137202D01*
X0112571Y0137271D01*
X0113271Y0142971D02*
X0109471Y0142971D01*
X0109471Y0154771D02*
X0110171Y0154771D01*
X0112571Y0154771D01*
X0113271Y0154771D01*
X0112571Y0154771D02*
X0112569Y0154702D01*
X0112563Y0154634D01*
X0112553Y0154566D01*
X0112540Y0154499D01*
X0112522Y0154433D01*
X0112501Y0154368D01*
X0112476Y0154304D01*
X0112448Y0154242D01*
X0112416Y0154181D01*
X0112381Y0154122D01*
X0112342Y0154066D01*
X0112300Y0154011D01*
X0112255Y0153960D01*
X0112207Y0153910D01*
X0112157Y0153864D01*
X0112104Y0153821D01*
X0112048Y0153780D01*
X0111991Y0153743D01*
X0111931Y0153710D01*
X0111869Y0153679D01*
X0111806Y0153653D01*
X0111742Y0153630D01*
X0111676Y0153610D01*
X0111609Y0153595D01*
X0111542Y0153583D01*
X0111474Y0153575D01*
X0111405Y0153571D01*
X0111337Y0153571D01*
X0111268Y0153575D01*
X0111200Y0153583D01*
X0111133Y0153595D01*
X0111066Y0153610D01*
X0111000Y0153630D01*
X0110936Y0153653D01*
X0110873Y0153679D01*
X0110811Y0153710D01*
X0110751Y0153743D01*
X0110694Y0153780D01*
X0110638Y0153821D01*
X0110585Y0153864D01*
X0110535Y0153910D01*
X0110487Y0153960D01*
X0110442Y0154011D01*
X0110400Y0154066D01*
X0110361Y0154122D01*
X0110326Y0154181D01*
X0110294Y0154242D01*
X0110266Y0154304D01*
X0110241Y0154368D01*
X0110220Y0154433D01*
X0110202Y0154499D01*
X0110189Y0154566D01*
X0110179Y0154634D01*
X0110173Y0154702D01*
X0110171Y0154771D01*
X0109471Y0160471D02*
X0113271Y0160471D01*
X0113271Y0172271D02*
X0112571Y0172271D01*
X0110171Y0172271D01*
X0109471Y0172271D01*
X0110171Y0172271D02*
X0110173Y0172202D01*
X0110179Y0172134D01*
X0110189Y0172066D01*
X0110202Y0171999D01*
X0110220Y0171933D01*
X0110241Y0171868D01*
X0110266Y0171804D01*
X0110294Y0171742D01*
X0110326Y0171681D01*
X0110361Y0171622D01*
X0110400Y0171566D01*
X0110442Y0171511D01*
X0110487Y0171460D01*
X0110535Y0171410D01*
X0110585Y0171364D01*
X0110638Y0171321D01*
X0110694Y0171280D01*
X0110751Y0171243D01*
X0110811Y0171210D01*
X0110873Y0171179D01*
X0110936Y0171153D01*
X0111000Y0171130D01*
X0111066Y0171110D01*
X0111133Y0171095D01*
X0111200Y0171083D01*
X0111268Y0171075D01*
X0111337Y0171071D01*
X0111405Y0171071D01*
X0111474Y0171075D01*
X0111542Y0171083D01*
X0111609Y0171095D01*
X0111676Y0171110D01*
X0111742Y0171130D01*
X0111806Y0171153D01*
X0111869Y0171179D01*
X0111931Y0171210D01*
X0111991Y0171243D01*
X0112048Y0171280D01*
X0112104Y0171321D01*
X0112157Y0171364D01*
X0112207Y0171410D01*
X0112255Y0171460D01*
X0112300Y0171511D01*
X0112342Y0171566D01*
X0112381Y0171622D01*
X0112416Y0171681D01*
X0112448Y0171742D01*
X0112476Y0171804D01*
X0112501Y0171868D01*
X0112522Y0171933D01*
X0112540Y0171999D01*
X0112553Y0172066D01*
X0112563Y0172134D01*
X0112569Y0172202D01*
X0112571Y0172271D01*
X0112436Y0177852D02*
X0112436Y0181255D01*
X0113571Y0180120D01*
X0113571Y0177852D02*
X0111302Y0177852D01*
X0109887Y0177852D02*
X0109887Y0181255D01*
X0108186Y0180120D02*
X0109887Y0178986D01*
X0108186Y0177852D01*
X0103334Y0178419D02*
X0102767Y0177852D01*
X0101633Y0177852D01*
X0101066Y0178419D01*
X0101066Y0179553D01*
X0101633Y0180120D01*
X0102200Y0180120D01*
X0103334Y0179553D01*
X0103334Y0181255D01*
X0101066Y0181255D01*
X0099651Y0181255D02*
X0099651Y0177852D01*
X0099651Y0178986D02*
X0097950Y0180120D01*
X0096248Y0180120D02*
X0095113Y0181255D01*
X0095113Y0177852D01*
X0093979Y0177852D02*
X0096248Y0177852D01*
X0097950Y0177852D02*
X0099651Y0178986D01*
X0092565Y0178419D02*
X0090296Y0180687D01*
X0090296Y0178419D01*
X0090863Y0177852D01*
X0091997Y0177852D01*
X0092565Y0178419D01*
X0092565Y0180687D01*
X0091997Y0181255D01*
X0090863Y0181255D01*
X0090296Y0180687D01*
X0088881Y0181255D02*
X0088881Y0177852D01*
X0088881Y0178986D02*
X0087180Y0180120D01*
X0088881Y0178986D02*
X0087180Y0177852D01*
X0086371Y0196371D02*
X0076371Y0196371D01*
X0076371Y0206371D01*
X0086371Y0206371D01*
X0096371Y0206371D01*
X0106371Y0206371D01*
X0116371Y0206371D01*
X0126371Y0206371D01*
X0126371Y0196371D01*
X0116371Y0196371D01*
X0106371Y0196371D01*
X0096371Y0196371D01*
X0086371Y0196371D01*
X0086371Y0206371D01*
X0096371Y0206371D02*
X0096371Y0196371D01*
X0106371Y0196371D02*
X0106371Y0206371D01*
X0116371Y0206371D02*
X0116371Y0196371D01*
X0131371Y0196371D02*
X0131371Y0206371D01*
X0141371Y0206371D01*
X0151371Y0206371D01*
X0161371Y0206371D01*
X0161371Y0196371D01*
X0151371Y0196371D01*
X0141371Y0196371D01*
X0131371Y0196371D01*
X0141371Y0196371D02*
X0141371Y0206371D01*
X0151371Y0206371D02*
X0151371Y0196371D01*
X0151332Y0182766D02*
X0150198Y0182766D01*
X0149631Y0182199D01*
X0151899Y0179931D01*
X0151332Y0179364D01*
X0150198Y0179364D01*
X0149631Y0179931D01*
X0149631Y0182199D01*
X0151332Y0182766D02*
X0151899Y0182199D01*
X0151899Y0179931D01*
X0153314Y0181065D02*
X0155583Y0181065D01*
X0153881Y0182766D01*
X0153881Y0179364D01*
X0156997Y0179364D02*
X0159266Y0181632D01*
X0159266Y0179364D02*
X0156997Y0181632D01*
X0147429Y0181695D02*
X0145160Y0179427D01*
X0143746Y0179427D02*
X0141477Y0179427D01*
X0142611Y0179427D02*
X0142611Y0182829D01*
X0143746Y0181695D01*
X0145160Y0181695D02*
X0147429Y0179427D01*
X0122232Y0178419D02*
X0119963Y0180687D01*
X0119963Y0178419D01*
X0120531Y0177852D01*
X0121665Y0177852D01*
X0122232Y0178419D01*
X0122232Y0180687D01*
X0121665Y0181255D01*
X0120531Y0181255D01*
X0119963Y0180687D01*
X0081371Y0141371D02*
X0076371Y0141371D01*
X0073871Y0138871D01*
X0073871Y0133871D01*
X0076371Y0131371D01*
X0081371Y0131371D01*
X0083871Y0133871D01*
X0083871Y0138871D01*
X0081371Y0141371D01*
X0170071Y0142671D02*
X0170071Y0137571D01*
X0170071Y0135171D01*
X0170071Y0130071D01*
X0170071Y0135171D02*
X0170140Y0135173D01*
X0170208Y0135179D01*
X0170276Y0135189D01*
X0170343Y0135202D01*
X0170409Y0135220D01*
X0170474Y0135241D01*
X0170538Y0135266D01*
X0170600Y0135294D01*
X0170661Y0135326D01*
X0170720Y0135361D01*
X0170776Y0135400D01*
X0170831Y0135442D01*
X0170882Y0135487D01*
X0170932Y0135535D01*
X0170978Y0135585D01*
X0171021Y0135638D01*
X0171062Y0135694D01*
X0171099Y0135751D01*
X0171132Y0135811D01*
X0171163Y0135873D01*
X0171189Y0135936D01*
X0171212Y0136000D01*
X0171232Y0136066D01*
X0171247Y0136133D01*
X0171259Y0136200D01*
X0171267Y0136268D01*
X0171271Y0136337D01*
X0171271Y0136405D01*
X0171267Y0136474D01*
X0171259Y0136542D01*
X0171247Y0136609D01*
X0171232Y0136676D01*
X0171212Y0136742D01*
X0171189Y0136806D01*
X0171163Y0136869D01*
X0171132Y0136931D01*
X0171099Y0136991D01*
X0171062Y0137048D01*
X0171021Y0137104D01*
X0170978Y0137157D01*
X0170932Y0137207D01*
X0170882Y0137255D01*
X0170831Y0137300D01*
X0170776Y0137342D01*
X0170720Y0137381D01*
X0170661Y0137416D01*
X0170600Y0137448D01*
X0170538Y0137476D01*
X0170474Y0137501D01*
X0170409Y0137522D01*
X0170343Y0137540D01*
X0170276Y0137553D01*
X0170208Y0137563D01*
X0170140Y0137569D01*
X0170071Y0137571D01*
X0182671Y0142671D02*
X0182671Y0130071D01*
X0188755Y0117475D02*
X0188188Y0116908D01*
X0190456Y0114639D01*
X0189889Y0114072D01*
X0188755Y0114072D01*
X0188188Y0114639D01*
X0188188Y0116908D01*
X0188755Y0117475D02*
X0189889Y0117475D01*
X0190456Y0116908D01*
X0190456Y0114639D01*
X0191871Y0114072D02*
X0194139Y0114072D01*
X0193005Y0114072D02*
X0193005Y0117475D01*
X0194139Y0116341D01*
X0195554Y0116341D02*
X0197823Y0114072D01*
X0197823Y0116341D02*
X0195554Y0114072D01*
X0193005Y0107239D02*
X0193005Y0103836D01*
X0194139Y0103836D02*
X0191871Y0103836D01*
X0194139Y0106105D02*
X0193005Y0107239D01*
X0195554Y0106105D02*
X0197823Y0103836D01*
X0197823Y0106105D02*
X0195554Y0103836D01*
X0196909Y0097790D02*
X0198043Y0097790D01*
X0198610Y0097223D01*
X0198610Y0094954D01*
X0198043Y0094387D01*
X0196909Y0094387D01*
X0196341Y0094954D01*
X0196341Y0096089D01*
X0197476Y0096089D01*
X0196341Y0097223D02*
X0196909Y0097790D01*
D12*
X0197971Y0170676D02*
X0197021Y0171627D01*
X0197021Y0173529D01*
X0197971Y0174479D01*
X0197021Y0177122D02*
X0202725Y0177122D01*
X0201775Y0174479D02*
X0202725Y0173529D01*
X0202725Y0171627D01*
X0201775Y0170676D01*
X0197971Y0170676D01*
X0199873Y0177122D02*
X0199873Y0180925D01*
X0198922Y0183567D02*
X0202725Y0187370D01*
X0202725Y0183567D02*
X0197021Y0183567D01*
X0197021Y0180925D02*
X0202725Y0180925D01*
X0199873Y0184518D02*
X0197021Y0187370D01*
X0207521Y0174479D02*
X0207521Y0170676D01*
X0208471Y0170676D01*
X0212275Y0174479D01*
X0213225Y0174479D01*
X0213225Y0170676D01*
X0088024Y0129412D02*
X0088024Y0125609D01*
X0087073Y0124658D01*
X0085171Y0124658D01*
X0084221Y0125609D01*
X0081578Y0125609D02*
X0080627Y0124658D01*
X0078726Y0124658D01*
X0077775Y0125609D01*
X0077775Y0126560D01*
X0078726Y0127511D01*
X0080627Y0127511D01*
X0081578Y0128462D01*
X0081578Y0129412D01*
X0080627Y0130363D01*
X0078726Y0130363D01*
X0077775Y0129412D01*
X0075133Y0127511D02*
X0071330Y0127511D01*
X0073231Y0129412D02*
X0073231Y0125609D01*
X0084221Y0129412D02*
X0085171Y0130363D01*
X0087073Y0130363D01*
X0088024Y0129412D01*
X0086286Y0112253D02*
X0084384Y0112253D01*
X0083433Y0111302D01*
X0080791Y0111302D02*
X0080791Y0110351D01*
X0079840Y0109401D01*
X0077938Y0109401D01*
X0076988Y0108450D01*
X0076988Y0107499D01*
X0077938Y0106548D01*
X0079840Y0106548D01*
X0080791Y0107499D01*
X0083433Y0107499D02*
X0084384Y0106548D01*
X0086286Y0106548D01*
X0087236Y0107499D01*
X0087236Y0111302D01*
X0086286Y0112253D01*
X0080791Y0111302D02*
X0079840Y0112253D01*
X0077938Y0112253D01*
X0076988Y0111302D01*
X0074345Y0109401D02*
X0070542Y0109401D01*
D13*
X0089522Y0118642D02*
X0089522Y0119561D01*
X0089981Y0120020D01*
X0089522Y0120902D02*
X0089522Y0122739D01*
X0089522Y0121820D02*
X0092277Y0121820D01*
X0091359Y0120902D01*
X0091818Y0120020D02*
X0092277Y0119561D01*
X0092277Y0118642D01*
X0091818Y0118183D01*
X0089981Y0118183D01*
X0089522Y0118642D01*
X0089981Y0123621D02*
X0089522Y0124080D01*
X0089522Y0124998D01*
X0089981Y0125458D01*
X0090440Y0125458D01*
X0090899Y0124998D01*
X0090899Y0123621D01*
X0089981Y0123621D01*
X0090899Y0123621D02*
X0091818Y0124539D01*
X0092277Y0125458D01*
X0091818Y0129896D02*
X0089981Y0129896D01*
X0089522Y0130355D01*
X0089522Y0131273D01*
X0089981Y0131733D01*
X0089522Y0132615D02*
X0089522Y0134451D01*
X0089522Y0133533D02*
X0092277Y0133533D01*
X0091359Y0132615D01*
X0091818Y0131733D02*
X0092277Y0131273D01*
X0092277Y0130355D01*
X0091818Y0129896D01*
X0091818Y0135334D02*
X0091359Y0135334D01*
X0090899Y0135793D01*
X0090899Y0137170D01*
X0089981Y0137170D02*
X0091818Y0137170D01*
X0092277Y0136711D01*
X0092277Y0135793D01*
X0091818Y0135334D01*
X0089981Y0135334D02*
X0089522Y0135793D01*
X0089522Y0136711D01*
X0089981Y0137170D01*
X0100217Y0148183D02*
X0099758Y0148642D01*
X0099758Y0149561D01*
X0100217Y0150020D01*
X0099758Y0150902D02*
X0099758Y0152739D01*
X0099758Y0151820D02*
X0102513Y0151820D01*
X0101595Y0150902D01*
X0102054Y0150020D02*
X0102513Y0149561D01*
X0102513Y0148642D01*
X0102054Y0148183D01*
X0100217Y0148183D01*
X0100217Y0153621D02*
X0100676Y0153621D01*
X0101136Y0154080D01*
X0101136Y0154998D01*
X0100676Y0155458D01*
X0100217Y0155458D01*
X0099758Y0154998D01*
X0099758Y0154080D01*
X0100217Y0153621D01*
X0101136Y0154080D02*
X0101595Y0153621D01*
X0102054Y0153621D01*
X0102513Y0154080D01*
X0102513Y0154998D01*
X0102054Y0155458D01*
X0101595Y0155458D01*
X0101136Y0154998D01*
X0102054Y0165683D02*
X0100217Y0165683D01*
X0099758Y0166142D01*
X0099758Y0167061D01*
X0100217Y0167520D01*
X0099758Y0168402D02*
X0099758Y0170239D01*
X0099758Y0171121D02*
X0100217Y0171121D01*
X0102054Y0172958D01*
X0102513Y0172958D01*
X0102513Y0171121D01*
X0102513Y0169320D02*
X0099758Y0169320D01*
X0101595Y0168402D02*
X0102513Y0169320D01*
X0102054Y0167520D02*
X0102513Y0167061D01*
X0102513Y0166142D01*
X0102054Y0165683D01*
X0125034Y0170132D02*
X0127789Y0170132D01*
X0127789Y0171510D01*
X0127330Y0171969D01*
X0126411Y0171969D01*
X0125952Y0171510D01*
X0125952Y0170132D01*
X0125952Y0171050D02*
X0125034Y0171969D01*
X0125493Y0172851D02*
X0125034Y0173310D01*
X0125034Y0174228D01*
X0125493Y0174688D01*
X0126411Y0174688D01*
X0126870Y0174228D01*
X0126870Y0173769D01*
X0126411Y0172851D01*
X0127789Y0172851D01*
X0127789Y0174688D01*
X0127789Y0175570D02*
X0126411Y0175570D01*
X0126870Y0176488D01*
X0126870Y0176947D01*
X0126411Y0177406D01*
X0125493Y0177406D01*
X0125034Y0176947D01*
X0125034Y0176029D01*
X0125493Y0175570D01*
X0127789Y0175570D02*
X0127789Y0177406D01*
X0130034Y0176947D02*
X0132789Y0176947D01*
X0131411Y0175570D01*
X0131411Y0177406D01*
X0131411Y0174688D02*
X0130493Y0174688D01*
X0130034Y0174228D01*
X0130034Y0173310D01*
X0130493Y0172851D01*
X0131411Y0172851D02*
X0131870Y0173769D01*
X0131870Y0174228D01*
X0131411Y0174688D01*
X0132789Y0174688D02*
X0132789Y0172851D01*
X0131411Y0172851D01*
X0131411Y0171969D02*
X0130952Y0171510D01*
X0130952Y0170132D01*
X0130952Y0171050D02*
X0130034Y0171969D01*
X0131411Y0171969D02*
X0132330Y0171969D01*
X0132789Y0171510D01*
X0132789Y0170132D01*
X0130034Y0170132D01*
X0135034Y0170132D02*
X0137789Y0170132D01*
X0137789Y0171510D01*
X0137330Y0171969D01*
X0136411Y0171969D01*
X0135952Y0171510D01*
X0135952Y0170132D01*
X0135952Y0171050D02*
X0135034Y0171969D01*
X0135493Y0172851D02*
X0135034Y0173310D01*
X0135034Y0174228D01*
X0135493Y0174688D01*
X0136411Y0174688D01*
X0136870Y0174228D01*
X0136870Y0173769D01*
X0136411Y0172851D01*
X0137789Y0172851D01*
X0137789Y0174688D01*
X0137330Y0175570D02*
X0137789Y0176029D01*
X0137789Y0176947D01*
X0137330Y0177406D01*
X0136870Y0177406D01*
X0136411Y0176947D01*
X0135952Y0177406D01*
X0135493Y0177406D01*
X0135034Y0176947D01*
X0135034Y0176029D01*
X0135493Y0175570D01*
X0136411Y0176488D02*
X0136411Y0176947D01*
X0140034Y0177406D02*
X0140034Y0175570D01*
X0141870Y0177406D01*
X0142330Y0177406D01*
X0142789Y0176947D01*
X0142789Y0176029D01*
X0142330Y0175570D01*
X0142789Y0174688D02*
X0142789Y0172851D01*
X0141411Y0172851D01*
X0141870Y0173769D01*
X0141870Y0174228D01*
X0141411Y0174688D01*
X0140493Y0174688D01*
X0140034Y0174228D01*
X0140034Y0173310D01*
X0140493Y0172851D01*
X0140034Y0171969D02*
X0140952Y0171050D01*
X0140952Y0171510D02*
X0140952Y0170132D01*
X0140034Y0170132D02*
X0142789Y0170132D01*
X0142789Y0171510D01*
X0142330Y0171969D01*
X0141411Y0171969D01*
X0140952Y0171510D01*
X0145034Y0171969D02*
X0145952Y0171050D01*
X0145952Y0171510D02*
X0145952Y0170132D01*
X0145034Y0170132D02*
X0147789Y0170132D01*
X0147789Y0171510D01*
X0147330Y0171969D01*
X0146411Y0171969D01*
X0145952Y0171510D01*
X0146411Y0172851D02*
X0146870Y0173769D01*
X0146870Y0174228D01*
X0146411Y0174688D01*
X0145493Y0174688D01*
X0145034Y0174228D01*
X0145034Y0173310D01*
X0145493Y0172851D01*
X0146411Y0172851D02*
X0147789Y0172851D01*
X0147789Y0174688D01*
X0146870Y0175570D02*
X0147789Y0176488D01*
X0145034Y0176488D01*
X0145034Y0175570D02*
X0145034Y0177406D01*
X0150794Y0167789D02*
X0152171Y0166411D01*
X0150335Y0166411D01*
X0150794Y0165034D02*
X0150794Y0167789D01*
X0153054Y0166411D02*
X0154890Y0166411D01*
X0153513Y0167789D01*
X0153513Y0165034D01*
X0153725Y0162789D02*
X0153266Y0162330D01*
X0153266Y0161870D01*
X0153725Y0161411D01*
X0153266Y0160952D01*
X0153266Y0160493D01*
X0153725Y0160034D01*
X0154644Y0160034D01*
X0155103Y0160493D01*
X0155985Y0160034D02*
X0156903Y0160952D01*
X0156444Y0160952D02*
X0157822Y0160952D01*
X0157822Y0160034D02*
X0157822Y0162789D01*
X0156444Y0162789D01*
X0155985Y0162330D01*
X0155985Y0161411D01*
X0156444Y0160952D01*
X0155103Y0162330D02*
X0154644Y0162789D01*
X0153725Y0162789D01*
X0153725Y0161411D02*
X0154185Y0161411D01*
X0152384Y0161870D02*
X0151925Y0161411D01*
X0150547Y0161411D01*
X0150547Y0160493D02*
X0150547Y0162330D01*
X0151007Y0162789D01*
X0151925Y0162789D01*
X0152384Y0162330D01*
X0152384Y0161870D01*
X0152384Y0160493D02*
X0151925Y0160034D01*
X0151007Y0160034D01*
X0150547Y0160493D01*
X0151794Y0157789D02*
X0151335Y0157330D01*
X0151335Y0156870D01*
X0151794Y0156411D01*
X0152712Y0156411D01*
X0153171Y0156870D01*
X0153171Y0157330D01*
X0152712Y0157789D01*
X0151794Y0157789D01*
X0151794Y0156411D02*
X0151335Y0155952D01*
X0151335Y0155493D01*
X0151794Y0155034D01*
X0152712Y0155034D01*
X0153171Y0155493D01*
X0153171Y0155952D01*
X0152712Y0156411D01*
X0154054Y0155952D02*
X0154054Y0155493D01*
X0154513Y0155034D01*
X0155431Y0155034D01*
X0155890Y0155493D01*
X0156772Y0155034D02*
X0157691Y0155952D01*
X0157232Y0155952D02*
X0158609Y0155952D01*
X0158609Y0155034D02*
X0158609Y0157789D01*
X0157232Y0157789D01*
X0156772Y0157330D01*
X0156772Y0156411D01*
X0157232Y0155952D01*
X0155890Y0157330D02*
X0155431Y0157789D01*
X0154513Y0157789D01*
X0154054Y0157330D01*
X0154054Y0156870D01*
X0154513Y0156411D01*
X0154054Y0155952D01*
X0154513Y0156411D02*
X0154972Y0156411D01*
X0155431Y0152789D02*
X0154513Y0152789D01*
X0154054Y0152330D01*
X0154054Y0151870D01*
X0154513Y0151411D01*
X0154054Y0150952D01*
X0154054Y0150493D01*
X0154513Y0150034D01*
X0155431Y0150034D01*
X0155890Y0150493D01*
X0156772Y0150034D02*
X0157691Y0150952D01*
X0157232Y0150952D02*
X0158609Y0150952D01*
X0158609Y0150034D02*
X0158609Y0152789D01*
X0157232Y0152789D01*
X0156772Y0152330D01*
X0156772Y0151411D01*
X0157232Y0150952D01*
X0155890Y0152330D02*
X0155431Y0152789D01*
X0154972Y0151411D02*
X0154513Y0151411D01*
X0153171Y0150493D02*
X0153171Y0150034D01*
X0153171Y0150493D02*
X0151335Y0152330D01*
X0151335Y0152789D01*
X0153171Y0152789D01*
X0154513Y0147789D02*
X0154054Y0147330D01*
X0154054Y0146870D01*
X0154513Y0146411D01*
X0154054Y0145952D01*
X0154054Y0145493D01*
X0154513Y0145034D01*
X0155431Y0145034D01*
X0155890Y0145493D01*
X0156772Y0145034D02*
X0157691Y0145952D01*
X0157232Y0145952D02*
X0158609Y0145952D01*
X0158609Y0145034D02*
X0158609Y0147789D01*
X0157232Y0147789D01*
X0156772Y0147330D01*
X0156772Y0146411D01*
X0157232Y0145952D01*
X0155890Y0147330D02*
X0155431Y0147789D01*
X0154513Y0147789D01*
X0154513Y0146411D02*
X0154972Y0146411D01*
X0153171Y0146411D02*
X0151794Y0146411D01*
X0151335Y0145952D01*
X0151335Y0145493D01*
X0151794Y0145034D01*
X0152712Y0145034D01*
X0153171Y0145493D01*
X0153171Y0146411D01*
X0152253Y0147330D01*
X0151335Y0147789D01*
X0147789Y0151845D02*
X0147789Y0153222D01*
X0147330Y0153681D01*
X0146411Y0153681D01*
X0145952Y0153222D01*
X0145952Y0151845D01*
X0145952Y0152763D02*
X0145034Y0153681D01*
X0145493Y0154563D02*
X0145034Y0155023D01*
X0145034Y0155941D01*
X0145493Y0156400D01*
X0146411Y0156400D01*
X0146870Y0155941D01*
X0146870Y0155482D01*
X0146411Y0154563D01*
X0147789Y0154563D01*
X0147789Y0156400D01*
X0146411Y0157282D02*
X0145493Y0157282D01*
X0145034Y0157741D01*
X0145034Y0158660D01*
X0145493Y0159119D01*
X0145952Y0159119D01*
X0146411Y0158660D01*
X0146411Y0157282D01*
X0147330Y0158201D01*
X0147789Y0159119D01*
X0142789Y0159119D02*
X0142789Y0157282D01*
X0142789Y0156400D02*
X0142789Y0154563D01*
X0141411Y0154563D01*
X0141870Y0155482D01*
X0141870Y0155941D01*
X0141411Y0156400D01*
X0140493Y0156400D01*
X0140034Y0155941D01*
X0140034Y0155023D01*
X0140493Y0154563D01*
X0140034Y0153681D02*
X0140952Y0152763D01*
X0140952Y0153222D02*
X0140952Y0151845D01*
X0140034Y0151845D02*
X0142789Y0151845D01*
X0142789Y0153222D01*
X0142330Y0153681D01*
X0141411Y0153681D01*
X0140952Y0153222D01*
X0145034Y0151845D02*
X0147789Y0151845D01*
X0142330Y0159119D02*
X0140493Y0157282D01*
X0140034Y0157282D01*
X0137789Y0157741D02*
X0137789Y0158660D01*
X0137330Y0159119D01*
X0136870Y0159119D01*
X0136411Y0158660D01*
X0136411Y0157741D01*
X0136870Y0157282D01*
X0137330Y0157282D01*
X0137789Y0157741D01*
X0137789Y0156400D02*
X0137789Y0154563D01*
X0136411Y0154563D01*
X0136870Y0155482D01*
X0136870Y0155941D01*
X0136411Y0156400D01*
X0135493Y0156400D01*
X0135034Y0155941D01*
X0135034Y0155023D01*
X0135493Y0154563D01*
X0135034Y0153681D02*
X0135952Y0152763D01*
X0135952Y0153222D02*
X0135952Y0151845D01*
X0135034Y0151845D02*
X0137789Y0151845D01*
X0137789Y0153222D01*
X0137330Y0153681D01*
X0136411Y0153681D01*
X0135952Y0153222D01*
X0132789Y0153222D02*
X0132789Y0151845D01*
X0130034Y0151845D01*
X0130952Y0151845D02*
X0130952Y0153222D01*
X0131411Y0153681D01*
X0132330Y0153681D01*
X0132789Y0153222D01*
X0132789Y0154563D02*
X0131411Y0154563D01*
X0131870Y0155482D01*
X0131870Y0155941D01*
X0131411Y0156400D01*
X0130493Y0156400D01*
X0130034Y0155941D01*
X0130034Y0155023D01*
X0130493Y0154563D01*
X0130034Y0153681D02*
X0130952Y0152763D01*
X0132789Y0154563D02*
X0132789Y0156400D01*
X0132330Y0157282D02*
X0131870Y0157282D01*
X0131411Y0157741D01*
X0131411Y0159119D01*
X0130493Y0159119D02*
X0132330Y0159119D01*
X0132789Y0158660D01*
X0132789Y0157741D01*
X0132330Y0157282D01*
X0130493Y0157282D02*
X0130034Y0157741D01*
X0130034Y0158660D01*
X0130493Y0159119D01*
X0135034Y0158660D02*
X0135034Y0157741D01*
X0135493Y0157282D01*
X0135952Y0157282D01*
X0136411Y0157741D01*
X0136411Y0158660D02*
X0135952Y0159119D01*
X0135493Y0159119D01*
X0135034Y0158660D01*
X0127789Y0158660D02*
X0127330Y0159119D01*
X0125493Y0157282D01*
X0125034Y0157741D01*
X0125034Y0158660D01*
X0125493Y0159119D01*
X0127330Y0159119D01*
X0127789Y0158660D02*
X0127789Y0157741D01*
X0127330Y0157282D01*
X0125493Y0157282D01*
X0125493Y0156400D02*
X0125034Y0155941D01*
X0125034Y0155023D01*
X0125493Y0154563D01*
X0126411Y0154563D01*
X0126411Y0155941D01*
X0125952Y0156400D01*
X0125493Y0156400D01*
X0127330Y0155482D02*
X0126411Y0154563D01*
X0126411Y0153681D02*
X0125952Y0153222D01*
X0125952Y0151845D01*
X0125952Y0152763D02*
X0125034Y0153681D01*
X0126411Y0153681D02*
X0127330Y0153681D01*
X0127789Y0153222D01*
X0127789Y0151845D01*
X0125034Y0151845D01*
X0127330Y0155482D02*
X0127789Y0156400D01*
X0127789Y0141619D02*
X0127789Y0139782D01*
X0126411Y0139782D01*
X0126870Y0140701D01*
X0126870Y0141160D01*
X0126411Y0141619D01*
X0125493Y0141619D01*
X0125034Y0141160D01*
X0125034Y0140241D01*
X0125493Y0139782D01*
X0125493Y0138900D02*
X0125952Y0138900D01*
X0126411Y0138441D01*
X0126411Y0137063D01*
X0125493Y0137063D01*
X0125034Y0137523D01*
X0125034Y0138441D01*
X0125493Y0138900D01*
X0127330Y0137982D02*
X0127789Y0138900D01*
X0127330Y0137982D02*
X0126411Y0137063D01*
X0126411Y0136181D02*
X0125952Y0135722D01*
X0125952Y0134345D01*
X0125952Y0135263D02*
X0125034Y0136181D01*
X0126411Y0136181D02*
X0127330Y0136181D01*
X0127789Y0135722D01*
X0127789Y0134345D01*
X0125034Y0134345D01*
X0130034Y0134345D02*
X0132789Y0134345D01*
X0132789Y0135722D01*
X0132330Y0136181D01*
X0131411Y0136181D01*
X0130952Y0135722D01*
X0130952Y0134345D01*
X0130952Y0135263D02*
X0130034Y0136181D01*
X0130493Y0137063D02*
X0130034Y0137523D01*
X0130034Y0138441D01*
X0130493Y0138900D01*
X0130952Y0138900D01*
X0131411Y0138441D01*
X0131411Y0137063D01*
X0130493Y0137063D01*
X0131411Y0137063D02*
X0132330Y0137982D01*
X0132789Y0138900D01*
X0131411Y0139782D02*
X0131411Y0141619D01*
X0130034Y0141160D02*
X0132789Y0141160D01*
X0131411Y0139782D01*
X0135034Y0140241D02*
X0135034Y0141160D01*
X0135493Y0141619D01*
X0135952Y0141619D01*
X0136411Y0141160D01*
X0136411Y0140701D01*
X0136411Y0141160D02*
X0136870Y0141619D01*
X0137330Y0141619D01*
X0137789Y0141160D01*
X0137789Y0140241D01*
X0137330Y0139782D01*
X0137789Y0138900D02*
X0137330Y0137982D01*
X0136411Y0137063D01*
X0136411Y0138441D01*
X0135952Y0138900D01*
X0135493Y0138900D01*
X0135034Y0138441D01*
X0135034Y0137523D01*
X0135493Y0137063D01*
X0136411Y0137063D01*
X0136411Y0136181D02*
X0135952Y0135722D01*
X0135952Y0134345D01*
X0135952Y0135263D02*
X0135034Y0136181D01*
X0136411Y0136181D02*
X0137330Y0136181D01*
X0137789Y0135722D01*
X0137789Y0134345D01*
X0135034Y0134345D01*
X0140034Y0134345D02*
X0142789Y0134345D01*
X0142789Y0135722D01*
X0142330Y0136181D01*
X0141411Y0136181D01*
X0140952Y0135722D01*
X0140952Y0134345D01*
X0140952Y0135263D02*
X0140034Y0136181D01*
X0140493Y0137063D02*
X0140034Y0137523D01*
X0140034Y0138441D01*
X0140493Y0138900D01*
X0140952Y0138900D01*
X0141411Y0138441D01*
X0141411Y0137063D01*
X0140493Y0137063D01*
X0141411Y0137063D02*
X0142330Y0137982D01*
X0142789Y0138900D01*
X0142330Y0139782D02*
X0142789Y0140241D01*
X0142789Y0141160D01*
X0142330Y0141619D01*
X0141870Y0141619D01*
X0140034Y0139782D01*
X0140034Y0141619D01*
X0135493Y0139782D02*
X0135034Y0140241D01*
X0145034Y0139782D02*
X0145034Y0141619D01*
X0145034Y0140701D02*
X0147789Y0140701D01*
X0146870Y0139782D01*
X0145952Y0138900D02*
X0146411Y0138441D01*
X0146411Y0137063D01*
X0145493Y0137063D01*
X0145034Y0137523D01*
X0145034Y0138441D01*
X0145493Y0138900D01*
X0145952Y0138900D01*
X0147330Y0137982D02*
X0147789Y0138900D01*
X0147330Y0137982D02*
X0146411Y0137063D01*
X0146411Y0136181D02*
X0145952Y0135722D01*
X0145952Y0134345D01*
X0145952Y0135263D02*
X0145034Y0136181D01*
X0146411Y0136181D02*
X0147330Y0136181D01*
X0147789Y0135722D01*
X0147789Y0134345D01*
X0145034Y0134345D01*
X0160322Y0135119D02*
X0160781Y0134660D01*
X0161700Y0134660D01*
X0162159Y0135119D01*
X0163041Y0134660D02*
X0164878Y0134660D01*
X0163959Y0134660D02*
X0163959Y0137415D01*
X0164878Y0136496D01*
X0165760Y0136955D02*
X0166219Y0137415D01*
X0167137Y0137415D01*
X0167596Y0136955D01*
X0167596Y0135119D01*
X0167137Y0134660D01*
X0166219Y0134660D01*
X0165760Y0135119D01*
X0162159Y0136955D02*
X0161700Y0137415D01*
X0160781Y0137415D01*
X0160322Y0136955D01*
X0160322Y0136496D01*
X0160781Y0136037D01*
X0160322Y0135578D01*
X0160322Y0135119D01*
X0160781Y0136037D02*
X0161240Y0136037D01*
X0181904Y0153964D02*
X0184659Y0153964D01*
X0184659Y0155341D01*
X0184200Y0155800D01*
X0183281Y0155800D01*
X0182822Y0155341D01*
X0182822Y0153964D01*
X0182822Y0154882D02*
X0181904Y0155800D01*
X0183281Y0156682D02*
X0183281Y0158519D01*
X0182363Y0159401D02*
X0184200Y0161238D01*
X0182363Y0161238D01*
X0181904Y0160779D01*
X0181904Y0159861D01*
X0182363Y0159401D01*
X0184200Y0159401D01*
X0184659Y0159861D01*
X0184659Y0160779D01*
X0184200Y0161238D01*
X0185329Y0161238D02*
X0185329Y0159401D01*
X0185329Y0160320D02*
X0188084Y0160320D01*
X0187166Y0159401D01*
X0186706Y0158519D02*
X0186706Y0156682D01*
X0188084Y0158060D01*
X0185329Y0158060D01*
X0184659Y0158060D02*
X0183281Y0156682D01*
X0181904Y0158060D02*
X0184659Y0158060D01*
X0185329Y0155800D02*
X0186247Y0154882D01*
X0186247Y0155341D02*
X0186247Y0153964D01*
X0185329Y0153964D02*
X0188084Y0153964D01*
X0188084Y0155341D01*
X0187625Y0155800D01*
X0186706Y0155800D01*
X0186247Y0155341D01*
X0185325Y0147736D02*
X0186702Y0146358D01*
X0184865Y0146358D01*
X0185325Y0144980D02*
X0185325Y0147736D01*
X0188503Y0147736D02*
X0188503Y0144980D01*
X0189421Y0144980D02*
X0187584Y0144980D01*
X0189421Y0146817D02*
X0188503Y0147736D01*
X0190303Y0147276D02*
X0190762Y0147736D01*
X0191681Y0147736D01*
X0192140Y0147276D01*
X0192140Y0145440D01*
X0191681Y0144980D01*
X0190762Y0144980D01*
X0190303Y0145440D01*
X0189974Y0140458D02*
X0189056Y0140458D01*
X0188597Y0139998D01*
X0188597Y0139080D01*
X0189056Y0138621D01*
X0189974Y0138621D02*
X0190433Y0139539D01*
X0190433Y0139998D01*
X0189974Y0140458D01*
X0191352Y0140458D02*
X0191352Y0138621D01*
X0189974Y0138621D01*
X0188597Y0137739D02*
X0188597Y0135902D01*
X0188597Y0136820D02*
X0191352Y0136820D01*
X0190433Y0135902D01*
X0190893Y0135020D02*
X0191352Y0134561D01*
X0191352Y0133642D01*
X0190893Y0133183D01*
X0189056Y0133183D01*
X0188597Y0133642D01*
X0188597Y0134561D01*
X0189056Y0135020D01*
X0192730Y0126376D02*
X0192730Y0124539D01*
X0192730Y0125458D02*
X0195486Y0125458D01*
X0194567Y0124539D01*
X0194567Y0123657D02*
X0194108Y0123198D01*
X0193649Y0123657D01*
X0193190Y0123657D01*
X0192730Y0123198D01*
X0192730Y0122279D01*
X0193190Y0121820D01*
X0192730Y0120938D02*
X0193649Y0120020D01*
X0193649Y0120479D02*
X0193649Y0119101D01*
X0192730Y0119101D02*
X0195486Y0119101D01*
X0195486Y0120479D01*
X0195026Y0120938D01*
X0194108Y0120938D01*
X0193649Y0120479D01*
X0195026Y0121820D02*
X0195486Y0122279D01*
X0195486Y0123198D01*
X0195026Y0123657D01*
X0194567Y0123657D01*
X0194108Y0123198D02*
X0194108Y0122739D01*
X0207179Y0124101D02*
X0209934Y0124101D01*
X0209934Y0125479D01*
X0209475Y0125938D01*
X0208557Y0125938D01*
X0208098Y0125479D01*
X0208098Y0124101D01*
X0208098Y0125020D02*
X0207179Y0125938D01*
X0207638Y0126820D02*
X0207179Y0127279D01*
X0207179Y0128198D01*
X0207638Y0128657D01*
X0208098Y0128657D01*
X0208557Y0128198D01*
X0208557Y0127739D01*
X0208557Y0128198D02*
X0209016Y0128657D01*
X0209475Y0128657D01*
X0209934Y0128198D01*
X0209934Y0127279D01*
X0209475Y0126820D01*
X0209475Y0129539D02*
X0209934Y0129998D01*
X0209934Y0130917D01*
X0209475Y0131376D01*
X0209016Y0131376D01*
X0207179Y0129539D01*
X0207179Y0131376D01*
X0206564Y0135230D02*
X0205646Y0135230D01*
X0205187Y0135690D01*
X0205187Y0136149D01*
X0205646Y0136608D01*
X0206105Y0136608D01*
X0205646Y0136608D02*
X0205187Y0137067D01*
X0205187Y0137526D01*
X0205646Y0137986D01*
X0206564Y0137986D01*
X0207023Y0137526D01*
X0207905Y0137526D02*
X0207905Y0136608D01*
X0208365Y0136149D01*
X0209742Y0136149D01*
X0208824Y0136149D02*
X0207905Y0135230D01*
X0207023Y0135690D02*
X0206564Y0135230D01*
X0204304Y0135690D02*
X0203845Y0135230D01*
X0202927Y0135230D01*
X0202468Y0135690D01*
X0202468Y0136149D01*
X0202927Y0136608D01*
X0203386Y0136608D01*
X0202927Y0136608D02*
X0202468Y0137067D01*
X0202468Y0137526D01*
X0202927Y0137986D01*
X0203845Y0137986D01*
X0204304Y0137526D01*
X0206392Y0139889D02*
X0209147Y0139889D01*
X0209147Y0141266D01*
X0208688Y0141726D01*
X0207769Y0141726D01*
X0207310Y0141266D01*
X0207310Y0139889D01*
X0207310Y0140807D02*
X0206392Y0141726D01*
X0206851Y0142608D02*
X0206392Y0143067D01*
X0206392Y0143985D01*
X0206851Y0144444D01*
X0207310Y0144444D01*
X0207769Y0143985D01*
X0207769Y0143526D01*
X0207769Y0143985D02*
X0208229Y0144444D01*
X0208688Y0144444D01*
X0209147Y0143985D01*
X0209147Y0143067D01*
X0208688Y0142608D01*
X0208365Y0137986D02*
X0207905Y0137526D01*
X0208365Y0137986D02*
X0209742Y0137986D01*
X0209742Y0135230D01*
X0207769Y0145327D02*
X0207769Y0147163D01*
X0206392Y0146704D02*
X0209147Y0146704D01*
X0207769Y0145327D01*
X0200210Y0155125D02*
X0197455Y0155125D01*
X0198373Y0155125D02*
X0198373Y0156503D01*
X0198832Y0156962D01*
X0199751Y0156962D01*
X0200210Y0156503D01*
X0200210Y0155125D01*
X0198373Y0156043D02*
X0197455Y0156962D01*
X0197914Y0157844D02*
X0197455Y0158303D01*
X0197455Y0159221D01*
X0197914Y0159681D01*
X0198373Y0159681D01*
X0198832Y0159221D01*
X0198832Y0158762D01*
X0198832Y0159221D02*
X0199292Y0159681D01*
X0199751Y0159681D01*
X0200210Y0159221D01*
X0200210Y0158303D01*
X0199751Y0157844D01*
X0200210Y0160563D02*
X0198832Y0160563D01*
X0199292Y0161481D01*
X0199292Y0161940D01*
X0198832Y0162399D01*
X0197914Y0162399D01*
X0197455Y0161940D01*
X0197455Y0161022D01*
X0197914Y0160563D01*
X0200210Y0160563D02*
X0200210Y0162399D01*
X0190582Y0165821D02*
X0190582Y0168576D01*
X0189204Y0168576D01*
X0188745Y0168117D01*
X0188745Y0167199D01*
X0189204Y0166739D01*
X0190582Y0166739D01*
X0189663Y0166739D02*
X0188745Y0165821D01*
X0187863Y0167199D02*
X0186026Y0167199D01*
X0185144Y0168117D02*
X0184685Y0168576D01*
X0183766Y0168576D01*
X0183307Y0168117D01*
X0183307Y0167658D01*
X0185144Y0165821D01*
X0183307Y0165821D01*
X0186485Y0165821D02*
X0186485Y0168576D01*
X0187863Y0167199D01*
X0184801Y0169955D02*
X0184801Y0172710D01*
X0183424Y0172710D01*
X0182964Y0172251D01*
X0182964Y0171332D01*
X0183424Y0170873D01*
X0184801Y0170873D01*
X0183883Y0170873D02*
X0182964Y0169955D01*
X0182082Y0171332D02*
X0180246Y0171332D01*
X0179363Y0170414D02*
X0178904Y0169955D01*
X0177986Y0169955D01*
X0177527Y0170414D01*
X0177527Y0170873D01*
X0177986Y0171332D01*
X0178445Y0171332D01*
X0177986Y0171332D02*
X0177527Y0171792D01*
X0177527Y0172251D01*
X0177986Y0172710D01*
X0178904Y0172710D01*
X0179363Y0172251D01*
X0180705Y0172710D02*
X0180705Y0169955D01*
X0182082Y0171332D02*
X0180705Y0172710D01*
X0189357Y0176805D02*
X0191194Y0176805D01*
X0189357Y0178642D01*
X0189357Y0179101D01*
X0189817Y0179560D01*
X0190735Y0179560D01*
X0191194Y0179101D01*
X0192076Y0179101D02*
X0192535Y0179560D01*
X0193913Y0179560D01*
X0193913Y0176805D01*
X0192535Y0176805D01*
X0192076Y0177264D01*
X0192076Y0179101D01*
X0158773Y0175514D02*
X0158773Y0173677D01*
X0157395Y0173677D01*
X0157855Y0174595D01*
X0157855Y0175054D01*
X0157395Y0175514D01*
X0156477Y0175514D01*
X0156018Y0175054D01*
X0156018Y0174136D01*
X0156477Y0173677D01*
X0157395Y0172795D02*
X0157395Y0170958D01*
X0158773Y0172336D01*
X0156018Y0172336D01*
X0156018Y0170076D02*
X0156936Y0169158D01*
X0156936Y0169617D02*
X0156936Y0168239D01*
X0157609Y0167789D02*
X0156232Y0167789D01*
X0155772Y0167330D01*
X0155772Y0166411D01*
X0156232Y0165952D01*
X0157609Y0165952D01*
X0156691Y0165952D02*
X0155772Y0165034D01*
X0157609Y0165034D02*
X0157609Y0167789D01*
X0158773Y0168239D02*
X0156018Y0168239D01*
X0156936Y0169617D02*
X0157395Y0170076D01*
X0158314Y0170076D01*
X0158773Y0169617D01*
X0158773Y0168239D01*
X0142789Y0159119D02*
X0142330Y0159119D01*
X0142330Y0105221D02*
X0140493Y0103385D01*
X0140034Y0103385D01*
X0140034Y0102043D02*
X0142789Y0102043D01*
X0141411Y0100666D01*
X0141411Y0102503D01*
X0142789Y0103385D02*
X0142789Y0105221D01*
X0142330Y0105221D01*
X0145034Y0104762D02*
X0145493Y0105221D01*
X0145952Y0105221D01*
X0146411Y0104762D01*
X0146411Y0103385D01*
X0145493Y0103385D01*
X0145034Y0103844D01*
X0145034Y0104762D01*
X0146411Y0103385D02*
X0147330Y0104303D01*
X0147789Y0105221D01*
X0146411Y0102503D02*
X0146411Y0100666D01*
X0147789Y0102043D01*
X0145034Y0102043D01*
X0145034Y0099784D02*
X0145952Y0098865D01*
X0145952Y0099325D02*
X0145952Y0097947D01*
X0145034Y0097947D02*
X0147789Y0097947D01*
X0147789Y0099325D01*
X0147330Y0099784D01*
X0146411Y0099784D01*
X0145952Y0099325D01*
X0142789Y0099325D02*
X0142789Y0097947D01*
X0140034Y0097947D01*
X0140952Y0097947D02*
X0140952Y0099325D01*
X0141411Y0099784D01*
X0142330Y0099784D01*
X0142789Y0099325D01*
X0140952Y0098865D02*
X0140034Y0099784D01*
X0137789Y0099325D02*
X0137789Y0097947D01*
X0135034Y0097947D01*
X0135952Y0097947D02*
X0135952Y0099325D01*
X0136411Y0099784D01*
X0137330Y0099784D01*
X0137789Y0099325D01*
X0135952Y0098865D02*
X0135034Y0099784D01*
X0136411Y0100666D02*
X0136411Y0102503D01*
X0135952Y0103385D02*
X0136411Y0103844D01*
X0136411Y0104762D01*
X0135952Y0105221D01*
X0135493Y0105221D01*
X0135034Y0104762D01*
X0135034Y0103844D01*
X0135493Y0103385D01*
X0135952Y0103385D01*
X0136411Y0103844D02*
X0136870Y0103385D01*
X0137330Y0103385D01*
X0137789Y0103844D01*
X0137789Y0104762D01*
X0137330Y0105221D01*
X0136870Y0105221D01*
X0136411Y0104762D01*
X0135034Y0102043D02*
X0137789Y0102043D01*
X0136411Y0100666D01*
X0132789Y0099325D02*
X0132789Y0097947D01*
X0130034Y0097947D01*
X0130952Y0097947D02*
X0130952Y0099325D01*
X0131411Y0099784D01*
X0132330Y0099784D01*
X0132789Y0099325D01*
X0130952Y0098865D02*
X0130034Y0099784D01*
X0131411Y0100666D02*
X0131411Y0102503D01*
X0131870Y0103385D02*
X0131411Y0103844D01*
X0131411Y0105221D01*
X0130493Y0105221D02*
X0132330Y0105221D01*
X0132789Y0104762D01*
X0132789Y0103844D01*
X0132330Y0103385D01*
X0131870Y0103385D01*
X0130493Y0103385D02*
X0130034Y0103844D01*
X0130034Y0104762D01*
X0130493Y0105221D01*
X0130034Y0102043D02*
X0132789Y0102043D01*
X0131411Y0100666D01*
X0127789Y0100666D02*
X0126411Y0100666D01*
X0126870Y0101584D01*
X0126870Y0102043D01*
X0126411Y0102503D01*
X0125493Y0102503D01*
X0125034Y0102043D01*
X0125034Y0101125D01*
X0125493Y0100666D01*
X0125034Y0099784D02*
X0125952Y0098865D01*
X0125952Y0099325D02*
X0125952Y0097947D01*
X0125034Y0097947D02*
X0127789Y0097947D01*
X0127789Y0099325D01*
X0127330Y0099784D01*
X0126411Y0099784D01*
X0125952Y0099325D01*
X0127789Y0100666D02*
X0127789Y0102503D01*
X0127330Y0103385D02*
X0127789Y0103844D01*
X0127789Y0104762D01*
X0127330Y0105221D01*
X0125493Y0103385D01*
X0125034Y0103844D01*
X0125034Y0104762D01*
X0125493Y0105221D01*
X0127330Y0105221D01*
X0127330Y0103385D02*
X0125493Y0103385D01*
X0160355Y0090348D02*
X0160355Y0087593D01*
X0161273Y0087593D02*
X0159436Y0087593D01*
X0161273Y0089429D02*
X0160355Y0090348D01*
X0162155Y0089889D02*
X0162155Y0088052D01*
X0162614Y0087593D01*
X0163992Y0087593D01*
X0163992Y0090348D01*
X0162614Y0090348D01*
X0162155Y0089889D01*
D14*
X0119621Y0120205D02*
X0116485Y0123341D01*
X0118053Y0123341D02*
X0118053Y0120205D01*
X0116485Y0120205D02*
X0119621Y0123341D01*
X0119621Y0121773D02*
X0116485Y0121773D01*
X0116485Y0137705D02*
X0119621Y0140841D01*
X0119621Y0139273D02*
X0116485Y0139273D01*
X0116485Y0140841D02*
X0119621Y0137705D01*
X0118053Y0137705D02*
X0118053Y0140841D01*
X0118053Y0155205D02*
X0118053Y0158341D01*
X0119621Y0158341D02*
X0116485Y0155205D01*
X0116485Y0156773D02*
X0119621Y0156773D01*
X0119621Y0155205D02*
X0116485Y0158341D01*
X0116485Y0172705D02*
X0119621Y0175841D01*
X0119621Y0174273D02*
X0116485Y0174273D01*
X0116485Y0175841D02*
X0119621Y0172705D01*
X0118053Y0172705D02*
X0118053Y0175841D01*
X0167301Y0148021D02*
X0170437Y0144885D01*
X0170437Y0146453D02*
X0167301Y0146453D01*
X0167301Y0144885D02*
X0170437Y0148021D01*
X0168869Y0148021D02*
X0168869Y0144885D01*
D15*
X0183152Y0127673D02*
X0186676Y0127673D01*
X0187380Y0126969D01*
X0187380Y0125559D01*
X0186676Y0124855D01*
X0183152Y0124855D01*
X0185266Y0123323D02*
X0185266Y0121209D01*
X0185971Y0120505D01*
X0186676Y0120505D01*
X0187380Y0121209D01*
X0187380Y0122619D01*
X0186676Y0123323D01*
X0185266Y0123323D01*
X0183857Y0121914D01*
X0183152Y0120505D01*
D16*
X0116109Y0156445D02*
X0115585Y0155921D01*
X0114536Y0155921D01*
X0114012Y0156445D01*
X0114012Y0159067D01*
X0112847Y0158543D02*
X0112847Y0158018D01*
X0112322Y0157494D01*
X0110749Y0157494D01*
X0110749Y0158543D02*
X0111274Y0159067D01*
X0112322Y0159067D01*
X0112847Y0158543D01*
X0112847Y0156445D02*
X0112322Y0155921D01*
X0111274Y0155921D01*
X0110749Y0156445D01*
X0110749Y0158543D01*
X0116109Y0159067D02*
X0116109Y0156445D01*
X0115322Y0141567D02*
X0115322Y0138945D01*
X0114797Y0138421D01*
X0113749Y0138421D01*
X0113224Y0138945D01*
X0113224Y0141567D01*
X0112059Y0140518D02*
X0111011Y0141567D01*
X0111011Y0138421D01*
X0112059Y0138421D02*
X0109962Y0138421D01*
X0108797Y0138945D02*
X0106699Y0141043D01*
X0106699Y0138945D01*
X0107224Y0138421D01*
X0108272Y0138421D01*
X0108797Y0138945D01*
X0108797Y0141043D01*
X0108272Y0141567D01*
X0107224Y0141567D01*
X0106699Y0141043D01*
X0109962Y0124067D02*
X0109962Y0123543D01*
X0112059Y0121445D01*
X0112059Y0120921D01*
X0113224Y0121445D02*
X0113224Y0124067D01*
X0112059Y0124067D02*
X0109962Y0124067D01*
X0113224Y0121445D02*
X0113749Y0120921D01*
X0114797Y0120921D01*
X0115322Y0121445D01*
X0115322Y0124067D01*
X0114010Y0174208D02*
X0112961Y0174208D01*
X0112437Y0174733D01*
X0112437Y0177354D01*
X0111272Y0176830D02*
X0111272Y0176306D01*
X0110747Y0175781D01*
X0109699Y0175781D01*
X0109174Y0175257D01*
X0109174Y0174733D01*
X0109699Y0174208D01*
X0110747Y0174208D01*
X0111272Y0174733D01*
X0111272Y0175257D01*
X0110747Y0175781D01*
X0109699Y0175781D02*
X0109174Y0176306D01*
X0109174Y0176830D01*
X0109699Y0177354D01*
X0110747Y0177354D01*
X0111272Y0176830D01*
X0114534Y0177354D02*
X0114534Y0174733D01*
X0114010Y0174208D01*
D17*
X0111371Y0208871D02*
X0111371Y0231371D01*
X0121371Y0231371D02*
X0121371Y0208871D01*
X0136371Y0208871D02*
X0136371Y0231371D01*
X0146371Y0231371D02*
X0146371Y0208871D01*
X0156371Y0208871D02*
X0156371Y0231371D01*
X0101371Y0231371D02*
X0101371Y0208871D01*
X0091371Y0208871D02*
X0091371Y0231371D01*
X0081371Y0231371D02*
X0081371Y0208871D01*
D18*
X0081371Y0207371D03*
X0091371Y0207371D03*
X0101371Y0207371D03*
X0111371Y0207371D03*
X0121371Y0207371D03*
X0136371Y0207371D03*
X0146371Y0207371D03*
X0156371Y0207371D03*
D19*
X0156371Y0194371D03*
X0146371Y0194371D03*
X0136371Y0194371D03*
X0121371Y0194371D03*
X0111371Y0194371D03*
X0101371Y0194371D03*
X0091371Y0194371D03*
X0081371Y0194371D03*
M02*
