G75*
%MOIN*%
%OFA0B0*%
%FSLAX25Y25*%
%IPPOS*%
%LPD*%
%AMOC8*
5,1,8,0,0,1.08239X$1,22.5*
%
%ADD10C,0.06000*%
%ADD11R,0.05512X0.05512*%
%ADD12OC8,0.06000*%
%ADD13R,0.01700X0.05900*%
%ADD14R,0.02756X0.03543*%
%ADD15R,0.03543X0.02756*%
%ADD16R,0.05000X0.02200*%
%ADD17C,0.01575*%
%ADD18C,0.04362*%
%ADD19C,0.03575*%
%ADD20C,0.00787*%
D10*
X0103871Y0075871D02*
X0103871Y0081871D01*
X0113871Y0081871D02*
X0113871Y0075871D01*
X0123871Y0075871D02*
X0123871Y0081871D01*
X0133871Y0081871D02*
X0133871Y0075871D01*
X0143871Y0075871D02*
X0143871Y0081871D01*
X0171371Y0081871D02*
X0171371Y0075871D01*
X0181371Y0075871D02*
X0181371Y0081871D01*
X0202898Y0095623D02*
X0208898Y0095623D01*
X0208898Y0105623D02*
X0202898Y0105623D01*
X0202898Y0115623D02*
X0208898Y0115623D01*
X0181371Y0185871D02*
X0181371Y0191871D01*
X0171371Y0191871D02*
X0171371Y0185871D01*
X0156371Y0185871D02*
X0156371Y0191871D01*
X0146371Y0191871D02*
X0146371Y0185871D01*
X0136371Y0185871D02*
X0136371Y0191871D01*
X0121371Y0191871D02*
X0121371Y0185871D01*
X0111371Y0185871D02*
X0111371Y0191871D01*
X0101371Y0191871D02*
X0101371Y0185871D01*
X0091371Y0185871D02*
X0091371Y0191871D01*
X0081371Y0191871D02*
X0081371Y0185871D01*
D11*
X0168890Y0178871D03*
X0183851Y0178871D03*
X0183851Y0088871D03*
X0168890Y0088871D03*
D12*
X0078871Y0116371D03*
X0078871Y0136371D03*
X0078871Y0151371D03*
D13*
X0172571Y0144971D03*
X0175071Y0144971D03*
X0177671Y0144971D03*
X0180171Y0144971D03*
X0180171Y0127771D03*
X0177671Y0127771D03*
X0175071Y0127771D03*
X0172571Y0127771D03*
D14*
X0166174Y0132138D03*
X0161056Y0132138D03*
X0162312Y0146371D03*
X0162312Y0151371D03*
X0162312Y0156371D03*
X0162312Y0161371D03*
X0161312Y0166371D03*
X0166430Y0166371D03*
X0168812Y0171371D03*
X0173930Y0171371D03*
X0173812Y0166371D03*
X0178930Y0166371D03*
X0167430Y0161371D03*
X0167430Y0156371D03*
X0167430Y0151371D03*
X0167430Y0146371D03*
X0184812Y0151121D03*
X0189930Y0151121D03*
D15*
X0198871Y0151430D03*
X0198871Y0146312D03*
X0203871Y0146430D03*
X0203871Y0141312D03*
X0198871Y0138930D03*
X0193871Y0138930D03*
X0193871Y0133812D03*
X0198871Y0133812D03*
X0203871Y0131430D03*
X0203871Y0126312D03*
X0198871Y0126430D03*
X0198871Y0121312D03*
X0178871Y0153812D03*
X0173871Y0153812D03*
X0173871Y0158930D03*
X0178871Y0158930D03*
X0161371Y0172812D03*
X0161371Y0177930D03*
X0146371Y0166430D03*
X0141371Y0166430D03*
X0136371Y0166430D03*
X0131371Y0166430D03*
X0126371Y0166430D03*
X0126371Y0161312D03*
X0131371Y0161312D03*
X0136371Y0161312D03*
X0141371Y0161312D03*
X0146371Y0161312D03*
X0146371Y0148930D03*
X0141371Y0148930D03*
X0136371Y0148930D03*
X0131371Y0148930D03*
X0126371Y0148930D03*
X0126371Y0143812D03*
X0131371Y0143812D03*
X0136371Y0143812D03*
X0141371Y0143812D03*
X0146371Y0143812D03*
X0146371Y0131430D03*
X0141371Y0131430D03*
X0136371Y0131430D03*
X0131371Y0131430D03*
X0126371Y0131430D03*
X0126371Y0126312D03*
X0131371Y0126312D03*
X0136371Y0126312D03*
X0141371Y0126312D03*
X0146371Y0126312D03*
X0146371Y0113930D03*
X0141371Y0113930D03*
X0136371Y0113930D03*
X0131371Y0113930D03*
X0126371Y0113930D03*
X0126371Y0108812D03*
X0131371Y0108812D03*
X0136371Y0108812D03*
X0141371Y0108812D03*
X0146371Y0108812D03*
X0096371Y0148812D03*
X0096371Y0153930D03*
X0096371Y0166312D03*
X0096371Y0171430D03*
X0094796Y0136430D03*
X0094796Y0131312D03*
X0094796Y0123930D03*
X0094796Y0118812D03*
D16*
X0106271Y0117571D03*
X0106271Y0113871D03*
X0106271Y0110171D03*
X0116471Y0110171D03*
X0116471Y0113871D03*
X0116471Y0117571D03*
X0116471Y0127671D03*
X0116471Y0131371D03*
X0116471Y0135071D03*
X0106271Y0135071D03*
X0106271Y0131371D03*
X0106271Y0127671D03*
X0106271Y0145171D03*
X0106271Y0148871D03*
X0106271Y0152571D03*
X0106271Y0162671D03*
X0106271Y0166371D03*
X0106271Y0170071D03*
X0116471Y0170071D03*
X0116471Y0166371D03*
X0116471Y0162671D03*
X0116471Y0152571D03*
X0116471Y0148871D03*
X0116471Y0145171D03*
D17*
X0071564Y0129673D02*
X0071564Y0067528D01*
X0216020Y0067528D01*
X0216020Y0198599D01*
X0071564Y0198599D01*
X0071564Y0159288D01*
X0078044Y0165769D01*
X0079197Y0166922D01*
X0082347Y0166922D01*
X0084343Y0168918D01*
X0089402Y0173977D01*
X0089402Y0181734D01*
X0088779Y0181992D01*
X0087492Y0183279D01*
X0086796Y0184961D01*
X0086796Y0192781D01*
X0087492Y0194462D01*
X0088779Y0195749D01*
X0090461Y0196445D01*
X0092281Y0196445D01*
X0093962Y0195749D01*
X0095249Y0194462D01*
X0095945Y0192781D01*
X0095945Y0184961D01*
X0095249Y0183279D01*
X0093962Y0181992D01*
X0093339Y0181734D01*
X0093339Y0173775D01*
X0093947Y0174382D01*
X0098795Y0174382D01*
X0099385Y0173792D01*
X0105890Y0173792D01*
X0106936Y0172745D01*
X0109423Y0172745D01*
X0110345Y0171823D01*
X0110345Y0171186D01*
X0110392Y0171233D01*
X0111592Y0172433D01*
X0113006Y0172433D01*
X0113318Y0172745D01*
X0119623Y0172745D01*
X0120545Y0171823D01*
X0120545Y0168792D01*
X0123356Y0168792D01*
X0123947Y0169382D01*
X0128795Y0169382D01*
X0128871Y0169306D01*
X0128947Y0169382D01*
X0133795Y0169382D01*
X0133871Y0169306D01*
X0133947Y0169382D01*
X0138795Y0169382D01*
X0138871Y0169306D01*
X0138947Y0169382D01*
X0143795Y0169382D01*
X0143871Y0169306D01*
X0143947Y0169382D01*
X0147518Y0169382D01*
X0144008Y0172892D01*
X0144008Y0181897D01*
X0143779Y0181992D01*
X0142492Y0183279D01*
X0141796Y0184961D01*
X0141796Y0192781D01*
X0142492Y0194462D01*
X0143779Y0195749D01*
X0145461Y0196445D01*
X0147281Y0196445D01*
X0148962Y0195749D01*
X0150249Y0194462D01*
X0150945Y0192781D01*
X0150945Y0184961D01*
X0150249Y0183279D01*
X0148962Y0181992D01*
X0148733Y0181897D01*
X0148733Y0174849D01*
X0152349Y0171233D01*
X0153733Y0169849D01*
X0153733Y0159849D01*
X0154008Y0159573D01*
X0154008Y0181897D01*
X0153779Y0181992D01*
X0152492Y0183279D01*
X0151796Y0184961D01*
X0151796Y0192781D01*
X0152492Y0194462D01*
X0153779Y0195749D01*
X0155461Y0196445D01*
X0157281Y0196445D01*
X0158962Y0195749D01*
X0160249Y0194462D01*
X0160945Y0192781D01*
X0160945Y0184961D01*
X0160249Y0183279D01*
X0158962Y0181992D01*
X0158733Y0181897D01*
X0158733Y0180871D01*
X0158909Y0180973D01*
X0159364Y0181095D01*
X0161371Y0181095D01*
X0161371Y0177930D01*
X0161371Y0177930D01*
X0161371Y0181095D01*
X0163378Y0181095D01*
X0163832Y0180973D01*
X0164240Y0180738D01*
X0164347Y0180631D01*
X0164347Y0181862D01*
X0164469Y0182316D01*
X0164704Y0182724D01*
X0165037Y0183057D01*
X0165444Y0183292D01*
X0165899Y0183414D01*
X0167249Y0183414D01*
X0166934Y0184033D01*
X0166701Y0184750D01*
X0166583Y0185494D01*
X0166583Y0188658D01*
X0171158Y0188658D01*
X0171158Y0189083D01*
X0166583Y0189083D01*
X0166583Y0192247D01*
X0166701Y0192992D01*
X0166934Y0193708D01*
X0167276Y0194380D01*
X0167719Y0194989D01*
X0168252Y0195522D01*
X0168861Y0195965D01*
X0169533Y0196307D01*
X0170250Y0196540D01*
X0170994Y0196658D01*
X0171158Y0196658D01*
X0171158Y0189083D01*
X0171583Y0189083D01*
X0171583Y0196658D01*
X0171747Y0196658D01*
X0172492Y0196540D01*
X0173208Y0196307D01*
X0173880Y0195965D01*
X0174489Y0195522D01*
X0175022Y0194989D01*
X0175465Y0194380D01*
X0175807Y0193708D01*
X0176040Y0192992D01*
X0176158Y0192247D01*
X0176158Y0189083D01*
X0171583Y0189083D01*
X0171583Y0188658D01*
X0176158Y0188658D01*
X0176158Y0185494D01*
X0176040Y0184750D01*
X0175807Y0184033D01*
X0175465Y0183361D01*
X0175022Y0182752D01*
X0174489Y0182219D01*
X0173880Y0181776D01*
X0173434Y0181549D01*
X0173434Y0179461D01*
X0169481Y0179461D01*
X0169481Y0178280D01*
X0173434Y0178280D01*
X0173434Y0175879D01*
X0173312Y0175425D01*
X0173076Y0175017D01*
X0172776Y0174717D01*
X0175960Y0174717D01*
X0176882Y0173795D01*
X0176882Y0169700D01*
X0176899Y0169717D01*
X0180960Y0169717D01*
X0181882Y0168795D01*
X0181882Y0163947D01*
X0181233Y0163297D01*
X0181233Y0161882D01*
X0181295Y0161882D01*
X0182217Y0160960D01*
X0182217Y0156899D01*
X0181688Y0156371D01*
X0182217Y0155842D01*
X0182217Y0153903D01*
X0182449Y0154135D01*
X0182449Y0174540D01*
X0180443Y0174540D01*
X0179520Y0175462D01*
X0179520Y0181685D01*
X0178779Y0181992D01*
X0177492Y0183279D01*
X0176796Y0184961D01*
X0176796Y0192781D01*
X0177492Y0194462D01*
X0178779Y0195749D01*
X0180461Y0196445D01*
X0182281Y0196445D01*
X0183962Y0195749D01*
X0185249Y0194462D01*
X0185945Y0192781D01*
X0185945Y0187636D01*
X0187174Y0186408D01*
X0187174Y0183201D01*
X0187259Y0183201D01*
X0188182Y0182279D01*
X0188182Y0175462D01*
X0187259Y0174540D01*
X0187174Y0174540D01*
X0187174Y0154135D01*
X0187220Y0154089D01*
X0187454Y0154323D01*
X0187862Y0154558D01*
X0188316Y0154680D01*
X0189930Y0154680D01*
X0189930Y0151121D01*
X0189930Y0151121D01*
X0193095Y0151121D01*
X0193095Y0153128D01*
X0192973Y0153582D01*
X0192738Y0153990D01*
X0192405Y0154323D01*
X0191998Y0154558D01*
X0191543Y0154680D01*
X0189930Y0154680D01*
X0189930Y0151121D01*
X0189930Y0151121D01*
X0193095Y0151121D01*
X0193095Y0149114D01*
X0192973Y0148659D01*
X0192738Y0148251D01*
X0192405Y0147919D01*
X0191998Y0147683D01*
X0191543Y0147562D01*
X0189930Y0147562D01*
X0189930Y0151120D01*
X0189930Y0151120D01*
X0189930Y0147562D01*
X0188316Y0147562D01*
X0187862Y0147683D01*
X0187454Y0147919D01*
X0187220Y0148153D01*
X0186842Y0147774D01*
X0184806Y0147774D01*
X0182595Y0145564D01*
X0182595Y0141368D01*
X0182460Y0141233D01*
X0190797Y0141233D01*
X0191447Y0141882D01*
X0191508Y0141882D01*
X0191508Y0142290D01*
X0195524Y0146306D01*
X0195524Y0148342D01*
X0196053Y0148871D01*
X0195524Y0149399D01*
X0195524Y0153460D01*
X0196447Y0154382D01*
X0201295Y0154382D01*
X0201944Y0153733D01*
X0202349Y0153733D01*
X0203733Y0152349D01*
X0206233Y0149849D01*
X0206233Y0149382D01*
X0206295Y0149382D01*
X0207217Y0148460D01*
X0207217Y0144399D01*
X0206688Y0143871D01*
X0207217Y0143342D01*
X0207217Y0139281D01*
X0206295Y0138359D01*
X0204259Y0138359D01*
X0202408Y0136508D01*
X0201826Y0136508D01*
X0201688Y0136371D01*
X0201826Y0136233D01*
X0202349Y0136233D01*
X0203733Y0134849D01*
X0204199Y0134382D01*
X0206295Y0134382D01*
X0207217Y0133460D01*
X0207217Y0129399D01*
X0206688Y0128871D01*
X0207217Y0128342D01*
X0207217Y0124281D01*
X0206295Y0123359D01*
X0206233Y0123359D01*
X0206233Y0122892D01*
X0204849Y0121508D01*
X0203538Y0120197D01*
X0209808Y0120197D01*
X0211490Y0119501D01*
X0212776Y0118214D01*
X0213473Y0116533D01*
X0213473Y0114713D01*
X0212776Y0113031D01*
X0211490Y0111744D01*
X0209808Y0111048D01*
X0201988Y0111048D01*
X0200307Y0111744D01*
X0199020Y0113031D01*
X0198323Y0114713D01*
X0198323Y0116533D01*
X0199020Y0118214D01*
X0199165Y0118359D01*
X0196447Y0118359D01*
X0195524Y0119281D01*
X0195524Y0123342D01*
X0196053Y0123871D01*
X0195915Y0124008D01*
X0195392Y0124008D01*
X0191508Y0127892D01*
X0191508Y0130859D01*
X0191447Y0130859D01*
X0190797Y0131508D01*
X0182630Y0131508D01*
X0182686Y0131411D01*
X0182808Y0130956D01*
X0182808Y0127771D01*
X0180171Y0127771D01*
X0180171Y0127771D01*
X0182808Y0127771D01*
X0182808Y0124585D01*
X0182686Y0124131D01*
X0182451Y0123723D01*
X0182118Y0123390D01*
X0181711Y0123155D01*
X0181256Y0123033D01*
X0180171Y0123033D01*
X0180171Y0127770D01*
X0180171Y0127770D01*
X0180171Y0123033D01*
X0180033Y0123033D01*
X0180033Y0121692D01*
X0178733Y0120392D01*
X0177349Y0119008D01*
X0153733Y0119008D01*
X0153733Y0110392D01*
X0149790Y0106449D01*
X0149385Y0106449D01*
X0148795Y0105859D01*
X0143947Y0105859D01*
X0143871Y0105935D01*
X0143795Y0105859D01*
X0138947Y0105859D01*
X0138871Y0105935D01*
X0138795Y0105859D01*
X0133947Y0105859D01*
X0133871Y0105935D01*
X0133795Y0105859D01*
X0128947Y0105859D01*
X0128871Y0105935D01*
X0128795Y0105859D01*
X0123947Y0105859D01*
X0123024Y0106781D01*
X0123024Y0110842D01*
X0123553Y0111371D01*
X0123415Y0111508D01*
X0120757Y0111508D01*
X0120758Y0111506D01*
X0120758Y0110171D01*
X0116471Y0110171D01*
X0116471Y0110171D01*
X0120758Y0110171D01*
X0120758Y0108835D01*
X0120636Y0108381D01*
X0120401Y0107973D01*
X0120068Y0107640D01*
X0119661Y0107405D01*
X0119206Y0107283D01*
X0116471Y0107283D01*
X0116471Y0110170D01*
X0116471Y0110170D01*
X0116471Y0107283D01*
X0113735Y0107283D01*
X0113281Y0107405D01*
X0112873Y0107640D01*
X0112540Y0107973D01*
X0112305Y0108381D01*
X0112183Y0108835D01*
X0112183Y0110171D01*
X0116470Y0110171D01*
X0116470Y0110171D01*
X0112183Y0110171D01*
X0112183Y0111506D01*
X0112305Y0111961D01*
X0112396Y0112118D01*
X0112396Y0112118D01*
X0112396Y0115208D01*
X0111692Y0115208D01*
X0110392Y0116508D01*
X0110345Y0116555D01*
X0110345Y0115818D01*
X0110345Y0115818D01*
X0110436Y0115661D01*
X0110558Y0115206D01*
X0110558Y0113871D01*
X0106271Y0113871D01*
X0106271Y0113871D01*
X0110558Y0113871D01*
X0110558Y0112535D01*
X0110436Y0112081D01*
X0110345Y0111923D01*
X0110345Y0111923D01*
X0110345Y0108418D01*
X0109423Y0107496D01*
X0103118Y0107496D01*
X0102412Y0108202D01*
X0098486Y0108202D01*
X0095839Y0105555D01*
X0094686Y0104402D01*
X0080555Y0104402D01*
X0073055Y0111902D01*
X0071902Y0113055D01*
X0071902Y0129335D01*
X0071564Y0129673D01*
X0071564Y0128636D02*
X0071902Y0128636D01*
X0071902Y0127063D02*
X0071564Y0127063D01*
X0071564Y0125489D02*
X0071902Y0125489D01*
X0071902Y0123916D02*
X0071564Y0123916D01*
X0071564Y0122343D02*
X0071902Y0122343D01*
X0071902Y0120769D02*
X0071564Y0120769D01*
X0071564Y0119196D02*
X0071902Y0119196D01*
X0071902Y0117623D02*
X0071564Y0117623D01*
X0071564Y0116050D02*
X0071902Y0116050D01*
X0071902Y0114476D02*
X0071564Y0114476D01*
X0071564Y0112903D02*
X0072054Y0112903D01*
X0071564Y0111330D02*
X0073628Y0111330D01*
X0075201Y0109756D02*
X0071564Y0109756D01*
X0071564Y0108183D02*
X0076774Y0108183D01*
X0078348Y0106610D02*
X0071564Y0106610D01*
X0071564Y0105036D02*
X0079921Y0105036D01*
X0082186Y0108339D02*
X0078658Y0111867D01*
X0078658Y0116158D01*
X0079083Y0116158D01*
X0079083Y0111583D01*
X0080854Y0111583D01*
X0083658Y0114388D01*
X0083658Y0116158D01*
X0079083Y0116158D01*
X0079083Y0116583D01*
X0078658Y0116583D01*
X0078658Y0121158D01*
X0076888Y0121158D01*
X0075839Y0120109D01*
X0075839Y0127991D01*
X0075884Y0127945D01*
X0088221Y0127945D01*
X0088221Y0114320D01*
X0087399Y0113498D01*
X0086827Y0112118D01*
X0086827Y0110623D01*
X0087399Y0109243D01*
X0088303Y0108339D01*
X0082186Y0108339D01*
X0080769Y0109756D02*
X0087187Y0109756D01*
X0086827Y0111330D02*
X0079195Y0111330D01*
X0079083Y0112903D02*
X0078658Y0112903D01*
X0078658Y0114476D02*
X0079083Y0114476D01*
X0079083Y0116050D02*
X0078658Y0116050D01*
X0079083Y0116583D02*
X0083658Y0116583D01*
X0083658Y0118354D01*
X0080854Y0121158D01*
X0079083Y0121158D01*
X0079083Y0116583D01*
X0079083Y0117623D02*
X0078658Y0117623D01*
X0078658Y0119196D02*
X0079083Y0119196D01*
X0079083Y0120769D02*
X0078658Y0120769D01*
X0076499Y0120769D02*
X0075839Y0120769D01*
X0075839Y0122343D02*
X0088221Y0122343D01*
X0088221Y0123916D02*
X0075839Y0123916D01*
X0075839Y0125489D02*
X0088221Y0125489D01*
X0088221Y0127063D02*
X0075839Y0127063D01*
X0076863Y0130308D02*
X0090583Y0130308D01*
X0090583Y0120859D01*
X0090583Y0121843D01*
X0092611Y0123871D01*
X0094737Y0123871D01*
X0098083Y0123871D01*
X0100583Y0121371D01*
X0100583Y0118871D01*
X0101883Y0117571D01*
X0106271Y0117571D01*
X0110345Y0116050D02*
X0110851Y0116050D01*
X0110558Y0114476D02*
X0112396Y0114476D01*
X0112396Y0112903D02*
X0110558Y0112903D01*
X0110345Y0111330D02*
X0112183Y0111330D01*
X0112183Y0109756D02*
X0110345Y0109756D01*
X0110110Y0108183D02*
X0112419Y0108183D01*
X0116471Y0108183D02*
X0116471Y0108183D01*
X0116471Y0109756D02*
X0116471Y0109756D01*
X0116471Y0113871D02*
X0126312Y0113871D01*
X0126371Y0113930D01*
X0128871Y0116806D02*
X0128795Y0116882D01*
X0123947Y0116882D01*
X0123297Y0116233D01*
X0120545Y0116233D01*
X0120545Y0119323D01*
X0119623Y0120245D01*
X0113733Y0120245D01*
X0113733Y0124784D01*
X0113735Y0124783D01*
X0116471Y0124783D01*
X0119206Y0124783D01*
X0119661Y0124905D01*
X0120068Y0125140D01*
X0120401Y0125473D01*
X0120636Y0125881D01*
X0120758Y0126335D01*
X0120758Y0127671D01*
X0120758Y0129006D01*
X0120757Y0129008D01*
X0123415Y0129008D01*
X0123553Y0128871D01*
X0123024Y0128342D01*
X0123024Y0124281D01*
X0123947Y0123359D01*
X0128795Y0123359D01*
X0128871Y0123435D01*
X0128947Y0123359D01*
X0133795Y0123359D01*
X0133871Y0123435D01*
X0133947Y0123359D01*
X0138795Y0123359D01*
X0138871Y0123435D01*
X0138947Y0123359D01*
X0143795Y0123359D01*
X0143871Y0123435D01*
X0143947Y0123359D01*
X0146042Y0123359D01*
X0149008Y0120392D01*
X0149008Y0116669D01*
X0148795Y0116882D01*
X0143947Y0116882D01*
X0143871Y0116806D01*
X0143795Y0116882D01*
X0138947Y0116882D01*
X0138871Y0116806D01*
X0138795Y0116882D01*
X0133947Y0116882D01*
X0133871Y0116806D01*
X0133795Y0116882D01*
X0128947Y0116882D01*
X0128871Y0116806D01*
X0131371Y0113930D02*
X0136371Y0113930D01*
X0141371Y0113930D02*
X0146371Y0113930D01*
X0149008Y0117623D02*
X0120545Y0117623D01*
X0120545Y0119196D02*
X0149008Y0119196D01*
X0148631Y0120769D02*
X0113733Y0120769D01*
X0113733Y0122343D02*
X0147058Y0122343D01*
X0146430Y0126312D02*
X0151371Y0121371D01*
X0176371Y0121371D01*
X0177671Y0122671D01*
X0177671Y0127771D01*
X0177671Y0132671D01*
X0178871Y0133871D01*
X0193812Y0133871D01*
X0193871Y0133812D01*
X0193871Y0128871D01*
X0196371Y0126371D01*
X0198812Y0126371D01*
X0198871Y0126430D01*
X0196007Y0123916D02*
X0182562Y0123916D01*
X0182808Y0125489D02*
X0193911Y0125489D01*
X0192338Y0127063D02*
X0182808Y0127063D01*
X0182808Y0128636D02*
X0191508Y0128636D01*
X0191508Y0130209D02*
X0182808Y0130209D01*
X0180171Y0127771D02*
X0180171Y0121488D01*
X0180800Y0120859D01*
X0183851Y0117808D01*
X0183851Y0116922D01*
X0183851Y0088871D01*
X0184442Y0089303D02*
X0216020Y0089303D01*
X0216020Y0087730D02*
X0188394Y0087730D01*
X0188394Y0088280D02*
X0184442Y0088280D01*
X0184442Y0089461D01*
X0188394Y0089461D01*
X0188394Y0091862D01*
X0188272Y0092316D01*
X0188037Y0092724D01*
X0187704Y0093057D01*
X0187297Y0093292D01*
X0186842Y0093414D01*
X0184441Y0093414D01*
X0184441Y0089461D01*
X0183260Y0089461D01*
X0183260Y0088280D01*
X0179308Y0088280D01*
X0179308Y0086192D01*
X0178861Y0085965D01*
X0178252Y0085522D01*
X0177719Y0084989D01*
X0177276Y0084380D01*
X0176934Y0083708D01*
X0176701Y0082992D01*
X0176583Y0082247D01*
X0176583Y0079083D01*
X0181158Y0079083D01*
X0181158Y0078658D01*
X0181583Y0078658D01*
X0181583Y0071083D01*
X0181747Y0071083D01*
X0182492Y0071201D01*
X0183208Y0071434D01*
X0183880Y0071776D01*
X0184489Y0072219D01*
X0185022Y0072752D01*
X0185465Y0073361D01*
X0185807Y0074033D01*
X0186040Y0074750D01*
X0186158Y0075494D01*
X0186158Y0078658D01*
X0181583Y0078658D01*
X0181583Y0079083D01*
X0186158Y0079083D01*
X0186158Y0082247D01*
X0186040Y0082992D01*
X0185807Y0083708D01*
X0185492Y0084327D01*
X0186842Y0084327D01*
X0187297Y0084449D01*
X0187704Y0084684D01*
X0188037Y0085017D01*
X0188272Y0085425D01*
X0188394Y0085879D01*
X0188394Y0088280D01*
X0188394Y0086157D02*
X0216020Y0086157D01*
X0216020Y0084583D02*
X0187529Y0084583D01*
X0186034Y0083010D02*
X0216020Y0083010D01*
X0216020Y0081437D02*
X0186158Y0081437D01*
X0186158Y0079863D02*
X0216020Y0079863D01*
X0216020Y0078290D02*
X0186158Y0078290D01*
X0186158Y0076717D02*
X0216020Y0076717D01*
X0216020Y0075143D02*
X0186102Y0075143D01*
X0185571Y0073570D02*
X0216020Y0073570D01*
X0216020Y0071997D02*
X0184183Y0071997D01*
X0181583Y0071997D02*
X0181158Y0071997D01*
X0181158Y0071083D02*
X0181158Y0078658D01*
X0176583Y0078658D01*
X0176583Y0075494D01*
X0176701Y0074750D01*
X0176934Y0074033D01*
X0177276Y0073361D01*
X0177719Y0072752D01*
X0178252Y0072219D01*
X0178861Y0071776D01*
X0179533Y0071434D01*
X0180250Y0071201D01*
X0180994Y0071083D01*
X0181158Y0071083D01*
X0181158Y0073570D02*
X0181583Y0073570D01*
X0181583Y0075143D02*
X0181158Y0075143D01*
X0181158Y0076717D02*
X0181583Y0076717D01*
X0181583Y0078290D02*
X0181158Y0078290D01*
X0176583Y0078290D02*
X0175945Y0078290D01*
X0175945Y0079863D02*
X0176583Y0079863D01*
X0176583Y0081437D02*
X0175945Y0081437D01*
X0175945Y0082781D02*
X0175249Y0084462D01*
X0173962Y0085749D01*
X0173221Y0086056D01*
X0173221Y0092279D01*
X0172298Y0093201D01*
X0165482Y0093201D01*
X0164560Y0092279D01*
X0164560Y0085462D01*
X0165482Y0084540D01*
X0166528Y0084540D01*
X0166528Y0080372D01*
X0166796Y0080105D01*
X0166796Y0074961D01*
X0167492Y0073279D01*
X0168779Y0071992D01*
X0170461Y0071296D01*
X0172281Y0071296D01*
X0173962Y0071992D01*
X0175249Y0073279D01*
X0175945Y0074961D01*
X0175945Y0082781D01*
X0175850Y0083010D02*
X0176707Y0083010D01*
X0177424Y0084583D02*
X0175128Y0084583D01*
X0173221Y0086157D02*
X0179237Y0086157D01*
X0179308Y0087730D02*
X0173221Y0087730D01*
X0173221Y0089303D02*
X0183260Y0089303D01*
X0183260Y0089461D02*
X0179308Y0089461D01*
X0179308Y0091862D01*
X0179429Y0092316D01*
X0179665Y0092724D01*
X0179998Y0093057D01*
X0180405Y0093292D01*
X0180860Y0093414D01*
X0183260Y0093414D01*
X0183260Y0089461D01*
X0183260Y0090877D02*
X0184441Y0090877D01*
X0184441Y0092450D02*
X0183260Y0092450D01*
X0179506Y0092450D02*
X0173050Y0092450D01*
X0173221Y0090877D02*
X0179308Y0090877D01*
X0188195Y0092450D02*
X0199301Y0092450D01*
X0199247Y0092504D02*
X0199779Y0091971D01*
X0200389Y0091528D01*
X0201060Y0091186D01*
X0201777Y0090953D01*
X0202521Y0090835D01*
X0205686Y0090835D01*
X0205686Y0095410D01*
X0206111Y0095410D01*
X0206111Y0095835D01*
X0213686Y0095835D01*
X0213686Y0095999D01*
X0213568Y0096744D01*
X0213335Y0097460D01*
X0212993Y0098132D01*
X0212550Y0098741D01*
X0212017Y0099274D01*
X0211407Y0099717D01*
X0210736Y0100059D01*
X0210019Y0100292D01*
X0209275Y0100410D01*
X0206111Y0100410D01*
X0206111Y0095835D01*
X0205686Y0095835D01*
X0205686Y0100410D01*
X0202521Y0100410D01*
X0201777Y0100292D01*
X0201060Y0100059D01*
X0200389Y0099717D01*
X0199779Y0099274D01*
X0199247Y0098741D01*
X0198804Y0098132D01*
X0198462Y0097460D01*
X0198229Y0096744D01*
X0198111Y0095999D01*
X0198111Y0095835D01*
X0205685Y0095835D01*
X0205685Y0095410D01*
X0198111Y0095410D01*
X0198111Y0095246D01*
X0198229Y0094502D01*
X0198462Y0093785D01*
X0198804Y0093113D01*
X0199247Y0092504D01*
X0198384Y0094023D02*
X0152627Y0094023D01*
X0152627Y0094618D02*
X0152055Y0095998D01*
X0150998Y0097055D01*
X0149618Y0097627D01*
X0148123Y0097627D01*
X0146743Y0097055D01*
X0145687Y0095998D01*
X0145115Y0094618D01*
X0145115Y0093123D01*
X0145687Y0091743D01*
X0146073Y0091357D01*
X0143055Y0088339D01*
X0141902Y0087186D01*
X0141902Y0086007D01*
X0141279Y0085749D01*
X0139992Y0084462D01*
X0139296Y0082781D01*
X0139296Y0074961D01*
X0139992Y0073279D01*
X0141279Y0071992D01*
X0142961Y0071296D01*
X0144781Y0071296D01*
X0146462Y0071992D01*
X0147749Y0073279D01*
X0148445Y0074961D01*
X0148445Y0082781D01*
X0147749Y0084462D01*
X0146462Y0085749D01*
X0146159Y0085875D01*
X0150839Y0090555D01*
X0150839Y0090621D01*
X0150998Y0090687D01*
X0152055Y0091743D01*
X0152627Y0093123D01*
X0152627Y0094618D01*
X0152221Y0095596D02*
X0205685Y0095596D01*
X0206111Y0095596D02*
X0216020Y0095596D01*
X0216020Y0094023D02*
X0213412Y0094023D01*
X0213335Y0093785D02*
X0213568Y0094502D01*
X0213686Y0095246D01*
X0213686Y0095410D01*
X0206111Y0095410D01*
X0206111Y0090835D01*
X0209275Y0090835D01*
X0210019Y0090953D01*
X0210736Y0091186D01*
X0211407Y0091528D01*
X0212017Y0091971D01*
X0212550Y0092504D01*
X0212993Y0093113D01*
X0213335Y0093785D01*
X0212496Y0092450D02*
X0216020Y0092450D01*
X0216020Y0090877D02*
X0209536Y0090877D01*
X0206111Y0090877D02*
X0205686Y0090877D01*
X0205686Y0092450D02*
X0206111Y0092450D01*
X0206111Y0094023D02*
X0205686Y0094023D01*
X0205686Y0097170D02*
X0206111Y0097170D01*
X0206111Y0098743D02*
X0205686Y0098743D01*
X0205686Y0100316D02*
X0206111Y0100316D01*
X0209866Y0100316D02*
X0216020Y0100316D01*
X0216020Y0098743D02*
X0212548Y0098743D01*
X0213429Y0097170D02*
X0216020Y0097170D01*
X0216020Y0101890D02*
X0211635Y0101890D01*
X0211490Y0101744D02*
X0212776Y0103031D01*
X0213473Y0104713D01*
X0213473Y0106533D01*
X0212776Y0108214D01*
X0211490Y0109501D01*
X0209808Y0110197D01*
X0201988Y0110197D01*
X0200307Y0109501D01*
X0199020Y0108214D01*
X0198323Y0106533D01*
X0198323Y0104713D01*
X0199020Y0103031D01*
X0200307Y0101744D01*
X0201988Y0101048D01*
X0209808Y0101048D01*
X0211490Y0101744D01*
X0212955Y0103463D02*
X0216020Y0103463D01*
X0216020Y0105036D02*
X0213473Y0105036D01*
X0213441Y0106610D02*
X0216020Y0106610D01*
X0216020Y0108183D02*
X0212789Y0108183D01*
X0210873Y0109756D02*
X0216020Y0109756D01*
X0216020Y0111330D02*
X0210489Y0111330D01*
X0212648Y0112903D02*
X0216020Y0112903D01*
X0216020Y0114476D02*
X0213375Y0114476D01*
X0213473Y0116050D02*
X0216020Y0116050D01*
X0216020Y0117623D02*
X0213021Y0117623D01*
X0211794Y0119196D02*
X0216020Y0119196D01*
X0216020Y0120769D02*
X0204110Y0120769D01*
X0205683Y0122343D02*
X0216020Y0122343D01*
X0216020Y0123916D02*
X0206852Y0123916D01*
X0207217Y0125489D02*
X0216020Y0125489D01*
X0216020Y0127063D02*
X0207217Y0127063D01*
X0206923Y0128636D02*
X0216020Y0128636D01*
X0216020Y0130209D02*
X0207217Y0130209D01*
X0207217Y0131783D02*
X0216020Y0131783D01*
X0216020Y0133356D02*
X0207217Y0133356D01*
X0203871Y0131430D02*
X0203812Y0131430D01*
X0201371Y0133871D01*
X0198930Y0133871D01*
X0198871Y0133812D01*
X0201820Y0136503D02*
X0216020Y0136503D01*
X0216020Y0138076D02*
X0203976Y0138076D01*
X0201430Y0138871D02*
X0203871Y0141312D01*
X0207217Y0141223D02*
X0216020Y0141223D01*
X0216020Y0142796D02*
X0207217Y0142796D01*
X0207187Y0144369D02*
X0216020Y0144369D01*
X0216020Y0145943D02*
X0207217Y0145943D01*
X0207217Y0147516D02*
X0216020Y0147516D01*
X0216020Y0149089D02*
X0206588Y0149089D01*
X0205419Y0150662D02*
X0216020Y0150662D01*
X0216020Y0152236D02*
X0203846Y0152236D01*
X0201868Y0153809D02*
X0216020Y0153809D01*
X0216020Y0155382D02*
X0187174Y0155382D01*
X0187174Y0156956D02*
X0216020Y0156956D01*
X0216020Y0158529D02*
X0187174Y0158529D01*
X0187174Y0160102D02*
X0216020Y0160102D01*
X0216020Y0161676D02*
X0187174Y0161676D01*
X0187174Y0163249D02*
X0216020Y0163249D01*
X0216020Y0164822D02*
X0187174Y0164822D01*
X0187174Y0166396D02*
X0216020Y0166396D01*
X0216020Y0167969D02*
X0187174Y0167969D01*
X0187174Y0169542D02*
X0216020Y0169542D01*
X0216020Y0171116D02*
X0187174Y0171116D01*
X0187174Y0172689D02*
X0216020Y0172689D01*
X0216020Y0174262D02*
X0187174Y0174262D01*
X0188182Y0175835D02*
X0216020Y0175835D01*
X0216020Y0177409D02*
X0188182Y0177409D01*
X0188182Y0178982D02*
X0216020Y0178982D01*
X0216020Y0180555D02*
X0188182Y0180555D01*
X0188182Y0182129D02*
X0216020Y0182129D01*
X0216020Y0183702D02*
X0187174Y0183702D01*
X0187174Y0185275D02*
X0216020Y0185275D01*
X0216020Y0186849D02*
X0186733Y0186849D01*
X0185945Y0188422D02*
X0216020Y0188422D01*
X0216020Y0189995D02*
X0185945Y0189995D01*
X0185945Y0191569D02*
X0216020Y0191569D01*
X0216020Y0193142D02*
X0185796Y0193142D01*
X0184996Y0194715D02*
X0216020Y0194715D01*
X0216020Y0196289D02*
X0182659Y0196289D01*
X0180082Y0196289D02*
X0173245Y0196289D01*
X0171583Y0196289D02*
X0171158Y0196289D01*
X0171158Y0194715D02*
X0171583Y0194715D01*
X0171583Y0193142D02*
X0171158Y0193142D01*
X0171158Y0191569D02*
X0171583Y0191569D01*
X0171583Y0189995D02*
X0171158Y0189995D01*
X0171371Y0188871D02*
X0168890Y0186390D01*
X0168890Y0178871D01*
X0167949Y0177930D01*
X0161371Y0177930D01*
X0161371Y0178982D02*
X0161371Y0178982D01*
X0161371Y0180555D02*
X0161371Y0180555D01*
X0159098Y0182129D02*
X0164419Y0182129D01*
X0167103Y0183702D02*
X0160424Y0183702D01*
X0160945Y0185275D02*
X0166618Y0185275D01*
X0166583Y0186849D02*
X0160945Y0186849D01*
X0160945Y0188422D02*
X0166583Y0188422D01*
X0166583Y0189995D02*
X0160945Y0189995D01*
X0160945Y0191569D02*
X0166583Y0191569D01*
X0166750Y0193142D02*
X0160796Y0193142D01*
X0159996Y0194715D02*
X0167520Y0194715D01*
X0169496Y0196289D02*
X0157659Y0196289D01*
X0155082Y0196289D02*
X0147659Y0196289D01*
X0145082Y0196289D02*
X0138245Y0196289D01*
X0138208Y0196307D02*
X0137492Y0196540D01*
X0136747Y0196658D01*
X0136583Y0196658D01*
X0136583Y0189083D01*
X0141158Y0189083D01*
X0141158Y0192247D01*
X0141040Y0192992D01*
X0140807Y0193708D01*
X0140465Y0194380D01*
X0140022Y0194989D01*
X0139489Y0195522D01*
X0138880Y0195965D01*
X0138208Y0196307D01*
X0136583Y0196289D02*
X0136158Y0196289D01*
X0136158Y0196658D02*
X0135994Y0196658D01*
X0135250Y0196540D01*
X0134533Y0196307D01*
X0133861Y0195965D01*
X0133252Y0195522D01*
X0132719Y0194989D01*
X0132276Y0194380D01*
X0131934Y0193708D01*
X0131701Y0192992D01*
X0131583Y0192247D01*
X0131583Y0189083D01*
X0136158Y0189083D01*
X0136158Y0188658D01*
X0136583Y0188658D01*
X0136583Y0181083D01*
X0136747Y0181083D01*
X0137492Y0181201D01*
X0138208Y0181434D01*
X0138880Y0181776D01*
X0139489Y0182219D01*
X0140022Y0182752D01*
X0140465Y0183361D01*
X0140807Y0184033D01*
X0141040Y0184750D01*
X0141158Y0185494D01*
X0141158Y0188658D01*
X0136583Y0188658D01*
X0136583Y0189083D01*
X0136158Y0189083D01*
X0136158Y0196658D01*
X0134496Y0196289D02*
X0122659Y0196289D01*
X0122281Y0196445D02*
X0120461Y0196445D01*
X0118779Y0195749D01*
X0117492Y0194462D01*
X0116796Y0192781D01*
X0116796Y0184961D01*
X0117492Y0183279D01*
X0118779Y0181992D01*
X0120461Y0181296D01*
X0122281Y0181296D01*
X0123962Y0181992D01*
X0125249Y0183279D01*
X0125945Y0184961D01*
X0125945Y0192781D01*
X0125249Y0194462D01*
X0123962Y0195749D01*
X0122281Y0196445D01*
X0120082Y0196289D02*
X0112659Y0196289D01*
X0112281Y0196445D02*
X0110461Y0196445D01*
X0108779Y0195749D01*
X0107492Y0194462D01*
X0106796Y0192781D01*
X0106796Y0184961D01*
X0107492Y0183279D01*
X0108779Y0181992D01*
X0110461Y0181296D01*
X0112281Y0181296D01*
X0113962Y0181992D01*
X0115249Y0183279D01*
X0115945Y0184961D01*
X0115945Y0192781D01*
X0115249Y0194462D01*
X0113962Y0195749D01*
X0112281Y0196445D01*
X0110082Y0196289D02*
X0102659Y0196289D01*
X0102281Y0196445D02*
X0100461Y0196445D01*
X0098779Y0195749D01*
X0097492Y0194462D01*
X0096796Y0192781D01*
X0096796Y0184961D01*
X0097492Y0183279D01*
X0098779Y0181992D01*
X0100461Y0181296D01*
X0102281Y0181296D01*
X0103962Y0181992D01*
X0105249Y0183279D01*
X0105945Y0184961D01*
X0105945Y0192781D01*
X0105249Y0194462D01*
X0103962Y0195749D01*
X0102281Y0196445D01*
X0100082Y0196289D02*
X0092659Y0196289D01*
X0090082Y0196289D02*
X0083245Y0196289D01*
X0083208Y0196307D02*
X0082492Y0196540D01*
X0081747Y0196658D01*
X0081583Y0196658D01*
X0081583Y0189083D01*
X0086158Y0189083D01*
X0086158Y0192247D01*
X0086040Y0192992D01*
X0085807Y0193708D01*
X0085465Y0194380D01*
X0085022Y0194989D01*
X0084489Y0195522D01*
X0083880Y0195965D01*
X0083208Y0196307D01*
X0081583Y0196289D02*
X0081158Y0196289D01*
X0081158Y0196658D02*
X0080994Y0196658D01*
X0080250Y0196540D01*
X0079533Y0196307D01*
X0078861Y0195965D01*
X0078252Y0195522D01*
X0077719Y0194989D01*
X0077276Y0194380D01*
X0076934Y0193708D01*
X0076701Y0192992D01*
X0076583Y0192247D01*
X0076583Y0189083D01*
X0081158Y0189083D01*
X0081158Y0188658D01*
X0081583Y0188658D01*
X0081583Y0181083D01*
X0081747Y0181083D01*
X0082492Y0181201D01*
X0083208Y0181434D01*
X0083880Y0181776D01*
X0084489Y0182219D01*
X0085022Y0182752D01*
X0085465Y0183361D01*
X0085807Y0184033D01*
X0086040Y0184750D01*
X0086158Y0185494D01*
X0086158Y0188658D01*
X0081583Y0188658D01*
X0081583Y0189083D01*
X0081158Y0189083D01*
X0081158Y0196658D01*
X0079496Y0196289D02*
X0071564Y0196289D01*
X0071564Y0197862D02*
X0216020Y0197862D01*
X0184812Y0185430D02*
X0184812Y0177910D01*
X0183851Y0178871D01*
X0184812Y0177910D02*
X0184812Y0151121D01*
X0180171Y0146480D01*
X0180171Y0144971D01*
X0182595Y0144369D02*
X0193588Y0144369D01*
X0195161Y0145943D02*
X0182974Y0145943D01*
X0184547Y0147516D02*
X0195524Y0147516D01*
X0195834Y0149089D02*
X0193088Y0149089D01*
X0193095Y0150662D02*
X0195524Y0150662D01*
X0195524Y0152236D02*
X0193095Y0152236D01*
X0192842Y0153809D02*
X0195873Y0153809D01*
X0198871Y0151430D02*
X0198930Y0151371D01*
X0201371Y0151371D01*
X0203871Y0148871D01*
X0203871Y0146430D01*
X0198871Y0146312D02*
X0193871Y0141312D01*
X0193871Y0138930D01*
X0193812Y0138871D01*
X0178871Y0138871D01*
X0177671Y0140071D01*
X0175071Y0137471D01*
X0175071Y0133871D01*
X0172571Y0136371D01*
X0163871Y0136371D01*
X0161371Y0136371D01*
X0156371Y0136371D01*
X0153871Y0138871D01*
X0153871Y0156371D01*
X0151371Y0158871D01*
X0151371Y0168871D01*
X0146371Y0173871D01*
X0146371Y0188871D01*
X0150945Y0188422D02*
X0151796Y0188422D01*
X0151796Y0186849D02*
X0150945Y0186849D01*
X0150945Y0185275D02*
X0151796Y0185275D01*
X0152317Y0183702D02*
X0150424Y0183702D01*
X0149098Y0182129D02*
X0153643Y0182129D01*
X0154008Y0180555D02*
X0148733Y0180555D01*
X0148733Y0178982D02*
X0154008Y0178982D01*
X0154008Y0177409D02*
X0148733Y0177409D01*
X0148733Y0175835D02*
X0154008Y0175835D01*
X0154008Y0174262D02*
X0149320Y0174262D01*
X0150893Y0172689D02*
X0154008Y0172689D01*
X0154008Y0171116D02*
X0152466Y0171116D01*
X0153733Y0169542D02*
X0154008Y0169542D01*
X0154008Y0167969D02*
X0153733Y0167969D01*
X0153733Y0166396D02*
X0154008Y0166396D01*
X0154008Y0164822D02*
X0153733Y0164822D01*
X0153733Y0163249D02*
X0154008Y0163249D01*
X0154008Y0161676D02*
X0153733Y0161676D01*
X0153733Y0160102D02*
X0154008Y0160102D01*
X0151371Y0153812D02*
X0146371Y0158812D01*
X0146371Y0161312D01*
X0144008Y0158359D02*
X0144008Y0157833D01*
X0149008Y0152833D01*
X0149008Y0151669D01*
X0148795Y0151882D01*
X0143947Y0151882D01*
X0143871Y0151806D01*
X0143795Y0151882D01*
X0138947Y0151882D01*
X0138871Y0151806D01*
X0138795Y0151882D01*
X0133947Y0151882D01*
X0133871Y0151806D01*
X0133795Y0151882D01*
X0128947Y0151882D01*
X0128871Y0151806D01*
X0128795Y0151882D01*
X0123947Y0151882D01*
X0123297Y0151233D01*
X0120545Y0151233D01*
X0120545Y0154323D01*
X0119623Y0155245D01*
X0113733Y0155245D01*
X0113733Y0159784D01*
X0113735Y0159783D01*
X0116471Y0159783D01*
X0119206Y0159783D01*
X0119661Y0159905D01*
X0120068Y0160140D01*
X0120401Y0160473D01*
X0120636Y0160881D01*
X0120758Y0161335D01*
X0120758Y0162671D01*
X0120758Y0164006D01*
X0120741Y0164067D01*
X0123356Y0164067D01*
X0123553Y0163871D01*
X0123024Y0163342D01*
X0123024Y0159281D01*
X0123947Y0158359D01*
X0128795Y0158359D01*
X0128871Y0158435D01*
X0128947Y0158359D01*
X0133795Y0158359D01*
X0133871Y0158435D01*
X0133947Y0158359D01*
X0138795Y0158359D01*
X0138871Y0158435D01*
X0138947Y0158359D01*
X0143795Y0158359D01*
X0143871Y0158435D01*
X0143947Y0158359D01*
X0144008Y0158359D01*
X0144886Y0156956D02*
X0113733Y0156956D01*
X0113733Y0158529D02*
X0123776Y0158529D01*
X0123024Y0160102D02*
X0120002Y0160102D01*
X0120758Y0161676D02*
X0123024Y0161676D01*
X0123024Y0163249D02*
X0120758Y0163249D01*
X0120758Y0162671D02*
X0116471Y0162671D01*
X0116471Y0162671D01*
X0120758Y0162671D01*
X0116471Y0162670D02*
X0116471Y0159783D01*
X0116471Y0162670D01*
X0116471Y0162670D01*
X0116471Y0162671D02*
X0116471Y0160778D01*
X0119382Y0157867D01*
X0116471Y0160102D02*
X0116471Y0160102D01*
X0116471Y0161676D02*
X0116471Y0161676D01*
X0116471Y0166371D02*
X0116530Y0166430D01*
X0126371Y0166430D01*
X0131371Y0166430D02*
X0136371Y0166430D01*
X0141371Y0166430D02*
X0146371Y0166430D01*
X0147358Y0169542D02*
X0120545Y0169542D01*
X0120545Y0171116D02*
X0145785Y0171116D01*
X0144212Y0172689D02*
X0119679Y0172689D01*
X0116471Y0170071D02*
X0112571Y0170071D01*
X0111371Y0168871D01*
X0111371Y0161371D01*
X0111371Y0153771D01*
X0112571Y0152571D01*
X0111371Y0151371D01*
X0111371Y0142571D01*
X0110171Y0141371D01*
X0111371Y0140171D01*
X0111371Y0136371D01*
X0112571Y0135171D01*
X0112571Y0135071D01*
X0111371Y0133871D01*
X0111371Y0118871D01*
X0112671Y0117571D01*
X0116471Y0117571D01*
X0113733Y0123916D02*
X0123389Y0123916D01*
X0123024Y0125489D02*
X0120410Y0125489D01*
X0120758Y0127063D02*
X0123024Y0127063D01*
X0123318Y0128636D02*
X0120758Y0128636D01*
X0120758Y0127671D02*
X0116471Y0127671D01*
X0116471Y0127671D01*
X0120758Y0127671D01*
X0116471Y0127670D02*
X0116471Y0124783D01*
X0116471Y0127670D01*
X0116471Y0127670D01*
X0116471Y0127063D02*
X0116471Y0127063D01*
X0116471Y0125489D02*
X0116471Y0125489D01*
X0116471Y0131371D02*
X0126312Y0131371D01*
X0126371Y0131430D01*
X0128871Y0134306D02*
X0128795Y0134382D01*
X0123947Y0134382D01*
X0123297Y0133733D01*
X0120545Y0133733D01*
X0120545Y0136823D01*
X0119623Y0137745D01*
X0113733Y0137745D01*
X0113733Y0141149D01*
X0113511Y0141371D01*
X0113733Y0141592D01*
X0113733Y0142284D01*
X0113735Y0142283D01*
X0116471Y0142283D01*
X0119206Y0142283D01*
X0119661Y0142405D01*
X0120068Y0142640D01*
X0120401Y0142973D01*
X0120636Y0143381D01*
X0120758Y0143835D01*
X0120758Y0145171D01*
X0120758Y0146506D01*
X0120757Y0146508D01*
X0123415Y0146508D01*
X0123553Y0146371D01*
X0123024Y0145842D01*
X0123024Y0141781D01*
X0123947Y0140859D01*
X0128795Y0140859D01*
X0128871Y0140935D01*
X0128947Y0140859D01*
X0133795Y0140859D01*
X0133871Y0140935D01*
X0133947Y0140859D01*
X0138795Y0140859D01*
X0138871Y0140935D01*
X0138947Y0140859D01*
X0143795Y0140859D01*
X0143871Y0140935D01*
X0143947Y0140859D01*
X0146042Y0140859D01*
X0149008Y0137892D01*
X0149008Y0134169D01*
X0148795Y0134382D01*
X0143947Y0134382D01*
X0143871Y0134306D01*
X0143795Y0134382D01*
X0138947Y0134382D01*
X0138871Y0134306D01*
X0138795Y0134382D01*
X0133947Y0134382D01*
X0133871Y0134306D01*
X0133795Y0134382D01*
X0128947Y0134382D01*
X0128871Y0134306D01*
X0131371Y0131430D02*
X0136371Y0131430D01*
X0141371Y0131430D02*
X0146371Y0131430D01*
X0149008Y0134929D02*
X0120545Y0134929D01*
X0120545Y0136503D02*
X0149008Y0136503D01*
X0148825Y0138076D02*
X0113733Y0138076D01*
X0113733Y0139649D02*
X0147251Y0139649D01*
X0151371Y0138871D02*
X0146430Y0143812D01*
X0146371Y0143812D01*
X0141371Y0143812D02*
X0136371Y0143812D01*
X0131371Y0143812D02*
X0126371Y0143812D01*
X0123024Y0144369D02*
X0120758Y0144369D01*
X0120758Y0145171D02*
X0116471Y0145171D01*
X0120758Y0145171D01*
X0120758Y0145943D02*
X0123125Y0145943D01*
X0123024Y0142796D02*
X0120224Y0142796D01*
X0116471Y0142796D02*
X0116471Y0142796D01*
X0116471Y0142283D02*
X0116471Y0145170D01*
X0116471Y0145170D01*
X0116471Y0145171D02*
X0116471Y0145171D01*
X0116471Y0145170D02*
X0116471Y0142283D01*
X0116471Y0144369D02*
X0116471Y0144369D01*
X0113659Y0141223D02*
X0123583Y0141223D01*
X0126312Y0148871D02*
X0116471Y0148871D01*
X0116471Y0152571D02*
X0112571Y0152571D01*
X0113733Y0155382D02*
X0146459Y0155382D01*
X0148032Y0153809D02*
X0120545Y0153809D01*
X0120545Y0152236D02*
X0149008Y0152236D01*
X0151371Y0153812D02*
X0151371Y0138871D01*
X0151371Y0121371D01*
X0151371Y0111371D01*
X0148812Y0108812D01*
X0146371Y0108812D01*
X0149950Y0106610D02*
X0198355Y0106610D01*
X0198323Y0105036D02*
X0095320Y0105036D01*
X0096894Y0106610D02*
X0123196Y0106610D01*
X0123024Y0108183D02*
X0120522Y0108183D01*
X0120758Y0109756D02*
X0123024Y0109756D01*
X0123512Y0111330D02*
X0120758Y0111330D01*
X0126371Y0108812D02*
X0131371Y0108812D01*
X0136371Y0108812D02*
X0141371Y0108812D01*
X0151524Y0108183D02*
X0199007Y0108183D01*
X0200923Y0109756D02*
X0153097Y0109756D01*
X0153733Y0111330D02*
X0201308Y0111330D01*
X0199148Y0112903D02*
X0153733Y0112903D01*
X0153733Y0114476D02*
X0198421Y0114476D01*
X0198323Y0116050D02*
X0153733Y0116050D01*
X0153733Y0117623D02*
X0198775Y0117623D01*
X0198871Y0121312D02*
X0201312Y0121312D01*
X0203871Y0123871D01*
X0203871Y0126312D01*
X0203653Y0134929D02*
X0216020Y0134929D01*
X0216020Y0139649D02*
X0207217Y0139649D01*
X0201430Y0138871D02*
X0201371Y0138871D01*
X0201312Y0138930D01*
X0198871Y0138930D01*
X0192014Y0142796D02*
X0182595Y0142796D01*
X0177671Y0144971D02*
X0177671Y0140071D01*
X0175071Y0144971D02*
X0175071Y0150171D01*
X0173871Y0151371D01*
X0173871Y0153812D01*
X0178871Y0153812D01*
X0182217Y0155382D02*
X0182449Y0155382D01*
X0182449Y0156956D02*
X0182217Y0156956D01*
X0182217Y0158529D02*
X0182449Y0158529D01*
X0182449Y0160102D02*
X0182217Y0160102D01*
X0182449Y0161676D02*
X0181501Y0161676D01*
X0181233Y0163249D02*
X0182449Y0163249D01*
X0182449Y0164822D02*
X0181882Y0164822D01*
X0181882Y0166396D02*
X0182449Y0166396D01*
X0182449Y0167969D02*
X0181882Y0167969D01*
X0182449Y0169542D02*
X0181135Y0169542D01*
X0182449Y0171116D02*
X0176882Y0171116D01*
X0176882Y0172689D02*
X0182449Y0172689D01*
X0182449Y0174262D02*
X0176415Y0174262D01*
X0173422Y0175835D02*
X0179520Y0175835D01*
X0179520Y0177409D02*
X0173434Y0177409D01*
X0173434Y0180555D02*
X0179520Y0180555D01*
X0179520Y0178982D02*
X0169481Y0178982D01*
X0174365Y0182129D02*
X0178643Y0182129D01*
X0177317Y0183702D02*
X0175639Y0183702D01*
X0176123Y0185275D02*
X0176796Y0185275D01*
X0176796Y0186849D02*
X0176158Y0186849D01*
X0176158Y0188422D02*
X0176796Y0188422D01*
X0176796Y0189995D02*
X0176158Y0189995D01*
X0176158Y0191569D02*
X0176796Y0191569D01*
X0176945Y0193142D02*
X0175991Y0193142D01*
X0175221Y0194715D02*
X0177746Y0194715D01*
X0181371Y0188871D02*
X0184812Y0185430D01*
X0173930Y0171371D02*
X0173930Y0166489D01*
X0173812Y0166371D01*
X0178871Y0166312D02*
X0178930Y0166371D01*
X0178871Y0166312D02*
X0178871Y0158930D01*
X0173871Y0158930D02*
X0171430Y0161371D01*
X0167430Y0161371D01*
X0166430Y0166371D02*
X0166430Y0168989D01*
X0168812Y0171371D01*
X0161371Y0172812D02*
X0161312Y0172752D01*
X0161312Y0166371D01*
X0162312Y0161371D02*
X0162312Y0156371D01*
X0162312Y0151371D02*
X0162312Y0146371D01*
X0167430Y0146371D02*
X0168830Y0144971D01*
X0172571Y0144971D01*
X0172471Y0144971D01*
X0168871Y0141371D01*
X0158871Y0141371D01*
X0156371Y0143871D01*
X0156371Y0188871D01*
X0151796Y0189995D02*
X0150945Y0189995D01*
X0150945Y0191569D02*
X0151796Y0191569D01*
X0151945Y0193142D02*
X0150796Y0193142D01*
X0149996Y0194715D02*
X0152746Y0194715D01*
X0142746Y0194715D02*
X0140221Y0194715D01*
X0140991Y0193142D02*
X0141945Y0193142D01*
X0141796Y0191569D02*
X0141158Y0191569D01*
X0141158Y0189995D02*
X0141796Y0189995D01*
X0141796Y0188422D02*
X0141158Y0188422D01*
X0141158Y0186849D02*
X0141796Y0186849D01*
X0141796Y0185275D02*
X0141123Y0185275D01*
X0140639Y0183702D02*
X0142317Y0183702D01*
X0143643Y0182129D02*
X0139365Y0182129D01*
X0136583Y0182129D02*
X0136158Y0182129D01*
X0136158Y0181083D02*
X0136158Y0188658D01*
X0131583Y0188658D01*
X0131583Y0185494D01*
X0131701Y0184750D01*
X0131934Y0184033D01*
X0132276Y0183361D01*
X0132719Y0182752D01*
X0133252Y0182219D01*
X0133861Y0181776D01*
X0134533Y0181434D01*
X0135250Y0181201D01*
X0135994Y0181083D01*
X0136158Y0181083D01*
X0136158Y0183702D02*
X0136583Y0183702D01*
X0136583Y0185275D02*
X0136158Y0185275D01*
X0136158Y0186849D02*
X0136583Y0186849D01*
X0136583Y0188422D02*
X0136158Y0188422D01*
X0136158Y0189995D02*
X0136583Y0189995D01*
X0136583Y0191569D02*
X0136158Y0191569D01*
X0136158Y0193142D02*
X0136583Y0193142D01*
X0136583Y0194715D02*
X0136158Y0194715D01*
X0132520Y0194715D02*
X0124996Y0194715D01*
X0125796Y0193142D02*
X0131750Y0193142D01*
X0131583Y0191569D02*
X0125945Y0191569D01*
X0125945Y0189995D02*
X0131583Y0189995D01*
X0131583Y0188422D02*
X0125945Y0188422D01*
X0125945Y0186849D02*
X0131583Y0186849D01*
X0131618Y0185275D02*
X0125945Y0185275D01*
X0125424Y0183702D02*
X0132102Y0183702D01*
X0133376Y0182129D02*
X0124098Y0182129D01*
X0118643Y0182129D02*
X0114098Y0182129D01*
X0115424Y0183702D02*
X0117317Y0183702D01*
X0116796Y0185275D02*
X0115945Y0185275D01*
X0115945Y0186849D02*
X0116796Y0186849D01*
X0116796Y0188422D02*
X0115945Y0188422D01*
X0115945Y0189995D02*
X0116796Y0189995D01*
X0116796Y0191569D02*
X0115945Y0191569D01*
X0115796Y0193142D02*
X0116945Y0193142D01*
X0117746Y0194715D02*
X0114996Y0194715D01*
X0107746Y0194715D02*
X0104996Y0194715D01*
X0105796Y0193142D02*
X0106945Y0193142D01*
X0106796Y0191569D02*
X0105945Y0191569D01*
X0105945Y0189995D02*
X0106796Y0189995D01*
X0106796Y0188422D02*
X0105945Y0188422D01*
X0105945Y0186849D02*
X0106796Y0186849D01*
X0106796Y0185275D02*
X0105945Y0185275D01*
X0105424Y0183702D02*
X0107317Y0183702D01*
X0108643Y0182129D02*
X0104098Y0182129D01*
X0098643Y0182129D02*
X0094098Y0182129D01*
X0093339Y0180555D02*
X0144008Y0180555D01*
X0144008Y0178982D02*
X0093339Y0178982D01*
X0093339Y0177409D02*
X0144008Y0177409D01*
X0144008Y0175835D02*
X0093339Y0175835D01*
X0093339Y0174262D02*
X0093826Y0174262D01*
X0093871Y0171371D02*
X0096312Y0171371D01*
X0096371Y0171430D01*
X0104912Y0171430D01*
X0106271Y0170071D01*
X0106270Y0166371D02*
X0106270Y0166371D01*
X0101983Y0166371D01*
X0101983Y0167706D01*
X0102105Y0168161D01*
X0102196Y0168318D01*
X0102196Y0168318D01*
X0102196Y0169067D01*
X0099385Y0169067D01*
X0099339Y0169021D01*
X0099573Y0168787D01*
X0099808Y0168379D01*
X0099930Y0167925D01*
X0099930Y0166312D01*
X0096371Y0166312D01*
X0096371Y0166311D01*
X0099930Y0166311D01*
X0099930Y0164698D01*
X0099808Y0164244D01*
X0099573Y0163836D01*
X0099240Y0163503D01*
X0098832Y0163268D01*
X0098378Y0163146D01*
X0096371Y0163146D01*
X0096371Y0166311D01*
X0096371Y0166311D01*
X0096371Y0163146D01*
X0094364Y0163146D01*
X0093909Y0163268D01*
X0093733Y0163370D01*
X0093733Y0157349D01*
X0094199Y0156882D01*
X0098129Y0156882D01*
X0097615Y0158123D01*
X0097615Y0159618D01*
X0098187Y0160998D01*
X0099243Y0162055D01*
X0100623Y0162627D01*
X0102118Y0162627D01*
X0102196Y0162594D01*
X0102196Y0164423D01*
X0102196Y0164423D01*
X0102105Y0164581D01*
X0101983Y0165035D01*
X0101983Y0166371D01*
X0106270Y0166371D01*
X0106271Y0166371D02*
X0096430Y0166371D01*
X0096371Y0166312D01*
X0096371Y0164822D02*
X0096371Y0164822D01*
X0096371Y0163249D02*
X0096371Y0163249D01*
X0098761Y0163249D02*
X0102196Y0163249D01*
X0102040Y0164822D02*
X0099930Y0164822D01*
X0099930Y0166396D02*
X0101983Y0166396D01*
X0102054Y0167969D02*
X0099918Y0167969D01*
X0098864Y0161676D02*
X0093733Y0161676D01*
X0093733Y0163249D02*
X0093980Y0163249D01*
X0091371Y0161804D02*
X0091371Y0161371D01*
X0091371Y0158871D01*
X0091371Y0156371D01*
X0093812Y0153930D01*
X0096371Y0153930D01*
X0104912Y0153930D01*
X0106271Y0152571D01*
X0106936Y0155245D02*
X0109008Y0155245D01*
X0109008Y0159996D01*
X0105280Y0159996D01*
X0105061Y0159777D01*
X0105127Y0159618D01*
X0105127Y0158123D01*
X0104555Y0156743D01*
X0104103Y0156292D01*
X0105890Y0156292D01*
X0106936Y0155245D01*
X0106799Y0155382D02*
X0109008Y0155382D01*
X0109008Y0156956D02*
X0104643Y0156956D01*
X0105127Y0158529D02*
X0109008Y0158529D01*
X0102196Y0151567D02*
X0102196Y0150818D01*
X0102105Y0150661D01*
X0101983Y0150206D01*
X0101983Y0148871D01*
X0106270Y0148871D01*
X0106270Y0148871D01*
X0101983Y0148871D01*
X0101983Y0147535D01*
X0102089Y0147139D01*
X0101855Y0147139D01*
X0100555Y0145839D01*
X0098955Y0145839D01*
X0099240Y0146003D01*
X0099573Y0146336D01*
X0099808Y0146744D01*
X0099930Y0147198D01*
X0099930Y0148811D01*
X0096371Y0148811D01*
X0096371Y0148812D01*
X0099930Y0148812D01*
X0099930Y0150425D01*
X0099808Y0150879D01*
X0099573Y0151287D01*
X0099339Y0151521D01*
X0099385Y0151567D01*
X0102196Y0151567D01*
X0102196Y0150818D02*
X0102196Y0150818D01*
X0102106Y0150662D02*
X0099866Y0150662D01*
X0099930Y0149089D02*
X0101983Y0149089D01*
X0101988Y0147516D02*
X0099930Y0147516D01*
X0100659Y0145943D02*
X0099134Y0145943D01*
X0096371Y0148812D02*
X0106212Y0148812D01*
X0106271Y0148871D01*
X0110171Y0141371D02*
X0091371Y0141371D01*
X0083871Y0141371D01*
X0078871Y0136371D01*
X0082326Y0133356D02*
X0088221Y0133356D01*
X0088221Y0132670D02*
X0088221Y0135636D01*
X0089605Y0137020D01*
X0091376Y0138792D01*
X0091781Y0138792D01*
X0091998Y0139008D01*
X0090392Y0139008D01*
X0084849Y0139008D01*
X0083445Y0137605D01*
X0083445Y0134476D01*
X0081640Y0132670D01*
X0088221Y0132670D01*
X0088221Y0134929D02*
X0083445Y0134929D01*
X0083445Y0136503D02*
X0089087Y0136503D01*
X0090660Y0138076D02*
X0083917Y0138076D01*
X0080382Y0141223D02*
X0076075Y0141223D01*
X0076976Y0140945D02*
X0076075Y0140045D01*
X0076075Y0147696D01*
X0076976Y0146796D01*
X0080766Y0146796D01*
X0082040Y0148070D01*
X0082040Y0145969D01*
X0084276Y0143733D01*
X0082892Y0143733D01*
X0080105Y0140945D01*
X0076976Y0140945D01*
X0076075Y0142796D02*
X0081955Y0142796D01*
X0083639Y0144369D02*
X0076075Y0144369D01*
X0076075Y0145943D02*
X0082066Y0145943D01*
X0082040Y0147516D02*
X0081486Y0147516D01*
X0085977Y0147599D02*
X0087737Y0145839D01*
X0093786Y0145839D01*
X0093501Y0146003D01*
X0093169Y0146336D01*
X0092933Y0146744D01*
X0092812Y0147198D01*
X0092812Y0148811D01*
X0096370Y0148811D01*
X0096370Y0148812D01*
X0092812Y0148812D01*
X0092812Y0150425D01*
X0092933Y0150879D01*
X0093169Y0151287D01*
X0093403Y0151521D01*
X0093356Y0151567D01*
X0092833Y0151567D01*
X0091449Y0152951D01*
X0091449Y0152951D01*
X0090392Y0154008D01*
X0090392Y0154008D01*
X0089008Y0155392D01*
X0089008Y0159441D01*
X0087454Y0159441D01*
X0087764Y0158693D01*
X0087764Y0157198D01*
X0087192Y0155818D01*
X0086136Y0154761D01*
X0085977Y0154695D01*
X0085977Y0147599D01*
X0086060Y0147516D02*
X0092812Y0147516D01*
X0092812Y0149089D02*
X0085977Y0149089D01*
X0085977Y0150662D02*
X0092875Y0150662D01*
X0092165Y0152236D02*
X0085977Y0152236D01*
X0085977Y0153809D02*
X0090591Y0153809D01*
X0089018Y0155382D02*
X0086757Y0155382D01*
X0087664Y0156956D02*
X0089008Y0156956D01*
X0089008Y0158529D02*
X0087764Y0158529D01*
X0091371Y0161804D02*
X0080012Y0161804D01*
X0073713Y0155504D01*
X0073713Y0151528D01*
X0073713Y0133457D01*
X0076863Y0130308D01*
X0081242Y0120769D02*
X0088221Y0120769D01*
X0088221Y0119196D02*
X0082815Y0119196D01*
X0083658Y0117623D02*
X0088221Y0117623D01*
X0088221Y0116050D02*
X0083658Y0116050D01*
X0083658Y0114476D02*
X0088221Y0114476D01*
X0087153Y0112903D02*
X0082173Y0112903D01*
X0090583Y0111371D02*
X0090583Y0120859D01*
X0094796Y0118811D02*
X0094796Y0118811D01*
X0094796Y0115646D01*
X0096803Y0115646D01*
X0097257Y0115768D01*
X0097665Y0116003D01*
X0097998Y0116336D01*
X0098233Y0116744D01*
X0098355Y0117198D01*
X0098355Y0117758D01*
X0099605Y0116508D01*
X0100905Y0115208D01*
X0101984Y0115208D01*
X0101983Y0115206D01*
X0101983Y0113871D01*
X0106270Y0113871D01*
X0106270Y0113871D01*
X0101983Y0113871D01*
X0101983Y0112535D01*
X0102089Y0112139D01*
X0096855Y0112139D01*
X0093055Y0108339D01*
X0092863Y0108339D01*
X0093767Y0109243D01*
X0094339Y0110623D01*
X0094339Y0112118D01*
X0093767Y0113498D01*
X0092945Y0114320D01*
X0092945Y0115646D01*
X0094796Y0115646D01*
X0094796Y0118811D01*
X0094796Y0118812D02*
X0099737Y0113871D01*
X0100524Y0113871D01*
X0106271Y0113871D01*
X0101983Y0114476D02*
X0092945Y0114476D01*
X0094014Y0112903D02*
X0101983Y0112903D01*
X0100064Y0116050D02*
X0097711Y0116050D01*
X0098355Y0117623D02*
X0098490Y0117623D01*
X0094796Y0117623D02*
X0094796Y0117623D01*
X0094796Y0116050D02*
X0094796Y0116050D01*
X0094339Y0111330D02*
X0096046Y0111330D01*
X0094472Y0109756D02*
X0093980Y0109756D01*
X0098467Y0108183D02*
X0102431Y0108183D01*
X0103123Y0097627D02*
X0101743Y0097055D01*
X0100687Y0095998D01*
X0100115Y0094618D01*
X0100115Y0093123D01*
X0100687Y0091743D01*
X0101743Y0090687D01*
X0103123Y0090115D01*
X0104618Y0090115D01*
X0104777Y0090181D01*
X0110244Y0084714D01*
X0109992Y0084462D01*
X0109296Y0082781D01*
X0109296Y0074961D01*
X0109992Y0073279D01*
X0111279Y0071992D01*
X0112961Y0071296D01*
X0114781Y0071296D01*
X0116462Y0071992D01*
X0117749Y0073279D01*
X0118445Y0074961D01*
X0118445Y0082781D01*
X0117749Y0084462D01*
X0116462Y0085749D01*
X0114781Y0086445D01*
X0114080Y0086445D01*
X0107561Y0092964D01*
X0107627Y0093123D01*
X0107627Y0094618D01*
X0107055Y0095998D01*
X0105998Y0097055D01*
X0104618Y0097627D01*
X0103123Y0097627D01*
X0102021Y0097170D02*
X0071564Y0097170D01*
X0071564Y0098743D02*
X0199248Y0098743D01*
X0198367Y0097170D02*
X0150720Y0097170D01*
X0147021Y0097170D02*
X0135720Y0097170D01*
X0135998Y0097055D02*
X0134618Y0097627D01*
X0133123Y0097627D01*
X0131743Y0097055D01*
X0130687Y0095998D01*
X0130115Y0094618D01*
X0130115Y0093123D01*
X0130687Y0091743D01*
X0131743Y0090687D01*
X0131902Y0090621D01*
X0131902Y0086007D01*
X0131279Y0085749D01*
X0129992Y0084462D01*
X0129296Y0082781D01*
X0129296Y0074961D01*
X0129992Y0073279D01*
X0131279Y0071992D01*
X0132961Y0071296D01*
X0134781Y0071296D01*
X0136462Y0071992D01*
X0137749Y0073279D01*
X0138445Y0074961D01*
X0138445Y0082781D01*
X0137749Y0084462D01*
X0136462Y0085749D01*
X0135839Y0086007D01*
X0135839Y0090621D01*
X0135998Y0090687D01*
X0137055Y0091743D01*
X0137627Y0093123D01*
X0137627Y0094618D01*
X0137055Y0095998D01*
X0135998Y0097055D01*
X0137221Y0095596D02*
X0145520Y0095596D01*
X0145115Y0094023D02*
X0137627Y0094023D01*
X0137347Y0092450D02*
X0145394Y0092450D01*
X0145593Y0090877D02*
X0136188Y0090877D01*
X0135839Y0089303D02*
X0144019Y0089303D01*
X0142446Y0087730D02*
X0135839Y0087730D01*
X0135839Y0086157D02*
X0141902Y0086157D01*
X0140113Y0084583D02*
X0137628Y0084583D01*
X0138350Y0083010D02*
X0139391Y0083010D01*
X0139296Y0081437D02*
X0138445Y0081437D01*
X0138445Y0079863D02*
X0139296Y0079863D01*
X0139296Y0078290D02*
X0138445Y0078290D01*
X0138445Y0076717D02*
X0139296Y0076717D01*
X0139296Y0075143D02*
X0138445Y0075143D01*
X0137869Y0073570D02*
X0139872Y0073570D01*
X0141275Y0071997D02*
X0136466Y0071997D01*
X0131275Y0071997D02*
X0126466Y0071997D01*
X0126462Y0071992D02*
X0127749Y0073279D01*
X0128445Y0074961D01*
X0128445Y0082781D01*
X0127749Y0084462D01*
X0126462Y0085749D01*
X0124781Y0086445D01*
X0124080Y0086445D01*
X0120839Y0089686D01*
X0120839Y0090621D01*
X0120998Y0090687D01*
X0122055Y0091743D01*
X0122627Y0093123D01*
X0122627Y0094618D01*
X0122055Y0095998D01*
X0120998Y0097055D01*
X0119618Y0097627D01*
X0118123Y0097627D01*
X0116743Y0097055D01*
X0115687Y0095998D01*
X0115115Y0094618D01*
X0115115Y0093123D01*
X0115687Y0091743D01*
X0116743Y0090687D01*
X0116902Y0090621D01*
X0116902Y0088055D01*
X0120244Y0084714D01*
X0119992Y0084462D01*
X0119296Y0082781D01*
X0119296Y0074961D01*
X0119992Y0073279D01*
X0121279Y0071992D01*
X0122961Y0071296D01*
X0124781Y0071296D01*
X0126462Y0071992D01*
X0127869Y0073570D02*
X0129872Y0073570D01*
X0129296Y0075143D02*
X0128445Y0075143D01*
X0128445Y0076717D02*
X0129296Y0076717D01*
X0129296Y0078290D02*
X0128445Y0078290D01*
X0128445Y0079863D02*
X0129296Y0079863D01*
X0129296Y0081437D02*
X0128445Y0081437D01*
X0128350Y0083010D02*
X0129391Y0083010D01*
X0130113Y0084583D02*
X0127628Y0084583D01*
X0125478Y0086157D02*
X0131902Y0086157D01*
X0131902Y0087730D02*
X0122795Y0087730D01*
X0121222Y0089303D02*
X0131902Y0089303D01*
X0131553Y0090877D02*
X0121188Y0090877D01*
X0122347Y0092450D02*
X0130394Y0092450D01*
X0130115Y0094023D02*
X0122627Y0094023D01*
X0122221Y0095596D02*
X0130520Y0095596D01*
X0132021Y0097170D02*
X0120720Y0097170D01*
X0117021Y0097170D02*
X0105720Y0097170D01*
X0107221Y0095596D02*
X0115520Y0095596D01*
X0115115Y0094023D02*
X0107627Y0094023D01*
X0108075Y0092450D02*
X0115394Y0092450D01*
X0116553Y0090877D02*
X0109649Y0090877D01*
X0111222Y0089303D02*
X0116902Y0089303D01*
X0117227Y0087730D02*
X0112795Y0087730D01*
X0110114Y0084583D02*
X0107817Y0084583D01*
X0107965Y0084380D02*
X0107522Y0084989D01*
X0106989Y0085522D01*
X0106380Y0085965D01*
X0105708Y0086307D01*
X0104992Y0086540D01*
X0104247Y0086658D01*
X0104083Y0086658D01*
X0104083Y0079083D01*
X0103658Y0079083D01*
X0103658Y0078658D01*
X0099083Y0078658D01*
X0099083Y0075494D01*
X0099201Y0074750D01*
X0099434Y0074033D01*
X0099776Y0073361D01*
X0100219Y0072752D01*
X0100752Y0072219D01*
X0101361Y0071776D01*
X0102033Y0071434D01*
X0102750Y0071201D01*
X0103494Y0071083D01*
X0103658Y0071083D01*
X0103658Y0078658D01*
X0104083Y0078658D01*
X0104083Y0071083D01*
X0104247Y0071083D01*
X0104992Y0071201D01*
X0105708Y0071434D01*
X0106380Y0071776D01*
X0106989Y0072219D01*
X0107522Y0072752D01*
X0107965Y0073361D01*
X0108307Y0074033D01*
X0108540Y0074750D01*
X0108658Y0075494D01*
X0108658Y0078658D01*
X0104083Y0078658D01*
X0104083Y0079083D01*
X0108658Y0079083D01*
X0108658Y0082247D01*
X0108540Y0082992D01*
X0108307Y0083708D01*
X0107965Y0084380D01*
X0108534Y0083010D02*
X0109391Y0083010D01*
X0109296Y0081437D02*
X0108658Y0081437D01*
X0108658Y0079863D02*
X0109296Y0079863D01*
X0109296Y0078290D02*
X0108658Y0078290D01*
X0108658Y0076717D02*
X0109296Y0076717D01*
X0109296Y0075143D02*
X0108602Y0075143D01*
X0108071Y0073570D02*
X0109872Y0073570D01*
X0111275Y0071997D02*
X0106683Y0071997D01*
X0104083Y0071997D02*
X0103658Y0071997D01*
X0103658Y0073570D02*
X0104083Y0073570D01*
X0104083Y0075143D02*
X0103658Y0075143D01*
X0103658Y0076717D02*
X0104083Y0076717D01*
X0104083Y0078290D02*
X0103658Y0078290D01*
X0103658Y0079083D02*
X0099083Y0079083D01*
X0099083Y0082247D01*
X0099201Y0082992D01*
X0099434Y0083708D01*
X0099776Y0084380D01*
X0100219Y0084989D01*
X0100752Y0085522D01*
X0101361Y0085965D01*
X0102033Y0086307D01*
X0102750Y0086540D01*
X0103494Y0086658D01*
X0103658Y0086658D01*
X0103658Y0079083D01*
X0103658Y0079863D02*
X0104083Y0079863D01*
X0104083Y0081437D02*
X0103658Y0081437D01*
X0103658Y0083010D02*
X0104083Y0083010D01*
X0104083Y0084583D02*
X0103658Y0084583D01*
X0103658Y0086157D02*
X0104083Y0086157D01*
X0106004Y0086157D02*
X0108801Y0086157D01*
X0107227Y0087730D02*
X0071564Y0087730D01*
X0071564Y0089303D02*
X0105654Y0089303D01*
X0101553Y0090877D02*
X0071564Y0090877D01*
X0071564Y0092450D02*
X0100394Y0092450D01*
X0100115Y0094023D02*
X0071564Y0094023D01*
X0071564Y0095596D02*
X0100520Y0095596D01*
X0101737Y0086157D02*
X0071564Y0086157D01*
X0071564Y0084583D02*
X0099924Y0084583D01*
X0099207Y0083010D02*
X0071564Y0083010D01*
X0071564Y0081437D02*
X0099083Y0081437D01*
X0099083Y0079863D02*
X0071564Y0079863D01*
X0071564Y0078290D02*
X0099083Y0078290D01*
X0099083Y0076717D02*
X0071564Y0076717D01*
X0071564Y0075143D02*
X0099139Y0075143D01*
X0099670Y0073570D02*
X0071564Y0073570D01*
X0071564Y0071997D02*
X0101058Y0071997D01*
X0116466Y0071997D02*
X0121275Y0071997D01*
X0119872Y0073570D02*
X0117869Y0073570D01*
X0118445Y0075143D02*
X0119296Y0075143D01*
X0119296Y0076717D02*
X0118445Y0076717D01*
X0118445Y0078290D02*
X0119296Y0078290D01*
X0119296Y0079863D02*
X0118445Y0079863D01*
X0118445Y0081437D02*
X0119296Y0081437D01*
X0119391Y0083010D02*
X0118350Y0083010D01*
X0117628Y0084583D02*
X0120114Y0084583D01*
X0118801Y0086157D02*
X0115478Y0086157D01*
X0146440Y0086157D02*
X0164560Y0086157D01*
X0164560Y0087730D02*
X0148014Y0087730D01*
X0149587Y0089303D02*
X0164560Y0089303D01*
X0164560Y0090877D02*
X0151188Y0090877D01*
X0152347Y0092450D02*
X0164731Y0092450D01*
X0168890Y0088871D02*
X0168890Y0081351D01*
X0171371Y0078871D01*
X0166796Y0078290D02*
X0148445Y0078290D01*
X0148445Y0079863D02*
X0166796Y0079863D01*
X0166528Y0081437D02*
X0148445Y0081437D01*
X0148350Y0083010D02*
X0166528Y0083010D01*
X0165439Y0084583D02*
X0147628Y0084583D01*
X0148445Y0076717D02*
X0166796Y0076717D01*
X0166796Y0075143D02*
X0148445Y0075143D01*
X0147869Y0073570D02*
X0167372Y0073570D01*
X0168775Y0071997D02*
X0146466Y0071997D01*
X0173966Y0071997D02*
X0178558Y0071997D01*
X0177170Y0073570D02*
X0175369Y0073570D01*
X0175945Y0075143D02*
X0176639Y0075143D01*
X0176583Y0076717D02*
X0175945Y0076717D01*
X0188394Y0090877D02*
X0202260Y0090877D01*
X0201931Y0100316D02*
X0071564Y0100316D01*
X0071564Y0101890D02*
X0200161Y0101890D01*
X0198841Y0103463D02*
X0071564Y0103463D01*
X0094737Y0123871D02*
X0094796Y0123930D01*
X0092945Y0126882D02*
X0096827Y0126882D01*
X0096827Y0127905D01*
X0096943Y0128184D01*
X0096803Y0128146D01*
X0094796Y0128146D01*
X0094796Y0131311D01*
X0094796Y0131311D01*
X0094796Y0131312D01*
X0098355Y0131312D01*
X0098355Y0132925D01*
X0098233Y0133379D01*
X0097998Y0133787D01*
X0097764Y0134021D01*
X0097810Y0134067D01*
X0102196Y0134067D01*
X0102196Y0133318D01*
X0102105Y0133161D01*
X0101983Y0132706D01*
X0101983Y0131371D01*
X0106270Y0131371D01*
X0106270Y0131371D01*
X0101983Y0131371D01*
X0101983Y0130643D01*
X0101330Y0130914D01*
X0099836Y0130914D01*
X0098456Y0130342D01*
X0098355Y0130241D01*
X0098355Y0131311D01*
X0094796Y0131311D01*
X0094796Y0128146D01*
X0092945Y0128146D01*
X0092945Y0126882D01*
X0092945Y0127063D02*
X0096827Y0127063D01*
X0094796Y0128636D02*
X0094796Y0128636D01*
X0094796Y0130209D02*
X0094796Y0130209D01*
X0094796Y0131312D02*
X0106212Y0131312D01*
X0106271Y0131371D01*
X0106271Y0135071D02*
X0104912Y0136430D01*
X0094796Y0136430D01*
X0092355Y0136430D01*
X0090583Y0134658D01*
X0090583Y0130308D01*
X0098355Y0131783D02*
X0101983Y0131783D01*
X0102196Y0133318D02*
X0102196Y0133318D01*
X0102196Y0133356D02*
X0098239Y0133356D01*
X0093607Y0145943D02*
X0087634Y0145943D01*
X0076256Y0147516D02*
X0076075Y0147516D01*
X0072378Y0160102D02*
X0071564Y0160102D01*
X0071564Y0161676D02*
X0073951Y0161676D01*
X0075524Y0163249D02*
X0071564Y0163249D01*
X0071564Y0164822D02*
X0077097Y0164822D01*
X0078671Y0166396D02*
X0071564Y0166396D01*
X0071564Y0167969D02*
X0083394Y0167969D01*
X0084967Y0169542D02*
X0071564Y0169542D01*
X0071564Y0171116D02*
X0086540Y0171116D01*
X0088114Y0172689D02*
X0071564Y0172689D01*
X0071564Y0174262D02*
X0089402Y0174262D01*
X0089402Y0175835D02*
X0071564Y0175835D01*
X0071564Y0177409D02*
X0089402Y0177409D01*
X0089402Y0178982D02*
X0071564Y0178982D01*
X0071564Y0180555D02*
X0089402Y0180555D01*
X0088643Y0182129D02*
X0084365Y0182129D01*
X0085639Y0183702D02*
X0087317Y0183702D01*
X0086796Y0185275D02*
X0086123Y0185275D01*
X0086158Y0186849D02*
X0086796Y0186849D01*
X0086796Y0188422D02*
X0086158Y0188422D01*
X0086158Y0189995D02*
X0086796Y0189995D01*
X0086796Y0191569D02*
X0086158Y0191569D01*
X0085991Y0193142D02*
X0086945Y0193142D01*
X0087746Y0194715D02*
X0085221Y0194715D01*
X0081583Y0194715D02*
X0081158Y0194715D01*
X0081158Y0193142D02*
X0081583Y0193142D01*
X0081583Y0191569D02*
X0081158Y0191569D01*
X0081158Y0189995D02*
X0081583Y0189995D01*
X0081158Y0188658D02*
X0076583Y0188658D01*
X0076583Y0185494D01*
X0076701Y0184750D01*
X0076934Y0184033D01*
X0077276Y0183361D01*
X0077719Y0182752D01*
X0078252Y0182219D01*
X0078861Y0181776D01*
X0079533Y0181434D01*
X0080250Y0181201D01*
X0080994Y0181083D01*
X0081158Y0181083D01*
X0081158Y0188658D01*
X0081158Y0188422D02*
X0081583Y0188422D01*
X0081583Y0186849D02*
X0081158Y0186849D01*
X0081158Y0185275D02*
X0081583Y0185275D01*
X0081583Y0183702D02*
X0081158Y0183702D01*
X0081158Y0182129D02*
X0081583Y0182129D01*
X0078376Y0182129D02*
X0071564Y0182129D01*
X0071564Y0183702D02*
X0077102Y0183702D01*
X0076618Y0185275D02*
X0071564Y0185275D01*
X0071564Y0186849D02*
X0076583Y0186849D01*
X0076583Y0188422D02*
X0071564Y0188422D01*
X0071564Y0189995D02*
X0076583Y0189995D01*
X0076583Y0191569D02*
X0071564Y0191569D01*
X0071564Y0193142D02*
X0076750Y0193142D01*
X0077520Y0194715D02*
X0071564Y0194715D01*
X0094996Y0194715D02*
X0097746Y0194715D01*
X0096945Y0193142D02*
X0095796Y0193142D01*
X0095945Y0191569D02*
X0096796Y0191569D01*
X0096796Y0189995D02*
X0095945Y0189995D01*
X0095945Y0188422D02*
X0096796Y0188422D01*
X0096796Y0186849D02*
X0095945Y0186849D01*
X0095945Y0185275D02*
X0096796Y0185275D01*
X0097317Y0183702D02*
X0095424Y0183702D01*
X0098915Y0174262D02*
X0144008Y0174262D01*
X0141371Y0161312D02*
X0136371Y0161312D01*
X0131371Y0161312D02*
X0126371Y0161312D01*
X0126371Y0148930D02*
X0126312Y0148871D01*
X0131371Y0148930D02*
X0136371Y0148930D01*
X0141371Y0148930D02*
X0146371Y0148930D01*
X0153733Y0135668D02*
X0153733Y0123733D01*
X0170581Y0123733D01*
X0170266Y0124048D01*
X0169658Y0123796D01*
X0168320Y0123796D01*
X0167084Y0124308D01*
X0166138Y0125253D01*
X0165627Y0126489D01*
X0165627Y0127180D01*
X0165195Y0127611D01*
X0163812Y0128995D01*
X0163812Y0129124D01*
X0163765Y0129170D01*
X0163531Y0128936D01*
X0163124Y0128701D01*
X0162669Y0128579D01*
X0161056Y0128579D01*
X0161056Y0132138D01*
X0161056Y0132138D01*
X0161056Y0128579D01*
X0159442Y0128579D01*
X0158988Y0128701D01*
X0158580Y0128936D01*
X0158247Y0129269D01*
X0158012Y0129677D01*
X0157890Y0130131D01*
X0157890Y0132138D01*
X0161056Y0132138D01*
X0161056Y0129461D01*
X0161115Y0127158D01*
X0161056Y0128636D02*
X0161056Y0128636D01*
X0161056Y0130209D02*
X0161056Y0130209D01*
X0161056Y0131783D02*
X0161056Y0131783D01*
X0161056Y0132138D02*
X0161056Y0132138D01*
X0157890Y0132138D01*
X0157890Y0134008D01*
X0155392Y0134008D01*
X0154008Y0135392D01*
X0153733Y0135668D01*
X0153733Y0134929D02*
X0154471Y0134929D01*
X0153733Y0133356D02*
X0157890Y0133356D01*
X0157890Y0131783D02*
X0153733Y0131783D01*
X0153733Y0130209D02*
X0157890Y0130209D01*
X0159230Y0128636D02*
X0153733Y0128636D01*
X0153733Y0127063D02*
X0165627Y0127063D01*
X0166041Y0125489D02*
X0153733Y0125489D01*
X0153733Y0123916D02*
X0168029Y0123916D01*
X0169948Y0123916D02*
X0170398Y0123916D01*
X0168989Y0127158D02*
X0166174Y0129973D01*
X0166174Y0132138D01*
X0166705Y0132670D01*
X0172138Y0132670D01*
X0172571Y0132238D01*
X0172571Y0127771D01*
X0175071Y0127771D02*
X0175071Y0133871D01*
X0180171Y0127063D02*
X0180171Y0127063D01*
X0180171Y0125489D02*
X0180171Y0125489D01*
X0180171Y0123916D02*
X0180171Y0123916D01*
X0180033Y0122343D02*
X0195524Y0122343D01*
X0195524Y0120769D02*
X0179110Y0120769D01*
X0177537Y0119196D02*
X0195609Y0119196D01*
X0164170Y0128636D02*
X0162881Y0128636D01*
X0146430Y0126312D02*
X0146371Y0126312D01*
X0141371Y0126312D02*
X0136371Y0126312D01*
X0131371Y0126312D02*
X0126371Y0126312D01*
X0116471Y0135071D02*
X0112571Y0135071D01*
X0096371Y0153871D02*
X0096371Y0153930D01*
X0098098Y0156956D02*
X0094126Y0156956D01*
X0093733Y0158529D02*
X0097615Y0158529D01*
X0097815Y0160102D02*
X0093733Y0160102D01*
X0091371Y0161804D02*
X0091371Y0168871D01*
X0093871Y0171371D01*
X0109479Y0172689D02*
X0113262Y0172689D01*
X0167430Y0156371D02*
X0167430Y0151371D01*
X0189930Y0150662D02*
X0189930Y0150662D01*
X0189930Y0149089D02*
X0189930Y0149089D01*
X0189930Y0152236D02*
X0189930Y0152236D01*
X0189930Y0153809D02*
X0189930Y0153809D01*
X0216020Y0070423D02*
X0071564Y0070423D01*
X0071564Y0068850D02*
X0216020Y0068850D01*
D18*
X0161115Y0127158D03*
X0148871Y0093871D03*
X0133871Y0093871D03*
X0118871Y0093871D03*
X0103871Y0093871D03*
X0090583Y0111371D03*
X0100583Y0127158D03*
X0101371Y0158871D03*
X0084008Y0157945D03*
X0119382Y0157867D03*
D19*
X0107571Y0157867D03*
X0095760Y0160229D03*
X0087886Y0154875D03*
X0090249Y0147630D03*
X0079225Y0143693D03*
X0086312Y0135032D03*
X0100485Y0132670D03*
X0121745Y0143693D03*
X0131193Y0120071D03*
X0168989Y0127158D03*
X0152453Y0172827D03*
D20*
X0106271Y0162671D02*
X0105171Y0162671D01*
X0101371Y0158871D01*
X0102671Y0145171D02*
X0101371Y0143871D01*
X0091371Y0143871D01*
X0087276Y0143871D01*
X0086922Y0143871D01*
X0084008Y0146784D01*
X0084008Y0157945D01*
X0083162Y0164953D02*
X0080012Y0164953D01*
X0071351Y0156292D01*
X0071351Y0132670D01*
X0073713Y0130308D01*
X0072138Y0131882D01*
X0073713Y0130308D02*
X0073871Y0130150D01*
X0073871Y0113871D01*
X0081371Y0106371D01*
X0093871Y0106371D01*
X0097671Y0110171D01*
X0106271Y0110171D01*
X0103871Y0093871D02*
X0113871Y0083871D01*
X0113871Y0078871D01*
X0123871Y0078871D02*
X0123871Y0083871D01*
X0118871Y0088871D01*
X0118871Y0093871D01*
X0133871Y0093871D02*
X0133871Y0078871D01*
X0143871Y0078871D02*
X0143871Y0086371D01*
X0148871Y0091371D01*
X0148871Y0093871D01*
X0106271Y0127671D02*
X0101883Y0127671D01*
X0101096Y0127671D01*
X0100583Y0127158D01*
X0102671Y0145171D02*
X0106271Y0145171D01*
X0086312Y0168103D02*
X0091371Y0173162D01*
X0091371Y0176371D01*
X0091371Y0188871D01*
X0086312Y0168103D02*
X0083162Y0164953D01*
M02*
