G75*
%MOIN*%
%OFA0B0*%
%FSLAX25Y25*%
%IPPOS*%
%LPD*%
%AMOC8*
5,1,8,0,0,1.08239X$1,22.5*
%
%ADD10C,0.01575*%
%ADD11R,0.05900X0.01700*%
%ADD12C,0.06000*%
%ADD13R,0.02756X0.03543*%
%ADD14R,0.03543X0.02756*%
%ADD15R,0.02200X0.05000*%
%ADD16C,0.05000*%
%ADD17OC8,0.06000*%
%ADD18C,0.04362*%
%ADD19C,0.03575*%
%ADD20C,0.00787*%
D10*
X0068989Y0064953D02*
X0068989Y0201174D01*
X0218595Y0201174D01*
X0218595Y0064953D01*
X0068989Y0064953D01*
X0071564Y0067528D02*
X0071564Y0198599D01*
X0216020Y0198599D01*
X0216020Y0067528D01*
X0071564Y0067528D01*
X0071564Y0068850D02*
X0216020Y0068850D01*
X0216020Y0070423D02*
X0071564Y0070423D01*
X0071564Y0071997D02*
X0101058Y0071997D01*
X0101361Y0071776D02*
X0102033Y0071434D01*
X0102750Y0071201D01*
X0103494Y0071083D01*
X0103658Y0071083D01*
X0103658Y0078658D01*
X0104083Y0078658D01*
X0104083Y0071083D01*
X0104247Y0071083D01*
X0104992Y0071201D01*
X0105708Y0071434D01*
X0106380Y0071776D01*
X0106989Y0072219D01*
X0107522Y0072752D01*
X0107965Y0073361D01*
X0108307Y0074033D01*
X0108540Y0074750D01*
X0108658Y0075494D01*
X0108658Y0078658D01*
X0104083Y0078658D01*
X0104083Y0079083D01*
X0108658Y0079083D01*
X0108658Y0082247D01*
X0108540Y0082992D01*
X0108307Y0083708D01*
X0107965Y0084380D01*
X0107522Y0084989D01*
X0106989Y0085522D01*
X0106380Y0085965D01*
X0105708Y0086307D01*
X0105089Y0086508D01*
X0127349Y0086508D01*
X0128871Y0088030D01*
X0130392Y0086508D01*
X0142349Y0086508D01*
X0143733Y0087892D01*
X0143733Y0087892D01*
X0143930Y0088089D01*
X0145510Y0086508D01*
X0157349Y0086508D01*
X0158733Y0087892D01*
X0159933Y0089092D01*
X0159933Y0095524D01*
X0160960Y0095524D01*
X0161882Y0096447D01*
X0161882Y0096508D01*
X0170859Y0096508D01*
X0170859Y0096447D01*
X0170935Y0096371D01*
X0170859Y0096295D01*
X0170859Y0091447D01*
X0170935Y0091371D01*
X0170859Y0091295D01*
X0170859Y0089259D01*
X0169008Y0087408D01*
X0169008Y0085844D01*
X0168779Y0085749D01*
X0167492Y0084462D01*
X0166796Y0082781D01*
X0166796Y0074961D01*
X0167492Y0073279D01*
X0168779Y0071992D01*
X0170461Y0071296D01*
X0172281Y0071296D01*
X0173962Y0071992D01*
X0175249Y0073279D01*
X0175945Y0074961D01*
X0175945Y0082781D01*
X0175249Y0084462D01*
X0174187Y0085524D01*
X0175842Y0085524D01*
X0176220Y0085903D01*
X0176454Y0085669D01*
X0176862Y0085433D01*
X0177316Y0085312D01*
X0178041Y0085312D01*
X0177719Y0084989D01*
X0177276Y0084380D01*
X0176934Y0083708D01*
X0176701Y0082992D01*
X0176583Y0082247D01*
X0176583Y0079083D01*
X0181158Y0079083D01*
X0181158Y0078658D01*
X0181583Y0078658D01*
X0181583Y0071083D01*
X0181747Y0071083D01*
X0182492Y0071201D01*
X0183208Y0071434D01*
X0183880Y0071776D01*
X0184489Y0072219D01*
X0185022Y0072752D01*
X0185465Y0073361D01*
X0185807Y0074033D01*
X0186040Y0074750D01*
X0186158Y0075494D01*
X0186158Y0078658D01*
X0181583Y0078658D01*
X0181583Y0079083D01*
X0186158Y0079083D01*
X0186158Y0082247D01*
X0186040Y0082992D01*
X0185807Y0083708D01*
X0185465Y0084380D01*
X0185022Y0084989D01*
X0184489Y0085522D01*
X0183880Y0085965D01*
X0183208Y0086307D01*
X0182492Y0086540D01*
X0182028Y0086614D01*
X0182095Y0086864D01*
X0182095Y0088871D01*
X0182095Y0090878D01*
X0181973Y0091332D01*
X0181951Y0091371D01*
X0181973Y0091409D01*
X0182095Y0091864D01*
X0182095Y0093871D01*
X0182095Y0095878D01*
X0181973Y0096332D01*
X0181951Y0096371D01*
X0181973Y0096409D01*
X0182095Y0096864D01*
X0182095Y0098871D01*
X0182095Y0100878D01*
X0181973Y0101332D01*
X0181738Y0101740D01*
X0181405Y0102073D01*
X0180998Y0102308D01*
X0180543Y0102430D01*
X0178930Y0102430D01*
X0178930Y0098871D01*
X0178930Y0098871D01*
X0182095Y0098871D01*
X0178930Y0098871D01*
X0178930Y0098871D01*
X0178930Y0102430D01*
X0177504Y0102430D01*
X0178679Y0102916D01*
X0179825Y0104062D01*
X0180445Y0105560D01*
X0180445Y0107181D01*
X0179825Y0108679D01*
X0178679Y0109825D01*
X0177181Y0110445D01*
X0175560Y0110445D01*
X0174062Y0109825D01*
X0172916Y0108679D01*
X0172296Y0107181D01*
X0172296Y0106719D01*
X0171351Y0107664D01*
X0171351Y0124765D01*
X0171839Y0125253D01*
X0172351Y0126489D01*
X0172351Y0127827D01*
X0171839Y0129063D01*
X0171351Y0129551D01*
X0171351Y0134415D01*
X0172132Y0135197D01*
X0172132Y0140045D01*
X0171542Y0140635D01*
X0171542Y0141396D01*
X0174123Y0141396D01*
X0174258Y0141531D01*
X0174258Y0127642D01*
X0176780Y0125121D01*
X0174258Y0122599D01*
X0174258Y0121021D01*
X0173166Y0119929D01*
X0172546Y0118431D01*
X0172546Y0116810D01*
X0173166Y0115312D01*
X0174312Y0114166D01*
X0175810Y0113546D01*
X0177431Y0113546D01*
X0178929Y0114166D01*
X0180075Y0115312D01*
X0180695Y0116810D01*
X0180695Y0118431D01*
X0180075Y0119929D01*
X0179172Y0120832D01*
X0180121Y0121780D01*
X0181508Y0120392D01*
X0197256Y0104644D01*
X0198640Y0103260D01*
X0198925Y0103260D01*
X0199020Y0103031D01*
X0200307Y0101744D01*
X0201988Y0101048D01*
X0209808Y0101048D01*
X0211490Y0101744D01*
X0212776Y0103031D01*
X0213473Y0104713D01*
X0213473Y0106533D01*
X0212776Y0108214D01*
X0211490Y0109501D01*
X0209808Y0110197D01*
X0201988Y0110197D01*
X0200307Y0109501D01*
X0199694Y0108888D01*
X0184849Y0123733D01*
X0182483Y0126099D01*
X0181099Y0127483D01*
X0178983Y0129599D01*
X0178983Y0146099D01*
X0178523Y0146558D01*
X0183196Y0146558D01*
X0183196Y0146183D01*
X0181842Y0146183D01*
X0180642Y0144983D01*
X0179258Y0143599D01*
X0179258Y0130142D01*
X0184008Y0125392D01*
X0185392Y0124008D01*
X0194172Y0124008D01*
X0199493Y0118687D01*
X0199020Y0118214D01*
X0198323Y0116533D01*
X0198323Y0114713D01*
X0199020Y0113031D01*
X0200307Y0111744D01*
X0201988Y0111048D01*
X0209808Y0111048D01*
X0211490Y0111744D01*
X0212776Y0113031D01*
X0213473Y0114713D01*
X0213473Y0116533D01*
X0212776Y0118214D01*
X0211490Y0119501D01*
X0209808Y0120197D01*
X0204664Y0120197D01*
X0197512Y0127349D01*
X0196129Y0128733D01*
X0191483Y0128733D01*
X0191483Y0129220D01*
X0192575Y0130312D01*
X0193195Y0131810D01*
X0193195Y0133431D01*
X0192575Y0134929D01*
X0191429Y0136075D01*
X0189931Y0136695D01*
X0188310Y0136695D01*
X0186812Y0136075D01*
X0185666Y0134929D01*
X0185046Y0133431D01*
X0185046Y0131810D01*
X0185593Y0130489D01*
X0183983Y0132099D01*
X0183983Y0141458D01*
X0184056Y0141458D01*
X0184118Y0141396D01*
X0191323Y0141396D01*
X0191386Y0141458D01*
X0193001Y0141458D01*
X0193524Y0140935D01*
X0193524Y0138899D01*
X0194053Y0138371D01*
X0193524Y0137842D01*
X0193524Y0133781D01*
X0194447Y0132859D01*
X0198274Y0132859D01*
X0198274Y0130531D01*
X0199197Y0129609D01*
X0204045Y0129609D01*
X0204121Y0129685D01*
X0204197Y0129609D01*
X0209045Y0129609D01*
X0209967Y0130531D01*
X0209967Y0134592D01*
X0209438Y0135121D01*
X0209967Y0135649D01*
X0209967Y0136896D01*
X0211621Y0136896D01*
X0213628Y0136896D01*
X0214082Y0137018D01*
X0214490Y0137253D01*
X0214823Y0137586D01*
X0215058Y0137994D01*
X0215180Y0138448D01*
X0215180Y0140061D01*
X0211621Y0140061D01*
X0211621Y0140062D01*
X0215180Y0140062D01*
X0215180Y0141675D01*
X0215058Y0142129D01*
X0214823Y0142537D01*
X0214589Y0142771D01*
X0214967Y0143149D01*
X0214967Y0147210D01*
X0214045Y0148132D01*
X0213983Y0148132D01*
X0213983Y0149609D01*
X0214045Y0149609D01*
X0214967Y0150531D01*
X0214967Y0154592D01*
X0214438Y0155121D01*
X0214967Y0155649D01*
X0214967Y0159710D01*
X0214045Y0160632D01*
X0209950Y0160632D01*
X0209967Y0160649D01*
X0209967Y0164710D01*
X0209045Y0165632D01*
X0204197Y0165632D01*
X0204121Y0165556D01*
X0204045Y0165632D01*
X0199197Y0165632D01*
X0198274Y0164710D01*
X0198274Y0160649D01*
X0198803Y0160121D01*
X0198606Y0159924D01*
X0198024Y0159924D01*
X0196233Y0158132D01*
X0194197Y0158132D01*
X0193274Y0157210D01*
X0193274Y0153149D01*
X0193803Y0152621D01*
X0193274Y0152092D01*
X0193274Y0150115D01*
X0193142Y0149983D01*
X0192245Y0149086D01*
X0192245Y0152923D01*
X0191542Y0153626D01*
X0191542Y0154606D01*
X0192132Y0155197D01*
X0192132Y0160045D01*
X0191542Y0160635D01*
X0191542Y0162040D01*
X0187349Y0166233D01*
X0182349Y0166233D01*
X0181882Y0166699D01*
X0181882Y0171295D01*
X0181806Y0171371D01*
X0181882Y0171447D01*
X0181882Y0176295D01*
X0181806Y0176371D01*
X0181882Y0176447D01*
X0181882Y0176508D01*
X0184796Y0176508D01*
X0184796Y0175560D01*
X0185416Y0174062D01*
X0186562Y0172916D01*
X0188060Y0172296D01*
X0189681Y0172296D01*
X0191179Y0172916D01*
X0192325Y0174062D01*
X0192945Y0175560D01*
X0192945Y0177181D01*
X0192325Y0178679D01*
X0191179Y0179825D01*
X0189681Y0180445D01*
X0188136Y0180445D01*
X0187349Y0181233D01*
X0181882Y0181233D01*
X0181882Y0181295D01*
X0181881Y0181296D01*
X0182281Y0181296D01*
X0183962Y0181992D01*
X0185249Y0183279D01*
X0185945Y0184961D01*
X0185945Y0192781D01*
X0185249Y0194462D01*
X0183962Y0195749D01*
X0182281Y0196445D01*
X0180461Y0196445D01*
X0178779Y0195749D01*
X0177492Y0194462D01*
X0176796Y0192781D01*
X0176796Y0185136D01*
X0176508Y0184849D01*
X0176508Y0181851D01*
X0176287Y0182073D01*
X0175879Y0182308D01*
X0175425Y0182430D01*
X0174700Y0182430D01*
X0175022Y0182752D01*
X0175465Y0183361D01*
X0175807Y0184033D01*
X0176040Y0184750D01*
X0176158Y0185494D01*
X0176158Y0188658D01*
X0171583Y0188658D01*
X0171583Y0189083D01*
X0171158Y0189083D01*
X0171158Y0188658D01*
X0166583Y0188658D01*
X0166583Y0185494D01*
X0166701Y0184750D01*
X0166934Y0184033D01*
X0167276Y0183361D01*
X0167719Y0182752D01*
X0168252Y0182219D01*
X0168861Y0181776D01*
X0169533Y0181434D01*
X0170250Y0181201D01*
X0170713Y0181128D01*
X0170646Y0180878D01*
X0170646Y0178871D01*
X0173811Y0178871D01*
X0173811Y0178871D01*
X0170646Y0178871D01*
X0170646Y0176864D01*
X0170768Y0176409D01*
X0170790Y0176371D01*
X0170768Y0176332D01*
X0170646Y0175878D01*
X0170646Y0173871D01*
X0173811Y0173871D01*
X0173811Y0173871D01*
X0173811Y0178870D01*
X0173812Y0178870D01*
X0173812Y0175312D01*
X0173812Y0173871D01*
X0173811Y0173871D01*
X0170646Y0173871D01*
X0170646Y0171864D01*
X0170768Y0171409D01*
X0170790Y0171371D01*
X0170768Y0171332D01*
X0170646Y0170878D01*
X0170646Y0168871D01*
X0173811Y0168871D01*
X0173811Y0168871D01*
X0173811Y0173870D01*
X0173812Y0173870D01*
X0173812Y0170312D01*
X0173812Y0168871D01*
X0173811Y0168871D01*
X0170646Y0168871D01*
X0170646Y0166864D01*
X0170768Y0166409D01*
X0171003Y0166001D01*
X0171336Y0165669D01*
X0171744Y0165433D01*
X0172198Y0165312D01*
X0173811Y0165312D01*
X0173811Y0168870D01*
X0173812Y0168870D01*
X0173812Y0165312D01*
X0175425Y0165312D01*
X0175879Y0165433D01*
X0176287Y0165669D01*
X0176521Y0165903D01*
X0176567Y0165856D01*
X0176567Y0165333D01*
X0179008Y0162892D01*
X0180392Y0161508D01*
X0185392Y0161508D01*
X0185738Y0161163D01*
X0185675Y0161180D01*
X0184062Y0161180D01*
X0184062Y0157621D01*
X0184061Y0157621D01*
X0184061Y0157621D01*
X0180896Y0157621D01*
X0180896Y0159628D01*
X0181018Y0160082D01*
X0181253Y0160490D01*
X0181586Y0160823D01*
X0181994Y0161058D01*
X0182448Y0161180D01*
X0184061Y0161180D01*
X0184061Y0157621D01*
X0180896Y0157621D01*
X0180896Y0155614D01*
X0181018Y0155159D01*
X0181253Y0154751D01*
X0181586Y0154419D01*
X0181994Y0154183D01*
X0182448Y0154062D01*
X0184061Y0154062D01*
X0184061Y0157620D01*
X0184062Y0157620D01*
X0184062Y0154062D01*
X0185675Y0154062D01*
X0186129Y0154183D01*
X0186537Y0154419D01*
X0186771Y0154653D01*
X0186817Y0154606D01*
X0186817Y0153858D01*
X0186805Y0153845D01*
X0184118Y0153845D01*
X0183196Y0152923D01*
X0183196Y0151283D01*
X0175045Y0151283D01*
X0175045Y0152923D01*
X0174123Y0153845D01*
X0166918Y0153845D01*
X0166865Y0153792D01*
X0159247Y0153792D01*
X0158657Y0154382D01*
X0153809Y0154382D01*
X0153218Y0153792D01*
X0150839Y0153792D01*
X0150839Y0157775D01*
X0151179Y0157916D01*
X0152325Y0159062D01*
X0152945Y0160560D01*
X0152945Y0162181D01*
X0152325Y0163679D01*
X0151179Y0164825D01*
X0149681Y0165445D01*
X0148060Y0165445D01*
X0146562Y0164825D01*
X0145416Y0163679D01*
X0144796Y0162181D01*
X0144796Y0160560D01*
X0145416Y0159062D01*
X0146562Y0157916D01*
X0146902Y0157775D01*
X0146902Y0153792D01*
X0144385Y0153792D01*
X0143795Y0154382D01*
X0138947Y0154382D01*
X0138356Y0153792D01*
X0129385Y0153792D01*
X0128795Y0154382D01*
X0123947Y0154382D01*
X0123356Y0153792D01*
X0114385Y0153792D01*
X0113795Y0154382D01*
X0108947Y0154382D01*
X0108297Y0153733D01*
X0082978Y0153733D01*
X0081998Y0154713D01*
X0083261Y0154190D01*
X0084755Y0154190D01*
X0086136Y0154761D01*
X0087192Y0155818D01*
X0087764Y0157198D01*
X0087764Y0158693D01*
X0087698Y0158852D01*
X0110236Y0181389D01*
X0110461Y0181296D01*
X0112281Y0181296D01*
X0113962Y0181992D01*
X0115249Y0183279D01*
X0115945Y0184961D01*
X0115945Y0192781D01*
X0115249Y0194462D01*
X0113962Y0195749D01*
X0112281Y0196445D01*
X0110461Y0196445D01*
X0108779Y0195749D01*
X0107492Y0194462D01*
X0106796Y0192781D01*
X0106796Y0184961D01*
X0107219Y0183940D01*
X0084915Y0161635D01*
X0084755Y0161701D01*
X0084485Y0161701D01*
X0102186Y0179402D01*
X0103339Y0180555D01*
X0103339Y0181734D01*
X0103962Y0181992D01*
X0105249Y0183279D01*
X0105945Y0184961D01*
X0105945Y0192781D01*
X0105249Y0194462D01*
X0103962Y0195749D01*
X0102281Y0196445D01*
X0100461Y0196445D01*
X0098779Y0195749D01*
X0097492Y0194462D01*
X0096796Y0192781D01*
X0096796Y0184961D01*
X0097492Y0183279D01*
X0098779Y0181992D01*
X0099083Y0181867D01*
X0076902Y0159686D01*
X0071902Y0154686D01*
X0071902Y0132484D01*
X0079197Y0125190D01*
X0097333Y0125190D01*
X0097399Y0125030D01*
X0098456Y0123974D01*
X0099836Y0123402D01*
X0101330Y0123402D01*
X0102711Y0123974D01*
X0103359Y0124622D01*
X0103359Y0121447D01*
X0104047Y0120758D01*
X0103835Y0120758D01*
X0103381Y0120636D01*
X0102973Y0120401D01*
X0102640Y0120068D01*
X0102405Y0119661D01*
X0102283Y0119206D01*
X0102283Y0116471D01*
X0105170Y0116471D01*
X0105170Y0116471D01*
X0102283Y0116471D01*
X0102283Y0113735D01*
X0102405Y0113281D01*
X0102640Y0112873D01*
X0102973Y0112540D01*
X0103381Y0112305D01*
X0103835Y0112183D01*
X0105171Y0112183D01*
X0106506Y0112183D01*
X0106961Y0112305D01*
X0107021Y0112340D01*
X0107081Y0112305D01*
X0107535Y0112183D01*
X0108871Y0112183D01*
X0110206Y0112183D01*
X0110661Y0112305D01*
X0110818Y0112396D01*
X0110818Y0112396D01*
X0114323Y0112396D01*
X0115245Y0113318D01*
X0115245Y0119623D01*
X0114933Y0119936D01*
X0114933Y0123708D01*
X0114382Y0124259D01*
X0114382Y0126295D01*
X0114306Y0126371D01*
X0114382Y0126447D01*
X0114382Y0131295D01*
X0114306Y0131371D01*
X0114382Y0131447D01*
X0114382Y0136295D01*
X0114306Y0136371D01*
X0114382Y0136447D01*
X0114382Y0141295D01*
X0113792Y0141885D01*
X0113792Y0143359D01*
X0113795Y0143359D01*
X0114717Y0144281D01*
X0114717Y0148342D01*
X0114188Y0148871D01*
X0114385Y0149067D01*
X0123356Y0149067D01*
X0123553Y0148871D01*
X0123024Y0148342D01*
X0123024Y0144281D01*
X0123947Y0143359D01*
X0124067Y0143359D01*
X0124067Y0141885D01*
X0123871Y0141688D01*
X0123342Y0142217D01*
X0119281Y0142217D01*
X0118359Y0141295D01*
X0118359Y0136447D01*
X0118435Y0136371D01*
X0118359Y0136295D01*
X0118359Y0131447D01*
X0118435Y0131371D01*
X0118359Y0131295D01*
X0118359Y0126447D01*
X0118435Y0126371D01*
X0118359Y0126295D01*
X0118359Y0121447D01*
X0119047Y0120758D01*
X0118835Y0120758D01*
X0118381Y0120636D01*
X0117973Y0120401D01*
X0117640Y0120068D01*
X0117405Y0119661D01*
X0117283Y0119206D01*
X0117283Y0116471D01*
X0120170Y0116471D01*
X0120170Y0116471D01*
X0117283Y0116471D01*
X0117283Y0113735D01*
X0117405Y0113281D01*
X0117640Y0112873D01*
X0117973Y0112540D01*
X0118381Y0112305D01*
X0118835Y0112183D01*
X0120171Y0112183D01*
X0121506Y0112183D01*
X0121961Y0112305D01*
X0122021Y0112340D01*
X0122081Y0112305D01*
X0122535Y0112183D01*
X0123871Y0112183D01*
X0125206Y0112183D01*
X0125661Y0112305D01*
X0125818Y0112396D01*
X0125818Y0112396D01*
X0129323Y0112396D01*
X0130245Y0113318D01*
X0130245Y0119623D01*
X0129933Y0119936D01*
X0129933Y0123708D01*
X0129382Y0124259D01*
X0129382Y0126295D01*
X0129306Y0126371D01*
X0129382Y0126447D01*
X0129382Y0131295D01*
X0129306Y0131371D01*
X0129382Y0131447D01*
X0129382Y0136295D01*
X0129306Y0136371D01*
X0129382Y0136447D01*
X0129382Y0141295D01*
X0128792Y0141885D01*
X0128792Y0143359D01*
X0128795Y0143359D01*
X0129717Y0144281D01*
X0129717Y0148342D01*
X0129188Y0148871D01*
X0129385Y0149067D01*
X0138356Y0149067D01*
X0138553Y0148871D01*
X0138024Y0148342D01*
X0138024Y0144281D01*
X0138947Y0143359D01*
X0139008Y0143359D01*
X0139008Y0141826D01*
X0138871Y0141688D01*
X0138342Y0142217D01*
X0134281Y0142217D01*
X0133359Y0141295D01*
X0133359Y0136447D01*
X0133435Y0136371D01*
X0133359Y0136295D01*
X0133359Y0131447D01*
X0133435Y0131371D01*
X0133359Y0131295D01*
X0133359Y0126447D01*
X0133435Y0126371D01*
X0133359Y0126295D01*
X0133359Y0121447D01*
X0134047Y0120758D01*
X0133835Y0120758D01*
X0133381Y0120636D01*
X0132973Y0120401D01*
X0132640Y0120068D01*
X0132405Y0119661D01*
X0132283Y0119206D01*
X0132283Y0116471D01*
X0135170Y0116471D01*
X0135170Y0116471D01*
X0132283Y0116471D01*
X0132283Y0113735D01*
X0132405Y0113281D01*
X0132640Y0112873D01*
X0132973Y0112540D01*
X0133381Y0112305D01*
X0133835Y0112183D01*
X0135171Y0112183D01*
X0136506Y0112183D01*
X0136961Y0112305D01*
X0137021Y0112340D01*
X0137081Y0112305D01*
X0137535Y0112183D01*
X0138871Y0112183D01*
X0140206Y0112183D01*
X0140661Y0112305D01*
X0140818Y0112396D01*
X0140818Y0112396D01*
X0144323Y0112396D01*
X0145245Y0113318D01*
X0145245Y0119623D01*
X0144933Y0119936D01*
X0144933Y0123708D01*
X0144382Y0124259D01*
X0144382Y0126295D01*
X0144306Y0126371D01*
X0144382Y0126447D01*
X0144382Y0131295D01*
X0144306Y0131371D01*
X0144382Y0131447D01*
X0144382Y0136295D01*
X0144306Y0136371D01*
X0144382Y0136447D01*
X0144382Y0141295D01*
X0143733Y0141944D01*
X0143733Y0143359D01*
X0143795Y0143359D01*
X0144717Y0144281D01*
X0144717Y0148342D01*
X0144188Y0148871D01*
X0144385Y0149067D01*
X0153218Y0149067D01*
X0153415Y0148871D01*
X0152886Y0148342D01*
X0152886Y0144281D01*
X0153809Y0143359D01*
X0153871Y0143359D01*
X0153871Y0141826D01*
X0153733Y0141688D01*
X0153204Y0142217D01*
X0149143Y0142217D01*
X0148221Y0141295D01*
X0148221Y0136447D01*
X0148297Y0136371D01*
X0148221Y0136295D01*
X0148221Y0131447D01*
X0148297Y0131371D01*
X0148221Y0131295D01*
X0148221Y0126447D01*
X0148297Y0126371D01*
X0148221Y0126295D01*
X0148221Y0121447D01*
X0148910Y0120758D01*
X0148697Y0120758D01*
X0148243Y0120636D01*
X0147835Y0120401D01*
X0147503Y0120068D01*
X0147267Y0119661D01*
X0147145Y0119206D01*
X0147145Y0116471D01*
X0150033Y0116471D01*
X0152920Y0116471D01*
X0153733Y0116471D01*
X0153733Y0116471D01*
X0153733Y0120758D01*
X0154028Y0120758D01*
X0153733Y0121053D01*
X0153438Y0120758D01*
X0153733Y0120758D01*
X0153733Y0116471D01*
X0153733Y0111371D01*
X0153772Y0111410D01*
X0161115Y0111410D01*
X0161115Y0114560D01*
X0161115Y0127158D01*
X0161115Y0136607D01*
X0162128Y0137621D01*
X0164062Y0137621D01*
X0164061Y0137621D01*
X0164061Y0137621D01*
X0160896Y0137621D01*
X0160896Y0139628D01*
X0161018Y0140082D01*
X0161253Y0140490D01*
X0161586Y0140823D01*
X0161994Y0141058D01*
X0162448Y0141180D01*
X0164061Y0141180D01*
X0164061Y0137621D01*
X0160896Y0137621D01*
X0160896Y0135614D01*
X0161018Y0135159D01*
X0161253Y0134751D01*
X0161586Y0134419D01*
X0161994Y0134183D01*
X0162448Y0134062D01*
X0164061Y0134062D01*
X0164061Y0137620D01*
X0164062Y0137620D01*
X0164062Y0134062D01*
X0165675Y0134062D01*
X0166129Y0134183D01*
X0166537Y0134419D01*
X0166627Y0134508D01*
X0166627Y0129551D01*
X0166138Y0129063D01*
X0165627Y0127827D01*
X0165627Y0126489D01*
X0166138Y0125253D01*
X0166627Y0124765D01*
X0166627Y0105707D01*
X0168010Y0104323D01*
X0169585Y0102749D01*
X0170949Y0101385D01*
X0170859Y0101295D01*
X0170859Y0101233D01*
X0161882Y0101233D01*
X0161882Y0101295D01*
X0160960Y0102217D01*
X0159933Y0102217D01*
X0159933Y0102944D01*
X0160108Y0103118D01*
X0160108Y0109423D01*
X0159185Y0110345D01*
X0155680Y0110345D01*
X0155523Y0110436D01*
X0155068Y0110558D01*
X0153733Y0110558D01*
X0153733Y0106271D01*
X0153733Y0106271D01*
X0153733Y0110558D01*
X0152397Y0110558D01*
X0151943Y0110436D01*
X0151785Y0110345D01*
X0151785Y0110345D01*
X0148280Y0110345D01*
X0147358Y0109423D01*
X0147358Y0103118D01*
X0148064Y0102412D01*
X0148064Y0097602D01*
X0146882Y0097112D01*
X0146882Y0101295D01*
X0145960Y0102217D01*
X0144933Y0102217D01*
X0144933Y0102806D01*
X0145245Y0103118D01*
X0145245Y0109423D01*
X0144323Y0110345D01*
X0140818Y0110345D01*
X0140661Y0110436D01*
X0140206Y0110558D01*
X0138871Y0110558D01*
X0138871Y0106271D01*
X0138871Y0106271D01*
X0138871Y0110558D01*
X0137535Y0110558D01*
X0137081Y0110436D01*
X0136923Y0110345D01*
X0136923Y0110345D01*
X0133418Y0110345D01*
X0132496Y0109423D01*
X0132496Y0103118D01*
X0133202Y0102412D01*
X0133202Y0097627D01*
X0133123Y0097627D01*
X0131882Y0097112D01*
X0131882Y0101295D01*
X0130960Y0102217D01*
X0129933Y0102217D01*
X0129933Y0102806D01*
X0130245Y0103118D01*
X0130245Y0109423D01*
X0129323Y0110345D01*
X0125818Y0110345D01*
X0125661Y0110436D01*
X0125206Y0110558D01*
X0123871Y0110558D01*
X0123871Y0106271D01*
X0123871Y0106271D01*
X0123871Y0110558D01*
X0122535Y0110558D01*
X0122081Y0110436D01*
X0121923Y0110345D01*
X0121923Y0110345D01*
X0118418Y0110345D01*
X0117496Y0109423D01*
X0117496Y0106380D01*
X0116902Y0105786D01*
X0116902Y0097121D01*
X0116882Y0097112D01*
X0116882Y0101295D01*
X0115960Y0102217D01*
X0114933Y0102217D01*
X0114933Y0102806D01*
X0115245Y0103118D01*
X0115245Y0109423D01*
X0114323Y0110345D01*
X0110818Y0110345D01*
X0110661Y0110436D01*
X0110206Y0110558D01*
X0108871Y0110558D01*
X0108871Y0106271D01*
X0108871Y0106271D01*
X0108871Y0110558D01*
X0107535Y0110558D01*
X0107081Y0110436D01*
X0106923Y0110345D01*
X0106923Y0110345D01*
X0103418Y0110345D01*
X0102496Y0109423D01*
X0102496Y0106380D01*
X0101902Y0105786D01*
X0101902Y0097121D01*
X0101743Y0097055D01*
X0100687Y0095998D01*
X0100115Y0094618D01*
X0100115Y0093123D01*
X0100687Y0091743D01*
X0101197Y0091233D01*
X0099849Y0091233D01*
X0094973Y0096109D01*
X0094973Y0109239D01*
X0094119Y0110093D01*
X0094339Y0110623D01*
X0094339Y0112118D01*
X0093767Y0113498D01*
X0092711Y0114555D01*
X0091330Y0115127D01*
X0089836Y0115127D01*
X0088456Y0114555D01*
X0087399Y0113498D01*
X0086827Y0112118D01*
X0086827Y0110623D01*
X0087399Y0109243D01*
X0088456Y0108187D01*
X0089836Y0107615D01*
X0089916Y0107615D01*
X0090249Y0107282D01*
X0090249Y0094152D01*
X0097892Y0086508D01*
X0102652Y0086508D01*
X0102033Y0086307D01*
X0101361Y0085965D01*
X0100752Y0085522D01*
X0100219Y0084989D01*
X0099776Y0084380D01*
X0099434Y0083708D01*
X0099201Y0082992D01*
X0099083Y0082247D01*
X0099083Y0079083D01*
X0103658Y0079083D01*
X0103658Y0078658D01*
X0099083Y0078658D01*
X0099083Y0075494D01*
X0099201Y0074750D01*
X0099434Y0074033D01*
X0099776Y0073361D01*
X0100219Y0072752D01*
X0100752Y0072219D01*
X0101361Y0071776D01*
X0103658Y0071997D02*
X0104083Y0071997D01*
X0104083Y0073570D02*
X0103658Y0073570D01*
X0103658Y0075143D02*
X0104083Y0075143D01*
X0104083Y0076717D02*
X0103658Y0076717D01*
X0103658Y0078290D02*
X0104083Y0078290D01*
X0103871Y0078871D02*
X0096804Y0078871D01*
X0081587Y0094087D01*
X0078871Y0096804D01*
X0078871Y0116371D01*
X0105071Y0116371D01*
X0105171Y0116471D01*
X0108058Y0116471D01*
X0108870Y0116471D01*
X0108870Y0116471D01*
X0108871Y0116471D02*
X0108871Y0120758D01*
X0108871Y0116471D01*
X0108871Y0116471D01*
X0108871Y0111371D01*
X0123871Y0111371D01*
X0123871Y0106271D01*
X0123812Y0106212D01*
X0123812Y0098871D01*
X0123812Y0098870D02*
X0123812Y0095312D01*
X0125425Y0095312D01*
X0125879Y0095433D01*
X0126287Y0095669D01*
X0126508Y0095890D01*
X0126508Y0092349D01*
X0125392Y0091233D01*
X0121544Y0091233D01*
X0122055Y0091743D01*
X0122627Y0093123D01*
X0122627Y0094618D01*
X0122339Y0095312D01*
X0123811Y0095312D01*
X0123811Y0098870D01*
X0123812Y0098870D01*
X0123811Y0098743D02*
X0123812Y0098743D01*
X0123811Y0097170D02*
X0123812Y0097170D01*
X0123811Y0095596D02*
X0123812Y0095596D01*
X0122627Y0094023D02*
X0126508Y0094023D01*
X0126508Y0092450D02*
X0122347Y0092450D01*
X0126162Y0095596D02*
X0126508Y0095596D01*
X0128871Y0098812D02*
X0128871Y0091371D01*
X0131371Y0088871D01*
X0141371Y0088871D01*
X0143930Y0091430D01*
X0146489Y0088871D01*
X0156371Y0088871D01*
X0157571Y0090071D01*
X0157571Y0100230D01*
X0157571Y0106133D01*
X0157433Y0106271D01*
X0160108Y0106610D02*
X0166627Y0106610D01*
X0166627Y0108183D02*
X0160108Y0108183D01*
X0159774Y0109756D02*
X0166627Y0109756D01*
X0166627Y0111330D02*
X0094339Y0111330D01*
X0094456Y0109756D02*
X0102829Y0109756D01*
X0102496Y0108183D02*
X0094973Y0108183D01*
X0094973Y0106610D02*
X0102496Y0106610D01*
X0101902Y0105036D02*
X0094973Y0105036D01*
X0094973Y0103463D02*
X0101902Y0103463D01*
X0101902Y0101890D02*
X0094973Y0101890D01*
X0094973Y0100316D02*
X0101902Y0100316D01*
X0101902Y0098743D02*
X0094973Y0098743D01*
X0094973Y0097170D02*
X0101902Y0097170D01*
X0100520Y0095596D02*
X0095485Y0095596D01*
X0097059Y0094023D02*
X0100115Y0094023D01*
X0100394Y0092450D02*
X0098632Y0092450D01*
X0098871Y0088871D02*
X0092611Y0095130D01*
X0092611Y0108260D01*
X0090583Y0110288D01*
X0090583Y0111371D01*
X0094014Y0112903D02*
X0102623Y0112903D01*
X0102283Y0114476D02*
X0092789Y0114476D01*
X0088377Y0114476D02*
X0083658Y0114476D01*
X0083658Y0114388D02*
X0083658Y0116158D01*
X0079083Y0116158D01*
X0079083Y0111583D01*
X0080854Y0111583D01*
X0083658Y0114388D01*
X0083658Y0116050D02*
X0102283Y0116050D01*
X0102283Y0117623D02*
X0083658Y0117623D01*
X0083658Y0118354D02*
X0080854Y0121158D01*
X0079083Y0121158D01*
X0079083Y0116583D01*
X0083658Y0116583D01*
X0083658Y0118354D01*
X0082815Y0119196D02*
X0102283Y0119196D01*
X0104036Y0120769D02*
X0081242Y0120769D01*
X0079083Y0120769D02*
X0078658Y0120769D01*
X0078658Y0121158D02*
X0076888Y0121158D01*
X0074083Y0118354D01*
X0074083Y0116583D01*
X0078658Y0116583D01*
X0078658Y0116158D01*
X0079083Y0116158D01*
X0079083Y0116583D01*
X0078658Y0116583D01*
X0078658Y0121158D01*
X0078658Y0119196D02*
X0079083Y0119196D01*
X0079083Y0117623D02*
X0078658Y0117623D01*
X0078658Y0116158D02*
X0074083Y0116158D01*
X0074083Y0114388D01*
X0076888Y0111583D01*
X0078658Y0111583D01*
X0078658Y0116158D01*
X0078658Y0116050D02*
X0079083Y0116050D01*
X0079083Y0114476D02*
X0078658Y0114476D01*
X0078658Y0112903D02*
X0079083Y0112903D01*
X0082173Y0112903D02*
X0087153Y0112903D01*
X0086827Y0111330D02*
X0071564Y0111330D01*
X0071564Y0112903D02*
X0075568Y0112903D01*
X0074083Y0114476D02*
X0071564Y0114476D01*
X0071564Y0116050D02*
X0074083Y0116050D01*
X0074083Y0117623D02*
X0071564Y0117623D01*
X0071564Y0119196D02*
X0074926Y0119196D01*
X0076499Y0120769D02*
X0071564Y0120769D01*
X0071564Y0122343D02*
X0103359Y0122343D01*
X0103359Y0123916D02*
X0102571Y0123916D01*
X0098595Y0123916D02*
X0071564Y0123916D01*
X0071564Y0125489D02*
X0078897Y0125489D01*
X0077324Y0127063D02*
X0071564Y0127063D01*
X0071564Y0128636D02*
X0075750Y0128636D01*
X0074177Y0130209D02*
X0071564Y0130209D01*
X0071564Y0131783D02*
X0072604Y0131783D01*
X0071902Y0133356D02*
X0071564Y0133356D01*
X0071564Y0134929D02*
X0071902Y0134929D01*
X0071902Y0136503D02*
X0071564Y0136503D01*
X0071564Y0138076D02*
X0071902Y0138076D01*
X0071902Y0139649D02*
X0071564Y0139649D01*
X0071564Y0141223D02*
X0071902Y0141223D01*
X0071902Y0142796D02*
X0071564Y0142796D01*
X0071564Y0144369D02*
X0071902Y0144369D01*
X0071902Y0145943D02*
X0071564Y0145943D01*
X0071564Y0147516D02*
X0071902Y0147516D01*
X0071902Y0149089D02*
X0071564Y0149089D01*
X0071564Y0150662D02*
X0071902Y0150662D01*
X0071902Y0152236D02*
X0071564Y0152236D01*
X0071564Y0153809D02*
X0071902Y0153809D01*
X0071564Y0155382D02*
X0072599Y0155382D01*
X0071564Y0156956D02*
X0074172Y0156956D01*
X0075745Y0158529D02*
X0071564Y0158529D01*
X0071564Y0160102D02*
X0077318Y0160102D01*
X0076902Y0159686D02*
X0076902Y0159686D01*
X0078892Y0161676D02*
X0071564Y0161676D01*
X0071564Y0163249D02*
X0080465Y0163249D01*
X0082038Y0164822D02*
X0071564Y0164822D01*
X0071564Y0166396D02*
X0083612Y0166396D01*
X0085185Y0167969D02*
X0071564Y0167969D01*
X0071564Y0169542D02*
X0086758Y0169542D01*
X0088332Y0171116D02*
X0071564Y0171116D01*
X0071564Y0172689D02*
X0089905Y0172689D01*
X0091478Y0174262D02*
X0071564Y0174262D01*
X0071564Y0175835D02*
X0093052Y0175835D01*
X0094625Y0177409D02*
X0071564Y0177409D01*
X0071564Y0178982D02*
X0096198Y0178982D01*
X0097772Y0180555D02*
X0071564Y0180555D01*
X0071564Y0182129D02*
X0078376Y0182129D01*
X0078252Y0182219D02*
X0078861Y0181776D01*
X0079533Y0181434D01*
X0080250Y0181201D01*
X0080994Y0181083D01*
X0081158Y0181083D01*
X0081158Y0188658D01*
X0081583Y0188658D01*
X0081583Y0181083D01*
X0081747Y0181083D01*
X0082492Y0181201D01*
X0083208Y0181434D01*
X0083880Y0181776D01*
X0084489Y0182219D01*
X0085022Y0182752D01*
X0085465Y0183361D01*
X0085807Y0184033D01*
X0086040Y0184750D01*
X0086158Y0185494D01*
X0086158Y0188658D01*
X0081583Y0188658D01*
X0081583Y0189083D01*
X0086158Y0189083D01*
X0086158Y0192247D01*
X0086040Y0192992D01*
X0085807Y0193708D01*
X0085465Y0194380D01*
X0085022Y0194989D01*
X0084489Y0195522D01*
X0083880Y0195965D01*
X0083208Y0196307D01*
X0082492Y0196540D01*
X0081747Y0196658D01*
X0081583Y0196658D01*
X0081583Y0189083D01*
X0081158Y0189083D01*
X0081158Y0188658D01*
X0076583Y0188658D01*
X0076583Y0185494D01*
X0076701Y0184750D01*
X0076934Y0184033D01*
X0077276Y0183361D01*
X0077719Y0182752D01*
X0078252Y0182219D01*
X0077102Y0183702D02*
X0071564Y0183702D01*
X0071564Y0185275D02*
X0076618Y0185275D01*
X0076583Y0186849D02*
X0071564Y0186849D01*
X0071564Y0188422D02*
X0076583Y0188422D01*
X0076583Y0189083D02*
X0081158Y0189083D01*
X0081158Y0196658D01*
X0080994Y0196658D01*
X0080250Y0196540D01*
X0079533Y0196307D01*
X0078861Y0195965D01*
X0078252Y0195522D01*
X0077719Y0194989D01*
X0077276Y0194380D01*
X0076934Y0193708D01*
X0076701Y0192992D01*
X0076583Y0192247D01*
X0076583Y0189083D01*
X0076583Y0189995D02*
X0071564Y0189995D01*
X0071564Y0191569D02*
X0076583Y0191569D01*
X0076750Y0193142D02*
X0071564Y0193142D01*
X0071564Y0194715D02*
X0077520Y0194715D01*
X0079496Y0196289D02*
X0071564Y0196289D01*
X0071564Y0197862D02*
X0216020Y0197862D01*
X0216020Y0196289D02*
X0182659Y0196289D01*
X0180082Y0196289D02*
X0173245Y0196289D01*
X0173208Y0196307D02*
X0172492Y0196540D01*
X0171747Y0196658D01*
X0171583Y0196658D01*
X0171583Y0189083D01*
X0176158Y0189083D01*
X0176158Y0192247D01*
X0176040Y0192992D01*
X0175807Y0193708D01*
X0175465Y0194380D01*
X0175022Y0194989D01*
X0174489Y0195522D01*
X0173880Y0195965D01*
X0173208Y0196307D01*
X0171583Y0196289D02*
X0171158Y0196289D01*
X0171158Y0196658D02*
X0170994Y0196658D01*
X0170250Y0196540D01*
X0169533Y0196307D01*
X0168861Y0195965D01*
X0168252Y0195522D01*
X0167719Y0194989D01*
X0167276Y0194380D01*
X0166934Y0193708D01*
X0166701Y0192992D01*
X0166583Y0192247D01*
X0166583Y0189083D01*
X0171158Y0189083D01*
X0171158Y0196658D01*
X0169496Y0196289D02*
X0157659Y0196289D01*
X0157281Y0196445D02*
X0155461Y0196445D01*
X0153779Y0195749D01*
X0152492Y0194462D01*
X0151796Y0192781D01*
X0151796Y0184961D01*
X0152492Y0183279D01*
X0153779Y0181992D01*
X0155461Y0181296D01*
X0157281Y0181296D01*
X0158962Y0181992D01*
X0160249Y0183279D01*
X0160945Y0184961D01*
X0160945Y0192781D01*
X0160249Y0194462D01*
X0158962Y0195749D01*
X0157281Y0196445D01*
X0155082Y0196289D02*
X0147659Y0196289D01*
X0147281Y0196445D02*
X0145461Y0196445D01*
X0143779Y0195749D01*
X0142492Y0194462D01*
X0141796Y0192781D01*
X0141796Y0184961D01*
X0142492Y0183279D01*
X0143779Y0181992D01*
X0145461Y0181296D01*
X0147281Y0181296D01*
X0148962Y0181992D01*
X0150249Y0183279D01*
X0150945Y0184961D01*
X0150945Y0192781D01*
X0150249Y0194462D01*
X0148962Y0195749D01*
X0147281Y0196445D01*
X0145082Y0196289D02*
X0138245Y0196289D01*
X0138208Y0196307D02*
X0137492Y0196540D01*
X0136747Y0196658D01*
X0136583Y0196658D01*
X0136583Y0189083D01*
X0141158Y0189083D01*
X0141158Y0192247D01*
X0141040Y0192992D01*
X0140807Y0193708D01*
X0140465Y0194380D01*
X0140022Y0194989D01*
X0139489Y0195522D01*
X0138880Y0195965D01*
X0138208Y0196307D01*
X0136583Y0196289D02*
X0136158Y0196289D01*
X0136158Y0196658D02*
X0135994Y0196658D01*
X0135250Y0196540D01*
X0134533Y0196307D01*
X0133861Y0195965D01*
X0133252Y0195522D01*
X0132719Y0194989D01*
X0132276Y0194380D01*
X0131934Y0193708D01*
X0131701Y0192992D01*
X0131583Y0192247D01*
X0131583Y0189083D01*
X0136158Y0189083D01*
X0136158Y0188658D01*
X0136583Y0188658D01*
X0136583Y0181083D01*
X0136747Y0181083D01*
X0137492Y0181201D01*
X0138208Y0181434D01*
X0138880Y0181776D01*
X0139489Y0182219D01*
X0140022Y0182752D01*
X0140465Y0183361D01*
X0140807Y0184033D01*
X0141040Y0184750D01*
X0141158Y0185494D01*
X0141158Y0188658D01*
X0136583Y0188658D01*
X0136583Y0189083D01*
X0136158Y0189083D01*
X0136158Y0196658D01*
X0134496Y0196289D02*
X0122659Y0196289D01*
X0122281Y0196445D02*
X0120461Y0196445D01*
X0118779Y0195749D01*
X0117492Y0194462D01*
X0116796Y0192781D01*
X0116796Y0184961D01*
X0117492Y0183279D01*
X0118779Y0181992D01*
X0119402Y0181734D01*
X0119402Y0179686D01*
X0102277Y0162561D01*
X0102118Y0162627D01*
X0100623Y0162627D01*
X0099243Y0162055D01*
X0098187Y0160998D01*
X0097615Y0159618D01*
X0097615Y0158123D01*
X0098187Y0156743D01*
X0099243Y0155687D01*
X0100623Y0155115D01*
X0102118Y0155115D01*
X0103498Y0155687D01*
X0104555Y0156743D01*
X0105127Y0158123D01*
X0105127Y0159618D01*
X0105061Y0159777D01*
X0123339Y0178055D01*
X0123339Y0181734D01*
X0123962Y0181992D01*
X0125249Y0183279D01*
X0125945Y0184961D01*
X0125945Y0192781D01*
X0125249Y0194462D01*
X0123962Y0195749D01*
X0122281Y0196445D01*
X0120082Y0196289D02*
X0112659Y0196289D01*
X0110082Y0196289D02*
X0102659Y0196289D01*
X0100082Y0196289D02*
X0092659Y0196289D01*
X0092281Y0196445D02*
X0090461Y0196445D01*
X0088779Y0195749D01*
X0087492Y0194462D01*
X0086796Y0192781D01*
X0086796Y0184961D01*
X0087492Y0183279D01*
X0088779Y0181992D01*
X0090461Y0181296D01*
X0092281Y0181296D01*
X0093962Y0181992D01*
X0095249Y0183279D01*
X0095945Y0184961D01*
X0095945Y0192781D01*
X0095249Y0194462D01*
X0093962Y0195749D01*
X0092281Y0196445D01*
X0090082Y0196289D02*
X0083245Y0196289D01*
X0081583Y0196289D02*
X0081158Y0196289D01*
X0081158Y0194715D02*
X0081583Y0194715D01*
X0081583Y0193142D02*
X0081158Y0193142D01*
X0081158Y0191569D02*
X0081583Y0191569D01*
X0081583Y0189995D02*
X0081158Y0189995D01*
X0081158Y0188422D02*
X0081583Y0188422D01*
X0081583Y0186849D02*
X0081158Y0186849D01*
X0081158Y0185275D02*
X0081583Y0185275D01*
X0081583Y0183702D02*
X0081158Y0183702D01*
X0081158Y0182129D02*
X0081583Y0182129D01*
X0084365Y0182129D02*
X0088643Y0182129D01*
X0087317Y0183702D02*
X0085639Y0183702D01*
X0086123Y0185275D02*
X0086796Y0185275D01*
X0086796Y0186849D02*
X0086158Y0186849D01*
X0086158Y0188422D02*
X0086796Y0188422D01*
X0086796Y0189995D02*
X0086158Y0189995D01*
X0086158Y0191569D02*
X0086796Y0191569D01*
X0086945Y0193142D02*
X0085991Y0193142D01*
X0085221Y0194715D02*
X0087746Y0194715D01*
X0094996Y0194715D02*
X0097746Y0194715D01*
X0096945Y0193142D02*
X0095796Y0193142D01*
X0095945Y0191569D02*
X0096796Y0191569D01*
X0096796Y0189995D02*
X0095945Y0189995D01*
X0095945Y0188422D02*
X0096796Y0188422D01*
X0096796Y0186849D02*
X0095945Y0186849D01*
X0095945Y0185275D02*
X0096796Y0185275D01*
X0097317Y0183702D02*
X0095424Y0183702D01*
X0094098Y0182129D02*
X0098643Y0182129D01*
X0101766Y0178982D02*
X0102261Y0178982D01*
X0103339Y0180555D02*
X0103835Y0180555D01*
X0104098Y0182129D02*
X0105408Y0182129D01*
X0105424Y0183702D02*
X0106981Y0183702D01*
X0106796Y0185275D02*
X0105945Y0185275D01*
X0105945Y0186849D02*
X0106796Y0186849D01*
X0106796Y0188422D02*
X0105945Y0188422D01*
X0105945Y0189995D02*
X0106796Y0189995D01*
X0106796Y0191569D02*
X0105945Y0191569D01*
X0105796Y0193142D02*
X0106945Y0193142D01*
X0107746Y0194715D02*
X0104996Y0194715D01*
X0114996Y0194715D02*
X0117746Y0194715D01*
X0116945Y0193142D02*
X0115796Y0193142D01*
X0115945Y0191569D02*
X0116796Y0191569D01*
X0116796Y0189995D02*
X0115945Y0189995D01*
X0115945Y0188422D02*
X0116796Y0188422D01*
X0116796Y0186849D02*
X0115945Y0186849D01*
X0115945Y0185275D02*
X0116796Y0185275D01*
X0117317Y0183702D02*
X0115424Y0183702D01*
X0114098Y0182129D02*
X0118643Y0182129D01*
X0119402Y0180555D02*
X0109402Y0180555D01*
X0107829Y0178982D02*
X0118698Y0178982D01*
X0117125Y0177409D02*
X0106256Y0177409D01*
X0104682Y0175835D02*
X0115552Y0175835D01*
X0113978Y0174262D02*
X0103109Y0174262D01*
X0101536Y0172689D02*
X0112405Y0172689D01*
X0110832Y0171116D02*
X0099962Y0171116D01*
X0098389Y0169542D02*
X0109258Y0169542D01*
X0107685Y0167969D02*
X0096816Y0167969D01*
X0095242Y0166396D02*
X0106112Y0166396D01*
X0104538Y0164822D02*
X0093669Y0164822D01*
X0092096Y0163249D02*
X0102965Y0163249D01*
X0105386Y0160102D02*
X0144985Y0160102D01*
X0144796Y0161676D02*
X0106960Y0161676D01*
X0108533Y0163249D02*
X0145238Y0163249D01*
X0146560Y0164822D02*
X0110106Y0164822D01*
X0111679Y0166396D02*
X0170776Y0166396D01*
X0170646Y0167969D02*
X0113253Y0167969D01*
X0114826Y0169542D02*
X0170646Y0169542D01*
X0170710Y0171116D02*
X0116399Y0171116D01*
X0117973Y0172689D02*
X0170646Y0172689D01*
X0170646Y0174262D02*
X0119546Y0174262D01*
X0121119Y0175835D02*
X0170646Y0175835D01*
X0170646Y0177409D02*
X0122693Y0177409D01*
X0123339Y0178982D02*
X0170646Y0178982D01*
X0170646Y0180555D02*
X0123339Y0180555D01*
X0124098Y0182129D02*
X0133376Y0182129D01*
X0133252Y0182219D02*
X0133861Y0181776D01*
X0134533Y0181434D01*
X0135250Y0181201D01*
X0135994Y0181083D01*
X0136158Y0181083D01*
X0136158Y0188658D01*
X0131583Y0188658D01*
X0131583Y0185494D01*
X0131701Y0184750D01*
X0131934Y0184033D01*
X0132276Y0183361D01*
X0132719Y0182752D01*
X0133252Y0182219D01*
X0132102Y0183702D02*
X0125424Y0183702D01*
X0125945Y0185275D02*
X0131618Y0185275D01*
X0131583Y0186849D02*
X0125945Y0186849D01*
X0125945Y0188422D02*
X0131583Y0188422D01*
X0131583Y0189995D02*
X0125945Y0189995D01*
X0125945Y0191569D02*
X0131583Y0191569D01*
X0131750Y0193142D02*
X0125796Y0193142D01*
X0124996Y0194715D02*
X0132520Y0194715D01*
X0136158Y0194715D02*
X0136583Y0194715D01*
X0136583Y0193142D02*
X0136158Y0193142D01*
X0136158Y0191569D02*
X0136583Y0191569D01*
X0136583Y0189995D02*
X0136158Y0189995D01*
X0136371Y0188871D02*
X0136371Y0183871D01*
X0136371Y0181036D01*
X0137099Y0180308D01*
X0135918Y0179127D01*
X0135918Y0158654D01*
X0135130Y0157867D01*
X0119382Y0157867D01*
X0123373Y0153809D02*
X0114368Y0153809D01*
X0111371Y0151430D02*
X0111312Y0151371D01*
X0078871Y0151371D01*
X0075839Y0147932D02*
X0076976Y0146796D01*
X0080766Y0146796D01*
X0082978Y0149008D01*
X0108415Y0149008D01*
X0108553Y0148871D01*
X0108024Y0148342D01*
X0108024Y0144281D01*
X0108947Y0143359D01*
X0109067Y0143359D01*
X0109067Y0141885D01*
X0108871Y0141688D01*
X0108342Y0142217D01*
X0104281Y0142217D01*
X0103359Y0141295D01*
X0103359Y0136447D01*
X0103435Y0136371D01*
X0103359Y0136295D01*
X0103359Y0131447D01*
X0103435Y0131371D01*
X0103359Y0131295D01*
X0103359Y0129694D01*
X0102711Y0130342D01*
X0101330Y0130914D01*
X0099836Y0130914D01*
X0098456Y0130342D01*
X0097399Y0129286D01*
X0097333Y0129127D01*
X0080828Y0129127D01*
X0078158Y0131796D01*
X0080766Y0131796D01*
X0083445Y0134476D01*
X0083445Y0138266D01*
X0080766Y0140945D01*
X0076976Y0140945D01*
X0075839Y0139809D01*
X0075839Y0147932D01*
X0075839Y0147516D02*
X0076256Y0147516D01*
X0075839Y0145943D02*
X0108024Y0145943D01*
X0108024Y0147516D02*
X0081486Y0147516D01*
X0082902Y0153809D02*
X0108373Y0153809D01*
X0111371Y0151430D02*
X0126371Y0151430D01*
X0141371Y0151430D01*
X0149304Y0151430D01*
X0151233Y0151430D01*
X0156233Y0151430D01*
X0170512Y0151430D01*
X0170521Y0151421D01*
X0170521Y0148921D02*
X0170521Y0146321D01*
X0175421Y0146321D01*
X0176621Y0145121D01*
X0176621Y0131121D01*
X0176621Y0128621D01*
X0180121Y0125121D01*
X0176621Y0121621D01*
X0176621Y0117621D01*
X0180379Y0119196D02*
X0182704Y0119196D01*
X0181131Y0120769D02*
X0179234Y0120769D01*
X0180695Y0117623D02*
X0184278Y0117623D01*
X0185851Y0116050D02*
X0180380Y0116050D01*
X0179239Y0114476D02*
X0187424Y0114476D01*
X0188998Y0112903D02*
X0171351Y0112903D01*
X0171351Y0114476D02*
X0174002Y0114476D01*
X0172861Y0116050D02*
X0171351Y0116050D01*
X0171351Y0117623D02*
X0172546Y0117623D01*
X0172863Y0119196D02*
X0171351Y0119196D01*
X0171351Y0120769D02*
X0174007Y0120769D01*
X0174258Y0122343D02*
X0171351Y0122343D01*
X0171351Y0123916D02*
X0175575Y0123916D01*
X0176411Y0125489D02*
X0171937Y0125489D01*
X0172351Y0127063D02*
X0174838Y0127063D01*
X0174258Y0128636D02*
X0172016Y0128636D01*
X0171351Y0130209D02*
X0174258Y0130209D01*
X0174258Y0131783D02*
X0171351Y0131783D01*
X0171351Y0133356D02*
X0174258Y0133356D01*
X0174258Y0134929D02*
X0171865Y0134929D01*
X0172132Y0136503D02*
X0174258Y0136503D01*
X0174258Y0138076D02*
X0172132Y0138076D01*
X0172132Y0139649D02*
X0174258Y0139649D01*
X0174258Y0141223D02*
X0171542Y0141223D01*
X0169180Y0142480D02*
X0170521Y0143821D01*
X0169180Y0142480D02*
X0169180Y0137621D01*
X0168989Y0137430D01*
X0168989Y0127158D01*
X0168989Y0106686D01*
X0170564Y0105111D01*
X0173812Y0101863D01*
X0173812Y0103812D01*
X0176371Y0106371D01*
X0179226Y0103463D02*
X0198438Y0103463D01*
X0196864Y0105036D02*
X0180228Y0105036D01*
X0180445Y0106610D02*
X0195291Y0106610D01*
X0193718Y0108183D02*
X0180030Y0108183D01*
X0178748Y0109756D02*
X0192144Y0109756D01*
X0190571Y0111330D02*
X0171351Y0111330D01*
X0171351Y0109756D02*
X0173994Y0109756D01*
X0172711Y0108183D02*
X0171351Y0108183D01*
X0167297Y0105036D02*
X0160108Y0105036D01*
X0160108Y0103463D02*
X0168871Y0103463D01*
X0170444Y0101890D02*
X0161287Y0101890D01*
X0158930Y0098871D02*
X0173812Y0098871D01*
X0173812Y0101863D01*
X0173812Y0098871D02*
X0173812Y0093871D01*
X0173812Y0088871D01*
X0171371Y0086430D01*
X0171371Y0078871D01*
X0175945Y0078290D02*
X0176583Y0078290D01*
X0176583Y0078658D02*
X0176583Y0075494D01*
X0176701Y0074750D01*
X0176934Y0074033D01*
X0177276Y0073361D01*
X0177719Y0072752D01*
X0178252Y0072219D01*
X0178861Y0071776D01*
X0179533Y0071434D01*
X0180250Y0071201D01*
X0180994Y0071083D01*
X0181158Y0071083D01*
X0181158Y0078658D01*
X0176583Y0078658D01*
X0176583Y0079863D02*
X0175945Y0079863D01*
X0175945Y0081437D02*
X0176583Y0081437D01*
X0176707Y0083010D02*
X0175850Y0083010D01*
X0175128Y0084583D02*
X0177424Y0084583D01*
X0178930Y0081312D02*
X0178930Y0088871D01*
X0178930Y0088871D01*
X0178930Y0093870D01*
X0178930Y0093870D01*
X0178930Y0093871D02*
X0178930Y0093871D01*
X0178930Y0093871D01*
X0178930Y0098870D01*
X0178930Y0098870D01*
X0178930Y0097430D01*
X0178930Y0093871D01*
X0182095Y0093871D01*
X0178930Y0093871D01*
X0178930Y0088871D01*
X0182095Y0088871D01*
X0178930Y0088871D01*
X0178930Y0088871D01*
X0178930Y0092430D01*
X0178930Y0093870D01*
X0178930Y0093871D02*
X0178930Y0098871D01*
X0196489Y0098871D01*
X0199697Y0095662D01*
X0205997Y0095662D01*
X0206784Y0095662D01*
X0207571Y0094875D01*
X0206784Y0095662D01*
X0206111Y0095596D02*
X0216020Y0095596D01*
X0216020Y0094023D02*
X0213412Y0094023D01*
X0213335Y0093785D02*
X0213568Y0094502D01*
X0213686Y0095246D01*
X0213686Y0095410D01*
X0206111Y0095410D01*
X0206111Y0095835D01*
X0213686Y0095835D01*
X0213686Y0095999D01*
X0213568Y0096744D01*
X0213335Y0097460D01*
X0212993Y0098132D01*
X0212550Y0098741D01*
X0212017Y0099274D01*
X0211407Y0099717D01*
X0210736Y0100059D01*
X0210019Y0100292D01*
X0209275Y0100410D01*
X0206111Y0100410D01*
X0206111Y0095835D01*
X0205686Y0095835D01*
X0205686Y0100410D01*
X0202521Y0100410D01*
X0201777Y0100292D01*
X0201060Y0100059D01*
X0200389Y0099717D01*
X0199779Y0099274D01*
X0199247Y0098741D01*
X0198804Y0098132D01*
X0198462Y0097460D01*
X0198229Y0096744D01*
X0198111Y0095999D01*
X0198111Y0095835D01*
X0205685Y0095835D01*
X0205685Y0095410D01*
X0198111Y0095410D01*
X0198111Y0095246D01*
X0198229Y0094502D01*
X0198462Y0093785D01*
X0198804Y0093113D01*
X0199247Y0092504D01*
X0199779Y0091971D01*
X0200389Y0091528D01*
X0201060Y0091186D01*
X0201777Y0090953D01*
X0202521Y0090835D01*
X0205686Y0090835D01*
X0205686Y0095410D01*
X0206111Y0095410D01*
X0206111Y0090835D01*
X0209275Y0090835D01*
X0210019Y0090953D01*
X0210736Y0091186D01*
X0211407Y0091528D01*
X0212017Y0091971D01*
X0212550Y0092504D01*
X0212993Y0093113D01*
X0213335Y0093785D01*
X0212496Y0092450D02*
X0216020Y0092450D01*
X0216020Y0090877D02*
X0209536Y0090877D01*
X0206111Y0090877D02*
X0205686Y0090877D01*
X0205686Y0092450D02*
X0206111Y0092450D01*
X0206111Y0094023D02*
X0205686Y0094023D01*
X0205685Y0095596D02*
X0182095Y0095596D01*
X0182095Y0094023D02*
X0198384Y0094023D01*
X0199301Y0092450D02*
X0182095Y0092450D01*
X0182095Y0090877D02*
X0202260Y0090877D01*
X0205686Y0097170D02*
X0206111Y0097170D01*
X0206111Y0098743D02*
X0205686Y0098743D01*
X0205686Y0100316D02*
X0206111Y0100316D01*
X0209866Y0100316D02*
X0216020Y0100316D01*
X0216020Y0098743D02*
X0212548Y0098743D01*
X0213429Y0097170D02*
X0216020Y0097170D01*
X0216020Y0101890D02*
X0211635Y0101890D01*
X0212955Y0103463D02*
X0216020Y0103463D01*
X0216020Y0105036D02*
X0213473Y0105036D01*
X0213441Y0106610D02*
X0216020Y0106610D01*
X0216020Y0108183D02*
X0212789Y0108183D01*
X0210873Y0109756D02*
X0216020Y0109756D01*
X0216020Y0111330D02*
X0210489Y0111330D01*
X0212648Y0112903D02*
X0216020Y0112903D01*
X0216020Y0114476D02*
X0213375Y0114476D01*
X0213473Y0116050D02*
X0216020Y0116050D01*
X0216020Y0117623D02*
X0213021Y0117623D01*
X0211794Y0119196D02*
X0216020Y0119196D01*
X0216020Y0120769D02*
X0204092Y0120769D01*
X0202519Y0122343D02*
X0216020Y0122343D01*
X0216020Y0123916D02*
X0200945Y0123916D01*
X0199372Y0125489D02*
X0216020Y0125489D01*
X0216020Y0127063D02*
X0197799Y0127063D01*
X0196225Y0128636D02*
X0216020Y0128636D01*
X0216020Y0130209D02*
X0209645Y0130209D01*
X0209967Y0131783D02*
X0216020Y0131783D01*
X0216020Y0133356D02*
X0209967Y0133356D01*
X0209630Y0134929D02*
X0216020Y0134929D01*
X0216020Y0136503D02*
X0209967Y0136503D01*
X0211621Y0136896D02*
X0211621Y0140061D01*
X0211621Y0136896D01*
X0211621Y0138076D02*
X0211621Y0138076D01*
X0211621Y0139649D02*
X0211621Y0139649D01*
X0211621Y0140061D02*
X0211621Y0140061D01*
X0211621Y0140062D02*
X0211680Y0140121D01*
X0215180Y0139649D02*
X0216020Y0139649D01*
X0216020Y0138076D02*
X0215080Y0138076D01*
X0215180Y0141223D02*
X0216020Y0141223D01*
X0216020Y0142796D02*
X0214614Y0142796D01*
X0214967Y0144369D02*
X0216020Y0144369D01*
X0216020Y0145943D02*
X0214967Y0145943D01*
X0214661Y0147516D02*
X0216020Y0147516D01*
X0216020Y0149089D02*
X0213983Y0149089D01*
X0214967Y0150662D02*
X0216020Y0150662D01*
X0216020Y0152236D02*
X0214967Y0152236D01*
X0214967Y0153809D02*
X0216020Y0153809D01*
X0216020Y0155382D02*
X0214700Y0155382D01*
X0214967Y0156956D02*
X0216020Y0156956D01*
X0216020Y0158529D02*
X0214967Y0158529D01*
X0214575Y0160102D02*
X0216020Y0160102D01*
X0216020Y0161676D02*
X0209967Y0161676D01*
X0209967Y0163249D02*
X0216020Y0163249D01*
X0216020Y0164822D02*
X0209855Y0164822D01*
X0206621Y0162680D02*
X0201621Y0162680D01*
X0198274Y0163249D02*
X0190333Y0163249D01*
X0191542Y0161676D02*
X0198274Y0161676D01*
X0198785Y0160102D02*
X0192075Y0160102D01*
X0192132Y0158529D02*
X0196629Y0158529D01*
X0199002Y0157562D02*
X0196621Y0155180D01*
X0193274Y0155382D02*
X0192132Y0155382D01*
X0192132Y0156956D02*
X0193274Y0156956D01*
X0193274Y0153809D02*
X0191542Y0153809D01*
X0192245Y0152236D02*
X0193418Y0152236D01*
X0193274Y0150662D02*
X0192245Y0150662D01*
X0192245Y0149089D02*
X0192248Y0149089D01*
X0194121Y0147621D02*
X0192821Y0146321D01*
X0187721Y0146321D01*
X0187721Y0143821D02*
X0193980Y0143821D01*
X0196871Y0140930D01*
X0193524Y0139649D02*
X0183983Y0139649D01*
X0183983Y0138076D02*
X0193758Y0138076D01*
X0193524Y0136503D02*
X0190397Y0136503D01*
X0187845Y0136503D02*
X0183983Y0136503D01*
X0183983Y0134929D02*
X0185667Y0134929D01*
X0185046Y0133356D02*
X0183983Y0133356D01*
X0184299Y0131783D02*
X0185057Y0131783D01*
X0181621Y0131121D02*
X0186371Y0126371D01*
X0187886Y0126371D01*
X0195150Y0126371D01*
X0205898Y0115623D01*
X0201308Y0111330D02*
X0197252Y0111330D01*
X0195679Y0112903D02*
X0199148Y0112903D01*
X0198421Y0114476D02*
X0194106Y0114476D01*
X0192532Y0116050D02*
X0198323Y0116050D01*
X0198775Y0117623D02*
X0190959Y0117623D01*
X0189386Y0119196D02*
X0198984Y0119196D01*
X0197411Y0120769D02*
X0187812Y0120769D01*
X0186239Y0122343D02*
X0195837Y0122343D01*
X0194264Y0123916D02*
X0184666Y0123916D01*
X0183911Y0125489D02*
X0183092Y0125489D01*
X0182338Y0127063D02*
X0181519Y0127063D01*
X0180764Y0128636D02*
X0179946Y0128636D01*
X0179258Y0130209D02*
X0178983Y0130209D01*
X0178983Y0131783D02*
X0179258Y0131783D01*
X0179258Y0133356D02*
X0178983Y0133356D01*
X0178983Y0134929D02*
X0179258Y0134929D01*
X0179258Y0136503D02*
X0178983Y0136503D01*
X0178983Y0138076D02*
X0179258Y0138076D01*
X0179258Y0139649D02*
X0178983Y0139649D01*
X0178983Y0141223D02*
X0179258Y0141223D01*
X0179258Y0142796D02*
X0178983Y0142796D01*
X0178983Y0144369D02*
X0180029Y0144369D01*
X0180642Y0144983D02*
X0180642Y0144983D01*
X0181602Y0145943D02*
X0178983Y0145943D01*
X0181621Y0142621D02*
X0182821Y0143821D01*
X0187721Y0143821D01*
X0183983Y0141223D02*
X0193237Y0141223D01*
X0196871Y0135812D02*
X0198739Y0137680D01*
X0201621Y0137680D01*
X0206621Y0137680D02*
X0206621Y0145062D01*
X0201621Y0145062D02*
X0199180Y0145062D01*
X0196621Y0147621D01*
X0196621Y0150062D01*
X0196562Y0150062D01*
X0194121Y0147621D01*
X0189180Y0152880D02*
X0189180Y0157621D01*
X0189180Y0161062D01*
X0186371Y0163871D01*
X0181371Y0163871D01*
X0178930Y0166312D01*
X0178930Y0168871D01*
X0178930Y0173871D01*
X0178930Y0178871D01*
X0178871Y0178930D01*
X0178871Y0183871D01*
X0181371Y0186371D01*
X0181371Y0188871D01*
X0185945Y0188422D02*
X0216020Y0188422D01*
X0216020Y0186849D02*
X0185945Y0186849D01*
X0185945Y0185275D02*
X0216020Y0185275D01*
X0216020Y0183702D02*
X0185424Y0183702D01*
X0184098Y0182129D02*
X0216020Y0182129D01*
X0216020Y0180555D02*
X0188026Y0180555D01*
X0186371Y0178871D02*
X0178930Y0178871D01*
X0176508Y0182129D02*
X0176190Y0182129D01*
X0176508Y0183702D02*
X0175639Y0183702D01*
X0176123Y0185275D02*
X0176796Y0185275D01*
X0176796Y0186849D02*
X0176158Y0186849D01*
X0176158Y0188422D02*
X0176796Y0188422D01*
X0176796Y0189995D02*
X0176158Y0189995D01*
X0176158Y0191569D02*
X0176796Y0191569D01*
X0176945Y0193142D02*
X0175991Y0193142D01*
X0175221Y0194715D02*
X0177746Y0194715D01*
X0171583Y0194715D02*
X0171158Y0194715D01*
X0171158Y0193142D02*
X0171583Y0193142D01*
X0171583Y0191569D02*
X0171158Y0191569D01*
X0171158Y0189995D02*
X0171583Y0189995D01*
X0171371Y0188871D02*
X0171371Y0181312D01*
X0171666Y0181016D01*
X0168201Y0177552D01*
X0139855Y0177552D01*
X0137099Y0180308D01*
X0136583Y0182129D02*
X0136158Y0182129D01*
X0136158Y0183702D02*
X0136583Y0183702D01*
X0136583Y0185275D02*
X0136158Y0185275D01*
X0136158Y0186849D02*
X0136583Y0186849D01*
X0136583Y0188422D02*
X0136158Y0188422D01*
X0141158Y0188422D02*
X0141796Y0188422D01*
X0141796Y0186849D02*
X0141158Y0186849D01*
X0141123Y0185275D02*
X0141796Y0185275D01*
X0142317Y0183702D02*
X0140639Y0183702D01*
X0139365Y0182129D02*
X0143643Y0182129D01*
X0149098Y0182129D02*
X0153643Y0182129D01*
X0152317Y0183702D02*
X0150424Y0183702D01*
X0150945Y0185275D02*
X0151796Y0185275D01*
X0151796Y0186849D02*
X0150945Y0186849D01*
X0150945Y0188422D02*
X0151796Y0188422D01*
X0151796Y0189995D02*
X0150945Y0189995D01*
X0150945Y0191569D02*
X0151796Y0191569D01*
X0151945Y0193142D02*
X0150796Y0193142D01*
X0149996Y0194715D02*
X0152746Y0194715D01*
X0159996Y0194715D02*
X0167520Y0194715D01*
X0166750Y0193142D02*
X0160796Y0193142D01*
X0160945Y0191569D02*
X0166583Y0191569D01*
X0166583Y0189995D02*
X0160945Y0189995D01*
X0160945Y0188422D02*
X0166583Y0188422D01*
X0166583Y0186849D02*
X0160945Y0186849D01*
X0160945Y0185275D02*
X0166618Y0185275D01*
X0167102Y0183702D02*
X0160424Y0183702D01*
X0159098Y0182129D02*
X0168376Y0182129D01*
X0171666Y0181016D02*
X0173812Y0178871D01*
X0173812Y0173871D01*
X0173812Y0168871D01*
X0173812Y0163930D01*
X0178871Y0158871D01*
X0182812Y0158871D01*
X0184062Y0157621D01*
X0184121Y0157680D01*
X0184061Y0156956D02*
X0184062Y0156956D01*
X0184061Y0158529D02*
X0184062Y0158529D01*
X0184061Y0160102D02*
X0184062Y0160102D01*
X0181030Y0160102D02*
X0152756Y0160102D01*
X0152945Y0161676D02*
X0180225Y0161676D01*
X0178652Y0163249D02*
X0152503Y0163249D01*
X0151182Y0164822D02*
X0177078Y0164822D01*
X0173812Y0166396D02*
X0173811Y0166396D01*
X0173811Y0167969D02*
X0173812Y0167969D01*
X0173811Y0169542D02*
X0173812Y0169542D01*
X0173811Y0171116D02*
X0173812Y0171116D01*
X0173811Y0172689D02*
X0173812Y0172689D01*
X0173811Y0174262D02*
X0173812Y0174262D01*
X0173811Y0175835D02*
X0173812Y0175835D01*
X0173811Y0177409D02*
X0173812Y0177409D01*
X0181882Y0175835D02*
X0184796Y0175835D01*
X0185333Y0174262D02*
X0181882Y0174262D01*
X0181882Y0172689D02*
X0187111Y0172689D01*
X0190630Y0172689D02*
X0216020Y0172689D01*
X0216020Y0174262D02*
X0192408Y0174262D01*
X0192945Y0175835D02*
X0216020Y0175835D01*
X0216020Y0177409D02*
X0192851Y0177409D01*
X0192022Y0178982D02*
X0216020Y0178982D01*
X0216020Y0171116D02*
X0181882Y0171116D01*
X0181882Y0169542D02*
X0216020Y0169542D01*
X0216020Y0167969D02*
X0181882Y0167969D01*
X0182186Y0166396D02*
X0216020Y0166396D01*
X0211621Y0157680D02*
X0211502Y0157562D01*
X0206621Y0157562D01*
X0201621Y0157562D02*
X0199002Y0157562D01*
X0198387Y0164822D02*
X0188760Y0164822D01*
X0180896Y0158529D02*
X0151792Y0158529D01*
X0150839Y0156956D02*
X0180896Y0156956D01*
X0180958Y0155382D02*
X0150839Y0155382D01*
X0150839Y0153809D02*
X0153236Y0153809D01*
X0159230Y0153809D02*
X0166882Y0153809D01*
X0165996Y0149067D02*
X0165996Y0142318D01*
X0166817Y0141497D01*
X0166817Y0140635D01*
X0166771Y0140589D01*
X0166537Y0140823D01*
X0166129Y0141058D01*
X0165675Y0141180D01*
X0164062Y0141180D01*
X0164062Y0137621D01*
X0164061Y0138076D02*
X0164062Y0138076D01*
X0164061Y0139649D02*
X0164062Y0139649D01*
X0164061Y0136503D02*
X0164062Y0136503D01*
X0164061Y0134929D02*
X0164062Y0134929D01*
X0161151Y0134929D02*
X0159245Y0134929D01*
X0159245Y0136295D02*
X0159245Y0131447D01*
X0159169Y0131371D01*
X0159245Y0131295D01*
X0159245Y0126447D01*
X0159169Y0126371D01*
X0159245Y0126295D01*
X0159245Y0125399D01*
X0159795Y0124849D01*
X0159795Y0119936D01*
X0160108Y0119623D01*
X0160108Y0113318D01*
X0159185Y0112396D01*
X0155680Y0112396D01*
X0155680Y0112396D01*
X0155523Y0112305D01*
X0155068Y0112183D01*
X0153733Y0112183D01*
X0153733Y0116470D01*
X0153733Y0116470D01*
X0153733Y0112183D01*
X0152397Y0112183D01*
X0151943Y0112305D01*
X0151883Y0112340D01*
X0151823Y0112305D01*
X0151368Y0112183D01*
X0150033Y0112183D01*
X0150033Y0116470D01*
X0150033Y0116470D01*
X0150033Y0112183D01*
X0148697Y0112183D01*
X0148243Y0112305D01*
X0147835Y0112540D01*
X0147503Y0112873D01*
X0147267Y0113281D01*
X0147145Y0113735D01*
X0147145Y0116471D01*
X0150033Y0116471D01*
X0150033Y0116471D01*
X0153733Y0116471D01*
X0153733Y0116471D01*
X0150033Y0116471D01*
X0150033Y0116471D01*
X0150033Y0116050D02*
X0150033Y0116050D01*
X0150033Y0114476D02*
X0150033Y0114476D01*
X0150033Y0112903D02*
X0150033Y0112903D01*
X0147485Y0112903D02*
X0144830Y0112903D01*
X0145245Y0114476D02*
X0147145Y0114476D01*
X0147145Y0116050D02*
X0145245Y0116050D01*
X0145245Y0117623D02*
X0147145Y0117623D01*
X0147145Y0119196D02*
X0145245Y0119196D01*
X0144933Y0120769D02*
X0148898Y0120769D01*
X0148221Y0122343D02*
X0144933Y0122343D01*
X0144725Y0123916D02*
X0148221Y0123916D01*
X0148221Y0125489D02*
X0144382Y0125489D01*
X0144382Y0127063D02*
X0148221Y0127063D01*
X0148221Y0128636D02*
X0144382Y0128636D01*
X0144382Y0130209D02*
X0148221Y0130209D01*
X0148221Y0131783D02*
X0144382Y0131783D01*
X0144382Y0133356D02*
X0148221Y0133356D01*
X0148221Y0134929D02*
X0144382Y0134929D01*
X0144382Y0136503D02*
X0148221Y0136503D01*
X0148221Y0138076D02*
X0144382Y0138076D01*
X0144382Y0139649D02*
X0148221Y0139649D01*
X0148221Y0141223D02*
X0144382Y0141223D01*
X0143733Y0142796D02*
X0153871Y0142796D01*
X0152886Y0144369D02*
X0144717Y0144369D01*
X0144717Y0145943D02*
X0152886Y0145943D01*
X0152886Y0147516D02*
X0144717Y0147516D01*
X0141371Y0146312D02*
X0141371Y0138930D01*
X0141430Y0138871D01*
X0139008Y0142796D02*
X0128792Y0142796D01*
X0129382Y0141223D02*
X0133359Y0141223D01*
X0133359Y0139649D02*
X0129382Y0139649D01*
X0129382Y0138076D02*
X0133359Y0138076D01*
X0133359Y0136503D02*
X0129382Y0136503D01*
X0129382Y0134929D02*
X0133359Y0134929D01*
X0133359Y0133356D02*
X0129382Y0133356D01*
X0129382Y0131783D02*
X0133359Y0131783D01*
X0133359Y0130209D02*
X0129382Y0130209D01*
X0129382Y0128636D02*
X0133359Y0128636D01*
X0133359Y0127063D02*
X0129382Y0127063D01*
X0129382Y0125489D02*
X0133359Y0125489D01*
X0133359Y0123916D02*
X0129725Y0123916D01*
X0129933Y0122343D02*
X0133359Y0122343D01*
X0134036Y0120769D02*
X0129933Y0120769D01*
X0130245Y0119196D02*
X0132283Y0119196D01*
X0132283Y0117623D02*
X0130245Y0117623D01*
X0130245Y0116050D02*
X0132283Y0116050D01*
X0132283Y0114476D02*
X0130245Y0114476D01*
X0129830Y0112903D02*
X0132623Y0112903D01*
X0135171Y0112903D02*
X0135171Y0112903D01*
X0135171Y0112183D02*
X0135171Y0116470D01*
X0135171Y0116470D01*
X0135171Y0116471D02*
X0135171Y0116471D01*
X0138058Y0116471D01*
X0138870Y0116471D01*
X0138870Y0116471D01*
X0138871Y0116471D02*
X0138871Y0120758D01*
X0138871Y0116471D01*
X0138871Y0116471D01*
X0138871Y0111371D01*
X0138871Y0106271D01*
X0138871Y0098930D01*
X0138812Y0098871D01*
X0138812Y0098870D02*
X0138812Y0095312D01*
X0140425Y0095312D01*
X0140879Y0095433D01*
X0141287Y0095669D01*
X0141521Y0095903D01*
X0141567Y0095856D01*
X0141567Y0092408D01*
X0140392Y0091233D01*
X0136544Y0091233D01*
X0137055Y0091743D01*
X0137627Y0093123D01*
X0137627Y0094618D01*
X0137339Y0095312D01*
X0138811Y0095312D01*
X0138811Y0098870D01*
X0138812Y0098870D01*
X0138811Y0098743D02*
X0138812Y0098743D01*
X0138811Y0097170D02*
X0138812Y0097170D01*
X0138811Y0095596D02*
X0138812Y0095596D01*
X0137627Y0094023D02*
X0141567Y0094023D01*
X0141567Y0092450D02*
X0137347Y0092450D01*
X0141162Y0095596D02*
X0141567Y0095596D01*
X0143930Y0098871D02*
X0143930Y0091430D01*
X0143571Y0087730D02*
X0144289Y0087730D01*
X0144781Y0086445D02*
X0142961Y0086445D01*
X0141279Y0085749D01*
X0139992Y0084462D01*
X0139296Y0082781D01*
X0139296Y0074961D01*
X0139992Y0073279D01*
X0141279Y0071992D01*
X0142961Y0071296D01*
X0144781Y0071296D01*
X0146462Y0071992D01*
X0147749Y0073279D01*
X0148445Y0074961D01*
X0148445Y0082781D01*
X0147749Y0084462D01*
X0146462Y0085749D01*
X0144781Y0086445D01*
X0145478Y0086157D02*
X0169008Y0086157D01*
X0169330Y0087730D02*
X0158571Y0087730D01*
X0159933Y0089303D02*
X0170859Y0089303D01*
X0170859Y0090877D02*
X0159933Y0090877D01*
X0159933Y0092450D02*
X0170859Y0092450D01*
X0170859Y0094023D02*
X0159933Y0094023D01*
X0161032Y0095596D02*
X0170859Y0095596D01*
X0178930Y0095596D02*
X0178930Y0095596D01*
X0178930Y0094023D02*
X0178930Y0094023D01*
X0178930Y0092450D02*
X0178930Y0092450D01*
X0178930Y0090877D02*
X0178930Y0090877D01*
X0178930Y0089303D02*
X0178930Y0089303D01*
X0182095Y0089303D02*
X0216020Y0089303D01*
X0216020Y0087730D02*
X0182095Y0087730D01*
X0183504Y0086157D02*
X0216020Y0086157D01*
X0216020Y0084583D02*
X0185317Y0084583D01*
X0186034Y0083010D02*
X0216020Y0083010D01*
X0216020Y0081437D02*
X0186158Y0081437D01*
X0186158Y0079863D02*
X0216020Y0079863D01*
X0216020Y0078290D02*
X0186158Y0078290D01*
X0186158Y0076717D02*
X0216020Y0076717D01*
X0216020Y0075143D02*
X0186102Y0075143D01*
X0185571Y0073570D02*
X0216020Y0073570D01*
X0216020Y0071997D02*
X0184183Y0071997D01*
X0181583Y0071997D02*
X0181158Y0071997D01*
X0181158Y0073570D02*
X0181583Y0073570D01*
X0181583Y0075143D02*
X0181158Y0075143D01*
X0181158Y0076717D02*
X0181583Y0076717D01*
X0181583Y0078290D02*
X0181158Y0078290D01*
X0181371Y0078871D02*
X0178930Y0081312D01*
X0176583Y0076717D02*
X0175945Y0076717D01*
X0175945Y0075143D02*
X0176639Y0075143D01*
X0177170Y0073570D02*
X0175369Y0073570D01*
X0173966Y0071997D02*
X0178558Y0071997D01*
X0168775Y0071997D02*
X0146466Y0071997D01*
X0147869Y0073570D02*
X0167372Y0073570D01*
X0166796Y0075143D02*
X0148445Y0075143D01*
X0148445Y0076717D02*
X0166796Y0076717D01*
X0166796Y0078290D02*
X0148445Y0078290D01*
X0148445Y0079863D02*
X0166796Y0079863D01*
X0166796Y0081437D02*
X0148445Y0081437D01*
X0148350Y0083010D02*
X0166891Y0083010D01*
X0167613Y0084583D02*
X0147628Y0084583D01*
X0142263Y0086157D02*
X0135478Y0086157D01*
X0134781Y0086445D02*
X0132961Y0086445D01*
X0131279Y0085749D01*
X0129992Y0084462D01*
X0129296Y0082781D01*
X0129296Y0074961D01*
X0129992Y0073279D01*
X0131279Y0071992D01*
X0132961Y0071296D01*
X0134781Y0071296D01*
X0136462Y0071992D01*
X0137749Y0073279D01*
X0138445Y0074961D01*
X0138445Y0082781D01*
X0137749Y0084462D01*
X0136462Y0085749D01*
X0134781Y0086445D01*
X0132263Y0086157D02*
X0125478Y0086157D01*
X0124781Y0086445D02*
X0126462Y0085749D01*
X0127749Y0084462D01*
X0128445Y0082781D01*
X0128445Y0074961D01*
X0127749Y0073279D01*
X0126462Y0071992D01*
X0124781Y0071296D01*
X0122961Y0071296D01*
X0121279Y0071992D01*
X0119992Y0073279D01*
X0119296Y0074961D01*
X0119296Y0082781D01*
X0119992Y0084462D01*
X0121279Y0085749D01*
X0122961Y0086445D01*
X0124781Y0086445D01*
X0122263Y0086157D02*
X0115478Y0086157D01*
X0114781Y0086445D02*
X0116462Y0085749D01*
X0117749Y0084462D01*
X0118445Y0082781D01*
X0118445Y0074961D01*
X0117749Y0073279D01*
X0116462Y0071992D01*
X0114781Y0071296D01*
X0112961Y0071296D01*
X0111279Y0071992D01*
X0109992Y0073279D01*
X0109296Y0074961D01*
X0109296Y0082781D01*
X0109992Y0084462D01*
X0111279Y0085749D01*
X0112961Y0086445D01*
X0114781Y0086445D01*
X0112263Y0086157D02*
X0106004Y0086157D01*
X0107817Y0084583D02*
X0110113Y0084583D01*
X0109391Y0083010D02*
X0108534Y0083010D01*
X0108658Y0081437D02*
X0109296Y0081437D01*
X0109296Y0079863D02*
X0108658Y0079863D01*
X0108658Y0078290D02*
X0109296Y0078290D01*
X0109296Y0076717D02*
X0108658Y0076717D01*
X0108602Y0075143D02*
X0109296Y0075143D01*
X0109872Y0073570D02*
X0108071Y0073570D01*
X0106683Y0071997D02*
X0111275Y0071997D01*
X0116466Y0071997D02*
X0121275Y0071997D01*
X0119872Y0073570D02*
X0117869Y0073570D01*
X0118445Y0075143D02*
X0119296Y0075143D01*
X0119296Y0076717D02*
X0118445Y0076717D01*
X0118445Y0078290D02*
X0119296Y0078290D01*
X0119296Y0079863D02*
X0118445Y0079863D01*
X0118445Y0081437D02*
X0119296Y0081437D01*
X0119391Y0083010D02*
X0118350Y0083010D01*
X0117628Y0084583D02*
X0120113Y0084583D01*
X0116371Y0088871D02*
X0113930Y0091312D01*
X0113930Y0098871D01*
X0112571Y0100230D01*
X0112571Y0106271D01*
X0115245Y0106610D02*
X0117496Y0106610D01*
X0117496Y0108183D02*
X0115245Y0108183D01*
X0114912Y0109756D02*
X0117829Y0109756D01*
X0120171Y0112183D02*
X0120171Y0116470D01*
X0120171Y0112183D01*
X0120171Y0112903D02*
X0120171Y0112903D01*
X0120171Y0114476D02*
X0120171Y0114476D01*
X0120171Y0116050D02*
X0120171Y0116050D01*
X0120171Y0116470D02*
X0120171Y0116470D01*
X0120171Y0116471D02*
X0120171Y0116471D01*
X0123058Y0116471D01*
X0123870Y0116471D01*
X0123870Y0116471D01*
X0123871Y0116471D02*
X0123871Y0120758D01*
X0123871Y0116471D01*
X0123871Y0116471D01*
X0123871Y0111371D01*
X0138871Y0111371D01*
X0153733Y0111371D01*
X0153733Y0106271D01*
X0153733Y0098949D01*
X0153812Y0098871D01*
X0153871Y0098930D01*
X0153812Y0098870D02*
X0153812Y0095312D01*
X0155208Y0095312D01*
X0155208Y0091233D01*
X0151544Y0091233D01*
X0152055Y0091743D01*
X0152627Y0093123D01*
X0152627Y0094618D01*
X0152339Y0095312D01*
X0153811Y0095312D01*
X0153811Y0098870D01*
X0153812Y0098870D01*
X0153811Y0098743D02*
X0153812Y0098743D01*
X0153811Y0097170D02*
X0153812Y0097170D01*
X0153811Y0095596D02*
X0153812Y0095596D01*
X0152627Y0094023D02*
X0155208Y0094023D01*
X0155208Y0092450D02*
X0152347Y0092450D01*
X0147021Y0097170D02*
X0146882Y0097170D01*
X0146882Y0098743D02*
X0148064Y0098743D01*
X0148064Y0100316D02*
X0146882Y0100316D01*
X0146287Y0101890D02*
X0148064Y0101890D01*
X0147358Y0103463D02*
X0145245Y0103463D01*
X0145245Y0105036D02*
X0147358Y0105036D01*
X0147358Y0106610D02*
X0145245Y0106610D01*
X0145245Y0108183D02*
X0147358Y0108183D01*
X0147691Y0109756D02*
X0144912Y0109756D01*
X0140818Y0110345D02*
X0140818Y0110345D01*
X0138871Y0109756D02*
X0138871Y0109756D01*
X0138871Y0108183D02*
X0138871Y0108183D01*
X0138871Y0106610D02*
X0138871Y0106610D01*
X0142571Y0106271D02*
X0142571Y0100230D01*
X0143930Y0098871D01*
X0133202Y0098743D02*
X0131882Y0098743D01*
X0131882Y0097170D02*
X0132021Y0097170D01*
X0131882Y0100316D02*
X0133202Y0100316D01*
X0133202Y0101890D02*
X0131287Y0101890D01*
X0130245Y0103463D02*
X0132496Y0103463D01*
X0132496Y0105036D02*
X0130245Y0105036D01*
X0130245Y0106610D02*
X0132496Y0106610D01*
X0132496Y0108183D02*
X0130245Y0108183D01*
X0129912Y0109756D02*
X0132829Y0109756D01*
X0135171Y0112183D02*
X0135171Y0116470D01*
X0135171Y0116471D02*
X0138870Y0116471D01*
X0138871Y0116471D02*
X0135171Y0116471D01*
X0135171Y0116050D02*
X0135171Y0116050D01*
X0135171Y0114476D02*
X0135171Y0114476D01*
X0138871Y0114476D02*
X0138871Y0114476D01*
X0138871Y0112903D02*
X0138871Y0112903D01*
X0138871Y0112183D02*
X0138871Y0116470D01*
X0138871Y0116470D01*
X0138871Y0112183D01*
X0138871Y0116050D02*
X0138871Y0116050D01*
X0138871Y0117623D02*
X0138871Y0117623D01*
X0138871Y0119196D02*
X0138871Y0119196D01*
X0138871Y0120758D02*
X0139166Y0120758D01*
X0138871Y0121053D01*
X0138576Y0120758D01*
X0138871Y0120758D01*
X0139154Y0120769D02*
X0138587Y0120769D01*
X0136312Y0123871D02*
X0136312Y0128871D01*
X0136312Y0133871D02*
X0136312Y0138871D01*
X0138024Y0144369D02*
X0129717Y0144369D01*
X0129717Y0145943D02*
X0138024Y0145943D01*
X0138024Y0147516D02*
X0129717Y0147516D01*
X0126430Y0146252D02*
X0126430Y0138871D01*
X0124067Y0142796D02*
X0113792Y0142796D01*
X0114382Y0141223D02*
X0118359Y0141223D01*
X0118359Y0139649D02*
X0114382Y0139649D01*
X0114382Y0138076D02*
X0118359Y0138076D01*
X0118359Y0136503D02*
X0114382Y0136503D01*
X0114382Y0134929D02*
X0118359Y0134929D01*
X0118359Y0133356D02*
X0114382Y0133356D01*
X0114382Y0131783D02*
X0118359Y0131783D01*
X0118359Y0130209D02*
X0114382Y0130209D01*
X0114382Y0128636D02*
X0118359Y0128636D01*
X0118359Y0127063D02*
X0114382Y0127063D01*
X0114382Y0125489D02*
X0118359Y0125489D01*
X0118359Y0123916D02*
X0114725Y0123916D01*
X0114933Y0122343D02*
X0118359Y0122343D01*
X0119036Y0120769D02*
X0114933Y0120769D01*
X0115245Y0119196D02*
X0117283Y0119196D01*
X0117283Y0117623D02*
X0115245Y0117623D01*
X0115245Y0116050D02*
X0117283Y0116050D01*
X0117283Y0114476D02*
X0115245Y0114476D01*
X0114830Y0112903D02*
X0117623Y0112903D01*
X0120171Y0116471D02*
X0123871Y0116471D01*
X0123871Y0116470D02*
X0123871Y0112183D01*
X0123871Y0116470D01*
X0123871Y0116470D01*
X0123870Y0116471D02*
X0120171Y0116471D01*
X0123871Y0116050D02*
X0123871Y0116050D01*
X0123871Y0117623D02*
X0123871Y0117623D01*
X0123871Y0119196D02*
X0123871Y0119196D01*
X0123871Y0120758D02*
X0124166Y0120758D01*
X0123871Y0121053D01*
X0123576Y0120758D01*
X0123871Y0120758D01*
X0124154Y0120769D02*
X0123587Y0120769D01*
X0121312Y0123871D02*
X0121312Y0128871D01*
X0121312Y0133871D02*
X0121312Y0138871D01*
X0123024Y0144369D02*
X0114717Y0144369D01*
X0114717Y0145943D02*
X0123024Y0145943D01*
X0123024Y0147516D02*
X0114717Y0147516D01*
X0111430Y0146252D02*
X0111430Y0138871D01*
X0109067Y0142796D02*
X0075839Y0142796D01*
X0075839Y0144369D02*
X0108024Y0144369D01*
X0111371Y0146312D02*
X0111430Y0146252D01*
X0106312Y0138871D02*
X0106312Y0133871D01*
X0103359Y0133356D02*
X0082326Y0133356D01*
X0083445Y0134929D02*
X0103359Y0134929D01*
X0103359Y0136503D02*
X0083445Y0136503D01*
X0083445Y0138076D02*
X0103359Y0138076D01*
X0103359Y0139649D02*
X0082062Y0139649D01*
X0075839Y0141223D02*
X0103359Y0141223D01*
X0111430Y0133871D02*
X0111430Y0128871D01*
X0106312Y0128871D02*
X0106312Y0123871D01*
X0108871Y0121053D02*
X0109166Y0120758D01*
X0108871Y0120758D01*
X0108576Y0120758D01*
X0108871Y0121053D01*
X0109154Y0120769D02*
X0108587Y0120769D01*
X0108871Y0119196D02*
X0108871Y0119196D01*
X0108871Y0117623D02*
X0108871Y0117623D01*
X0108871Y0116471D02*
X0105171Y0116471D01*
X0105171Y0116471D01*
X0108870Y0116471D01*
X0108871Y0116470D02*
X0108871Y0116470D01*
X0108871Y0112183D01*
X0108871Y0116470D01*
X0108871Y0116050D02*
X0108871Y0116050D01*
X0108871Y0114476D02*
X0108871Y0114476D01*
X0108871Y0112903D02*
X0108871Y0112903D01*
X0108871Y0111371D02*
X0108871Y0106271D01*
X0108812Y0106212D01*
X0108812Y0098871D01*
X0108812Y0098870D02*
X0108812Y0095312D01*
X0110425Y0095312D01*
X0110879Y0095433D01*
X0111287Y0095669D01*
X0111521Y0095903D01*
X0111567Y0095856D01*
X0111567Y0091233D01*
X0106544Y0091233D01*
X0107055Y0091743D01*
X0107627Y0093123D01*
X0107627Y0094618D01*
X0107339Y0095312D01*
X0108811Y0095312D01*
X0108811Y0098870D01*
X0108812Y0098870D01*
X0108811Y0098743D02*
X0108812Y0098743D01*
X0108811Y0097170D02*
X0108812Y0097170D01*
X0108811Y0095596D02*
X0108812Y0095596D01*
X0107627Y0094023D02*
X0111567Y0094023D01*
X0111567Y0092450D02*
X0107347Y0092450D01*
X0111162Y0095596D02*
X0111567Y0095596D01*
X0116882Y0097170D02*
X0116902Y0097170D01*
X0116882Y0098743D02*
X0116902Y0098743D01*
X0116882Y0100316D02*
X0116902Y0100316D01*
X0116902Y0101890D02*
X0116287Y0101890D01*
X0116902Y0103463D02*
X0115245Y0103463D01*
X0115245Y0105036D02*
X0116902Y0105036D01*
X0123871Y0106610D02*
X0123871Y0106610D01*
X0123871Y0108183D02*
X0123871Y0108183D01*
X0123871Y0109756D02*
X0123871Y0109756D01*
X0125818Y0110345D02*
X0125818Y0110345D01*
X0123871Y0112903D02*
X0123871Y0112903D01*
X0123871Y0114476D02*
X0123871Y0114476D01*
X0127571Y0116471D02*
X0127571Y0122730D01*
X0126430Y0123871D01*
X0126430Y0128871D02*
X0126430Y0133871D01*
X0126430Y0146252D02*
X0126371Y0146312D01*
X0129368Y0153809D02*
X0138373Y0153809D01*
X0144368Y0153809D02*
X0146902Y0153809D01*
X0146902Y0155382D02*
X0102764Y0155382D01*
X0104643Y0156956D02*
X0146902Y0156956D01*
X0145950Y0158529D02*
X0105127Y0158529D01*
X0099977Y0155382D02*
X0086757Y0155382D01*
X0087664Y0156956D02*
X0098098Y0156956D01*
X0097615Y0158529D02*
X0087764Y0158529D01*
X0088949Y0160102D02*
X0097815Y0160102D01*
X0098864Y0161676D02*
X0090523Y0161676D01*
X0088101Y0164822D02*
X0087606Y0164822D01*
X0086528Y0163249D02*
X0086033Y0163249D01*
X0084955Y0161676D02*
X0084817Y0161676D01*
X0089179Y0166396D02*
X0089675Y0166396D01*
X0090753Y0167969D02*
X0091248Y0167969D01*
X0092326Y0169542D02*
X0092821Y0169542D01*
X0093899Y0171116D02*
X0094395Y0171116D01*
X0095473Y0172689D02*
X0095968Y0172689D01*
X0097046Y0174262D02*
X0097541Y0174262D01*
X0098619Y0175835D02*
X0099115Y0175835D01*
X0100193Y0177409D02*
X0100688Y0177409D01*
X0140221Y0194715D02*
X0142746Y0194715D01*
X0141945Y0193142D02*
X0140991Y0193142D01*
X0141158Y0191569D02*
X0141796Y0191569D01*
X0141796Y0189995D02*
X0141158Y0189995D01*
X0174159Y0153809D02*
X0184082Y0153809D01*
X0184061Y0155382D02*
X0184062Y0155382D01*
X0183196Y0152236D02*
X0175045Y0152236D01*
X0170521Y0148921D02*
X0187721Y0148921D01*
X0187721Y0151421D02*
X0189180Y0152880D01*
X0201621Y0150180D02*
X0206621Y0150180D01*
X0211621Y0152562D02*
X0211621Y0145180D01*
X0206621Y0132562D02*
X0201621Y0132562D01*
X0198274Y0131783D02*
X0193184Y0131783D01*
X0193195Y0133356D02*
X0193949Y0133356D01*
X0193524Y0134929D02*
X0192575Y0134929D01*
X0189121Y0132621D02*
X0189121Y0126621D01*
X0188871Y0126371D01*
X0187886Y0126371D01*
X0192472Y0130209D02*
X0198596Y0130209D01*
X0183871Y0121371D02*
X0199619Y0105623D01*
X0205898Y0105623D01*
X0200923Y0109756D02*
X0198826Y0109756D01*
X0200161Y0101890D02*
X0181588Y0101890D01*
X0182095Y0100316D02*
X0201931Y0100316D01*
X0199248Y0098743D02*
X0182095Y0098743D01*
X0182095Y0097170D02*
X0198367Y0097170D01*
X0178930Y0097170D02*
X0178930Y0097170D01*
X0178930Y0098743D02*
X0178930Y0098743D01*
X0178930Y0100316D02*
X0178930Y0100316D01*
X0178930Y0101890D02*
X0178930Y0101890D01*
X0166627Y0112903D02*
X0159692Y0112903D01*
X0160108Y0114476D02*
X0166627Y0114476D01*
X0166627Y0116050D02*
X0160108Y0116050D01*
X0160108Y0117623D02*
X0166627Y0117623D01*
X0166627Y0119196D02*
X0160108Y0119196D01*
X0159795Y0120769D02*
X0166627Y0120769D01*
X0166627Y0122343D02*
X0159795Y0122343D01*
X0159795Y0123916D02*
X0166627Y0123916D01*
X0166041Y0125489D02*
X0159245Y0125489D01*
X0159245Y0127063D02*
X0165627Y0127063D01*
X0165962Y0128636D02*
X0159245Y0128636D01*
X0159245Y0130209D02*
X0166627Y0130209D01*
X0166627Y0131783D02*
X0159245Y0131783D01*
X0159245Y0133356D02*
X0166627Y0133356D01*
X0160896Y0136503D02*
X0159245Y0136503D01*
X0159245Y0136447D02*
X0159245Y0141295D01*
X0158595Y0141944D01*
X0158595Y0143359D01*
X0158657Y0143359D01*
X0159579Y0144281D01*
X0159579Y0148342D01*
X0159050Y0148871D01*
X0159247Y0149067D01*
X0165996Y0149067D01*
X0165996Y0147516D02*
X0159579Y0147516D01*
X0159579Y0145943D02*
X0165996Y0145943D01*
X0165996Y0144369D02*
X0159579Y0144369D01*
X0158595Y0142796D02*
X0165996Y0142796D01*
X0166817Y0141223D02*
X0159245Y0141223D01*
X0159245Y0139649D02*
X0160902Y0139649D01*
X0160896Y0138076D02*
X0159245Y0138076D01*
X0159245Y0136447D02*
X0159169Y0136371D01*
X0159245Y0136295D01*
X0156292Y0133871D02*
X0156292Y0128871D01*
X0151174Y0128871D02*
X0151174Y0123871D01*
X0153449Y0120769D02*
X0154016Y0120769D01*
X0153733Y0119196D02*
X0153733Y0119196D01*
X0153733Y0117623D02*
X0153733Y0117623D01*
X0153733Y0116050D02*
X0153733Y0116050D01*
X0153733Y0114476D02*
X0153733Y0114476D01*
X0153733Y0112903D02*
X0153733Y0112903D01*
X0155680Y0110345D02*
X0155680Y0110345D01*
X0153733Y0109756D02*
X0153733Y0109756D01*
X0153733Y0108183D02*
X0153733Y0108183D01*
X0153733Y0106610D02*
X0153733Y0106610D01*
X0157571Y0100230D02*
X0158930Y0098871D01*
X0157433Y0116471D02*
X0157433Y0123871D01*
X0156292Y0123871D01*
X0151174Y0133871D02*
X0151174Y0138871D01*
X0156233Y0138871D02*
X0156233Y0146312D01*
X0156292Y0138871D02*
X0156233Y0138871D01*
X0141430Y0133871D02*
X0141430Y0128871D01*
X0141430Y0123871D02*
X0142571Y0122730D01*
X0142571Y0116471D01*
X0127571Y0106271D02*
X0127571Y0100230D01*
X0128930Y0098871D01*
X0128871Y0098812D01*
X0128871Y0091371D02*
X0126371Y0088871D01*
X0116371Y0088871D01*
X0101371Y0088871D01*
X0098871Y0088871D01*
X0096671Y0087730D02*
X0071564Y0087730D01*
X0071564Y0089303D02*
X0095097Y0089303D01*
X0093524Y0090877D02*
X0071564Y0090877D01*
X0071564Y0092450D02*
X0091951Y0092450D01*
X0090377Y0094023D02*
X0071564Y0094023D01*
X0071564Y0095596D02*
X0090249Y0095596D01*
X0090249Y0097170D02*
X0071564Y0097170D01*
X0071564Y0098743D02*
X0090249Y0098743D01*
X0090249Y0100316D02*
X0071564Y0100316D01*
X0071564Y0101890D02*
X0090249Y0101890D01*
X0090249Y0103463D02*
X0071564Y0103463D01*
X0071564Y0105036D02*
X0090249Y0105036D01*
X0090249Y0106610D02*
X0071564Y0106610D01*
X0071564Y0108183D02*
X0088464Y0108183D01*
X0087187Y0109756D02*
X0071564Y0109756D01*
X0080012Y0095662D02*
X0081587Y0094087D01*
X0071564Y0086157D02*
X0101737Y0086157D01*
X0099924Y0084583D02*
X0071564Y0084583D01*
X0071564Y0083010D02*
X0099207Y0083010D01*
X0099083Y0081437D02*
X0071564Y0081437D01*
X0071564Y0079863D02*
X0099083Y0079863D01*
X0099083Y0078290D02*
X0071564Y0078290D01*
X0071564Y0076717D02*
X0099083Y0076717D01*
X0099139Y0075143D02*
X0071564Y0075143D01*
X0071564Y0073570D02*
X0099670Y0073570D01*
X0126466Y0071997D02*
X0131275Y0071997D01*
X0129872Y0073570D02*
X0127869Y0073570D01*
X0128445Y0075143D02*
X0129296Y0075143D01*
X0129296Y0076717D02*
X0128445Y0076717D01*
X0128445Y0078290D02*
X0129296Y0078290D01*
X0129296Y0079863D02*
X0128445Y0079863D01*
X0128445Y0081437D02*
X0129296Y0081437D01*
X0129391Y0083010D02*
X0128350Y0083010D01*
X0127628Y0084583D02*
X0130113Y0084583D01*
X0129171Y0087730D02*
X0128571Y0087730D01*
X0137628Y0084583D02*
X0140113Y0084583D01*
X0139391Y0083010D02*
X0138350Y0083010D01*
X0138445Y0081437D02*
X0139296Y0081437D01*
X0139296Y0079863D02*
X0138445Y0079863D01*
X0138445Y0078290D02*
X0139296Y0078290D01*
X0139296Y0076717D02*
X0138445Y0076717D01*
X0138445Y0075143D02*
X0139296Y0075143D01*
X0139872Y0073570D02*
X0137869Y0073570D01*
X0136466Y0071997D02*
X0141275Y0071997D01*
X0108871Y0106610D02*
X0108871Y0106610D01*
X0108871Y0108183D02*
X0108871Y0108183D01*
X0108871Y0109756D02*
X0108871Y0109756D01*
X0110818Y0110345D02*
X0110818Y0110345D01*
X0112571Y0116471D02*
X0112571Y0122730D01*
X0111430Y0123871D01*
X0105171Y0116470D02*
X0105171Y0112183D01*
X0105171Y0116470D01*
X0105171Y0116470D01*
X0105171Y0116050D02*
X0105171Y0116050D01*
X0105171Y0114476D02*
X0105171Y0114476D01*
X0105171Y0112903D02*
X0105171Y0112903D01*
X0103359Y0130209D02*
X0102843Y0130209D01*
X0103359Y0131783D02*
X0078172Y0131783D01*
X0079745Y0130209D02*
X0098323Y0130209D01*
X0180121Y0125121D02*
X0183871Y0121371D01*
X0181621Y0131121D02*
X0181621Y0132621D01*
X0181621Y0142621D01*
X0188871Y0176371D02*
X0186371Y0178871D01*
X0185945Y0189995D02*
X0216020Y0189995D01*
X0216020Y0191569D02*
X0185945Y0191569D01*
X0185796Y0193142D02*
X0216020Y0193142D01*
X0216020Y0194715D02*
X0184996Y0194715D01*
D11*
X0187721Y0151421D03*
X0187721Y0148921D03*
X0187721Y0146321D03*
X0187721Y0143821D03*
X0170521Y0143821D03*
X0170521Y0146321D03*
X0170521Y0148921D03*
X0170521Y0151421D03*
D12*
X0171371Y0185871D02*
X0171371Y0191871D01*
X0181371Y0191871D02*
X0181371Y0185871D01*
X0156371Y0185871D02*
X0156371Y0191871D01*
X0146371Y0191871D02*
X0146371Y0185871D01*
X0136371Y0185871D02*
X0136371Y0191871D01*
X0121371Y0191871D02*
X0121371Y0185871D01*
X0111371Y0185871D02*
X0111371Y0191871D01*
X0101371Y0191871D02*
X0101371Y0185871D01*
X0091371Y0185871D02*
X0091371Y0191871D01*
X0081371Y0191871D02*
X0081371Y0185871D01*
X0103871Y0081871D02*
X0103871Y0075871D01*
X0113871Y0075871D02*
X0113871Y0081871D01*
X0123871Y0081871D02*
X0123871Y0075871D01*
X0133871Y0075871D02*
X0133871Y0081871D01*
X0143871Y0081871D02*
X0143871Y0075871D01*
X0171371Y0075871D02*
X0171371Y0081871D01*
X0181371Y0081871D02*
X0181371Y0075871D01*
X0202898Y0095623D02*
X0208898Y0095623D01*
X0208898Y0105623D02*
X0202898Y0105623D01*
X0202898Y0115623D02*
X0208898Y0115623D01*
D13*
X0178930Y0098871D03*
X0178930Y0093871D03*
X0173812Y0093871D03*
X0173812Y0098871D03*
X0173812Y0088871D03*
X0178930Y0088871D03*
X0158930Y0098871D03*
X0153812Y0098871D03*
X0143930Y0098871D03*
X0138812Y0098871D03*
X0128930Y0098871D03*
X0123812Y0098871D03*
X0113930Y0098871D03*
X0108812Y0098871D03*
X0106312Y0123871D03*
X0111430Y0123871D03*
X0111430Y0128871D03*
X0111430Y0133871D03*
X0111430Y0138871D03*
X0106312Y0138871D03*
X0106312Y0133871D03*
X0106312Y0128871D03*
X0121312Y0128871D03*
X0121312Y0133871D03*
X0121312Y0138871D03*
X0126430Y0138871D03*
X0126430Y0133871D03*
X0126430Y0128871D03*
X0126430Y0123871D03*
X0121312Y0123871D03*
X0136312Y0123871D03*
X0141430Y0123871D03*
X0141430Y0128871D03*
X0141430Y0133871D03*
X0141430Y0138871D03*
X0136312Y0138871D03*
X0136312Y0133871D03*
X0136312Y0128871D03*
X0151174Y0128871D03*
X0151174Y0133871D03*
X0151174Y0138871D03*
X0156292Y0138871D03*
X0156292Y0133871D03*
X0156292Y0128871D03*
X0156292Y0123871D03*
X0151174Y0123871D03*
X0164062Y0137621D03*
X0169180Y0137621D03*
X0184062Y0157621D03*
X0189180Y0157621D03*
X0178930Y0168871D03*
X0178930Y0173871D03*
X0178930Y0178871D03*
X0173812Y0178871D03*
X0173812Y0173871D03*
X0173812Y0168871D03*
D14*
X0156233Y0151430D03*
X0156233Y0146312D03*
X0141371Y0146312D03*
X0141371Y0151430D03*
X0126371Y0151430D03*
X0126371Y0146312D03*
X0111371Y0146312D03*
X0111371Y0151430D03*
X0196621Y0150062D03*
X0201621Y0150180D03*
X0206621Y0150180D03*
X0206621Y0145062D03*
X0201621Y0145062D03*
X0196871Y0140930D03*
X0196871Y0135812D03*
X0201621Y0137680D03*
X0206621Y0137680D03*
X0206621Y0132562D03*
X0201621Y0132562D03*
X0211621Y0140062D03*
X0211621Y0145180D03*
X0211621Y0152562D03*
X0211621Y0157680D03*
X0206621Y0157562D03*
X0201621Y0157562D03*
X0201621Y0162680D03*
X0206621Y0162680D03*
X0196621Y0155180D03*
D15*
X0157433Y0116471D03*
X0153733Y0116471D03*
X0150033Y0116471D03*
X0142571Y0116471D03*
X0138871Y0116471D03*
X0135171Y0116471D03*
X0127571Y0116471D03*
X0123871Y0116471D03*
X0120171Y0116471D03*
X0112571Y0116471D03*
X0108871Y0116471D03*
X0105171Y0116471D03*
X0105171Y0106271D03*
X0108871Y0106271D03*
X0112571Y0106271D03*
X0120171Y0106271D03*
X0123871Y0106271D03*
X0127571Y0106271D03*
X0135171Y0106271D03*
X0138871Y0106271D03*
X0142571Y0106271D03*
X0150033Y0106271D03*
X0153733Y0106271D03*
X0157433Y0106271D03*
D16*
X0176371Y0106371D03*
X0176621Y0117621D03*
X0189121Y0132621D03*
X0148871Y0161371D03*
X0188871Y0176371D03*
D17*
X0078871Y0151371D03*
X0078871Y0136371D03*
X0078871Y0116371D03*
D18*
X0090583Y0111371D03*
X0100583Y0127158D03*
X0101371Y0158871D03*
X0084008Y0157945D03*
X0119382Y0157867D03*
X0161115Y0127158D03*
X0148871Y0093871D03*
X0133871Y0093871D03*
X0118871Y0093871D03*
X0103871Y0093871D03*
D19*
X0131193Y0120071D03*
X0121745Y0143693D03*
X0107571Y0157867D03*
X0095760Y0160229D03*
X0087886Y0154875D03*
X0090249Y0147630D03*
X0079225Y0143693D03*
X0086312Y0135032D03*
X0100485Y0132670D03*
X0152453Y0172827D03*
X0168989Y0127158D03*
D20*
X0150033Y0106271D02*
X0150033Y0095033D01*
X0148871Y0093871D01*
X0135171Y0095171D02*
X0135171Y0106271D01*
X0135171Y0095171D02*
X0133871Y0093871D01*
X0118871Y0093871D02*
X0118871Y0104971D01*
X0120171Y0106271D01*
X0105171Y0106271D02*
X0103871Y0104971D01*
X0103871Y0093871D01*
X0100583Y0127158D02*
X0080012Y0127158D01*
X0073871Y0133300D01*
X0073871Y0143871D01*
X0073871Y0153871D01*
X0078871Y0158871D01*
X0101371Y0181371D01*
X0101371Y0182276D01*
X0101371Y0188871D01*
X0111371Y0188871D02*
X0111371Y0186213D01*
X0111371Y0185308D01*
X0084008Y0157945D01*
X0101371Y0158871D02*
X0121371Y0178871D01*
X0121371Y0188871D01*
X0148871Y0161371D02*
X0148871Y0151863D01*
X0149304Y0151430D01*
M02*
