%
M48
M72
T01C0.01575
T02C0.02362
T03C0.04000
%
T01
X131193Y120071
X121745Y143693
X107571Y157867
X95760Y160229
X87886Y154875
X90249Y147630
X79225Y143693
X86312Y135032
X100485Y132670
X152453Y172827
X168989Y127158
T02
X161115Y127158
X148871Y93871
X133871Y93871
X118871Y93871
X103871Y93871
X90583Y111371
X100583Y127158
X101371Y158871
X84008Y157945
X119382Y157867
T03
X103871Y78871
X113871Y78871
X123871Y78871
X133871Y78871
X143871Y78871
X171371Y78871
X181371Y78871
X205898Y95623
X205898Y105623
X205898Y115623
X181371Y188871
X171371Y188871
X156371Y188871
X146371Y188871
X136371Y188871
X121371Y188871
X111371Y188871
X101371Y188871
X91371Y188871
X81371Y188871
X78871Y151371
X78871Y136371
X78871Y116371
M30
