G75*
%MOIN*%
%OFA0B0*%
%FSLAX25Y25*%
%IPPOS*%
%LPD*%
%AMOC8*
5,1,8,0,0,1.08239X$1,22.5*
%
%ADD10R,0.06884X0.02684*%
%ADD11C,0.06984*%
%ADD12R,0.03740X0.04528*%
%ADD13R,0.04528X0.03740*%
%ADD14R,0.03184X0.05984*%
%ADD15C,0.05984*%
%ADD16OC8,0.06984*%
%ADD17C,0.05346*%
%ADD18C,0.04559*%
D10*
X0170521Y0143821D03*
X0170521Y0146321D03*
X0170521Y0148921D03*
X0170521Y0151421D03*
X0187721Y0151421D03*
X0187721Y0148921D03*
X0187721Y0146321D03*
X0187721Y0143821D03*
D11*
X0103871Y0081871D02*
X0103871Y0075871D01*
X0113871Y0075871D02*
X0113871Y0081871D01*
X0123871Y0081871D02*
X0123871Y0075871D01*
X0133871Y0075871D02*
X0133871Y0081871D01*
X0143871Y0081871D02*
X0143871Y0075871D01*
X0171371Y0075871D02*
X0171371Y0081871D01*
X0181371Y0081871D02*
X0181371Y0075871D01*
X0202898Y0095623D02*
X0208898Y0095623D01*
X0208898Y0105623D02*
X0202898Y0105623D01*
X0202898Y0115623D02*
X0208898Y0115623D01*
X0181371Y0185871D02*
X0181371Y0191871D01*
X0171371Y0191871D02*
X0171371Y0185871D01*
X0156371Y0185871D02*
X0156371Y0191871D01*
X0146371Y0191871D02*
X0146371Y0185871D01*
X0136371Y0185871D02*
X0136371Y0191871D01*
X0121371Y0191871D02*
X0121371Y0185871D01*
X0111371Y0185871D02*
X0111371Y0191871D01*
X0101371Y0191871D02*
X0101371Y0185871D01*
X0091371Y0185871D02*
X0091371Y0191871D01*
X0081371Y0191871D02*
X0081371Y0185871D01*
D12*
X0106312Y0138871D03*
X0106312Y0133871D03*
X0106312Y0128871D03*
X0111430Y0128871D03*
X0111430Y0133871D03*
X0111430Y0138871D03*
X0121312Y0138871D03*
X0121312Y0133871D03*
X0121312Y0128871D03*
X0126430Y0128871D03*
X0126430Y0133871D03*
X0126430Y0138871D03*
X0136312Y0138871D03*
X0136312Y0133871D03*
X0136312Y0128871D03*
X0141430Y0128871D03*
X0141430Y0133871D03*
X0141430Y0138871D03*
X0151174Y0138871D03*
X0151174Y0133871D03*
X0151174Y0128871D03*
X0156292Y0128871D03*
X0156292Y0133871D03*
X0156292Y0138871D03*
X0164062Y0137621D03*
X0169180Y0137621D03*
X0156292Y0123871D03*
X0151174Y0123871D03*
X0141430Y0123871D03*
X0136312Y0123871D03*
X0126430Y0123871D03*
X0121312Y0123871D03*
X0111430Y0123871D03*
X0106312Y0123871D03*
X0108812Y0098871D03*
X0113930Y0098871D03*
X0123812Y0098871D03*
X0128930Y0098871D03*
X0138812Y0098871D03*
X0143930Y0098871D03*
X0153812Y0098871D03*
X0158930Y0098871D03*
X0173812Y0098871D03*
X0173812Y0093871D03*
X0178930Y0093871D03*
X0178930Y0098871D03*
X0178930Y0088871D03*
X0173812Y0088871D03*
X0184062Y0157621D03*
X0189180Y0157621D03*
X0178930Y0168871D03*
X0178930Y0173871D03*
X0178930Y0178871D03*
X0173812Y0178871D03*
X0173812Y0173871D03*
X0173812Y0168871D03*
D13*
X0156233Y0151430D03*
X0156233Y0146312D03*
X0141371Y0146312D03*
X0141371Y0151430D03*
X0126371Y0151430D03*
X0126371Y0146312D03*
X0111371Y0146312D03*
X0111371Y0151430D03*
X0196621Y0150062D03*
X0201621Y0150180D03*
X0206621Y0150180D03*
X0206621Y0145062D03*
X0201621Y0145062D03*
X0196871Y0140930D03*
X0196871Y0135812D03*
X0201621Y0137680D03*
X0206621Y0137680D03*
X0206621Y0132562D03*
X0201621Y0132562D03*
X0211621Y0140062D03*
X0211621Y0145180D03*
X0211621Y0152562D03*
X0211621Y0157680D03*
X0206621Y0157562D03*
X0201621Y0157562D03*
X0201621Y0162680D03*
X0206621Y0162680D03*
X0196621Y0155180D03*
D14*
X0157433Y0116471D03*
X0153733Y0116471D03*
X0150033Y0116471D03*
X0142571Y0116471D03*
X0138871Y0116471D03*
X0135171Y0116471D03*
X0127571Y0116471D03*
X0123871Y0116471D03*
X0120171Y0116471D03*
X0112571Y0116471D03*
X0108871Y0116471D03*
X0105171Y0116471D03*
X0105171Y0106271D03*
X0108871Y0106271D03*
X0112571Y0106271D03*
X0120171Y0106271D03*
X0123871Y0106271D03*
X0127571Y0106271D03*
X0135171Y0106271D03*
X0138871Y0106271D03*
X0142571Y0106271D03*
X0150033Y0106271D03*
X0153733Y0106271D03*
X0157433Y0106271D03*
D15*
X0176371Y0106371D03*
X0176621Y0117621D03*
X0189121Y0132621D03*
X0148871Y0161371D03*
X0188871Y0176371D03*
D16*
X0078871Y0151371D03*
X0078871Y0136371D03*
X0078871Y0116371D03*
D17*
X0090583Y0111371D03*
X0100583Y0127158D03*
X0101371Y0158871D03*
X0084008Y0157945D03*
X0119382Y0157867D03*
X0161115Y0127158D03*
X0148871Y0093871D03*
X0133871Y0093871D03*
X0118871Y0093871D03*
X0103871Y0093871D03*
D18*
X0131193Y0120071D03*
X0121745Y0143693D03*
X0107571Y0157867D03*
X0095760Y0160229D03*
X0087886Y0154875D03*
X0090249Y0147630D03*
X0079225Y0143693D03*
X0086312Y0135032D03*
X0100485Y0132670D03*
X0152453Y0172827D03*
X0168989Y0127158D03*
M02*
