G75*
%MOIN*%
%OFA0B0*%
%FSLAX25Y25*%
%IPPOS*%
%LPD*%
%AMOC8*
5,1,8,0,0,1.08239X$1,22.5*
%
%ADD10C,0.06984*%
%ADD11R,0.06496X0.06496*%
%ADD12OC8,0.06984*%
%ADD13R,0.02684X0.06884*%
%ADD14R,0.03740X0.04528*%
%ADD15R,0.04528X0.03740*%
%ADD16R,0.05984X0.03184*%
%ADD17C,0.05346*%
%ADD18C,0.04559*%
D10*
X0103871Y0075871D02*
X0103871Y0081871D01*
X0113871Y0081871D02*
X0113871Y0075871D01*
X0123871Y0075871D02*
X0123871Y0081871D01*
X0133871Y0081871D02*
X0133871Y0075871D01*
X0143871Y0075871D02*
X0143871Y0081871D01*
X0171371Y0081871D02*
X0171371Y0075871D01*
X0181371Y0075871D02*
X0181371Y0081871D01*
X0202898Y0095623D02*
X0208898Y0095623D01*
X0208898Y0105623D02*
X0202898Y0105623D01*
X0202898Y0115623D02*
X0208898Y0115623D01*
X0181371Y0185871D02*
X0181371Y0191871D01*
X0171371Y0191871D02*
X0171371Y0185871D01*
X0156371Y0185871D02*
X0156371Y0191871D01*
X0146371Y0191871D02*
X0146371Y0185871D01*
X0136371Y0185871D02*
X0136371Y0191871D01*
X0121371Y0191871D02*
X0121371Y0185871D01*
X0111371Y0185871D02*
X0111371Y0191871D01*
X0101371Y0191871D02*
X0101371Y0185871D01*
X0091371Y0185871D02*
X0091371Y0191871D01*
X0081371Y0191871D02*
X0081371Y0185871D01*
D11*
X0168890Y0178871D03*
X0183851Y0178871D03*
X0183851Y0088871D03*
X0168890Y0088871D03*
D12*
X0078871Y0116371D03*
X0078871Y0136371D03*
X0078871Y0151371D03*
D13*
X0172571Y0144971D03*
X0175071Y0144971D03*
X0177671Y0144971D03*
X0180171Y0144971D03*
X0180171Y0127771D03*
X0177671Y0127771D03*
X0175071Y0127771D03*
X0172571Y0127771D03*
D14*
X0166174Y0132138D03*
X0161056Y0132138D03*
X0162312Y0146371D03*
X0162312Y0151371D03*
X0162312Y0156371D03*
X0162312Y0161371D03*
X0161312Y0166371D03*
X0166430Y0166371D03*
X0168812Y0171371D03*
X0173930Y0171371D03*
X0173812Y0166371D03*
X0178930Y0166371D03*
X0167430Y0161371D03*
X0167430Y0156371D03*
X0167430Y0151371D03*
X0167430Y0146371D03*
X0184812Y0151121D03*
X0189930Y0151121D03*
D15*
X0198871Y0151430D03*
X0198871Y0146312D03*
X0203871Y0146430D03*
X0203871Y0141312D03*
X0198871Y0138930D03*
X0193871Y0138930D03*
X0193871Y0133812D03*
X0198871Y0133812D03*
X0203871Y0131430D03*
X0203871Y0126312D03*
X0198871Y0126430D03*
X0198871Y0121312D03*
X0178871Y0153812D03*
X0173871Y0153812D03*
X0173871Y0158930D03*
X0178871Y0158930D03*
X0161371Y0172812D03*
X0161371Y0177930D03*
X0146371Y0166430D03*
X0141371Y0166430D03*
X0136371Y0166430D03*
X0131371Y0166430D03*
X0126371Y0166430D03*
X0126371Y0161312D03*
X0131371Y0161312D03*
X0136371Y0161312D03*
X0141371Y0161312D03*
X0146371Y0161312D03*
X0146371Y0148930D03*
X0141371Y0148930D03*
X0136371Y0148930D03*
X0131371Y0148930D03*
X0126371Y0148930D03*
X0126371Y0143812D03*
X0131371Y0143812D03*
X0136371Y0143812D03*
X0141371Y0143812D03*
X0146371Y0143812D03*
X0146371Y0131430D03*
X0141371Y0131430D03*
X0136371Y0131430D03*
X0131371Y0131430D03*
X0126371Y0131430D03*
X0126371Y0126312D03*
X0131371Y0126312D03*
X0136371Y0126312D03*
X0141371Y0126312D03*
X0146371Y0126312D03*
X0146371Y0113930D03*
X0141371Y0113930D03*
X0136371Y0113930D03*
X0131371Y0113930D03*
X0126371Y0113930D03*
X0126371Y0108812D03*
X0131371Y0108812D03*
X0136371Y0108812D03*
X0141371Y0108812D03*
X0146371Y0108812D03*
X0096371Y0148812D03*
X0096371Y0153930D03*
X0096371Y0166312D03*
X0096371Y0171430D03*
X0094796Y0136430D03*
X0094796Y0131312D03*
X0094796Y0123930D03*
X0094796Y0118812D03*
D16*
X0106271Y0117571D03*
X0106271Y0113871D03*
X0106271Y0110171D03*
X0116471Y0110171D03*
X0116471Y0113871D03*
X0116471Y0117571D03*
X0116471Y0127671D03*
X0116471Y0131371D03*
X0116471Y0135071D03*
X0106271Y0135071D03*
X0106271Y0131371D03*
X0106271Y0127671D03*
X0106271Y0145171D03*
X0106271Y0148871D03*
X0106271Y0152571D03*
X0106271Y0162671D03*
X0106271Y0166371D03*
X0106271Y0170071D03*
X0116471Y0170071D03*
X0116471Y0166371D03*
X0116471Y0162671D03*
X0116471Y0152571D03*
X0116471Y0148871D03*
X0116471Y0145171D03*
D17*
X0119382Y0157867D03*
X0101371Y0158871D03*
X0084008Y0157945D03*
X0100583Y0127158D03*
X0090583Y0111371D03*
X0103871Y0093871D03*
X0118871Y0093871D03*
X0133871Y0093871D03*
X0148871Y0093871D03*
X0161115Y0127158D03*
D18*
X0168989Y0127158D03*
X0131193Y0120071D03*
X0121745Y0143693D03*
X0107571Y0157867D03*
X0095760Y0160229D03*
X0087886Y0154875D03*
X0090249Y0147630D03*
X0079225Y0143693D03*
X0086312Y0135032D03*
X0100485Y0132670D03*
X0152453Y0172827D03*
M02*
