G75*
%MOIN*%
%OFA0B0*%
%FSLAX25Y25*%
%IPPOS*%
%LPD*%
%AMOC8*
5,1,8,0,0,1.08239X$1,22.5*
%
%ADD10C,0.00800*%
%ADD11C,0.00600*%
%ADD12C,0.01300*%
%ADD13C,0.00300*%
%ADD14C,0.00500*%
%ADD15C,0.03000*%
%ADD16R,0.03000X0.02000*%
%ADD17R,0.03000X0.04000*%
%ADD18C,0.00200*%
%ADD19C,0.00400*%
%ADD20R,0.02000X0.03000*%
%ADD21R,0.04000X0.03000*%
D10*
X0073397Y0072613D02*
X0072597Y0073414D01*
X0073397Y0072613D02*
X0074999Y0072613D01*
X0075799Y0073414D01*
X0075799Y0074214D01*
X0074999Y0075015D01*
X0073397Y0075015D01*
X0072597Y0075816D01*
X0072597Y0076617D01*
X0073397Y0077417D01*
X0074999Y0077417D01*
X0075799Y0076617D01*
X0077753Y0075816D02*
X0077753Y0073414D01*
X0078554Y0072613D01*
X0079354Y0073414D01*
X0080155Y0072613D01*
X0080956Y0073414D01*
X0080956Y0075816D01*
X0082909Y0075816D02*
X0083710Y0075816D01*
X0083710Y0072613D01*
X0082909Y0072613D02*
X0084511Y0072613D01*
X0087148Y0073414D02*
X0087148Y0076617D01*
X0086347Y0075816D02*
X0087948Y0075816D01*
X0089785Y0075015D02*
X0089785Y0073414D01*
X0090585Y0072613D01*
X0092987Y0072613D01*
X0094941Y0072613D02*
X0094941Y0077417D01*
X0095742Y0075816D02*
X0094941Y0075015D01*
X0095742Y0075816D02*
X0097343Y0075816D01*
X0098144Y0075015D01*
X0098144Y0072613D01*
X0092987Y0075816D02*
X0090585Y0075816D01*
X0089785Y0075015D01*
X0087948Y0072613D02*
X0087148Y0073414D01*
X0083710Y0077417D02*
X0083710Y0078218D01*
X0084452Y0081013D02*
X0085253Y0081814D01*
X0085253Y0083415D01*
X0084452Y0084216D01*
X0082851Y0084216D01*
X0082050Y0083415D01*
X0082050Y0081814D01*
X0082851Y0081013D01*
X0084452Y0081013D01*
X0087206Y0081814D02*
X0087206Y0083415D01*
X0088007Y0084216D01*
X0089608Y0084216D01*
X0090409Y0083415D01*
X0090409Y0081814D01*
X0089608Y0081013D01*
X0088007Y0081013D01*
X0087206Y0081814D01*
X0092363Y0081013D02*
X0094765Y0081013D01*
X0095565Y0081814D01*
X0095565Y0083415D01*
X0094765Y0084216D01*
X0092363Y0084216D01*
X0092363Y0079412D01*
X0080155Y0084216D02*
X0079354Y0084216D01*
X0077753Y0082614D01*
X0077753Y0081013D02*
X0077753Y0084216D01*
X0075799Y0085017D02*
X0074999Y0085817D01*
X0072597Y0085817D01*
X0072597Y0081013D01*
X0074999Y0081013D01*
X0075799Y0081814D01*
X0075799Y0085017D01*
X0161422Y0085168D02*
X0164625Y0085168D01*
X0166227Y0083567D01*
X0164625Y0081965D01*
X0161422Y0081965D01*
X0161422Y0080012D02*
X0161422Y0076809D01*
X0163824Y0076809D01*
X0163024Y0078410D01*
X0163024Y0079211D01*
X0163824Y0080012D01*
X0165426Y0080012D01*
X0166227Y0079211D01*
X0166227Y0077610D01*
X0165426Y0076809D01*
X0163824Y0074855D02*
X0163824Y0071652D01*
X0162223Y0073254D02*
X0165426Y0073254D01*
X0200093Y0069604D02*
X0200093Y0067202D01*
X0204897Y0067202D01*
X0204897Y0069604D01*
X0204097Y0070405D01*
X0200894Y0070405D01*
X0200093Y0069604D01*
X0201695Y0072359D02*
X0204897Y0072359D01*
X0203296Y0072359D02*
X0201695Y0073960D01*
X0201695Y0074761D01*
X0202495Y0076656D02*
X0204097Y0076656D01*
X0204897Y0077456D01*
X0204897Y0079058D01*
X0204097Y0079858D01*
X0202495Y0079858D01*
X0201695Y0079058D01*
X0201695Y0077456D01*
X0202495Y0076656D01*
X0202495Y0081812D02*
X0204097Y0081812D01*
X0204897Y0082613D01*
X0204897Y0084214D01*
X0204097Y0085015D01*
X0202495Y0085015D01*
X0201695Y0084214D01*
X0201695Y0082613D01*
X0202495Y0081812D01*
X0201695Y0086969D02*
X0201695Y0089371D01*
X0202495Y0090171D01*
X0204097Y0090171D01*
X0204897Y0089371D01*
X0204897Y0086969D01*
X0206499Y0086969D02*
X0201695Y0086969D01*
X0210095Y0079116D02*
X0210095Y0077515D01*
X0209294Y0078316D02*
X0212497Y0078316D01*
X0213297Y0079116D01*
X0213297Y0075561D02*
X0210095Y0075561D01*
X0210095Y0072359D02*
X0212497Y0072359D01*
X0213297Y0073159D01*
X0213297Y0075561D01*
X0212497Y0070405D02*
X0209294Y0070405D01*
X0208493Y0069604D01*
X0208493Y0068003D01*
X0209294Y0067202D01*
X0212497Y0067202D01*
X0213297Y0068003D01*
X0213297Y0069604D01*
X0212497Y0070405D01*
X0141933Y0166141D02*
X0141132Y0166941D01*
X0141132Y0170144D01*
X0140331Y0169343D02*
X0141933Y0169343D01*
X0138378Y0169343D02*
X0138378Y0166141D01*
X0135976Y0166141D01*
X0135175Y0166941D01*
X0135175Y0169343D01*
X0133221Y0170144D02*
X0132421Y0170945D01*
X0130819Y0170945D01*
X0130019Y0170144D01*
X0130019Y0166941D01*
X0130819Y0166141D01*
X0132421Y0166141D01*
X0133221Y0166941D01*
X0133221Y0170144D01*
X0131620Y0174541D02*
X0131620Y0179345D01*
X0130019Y0179345D02*
X0133221Y0179345D01*
X0135175Y0179345D02*
X0136776Y0179345D01*
X0135976Y0179345D02*
X0135976Y0174541D01*
X0136776Y0174541D02*
X0135175Y0174541D01*
X0138613Y0174541D02*
X0138613Y0177743D01*
X0140214Y0179345D01*
X0141815Y0177743D01*
X0141815Y0174541D01*
X0141815Y0176943D02*
X0138613Y0176943D01*
X0186619Y0186258D02*
X0189021Y0186258D01*
X0188221Y0187859D01*
X0188221Y0188660D01*
X0189021Y0189460D01*
X0190623Y0189460D01*
X0191423Y0188660D01*
X0191423Y0187058D01*
X0190623Y0186258D01*
X0189021Y0184304D02*
X0189021Y0181101D01*
X0186619Y0186258D02*
X0186619Y0189460D01*
X0186619Y0191414D02*
X0189822Y0191414D01*
X0191423Y0193015D01*
X0189822Y0194617D01*
X0186619Y0194617D01*
D11*
X0186371Y0196371D02*
X0186371Y0206371D01*
X0176371Y0206371D01*
X0166371Y0206371D01*
X0166371Y0196371D01*
X0176371Y0196371D01*
X0186371Y0196371D01*
X0176371Y0196371D02*
X0176371Y0206371D01*
X0166266Y0194640D02*
X0165131Y0194640D01*
X0164564Y0194073D01*
X0164564Y0191805D01*
X0165131Y0191238D01*
X0166266Y0191238D01*
X0166833Y0191805D01*
X0166833Y0192939D01*
X0165699Y0192939D01*
X0166833Y0194073D02*
X0166266Y0194640D01*
X0160246Y0181255D02*
X0160813Y0180687D01*
X0158545Y0178419D01*
X0159112Y0177852D01*
X0160246Y0177852D01*
X0160813Y0178419D01*
X0160813Y0180687D01*
X0160246Y0181255D02*
X0159112Y0181255D01*
X0158545Y0180687D01*
X0158545Y0178419D01*
X0157130Y0179553D02*
X0154862Y0179553D01*
X0156563Y0181255D01*
X0156563Y0177852D01*
X0153447Y0177852D02*
X0151178Y0180120D01*
X0151178Y0177852D02*
X0153447Y0180120D01*
X0150044Y0177852D02*
X0147775Y0177852D01*
X0148909Y0177852D02*
X0148909Y0181255D01*
X0147775Y0180120D01*
X0146360Y0180120D02*
X0144092Y0177852D01*
X0144092Y0180120D02*
X0146360Y0177852D01*
X0131400Y0191805D02*
X0131400Y0192939D01*
X0130266Y0192939D01*
X0131400Y0194073D02*
X0130833Y0194640D01*
X0129698Y0194640D01*
X0129131Y0194073D01*
X0129131Y0191805D01*
X0129698Y0191238D01*
X0130833Y0191238D01*
X0131400Y0191805D01*
X0121384Y0181255D02*
X0120250Y0181255D01*
X0119682Y0180687D01*
X0119682Y0178419D01*
X0121951Y0180687D01*
X0121951Y0178419D01*
X0121384Y0177852D01*
X0120250Y0177852D01*
X0119682Y0178419D01*
X0121951Y0180687D02*
X0121384Y0181255D01*
X0114043Y0180120D02*
X0112342Y0178986D01*
X0114043Y0177852D01*
X0112342Y0177852D02*
X0112342Y0181255D01*
X0109793Y0181255D02*
X0109793Y0177852D01*
X0108659Y0177852D02*
X0110927Y0177852D01*
X0108659Y0180120D02*
X0109793Y0181255D01*
X0103807Y0180120D02*
X0102106Y0178986D01*
X0103807Y0177852D01*
X0102106Y0177852D02*
X0102106Y0181255D01*
X0100691Y0181255D02*
X0098423Y0181255D01*
X0098423Y0179553D01*
X0099557Y0180120D01*
X0100124Y0180120D01*
X0100691Y0179553D01*
X0100691Y0178419D01*
X0100124Y0177852D01*
X0098990Y0177852D01*
X0098423Y0178419D01*
X0095679Y0177852D02*
X0093978Y0178986D01*
X0095679Y0180120D01*
X0093978Y0181255D02*
X0093978Y0177852D01*
X0092563Y0178419D02*
X0092563Y0180687D01*
X0090295Y0178419D01*
X0090862Y0177852D01*
X0091996Y0177852D01*
X0092563Y0178419D01*
X0090295Y0178419D02*
X0090295Y0180687D01*
X0090862Y0181255D01*
X0091996Y0181255D01*
X0092563Y0180687D01*
X0088880Y0177852D02*
X0086612Y0177852D01*
X0087746Y0177852D02*
X0087746Y0181255D01*
X0086612Y0180120D01*
X0082581Y0179553D02*
X0081447Y0179553D01*
X0082581Y0179553D02*
X0082581Y0178419D01*
X0082014Y0177852D01*
X0080879Y0177852D01*
X0080312Y0178419D01*
X0080312Y0180687D01*
X0080879Y0181255D01*
X0082014Y0181255D01*
X0082581Y0180687D01*
X0081371Y0156371D02*
X0076371Y0156371D01*
X0073871Y0153871D01*
X0073871Y0148871D01*
X0076371Y0146371D01*
X0081371Y0146371D01*
X0083871Y0148871D01*
X0083871Y0153871D01*
X0081371Y0156371D01*
X0081371Y0121371D02*
X0076371Y0121371D01*
X0073871Y0118871D01*
X0073871Y0113871D01*
X0076371Y0111371D01*
X0081371Y0111371D01*
X0083871Y0113871D01*
X0083871Y0118871D01*
X0081371Y0121371D01*
X0102971Y0113271D02*
X0102971Y0109471D01*
X0114771Y0109471D02*
X0114771Y0110171D01*
X0114771Y0112571D01*
X0114771Y0113271D01*
X0114771Y0112571D02*
X0114702Y0112569D01*
X0114634Y0112563D01*
X0114566Y0112553D01*
X0114499Y0112540D01*
X0114433Y0112522D01*
X0114368Y0112501D01*
X0114304Y0112476D01*
X0114242Y0112448D01*
X0114181Y0112416D01*
X0114122Y0112381D01*
X0114066Y0112342D01*
X0114011Y0112300D01*
X0113960Y0112255D01*
X0113910Y0112207D01*
X0113864Y0112157D01*
X0113821Y0112104D01*
X0113780Y0112048D01*
X0113743Y0111991D01*
X0113710Y0111931D01*
X0113679Y0111869D01*
X0113653Y0111806D01*
X0113630Y0111742D01*
X0113610Y0111676D01*
X0113595Y0111609D01*
X0113583Y0111542D01*
X0113575Y0111474D01*
X0113571Y0111405D01*
X0113571Y0111337D01*
X0113575Y0111268D01*
X0113583Y0111200D01*
X0113595Y0111133D01*
X0113610Y0111066D01*
X0113630Y0111000D01*
X0113653Y0110936D01*
X0113679Y0110873D01*
X0113710Y0110811D01*
X0113743Y0110751D01*
X0113780Y0110694D01*
X0113821Y0110638D01*
X0113864Y0110585D01*
X0113910Y0110535D01*
X0113960Y0110487D01*
X0114011Y0110442D01*
X0114066Y0110400D01*
X0114122Y0110361D01*
X0114181Y0110326D01*
X0114242Y0110294D01*
X0114304Y0110266D01*
X0114368Y0110241D01*
X0114433Y0110220D01*
X0114499Y0110202D01*
X0114566Y0110189D01*
X0114634Y0110179D01*
X0114702Y0110173D01*
X0114771Y0110171D01*
X0117971Y0109471D02*
X0117971Y0113271D01*
X0129771Y0113271D02*
X0129771Y0112571D01*
X0129771Y0110171D01*
X0129771Y0109471D01*
X0129771Y0110171D02*
X0129702Y0110173D01*
X0129634Y0110179D01*
X0129566Y0110189D01*
X0129499Y0110202D01*
X0129433Y0110220D01*
X0129368Y0110241D01*
X0129304Y0110266D01*
X0129242Y0110294D01*
X0129181Y0110326D01*
X0129122Y0110361D01*
X0129066Y0110400D01*
X0129011Y0110442D01*
X0128960Y0110487D01*
X0128910Y0110535D01*
X0128864Y0110585D01*
X0128821Y0110638D01*
X0128780Y0110694D01*
X0128743Y0110751D01*
X0128710Y0110811D01*
X0128679Y0110873D01*
X0128653Y0110936D01*
X0128630Y0111000D01*
X0128610Y0111066D01*
X0128595Y0111133D01*
X0128583Y0111200D01*
X0128575Y0111268D01*
X0128571Y0111337D01*
X0128571Y0111405D01*
X0128575Y0111474D01*
X0128583Y0111542D01*
X0128595Y0111609D01*
X0128610Y0111676D01*
X0128630Y0111742D01*
X0128653Y0111806D01*
X0128679Y0111869D01*
X0128710Y0111931D01*
X0128743Y0111991D01*
X0128780Y0112048D01*
X0128821Y0112104D01*
X0128864Y0112157D01*
X0128910Y0112207D01*
X0128960Y0112255D01*
X0129011Y0112300D01*
X0129066Y0112342D01*
X0129122Y0112381D01*
X0129181Y0112416D01*
X0129242Y0112448D01*
X0129304Y0112476D01*
X0129368Y0112501D01*
X0129433Y0112522D01*
X0129499Y0112540D01*
X0129566Y0112553D01*
X0129634Y0112563D01*
X0129702Y0112569D01*
X0129771Y0112571D01*
X0132971Y0113271D02*
X0132971Y0109471D01*
X0144771Y0109471D02*
X0144771Y0110171D01*
X0144771Y0112571D01*
X0144771Y0113271D01*
X0144771Y0112571D02*
X0144702Y0112569D01*
X0144634Y0112563D01*
X0144566Y0112553D01*
X0144499Y0112540D01*
X0144433Y0112522D01*
X0144368Y0112501D01*
X0144304Y0112476D01*
X0144242Y0112448D01*
X0144181Y0112416D01*
X0144122Y0112381D01*
X0144066Y0112342D01*
X0144011Y0112300D01*
X0143960Y0112255D01*
X0143910Y0112207D01*
X0143864Y0112157D01*
X0143821Y0112104D01*
X0143780Y0112048D01*
X0143743Y0111991D01*
X0143710Y0111931D01*
X0143679Y0111869D01*
X0143653Y0111806D01*
X0143630Y0111742D01*
X0143610Y0111676D01*
X0143595Y0111609D01*
X0143583Y0111542D01*
X0143575Y0111474D01*
X0143571Y0111405D01*
X0143571Y0111337D01*
X0143575Y0111268D01*
X0143583Y0111200D01*
X0143595Y0111133D01*
X0143610Y0111066D01*
X0143630Y0111000D01*
X0143653Y0110936D01*
X0143679Y0110873D01*
X0143710Y0110811D01*
X0143743Y0110751D01*
X0143780Y0110694D01*
X0143821Y0110638D01*
X0143864Y0110585D01*
X0143910Y0110535D01*
X0143960Y0110487D01*
X0144011Y0110442D01*
X0144066Y0110400D01*
X0144122Y0110361D01*
X0144181Y0110326D01*
X0144242Y0110294D01*
X0144304Y0110266D01*
X0144368Y0110241D01*
X0144433Y0110220D01*
X0144499Y0110202D01*
X0144566Y0110189D01*
X0144634Y0110179D01*
X0144702Y0110173D01*
X0144771Y0110171D01*
X0147833Y0109471D02*
X0147833Y0113271D01*
X0159633Y0113271D02*
X0159633Y0112571D01*
X0159633Y0110171D01*
X0159633Y0109471D01*
X0159633Y0110171D02*
X0159564Y0110173D01*
X0159496Y0110179D01*
X0159428Y0110189D01*
X0159361Y0110202D01*
X0159295Y0110220D01*
X0159230Y0110241D01*
X0159166Y0110266D01*
X0159104Y0110294D01*
X0159043Y0110326D01*
X0158984Y0110361D01*
X0158928Y0110400D01*
X0158873Y0110442D01*
X0158822Y0110487D01*
X0158772Y0110535D01*
X0158726Y0110585D01*
X0158683Y0110638D01*
X0158642Y0110694D01*
X0158605Y0110751D01*
X0158572Y0110811D01*
X0158541Y0110873D01*
X0158515Y0110936D01*
X0158492Y0111000D01*
X0158472Y0111066D01*
X0158457Y0111133D01*
X0158445Y0111200D01*
X0158437Y0111268D01*
X0158433Y0111337D01*
X0158433Y0111405D01*
X0158437Y0111474D01*
X0158445Y0111542D01*
X0158457Y0111609D01*
X0158472Y0111676D01*
X0158492Y0111742D01*
X0158515Y0111806D01*
X0158541Y0111869D01*
X0158572Y0111931D01*
X0158605Y0111991D01*
X0158642Y0112048D01*
X0158683Y0112104D01*
X0158726Y0112157D01*
X0158772Y0112207D01*
X0158822Y0112255D01*
X0158873Y0112300D01*
X0158928Y0112342D01*
X0158984Y0112381D01*
X0159043Y0112416D01*
X0159104Y0112448D01*
X0159166Y0112476D01*
X0159230Y0112501D01*
X0159295Y0112522D01*
X0159361Y0112540D01*
X0159428Y0112553D01*
X0159496Y0112563D01*
X0159564Y0112569D01*
X0159633Y0112571D01*
X0148435Y0089916D02*
X0147301Y0089916D01*
X0146734Y0089349D01*
X0146734Y0087080D01*
X0149002Y0089349D01*
X0149002Y0087080D01*
X0148435Y0086513D01*
X0147301Y0086513D01*
X0146734Y0087080D01*
X0145319Y0087080D02*
X0144752Y0086513D01*
X0143618Y0086513D01*
X0143051Y0087080D01*
X0145319Y0089349D01*
X0145319Y0087080D01*
X0143051Y0087080D02*
X0143051Y0089349D01*
X0143618Y0089916D01*
X0144752Y0089916D01*
X0145319Y0089349D01*
X0141636Y0089916D02*
X0139367Y0089916D01*
X0139367Y0088215D01*
X0140502Y0088782D01*
X0141069Y0088782D01*
X0141636Y0088215D01*
X0141636Y0087080D01*
X0141069Y0086513D01*
X0139935Y0086513D01*
X0139367Y0087080D01*
X0136878Y0086513D02*
X0135177Y0087647D01*
X0136878Y0088782D01*
X0135177Y0089916D02*
X0135177Y0086513D01*
X0133762Y0086513D02*
X0131493Y0086513D01*
X0132628Y0086513D02*
X0132628Y0089916D01*
X0131493Y0088782D01*
X0126642Y0088782D02*
X0124940Y0087647D01*
X0126642Y0086513D01*
X0124940Y0086513D02*
X0124940Y0089916D01*
X0123526Y0089349D02*
X0122959Y0089916D01*
X0121824Y0089916D01*
X0121257Y0089349D01*
X0123526Y0089349D02*
X0123526Y0088782D01*
X0121257Y0086513D01*
X0123526Y0086513D01*
X0116406Y0086513D02*
X0114704Y0087647D01*
X0116406Y0088782D01*
X0114704Y0089916D02*
X0114704Y0086513D01*
X0112722Y0086513D02*
X0112722Y0089916D01*
X0111021Y0088215D01*
X0113290Y0088215D01*
X0100691Y0086987D02*
X0100124Y0087554D01*
X0098990Y0087554D01*
X0098423Y0086987D01*
X0098423Y0084718D01*
X0098990Y0084151D01*
X0100124Y0084151D01*
X0100691Y0084718D01*
X0100691Y0085852D01*
X0099557Y0085852D01*
X0098871Y0071371D02*
X0098871Y0061371D01*
X0108871Y0061371D01*
X0118871Y0061371D01*
X0128871Y0061371D01*
X0138871Y0061371D01*
X0148871Y0061371D01*
X0148871Y0071371D01*
X0138871Y0071371D01*
X0128871Y0071371D01*
X0118871Y0071371D01*
X0108871Y0071371D01*
X0098871Y0071371D01*
X0108871Y0071371D02*
X0108871Y0061371D01*
X0118871Y0061371D02*
X0118871Y0071371D01*
X0128871Y0071371D02*
X0128871Y0061371D01*
X0138871Y0061371D02*
X0138871Y0071371D01*
X0149002Y0089349D02*
X0148435Y0089916D01*
X0166371Y0071371D02*
X0166371Y0061371D01*
X0176371Y0061371D01*
X0186371Y0061371D01*
X0186371Y0071371D01*
X0176371Y0071371D01*
X0166371Y0071371D01*
X0176371Y0071371D02*
X0176371Y0061371D01*
X0187179Y0073127D02*
X0188313Y0073127D01*
X0188880Y0073694D01*
X0188880Y0074829D01*
X0187746Y0074829D01*
X0188880Y0075963D02*
X0188313Y0076530D01*
X0187179Y0076530D01*
X0186612Y0075963D01*
X0186612Y0073694D01*
X0187179Y0073127D01*
X0196628Y0094387D02*
X0197762Y0094387D01*
X0198329Y0094954D01*
X0198329Y0096089D01*
X0197195Y0096089D01*
X0198329Y0097223D02*
X0197762Y0097790D01*
X0196628Y0097790D01*
X0196060Y0097223D01*
X0196060Y0094954D01*
X0196628Y0094387D01*
X0196941Y0103836D02*
X0196941Y0107239D01*
X0195807Y0106105D01*
X0194392Y0106105D02*
X0192123Y0103836D01*
X0192123Y0106105D02*
X0194392Y0103836D01*
X0195807Y0103836D02*
X0198075Y0103836D01*
X0197254Y0114072D02*
X0196120Y0114072D01*
X0195553Y0114639D01*
X0197821Y0116908D01*
X0197821Y0114639D01*
X0197254Y0114072D01*
X0195553Y0114639D02*
X0195553Y0116908D01*
X0196120Y0117475D01*
X0197254Y0117475D01*
X0197821Y0116908D01*
X0194138Y0114072D02*
X0191870Y0114072D01*
X0193004Y0114072D02*
X0193004Y0117475D01*
X0191870Y0116341D01*
X0190455Y0116341D02*
X0188186Y0114072D01*
X0188186Y0116341D02*
X0190455Y0114072D01*
X0213398Y0110623D02*
X0213398Y0100623D01*
X0213398Y0090623D01*
X0223398Y0090623D01*
X0223398Y0100623D01*
X0223398Y0110623D01*
X0223398Y0120623D01*
X0213398Y0120623D01*
X0213398Y0110623D01*
X0223398Y0110623D01*
X0223398Y0100623D02*
X0213398Y0100623D01*
X0185421Y0141321D02*
X0180321Y0141321D01*
X0177921Y0141321D01*
X0172821Y0141321D01*
X0177921Y0141321D02*
X0177923Y0141390D01*
X0177929Y0141458D01*
X0177939Y0141526D01*
X0177952Y0141593D01*
X0177970Y0141659D01*
X0177991Y0141724D01*
X0178016Y0141788D01*
X0178044Y0141850D01*
X0178076Y0141911D01*
X0178111Y0141970D01*
X0178150Y0142026D01*
X0178192Y0142081D01*
X0178237Y0142132D01*
X0178285Y0142182D01*
X0178335Y0142228D01*
X0178388Y0142271D01*
X0178444Y0142312D01*
X0178501Y0142349D01*
X0178561Y0142382D01*
X0178623Y0142413D01*
X0178686Y0142439D01*
X0178750Y0142462D01*
X0178816Y0142482D01*
X0178883Y0142497D01*
X0178950Y0142509D01*
X0179018Y0142517D01*
X0179087Y0142521D01*
X0179155Y0142521D01*
X0179224Y0142517D01*
X0179292Y0142509D01*
X0179359Y0142497D01*
X0179426Y0142482D01*
X0179492Y0142462D01*
X0179556Y0142439D01*
X0179619Y0142413D01*
X0179681Y0142382D01*
X0179741Y0142349D01*
X0179798Y0142312D01*
X0179854Y0142271D01*
X0179907Y0142228D01*
X0179957Y0142182D01*
X0180005Y0142132D01*
X0180050Y0142081D01*
X0180092Y0142026D01*
X0180131Y0141970D01*
X0180166Y0141911D01*
X0180198Y0141850D01*
X0180226Y0141788D01*
X0180251Y0141724D01*
X0180272Y0141659D01*
X0180290Y0141593D01*
X0180303Y0141526D01*
X0180313Y0141458D01*
X0180319Y0141390D01*
X0180321Y0141321D01*
X0185421Y0153921D02*
X0172821Y0153921D01*
D12*
X0198149Y0182139D02*
X0200050Y0182139D01*
X0201001Y0183090D01*
X0203643Y0182139D02*
X0203643Y0187844D01*
X0201001Y0186893D02*
X0200050Y0187844D01*
X0198149Y0187844D01*
X0197198Y0186893D01*
X0197198Y0183090D01*
X0198149Y0182139D01*
X0203643Y0184991D02*
X0207447Y0184991D01*
X0210089Y0184040D02*
X0213892Y0187844D01*
X0211040Y0184991D02*
X0213892Y0182139D01*
X0210089Y0182139D02*
X0210089Y0187844D01*
X0207447Y0187844D02*
X0207447Y0182139D01*
X0201001Y0192639D02*
X0197198Y0192639D01*
X0197198Y0193590D01*
X0201001Y0197393D01*
X0201001Y0198344D01*
X0197198Y0198344D01*
X0080937Y0168602D02*
X0080937Y0166700D01*
X0079986Y0165750D01*
X0078085Y0166700D02*
X0078085Y0168602D01*
X0079036Y0169553D01*
X0079986Y0169553D01*
X0080937Y0168602D01*
X0078085Y0166700D02*
X0077134Y0165750D01*
X0076183Y0165750D01*
X0075232Y0166700D01*
X0075232Y0168602D01*
X0076183Y0169553D01*
X0078085Y0172195D02*
X0078085Y0175998D01*
X0079986Y0174097D02*
X0076183Y0174097D01*
X0076183Y0163107D02*
X0075232Y0162157D01*
X0075232Y0160255D01*
X0076183Y0159304D01*
X0079986Y0159304D01*
X0080937Y0160255D01*
X0080937Y0162157D01*
X0079986Y0163107D01*
X0078872Y0109069D02*
X0078872Y0105266D01*
X0079823Y0102624D02*
X0080774Y0102624D01*
X0081725Y0101673D01*
X0081725Y0099771D01*
X0080774Y0098820D01*
X0078872Y0099771D02*
X0078872Y0101673D01*
X0079823Y0102624D01*
X0076970Y0102624D02*
X0076020Y0101673D01*
X0076020Y0099771D01*
X0076970Y0098820D01*
X0077921Y0098820D01*
X0078872Y0099771D01*
X0076970Y0096178D02*
X0076020Y0095227D01*
X0076020Y0093326D01*
X0076970Y0092375D01*
X0080774Y0092375D01*
X0081725Y0093326D01*
X0081725Y0095227D01*
X0080774Y0096178D01*
D13*
X0115205Y0116485D02*
X0118341Y0119621D01*
X0116773Y0119621D02*
X0116773Y0116485D01*
X0118341Y0116485D02*
X0115205Y0119621D01*
X0115205Y0118053D02*
X0118341Y0118053D01*
X0130205Y0118053D02*
X0133341Y0118053D01*
X0133341Y0119621D02*
X0130205Y0116485D01*
X0131773Y0116485D02*
X0131773Y0119621D01*
X0130205Y0119621D02*
X0133341Y0116485D01*
X0145205Y0116485D02*
X0148341Y0119621D01*
X0146773Y0119621D02*
X0146773Y0116485D01*
X0148341Y0116485D02*
X0145205Y0119621D01*
X0145205Y0118053D02*
X0148341Y0118053D01*
X0160067Y0118053D02*
X0163203Y0118053D01*
X0163203Y0119621D02*
X0160067Y0116485D01*
X0161635Y0116485D02*
X0161635Y0119621D01*
X0160067Y0119621D02*
X0163203Y0116485D01*
X0179524Y0116794D02*
X0179967Y0117237D01*
X0180852Y0117237D01*
X0181294Y0116794D01*
X0181294Y0115467D01*
X0182179Y0115467D02*
X0179524Y0115467D01*
X0179524Y0116794D01*
X0180852Y0118186D02*
X0180852Y0119956D01*
X0182179Y0119513D02*
X0179524Y0119513D01*
X0180852Y0118186D01*
X0179524Y0114518D02*
X0179524Y0112748D01*
X0179524Y0113633D02*
X0182179Y0113633D01*
X0181847Y0109673D02*
X0181847Y0107903D01*
X0181847Y0108788D02*
X0179192Y0108788D01*
X0180077Y0107903D01*
X0180519Y0106954D02*
X0180962Y0106512D01*
X0180962Y0105184D01*
X0181847Y0105184D02*
X0179192Y0105184D01*
X0179192Y0106512D01*
X0179634Y0106954D01*
X0180519Y0106954D01*
X0179192Y0104235D02*
X0179192Y0102465D01*
X0179192Y0103350D02*
X0181847Y0103350D01*
X0184499Y0125818D02*
X0184499Y0128473D01*
X0183614Y0128473D02*
X0185384Y0128473D01*
X0186333Y0128473D02*
X0186333Y0125818D01*
X0186333Y0126703D02*
X0187660Y0126703D01*
X0188103Y0127145D01*
X0188103Y0128030D01*
X0187660Y0128473D01*
X0186333Y0128473D01*
X0189052Y0128473D02*
X0189052Y0127145D01*
X0189937Y0127588D01*
X0190379Y0127588D01*
X0190822Y0127145D01*
X0190822Y0126260D01*
X0190379Y0125818D01*
X0189494Y0125818D01*
X0189052Y0126260D01*
X0189052Y0128473D02*
X0190822Y0128473D01*
X0190771Y0138551D02*
X0187635Y0141687D01*
X0189203Y0141687D02*
X0189203Y0138551D01*
X0187635Y0138551D02*
X0190771Y0141687D01*
X0190771Y0140119D02*
X0187635Y0140119D01*
X0187406Y0170284D02*
X0187406Y0172939D01*
X0186521Y0172939D02*
X0188291Y0172939D01*
X0189239Y0172939D02*
X0190567Y0172939D01*
X0191009Y0172497D01*
X0191009Y0171612D01*
X0190567Y0171169D01*
X0189239Y0171169D01*
X0189239Y0170284D02*
X0189239Y0172939D01*
X0191958Y0172497D02*
X0192401Y0172939D01*
X0193286Y0172939D01*
X0193728Y0172497D01*
X0193728Y0172054D01*
X0191958Y0170284D01*
X0193728Y0170284D01*
X0145933Y0163796D02*
X0145933Y0163354D01*
X0145491Y0162911D01*
X0145933Y0162469D01*
X0145933Y0162026D01*
X0145491Y0161584D01*
X0144606Y0161584D01*
X0144163Y0162026D01*
X0145048Y0162911D02*
X0145491Y0162911D01*
X0145933Y0163796D02*
X0145491Y0164239D01*
X0144606Y0164239D01*
X0144163Y0163796D01*
X0143214Y0163796D02*
X0143214Y0162911D01*
X0142772Y0162469D01*
X0141444Y0162469D01*
X0141444Y0161584D02*
X0141444Y0164239D01*
X0142772Y0164239D01*
X0143214Y0163796D01*
X0140495Y0164239D02*
X0138725Y0164239D01*
X0139610Y0164239D02*
X0139610Y0161584D01*
D14*
X0175853Y0139028D02*
X0175853Y0137619D01*
X0176558Y0136914D01*
X0177262Y0136914D01*
X0178672Y0137619D01*
X0178672Y0135505D01*
X0175853Y0135505D01*
X0180203Y0135505D02*
X0180203Y0139028D01*
X0180908Y0139733D01*
X0182317Y0139733D01*
X0183022Y0139028D01*
X0183022Y0135505D01*
X0178672Y0139028D02*
X0177967Y0139733D01*
X0176558Y0139733D01*
X0175853Y0139028D01*
D15*
X0225898Y0115623D02*
X0248398Y0115623D01*
X0248398Y0105623D02*
X0225898Y0105623D01*
X0225898Y0095623D02*
X0248398Y0095623D01*
X0181371Y0058871D02*
X0181371Y0036371D01*
X0171371Y0036371D02*
X0171371Y0058871D01*
X0143871Y0058871D02*
X0143871Y0036371D01*
X0133871Y0036371D02*
X0133871Y0058871D01*
X0123871Y0058871D02*
X0123871Y0036371D01*
X0113871Y0036371D02*
X0113871Y0058871D01*
X0103871Y0058871D02*
X0103871Y0036371D01*
X0171371Y0208871D02*
X0171371Y0231371D01*
X0181371Y0231371D02*
X0181371Y0208871D01*
D16*
X0181371Y0207371D03*
X0171371Y0207371D03*
X0171371Y0060371D03*
X0181371Y0060371D03*
X0143871Y0060371D03*
X0133871Y0060371D03*
X0123871Y0060371D03*
X0113871Y0060371D03*
X0103871Y0060371D03*
D17*
X0103871Y0073371D03*
X0113871Y0073371D03*
X0123871Y0073371D03*
X0133871Y0073371D03*
X0143871Y0073371D03*
X0171371Y0073371D03*
X0181371Y0073371D03*
X0181371Y0194371D03*
X0171371Y0194371D03*
D18*
X0168968Y0180210D02*
X0168049Y0180210D01*
X0167590Y0179751D01*
X0168968Y0180210D02*
X0169427Y0179751D01*
X0169427Y0179292D01*
X0167590Y0177455D01*
X0169427Y0177455D01*
X0168509Y0175210D02*
X0167590Y0174292D01*
X0168509Y0175210D02*
X0168509Y0172455D01*
X0169427Y0172455D02*
X0167590Y0172455D01*
X0166708Y0172455D02*
X0164871Y0172455D01*
X0165790Y0172455D02*
X0165790Y0175210D01*
X0164871Y0174292D01*
X0163989Y0174751D02*
X0163530Y0175210D01*
X0162612Y0175210D01*
X0162153Y0174751D01*
X0162153Y0172914D01*
X0162612Y0172455D01*
X0163530Y0172455D01*
X0163989Y0172914D01*
X0163530Y0170210D02*
X0162612Y0170210D01*
X0162153Y0169751D01*
X0162153Y0167914D01*
X0162612Y0167455D01*
X0163530Y0167455D01*
X0163989Y0167914D01*
X0164871Y0167455D02*
X0166708Y0167455D01*
X0165790Y0167455D02*
X0165790Y0170210D01*
X0164871Y0169292D01*
X0163989Y0169751D02*
X0163530Y0170210D01*
X0167590Y0169751D02*
X0167590Y0167914D01*
X0169427Y0169751D01*
X0169427Y0167914D01*
X0168968Y0167455D01*
X0168049Y0167455D01*
X0167590Y0167914D01*
X0167590Y0169751D02*
X0168049Y0170210D01*
X0168968Y0170210D01*
X0169427Y0169751D01*
X0166708Y0177455D02*
X0164871Y0177455D01*
X0165790Y0177455D02*
X0165790Y0180210D01*
X0164871Y0179292D01*
X0163989Y0179751D02*
X0163530Y0180210D01*
X0162612Y0180210D01*
X0162153Y0179751D01*
X0162153Y0177914D01*
X0162612Y0177455D01*
X0163530Y0177455D01*
X0163989Y0177914D01*
X0183783Y0162438D02*
X0183783Y0160601D01*
X0184242Y0160142D01*
X0185160Y0160142D01*
X0185620Y0160601D01*
X0186502Y0160601D02*
X0186502Y0161519D01*
X0187879Y0161519D01*
X0188338Y0161060D01*
X0188338Y0160601D01*
X0187879Y0160142D01*
X0186961Y0160142D01*
X0186502Y0160601D01*
X0186502Y0161519D02*
X0187420Y0162438D01*
X0188338Y0162897D01*
X0185620Y0162438D02*
X0185160Y0162897D01*
X0184242Y0162897D01*
X0183783Y0162438D01*
X0195281Y0162184D02*
X0195281Y0161266D01*
X0195740Y0160807D01*
X0195740Y0159924D02*
X0196659Y0159924D01*
X0197118Y0159465D01*
X0197118Y0158088D01*
X0197118Y0159006D02*
X0198036Y0159924D01*
X0198036Y0160807D02*
X0196200Y0162643D01*
X0195740Y0162643D01*
X0195281Y0162184D01*
X0196659Y0163525D02*
X0196659Y0164903D01*
X0197118Y0165362D01*
X0197577Y0165362D01*
X0198036Y0164903D01*
X0198036Y0163985D01*
X0197577Y0163525D01*
X0196659Y0163525D01*
X0195740Y0164444D01*
X0195281Y0165362D01*
X0198036Y0162643D02*
X0198036Y0160807D01*
X0195740Y0159924D02*
X0195281Y0159465D01*
X0195281Y0158088D01*
X0198036Y0158088D01*
X0200281Y0163324D02*
X0200281Y0164701D01*
X0200740Y0165161D01*
X0201659Y0165161D01*
X0202118Y0164701D01*
X0202118Y0163324D01*
X0202118Y0164242D02*
X0203036Y0165161D01*
X0203036Y0166043D02*
X0201200Y0167879D01*
X0200740Y0167879D01*
X0200281Y0167420D01*
X0200281Y0166502D01*
X0200740Y0166043D01*
X0203036Y0166043D02*
X0203036Y0167879D01*
X0202577Y0168762D02*
X0203036Y0169221D01*
X0203036Y0170139D01*
X0202577Y0170598D01*
X0201659Y0170598D01*
X0201200Y0170139D01*
X0201200Y0169680D01*
X0201659Y0168762D01*
X0200281Y0168762D01*
X0200281Y0170598D01*
X0200203Y0173469D02*
X0200203Y0174846D01*
X0200662Y0175305D01*
X0201580Y0175305D01*
X0202039Y0174846D01*
X0202039Y0173469D01*
X0202039Y0174387D02*
X0202958Y0175305D01*
X0202958Y0176187D02*
X0201121Y0178024D01*
X0200662Y0178024D01*
X0200203Y0177565D01*
X0200203Y0176647D01*
X0200662Y0176187D01*
X0202958Y0176187D02*
X0202958Y0178024D01*
X0202958Y0178906D02*
X0202498Y0178906D01*
X0200662Y0180743D01*
X0200203Y0180743D01*
X0200203Y0178906D01*
X0205203Y0179366D02*
X0205203Y0180284D01*
X0205662Y0180743D01*
X0206121Y0180743D01*
X0206580Y0180284D01*
X0206580Y0179366D01*
X0206121Y0178906D01*
X0205662Y0178906D01*
X0205203Y0179366D01*
X0206580Y0179366D02*
X0207039Y0178906D01*
X0207498Y0178906D01*
X0207958Y0179366D01*
X0207958Y0180284D01*
X0207498Y0180743D01*
X0207039Y0180743D01*
X0206580Y0180284D01*
X0206121Y0178024D02*
X0205662Y0178024D01*
X0205203Y0177565D01*
X0205203Y0176647D01*
X0205662Y0176187D01*
X0205662Y0175305D02*
X0206580Y0175305D01*
X0207039Y0174846D01*
X0207039Y0173469D01*
X0207039Y0174387D02*
X0207958Y0175305D01*
X0207958Y0176187D02*
X0206121Y0178024D01*
X0207958Y0178024D02*
X0207958Y0176187D01*
X0205662Y0175305D02*
X0205203Y0174846D01*
X0205203Y0173469D01*
X0207958Y0173469D01*
X0206659Y0170598D02*
X0206659Y0168762D01*
X0205281Y0170139D01*
X0208036Y0170139D01*
X0208036Y0167879D02*
X0208036Y0166043D01*
X0206200Y0167879D01*
X0205740Y0167879D01*
X0205281Y0167420D01*
X0205281Y0166502D01*
X0205740Y0166043D01*
X0205740Y0165161D02*
X0206659Y0165161D01*
X0207118Y0164701D01*
X0207118Y0163324D01*
X0207118Y0164242D02*
X0208036Y0165161D01*
X0208036Y0163324D02*
X0205281Y0163324D01*
X0205281Y0164701D01*
X0205740Y0165161D01*
X0210281Y0164910D02*
X0210740Y0164451D01*
X0211200Y0164451D01*
X0211659Y0164910D01*
X0211659Y0166287D01*
X0212577Y0166287D02*
X0210740Y0166287D01*
X0210281Y0165828D01*
X0210281Y0164910D01*
X0210740Y0163568D02*
X0210281Y0163109D01*
X0210281Y0162191D01*
X0210740Y0161732D01*
X0210740Y0160850D02*
X0211659Y0160850D01*
X0212118Y0160390D01*
X0212118Y0159013D01*
X0212118Y0159931D02*
X0213036Y0160850D01*
X0213036Y0161732D02*
X0211200Y0163568D01*
X0210740Y0163568D01*
X0212577Y0164451D02*
X0213036Y0164910D01*
X0213036Y0165828D01*
X0212577Y0166287D01*
X0213036Y0163568D02*
X0213036Y0161732D01*
X0210740Y0160850D02*
X0210281Y0160390D01*
X0210281Y0159013D01*
X0213036Y0159013D01*
X0203036Y0163324D02*
X0200281Y0163324D01*
X0200203Y0173469D02*
X0202958Y0173469D01*
X0210662Y0138046D02*
X0212498Y0136209D01*
X0212958Y0136669D01*
X0212958Y0137587D01*
X0212498Y0138046D01*
X0210662Y0138046D01*
X0210203Y0137587D01*
X0210203Y0136669D01*
X0210662Y0136209D01*
X0212498Y0136209D01*
X0212498Y0135327D02*
X0212958Y0134868D01*
X0212958Y0133950D01*
X0212498Y0133491D01*
X0212958Y0132609D02*
X0212039Y0131690D01*
X0212039Y0132149D02*
X0212039Y0130772D01*
X0212958Y0130772D02*
X0210203Y0130772D01*
X0210203Y0132149D01*
X0210662Y0132609D01*
X0211580Y0132609D01*
X0212039Y0132149D01*
X0210662Y0133491D02*
X0210203Y0133950D01*
X0210203Y0134868D01*
X0210662Y0135327D01*
X0211121Y0135327D01*
X0211580Y0134868D01*
X0212039Y0135327D01*
X0212498Y0135327D01*
X0211580Y0134868D02*
X0211580Y0134409D01*
X0207498Y0130546D02*
X0207958Y0130087D01*
X0207958Y0129169D01*
X0207498Y0128709D01*
X0207958Y0127827D02*
X0207958Y0125991D01*
X0206121Y0127827D01*
X0205662Y0127827D01*
X0205203Y0127368D01*
X0205203Y0126450D01*
X0205662Y0125991D01*
X0205662Y0125109D02*
X0206580Y0125109D01*
X0207039Y0124649D01*
X0207039Y0123272D01*
X0207039Y0124190D02*
X0207958Y0125109D01*
X0207958Y0123272D02*
X0205203Y0123272D01*
X0205203Y0124649D01*
X0205662Y0125109D01*
X0202958Y0125109D02*
X0202039Y0124190D01*
X0202039Y0124649D02*
X0202039Y0123272D01*
X0202958Y0123272D02*
X0200203Y0123272D01*
X0200203Y0124649D01*
X0200662Y0125109D01*
X0201580Y0125109D01*
X0202039Y0124649D01*
X0202958Y0125991D02*
X0201121Y0127827D01*
X0200662Y0127827D01*
X0200203Y0127368D01*
X0200203Y0126450D01*
X0200662Y0125991D01*
X0202958Y0125991D02*
X0202958Y0127827D01*
X0202958Y0128709D02*
X0201121Y0130546D01*
X0200662Y0130546D01*
X0200203Y0130087D01*
X0200203Y0129169D01*
X0200662Y0128709D01*
X0202958Y0128709D02*
X0202958Y0130546D01*
X0205203Y0130087D02*
X0205662Y0130546D01*
X0206121Y0130546D01*
X0206580Y0130087D01*
X0207039Y0130546D01*
X0207498Y0130546D01*
X0206580Y0130087D02*
X0206580Y0129628D01*
X0205662Y0128709D02*
X0205203Y0129169D01*
X0205203Y0130087D01*
X0198286Y0130509D02*
X0195531Y0130509D01*
X0196450Y0129590D01*
X0196450Y0128708D02*
X0195990Y0128708D01*
X0195531Y0128249D01*
X0195531Y0127331D01*
X0195990Y0126871D01*
X0195990Y0125989D02*
X0195531Y0125530D01*
X0195531Y0124153D01*
X0198286Y0124153D01*
X0197368Y0124153D02*
X0197368Y0125530D01*
X0196909Y0125989D01*
X0195990Y0125989D01*
X0197368Y0125071D02*
X0198286Y0125989D01*
X0198286Y0126871D02*
X0196450Y0128708D01*
X0198286Y0128708D02*
X0198286Y0126871D01*
X0198286Y0129590D02*
X0198286Y0131427D01*
X0166414Y0132018D02*
X0165955Y0131559D01*
X0165036Y0131559D01*
X0164577Y0132018D01*
X0163695Y0132018D02*
X0163236Y0131559D01*
X0162318Y0131559D01*
X0161858Y0132018D01*
X0161858Y0133855D01*
X0162318Y0134314D01*
X0163236Y0134314D01*
X0163695Y0133855D01*
X0164577Y0134314D02*
X0164577Y0132937D01*
X0165496Y0133396D01*
X0165955Y0133396D01*
X0166414Y0132937D01*
X0166414Y0132018D01*
X0166414Y0134314D02*
X0164577Y0134314D01*
X0148367Y0134055D02*
X0148367Y0133727D01*
X0148039Y0133399D01*
X0147383Y0133399D01*
X0147056Y0133727D01*
X0147056Y0134055D01*
X0147383Y0134383D01*
X0148039Y0134383D01*
X0148367Y0134055D01*
X0148039Y0133399D02*
X0148367Y0133071D01*
X0148367Y0132743D01*
X0148039Y0132415D01*
X0147383Y0132415D01*
X0147056Y0132743D01*
X0147056Y0133071D01*
X0147383Y0133399D01*
X0146373Y0133399D02*
X0146045Y0133071D01*
X0145062Y0133071D01*
X0145717Y0133071D02*
X0146373Y0132415D01*
X0146373Y0133399D02*
X0146373Y0134055D01*
X0146045Y0134383D01*
X0145062Y0134383D01*
X0145062Y0132415D01*
X0145062Y0129146D02*
X0146045Y0129146D01*
X0146373Y0128818D01*
X0146373Y0128163D01*
X0146045Y0127835D01*
X0145062Y0127835D01*
X0145717Y0127835D02*
X0146373Y0127179D01*
X0147056Y0127507D02*
X0147383Y0127179D01*
X0148039Y0127179D01*
X0148367Y0127507D01*
X0148367Y0128818D01*
X0148039Y0129146D01*
X0147383Y0129146D01*
X0147056Y0128818D01*
X0147056Y0128491D01*
X0147383Y0128163D01*
X0148367Y0128163D01*
X0148039Y0124697D02*
X0147383Y0124697D01*
X0147056Y0124370D01*
X0147056Y0123058D01*
X0148367Y0124370D01*
X0148367Y0123058D01*
X0148039Y0122730D01*
X0147383Y0122730D01*
X0147056Y0123058D01*
X0146373Y0122730D02*
X0145062Y0122730D01*
X0145717Y0122730D02*
X0145717Y0124697D01*
X0145062Y0124042D01*
X0144379Y0124370D02*
X0144379Y0123714D01*
X0144051Y0123386D01*
X0143068Y0123386D01*
X0143724Y0123386D02*
X0144379Y0122730D01*
X0143068Y0122730D02*
X0143068Y0124697D01*
X0144051Y0124697D01*
X0144379Y0124370D01*
X0145062Y0127179D02*
X0145062Y0129146D01*
X0148039Y0124697D02*
X0148367Y0124370D01*
X0147056Y0137652D02*
X0147056Y0137980D01*
X0148367Y0139291D01*
X0148367Y0139619D01*
X0147056Y0139619D01*
X0146373Y0139291D02*
X0146373Y0138635D01*
X0146045Y0138307D01*
X0145062Y0138307D01*
X0145062Y0137652D02*
X0145062Y0139619D01*
X0146045Y0139619D01*
X0146373Y0139291D01*
X0145717Y0138307D02*
X0146373Y0137652D01*
X0133308Y0137652D02*
X0131996Y0137652D01*
X0133308Y0138963D01*
X0133308Y0139291D01*
X0132980Y0139619D01*
X0132324Y0139619D01*
X0131996Y0139291D01*
X0130658Y0139619D02*
X0130658Y0137652D01*
X0130003Y0137652D02*
X0131314Y0137652D01*
X0130003Y0138963D02*
X0130658Y0139619D01*
X0129320Y0139291D02*
X0129320Y0138635D01*
X0128992Y0138307D01*
X0128009Y0138307D01*
X0128009Y0137652D02*
X0128009Y0139619D01*
X0128992Y0139619D01*
X0129320Y0139291D01*
X0128664Y0138307D02*
X0129320Y0137652D01*
X0128992Y0135170D02*
X0129320Y0134842D01*
X0129320Y0134186D01*
X0128992Y0133859D01*
X0128009Y0133859D01*
X0128664Y0133859D02*
X0129320Y0133203D01*
X0130003Y0133203D02*
X0131314Y0133203D01*
X0130658Y0133203D02*
X0130658Y0135170D01*
X0130003Y0134514D01*
X0128992Y0135170D02*
X0128009Y0135170D01*
X0128009Y0133203D01*
X0128796Y0129619D02*
X0129780Y0129619D01*
X0130108Y0129291D01*
X0130108Y0128635D01*
X0129780Y0128307D01*
X0128796Y0128307D01*
X0128796Y0127652D02*
X0128796Y0129619D01*
X0129452Y0128307D02*
X0130108Y0127652D01*
X0130790Y0127652D02*
X0132101Y0127652D01*
X0131446Y0127652D02*
X0131446Y0129619D01*
X0130790Y0128963D01*
X0132784Y0128635D02*
X0134095Y0128635D01*
X0133767Y0127652D02*
X0133767Y0129619D01*
X0132784Y0128635D01*
X0132980Y0133203D02*
X0132324Y0133203D01*
X0131996Y0133531D01*
X0132652Y0134186D02*
X0132980Y0134186D01*
X0133308Y0133859D01*
X0133308Y0133531D01*
X0132980Y0133203D01*
X0132980Y0134186D02*
X0133308Y0134514D01*
X0133308Y0134842D01*
X0132980Y0135170D01*
X0132324Y0135170D01*
X0131996Y0134842D01*
X0132469Y0124776D02*
X0132469Y0123793D01*
X0133125Y0124121D01*
X0133452Y0124121D01*
X0133780Y0123793D01*
X0133780Y0123137D01*
X0133452Y0122809D01*
X0132797Y0122809D01*
X0132469Y0123137D01*
X0131786Y0122809D02*
X0130475Y0122809D01*
X0131131Y0122809D02*
X0131131Y0124776D01*
X0130475Y0124121D01*
X0129793Y0124448D02*
X0129793Y0123793D01*
X0129465Y0123465D01*
X0128481Y0123465D01*
X0128481Y0122809D02*
X0128481Y0124776D01*
X0129465Y0124776D01*
X0129793Y0124448D01*
X0129137Y0123465D02*
X0129793Y0122809D01*
X0132469Y0124776D02*
X0133780Y0124776D01*
X0118387Y0124697D02*
X0117075Y0124697D01*
X0117075Y0123714D01*
X0117731Y0124042D01*
X0118059Y0124042D01*
X0118387Y0123714D01*
X0118387Y0123058D01*
X0118059Y0122730D01*
X0117403Y0122730D01*
X0117075Y0123058D01*
X0116393Y0122730D02*
X0115737Y0123386D01*
X0116065Y0123386D02*
X0115081Y0123386D01*
X0115081Y0122730D02*
X0115081Y0124697D01*
X0116065Y0124697D01*
X0116393Y0124370D01*
X0116393Y0123714D01*
X0116065Y0123386D01*
X0116393Y0127494D02*
X0115737Y0128150D01*
X0116065Y0128150D02*
X0115081Y0128150D01*
X0115081Y0127494D02*
X0115081Y0129461D01*
X0116065Y0129461D01*
X0116393Y0129133D01*
X0116393Y0128478D01*
X0116065Y0128150D01*
X0117075Y0128478D02*
X0118387Y0128478D01*
X0118059Y0129461D02*
X0118059Y0127494D01*
X0117075Y0128478D02*
X0118059Y0129461D01*
X0118059Y0133203D02*
X0117403Y0133203D01*
X0117075Y0133531D01*
X0116393Y0133203D02*
X0115737Y0133859D01*
X0116065Y0133859D02*
X0115081Y0133859D01*
X0115081Y0133203D02*
X0115081Y0135170D01*
X0116065Y0135170D01*
X0116393Y0134842D01*
X0116393Y0134186D01*
X0116065Y0133859D01*
X0117075Y0134842D02*
X0117403Y0135170D01*
X0118059Y0135170D01*
X0118387Y0134842D01*
X0118387Y0134514D01*
X0118059Y0134186D01*
X0118387Y0133859D01*
X0118387Y0133531D01*
X0118059Y0133203D01*
X0118059Y0134186D02*
X0117731Y0134186D01*
X0118387Y0137652D02*
X0117075Y0137652D01*
X0118387Y0138963D01*
X0118387Y0139291D01*
X0118059Y0139619D01*
X0117403Y0139619D01*
X0117075Y0139291D01*
X0116393Y0139291D02*
X0116393Y0138635D01*
X0116065Y0138307D01*
X0115081Y0138307D01*
X0115081Y0137652D02*
X0115081Y0139619D01*
X0116065Y0139619D01*
X0116393Y0139291D01*
X0115737Y0138307D02*
X0116393Y0137652D01*
X0102721Y0139830D02*
X0100885Y0137993D01*
X0100885Y0137534D01*
X0100003Y0137534D02*
X0098166Y0137534D01*
X0097284Y0137534D02*
X0096365Y0138452D01*
X0096825Y0138452D02*
X0095447Y0138452D01*
X0095447Y0137534D02*
X0095447Y0140289D01*
X0096825Y0140289D01*
X0097284Y0139830D01*
X0097284Y0138911D01*
X0096825Y0138452D01*
X0098166Y0139370D02*
X0099084Y0140289D01*
X0099084Y0137534D01*
X0097538Y0135289D02*
X0097997Y0134830D01*
X0097997Y0134370D01*
X0097538Y0133911D01*
X0096619Y0133911D01*
X0096160Y0134370D01*
X0096160Y0134830D01*
X0096619Y0135289D01*
X0097538Y0135289D01*
X0097538Y0133911D02*
X0097997Y0133452D01*
X0097997Y0132993D01*
X0097538Y0132534D01*
X0096619Y0132534D01*
X0096160Y0132993D01*
X0096160Y0133452D01*
X0096619Y0133911D01*
X0095278Y0132534D02*
X0093441Y0132534D01*
X0092559Y0132534D02*
X0091641Y0133452D01*
X0092100Y0133452D02*
X0090723Y0133452D01*
X0090723Y0132534D02*
X0090723Y0135289D01*
X0092100Y0135289D01*
X0092559Y0134830D01*
X0092559Y0133911D01*
X0092100Y0133452D01*
X0093441Y0134370D02*
X0094360Y0135289D01*
X0094360Y0132534D01*
X0094360Y0131076D02*
X0094360Y0128321D01*
X0095278Y0128321D02*
X0093441Y0128321D01*
X0092559Y0128321D02*
X0091641Y0129239D01*
X0092100Y0129239D02*
X0090723Y0129239D01*
X0090723Y0128321D02*
X0090723Y0131076D01*
X0092100Y0131076D01*
X0092559Y0130617D01*
X0092559Y0129699D01*
X0092100Y0129239D01*
X0093441Y0130158D02*
X0094360Y0131076D01*
X0096160Y0130617D02*
X0096160Y0130158D01*
X0096619Y0129699D01*
X0097997Y0129699D01*
X0097997Y0130617D02*
X0097538Y0131076D01*
X0096619Y0131076D01*
X0096160Y0130617D01*
X0096160Y0128780D02*
X0096619Y0128321D01*
X0097538Y0128321D01*
X0097997Y0128780D01*
X0097997Y0130617D01*
X0097838Y0123714D02*
X0097378Y0123255D01*
X0097838Y0123714D02*
X0098756Y0123714D01*
X0099215Y0123255D01*
X0099215Y0122796D01*
X0097378Y0120959D01*
X0099215Y0120959D01*
X0100097Y0121418D02*
X0101934Y0123255D01*
X0101934Y0121418D01*
X0101475Y0120959D01*
X0100556Y0120959D01*
X0100097Y0121418D01*
X0100097Y0123255D01*
X0100556Y0123714D01*
X0101475Y0123714D01*
X0101934Y0123255D01*
X0096496Y0123255D02*
X0096496Y0122336D01*
X0096037Y0121877D01*
X0094660Y0121877D01*
X0095578Y0121877D02*
X0096496Y0120959D01*
X0094660Y0120959D02*
X0094660Y0123714D01*
X0096037Y0123714D01*
X0096496Y0123255D01*
X0100885Y0140289D02*
X0102721Y0140289D01*
X0102721Y0139830D01*
X0110819Y0153550D02*
X0110819Y0154928D01*
X0111278Y0155387D01*
X0112196Y0155387D01*
X0112655Y0154928D01*
X0112655Y0153550D01*
X0112655Y0154469D02*
X0113574Y0155387D01*
X0113574Y0156269D02*
X0113574Y0158106D01*
X0113574Y0157187D02*
X0110819Y0157187D01*
X0111737Y0156269D01*
X0112196Y0158988D02*
X0112196Y0160366D01*
X0112655Y0160825D01*
X0113115Y0160825D01*
X0113574Y0160366D01*
X0113574Y0159447D01*
X0113115Y0158988D01*
X0112196Y0158988D01*
X0111278Y0159906D01*
X0110819Y0160825D01*
X0110819Y0153550D02*
X0113574Y0153550D01*
X0125031Y0153907D02*
X0125031Y0155284D01*
X0125490Y0155744D01*
X0126409Y0155744D01*
X0126868Y0155284D01*
X0126868Y0153907D01*
X0126868Y0154825D02*
X0127786Y0155744D01*
X0127786Y0156626D02*
X0127786Y0158463D01*
X0127786Y0157544D02*
X0125031Y0157544D01*
X0125950Y0156626D01*
X0125031Y0153907D02*
X0127786Y0153907D01*
X0140031Y0154140D02*
X0140490Y0154600D01*
X0141409Y0154600D01*
X0141868Y0154140D01*
X0141868Y0152763D01*
X0141868Y0153681D02*
X0142786Y0154600D01*
X0142786Y0155482D02*
X0142786Y0157318D01*
X0142786Y0158201D02*
X0142786Y0160037D01*
X0142786Y0159119D02*
X0140031Y0159119D01*
X0140950Y0158201D01*
X0140031Y0156400D02*
X0142786Y0156400D01*
X0140950Y0155482D02*
X0140031Y0156400D01*
X0140031Y0154140D02*
X0140031Y0152763D01*
X0142786Y0152763D01*
X0154893Y0153907D02*
X0154893Y0155284D01*
X0155353Y0155744D01*
X0156271Y0155744D01*
X0156730Y0155284D01*
X0156730Y0153907D01*
X0156730Y0154825D02*
X0157649Y0155744D01*
X0157189Y0156626D02*
X0157649Y0157085D01*
X0157649Y0158003D01*
X0157189Y0158463D01*
X0156730Y0158463D01*
X0156271Y0158003D01*
X0156271Y0156626D01*
X0157189Y0156626D01*
X0156271Y0156626D02*
X0155353Y0157544D01*
X0154893Y0158463D01*
X0154893Y0153907D02*
X0157649Y0153907D01*
X0183879Y0100289D02*
X0183419Y0099830D01*
X0183419Y0097993D01*
X0183879Y0097534D01*
X0184797Y0097534D01*
X0185256Y0097993D01*
X0186138Y0097993D02*
X0187975Y0099830D01*
X0187975Y0100289D01*
X0186138Y0100289D01*
X0185256Y0099830D02*
X0184797Y0100289D01*
X0183879Y0100289D01*
X0186138Y0097993D02*
X0186138Y0097534D01*
X0186597Y0095289D02*
X0187516Y0095289D01*
X0187975Y0094830D01*
X0187975Y0094370D01*
X0187516Y0093911D01*
X0186597Y0093911D01*
X0186138Y0094370D01*
X0186138Y0094830D01*
X0186597Y0095289D01*
X0186597Y0093911D02*
X0186138Y0093452D01*
X0186138Y0092993D01*
X0186597Y0092534D01*
X0187516Y0092534D01*
X0187975Y0092993D01*
X0187975Y0093452D01*
X0187516Y0093911D01*
X0185256Y0092993D02*
X0184797Y0092534D01*
X0183879Y0092534D01*
X0183419Y0092993D01*
X0183419Y0094830D01*
X0183879Y0095289D01*
X0184797Y0095289D01*
X0185256Y0094830D01*
X0184797Y0090289D02*
X0183879Y0090289D01*
X0183419Y0089830D01*
X0183419Y0087993D01*
X0183879Y0087534D01*
X0184797Y0087534D01*
X0185256Y0087993D01*
X0186138Y0087993D02*
X0186597Y0087534D01*
X0187516Y0087534D01*
X0187975Y0087993D01*
X0187975Y0089830D01*
X0187516Y0090289D01*
X0186597Y0090289D01*
X0186138Y0089830D01*
X0186138Y0089370D01*
X0186597Y0088911D01*
X0187975Y0088911D01*
X0185256Y0089830D02*
X0184797Y0090289D01*
X0158526Y0092809D02*
X0156689Y0092809D01*
X0158526Y0094646D01*
X0158526Y0095105D01*
X0158067Y0095564D01*
X0157149Y0095564D01*
X0156689Y0095105D01*
X0155807Y0095105D02*
X0155348Y0095564D01*
X0154430Y0095564D01*
X0153971Y0095105D01*
X0153971Y0093268D01*
X0154430Y0092809D01*
X0155348Y0092809D01*
X0155807Y0093268D01*
X0141951Y0093268D02*
X0141492Y0092809D01*
X0140574Y0092809D01*
X0140115Y0093268D01*
X0139233Y0093268D02*
X0138773Y0092809D01*
X0137855Y0092809D01*
X0137396Y0093268D01*
X0137396Y0095105D01*
X0137855Y0095564D01*
X0138773Y0095564D01*
X0139233Y0095105D01*
X0140115Y0095105D02*
X0140574Y0095564D01*
X0141492Y0095564D01*
X0141951Y0095105D01*
X0141951Y0094646D01*
X0141492Y0094187D01*
X0141951Y0093728D01*
X0141951Y0093268D01*
X0141492Y0094187D02*
X0141033Y0094187D01*
X0127739Y0092809D02*
X0125902Y0092809D01*
X0126820Y0092809D02*
X0126820Y0095564D01*
X0125902Y0094646D01*
X0125020Y0095105D02*
X0124561Y0095564D01*
X0123642Y0095564D01*
X0123183Y0095105D01*
X0123183Y0093268D01*
X0123642Y0092809D01*
X0124561Y0092809D01*
X0125020Y0093268D01*
X0111951Y0094187D02*
X0110115Y0094187D01*
X0111492Y0095564D01*
X0111492Y0092809D01*
X0109233Y0093268D02*
X0108773Y0092809D01*
X0107855Y0092809D01*
X0107396Y0093268D01*
X0107396Y0095105D01*
X0107855Y0095564D01*
X0108773Y0095564D01*
X0109233Y0095105D01*
D19*
X0114661Y0102691D02*
X0117807Y0102691D01*
X0116234Y0104264D01*
X0116234Y0102167D01*
X0115185Y0105429D02*
X0117807Y0105429D01*
X0117807Y0107527D02*
X0115185Y0107527D01*
X0114661Y0107002D01*
X0114661Y0105954D01*
X0115185Y0105429D01*
X0129819Y0105796D02*
X0130343Y0105272D01*
X0132965Y0105272D01*
X0131916Y0104106D02*
X0132965Y0103058D01*
X0129819Y0103058D01*
X0129819Y0104106D02*
X0129819Y0102009D01*
X0129819Y0105796D02*
X0129819Y0106845D01*
X0130343Y0107369D01*
X0132965Y0107369D01*
X0144819Y0106923D02*
X0144819Y0105875D01*
X0145343Y0105350D01*
X0147965Y0105350D01*
X0147440Y0104185D02*
X0147965Y0103661D01*
X0147965Y0102612D01*
X0147440Y0102088D01*
X0146916Y0102088D01*
X0146392Y0102612D01*
X0145867Y0102088D01*
X0145343Y0102088D01*
X0144819Y0102612D01*
X0144819Y0103661D01*
X0145343Y0104185D01*
X0146392Y0103136D02*
X0146392Y0102612D01*
X0144819Y0106923D02*
X0145343Y0107448D01*
X0147965Y0107448D01*
X0160547Y0106845D02*
X0160547Y0105796D01*
X0161071Y0105272D01*
X0163693Y0105272D01*
X0163169Y0104106D02*
X0163693Y0103582D01*
X0163693Y0102533D01*
X0163169Y0102009D01*
X0162644Y0102009D01*
X0160547Y0104106D01*
X0160547Y0102009D01*
X0160547Y0106845D02*
X0161071Y0107369D01*
X0163693Y0107369D01*
D20*
X0224398Y0105623D03*
X0224398Y0115623D03*
X0224398Y0095623D03*
D21*
X0211398Y0095623D03*
X0211398Y0105623D03*
X0211398Y0115623D03*
M02*
