%
M48
M72
T01C0.01969
%
T01
X11028Y15476
X16028Y15476
X21028Y15476
X26028Y15476
X31028Y15476
X36028Y15476
X41028Y15476
X46028Y15476
X51028Y15476
X56028Y15476
X61028Y15476
X66028Y15476
X71028Y15476
X76028Y15476
X81028Y15476
X86028Y15476
X91028Y15476
X96028Y15476
X101028Y15476
X106028Y15476
X106028Y39098
X101028Y39098
X96028Y39098
X91028Y39098
X86028Y39098
X81028Y39098
X76028Y39098
X71028Y39098
X66028Y39098
X61028Y39098
X56028Y39098
X51028Y39098
X46028Y39098
X41028Y39098
X36028Y39098
X31028Y39098
X26028Y39098
X21028Y39098
X16028Y39098
X11028Y39098
X11028Y62720
X16028Y62720
X21028Y62720
X26028Y62720
X31028Y62720
X36028Y62720
X41028Y62720
X46028Y62720
X51028Y62720
X56028Y62720
X61028Y62720
X66028Y62720
X71028Y62720
X76028Y62720
X81028Y62720
X86028Y62720
X91028Y62720
X96028Y62720
X101028Y62720
X106028Y62720
M30
