G75*
%MOIN*%
%OFA0B0*%
%FSLAX25Y25*%
%IPPOS*%
%LPD*%
%AMOC8*
5,1,8,0,0,1.08239X$1,22.5*
%
%ADD10C,0.01200*%
%ADD11C,0.00600*%
D10*
X0049935Y0152458D02*
X0052471Y0152458D01*
X0053105Y0153092D01*
X0053105Y0154360D01*
X0052471Y0154993D01*
X0051203Y0154993D01*
X0051203Y0153726D01*
X0049935Y0154993D02*
X0049301Y0154360D01*
X0049301Y0153092D01*
X0049935Y0152458D01*
X0050569Y0157062D02*
X0050569Y0158963D01*
X0051203Y0159597D01*
X0053105Y0159597D01*
X0052471Y0161666D02*
X0051203Y0161666D01*
X0050569Y0162300D01*
X0050569Y0164201D01*
X0049301Y0164201D02*
X0053105Y0164201D01*
X0053105Y0162300D01*
X0052471Y0161666D01*
X0053105Y0157062D02*
X0050569Y0157062D01*
X0281191Y0153572D02*
X0281191Y0152304D01*
X0281825Y0151670D01*
X0284361Y0151670D01*
X0284994Y0152304D01*
X0284994Y0153572D01*
X0284361Y0154206D01*
X0283093Y0154206D01*
X0283093Y0152938D01*
X0281825Y0154206D02*
X0281191Y0153572D01*
X0282459Y0156274D02*
X0282459Y0158176D01*
X0283093Y0158810D01*
X0284994Y0158810D01*
X0284361Y0160878D02*
X0283093Y0160878D01*
X0282459Y0161512D01*
X0282459Y0163414D01*
X0281191Y0163414D02*
X0284994Y0163414D01*
X0284994Y0161512D01*
X0284361Y0160878D01*
X0284994Y0156274D02*
X0282459Y0156274D01*
X0299686Y0012301D02*
X0299052Y0011667D01*
X0299052Y0009132D01*
X0299686Y0008498D01*
X0300954Y0008498D01*
X0301588Y0009132D01*
X0301588Y0010399D01*
X0300320Y0010399D01*
X0301588Y0011667D02*
X0300954Y0012301D01*
X0299686Y0012301D01*
X0303656Y0011033D02*
X0305558Y0011033D01*
X0306192Y0010399D01*
X0306192Y0008498D01*
X0308260Y0009132D02*
X0308894Y0008498D01*
X0310796Y0008498D01*
X0310796Y0012301D01*
X0310796Y0011033D02*
X0308894Y0011033D01*
X0308260Y0010399D01*
X0308260Y0009132D01*
X0303656Y0008498D02*
X0303656Y0011033D01*
D11*
X0021753Y0013611D02*
X0021753Y0017114D01*
X0022921Y0018282D01*
X0027591Y0018282D01*
X0028759Y0017114D01*
X0028759Y0013611D01*
X0021753Y0013611D01*
X0021753Y0020609D02*
X0028759Y0020609D01*
X0028759Y0025280D01*
X0028759Y0027607D02*
X0028759Y0031110D01*
X0027591Y0032278D01*
X0026424Y0032278D01*
X0025256Y0031110D01*
X0025256Y0027607D01*
X0021753Y0027607D02*
X0021753Y0031110D01*
X0022921Y0032278D01*
X0024088Y0032278D01*
X0025256Y0031110D01*
X0028759Y0027607D02*
X0021753Y0027607D01*
X0021753Y0025280D02*
X0021753Y0020609D01*
X0025256Y0020609D02*
X0025256Y0022944D01*
X0027591Y0034605D02*
X0021753Y0034605D01*
X0021753Y0039276D02*
X0027591Y0039276D01*
X0028759Y0038108D01*
X0028759Y0035773D01*
X0027591Y0034605D01*
X0027591Y0041603D02*
X0022921Y0041603D01*
X0021753Y0042771D01*
X0021753Y0045106D01*
X0022921Y0046274D01*
X0025256Y0046274D02*
X0025256Y0043938D01*
X0025256Y0046274D02*
X0027591Y0046274D01*
X0028759Y0045106D01*
X0028759Y0042771D01*
X0027591Y0041603D01*
X0026424Y0055599D02*
X0026424Y0059102D01*
X0025256Y0060270D01*
X0022921Y0060270D01*
X0021753Y0059102D01*
X0021753Y0055599D01*
X0028759Y0055599D01*
X0028759Y0062597D02*
X0021753Y0062597D01*
X0025256Y0062597D02*
X0025256Y0067267D01*
X0025256Y0069595D02*
X0025256Y0074265D01*
X0024088Y0074265D02*
X0028759Y0074265D01*
X0028759Y0076593D02*
X0021753Y0076593D01*
X0028759Y0081263D01*
X0021753Y0081263D01*
X0021753Y0083591D02*
X0021753Y0088261D01*
X0021753Y0085926D02*
X0028759Y0085926D01*
X0027591Y0090589D02*
X0022921Y0090589D01*
X0021753Y0091756D01*
X0021753Y0094092D01*
X0022921Y0095259D01*
X0027591Y0095259D01*
X0028759Y0094092D01*
X0028759Y0091756D01*
X0027591Y0090589D01*
X0028759Y0097587D02*
X0021753Y0097587D01*
X0024088Y0099922D01*
X0021753Y0102257D01*
X0028759Y0102257D01*
X0026424Y0111583D02*
X0021753Y0111583D01*
X0021753Y0116253D02*
X0026424Y0116253D01*
X0028759Y0113918D01*
X0026424Y0111583D01*
X0028759Y0118581D02*
X0024088Y0123251D01*
X0022921Y0123251D01*
X0021753Y0122084D01*
X0021753Y0119748D01*
X0022921Y0118581D01*
X0028759Y0118581D02*
X0028759Y0123251D01*
X0024088Y0074265D02*
X0021753Y0071930D01*
X0024088Y0069595D01*
X0028759Y0069595D01*
X0028759Y0067267D02*
X0021753Y0067267D01*
X0300457Y0020851D02*
X0300457Y0015851D01*
X0302957Y0013351D01*
X0307957Y0013351D01*
X0310457Y0015851D01*
X0310457Y0020851D01*
X0307957Y0023351D01*
X0302957Y0023351D01*
X0300457Y0020851D01*
M02*
