G75*
%MOIN*%
%OFA0B0*%
%FSLAX25Y25*%
%IPPOS*%
%LPD*%
%AMOC8*
5,1,8,0,0,1.08239X$1,22.5*
%
%ADD10R,0.03543X0.02756*%
%ADD11R,0.02756X0.03543*%
D10*
X0073143Y0015283D03*
X0073143Y0020401D03*
X0083994Y0020401D03*
X0083994Y0015283D03*
X0095239Y0015283D03*
X0095239Y0020401D03*
X0105696Y0020401D03*
X0105696Y0015283D03*
X0116691Y0015283D03*
X0116691Y0020401D03*
X0127792Y0020401D03*
X0127792Y0015283D03*
X0139076Y0015283D03*
X0139076Y0020401D03*
X0149283Y0020401D03*
X0149283Y0015283D03*
X0160528Y0015532D03*
X0170986Y0015532D03*
X0170986Y0020650D03*
X0160528Y0020650D03*
X0182087Y0020794D03*
X0182087Y0015676D03*
X0193187Y0015676D03*
X0193187Y0020794D03*
X0203789Y0021044D03*
X0203789Y0015926D03*
X0203789Y0037695D03*
X0203789Y0042813D03*
X0192794Y0042813D03*
X0192794Y0037695D03*
X0181693Y0037695D03*
X0181693Y0042813D03*
X0171235Y0042813D03*
X0171235Y0037695D03*
X0160135Y0037695D03*
X0160135Y0042813D03*
X0149389Y0042813D03*
X0149389Y0037695D03*
X0138643Y0037695D03*
X0138643Y0042813D03*
X0127792Y0042669D03*
X0127792Y0037551D03*
X0116691Y0037551D03*
X0116691Y0042669D03*
X0105696Y0042669D03*
X0105696Y0037551D03*
X0095239Y0037551D03*
X0095239Y0042669D03*
X0083888Y0042813D03*
X0083888Y0037695D03*
X0073143Y0037695D03*
X0073143Y0042813D03*
X0073143Y0060108D03*
X0073143Y0065226D03*
X0083994Y0065226D03*
X0083994Y0060108D03*
X0095094Y0060108D03*
X0095094Y0065226D03*
X0105696Y0065226D03*
X0105696Y0060108D03*
X0116547Y0060108D03*
X0116547Y0065226D03*
X0127792Y0064832D03*
X0127792Y0059714D03*
X0138643Y0059714D03*
X0138643Y0064832D03*
X0149389Y0064832D03*
X0149389Y0059714D03*
X0160490Y0059714D03*
X0160490Y0064832D03*
X0170947Y0064832D03*
X0170947Y0059714D03*
X0181943Y0059714D03*
X0181943Y0064832D03*
X0192794Y0064832D03*
X0192794Y0059714D03*
X0203789Y0059714D03*
X0203789Y0064832D03*
X0209088Y0122896D03*
X0209088Y0128014D03*
X0219901Y0128014D03*
X0219901Y0122896D03*
X0230963Y0122896D03*
X0230963Y0128014D03*
X0241526Y0128014D03*
X0241526Y0122896D03*
X0252588Y0122896D03*
X0252588Y0128014D03*
X0263401Y0128014D03*
X0263401Y0122896D03*
X0263151Y0145414D03*
X0263151Y0150532D03*
X0252194Y0150532D03*
X0252194Y0145414D03*
X0241526Y0145414D03*
X0241526Y0150532D03*
X0230963Y0150532D03*
X0230963Y0145414D03*
X0219901Y0145414D03*
X0219901Y0150532D03*
X0209088Y0150532D03*
X0209088Y0145414D03*
X0197882Y0145414D03*
X0197882Y0150532D03*
X0186820Y0150532D03*
X0186820Y0145414D03*
X0176401Y0145414D03*
X0176401Y0150532D03*
X0165588Y0150532D03*
X0165588Y0145414D03*
X0154526Y0145414D03*
X0154526Y0150532D03*
X0143963Y0150532D03*
X0143963Y0145414D03*
X0132901Y0145414D03*
X0132901Y0150532D03*
X0121694Y0150532D03*
X0121694Y0145414D03*
X0111420Y0145414D03*
X0111420Y0150532D03*
X0100213Y0150532D03*
X0100213Y0145414D03*
X0089401Y0145414D03*
X0089401Y0150532D03*
X0078982Y0150532D03*
X0078982Y0145414D03*
X0068313Y0145414D03*
X0068313Y0150532D03*
X0068025Y0167683D03*
X0068025Y0172801D03*
X0078982Y0172657D03*
X0089401Y0172801D03*
X0089401Y0167683D03*
X0078982Y0167539D03*
X0100213Y0167539D03*
X0100213Y0172657D03*
X0111420Y0172801D03*
X0111420Y0167683D03*
X0121694Y0167683D03*
X0121694Y0172801D03*
X0132901Y0172801D03*
X0132901Y0167683D03*
X0143963Y0168076D03*
X0143963Y0173194D03*
X0154526Y0173194D03*
X0154526Y0168076D03*
X0166126Y0168076D03*
X0166126Y0173194D03*
X0176401Y0173194D03*
X0176401Y0168076D03*
X0187213Y0168076D03*
X0187213Y0173194D03*
X0197488Y0173194D03*
X0197488Y0168076D03*
X0209482Y0168076D03*
X0209482Y0173194D03*
X0220294Y0173194D03*
X0220294Y0168076D03*
X0230963Y0168076D03*
X0230963Y0173194D03*
X0241526Y0173194D03*
X0241526Y0168076D03*
X0252588Y0168076D03*
X0252588Y0173194D03*
X0263151Y0173194D03*
X0263151Y0168076D03*
X0197882Y0128014D03*
X0197882Y0122896D03*
X0187213Y0122896D03*
X0187213Y0128014D03*
X0176401Y0128014D03*
X0176401Y0122896D03*
X0165588Y0122896D03*
X0165588Y0128014D03*
X0154526Y0128014D03*
X0154526Y0122896D03*
X0143963Y0122896D03*
X0143963Y0128014D03*
X0132901Y0128014D03*
X0132901Y0122896D03*
X0121694Y0122896D03*
X0121694Y0128014D03*
X0111420Y0128014D03*
X0111420Y0122896D03*
X0100272Y0122955D03*
X0100272Y0128073D03*
X0089401Y0128073D03*
X0089401Y0122955D03*
X0078982Y0122955D03*
X0078982Y0128073D03*
X0067920Y0128073D03*
X0067920Y0122955D03*
D11*
X0064994Y0031410D03*
X0070113Y0031410D03*
X0075635Y0026686D03*
X0080753Y0026686D03*
X0086985Y0031410D03*
X0092103Y0031410D03*
X0098480Y0027080D03*
X0103598Y0027080D03*
X0109475Y0031660D03*
X0114593Y0031660D03*
X0119683Y0026935D03*
X0124801Y0026935D03*
X0130928Y0031660D03*
X0136046Y0031660D03*
X0141673Y0026935D03*
X0146791Y0026935D03*
X0153062Y0031660D03*
X0158180Y0031660D03*
X0164307Y0026935D03*
X0169425Y0026935D03*
X0174765Y0031660D03*
X0179883Y0031660D03*
X0184684Y0026935D03*
X0189802Y0026935D03*
X0196323Y0031660D03*
X0201441Y0031660D03*
X0207069Y0026935D03*
X0212187Y0026935D03*
X0212974Y0049636D03*
X0207856Y0049636D03*
X0201297Y0053967D03*
X0196179Y0053967D03*
X0190446Y0049492D03*
X0185328Y0049492D03*
X0179844Y0053823D03*
X0174726Y0053823D03*
X0169387Y0049492D03*
X0164269Y0049492D03*
X0157892Y0053823D03*
X0152774Y0053823D03*
X0147041Y0049492D03*
X0141923Y0049492D03*
X0136046Y0053823D03*
X0130928Y0053823D03*
X0125050Y0049492D03*
X0119932Y0049492D03*
X0114593Y0054217D03*
X0109475Y0054217D03*
X0103598Y0049492D03*
X0098480Y0049492D03*
X0092103Y0054217D03*
X0086985Y0054217D03*
X0080858Y0049492D03*
X0075740Y0049492D03*
X0070113Y0054217D03*
X0064994Y0054217D03*
X0071017Y0134155D03*
X0076135Y0134155D03*
X0081435Y0138880D03*
X0086554Y0138880D03*
X0091854Y0134155D03*
X0096972Y0134155D03*
X0102917Y0138880D03*
X0108035Y0138880D03*
X0114267Y0134155D03*
X0119385Y0134155D03*
X0124686Y0138880D03*
X0129804Y0138880D03*
X0135354Y0134155D03*
X0140472Y0134155D03*
X0146561Y0138880D03*
X0151679Y0138880D03*
X0157229Y0134155D03*
X0162347Y0134155D03*
X0168186Y0138880D03*
X0173304Y0138880D03*
X0178998Y0134155D03*
X0184117Y0134155D03*
X0190061Y0138880D03*
X0195179Y0138880D03*
X0200873Y0134155D03*
X0205991Y0134155D03*
X0211542Y0138880D03*
X0216660Y0138880D03*
X0222748Y0134155D03*
X0227866Y0134155D03*
X0233417Y0138880D03*
X0238535Y0138880D03*
X0244229Y0134155D03*
X0249347Y0134155D03*
X0255186Y0138880D03*
X0260304Y0138880D03*
X0249347Y0156673D03*
X0244229Y0156673D03*
X0238535Y0161398D03*
X0233417Y0161398D03*
X0227866Y0156673D03*
X0222748Y0156673D03*
X0216660Y0161398D03*
X0211542Y0161398D03*
X0205991Y0156673D03*
X0200873Y0156673D03*
X0195035Y0161398D03*
X0189917Y0161398D03*
X0183972Y0156673D03*
X0178854Y0156673D03*
X0173160Y0161398D03*
X0168042Y0161398D03*
X0162347Y0156673D03*
X0157229Y0156673D03*
X0151679Y0161398D03*
X0146561Y0161398D03*
X0140328Y0156673D03*
X0135210Y0156673D03*
X0129660Y0161398D03*
X0124542Y0161398D03*
X0119241Y0156673D03*
X0114123Y0156673D03*
X0108035Y0161398D03*
X0102917Y0161398D03*
X0096972Y0156673D03*
X0091854Y0156673D03*
X0086554Y0161398D03*
X0081435Y0161398D03*
X0075741Y0156673D03*
X0070623Y0156673D03*
X0254398Y0161398D03*
X0259517Y0161398D03*
M02*
