G75*
%MOIN*%
%OFA0B0*%
%FSLAX25Y25*%
%IPPOS*%
%LPD*%
%AMOC8*
5,1,8,0,0,1.08239X$1,22.5*
%
%ADD10C,0.01600*%
%ADD11OC8,0.06984*%
%ADD12C,0.20984*%
%ADD13R,0.05346X0.05346*%
D10*
X0018705Y0146264D02*
X0018705Y0168764D01*
X0038331Y0168764D01*
X0039562Y0168667D01*
X0040764Y0168378D01*
X0041905Y0167906D01*
X0042959Y0167260D01*
X0043898Y0166458D01*
X0044701Y0165518D01*
X0045347Y0164464D01*
X0045819Y0163323D01*
X0046108Y0162122D01*
X0046205Y0160890D01*
X0046205Y0154138D01*
X0046108Y0152906D01*
X0045819Y0151705D01*
X0045347Y0150563D01*
X0044701Y0149510D01*
X0043898Y0148570D01*
X0042959Y0147768D01*
X0041905Y0147122D01*
X0040764Y0146649D01*
X0039562Y0146361D01*
X0038331Y0146264D01*
X0018705Y0146264D01*
X0018705Y0146441D02*
X0018705Y0168941D01*
X0038331Y0168941D01*
X0039562Y0168844D01*
X0040764Y0168556D01*
X0041905Y0168083D01*
X0042959Y0167437D01*
X0043898Y0166635D01*
X0044701Y0165695D01*
X0045347Y0164642D01*
X0045819Y0163500D01*
X0046108Y0162299D01*
X0046205Y0161067D01*
X0046205Y0154315D01*
X0046108Y0153083D01*
X0045819Y0151882D01*
X0045347Y0150740D01*
X0044701Y0149687D01*
X0043898Y0148747D01*
X0042959Y0147945D01*
X0041905Y0147299D01*
X0040764Y0146826D01*
X0039562Y0146538D01*
X0038331Y0146441D01*
X0018705Y0146441D01*
X0018705Y0147500D02*
X0042233Y0147500D01*
X0042522Y0147500D02*
X0018705Y0147500D01*
X0018705Y0149098D02*
X0044198Y0149098D01*
X0044350Y0149098D02*
X0018705Y0149098D01*
X0018705Y0150697D02*
X0045320Y0150697D01*
X0045402Y0150697D02*
X0018705Y0150697D01*
X0018705Y0152295D02*
X0045919Y0152295D01*
X0045961Y0152295D02*
X0018705Y0152295D01*
X0018705Y0153894D02*
X0046172Y0153894D01*
X0046186Y0153894D02*
X0018705Y0153894D01*
X0018705Y0155492D02*
X0046205Y0155492D01*
X0018705Y0155492D01*
X0018705Y0157091D02*
X0046205Y0157091D01*
X0018705Y0157091D01*
X0018705Y0158689D02*
X0046205Y0158689D01*
X0018705Y0158689D01*
X0018705Y0160288D02*
X0046205Y0160288D01*
X0018705Y0160288D01*
X0018705Y0161886D02*
X0046140Y0161886D01*
X0046126Y0161886D02*
X0018705Y0161886D01*
X0018705Y0163485D02*
X0045823Y0163485D01*
X0045752Y0163485D02*
X0018705Y0163485D01*
X0018705Y0165083D02*
X0045076Y0165083D01*
X0044967Y0165083D02*
X0018705Y0165083D01*
X0018705Y0166682D02*
X0043843Y0166682D01*
X0043636Y0166682D02*
X0018705Y0166682D01*
X0018705Y0168280D02*
X0041428Y0168280D01*
X0041001Y0168280D02*
X0018705Y0168280D01*
X0287898Y0160102D02*
X0287898Y0153350D01*
X0287995Y0152119D01*
X0288283Y0150917D01*
X0288756Y0149776D01*
X0289401Y0148722D01*
X0290204Y0147783D01*
X0291143Y0146980D01*
X0292197Y0146335D01*
X0293338Y0145862D01*
X0294540Y0145573D01*
X0295772Y0145476D01*
X0315398Y0145476D01*
X0315398Y0167976D01*
X0295772Y0167976D01*
X0294540Y0167879D01*
X0293338Y0167591D01*
X0292197Y0167118D01*
X0291143Y0166473D01*
X0290204Y0165670D01*
X0289401Y0164731D01*
X0288756Y0163677D01*
X0288283Y0162536D01*
X0287995Y0161334D01*
X0287898Y0160102D01*
X0287912Y0160288D02*
X0315398Y0160288D01*
X0315398Y0161886D02*
X0288127Y0161886D01*
X0288676Y0163485D02*
X0315398Y0163485D01*
X0315398Y0165083D02*
X0289703Y0165083D01*
X0291485Y0166682D02*
X0315398Y0166682D01*
X0315398Y0158689D02*
X0287898Y0158689D01*
X0287898Y0157091D02*
X0315398Y0157091D01*
X0315398Y0155492D02*
X0287898Y0155492D01*
X0287898Y0153894D02*
X0315398Y0153894D01*
X0315398Y0152295D02*
X0287981Y0152295D01*
X0288374Y0150697D02*
X0315398Y0150697D01*
X0315398Y0149098D02*
X0289171Y0149098D01*
X0290535Y0147500D02*
X0315398Y0147500D01*
X0315398Y0145901D02*
X0293243Y0145901D01*
D11*
X0263388Y0099549D03*
X0252588Y0099549D03*
X0241688Y0099549D03*
X0230788Y0099549D03*
X0219988Y0099549D03*
X0209088Y0099549D03*
X0198188Y0099549D03*
X0187288Y0099549D03*
X0176488Y0099549D03*
X0165588Y0099549D03*
X0154688Y0099549D03*
X0143888Y0099549D03*
X0132988Y0099549D03*
X0122088Y0099549D03*
X0111288Y0099549D03*
X0100388Y0099549D03*
X0089488Y0099549D03*
X0078688Y0099549D03*
X0067788Y0099549D03*
X0073188Y0088349D03*
X0084088Y0088349D03*
X0094988Y0088349D03*
X0105788Y0088349D03*
X0116688Y0088349D03*
X0127588Y0088349D03*
X0138388Y0088349D03*
X0149288Y0088349D03*
X0160188Y0088349D03*
X0170988Y0088349D03*
X0181888Y0088349D03*
X0192788Y0088349D03*
X0203688Y0088349D03*
X0214488Y0088349D03*
X0225388Y0088349D03*
X0236288Y0088349D03*
X0247088Y0088349D03*
X0257988Y0088349D03*
X0305457Y0018351D03*
D12*
X0290588Y0093949D03*
X0040588Y0093949D03*
D13*
X0056618Y0056618D03*
X0055437Y0065673D03*
X0066461Y0066461D03*
X0066461Y0074335D03*
X0216067Y0074335D03*
X0223941Y0068429D03*
X0271185Y0125516D03*
X0277484Y0141264D03*
M02*
