G75*
%MOIN*%
%OFA0B0*%
%FSLAX25Y25*%
%IPPOS*%
%LPD*%
%AMOC8*
5,1,8,0,0,1.08239X$1,22.5*
%
%ADD10OC8,0.06400*%
%ADD11C,0.20000*%
%ADD12C,0.06400*%
%ADD13C,0.01575*%
D10*
X0130578Y0076800D03*
X0141378Y0076800D03*
X0152278Y0076800D03*
X0163178Y0076800D03*
X0173978Y0076800D03*
X0184878Y0076800D03*
X0195778Y0076800D03*
X0206678Y0076800D03*
X0217478Y0076800D03*
X0228378Y0076800D03*
X0239278Y0076800D03*
X0250078Y0076800D03*
X0260978Y0076800D03*
X0271878Y0076800D03*
X0282678Y0076800D03*
X0293578Y0076800D03*
X0304478Y0076800D03*
X0315278Y0076800D03*
X0326178Y0076800D03*
X0320778Y0066800D03*
X0309878Y0066800D03*
X0298978Y0066800D03*
X0288178Y0066800D03*
X0277278Y0066800D03*
X0266378Y0066800D03*
X0255578Y0066800D03*
X0244678Y0066800D03*
X0233778Y0066800D03*
X0222978Y0066800D03*
X0212078Y0066800D03*
X0201178Y0066800D03*
X0190278Y0066800D03*
X0179478Y0066800D03*
X0168578Y0066800D03*
X0157678Y0066800D03*
X0146878Y0066800D03*
X0135978Y0066800D03*
X0130657Y0224095D03*
X0141557Y0224095D03*
X0152357Y0224095D03*
X0163257Y0224095D03*
X0174157Y0224095D03*
X0184957Y0224095D03*
X0195857Y0224095D03*
X0206757Y0224095D03*
X0217557Y0224095D03*
X0228457Y0224095D03*
X0239357Y0224095D03*
X0250157Y0224095D03*
X0261057Y0224095D03*
X0271957Y0224095D03*
X0282857Y0224095D03*
X0293657Y0224095D03*
X0304557Y0224095D03*
X0315457Y0224095D03*
X0326257Y0224095D03*
X0320857Y0234095D03*
X0309957Y0234095D03*
X0299157Y0234095D03*
X0288257Y0234095D03*
X0277357Y0234095D03*
X0266457Y0234095D03*
X0255657Y0234095D03*
X0244757Y0234095D03*
X0233857Y0234095D03*
X0223057Y0234095D03*
X0212157Y0234095D03*
X0201257Y0234095D03*
X0190457Y0234095D03*
X0179557Y0234095D03*
X0168657Y0234095D03*
X0157857Y0234095D03*
X0146957Y0234095D03*
X0136057Y0234095D03*
D11*
X0103457Y0229095D03*
X0103378Y0071800D03*
X0353378Y0071800D03*
X0353457Y0229095D03*
D12*
X0323842Y0198992D02*
X0323842Y0192592D01*
X0313842Y0192592D02*
X0313842Y0198992D01*
X0303842Y0198992D02*
X0303842Y0192592D01*
X0303842Y0183244D02*
X0303842Y0176844D01*
X0303842Y0167496D02*
X0303842Y0161096D01*
X0293842Y0161096D02*
X0293842Y0167496D01*
X0283842Y0167496D02*
X0283842Y0161096D01*
X0273842Y0161096D02*
X0273842Y0167496D01*
X0273842Y0176844D02*
X0273842Y0183244D01*
X0273842Y0192592D02*
X0273842Y0198992D01*
X0263842Y0198992D02*
X0263842Y0192592D01*
X0253842Y0192592D02*
X0253842Y0198992D01*
X0243842Y0198992D02*
X0243842Y0192592D01*
X0233842Y0192592D02*
X0233842Y0198992D01*
X0233842Y0183244D02*
X0233842Y0176844D01*
X0243842Y0176844D02*
X0243842Y0183244D01*
X0253842Y0183244D02*
X0253842Y0176844D01*
X0263842Y0176844D02*
X0263842Y0183244D01*
X0263842Y0167496D02*
X0263842Y0161096D01*
X0253842Y0161096D02*
X0253842Y0167496D01*
X0243842Y0167496D02*
X0243842Y0161096D01*
X0233842Y0161096D02*
X0233842Y0167496D01*
X0233590Y0146126D02*
X0233590Y0139726D01*
X0233590Y0130378D02*
X0233590Y0123978D01*
X0233590Y0114630D02*
X0233590Y0108230D01*
X0243590Y0108230D02*
X0243590Y0114630D01*
X0243590Y0123978D02*
X0243590Y0130378D01*
X0243590Y0139726D02*
X0243590Y0146126D01*
X0253590Y0146126D02*
X0253590Y0139726D01*
X0263590Y0139726D02*
X0263590Y0146126D01*
X0273590Y0146126D02*
X0273590Y0139726D01*
X0273590Y0130378D02*
X0273590Y0123978D01*
X0273590Y0114630D02*
X0273590Y0108230D01*
X0263590Y0108230D02*
X0263590Y0114630D01*
X0253590Y0114630D02*
X0253590Y0108230D01*
X0253590Y0123978D02*
X0253590Y0130378D01*
X0263590Y0130378D02*
X0263590Y0123978D01*
X0283590Y0123978D02*
X0283590Y0130378D01*
X0293590Y0130378D02*
X0293590Y0123978D01*
X0293590Y0114630D02*
X0293590Y0108230D01*
X0283590Y0108230D02*
X0283590Y0114630D01*
X0303590Y0114630D02*
X0303590Y0108230D01*
X0313590Y0108230D02*
X0313590Y0114630D01*
X0313590Y0123978D02*
X0313590Y0130378D01*
X0303590Y0130378D02*
X0303590Y0123978D01*
X0323590Y0123978D02*
X0323590Y0130378D01*
X0323590Y0139726D02*
X0323590Y0146126D01*
X0313590Y0146126D02*
X0313590Y0139726D01*
X0303590Y0139726D02*
X0303590Y0146126D01*
X0293590Y0146126D02*
X0293590Y0139726D01*
X0283590Y0139726D02*
X0283590Y0146126D01*
X0313842Y0161096D02*
X0313842Y0167496D01*
X0323842Y0167496D02*
X0323842Y0161096D01*
X0323842Y0176844D02*
X0323842Y0183244D01*
X0313842Y0183244D02*
X0313842Y0176844D01*
X0293842Y0176844D02*
X0293842Y0183244D01*
X0283842Y0183244D02*
X0283842Y0176844D01*
X0283842Y0192592D02*
X0283842Y0198992D01*
X0293842Y0198992D02*
X0293842Y0192592D01*
X0205228Y0146126D02*
X0205228Y0139726D01*
X0205228Y0130378D02*
X0205228Y0123978D01*
X0205228Y0114630D02*
X0205228Y0108230D01*
X0195228Y0108230D02*
X0195228Y0114630D01*
X0185228Y0114630D02*
X0185228Y0108230D01*
X0175228Y0108230D02*
X0175228Y0114630D01*
X0175228Y0123978D02*
X0175228Y0130378D01*
X0175228Y0139726D02*
X0175228Y0146126D01*
X0165228Y0146126D02*
X0165228Y0139726D01*
X0155228Y0139726D02*
X0155228Y0146126D01*
X0145228Y0146126D02*
X0145228Y0139726D01*
X0145228Y0130378D02*
X0145228Y0123978D01*
X0145228Y0114630D02*
X0145228Y0108230D01*
X0135228Y0108230D02*
X0135228Y0114630D01*
X0125228Y0114630D02*
X0125228Y0108230D01*
X0115228Y0108230D02*
X0115228Y0114630D01*
X0115228Y0123978D02*
X0115228Y0130378D01*
X0115228Y0139726D02*
X0115228Y0146126D01*
X0125228Y0146126D02*
X0125228Y0139726D01*
X0135228Y0139726D02*
X0135228Y0146126D01*
X0135228Y0130378D02*
X0135228Y0123978D01*
X0125228Y0123978D02*
X0125228Y0130378D01*
X0155228Y0130378D02*
X0155228Y0123978D01*
X0165228Y0123978D02*
X0165228Y0130378D01*
X0165228Y0114630D02*
X0165228Y0108230D01*
X0155228Y0108230D02*
X0155228Y0114630D01*
X0185228Y0123978D02*
X0185228Y0130378D01*
X0195228Y0130378D02*
X0195228Y0123978D01*
X0195228Y0139726D02*
X0195228Y0146126D01*
X0185228Y0146126D02*
X0185228Y0139726D01*
X0184504Y0162096D02*
X0184504Y0168496D01*
X0174504Y0168496D02*
X0174504Y0162096D01*
X0164504Y0162096D02*
X0164504Y0168496D01*
X0154504Y0168496D02*
X0154504Y0162096D01*
X0144504Y0162096D02*
X0144504Y0168496D01*
X0144504Y0177844D02*
X0144504Y0184244D01*
X0144504Y0193592D02*
X0144504Y0199992D01*
X0154504Y0199992D02*
X0154504Y0193592D01*
X0164504Y0193592D02*
X0164504Y0199992D01*
X0174504Y0199992D02*
X0174504Y0193592D01*
X0184504Y0193592D02*
X0184504Y0199992D01*
X0184504Y0184244D02*
X0184504Y0177844D01*
X0174504Y0177844D02*
X0174504Y0184244D01*
X0164504Y0184244D02*
X0164504Y0177844D01*
X0154504Y0177844D02*
X0154504Y0184244D01*
X0134504Y0184244D02*
X0134504Y0177844D01*
X0124504Y0177844D02*
X0124504Y0184244D01*
X0124504Y0193592D02*
X0124504Y0199992D01*
X0134504Y0199992D02*
X0134504Y0193592D01*
X0134504Y0168496D02*
X0134504Y0162096D01*
X0124504Y0162096D02*
X0124504Y0168496D01*
X0323590Y0114630D02*
X0323590Y0108230D01*
D13*
X0094461Y0061218D02*
X0094461Y0030246D01*
X0361326Y0030246D01*
X0361326Y0060469D01*
X0358700Y0058952D01*
X0355193Y0058013D01*
X0351563Y0058013D01*
X0348056Y0058952D01*
X0344912Y0060767D01*
X0342345Y0063334D01*
X0340530Y0066478D01*
X0339590Y0069985D01*
X0339590Y0073615D01*
X0340530Y0077122D01*
X0342345Y0080266D01*
X0344912Y0082833D01*
X0348056Y0084648D01*
X0351563Y0085587D01*
X0355193Y0085587D01*
X0358700Y0084648D01*
X0361326Y0083131D01*
X0361326Y0217718D01*
X0358778Y0216247D01*
X0355272Y0215308D01*
X0351641Y0215308D01*
X0348135Y0216247D01*
X0344991Y0218063D01*
X0342424Y0220630D01*
X0340609Y0223774D01*
X0339669Y0227280D01*
X0339669Y0230910D01*
X0340609Y0234417D01*
X0342424Y0237561D01*
X0344991Y0240128D01*
X0348135Y0241943D01*
X0351641Y0242883D01*
X0355272Y0242883D01*
X0358778Y0241943D01*
X0361326Y0240472D01*
X0361326Y0269945D01*
X0104566Y0269945D01*
X0094461Y0269945D01*
X0094461Y0239598D01*
X0094991Y0240128D01*
X0098135Y0241943D01*
X0101641Y0242883D01*
X0105272Y0242883D01*
X0108778Y0241943D01*
X0111922Y0240128D01*
X0114489Y0237561D01*
X0116304Y0234417D01*
X0117244Y0230910D01*
X0117244Y0227280D01*
X0116304Y0223774D01*
X0114489Y0220630D01*
X0111922Y0218063D01*
X0108778Y0216247D01*
X0105272Y0215308D01*
X0101641Y0215308D01*
X0098135Y0216247D01*
X0094991Y0218063D01*
X0094461Y0218592D01*
X0094461Y0082382D01*
X0094912Y0082833D01*
X0098056Y0084648D01*
X0101563Y0085587D01*
X0105193Y0085587D01*
X0108700Y0084648D01*
X0111843Y0082833D01*
X0114410Y0080266D01*
X0116226Y0077122D01*
X0117165Y0073615D01*
X0117165Y0069985D01*
X0116226Y0066478D01*
X0114410Y0063334D01*
X0111843Y0060767D01*
X0108700Y0058952D01*
X0105193Y0058013D01*
X0101563Y0058013D01*
X0098056Y0058952D01*
X0094912Y0060767D01*
X0094461Y0061218D01*
X0094461Y0059808D02*
X0096574Y0059808D01*
X0094461Y0058234D02*
X0100735Y0058234D01*
X0106020Y0058234D02*
X0350735Y0058234D01*
X0346574Y0059808D02*
X0110181Y0059808D01*
X0112457Y0061381D02*
X0131515Y0061381D01*
X0133084Y0059813D02*
X0138872Y0059813D01*
X0141428Y0062368D01*
X0143984Y0059813D01*
X0149772Y0059813D01*
X0152278Y0062318D01*
X0154784Y0059813D01*
X0160572Y0059813D01*
X0163128Y0062368D01*
X0165684Y0059813D01*
X0171472Y0059813D01*
X0174028Y0062368D01*
X0176584Y0059813D01*
X0182372Y0059813D01*
X0184878Y0062318D01*
X0187384Y0059813D01*
X0193172Y0059813D01*
X0195728Y0062368D01*
X0198284Y0059813D01*
X0204072Y0059813D01*
X0206628Y0062368D01*
X0209184Y0059813D01*
X0214972Y0059813D01*
X0217528Y0062368D01*
X0220084Y0059813D01*
X0225872Y0059813D01*
X0228378Y0062318D01*
X0230884Y0059813D01*
X0236672Y0059813D01*
X0239228Y0062368D01*
X0241784Y0059813D01*
X0247572Y0059813D01*
X0250128Y0062368D01*
X0252684Y0059813D01*
X0258472Y0059813D01*
X0260978Y0062318D01*
X0263484Y0059813D01*
X0269272Y0059813D01*
X0271828Y0062368D01*
X0274384Y0059813D01*
X0280172Y0059813D01*
X0282728Y0062368D01*
X0285284Y0059813D01*
X0291072Y0059813D01*
X0293578Y0062318D01*
X0296084Y0059813D01*
X0301872Y0059813D01*
X0304428Y0062368D01*
X0306984Y0059813D01*
X0312772Y0059813D01*
X0315328Y0062368D01*
X0317884Y0059813D01*
X0323672Y0059813D01*
X0327765Y0063906D01*
X0327765Y0069694D01*
X0327647Y0069813D01*
X0329072Y0069813D01*
X0333165Y0073906D01*
X0333165Y0079694D01*
X0329072Y0083787D01*
X0328165Y0083787D01*
X0328165Y0102923D01*
X0329514Y0104272D01*
X0330578Y0106840D01*
X0330578Y0116020D01*
X0329514Y0118588D01*
X0328798Y0119304D01*
X0329514Y0120020D01*
X0330578Y0122588D01*
X0330578Y0131768D01*
X0329514Y0134336D01*
X0328798Y0135052D01*
X0329514Y0135768D01*
X0330578Y0138336D01*
X0330578Y0147516D01*
X0329514Y0150084D01*
X0328077Y0151521D01*
X0327469Y0152990D01*
X0326023Y0154436D01*
X0327800Y0155172D01*
X0329766Y0157138D01*
X0330830Y0159706D01*
X0330830Y0168886D01*
X0329766Y0171454D01*
X0329050Y0172170D01*
X0329766Y0172886D01*
X0330830Y0175454D01*
X0330830Y0184634D01*
X0329766Y0187202D01*
X0329050Y0187918D01*
X0329766Y0188634D01*
X0330830Y0191202D01*
X0330830Y0200382D01*
X0329766Y0202950D01*
X0327800Y0204916D01*
X0325232Y0205980D01*
X0323504Y0205980D01*
X0323504Y0214873D01*
X0325739Y0217108D01*
X0329151Y0217108D01*
X0333244Y0221201D01*
X0333244Y0226990D01*
X0329151Y0231083D01*
X0327726Y0231083D01*
X0327844Y0231201D01*
X0327844Y0236990D01*
X0323751Y0241083D01*
X0317962Y0241083D01*
X0315407Y0238527D01*
X0312851Y0241083D01*
X0307062Y0241083D01*
X0304557Y0238577D01*
X0302051Y0241083D01*
X0296262Y0241083D01*
X0293707Y0238527D01*
X0291151Y0241083D01*
X0285362Y0241083D01*
X0282807Y0238527D01*
X0280251Y0241083D01*
X0274462Y0241083D01*
X0271907Y0238527D01*
X0269351Y0241083D01*
X0263562Y0241083D01*
X0261057Y0238577D01*
X0258551Y0241083D01*
X0252762Y0241083D01*
X0250207Y0238527D01*
X0247651Y0241083D01*
X0241862Y0241083D01*
X0239307Y0238527D01*
X0236751Y0241083D01*
X0230962Y0241083D01*
X0228457Y0238577D01*
X0225951Y0241083D01*
X0220162Y0241083D01*
X0217607Y0238527D01*
X0215051Y0241083D01*
X0209262Y0241083D01*
X0206707Y0238527D01*
X0204151Y0241083D01*
X0198362Y0241083D01*
X0195857Y0238577D01*
X0193351Y0241083D01*
X0187562Y0241083D01*
X0185007Y0238527D01*
X0182451Y0241083D01*
X0176662Y0241083D01*
X0174107Y0238527D01*
X0171551Y0241083D01*
X0165762Y0241083D01*
X0163257Y0238577D01*
X0160751Y0241083D01*
X0154962Y0241083D01*
X0152407Y0238527D01*
X0149851Y0241083D01*
X0144062Y0241083D01*
X0141507Y0238527D01*
X0138951Y0241083D01*
X0133162Y0241083D01*
X0129069Y0236990D01*
X0129069Y0231201D01*
X0129187Y0231083D01*
X0127762Y0231083D01*
X0123669Y0226990D01*
X0123669Y0221201D01*
X0124954Y0219916D01*
X0124954Y0206980D01*
X0123114Y0206980D01*
X0120546Y0205916D01*
X0118580Y0203950D01*
X0117516Y0201382D01*
X0117516Y0192202D01*
X0118580Y0189634D01*
X0119296Y0188918D01*
X0118580Y0188202D01*
X0117516Y0185634D01*
X0117516Y0176454D01*
X0118580Y0173886D01*
X0119296Y0173170D01*
X0118580Y0172454D01*
X0117516Y0169886D01*
X0117516Y0160706D01*
X0118580Y0158138D01*
X0120546Y0156172D01*
X0121625Y0155725D01*
X0121350Y0155450D01*
X0120653Y0153769D01*
X0120653Y0151433D01*
X0120228Y0151008D01*
X0119186Y0152050D01*
X0116618Y0153113D01*
X0113838Y0153113D01*
X0111270Y0152050D01*
X0109305Y0150084D01*
X0108241Y0147516D01*
X0108241Y0138336D01*
X0109305Y0135768D01*
X0110021Y0135052D01*
X0109305Y0134336D01*
X0108241Y0131768D01*
X0108241Y0122588D01*
X0109305Y0120020D01*
X0110021Y0119304D01*
X0109305Y0118588D01*
X0108241Y0116020D01*
X0108241Y0106840D01*
X0109305Y0104272D01*
X0111270Y0102306D01*
X0113838Y0101243D01*
X0116618Y0101243D01*
X0119186Y0102306D01*
X0120228Y0103348D01*
X0120653Y0102923D01*
X0120653Y0081240D01*
X0121350Y0079558D01*
X0123590Y0077318D01*
X0123590Y0073906D01*
X0127684Y0069813D01*
X0129109Y0069813D01*
X0128990Y0069694D01*
X0128990Y0063906D01*
X0133084Y0059813D01*
X0129942Y0062954D02*
X0114030Y0062954D01*
X0115099Y0064528D02*
X0128990Y0064528D01*
X0128990Y0066101D02*
X0116008Y0066101D01*
X0116546Y0067674D02*
X0128990Y0067674D01*
X0128990Y0069247D02*
X0116968Y0069247D01*
X0117165Y0070821D02*
X0126675Y0070821D01*
X0125102Y0072394D02*
X0117165Y0072394D01*
X0117071Y0073967D02*
X0123590Y0073967D01*
X0123590Y0075541D02*
X0116649Y0075541D01*
X0116228Y0077114D02*
X0123590Y0077114D01*
X0122221Y0078687D02*
X0115322Y0078687D01*
X0114413Y0080261D02*
X0121059Y0080261D01*
X0120653Y0081834D02*
X0112842Y0081834D01*
X0110848Y0083407D02*
X0120653Y0083407D01*
X0120653Y0084981D02*
X0107457Y0084981D01*
X0099298Y0084981D02*
X0094461Y0084981D01*
X0094461Y0086554D02*
X0120653Y0086554D01*
X0120653Y0088127D02*
X0094461Y0088127D01*
X0094461Y0089701D02*
X0120653Y0089701D01*
X0120653Y0091274D02*
X0094461Y0091274D01*
X0094461Y0092847D02*
X0120653Y0092847D01*
X0120653Y0094421D02*
X0094461Y0094421D01*
X0094461Y0095994D02*
X0120653Y0095994D01*
X0120653Y0097567D02*
X0094461Y0097567D01*
X0094461Y0099140D02*
X0120653Y0099140D01*
X0120653Y0100714D02*
X0094461Y0100714D01*
X0094461Y0102287D02*
X0111316Y0102287D01*
X0109716Y0103860D02*
X0094461Y0103860D01*
X0094461Y0105434D02*
X0108823Y0105434D01*
X0108241Y0107007D02*
X0094461Y0107007D01*
X0094461Y0108580D02*
X0108241Y0108580D01*
X0108241Y0110154D02*
X0094461Y0110154D01*
X0094461Y0111727D02*
X0108241Y0111727D01*
X0108241Y0113300D02*
X0094461Y0113300D01*
X0094461Y0114874D02*
X0108241Y0114874D01*
X0108418Y0116447D02*
X0094461Y0116447D01*
X0094461Y0118020D02*
X0109069Y0118020D01*
X0109731Y0119594D02*
X0094461Y0119594D01*
X0094461Y0121167D02*
X0108829Y0121167D01*
X0108241Y0122740D02*
X0094461Y0122740D01*
X0094461Y0124313D02*
X0108241Y0124313D01*
X0108241Y0125887D02*
X0094461Y0125887D01*
X0094461Y0127460D02*
X0108241Y0127460D01*
X0108241Y0129033D02*
X0094461Y0129033D01*
X0094461Y0130607D02*
X0108241Y0130607D01*
X0108412Y0132180D02*
X0094461Y0132180D01*
X0094461Y0133753D02*
X0109063Y0133753D01*
X0109746Y0135327D02*
X0094461Y0135327D01*
X0094461Y0136900D02*
X0108836Y0136900D01*
X0108241Y0138473D02*
X0094461Y0138473D01*
X0094461Y0140047D02*
X0108241Y0140047D01*
X0108241Y0141620D02*
X0094461Y0141620D01*
X0094461Y0143193D02*
X0108241Y0143193D01*
X0108241Y0144767D02*
X0094461Y0144767D01*
X0094461Y0146340D02*
X0108241Y0146340D01*
X0108405Y0147913D02*
X0094461Y0147913D01*
X0094461Y0149487D02*
X0109057Y0149487D01*
X0110280Y0151060D02*
X0094461Y0151060D01*
X0094461Y0152633D02*
X0112679Y0152633D01*
X0117777Y0152633D02*
X0120653Y0152633D01*
X0120835Y0154206D02*
X0094461Y0154206D01*
X0094461Y0155780D02*
X0121494Y0155780D01*
X0119365Y0157353D02*
X0094461Y0157353D01*
X0094461Y0158926D02*
X0118254Y0158926D01*
X0117602Y0160500D02*
X0094461Y0160500D01*
X0094461Y0162073D02*
X0117516Y0162073D01*
X0117516Y0163646D02*
X0094461Y0163646D01*
X0094461Y0165220D02*
X0117516Y0165220D01*
X0117516Y0166793D02*
X0094461Y0166793D01*
X0094461Y0168366D02*
X0117516Y0168366D01*
X0117539Y0169940D02*
X0094461Y0169940D01*
X0094461Y0171513D02*
X0118190Y0171513D01*
X0119212Y0173086D02*
X0094461Y0173086D01*
X0094461Y0174660D02*
X0118260Y0174660D01*
X0117608Y0176233D02*
X0094461Y0176233D01*
X0094461Y0177806D02*
X0117516Y0177806D01*
X0117516Y0179380D02*
X0094461Y0179380D01*
X0094461Y0180953D02*
X0117516Y0180953D01*
X0117516Y0182526D02*
X0094461Y0182526D01*
X0094461Y0184099D02*
X0117516Y0184099D01*
X0117532Y0185673D02*
X0094461Y0185673D01*
X0094461Y0187246D02*
X0118184Y0187246D01*
X0119197Y0188819D02*
X0094461Y0188819D01*
X0094461Y0190393D02*
X0118266Y0190393D01*
X0117614Y0191966D02*
X0094461Y0191966D01*
X0094461Y0193539D02*
X0117516Y0193539D01*
X0117516Y0195113D02*
X0094461Y0195113D01*
X0094461Y0196686D02*
X0117516Y0196686D01*
X0117516Y0198259D02*
X0094461Y0198259D01*
X0094461Y0199833D02*
X0117516Y0199833D01*
X0117526Y0201406D02*
X0094461Y0201406D01*
X0094461Y0202979D02*
X0118178Y0202979D01*
X0119183Y0204553D02*
X0094461Y0204553D01*
X0094461Y0206126D02*
X0121053Y0206126D01*
X0124954Y0207699D02*
X0094461Y0207699D01*
X0094461Y0209272D02*
X0124954Y0209272D01*
X0124954Y0210846D02*
X0094461Y0210846D01*
X0094461Y0212419D02*
X0124954Y0212419D01*
X0124954Y0213992D02*
X0094461Y0213992D01*
X0094461Y0215566D02*
X0100679Y0215566D01*
X0096591Y0217139D02*
X0094461Y0217139D01*
X0106234Y0215566D02*
X0124954Y0215566D01*
X0124954Y0217139D02*
X0110323Y0217139D01*
X0112572Y0218712D02*
X0124954Y0218712D01*
X0124584Y0220286D02*
X0114145Y0220286D01*
X0115199Y0221859D02*
X0123669Y0221859D01*
X0123669Y0223432D02*
X0116107Y0223432D01*
X0116634Y0225006D02*
X0123669Y0225006D01*
X0123669Y0226579D02*
X0117056Y0226579D01*
X0117244Y0228152D02*
X0124832Y0228152D01*
X0126405Y0229726D02*
X0117244Y0229726D01*
X0117140Y0231299D02*
X0129069Y0231299D01*
X0129069Y0232872D02*
X0116718Y0232872D01*
X0116288Y0234446D02*
X0129069Y0234446D01*
X0129069Y0236019D02*
X0115380Y0236019D01*
X0114458Y0237592D02*
X0129672Y0237592D01*
X0131245Y0239165D02*
X0112885Y0239165D01*
X0110864Y0240739D02*
X0132818Y0240739D01*
X0139295Y0240739D02*
X0143718Y0240739D01*
X0142145Y0239165D02*
X0140868Y0239165D01*
X0150195Y0240739D02*
X0154618Y0240739D01*
X0153045Y0239165D02*
X0151768Y0239165D01*
X0161095Y0240739D02*
X0165418Y0240739D01*
X0163845Y0239165D02*
X0162668Y0239165D01*
X0171895Y0240739D02*
X0176318Y0240739D01*
X0174745Y0239165D02*
X0173468Y0239165D01*
X0182795Y0240739D02*
X0187218Y0240739D01*
X0185645Y0239165D02*
X0184368Y0239165D01*
X0193695Y0240739D02*
X0198018Y0240739D01*
X0196445Y0239165D02*
X0195268Y0239165D01*
X0204495Y0240739D02*
X0208918Y0240739D01*
X0207345Y0239165D02*
X0206068Y0239165D01*
X0215395Y0240739D02*
X0219818Y0240739D01*
X0218245Y0239165D02*
X0216968Y0239165D01*
X0226295Y0240739D02*
X0230618Y0240739D01*
X0229045Y0239165D02*
X0227868Y0239165D01*
X0237095Y0240739D02*
X0241518Y0240739D01*
X0239945Y0239165D02*
X0238668Y0239165D01*
X0247995Y0240739D02*
X0252418Y0240739D01*
X0250845Y0239165D02*
X0249568Y0239165D01*
X0258895Y0240739D02*
X0263218Y0240739D01*
X0261645Y0239165D02*
X0260468Y0239165D01*
X0269695Y0240739D02*
X0274118Y0240739D01*
X0272545Y0239165D02*
X0271268Y0239165D01*
X0280595Y0240739D02*
X0285018Y0240739D01*
X0283445Y0239165D02*
X0282168Y0239165D01*
X0291495Y0240739D02*
X0295918Y0240739D01*
X0294345Y0239165D02*
X0293068Y0239165D01*
X0302395Y0240739D02*
X0306718Y0240739D01*
X0305145Y0239165D02*
X0303968Y0239165D01*
X0313195Y0240739D02*
X0317618Y0240739D01*
X0316045Y0239165D02*
X0314768Y0239165D01*
X0324095Y0240739D02*
X0346049Y0240739D01*
X0344028Y0239165D02*
X0325668Y0239165D01*
X0327241Y0237592D02*
X0342455Y0237592D01*
X0341534Y0236019D02*
X0327844Y0236019D01*
X0327844Y0234446D02*
X0340625Y0234446D01*
X0340195Y0232872D02*
X0327844Y0232872D01*
X0327844Y0231299D02*
X0339773Y0231299D01*
X0339669Y0229726D02*
X0330508Y0229726D01*
X0332081Y0228152D02*
X0339669Y0228152D01*
X0339857Y0226579D02*
X0333244Y0226579D01*
X0333244Y0225006D02*
X0340279Y0225006D01*
X0340806Y0223432D02*
X0333244Y0223432D01*
X0333244Y0221859D02*
X0341714Y0221859D01*
X0342768Y0220286D02*
X0332329Y0220286D01*
X0330755Y0218712D02*
X0344341Y0218712D01*
X0346591Y0217139D02*
X0329182Y0217139D01*
X0324197Y0215566D02*
X0350679Y0215566D01*
X0356234Y0215566D02*
X0361326Y0215566D01*
X0361326Y0217139D02*
X0360323Y0217139D01*
X0361326Y0213992D02*
X0323504Y0213992D01*
X0323504Y0212419D02*
X0361326Y0212419D01*
X0361326Y0210846D02*
X0323504Y0210846D01*
X0323504Y0209272D02*
X0361326Y0209272D01*
X0361326Y0207699D02*
X0323504Y0207699D01*
X0323504Y0206126D02*
X0361326Y0206126D01*
X0361326Y0204553D02*
X0328164Y0204553D01*
X0329737Y0202979D02*
X0361326Y0202979D01*
X0361326Y0201406D02*
X0330406Y0201406D01*
X0330830Y0199833D02*
X0361326Y0199833D01*
X0361326Y0198259D02*
X0330830Y0198259D01*
X0330830Y0196686D02*
X0361326Y0196686D01*
X0361326Y0195113D02*
X0330830Y0195113D01*
X0330830Y0193539D02*
X0361326Y0193539D01*
X0361326Y0191966D02*
X0330830Y0191966D01*
X0330494Y0190393D02*
X0361326Y0190393D01*
X0361326Y0188819D02*
X0329843Y0188819D01*
X0329722Y0187246D02*
X0361326Y0187246D01*
X0361326Y0185673D02*
X0330399Y0185673D01*
X0330830Y0184099D02*
X0361326Y0184099D01*
X0361326Y0182526D02*
X0330830Y0182526D01*
X0330830Y0180953D02*
X0361326Y0180953D01*
X0361326Y0179380D02*
X0330830Y0179380D01*
X0330830Y0177806D02*
X0361326Y0177806D01*
X0361326Y0176233D02*
X0330830Y0176233D01*
X0330501Y0174660D02*
X0361326Y0174660D01*
X0361326Y0173086D02*
X0329849Y0173086D01*
X0329707Y0171513D02*
X0361326Y0171513D01*
X0361326Y0169940D02*
X0330393Y0169940D01*
X0330830Y0168366D02*
X0361326Y0168366D01*
X0361326Y0166793D02*
X0330830Y0166793D01*
X0330830Y0165220D02*
X0361326Y0165220D01*
X0361326Y0163646D02*
X0330830Y0163646D01*
X0330830Y0162073D02*
X0361326Y0162073D01*
X0361326Y0160500D02*
X0330830Y0160500D01*
X0330507Y0158926D02*
X0361326Y0158926D01*
X0361326Y0157353D02*
X0329855Y0157353D01*
X0328408Y0155780D02*
X0361326Y0155780D01*
X0361326Y0154206D02*
X0326252Y0154206D01*
X0327616Y0152633D02*
X0361326Y0152633D01*
X0361326Y0151060D02*
X0328538Y0151060D01*
X0329762Y0149487D02*
X0361326Y0149487D01*
X0361326Y0147913D02*
X0330413Y0147913D01*
X0330578Y0146340D02*
X0361326Y0146340D01*
X0361326Y0144767D02*
X0330578Y0144767D01*
X0330578Y0143193D02*
X0361326Y0143193D01*
X0361326Y0141620D02*
X0330578Y0141620D01*
X0330578Y0140047D02*
X0361326Y0140047D01*
X0361326Y0138473D02*
X0330578Y0138473D01*
X0329983Y0136900D02*
X0361326Y0136900D01*
X0361326Y0135327D02*
X0329073Y0135327D01*
X0329755Y0133753D02*
X0361326Y0133753D01*
X0361326Y0132180D02*
X0330407Y0132180D01*
X0330578Y0130607D02*
X0361326Y0130607D01*
X0361326Y0129033D02*
X0330578Y0129033D01*
X0330578Y0127460D02*
X0361326Y0127460D01*
X0361326Y0125887D02*
X0330578Y0125887D01*
X0330578Y0124313D02*
X0361326Y0124313D01*
X0361326Y0122740D02*
X0330578Y0122740D01*
X0329989Y0121167D02*
X0361326Y0121167D01*
X0361326Y0119594D02*
X0329088Y0119594D01*
X0329749Y0118020D02*
X0361326Y0118020D01*
X0361326Y0116447D02*
X0330401Y0116447D01*
X0330578Y0114874D02*
X0361326Y0114874D01*
X0361326Y0113300D02*
X0330578Y0113300D01*
X0330578Y0111727D02*
X0361326Y0111727D01*
X0361326Y0110154D02*
X0330578Y0110154D01*
X0330578Y0108580D02*
X0361326Y0108580D01*
X0361326Y0107007D02*
X0330578Y0107007D01*
X0329995Y0105434D02*
X0361326Y0105434D01*
X0361326Y0103860D02*
X0329103Y0103860D01*
X0328165Y0102287D02*
X0361326Y0102287D01*
X0361326Y0100714D02*
X0328165Y0100714D01*
X0328165Y0099140D02*
X0361326Y0099140D01*
X0361326Y0097567D02*
X0328165Y0097567D01*
X0328165Y0095994D02*
X0361326Y0095994D01*
X0361326Y0094421D02*
X0328165Y0094421D01*
X0328165Y0092847D02*
X0361326Y0092847D01*
X0361326Y0091274D02*
X0328165Y0091274D01*
X0328165Y0089701D02*
X0361326Y0089701D01*
X0361326Y0088127D02*
X0328165Y0088127D01*
X0328165Y0086554D02*
X0361326Y0086554D01*
X0361326Y0084981D02*
X0357457Y0084981D01*
X0360848Y0083407D02*
X0361326Y0083407D01*
X0349298Y0084981D02*
X0328165Y0084981D01*
X0329452Y0083407D02*
X0345908Y0083407D01*
X0343914Y0081834D02*
X0331025Y0081834D01*
X0332599Y0080261D02*
X0342342Y0080261D01*
X0341434Y0078687D02*
X0333165Y0078687D01*
X0333165Y0077114D02*
X0340528Y0077114D01*
X0340106Y0075541D02*
X0333165Y0075541D01*
X0333165Y0073967D02*
X0339685Y0073967D01*
X0339590Y0072394D02*
X0331654Y0072394D01*
X0330080Y0070821D02*
X0339590Y0070821D01*
X0339788Y0069247D02*
X0327765Y0069247D01*
X0327765Y0067674D02*
X0340210Y0067674D01*
X0340748Y0066101D02*
X0327765Y0066101D01*
X0327765Y0064528D02*
X0341656Y0064528D01*
X0342725Y0062954D02*
X0326814Y0062954D01*
X0325240Y0061381D02*
X0344299Y0061381D01*
X0356020Y0058234D02*
X0361326Y0058234D01*
X0361326Y0056661D02*
X0094461Y0056661D01*
X0094461Y0055088D02*
X0361326Y0055088D01*
X0361326Y0053514D02*
X0094461Y0053514D01*
X0094461Y0051941D02*
X0361326Y0051941D01*
X0361326Y0050368D02*
X0094461Y0050368D01*
X0094461Y0048794D02*
X0361326Y0048794D01*
X0361326Y0047221D02*
X0094461Y0047221D01*
X0094461Y0045648D02*
X0361326Y0045648D01*
X0361326Y0044074D02*
X0094461Y0044074D01*
X0094461Y0042501D02*
X0361326Y0042501D01*
X0361326Y0040928D02*
X0094461Y0040928D01*
X0094461Y0039355D02*
X0361326Y0039355D01*
X0361326Y0037781D02*
X0094461Y0037781D01*
X0094461Y0036208D02*
X0361326Y0036208D01*
X0361326Y0034635D02*
X0094461Y0034635D01*
X0094461Y0033061D02*
X0361326Y0033061D01*
X0361326Y0031488D02*
X0094461Y0031488D01*
X0140440Y0061381D02*
X0142415Y0061381D01*
X0151340Y0061381D02*
X0153215Y0061381D01*
X0162140Y0061381D02*
X0164115Y0061381D01*
X0173040Y0061381D02*
X0175015Y0061381D01*
X0183940Y0061381D02*
X0185815Y0061381D01*
X0194740Y0061381D02*
X0196715Y0061381D01*
X0205640Y0061381D02*
X0207615Y0061381D01*
X0216540Y0061381D02*
X0218515Y0061381D01*
X0227440Y0061381D02*
X0229315Y0061381D01*
X0238240Y0061381D02*
X0240215Y0061381D01*
X0249140Y0061381D02*
X0251115Y0061381D01*
X0260040Y0061381D02*
X0261915Y0061381D01*
X0270840Y0061381D02*
X0272815Y0061381D01*
X0281740Y0061381D02*
X0283715Y0061381D01*
X0292640Y0061381D02*
X0294515Y0061381D01*
X0303440Y0061381D02*
X0305415Y0061381D01*
X0314340Y0061381D02*
X0316315Y0061381D01*
X0315278Y0076800D02*
X0313590Y0078487D01*
X0313590Y0111430D01*
X0303590Y0111430D02*
X0303590Y0077687D01*
X0304478Y0076800D01*
X0309016Y0082144D02*
X0308165Y0082994D01*
X0308165Y0102923D01*
X0308590Y0103348D01*
X0309016Y0102923D01*
X0309016Y0082144D01*
X0309016Y0083407D02*
X0308165Y0083407D01*
X0308165Y0084981D02*
X0309016Y0084981D01*
X0309016Y0086554D02*
X0308165Y0086554D01*
X0308165Y0088127D02*
X0309016Y0088127D01*
X0309016Y0089701D02*
X0308165Y0089701D01*
X0308165Y0091274D02*
X0309016Y0091274D01*
X0309016Y0092847D02*
X0308165Y0092847D01*
X0308165Y0094421D02*
X0309016Y0094421D01*
X0309016Y0095994D02*
X0308165Y0095994D01*
X0308165Y0097567D02*
X0309016Y0097567D01*
X0309016Y0099140D02*
X0308165Y0099140D01*
X0308165Y0100714D02*
X0309016Y0100714D01*
X0309016Y0102287D02*
X0308165Y0102287D01*
X0318165Y0102287D02*
X0319016Y0102287D01*
X0319016Y0102923D02*
X0319016Y0082944D01*
X0318172Y0083787D01*
X0318165Y0083787D01*
X0318165Y0102923D01*
X0318590Y0103348D01*
X0319016Y0102923D01*
X0319016Y0100714D02*
X0318165Y0100714D01*
X0318165Y0099140D02*
X0319016Y0099140D01*
X0319016Y0097567D02*
X0318165Y0097567D01*
X0318165Y0095994D02*
X0319016Y0095994D01*
X0319016Y0094421D02*
X0318165Y0094421D01*
X0318165Y0092847D02*
X0319016Y0092847D01*
X0319016Y0091274D02*
X0318165Y0091274D01*
X0318165Y0089701D02*
X0319016Y0089701D01*
X0319016Y0088127D02*
X0318165Y0088127D01*
X0318165Y0086554D02*
X0319016Y0086554D01*
X0319016Y0084981D02*
X0318165Y0084981D01*
X0318552Y0083407D02*
X0319016Y0083407D01*
X0323590Y0079387D02*
X0323590Y0111430D01*
X0299016Y0102923D02*
X0299016Y0081244D01*
X0298165Y0082094D01*
X0298165Y0102923D01*
X0298590Y0103348D01*
X0299016Y0102923D01*
X0299016Y0102287D02*
X0298165Y0102287D01*
X0298165Y0100714D02*
X0299016Y0100714D01*
X0299016Y0099140D02*
X0298165Y0099140D01*
X0298165Y0097567D02*
X0299016Y0097567D01*
X0299016Y0095994D02*
X0298165Y0095994D01*
X0298165Y0094421D02*
X0299016Y0094421D01*
X0299016Y0092847D02*
X0298165Y0092847D01*
X0298165Y0091274D02*
X0299016Y0091274D01*
X0299016Y0089701D02*
X0298165Y0089701D01*
X0298165Y0088127D02*
X0299016Y0088127D01*
X0299016Y0086554D02*
X0298165Y0086554D01*
X0298165Y0084981D02*
X0299016Y0084981D01*
X0299016Y0083407D02*
X0298165Y0083407D01*
X0298425Y0081834D02*
X0299016Y0081834D01*
X0293590Y0076813D02*
X0293590Y0111430D01*
X0283590Y0111430D02*
X0283590Y0077713D01*
X0282678Y0076800D01*
X0278165Y0082169D02*
X0278165Y0102923D01*
X0278590Y0103348D01*
X0279016Y0102923D01*
X0279016Y0083019D01*
X0278165Y0082169D01*
X0278165Y0083407D02*
X0279016Y0083407D01*
X0279016Y0084981D02*
X0278165Y0084981D01*
X0278165Y0086554D02*
X0279016Y0086554D01*
X0279016Y0088127D02*
X0278165Y0088127D01*
X0278165Y0089701D02*
X0279016Y0089701D01*
X0279016Y0091274D02*
X0278165Y0091274D01*
X0278165Y0092847D02*
X0279016Y0092847D01*
X0279016Y0094421D02*
X0278165Y0094421D01*
X0278165Y0095994D02*
X0279016Y0095994D01*
X0279016Y0097567D02*
X0278165Y0097567D01*
X0278165Y0099140D02*
X0279016Y0099140D01*
X0279016Y0100714D02*
X0278165Y0100714D01*
X0278165Y0102287D02*
X0279016Y0102287D01*
X0288165Y0102287D02*
X0289016Y0102287D01*
X0289016Y0102923D02*
X0289016Y0082119D01*
X0288165Y0081269D01*
X0288165Y0102923D01*
X0288590Y0103348D01*
X0289016Y0102923D01*
X0289016Y0100714D02*
X0288165Y0100714D01*
X0288165Y0099140D02*
X0289016Y0099140D01*
X0289016Y0097567D02*
X0288165Y0097567D01*
X0288165Y0095994D02*
X0289016Y0095994D01*
X0289016Y0094421D02*
X0288165Y0094421D01*
X0288165Y0092847D02*
X0289016Y0092847D01*
X0289016Y0091274D02*
X0288165Y0091274D01*
X0288165Y0089701D02*
X0289016Y0089701D01*
X0289016Y0088127D02*
X0288165Y0088127D01*
X0288165Y0086554D02*
X0289016Y0086554D01*
X0289016Y0084981D02*
X0288165Y0084981D01*
X0288165Y0083407D02*
X0289016Y0083407D01*
X0288730Y0081834D02*
X0288165Y0081834D01*
X0293590Y0076813D02*
X0293578Y0076800D01*
X0273590Y0078513D02*
X0271878Y0076800D01*
X0273590Y0078513D02*
X0273590Y0111430D01*
X0268590Y0103348D02*
X0268165Y0102923D01*
X0268165Y0082969D01*
X0268984Y0083787D01*
X0269016Y0083787D01*
X0269016Y0102923D01*
X0268590Y0103348D01*
X0268165Y0102287D02*
X0269016Y0102287D01*
X0269016Y0100714D02*
X0268165Y0100714D01*
X0268165Y0099140D02*
X0269016Y0099140D01*
X0269016Y0097567D02*
X0268165Y0097567D01*
X0268165Y0095994D02*
X0269016Y0095994D01*
X0269016Y0094421D02*
X0268165Y0094421D01*
X0268165Y0092847D02*
X0269016Y0092847D01*
X0269016Y0091274D02*
X0268165Y0091274D01*
X0268165Y0089701D02*
X0269016Y0089701D01*
X0269016Y0088127D02*
X0268165Y0088127D01*
X0268165Y0086554D02*
X0269016Y0086554D01*
X0269016Y0084981D02*
X0268165Y0084981D01*
X0268165Y0083407D02*
X0268603Y0083407D01*
X0263590Y0079413D02*
X0263590Y0111430D01*
X0253590Y0111430D02*
X0253590Y0080313D01*
X0250078Y0076800D01*
X0243590Y0081113D02*
X0243590Y0111430D01*
X0238590Y0103348D02*
X0238165Y0102923D01*
X0238165Y0083787D01*
X0239016Y0083787D01*
X0239016Y0102923D01*
X0238590Y0103348D01*
X0238165Y0102287D02*
X0239016Y0102287D01*
X0239016Y0100714D02*
X0238165Y0100714D01*
X0238165Y0099140D02*
X0239016Y0099140D01*
X0239016Y0097567D02*
X0238165Y0097567D01*
X0238165Y0095994D02*
X0239016Y0095994D01*
X0239016Y0094421D02*
X0238165Y0094421D01*
X0238165Y0092847D02*
X0239016Y0092847D01*
X0239016Y0091274D02*
X0238165Y0091274D01*
X0238165Y0089701D02*
X0239016Y0089701D01*
X0239016Y0088127D02*
X0238165Y0088127D01*
X0238165Y0086554D02*
X0239016Y0086554D01*
X0239016Y0084981D02*
X0238165Y0084981D01*
X0233590Y0082013D02*
X0233590Y0111430D01*
X0226603Y0111727D02*
X0212216Y0111727D01*
X0212216Y0113300D02*
X0226603Y0113300D01*
X0226603Y0114874D02*
X0212216Y0114874D01*
X0212216Y0116020D02*
X0211152Y0118588D01*
X0210436Y0119304D01*
X0211152Y0120020D01*
X0212216Y0122588D01*
X0212216Y0131768D01*
X0211152Y0134336D01*
X0210436Y0135052D01*
X0211152Y0135768D01*
X0212216Y0138336D01*
X0212216Y0147516D01*
X0211152Y0150084D01*
X0209803Y0151433D01*
X0209803Y0209872D01*
X0217039Y0217108D01*
X0220451Y0217108D01*
X0223007Y0219664D01*
X0223882Y0218788D01*
X0223882Y0147150D01*
X0224578Y0145468D01*
X0226603Y0143444D01*
X0226603Y0138336D01*
X0227667Y0135768D01*
X0228383Y0135052D01*
X0227667Y0134336D01*
X0226603Y0131768D01*
X0226603Y0122588D01*
X0227667Y0120020D01*
X0228383Y0119304D01*
X0227667Y0118588D01*
X0226603Y0116020D01*
X0226603Y0106840D01*
X0227667Y0104272D01*
X0229016Y0102923D01*
X0229016Y0083908D01*
X0228895Y0083787D01*
X0225484Y0083787D01*
X0222928Y0081232D01*
X0220372Y0083787D01*
X0216960Y0083787D01*
X0209803Y0090945D01*
X0209803Y0102923D01*
X0211152Y0104272D01*
X0212216Y0106840D01*
X0212216Y0116020D01*
X0212039Y0116447D02*
X0226780Y0116447D01*
X0227432Y0118020D02*
X0211387Y0118020D01*
X0210725Y0119594D02*
X0228093Y0119594D01*
X0227192Y0121167D02*
X0211627Y0121167D01*
X0212216Y0122740D02*
X0226603Y0122740D01*
X0226603Y0124313D02*
X0212216Y0124313D01*
X0212216Y0125887D02*
X0226603Y0125887D01*
X0226603Y0127460D02*
X0212216Y0127460D01*
X0212216Y0129033D02*
X0226603Y0129033D01*
X0226603Y0130607D02*
X0212216Y0130607D01*
X0212045Y0132180D02*
X0226774Y0132180D01*
X0227425Y0133753D02*
X0211393Y0133753D01*
X0210711Y0135327D02*
X0228108Y0135327D01*
X0227198Y0136900D02*
X0211621Y0136900D01*
X0212216Y0138473D02*
X0226603Y0138473D01*
X0226603Y0140047D02*
X0212216Y0140047D01*
X0212216Y0141620D02*
X0226603Y0141620D01*
X0226603Y0143193D02*
X0212216Y0143193D01*
X0212216Y0144767D02*
X0225280Y0144767D01*
X0224217Y0146340D02*
X0212216Y0146340D01*
X0212051Y0147913D02*
X0223882Y0147913D01*
X0223882Y0149487D02*
X0211399Y0149487D01*
X0210176Y0151060D02*
X0223882Y0151060D01*
X0223882Y0152633D02*
X0209803Y0152633D01*
X0209803Y0154206D02*
X0223882Y0154206D01*
X0223882Y0155780D02*
X0209803Y0155780D01*
X0209803Y0157353D02*
X0223882Y0157353D01*
X0223882Y0158926D02*
X0209803Y0158926D01*
X0209803Y0160500D02*
X0223882Y0160500D01*
X0223882Y0162073D02*
X0209803Y0162073D01*
X0209803Y0163646D02*
X0223882Y0163646D01*
X0223882Y0165220D02*
X0209803Y0165220D01*
X0209803Y0166793D02*
X0223882Y0166793D01*
X0223882Y0168366D02*
X0209803Y0168366D01*
X0209803Y0169940D02*
X0223882Y0169940D01*
X0223882Y0171513D02*
X0209803Y0171513D01*
X0209803Y0173086D02*
X0223882Y0173086D01*
X0223882Y0174660D02*
X0209803Y0174660D01*
X0209803Y0176233D02*
X0223882Y0176233D01*
X0223882Y0177806D02*
X0209803Y0177806D01*
X0209803Y0179380D02*
X0223882Y0179380D01*
X0223882Y0180953D02*
X0209803Y0180953D01*
X0209803Y0182526D02*
X0223882Y0182526D01*
X0223882Y0184099D02*
X0209803Y0184099D01*
X0209803Y0185673D02*
X0223882Y0185673D01*
X0223882Y0187246D02*
X0209803Y0187246D01*
X0209803Y0188819D02*
X0223882Y0188819D01*
X0223882Y0190393D02*
X0209803Y0190393D01*
X0209803Y0191966D02*
X0223882Y0191966D01*
X0223882Y0193539D02*
X0209803Y0193539D01*
X0209803Y0195113D02*
X0223882Y0195113D01*
X0223882Y0196686D02*
X0209803Y0196686D01*
X0209803Y0198259D02*
X0223882Y0198259D01*
X0223882Y0199833D02*
X0209803Y0199833D01*
X0209803Y0201406D02*
X0223882Y0201406D01*
X0223882Y0202979D02*
X0209803Y0202979D01*
X0209803Y0204553D02*
X0223882Y0204553D01*
X0223882Y0206126D02*
X0209803Y0206126D01*
X0209803Y0207699D02*
X0223882Y0207699D01*
X0223882Y0209272D02*
X0209803Y0209272D01*
X0210777Y0210846D02*
X0223882Y0210846D01*
X0223882Y0212419D02*
X0212350Y0212419D01*
X0213923Y0213992D02*
X0223882Y0213992D01*
X0223882Y0215566D02*
X0215497Y0215566D01*
X0220482Y0217139D02*
X0223882Y0217139D01*
X0223882Y0218712D02*
X0222055Y0218712D01*
X0217557Y0224095D02*
X0205228Y0211767D01*
X0205228Y0200767D01*
X0205228Y0142926D01*
X0195228Y0142926D02*
X0195228Y0152359D01*
X0196929Y0154060D01*
X0196929Y0203268D01*
X0196929Y0214268D01*
X0206757Y0224095D01*
X0195857Y0224095D02*
X0191929Y0220168D01*
X0191929Y0208060D01*
X0191929Y0155060D01*
X0185228Y0148359D01*
X0185228Y0142926D01*
X0180228Y0151008D02*
X0179803Y0151433D01*
X0179803Y0152064D01*
X0182926Y0155187D01*
X0183114Y0155109D01*
X0185508Y0155109D01*
X0183283Y0152883D01*
X0181270Y0152050D01*
X0180228Y0151008D01*
X0180176Y0151060D02*
X0180280Y0151060D01*
X0180372Y0152633D02*
X0182679Y0152633D01*
X0181945Y0154206D02*
X0184606Y0154206D01*
X0179429Y0158160D02*
X0175228Y0153959D01*
X0175228Y0142926D01*
X0165228Y0142926D02*
X0165228Y0151959D01*
X0169529Y0156260D01*
X0169529Y0208468D01*
X0169529Y0219468D01*
X0174157Y0224095D01*
X0179429Y0218568D02*
X0184957Y0224095D01*
X0179429Y0218568D02*
X0179429Y0207568D01*
X0179429Y0158160D01*
X0162261Y0155462D02*
X0161865Y0155626D01*
X0159803Y0153564D01*
X0159803Y0151433D01*
X0160228Y0151008D01*
X0160653Y0151433D01*
X0160653Y0152869D01*
X0161350Y0154550D01*
X0162261Y0155462D01*
X0161207Y0154206D02*
X0160445Y0154206D01*
X0160653Y0152633D02*
X0159803Y0152633D01*
X0160176Y0151060D02*
X0160280Y0151060D01*
X0155228Y0155459D02*
X0155228Y0142926D01*
X0145228Y0142926D02*
X0145228Y0150759D01*
X0149529Y0155060D01*
X0149529Y0210268D01*
X0149529Y0221268D01*
X0152357Y0224095D01*
X0159429Y0220268D02*
X0163257Y0224095D01*
X0159429Y0220268D02*
X0159429Y0209268D01*
X0159429Y0159660D01*
X0155228Y0155459D01*
X0139429Y0154760D02*
X0135228Y0150559D01*
X0135228Y0142926D01*
X0125228Y0142926D02*
X0125228Y0152859D01*
X0129529Y0157160D01*
X0129529Y0211968D01*
X0129529Y0222968D01*
X0130657Y0224095D01*
X0134854Y0218411D02*
X0134854Y0210058D01*
X0134854Y0206980D01*
X0134104Y0206980D01*
X0134104Y0217661D01*
X0134854Y0218411D01*
X0134854Y0217139D02*
X0134104Y0217139D01*
X0134104Y0215566D02*
X0134854Y0215566D01*
X0134854Y0213992D02*
X0134104Y0213992D01*
X0134104Y0212419D02*
X0134854Y0212419D01*
X0134854Y0210846D02*
X0134104Y0210846D01*
X0134104Y0209272D02*
X0134854Y0209272D01*
X0134854Y0207699D02*
X0134104Y0207699D01*
X0139429Y0210968D02*
X0139429Y0221968D01*
X0141557Y0224095D01*
X0144954Y0217611D02*
X0144954Y0206980D01*
X0144004Y0206980D01*
X0144004Y0217108D01*
X0144451Y0217108D01*
X0144954Y0217611D01*
X0144954Y0217139D02*
X0144482Y0217139D01*
X0144954Y0215566D02*
X0144004Y0215566D01*
X0144004Y0213992D02*
X0144954Y0213992D01*
X0144954Y0212419D02*
X0144004Y0212419D01*
X0144004Y0210846D02*
X0144954Y0210846D01*
X0144954Y0209272D02*
X0144004Y0209272D01*
X0144004Y0207699D02*
X0144954Y0207699D01*
X0139429Y0210968D02*
X0139429Y0154760D01*
X0130898Y0152059D02*
X0130653Y0151469D01*
X0130653Y0151433D01*
X0130228Y0151008D01*
X0130037Y0151198D01*
X0130898Y0152059D01*
X0130280Y0151060D02*
X0130176Y0151060D01*
X0120280Y0151060D02*
X0120176Y0151060D01*
X0125228Y0111430D02*
X0125228Y0082150D01*
X0130578Y0076800D01*
X0135228Y0082950D02*
X0141378Y0076800D01*
X0140653Y0083994D02*
X0139803Y0084845D01*
X0139803Y0102923D01*
X0140228Y0103348D01*
X0140653Y0102923D01*
X0140653Y0083994D01*
X0140653Y0084981D02*
X0139803Y0084981D01*
X0139803Y0086554D02*
X0140653Y0086554D01*
X0140653Y0088127D02*
X0139803Y0088127D01*
X0139803Y0089701D02*
X0140653Y0089701D01*
X0140653Y0091274D02*
X0139803Y0091274D01*
X0139803Y0092847D02*
X0140653Y0092847D01*
X0140653Y0094421D02*
X0139803Y0094421D01*
X0139803Y0095994D02*
X0140653Y0095994D01*
X0140653Y0097567D02*
X0139803Y0097567D01*
X0139803Y0099140D02*
X0140653Y0099140D01*
X0140653Y0100714D02*
X0139803Y0100714D01*
X0139803Y0102287D02*
X0140653Y0102287D01*
X0145228Y0096850D02*
X0145228Y0083850D01*
X0152278Y0076800D01*
X0150653Y0084894D02*
X0149803Y0085745D01*
X0149803Y0097760D01*
X0149803Y0102923D01*
X0150228Y0103348D01*
X0150653Y0102923D01*
X0150653Y0084894D01*
X0150653Y0084981D02*
X0150567Y0084981D01*
X0150653Y0086554D02*
X0149803Y0086554D01*
X0149803Y0088127D02*
X0150653Y0088127D01*
X0150653Y0089701D02*
X0149803Y0089701D01*
X0149803Y0091274D02*
X0150653Y0091274D01*
X0150653Y0092847D02*
X0149803Y0092847D01*
X0149803Y0094421D02*
X0150653Y0094421D01*
X0150653Y0095994D02*
X0149803Y0095994D01*
X0149803Y0097567D02*
X0150653Y0097567D01*
X0150653Y0099140D02*
X0149803Y0099140D01*
X0149803Y0100714D02*
X0150653Y0100714D01*
X0150653Y0102287D02*
X0149803Y0102287D01*
X0155228Y0097750D02*
X0155228Y0084750D01*
X0163178Y0076800D01*
X0165228Y0085550D02*
X0173978Y0076800D01*
X0175228Y0086450D02*
X0184878Y0076800D01*
X0185228Y0087350D02*
X0195778Y0076800D01*
X0206678Y0076800D02*
X0195228Y0088250D01*
X0195228Y0101250D01*
X0195228Y0111430D01*
X0185228Y0111430D02*
X0185228Y0100350D01*
X0185228Y0087350D01*
X0180653Y0087494D02*
X0179803Y0088345D01*
X0179803Y0100360D01*
X0179803Y0102923D01*
X0180228Y0103348D01*
X0180653Y0102923D01*
X0180653Y0087494D01*
X0180653Y0088127D02*
X0180020Y0088127D01*
X0179803Y0089701D02*
X0180653Y0089701D01*
X0180653Y0091274D02*
X0179803Y0091274D01*
X0179803Y0092847D02*
X0180653Y0092847D01*
X0180653Y0094421D02*
X0179803Y0094421D01*
X0179803Y0095994D02*
X0180653Y0095994D01*
X0180653Y0097567D02*
X0179803Y0097567D01*
X0179803Y0099140D02*
X0180653Y0099140D01*
X0180653Y0100714D02*
X0179803Y0100714D01*
X0179803Y0102287D02*
X0180653Y0102287D01*
X0175228Y0099450D02*
X0175228Y0086450D01*
X0170653Y0086594D02*
X0169803Y0087445D01*
X0169803Y0099460D01*
X0169803Y0102923D01*
X0170228Y0103348D01*
X0170653Y0102923D01*
X0170653Y0086594D01*
X0170653Y0088127D02*
X0169803Y0088127D01*
X0169803Y0089701D02*
X0170653Y0089701D01*
X0170653Y0091274D02*
X0169803Y0091274D01*
X0169803Y0092847D02*
X0170653Y0092847D01*
X0170653Y0094421D02*
X0169803Y0094421D01*
X0169803Y0095994D02*
X0170653Y0095994D01*
X0170653Y0097567D02*
X0169803Y0097567D01*
X0169803Y0099140D02*
X0170653Y0099140D01*
X0170653Y0100714D02*
X0169803Y0100714D01*
X0169803Y0102287D02*
X0170653Y0102287D01*
X0175228Y0099450D02*
X0175228Y0111430D01*
X0165228Y0111430D02*
X0165228Y0098550D01*
X0165228Y0085550D01*
X0160653Y0085794D02*
X0159803Y0086645D01*
X0159803Y0098660D01*
X0159803Y0102923D01*
X0160228Y0103348D01*
X0160653Y0102923D01*
X0160653Y0085794D01*
X0160653Y0086554D02*
X0159894Y0086554D01*
X0159803Y0088127D02*
X0160653Y0088127D01*
X0160653Y0089701D02*
X0159803Y0089701D01*
X0159803Y0091274D02*
X0160653Y0091274D01*
X0160653Y0092847D02*
X0159803Y0092847D01*
X0159803Y0094421D02*
X0160653Y0094421D01*
X0160653Y0095994D02*
X0159803Y0095994D01*
X0159803Y0097567D02*
X0160653Y0097567D01*
X0160653Y0099140D02*
X0159803Y0099140D01*
X0159803Y0100714D02*
X0160653Y0100714D01*
X0160653Y0102287D02*
X0159803Y0102287D01*
X0155228Y0097750D02*
X0155228Y0111430D01*
X0145228Y0111430D02*
X0145228Y0096850D01*
X0130653Y0097567D02*
X0129803Y0097567D01*
X0129803Y0095994D02*
X0130653Y0095994D01*
X0130653Y0094421D02*
X0129803Y0094421D01*
X0129803Y0092847D02*
X0130653Y0092847D01*
X0130653Y0091274D02*
X0129803Y0091274D01*
X0129803Y0089701D02*
X0130653Y0089701D01*
X0130653Y0088127D02*
X0129803Y0088127D01*
X0129803Y0086554D02*
X0130653Y0086554D01*
X0130653Y0084981D02*
X0129803Y0084981D01*
X0129803Y0084045D02*
X0129803Y0102923D01*
X0130228Y0103348D01*
X0130653Y0102923D01*
X0130653Y0083787D01*
X0130060Y0083787D01*
X0129803Y0084045D01*
X0135228Y0082950D02*
X0135228Y0111430D01*
X0130653Y0102287D02*
X0129803Y0102287D01*
X0129803Y0100714D02*
X0130653Y0100714D01*
X0130653Y0099140D02*
X0129803Y0099140D01*
X0120653Y0102287D02*
X0119140Y0102287D01*
X0095908Y0083407D02*
X0094461Y0083407D01*
X0189803Y0089245D02*
X0189803Y0101260D01*
X0189803Y0102923D01*
X0190228Y0103348D01*
X0190653Y0102923D01*
X0190653Y0088394D01*
X0189803Y0089245D01*
X0189803Y0089701D02*
X0190653Y0089701D01*
X0190653Y0091274D02*
X0189803Y0091274D01*
X0189803Y0092847D02*
X0190653Y0092847D01*
X0190653Y0094421D02*
X0189803Y0094421D01*
X0189803Y0095994D02*
X0190653Y0095994D01*
X0190653Y0097567D02*
X0189803Y0097567D01*
X0189803Y0099140D02*
X0190653Y0099140D01*
X0190653Y0100714D02*
X0189803Y0100714D01*
X0189803Y0102287D02*
X0190653Y0102287D01*
X0199803Y0102287D02*
X0200653Y0102287D01*
X0200653Y0102923D02*
X0200653Y0089294D01*
X0199803Y0090145D01*
X0199803Y0102160D01*
X0199803Y0102923D01*
X0200228Y0103348D01*
X0200653Y0102923D01*
X0200653Y0100714D02*
X0199803Y0100714D01*
X0199803Y0099140D02*
X0200653Y0099140D01*
X0200653Y0097567D02*
X0199803Y0097567D01*
X0199803Y0095994D02*
X0200653Y0095994D01*
X0200653Y0094421D02*
X0199803Y0094421D01*
X0199803Y0092847D02*
X0200653Y0092847D01*
X0200653Y0091274D02*
X0199803Y0091274D01*
X0200247Y0089701D02*
X0200653Y0089701D01*
X0205228Y0089050D02*
X0217478Y0076800D01*
X0222325Y0081834D02*
X0223530Y0081834D01*
X0225103Y0083407D02*
X0220752Y0083407D01*
X0215767Y0084981D02*
X0229016Y0084981D01*
X0229016Y0086554D02*
X0214194Y0086554D01*
X0212620Y0088127D02*
X0229016Y0088127D01*
X0229016Y0089701D02*
X0211047Y0089701D01*
X0209803Y0091274D02*
X0229016Y0091274D01*
X0229016Y0092847D02*
X0209803Y0092847D01*
X0209803Y0094421D02*
X0229016Y0094421D01*
X0229016Y0095994D02*
X0209803Y0095994D01*
X0209803Y0097567D02*
X0229016Y0097567D01*
X0229016Y0099140D02*
X0209803Y0099140D01*
X0209803Y0100714D02*
X0229016Y0100714D01*
X0229016Y0102287D02*
X0209803Y0102287D01*
X0210740Y0103860D02*
X0228078Y0103860D01*
X0227186Y0105434D02*
X0211633Y0105434D01*
X0212216Y0107007D02*
X0226603Y0107007D01*
X0226603Y0108580D02*
X0212216Y0108580D01*
X0212216Y0110154D02*
X0226603Y0110154D01*
X0205228Y0111430D02*
X0205228Y0102050D01*
X0205228Y0089050D01*
X0228378Y0076800D02*
X0233590Y0082013D01*
X0239278Y0076800D02*
X0243590Y0081113D01*
X0248165Y0083787D02*
X0248165Y0102923D01*
X0248590Y0103348D01*
X0249016Y0102923D01*
X0249016Y0083787D01*
X0248165Y0083787D01*
X0248165Y0084981D02*
X0249016Y0084981D01*
X0249016Y0086554D02*
X0248165Y0086554D01*
X0248165Y0088127D02*
X0249016Y0088127D01*
X0249016Y0089701D02*
X0248165Y0089701D01*
X0248165Y0091274D02*
X0249016Y0091274D01*
X0249016Y0092847D02*
X0248165Y0092847D01*
X0248165Y0094421D02*
X0249016Y0094421D01*
X0249016Y0095994D02*
X0248165Y0095994D01*
X0248165Y0097567D02*
X0249016Y0097567D01*
X0249016Y0099140D02*
X0248165Y0099140D01*
X0248165Y0100714D02*
X0249016Y0100714D01*
X0249016Y0102287D02*
X0248165Y0102287D01*
X0258165Y0102287D02*
X0259016Y0102287D01*
X0259016Y0102923D02*
X0259016Y0083787D01*
X0258165Y0083787D01*
X0258165Y0102923D01*
X0258590Y0103348D01*
X0259016Y0102923D01*
X0259016Y0100714D02*
X0258165Y0100714D01*
X0258165Y0099140D02*
X0259016Y0099140D01*
X0259016Y0097567D02*
X0258165Y0097567D01*
X0258165Y0095994D02*
X0259016Y0095994D01*
X0259016Y0094421D02*
X0258165Y0094421D01*
X0258165Y0092847D02*
X0259016Y0092847D01*
X0259016Y0091274D02*
X0258165Y0091274D01*
X0258165Y0089701D02*
X0259016Y0089701D01*
X0259016Y0088127D02*
X0258165Y0088127D01*
X0258165Y0086554D02*
X0259016Y0086554D01*
X0259016Y0084981D02*
X0258165Y0084981D01*
X0263590Y0079413D02*
X0260978Y0076800D01*
X0323590Y0079387D02*
X0326178Y0076800D01*
X0360181Y0059808D02*
X0361326Y0059808D01*
X0323590Y0142926D02*
X0323590Y0150398D01*
X0318929Y0155060D01*
X0318929Y0216768D01*
X0326257Y0224095D01*
X0315457Y0224095D02*
X0308929Y0217568D01*
X0308929Y0156060D01*
X0313590Y0151398D01*
X0313590Y0142926D01*
X0303590Y0142926D02*
X0303590Y0151398D01*
X0298929Y0156060D01*
X0298929Y0218468D01*
X0304557Y0224095D01*
X0304354Y0217108D02*
X0304354Y0205980D01*
X0303504Y0205980D01*
X0303504Y0216573D01*
X0304039Y0217108D01*
X0304354Y0217108D01*
X0304354Y0215566D02*
X0303504Y0215566D01*
X0303504Y0213992D02*
X0304354Y0213992D01*
X0304354Y0212419D02*
X0303504Y0212419D01*
X0303504Y0210846D02*
X0304354Y0210846D01*
X0304354Y0209272D02*
X0303504Y0209272D01*
X0303504Y0207699D02*
X0304354Y0207699D01*
X0304354Y0206126D02*
X0303504Y0206126D01*
X0313504Y0206126D02*
X0314354Y0206126D01*
X0314354Y0205980D02*
X0313504Y0205980D01*
X0313504Y0215673D01*
X0314354Y0216523D01*
X0314354Y0215858D01*
X0314354Y0205980D01*
X0314354Y0207699D02*
X0313504Y0207699D01*
X0313504Y0209272D02*
X0314354Y0209272D01*
X0314354Y0210846D02*
X0313504Y0210846D01*
X0313504Y0212419D02*
X0314354Y0212419D01*
X0314354Y0213992D02*
X0313504Y0213992D01*
X0313504Y0215566D02*
X0314354Y0215566D01*
X0294354Y0215566D02*
X0293504Y0215566D01*
X0293504Y0217108D02*
X0294354Y0217108D01*
X0294354Y0205980D01*
X0293504Y0205980D01*
X0293504Y0217108D01*
X0293504Y0213992D02*
X0294354Y0213992D01*
X0294354Y0212419D02*
X0293504Y0212419D01*
X0293504Y0210846D02*
X0294354Y0210846D01*
X0294354Y0209272D02*
X0293504Y0209272D01*
X0293504Y0207699D02*
X0294354Y0207699D01*
X0294354Y0206126D02*
X0293504Y0206126D01*
X0284354Y0206126D02*
X0283504Y0206126D01*
X0283504Y0205980D02*
X0284354Y0205980D01*
X0284354Y0217108D01*
X0283504Y0217108D01*
X0283504Y0205980D01*
X0283504Y0207699D02*
X0284354Y0207699D01*
X0284354Y0209272D02*
X0283504Y0209272D01*
X0283504Y0210846D02*
X0284354Y0210846D01*
X0284354Y0212419D02*
X0283504Y0212419D01*
X0283504Y0213992D02*
X0284354Y0213992D01*
X0284354Y0215566D02*
X0283504Y0215566D01*
X0278929Y0220168D02*
X0282857Y0224095D01*
X0278929Y0220168D02*
X0278929Y0156060D01*
X0283590Y0151398D01*
X0283590Y0142926D01*
X0293590Y0142926D02*
X0293590Y0151398D01*
X0288929Y0156060D01*
X0288929Y0219368D01*
X0293657Y0224095D01*
X0274354Y0217108D02*
X0273504Y0217108D01*
X0273504Y0205980D01*
X0274354Y0205980D01*
X0274354Y0217108D01*
X0274354Y0215566D02*
X0273504Y0215566D01*
X0273504Y0213992D02*
X0274354Y0213992D01*
X0274354Y0212419D02*
X0273504Y0212419D01*
X0273504Y0210846D02*
X0274354Y0210846D01*
X0274354Y0209272D02*
X0273504Y0209272D01*
X0273504Y0207699D02*
X0274354Y0207699D01*
X0274354Y0206126D02*
X0273504Y0206126D01*
X0264354Y0206126D02*
X0263504Y0206126D01*
X0263504Y0205980D02*
X0263504Y0217108D01*
X0263951Y0217108D01*
X0264354Y0217511D01*
X0264354Y0205980D01*
X0263504Y0205980D01*
X0263504Y0207699D02*
X0264354Y0207699D01*
X0264354Y0209272D02*
X0263504Y0209272D01*
X0263504Y0210846D02*
X0264354Y0210846D01*
X0264354Y0212419D02*
X0263504Y0212419D01*
X0263504Y0213992D02*
X0264354Y0213992D01*
X0264354Y0215566D02*
X0263504Y0215566D01*
X0263982Y0217139D02*
X0264354Y0217139D01*
X0268929Y0221068D02*
X0271957Y0224095D01*
X0268929Y0221068D02*
X0268929Y0156060D01*
X0273590Y0151398D01*
X0273590Y0142926D01*
X0263590Y0142926D02*
X0263590Y0151398D01*
X0258929Y0156060D01*
X0258929Y0221968D01*
X0261057Y0224095D01*
X0254354Y0218411D02*
X0253504Y0217561D01*
X0253504Y0205980D01*
X0254354Y0205980D01*
X0254354Y0218411D01*
X0254354Y0217139D02*
X0253504Y0217139D01*
X0253504Y0215566D02*
X0254354Y0215566D01*
X0254354Y0213992D02*
X0253504Y0213992D01*
X0253504Y0212419D02*
X0254354Y0212419D01*
X0254354Y0210846D02*
X0253504Y0210846D01*
X0253504Y0209272D02*
X0254354Y0209272D01*
X0254354Y0207699D02*
X0253504Y0207699D01*
X0253504Y0206126D02*
X0254354Y0206126D01*
X0244354Y0206126D02*
X0243504Y0206126D01*
X0243504Y0205980D02*
X0244354Y0205980D01*
X0244354Y0219211D01*
X0243504Y0218361D01*
X0243504Y0205980D01*
X0243504Y0207699D02*
X0244354Y0207699D01*
X0244354Y0209272D02*
X0243504Y0209272D01*
X0243504Y0210846D02*
X0244354Y0210846D01*
X0244354Y0212419D02*
X0243504Y0212419D01*
X0243504Y0213992D02*
X0244354Y0213992D01*
X0244354Y0215566D02*
X0243504Y0215566D01*
X0243504Y0217139D02*
X0244354Y0217139D01*
X0244354Y0218712D02*
X0243855Y0218712D01*
X0248929Y0222868D02*
X0250157Y0224095D01*
X0248929Y0222868D02*
X0248929Y0156060D01*
X0253590Y0151398D01*
X0253590Y0142926D01*
X0243590Y0142926D02*
X0243590Y0151398D01*
X0238929Y0156060D01*
X0238929Y0223668D01*
X0239357Y0224095D01*
X0234354Y0219216D02*
X0234354Y0205980D01*
X0233031Y0205980D01*
X0233031Y0218788D01*
X0233907Y0219664D01*
X0234354Y0219216D01*
X0234354Y0218712D02*
X0233031Y0218712D01*
X0233031Y0217139D02*
X0234354Y0217139D01*
X0234354Y0215566D02*
X0233031Y0215566D01*
X0233031Y0213992D02*
X0234354Y0213992D01*
X0234354Y0212419D02*
X0233031Y0212419D01*
X0233031Y0210846D02*
X0234354Y0210846D01*
X0234354Y0209272D02*
X0233031Y0209272D01*
X0233031Y0207699D02*
X0234354Y0207699D01*
X0234354Y0206126D02*
X0233031Y0206126D01*
X0228457Y0224095D02*
X0228457Y0148060D01*
X0233590Y0142926D01*
X0235707Y0152813D02*
X0234980Y0153113D01*
X0233031Y0153113D01*
X0233031Y0154109D01*
X0234785Y0154109D01*
X0235051Y0153468D01*
X0235707Y0152813D01*
X0187354Y0206375D02*
X0185894Y0206980D01*
X0184004Y0206980D01*
X0184004Y0216673D01*
X0184439Y0217108D01*
X0187354Y0217108D01*
X0187354Y0206375D01*
X0187354Y0207699D02*
X0184004Y0207699D01*
X0184004Y0209272D02*
X0187354Y0209272D01*
X0187354Y0210846D02*
X0184004Y0210846D01*
X0184004Y0212419D02*
X0187354Y0212419D01*
X0187354Y0213992D02*
X0184004Y0213992D01*
X0184004Y0215566D02*
X0187354Y0215566D01*
X0195857Y0222987D02*
X0195857Y0224095D01*
X0174854Y0217108D02*
X0174854Y0206980D01*
X0174104Y0206980D01*
X0174104Y0217108D01*
X0174854Y0217108D01*
X0174854Y0215566D02*
X0174104Y0215566D01*
X0174104Y0213992D02*
X0174854Y0213992D01*
X0174854Y0212419D02*
X0174104Y0212419D01*
X0174104Y0210846D02*
X0174854Y0210846D01*
X0174854Y0209272D02*
X0174104Y0209272D01*
X0174104Y0207699D02*
X0174854Y0207699D01*
X0164954Y0207699D02*
X0164004Y0207699D01*
X0164004Y0206980D02*
X0164004Y0217108D01*
X0164954Y0217108D01*
X0164954Y0206980D01*
X0164004Y0206980D01*
X0164004Y0209272D02*
X0164954Y0209272D01*
X0164954Y0210846D02*
X0164004Y0210846D01*
X0164004Y0212419D02*
X0164954Y0212419D01*
X0164954Y0213992D02*
X0164004Y0213992D01*
X0164004Y0215566D02*
X0164954Y0215566D01*
X0154854Y0215566D02*
X0154104Y0215566D01*
X0154104Y0217108D02*
X0154854Y0217108D01*
X0154854Y0208358D01*
X0154854Y0206980D01*
X0154104Y0206980D01*
X0154104Y0217108D01*
X0154104Y0213992D02*
X0154854Y0213992D01*
X0154854Y0212419D02*
X0154104Y0212419D01*
X0154104Y0210846D02*
X0154854Y0210846D01*
X0154854Y0209272D02*
X0154104Y0209272D01*
X0154104Y0207699D02*
X0154854Y0207699D01*
X0107401Y0242312D02*
X0349512Y0242312D01*
X0357401Y0242312D02*
X0361326Y0242312D01*
X0361326Y0240739D02*
X0360864Y0240739D01*
X0361326Y0243885D02*
X0094461Y0243885D01*
X0094461Y0242312D02*
X0099512Y0242312D01*
X0096049Y0240739D02*
X0094461Y0240739D01*
X0094461Y0245459D02*
X0361326Y0245459D01*
X0361326Y0247032D02*
X0094461Y0247032D01*
X0094461Y0248605D02*
X0361326Y0248605D01*
X0361326Y0250179D02*
X0094461Y0250179D01*
X0094461Y0251752D02*
X0361326Y0251752D01*
X0361326Y0253325D02*
X0094461Y0253325D01*
X0094461Y0254899D02*
X0361326Y0254899D01*
X0361326Y0256472D02*
X0094461Y0256472D01*
X0094461Y0258045D02*
X0361326Y0258045D01*
X0361326Y0259619D02*
X0094461Y0259619D01*
X0094461Y0261192D02*
X0361326Y0261192D01*
X0361326Y0262765D02*
X0094461Y0262765D01*
X0094461Y0264338D02*
X0361326Y0264338D01*
X0361326Y0265912D02*
X0094461Y0265912D01*
X0094461Y0267485D02*
X0361326Y0267485D01*
X0361326Y0269058D02*
X0094461Y0269058D01*
M02*
