G75*
%MOIN*%
%OFA0B0*%
%FSLAX25Y25*%
%IPPOS*%
%LPD*%
%AMOC8*
5,1,8,0,0,1.08239X$1,22.5*
%
%ADD10OC8,0.06400*%
%ADD11C,0.20000*%
%ADD12C,0.06400*%
%ADD13C,0.01575*%
D10*
X0130578Y0076800D03*
X0141378Y0076800D03*
X0152278Y0076800D03*
X0163178Y0076800D03*
X0173978Y0076800D03*
X0184878Y0076800D03*
X0195778Y0076800D03*
X0206678Y0076800D03*
X0217478Y0076800D03*
X0228378Y0076800D03*
X0239278Y0076800D03*
X0250078Y0076800D03*
X0260978Y0076800D03*
X0271878Y0076800D03*
X0282678Y0076800D03*
X0293578Y0076800D03*
X0304478Y0076800D03*
X0315278Y0076800D03*
X0326178Y0076800D03*
X0320778Y0066800D03*
X0309878Y0066800D03*
X0298978Y0066800D03*
X0288178Y0066800D03*
X0277278Y0066800D03*
X0266378Y0066800D03*
X0255578Y0066800D03*
X0244678Y0066800D03*
X0233778Y0066800D03*
X0222978Y0066800D03*
X0212078Y0066800D03*
X0201178Y0066800D03*
X0190278Y0066800D03*
X0179478Y0066800D03*
X0168578Y0066800D03*
X0157678Y0066800D03*
X0146878Y0066800D03*
X0135978Y0066800D03*
X0130657Y0224095D03*
X0141557Y0224095D03*
X0152357Y0224095D03*
X0163257Y0224095D03*
X0174157Y0224095D03*
X0184957Y0224095D03*
X0195857Y0224095D03*
X0206757Y0224095D03*
X0217557Y0224095D03*
X0228457Y0224095D03*
X0239357Y0224095D03*
X0250157Y0224095D03*
X0261057Y0224095D03*
X0271957Y0224095D03*
X0282857Y0224095D03*
X0293657Y0224095D03*
X0304557Y0224095D03*
X0315457Y0224095D03*
X0326257Y0224095D03*
X0320857Y0234095D03*
X0309957Y0234095D03*
X0299157Y0234095D03*
X0288257Y0234095D03*
X0277357Y0234095D03*
X0266457Y0234095D03*
X0255657Y0234095D03*
X0244757Y0234095D03*
X0233857Y0234095D03*
X0223057Y0234095D03*
X0212157Y0234095D03*
X0201257Y0234095D03*
X0190457Y0234095D03*
X0179557Y0234095D03*
X0168657Y0234095D03*
X0157857Y0234095D03*
X0146957Y0234095D03*
X0136057Y0234095D03*
D11*
X0103457Y0229095D03*
X0103378Y0071800D03*
X0353378Y0071800D03*
X0353457Y0229095D03*
D12*
X0323842Y0198992D02*
X0323842Y0192592D01*
X0313842Y0192592D02*
X0313842Y0198992D01*
X0303842Y0198992D02*
X0303842Y0192592D01*
X0303842Y0183244D02*
X0303842Y0176844D01*
X0303842Y0167496D02*
X0303842Y0161096D01*
X0293842Y0161096D02*
X0293842Y0167496D01*
X0283842Y0167496D02*
X0283842Y0161096D01*
X0273842Y0161096D02*
X0273842Y0167496D01*
X0273842Y0176844D02*
X0273842Y0183244D01*
X0273842Y0192592D02*
X0273842Y0198992D01*
X0263842Y0198992D02*
X0263842Y0192592D01*
X0253842Y0192592D02*
X0253842Y0198992D01*
X0243842Y0198992D02*
X0243842Y0192592D01*
X0233842Y0192592D02*
X0233842Y0198992D01*
X0233842Y0183244D02*
X0233842Y0176844D01*
X0243842Y0176844D02*
X0243842Y0183244D01*
X0253842Y0183244D02*
X0253842Y0176844D01*
X0263842Y0176844D02*
X0263842Y0183244D01*
X0263842Y0167496D02*
X0263842Y0161096D01*
X0253842Y0161096D02*
X0253842Y0167496D01*
X0243842Y0167496D02*
X0243842Y0161096D01*
X0233842Y0161096D02*
X0233842Y0167496D01*
X0233590Y0146126D02*
X0233590Y0139726D01*
X0233590Y0130378D02*
X0233590Y0123978D01*
X0233590Y0114630D02*
X0233590Y0108230D01*
X0243590Y0108230D02*
X0243590Y0114630D01*
X0243590Y0123978D02*
X0243590Y0130378D01*
X0243590Y0139726D02*
X0243590Y0146126D01*
X0253590Y0146126D02*
X0253590Y0139726D01*
X0263590Y0139726D02*
X0263590Y0146126D01*
X0273590Y0146126D02*
X0273590Y0139726D01*
X0273590Y0130378D02*
X0273590Y0123978D01*
X0273590Y0114630D02*
X0273590Y0108230D01*
X0263590Y0108230D02*
X0263590Y0114630D01*
X0253590Y0114630D02*
X0253590Y0108230D01*
X0253590Y0123978D02*
X0253590Y0130378D01*
X0263590Y0130378D02*
X0263590Y0123978D01*
X0283590Y0123978D02*
X0283590Y0130378D01*
X0293590Y0130378D02*
X0293590Y0123978D01*
X0293590Y0114630D02*
X0293590Y0108230D01*
X0283590Y0108230D02*
X0283590Y0114630D01*
X0303590Y0114630D02*
X0303590Y0108230D01*
X0313590Y0108230D02*
X0313590Y0114630D01*
X0313590Y0123978D02*
X0313590Y0130378D01*
X0303590Y0130378D02*
X0303590Y0123978D01*
X0323590Y0123978D02*
X0323590Y0130378D01*
X0323590Y0139726D02*
X0323590Y0146126D01*
X0313590Y0146126D02*
X0313590Y0139726D01*
X0303590Y0139726D02*
X0303590Y0146126D01*
X0293590Y0146126D02*
X0293590Y0139726D01*
X0283590Y0139726D02*
X0283590Y0146126D01*
X0313842Y0161096D02*
X0313842Y0167496D01*
X0323842Y0167496D02*
X0323842Y0161096D01*
X0323842Y0176844D02*
X0323842Y0183244D01*
X0313842Y0183244D02*
X0313842Y0176844D01*
X0293842Y0176844D02*
X0293842Y0183244D01*
X0283842Y0183244D02*
X0283842Y0176844D01*
X0283842Y0192592D02*
X0283842Y0198992D01*
X0293842Y0198992D02*
X0293842Y0192592D01*
X0205228Y0146126D02*
X0205228Y0139726D01*
X0205228Y0130378D02*
X0205228Y0123978D01*
X0205228Y0114630D02*
X0205228Y0108230D01*
X0195228Y0108230D02*
X0195228Y0114630D01*
X0185228Y0114630D02*
X0185228Y0108230D01*
X0175228Y0108230D02*
X0175228Y0114630D01*
X0175228Y0123978D02*
X0175228Y0130378D01*
X0175228Y0139726D02*
X0175228Y0146126D01*
X0165228Y0146126D02*
X0165228Y0139726D01*
X0155228Y0139726D02*
X0155228Y0146126D01*
X0145228Y0146126D02*
X0145228Y0139726D01*
X0145228Y0130378D02*
X0145228Y0123978D01*
X0145228Y0114630D02*
X0145228Y0108230D01*
X0135228Y0108230D02*
X0135228Y0114630D01*
X0125228Y0114630D02*
X0125228Y0108230D01*
X0115228Y0108230D02*
X0115228Y0114630D01*
X0115228Y0123978D02*
X0115228Y0130378D01*
X0115228Y0139726D02*
X0115228Y0146126D01*
X0125228Y0146126D02*
X0125228Y0139726D01*
X0135228Y0139726D02*
X0135228Y0146126D01*
X0135228Y0130378D02*
X0135228Y0123978D01*
X0125228Y0123978D02*
X0125228Y0130378D01*
X0155228Y0130378D02*
X0155228Y0123978D01*
X0165228Y0123978D02*
X0165228Y0130378D01*
X0165228Y0114630D02*
X0165228Y0108230D01*
X0155228Y0108230D02*
X0155228Y0114630D01*
X0185228Y0123978D02*
X0185228Y0130378D01*
X0195228Y0130378D02*
X0195228Y0123978D01*
X0195228Y0139726D02*
X0195228Y0146126D01*
X0185228Y0146126D02*
X0185228Y0139726D01*
X0184504Y0162096D02*
X0184504Y0168496D01*
X0174504Y0168496D02*
X0174504Y0162096D01*
X0164504Y0162096D02*
X0164504Y0168496D01*
X0154504Y0168496D02*
X0154504Y0162096D01*
X0144504Y0162096D02*
X0144504Y0168496D01*
X0144504Y0177844D02*
X0144504Y0184244D01*
X0144504Y0193592D02*
X0144504Y0199992D01*
X0154504Y0199992D02*
X0154504Y0193592D01*
X0164504Y0193592D02*
X0164504Y0199992D01*
X0174504Y0199992D02*
X0174504Y0193592D01*
X0184504Y0193592D02*
X0184504Y0199992D01*
X0184504Y0184244D02*
X0184504Y0177844D01*
X0174504Y0177844D02*
X0174504Y0184244D01*
X0164504Y0184244D02*
X0164504Y0177844D01*
X0154504Y0177844D02*
X0154504Y0184244D01*
X0134504Y0184244D02*
X0134504Y0177844D01*
X0124504Y0177844D02*
X0124504Y0184244D01*
X0124504Y0193592D02*
X0124504Y0199992D01*
X0134504Y0199992D02*
X0134504Y0193592D01*
X0134504Y0168496D02*
X0134504Y0162096D01*
X0124504Y0162096D02*
X0124504Y0168496D01*
X0323590Y0114630D02*
X0323590Y0108230D01*
D13*
X0094461Y0061218D02*
X0094461Y0030246D01*
X0361326Y0030246D01*
X0361326Y0060469D01*
X0358700Y0058952D01*
X0355193Y0058013D01*
X0351563Y0058013D01*
X0348056Y0058952D01*
X0344912Y0060767D01*
X0342345Y0063334D01*
X0340530Y0066478D01*
X0339590Y0069985D01*
X0339590Y0073615D01*
X0340530Y0077122D01*
X0342345Y0080266D01*
X0344912Y0082833D01*
X0348056Y0084648D01*
X0351563Y0085587D01*
X0355193Y0085587D01*
X0358700Y0084648D01*
X0361326Y0083131D01*
X0361326Y0217718D01*
X0358778Y0216247D01*
X0355272Y0215308D01*
X0351641Y0215308D01*
X0348135Y0216247D01*
X0344991Y0218063D01*
X0342424Y0220630D01*
X0340609Y0223774D01*
X0339669Y0227280D01*
X0339669Y0230910D01*
X0340609Y0234417D01*
X0342424Y0237561D01*
X0344991Y0240128D01*
X0348135Y0241943D01*
X0351641Y0242883D01*
X0355272Y0242883D01*
X0358778Y0241943D01*
X0361326Y0240472D01*
X0361326Y0269945D01*
X0094461Y0269945D01*
X0094461Y0239598D01*
X0094991Y0240128D01*
X0098135Y0241943D01*
X0101641Y0242883D01*
X0105272Y0242883D01*
X0108778Y0241943D01*
X0111922Y0240128D01*
X0114489Y0237561D01*
X0116304Y0234417D01*
X0117244Y0230910D01*
X0117244Y0227280D01*
X0116304Y0223774D01*
X0114489Y0220630D01*
X0111922Y0218063D01*
X0108778Y0216247D01*
X0105272Y0215308D01*
X0101641Y0215308D01*
X0098135Y0216247D01*
X0094991Y0218063D01*
X0094461Y0218592D01*
X0094461Y0082382D01*
X0094912Y0082833D01*
X0098056Y0084648D01*
X0101563Y0085587D01*
X0105193Y0085587D01*
X0108700Y0084648D01*
X0110653Y0083520D01*
X0110653Y0102923D01*
X0109305Y0104272D01*
X0108241Y0106840D01*
X0108241Y0116020D01*
X0109305Y0118588D01*
X0110021Y0119304D01*
X0109305Y0120020D01*
X0108241Y0122588D01*
X0108241Y0131768D01*
X0109305Y0134336D01*
X0110021Y0135052D01*
X0109305Y0135768D01*
X0108241Y0138336D01*
X0108241Y0147516D01*
X0109305Y0150084D01*
X0110653Y0151433D01*
X0110653Y0202970D01*
X0111350Y0204651D01*
X0117354Y0210656D01*
X0117354Y0234970D01*
X0118051Y0236651D01*
X0119338Y0237938D01*
X0127338Y0245938D01*
X0129019Y0246635D01*
X0315839Y0246635D01*
X0317520Y0245938D01*
X0318807Y0244651D01*
X0322376Y0241083D01*
X0323751Y0241083D01*
X0327844Y0236990D01*
X0327844Y0231201D01*
X0327726Y0231083D01*
X0329151Y0231083D01*
X0333244Y0226990D01*
X0333244Y0221201D01*
X0329151Y0217108D01*
X0323362Y0217108D01*
X0320857Y0219614D01*
X0318851Y0217608D01*
X0327721Y0208738D01*
X0328417Y0207056D01*
X0328417Y0204299D01*
X0329766Y0202950D01*
X0330830Y0200382D01*
X0330830Y0191202D01*
X0329766Y0188634D01*
X0329050Y0187918D01*
X0329766Y0187202D01*
X0330830Y0184634D01*
X0330830Y0175454D01*
X0329766Y0172886D01*
X0329050Y0172170D01*
X0329766Y0171454D01*
X0330830Y0168886D01*
X0330830Y0159706D01*
X0329766Y0157138D01*
X0328417Y0155789D01*
X0328417Y0155363D01*
X0327721Y0153682D01*
X0326516Y0152477D01*
X0327548Y0152050D01*
X0329514Y0150084D01*
X0330578Y0147516D01*
X0330578Y0138336D01*
X0329514Y0135768D01*
X0328798Y0135052D01*
X0329514Y0134336D01*
X0330578Y0131768D01*
X0330578Y0122588D01*
X0329514Y0120020D01*
X0328798Y0119304D01*
X0329514Y0118588D01*
X0330578Y0116020D01*
X0330578Y0106840D01*
X0329514Y0104272D01*
X0327548Y0102306D01*
X0324980Y0101243D01*
X0323204Y0101243D01*
X0323204Y0090850D01*
X0322507Y0089168D01*
X0321220Y0087882D01*
X0317126Y0083787D01*
X0318172Y0083787D01*
X0320728Y0081232D01*
X0323284Y0083787D01*
X0329072Y0083787D01*
X0333165Y0079694D01*
X0333165Y0073906D01*
X0329072Y0069813D01*
X0327647Y0069813D01*
X0327765Y0069694D01*
X0327765Y0063906D01*
X0323672Y0059813D01*
X0320260Y0059813D01*
X0313629Y0053182D01*
X0311948Y0052485D01*
X0128019Y0052485D01*
X0126338Y0053182D01*
X0125051Y0054468D01*
X0118051Y0061468D01*
X0117354Y0063150D01*
X0117354Y0074165D01*
X0116895Y0074624D01*
X0117165Y0073615D01*
X0117165Y0069985D01*
X0116226Y0066478D01*
X0114410Y0063334D01*
X0111843Y0060767D01*
X0108700Y0058952D01*
X0105193Y0058013D01*
X0101563Y0058013D01*
X0098056Y0058952D01*
X0094912Y0060767D01*
X0094461Y0061218D01*
X0094461Y0059808D02*
X0096574Y0059808D01*
X0094461Y0058234D02*
X0100735Y0058234D01*
X0106020Y0058234D02*
X0121285Y0058234D01*
X0122858Y0056661D02*
X0094461Y0056661D01*
X0094461Y0055088D02*
X0124431Y0055088D01*
X0126005Y0053514D02*
X0094461Y0053514D01*
X0094461Y0051941D02*
X0361326Y0051941D01*
X0361326Y0050368D02*
X0094461Y0050368D01*
X0094461Y0048794D02*
X0361326Y0048794D01*
X0361326Y0047221D02*
X0094461Y0047221D01*
X0094461Y0045648D02*
X0361326Y0045648D01*
X0361326Y0044074D02*
X0094461Y0044074D01*
X0094461Y0042501D02*
X0361326Y0042501D01*
X0361326Y0040928D02*
X0094461Y0040928D01*
X0094461Y0039355D02*
X0361326Y0039355D01*
X0361326Y0037781D02*
X0094461Y0037781D01*
X0094461Y0036208D02*
X0361326Y0036208D01*
X0361326Y0034635D02*
X0094461Y0034635D01*
X0094461Y0033061D02*
X0361326Y0033061D01*
X0361326Y0031488D02*
X0094461Y0031488D01*
X0110181Y0059808D02*
X0119711Y0059808D01*
X0118138Y0061381D02*
X0112457Y0061381D01*
X0114030Y0062954D02*
X0117435Y0062954D01*
X0117354Y0064528D02*
X0115099Y0064528D01*
X0116008Y0066101D02*
X0117354Y0066101D01*
X0117354Y0067674D02*
X0116546Y0067674D01*
X0116968Y0069247D02*
X0117354Y0069247D01*
X0117354Y0070821D02*
X0117165Y0070821D01*
X0117165Y0072394D02*
X0117354Y0072394D01*
X0117354Y0073967D02*
X0117071Y0073967D01*
X0121929Y0076060D02*
X0115228Y0082761D01*
X0115228Y0111430D01*
X0115228Y0114060D01*
X0115228Y0127178D01*
X0115228Y0142926D01*
X0115228Y0193359D01*
X0115228Y0202060D01*
X0121929Y0208761D01*
X0121929Y0222060D01*
X0121929Y0234060D01*
X0129929Y0242060D01*
X0314929Y0242060D01*
X0320857Y0236132D01*
X0320857Y0234095D01*
X0327844Y0234446D02*
X0340625Y0234446D01*
X0340195Y0232872D02*
X0327844Y0232872D01*
X0327844Y0231299D02*
X0339773Y0231299D01*
X0339669Y0229726D02*
X0330508Y0229726D01*
X0332081Y0228152D02*
X0339669Y0228152D01*
X0339857Y0226579D02*
X0333244Y0226579D01*
X0333244Y0225006D02*
X0340279Y0225006D01*
X0340806Y0223432D02*
X0333244Y0223432D01*
X0333244Y0221859D02*
X0341714Y0221859D01*
X0342768Y0220286D02*
X0332329Y0220286D01*
X0330755Y0218712D02*
X0344341Y0218712D01*
X0346591Y0217139D02*
X0329182Y0217139D01*
X0323331Y0217139D02*
X0319320Y0217139D01*
X0319955Y0218712D02*
X0321758Y0218712D01*
X0320893Y0215566D02*
X0350679Y0215566D01*
X0356234Y0215566D02*
X0361326Y0215566D01*
X0361326Y0217139D02*
X0360323Y0217139D01*
X0361326Y0213992D02*
X0322466Y0213992D01*
X0324039Y0212419D02*
X0361326Y0212419D01*
X0361326Y0210846D02*
X0325613Y0210846D01*
X0327186Y0209272D02*
X0361326Y0209272D01*
X0361326Y0207699D02*
X0328151Y0207699D01*
X0328417Y0206126D02*
X0361326Y0206126D01*
X0361326Y0204553D02*
X0328417Y0204553D01*
X0329737Y0202979D02*
X0361326Y0202979D01*
X0361326Y0201406D02*
X0330406Y0201406D01*
X0330830Y0199833D02*
X0361326Y0199833D01*
X0361326Y0198259D02*
X0330830Y0198259D01*
X0330830Y0196686D02*
X0361326Y0196686D01*
X0361326Y0195113D02*
X0330830Y0195113D01*
X0330830Y0193539D02*
X0361326Y0193539D01*
X0361326Y0191966D02*
X0330830Y0191966D01*
X0330494Y0190393D02*
X0361326Y0190393D01*
X0361326Y0188819D02*
X0329843Y0188819D01*
X0329722Y0187246D02*
X0361326Y0187246D01*
X0361326Y0185673D02*
X0330399Y0185673D01*
X0330830Y0184099D02*
X0361326Y0184099D01*
X0361326Y0182526D02*
X0330830Y0182526D01*
X0330830Y0180953D02*
X0361326Y0180953D01*
X0361326Y0179380D02*
X0330830Y0179380D01*
X0330830Y0177806D02*
X0361326Y0177806D01*
X0361326Y0176233D02*
X0330830Y0176233D01*
X0330501Y0174660D02*
X0361326Y0174660D01*
X0361326Y0173086D02*
X0329849Y0173086D01*
X0329707Y0171513D02*
X0361326Y0171513D01*
X0361326Y0169940D02*
X0330393Y0169940D01*
X0330830Y0168366D02*
X0361326Y0168366D01*
X0361326Y0166793D02*
X0330830Y0166793D01*
X0330830Y0165220D02*
X0361326Y0165220D01*
X0361326Y0163646D02*
X0330830Y0163646D01*
X0330830Y0162073D02*
X0361326Y0162073D01*
X0361326Y0160500D02*
X0330830Y0160500D01*
X0330507Y0158926D02*
X0361326Y0158926D01*
X0361326Y0157353D02*
X0329855Y0157353D01*
X0328417Y0155780D02*
X0361326Y0155780D01*
X0361326Y0154206D02*
X0327938Y0154206D01*
X0326672Y0152633D02*
X0361326Y0152633D01*
X0361326Y0151060D02*
X0328538Y0151060D01*
X0329762Y0149487D02*
X0361326Y0149487D01*
X0361326Y0147913D02*
X0330413Y0147913D01*
X0330578Y0146340D02*
X0361326Y0146340D01*
X0361326Y0144767D02*
X0330578Y0144767D01*
X0330578Y0143193D02*
X0361326Y0143193D01*
X0361326Y0141620D02*
X0330578Y0141620D01*
X0330578Y0140047D02*
X0361326Y0140047D01*
X0361326Y0138473D02*
X0330578Y0138473D01*
X0329983Y0136900D02*
X0361326Y0136900D01*
X0361326Y0135327D02*
X0329073Y0135327D01*
X0329755Y0133753D02*
X0361326Y0133753D01*
X0361326Y0132180D02*
X0330407Y0132180D01*
X0330578Y0130607D02*
X0361326Y0130607D01*
X0361326Y0129033D02*
X0330578Y0129033D01*
X0330578Y0127460D02*
X0361326Y0127460D01*
X0361326Y0125887D02*
X0330578Y0125887D01*
X0330578Y0124313D02*
X0361326Y0124313D01*
X0361326Y0122740D02*
X0330578Y0122740D01*
X0329989Y0121167D02*
X0361326Y0121167D01*
X0361326Y0119594D02*
X0329088Y0119594D01*
X0329749Y0118020D02*
X0361326Y0118020D01*
X0361326Y0116447D02*
X0330401Y0116447D01*
X0330578Y0114874D02*
X0361326Y0114874D01*
X0361326Y0113300D02*
X0330578Y0113300D01*
X0330578Y0111727D02*
X0361326Y0111727D01*
X0361326Y0110154D02*
X0330578Y0110154D01*
X0330578Y0108580D02*
X0361326Y0108580D01*
X0361326Y0107007D02*
X0330578Y0107007D01*
X0329995Y0105434D02*
X0361326Y0105434D01*
X0361326Y0103860D02*
X0329103Y0103860D01*
X0327502Y0102287D02*
X0361326Y0102287D01*
X0361326Y0100714D02*
X0323204Y0100714D01*
X0323204Y0099140D02*
X0361326Y0099140D01*
X0361326Y0097567D02*
X0323204Y0097567D01*
X0323204Y0095994D02*
X0361326Y0095994D01*
X0361326Y0094421D02*
X0323204Y0094421D01*
X0323204Y0092847D02*
X0361326Y0092847D01*
X0361326Y0091274D02*
X0323204Y0091274D01*
X0322728Y0089701D02*
X0361326Y0089701D01*
X0361326Y0088127D02*
X0321466Y0088127D01*
X0319893Y0086554D02*
X0361326Y0086554D01*
X0361326Y0084981D02*
X0357457Y0084981D01*
X0360848Y0083407D02*
X0361326Y0083407D01*
X0349298Y0084981D02*
X0318320Y0084981D01*
X0318552Y0083407D02*
X0322903Y0083407D01*
X0321330Y0081834D02*
X0320125Y0081834D01*
X0329452Y0083407D02*
X0345908Y0083407D01*
X0343914Y0081834D02*
X0331025Y0081834D01*
X0332599Y0080261D02*
X0342342Y0080261D01*
X0341434Y0078687D02*
X0333165Y0078687D01*
X0333165Y0077114D02*
X0340528Y0077114D01*
X0340106Y0075541D02*
X0333165Y0075541D01*
X0333165Y0073967D02*
X0339685Y0073967D01*
X0339590Y0072394D02*
X0331654Y0072394D01*
X0330080Y0070821D02*
X0339590Y0070821D01*
X0339788Y0069247D02*
X0327765Y0069247D01*
X0327765Y0067674D02*
X0340210Y0067674D01*
X0340748Y0066101D02*
X0327765Y0066101D01*
X0327765Y0064528D02*
X0341656Y0064528D01*
X0342725Y0062954D02*
X0326814Y0062954D01*
X0325240Y0061381D02*
X0344299Y0061381D01*
X0346574Y0059808D02*
X0320255Y0059808D01*
X0318682Y0058234D02*
X0350735Y0058234D01*
X0356020Y0058234D02*
X0361326Y0058234D01*
X0361326Y0056661D02*
X0317109Y0056661D01*
X0315535Y0055088D02*
X0361326Y0055088D01*
X0361326Y0053514D02*
X0313962Y0053514D01*
X0311038Y0057060D02*
X0320778Y0066800D01*
X0309878Y0066800D02*
X0309878Y0079009D01*
X0309878Y0083009D01*
X0318629Y0091760D01*
X0318629Y0101760D01*
X0318629Y0151060D01*
X0323842Y0156273D01*
X0323842Y0161060D01*
X0323842Y0157973D01*
X0323842Y0161060D02*
X0323842Y0164296D01*
X0323842Y0180044D01*
X0323842Y0195792D01*
X0323842Y0206146D01*
X0309929Y0220060D01*
X0309929Y0234068D01*
X0309957Y0234095D01*
X0299157Y0234095D02*
X0299157Y0221832D01*
X0305929Y0215060D01*
X0313842Y0207146D01*
X0313842Y0195792D01*
X0313842Y0180044D01*
X0313842Y0164296D01*
X0313842Y0156973D01*
X0308929Y0152060D01*
X0308629Y0151760D01*
X0308629Y0100960D01*
X0308629Y0090960D01*
X0298978Y0081309D01*
X0298978Y0066800D01*
X0303694Y0061635D02*
X0304428Y0062368D01*
X0305162Y0061635D01*
X0303694Y0061635D01*
X0311038Y0057060D02*
X0128929Y0057060D01*
X0121929Y0064060D01*
X0121929Y0076060D01*
X0124177Y0080281D02*
X0119803Y0084656D01*
X0119803Y0091716D01*
X0127732Y0083787D01*
X0127684Y0083787D01*
X0124177Y0080281D01*
X0122625Y0081834D02*
X0125730Y0081834D01*
X0127303Y0083407D02*
X0121051Y0083407D01*
X0119803Y0084981D02*
X0126538Y0084981D01*
X0124965Y0086554D02*
X0119803Y0086554D01*
X0119803Y0088127D02*
X0123392Y0088127D01*
X0121819Y0089701D02*
X0119803Y0089701D01*
X0119803Y0091274D02*
X0120245Y0091274D01*
X0120229Y0097760D02*
X0134429Y0083560D01*
X0131929Y0086060D01*
X0134429Y0083560D02*
X0135978Y0082011D01*
X0135978Y0066800D01*
X0140694Y0061635D02*
X0141428Y0062368D01*
X0142162Y0061635D01*
X0140694Y0061635D01*
X0146878Y0066800D02*
X0146878Y0085011D01*
X0140229Y0091660D01*
X0140229Y0104660D01*
X0140229Y0149160D01*
X0134504Y0154885D01*
X0134504Y0165296D01*
X0134504Y0181044D01*
X0134504Y0196792D01*
X0134504Y0207792D01*
X0146957Y0220245D01*
X0146957Y0234095D01*
X0136057Y0234095D02*
X0136057Y0219345D01*
X0124504Y0207792D01*
X0124504Y0196792D01*
X0124504Y0181044D01*
X0124504Y0165296D01*
X0124504Y0154335D01*
X0120229Y0150060D01*
X0120229Y0107060D01*
X0120229Y0105760D01*
X0120229Y0097760D01*
X0124804Y0099655D02*
X0124804Y0101243D01*
X0126618Y0101243D01*
X0129186Y0102306D01*
X0130228Y0103348D01*
X0131270Y0102306D01*
X0133838Y0101243D01*
X0135654Y0101243D01*
X0135654Y0090750D01*
X0136351Y0089068D01*
X0141632Y0083787D01*
X0140194Y0083787D01*
X0139856Y0084602D01*
X0138569Y0085889D01*
X0138307Y0086151D01*
X0138307Y0086151D01*
X0124804Y0099655D01*
X0125318Y0099140D02*
X0135654Y0099140D01*
X0135654Y0097567D02*
X0126891Y0097567D01*
X0128465Y0095994D02*
X0135654Y0095994D01*
X0135654Y0094421D02*
X0130038Y0094421D01*
X0131611Y0092847D02*
X0135654Y0092847D01*
X0135654Y0091274D02*
X0133185Y0091274D01*
X0134758Y0089701D02*
X0136089Y0089701D01*
X0136331Y0088127D02*
X0137292Y0088127D01*
X0137905Y0086554D02*
X0138865Y0086554D01*
X0138569Y0085889D02*
X0138569Y0085889D01*
X0139478Y0084981D02*
X0140438Y0084981D01*
X0145654Y0092704D02*
X0144804Y0093555D01*
X0144804Y0101243D01*
X0145654Y0101243D01*
X0145654Y0092704D01*
X0145654Y0092847D02*
X0145511Y0092847D01*
X0145654Y0094421D02*
X0144804Y0094421D01*
X0144804Y0095994D02*
X0145654Y0095994D01*
X0145654Y0097567D02*
X0144804Y0097567D01*
X0144804Y0099140D02*
X0145654Y0099140D01*
X0145654Y0100714D02*
X0144804Y0100714D01*
X0150229Y0105160D02*
X0150229Y0092160D01*
X0157678Y0084711D01*
X0157678Y0083060D01*
X0157678Y0066800D01*
X0162394Y0061635D02*
X0163128Y0062368D01*
X0163862Y0061635D01*
X0162394Y0061635D01*
X0168578Y0066800D02*
X0168578Y0079060D01*
X0168578Y0083811D01*
X0160229Y0092160D01*
X0160229Y0105160D01*
X0160229Y0151760D01*
X0159929Y0152060D01*
X0154504Y0157485D01*
X0154504Y0165296D01*
X0154504Y0181044D01*
X0154504Y0196792D01*
X0154504Y0207792D01*
X0168657Y0221945D01*
X0168657Y0234095D01*
X0157857Y0234095D02*
X0157857Y0221145D01*
X0144504Y0207792D01*
X0144504Y0196792D01*
X0144504Y0181044D01*
X0144504Y0165296D01*
X0144504Y0156085D01*
X0150129Y0150460D01*
X0150129Y0150360D01*
X0150229Y0150260D01*
X0150229Y0105160D01*
X0154804Y0101243D02*
X0154804Y0094055D01*
X0155654Y0093204D01*
X0155654Y0101243D01*
X0154804Y0101243D01*
X0154804Y0100714D02*
X0155654Y0100714D01*
X0155654Y0099140D02*
X0154804Y0099140D01*
X0154804Y0097567D02*
X0155654Y0097567D01*
X0155654Y0095994D02*
X0154804Y0095994D01*
X0154804Y0094421D02*
X0155654Y0094421D01*
X0164804Y0094421D02*
X0165754Y0094421D01*
X0164804Y0094055D02*
X0165754Y0093104D01*
X0165754Y0101243D01*
X0164804Y0101243D01*
X0164804Y0094055D01*
X0164804Y0095994D02*
X0165754Y0095994D01*
X0165754Y0097567D02*
X0164804Y0097567D01*
X0164804Y0099140D02*
X0165754Y0099140D01*
X0165754Y0100714D02*
X0164804Y0100714D01*
X0170329Y0105460D02*
X0170329Y0092460D01*
X0179478Y0083311D01*
X0179478Y0066800D01*
X0184194Y0061635D02*
X0184878Y0062318D01*
X0185562Y0061635D01*
X0184194Y0061635D01*
X0190278Y0066800D02*
X0190278Y0077060D01*
X0190278Y0082211D01*
X0180329Y0092160D01*
X0180329Y0105160D01*
X0180329Y0150760D01*
X0180229Y0150860D01*
X0174504Y0156585D01*
X0174504Y0165296D01*
X0174504Y0181044D01*
X0174504Y0196792D01*
X0174504Y0205635D01*
X0190457Y0221587D01*
X0190457Y0234095D01*
X0179557Y0234095D02*
X0179557Y0220687D01*
X0164504Y0205635D01*
X0164504Y0196792D01*
X0164504Y0181044D01*
X0164504Y0165296D01*
X0164504Y0157585D01*
X0170329Y0151760D01*
X0170329Y0105460D01*
X0174904Y0101243D02*
X0174904Y0094355D01*
X0175754Y0093504D01*
X0175754Y0101243D01*
X0174904Y0101243D01*
X0174904Y0100714D02*
X0175754Y0100714D01*
X0175754Y0099140D02*
X0174904Y0099140D01*
X0174904Y0097567D02*
X0175754Y0097567D01*
X0175754Y0095994D02*
X0174904Y0095994D01*
X0174904Y0094421D02*
X0175754Y0094421D01*
X0184904Y0094421D02*
X0185654Y0094421D01*
X0184904Y0094055D02*
X0185654Y0093304D01*
X0185654Y0101243D01*
X0184904Y0101243D01*
X0184904Y0094055D01*
X0184904Y0095994D02*
X0185654Y0095994D01*
X0185654Y0097567D02*
X0184904Y0097567D01*
X0184904Y0099140D02*
X0185654Y0099140D01*
X0185654Y0100714D02*
X0184904Y0100714D01*
X0190229Y0105460D02*
X0190229Y0092460D01*
X0201178Y0081511D01*
X0201178Y0073060D01*
X0201178Y0066800D01*
X0205894Y0061635D02*
X0206628Y0062368D01*
X0207362Y0061635D01*
X0205894Y0061635D01*
X0212078Y0066800D02*
X0212078Y0080209D01*
X0225929Y0094060D01*
X0225929Y0107060D01*
X0225929Y0146060D01*
X0227429Y0147560D01*
X0225929Y0146060D01*
X0227429Y0147560D02*
X0233842Y0153973D01*
X0233842Y0164296D01*
X0233842Y0180044D01*
X0233842Y0195792D01*
X0233842Y0198146D01*
X0213929Y0218060D01*
X0212157Y0219832D01*
X0212157Y0234095D01*
X0223057Y0234095D02*
X0223057Y0220932D01*
X0223929Y0220060D01*
X0243842Y0200146D01*
X0243842Y0195792D01*
X0243842Y0180044D01*
X0243842Y0164296D01*
X0243842Y0154673D01*
X0238629Y0149460D01*
X0238629Y0106760D01*
X0238629Y0104760D01*
X0238629Y0096760D01*
X0224929Y0083060D01*
X0222978Y0081109D01*
X0222978Y0066800D01*
X0227694Y0061635D02*
X0228378Y0062318D01*
X0229062Y0061635D01*
X0227694Y0061635D01*
X0233778Y0066800D02*
X0233778Y0080909D01*
X0248629Y0095760D01*
X0248629Y0108060D01*
X0248629Y0149060D01*
X0253842Y0154273D01*
X0253842Y0164296D01*
X0253842Y0180044D01*
X0253842Y0195792D01*
X0253842Y0200146D01*
X0233929Y0220060D01*
X0233857Y0220132D01*
X0233857Y0234095D01*
X0244757Y0234095D02*
X0244757Y0221232D01*
X0246929Y0219060D01*
X0263842Y0202146D01*
X0263842Y0195792D01*
X0263842Y0180044D01*
X0263842Y0164296D01*
X0263842Y0154573D01*
X0258529Y0149260D01*
X0258529Y0109060D01*
X0258529Y0095660D01*
X0244678Y0081809D01*
X0244678Y0066800D01*
X0249394Y0061635D02*
X0250128Y0062368D01*
X0250862Y0061635D01*
X0249394Y0061635D01*
X0255578Y0066800D02*
X0255578Y0080709D01*
X0260929Y0086060D01*
X0268529Y0093660D01*
X0268529Y0106060D01*
X0268529Y0149160D01*
X0273842Y0154473D01*
X0273842Y0164296D01*
X0273842Y0180044D01*
X0273842Y0195792D01*
X0273842Y0202146D01*
X0259929Y0216060D01*
X0255657Y0220332D01*
X0255657Y0234095D01*
X0266457Y0234095D02*
X0266457Y0219532D01*
X0268929Y0217060D01*
X0283842Y0202146D01*
X0283842Y0195792D01*
X0283842Y0180044D01*
X0283842Y0164296D01*
X0283842Y0154273D01*
X0278629Y0149060D01*
X0278629Y0104060D01*
X0278629Y0092760D01*
X0271929Y0086060D01*
X0266378Y0080509D01*
X0266378Y0066800D01*
X0271094Y0061635D02*
X0271828Y0062368D01*
X0272562Y0061635D01*
X0271094Y0061635D01*
X0277278Y0066800D02*
X0277278Y0079409D01*
X0283929Y0086060D01*
X0288529Y0090660D01*
X0288529Y0100660D01*
X0288529Y0149360D01*
X0293842Y0154673D01*
X0293842Y0164296D01*
X0293842Y0180044D01*
X0293842Y0195792D01*
X0293842Y0203146D01*
X0280929Y0216060D01*
X0277357Y0219632D01*
X0277357Y0234095D01*
X0288257Y0234095D02*
X0288257Y0219732D01*
X0289929Y0218060D01*
X0303842Y0204146D01*
X0303842Y0195792D01*
X0303842Y0180044D01*
X0303842Y0164296D01*
X0303842Y0156973D01*
X0298629Y0151760D01*
X0298629Y0100760D01*
X0298629Y0090760D01*
X0293929Y0086060D01*
X0288178Y0080309D01*
X0288178Y0066800D01*
X0292894Y0061635D02*
X0293578Y0062318D01*
X0294262Y0061635D01*
X0292894Y0061635D01*
X0283462Y0061635D02*
X0281994Y0061635D01*
X0282728Y0062368D01*
X0283462Y0061635D01*
X0261662Y0061635D02*
X0260294Y0061635D01*
X0260978Y0062318D01*
X0261662Y0061635D01*
X0239962Y0061635D02*
X0238494Y0061635D01*
X0239228Y0062368D01*
X0239962Y0061635D01*
X0218262Y0061635D02*
X0216794Y0061635D01*
X0217528Y0062368D01*
X0218262Y0061635D01*
X0196462Y0061635D02*
X0194994Y0061635D01*
X0195728Y0062368D01*
X0196462Y0061635D01*
X0174762Y0061635D02*
X0173294Y0061635D01*
X0174028Y0062368D01*
X0174762Y0061635D01*
X0152962Y0061635D02*
X0151594Y0061635D01*
X0152278Y0062318D01*
X0152962Y0061635D01*
X0131262Y0061635D02*
X0130824Y0061635D01*
X0126504Y0065955D01*
X0126504Y0070992D01*
X0127684Y0069813D01*
X0129109Y0069813D01*
X0128990Y0069694D01*
X0128990Y0063906D01*
X0131262Y0061635D01*
X0129942Y0062954D02*
X0129504Y0062954D01*
X0128990Y0064528D02*
X0127931Y0064528D01*
X0128990Y0066101D02*
X0126504Y0066101D01*
X0126504Y0067674D02*
X0128990Y0067674D01*
X0128990Y0069247D02*
X0126504Y0069247D01*
X0126504Y0070821D02*
X0126675Y0070821D01*
X0110653Y0084981D02*
X0107457Y0084981D01*
X0110653Y0086554D02*
X0094461Y0086554D01*
X0094461Y0088127D02*
X0110653Y0088127D01*
X0110653Y0089701D02*
X0094461Y0089701D01*
X0094461Y0091274D02*
X0110653Y0091274D01*
X0110653Y0092847D02*
X0094461Y0092847D01*
X0094461Y0094421D02*
X0110653Y0094421D01*
X0110653Y0095994D02*
X0094461Y0095994D01*
X0094461Y0097567D02*
X0110653Y0097567D01*
X0110653Y0099140D02*
X0094461Y0099140D01*
X0094461Y0100714D02*
X0110653Y0100714D01*
X0110653Y0102287D02*
X0094461Y0102287D01*
X0094461Y0103860D02*
X0109716Y0103860D01*
X0108823Y0105434D02*
X0094461Y0105434D01*
X0094461Y0107007D02*
X0108241Y0107007D01*
X0108241Y0108580D02*
X0094461Y0108580D01*
X0094461Y0110154D02*
X0108241Y0110154D01*
X0108241Y0111727D02*
X0094461Y0111727D01*
X0094461Y0113300D02*
X0108241Y0113300D01*
X0108241Y0114874D02*
X0094461Y0114874D01*
X0094461Y0116447D02*
X0108418Y0116447D01*
X0109069Y0118020D02*
X0094461Y0118020D01*
X0094461Y0119594D02*
X0109731Y0119594D01*
X0108829Y0121167D02*
X0094461Y0121167D01*
X0094461Y0122740D02*
X0108241Y0122740D01*
X0108241Y0124313D02*
X0094461Y0124313D01*
X0094461Y0125887D02*
X0108241Y0125887D01*
X0108241Y0127460D02*
X0094461Y0127460D01*
X0094461Y0129033D02*
X0108241Y0129033D01*
X0108241Y0130607D02*
X0094461Y0130607D01*
X0094461Y0132180D02*
X0108412Y0132180D01*
X0109063Y0133753D02*
X0094461Y0133753D01*
X0094461Y0135327D02*
X0109746Y0135327D01*
X0108836Y0136900D02*
X0094461Y0136900D01*
X0094461Y0138473D02*
X0108241Y0138473D01*
X0108241Y0140047D02*
X0094461Y0140047D01*
X0094461Y0141620D02*
X0108241Y0141620D01*
X0108241Y0143193D02*
X0094461Y0143193D01*
X0094461Y0144767D02*
X0108241Y0144767D01*
X0108241Y0146340D02*
X0094461Y0146340D01*
X0094461Y0147913D02*
X0108405Y0147913D01*
X0109057Y0149487D02*
X0094461Y0149487D01*
X0094461Y0151060D02*
X0110280Y0151060D01*
X0110653Y0152633D02*
X0094461Y0152633D01*
X0094461Y0154206D02*
X0110653Y0154206D01*
X0110653Y0155780D02*
X0094461Y0155780D01*
X0094461Y0157353D02*
X0110653Y0157353D01*
X0110653Y0158926D02*
X0094461Y0158926D01*
X0094461Y0160500D02*
X0110653Y0160500D01*
X0110653Y0162073D02*
X0094461Y0162073D01*
X0094461Y0163646D02*
X0110653Y0163646D01*
X0110653Y0165220D02*
X0094461Y0165220D01*
X0094461Y0166793D02*
X0110653Y0166793D01*
X0110653Y0168366D02*
X0094461Y0168366D01*
X0094461Y0169940D02*
X0110653Y0169940D01*
X0110653Y0171513D02*
X0094461Y0171513D01*
X0094461Y0173086D02*
X0110653Y0173086D01*
X0110653Y0174660D02*
X0094461Y0174660D01*
X0094461Y0176233D02*
X0110653Y0176233D01*
X0110653Y0177806D02*
X0094461Y0177806D01*
X0094461Y0179380D02*
X0110653Y0179380D01*
X0110653Y0180953D02*
X0094461Y0180953D01*
X0094461Y0182526D02*
X0110653Y0182526D01*
X0110653Y0184099D02*
X0094461Y0184099D01*
X0094461Y0185673D02*
X0110653Y0185673D01*
X0110653Y0187246D02*
X0094461Y0187246D01*
X0094461Y0188819D02*
X0110653Y0188819D01*
X0110653Y0190393D02*
X0094461Y0190393D01*
X0094461Y0191966D02*
X0110653Y0191966D01*
X0110653Y0193539D02*
X0094461Y0193539D01*
X0094461Y0195113D02*
X0110653Y0195113D01*
X0110653Y0196686D02*
X0094461Y0196686D01*
X0094461Y0198259D02*
X0110653Y0198259D01*
X0110653Y0199833D02*
X0094461Y0199833D01*
X0094461Y0201406D02*
X0110653Y0201406D01*
X0110657Y0202979D02*
X0094461Y0202979D01*
X0094461Y0204553D02*
X0111309Y0204553D01*
X0112824Y0206126D02*
X0094461Y0206126D01*
X0094461Y0207699D02*
X0114398Y0207699D01*
X0115971Y0209272D02*
X0094461Y0209272D01*
X0094461Y0210846D02*
X0117354Y0210846D01*
X0117354Y0212419D02*
X0094461Y0212419D01*
X0094461Y0213992D02*
X0117354Y0213992D01*
X0117354Y0215566D02*
X0106234Y0215566D01*
X0110323Y0217139D02*
X0117354Y0217139D01*
X0117354Y0218712D02*
X0112572Y0218712D01*
X0114145Y0220286D02*
X0117354Y0220286D01*
X0117354Y0221859D02*
X0115199Y0221859D01*
X0116107Y0223432D02*
X0117354Y0223432D01*
X0117354Y0225006D02*
X0116634Y0225006D01*
X0117056Y0226579D02*
X0117354Y0226579D01*
X0117354Y0228152D02*
X0117244Y0228152D01*
X0117244Y0229726D02*
X0117354Y0229726D01*
X0117354Y0231299D02*
X0117140Y0231299D01*
X0117354Y0232872D02*
X0116718Y0232872D01*
X0116288Y0234446D02*
X0117354Y0234446D01*
X0117789Y0236019D02*
X0115380Y0236019D01*
X0114458Y0237592D02*
X0118992Y0237592D01*
X0120565Y0239165D02*
X0112885Y0239165D01*
X0110864Y0240739D02*
X0122138Y0240739D01*
X0123711Y0242312D02*
X0107401Y0242312D01*
X0099512Y0242312D02*
X0094461Y0242312D01*
X0094461Y0240739D02*
X0096049Y0240739D01*
X0094461Y0243885D02*
X0125285Y0243885D01*
X0126858Y0245459D02*
X0094461Y0245459D01*
X0094461Y0247032D02*
X0361326Y0247032D01*
X0361326Y0245459D02*
X0318000Y0245459D01*
X0319573Y0243885D02*
X0361326Y0243885D01*
X0361326Y0242312D02*
X0357401Y0242312D01*
X0360864Y0240739D02*
X0361326Y0240739D01*
X0361326Y0248605D02*
X0094461Y0248605D01*
X0094461Y0250179D02*
X0361326Y0250179D01*
X0361326Y0251752D02*
X0094461Y0251752D01*
X0094461Y0253325D02*
X0361326Y0253325D01*
X0361326Y0254899D02*
X0094461Y0254899D01*
X0094461Y0256472D02*
X0361326Y0256472D01*
X0361326Y0258045D02*
X0094461Y0258045D01*
X0094461Y0259619D02*
X0361326Y0259619D01*
X0361326Y0261192D02*
X0094461Y0261192D01*
X0094461Y0262765D02*
X0361326Y0262765D01*
X0361326Y0264338D02*
X0094461Y0264338D01*
X0094461Y0265912D02*
X0361326Y0265912D01*
X0361326Y0267485D02*
X0094461Y0267485D01*
X0094461Y0269058D02*
X0361326Y0269058D01*
X0349512Y0242312D02*
X0321146Y0242312D01*
X0324095Y0240739D02*
X0346049Y0240739D01*
X0344028Y0239165D02*
X0325668Y0239165D01*
X0327241Y0237592D02*
X0342455Y0237592D01*
X0341534Y0236019D02*
X0327844Y0236019D01*
X0302051Y0212468D02*
X0296981Y0217538D01*
X0296951Y0217508D01*
X0307721Y0206738D01*
X0308417Y0205056D01*
X0308417Y0204299D01*
X0308842Y0203874D01*
X0309268Y0204299D01*
X0309268Y0205252D01*
X0302051Y0212468D01*
X0302051Y0212468D01*
X0302039Y0212419D02*
X0302100Y0212419D01*
X0303613Y0210846D02*
X0303673Y0210846D01*
X0305186Y0209272D02*
X0305247Y0209272D01*
X0306759Y0207699D02*
X0306820Y0207699D01*
X0307974Y0206126D02*
X0308393Y0206126D01*
X0308417Y0204553D02*
X0309268Y0204553D01*
X0318417Y0204553D02*
X0318967Y0204553D01*
X0319244Y0204275D02*
X0318842Y0203874D01*
X0318417Y0204299D01*
X0318417Y0205102D01*
X0319244Y0204275D01*
X0300527Y0213992D02*
X0300466Y0213992D01*
X0298953Y0215566D02*
X0298893Y0215566D01*
X0297380Y0217139D02*
X0297320Y0217139D01*
X0228635Y0187918D02*
X0227919Y0187202D01*
X0226855Y0184634D01*
X0226855Y0175454D01*
X0227919Y0172886D01*
X0228635Y0172170D01*
X0227919Y0171454D01*
X0226855Y0168886D01*
X0226855Y0159706D01*
X0227919Y0157138D01*
X0229228Y0155829D01*
X0224838Y0151438D01*
X0222051Y0148651D01*
X0221354Y0146970D01*
X0221354Y0095955D01*
X0209187Y0083787D01*
X0205187Y0083787D01*
X0205056Y0084102D01*
X0194804Y0094355D01*
X0194804Y0101243D01*
X0196618Y0101243D01*
X0199186Y0102306D01*
X0200228Y0103348D01*
X0201270Y0102306D01*
X0203838Y0101243D01*
X0206618Y0101243D01*
X0209186Y0102306D01*
X0211152Y0104272D01*
X0212216Y0106840D01*
X0212216Y0116020D01*
X0211152Y0118588D01*
X0210436Y0119304D01*
X0211152Y0120020D01*
X0212216Y0122588D01*
X0212216Y0131768D01*
X0211152Y0134336D01*
X0210436Y0135052D01*
X0211152Y0135768D01*
X0212216Y0138336D01*
X0212216Y0147516D01*
X0211152Y0150084D01*
X0209186Y0152050D01*
X0206618Y0153113D01*
X0203838Y0153113D01*
X0201270Y0152050D01*
X0200228Y0151008D01*
X0199186Y0152050D01*
X0196618Y0153113D01*
X0194289Y0153113D01*
X0194107Y0153551D01*
X0189974Y0157685D01*
X0190427Y0158138D01*
X0191491Y0160706D01*
X0191491Y0169886D01*
X0190427Y0172454D01*
X0189711Y0173170D01*
X0190427Y0173886D01*
X0191491Y0176454D01*
X0191491Y0185634D01*
X0190427Y0188202D01*
X0189711Y0188918D01*
X0190427Y0189634D01*
X0191491Y0192202D01*
X0191491Y0201382D01*
X0190427Y0203950D01*
X0190358Y0204019D01*
X0199520Y0213182D01*
X0201807Y0215468D01*
X0203655Y0217316D01*
X0203862Y0217108D01*
X0208411Y0217108D01*
X0210051Y0215468D01*
X0226855Y0198664D01*
X0226855Y0191202D01*
X0227919Y0188634D01*
X0228635Y0187918D01*
X0227963Y0187246D02*
X0190823Y0187246D01*
X0191475Y0185673D02*
X0227285Y0185673D01*
X0226855Y0184099D02*
X0191491Y0184099D01*
X0191491Y0182526D02*
X0226855Y0182526D01*
X0226855Y0180953D02*
X0191491Y0180953D01*
X0191491Y0179380D02*
X0226855Y0179380D01*
X0226855Y0177806D02*
X0191491Y0177806D01*
X0191400Y0176233D02*
X0226855Y0176233D01*
X0227184Y0174660D02*
X0190748Y0174660D01*
X0189795Y0173086D02*
X0227836Y0173086D01*
X0227978Y0171513D02*
X0190817Y0171513D01*
X0191469Y0169940D02*
X0227291Y0169940D01*
X0226855Y0168366D02*
X0191491Y0168366D01*
X0191491Y0166793D02*
X0226855Y0166793D01*
X0226855Y0165220D02*
X0191491Y0165220D01*
X0191491Y0163646D02*
X0226855Y0163646D01*
X0226855Y0162073D02*
X0191491Y0162073D01*
X0191406Y0160500D02*
X0226855Y0160500D01*
X0227178Y0158926D02*
X0190754Y0158926D01*
X0190305Y0157353D02*
X0227830Y0157353D01*
X0229179Y0155780D02*
X0191879Y0155780D01*
X0193452Y0154206D02*
X0227606Y0154206D01*
X0226033Y0152633D02*
X0207777Y0152633D01*
X0210176Y0151060D02*
X0224459Y0151060D01*
X0222886Y0149487D02*
X0211399Y0149487D01*
X0212051Y0147913D02*
X0221745Y0147913D01*
X0221354Y0146340D02*
X0212216Y0146340D01*
X0212216Y0144767D02*
X0221354Y0144767D01*
X0221354Y0143193D02*
X0212216Y0143193D01*
X0212216Y0141620D02*
X0221354Y0141620D01*
X0221354Y0140047D02*
X0212216Y0140047D01*
X0212216Y0138473D02*
X0221354Y0138473D01*
X0221354Y0136900D02*
X0211621Y0136900D01*
X0210711Y0135327D02*
X0221354Y0135327D01*
X0221354Y0133753D02*
X0211393Y0133753D01*
X0212045Y0132180D02*
X0221354Y0132180D01*
X0221354Y0130607D02*
X0212216Y0130607D01*
X0212216Y0129033D02*
X0221354Y0129033D01*
X0221354Y0127460D02*
X0212216Y0127460D01*
X0212216Y0125887D02*
X0221354Y0125887D01*
X0221354Y0124313D02*
X0212216Y0124313D01*
X0212216Y0122740D02*
X0221354Y0122740D01*
X0221354Y0121167D02*
X0211627Y0121167D01*
X0210725Y0119594D02*
X0221354Y0119594D01*
X0221354Y0118020D02*
X0211387Y0118020D01*
X0212039Y0116447D02*
X0221354Y0116447D01*
X0221354Y0114874D02*
X0212216Y0114874D01*
X0212216Y0113300D02*
X0221354Y0113300D01*
X0221354Y0111727D02*
X0212216Y0111727D01*
X0212216Y0110154D02*
X0221354Y0110154D01*
X0221354Y0108580D02*
X0212216Y0108580D01*
X0212216Y0107007D02*
X0221354Y0107007D01*
X0221354Y0105434D02*
X0211633Y0105434D01*
X0210740Y0103860D02*
X0221354Y0103860D01*
X0221354Y0102287D02*
X0209140Y0102287D01*
X0221354Y0100714D02*
X0194804Y0100714D01*
X0194804Y0099140D02*
X0221354Y0099140D01*
X0221354Y0097567D02*
X0194804Y0097567D01*
X0194804Y0095994D02*
X0221354Y0095994D01*
X0219820Y0094421D02*
X0194804Y0094421D01*
X0196311Y0092847D02*
X0218247Y0092847D01*
X0216673Y0091274D02*
X0197885Y0091274D01*
X0199458Y0089701D02*
X0215100Y0089701D01*
X0213527Y0088127D02*
X0201031Y0088127D01*
X0202605Y0086554D02*
X0211953Y0086554D01*
X0210380Y0084981D02*
X0204178Y0084981D01*
X0201316Y0102287D02*
X0199140Y0102287D01*
X0190229Y0105460D02*
X0190229Y0150960D01*
X0184504Y0156685D01*
X0184504Y0165296D01*
X0184504Y0181044D01*
X0184504Y0196792D01*
X0184504Y0204635D01*
X0197929Y0218060D01*
X0196929Y0217060D01*
X0197929Y0218060D02*
X0201257Y0221387D01*
X0201257Y0234095D01*
X0203478Y0217139D02*
X0203831Y0217139D01*
X0201905Y0215566D02*
X0209953Y0215566D01*
X0211527Y0213992D02*
X0200331Y0213992D01*
X0199520Y0213182D02*
X0199520Y0213182D01*
X0198758Y0212419D02*
X0213100Y0212419D01*
X0214673Y0210846D02*
X0197185Y0210846D01*
X0195611Y0209272D02*
X0216247Y0209272D01*
X0217820Y0207699D02*
X0194038Y0207699D01*
X0192465Y0206126D02*
X0219393Y0206126D01*
X0220967Y0204553D02*
X0190891Y0204553D01*
X0190830Y0202979D02*
X0222540Y0202979D01*
X0224113Y0201406D02*
X0191481Y0201406D01*
X0191491Y0199833D02*
X0225686Y0199833D01*
X0226855Y0198259D02*
X0191491Y0198259D01*
X0191491Y0196686D02*
X0226855Y0196686D01*
X0226855Y0195113D02*
X0191491Y0195113D01*
X0191491Y0193539D02*
X0226855Y0193539D01*
X0226855Y0191966D02*
X0191393Y0191966D01*
X0190742Y0190393D02*
X0227190Y0190393D01*
X0227842Y0188819D02*
X0189810Y0188819D01*
X0159929Y0205299D02*
X0159504Y0204874D01*
X0159079Y0205299D01*
X0159079Y0205897D01*
X0160073Y0206891D01*
X0159929Y0206545D01*
X0159929Y0205299D01*
X0159929Y0206126D02*
X0159307Y0206126D01*
X0149929Y0206126D02*
X0149307Y0206126D01*
X0149079Y0205897D02*
X0149929Y0206748D01*
X0149929Y0205299D01*
X0149504Y0204874D01*
X0149079Y0205299D01*
X0149079Y0205897D01*
X0139929Y0206126D02*
X0139307Y0206126D01*
X0139079Y0205897D02*
X0139929Y0206748D01*
X0139929Y0205299D01*
X0139504Y0204874D01*
X0139079Y0205299D01*
X0139079Y0205897D01*
X0129929Y0206126D02*
X0129307Y0206126D01*
X0129079Y0205897D02*
X0129929Y0206748D01*
X0129929Y0205299D01*
X0129504Y0204874D01*
X0129079Y0205299D01*
X0129079Y0205897D01*
X0126504Y0216262D02*
X0126504Y0218366D01*
X0127556Y0217314D01*
X0126504Y0216262D01*
X0126504Y0217139D02*
X0127381Y0217139D01*
X0126504Y0229824D02*
X0126504Y0232165D01*
X0129069Y0234730D01*
X0129069Y0231201D01*
X0129187Y0231083D01*
X0127762Y0231083D01*
X0126504Y0229824D01*
X0126504Y0231299D02*
X0129069Y0231299D01*
X0129069Y0232872D02*
X0127211Y0232872D01*
X0128784Y0234446D02*
X0129069Y0234446D01*
X0100679Y0215566D02*
X0094461Y0215566D01*
X0094461Y0217139D02*
X0096591Y0217139D01*
X0119803Y0156915D02*
X0119803Y0156104D01*
X0119929Y0156230D01*
X0119929Y0156789D01*
X0119803Y0156915D01*
X0129079Y0156789D02*
X0129079Y0153425D01*
X0128608Y0152289D01*
X0129186Y0152050D01*
X0130228Y0151008D01*
X0131070Y0151849D01*
X0130625Y0152294D01*
X0129929Y0153975D01*
X0129929Y0156789D01*
X0129504Y0157214D01*
X0129079Y0156789D01*
X0129079Y0155780D02*
X0129929Y0155780D01*
X0129929Y0154206D02*
X0129079Y0154206D01*
X0128751Y0152633D02*
X0130485Y0152633D01*
X0130280Y0151060D02*
X0130176Y0151060D01*
X0139079Y0156780D02*
X0139929Y0155930D01*
X0139929Y0156789D01*
X0139504Y0157214D01*
X0139079Y0156789D01*
X0139079Y0156780D01*
X0135228Y0142926D02*
X0135228Y0127178D01*
X0135228Y0111430D01*
X0125228Y0111430D02*
X0125228Y0127178D01*
X0125228Y0142926D01*
X0145228Y0142926D02*
X0145228Y0127178D01*
X0145228Y0111430D01*
X0155228Y0111430D02*
X0155228Y0127178D01*
X0155228Y0142926D01*
X0165228Y0142926D02*
X0165228Y0127178D01*
X0165228Y0111430D01*
X0175228Y0111430D02*
X0175228Y0127178D01*
X0175228Y0142926D01*
X0185228Y0142926D02*
X0185228Y0127178D01*
X0185228Y0111430D01*
X0195228Y0111430D02*
X0195228Y0127178D01*
X0195228Y0142926D01*
X0200176Y0151060D02*
X0200280Y0151060D01*
X0202679Y0152633D02*
X0197777Y0152633D01*
X0205228Y0142926D02*
X0205228Y0127178D01*
X0205228Y0111430D01*
X0225929Y0107060D02*
X0225929Y0104060D01*
X0230504Y0101945D02*
X0230504Y0095104D01*
X0234054Y0098655D01*
X0234054Y0101243D01*
X0232201Y0101243D01*
X0230504Y0101945D01*
X0230504Y0100714D02*
X0234054Y0100714D01*
X0234054Y0099140D02*
X0230504Y0099140D01*
X0230504Y0097567D02*
X0232967Y0097567D01*
X0231393Y0095994D02*
X0230504Y0095994D01*
X0243204Y0096804D02*
X0243204Y0101243D01*
X0244054Y0101243D01*
X0244054Y0097655D01*
X0243204Y0096804D01*
X0243204Y0097567D02*
X0243967Y0097567D01*
X0244054Y0099140D02*
X0243204Y0099140D01*
X0243204Y0100714D02*
X0244054Y0100714D01*
X0248629Y0105760D02*
X0248629Y0108060D01*
X0253590Y0111430D02*
X0253590Y0127178D01*
X0253590Y0142926D01*
X0263590Y0142926D02*
X0263590Y0127178D01*
X0263590Y0111430D01*
X0258529Y0109060D02*
X0258529Y0105660D01*
X0263104Y0101243D02*
X0263954Y0101243D01*
X0263954Y0095555D01*
X0263072Y0094672D01*
X0263104Y0094750D01*
X0263104Y0101243D01*
X0263104Y0100714D02*
X0263954Y0100714D01*
X0263954Y0099140D02*
X0263104Y0099140D01*
X0263104Y0097567D02*
X0263954Y0097567D01*
X0263954Y0095994D02*
X0263104Y0095994D01*
X0253954Y0097555D02*
X0253954Y0101243D01*
X0253204Y0101243D01*
X0253204Y0096804D01*
X0253954Y0097555D01*
X0253954Y0097567D02*
X0253204Y0097567D01*
X0253204Y0099140D02*
X0253954Y0099140D01*
X0253954Y0100714D02*
X0253204Y0100714D01*
X0243590Y0111430D02*
X0243590Y0127178D01*
X0243590Y0142926D01*
X0233590Y0142926D02*
X0233590Y0127178D01*
X0233590Y0111430D01*
X0268529Y0106060D02*
X0268529Y0103660D01*
X0273104Y0101243D02*
X0274054Y0101243D01*
X0274054Y0094655D01*
X0273104Y0093704D01*
X0273104Y0094570D01*
X0273104Y0101243D01*
X0273104Y0100714D02*
X0274054Y0100714D01*
X0274054Y0099140D02*
X0273104Y0099140D01*
X0273104Y0097567D02*
X0274054Y0097567D01*
X0274054Y0095994D02*
X0273104Y0095994D01*
X0273104Y0094421D02*
X0273820Y0094421D01*
X0283204Y0094421D02*
X0283954Y0094421D01*
X0283954Y0095994D02*
X0283204Y0095994D01*
X0283204Y0097567D02*
X0283954Y0097567D01*
X0283954Y0099140D02*
X0283204Y0099140D01*
X0283204Y0100714D02*
X0283954Y0100714D01*
X0283954Y0101243D02*
X0283204Y0101243D01*
X0283204Y0091850D01*
X0283172Y0091772D01*
X0283954Y0092555D01*
X0283954Y0101243D01*
X0278629Y0102760D02*
X0278629Y0104060D01*
X0283590Y0111430D02*
X0283590Y0127178D01*
X0283590Y0142926D01*
X0293590Y0142926D02*
X0293590Y0127178D01*
X0293590Y0111430D01*
X0303590Y0111430D02*
X0303590Y0127178D01*
X0303590Y0142926D01*
X0313590Y0142926D02*
X0313590Y0127178D01*
X0313590Y0111430D01*
X0323590Y0111430D02*
X0323590Y0127178D01*
X0323590Y0142926D01*
X0288878Y0156179D02*
X0288417Y0155718D01*
X0288417Y0155789D01*
X0288842Y0156214D01*
X0288878Y0156179D01*
X0288479Y0155780D02*
X0288417Y0155780D01*
X0279078Y0155979D02*
X0278417Y0155318D01*
X0278417Y0155789D01*
X0278842Y0156214D01*
X0279078Y0155979D01*
X0278879Y0155780D02*
X0278417Y0155780D01*
X0268978Y0156079D02*
X0268417Y0155518D01*
X0268417Y0155789D01*
X0268842Y0156214D01*
X0268978Y0156079D01*
X0268679Y0155780D02*
X0268417Y0155780D01*
X0258928Y0156129D02*
X0258417Y0155618D01*
X0258417Y0155789D01*
X0258842Y0156214D01*
X0258928Y0156129D01*
X0258579Y0155780D02*
X0258417Y0155780D01*
X0249078Y0155979D02*
X0248417Y0155318D01*
X0248417Y0155789D01*
X0248842Y0156214D01*
X0249078Y0155979D01*
X0248879Y0155780D02*
X0248417Y0155780D01*
X0238878Y0156179D02*
X0238417Y0155718D01*
X0238417Y0155789D01*
X0238842Y0156214D01*
X0238878Y0156179D01*
X0238479Y0155780D02*
X0238417Y0155780D01*
X0273590Y0142926D02*
X0273590Y0127178D01*
X0273590Y0111430D01*
X0293104Y0101243D02*
X0293104Y0091704D01*
X0294054Y0092655D01*
X0294054Y0101243D01*
X0293104Y0101243D01*
X0293104Y0100714D02*
X0294054Y0100714D01*
X0294054Y0099140D02*
X0293104Y0099140D01*
X0293104Y0097567D02*
X0294054Y0097567D01*
X0294054Y0095994D02*
X0293104Y0095994D01*
X0293104Y0094421D02*
X0294054Y0094421D01*
X0294054Y0092847D02*
X0293104Y0092847D01*
X0283954Y0092847D02*
X0283204Y0092847D01*
X0303204Y0092847D02*
X0304047Y0092847D01*
X0304054Y0092855D02*
X0303204Y0092004D01*
X0303204Y0101243D01*
X0304054Y0101243D01*
X0304054Y0092855D01*
X0304054Y0094421D02*
X0303204Y0094421D01*
X0303204Y0095994D02*
X0304054Y0095994D01*
X0304054Y0097567D02*
X0303204Y0097567D01*
X0303204Y0099140D02*
X0304054Y0099140D01*
X0304054Y0100714D02*
X0303204Y0100714D01*
X0313204Y0100714D02*
X0314054Y0100714D01*
X0314054Y0101243D02*
X0314054Y0093655D01*
X0313204Y0092804D01*
X0313204Y0101243D01*
X0314054Y0101243D01*
X0314054Y0099140D02*
X0313204Y0099140D01*
X0313204Y0097567D02*
X0314054Y0097567D01*
X0314054Y0095994D02*
X0313204Y0095994D01*
X0313204Y0094421D02*
X0314054Y0094421D01*
X0313247Y0092847D02*
X0313204Y0092847D01*
X0309929Y0079060D02*
X0309878Y0079009D01*
X0360181Y0059808D02*
X0361326Y0059808D01*
X0152132Y0083787D02*
X0151453Y0083787D01*
X0151453Y0084466D01*
X0152132Y0083787D01*
X0135654Y0100714D02*
X0124804Y0100714D01*
X0129140Y0102287D02*
X0131316Y0102287D01*
X0099298Y0084981D02*
X0094461Y0084981D01*
X0094461Y0083407D02*
X0095908Y0083407D01*
M02*
