G75*
%MOIN*%
%OFA0B0*%
%FSLAX25Y25*%
%IPPOS*%
%LPD*%
%AMOC8*
5,1,8,0,0,1.08239X$1,22.5*
%
%ADD10OC8,0.07200*%
%ADD11C,0.20800*%
%ADD12C,0.07200*%
D10*
X0130578Y0076800D03*
X0141378Y0076800D03*
X0152278Y0076800D03*
X0163178Y0076800D03*
X0173978Y0076800D03*
X0184878Y0076800D03*
X0195778Y0076800D03*
X0206678Y0076800D03*
X0217478Y0076800D03*
X0228378Y0076800D03*
X0239278Y0076800D03*
X0250078Y0076800D03*
X0260978Y0076800D03*
X0271878Y0076800D03*
X0282678Y0076800D03*
X0293578Y0076800D03*
X0304478Y0076800D03*
X0315278Y0076800D03*
X0326178Y0076800D03*
X0320778Y0066800D03*
X0309878Y0066800D03*
X0298978Y0066800D03*
X0288178Y0066800D03*
X0277278Y0066800D03*
X0266378Y0066800D03*
X0255578Y0066800D03*
X0244678Y0066800D03*
X0233778Y0066800D03*
X0222978Y0066800D03*
X0212078Y0066800D03*
X0201178Y0066800D03*
X0190278Y0066800D03*
X0179478Y0066800D03*
X0168578Y0066800D03*
X0157678Y0066800D03*
X0146878Y0066800D03*
X0135978Y0066800D03*
X0130657Y0224095D03*
X0141557Y0224095D03*
X0152357Y0224095D03*
X0163257Y0224095D03*
X0174157Y0224095D03*
X0184957Y0224095D03*
X0195857Y0224095D03*
X0206757Y0224095D03*
X0217557Y0224095D03*
X0228457Y0224095D03*
X0239357Y0224095D03*
X0250157Y0224095D03*
X0261057Y0224095D03*
X0271957Y0224095D03*
X0282857Y0224095D03*
X0293657Y0224095D03*
X0304557Y0224095D03*
X0315457Y0224095D03*
X0326257Y0224095D03*
X0320857Y0234095D03*
X0309957Y0234095D03*
X0299157Y0234095D03*
X0288257Y0234095D03*
X0277357Y0234095D03*
X0266457Y0234095D03*
X0255657Y0234095D03*
X0244757Y0234095D03*
X0233857Y0234095D03*
X0223057Y0234095D03*
X0212157Y0234095D03*
X0201257Y0234095D03*
X0190457Y0234095D03*
X0179557Y0234095D03*
X0168657Y0234095D03*
X0157857Y0234095D03*
X0146957Y0234095D03*
X0136057Y0234095D03*
D11*
X0103378Y0071800D03*
X0103457Y0229095D03*
X0353457Y0229095D03*
X0353378Y0071800D03*
D12*
X0323590Y0108230D02*
X0323590Y0114630D01*
X0323590Y0123978D02*
X0323590Y0130378D01*
X0323590Y0139726D02*
X0323590Y0146126D01*
X0313590Y0146126D02*
X0313590Y0139726D01*
X0303590Y0139726D02*
X0303590Y0146126D01*
X0293590Y0146126D02*
X0293590Y0139726D01*
X0283590Y0139726D02*
X0283590Y0146126D01*
X0273590Y0146126D02*
X0273590Y0139726D01*
X0273590Y0130378D02*
X0273590Y0123978D01*
X0273590Y0114630D02*
X0273590Y0108230D01*
X0263590Y0108230D02*
X0263590Y0114630D01*
X0253590Y0114630D02*
X0253590Y0108230D01*
X0243590Y0108230D02*
X0243590Y0114630D01*
X0243590Y0123978D02*
X0243590Y0130378D01*
X0243590Y0139726D02*
X0243590Y0146126D01*
X0233590Y0146126D02*
X0233590Y0139726D01*
X0233590Y0130378D02*
X0233590Y0123978D01*
X0233590Y0114630D02*
X0233590Y0108230D01*
X0253590Y0123978D02*
X0253590Y0130378D01*
X0263590Y0130378D02*
X0263590Y0123978D01*
X0263590Y0139726D02*
X0263590Y0146126D01*
X0253590Y0146126D02*
X0253590Y0139726D01*
X0253842Y0161096D02*
X0253842Y0167496D01*
X0263842Y0167496D02*
X0263842Y0161096D01*
X0273842Y0161096D02*
X0273842Y0167496D01*
X0273842Y0176844D02*
X0273842Y0183244D01*
X0273842Y0192592D02*
X0273842Y0198992D01*
X0263842Y0198992D02*
X0263842Y0192592D01*
X0253842Y0192592D02*
X0253842Y0198992D01*
X0243842Y0198992D02*
X0243842Y0192592D01*
X0233842Y0192592D02*
X0233842Y0198992D01*
X0233842Y0183244D02*
X0233842Y0176844D01*
X0243842Y0176844D02*
X0243842Y0183244D01*
X0253842Y0183244D02*
X0253842Y0176844D01*
X0263842Y0176844D02*
X0263842Y0183244D01*
X0283842Y0183244D02*
X0283842Y0176844D01*
X0293842Y0176844D02*
X0293842Y0183244D01*
X0293842Y0192592D02*
X0293842Y0198992D01*
X0283842Y0198992D02*
X0283842Y0192592D01*
X0303842Y0192592D02*
X0303842Y0198992D01*
X0313842Y0198992D02*
X0313842Y0192592D01*
X0323842Y0192592D02*
X0323842Y0198992D01*
X0323842Y0183244D02*
X0323842Y0176844D01*
X0313842Y0176844D02*
X0313842Y0183244D01*
X0303842Y0183244D02*
X0303842Y0176844D01*
X0303842Y0167496D02*
X0303842Y0161096D01*
X0293842Y0161096D02*
X0293842Y0167496D01*
X0283842Y0167496D02*
X0283842Y0161096D01*
X0313842Y0161096D02*
X0313842Y0167496D01*
X0323842Y0167496D02*
X0323842Y0161096D01*
X0313590Y0130378D02*
X0313590Y0123978D01*
X0303590Y0123978D02*
X0303590Y0130378D01*
X0293590Y0130378D02*
X0293590Y0123978D01*
X0283590Y0123978D02*
X0283590Y0130378D01*
X0283590Y0114630D02*
X0283590Y0108230D01*
X0293590Y0108230D02*
X0293590Y0114630D01*
X0303590Y0114630D02*
X0303590Y0108230D01*
X0313590Y0108230D02*
X0313590Y0114630D01*
X0243842Y0161096D02*
X0243842Y0167496D01*
X0233842Y0167496D02*
X0233842Y0161096D01*
X0205228Y0146126D02*
X0205228Y0139726D01*
X0205228Y0130378D02*
X0205228Y0123978D01*
X0205228Y0114630D02*
X0205228Y0108230D01*
X0195228Y0108230D02*
X0195228Y0114630D01*
X0185228Y0114630D02*
X0185228Y0108230D01*
X0175228Y0108230D02*
X0175228Y0114630D01*
X0175228Y0123978D02*
X0175228Y0130378D01*
X0175228Y0139726D02*
X0175228Y0146126D01*
X0165228Y0146126D02*
X0165228Y0139726D01*
X0155228Y0139726D02*
X0155228Y0146126D01*
X0145228Y0146126D02*
X0145228Y0139726D01*
X0145228Y0130378D02*
X0145228Y0123978D01*
X0145228Y0114630D02*
X0145228Y0108230D01*
X0135228Y0108230D02*
X0135228Y0114630D01*
X0125228Y0114630D02*
X0125228Y0108230D01*
X0115228Y0108230D02*
X0115228Y0114630D01*
X0115228Y0123978D02*
X0115228Y0130378D01*
X0115228Y0139726D02*
X0115228Y0146126D01*
X0125228Y0146126D02*
X0125228Y0139726D01*
X0135228Y0139726D02*
X0135228Y0146126D01*
X0135228Y0130378D02*
X0135228Y0123978D01*
X0125228Y0123978D02*
X0125228Y0130378D01*
X0155228Y0130378D02*
X0155228Y0123978D01*
X0165228Y0123978D02*
X0165228Y0130378D01*
X0165228Y0114630D02*
X0165228Y0108230D01*
X0155228Y0108230D02*
X0155228Y0114630D01*
X0185228Y0123978D02*
X0185228Y0130378D01*
X0195228Y0130378D02*
X0195228Y0123978D01*
X0195228Y0139726D02*
X0195228Y0146126D01*
X0185228Y0146126D02*
X0185228Y0139726D01*
X0184504Y0162096D02*
X0184504Y0168496D01*
X0174504Y0168496D02*
X0174504Y0162096D01*
X0164504Y0162096D02*
X0164504Y0168496D01*
X0154504Y0168496D02*
X0154504Y0162096D01*
X0144504Y0162096D02*
X0144504Y0168496D01*
X0144504Y0177844D02*
X0144504Y0184244D01*
X0144504Y0193592D02*
X0144504Y0199992D01*
X0154504Y0199992D02*
X0154504Y0193592D01*
X0164504Y0193592D02*
X0164504Y0199992D01*
X0174504Y0199992D02*
X0174504Y0193592D01*
X0184504Y0193592D02*
X0184504Y0199992D01*
X0184504Y0184244D02*
X0184504Y0177844D01*
X0174504Y0177844D02*
X0174504Y0184244D01*
X0164504Y0184244D02*
X0164504Y0177844D01*
X0154504Y0177844D02*
X0154504Y0184244D01*
X0134504Y0184244D02*
X0134504Y0177844D01*
X0124504Y0177844D02*
X0124504Y0184244D01*
X0124504Y0193592D02*
X0124504Y0199992D01*
X0134504Y0199992D02*
X0134504Y0193592D01*
X0134504Y0168496D02*
X0134504Y0162096D01*
X0124504Y0162096D02*
X0124504Y0168496D01*
M02*
