G75*
%MOIN*%
%OFA0B0*%
%FSLAX25Y25*%
%IPPOS*%
%LPD*%
%AMOC8*
5,1,8,0,0,1.08239X$1,22.5*
%
%ADD10C,0.00600*%
%ADD11C,0.00700*%
%ADD12C,0.00900*%
%ADD13C,0.00800*%
%ADD14C,0.03200*%
%ADD15R,0.02000X0.02000*%
D10*
X0113225Y0096990D02*
X0113959Y0096256D01*
X0113225Y0096990D02*
X0113225Y0098458D01*
X0113959Y0099192D01*
X0114693Y0099192D01*
X0117629Y0096256D01*
X0117629Y0099192D01*
X0116895Y0100860D02*
X0113959Y0103796D01*
X0116895Y0103796D01*
X0117629Y0103062D01*
X0117629Y0101594D01*
X0116895Y0100860D01*
X0113959Y0100860D01*
X0113225Y0101594D01*
X0113225Y0103062D01*
X0113959Y0103796D01*
X0123225Y0102562D02*
X0123225Y0101094D01*
X0123959Y0100360D01*
X0124693Y0100360D01*
X0125427Y0101094D01*
X0125427Y0103296D01*
X0123959Y0103296D02*
X0123225Y0102562D01*
X0123959Y0103296D02*
X0126895Y0103296D01*
X0127629Y0102562D01*
X0127629Y0101094D01*
X0126895Y0100360D01*
X0127629Y0098692D02*
X0127629Y0095756D01*
X0127629Y0097224D02*
X0123225Y0097224D01*
X0124693Y0095756D01*
X0132725Y0097224D02*
X0137129Y0097224D01*
X0137129Y0095756D02*
X0137129Y0098692D01*
X0136395Y0100360D02*
X0135661Y0100360D01*
X0134927Y0101094D01*
X0134927Y0102562D01*
X0135661Y0103296D01*
X0136395Y0103296D01*
X0137129Y0102562D01*
X0137129Y0101094D01*
X0136395Y0100360D01*
X0134927Y0101094D02*
X0134193Y0100360D01*
X0133459Y0100360D01*
X0132725Y0101094D01*
X0132725Y0102562D01*
X0133459Y0103296D01*
X0134193Y0103296D01*
X0134927Y0102562D01*
X0132725Y0097224D02*
X0134193Y0095756D01*
X0142725Y0097224D02*
X0147129Y0097224D01*
X0147129Y0095756D02*
X0147129Y0098692D01*
X0147129Y0100360D02*
X0146395Y0100360D01*
X0143459Y0103296D01*
X0142725Y0103296D01*
X0142725Y0100360D01*
X0142725Y0097224D02*
X0144193Y0095756D01*
X0153225Y0097224D02*
X0157629Y0097224D01*
X0157629Y0095756D02*
X0157629Y0098692D01*
X0156895Y0100360D02*
X0157629Y0101094D01*
X0157629Y0102562D01*
X0156895Y0103296D01*
X0156161Y0103296D01*
X0155427Y0102562D01*
X0155427Y0100360D01*
X0156895Y0100360D01*
X0155427Y0100360D02*
X0153959Y0101828D01*
X0153225Y0103296D01*
X0153225Y0097224D02*
X0154693Y0095756D01*
X0163225Y0097224D02*
X0167629Y0097224D01*
X0167629Y0095756D02*
X0167629Y0098692D01*
X0166895Y0100360D02*
X0167629Y0101094D01*
X0167629Y0102562D01*
X0166895Y0103296D01*
X0165427Y0103296D01*
X0164693Y0102562D01*
X0164693Y0101828D01*
X0165427Y0100360D01*
X0163225Y0100360D01*
X0163225Y0103296D01*
X0163225Y0097224D02*
X0164693Y0095756D01*
X0173225Y0097224D02*
X0177629Y0097224D01*
X0177629Y0095756D02*
X0177629Y0098692D01*
X0175427Y0100360D02*
X0175427Y0103296D01*
X0173225Y0102562D02*
X0175427Y0100360D01*
X0177629Y0102562D02*
X0173225Y0102562D01*
X0173225Y0097224D02*
X0174693Y0095756D01*
X0183225Y0097224D02*
X0187629Y0097224D01*
X0187629Y0095756D02*
X0187629Y0098692D01*
X0186895Y0100360D02*
X0187629Y0101094D01*
X0187629Y0102562D01*
X0186895Y0103296D01*
X0186161Y0103296D01*
X0185427Y0102562D01*
X0185427Y0101828D01*
X0185427Y0102562D02*
X0184693Y0103296D01*
X0183959Y0103296D01*
X0183225Y0102562D01*
X0183225Y0101094D01*
X0183959Y0100360D01*
X0183225Y0097224D02*
X0184693Y0095756D01*
X0192725Y0097224D02*
X0197129Y0097224D01*
X0197129Y0095756D02*
X0197129Y0098692D01*
X0197129Y0100360D02*
X0194193Y0103296D01*
X0193459Y0103296D01*
X0192725Y0102562D01*
X0192725Y0101094D01*
X0193459Y0100360D01*
X0192725Y0097224D02*
X0194193Y0095756D01*
X0197129Y0100360D02*
X0197129Y0103296D01*
X0203225Y0101828D02*
X0207629Y0101828D01*
X0207629Y0100360D02*
X0207629Y0103296D01*
X0204693Y0100360D02*
X0203225Y0101828D01*
X0203225Y0097224D02*
X0207629Y0097224D01*
X0207629Y0095756D02*
X0207629Y0098692D01*
X0204693Y0095756D02*
X0203225Y0097224D01*
X0232225Y0097224D02*
X0236629Y0097224D01*
X0236629Y0095756D02*
X0236629Y0098692D01*
X0235895Y0100360D02*
X0232959Y0103296D01*
X0235895Y0103296D01*
X0236629Y0102562D01*
X0236629Y0101094D01*
X0235895Y0100360D01*
X0232959Y0100360D01*
X0232225Y0101094D01*
X0232225Y0102562D01*
X0232959Y0103296D01*
X0232225Y0097224D02*
X0233693Y0095756D01*
X0241927Y0099094D02*
X0242661Y0098360D01*
X0244129Y0098360D01*
X0244863Y0099094D01*
X0244863Y0102030D01*
X0244129Y0102764D01*
X0242661Y0102764D01*
X0241927Y0102030D01*
X0241927Y0101296D01*
X0242661Y0100562D01*
X0244863Y0100562D01*
X0251927Y0101296D02*
X0251927Y0102030D01*
X0252661Y0102764D01*
X0254129Y0102764D01*
X0254863Y0102030D01*
X0254863Y0101296D01*
X0254129Y0100562D01*
X0252661Y0100562D01*
X0251927Y0101296D01*
X0252661Y0100562D02*
X0251927Y0099828D01*
X0251927Y0099094D01*
X0252661Y0098360D01*
X0254129Y0098360D01*
X0254863Y0099094D01*
X0254863Y0099828D01*
X0254129Y0100562D01*
X0262927Y0099594D02*
X0262927Y0098860D01*
X0262927Y0099594D02*
X0265863Y0102530D01*
X0265863Y0103264D01*
X0262927Y0103264D01*
X0272427Y0100562D02*
X0272427Y0099094D01*
X0273161Y0098360D01*
X0274629Y0098360D01*
X0275363Y0099094D01*
X0275363Y0099828D01*
X0274629Y0100562D01*
X0272427Y0100562D01*
X0273895Y0102030D01*
X0275363Y0102764D01*
X0282427Y0102764D02*
X0282427Y0100562D01*
X0283895Y0101296D01*
X0284629Y0101296D01*
X0285363Y0100562D01*
X0285363Y0099094D01*
X0284629Y0098360D01*
X0283161Y0098360D01*
X0282427Y0099094D01*
X0282427Y0102764D02*
X0285363Y0102764D01*
X0292927Y0100562D02*
X0295863Y0100562D01*
X0295129Y0098360D02*
X0295129Y0102764D01*
X0292927Y0100562D01*
X0301927Y0102030D02*
X0302661Y0102764D01*
X0304129Y0102764D01*
X0304863Y0102030D01*
X0304863Y0101296D01*
X0304129Y0100562D01*
X0304863Y0099828D01*
X0304863Y0099094D01*
X0304129Y0098360D01*
X0302661Y0098360D01*
X0301927Y0099094D01*
X0303395Y0100562D02*
X0304129Y0100562D01*
X0312927Y0102030D02*
X0313661Y0102764D01*
X0315129Y0102764D01*
X0315863Y0102030D01*
X0315863Y0101296D01*
X0312927Y0098360D01*
X0315863Y0098360D01*
X0322927Y0098360D02*
X0325863Y0098360D01*
X0324395Y0098360D02*
X0324395Y0102764D01*
X0322927Y0101296D01*
X0322759Y0149556D02*
X0322025Y0150290D01*
X0322025Y0151758D01*
X0322759Y0152492D01*
X0323493Y0152492D01*
X0326429Y0149556D01*
X0326429Y0152492D01*
X0326429Y0154160D02*
X0326429Y0157096D01*
X0326429Y0155628D02*
X0322025Y0155628D01*
X0323493Y0154160D01*
X0316129Y0154360D02*
X0316129Y0157296D01*
X0316129Y0154360D02*
X0313193Y0157296D01*
X0312459Y0157296D01*
X0311725Y0156562D01*
X0311725Y0155094D01*
X0312459Y0154360D01*
X0312459Y0152692D02*
X0311725Y0151958D01*
X0311725Y0150490D01*
X0312459Y0149756D01*
X0312459Y0152692D02*
X0313193Y0152692D01*
X0316129Y0149756D01*
X0316129Y0152692D01*
X0306029Y0152792D02*
X0306029Y0149856D01*
X0303093Y0152792D01*
X0302359Y0152792D01*
X0301625Y0152058D01*
X0301625Y0150590D01*
X0302359Y0149856D01*
X0302359Y0154460D02*
X0301625Y0155194D01*
X0301625Y0156662D01*
X0302359Y0157396D01*
X0303093Y0157396D01*
X0303827Y0156662D01*
X0304561Y0157396D01*
X0305295Y0157396D01*
X0306029Y0156662D01*
X0306029Y0155194D01*
X0305295Y0154460D01*
X0303827Y0155928D02*
X0303827Y0156662D01*
X0296129Y0156062D02*
X0291725Y0156062D01*
X0293927Y0153860D01*
X0293927Y0156796D01*
X0293193Y0152192D02*
X0292459Y0152192D01*
X0291725Y0151458D01*
X0291725Y0149990D01*
X0292459Y0149256D01*
X0293193Y0152192D02*
X0296129Y0149256D01*
X0296129Y0152192D01*
X0286129Y0152192D02*
X0286129Y0149256D01*
X0283193Y0152192D01*
X0282459Y0152192D01*
X0281725Y0151458D01*
X0281725Y0149990D01*
X0282459Y0149256D01*
X0281725Y0153860D02*
X0283927Y0153860D01*
X0283193Y0155328D01*
X0283193Y0156062D01*
X0283927Y0156796D01*
X0285395Y0156796D01*
X0286129Y0156062D01*
X0286129Y0154594D01*
X0285395Y0153860D01*
X0281725Y0153860D02*
X0281725Y0156796D01*
X0276129Y0156062D02*
X0275395Y0156796D01*
X0274661Y0156796D01*
X0273927Y0156062D01*
X0273927Y0153860D01*
X0275395Y0153860D01*
X0276129Y0154594D01*
X0276129Y0156062D01*
X0273927Y0153860D02*
X0272459Y0155328D01*
X0271725Y0156796D01*
X0272459Y0152192D02*
X0271725Y0151458D01*
X0271725Y0149990D01*
X0272459Y0149256D01*
X0272459Y0152192D02*
X0273193Y0152192D01*
X0276129Y0149256D01*
X0276129Y0152192D01*
X0265629Y0152192D02*
X0265629Y0149256D01*
X0262693Y0152192D01*
X0261959Y0152192D01*
X0261225Y0151458D01*
X0261225Y0149990D01*
X0261959Y0149256D01*
X0261225Y0153860D02*
X0261225Y0156796D01*
X0261959Y0156796D01*
X0264895Y0153860D01*
X0265629Y0153860D01*
X0256129Y0153192D02*
X0256129Y0150256D01*
X0253193Y0153192D01*
X0252459Y0153192D01*
X0251725Y0152458D01*
X0251725Y0150990D01*
X0252459Y0150256D01*
X0252459Y0154860D02*
X0251725Y0155594D01*
X0251725Y0157062D01*
X0252459Y0157796D01*
X0253193Y0157796D01*
X0253927Y0157062D01*
X0253927Y0155594D01*
X0253193Y0154860D01*
X0252459Y0154860D01*
X0253927Y0155594D02*
X0254661Y0154860D01*
X0255395Y0154860D01*
X0256129Y0155594D01*
X0256129Y0157062D01*
X0255395Y0157796D01*
X0254661Y0157796D01*
X0253927Y0157062D01*
X0246629Y0156562D02*
X0246629Y0155094D01*
X0245895Y0154360D01*
X0244427Y0155094D02*
X0244427Y0157296D01*
X0242959Y0157296D02*
X0242225Y0156562D01*
X0242225Y0155094D01*
X0242959Y0154360D01*
X0243693Y0154360D01*
X0244427Y0155094D01*
X0243693Y0152692D02*
X0242959Y0152692D01*
X0242225Y0151958D01*
X0242225Y0150490D01*
X0242959Y0149756D01*
X0243693Y0152692D02*
X0246629Y0149756D01*
X0246629Y0152692D01*
X0246629Y0156562D02*
X0245895Y0157296D01*
X0242959Y0157296D01*
X0235629Y0156562D02*
X0235629Y0155094D01*
X0234895Y0154360D01*
X0231959Y0157296D01*
X0234895Y0157296D01*
X0235629Y0156562D01*
X0234895Y0154360D02*
X0231959Y0154360D01*
X0231225Y0155094D01*
X0231225Y0156562D01*
X0231959Y0157296D01*
X0231959Y0152692D02*
X0232693Y0152692D01*
X0233427Y0151958D01*
X0234161Y0152692D01*
X0234895Y0152692D01*
X0235629Y0151958D01*
X0235629Y0150490D01*
X0234895Y0149756D01*
X0233427Y0151224D02*
X0233427Y0151958D01*
X0231959Y0152692D02*
X0231225Y0151958D01*
X0231225Y0150490D01*
X0231959Y0149756D01*
X0186829Y0151190D02*
X0186095Y0150456D01*
X0186829Y0151190D02*
X0186829Y0152658D01*
X0186095Y0153392D01*
X0185361Y0153392D01*
X0184627Y0152658D01*
X0184627Y0151924D01*
X0184627Y0152658D02*
X0183893Y0153392D01*
X0183159Y0153392D01*
X0182425Y0152658D01*
X0182425Y0151190D01*
X0183159Y0150456D01*
X0182425Y0155060D02*
X0182425Y0157996D01*
X0183159Y0157996D01*
X0186095Y0155060D01*
X0186829Y0155060D01*
X0175829Y0155694D02*
X0175829Y0157162D01*
X0175095Y0157896D01*
X0174361Y0157896D01*
X0173627Y0157162D01*
X0173627Y0154960D01*
X0175095Y0154960D01*
X0175829Y0155694D01*
X0173627Y0154960D02*
X0172159Y0156428D01*
X0171425Y0157896D01*
X0172159Y0153292D02*
X0172893Y0153292D01*
X0173627Y0152558D01*
X0174361Y0153292D01*
X0175095Y0153292D01*
X0175829Y0152558D01*
X0175829Y0151090D01*
X0175095Y0150356D01*
X0173627Y0151824D02*
X0173627Y0152558D01*
X0172159Y0153292D02*
X0171425Y0152558D01*
X0171425Y0151090D01*
X0172159Y0150356D01*
X0166629Y0151190D02*
X0165895Y0150456D01*
X0166629Y0151190D02*
X0166629Y0152658D01*
X0165895Y0153392D01*
X0165161Y0153392D01*
X0164427Y0152658D01*
X0164427Y0151924D01*
X0164427Y0152658D02*
X0163693Y0153392D01*
X0162959Y0153392D01*
X0162225Y0152658D01*
X0162225Y0151190D01*
X0162959Y0150456D01*
X0162225Y0155060D02*
X0164427Y0155060D01*
X0163693Y0156528D01*
X0163693Y0157262D01*
X0164427Y0157996D01*
X0165895Y0157996D01*
X0166629Y0157262D01*
X0166629Y0155794D01*
X0165895Y0155060D01*
X0162225Y0155060D02*
X0162225Y0157996D01*
X0156729Y0156962D02*
X0152325Y0156962D01*
X0154527Y0154760D01*
X0154527Y0157696D01*
X0153793Y0153092D02*
X0153059Y0153092D01*
X0152325Y0152358D01*
X0152325Y0150890D01*
X0153059Y0150156D01*
X0154527Y0151624D02*
X0154527Y0152358D01*
X0155261Y0153092D01*
X0155995Y0153092D01*
X0156729Y0152358D01*
X0156729Y0150890D01*
X0155995Y0150156D01*
X0154527Y0152358D02*
X0153793Y0153092D01*
X0146529Y0152758D02*
X0146529Y0151290D01*
X0145795Y0150556D01*
X0144327Y0152024D02*
X0144327Y0152758D01*
X0145061Y0153492D01*
X0145795Y0153492D01*
X0146529Y0152758D01*
X0144327Y0152758D02*
X0143593Y0153492D01*
X0142859Y0153492D01*
X0142125Y0152758D01*
X0142125Y0151290D01*
X0142859Y0150556D01*
X0142859Y0155160D02*
X0142125Y0155894D01*
X0142125Y0157362D01*
X0142859Y0158096D01*
X0143593Y0158096D01*
X0144327Y0157362D01*
X0145061Y0158096D01*
X0145795Y0158096D01*
X0146529Y0157362D01*
X0146529Y0155894D01*
X0145795Y0155160D01*
X0144327Y0156628D02*
X0144327Y0157362D01*
X0136629Y0157796D02*
X0136629Y0154860D01*
X0133693Y0157796D01*
X0132959Y0157796D01*
X0132225Y0157062D01*
X0132225Y0155594D01*
X0132959Y0154860D01*
X0132959Y0153192D02*
X0133693Y0153192D01*
X0134427Y0152458D01*
X0135161Y0153192D01*
X0135895Y0153192D01*
X0136629Y0152458D01*
X0136629Y0150990D01*
X0135895Y0150256D01*
X0134427Y0151724D02*
X0134427Y0152458D01*
X0132959Y0153192D02*
X0132225Y0152458D01*
X0132225Y0150990D01*
X0132959Y0150256D01*
X0126129Y0151490D02*
X0126129Y0152958D01*
X0125395Y0153692D01*
X0124661Y0153692D01*
X0123927Y0152958D01*
X0123927Y0152224D01*
X0123927Y0152958D02*
X0123193Y0153692D01*
X0122459Y0153692D01*
X0121725Y0152958D01*
X0121725Y0151490D01*
X0122459Y0150756D01*
X0125395Y0150756D02*
X0126129Y0151490D01*
X0126129Y0155360D02*
X0126129Y0158296D01*
X0126129Y0156828D02*
X0121725Y0156828D01*
X0123193Y0155360D01*
D11*
X0126975Y0083888D02*
X0128610Y0082253D01*
X0126975Y0083888D02*
X0131879Y0083888D01*
X0131879Y0082253D02*
X0131879Y0085523D01*
X0131062Y0087410D02*
X0131879Y0088227D01*
X0131879Y0089862D01*
X0131062Y0090679D01*
X0127792Y0090679D01*
X0126975Y0089862D01*
X0126975Y0088227D01*
X0127792Y0087410D01*
X0128610Y0087410D01*
X0129427Y0088227D01*
X0129427Y0090679D01*
X0138475Y0089862D02*
X0139292Y0090679D01*
X0140110Y0090679D01*
X0140927Y0089862D01*
X0140927Y0088227D01*
X0140110Y0087410D01*
X0139292Y0087410D01*
X0138475Y0088227D01*
X0138475Y0089862D01*
X0140927Y0089862D02*
X0141744Y0090679D01*
X0142562Y0090679D01*
X0143379Y0089862D01*
X0143379Y0088227D01*
X0142562Y0087410D01*
X0141744Y0087410D01*
X0140927Y0088227D01*
X0143379Y0085523D02*
X0143379Y0082253D01*
X0143379Y0083888D02*
X0138475Y0083888D01*
X0140110Y0082253D01*
X0149475Y0083888D02*
X0151110Y0082253D01*
X0149475Y0083888D02*
X0154379Y0083888D01*
X0154379Y0082253D02*
X0154379Y0085523D01*
X0154379Y0087410D02*
X0153562Y0087410D01*
X0150292Y0090679D01*
X0149475Y0090679D01*
X0149475Y0087410D01*
X0159975Y0090679D02*
X0160792Y0089045D01*
X0162427Y0087410D01*
X0162427Y0089862D01*
X0163244Y0090679D01*
X0164062Y0090679D01*
X0164879Y0089862D01*
X0164879Y0088227D01*
X0164062Y0087410D01*
X0162427Y0087410D01*
X0164879Y0085523D02*
X0164879Y0082253D01*
X0164879Y0083888D02*
X0159975Y0083888D01*
X0161610Y0082253D01*
X0170975Y0083888D02*
X0175879Y0083888D01*
X0175879Y0082253D02*
X0175879Y0085523D01*
X0175062Y0087410D02*
X0175879Y0088227D01*
X0175879Y0089862D01*
X0175062Y0090679D01*
X0173427Y0090679D01*
X0172610Y0089862D01*
X0172610Y0089045D01*
X0173427Y0087410D01*
X0170975Y0087410D01*
X0170975Y0090679D01*
X0170975Y0083888D02*
X0172610Y0082253D01*
X0181975Y0083888D02*
X0186879Y0083888D01*
X0186879Y0082253D02*
X0186879Y0085523D01*
X0184427Y0087410D02*
X0184427Y0090679D01*
X0186879Y0089862D02*
X0181975Y0089862D01*
X0184427Y0087410D01*
X0181975Y0083888D02*
X0183610Y0082253D01*
X0193975Y0083888D02*
X0195610Y0082253D01*
X0193975Y0083888D02*
X0198879Y0083888D01*
X0198879Y0082253D02*
X0198879Y0085523D01*
X0198062Y0087410D02*
X0198879Y0088227D01*
X0198879Y0089862D01*
X0198062Y0090679D01*
X0197244Y0090679D01*
X0196427Y0089862D01*
X0196427Y0089045D01*
X0196427Y0089862D02*
X0195610Y0090679D01*
X0194792Y0090679D01*
X0193975Y0089862D01*
X0193975Y0088227D01*
X0194792Y0087410D01*
X0203475Y0088227D02*
X0204292Y0087410D01*
X0203475Y0088227D02*
X0203475Y0089862D01*
X0204292Y0090679D01*
X0205110Y0090679D01*
X0208379Y0087410D01*
X0208379Y0090679D01*
X0208379Y0085523D02*
X0208379Y0082253D01*
X0208379Y0083888D02*
X0203475Y0083888D01*
X0205110Y0082253D01*
X0213975Y0083888D02*
X0218879Y0083888D01*
X0218879Y0082253D02*
X0218879Y0085523D01*
X0218879Y0087410D02*
X0218879Y0090679D01*
X0218879Y0089045D02*
X0213975Y0089045D01*
X0215610Y0087410D01*
X0213975Y0083888D02*
X0215610Y0082253D01*
X0224975Y0083888D02*
X0229879Y0083888D01*
X0229879Y0082253D02*
X0229879Y0085523D01*
X0229062Y0087410D02*
X0225792Y0090679D01*
X0229062Y0090679D01*
X0229879Y0089862D01*
X0229879Y0088227D01*
X0229062Y0087410D01*
X0225792Y0087410D01*
X0224975Y0088227D01*
X0224975Y0089862D01*
X0225792Y0090679D01*
X0224975Y0083888D02*
X0226610Y0082253D01*
X0235701Y0086927D02*
X0236518Y0086110D01*
X0238153Y0086110D01*
X0238970Y0086927D01*
X0238970Y0090197D01*
X0238153Y0091014D01*
X0236518Y0091014D01*
X0235701Y0090197D01*
X0235701Y0089379D01*
X0236518Y0088562D01*
X0238970Y0088562D01*
X0246701Y0089379D02*
X0246701Y0090197D01*
X0247518Y0091014D01*
X0249153Y0091014D01*
X0249970Y0090197D01*
X0249970Y0089379D01*
X0249153Y0088562D01*
X0247518Y0088562D01*
X0246701Y0089379D01*
X0247518Y0088562D02*
X0246701Y0087745D01*
X0246701Y0086927D01*
X0247518Y0086110D01*
X0249153Y0086110D01*
X0249970Y0086927D01*
X0249970Y0087745D01*
X0249153Y0088562D01*
X0257701Y0090514D02*
X0260970Y0090514D01*
X0260970Y0089697D01*
X0257701Y0086427D01*
X0257701Y0085610D01*
X0268201Y0086927D02*
X0269018Y0086110D01*
X0270653Y0086110D01*
X0271470Y0086927D01*
X0271470Y0087745D01*
X0270653Y0088562D01*
X0268201Y0088562D01*
X0268201Y0086927D01*
X0268201Y0088562D02*
X0269836Y0090197D01*
X0271470Y0091014D01*
X0279201Y0091014D02*
X0279201Y0088562D01*
X0280836Y0089379D01*
X0281653Y0089379D01*
X0282470Y0088562D01*
X0282470Y0086927D01*
X0281653Y0086110D01*
X0280018Y0086110D01*
X0279201Y0086927D01*
X0279201Y0091014D02*
X0282470Y0091014D01*
X0289701Y0088562D02*
X0292970Y0088562D01*
X0292153Y0091014D02*
X0289701Y0088562D01*
X0292153Y0086110D02*
X0292153Y0091014D01*
X0300701Y0090197D02*
X0301518Y0091014D01*
X0303153Y0091014D01*
X0303970Y0090197D01*
X0303970Y0089379D01*
X0303153Y0088562D01*
X0303970Y0087745D01*
X0303970Y0086927D01*
X0303153Y0086110D01*
X0301518Y0086110D01*
X0300701Y0086927D01*
X0302336Y0088562D02*
X0303153Y0088562D01*
X0311701Y0090197D02*
X0312518Y0091014D01*
X0314153Y0091014D01*
X0314970Y0090197D01*
X0314970Y0089379D01*
X0311701Y0086110D01*
X0314970Y0086110D01*
X0322701Y0086110D02*
X0325970Y0086110D01*
X0324336Y0086110D02*
X0324336Y0091014D01*
X0322701Y0089379D01*
X0323062Y0059179D02*
X0319792Y0059179D01*
X0323062Y0055910D01*
X0323879Y0056727D01*
X0323879Y0058362D01*
X0323062Y0059179D01*
X0323062Y0055910D02*
X0319792Y0055910D01*
X0318975Y0056727D01*
X0318975Y0058362D01*
X0319792Y0059179D01*
X0319792Y0054023D02*
X0318975Y0053206D01*
X0318975Y0051571D01*
X0319792Y0050753D01*
X0319792Y0054023D02*
X0320610Y0054023D01*
X0323879Y0050753D01*
X0323879Y0054023D01*
X0312379Y0054023D02*
X0312379Y0050753D01*
X0309110Y0054023D01*
X0308292Y0054023D01*
X0307475Y0053206D01*
X0307475Y0051571D01*
X0308292Y0050753D01*
X0309110Y0055910D02*
X0307475Y0057545D01*
X0312379Y0057545D01*
X0312379Y0059179D02*
X0312379Y0055910D01*
X0301879Y0055910D02*
X0301879Y0059179D01*
X0301879Y0055910D02*
X0298610Y0059179D01*
X0297792Y0059179D01*
X0296975Y0058362D01*
X0296975Y0056727D01*
X0297792Y0055910D01*
X0297792Y0054023D02*
X0296975Y0053206D01*
X0296975Y0051571D01*
X0297792Y0050753D01*
X0297792Y0054023D02*
X0298610Y0054023D01*
X0301879Y0050753D01*
X0301879Y0054023D01*
X0291379Y0054023D02*
X0291379Y0050753D01*
X0288110Y0054023D01*
X0287292Y0054023D01*
X0286475Y0053206D01*
X0286475Y0051571D01*
X0287292Y0050753D01*
X0287292Y0055910D02*
X0286475Y0056727D01*
X0286475Y0058362D01*
X0287292Y0059179D01*
X0288110Y0059179D01*
X0288927Y0058362D01*
X0289744Y0059179D01*
X0290562Y0059179D01*
X0291379Y0058362D01*
X0291379Y0056727D01*
X0290562Y0055910D01*
X0288927Y0057545D02*
X0288927Y0058362D01*
X0280379Y0058362D02*
X0275475Y0058362D01*
X0277927Y0055910D01*
X0277927Y0059179D01*
X0277110Y0054023D02*
X0276292Y0054023D01*
X0275475Y0053206D01*
X0275475Y0051571D01*
X0276292Y0050753D01*
X0277110Y0054023D02*
X0280379Y0050753D01*
X0280379Y0054023D01*
X0269379Y0054023D02*
X0269379Y0050753D01*
X0266110Y0054023D01*
X0265292Y0054023D01*
X0264475Y0053206D01*
X0264475Y0051571D01*
X0265292Y0050753D01*
X0264475Y0055910D02*
X0266927Y0055910D01*
X0266110Y0057545D01*
X0266110Y0058362D01*
X0266927Y0059179D01*
X0268562Y0059179D01*
X0269379Y0058362D01*
X0269379Y0056727D01*
X0268562Y0055910D01*
X0264475Y0055910D02*
X0264475Y0059179D01*
X0258379Y0058362D02*
X0257562Y0059179D01*
X0256744Y0059179D01*
X0255927Y0058362D01*
X0255927Y0055910D01*
X0257562Y0055910D01*
X0258379Y0056727D01*
X0258379Y0058362D01*
X0255927Y0055910D02*
X0254292Y0057545D01*
X0253475Y0059179D01*
X0254292Y0054023D02*
X0253475Y0053206D01*
X0253475Y0051571D01*
X0254292Y0050753D01*
X0254292Y0054023D02*
X0255110Y0054023D01*
X0258379Y0050753D01*
X0258379Y0054023D01*
X0247879Y0054023D02*
X0247879Y0050753D01*
X0244610Y0054023D01*
X0243792Y0054023D01*
X0242975Y0053206D01*
X0242975Y0051571D01*
X0243792Y0050753D01*
X0242975Y0055910D02*
X0242975Y0059179D01*
X0243792Y0059179D01*
X0247062Y0055910D01*
X0247879Y0055910D01*
X0236379Y0056727D02*
X0235562Y0055910D01*
X0234744Y0055910D01*
X0233927Y0056727D01*
X0233927Y0058362D01*
X0234744Y0059179D01*
X0235562Y0059179D01*
X0236379Y0058362D01*
X0236379Y0056727D01*
X0233927Y0056727D02*
X0233110Y0055910D01*
X0232292Y0055910D01*
X0231475Y0056727D01*
X0231475Y0058362D01*
X0232292Y0059179D01*
X0233110Y0059179D01*
X0233927Y0058362D01*
X0233110Y0054023D02*
X0232292Y0054023D01*
X0231475Y0053206D01*
X0231475Y0051571D01*
X0232292Y0050753D01*
X0233110Y0054023D02*
X0236379Y0050753D01*
X0236379Y0054023D01*
X0225879Y0053523D02*
X0225879Y0050253D01*
X0222610Y0053523D01*
X0221792Y0053523D01*
X0220975Y0052706D01*
X0220975Y0051071D01*
X0221792Y0050253D01*
X0221792Y0055410D02*
X0220975Y0056227D01*
X0220975Y0057862D01*
X0221792Y0058679D01*
X0225062Y0058679D01*
X0225879Y0057862D01*
X0225879Y0056227D01*
X0225062Y0055410D01*
X0223427Y0056227D02*
X0223427Y0058679D01*
X0223427Y0056227D02*
X0222610Y0055410D01*
X0221792Y0055410D01*
X0214879Y0056227D02*
X0214062Y0055410D01*
X0210792Y0058679D01*
X0214062Y0058679D01*
X0214879Y0057862D01*
X0214879Y0056227D01*
X0214062Y0055410D02*
X0210792Y0055410D01*
X0209975Y0056227D01*
X0209975Y0057862D01*
X0210792Y0058679D01*
X0210792Y0053523D02*
X0211610Y0053523D01*
X0212427Y0052706D01*
X0213244Y0053523D01*
X0214062Y0053523D01*
X0214879Y0052706D01*
X0214879Y0051071D01*
X0214062Y0050253D01*
X0212427Y0051888D02*
X0212427Y0052706D01*
X0210792Y0053523D02*
X0209975Y0052706D01*
X0209975Y0051071D01*
X0210792Y0050253D01*
X0203379Y0051071D02*
X0203379Y0052706D01*
X0202562Y0053523D01*
X0201744Y0053523D01*
X0200927Y0052706D01*
X0200927Y0051888D01*
X0200927Y0052706D02*
X0200110Y0053523D01*
X0199292Y0053523D01*
X0198475Y0052706D01*
X0198475Y0051071D01*
X0199292Y0050253D01*
X0202562Y0050253D02*
X0203379Y0051071D01*
X0203379Y0055410D02*
X0203379Y0058679D01*
X0203379Y0057045D02*
X0198475Y0057045D01*
X0200110Y0055410D01*
X0182379Y0056227D02*
X0181562Y0055410D01*
X0182379Y0056227D02*
X0182379Y0057862D01*
X0181562Y0058679D01*
X0180744Y0058679D01*
X0179927Y0057862D01*
X0179927Y0057045D01*
X0179927Y0057862D02*
X0179110Y0058679D01*
X0178292Y0058679D01*
X0177475Y0057862D01*
X0177475Y0056227D01*
X0178292Y0055410D01*
X0178292Y0053523D02*
X0179110Y0053523D01*
X0179927Y0052706D01*
X0180744Y0053523D01*
X0181562Y0053523D01*
X0182379Y0052706D01*
X0182379Y0051071D01*
X0181562Y0050253D01*
X0179927Y0051888D02*
X0179927Y0052706D01*
X0178292Y0053523D02*
X0177475Y0052706D01*
X0177475Y0051071D01*
X0178292Y0050253D01*
X0171879Y0051071D02*
X0171879Y0052706D01*
X0171062Y0053523D01*
X0170244Y0053523D01*
X0169427Y0052706D01*
X0169427Y0051888D01*
X0169427Y0052706D02*
X0168610Y0053523D01*
X0167792Y0053523D01*
X0166975Y0052706D01*
X0166975Y0051071D01*
X0167792Y0050253D01*
X0171062Y0050253D02*
X0171879Y0051071D01*
X0169427Y0055410D02*
X0169427Y0058679D01*
X0171879Y0057862D02*
X0166975Y0057862D01*
X0169427Y0055410D01*
X0160879Y0056227D02*
X0160879Y0057862D01*
X0160062Y0058679D01*
X0158427Y0058679D01*
X0157610Y0057862D01*
X0157610Y0057045D01*
X0158427Y0055410D01*
X0155975Y0055410D01*
X0155975Y0058679D01*
X0156792Y0053523D02*
X0157610Y0053523D01*
X0158427Y0052706D01*
X0159244Y0053523D01*
X0160062Y0053523D01*
X0160879Y0052706D01*
X0160879Y0051071D01*
X0160062Y0050253D01*
X0158427Y0051888D02*
X0158427Y0052706D01*
X0156792Y0053523D02*
X0155975Y0052706D01*
X0155975Y0051071D01*
X0156792Y0050253D01*
X0160062Y0055410D02*
X0160879Y0056227D01*
X0148879Y0056227D02*
X0148879Y0057862D01*
X0148062Y0058679D01*
X0147244Y0058679D01*
X0146427Y0057862D01*
X0146427Y0055410D01*
X0148062Y0055410D01*
X0148879Y0056227D01*
X0146427Y0055410D02*
X0144792Y0057045D01*
X0143975Y0058679D01*
X0144792Y0053523D02*
X0145610Y0053523D01*
X0146427Y0052706D01*
X0147244Y0053523D01*
X0148062Y0053523D01*
X0148879Y0052706D01*
X0148879Y0051071D01*
X0148062Y0050253D01*
X0146427Y0051888D02*
X0146427Y0052706D01*
X0144792Y0053523D02*
X0143975Y0052706D01*
X0143975Y0051071D01*
X0144792Y0050253D01*
X0139379Y0051071D02*
X0139379Y0052706D01*
X0138562Y0053523D01*
X0137744Y0053523D01*
X0136927Y0052706D01*
X0136927Y0051888D01*
X0136927Y0052706D02*
X0136110Y0053523D01*
X0135292Y0053523D01*
X0134475Y0052706D01*
X0134475Y0051071D01*
X0135292Y0050253D01*
X0138562Y0050253D02*
X0139379Y0051071D01*
X0139379Y0055410D02*
X0138562Y0055410D01*
X0135292Y0058679D01*
X0134475Y0058679D01*
X0134475Y0055410D01*
X0133379Y0210753D02*
X0133379Y0214023D01*
X0133379Y0212388D02*
X0128475Y0212388D01*
X0130110Y0210753D01*
X0130110Y0215910D02*
X0130927Y0216727D01*
X0130927Y0219179D01*
X0132562Y0219179D02*
X0129292Y0219179D01*
X0128475Y0218362D01*
X0128475Y0216727D01*
X0129292Y0215910D01*
X0130110Y0215910D01*
X0132562Y0215910D02*
X0133379Y0216727D01*
X0133379Y0218362D01*
X0132562Y0219179D01*
X0139975Y0218362D02*
X0139975Y0216727D01*
X0140792Y0215910D01*
X0141610Y0215910D01*
X0142427Y0216727D01*
X0142427Y0218362D01*
X0143244Y0219179D01*
X0144062Y0219179D01*
X0144879Y0218362D01*
X0144879Y0216727D01*
X0144062Y0215910D01*
X0143244Y0215910D01*
X0142427Y0216727D01*
X0142427Y0218362D02*
X0141610Y0219179D01*
X0140792Y0219179D01*
X0139975Y0218362D01*
X0144879Y0214023D02*
X0144879Y0210753D01*
X0144879Y0212388D02*
X0139975Y0212388D01*
X0141610Y0210753D01*
X0150975Y0212388D02*
X0155879Y0212388D01*
X0155879Y0210753D02*
X0155879Y0214023D01*
X0155879Y0215910D02*
X0155062Y0215910D01*
X0151792Y0219179D01*
X0150975Y0219179D01*
X0150975Y0215910D01*
X0150975Y0212388D02*
X0152610Y0210753D01*
X0161475Y0212388D02*
X0166379Y0212388D01*
X0166379Y0210753D02*
X0166379Y0214023D01*
X0165562Y0215910D02*
X0166379Y0216727D01*
X0166379Y0218362D01*
X0165562Y0219179D01*
X0164744Y0219179D01*
X0163927Y0218362D01*
X0163927Y0215910D01*
X0165562Y0215910D01*
X0163927Y0215910D02*
X0162292Y0217545D01*
X0161475Y0219179D01*
X0161475Y0212388D02*
X0163110Y0210753D01*
X0172475Y0212388D02*
X0177379Y0212388D01*
X0177379Y0210753D02*
X0177379Y0214023D01*
X0176562Y0215910D02*
X0177379Y0216727D01*
X0177379Y0218362D01*
X0176562Y0219179D01*
X0174927Y0219179D01*
X0174110Y0218362D01*
X0174110Y0217545D01*
X0174927Y0215910D01*
X0172475Y0215910D01*
X0172475Y0219179D01*
X0183475Y0218362D02*
X0185927Y0215910D01*
X0185927Y0219179D01*
X0188379Y0218362D02*
X0183475Y0218362D01*
X0188379Y0214023D02*
X0188379Y0210753D01*
X0188379Y0212388D02*
X0183475Y0212388D01*
X0185110Y0210753D01*
X0193975Y0212388D02*
X0198879Y0212388D01*
X0198879Y0210753D02*
X0198879Y0214023D01*
X0198062Y0215910D02*
X0198879Y0216727D01*
X0198879Y0218362D01*
X0198062Y0219179D01*
X0197244Y0219179D01*
X0196427Y0218362D01*
X0196427Y0217545D01*
X0196427Y0218362D02*
X0195610Y0219179D01*
X0194792Y0219179D01*
X0193975Y0218362D01*
X0193975Y0216727D01*
X0194792Y0215910D01*
X0193975Y0212388D02*
X0195610Y0210753D01*
X0204975Y0212388D02*
X0209879Y0212388D01*
X0209879Y0210753D02*
X0209879Y0214023D01*
X0209879Y0215910D02*
X0206610Y0219179D01*
X0205792Y0219179D01*
X0204975Y0218362D01*
X0204975Y0216727D01*
X0205792Y0215910D01*
X0204975Y0212388D02*
X0206610Y0210753D01*
X0209879Y0215910D02*
X0209879Y0219179D01*
X0215475Y0217545D02*
X0217110Y0215910D01*
X0215475Y0217545D02*
X0220379Y0217545D01*
X0220379Y0219179D02*
X0220379Y0215910D01*
X0220379Y0214023D02*
X0220379Y0210753D01*
X0220379Y0212388D02*
X0215475Y0212388D01*
X0217110Y0210753D01*
X0226475Y0212388D02*
X0231379Y0212388D01*
X0231379Y0210753D02*
X0231379Y0214023D01*
X0230562Y0215910D02*
X0227292Y0219179D01*
X0230562Y0219179D01*
X0231379Y0218362D01*
X0231379Y0216727D01*
X0230562Y0215910D01*
X0227292Y0215910D01*
X0226475Y0216727D01*
X0226475Y0218362D01*
X0227292Y0219179D01*
X0226475Y0212388D02*
X0228110Y0210753D01*
X0236701Y0213427D02*
X0237518Y0212610D01*
X0239153Y0212610D01*
X0239970Y0213427D01*
X0239970Y0216697D01*
X0239153Y0217514D01*
X0237518Y0217514D01*
X0236701Y0216697D01*
X0236701Y0215879D01*
X0237518Y0215062D01*
X0239970Y0215062D01*
X0247701Y0215879D02*
X0247701Y0216697D01*
X0248518Y0217514D01*
X0250153Y0217514D01*
X0250970Y0216697D01*
X0250970Y0215879D01*
X0250153Y0215062D01*
X0248518Y0215062D01*
X0247701Y0215879D01*
X0248518Y0215062D02*
X0247701Y0214245D01*
X0247701Y0213427D01*
X0248518Y0212610D01*
X0250153Y0212610D01*
X0250970Y0213427D01*
X0250970Y0214245D01*
X0250153Y0215062D01*
X0258701Y0213927D02*
X0258701Y0213110D01*
X0258701Y0213927D02*
X0261970Y0217197D01*
X0261970Y0218014D01*
X0258701Y0218014D01*
X0269201Y0215062D02*
X0271653Y0215062D01*
X0272470Y0214245D01*
X0272470Y0213427D01*
X0271653Y0212610D01*
X0270018Y0212610D01*
X0269201Y0213427D01*
X0269201Y0215062D01*
X0270836Y0216697D01*
X0272470Y0217514D01*
X0280201Y0217514D02*
X0280201Y0215062D01*
X0281836Y0215879D01*
X0282653Y0215879D01*
X0283470Y0215062D01*
X0283470Y0213427D01*
X0282653Y0212610D01*
X0281018Y0212610D01*
X0280201Y0213427D01*
X0280201Y0217514D02*
X0283470Y0217514D01*
X0290701Y0215062D02*
X0293970Y0215062D01*
X0293153Y0217514D02*
X0290701Y0215062D01*
X0293153Y0212610D02*
X0293153Y0217514D01*
X0301701Y0216697D02*
X0302518Y0217514D01*
X0304153Y0217514D01*
X0304970Y0216697D01*
X0304970Y0215879D01*
X0304153Y0215062D01*
X0304970Y0214245D01*
X0304970Y0213427D01*
X0304153Y0212610D01*
X0302518Y0212610D01*
X0301701Y0213427D01*
X0303336Y0215062D02*
X0304153Y0215062D01*
X0312701Y0216697D02*
X0313518Y0217514D01*
X0315153Y0217514D01*
X0315970Y0216697D01*
X0315970Y0215879D01*
X0312701Y0212610D01*
X0315970Y0212610D01*
X0323701Y0212610D02*
X0326970Y0212610D01*
X0325336Y0212610D02*
X0325336Y0217514D01*
X0323701Y0215879D01*
X0323379Y0242253D02*
X0320110Y0245523D01*
X0319292Y0245523D01*
X0318475Y0244706D01*
X0318475Y0243071D01*
X0319292Y0242253D01*
X0323379Y0242253D02*
X0323379Y0245523D01*
X0322562Y0247410D02*
X0319292Y0250679D01*
X0322562Y0250679D01*
X0323379Y0249862D01*
X0323379Y0248227D01*
X0322562Y0247410D01*
X0319292Y0247410D01*
X0318475Y0248227D01*
X0318475Y0249862D01*
X0319292Y0250679D01*
X0311879Y0250679D02*
X0311879Y0247410D01*
X0311879Y0249045D02*
X0306975Y0249045D01*
X0308610Y0247410D01*
X0308610Y0245523D02*
X0307792Y0245523D01*
X0306975Y0244706D01*
X0306975Y0243071D01*
X0307792Y0242253D01*
X0308610Y0245523D02*
X0311879Y0242253D01*
X0311879Y0245523D01*
X0301379Y0245523D02*
X0301379Y0242253D01*
X0298110Y0245523D01*
X0297292Y0245523D01*
X0296475Y0244706D01*
X0296475Y0243071D01*
X0297292Y0242253D01*
X0297292Y0247410D02*
X0296475Y0248227D01*
X0296475Y0249862D01*
X0297292Y0250679D01*
X0298110Y0250679D01*
X0301379Y0247410D01*
X0301379Y0250679D01*
X0290879Y0249862D02*
X0290879Y0248227D01*
X0290062Y0247410D01*
X0290879Y0245523D02*
X0290879Y0242253D01*
X0287610Y0245523D01*
X0286792Y0245523D01*
X0285975Y0244706D01*
X0285975Y0243071D01*
X0286792Y0242253D01*
X0286792Y0247410D02*
X0285975Y0248227D01*
X0285975Y0249862D01*
X0286792Y0250679D01*
X0287610Y0250679D01*
X0288427Y0249862D01*
X0289244Y0250679D01*
X0290062Y0250679D01*
X0290879Y0249862D01*
X0288427Y0249862D02*
X0288427Y0249045D01*
X0279879Y0249862D02*
X0274975Y0249862D01*
X0277427Y0247410D01*
X0277427Y0250679D01*
X0276610Y0245523D02*
X0275792Y0245523D01*
X0274975Y0244706D01*
X0274975Y0243071D01*
X0275792Y0242253D01*
X0276610Y0245523D02*
X0279879Y0242253D01*
X0279879Y0245523D01*
X0268879Y0245523D02*
X0268879Y0242253D01*
X0265610Y0245523D01*
X0264792Y0245523D01*
X0263975Y0244706D01*
X0263975Y0243071D01*
X0264792Y0242253D01*
X0263975Y0247410D02*
X0266427Y0247410D01*
X0265610Y0249045D01*
X0265610Y0249862D01*
X0266427Y0250679D01*
X0268062Y0250679D01*
X0268879Y0249862D01*
X0268879Y0248227D01*
X0268062Y0247410D01*
X0263975Y0247410D02*
X0263975Y0250679D01*
X0257879Y0249862D02*
X0257062Y0250679D01*
X0256244Y0250679D01*
X0255427Y0249862D01*
X0255427Y0247410D01*
X0257062Y0247410D01*
X0257879Y0248227D01*
X0257879Y0249862D01*
X0255427Y0247410D02*
X0253792Y0249045D01*
X0252975Y0250679D01*
X0253792Y0245523D02*
X0252975Y0244706D01*
X0252975Y0243071D01*
X0253792Y0242253D01*
X0253792Y0245523D02*
X0254610Y0245523D01*
X0257879Y0242253D01*
X0257879Y0245523D01*
X0247379Y0245523D02*
X0247379Y0242253D01*
X0244110Y0245523D01*
X0243292Y0245523D01*
X0242475Y0244706D01*
X0242475Y0243071D01*
X0243292Y0242253D01*
X0242475Y0247410D02*
X0242475Y0250679D01*
X0243292Y0250679D01*
X0246562Y0247410D01*
X0247379Y0247410D01*
X0235879Y0248227D02*
X0235062Y0247410D01*
X0234244Y0247410D01*
X0233427Y0248227D01*
X0233427Y0249862D01*
X0234244Y0250679D01*
X0235062Y0250679D01*
X0235879Y0249862D01*
X0235879Y0248227D01*
X0233427Y0248227D02*
X0232610Y0247410D01*
X0231792Y0247410D01*
X0230975Y0248227D01*
X0230975Y0249862D01*
X0231792Y0250679D01*
X0232610Y0250679D01*
X0233427Y0249862D01*
X0232610Y0245523D02*
X0231792Y0245523D01*
X0230975Y0244706D01*
X0230975Y0243071D01*
X0231792Y0242253D01*
X0232610Y0245523D02*
X0235879Y0242253D01*
X0235879Y0245523D01*
X0225379Y0245023D02*
X0225379Y0241753D01*
X0222110Y0245023D01*
X0221292Y0245023D01*
X0220475Y0244206D01*
X0220475Y0242571D01*
X0221292Y0241753D01*
X0221292Y0246910D02*
X0222110Y0246910D01*
X0222927Y0247727D01*
X0222927Y0250179D01*
X0224562Y0250179D02*
X0221292Y0250179D01*
X0220475Y0249362D01*
X0220475Y0247727D01*
X0221292Y0246910D01*
X0224562Y0246910D02*
X0225379Y0247727D01*
X0225379Y0249362D01*
X0224562Y0250179D01*
X0214379Y0249362D02*
X0214379Y0247727D01*
X0213562Y0246910D01*
X0210292Y0250179D01*
X0213562Y0250179D01*
X0214379Y0249362D01*
X0213562Y0246910D02*
X0210292Y0246910D01*
X0209475Y0247727D01*
X0209475Y0249362D01*
X0210292Y0250179D01*
X0210292Y0245023D02*
X0211110Y0245023D01*
X0211927Y0244206D01*
X0212744Y0245023D01*
X0213562Y0245023D01*
X0214379Y0244206D01*
X0214379Y0242571D01*
X0213562Y0241753D01*
X0211927Y0243388D02*
X0211927Y0244206D01*
X0210292Y0245023D02*
X0209475Y0244206D01*
X0209475Y0242571D01*
X0210292Y0241753D01*
X0202879Y0242571D02*
X0202062Y0241753D01*
X0202879Y0242571D02*
X0202879Y0244206D01*
X0202062Y0245023D01*
X0201244Y0245023D01*
X0200427Y0244206D01*
X0200427Y0243388D01*
X0200427Y0244206D02*
X0199610Y0245023D01*
X0198792Y0245023D01*
X0197975Y0244206D01*
X0197975Y0242571D01*
X0198792Y0241753D01*
X0199610Y0246910D02*
X0197975Y0248545D01*
X0202879Y0248545D01*
X0202879Y0250179D02*
X0202879Y0246910D01*
X0181879Y0247727D02*
X0181062Y0246910D01*
X0181879Y0247727D02*
X0181879Y0249362D01*
X0181062Y0250179D01*
X0180244Y0250179D01*
X0179427Y0249362D01*
X0179427Y0248545D01*
X0179427Y0249362D02*
X0178610Y0250179D01*
X0177792Y0250179D01*
X0176975Y0249362D01*
X0176975Y0247727D01*
X0177792Y0246910D01*
X0177792Y0245023D02*
X0178610Y0245023D01*
X0179427Y0244206D01*
X0180244Y0245023D01*
X0181062Y0245023D01*
X0181879Y0244206D01*
X0181879Y0242571D01*
X0181062Y0241753D01*
X0179427Y0243388D02*
X0179427Y0244206D01*
X0177792Y0245023D02*
X0176975Y0244206D01*
X0176975Y0242571D01*
X0177792Y0241753D01*
X0171379Y0242571D02*
X0171379Y0244206D01*
X0170562Y0245023D01*
X0169744Y0245023D01*
X0168927Y0244206D01*
X0168927Y0243388D01*
X0168927Y0244206D02*
X0168110Y0245023D01*
X0167292Y0245023D01*
X0166475Y0244206D01*
X0166475Y0242571D01*
X0167292Y0241753D01*
X0170562Y0241753D02*
X0171379Y0242571D01*
X0168927Y0246910D02*
X0168927Y0250179D01*
X0171379Y0249362D02*
X0166475Y0249362D01*
X0168927Y0246910D01*
X0160379Y0247727D02*
X0159562Y0246910D01*
X0160379Y0247727D02*
X0160379Y0249362D01*
X0159562Y0250179D01*
X0157927Y0250179D01*
X0157110Y0249362D01*
X0157110Y0248545D01*
X0157927Y0246910D01*
X0155475Y0246910D01*
X0155475Y0250179D01*
X0156292Y0245023D02*
X0157110Y0245023D01*
X0157927Y0244206D01*
X0158744Y0245023D01*
X0159562Y0245023D01*
X0160379Y0244206D01*
X0160379Y0242571D01*
X0159562Y0241753D01*
X0157927Y0243388D02*
X0157927Y0244206D01*
X0156292Y0245023D02*
X0155475Y0244206D01*
X0155475Y0242571D01*
X0156292Y0241753D01*
X0148379Y0242571D02*
X0148379Y0244206D01*
X0147562Y0245023D01*
X0146744Y0245023D01*
X0145927Y0244206D01*
X0145927Y0243388D01*
X0145927Y0244206D02*
X0145110Y0245023D01*
X0144292Y0245023D01*
X0143475Y0244206D01*
X0143475Y0242571D01*
X0144292Y0241753D01*
X0147562Y0241753D02*
X0148379Y0242571D01*
X0147562Y0246910D02*
X0148379Y0247727D01*
X0148379Y0249362D01*
X0147562Y0250179D01*
X0146744Y0250179D01*
X0145927Y0249362D01*
X0145927Y0246910D01*
X0147562Y0246910D01*
X0145927Y0246910D02*
X0144292Y0248545D01*
X0143475Y0250179D01*
X0138879Y0246910D02*
X0138062Y0246910D01*
X0134792Y0250179D01*
X0133975Y0250179D01*
X0133975Y0246910D01*
X0134792Y0245023D02*
X0135610Y0245023D01*
X0136427Y0244206D01*
X0137244Y0245023D01*
X0138062Y0245023D01*
X0138879Y0244206D01*
X0138879Y0242571D01*
X0138062Y0241753D01*
X0136427Y0243388D02*
X0136427Y0244206D01*
X0134792Y0245023D02*
X0133975Y0244206D01*
X0133975Y0242571D01*
X0134792Y0241753D01*
X0172475Y0212388D02*
X0174110Y0210753D01*
D12*
X0187691Y0239512D02*
X0186573Y0240629D01*
X0186573Y0242865D01*
X0187691Y0243982D01*
X0188809Y0243982D01*
X0189926Y0242865D01*
X0191044Y0243982D01*
X0192161Y0243982D01*
X0193279Y0242865D01*
X0193279Y0240629D01*
X0192161Y0239512D01*
X0189926Y0241747D02*
X0189926Y0242865D01*
X0187691Y0246510D02*
X0186573Y0247627D01*
X0186573Y0249863D01*
X0187691Y0250980D01*
X0188809Y0250980D01*
X0193279Y0246510D01*
X0193279Y0250980D01*
X0193779Y0059480D02*
X0193779Y0055010D01*
X0189309Y0059480D01*
X0188191Y0059480D01*
X0187073Y0058363D01*
X0187073Y0056127D01*
X0188191Y0055010D01*
X0188191Y0052482D02*
X0189309Y0052482D01*
X0190426Y0051365D01*
X0191544Y0052482D01*
X0192661Y0052482D01*
X0193779Y0051365D01*
X0193779Y0049129D01*
X0192661Y0048012D01*
X0190426Y0050247D02*
X0190426Y0051365D01*
X0188191Y0052482D02*
X0187073Y0051365D01*
X0187073Y0049129D01*
X0188191Y0048012D01*
D13*
X0346321Y0097747D02*
X0346321Y0102351D01*
X0347856Y0103886D01*
X0353994Y0103886D01*
X0355529Y0102351D01*
X0355529Y0097747D01*
X0346321Y0097747D01*
X0347856Y0106955D02*
X0349390Y0106955D01*
X0350925Y0108490D01*
X0350925Y0111559D01*
X0352460Y0113094D01*
X0353994Y0113094D01*
X0355529Y0111559D01*
X0355529Y0108490D01*
X0353994Y0106955D01*
X0347856Y0106955D02*
X0346321Y0108490D01*
X0346321Y0111559D01*
X0347856Y0113094D01*
X0346321Y0116163D02*
X0353994Y0116163D01*
X0355529Y0117698D01*
X0355529Y0120767D01*
X0353994Y0122302D01*
X0346321Y0122302D01*
X0346321Y0125371D02*
X0346321Y0129975D01*
X0347856Y0131509D01*
X0349390Y0131509D01*
X0350925Y0129975D01*
X0350925Y0125371D01*
X0350925Y0129975D02*
X0352460Y0131509D01*
X0353994Y0131509D01*
X0355529Y0129975D01*
X0355529Y0125371D01*
X0346321Y0125371D01*
X0346321Y0143787D02*
X0346321Y0149925D01*
X0346321Y0146856D02*
X0355529Y0146856D01*
X0353994Y0152994D02*
X0347856Y0152994D01*
X0346321Y0154529D01*
X0346321Y0157598D01*
X0347856Y0159133D01*
X0353994Y0159133D01*
X0355529Y0157598D01*
X0355529Y0154529D01*
X0353994Y0152994D01*
X0352460Y0171410D02*
X0352460Y0176014D01*
X0350925Y0177549D01*
X0347856Y0177549D01*
X0346321Y0176014D01*
X0346321Y0171410D01*
X0355529Y0171410D01*
X0355529Y0180618D02*
X0355529Y0183687D01*
X0355529Y0182153D02*
X0346321Y0182153D01*
X0346321Y0183687D02*
X0346321Y0180618D01*
X0346321Y0186757D02*
X0355529Y0192895D01*
X0346321Y0192895D01*
X0347856Y0195964D02*
X0349390Y0195964D01*
X0350925Y0197499D01*
X0350925Y0200568D01*
X0352460Y0202103D01*
X0353994Y0202103D01*
X0355529Y0200568D01*
X0355529Y0197499D01*
X0353994Y0195964D01*
X0347856Y0195964D02*
X0346321Y0197499D01*
X0346321Y0200568D01*
X0347856Y0202103D01*
X0346321Y0186757D02*
X0355529Y0186757D01*
D14*
X0326257Y0224595D02*
X0326257Y0228595D01*
X0320857Y0234495D02*
X0320857Y0238495D01*
X0309957Y0238495D02*
X0309957Y0234495D01*
X0315457Y0228595D02*
X0315457Y0224595D01*
X0304557Y0224495D02*
X0304557Y0228495D01*
X0299157Y0234495D02*
X0299157Y0238495D01*
X0288257Y0238595D02*
X0288257Y0234595D01*
X0277357Y0234595D02*
X0277357Y0238595D01*
X0266457Y0238595D02*
X0266457Y0234595D01*
X0261057Y0228595D02*
X0261057Y0224595D01*
X0271957Y0224595D02*
X0271957Y0228595D01*
X0282857Y0228595D02*
X0282857Y0224595D01*
X0293657Y0224595D02*
X0293657Y0228595D01*
X0255657Y0234595D02*
X0255657Y0238595D01*
X0244757Y0238595D02*
X0244757Y0234595D01*
X0233857Y0234595D02*
X0233857Y0238595D01*
X0223057Y0238595D02*
X0223057Y0234595D01*
X0228457Y0228595D02*
X0228457Y0224595D01*
X0239357Y0224595D02*
X0239357Y0228595D01*
X0250157Y0228595D02*
X0250157Y0224595D01*
X0217557Y0224595D02*
X0217557Y0228595D01*
X0212157Y0234595D02*
X0212157Y0238595D01*
X0201257Y0238595D02*
X0201257Y0234595D01*
X0195857Y0228595D02*
X0195857Y0224595D01*
X0184957Y0224595D02*
X0184957Y0228595D01*
X0179557Y0234595D02*
X0179557Y0238595D01*
X0190457Y0238595D02*
X0190457Y0234595D01*
X0174157Y0228595D02*
X0174157Y0224595D01*
X0163257Y0224595D02*
X0163257Y0228595D01*
X0168657Y0234595D02*
X0168657Y0238595D01*
X0157857Y0238595D02*
X0157857Y0234595D01*
X0152357Y0228595D02*
X0152357Y0224595D01*
X0141557Y0224595D02*
X0141557Y0228595D01*
X0146957Y0234595D02*
X0146957Y0238595D01*
X0136057Y0238595D02*
X0136057Y0234595D01*
X0130657Y0228595D02*
X0130657Y0224595D01*
X0206757Y0224595D02*
X0206757Y0228595D01*
X0206678Y0076300D02*
X0206678Y0072300D01*
X0212078Y0066300D02*
X0212078Y0062300D01*
X0222978Y0062300D02*
X0222978Y0066300D01*
X0228378Y0072300D02*
X0228378Y0076300D01*
X0239278Y0076300D02*
X0239278Y0072300D01*
X0244678Y0066300D02*
X0244678Y0062300D01*
X0233778Y0062300D02*
X0233778Y0066300D01*
X0250078Y0072300D02*
X0250078Y0076300D01*
X0260978Y0076300D02*
X0260978Y0072300D01*
X0266378Y0066300D02*
X0266378Y0062300D01*
X0255578Y0062300D02*
X0255578Y0066300D01*
X0271878Y0072300D02*
X0271878Y0076300D01*
X0282678Y0076300D02*
X0282678Y0072300D01*
X0277278Y0066300D02*
X0277278Y0062300D01*
X0288178Y0062300D02*
X0288178Y0066300D01*
X0293578Y0072300D02*
X0293578Y0076300D01*
X0304478Y0076300D02*
X0304478Y0072300D01*
X0309878Y0066300D02*
X0309878Y0062300D01*
X0320778Y0062300D02*
X0320778Y0066300D01*
X0326178Y0072300D02*
X0326178Y0076300D01*
X0315278Y0076300D02*
X0315278Y0072300D01*
X0298978Y0066300D02*
X0298978Y0062300D01*
X0217478Y0072300D02*
X0217478Y0076300D01*
X0201178Y0066300D02*
X0201178Y0062300D01*
X0190378Y0062300D02*
X0190378Y0066300D01*
X0195778Y0072300D02*
X0195778Y0076300D01*
X0184878Y0076300D02*
X0184878Y0072300D01*
X0179478Y0066300D02*
X0179478Y0062300D01*
X0168578Y0062300D02*
X0168578Y0066300D01*
X0173978Y0072300D02*
X0173978Y0076300D01*
X0163178Y0076300D02*
X0163178Y0072300D01*
X0157678Y0066300D02*
X0157678Y0062300D01*
X0146878Y0062300D02*
X0146878Y0066300D01*
X0152278Y0072300D02*
X0152278Y0076300D01*
X0141378Y0076300D02*
X0141378Y0072300D01*
X0135978Y0066300D02*
X0135978Y0062300D01*
X0130578Y0072300D02*
X0130578Y0076300D01*
D15*
X0135228Y0111430D03*
X0125228Y0111430D03*
X0115228Y0111430D03*
X0115228Y0127178D03*
X0125228Y0127178D03*
X0135228Y0127178D03*
X0145228Y0127178D03*
X0155228Y0127178D03*
X0165228Y0127178D03*
X0175228Y0127178D03*
X0185228Y0127178D03*
X0195228Y0127178D03*
X0205228Y0127178D03*
X0205228Y0142926D03*
X0195228Y0142926D03*
X0185228Y0142926D03*
X0175228Y0142926D03*
X0165228Y0142926D03*
X0155228Y0142926D03*
X0145228Y0142926D03*
X0135228Y0142926D03*
X0125228Y0142926D03*
X0115228Y0142926D03*
X0124504Y0165296D03*
X0134504Y0165296D03*
X0144504Y0165296D03*
X0154504Y0165296D03*
X0164504Y0165296D03*
X0174504Y0165296D03*
X0184504Y0165296D03*
X0184504Y0181044D03*
X0174504Y0181044D03*
X0164504Y0181044D03*
X0154504Y0181044D03*
X0144504Y0181044D03*
X0134504Y0181044D03*
X0124504Y0181044D03*
X0124504Y0196792D03*
X0134504Y0196792D03*
X0144504Y0196792D03*
X0154504Y0196792D03*
X0164504Y0196792D03*
X0174504Y0196792D03*
X0184504Y0196792D03*
X0233842Y0195792D03*
X0243842Y0195792D03*
X0253842Y0195792D03*
X0263842Y0195792D03*
X0273842Y0195792D03*
X0283842Y0195792D03*
X0293842Y0195792D03*
X0303842Y0195792D03*
X0313842Y0195792D03*
X0323842Y0195792D03*
X0323842Y0180044D03*
X0313842Y0180044D03*
X0303842Y0180044D03*
X0293842Y0180044D03*
X0283842Y0180044D03*
X0273842Y0180044D03*
X0263842Y0180044D03*
X0253842Y0180044D03*
X0243842Y0180044D03*
X0233842Y0180044D03*
X0233842Y0164296D03*
X0243842Y0164296D03*
X0253842Y0164296D03*
X0263842Y0164296D03*
X0273842Y0164296D03*
X0283842Y0164296D03*
X0293842Y0164296D03*
X0303842Y0164296D03*
X0313842Y0164296D03*
X0323842Y0164296D03*
X0323590Y0142926D03*
X0313590Y0142926D03*
X0303590Y0142926D03*
X0293590Y0142926D03*
X0283590Y0142926D03*
X0273590Y0142926D03*
X0263590Y0142926D03*
X0253590Y0142926D03*
X0243590Y0142926D03*
X0233590Y0142926D03*
X0233590Y0127178D03*
X0243590Y0127178D03*
X0253590Y0127178D03*
X0263590Y0127178D03*
X0273590Y0127178D03*
X0283590Y0127178D03*
X0293590Y0127178D03*
X0303590Y0127178D03*
X0313590Y0127178D03*
X0323590Y0127178D03*
X0323590Y0111430D03*
X0313590Y0111430D03*
X0303590Y0111430D03*
X0293590Y0111430D03*
X0283590Y0111430D03*
X0273590Y0111430D03*
X0263590Y0111430D03*
X0253590Y0111430D03*
X0243590Y0111430D03*
X0233590Y0111430D03*
X0205228Y0111430D03*
X0195228Y0111430D03*
X0185228Y0111430D03*
X0175228Y0111430D03*
X0165228Y0111430D03*
X0155228Y0111430D03*
X0145228Y0111430D03*
M02*
