%
M48
M72
T01C0.0400
T02C0.1300
%
T01
X13058Y7680
X14138Y7680
X15228Y7680
X16318Y7680
X17398Y7680
X18488Y7680
X19578Y7680
X20668Y7680
X21748Y7680
X22838Y7680
X23928Y7680
X25008Y7680
X26098Y7680
X27188Y7680
X28268Y7680
X29358Y7680
X30448Y7680
X31528Y7680
X32618Y7680
X32078Y6680
X30988Y6680
X29898Y6680
X28818Y6680
X27728Y6680
X26638Y6680
X25558Y6680
X24468Y6680
X23378Y6680
X22298Y6680
X21208Y6680
X20118Y6680
X19028Y6680
X17948Y6680
X16858Y6680
X15768Y6680
X14688Y6680
X13598Y6680
X13523Y11143
X12523Y11143
X11523Y11143
X11523Y12718
X12523Y12718
X13523Y12718
X14523Y12718
X15523Y12718
X16523Y12718
X17523Y12718
X18523Y12718
X19523Y12718
X20523Y12718
X20523Y14293
X19523Y14293
X18523Y14293
X17523Y14293
X16523Y14293
X15523Y14293
X14523Y14293
X13523Y14293
X12523Y14293
X11523Y14293
X12450Y16530
X13450Y16530
X14450Y16530
X15450Y16530
X16450Y16530
X17450Y16530
X18450Y16530
X18450Y18104
X17450Y18104
X16450Y18104
X15450Y18104
X14450Y18104
X13450Y18104
X12450Y18104
X12450Y19679
X13450Y19679
X14450Y19679
X15450Y19679
X16450Y19679
X17450Y19679
X18450Y19679
X18496Y22410
X19586Y22410
X20676Y22410
X21756Y22410
X22846Y22410
X23936Y22410
X25016Y22410
X26106Y22410
X27196Y22410
X28286Y22410
X29366Y22410
X30456Y22410
X31546Y22410
X32626Y22410
X32086Y23410
X30996Y23410
X29916Y23410
X28826Y23410
X27736Y23410
X26646Y23410
X25566Y23410
X24476Y23410
X23386Y23410
X22306Y23410
X21216Y23410
X20126Y23410
X19046Y23410
X17956Y23410
X16866Y23410
X15786Y23410
X14696Y23410
X13606Y23410
X13066Y22410
X14156Y22410
X15236Y22410
X16326Y22410
X17416Y22410
X23384Y19579
X24384Y19579
X25384Y19579
X26384Y19579
X27384Y19579
X28384Y19579
X29384Y19579
X30384Y19579
X31384Y19579
X32384Y19579
X32384Y18004
X31384Y18004
X30384Y18004
X29384Y18004
X28384Y18004
X27384Y18004
X26384Y18004
X25384Y18004
X24384Y18004
X23384Y18004
X23384Y16430
X24384Y16430
X25384Y16430
X26384Y16430
X27384Y16430
X28384Y16430
X29384Y16430
X30384Y16430
X31384Y16430
X32384Y16430
X32359Y14293
X31359Y14293
X30359Y14293
X29359Y14293
X28359Y14293
X27359Y14293
X26359Y14293
X25359Y14293
X24359Y14293
X23359Y14293
X23359Y12718
X24359Y12718
X25359Y12718
X26359Y12718
X27359Y12718
X28359Y12718
X29359Y12718
X30359Y12718
X31359Y12718
X32359Y12718
X32359Y11143
X31359Y11143
X30359Y11143
X29359Y11143
X28359Y11143
X27359Y11143
X26359Y11143
X25359Y11143
X24359Y11143
X23359Y11143
X20523Y11143
X19523Y11143
X18523Y11143
X17523Y11143
X16523Y11143
X15523Y11143
X14523Y11143
T02
X10338Y7180
X10346Y22910
X35346Y22910
X35338Y7180
M30
