G75*
%MOIN*%
%OFA0B0*%
%FSLAX25Y25*%
%IPPOS*%
%LPD*%
%AMOC8*
5,1,8,0,0,1.08239X$1,22.5*
%
%ADD10C,0.00700*%
%ADD11C,0.00900*%
%ADD12C,0.00600*%
%ADD13C,0.00800*%
D10*
X0126979Y0082253D02*
X0126979Y0085523D01*
X0126979Y0083888D02*
X0131883Y0083888D01*
X0130248Y0082253D01*
X0138479Y0082253D02*
X0138479Y0085523D01*
X0138479Y0083888D02*
X0143383Y0083888D01*
X0141748Y0082253D01*
X0149479Y0082253D02*
X0149479Y0085523D01*
X0149479Y0083888D02*
X0154383Y0083888D01*
X0152748Y0082253D01*
X0154383Y0087410D02*
X0154383Y0090679D01*
X0153566Y0090679D01*
X0150296Y0087410D01*
X0149479Y0087410D01*
X0143383Y0088227D02*
X0143383Y0089862D01*
X0142566Y0090679D01*
X0141748Y0090679D01*
X0140931Y0089862D01*
X0140931Y0088227D01*
X0141748Y0087410D01*
X0142566Y0087410D01*
X0143383Y0088227D01*
X0140931Y0088227D02*
X0140114Y0087410D01*
X0139296Y0087410D01*
X0138479Y0088227D01*
X0138479Y0089862D01*
X0139296Y0090679D01*
X0140114Y0090679D01*
X0140931Y0089862D01*
X0131883Y0089862D02*
X0131883Y0088227D01*
X0131066Y0087410D01*
X0130248Y0087410D01*
X0129431Y0088227D01*
X0129431Y0090679D01*
X0127796Y0090679D02*
X0131066Y0090679D01*
X0131883Y0089862D01*
X0127796Y0090679D02*
X0126979Y0089862D01*
X0126979Y0088227D01*
X0127796Y0087410D01*
X0159979Y0088227D02*
X0159979Y0089862D01*
X0160796Y0090679D01*
X0161614Y0090679D01*
X0162431Y0089862D01*
X0162431Y0087410D01*
X0160796Y0087410D01*
X0159979Y0088227D01*
X0162431Y0087410D02*
X0164066Y0089045D01*
X0164883Y0090679D01*
X0170979Y0089862D02*
X0170979Y0088227D01*
X0171796Y0087410D01*
X0173431Y0087410D02*
X0174248Y0089045D01*
X0174248Y0089862D01*
X0173431Y0090679D01*
X0171796Y0090679D01*
X0170979Y0089862D01*
X0173431Y0087410D02*
X0175883Y0087410D01*
X0175883Y0090679D01*
X0181979Y0089862D02*
X0186883Y0089862D01*
X0184431Y0087410D01*
X0184431Y0090679D01*
X0181979Y0085523D02*
X0181979Y0082253D01*
X0181979Y0083888D02*
X0186883Y0083888D01*
X0185248Y0082253D01*
X0193979Y0082253D02*
X0193979Y0085523D01*
X0193979Y0083888D02*
X0198883Y0083888D01*
X0197248Y0082253D01*
X0203479Y0082253D02*
X0203479Y0085523D01*
X0203479Y0083888D02*
X0208383Y0083888D01*
X0206748Y0082253D01*
X0213979Y0082253D02*
X0213979Y0085523D01*
X0213979Y0083888D02*
X0218883Y0083888D01*
X0217248Y0082253D01*
X0224979Y0082253D02*
X0224979Y0085523D01*
X0224979Y0083888D02*
X0229883Y0083888D01*
X0228248Y0082253D01*
X0236888Y0083927D02*
X0236888Y0087197D01*
X0237705Y0088014D01*
X0239340Y0088014D01*
X0240157Y0087197D01*
X0240157Y0086379D01*
X0239340Y0085562D01*
X0236888Y0085562D01*
X0236888Y0083927D02*
X0237705Y0083110D01*
X0239340Y0083110D01*
X0240157Y0083927D01*
X0247888Y0083927D02*
X0248705Y0083110D01*
X0250340Y0083110D01*
X0251157Y0083927D01*
X0251157Y0084745D01*
X0250340Y0085562D01*
X0248705Y0085562D01*
X0247888Y0084745D01*
X0247888Y0083927D01*
X0248705Y0085562D02*
X0247888Y0086379D01*
X0247888Y0087197D01*
X0248705Y0088014D01*
X0250340Y0088014D01*
X0251157Y0087197D01*
X0251157Y0086379D01*
X0250340Y0085562D01*
X0258888Y0087697D02*
X0262157Y0084427D01*
X0262157Y0083610D01*
X0262157Y0088514D02*
X0258888Y0088514D01*
X0258888Y0087697D01*
X0269388Y0088014D02*
X0271022Y0087197D01*
X0272657Y0085562D01*
X0270205Y0085562D01*
X0269388Y0084745D01*
X0269388Y0083927D01*
X0270205Y0083110D01*
X0271840Y0083110D01*
X0272657Y0083927D01*
X0272657Y0085562D01*
X0280388Y0085562D02*
X0280388Y0083927D01*
X0281205Y0083110D01*
X0282840Y0083110D01*
X0283657Y0083927D01*
X0283657Y0085562D02*
X0282022Y0086379D01*
X0281205Y0086379D01*
X0280388Y0085562D01*
X0280388Y0088014D02*
X0283657Y0088014D01*
X0283657Y0085562D01*
X0290888Y0085562D02*
X0294157Y0085562D01*
X0291705Y0088014D01*
X0291705Y0083110D01*
X0301888Y0083927D02*
X0302705Y0083110D01*
X0304340Y0083110D01*
X0305157Y0083927D01*
X0303522Y0085562D02*
X0302705Y0085562D01*
X0301888Y0084745D01*
X0301888Y0083927D01*
X0302705Y0085562D02*
X0301888Y0086379D01*
X0301888Y0087197D01*
X0302705Y0088014D01*
X0304340Y0088014D01*
X0305157Y0087197D01*
X0312888Y0087197D02*
X0312888Y0086379D01*
X0316157Y0083110D01*
X0312888Y0083110D01*
X0312888Y0087197D02*
X0313705Y0088014D01*
X0315340Y0088014D01*
X0316157Y0087197D01*
X0323888Y0083110D02*
X0327157Y0083110D01*
X0325522Y0083110D02*
X0325522Y0088014D01*
X0327157Y0086379D01*
X0323066Y0058179D02*
X0319796Y0058179D01*
X0318979Y0057362D01*
X0318979Y0055727D01*
X0319796Y0054910D01*
X0323066Y0058179D01*
X0323883Y0057362D01*
X0323883Y0055727D01*
X0323066Y0054910D01*
X0319796Y0054910D01*
X0318979Y0053023D02*
X0318979Y0049753D01*
X0322248Y0053023D01*
X0323066Y0053023D01*
X0323883Y0052206D01*
X0323883Y0050571D01*
X0323066Y0049753D01*
X0312383Y0050571D02*
X0311566Y0049753D01*
X0312383Y0050571D02*
X0312383Y0052206D01*
X0311566Y0053023D01*
X0310748Y0053023D01*
X0307479Y0049753D01*
X0307479Y0053023D01*
X0307479Y0054910D02*
X0307479Y0058179D01*
X0307479Y0056545D02*
X0312383Y0056545D01*
X0310748Y0054910D01*
X0301883Y0055727D02*
X0301883Y0057362D01*
X0301066Y0058179D01*
X0300248Y0058179D01*
X0296979Y0054910D01*
X0296979Y0058179D01*
X0296979Y0053023D02*
X0296979Y0049753D01*
X0300248Y0053023D01*
X0301066Y0053023D01*
X0301883Y0052206D01*
X0301883Y0050571D01*
X0301066Y0049753D01*
X0301066Y0054910D02*
X0301883Y0055727D01*
X0291383Y0055727D02*
X0291383Y0057362D01*
X0290566Y0058179D01*
X0289748Y0058179D01*
X0288931Y0057362D01*
X0288114Y0058179D01*
X0287296Y0058179D01*
X0286479Y0057362D01*
X0286479Y0055727D01*
X0287296Y0054910D01*
X0286479Y0053023D02*
X0286479Y0049753D01*
X0289748Y0053023D01*
X0290566Y0053023D01*
X0291383Y0052206D01*
X0291383Y0050571D01*
X0290566Y0049753D01*
X0290566Y0054910D02*
X0291383Y0055727D01*
X0288931Y0056545D02*
X0288931Y0057362D01*
X0280383Y0057362D02*
X0277931Y0054910D01*
X0277931Y0058179D01*
X0275479Y0057362D02*
X0280383Y0057362D01*
X0279566Y0053023D02*
X0280383Y0052206D01*
X0280383Y0050571D01*
X0279566Y0049753D01*
X0279566Y0053023D02*
X0278748Y0053023D01*
X0275479Y0049753D01*
X0275479Y0053023D01*
X0269383Y0052206D02*
X0269383Y0050571D01*
X0268566Y0049753D01*
X0269383Y0052206D02*
X0268566Y0053023D01*
X0267748Y0053023D01*
X0264479Y0049753D01*
X0264479Y0053023D01*
X0265296Y0054910D02*
X0264479Y0055727D01*
X0264479Y0057362D01*
X0265296Y0058179D01*
X0266931Y0058179D01*
X0267748Y0057362D01*
X0267748Y0056545D01*
X0266931Y0054910D01*
X0269383Y0054910D01*
X0269383Y0058179D01*
X0258383Y0058179D02*
X0257566Y0056545D01*
X0255931Y0054910D01*
X0255931Y0057362D01*
X0255114Y0058179D01*
X0254296Y0058179D01*
X0253479Y0057362D01*
X0253479Y0055727D01*
X0254296Y0054910D01*
X0255931Y0054910D01*
X0256748Y0053023D02*
X0257566Y0053023D01*
X0258383Y0052206D01*
X0258383Y0050571D01*
X0257566Y0049753D01*
X0256748Y0053023D02*
X0253479Y0049753D01*
X0253479Y0053023D01*
X0247883Y0052206D02*
X0247883Y0050571D01*
X0247066Y0049753D01*
X0247883Y0052206D02*
X0247066Y0053023D01*
X0246248Y0053023D01*
X0242979Y0049753D01*
X0242979Y0053023D01*
X0242979Y0054910D02*
X0243796Y0054910D01*
X0247066Y0058179D01*
X0247883Y0058179D01*
X0247883Y0054910D01*
X0236383Y0055727D02*
X0236383Y0057362D01*
X0235566Y0058179D01*
X0234748Y0058179D01*
X0233931Y0057362D01*
X0233931Y0055727D01*
X0234748Y0054910D01*
X0235566Y0054910D01*
X0236383Y0055727D01*
X0233931Y0055727D02*
X0233114Y0054910D01*
X0232296Y0054910D01*
X0231479Y0055727D01*
X0231479Y0057362D01*
X0232296Y0058179D01*
X0233114Y0058179D01*
X0233931Y0057362D01*
X0234748Y0053023D02*
X0235566Y0053023D01*
X0236383Y0052206D01*
X0236383Y0050571D01*
X0235566Y0049753D01*
X0234748Y0053023D02*
X0231479Y0049753D01*
X0231479Y0053023D01*
X0225883Y0052706D02*
X0225883Y0051071D01*
X0225066Y0050253D01*
X0225883Y0052706D02*
X0225066Y0053523D01*
X0224248Y0053523D01*
X0220979Y0050253D01*
X0220979Y0053523D01*
X0221796Y0055410D02*
X0220979Y0056227D01*
X0220979Y0057862D01*
X0221796Y0058679D01*
X0225066Y0058679D01*
X0225883Y0057862D01*
X0225883Y0056227D01*
X0225066Y0055410D01*
X0224248Y0055410D01*
X0223431Y0056227D01*
X0223431Y0058679D01*
X0214883Y0057862D02*
X0214883Y0056227D01*
X0214066Y0055410D01*
X0210796Y0055410D01*
X0214066Y0058679D01*
X0210796Y0058679D01*
X0209979Y0057862D01*
X0209979Y0056227D01*
X0210796Y0055410D01*
X0210796Y0053523D02*
X0209979Y0052706D01*
X0209979Y0051071D01*
X0210796Y0050253D01*
X0212431Y0051888D02*
X0212431Y0052706D01*
X0211614Y0053523D01*
X0210796Y0053523D01*
X0212431Y0052706D02*
X0213248Y0053523D01*
X0214066Y0053523D01*
X0214883Y0052706D01*
X0214883Y0051071D01*
X0214066Y0050253D01*
X0203383Y0051071D02*
X0203383Y0052706D01*
X0202566Y0053523D01*
X0201748Y0053523D01*
X0200931Y0052706D01*
X0200114Y0053523D01*
X0199296Y0053523D01*
X0198479Y0052706D01*
X0198479Y0051071D01*
X0199296Y0050253D01*
X0200931Y0051888D02*
X0200931Y0052706D01*
X0201748Y0055410D02*
X0203383Y0057045D01*
X0198479Y0057045D01*
X0198479Y0058679D02*
X0198479Y0055410D01*
X0203383Y0051071D02*
X0202566Y0050253D01*
X0214066Y0058679D02*
X0214883Y0057862D01*
X0182383Y0057862D02*
X0182383Y0056227D01*
X0181566Y0055410D01*
X0181566Y0053523D02*
X0180748Y0053523D01*
X0179931Y0052706D01*
X0179114Y0053523D01*
X0178296Y0053523D01*
X0177479Y0052706D01*
X0177479Y0051071D01*
X0178296Y0050253D01*
X0179931Y0051888D02*
X0179931Y0052706D01*
X0181566Y0053523D02*
X0182383Y0052706D01*
X0182383Y0051071D01*
X0181566Y0050253D01*
X0178296Y0055410D02*
X0177479Y0056227D01*
X0177479Y0057862D01*
X0178296Y0058679D01*
X0179114Y0058679D01*
X0179931Y0057862D01*
X0179931Y0057045D01*
X0179931Y0057862D02*
X0180748Y0058679D01*
X0181566Y0058679D01*
X0182383Y0057862D01*
X0171883Y0057862D02*
X0169431Y0055410D01*
X0169431Y0058679D01*
X0166979Y0057862D02*
X0171883Y0057862D01*
X0171066Y0053523D02*
X0170248Y0053523D01*
X0169431Y0052706D01*
X0168614Y0053523D01*
X0167796Y0053523D01*
X0166979Y0052706D01*
X0166979Y0051071D01*
X0167796Y0050253D01*
X0169431Y0051888D02*
X0169431Y0052706D01*
X0171066Y0053523D02*
X0171883Y0052706D01*
X0171883Y0051071D01*
X0171066Y0050253D01*
X0160883Y0051071D02*
X0160883Y0052706D01*
X0160066Y0053523D01*
X0159248Y0053523D01*
X0158431Y0052706D01*
X0157614Y0053523D01*
X0156796Y0053523D01*
X0155979Y0052706D01*
X0155979Y0051071D01*
X0156796Y0050253D01*
X0158431Y0051888D02*
X0158431Y0052706D01*
X0158431Y0055410D02*
X0159248Y0057045D01*
X0159248Y0057862D01*
X0158431Y0058679D01*
X0156796Y0058679D01*
X0155979Y0057862D01*
X0155979Y0056227D01*
X0156796Y0055410D01*
X0158431Y0055410D02*
X0160883Y0055410D01*
X0160883Y0058679D01*
X0160883Y0051071D02*
X0160066Y0050253D01*
X0148883Y0051071D02*
X0148883Y0052706D01*
X0148066Y0053523D01*
X0147248Y0053523D01*
X0146431Y0052706D01*
X0145614Y0053523D01*
X0144796Y0053523D01*
X0143979Y0052706D01*
X0143979Y0051071D01*
X0144796Y0050253D01*
X0146431Y0051888D02*
X0146431Y0052706D01*
X0146431Y0055410D02*
X0146431Y0057862D01*
X0145614Y0058679D01*
X0144796Y0058679D01*
X0143979Y0057862D01*
X0143979Y0056227D01*
X0144796Y0055410D01*
X0146431Y0055410D01*
X0148066Y0057045D01*
X0148883Y0058679D01*
X0148883Y0051071D02*
X0148066Y0050253D01*
X0139383Y0051071D02*
X0139383Y0052706D01*
X0138566Y0053523D01*
X0137748Y0053523D01*
X0136931Y0052706D01*
X0136114Y0053523D01*
X0135296Y0053523D01*
X0134479Y0052706D01*
X0134479Y0051071D01*
X0135296Y0050253D01*
X0136931Y0051888D02*
X0136931Y0052706D01*
X0138566Y0050253D02*
X0139383Y0051071D01*
X0139383Y0055410D02*
X0139383Y0058679D01*
X0138566Y0058679D01*
X0135296Y0055410D01*
X0134479Y0055410D01*
X0159979Y0082253D02*
X0159979Y0085523D01*
X0159979Y0083888D02*
X0164883Y0083888D01*
X0163248Y0082253D01*
X0170979Y0082253D02*
X0170979Y0085523D01*
X0170979Y0083888D02*
X0175883Y0083888D01*
X0174248Y0082253D01*
X0193979Y0088227D02*
X0194796Y0087410D01*
X0193979Y0088227D02*
X0193979Y0089862D01*
X0194796Y0090679D01*
X0195614Y0090679D01*
X0196431Y0089862D01*
X0196431Y0089045D01*
X0196431Y0089862D02*
X0197248Y0090679D01*
X0198066Y0090679D01*
X0198883Y0089862D01*
X0198883Y0088227D01*
X0198066Y0087410D01*
X0203479Y0087410D02*
X0206748Y0090679D01*
X0207566Y0090679D01*
X0208383Y0089862D01*
X0208383Y0088227D01*
X0207566Y0087410D01*
X0203479Y0087410D02*
X0203479Y0090679D01*
X0213979Y0090679D02*
X0213979Y0087410D01*
X0213979Y0089045D02*
X0218883Y0089045D01*
X0217248Y0087410D01*
X0224979Y0088227D02*
X0225796Y0087410D01*
X0229066Y0090679D01*
X0225796Y0090679D01*
X0224979Y0089862D01*
X0224979Y0088227D01*
X0225796Y0087410D02*
X0229066Y0087410D01*
X0229883Y0088227D01*
X0229883Y0089862D01*
X0229066Y0090679D01*
X0229748Y0210753D02*
X0231383Y0212388D01*
X0226479Y0212388D01*
X0226479Y0210753D02*
X0226479Y0214023D01*
X0227296Y0215910D02*
X0230566Y0219179D01*
X0227296Y0219179D01*
X0226479Y0218362D01*
X0226479Y0216727D01*
X0227296Y0215910D01*
X0230566Y0215910D01*
X0231383Y0216727D01*
X0231383Y0218362D01*
X0230566Y0219179D01*
X0237888Y0217697D02*
X0237888Y0214427D01*
X0238705Y0213610D01*
X0240340Y0213610D01*
X0241157Y0214427D01*
X0240340Y0216062D02*
X0237888Y0216062D01*
X0237888Y0217697D02*
X0238705Y0218514D01*
X0240340Y0218514D01*
X0241157Y0217697D01*
X0241157Y0216879D01*
X0240340Y0216062D01*
X0248888Y0216879D02*
X0248888Y0217697D01*
X0249705Y0218514D01*
X0251340Y0218514D01*
X0252157Y0217697D01*
X0252157Y0216879D01*
X0251340Y0216062D01*
X0249705Y0216062D01*
X0248888Y0215245D01*
X0248888Y0214427D01*
X0249705Y0213610D01*
X0251340Y0213610D01*
X0252157Y0214427D01*
X0252157Y0215245D01*
X0251340Y0216062D01*
X0249705Y0216062D02*
X0248888Y0216879D01*
X0259888Y0217197D02*
X0263157Y0213927D01*
X0263157Y0213110D01*
X0263157Y0218014D02*
X0259888Y0218014D01*
X0259888Y0217197D01*
X0270388Y0218514D02*
X0272022Y0217697D01*
X0273657Y0216062D01*
X0271205Y0216062D01*
X0270388Y0215245D01*
X0270388Y0214427D01*
X0271205Y0213610D01*
X0272840Y0213610D01*
X0273657Y0214427D01*
X0273657Y0216062D01*
X0281388Y0216062D02*
X0281388Y0214427D01*
X0282205Y0213610D01*
X0283840Y0213610D01*
X0284657Y0214427D01*
X0284657Y0216062D02*
X0283022Y0216879D01*
X0282205Y0216879D01*
X0281388Y0216062D01*
X0281388Y0218514D02*
X0284657Y0218514D01*
X0284657Y0216062D01*
X0291888Y0216062D02*
X0295157Y0216062D01*
X0292705Y0218514D01*
X0292705Y0213610D01*
X0302888Y0214427D02*
X0303705Y0213610D01*
X0305340Y0213610D01*
X0306157Y0214427D01*
X0304522Y0216062D02*
X0303705Y0216062D01*
X0302888Y0215245D01*
X0302888Y0214427D01*
X0303705Y0216062D02*
X0302888Y0216879D01*
X0302888Y0217697D01*
X0303705Y0218514D01*
X0305340Y0218514D01*
X0306157Y0217697D01*
X0313888Y0217697D02*
X0313888Y0216879D01*
X0317157Y0213610D01*
X0313888Y0213610D01*
X0313888Y0217697D02*
X0314705Y0218514D01*
X0316340Y0218514D01*
X0317157Y0217697D01*
X0324888Y0213610D02*
X0328157Y0213610D01*
X0326522Y0213610D02*
X0326522Y0218514D01*
X0328157Y0216879D01*
X0322566Y0241253D02*
X0323383Y0242071D01*
X0323383Y0243706D01*
X0322566Y0244523D01*
X0321748Y0244523D01*
X0318479Y0241253D01*
X0318479Y0244523D01*
X0319296Y0246410D02*
X0322566Y0249679D01*
X0319296Y0249679D01*
X0318479Y0248862D01*
X0318479Y0247227D01*
X0319296Y0246410D01*
X0322566Y0246410D01*
X0323383Y0247227D01*
X0323383Y0248862D01*
X0322566Y0249679D01*
X0311883Y0248045D02*
X0310248Y0246410D01*
X0310248Y0244523D02*
X0311066Y0244523D01*
X0311883Y0243706D01*
X0311883Y0242071D01*
X0311066Y0241253D01*
X0310248Y0244523D02*
X0306979Y0241253D01*
X0306979Y0244523D01*
X0306979Y0246410D02*
X0306979Y0249679D01*
X0306979Y0248045D02*
X0311883Y0248045D01*
X0301383Y0248862D02*
X0301383Y0247227D01*
X0300566Y0246410D01*
X0300566Y0244523D02*
X0301383Y0243706D01*
X0301383Y0242071D01*
X0300566Y0241253D01*
X0300566Y0244523D02*
X0299748Y0244523D01*
X0296479Y0241253D01*
X0296479Y0244523D01*
X0296479Y0246410D02*
X0299748Y0249679D01*
X0300566Y0249679D01*
X0301383Y0248862D01*
X0296479Y0249679D02*
X0296479Y0246410D01*
X0290883Y0247227D02*
X0290883Y0248862D01*
X0290066Y0249679D01*
X0289248Y0249679D01*
X0288431Y0248862D01*
X0287614Y0249679D01*
X0286796Y0249679D01*
X0285979Y0248862D01*
X0285979Y0247227D01*
X0286796Y0246410D01*
X0285979Y0244523D02*
X0285979Y0241253D01*
X0289248Y0244523D01*
X0290066Y0244523D01*
X0290883Y0243706D01*
X0290883Y0242071D01*
X0290066Y0241253D01*
X0290066Y0246410D02*
X0290883Y0247227D01*
X0288431Y0248045D02*
X0288431Y0248862D01*
X0279883Y0248862D02*
X0277431Y0246410D01*
X0277431Y0249679D01*
X0274979Y0248862D02*
X0279883Y0248862D01*
X0279066Y0244523D02*
X0279883Y0243706D01*
X0279883Y0242071D01*
X0279066Y0241253D01*
X0279066Y0244523D02*
X0278248Y0244523D01*
X0274979Y0241253D01*
X0274979Y0244523D01*
X0268883Y0243706D02*
X0268883Y0242071D01*
X0268066Y0241253D01*
X0268883Y0243706D02*
X0268066Y0244523D01*
X0267248Y0244523D01*
X0263979Y0241253D01*
X0263979Y0244523D01*
X0264796Y0246410D02*
X0263979Y0247227D01*
X0263979Y0248862D01*
X0264796Y0249679D01*
X0266431Y0249679D01*
X0267248Y0248862D01*
X0267248Y0248045D01*
X0266431Y0246410D01*
X0268883Y0246410D01*
X0268883Y0249679D01*
X0257883Y0249679D02*
X0257066Y0248045D01*
X0255431Y0246410D01*
X0255431Y0248862D01*
X0254614Y0249679D01*
X0253796Y0249679D01*
X0252979Y0248862D01*
X0252979Y0247227D01*
X0253796Y0246410D01*
X0255431Y0246410D01*
X0256248Y0244523D02*
X0257066Y0244523D01*
X0257883Y0243706D01*
X0257883Y0242071D01*
X0257066Y0241253D01*
X0256248Y0244523D02*
X0252979Y0241253D01*
X0252979Y0244523D01*
X0247383Y0243706D02*
X0247383Y0242071D01*
X0246566Y0241253D01*
X0247383Y0243706D02*
X0246566Y0244523D01*
X0245748Y0244523D01*
X0242479Y0241253D01*
X0242479Y0244523D01*
X0242479Y0246410D02*
X0243296Y0246410D01*
X0246566Y0249679D01*
X0247383Y0249679D01*
X0247383Y0246410D01*
X0235883Y0247227D02*
X0235883Y0248862D01*
X0235066Y0249679D01*
X0234248Y0249679D01*
X0233431Y0248862D01*
X0233431Y0247227D01*
X0234248Y0246410D01*
X0235066Y0246410D01*
X0235883Y0247227D01*
X0233431Y0247227D02*
X0232614Y0246410D01*
X0231796Y0246410D01*
X0230979Y0247227D01*
X0230979Y0248862D01*
X0231796Y0249679D01*
X0232614Y0249679D01*
X0233431Y0248862D01*
X0234248Y0244523D02*
X0235066Y0244523D01*
X0235883Y0243706D01*
X0235883Y0242071D01*
X0235066Y0241253D01*
X0234248Y0244523D02*
X0230979Y0241253D01*
X0230979Y0244523D01*
X0225383Y0244206D02*
X0225383Y0242571D01*
X0224566Y0241753D01*
X0225383Y0244206D02*
X0224566Y0245023D01*
X0223748Y0245023D01*
X0220479Y0241753D01*
X0220479Y0245023D01*
X0221296Y0246910D02*
X0220479Y0247727D01*
X0220479Y0249362D01*
X0221296Y0250179D01*
X0224566Y0250179D01*
X0225383Y0249362D01*
X0225383Y0247727D01*
X0224566Y0246910D01*
X0223748Y0246910D01*
X0222931Y0247727D01*
X0222931Y0250179D01*
X0214383Y0249362D02*
X0213566Y0250179D01*
X0210296Y0246910D01*
X0209479Y0247727D01*
X0209479Y0249362D01*
X0210296Y0250179D01*
X0213566Y0250179D01*
X0214383Y0249362D02*
X0214383Y0247727D01*
X0213566Y0246910D01*
X0210296Y0246910D01*
X0210296Y0245023D02*
X0209479Y0244206D01*
X0209479Y0242571D01*
X0210296Y0241753D01*
X0211931Y0243388D02*
X0211931Y0244206D01*
X0211114Y0245023D01*
X0210296Y0245023D01*
X0211931Y0244206D02*
X0212748Y0245023D01*
X0213566Y0245023D01*
X0214383Y0244206D01*
X0214383Y0242571D01*
X0213566Y0241753D01*
X0202883Y0242571D02*
X0202883Y0244206D01*
X0202066Y0245023D01*
X0201248Y0245023D01*
X0200431Y0244206D01*
X0199614Y0245023D01*
X0198796Y0245023D01*
X0197979Y0244206D01*
X0197979Y0242571D01*
X0198796Y0241753D01*
X0200431Y0243388D02*
X0200431Y0244206D01*
X0201248Y0246910D02*
X0202883Y0248545D01*
X0197979Y0248545D01*
X0197979Y0250179D02*
X0197979Y0246910D01*
X0202883Y0242571D02*
X0202066Y0241753D01*
X0181883Y0242571D02*
X0181883Y0244206D01*
X0181066Y0245023D01*
X0180248Y0245023D01*
X0179431Y0244206D01*
X0178614Y0245023D01*
X0177796Y0245023D01*
X0176979Y0244206D01*
X0176979Y0242571D01*
X0177796Y0241753D01*
X0179431Y0243388D02*
X0179431Y0244206D01*
X0181066Y0241753D02*
X0181883Y0242571D01*
X0181066Y0246910D02*
X0181883Y0247727D01*
X0181883Y0249362D01*
X0181066Y0250179D01*
X0180248Y0250179D01*
X0179431Y0249362D01*
X0178614Y0250179D01*
X0177796Y0250179D01*
X0176979Y0249362D01*
X0176979Y0247727D01*
X0177796Y0246910D01*
X0179431Y0248545D02*
X0179431Y0249362D01*
X0171383Y0249362D02*
X0168931Y0246910D01*
X0168931Y0250179D01*
X0166479Y0249362D02*
X0171383Y0249362D01*
X0170566Y0245023D02*
X0169748Y0245023D01*
X0168931Y0244206D01*
X0168114Y0245023D01*
X0167296Y0245023D01*
X0166479Y0244206D01*
X0166479Y0242571D01*
X0167296Y0241753D01*
X0168931Y0243388D02*
X0168931Y0244206D01*
X0170566Y0245023D02*
X0171383Y0244206D01*
X0171383Y0242571D01*
X0170566Y0241753D01*
X0160383Y0242571D02*
X0160383Y0244206D01*
X0159566Y0245023D01*
X0158748Y0245023D01*
X0157931Y0244206D01*
X0157114Y0245023D01*
X0156296Y0245023D01*
X0155479Y0244206D01*
X0155479Y0242571D01*
X0156296Y0241753D01*
X0157931Y0243388D02*
X0157931Y0244206D01*
X0157931Y0246910D02*
X0158748Y0248545D01*
X0158748Y0249362D01*
X0157931Y0250179D01*
X0156296Y0250179D01*
X0155479Y0249362D01*
X0155479Y0247727D01*
X0156296Y0246910D01*
X0157931Y0246910D02*
X0160383Y0246910D01*
X0160383Y0250179D01*
X0160383Y0242571D02*
X0159566Y0241753D01*
X0148383Y0242571D02*
X0148383Y0244206D01*
X0147566Y0245023D01*
X0146748Y0245023D01*
X0145931Y0244206D01*
X0145114Y0245023D01*
X0144296Y0245023D01*
X0143479Y0244206D01*
X0143479Y0242571D01*
X0144296Y0241753D01*
X0145931Y0243388D02*
X0145931Y0244206D01*
X0145931Y0246910D02*
X0145931Y0249362D01*
X0145114Y0250179D01*
X0144296Y0250179D01*
X0143479Y0249362D01*
X0143479Y0247727D01*
X0144296Y0246910D01*
X0145931Y0246910D01*
X0147566Y0248545D01*
X0148383Y0250179D01*
X0148383Y0242571D02*
X0147566Y0241753D01*
X0138883Y0242571D02*
X0138883Y0244206D01*
X0138066Y0245023D01*
X0137248Y0245023D01*
X0136431Y0244206D01*
X0135614Y0245023D01*
X0134796Y0245023D01*
X0133979Y0244206D01*
X0133979Y0242571D01*
X0134796Y0241753D01*
X0136431Y0243388D02*
X0136431Y0244206D01*
X0138066Y0241753D02*
X0138883Y0242571D01*
X0138883Y0246910D02*
X0138883Y0250179D01*
X0138066Y0250179D01*
X0134796Y0246910D01*
X0133979Y0246910D01*
X0132566Y0219179D02*
X0133383Y0218362D01*
X0133383Y0216727D01*
X0132566Y0215910D01*
X0131748Y0215910D01*
X0130931Y0216727D01*
X0130931Y0219179D01*
X0129296Y0219179D02*
X0132566Y0219179D01*
X0129296Y0219179D02*
X0128479Y0218362D01*
X0128479Y0216727D01*
X0129296Y0215910D01*
X0128479Y0214023D02*
X0128479Y0210753D01*
X0128479Y0212388D02*
X0133383Y0212388D01*
X0131748Y0210753D01*
X0139979Y0210753D02*
X0139979Y0214023D01*
X0139979Y0212388D02*
X0144883Y0212388D01*
X0143248Y0210753D01*
X0143248Y0215910D02*
X0144066Y0215910D01*
X0144883Y0216727D01*
X0144883Y0218362D01*
X0144066Y0219179D01*
X0143248Y0219179D01*
X0142431Y0218362D01*
X0142431Y0216727D01*
X0143248Y0215910D01*
X0142431Y0216727D02*
X0141614Y0215910D01*
X0140796Y0215910D01*
X0139979Y0216727D01*
X0139979Y0218362D01*
X0140796Y0219179D01*
X0141614Y0219179D01*
X0142431Y0218362D01*
X0150979Y0215910D02*
X0151796Y0215910D01*
X0155066Y0219179D01*
X0155883Y0219179D01*
X0155883Y0215910D01*
X0155883Y0212388D02*
X0150979Y0212388D01*
X0150979Y0210753D02*
X0150979Y0214023D01*
X0154248Y0210753D02*
X0155883Y0212388D01*
X0161479Y0212388D02*
X0166383Y0212388D01*
X0164748Y0210753D01*
X0161479Y0210753D02*
X0161479Y0214023D01*
X0162296Y0215910D02*
X0161479Y0216727D01*
X0161479Y0218362D01*
X0162296Y0219179D01*
X0163114Y0219179D01*
X0163931Y0218362D01*
X0163931Y0215910D01*
X0162296Y0215910D01*
X0163931Y0215910D02*
X0165566Y0217545D01*
X0166383Y0219179D01*
X0172479Y0218362D02*
X0172479Y0216727D01*
X0173296Y0215910D01*
X0174931Y0215910D02*
X0175748Y0217545D01*
X0175748Y0218362D01*
X0174931Y0219179D01*
X0173296Y0219179D01*
X0172479Y0218362D01*
X0174931Y0215910D02*
X0177383Y0215910D01*
X0177383Y0219179D01*
X0183479Y0218362D02*
X0188383Y0218362D01*
X0185931Y0215910D01*
X0185931Y0219179D01*
X0183479Y0214023D02*
X0183479Y0210753D01*
X0183479Y0212388D02*
X0188383Y0212388D01*
X0186748Y0210753D01*
X0193979Y0210753D02*
X0193979Y0214023D01*
X0193979Y0212388D02*
X0198883Y0212388D01*
X0197248Y0210753D01*
X0198066Y0215910D02*
X0198883Y0216727D01*
X0198883Y0218362D01*
X0198066Y0219179D01*
X0197248Y0219179D01*
X0196431Y0218362D01*
X0195614Y0219179D01*
X0194796Y0219179D01*
X0193979Y0218362D01*
X0193979Y0216727D01*
X0194796Y0215910D01*
X0196431Y0217545D02*
X0196431Y0218362D01*
X0204979Y0219179D02*
X0204979Y0215910D01*
X0208248Y0219179D01*
X0209066Y0219179D01*
X0209883Y0218362D01*
X0209883Y0216727D01*
X0209066Y0215910D01*
X0209883Y0212388D02*
X0204979Y0212388D01*
X0204979Y0210753D02*
X0204979Y0214023D01*
X0208248Y0210753D02*
X0209883Y0212388D01*
X0215479Y0212388D02*
X0220383Y0212388D01*
X0218748Y0210753D01*
X0215479Y0210753D02*
X0215479Y0214023D01*
X0215479Y0215910D02*
X0215479Y0219179D01*
X0215479Y0217545D02*
X0220383Y0217545D01*
X0218748Y0215910D01*
X0177383Y0212388D02*
X0172479Y0212388D01*
X0172479Y0210753D02*
X0172479Y0214023D01*
X0175748Y0210753D02*
X0177383Y0212388D01*
D11*
X0187697Y0240512D02*
X0186579Y0241629D01*
X0186579Y0243865D01*
X0187697Y0244982D01*
X0188814Y0244982D01*
X0189932Y0243865D01*
X0189932Y0242747D01*
X0189932Y0243865D02*
X0191049Y0244982D01*
X0192167Y0244982D01*
X0193285Y0243865D01*
X0193285Y0241629D01*
X0192167Y0240512D01*
X0192167Y0247510D02*
X0193285Y0248627D01*
X0193285Y0250863D01*
X0192167Y0251980D01*
X0191049Y0251980D01*
X0186579Y0247510D01*
X0186579Y0251980D01*
X0187079Y0060480D02*
X0187079Y0056010D01*
X0191549Y0060480D01*
X0192667Y0060480D01*
X0193785Y0059363D01*
X0193785Y0057127D01*
X0192667Y0056010D01*
X0192667Y0053482D02*
X0191549Y0053482D01*
X0190432Y0052365D01*
X0189314Y0053482D01*
X0188197Y0053482D01*
X0187079Y0052365D01*
X0187079Y0050129D01*
X0188197Y0049012D01*
X0190432Y0051247D02*
X0190432Y0052365D01*
X0192667Y0053482D02*
X0193785Y0052365D01*
X0193785Y0050129D01*
X0192667Y0049012D01*
D12*
X0192729Y0095756D02*
X0192729Y0098692D01*
X0192729Y0097224D02*
X0197133Y0097224D01*
X0195665Y0095756D01*
X0196399Y0100360D02*
X0197133Y0101094D01*
X0197133Y0102562D01*
X0196399Y0103296D01*
X0195665Y0103296D01*
X0192729Y0100360D01*
X0192729Y0103296D01*
X0187633Y0102562D02*
X0186899Y0103296D01*
X0186165Y0103296D01*
X0185431Y0102562D01*
X0184697Y0103296D01*
X0183963Y0103296D01*
X0183229Y0102562D01*
X0183229Y0101094D01*
X0183963Y0100360D01*
X0183229Y0098692D02*
X0183229Y0095756D01*
X0183229Y0097224D02*
X0187633Y0097224D01*
X0186165Y0095756D01*
X0186899Y0100360D02*
X0187633Y0101094D01*
X0187633Y0102562D01*
X0185431Y0102562D02*
X0185431Y0101828D01*
X0177633Y0102562D02*
X0175431Y0100360D01*
X0175431Y0103296D01*
X0173229Y0102562D02*
X0177633Y0102562D01*
X0177633Y0097224D02*
X0173229Y0097224D01*
X0173229Y0095756D02*
X0173229Y0098692D01*
X0176165Y0095756D02*
X0177633Y0097224D01*
X0167633Y0097224D02*
X0163229Y0097224D01*
X0163229Y0095756D02*
X0163229Y0098692D01*
X0163963Y0100360D02*
X0163229Y0101094D01*
X0163229Y0102562D01*
X0163963Y0103296D01*
X0165431Y0103296D01*
X0166165Y0102562D01*
X0166165Y0101828D01*
X0165431Y0100360D01*
X0167633Y0100360D01*
X0167633Y0103296D01*
X0167633Y0097224D02*
X0166165Y0095756D01*
X0157633Y0097224D02*
X0153229Y0097224D01*
X0153229Y0095756D02*
X0153229Y0098692D01*
X0153963Y0100360D02*
X0153229Y0101094D01*
X0153229Y0102562D01*
X0153963Y0103296D01*
X0154697Y0103296D01*
X0155431Y0102562D01*
X0155431Y0100360D01*
X0153963Y0100360D01*
X0155431Y0100360D02*
X0156899Y0101828D01*
X0157633Y0103296D01*
X0157633Y0097224D02*
X0156165Y0095756D01*
X0147133Y0097224D02*
X0142729Y0097224D01*
X0142729Y0095756D02*
X0142729Y0098692D01*
X0142729Y0100360D02*
X0143463Y0100360D01*
X0146399Y0103296D01*
X0147133Y0103296D01*
X0147133Y0100360D01*
X0147133Y0097224D02*
X0145665Y0095756D01*
X0137133Y0097224D02*
X0132729Y0097224D01*
X0132729Y0095756D02*
X0132729Y0098692D01*
X0133463Y0100360D02*
X0134197Y0100360D01*
X0134931Y0101094D01*
X0134931Y0102562D01*
X0134197Y0103296D01*
X0133463Y0103296D01*
X0132729Y0102562D01*
X0132729Y0101094D01*
X0133463Y0100360D01*
X0134931Y0101094D02*
X0135665Y0100360D01*
X0136399Y0100360D01*
X0137133Y0101094D01*
X0137133Y0102562D01*
X0136399Y0103296D01*
X0135665Y0103296D01*
X0134931Y0102562D01*
X0137133Y0097224D02*
X0135665Y0095756D01*
X0127633Y0097224D02*
X0123229Y0097224D01*
X0123229Y0095756D02*
X0123229Y0098692D01*
X0123963Y0100360D02*
X0123229Y0101094D01*
X0123229Y0102562D01*
X0123963Y0103296D01*
X0126899Y0103296D01*
X0127633Y0102562D01*
X0127633Y0101094D01*
X0126899Y0100360D01*
X0126165Y0100360D01*
X0125431Y0101094D01*
X0125431Y0103296D01*
X0127633Y0097224D02*
X0126165Y0095756D01*
X0117633Y0095990D02*
X0116899Y0095256D01*
X0117633Y0095990D02*
X0117633Y0097458D01*
X0116899Y0098192D01*
X0116165Y0098192D01*
X0113229Y0095256D01*
X0113229Y0098192D01*
X0113963Y0099860D02*
X0116899Y0102796D01*
X0113963Y0102796D01*
X0113229Y0102062D01*
X0113229Y0100594D01*
X0113963Y0099860D01*
X0116899Y0099860D01*
X0117633Y0100594D01*
X0117633Y0102062D01*
X0116899Y0102796D01*
X0122763Y0150456D02*
X0122029Y0151190D01*
X0122029Y0152658D01*
X0122763Y0153392D01*
X0123497Y0153392D01*
X0124231Y0152658D01*
X0124231Y0151924D01*
X0124231Y0152658D02*
X0124965Y0153392D01*
X0125699Y0153392D01*
X0126433Y0152658D01*
X0126433Y0151190D01*
X0125699Y0150456D01*
X0126433Y0155060D02*
X0126433Y0157996D01*
X0125699Y0157996D01*
X0122763Y0155060D01*
X0122029Y0155060D01*
X0133029Y0155694D02*
X0133029Y0157162D01*
X0133763Y0157896D01*
X0134497Y0157896D01*
X0135231Y0157162D01*
X0135231Y0154960D01*
X0133763Y0154960D01*
X0133029Y0155694D01*
X0135231Y0154960D02*
X0136699Y0156428D01*
X0137433Y0157896D01*
X0136699Y0153292D02*
X0135965Y0153292D01*
X0135231Y0152558D01*
X0134497Y0153292D01*
X0133763Y0153292D01*
X0133029Y0152558D01*
X0133029Y0151090D01*
X0133763Y0150356D01*
X0135231Y0151824D02*
X0135231Y0152558D01*
X0136699Y0153292D02*
X0137433Y0152558D01*
X0137433Y0151090D01*
X0136699Y0150356D01*
X0142229Y0151190D02*
X0142229Y0152658D01*
X0142963Y0153392D01*
X0143697Y0153392D01*
X0144431Y0152658D01*
X0144431Y0151924D01*
X0144431Y0152658D02*
X0145165Y0153392D01*
X0145899Y0153392D01*
X0146633Y0152658D01*
X0146633Y0151190D01*
X0145899Y0150456D01*
X0142963Y0150456D02*
X0142229Y0151190D01*
X0142963Y0155060D02*
X0142229Y0155794D01*
X0142229Y0157262D01*
X0142963Y0157996D01*
X0144431Y0157996D01*
X0145165Y0157262D01*
X0145165Y0156528D01*
X0144431Y0155060D01*
X0146633Y0155060D01*
X0146633Y0157996D01*
X0152129Y0156962D02*
X0156533Y0156962D01*
X0154331Y0154760D01*
X0154331Y0157696D01*
X0155065Y0153092D02*
X0154331Y0152358D01*
X0153597Y0153092D01*
X0152863Y0153092D01*
X0152129Y0152358D01*
X0152129Y0150890D01*
X0152863Y0150156D01*
X0154331Y0151624D02*
X0154331Y0152358D01*
X0155065Y0153092D02*
X0155799Y0153092D01*
X0156533Y0152358D01*
X0156533Y0150890D01*
X0155799Y0150156D01*
X0162329Y0151290D02*
X0162329Y0152758D01*
X0163063Y0153492D01*
X0163797Y0153492D01*
X0164531Y0152758D01*
X0164531Y0152024D01*
X0164531Y0152758D02*
X0165265Y0153492D01*
X0165999Y0153492D01*
X0166733Y0152758D01*
X0166733Y0151290D01*
X0165999Y0150556D01*
X0163063Y0150556D02*
X0162329Y0151290D01*
X0163063Y0155160D02*
X0162329Y0155894D01*
X0162329Y0157362D01*
X0163063Y0158096D01*
X0163797Y0158096D01*
X0164531Y0157362D01*
X0164531Y0156628D01*
X0164531Y0157362D02*
X0165265Y0158096D01*
X0165999Y0158096D01*
X0166733Y0157362D01*
X0166733Y0155894D01*
X0165999Y0155160D01*
X0172229Y0154860D02*
X0172229Y0157796D01*
X0172229Y0154860D02*
X0175165Y0157796D01*
X0175899Y0157796D01*
X0176633Y0157062D01*
X0176633Y0155594D01*
X0175899Y0154860D01*
X0175899Y0153192D02*
X0175165Y0153192D01*
X0174431Y0152458D01*
X0173697Y0153192D01*
X0172963Y0153192D01*
X0172229Y0152458D01*
X0172229Y0150990D01*
X0172963Y0150256D01*
X0174431Y0151724D02*
X0174431Y0152458D01*
X0175899Y0153192D02*
X0176633Y0152458D01*
X0176633Y0150990D01*
X0175899Y0150256D01*
X0182729Y0151490D02*
X0182729Y0152958D01*
X0183463Y0153692D01*
X0184197Y0153692D01*
X0184931Y0152958D01*
X0184931Y0152224D01*
X0184931Y0152958D02*
X0185665Y0153692D01*
X0186399Y0153692D01*
X0187133Y0152958D01*
X0187133Y0151490D01*
X0186399Y0150756D01*
X0183463Y0150756D02*
X0182729Y0151490D01*
X0182729Y0155360D02*
X0182729Y0158296D01*
X0182729Y0156828D02*
X0187133Y0156828D01*
X0185665Y0155360D01*
X0231229Y0155094D02*
X0231963Y0154360D01*
X0234899Y0157296D01*
X0231963Y0157296D01*
X0231229Y0156562D01*
X0231229Y0155094D01*
X0231963Y0154360D02*
X0234899Y0154360D01*
X0235633Y0155094D01*
X0235633Y0156562D01*
X0234899Y0157296D01*
X0234899Y0152692D02*
X0234165Y0152692D01*
X0233431Y0151958D01*
X0232697Y0152692D01*
X0231963Y0152692D01*
X0231229Y0151958D01*
X0231229Y0150490D01*
X0231963Y0149756D01*
X0233431Y0151224D02*
X0233431Y0151958D01*
X0234899Y0152692D02*
X0235633Y0151958D01*
X0235633Y0150490D01*
X0234899Y0149756D01*
X0242229Y0149756D02*
X0245165Y0152692D01*
X0245899Y0152692D01*
X0246633Y0151958D01*
X0246633Y0150490D01*
X0245899Y0149756D01*
X0242229Y0149756D02*
X0242229Y0152692D01*
X0242963Y0154360D02*
X0242229Y0155094D01*
X0242229Y0156562D01*
X0242963Y0157296D01*
X0245899Y0157296D01*
X0246633Y0156562D01*
X0246633Y0155094D01*
X0245899Y0154360D01*
X0245165Y0154360D01*
X0244431Y0155094D01*
X0244431Y0157296D01*
X0251729Y0156062D02*
X0251729Y0154594D01*
X0252463Y0153860D01*
X0253197Y0153860D01*
X0253931Y0154594D01*
X0253931Y0156062D01*
X0253197Y0156796D01*
X0252463Y0156796D01*
X0251729Y0156062D01*
X0253931Y0156062D02*
X0254665Y0156796D01*
X0255399Y0156796D01*
X0256133Y0156062D01*
X0256133Y0154594D01*
X0255399Y0153860D01*
X0254665Y0153860D01*
X0253931Y0154594D01*
X0254665Y0152192D02*
X0255399Y0152192D01*
X0256133Y0151458D01*
X0256133Y0149990D01*
X0255399Y0149256D01*
X0254665Y0152192D02*
X0251729Y0149256D01*
X0251729Y0152192D01*
X0261229Y0153192D02*
X0261229Y0150256D01*
X0264165Y0153192D01*
X0264899Y0153192D01*
X0265633Y0152458D01*
X0265633Y0150990D01*
X0264899Y0150256D01*
X0265633Y0154860D02*
X0265633Y0157796D01*
X0264899Y0157796D01*
X0261963Y0154860D01*
X0261229Y0154860D01*
X0271729Y0155594D02*
X0271729Y0157062D01*
X0272463Y0157796D01*
X0273197Y0157796D01*
X0273931Y0157062D01*
X0273931Y0154860D01*
X0272463Y0154860D01*
X0271729Y0155594D01*
X0273931Y0154860D02*
X0275399Y0156328D01*
X0276133Y0157796D01*
X0275399Y0153192D02*
X0276133Y0152458D01*
X0276133Y0150990D01*
X0275399Y0150256D01*
X0275399Y0153192D02*
X0274665Y0153192D01*
X0271729Y0150256D01*
X0271729Y0153192D01*
X0281729Y0153192D02*
X0281729Y0150256D01*
X0284665Y0153192D01*
X0285399Y0153192D01*
X0286133Y0152458D01*
X0286133Y0150990D01*
X0285399Y0150256D01*
X0286133Y0154860D02*
X0283931Y0154860D01*
X0284665Y0156328D01*
X0284665Y0157062D01*
X0283931Y0157796D01*
X0282463Y0157796D01*
X0281729Y0157062D01*
X0281729Y0155594D01*
X0282463Y0154860D01*
X0286133Y0154860D02*
X0286133Y0157796D01*
X0291729Y0157062D02*
X0296133Y0157062D01*
X0293931Y0154860D01*
X0293931Y0157796D01*
X0294665Y0153192D02*
X0295399Y0153192D01*
X0296133Y0152458D01*
X0296133Y0150990D01*
X0295399Y0150256D01*
X0294665Y0153192D02*
X0291729Y0150256D01*
X0291729Y0153192D01*
X0301629Y0152592D02*
X0301629Y0149656D01*
X0304565Y0152592D01*
X0305299Y0152592D01*
X0306033Y0151858D01*
X0306033Y0150390D01*
X0305299Y0149656D01*
X0305299Y0154260D02*
X0306033Y0154994D01*
X0306033Y0156462D01*
X0305299Y0157196D01*
X0304565Y0157196D01*
X0303831Y0156462D01*
X0303097Y0157196D01*
X0302363Y0157196D01*
X0301629Y0156462D01*
X0301629Y0154994D01*
X0302363Y0154260D01*
X0303831Y0155728D02*
X0303831Y0156462D01*
X0311729Y0157296D02*
X0311729Y0154360D01*
X0314665Y0157296D01*
X0315399Y0157296D01*
X0316133Y0156562D01*
X0316133Y0155094D01*
X0315399Y0154360D01*
X0315399Y0152692D02*
X0316133Y0151958D01*
X0316133Y0150490D01*
X0315399Y0149756D01*
X0315399Y0152692D02*
X0314665Y0152692D01*
X0311729Y0149756D01*
X0311729Y0152692D01*
X0322029Y0152892D02*
X0322029Y0149956D01*
X0324965Y0152892D01*
X0325699Y0152892D01*
X0326433Y0152158D01*
X0326433Y0150690D01*
X0325699Y0149956D01*
X0324965Y0154560D02*
X0326433Y0156028D01*
X0322029Y0156028D01*
X0322029Y0154560D02*
X0322029Y0157496D01*
X0324463Y0102764D02*
X0324463Y0098360D01*
X0325931Y0098360D02*
X0322995Y0098360D01*
X0325931Y0101296D02*
X0324463Y0102764D01*
X0315931Y0102030D02*
X0315197Y0102764D01*
X0313729Y0102764D01*
X0312995Y0102030D01*
X0312995Y0101296D01*
X0315931Y0098360D01*
X0312995Y0098360D01*
X0304931Y0099094D02*
X0304197Y0098360D01*
X0302729Y0098360D01*
X0301995Y0099094D01*
X0301995Y0099828D01*
X0302729Y0100562D01*
X0303463Y0100562D01*
X0302729Y0100562D02*
X0301995Y0101296D01*
X0301995Y0102030D01*
X0302729Y0102764D01*
X0304197Y0102764D01*
X0304931Y0102030D01*
X0295931Y0100562D02*
X0292995Y0100562D01*
X0293729Y0102764D02*
X0295931Y0100562D01*
X0293729Y0098360D02*
X0293729Y0102764D01*
X0285431Y0102764D02*
X0285431Y0100562D01*
X0283963Y0101296D01*
X0283229Y0101296D01*
X0282495Y0100562D01*
X0282495Y0099094D01*
X0283229Y0098360D01*
X0284697Y0098360D01*
X0285431Y0099094D01*
X0285431Y0102764D02*
X0282495Y0102764D01*
X0275431Y0100562D02*
X0275431Y0099094D01*
X0274697Y0098360D01*
X0273229Y0098360D01*
X0272495Y0099094D01*
X0272495Y0099828D01*
X0273229Y0100562D01*
X0275431Y0100562D01*
X0273963Y0102030D01*
X0272495Y0102764D01*
X0265931Y0102264D02*
X0262995Y0102264D01*
X0262995Y0101530D01*
X0265931Y0098594D01*
X0265931Y0097860D01*
X0254931Y0099094D02*
X0254931Y0099828D01*
X0254197Y0100562D01*
X0252729Y0100562D01*
X0251995Y0099828D01*
X0251995Y0099094D01*
X0252729Y0098360D01*
X0254197Y0098360D01*
X0254931Y0099094D01*
X0254197Y0100562D02*
X0254931Y0101296D01*
X0254931Y0102030D01*
X0254197Y0102764D01*
X0252729Y0102764D01*
X0251995Y0102030D01*
X0251995Y0101296D01*
X0252729Y0100562D01*
X0244931Y0101296D02*
X0244197Y0100562D01*
X0241995Y0100562D01*
X0241995Y0102030D02*
X0242729Y0102764D01*
X0244197Y0102764D01*
X0244931Y0102030D01*
X0244931Y0101296D01*
X0244931Y0099094D02*
X0244197Y0098360D01*
X0242729Y0098360D01*
X0241995Y0099094D01*
X0241995Y0102030D01*
X0235633Y0102094D02*
X0235633Y0103562D01*
X0234899Y0104296D01*
X0231963Y0101360D01*
X0231229Y0102094D01*
X0231229Y0103562D01*
X0231963Y0104296D01*
X0234899Y0104296D01*
X0235633Y0102094D02*
X0234899Y0101360D01*
X0231963Y0101360D01*
X0231229Y0099692D02*
X0231229Y0096756D01*
X0231229Y0098224D02*
X0235633Y0098224D01*
X0234165Y0096756D01*
X0207633Y0097224D02*
X0203229Y0097224D01*
X0203229Y0095756D02*
X0203229Y0098692D01*
X0203229Y0100360D02*
X0203229Y0103296D01*
X0203229Y0101828D02*
X0207633Y0101828D01*
X0206165Y0100360D01*
X0207633Y0097224D02*
X0206165Y0095756D01*
D13*
X0346329Y0097747D02*
X0346329Y0102351D01*
X0347864Y0103886D01*
X0354002Y0103886D01*
X0355537Y0102351D01*
X0355537Y0097747D01*
X0346329Y0097747D01*
X0347864Y0106955D02*
X0346329Y0108490D01*
X0346329Y0111559D01*
X0347864Y0113094D01*
X0349398Y0113094D01*
X0350933Y0111559D01*
X0350933Y0108490D01*
X0352468Y0106955D01*
X0354002Y0106955D01*
X0355537Y0108490D01*
X0355537Y0111559D01*
X0354002Y0113094D01*
X0355537Y0116163D02*
X0347864Y0116163D01*
X0346329Y0117698D01*
X0346329Y0120767D01*
X0347864Y0122302D01*
X0355537Y0122302D01*
X0355537Y0125371D02*
X0355537Y0129975D01*
X0354002Y0131509D01*
X0352468Y0131509D01*
X0350933Y0129975D01*
X0350933Y0125371D01*
X0350933Y0129975D02*
X0349398Y0131509D01*
X0347864Y0131509D01*
X0346329Y0129975D01*
X0346329Y0125371D01*
X0355537Y0125371D01*
X0355537Y0143787D02*
X0355537Y0149925D01*
X0355537Y0146856D02*
X0346329Y0146856D01*
X0347864Y0152994D02*
X0346329Y0154529D01*
X0346329Y0157598D01*
X0347864Y0159133D01*
X0354002Y0159133D01*
X0355537Y0157598D01*
X0355537Y0154529D01*
X0354002Y0152994D01*
X0347864Y0152994D01*
X0349398Y0171410D02*
X0349398Y0176014D01*
X0350933Y0177549D01*
X0354002Y0177549D01*
X0355537Y0176014D01*
X0355537Y0171410D01*
X0346329Y0171410D01*
X0346329Y0180618D02*
X0346329Y0183687D01*
X0346329Y0182153D02*
X0355537Y0182153D01*
X0355537Y0183687D02*
X0355537Y0180618D01*
X0355537Y0186757D02*
X0346329Y0186757D01*
X0346329Y0192895D02*
X0355537Y0186757D01*
X0355537Y0192895D02*
X0346329Y0192895D01*
X0347864Y0195964D02*
X0346329Y0197499D01*
X0346329Y0200568D01*
X0347864Y0202103D01*
X0349398Y0202103D01*
X0350933Y0200568D01*
X0350933Y0197499D01*
X0352468Y0195964D01*
X0354002Y0195964D01*
X0355537Y0197499D01*
X0355537Y0200568D01*
X0354002Y0202103D01*
M02*
