*
G04 Mass Parameters ***
*
G04 Image ***
*
%INC:\USERS\MAK\DESKTOP\60WAY ELECTRODE CONNECTOR\ELECTRODE_CONNECTOR-SMALLSQUARE.DRD*%
%ICAS*%
%MOIN*%
%IPPOS*%
%ASAXBY*%
G74*%FSLAN2X34Y34*%
*
G04 Aperture Definitions ***
*
%ADD10R,0.0354X0.1102*%
%ADD11C,0.0050*%
%ADD12C,0.0500*%
%ADD13C,0.0100*%
*
G04 Plot Data ***
*
G54D12*
G01X0008952Y0026664D02*
Y0019524D01*
X-0003188D01*
Y0026664D01*
X0008952D01*
G54D13*
G01X0024292Y-0006833D02*
X0024125Y-0006667D01*
X0024042Y-0006500D01*
Y-0006167D01*
X0024125Y-0006000D01*
X0024292Y-0005833D01*
X0024458D01*
X0024625Y-0006000D01*
X0024708Y-0006167D01*
Y-0006500D01*
X0024625Y-0006667D01*
X0024458Y-0006833D01*
X0024292D01*
X0023175Y-0006333D02*
X0023675D01*
X0023758Y-0006500D01*
Y-0006667D01*
X0023675Y-0006833D01*
X0023175D01*
X0023092Y-0006667D01*
Y-0006500D01*
X0023425Y-0005833D01*
X0012312Y-0006833D02*
X0011729D01*
Y-0005833D01*
X0011446Y-0006500D02*
X0010779D01*
X0011446Y-0006833D02*
Y-0006333D01*
X0011196Y-0005833D01*
X0011029D01*
X0010779Y-0006333D01*
Y-0006833D01*
X0010162D02*
Y-0005833D01*
X0010496D02*
X0009829D01*
X0008962Y-0006833D02*
X0008879Y-0006667D01*
Y-0006000D01*
X0008962Y-0005833D01*
X0009462D01*
X0009546Y-0006000D01*
Y-0006667D01*
X0009462Y-0006833D01*
X0008962D01*
X0008262D02*
Y-0005833D01*
X0008596D02*
X0007929D01*
X0024430Y-0004972D02*
X0024319Y-0004861D01*
X0024264Y-0004750D01*
Y-0004528D01*
X0024319Y-0004417D01*
X0024430Y-0004306D01*
X0024542D01*
X0024653Y-0004417D01*
X0024708Y-0004528D01*
Y-0004750D01*
X0024653Y-0004861D01*
X0024542Y-0004972D01*
X0024430D01*
X0023619Y-0004639D02*
X0023953D01*
X0024008Y-0004750D01*
Y-0004861D01*
X0023953Y-0004972D01*
X0023619D01*
X0023564Y-0004861D01*
Y-0004750D01*
X0023786Y-0004306D01*
X0010869Y-0004972D02*
Y-0004639D01*
X0011092Y-0004972D02*
Y-0004639D01*
X0011036Y-0004528D01*
X0010925D01*
X0010869Y-0004639D01*
X0010814Y-0004528D01*
X0010703D01*
X0010647Y-0004639D01*
Y-0004972D01*
X0010169D02*
Y-0004639D01*
X0010392Y-0004972D02*
Y-0004639D01*
X0010336Y-0004528D01*
X0010225D01*
X0010169Y-0004639D01*
X0010114Y-0004528D01*
X0010003D01*
X0009947Y-0004639D01*
Y-0004972D01*
X0008464D02*
X0008353Y-0004861D01*
X0008297Y-0004750D01*
Y-0004528D01*
X0008353Y-0004417D01*
X0008464Y-0004306D01*
X0008575D01*
X0008686Y-0004417D01*
X0008742Y-0004528D01*
Y-0004750D01*
X0008686Y-0004861D01*
X0008575Y-0004972D01*
X0008464D01*
X0007764D02*
X0007653Y-0004861D01*
X0007597Y-0004750D01*
Y-0004528D01*
X0007653Y-0004417D01*
X0007764Y-0004306D01*
X0007875D01*
X0007986Y-0004417D01*
X0008042Y-0004528D01*
Y-0004750D01*
X0007986Y-0004861D01*
X0007875Y-0004972D01*
X0007764D01*
X0006897Y-0004861D02*
X0006953Y-0004972D01*
X0007286D01*
X0007342Y-0004861D01*
Y-0004639D01*
X0007230Y-0004528D01*
X0006897D01*
Y-0004306D01*
X0007342D01*
X0006531Y-0004972D02*
X0006642D01*
Y-0004861D01*
X0006531D01*
Y-0004972D01*
X0005886D02*
X0005775Y-0004861D01*
X0005719Y-0004750D01*
Y-0004528D01*
X0005775Y-0004417D01*
X0005886Y-0004306D01*
X0005997D01*
X0006108Y-0004417D01*
X0006164Y-0004528D01*
Y-0004750D01*
X0006108Y-0004861D01*
X0005997Y-0004972D01*
X0005886D01*
X0033112Y-0002833D02*
X0032612D01*
X0033279Y-0003333D02*
X0032612D01*
Y-0002333D01*
X0033279D01*
X0031996Y-0003333D02*
Y-0002333D01*
X0032329D02*
X0031662D01*
X0030796Y-0003333D02*
X0030712Y-0003167D01*
Y-0002500D01*
X0030796Y-0002333D01*
X0031296D01*
X0031379Y-0002500D01*
Y-0003167D01*
X0031296Y-0003333D01*
X0030796D01*
X0030429Y-0002333D02*
Y-0003333D01*
X0030262Y-0003167D01*
X0029929Y-0002500D01*
X0029762Y-0002333D01*
Y-0003333D01*
X0023925D02*
Y-0002833D01*
X0024258Y-0002333D02*
X0024008Y-0002833D01*
X0023842D01*
X0023592Y-0002333D01*
X0022975Y-0003333D02*
Y-0002333D01*
X0023308D02*
X0022642D01*
X0022025Y-0003000D02*
X0022358Y-0003333D01*
X0021692Y-0003167D02*
X0021775Y-0003333D01*
X0022108D01*
X0022192Y-0003167D01*
X0022358Y-0003000D01*
Y-0002500D01*
X0022275Y-0002333D01*
X0021775D01*
X0021692Y-0002500D01*
Y-0003167D01*
X0017408Y-0003333D02*
X0016825D01*
Y-0002333D01*
X0015958Y-0003333D02*
X0015875Y-0003167D01*
Y-0002500D01*
X0015958Y-0002333D01*
X0016458D01*
X0016542Y-0002500D01*
Y-0003167D01*
X0016458Y-0003333D01*
X0015958D01*
X0015258D02*
Y-0002333D01*
X0015592D02*
X0014925D01*
X0009587Y-0003333D02*
Y-0002333D01*
X0009421Y-0002500D01*
X0009254Y-0002833D01*
X0009087Y-0002500D01*
X0008921Y-0002333D01*
Y-0003333D01*
X0008637Y-0003000D02*
X0007971D01*
X0008637Y-0003333D02*
Y-0002833D01*
X0008387Y-0002333D01*
X0008221D01*
X0007971Y-0002833D01*
Y-0003333D01*
X0007687D02*
X0007354D01*
X0007521D02*
Y-0002333D01*
X0007687D02*
X0007354D01*
X0006321Y-0003333D02*
Y-0002333D01*
X0006237Y-0003333D02*
X0006737D01*
X0006904Y-0003000D01*
Y-0002667D01*
X0006737Y-0002333D01*
X0006237D01*
X0003150Y-0003333D02*
Y-0002333D01*
X0002983Y-0002500D01*
X0002817Y-0002833D01*
X0002650Y-0002500D01*
X0002483Y-0002333D01*
Y-0003333D01*
X0001867D02*
Y-0002833D01*
X0002200Y-0002333D02*
X0001950Y-0002833D01*
X0001783D01*
X0001533Y-0002333D01*
X0001250Y-0002500D02*
X0001167Y-0002333D01*
X0000667D01*
X0000583Y-0002500D01*
Y-0002667D01*
X0000667Y-0002833D01*
X0001167D01*
X0001250Y-0003000D01*
Y-0003167D01*
X0001167Y-0003333D01*
X0000667D01*
X0000583Y-0003167D01*
X0023437Y-0001333D02*
Y-0000333D01*
X0023771D02*
X0023104D01*
X0022571Y-0000833D02*
X0022821Y-0001333D01*
X0022154Y-0000833D02*
X0022654D01*
X0022821Y-0000667D01*
Y-0000500D01*
X0022654Y-0000333D01*
X0022154D01*
Y-0001333D01*
X0021871Y-0001000D02*
X0021204D01*
X0021871Y-0001333D02*
Y-0000833D01*
X0021621Y-0000333D01*
X0021454D01*
X0021204Y-0000833D01*
Y-0001333D01*
X0020921Y-0000833D02*
X0020254D01*
X0020921Y-0001333D02*
Y-0000333D01*
X0020254Y-0001333D02*
Y-0000333D01*
X0019971Y-0001167D02*
X0019887Y-0001333D01*
X0019387D01*
X0019304Y-0001167D01*
Y-0000500D01*
X0019387Y-0000333D01*
X0019887D01*
X0019971Y-0000500D01*
X0017696Y-0001333D02*
X0017112D01*
Y-0000333D01*
X0016829Y-0001333D02*
X0016246D01*
Y-0000333D01*
X0015962Y-0001333D02*
X0015629D01*
X0015796D02*
Y-0000333D01*
X0015962D02*
X0015629D01*
X0014929Y-0000833D02*
X0015179Y-0001333D01*
X0014512Y-0000833D02*
X0015012D01*
X0015179Y-0000667D01*
Y-0000500D01*
X0015012Y-0000333D01*
X0014512D01*
Y-0001333D01*
X0013646D02*
Y-0000333D01*
X0013562Y-0001333D02*
X0014062D01*
X0014229Y-0001000D01*
Y-0000667D01*
X0014062Y-0000333D01*
X0013562D01*
X0002075Y-0004500D02*
X0001575Y-0005000D01*
X0002075D02*
X0001575Y-0004500D01*
X0037300Y-0007550D02*
X-0000050D01*
X0037250Y-0007500D02*
X0000000D01*
X0037250Y-0005500D02*
X0000000D01*
X0037250Y-0004000D02*
X0000000D01*
X0037250Y-0003950D02*
X0000000D01*
X0037250Y-0002000D02*
X0000000D01*
X0037250Y-0001950D02*
X0000000D01*
X0037250Y0000000D02*
X0000000D01*
X0037300Y0000050D02*
X-0000050D01*
X0037300Y-0007500D02*
Y0000000D01*
X0037250Y-0007500D02*
Y0000000D01*
X0025708Y-0007500D02*
Y-0002000D01*
X0020158Y-0007500D02*
Y-0002000D01*
X0012092Y-0005500D02*
Y-0002000D01*
X0003700Y-0005500D02*
Y-0002000D01*
X0003650Y-0005500D02*
Y-0002000D01*
X-0000050Y-0007500D02*
Y0000000D01*
X0000000Y-0007500D02*
Y0000000D01*
X-0001534Y0025722D02*
X-0002034Y0025222D01*
X-0001534D02*
X-0002034Y0025722D01*
X-0001034D02*
X-0001534Y0025222D01*
X-0001034D02*
X-0001534Y0025722D01*
X-0000534D02*
X-0001034Y0025222D01*
X-0000534D02*
X-0001034Y0025722D01*
X-0000034D02*
X-0000534Y0025222D01*
X-0000034D02*
X-0000534Y0025722D01*
X0000466D02*
X-0000034Y0025222D01*
X0000466D02*
X-0000034Y0025722D01*
X0000966D02*
X0000466Y0025222D01*
X0000966D02*
X0000466Y0025722D01*
X0001466D02*
X0000966Y0025222D01*
X0001466D02*
X0000966Y0025722D01*
X0001966D02*
X0001466Y0025222D01*
X0001966D02*
X0001466Y0025722D01*
X0002466D02*
X0001966Y0025222D01*
X0002466D02*
X0001966Y0025722D01*
X0002966D02*
X0002466Y0025222D01*
X0002966D02*
X0002466Y0025722D01*
X0003466D02*
X0002966Y0025222D01*
X0003466D02*
X0002966Y0025722D01*
X0003966D02*
X0003466Y0025222D01*
X0003966D02*
X0003466Y0025722D01*
X0004466D02*
X0003966Y0025222D01*
X0004466D02*
X0003966Y0025722D01*
X0004966D02*
X0004466Y0025222D01*
X0004966D02*
X0004466Y0025722D01*
X0005466D02*
X0004966Y0025222D01*
X0005466D02*
X0004966Y0025722D01*
X0005966D02*
X0005466Y0025222D01*
X0005966D02*
X0005466Y0025722D01*
X0006466D02*
X0005966Y0025222D01*
X0006466D02*
X0005966Y0025722D01*
X0006966D02*
X0006466Y0025222D01*
X0006966D02*
X0006466Y0025722D01*
X0007466D02*
X0006966Y0025222D01*
X0007466D02*
X0006966Y0025722D01*
X0007966D02*
X0007466Y0025222D01*
X0007966D02*
X0007466Y0025722D01*
X-0001534Y0023360D02*
X-0002034Y0022860D01*
X-0001534D02*
X-0002034Y0023360D01*
X-0001034D02*
X-0001534Y0022860D01*
X-0001034D02*
X-0001534Y0023360D01*
X-0000534D02*
X-0001034Y0022860D01*
X-0000534D02*
X-0001034Y0023360D01*
X-0000034D02*
X-0000534Y0022860D01*
X-0000034D02*
X-0000534Y0023360D01*
X0000466D02*
X-0000034Y0022860D01*
X0000466D02*
X-0000034Y0023360D01*
X0000966D02*
X0000466Y0022860D01*
X0000966D02*
X0000466Y0023360D01*
X0001466D02*
X0000966Y0022860D01*
X0001466D02*
X0000966Y0023360D01*
X0001966D02*
X0001466Y0022860D01*
X0001966D02*
X0001466Y0023360D01*
X0002466D02*
X0001966Y0022860D01*
X0002466D02*
X0001966Y0023360D01*
X0002966D02*
X0002466Y0022860D01*
X0002966D02*
X0002466Y0023360D01*
X0003466D02*
X0002966Y0022860D01*
X0003466D02*
X0002966Y0023360D01*
X0003966D02*
X0003466Y0022860D01*
X0003966D02*
X0003466Y0023360D01*
X0004466D02*
X0003966Y0022860D01*
X0004466D02*
X0003966Y0023360D01*
X0004966D02*
X0004466Y0022860D01*
X0004966D02*
X0004466Y0023360D01*
X0005466D02*
X0004966Y0022860D01*
X0005466D02*
X0004966Y0023360D01*
X0005966D02*
X0005466Y0022860D01*
X0005966D02*
X0005466Y0023360D01*
X0006466D02*
X0005966Y0022860D01*
X0006466D02*
X0005966Y0023360D01*
X0006966D02*
X0006466Y0022860D01*
X0006966D02*
X0006466Y0023360D01*
X0007466D02*
X0006966Y0022860D01*
X0007466D02*
X0006966Y0023360D01*
X0007966D02*
X0007466Y0022860D01*
X0007966D02*
X0007466Y0023360D01*
X-0001534Y0020998D02*
X-0002034Y0020498D01*
X-0001534D02*
X-0002034Y0020998D01*
X-0001034D02*
X-0001534Y0020498D01*
X-0001034D02*
X-0001534Y0020998D01*
X-0000534D02*
X-0001034Y0020498D01*
X-0000534D02*
X-0001034Y0020998D01*
X-0000034D02*
X-0000534Y0020498D01*
X-0000034D02*
X-0000534Y0020998D01*
X0000466D02*
X-0000034Y0020498D01*
X0000466D02*
X-0000034Y0020998D01*
X0000966D02*
X0000466Y0020498D01*
X0000966D02*
X0000466Y0020998D01*
X0001466D02*
X0000966Y0020498D01*
X0001466D02*
X0000966Y0020998D01*
X0001966D02*
X0001466Y0020498D01*
X0001966D02*
X0001466Y0020998D01*
X0002466D02*
X0001966Y0020498D01*
X0002466D02*
X0001966Y0020998D01*
X0002966D02*
X0002466Y0020498D01*
X0002966D02*
X0002466Y0020998D01*
X0003466D02*
X0002966Y0020498D01*
X0003466D02*
X0002966Y0020998D01*
X0003966D02*
X0003466Y0020498D01*
X0003966D02*
X0003466Y0020998D01*
X0004466D02*
X0003966Y0020498D01*
X0004466D02*
X0003966Y0020998D01*
X0004966D02*
X0004466Y0020498D01*
X0004966D02*
X0004466Y0020998D01*
X0005466D02*
X0004966Y0020498D01*
X0005466D02*
X0004966Y0020998D01*
X0005966D02*
X0005466Y0020498D01*
X0005966D02*
X0005466Y0020998D01*
X0006466D02*
X0005966Y0020498D01*
X0006466D02*
X0005966Y0020998D01*
X0006966D02*
X0006466Y0020498D01*
X0006966D02*
X0006466Y0020998D01*
X0007466D02*
X0006966Y0020498D01*
X0007466D02*
X0006966Y0020998D01*
X0007966D02*
X0007466Y0020498D01*
X0007966D02*
X0007466Y0020998D01*
M02*
