*
G04 Mass Parameters ***
*
G04 Image ***
*
%INC:\USERS\MAK\DESKTOP\60WAY ELECTRODE CONNECTOR\ELECTRODE_CONNECTOR-SMALLSQUARE.SST*%
%ICAS*%
%MOIN*%
%IPPOS*%
%ASAXBY*%
G74*%FSLAN2X34Y34*%
*
G04 Aperture Definitions ***
*
%ADD10R,0.0354X0.1102*%
%ADD11C,0.0050*%
*
G04 Plot Data ***
*
G54D11*
G01X0022002Y0011073D02*
Y0011323D01*
X0022127D01*
X0022147Y0011281D01*
Y0011198D01*
X0022127Y0011156D01*
X0022002D01*
X0021860Y0011323D02*
Y0011156D01*
X0021881D02*
X0021735D01*
X0021714Y0011198D01*
Y0011323D01*
X0021448Y0011156D02*
X0021427Y0011198D01*
Y0011281D01*
X0021448Y0011323D01*
X0021573D01*
X0021594Y0011281D01*
Y0011198D01*
X0021573Y0011156D01*
X0021448D01*
X0021306Y0011323D02*
X0021223D01*
X0021202Y0011281D01*
X0021160D01*
Y0011323D02*
Y0011156D01*
X0020936Y0011073D02*
X0021019D01*
X0021040Y0011114D01*
Y0011323D01*
X0020915D01*
X0020894Y0011281D01*
Y0011198D01*
X0020915Y0011156D01*
X0021040D01*
X0020309D02*
Y0011406D01*
X0020392D02*
X0020226D01*
X0020105Y0011156D02*
X0020022D01*
X0020063D02*
Y0011406D01*
X0020105D02*
X0020022D01*
X0019818Y0011281D02*
X0019693D01*
X0019859Y0011156D02*
X0019693D01*
Y0011406D01*
X0019859D01*
X0027709Y0011673D02*
X0027792D01*
X0027813Y0011714D01*
Y0011923D01*
X0027688D01*
X0027667Y0011881D01*
Y0011798D01*
X0027688Y0011756D01*
X0027813D01*
X0027546D02*
Y0011881D01*
X0027525Y0011923D01*
X0027400D01*
Y0011756D01*
X0027258D02*
X0027133D01*
X0027112Y0011798D01*
Y0011881D01*
X0027133Y0011923D01*
X0027258D01*
X0027278Y0011881D01*
Y0011839D01*
X0027112D01*
X0026845Y0011756D02*
X0026824Y0011798D01*
Y0011881D01*
X0026845Y0011923D01*
X0026970D01*
X0026990Y0011881D01*
Y0011798D01*
X0026970Y0011756D01*
X0026845D01*
X0026661Y0012006D02*
X0026702Y0011756D02*
X0026619D01*
X0026661D02*
Y0011923D01*
X0026619D01*
X0026331Y0011756D02*
Y0012006D01*
X0026310Y0011756D02*
X0026435D01*
X0026477Y0011798D01*
Y0011839D01*
X0026456Y0011881D01*
X0026331D02*
X0026456D01*
X0026477Y0011923D01*
Y0011964D01*
X0026435Y0012006D01*
X0026310D01*
X0025807Y0011881D02*
X0025766Y0011798D01*
X0025724Y0011756D01*
X0025682D01*
X0025641Y0011798D01*
Y0011839D01*
X0025682Y0011881D01*
X0025724Y0011964D01*
X0025703Y0012006D01*
X0025661D01*
X0025641Y0011964D01*
X0025682Y0011881D01*
X0025807Y0011756D01*
X0025117Y0011923D02*
X0024992D01*
X0024971Y0011881D01*
X0024992Y0011839D01*
X0025117D01*
X0025138Y0011798D01*
X0025117Y0011756D01*
X0024992D01*
X0024850Y0011923D02*
X0024766Y0011756D01*
X0024725Y0011673D02*
X0024766Y0011756D01*
X0024683Y0011923D01*
X0024562Y0011756D02*
Y0011881D01*
X0024541Y0011923D01*
X0024416D01*
Y0011756D02*
Y0012006D01*
X0024149Y0011673D02*
Y0011923D01*
X0024274D01*
X0024294Y0011881D01*
Y0011798D01*
X0024274Y0011756D01*
X0024149D01*
X0024027Y0012006D02*
Y0011756D01*
X0023902D01*
X0023881Y0011798D01*
Y0011881D01*
X0023902Y0011923D01*
X0024027D01*
X0023739Y0011756D02*
X0023614D01*
X0023593Y0011798D01*
Y0011881D01*
X0023614Y0011923D01*
X0023739D01*
X0023760Y0011881D01*
Y0011839D01*
X0023593D01*
X0023472Y0011756D02*
Y0012006D01*
X0023430Y0011964D01*
X0023389Y0011881D01*
X0023347Y0011964D01*
X0023305Y0012006D01*
Y0011756D01*
X0022802Y0011881D02*
X0022677D01*
X0022740Y0011756D02*
Y0011964D01*
X0022761Y0012006D01*
X0022802D01*
X0022410Y0011756D02*
X0022389Y0011798D01*
Y0011881D01*
X0022410Y0011923D01*
X0022535D01*
X0022556Y0011881D01*
Y0011798D01*
X0022535Y0011756D01*
X0022410D01*
X0021866Y0011923D02*
X0021741D01*
X0021886Y0011756D02*
X0021803D01*
X0021782Y0011798D01*
Y0012006D01*
X0021473Y0011673D02*
Y0011923D01*
X0021598D01*
X0021619Y0011881D01*
Y0011798D01*
X0021598Y0011756D01*
X0021473D01*
X0021331D02*
X0021206D01*
X0021185Y0011798D01*
Y0011881D01*
X0021206Y0011923D01*
X0021331D01*
X0021352Y0011881D01*
Y0011839D01*
X0021185D01*
X0020918Y0011756D02*
Y0012006D01*
X0020897Y0011756D02*
X0021022D01*
X0021064Y0011839D01*
Y0011923D01*
X0021022Y0012006D01*
X0020897D01*
X0020394Y0011756D02*
X0020249D01*
Y0012006D01*
X0020127Y0011798D02*
X0020106Y0011756D01*
X0019981D01*
X0019961Y0011798D01*
Y0011964D01*
X0019981Y0012006D01*
X0020106D01*
X0020127Y0011964D01*
X0019839Y0012006D02*
Y0011798D01*
X0019818Y0011756D01*
X0019693D01*
X0019673Y0011798D01*
Y0012006D01*
X0027653Y0010693D02*
X0027716Y0010568D01*
X0027549Y0010693D02*
X0027674D01*
X0027716Y0010735D01*
Y0010776D01*
X0027674Y0010818D01*
X0027549D01*
Y0010568D01*
X0027387Y0010693D02*
X0027262D01*
X0027428Y0010568D02*
X0027262D01*
Y0010818D01*
X0027428D01*
X0027058Y0010568D02*
Y0010818D01*
X0027141D02*
X0026974D01*
X0026687Y0010693D02*
X0026812D01*
X0026854Y0010735D01*
Y0010776D01*
X0026812Y0010818D01*
X0026687D01*
Y0010568D01*
X0026566Y0010651D02*
X0026400D01*
X0026566Y0010568D02*
Y0010693D01*
X0026504Y0010818D01*
X0026462D01*
X0026400Y0010693D01*
Y0010568D01*
X0026133D02*
Y0010818D01*
X0026112Y0010568D02*
X0026237D01*
X0026279Y0010651D01*
Y0010735D01*
X0026237Y0010818D01*
X0026112D01*
X0025992Y0010651D02*
X0025825D01*
X0025992Y0010568D02*
Y0010693D01*
X0025929Y0010818D01*
X0025888D01*
X0025825Y0010693D01*
Y0010568D01*
X0025178D02*
Y0010818D01*
X0025157Y0010568D02*
X0025282D01*
X0025323Y0010610D01*
Y0010651D01*
X0025303Y0010693D01*
X0025178D02*
X0025303D01*
X0025323Y0010735D01*
Y0010776D01*
X0025282Y0010818D01*
X0025157D01*
X0025036D02*
Y0010610D01*
X0025015Y0010568D01*
X0024890D01*
X0024869Y0010610D01*
Y0010818D01*
X0024749Y0010776D02*
X0024728Y0010818D01*
X0024603D01*
X0024582Y0010776D01*
Y0010735D01*
X0024603Y0010693D01*
X0024728D01*
X0024749Y0010651D01*
Y0010610D01*
X0024728Y0010568D01*
X0024603D01*
X0024582Y0010610D01*
X0024316Y0010568D02*
Y0010818D01*
X0024295Y0010568D02*
X0024420D01*
X0024461Y0010651D01*
Y0010735D01*
X0024420Y0010818D01*
X0024295D01*
X0023647Y0010568D02*
X0023626Y0010610D01*
Y0010776D01*
X0023647Y0010818D01*
X0023772D01*
X0023793Y0010776D01*
Y0010610D01*
X0023772Y0010568D01*
X0023647D01*
X0023422D02*
Y0010818D01*
X0023506D02*
X0023339D01*
X0022796Y0010693D02*
X0022671D01*
Y0010568D02*
Y0010818D01*
X0022837D01*
X0022550Y0010568D02*
X0022467D01*
X0022508D02*
Y0010818D01*
X0022550D02*
X0022467D01*
X0022304Y0010568D02*
X0022179D01*
X0022304Y0010818D01*
X0022179D01*
X0021657Y0010776D02*
X0021636Y0010818D01*
X0021511D01*
X0021490Y0010776D01*
Y0010735D01*
X0021511Y0010693D01*
X0021636D01*
X0021657Y0010651D01*
Y0010610D01*
X0021636Y0010568D01*
X0021511D01*
X0021490Y0010610D01*
X0021286Y0010568D02*
Y0010693D01*
X0021370Y0010818D02*
X0021307Y0010693D01*
X0021265D01*
X0021203Y0010818D01*
X0021082Y0010651D02*
X0020916D01*
X0021082Y0010568D02*
Y0010693D01*
X0021020Y0010818D01*
X0020978D01*
X0020916Y0010693D01*
Y0010568D01*
X0020795Y0010818D02*
Y0010610D01*
X0020774Y0010568D01*
X0020712Y0010693D01*
Y0010735D02*
Y0010693D01*
X0020649Y0010568D01*
X0020628Y0010610D01*
Y0010818D01*
X0020022Y0010568D02*
X0019981Y0010610D01*
X0019960Y0010651D01*
Y0010735D01*
X0019981Y0010776D01*
X0020022Y0010818D01*
X0020064D01*
X0020106Y0010776D01*
X0020127Y0010735D01*
Y0010651D01*
X0020106Y0010610D01*
X0020064Y0010568D01*
X0020022D01*
X0019673Y0010610D02*
X0019714Y0010568D01*
X0019798D01*
X0019839Y0010610D01*
Y0010651D01*
X0019756Y0010735D01*
X0019839Y0010818D01*
X0019673D01*
M02*
