G04 EAGLE Gerber RS-274X export*
G75*
%MOMM*%
%FSLAX34Y34*%
%LPD*%
%INBottom Copper*%
%IPPOS*%
%AMOC8*
5,1,8,0,0,1.08239X$1,22.5*%
G01*
%ADD10P,1.759533X8X22.500000*%
%ADD11C,5.080000*%
%ADD12C,2.032000*%
%ADD13C,0.177800*%
%ADD14C,0.889000*%


D10*
X248412Y-487300D03*
X220726Y-487300D03*
X193294Y-487300D03*
X165608Y-487300D03*
X137922Y-487300D03*
X110490Y-487300D03*
X82804Y-487300D03*
X55118Y-487300D03*
X27686Y-487300D03*
X0Y-487300D03*
X-27686Y-487300D03*
X-55118Y-487300D03*
X-82804Y-487300D03*
X234696Y-512700D03*
X207010Y-512700D03*
X179324Y-512700D03*
X151892Y-512700D03*
X124206Y-512700D03*
X96520Y-512700D03*
X69088Y-512700D03*
X41402Y-512700D03*
X13716Y-512700D03*
X-13716Y-512700D03*
X-41402Y-512700D03*
X-69088Y-512700D03*
X-110490Y-487300D03*
X-138176Y-487300D03*
X-165608Y-487300D03*
X-193294Y-487300D03*
X-96520Y-512700D03*
X-124206Y-512700D03*
X-151892Y-512700D03*
X-179578Y-512700D03*
X-220980Y-487300D03*
X-248412Y-487300D03*
X-207010Y-512700D03*
X-234696Y-512700D03*
D11*
X-317500Y-500000D03*
X317500Y-500000D03*
D10*
X-248412Y287300D03*
X-220726Y287300D03*
X-193294Y287300D03*
X-165608Y287300D03*
X-137922Y287300D03*
X-110490Y287300D03*
X-82804Y287300D03*
X-55118Y287300D03*
X-27686Y287300D03*
X0Y287300D03*
X27686Y287300D03*
X55118Y287300D03*
X82804Y287300D03*
X-234696Y312700D03*
X-207010Y312700D03*
X-179324Y312700D03*
X-151892Y312700D03*
X-124206Y312700D03*
X-96520Y312700D03*
X-69088Y312700D03*
X-41402Y312700D03*
X-13716Y312700D03*
X13716Y312700D03*
X41402Y312700D03*
X69088Y312700D03*
X110490Y287300D03*
X138176Y287300D03*
X165608Y287300D03*
X193294Y287300D03*
X96774Y312700D03*
X124206Y312700D03*
X151892Y312700D03*
X179578Y312700D03*
X220980Y287300D03*
X248412Y287300D03*
X207010Y312700D03*
X234696Y312700D03*
D11*
X-317500Y300000D03*
X317500Y300000D03*
D12*
X-400000Y200000D03*
X-300000Y100000D03*
X-200000Y200000D03*
X-100000Y100000D03*
X0Y200000D03*
X100000Y100000D03*
X200000Y200000D03*
X300000Y100000D03*
X400000Y200000D03*
X-400000Y0D03*
X-300000Y-100000D03*
X-200000Y0D03*
X-100000Y-100000D03*
X0Y0D03*
X100000Y-100000D03*
X200000Y0D03*
X300000Y-100000D03*
X400000Y0D03*
X-400000Y-200000D03*
X-300000Y-300000D03*
X-200000Y-200000D03*
X-100000Y-300000D03*
X0Y-200000D03*
X100000Y-300000D03*
X200000Y-200000D03*
X300000Y-300000D03*
X400000Y-200000D03*
X-400000Y-400000D03*
X-200000Y-400000D03*
X0Y-400000D03*
X200000Y-400000D03*
X400000Y-400000D03*
D13*
X-137160Y-361950D02*
X-137160Y-485775D01*
X-137160Y-361950D02*
X-13335Y-238125D01*
X-13335Y32385D01*
X-137160Y156210D01*
X-137160Y285750D01*
X-137160Y-485775D02*
X-138176Y-487300D01*
X-137160Y285750D02*
X-137922Y287300D01*
X-81915Y-335280D02*
X-81915Y-485775D01*
X-81915Y-335280D02*
X114300Y-139065D01*
X114300Y104775D01*
X108585Y110490D02*
X97155Y121920D01*
X108585Y110490D02*
X114300Y104775D01*
X97155Y121920D02*
X-3810Y121920D01*
X-81915Y200025D01*
X-81915Y285750D01*
X-81915Y-485775D02*
X-82804Y-487300D01*
X-81915Y285750D02*
X-82804Y287300D01*
X110490Y110490D02*
X118110Y118110D01*
X110490Y110490D02*
X108585Y110490D01*
D14*
X118110Y118110D03*
D13*
X-28575Y272415D02*
X-28575Y285750D01*
X-28575Y272415D02*
X-28575Y163830D01*
X-28575Y285750D02*
X-27686Y287300D01*
X363855Y200025D02*
X398145Y200025D01*
X363855Y200025D02*
X232410Y331470D01*
X43815Y331470D01*
X28575Y316230D01*
X28575Y308610D01*
X43815Y293370D01*
X43815Y281940D01*
X34290Y272415D01*
X-28575Y272415D01*
X398145Y200025D02*
X400000Y200000D01*
D14*
X-28575Y163830D03*
D13*
X26670Y-487680D02*
X26670Y-516255D01*
X15240Y-527685D01*
X-161925Y-527685D01*
X-165735Y-531495D01*
X-177165Y-531495D01*
X-194310Y-514350D01*
X-194310Y-502920D01*
X-209550Y-487680D01*
X-209550Y-409575D01*
X-285750Y-333375D01*
X-285750Y-114300D01*
X-299085Y-100965D01*
X26670Y-487680D02*
X27686Y-487300D01*
X-299085Y-100965D02*
X-300000Y-100000D01*
X22860Y287655D02*
X26670Y287655D01*
X22860Y287655D02*
X-1905Y312420D01*
X-1905Y318135D01*
X-30480Y346710D01*
X-190500Y346710D01*
X-222885Y314325D01*
X-222885Y300990D01*
X-236220Y287655D01*
X-236220Y-36195D01*
X-299085Y-99060D01*
X26670Y287655D02*
X27686Y287300D01*
X-299085Y-99060D02*
X-300000Y-100000D01*
X-398145Y-200025D02*
X-398145Y-320040D01*
X-232410Y-485775D01*
X-232410Y-499110D01*
X-219075Y-512445D01*
X-219075Y-518160D01*
X-194310Y-542925D01*
X194310Y-542925D01*
X222885Y-514350D01*
X222885Y-508635D01*
X243840Y-487680D01*
X247650Y-487680D01*
X-398145Y-200025D02*
X-400000Y-200000D01*
X247650Y-487680D02*
X248412Y-487300D01*
X-163830Y-485775D02*
X-163830Y-382905D01*
X-17145Y-236220D01*
X-17145Y17145D01*
X-100000Y100000D01*
X-163830Y-485775D02*
X-165608Y-487300D01*
X-110490Y-487300D02*
X-110490Y-358140D01*
X85725Y-161925D01*
X85725Y85725D01*
X100000Y100000D01*
X-110490Y222885D02*
X-110490Y287300D01*
X-110490Y222885D02*
X26670Y85725D01*
X85725Y85725D01*
X-91440Y-127635D02*
X-198120Y-20955D01*
X-198120Y0D01*
X-200000Y0D01*
D14*
X-91440Y-127635D03*
D13*
X220980Y-485775D02*
X232410Y-485775D01*
X304800Y-413385D01*
X405765Y-413385D01*
X421005Y-398145D01*
X421005Y-20955D01*
X400050Y0D01*
X220980Y-485775D02*
X220726Y-487300D01*
X400000Y0D02*
X400050Y0D01*
X-236220Y312420D02*
X-240030Y312420D01*
X-314325Y238125D01*
X-314325Y-285750D01*
X-300990Y-299085D01*
X-236220Y312420D02*
X-234696Y312700D01*
X-300990Y-299085D02*
X-300000Y-300000D01*
X-179070Y-1905D02*
X-179070Y312420D01*
X-179070Y-1905D02*
X-83820Y-97155D01*
X-83820Y-283845D01*
X-99060Y-299085D01*
X-179070Y312420D02*
X-179324Y312700D01*
X-99060Y-299085D02*
X-100000Y-300000D01*
X55245Y-344805D02*
X55245Y-363855D01*
X55245Y-344805D02*
X99060Y-300990D01*
X100000Y-300000D01*
X-125730Y312420D02*
X-129540Y312420D01*
X-150495Y291465D01*
X-150495Y-24765D01*
X-24765Y-150495D01*
X-124206Y312700D02*
X-125730Y312420D01*
D14*
X55245Y-363855D03*
X-24765Y-150495D03*
D13*
X-47625Y-535305D02*
X36195Y-535305D01*
X57150Y-514350D01*
X57150Y-501015D01*
X70485Y-487680D01*
X70485Y-483870D01*
X253365Y-300990D01*
X299085Y-300990D01*
X300000Y-300000D01*
X85725Y300990D02*
X85725Y323850D01*
X85725Y300990D02*
X99060Y287655D01*
X99060Y165735D01*
X253365Y11430D01*
X253365Y-300990D01*
D14*
X-47625Y-535305D03*
X85725Y323850D03*
D13*
X-15240Y-514350D02*
X-26670Y-514350D01*
X-36195Y-523875D01*
X-169545Y-523875D01*
X-15240Y-514350D02*
X-13716Y-512700D01*
X-13335Y312420D02*
X-7620Y312420D01*
X15240Y289560D01*
X15240Y283845D01*
X22860Y276225D01*
X32385Y276225D01*
X40005Y283845D01*
X40005Y291465D01*
X24765Y306705D01*
X24765Y318135D01*
X-7620Y350520D01*
X-213360Y350520D01*
X-413385Y150495D01*
X-413385Y-384810D01*
X-400050Y-398145D01*
X-13335Y312420D02*
X-13716Y312700D01*
X-400050Y-398145D02*
X-400000Y-400000D01*
D14*
X-169545Y-523875D03*
D13*
X40005Y-512445D02*
X40005Y-440055D01*
X0Y-400050D01*
X40005Y-512445D02*
X41402Y-512700D01*
X0Y-400050D02*
X0Y-400000D01*
X41910Y312420D02*
X45720Y312420D01*
X70485Y287655D01*
X70485Y188595D01*
X158115Y100965D01*
X158115Y-222885D01*
X0Y-381000D01*
X0Y-400000D01*
X41910Y312420D02*
X41402Y312700D01*
X97155Y-514350D02*
X108585Y-514350D01*
X118110Y-523875D01*
X158115Y-523875D01*
X167640Y-514350D01*
X167640Y-508635D01*
X177165Y-499110D01*
X198120Y-499110D01*
X209550Y-487680D01*
X209550Y-481965D01*
X291465Y-400050D01*
X398145Y-400050D01*
X97155Y-514350D02*
X96520Y-512700D01*
X398145Y-400050D02*
X400000Y-400000D01*
X108585Y314325D02*
X97155Y314325D01*
X108585Y314325D02*
X118110Y323850D01*
X158115Y323850D01*
X167640Y314325D01*
X167640Y300990D01*
X180975Y287655D01*
X180975Y129540D01*
X417195Y-106680D01*
X417195Y-381000D01*
X400050Y-398145D01*
X96774Y312700D02*
X97155Y314325D01*
X400050Y-398145D02*
X400000Y-400000D01*
X152400Y-472440D02*
X152400Y-512445D01*
X152400Y-472440D02*
X413385Y-211455D01*
X413385Y-108585D01*
X152400Y152400D01*
X152400Y312420D01*
X152400Y-512445D02*
X151892Y-512700D01*
X152400Y312420D02*
X151892Y312700D01*
X207645Y283845D02*
X325755Y165735D01*
X207645Y283845D02*
X207645Y312420D01*
X207010Y312700D01*
D14*
X325755Y165735D03*
D13*
X-40005Y-270510D02*
X-40005Y-276225D01*
X-40005Y-270510D02*
X0Y-230505D01*
X0Y-200000D01*
X-139065Y314325D02*
X-150495Y314325D01*
X-139065Y314325D02*
X-129540Y323850D01*
X-118110Y323850D01*
X-112395Y318135D01*
X-112395Y302895D01*
X-121920Y293370D01*
X-121920Y146685D01*
X13335Y11430D01*
X13335Y-184785D01*
X0Y-198120D01*
X-151892Y312700D02*
X-150495Y314325D01*
X0Y-198120D02*
X0Y-200000D01*
D14*
X-40005Y-276225D03*
D13*
X-91440Y312420D02*
X-95250Y312420D01*
X-91440Y312420D02*
X-66675Y287655D01*
X-66675Y190500D01*
X-1905Y125730D01*
X121920Y125730D01*
X150495Y97155D01*
X-95250Y312420D02*
X-96520Y312700D01*
D14*
X150495Y97155D03*
D13*
X83820Y-514350D02*
X66675Y-531495D01*
X83820Y-514350D02*
X83820Y-508635D01*
X93345Y-499110D01*
X116205Y-499110D01*
X125730Y-489585D01*
X125730Y-481965D01*
X194310Y-413385D01*
X205740Y-413385D01*
X398145Y-220980D01*
X398145Y-200025D01*
X400000Y-200000D01*
X-40005Y314325D02*
X-40005Y333375D01*
X-34290Y339090D01*
X-40005Y314325D02*
X-41402Y312700D01*
D14*
X66675Y-531495D03*
X-34290Y339090D03*
D13*
X1905Y-512445D02*
X13335Y-512445D01*
X1905Y-512445D02*
X-11430Y-499110D01*
X-169545Y-499110D01*
X-180975Y-487680D01*
X-180975Y-417195D01*
X-198120Y-400050D01*
X13335Y-512445D02*
X13716Y-512700D01*
X-198120Y-400050D02*
X-200000Y-400000D01*
X-55245Y304800D02*
X-55245Y316230D01*
X-66675Y327660D01*
X-180975Y327660D01*
X-194310Y314325D01*
X-194310Y302895D01*
X-209550Y287655D01*
X-209550Y209550D01*
X-213360Y205740D01*
X-213360Y-384810D01*
X-200025Y-398145D01*
X-200000Y-400000D01*
D14*
X-55245Y304800D03*
D13*
X70485Y-512445D02*
X74295Y-512445D01*
X99060Y-487680D01*
X99060Y-481965D01*
X180975Y-400050D01*
X198120Y-400050D01*
X70485Y-512445D02*
X69088Y-512700D01*
X198120Y-400050D02*
X200000Y-400000D01*
M02*
