G04 EAGLE Gerber RS-274X export*
G75*
%MOMM*%
%FSLAX34Y34*%
%LPD*%
%INTop Copper*%
%IPPOS*%
%AMOC8*
5,1,8,0,0,1.08239X$1,22.5*%
G01*
%ADD10P,1.759533X8X22.500000*%
%ADD11C,5.080000*%
%ADD12C,2.032000*%
%ADD13C,0.177800*%
%ADD14C,0.889000*%


D10*
X248412Y-487300D03*
X220726Y-487300D03*
X193294Y-487300D03*
X165608Y-487300D03*
X137922Y-487300D03*
X110490Y-487300D03*
X82804Y-487300D03*
X55118Y-487300D03*
X27686Y-487300D03*
X0Y-487300D03*
X-27686Y-487300D03*
X-55118Y-487300D03*
X-82804Y-487300D03*
X234696Y-512700D03*
X207010Y-512700D03*
X179324Y-512700D03*
X151892Y-512700D03*
X124206Y-512700D03*
X96520Y-512700D03*
X69088Y-512700D03*
X41402Y-512700D03*
X13716Y-512700D03*
X-13716Y-512700D03*
X-41402Y-512700D03*
X-69088Y-512700D03*
X-110490Y-487300D03*
X-138176Y-487300D03*
X-165608Y-487300D03*
X-193294Y-487300D03*
X-96520Y-512700D03*
X-124206Y-512700D03*
X-151892Y-512700D03*
X-179578Y-512700D03*
X-220980Y-487300D03*
X-248412Y-487300D03*
X-207010Y-512700D03*
X-234696Y-512700D03*
D11*
X-317500Y-500000D03*
X317500Y-500000D03*
D10*
X-248412Y287300D03*
X-220726Y287300D03*
X-193294Y287300D03*
X-165608Y287300D03*
X-137922Y287300D03*
X-110490Y287300D03*
X-82804Y287300D03*
X-55118Y287300D03*
X-27686Y287300D03*
X0Y287300D03*
X27686Y287300D03*
X55118Y287300D03*
X82804Y287300D03*
X-234696Y312700D03*
X-207010Y312700D03*
X-179324Y312700D03*
X-151892Y312700D03*
X-124206Y312700D03*
X-96520Y312700D03*
X-69088Y312700D03*
X-41402Y312700D03*
X-13716Y312700D03*
X13716Y312700D03*
X41402Y312700D03*
X69088Y312700D03*
X110490Y287300D03*
X138176Y287300D03*
X165608Y287300D03*
X193294Y287300D03*
X96774Y312700D03*
X124206Y312700D03*
X151892Y312700D03*
X179578Y312700D03*
X220980Y287300D03*
X248412Y287300D03*
X207010Y312700D03*
X234696Y312700D03*
D11*
X-317500Y300000D03*
X317500Y300000D03*
D12*
X-400000Y200000D03*
X-300000Y100000D03*
X-200000Y200000D03*
X-100000Y100000D03*
X0Y200000D03*
X100000Y100000D03*
X200000Y200000D03*
X300000Y100000D03*
X400000Y200000D03*
X-400000Y0D03*
X-300000Y-100000D03*
X-200000Y0D03*
X-100000Y-100000D03*
X0Y0D03*
X100000Y-100000D03*
X200000Y0D03*
X300000Y-100000D03*
X400000Y0D03*
X-400000Y-200000D03*
X-300000Y-300000D03*
X-200000Y-200000D03*
X-100000Y-300000D03*
X0Y-200000D03*
X100000Y-300000D03*
X200000Y-200000D03*
X300000Y-300000D03*
X400000Y-200000D03*
X-400000Y-400000D03*
X-200000Y-400000D03*
X0Y-400000D03*
X200000Y-400000D03*
X400000Y-400000D03*
D13*
X-249555Y-369570D02*
X-249555Y-485775D01*
X-249555Y-369570D02*
X-413385Y-205740D01*
X-413385Y184785D01*
X-400050Y198120D01*
X-249555Y-485775D02*
X-248412Y-487300D01*
X-400050Y198120D02*
X-400000Y200000D01*
X-291465Y285750D02*
X-249555Y285750D01*
X-291465Y285750D02*
X-377190Y200025D01*
X-398145Y200025D01*
X-249555Y285750D02*
X-248412Y287300D01*
X-398145Y200025D02*
X-400000Y200000D01*
X-194310Y-424815D02*
X-194310Y-485775D01*
X-194310Y-424815D02*
X-217170Y-401955D01*
X-217170Y180975D01*
X-200025Y198120D01*
X-194310Y-485775D02*
X-193294Y-487300D01*
X-200025Y198120D02*
X-200000Y200000D01*
X-194310Y203835D02*
X-194310Y285750D01*
X-194310Y203835D02*
X-198120Y200025D01*
X-194310Y285750D02*
X-193294Y287300D01*
X-198120Y200025D02*
X-200000Y200000D01*
X-51435Y200025D02*
X0Y200025D01*
X-51435Y200025D02*
X-137160Y285750D01*
X0Y200025D02*
X0Y200000D01*
X-137160Y285750D02*
X-137922Y287300D01*
X118110Y118110D02*
X200000Y200000D01*
D14*
X118110Y118110D03*
D13*
X-28575Y-274320D02*
X-28575Y-485775D01*
X-28575Y-274320D02*
X-114300Y-188595D01*
X-114300Y60960D01*
X-70485Y104775D01*
X-70485Y121920D01*
X-28575Y163830D01*
X-28575Y-485775D02*
X-27686Y-487300D01*
D14*
X-28575Y163830D03*
D13*
X81915Y-379095D02*
X81915Y-485775D01*
X81915Y-379095D02*
X-99060Y-198120D01*
X-99060Y-100965D01*
X81915Y-485775D02*
X82804Y-487300D01*
X-99060Y-100965D02*
X-100000Y-100000D01*
X81915Y253365D02*
X81915Y285750D01*
X81915Y253365D02*
X-66675Y104775D01*
X-66675Y-66675D01*
X-100000Y-100000D01*
X81915Y285750D02*
X82804Y287300D01*
X137160Y-137160D02*
X137160Y-485775D01*
X137160Y-137160D02*
X100000Y-100000D01*
X137160Y-485775D02*
X137922Y-487300D01*
X137160Y156210D02*
X137160Y285750D01*
X137160Y156210D02*
X85725Y104775D01*
X85725Y-85725D01*
X100000Y-100000D01*
X137160Y285750D02*
X138176Y287300D01*
X194310Y-424815D02*
X194310Y-485775D01*
X194310Y-424815D02*
X285750Y-333375D01*
X285750Y-114300D01*
X299085Y-100965D01*
X194310Y-485775D02*
X193294Y-487300D01*
X299085Y-100965D02*
X300000Y-100000D01*
X194310Y232410D02*
X194310Y285750D01*
X194310Y232410D02*
X285750Y140970D01*
X285750Y-85725D01*
X299085Y-99060D01*
X194310Y285750D02*
X193294Y287300D01*
X299085Y-99060D02*
X300000Y-100000D01*
X249555Y-381000D02*
X249555Y-485775D01*
X249555Y-381000D02*
X318135Y-312420D01*
X318135Y173355D01*
X209550Y281940D01*
X209550Y293370D01*
X215265Y299085D01*
X236220Y299085D01*
X247650Y287655D01*
X249555Y-485775D02*
X248412Y-487300D01*
X248412Y287300D02*
X247650Y287655D01*
X-220980Y20955D02*
X-220980Y-487300D01*
X-220980Y20955D02*
X-299085Y99060D01*
X-300000Y100000D01*
X-220980Y179070D02*
X-220980Y285750D01*
X-220980Y179070D02*
X-299085Y100965D01*
X-220980Y285750D02*
X-220726Y287300D01*
X-299085Y100965D02*
X-300000Y100000D01*
X-163830Y163830D02*
X-163830Y285750D01*
X-163830Y163830D02*
X-100000Y100000D01*
X-163830Y285750D02*
X-165608Y287300D01*
X-68580Y-485775D02*
X-55245Y-485775D01*
X-68580Y-485775D02*
X-78105Y-476250D01*
X-87630Y-476250D01*
X-99060Y-487680D01*
X-99060Y-493395D01*
X-106680Y-501015D01*
X-129540Y-501015D01*
X-135255Y-506730D01*
X-135255Y-518160D01*
X-106680Y-546735D01*
X161925Y-546735D01*
X194310Y-514350D01*
X194310Y-502920D01*
X209550Y-487680D01*
X209550Y-415290D01*
X314325Y-310515D01*
X314325Y85725D01*
X300990Y99060D01*
X-55245Y-485775D02*
X-55118Y-487300D01*
X300990Y99060D02*
X300000Y100000D01*
X-55245Y287655D02*
X-60960Y287655D01*
X-81915Y308610D01*
X-81915Y316230D01*
X-66675Y331470D01*
X177165Y331470D01*
X194310Y314325D01*
X194310Y302895D01*
X205740Y291465D01*
X205740Y226695D01*
X299085Y133350D01*
X299085Y100965D01*
X-55118Y287300D02*
X-55245Y287655D01*
X299085Y100965D02*
X300000Y100000D01*
X5715Y-487680D02*
X0Y-487680D01*
X5715Y-487680D02*
X28575Y-510540D01*
X28575Y-516255D01*
X36195Y-523875D01*
X102870Y-523875D01*
X112395Y-514350D01*
X112395Y-502920D01*
X121920Y-493395D01*
X121920Y-146685D01*
X78105Y-102870D01*
X78105Y232410D01*
X121920Y276225D01*
X121920Y293370D01*
X114300Y300990D01*
X91440Y300990D01*
X81915Y310515D01*
X81915Y316230D01*
X74295Y323850D01*
X36195Y323850D01*
X24765Y312420D01*
X24765Y306705D01*
X5715Y287655D01*
X0Y287655D01*
X0Y-487300D02*
X0Y-487680D01*
X0Y287300D02*
X0Y287655D01*
X-398145Y121920D02*
X-398145Y0D01*
X-398145Y121920D02*
X-232410Y287655D01*
X-232410Y299085D01*
X-219075Y312420D01*
X-219075Y318135D01*
X-213360Y323850D01*
X-118110Y323850D01*
X-108585Y314325D01*
X-108585Y308610D01*
X-99060Y299085D01*
X-78105Y299085D01*
X-66675Y287655D01*
X-66675Y281940D01*
X-60960Y276225D01*
X-9525Y276225D01*
X0Y285750D01*
X-398145Y0D02*
X-400000Y0D01*
X0Y285750D02*
X0Y287300D01*
X55245Y-487680D02*
X66675Y-487680D01*
X78105Y-499110D01*
X87630Y-499110D01*
X95250Y-491490D01*
X95250Y-386715D01*
X-91440Y-200025D01*
X-91440Y-127635D01*
X55118Y-487300D02*
X55245Y-487680D01*
X53340Y234315D02*
X53340Y285750D01*
X53340Y234315D02*
X-9525Y171450D01*
X-32385Y171450D01*
X-85725Y118110D01*
X-85725Y95250D01*
X-180975Y0D01*
X-200000Y0D01*
X53340Y285750D02*
X55118Y287300D01*
D14*
X-91440Y-127635D03*
D13*
X110490Y-308610D02*
X110490Y-487300D01*
X110490Y-308610D02*
X114300Y-304800D01*
X114300Y-144780D01*
X0Y-30480D01*
X0Y0D01*
X110490Y270510D02*
X110490Y287300D01*
X110490Y270510D02*
X0Y160020D01*
X0Y0D01*
X165735Y-32385D02*
X165735Y-485775D01*
X165735Y-32385D02*
X198120Y0D01*
X165735Y-485775D02*
X165608Y-487300D01*
X163830Y175260D02*
X163830Y285750D01*
X163830Y175260D02*
X110490Y121920D01*
X110490Y108585D01*
X198120Y20955D01*
X198120Y0D01*
X163830Y285750D02*
X165608Y287300D01*
X198120Y0D02*
X200000Y0D01*
X220980Y281940D02*
X220980Y287300D01*
X220980Y281940D02*
X398145Y104775D01*
X398145Y0D01*
X400000Y0D01*
X-236220Y-363855D02*
X-236220Y-512445D01*
X-236220Y-363855D02*
X-299085Y-300990D01*
X-236220Y-512445D02*
X-234696Y-512700D01*
X-299085Y-300990D02*
X-300000Y-300000D01*
X-179070Y-495300D02*
X-179070Y-512445D01*
X-179070Y-495300D02*
X-177165Y-493395D01*
X-177165Y-377190D01*
X-100965Y-300990D01*
X-179070Y-512445D02*
X-179578Y-512700D01*
X-100965Y-300990D02*
X-100000Y-300000D01*
X-112395Y-512445D02*
X-123825Y-512445D01*
X-112395Y-512445D02*
X-99060Y-499110D01*
X-22860Y-499110D01*
X-11430Y-487680D01*
X-11430Y-430530D01*
X55245Y-363855D01*
X-123825Y-512445D02*
X-124206Y-512700D01*
X-24765Y-156210D02*
X-24765Y-150495D01*
X-24765Y-156210D02*
X99060Y-280035D01*
X99060Y-299085D01*
X100000Y-300000D01*
D14*
X55245Y-363855D03*
X-24765Y-150495D03*
D13*
X-68580Y-514350D02*
X-47625Y-535305D01*
X-68580Y-514350D02*
X-69088Y-512700D01*
X-68580Y314325D02*
X-57150Y314325D01*
X-43815Y327660D01*
X81915Y327660D01*
X85725Y323850D01*
X-68580Y314325D02*
X-69088Y312700D01*
D14*
X-47625Y-535305D03*
X85725Y323850D03*
D13*
X-169545Y-523875D02*
X-253365Y-523875D01*
X-377190Y-400050D01*
X-398145Y-400050D01*
X-400000Y-400000D01*
D14*
X-169545Y-523875D03*
D13*
X207645Y-512445D02*
X219075Y-512445D01*
X232410Y-499110D01*
X253365Y-499110D01*
X325755Y-426720D01*
X325755Y165735D01*
X207645Y-512445D02*
X207010Y-512700D01*
D14*
X325755Y165735D03*
D13*
X-201930Y-512445D02*
X-205740Y-512445D01*
X-201930Y-512445D02*
X-180975Y-491490D01*
X-180975Y-217170D01*
X-198120Y-200025D01*
X-205740Y-512445D02*
X-207010Y-512700D01*
X-200000Y-200000D02*
X-198120Y-200025D01*
X-201930Y312420D02*
X-205740Y312420D01*
X-201930Y312420D02*
X-180975Y291465D01*
X-180975Y38100D01*
X-213360Y5715D01*
X-213360Y-184785D01*
X-200025Y-198120D01*
X-205740Y312420D02*
X-207010Y312700D01*
X-200025Y-198120D02*
X-200000Y-200000D01*
X-150495Y-386715D02*
X-150495Y-512445D01*
X-150495Y-386715D02*
X-40005Y-276225D01*
X-150495Y-512445D02*
X-151892Y-512700D01*
D14*
X-40005Y-276225D03*
D13*
X-83820Y-514350D02*
X-95250Y-514350D01*
X-83820Y-514350D02*
X-55245Y-542925D01*
X110490Y-542925D01*
X139065Y-514350D01*
X139065Y-508635D01*
X148590Y-499110D01*
X169545Y-499110D01*
X177165Y-491490D01*
X177165Y-220980D01*
X198120Y-200025D01*
X-96520Y-512700D02*
X-95250Y-514350D01*
X198120Y-200025D02*
X200000Y-200000D01*
X150495Y74295D02*
X150495Y97155D01*
X150495Y74295D02*
X213360Y11430D01*
X213360Y-184785D01*
X200025Y-198120D01*
X200000Y-200000D01*
D14*
X150495Y97155D03*
D13*
X-28575Y-514350D02*
X-40005Y-514350D01*
X-28575Y-514350D02*
X-11430Y-531495D01*
X66675Y-531495D01*
X-40005Y-514350D02*
X-41402Y-512700D01*
X-34290Y339090D02*
X224790Y339090D01*
X417195Y146685D01*
X417195Y-180975D01*
X400050Y-198120D01*
X400000Y-200000D01*
D14*
X66675Y-531495D03*
X-34290Y339090D03*
D13*
X1905Y312420D02*
X13335Y312420D01*
X1905Y312420D02*
X-9525Y300990D01*
X-51435Y300990D01*
X-55245Y304800D01*
X13335Y312420D02*
X13716Y312700D01*
D14*
X-55245Y304800D03*
D13*
X70485Y312420D02*
X74295Y312420D01*
X95250Y291465D01*
X95250Y260985D01*
X-32385Y133350D01*
X-32385Y-253365D01*
X99060Y-384810D01*
X99060Y-493395D01*
X80010Y-512445D01*
X70485Y-512445D01*
X70485Y312420D02*
X69088Y312700D01*
X70485Y-512445D02*
X69088Y-512700D01*
X125730Y-512445D02*
X125730Y-144780D01*
X81915Y-100965D01*
X81915Y230505D01*
X125730Y274320D01*
X125730Y312420D01*
X125730Y-512445D02*
X124206Y-512700D01*
X125730Y312420D02*
X124206Y312700D01*
X180975Y-238125D02*
X180975Y-512445D01*
X180975Y-238125D02*
X217170Y-201930D01*
X217170Y203835D01*
X180975Y240030D01*
X180975Y312420D01*
X180975Y-512445D02*
X179324Y-512700D01*
X180975Y312420D02*
X179578Y312700D01*
X236220Y-512445D02*
X245745Y-512445D01*
X386715Y-371475D01*
X386715Y-32385D01*
X413385Y-5715D01*
X413385Y139065D01*
X240030Y312420D01*
X236220Y312420D01*
X236220Y-512445D02*
X234696Y-512700D01*
X236220Y312420D02*
X234696Y312700D01*
M02*
