M48
;GenerationSoftware,Autodesk,EAGLE,9.3.2*%
;CreationDate,2019-03-26T22:28:56Z*%
FMAT,2
ICI,OFF
METRIC,TZ,000.000
T4C0.381
T3C1.016
T2C1.100
T1C3.302
%
G90
M71
T1
X31750Y-50000
X31750Y30000
X-31750Y30000
X-31750Y-50000
T2
X-20000Y0
X-30000Y-10000
X-40000Y0
X40000Y20000
X30000Y10000
X20000Y20000
X10000Y10000
X0Y20000
X-10000Y10000
X-20000Y20000
X-30000Y10000
X-40000Y20000
X30000Y-10000
X-10000Y-10000
X0Y0
X10000Y-10000
X20000Y0
X40000Y0
X-40000Y-20000
X-30000Y-30000
X-20000Y-20000
X-10000Y-30000
X0Y-20000
X10000Y-30000
X20000Y-20000
X30000Y-30000
X40000Y-20000
X-40000Y-40000
X-20000Y-40000
X0Y-40000
X20000Y-40000
X40000Y-40000
T3
X4140Y-51270
X1372Y-51270
X-1372Y-51270
X-4140Y-51270
X-6909Y-51270
X-11049Y-48730
X-13818Y-48730
X-16561Y-48730
X-19329Y-48730
X-9652Y-51270
X-12421Y-51270
X-15189Y-51270
X-17958Y-51270
X-22098Y-48730
X-24841Y-48730
X-20701Y-51270
X-23470Y-51270
X-24841Y28730
X-22073Y28730
X-19329Y28730
X-16561Y28730
X-13792Y28730
X-11049Y28730
X-8280Y28730
X-5512Y28730
X-2769Y28730
X15189Y-51270
X2769Y28730
X5512Y28730
X8280Y28730
X-23470Y31270
X-20701Y31270
X-17932Y31270
X-15189Y31270
X-12421Y31270
X-9652Y31270
X-6909Y31270
X-4140Y31270
X-1372Y31270
X1372Y31270
X4140Y31270
X6909Y31270
X11049Y28730
X13818Y28730
X16561Y28730
X19329Y28730
X9677Y31270
X12421Y31270
X15189Y31270
X17958Y31270
X22098Y28730
X24841Y28730
X20701Y31270
X23470Y31270
X22073Y-48730
X24841Y-48730
X19329Y-48730
X16561Y-48730
X0Y28730
X13792Y-48730
X11049Y-48730
X8280Y-48730
X5512Y-48730
X2769Y-48730
X0Y-48730
X-2769Y-48730
X-5512Y-48730
X-8280Y-48730
X23470Y-51270
X20701Y-51270
X17932Y-51270
X12421Y-51270
X9652Y-51270
X6909Y-51270
T4
X32575Y16574
X-16955Y-52387
X8573Y32385
X-4763Y-53530
X-2477Y-15049
X5524Y-36386
X-9144Y-12763
X-2857Y16383
X11811Y11811
X-5524Y30480
X-3429Y33909
X6667Y-53149
X15049Y9716
X-4000Y-27622
M30