G04 EAGLE Gerber RS-274X export*
G75*
%MOMM*%
%FSLAX34Y34*%
%LPD*%
%INSilkscreen Top*%
%IPPOS*%
%AMOC8*
5,1,8,0,0,1.08239X$1,22.5*%
G01*
%ADD10C,0.381000*%
%ADD11C,0.787400*%
%ADD12C,0.076200*%
%ADD13C,0.812800*%
%ADD14C,0.500000*%
%ADD15R,0.660400X0.660400*%


D10*
X-465870Y242939D02*
X-460701Y248108D01*
X-460701Y232601D01*
X-465870Y232601D02*
X-455532Y232601D01*
X-365870Y132601D02*
X-355532Y132601D01*
X-365870Y132601D02*
X-355532Y142939D01*
X-355532Y145524D01*
X-358116Y148108D01*
X-363285Y148108D01*
X-365870Y145524D01*
X-265870Y245524D02*
X-263285Y248108D01*
X-258116Y248108D01*
X-255532Y245524D01*
X-255532Y242939D01*
X-258116Y240355D01*
X-260701Y240355D01*
X-258116Y240355D02*
X-255532Y237770D01*
X-255532Y235186D01*
X-258116Y232601D01*
X-263285Y232601D01*
X-265870Y235186D01*
X-158116Y148108D02*
X-158116Y132601D01*
X-165870Y140355D02*
X-158116Y148108D01*
X-155532Y140355D02*
X-165870Y140355D01*
X-65870Y248108D02*
X-55532Y248108D01*
X-65870Y248108D02*
X-65870Y240355D01*
X-60701Y242939D01*
X-58116Y242939D01*
X-55532Y240355D01*
X-55532Y235186D01*
X-58116Y232601D01*
X-63285Y232601D01*
X-65870Y235186D01*
X134130Y248108D02*
X144468Y248108D01*
X144468Y245524D01*
X134130Y235186D01*
X134130Y232601D01*
X234130Y145524D02*
X236715Y148108D01*
X241884Y148108D01*
X244468Y145524D01*
X244468Y142939D01*
X241884Y140355D01*
X244468Y137770D01*
X244468Y135186D01*
X241884Y132601D01*
X236715Y132601D01*
X234130Y135186D01*
X234130Y137770D01*
X236715Y140355D01*
X234130Y142939D01*
X234130Y145524D01*
X236715Y140355D02*
X241884Y140355D01*
X334130Y235186D02*
X336715Y232601D01*
X341884Y232601D01*
X344468Y235186D01*
X344468Y245524D01*
X341884Y248108D01*
X336715Y248108D01*
X334130Y245524D01*
X334130Y242939D01*
X336715Y240355D01*
X344468Y240355D01*
X-478476Y48108D02*
X-483645Y42939D01*
X-478476Y48108D02*
X-478476Y32601D01*
X-483645Y32601D02*
X-473307Y32601D01*
X-465870Y35186D02*
X-465870Y45524D01*
X-463285Y48108D01*
X-458116Y48108D01*
X-455532Y45524D01*
X-455532Y35186D01*
X-458116Y32601D01*
X-463285Y32601D01*
X-465870Y35186D01*
X-455532Y45524D01*
X-378476Y-51892D02*
X-383645Y-57061D01*
X-378476Y-51892D02*
X-378476Y-67399D01*
X-383645Y-67399D02*
X-373307Y-67399D01*
X-365870Y-57061D02*
X-360701Y-51892D01*
X-360701Y-67399D01*
X-365870Y-67399D02*
X-355532Y-67399D01*
X-283645Y42939D02*
X-278476Y48108D01*
X-278476Y32601D01*
X-283645Y32601D02*
X-273307Y32601D01*
X-265870Y32601D02*
X-255532Y32601D01*
X-265870Y32601D02*
X-255532Y42939D01*
X-255532Y45524D01*
X-258116Y48108D01*
X-263285Y48108D01*
X-265870Y45524D01*
X-178476Y-51892D02*
X-183645Y-57061D01*
X-178476Y-51892D02*
X-178476Y-67399D01*
X-183645Y-67399D02*
X-173307Y-67399D01*
X-165870Y-54476D02*
X-163285Y-51892D01*
X-158116Y-51892D01*
X-155532Y-54476D01*
X-155532Y-57061D01*
X-158116Y-59645D01*
X-160701Y-59645D01*
X-158116Y-59645D02*
X-155532Y-62230D01*
X-155532Y-64814D01*
X-158116Y-67399D01*
X-163285Y-67399D01*
X-165870Y-64814D01*
X-83645Y42939D02*
X-78476Y48108D01*
X-78476Y32601D01*
X-83645Y32601D02*
X-73307Y32601D01*
X-58116Y32601D02*
X-58116Y48108D01*
X-65870Y40355D01*
X-55532Y40355D01*
X21524Y-51892D02*
X16355Y-57061D01*
X21524Y-51892D02*
X21524Y-67399D01*
X16355Y-67399D02*
X26693Y-67399D01*
X34130Y-51892D02*
X44468Y-51892D01*
X34130Y-51892D02*
X34130Y-59645D01*
X39299Y-57061D01*
X41884Y-57061D01*
X44468Y-59645D01*
X44468Y-64814D01*
X41884Y-67399D01*
X36715Y-67399D01*
X34130Y-64814D01*
X116355Y42939D02*
X121524Y48108D01*
X121524Y32601D01*
X116355Y32601D02*
X126693Y32601D01*
X139299Y45524D02*
X144468Y48108D01*
X139299Y45524D02*
X134130Y40355D01*
X134130Y35186D01*
X136715Y32601D01*
X141884Y32601D01*
X144468Y35186D01*
X144468Y37770D01*
X141884Y40355D01*
X134130Y40355D01*
X221524Y-51892D02*
X216355Y-57061D01*
X221524Y-51892D02*
X221524Y-67399D01*
X216355Y-67399D02*
X226693Y-67399D01*
X234130Y-51892D02*
X244468Y-51892D01*
X244468Y-54476D01*
X234130Y-64814D01*
X234130Y-67399D01*
X-478476Y-151892D02*
X-483645Y-157061D01*
X-478476Y-151892D02*
X-478476Y-167399D01*
X-483645Y-167399D02*
X-473307Y-167399D01*
X-465870Y-164814D02*
X-463285Y-167399D01*
X-458116Y-167399D01*
X-455532Y-164814D01*
X-455532Y-154476D01*
X-458116Y-151892D01*
X-463285Y-151892D01*
X-465870Y-154476D01*
X-465870Y-157061D01*
X-463285Y-159645D01*
X-455532Y-159645D01*
X-383645Y-267399D02*
X-373307Y-267399D01*
X-383645Y-267399D02*
X-373307Y-257061D01*
X-373307Y-254476D01*
X-375891Y-251892D01*
X-381060Y-251892D01*
X-383645Y-254476D01*
X-365870Y-254476D02*
X-365870Y-264814D01*
X-365870Y-254476D02*
X-363285Y-251892D01*
X-358116Y-251892D01*
X-355532Y-254476D01*
X-355532Y-264814D01*
X-358116Y-267399D01*
X-363285Y-267399D01*
X-365870Y-264814D01*
X-355532Y-254476D01*
X-283645Y-167399D02*
X-273307Y-167399D01*
X-283645Y-167399D02*
X-273307Y-157061D01*
X-273307Y-154476D01*
X-275891Y-151892D01*
X-281060Y-151892D01*
X-283645Y-154476D01*
X-265870Y-157061D02*
X-260701Y-151892D01*
X-260701Y-167399D01*
X-265870Y-167399D02*
X-255532Y-167399D01*
X-183645Y-267399D02*
X-173307Y-267399D01*
X-183645Y-267399D02*
X-173307Y-257061D01*
X-173307Y-254476D01*
X-175891Y-251892D01*
X-181060Y-251892D01*
X-183645Y-254476D01*
X-165870Y-267399D02*
X-155532Y-267399D01*
X-165870Y-267399D02*
X-155532Y-257061D01*
X-155532Y-254476D01*
X-158116Y-251892D01*
X-163285Y-251892D01*
X-165870Y-254476D01*
X-83645Y-167399D02*
X-73307Y-167399D01*
X-83645Y-167399D02*
X-73307Y-157061D01*
X-73307Y-154476D01*
X-75891Y-151892D01*
X-81060Y-151892D01*
X-83645Y-154476D01*
X-65870Y-154476D02*
X-63285Y-151892D01*
X-58116Y-151892D01*
X-55532Y-154476D01*
X-55532Y-157061D01*
X-58116Y-159645D01*
X-60701Y-159645D01*
X-58116Y-159645D02*
X-55532Y-162230D01*
X-55532Y-164814D01*
X-58116Y-167399D01*
X-63285Y-167399D01*
X-65870Y-164814D01*
X16355Y-267399D02*
X26693Y-267399D01*
X16355Y-267399D02*
X26693Y-257061D01*
X26693Y-254476D01*
X24109Y-251892D01*
X18940Y-251892D01*
X16355Y-254476D01*
X41884Y-251892D02*
X41884Y-267399D01*
X34130Y-259645D02*
X41884Y-251892D01*
X44468Y-259645D02*
X34130Y-259645D01*
X116355Y-167399D02*
X126693Y-167399D01*
X116355Y-167399D02*
X126693Y-157061D01*
X126693Y-154476D01*
X124109Y-151892D01*
X118940Y-151892D01*
X116355Y-154476D01*
X134130Y-151892D02*
X144468Y-151892D01*
X134130Y-151892D02*
X134130Y-159645D01*
X139299Y-157061D01*
X141884Y-157061D01*
X144468Y-159645D01*
X144468Y-164814D01*
X141884Y-167399D01*
X136715Y-167399D01*
X134130Y-164814D01*
X216355Y-267399D02*
X226693Y-267399D01*
X216355Y-267399D02*
X226693Y-257061D01*
X226693Y-254476D01*
X224109Y-251892D01*
X218940Y-251892D01*
X216355Y-254476D01*
X239299Y-254476D02*
X244468Y-251892D01*
X239299Y-254476D02*
X234130Y-259645D01*
X234130Y-264814D01*
X236715Y-267399D01*
X241884Y-267399D01*
X244468Y-264814D01*
X244468Y-262230D01*
X241884Y-259645D01*
X234130Y-259645D01*
X316355Y-167399D02*
X326693Y-167399D01*
X316355Y-167399D02*
X326693Y-157061D01*
X326693Y-154476D01*
X324109Y-151892D01*
X318940Y-151892D01*
X316355Y-154476D01*
X334130Y-151892D02*
X344468Y-151892D01*
X344468Y-154476D01*
X334130Y-164814D01*
X334130Y-167399D01*
X-473307Y-367399D02*
X-483645Y-367399D01*
X-473307Y-357061D01*
X-473307Y-354476D01*
X-475891Y-351892D01*
X-481060Y-351892D01*
X-483645Y-354476D01*
X-465870Y-354476D02*
X-463285Y-351892D01*
X-458116Y-351892D01*
X-455532Y-354476D01*
X-455532Y-357061D01*
X-458116Y-359645D01*
X-455532Y-362230D01*
X-455532Y-364814D01*
X-458116Y-367399D01*
X-463285Y-367399D01*
X-465870Y-364814D01*
X-465870Y-362230D01*
X-463285Y-359645D01*
X-465870Y-357061D01*
X-465870Y-354476D01*
X-463285Y-359645D02*
X-458116Y-359645D01*
X-283645Y-367399D02*
X-273307Y-367399D01*
X-283645Y-367399D02*
X-273307Y-357061D01*
X-273307Y-354476D01*
X-275891Y-351892D01*
X-281060Y-351892D01*
X-283645Y-354476D01*
X-265870Y-364814D02*
X-263285Y-367399D01*
X-258116Y-367399D01*
X-255532Y-364814D01*
X-255532Y-354476D01*
X-258116Y-351892D01*
X-263285Y-351892D01*
X-265870Y-354476D01*
X-265870Y-357061D01*
X-263285Y-359645D01*
X-255532Y-359645D01*
X-83645Y-354476D02*
X-81060Y-351892D01*
X-75891Y-351892D01*
X-73307Y-354476D01*
X-73307Y-357061D01*
X-75891Y-359645D01*
X-78476Y-359645D01*
X-75891Y-359645D02*
X-73307Y-362230D01*
X-73307Y-364814D01*
X-75891Y-367399D01*
X-81060Y-367399D01*
X-83645Y-364814D01*
X-65870Y-364814D02*
X-65870Y-354476D01*
X-63285Y-351892D01*
X-58116Y-351892D01*
X-55532Y-354476D01*
X-55532Y-364814D01*
X-58116Y-367399D01*
X-63285Y-367399D01*
X-65870Y-364814D01*
X-55532Y-354476D01*
D11*
X467222Y46374D02*
X484763Y46374D01*
X484763Y55145D01*
X481840Y58068D01*
X470146Y58068D01*
X467222Y55145D01*
X467222Y46374D01*
X484763Y69762D02*
X484763Y78533D01*
X481840Y81456D01*
X478916Y78533D01*
X478916Y72686D01*
X475993Y69762D01*
X473069Y72686D01*
X473069Y81456D01*
X473069Y93150D02*
X481840Y93150D01*
X484763Y96073D01*
X484763Y104844D01*
X473069Y104844D01*
X467222Y116538D02*
X484763Y116538D01*
X484763Y125308D01*
X481840Y128232D01*
X475993Y128232D01*
X473069Y125308D01*
X473069Y116538D01*
X484763Y139926D02*
X484763Y151620D01*
X484763Y139926D02*
X473069Y151620D01*
X470146Y151620D01*
X467222Y148696D01*
X467222Y142849D01*
X470146Y139926D01*
X467222Y169161D02*
X484763Y169161D01*
X467222Y163314D02*
X467222Y175008D01*
X484763Y189625D02*
X484763Y195472D01*
X481840Y198396D01*
X475993Y198396D01*
X473069Y195472D01*
X473069Y189625D01*
X475993Y186702D01*
X481840Y186702D01*
X484763Y189625D01*
X481840Y210090D02*
X473069Y210090D01*
X481840Y210090D02*
X484763Y213013D01*
X484763Y221784D01*
X473069Y221784D01*
X473069Y236401D02*
X473069Y245172D01*
X473069Y236401D02*
X475993Y233478D01*
X481840Y233478D01*
X484763Y236401D01*
X484763Y245172D01*
X484763Y256866D02*
X467222Y256866D01*
X473069Y259789D02*
X475993Y256866D01*
X473069Y259789D02*
X473069Y265636D01*
X475993Y268560D01*
X484763Y268560D01*
X484763Y280254D02*
X467222Y280254D01*
X467222Y289024D01*
X470146Y291948D01*
X475993Y291948D01*
X478916Y289024D01*
X478916Y280254D01*
X484763Y303642D02*
X473069Y303642D01*
X478916Y303642D02*
X473069Y309489D01*
X473069Y312412D01*
X484763Y326055D02*
X484763Y331902D01*
X481840Y334826D01*
X475993Y334826D01*
X473069Y331902D01*
X473069Y326055D01*
X475993Y323132D01*
X481840Y323132D01*
X484763Y326055D01*
X484763Y349443D02*
X484763Y355290D01*
X481840Y358214D01*
X475993Y358214D01*
X473069Y355290D01*
X473069Y349443D01*
X475993Y346520D01*
X481840Y346520D01*
X484763Y349443D01*
X484763Y372831D02*
X470146Y372831D01*
X467222Y375755D01*
X475993Y375755D02*
X475993Y369908D01*
D10*
X318940Y-351892D02*
X316355Y-354476D01*
X318940Y-351892D02*
X324109Y-351892D01*
X326693Y-354476D01*
X326693Y-357061D01*
X324109Y-359645D01*
X321524Y-359645D01*
X324109Y-359645D02*
X326693Y-362230D01*
X326693Y-364814D01*
X324109Y-367399D01*
X318940Y-367399D01*
X316355Y-364814D01*
X334130Y-367399D02*
X344468Y-367399D01*
X334130Y-367399D02*
X344468Y-357061D01*
X344468Y-354476D01*
X341884Y-351892D01*
X336715Y-351892D01*
X334130Y-354476D01*
X118940Y-351892D02*
X116355Y-354476D01*
X118940Y-351892D02*
X124109Y-351892D01*
X126693Y-354476D01*
X126693Y-357061D01*
X124109Y-359645D01*
X121524Y-359645D01*
X124109Y-359645D02*
X126693Y-362230D01*
X126693Y-364814D01*
X124109Y-367399D01*
X118940Y-367399D01*
X116355Y-364814D01*
X134130Y-357061D02*
X139299Y-351892D01*
X139299Y-367399D01*
X134130Y-367399D02*
X144468Y-367399D01*
X39299Y145524D02*
X44468Y148108D01*
X39299Y145524D02*
X34130Y140355D01*
X34130Y135186D01*
X36715Y132601D01*
X41884Y132601D01*
X44468Y135186D01*
X44468Y137770D01*
X41884Y140355D01*
X34130Y140355D01*
X316355Y42939D02*
X321524Y48108D01*
X321524Y32601D01*
X316355Y32601D02*
X326693Y32601D01*
X334130Y45524D02*
X336715Y48108D01*
X341884Y48108D01*
X344468Y45524D01*
X344468Y42939D01*
X341884Y40355D01*
X344468Y37770D01*
X344468Y35186D01*
X341884Y32601D01*
X336715Y32601D01*
X334130Y35186D01*
X334130Y37770D01*
X336715Y40355D01*
X334130Y42939D01*
X334130Y45524D01*
X336715Y40355D02*
X341884Y40355D01*
D12*
X-265162Y291753D02*
X-267619Y289296D01*
X-265162Y291753D02*
X-265162Y284381D01*
X-267619Y284381D02*
X-262704Y284381D01*
X-263162Y-480247D02*
X-265619Y-482704D01*
X-263162Y-480247D02*
X-263162Y-487619D01*
X-265619Y-487619D02*
X-260704Y-487619D01*
D13*
X-110490Y-488570D02*
X-110490Y-498730D01*
X-82804Y-498730D02*
X-82804Y-488570D01*
X110490Y-488570D02*
X110490Y-498730D01*
X-69088Y-513970D02*
X-69088Y-524130D01*
X-96520Y-524130D02*
X-96520Y-513970D01*
X-124206Y-513970D02*
X-124206Y-524130D01*
X-138176Y-498730D02*
X-138176Y-488570D01*
X-151892Y-513970D02*
X-151892Y-524130D01*
X-165608Y-498730D02*
X-165608Y-488570D01*
X-179578Y-513716D02*
X-179578Y-523876D01*
X-193294Y-498476D02*
X-193294Y-488316D01*
X124206Y-513970D02*
X124206Y-524130D01*
X137922Y-498730D02*
X137922Y-488570D01*
X151892Y-513970D02*
X151892Y-524130D01*
X165608Y-498730D02*
X165608Y-488570D01*
X179324Y-513970D02*
X179324Y-524130D01*
X193294Y-498730D02*
X193294Y-488570D01*
X220726Y-488570D02*
X220726Y-498730D01*
X207010Y-513970D02*
X207010Y-524130D01*
X248412Y-498730D02*
X248412Y-488570D01*
X234696Y-513970D02*
X234696Y-524130D01*
X-220980Y-498730D02*
X-220980Y-488570D01*
X-207010Y-513716D02*
X-207010Y-523876D01*
X-234696Y-523876D02*
X-234696Y-513716D01*
X-248412Y-498730D02*
X-248412Y-488570D01*
X-55118Y-488570D02*
X-55118Y-498730D01*
X-41402Y-513970D02*
X-41402Y-524130D01*
X-27686Y-498730D02*
X-27686Y-488570D01*
X0Y-488570D02*
X0Y-498730D01*
X-13716Y-513970D02*
X-13716Y-524130D01*
X13716Y-524130D02*
X13716Y-513970D01*
X41402Y-513970D02*
X41402Y-524130D01*
X27686Y-498730D02*
X27686Y-488570D01*
X55118Y-488570D02*
X55118Y-498730D01*
X82804Y-498730D02*
X82804Y-488570D01*
X69088Y-513970D02*
X69088Y-524130D01*
X96520Y-524130D02*
X96520Y-513970D01*
X-27686Y288570D02*
X-27686Y298730D01*
X-165608Y298730D02*
X-165608Y288570D01*
X-193294Y288570D02*
X-193294Y298730D01*
X-179324Y313970D02*
X-179324Y324130D01*
X-151892Y324130D02*
X-151892Y313970D01*
X-13716Y313970D02*
X-13716Y324130D01*
X27686Y298730D02*
X27686Y288570D01*
X69088Y313970D02*
X69088Y324130D01*
X165608Y298730D02*
X165608Y288570D01*
X41402Y313970D02*
X41402Y324130D01*
X55118Y298730D02*
X55118Y288570D01*
X13716Y313970D02*
X13716Y324130D01*
X0Y298730D02*
X0Y288570D01*
X-41402Y313970D02*
X-41402Y324130D01*
X-55118Y298730D02*
X-55118Y288570D01*
X-207010Y313970D02*
X-207010Y324130D01*
X-234696Y324130D02*
X-234696Y313970D01*
X-220726Y298730D02*
X-220726Y288570D01*
X-248412Y288570D02*
X-248412Y298730D01*
X179578Y313970D02*
X179578Y324130D01*
X193294Y298730D02*
X193294Y288570D01*
X220980Y288570D02*
X220980Y298730D01*
X248412Y298730D02*
X248412Y288570D01*
X207010Y313970D02*
X207010Y324130D01*
X234696Y324130D02*
X234696Y313970D01*
X-137922Y298730D02*
X-137922Y288570D01*
X-110490Y288570D02*
X-110490Y298730D01*
X-82804Y298730D02*
X-82804Y288570D01*
X-124206Y313970D02*
X-124206Y324130D01*
X-96520Y324130D02*
X-96520Y313970D01*
X-69088Y313970D02*
X-69088Y324130D01*
X82804Y298730D02*
X82804Y288570D01*
X110490Y288570D02*
X110490Y298730D01*
X96520Y313970D02*
X96520Y324130D01*
X138176Y298730D02*
X138176Y288570D01*
X124206Y313970D02*
X124206Y324130D01*
X151892Y324130D02*
X151892Y313970D01*
D14*
X-450000Y200000D02*
X-449985Y201227D01*
X-449940Y202453D01*
X-449865Y203678D01*
X-449759Y204901D01*
X-449624Y206121D01*
X-449459Y207337D01*
X-449264Y208548D01*
X-449039Y209755D01*
X-448785Y210955D01*
X-448502Y212149D01*
X-448189Y213336D01*
X-447847Y214514D01*
X-447476Y215684D01*
X-447077Y216844D01*
X-446650Y217995D01*
X-446194Y219134D01*
X-445710Y220262D01*
X-445199Y221378D01*
X-444661Y222481D01*
X-444096Y223570D01*
X-443504Y224645D01*
X-442886Y225705D01*
X-442243Y226750D01*
X-441573Y227779D01*
X-440879Y228790D01*
X-440160Y229785D01*
X-439417Y230762D01*
X-438651Y231720D01*
X-437860Y232659D01*
X-437048Y233578D01*
X-436212Y234477D01*
X-435355Y235355D01*
X-434477Y236212D01*
X-433578Y237048D01*
X-432659Y237860D01*
X-431720Y238651D01*
X-430762Y239417D01*
X-429785Y240160D01*
X-428790Y240879D01*
X-427779Y241573D01*
X-426750Y242243D01*
X-425705Y242886D01*
X-424645Y243504D01*
X-423570Y244096D01*
X-422481Y244661D01*
X-421378Y245199D01*
X-420262Y245710D01*
X-419134Y246194D01*
X-417995Y246650D01*
X-416844Y247077D01*
X-415684Y247476D01*
X-414514Y247847D01*
X-413336Y248189D01*
X-412149Y248502D01*
X-410955Y248785D01*
X-409755Y249039D01*
X-408548Y249264D01*
X-407337Y249459D01*
X-406121Y249624D01*
X-404901Y249759D01*
X-403678Y249865D01*
X-402453Y249940D01*
X-401227Y249985D01*
X-400000Y250000D01*
X-398773Y249985D01*
X-397547Y249940D01*
X-396322Y249865D01*
X-395099Y249759D01*
X-393879Y249624D01*
X-392663Y249459D01*
X-391452Y249264D01*
X-390245Y249039D01*
X-389045Y248785D01*
X-387851Y248502D01*
X-386664Y248189D01*
X-385486Y247847D01*
X-384316Y247476D01*
X-383156Y247077D01*
X-382005Y246650D01*
X-380866Y246194D01*
X-379738Y245710D01*
X-378622Y245199D01*
X-377519Y244661D01*
X-376430Y244096D01*
X-375355Y243504D01*
X-374295Y242886D01*
X-373250Y242243D01*
X-372221Y241573D01*
X-371210Y240879D01*
X-370215Y240160D01*
X-369238Y239417D01*
X-368280Y238651D01*
X-367341Y237860D01*
X-366422Y237048D01*
X-365523Y236212D01*
X-364645Y235355D01*
X-363788Y234477D01*
X-362952Y233578D01*
X-362140Y232659D01*
X-361349Y231720D01*
X-360583Y230762D01*
X-359840Y229785D01*
X-359121Y228790D01*
X-358427Y227779D01*
X-357757Y226750D01*
X-357114Y225705D01*
X-356496Y224645D01*
X-355904Y223570D01*
X-355339Y222481D01*
X-354801Y221378D01*
X-354290Y220262D01*
X-353806Y219134D01*
X-353350Y217995D01*
X-352923Y216844D01*
X-352524Y215684D01*
X-352153Y214514D01*
X-351811Y213336D01*
X-351498Y212149D01*
X-351215Y210955D01*
X-350961Y209755D01*
X-350736Y208548D01*
X-350541Y207337D01*
X-350376Y206121D01*
X-350241Y204901D01*
X-350135Y203678D01*
X-350060Y202453D01*
X-350015Y201227D01*
X-350000Y200000D01*
X-350015Y198773D01*
X-350060Y197547D01*
X-350135Y196322D01*
X-350241Y195099D01*
X-350376Y193879D01*
X-350541Y192663D01*
X-350736Y191452D01*
X-350961Y190245D01*
X-351215Y189045D01*
X-351498Y187851D01*
X-351811Y186664D01*
X-352153Y185486D01*
X-352524Y184316D01*
X-352923Y183156D01*
X-353350Y182005D01*
X-353806Y180866D01*
X-354290Y179738D01*
X-354801Y178622D01*
X-355339Y177519D01*
X-355904Y176430D01*
X-356496Y175355D01*
X-357114Y174295D01*
X-357757Y173250D01*
X-358427Y172221D01*
X-359121Y171210D01*
X-359840Y170215D01*
X-360583Y169238D01*
X-361349Y168280D01*
X-362140Y167341D01*
X-362952Y166422D01*
X-363788Y165523D01*
X-364645Y164645D01*
X-365523Y163788D01*
X-366422Y162952D01*
X-367341Y162140D01*
X-368280Y161349D01*
X-369238Y160583D01*
X-370215Y159840D01*
X-371210Y159121D01*
X-372221Y158427D01*
X-373250Y157757D01*
X-374295Y157114D01*
X-375355Y156496D01*
X-376430Y155904D01*
X-377519Y155339D01*
X-378622Y154801D01*
X-379738Y154290D01*
X-380866Y153806D01*
X-382005Y153350D01*
X-383156Y152923D01*
X-384316Y152524D01*
X-385486Y152153D01*
X-386664Y151811D01*
X-387851Y151498D01*
X-389045Y151215D01*
X-390245Y150961D01*
X-391452Y150736D01*
X-392663Y150541D01*
X-393879Y150376D01*
X-395099Y150241D01*
X-396322Y150135D01*
X-397547Y150060D01*
X-398773Y150015D01*
X-400000Y150000D01*
X-401227Y150015D01*
X-402453Y150060D01*
X-403678Y150135D01*
X-404901Y150241D01*
X-406121Y150376D01*
X-407337Y150541D01*
X-408548Y150736D01*
X-409755Y150961D01*
X-410955Y151215D01*
X-412149Y151498D01*
X-413336Y151811D01*
X-414514Y152153D01*
X-415684Y152524D01*
X-416844Y152923D01*
X-417995Y153350D01*
X-419134Y153806D01*
X-420262Y154290D01*
X-421378Y154801D01*
X-422481Y155339D01*
X-423570Y155904D01*
X-424645Y156496D01*
X-425705Y157114D01*
X-426750Y157757D01*
X-427779Y158427D01*
X-428790Y159121D01*
X-429785Y159840D01*
X-430762Y160583D01*
X-431720Y161349D01*
X-432659Y162140D01*
X-433578Y162952D01*
X-434477Y163788D01*
X-435355Y164645D01*
X-436212Y165523D01*
X-437048Y166422D01*
X-437860Y167341D01*
X-438651Y168280D01*
X-439417Y169238D01*
X-440160Y170215D01*
X-440879Y171210D01*
X-441573Y172221D01*
X-442243Y173250D01*
X-442886Y174295D01*
X-443504Y175355D01*
X-444096Y176430D01*
X-444661Y177519D01*
X-445199Y178622D01*
X-445710Y179738D01*
X-446194Y180866D01*
X-446650Y182005D01*
X-447077Y183156D01*
X-447476Y184316D01*
X-447847Y185486D01*
X-448189Y186664D01*
X-448502Y187851D01*
X-448785Y189045D01*
X-449039Y190245D01*
X-449264Y191452D01*
X-449459Y192663D01*
X-449624Y193879D01*
X-449759Y195099D01*
X-449865Y196322D01*
X-449940Y197547D01*
X-449985Y198773D01*
X-450000Y200000D01*
D15*
X-400000Y200000D03*
D14*
X-350000Y100000D02*
X-349985Y101227D01*
X-349940Y102453D01*
X-349865Y103678D01*
X-349759Y104901D01*
X-349624Y106121D01*
X-349459Y107337D01*
X-349264Y108548D01*
X-349039Y109755D01*
X-348785Y110955D01*
X-348502Y112149D01*
X-348189Y113336D01*
X-347847Y114514D01*
X-347476Y115684D01*
X-347077Y116844D01*
X-346650Y117995D01*
X-346194Y119134D01*
X-345710Y120262D01*
X-345199Y121378D01*
X-344661Y122481D01*
X-344096Y123570D01*
X-343504Y124645D01*
X-342886Y125705D01*
X-342243Y126750D01*
X-341573Y127779D01*
X-340879Y128790D01*
X-340160Y129785D01*
X-339417Y130762D01*
X-338651Y131720D01*
X-337860Y132659D01*
X-337048Y133578D01*
X-336212Y134477D01*
X-335355Y135355D01*
X-334477Y136212D01*
X-333578Y137048D01*
X-332659Y137860D01*
X-331720Y138651D01*
X-330762Y139417D01*
X-329785Y140160D01*
X-328790Y140879D01*
X-327779Y141573D01*
X-326750Y142243D01*
X-325705Y142886D01*
X-324645Y143504D01*
X-323570Y144096D01*
X-322481Y144661D01*
X-321378Y145199D01*
X-320262Y145710D01*
X-319134Y146194D01*
X-317995Y146650D01*
X-316844Y147077D01*
X-315684Y147476D01*
X-314514Y147847D01*
X-313336Y148189D01*
X-312149Y148502D01*
X-310955Y148785D01*
X-309755Y149039D01*
X-308548Y149264D01*
X-307337Y149459D01*
X-306121Y149624D01*
X-304901Y149759D01*
X-303678Y149865D01*
X-302453Y149940D01*
X-301227Y149985D01*
X-300000Y150000D01*
X-298773Y149985D01*
X-297547Y149940D01*
X-296322Y149865D01*
X-295099Y149759D01*
X-293879Y149624D01*
X-292663Y149459D01*
X-291452Y149264D01*
X-290245Y149039D01*
X-289045Y148785D01*
X-287851Y148502D01*
X-286664Y148189D01*
X-285486Y147847D01*
X-284316Y147476D01*
X-283156Y147077D01*
X-282005Y146650D01*
X-280866Y146194D01*
X-279738Y145710D01*
X-278622Y145199D01*
X-277519Y144661D01*
X-276430Y144096D01*
X-275355Y143504D01*
X-274295Y142886D01*
X-273250Y142243D01*
X-272221Y141573D01*
X-271210Y140879D01*
X-270215Y140160D01*
X-269238Y139417D01*
X-268280Y138651D01*
X-267341Y137860D01*
X-266422Y137048D01*
X-265523Y136212D01*
X-264645Y135355D01*
X-263788Y134477D01*
X-262952Y133578D01*
X-262140Y132659D01*
X-261349Y131720D01*
X-260583Y130762D01*
X-259840Y129785D01*
X-259121Y128790D01*
X-258427Y127779D01*
X-257757Y126750D01*
X-257114Y125705D01*
X-256496Y124645D01*
X-255904Y123570D01*
X-255339Y122481D01*
X-254801Y121378D01*
X-254290Y120262D01*
X-253806Y119134D01*
X-253350Y117995D01*
X-252923Y116844D01*
X-252524Y115684D01*
X-252153Y114514D01*
X-251811Y113336D01*
X-251498Y112149D01*
X-251215Y110955D01*
X-250961Y109755D01*
X-250736Y108548D01*
X-250541Y107337D01*
X-250376Y106121D01*
X-250241Y104901D01*
X-250135Y103678D01*
X-250060Y102453D01*
X-250015Y101227D01*
X-250000Y100000D01*
X-250015Y98773D01*
X-250060Y97547D01*
X-250135Y96322D01*
X-250241Y95099D01*
X-250376Y93879D01*
X-250541Y92663D01*
X-250736Y91452D01*
X-250961Y90245D01*
X-251215Y89045D01*
X-251498Y87851D01*
X-251811Y86664D01*
X-252153Y85486D01*
X-252524Y84316D01*
X-252923Y83156D01*
X-253350Y82005D01*
X-253806Y80866D01*
X-254290Y79738D01*
X-254801Y78622D01*
X-255339Y77519D01*
X-255904Y76430D01*
X-256496Y75355D01*
X-257114Y74295D01*
X-257757Y73250D01*
X-258427Y72221D01*
X-259121Y71210D01*
X-259840Y70215D01*
X-260583Y69238D01*
X-261349Y68280D01*
X-262140Y67341D01*
X-262952Y66422D01*
X-263788Y65523D01*
X-264645Y64645D01*
X-265523Y63788D01*
X-266422Y62952D01*
X-267341Y62140D01*
X-268280Y61349D01*
X-269238Y60583D01*
X-270215Y59840D01*
X-271210Y59121D01*
X-272221Y58427D01*
X-273250Y57757D01*
X-274295Y57114D01*
X-275355Y56496D01*
X-276430Y55904D01*
X-277519Y55339D01*
X-278622Y54801D01*
X-279738Y54290D01*
X-280866Y53806D01*
X-282005Y53350D01*
X-283156Y52923D01*
X-284316Y52524D01*
X-285486Y52153D01*
X-286664Y51811D01*
X-287851Y51498D01*
X-289045Y51215D01*
X-290245Y50961D01*
X-291452Y50736D01*
X-292663Y50541D01*
X-293879Y50376D01*
X-295099Y50241D01*
X-296322Y50135D01*
X-297547Y50060D01*
X-298773Y50015D01*
X-300000Y50000D01*
X-301227Y50015D01*
X-302453Y50060D01*
X-303678Y50135D01*
X-304901Y50241D01*
X-306121Y50376D01*
X-307337Y50541D01*
X-308548Y50736D01*
X-309755Y50961D01*
X-310955Y51215D01*
X-312149Y51498D01*
X-313336Y51811D01*
X-314514Y52153D01*
X-315684Y52524D01*
X-316844Y52923D01*
X-317995Y53350D01*
X-319134Y53806D01*
X-320262Y54290D01*
X-321378Y54801D01*
X-322481Y55339D01*
X-323570Y55904D01*
X-324645Y56496D01*
X-325705Y57114D01*
X-326750Y57757D01*
X-327779Y58427D01*
X-328790Y59121D01*
X-329785Y59840D01*
X-330762Y60583D01*
X-331720Y61349D01*
X-332659Y62140D01*
X-333578Y62952D01*
X-334477Y63788D01*
X-335355Y64645D01*
X-336212Y65523D01*
X-337048Y66422D01*
X-337860Y67341D01*
X-338651Y68280D01*
X-339417Y69238D01*
X-340160Y70215D01*
X-340879Y71210D01*
X-341573Y72221D01*
X-342243Y73250D01*
X-342886Y74295D01*
X-343504Y75355D01*
X-344096Y76430D01*
X-344661Y77519D01*
X-345199Y78622D01*
X-345710Y79738D01*
X-346194Y80866D01*
X-346650Y82005D01*
X-347077Y83156D01*
X-347476Y84316D01*
X-347847Y85486D01*
X-348189Y86664D01*
X-348502Y87851D01*
X-348785Y89045D01*
X-349039Y90245D01*
X-349264Y91452D01*
X-349459Y92663D01*
X-349624Y93879D01*
X-349759Y95099D01*
X-349865Y96322D01*
X-349940Y97547D01*
X-349985Y98773D01*
X-350000Y100000D01*
D15*
X-300000Y100000D03*
D14*
X-250000Y200000D02*
X-249985Y201227D01*
X-249940Y202453D01*
X-249865Y203678D01*
X-249759Y204901D01*
X-249624Y206121D01*
X-249459Y207337D01*
X-249264Y208548D01*
X-249039Y209755D01*
X-248785Y210955D01*
X-248502Y212149D01*
X-248189Y213336D01*
X-247847Y214514D01*
X-247476Y215684D01*
X-247077Y216844D01*
X-246650Y217995D01*
X-246194Y219134D01*
X-245710Y220262D01*
X-245199Y221378D01*
X-244661Y222481D01*
X-244096Y223570D01*
X-243504Y224645D01*
X-242886Y225705D01*
X-242243Y226750D01*
X-241573Y227779D01*
X-240879Y228790D01*
X-240160Y229785D01*
X-239417Y230762D01*
X-238651Y231720D01*
X-237860Y232659D01*
X-237048Y233578D01*
X-236212Y234477D01*
X-235355Y235355D01*
X-234477Y236212D01*
X-233578Y237048D01*
X-232659Y237860D01*
X-231720Y238651D01*
X-230762Y239417D01*
X-229785Y240160D01*
X-228790Y240879D01*
X-227779Y241573D01*
X-226750Y242243D01*
X-225705Y242886D01*
X-224645Y243504D01*
X-223570Y244096D01*
X-222481Y244661D01*
X-221378Y245199D01*
X-220262Y245710D01*
X-219134Y246194D01*
X-217995Y246650D01*
X-216844Y247077D01*
X-215684Y247476D01*
X-214514Y247847D01*
X-213336Y248189D01*
X-212149Y248502D01*
X-210955Y248785D01*
X-209755Y249039D01*
X-208548Y249264D01*
X-207337Y249459D01*
X-206121Y249624D01*
X-204901Y249759D01*
X-203678Y249865D01*
X-202453Y249940D01*
X-201227Y249985D01*
X-200000Y250000D01*
X-198773Y249985D01*
X-197547Y249940D01*
X-196322Y249865D01*
X-195099Y249759D01*
X-193879Y249624D01*
X-192663Y249459D01*
X-191452Y249264D01*
X-190245Y249039D01*
X-189045Y248785D01*
X-187851Y248502D01*
X-186664Y248189D01*
X-185486Y247847D01*
X-184316Y247476D01*
X-183156Y247077D01*
X-182005Y246650D01*
X-180866Y246194D01*
X-179738Y245710D01*
X-178622Y245199D01*
X-177519Y244661D01*
X-176430Y244096D01*
X-175355Y243504D01*
X-174295Y242886D01*
X-173250Y242243D01*
X-172221Y241573D01*
X-171210Y240879D01*
X-170215Y240160D01*
X-169238Y239417D01*
X-168280Y238651D01*
X-167341Y237860D01*
X-166422Y237048D01*
X-165523Y236212D01*
X-164645Y235355D01*
X-163788Y234477D01*
X-162952Y233578D01*
X-162140Y232659D01*
X-161349Y231720D01*
X-160583Y230762D01*
X-159840Y229785D01*
X-159121Y228790D01*
X-158427Y227779D01*
X-157757Y226750D01*
X-157114Y225705D01*
X-156496Y224645D01*
X-155904Y223570D01*
X-155339Y222481D01*
X-154801Y221378D01*
X-154290Y220262D01*
X-153806Y219134D01*
X-153350Y217995D01*
X-152923Y216844D01*
X-152524Y215684D01*
X-152153Y214514D01*
X-151811Y213336D01*
X-151498Y212149D01*
X-151215Y210955D01*
X-150961Y209755D01*
X-150736Y208548D01*
X-150541Y207337D01*
X-150376Y206121D01*
X-150241Y204901D01*
X-150135Y203678D01*
X-150060Y202453D01*
X-150015Y201227D01*
X-150000Y200000D01*
X-150015Y198773D01*
X-150060Y197547D01*
X-150135Y196322D01*
X-150241Y195099D01*
X-150376Y193879D01*
X-150541Y192663D01*
X-150736Y191452D01*
X-150961Y190245D01*
X-151215Y189045D01*
X-151498Y187851D01*
X-151811Y186664D01*
X-152153Y185486D01*
X-152524Y184316D01*
X-152923Y183156D01*
X-153350Y182005D01*
X-153806Y180866D01*
X-154290Y179738D01*
X-154801Y178622D01*
X-155339Y177519D01*
X-155904Y176430D01*
X-156496Y175355D01*
X-157114Y174295D01*
X-157757Y173250D01*
X-158427Y172221D01*
X-159121Y171210D01*
X-159840Y170215D01*
X-160583Y169238D01*
X-161349Y168280D01*
X-162140Y167341D01*
X-162952Y166422D01*
X-163788Y165523D01*
X-164645Y164645D01*
X-165523Y163788D01*
X-166422Y162952D01*
X-167341Y162140D01*
X-168280Y161349D01*
X-169238Y160583D01*
X-170215Y159840D01*
X-171210Y159121D01*
X-172221Y158427D01*
X-173250Y157757D01*
X-174295Y157114D01*
X-175355Y156496D01*
X-176430Y155904D01*
X-177519Y155339D01*
X-178622Y154801D01*
X-179738Y154290D01*
X-180866Y153806D01*
X-182005Y153350D01*
X-183156Y152923D01*
X-184316Y152524D01*
X-185486Y152153D01*
X-186664Y151811D01*
X-187851Y151498D01*
X-189045Y151215D01*
X-190245Y150961D01*
X-191452Y150736D01*
X-192663Y150541D01*
X-193879Y150376D01*
X-195099Y150241D01*
X-196322Y150135D01*
X-197547Y150060D01*
X-198773Y150015D01*
X-200000Y150000D01*
X-201227Y150015D01*
X-202453Y150060D01*
X-203678Y150135D01*
X-204901Y150241D01*
X-206121Y150376D01*
X-207337Y150541D01*
X-208548Y150736D01*
X-209755Y150961D01*
X-210955Y151215D01*
X-212149Y151498D01*
X-213336Y151811D01*
X-214514Y152153D01*
X-215684Y152524D01*
X-216844Y152923D01*
X-217995Y153350D01*
X-219134Y153806D01*
X-220262Y154290D01*
X-221378Y154801D01*
X-222481Y155339D01*
X-223570Y155904D01*
X-224645Y156496D01*
X-225705Y157114D01*
X-226750Y157757D01*
X-227779Y158427D01*
X-228790Y159121D01*
X-229785Y159840D01*
X-230762Y160583D01*
X-231720Y161349D01*
X-232659Y162140D01*
X-233578Y162952D01*
X-234477Y163788D01*
X-235355Y164645D01*
X-236212Y165523D01*
X-237048Y166422D01*
X-237860Y167341D01*
X-238651Y168280D01*
X-239417Y169238D01*
X-240160Y170215D01*
X-240879Y171210D01*
X-241573Y172221D01*
X-242243Y173250D01*
X-242886Y174295D01*
X-243504Y175355D01*
X-244096Y176430D01*
X-244661Y177519D01*
X-245199Y178622D01*
X-245710Y179738D01*
X-246194Y180866D01*
X-246650Y182005D01*
X-247077Y183156D01*
X-247476Y184316D01*
X-247847Y185486D01*
X-248189Y186664D01*
X-248502Y187851D01*
X-248785Y189045D01*
X-249039Y190245D01*
X-249264Y191452D01*
X-249459Y192663D01*
X-249624Y193879D01*
X-249759Y195099D01*
X-249865Y196322D01*
X-249940Y197547D01*
X-249985Y198773D01*
X-250000Y200000D01*
D15*
X-200000Y200000D03*
D14*
X-150000Y100000D02*
X-149985Y101227D01*
X-149940Y102453D01*
X-149865Y103678D01*
X-149759Y104901D01*
X-149624Y106121D01*
X-149459Y107337D01*
X-149264Y108548D01*
X-149039Y109755D01*
X-148785Y110955D01*
X-148502Y112149D01*
X-148189Y113336D01*
X-147847Y114514D01*
X-147476Y115684D01*
X-147077Y116844D01*
X-146650Y117995D01*
X-146194Y119134D01*
X-145710Y120262D01*
X-145199Y121378D01*
X-144661Y122481D01*
X-144096Y123570D01*
X-143504Y124645D01*
X-142886Y125705D01*
X-142243Y126750D01*
X-141573Y127779D01*
X-140879Y128790D01*
X-140160Y129785D01*
X-139417Y130762D01*
X-138651Y131720D01*
X-137860Y132659D01*
X-137048Y133578D01*
X-136212Y134477D01*
X-135355Y135355D01*
X-134477Y136212D01*
X-133578Y137048D01*
X-132659Y137860D01*
X-131720Y138651D01*
X-130762Y139417D01*
X-129785Y140160D01*
X-128790Y140879D01*
X-127779Y141573D01*
X-126750Y142243D01*
X-125705Y142886D01*
X-124645Y143504D01*
X-123570Y144096D01*
X-122481Y144661D01*
X-121378Y145199D01*
X-120262Y145710D01*
X-119134Y146194D01*
X-117995Y146650D01*
X-116844Y147077D01*
X-115684Y147476D01*
X-114514Y147847D01*
X-113336Y148189D01*
X-112149Y148502D01*
X-110955Y148785D01*
X-109755Y149039D01*
X-108548Y149264D01*
X-107337Y149459D01*
X-106121Y149624D01*
X-104901Y149759D01*
X-103678Y149865D01*
X-102453Y149940D01*
X-101227Y149985D01*
X-100000Y150000D01*
X-98773Y149985D01*
X-97547Y149940D01*
X-96322Y149865D01*
X-95099Y149759D01*
X-93879Y149624D01*
X-92663Y149459D01*
X-91452Y149264D01*
X-90245Y149039D01*
X-89045Y148785D01*
X-87851Y148502D01*
X-86664Y148189D01*
X-85486Y147847D01*
X-84316Y147476D01*
X-83156Y147077D01*
X-82005Y146650D01*
X-80866Y146194D01*
X-79738Y145710D01*
X-78622Y145199D01*
X-77519Y144661D01*
X-76430Y144096D01*
X-75355Y143504D01*
X-74295Y142886D01*
X-73250Y142243D01*
X-72221Y141573D01*
X-71210Y140879D01*
X-70215Y140160D01*
X-69238Y139417D01*
X-68280Y138651D01*
X-67341Y137860D01*
X-66422Y137048D01*
X-65523Y136212D01*
X-64645Y135355D01*
X-63788Y134477D01*
X-62952Y133578D01*
X-62140Y132659D01*
X-61349Y131720D01*
X-60583Y130762D01*
X-59840Y129785D01*
X-59121Y128790D01*
X-58427Y127779D01*
X-57757Y126750D01*
X-57114Y125705D01*
X-56496Y124645D01*
X-55904Y123570D01*
X-55339Y122481D01*
X-54801Y121378D01*
X-54290Y120262D01*
X-53806Y119134D01*
X-53350Y117995D01*
X-52923Y116844D01*
X-52524Y115684D01*
X-52153Y114514D01*
X-51811Y113336D01*
X-51498Y112149D01*
X-51215Y110955D01*
X-50961Y109755D01*
X-50736Y108548D01*
X-50541Y107337D01*
X-50376Y106121D01*
X-50241Y104901D01*
X-50135Y103678D01*
X-50060Y102453D01*
X-50015Y101227D01*
X-50000Y100000D01*
X-50015Y98773D01*
X-50060Y97547D01*
X-50135Y96322D01*
X-50241Y95099D01*
X-50376Y93879D01*
X-50541Y92663D01*
X-50736Y91452D01*
X-50961Y90245D01*
X-51215Y89045D01*
X-51498Y87851D01*
X-51811Y86664D01*
X-52153Y85486D01*
X-52524Y84316D01*
X-52923Y83156D01*
X-53350Y82005D01*
X-53806Y80866D01*
X-54290Y79738D01*
X-54801Y78622D01*
X-55339Y77519D01*
X-55904Y76430D01*
X-56496Y75355D01*
X-57114Y74295D01*
X-57757Y73250D01*
X-58427Y72221D01*
X-59121Y71210D01*
X-59840Y70215D01*
X-60583Y69238D01*
X-61349Y68280D01*
X-62140Y67341D01*
X-62952Y66422D01*
X-63788Y65523D01*
X-64645Y64645D01*
X-65523Y63788D01*
X-66422Y62952D01*
X-67341Y62140D01*
X-68280Y61349D01*
X-69238Y60583D01*
X-70215Y59840D01*
X-71210Y59121D01*
X-72221Y58427D01*
X-73250Y57757D01*
X-74295Y57114D01*
X-75355Y56496D01*
X-76430Y55904D01*
X-77519Y55339D01*
X-78622Y54801D01*
X-79738Y54290D01*
X-80866Y53806D01*
X-82005Y53350D01*
X-83156Y52923D01*
X-84316Y52524D01*
X-85486Y52153D01*
X-86664Y51811D01*
X-87851Y51498D01*
X-89045Y51215D01*
X-90245Y50961D01*
X-91452Y50736D01*
X-92663Y50541D01*
X-93879Y50376D01*
X-95099Y50241D01*
X-96322Y50135D01*
X-97547Y50060D01*
X-98773Y50015D01*
X-100000Y50000D01*
X-101227Y50015D01*
X-102453Y50060D01*
X-103678Y50135D01*
X-104901Y50241D01*
X-106121Y50376D01*
X-107337Y50541D01*
X-108548Y50736D01*
X-109755Y50961D01*
X-110955Y51215D01*
X-112149Y51498D01*
X-113336Y51811D01*
X-114514Y52153D01*
X-115684Y52524D01*
X-116844Y52923D01*
X-117995Y53350D01*
X-119134Y53806D01*
X-120262Y54290D01*
X-121378Y54801D01*
X-122481Y55339D01*
X-123570Y55904D01*
X-124645Y56496D01*
X-125705Y57114D01*
X-126750Y57757D01*
X-127779Y58427D01*
X-128790Y59121D01*
X-129785Y59840D01*
X-130762Y60583D01*
X-131720Y61349D01*
X-132659Y62140D01*
X-133578Y62952D01*
X-134477Y63788D01*
X-135355Y64645D01*
X-136212Y65523D01*
X-137048Y66422D01*
X-137860Y67341D01*
X-138651Y68280D01*
X-139417Y69238D01*
X-140160Y70215D01*
X-140879Y71210D01*
X-141573Y72221D01*
X-142243Y73250D01*
X-142886Y74295D01*
X-143504Y75355D01*
X-144096Y76430D01*
X-144661Y77519D01*
X-145199Y78622D01*
X-145710Y79738D01*
X-146194Y80866D01*
X-146650Y82005D01*
X-147077Y83156D01*
X-147476Y84316D01*
X-147847Y85486D01*
X-148189Y86664D01*
X-148502Y87851D01*
X-148785Y89045D01*
X-149039Y90245D01*
X-149264Y91452D01*
X-149459Y92663D01*
X-149624Y93879D01*
X-149759Y95099D01*
X-149865Y96322D01*
X-149940Y97547D01*
X-149985Y98773D01*
X-150000Y100000D01*
D15*
X-100000Y100000D03*
D14*
X-50000Y200000D02*
X-49985Y201227D01*
X-49940Y202453D01*
X-49865Y203678D01*
X-49759Y204901D01*
X-49624Y206121D01*
X-49459Y207337D01*
X-49264Y208548D01*
X-49039Y209755D01*
X-48785Y210955D01*
X-48502Y212149D01*
X-48189Y213336D01*
X-47847Y214514D01*
X-47476Y215684D01*
X-47077Y216844D01*
X-46650Y217995D01*
X-46194Y219134D01*
X-45710Y220262D01*
X-45199Y221378D01*
X-44661Y222481D01*
X-44096Y223570D01*
X-43504Y224645D01*
X-42886Y225705D01*
X-42243Y226750D01*
X-41573Y227779D01*
X-40879Y228790D01*
X-40160Y229785D01*
X-39417Y230762D01*
X-38651Y231720D01*
X-37860Y232659D01*
X-37048Y233578D01*
X-36212Y234477D01*
X-35355Y235355D01*
X-34477Y236212D01*
X-33578Y237048D01*
X-32659Y237860D01*
X-31720Y238651D01*
X-30762Y239417D01*
X-29785Y240160D01*
X-28790Y240879D01*
X-27779Y241573D01*
X-26750Y242243D01*
X-25705Y242886D01*
X-24645Y243504D01*
X-23570Y244096D01*
X-22481Y244661D01*
X-21378Y245199D01*
X-20262Y245710D01*
X-19134Y246194D01*
X-17995Y246650D01*
X-16844Y247077D01*
X-15684Y247476D01*
X-14514Y247847D01*
X-13336Y248189D01*
X-12149Y248502D01*
X-10955Y248785D01*
X-9755Y249039D01*
X-8548Y249264D01*
X-7337Y249459D01*
X-6121Y249624D01*
X-4901Y249759D01*
X-3678Y249865D01*
X-2453Y249940D01*
X-1227Y249985D01*
X0Y250000D01*
X1227Y249985D01*
X2453Y249940D01*
X3678Y249865D01*
X4901Y249759D01*
X6121Y249624D01*
X7337Y249459D01*
X8548Y249264D01*
X9755Y249039D01*
X10955Y248785D01*
X12149Y248502D01*
X13336Y248189D01*
X14514Y247847D01*
X15684Y247476D01*
X16844Y247077D01*
X17995Y246650D01*
X19134Y246194D01*
X20262Y245710D01*
X21378Y245199D01*
X22481Y244661D01*
X23570Y244096D01*
X24645Y243504D01*
X25705Y242886D01*
X26750Y242243D01*
X27779Y241573D01*
X28790Y240879D01*
X29785Y240160D01*
X30762Y239417D01*
X31720Y238651D01*
X32659Y237860D01*
X33578Y237048D01*
X34477Y236212D01*
X35355Y235355D01*
X36212Y234477D01*
X37048Y233578D01*
X37860Y232659D01*
X38651Y231720D01*
X39417Y230762D01*
X40160Y229785D01*
X40879Y228790D01*
X41573Y227779D01*
X42243Y226750D01*
X42886Y225705D01*
X43504Y224645D01*
X44096Y223570D01*
X44661Y222481D01*
X45199Y221378D01*
X45710Y220262D01*
X46194Y219134D01*
X46650Y217995D01*
X47077Y216844D01*
X47476Y215684D01*
X47847Y214514D01*
X48189Y213336D01*
X48502Y212149D01*
X48785Y210955D01*
X49039Y209755D01*
X49264Y208548D01*
X49459Y207337D01*
X49624Y206121D01*
X49759Y204901D01*
X49865Y203678D01*
X49940Y202453D01*
X49985Y201227D01*
X50000Y200000D01*
X49985Y198773D01*
X49940Y197547D01*
X49865Y196322D01*
X49759Y195099D01*
X49624Y193879D01*
X49459Y192663D01*
X49264Y191452D01*
X49039Y190245D01*
X48785Y189045D01*
X48502Y187851D01*
X48189Y186664D01*
X47847Y185486D01*
X47476Y184316D01*
X47077Y183156D01*
X46650Y182005D01*
X46194Y180866D01*
X45710Y179738D01*
X45199Y178622D01*
X44661Y177519D01*
X44096Y176430D01*
X43504Y175355D01*
X42886Y174295D01*
X42243Y173250D01*
X41573Y172221D01*
X40879Y171210D01*
X40160Y170215D01*
X39417Y169238D01*
X38651Y168280D01*
X37860Y167341D01*
X37048Y166422D01*
X36212Y165523D01*
X35355Y164645D01*
X34477Y163788D01*
X33578Y162952D01*
X32659Y162140D01*
X31720Y161349D01*
X30762Y160583D01*
X29785Y159840D01*
X28790Y159121D01*
X27779Y158427D01*
X26750Y157757D01*
X25705Y157114D01*
X24645Y156496D01*
X23570Y155904D01*
X22481Y155339D01*
X21378Y154801D01*
X20262Y154290D01*
X19134Y153806D01*
X17995Y153350D01*
X16844Y152923D01*
X15684Y152524D01*
X14514Y152153D01*
X13336Y151811D01*
X12149Y151498D01*
X10955Y151215D01*
X9755Y150961D01*
X8548Y150736D01*
X7337Y150541D01*
X6121Y150376D01*
X4901Y150241D01*
X3678Y150135D01*
X2453Y150060D01*
X1227Y150015D01*
X0Y150000D01*
X-1227Y150015D01*
X-2453Y150060D01*
X-3678Y150135D01*
X-4901Y150241D01*
X-6121Y150376D01*
X-7337Y150541D01*
X-8548Y150736D01*
X-9755Y150961D01*
X-10955Y151215D01*
X-12149Y151498D01*
X-13336Y151811D01*
X-14514Y152153D01*
X-15684Y152524D01*
X-16844Y152923D01*
X-17995Y153350D01*
X-19134Y153806D01*
X-20262Y154290D01*
X-21378Y154801D01*
X-22481Y155339D01*
X-23570Y155904D01*
X-24645Y156496D01*
X-25705Y157114D01*
X-26750Y157757D01*
X-27779Y158427D01*
X-28790Y159121D01*
X-29785Y159840D01*
X-30762Y160583D01*
X-31720Y161349D01*
X-32659Y162140D01*
X-33578Y162952D01*
X-34477Y163788D01*
X-35355Y164645D01*
X-36212Y165523D01*
X-37048Y166422D01*
X-37860Y167341D01*
X-38651Y168280D01*
X-39417Y169238D01*
X-40160Y170215D01*
X-40879Y171210D01*
X-41573Y172221D01*
X-42243Y173250D01*
X-42886Y174295D01*
X-43504Y175355D01*
X-44096Y176430D01*
X-44661Y177519D01*
X-45199Y178622D01*
X-45710Y179738D01*
X-46194Y180866D01*
X-46650Y182005D01*
X-47077Y183156D01*
X-47476Y184316D01*
X-47847Y185486D01*
X-48189Y186664D01*
X-48502Y187851D01*
X-48785Y189045D01*
X-49039Y190245D01*
X-49264Y191452D01*
X-49459Y192663D01*
X-49624Y193879D01*
X-49759Y195099D01*
X-49865Y196322D01*
X-49940Y197547D01*
X-49985Y198773D01*
X-50000Y200000D01*
D15*
X0Y200000D03*
D14*
X50000Y100000D02*
X50015Y101227D01*
X50060Y102453D01*
X50135Y103678D01*
X50241Y104901D01*
X50376Y106121D01*
X50541Y107337D01*
X50736Y108548D01*
X50961Y109755D01*
X51215Y110955D01*
X51498Y112149D01*
X51811Y113336D01*
X52153Y114514D01*
X52524Y115684D01*
X52923Y116844D01*
X53350Y117995D01*
X53806Y119134D01*
X54290Y120262D01*
X54801Y121378D01*
X55339Y122481D01*
X55904Y123570D01*
X56496Y124645D01*
X57114Y125705D01*
X57757Y126750D01*
X58427Y127779D01*
X59121Y128790D01*
X59840Y129785D01*
X60583Y130762D01*
X61349Y131720D01*
X62140Y132659D01*
X62952Y133578D01*
X63788Y134477D01*
X64645Y135355D01*
X65523Y136212D01*
X66422Y137048D01*
X67341Y137860D01*
X68280Y138651D01*
X69238Y139417D01*
X70215Y140160D01*
X71210Y140879D01*
X72221Y141573D01*
X73250Y142243D01*
X74295Y142886D01*
X75355Y143504D01*
X76430Y144096D01*
X77519Y144661D01*
X78622Y145199D01*
X79738Y145710D01*
X80866Y146194D01*
X82005Y146650D01*
X83156Y147077D01*
X84316Y147476D01*
X85486Y147847D01*
X86664Y148189D01*
X87851Y148502D01*
X89045Y148785D01*
X90245Y149039D01*
X91452Y149264D01*
X92663Y149459D01*
X93879Y149624D01*
X95099Y149759D01*
X96322Y149865D01*
X97547Y149940D01*
X98773Y149985D01*
X100000Y150000D01*
X101227Y149985D01*
X102453Y149940D01*
X103678Y149865D01*
X104901Y149759D01*
X106121Y149624D01*
X107337Y149459D01*
X108548Y149264D01*
X109755Y149039D01*
X110955Y148785D01*
X112149Y148502D01*
X113336Y148189D01*
X114514Y147847D01*
X115684Y147476D01*
X116844Y147077D01*
X117995Y146650D01*
X119134Y146194D01*
X120262Y145710D01*
X121378Y145199D01*
X122481Y144661D01*
X123570Y144096D01*
X124645Y143504D01*
X125705Y142886D01*
X126750Y142243D01*
X127779Y141573D01*
X128790Y140879D01*
X129785Y140160D01*
X130762Y139417D01*
X131720Y138651D01*
X132659Y137860D01*
X133578Y137048D01*
X134477Y136212D01*
X135355Y135355D01*
X136212Y134477D01*
X137048Y133578D01*
X137860Y132659D01*
X138651Y131720D01*
X139417Y130762D01*
X140160Y129785D01*
X140879Y128790D01*
X141573Y127779D01*
X142243Y126750D01*
X142886Y125705D01*
X143504Y124645D01*
X144096Y123570D01*
X144661Y122481D01*
X145199Y121378D01*
X145710Y120262D01*
X146194Y119134D01*
X146650Y117995D01*
X147077Y116844D01*
X147476Y115684D01*
X147847Y114514D01*
X148189Y113336D01*
X148502Y112149D01*
X148785Y110955D01*
X149039Y109755D01*
X149264Y108548D01*
X149459Y107337D01*
X149624Y106121D01*
X149759Y104901D01*
X149865Y103678D01*
X149940Y102453D01*
X149985Y101227D01*
X150000Y100000D01*
X149985Y98773D01*
X149940Y97547D01*
X149865Y96322D01*
X149759Y95099D01*
X149624Y93879D01*
X149459Y92663D01*
X149264Y91452D01*
X149039Y90245D01*
X148785Y89045D01*
X148502Y87851D01*
X148189Y86664D01*
X147847Y85486D01*
X147476Y84316D01*
X147077Y83156D01*
X146650Y82005D01*
X146194Y80866D01*
X145710Y79738D01*
X145199Y78622D01*
X144661Y77519D01*
X144096Y76430D01*
X143504Y75355D01*
X142886Y74295D01*
X142243Y73250D01*
X141573Y72221D01*
X140879Y71210D01*
X140160Y70215D01*
X139417Y69238D01*
X138651Y68280D01*
X137860Y67341D01*
X137048Y66422D01*
X136212Y65523D01*
X135355Y64645D01*
X134477Y63788D01*
X133578Y62952D01*
X132659Y62140D01*
X131720Y61349D01*
X130762Y60583D01*
X129785Y59840D01*
X128790Y59121D01*
X127779Y58427D01*
X126750Y57757D01*
X125705Y57114D01*
X124645Y56496D01*
X123570Y55904D01*
X122481Y55339D01*
X121378Y54801D01*
X120262Y54290D01*
X119134Y53806D01*
X117995Y53350D01*
X116844Y52923D01*
X115684Y52524D01*
X114514Y52153D01*
X113336Y51811D01*
X112149Y51498D01*
X110955Y51215D01*
X109755Y50961D01*
X108548Y50736D01*
X107337Y50541D01*
X106121Y50376D01*
X104901Y50241D01*
X103678Y50135D01*
X102453Y50060D01*
X101227Y50015D01*
X100000Y50000D01*
X98773Y50015D01*
X97547Y50060D01*
X96322Y50135D01*
X95099Y50241D01*
X93879Y50376D01*
X92663Y50541D01*
X91452Y50736D01*
X90245Y50961D01*
X89045Y51215D01*
X87851Y51498D01*
X86664Y51811D01*
X85486Y52153D01*
X84316Y52524D01*
X83156Y52923D01*
X82005Y53350D01*
X80866Y53806D01*
X79738Y54290D01*
X78622Y54801D01*
X77519Y55339D01*
X76430Y55904D01*
X75355Y56496D01*
X74295Y57114D01*
X73250Y57757D01*
X72221Y58427D01*
X71210Y59121D01*
X70215Y59840D01*
X69238Y60583D01*
X68280Y61349D01*
X67341Y62140D01*
X66422Y62952D01*
X65523Y63788D01*
X64645Y64645D01*
X63788Y65523D01*
X62952Y66422D01*
X62140Y67341D01*
X61349Y68280D01*
X60583Y69238D01*
X59840Y70215D01*
X59121Y71210D01*
X58427Y72221D01*
X57757Y73250D01*
X57114Y74295D01*
X56496Y75355D01*
X55904Y76430D01*
X55339Y77519D01*
X54801Y78622D01*
X54290Y79738D01*
X53806Y80866D01*
X53350Y82005D01*
X52923Y83156D01*
X52524Y84316D01*
X52153Y85486D01*
X51811Y86664D01*
X51498Y87851D01*
X51215Y89045D01*
X50961Y90245D01*
X50736Y91452D01*
X50541Y92663D01*
X50376Y93879D01*
X50241Y95099D01*
X50135Y96322D01*
X50060Y97547D01*
X50015Y98773D01*
X50000Y100000D01*
D15*
X100000Y100000D03*
D14*
X150000Y200000D02*
X150015Y201227D01*
X150060Y202453D01*
X150135Y203678D01*
X150241Y204901D01*
X150376Y206121D01*
X150541Y207337D01*
X150736Y208548D01*
X150961Y209755D01*
X151215Y210955D01*
X151498Y212149D01*
X151811Y213336D01*
X152153Y214514D01*
X152524Y215684D01*
X152923Y216844D01*
X153350Y217995D01*
X153806Y219134D01*
X154290Y220262D01*
X154801Y221378D01*
X155339Y222481D01*
X155904Y223570D01*
X156496Y224645D01*
X157114Y225705D01*
X157757Y226750D01*
X158427Y227779D01*
X159121Y228790D01*
X159840Y229785D01*
X160583Y230762D01*
X161349Y231720D01*
X162140Y232659D01*
X162952Y233578D01*
X163788Y234477D01*
X164645Y235355D01*
X165523Y236212D01*
X166422Y237048D01*
X167341Y237860D01*
X168280Y238651D01*
X169238Y239417D01*
X170215Y240160D01*
X171210Y240879D01*
X172221Y241573D01*
X173250Y242243D01*
X174295Y242886D01*
X175355Y243504D01*
X176430Y244096D01*
X177519Y244661D01*
X178622Y245199D01*
X179738Y245710D01*
X180866Y246194D01*
X182005Y246650D01*
X183156Y247077D01*
X184316Y247476D01*
X185486Y247847D01*
X186664Y248189D01*
X187851Y248502D01*
X189045Y248785D01*
X190245Y249039D01*
X191452Y249264D01*
X192663Y249459D01*
X193879Y249624D01*
X195099Y249759D01*
X196322Y249865D01*
X197547Y249940D01*
X198773Y249985D01*
X200000Y250000D01*
X201227Y249985D01*
X202453Y249940D01*
X203678Y249865D01*
X204901Y249759D01*
X206121Y249624D01*
X207337Y249459D01*
X208548Y249264D01*
X209755Y249039D01*
X210955Y248785D01*
X212149Y248502D01*
X213336Y248189D01*
X214514Y247847D01*
X215684Y247476D01*
X216844Y247077D01*
X217995Y246650D01*
X219134Y246194D01*
X220262Y245710D01*
X221378Y245199D01*
X222481Y244661D01*
X223570Y244096D01*
X224645Y243504D01*
X225705Y242886D01*
X226750Y242243D01*
X227779Y241573D01*
X228790Y240879D01*
X229785Y240160D01*
X230762Y239417D01*
X231720Y238651D01*
X232659Y237860D01*
X233578Y237048D01*
X234477Y236212D01*
X235355Y235355D01*
X236212Y234477D01*
X237048Y233578D01*
X237860Y232659D01*
X238651Y231720D01*
X239417Y230762D01*
X240160Y229785D01*
X240879Y228790D01*
X241573Y227779D01*
X242243Y226750D01*
X242886Y225705D01*
X243504Y224645D01*
X244096Y223570D01*
X244661Y222481D01*
X245199Y221378D01*
X245710Y220262D01*
X246194Y219134D01*
X246650Y217995D01*
X247077Y216844D01*
X247476Y215684D01*
X247847Y214514D01*
X248189Y213336D01*
X248502Y212149D01*
X248785Y210955D01*
X249039Y209755D01*
X249264Y208548D01*
X249459Y207337D01*
X249624Y206121D01*
X249759Y204901D01*
X249865Y203678D01*
X249940Y202453D01*
X249985Y201227D01*
X250000Y200000D01*
X249985Y198773D01*
X249940Y197547D01*
X249865Y196322D01*
X249759Y195099D01*
X249624Y193879D01*
X249459Y192663D01*
X249264Y191452D01*
X249039Y190245D01*
X248785Y189045D01*
X248502Y187851D01*
X248189Y186664D01*
X247847Y185486D01*
X247476Y184316D01*
X247077Y183156D01*
X246650Y182005D01*
X246194Y180866D01*
X245710Y179738D01*
X245199Y178622D01*
X244661Y177519D01*
X244096Y176430D01*
X243504Y175355D01*
X242886Y174295D01*
X242243Y173250D01*
X241573Y172221D01*
X240879Y171210D01*
X240160Y170215D01*
X239417Y169238D01*
X238651Y168280D01*
X237860Y167341D01*
X237048Y166422D01*
X236212Y165523D01*
X235355Y164645D01*
X234477Y163788D01*
X233578Y162952D01*
X232659Y162140D01*
X231720Y161349D01*
X230762Y160583D01*
X229785Y159840D01*
X228790Y159121D01*
X227779Y158427D01*
X226750Y157757D01*
X225705Y157114D01*
X224645Y156496D01*
X223570Y155904D01*
X222481Y155339D01*
X221378Y154801D01*
X220262Y154290D01*
X219134Y153806D01*
X217995Y153350D01*
X216844Y152923D01*
X215684Y152524D01*
X214514Y152153D01*
X213336Y151811D01*
X212149Y151498D01*
X210955Y151215D01*
X209755Y150961D01*
X208548Y150736D01*
X207337Y150541D01*
X206121Y150376D01*
X204901Y150241D01*
X203678Y150135D01*
X202453Y150060D01*
X201227Y150015D01*
X200000Y150000D01*
X198773Y150015D01*
X197547Y150060D01*
X196322Y150135D01*
X195099Y150241D01*
X193879Y150376D01*
X192663Y150541D01*
X191452Y150736D01*
X190245Y150961D01*
X189045Y151215D01*
X187851Y151498D01*
X186664Y151811D01*
X185486Y152153D01*
X184316Y152524D01*
X183156Y152923D01*
X182005Y153350D01*
X180866Y153806D01*
X179738Y154290D01*
X178622Y154801D01*
X177519Y155339D01*
X176430Y155904D01*
X175355Y156496D01*
X174295Y157114D01*
X173250Y157757D01*
X172221Y158427D01*
X171210Y159121D01*
X170215Y159840D01*
X169238Y160583D01*
X168280Y161349D01*
X167341Y162140D01*
X166422Y162952D01*
X165523Y163788D01*
X164645Y164645D01*
X163788Y165523D01*
X162952Y166422D01*
X162140Y167341D01*
X161349Y168280D01*
X160583Y169238D01*
X159840Y170215D01*
X159121Y171210D01*
X158427Y172221D01*
X157757Y173250D01*
X157114Y174295D01*
X156496Y175355D01*
X155904Y176430D01*
X155339Y177519D01*
X154801Y178622D01*
X154290Y179738D01*
X153806Y180866D01*
X153350Y182005D01*
X152923Y183156D01*
X152524Y184316D01*
X152153Y185486D01*
X151811Y186664D01*
X151498Y187851D01*
X151215Y189045D01*
X150961Y190245D01*
X150736Y191452D01*
X150541Y192663D01*
X150376Y193879D01*
X150241Y195099D01*
X150135Y196322D01*
X150060Y197547D01*
X150015Y198773D01*
X150000Y200000D01*
D15*
X200000Y200000D03*
D14*
X250000Y100000D02*
X250015Y101227D01*
X250060Y102453D01*
X250135Y103678D01*
X250241Y104901D01*
X250376Y106121D01*
X250541Y107337D01*
X250736Y108548D01*
X250961Y109755D01*
X251215Y110955D01*
X251498Y112149D01*
X251811Y113336D01*
X252153Y114514D01*
X252524Y115684D01*
X252923Y116844D01*
X253350Y117995D01*
X253806Y119134D01*
X254290Y120262D01*
X254801Y121378D01*
X255339Y122481D01*
X255904Y123570D01*
X256496Y124645D01*
X257114Y125705D01*
X257757Y126750D01*
X258427Y127779D01*
X259121Y128790D01*
X259840Y129785D01*
X260583Y130762D01*
X261349Y131720D01*
X262140Y132659D01*
X262952Y133578D01*
X263788Y134477D01*
X264645Y135355D01*
X265523Y136212D01*
X266422Y137048D01*
X267341Y137860D01*
X268280Y138651D01*
X269238Y139417D01*
X270215Y140160D01*
X271210Y140879D01*
X272221Y141573D01*
X273250Y142243D01*
X274295Y142886D01*
X275355Y143504D01*
X276430Y144096D01*
X277519Y144661D01*
X278622Y145199D01*
X279738Y145710D01*
X280866Y146194D01*
X282005Y146650D01*
X283156Y147077D01*
X284316Y147476D01*
X285486Y147847D01*
X286664Y148189D01*
X287851Y148502D01*
X289045Y148785D01*
X290245Y149039D01*
X291452Y149264D01*
X292663Y149459D01*
X293879Y149624D01*
X295099Y149759D01*
X296322Y149865D01*
X297547Y149940D01*
X298773Y149985D01*
X300000Y150000D01*
X301227Y149985D01*
X302453Y149940D01*
X303678Y149865D01*
X304901Y149759D01*
X306121Y149624D01*
X307337Y149459D01*
X308548Y149264D01*
X309755Y149039D01*
X310955Y148785D01*
X312149Y148502D01*
X313336Y148189D01*
X314514Y147847D01*
X315684Y147476D01*
X316844Y147077D01*
X317995Y146650D01*
X319134Y146194D01*
X320262Y145710D01*
X321378Y145199D01*
X322481Y144661D01*
X323570Y144096D01*
X324645Y143504D01*
X325705Y142886D01*
X326750Y142243D01*
X327779Y141573D01*
X328790Y140879D01*
X329785Y140160D01*
X330762Y139417D01*
X331720Y138651D01*
X332659Y137860D01*
X333578Y137048D01*
X334477Y136212D01*
X335355Y135355D01*
X336212Y134477D01*
X337048Y133578D01*
X337860Y132659D01*
X338651Y131720D01*
X339417Y130762D01*
X340160Y129785D01*
X340879Y128790D01*
X341573Y127779D01*
X342243Y126750D01*
X342886Y125705D01*
X343504Y124645D01*
X344096Y123570D01*
X344661Y122481D01*
X345199Y121378D01*
X345710Y120262D01*
X346194Y119134D01*
X346650Y117995D01*
X347077Y116844D01*
X347476Y115684D01*
X347847Y114514D01*
X348189Y113336D01*
X348502Y112149D01*
X348785Y110955D01*
X349039Y109755D01*
X349264Y108548D01*
X349459Y107337D01*
X349624Y106121D01*
X349759Y104901D01*
X349865Y103678D01*
X349940Y102453D01*
X349985Y101227D01*
X350000Y100000D01*
X349985Y98773D01*
X349940Y97547D01*
X349865Y96322D01*
X349759Y95099D01*
X349624Y93879D01*
X349459Y92663D01*
X349264Y91452D01*
X349039Y90245D01*
X348785Y89045D01*
X348502Y87851D01*
X348189Y86664D01*
X347847Y85486D01*
X347476Y84316D01*
X347077Y83156D01*
X346650Y82005D01*
X346194Y80866D01*
X345710Y79738D01*
X345199Y78622D01*
X344661Y77519D01*
X344096Y76430D01*
X343504Y75355D01*
X342886Y74295D01*
X342243Y73250D01*
X341573Y72221D01*
X340879Y71210D01*
X340160Y70215D01*
X339417Y69238D01*
X338651Y68280D01*
X337860Y67341D01*
X337048Y66422D01*
X336212Y65523D01*
X335355Y64645D01*
X334477Y63788D01*
X333578Y62952D01*
X332659Y62140D01*
X331720Y61349D01*
X330762Y60583D01*
X329785Y59840D01*
X328790Y59121D01*
X327779Y58427D01*
X326750Y57757D01*
X325705Y57114D01*
X324645Y56496D01*
X323570Y55904D01*
X322481Y55339D01*
X321378Y54801D01*
X320262Y54290D01*
X319134Y53806D01*
X317995Y53350D01*
X316844Y52923D01*
X315684Y52524D01*
X314514Y52153D01*
X313336Y51811D01*
X312149Y51498D01*
X310955Y51215D01*
X309755Y50961D01*
X308548Y50736D01*
X307337Y50541D01*
X306121Y50376D01*
X304901Y50241D01*
X303678Y50135D01*
X302453Y50060D01*
X301227Y50015D01*
X300000Y50000D01*
X298773Y50015D01*
X297547Y50060D01*
X296322Y50135D01*
X295099Y50241D01*
X293879Y50376D01*
X292663Y50541D01*
X291452Y50736D01*
X290245Y50961D01*
X289045Y51215D01*
X287851Y51498D01*
X286664Y51811D01*
X285486Y52153D01*
X284316Y52524D01*
X283156Y52923D01*
X282005Y53350D01*
X280866Y53806D01*
X279738Y54290D01*
X278622Y54801D01*
X277519Y55339D01*
X276430Y55904D01*
X275355Y56496D01*
X274295Y57114D01*
X273250Y57757D01*
X272221Y58427D01*
X271210Y59121D01*
X270215Y59840D01*
X269238Y60583D01*
X268280Y61349D01*
X267341Y62140D01*
X266422Y62952D01*
X265523Y63788D01*
X264645Y64645D01*
X263788Y65523D01*
X262952Y66422D01*
X262140Y67341D01*
X261349Y68280D01*
X260583Y69238D01*
X259840Y70215D01*
X259121Y71210D01*
X258427Y72221D01*
X257757Y73250D01*
X257114Y74295D01*
X256496Y75355D01*
X255904Y76430D01*
X255339Y77519D01*
X254801Y78622D01*
X254290Y79738D01*
X253806Y80866D01*
X253350Y82005D01*
X252923Y83156D01*
X252524Y84316D01*
X252153Y85486D01*
X251811Y86664D01*
X251498Y87851D01*
X251215Y89045D01*
X250961Y90245D01*
X250736Y91452D01*
X250541Y92663D01*
X250376Y93879D01*
X250241Y95099D01*
X250135Y96322D01*
X250060Y97547D01*
X250015Y98773D01*
X250000Y100000D01*
D15*
X300000Y100000D03*
D14*
X350000Y200000D02*
X350015Y201227D01*
X350060Y202453D01*
X350135Y203678D01*
X350241Y204901D01*
X350376Y206121D01*
X350541Y207337D01*
X350736Y208548D01*
X350961Y209755D01*
X351215Y210955D01*
X351498Y212149D01*
X351811Y213336D01*
X352153Y214514D01*
X352524Y215684D01*
X352923Y216844D01*
X353350Y217995D01*
X353806Y219134D01*
X354290Y220262D01*
X354801Y221378D01*
X355339Y222481D01*
X355904Y223570D01*
X356496Y224645D01*
X357114Y225705D01*
X357757Y226750D01*
X358427Y227779D01*
X359121Y228790D01*
X359840Y229785D01*
X360583Y230762D01*
X361349Y231720D01*
X362140Y232659D01*
X362952Y233578D01*
X363788Y234477D01*
X364645Y235355D01*
X365523Y236212D01*
X366422Y237048D01*
X367341Y237860D01*
X368280Y238651D01*
X369238Y239417D01*
X370215Y240160D01*
X371210Y240879D01*
X372221Y241573D01*
X373250Y242243D01*
X374295Y242886D01*
X375355Y243504D01*
X376430Y244096D01*
X377519Y244661D01*
X378622Y245199D01*
X379738Y245710D01*
X380866Y246194D01*
X382005Y246650D01*
X383156Y247077D01*
X384316Y247476D01*
X385486Y247847D01*
X386664Y248189D01*
X387851Y248502D01*
X389045Y248785D01*
X390245Y249039D01*
X391452Y249264D01*
X392663Y249459D01*
X393879Y249624D01*
X395099Y249759D01*
X396322Y249865D01*
X397547Y249940D01*
X398773Y249985D01*
X400000Y250000D01*
X401227Y249985D01*
X402453Y249940D01*
X403678Y249865D01*
X404901Y249759D01*
X406121Y249624D01*
X407337Y249459D01*
X408548Y249264D01*
X409755Y249039D01*
X410955Y248785D01*
X412149Y248502D01*
X413336Y248189D01*
X414514Y247847D01*
X415684Y247476D01*
X416844Y247077D01*
X417995Y246650D01*
X419134Y246194D01*
X420262Y245710D01*
X421378Y245199D01*
X422481Y244661D01*
X423570Y244096D01*
X424645Y243504D01*
X425705Y242886D01*
X426750Y242243D01*
X427779Y241573D01*
X428790Y240879D01*
X429785Y240160D01*
X430762Y239417D01*
X431720Y238651D01*
X432659Y237860D01*
X433578Y237048D01*
X434477Y236212D01*
X435355Y235355D01*
X436212Y234477D01*
X437048Y233578D01*
X437860Y232659D01*
X438651Y231720D01*
X439417Y230762D01*
X440160Y229785D01*
X440879Y228790D01*
X441573Y227779D01*
X442243Y226750D01*
X442886Y225705D01*
X443504Y224645D01*
X444096Y223570D01*
X444661Y222481D01*
X445199Y221378D01*
X445710Y220262D01*
X446194Y219134D01*
X446650Y217995D01*
X447077Y216844D01*
X447476Y215684D01*
X447847Y214514D01*
X448189Y213336D01*
X448502Y212149D01*
X448785Y210955D01*
X449039Y209755D01*
X449264Y208548D01*
X449459Y207337D01*
X449624Y206121D01*
X449759Y204901D01*
X449865Y203678D01*
X449940Y202453D01*
X449985Y201227D01*
X450000Y200000D01*
X449985Y198773D01*
X449940Y197547D01*
X449865Y196322D01*
X449759Y195099D01*
X449624Y193879D01*
X449459Y192663D01*
X449264Y191452D01*
X449039Y190245D01*
X448785Y189045D01*
X448502Y187851D01*
X448189Y186664D01*
X447847Y185486D01*
X447476Y184316D01*
X447077Y183156D01*
X446650Y182005D01*
X446194Y180866D01*
X445710Y179738D01*
X445199Y178622D01*
X444661Y177519D01*
X444096Y176430D01*
X443504Y175355D01*
X442886Y174295D01*
X442243Y173250D01*
X441573Y172221D01*
X440879Y171210D01*
X440160Y170215D01*
X439417Y169238D01*
X438651Y168280D01*
X437860Y167341D01*
X437048Y166422D01*
X436212Y165523D01*
X435355Y164645D01*
X434477Y163788D01*
X433578Y162952D01*
X432659Y162140D01*
X431720Y161349D01*
X430762Y160583D01*
X429785Y159840D01*
X428790Y159121D01*
X427779Y158427D01*
X426750Y157757D01*
X425705Y157114D01*
X424645Y156496D01*
X423570Y155904D01*
X422481Y155339D01*
X421378Y154801D01*
X420262Y154290D01*
X419134Y153806D01*
X417995Y153350D01*
X416844Y152923D01*
X415684Y152524D01*
X414514Y152153D01*
X413336Y151811D01*
X412149Y151498D01*
X410955Y151215D01*
X409755Y150961D01*
X408548Y150736D01*
X407337Y150541D01*
X406121Y150376D01*
X404901Y150241D01*
X403678Y150135D01*
X402453Y150060D01*
X401227Y150015D01*
X400000Y150000D01*
X398773Y150015D01*
X397547Y150060D01*
X396322Y150135D01*
X395099Y150241D01*
X393879Y150376D01*
X392663Y150541D01*
X391452Y150736D01*
X390245Y150961D01*
X389045Y151215D01*
X387851Y151498D01*
X386664Y151811D01*
X385486Y152153D01*
X384316Y152524D01*
X383156Y152923D01*
X382005Y153350D01*
X380866Y153806D01*
X379738Y154290D01*
X378622Y154801D01*
X377519Y155339D01*
X376430Y155904D01*
X375355Y156496D01*
X374295Y157114D01*
X373250Y157757D01*
X372221Y158427D01*
X371210Y159121D01*
X370215Y159840D01*
X369238Y160583D01*
X368280Y161349D01*
X367341Y162140D01*
X366422Y162952D01*
X365523Y163788D01*
X364645Y164645D01*
X363788Y165523D01*
X362952Y166422D01*
X362140Y167341D01*
X361349Y168280D01*
X360583Y169238D01*
X359840Y170215D01*
X359121Y171210D01*
X358427Y172221D01*
X357757Y173250D01*
X357114Y174295D01*
X356496Y175355D01*
X355904Y176430D01*
X355339Y177519D01*
X354801Y178622D01*
X354290Y179738D01*
X353806Y180866D01*
X353350Y182005D01*
X352923Y183156D01*
X352524Y184316D01*
X352153Y185486D01*
X351811Y186664D01*
X351498Y187851D01*
X351215Y189045D01*
X350961Y190245D01*
X350736Y191452D01*
X350541Y192663D01*
X350376Y193879D01*
X350241Y195099D01*
X350135Y196322D01*
X350060Y197547D01*
X350015Y198773D01*
X350000Y200000D01*
D15*
X400000Y200000D03*
D14*
X-450000Y0D02*
X-449985Y1227D01*
X-449940Y2453D01*
X-449865Y3678D01*
X-449759Y4901D01*
X-449624Y6121D01*
X-449459Y7337D01*
X-449264Y8548D01*
X-449039Y9755D01*
X-448785Y10955D01*
X-448502Y12149D01*
X-448189Y13336D01*
X-447847Y14514D01*
X-447476Y15684D01*
X-447077Y16844D01*
X-446650Y17995D01*
X-446194Y19134D01*
X-445710Y20262D01*
X-445199Y21378D01*
X-444661Y22481D01*
X-444096Y23570D01*
X-443504Y24645D01*
X-442886Y25705D01*
X-442243Y26750D01*
X-441573Y27779D01*
X-440879Y28790D01*
X-440160Y29785D01*
X-439417Y30762D01*
X-438651Y31720D01*
X-437860Y32659D01*
X-437048Y33578D01*
X-436212Y34477D01*
X-435355Y35355D01*
X-434477Y36212D01*
X-433578Y37048D01*
X-432659Y37860D01*
X-431720Y38651D01*
X-430762Y39417D01*
X-429785Y40160D01*
X-428790Y40879D01*
X-427779Y41573D01*
X-426750Y42243D01*
X-425705Y42886D01*
X-424645Y43504D01*
X-423570Y44096D01*
X-422481Y44661D01*
X-421378Y45199D01*
X-420262Y45710D01*
X-419134Y46194D01*
X-417995Y46650D01*
X-416844Y47077D01*
X-415684Y47476D01*
X-414514Y47847D01*
X-413336Y48189D01*
X-412149Y48502D01*
X-410955Y48785D01*
X-409755Y49039D01*
X-408548Y49264D01*
X-407337Y49459D01*
X-406121Y49624D01*
X-404901Y49759D01*
X-403678Y49865D01*
X-402453Y49940D01*
X-401227Y49985D01*
X-400000Y50000D01*
X-398773Y49985D01*
X-397547Y49940D01*
X-396322Y49865D01*
X-395099Y49759D01*
X-393879Y49624D01*
X-392663Y49459D01*
X-391452Y49264D01*
X-390245Y49039D01*
X-389045Y48785D01*
X-387851Y48502D01*
X-386664Y48189D01*
X-385486Y47847D01*
X-384316Y47476D01*
X-383156Y47077D01*
X-382005Y46650D01*
X-380866Y46194D01*
X-379738Y45710D01*
X-378622Y45199D01*
X-377519Y44661D01*
X-376430Y44096D01*
X-375355Y43504D01*
X-374295Y42886D01*
X-373250Y42243D01*
X-372221Y41573D01*
X-371210Y40879D01*
X-370215Y40160D01*
X-369238Y39417D01*
X-368280Y38651D01*
X-367341Y37860D01*
X-366422Y37048D01*
X-365523Y36212D01*
X-364645Y35355D01*
X-363788Y34477D01*
X-362952Y33578D01*
X-362140Y32659D01*
X-361349Y31720D01*
X-360583Y30762D01*
X-359840Y29785D01*
X-359121Y28790D01*
X-358427Y27779D01*
X-357757Y26750D01*
X-357114Y25705D01*
X-356496Y24645D01*
X-355904Y23570D01*
X-355339Y22481D01*
X-354801Y21378D01*
X-354290Y20262D01*
X-353806Y19134D01*
X-353350Y17995D01*
X-352923Y16844D01*
X-352524Y15684D01*
X-352153Y14514D01*
X-351811Y13336D01*
X-351498Y12149D01*
X-351215Y10955D01*
X-350961Y9755D01*
X-350736Y8548D01*
X-350541Y7337D01*
X-350376Y6121D01*
X-350241Y4901D01*
X-350135Y3678D01*
X-350060Y2453D01*
X-350015Y1227D01*
X-350000Y0D01*
X-350015Y-1227D01*
X-350060Y-2453D01*
X-350135Y-3678D01*
X-350241Y-4901D01*
X-350376Y-6121D01*
X-350541Y-7337D01*
X-350736Y-8548D01*
X-350961Y-9755D01*
X-351215Y-10955D01*
X-351498Y-12149D01*
X-351811Y-13336D01*
X-352153Y-14514D01*
X-352524Y-15684D01*
X-352923Y-16844D01*
X-353350Y-17995D01*
X-353806Y-19134D01*
X-354290Y-20262D01*
X-354801Y-21378D01*
X-355339Y-22481D01*
X-355904Y-23570D01*
X-356496Y-24645D01*
X-357114Y-25705D01*
X-357757Y-26750D01*
X-358427Y-27779D01*
X-359121Y-28790D01*
X-359840Y-29785D01*
X-360583Y-30762D01*
X-361349Y-31720D01*
X-362140Y-32659D01*
X-362952Y-33578D01*
X-363788Y-34477D01*
X-364645Y-35355D01*
X-365523Y-36212D01*
X-366422Y-37048D01*
X-367341Y-37860D01*
X-368280Y-38651D01*
X-369238Y-39417D01*
X-370215Y-40160D01*
X-371210Y-40879D01*
X-372221Y-41573D01*
X-373250Y-42243D01*
X-374295Y-42886D01*
X-375355Y-43504D01*
X-376430Y-44096D01*
X-377519Y-44661D01*
X-378622Y-45199D01*
X-379738Y-45710D01*
X-380866Y-46194D01*
X-382005Y-46650D01*
X-383156Y-47077D01*
X-384316Y-47476D01*
X-385486Y-47847D01*
X-386664Y-48189D01*
X-387851Y-48502D01*
X-389045Y-48785D01*
X-390245Y-49039D01*
X-391452Y-49264D01*
X-392663Y-49459D01*
X-393879Y-49624D01*
X-395099Y-49759D01*
X-396322Y-49865D01*
X-397547Y-49940D01*
X-398773Y-49985D01*
X-400000Y-50000D01*
X-401227Y-49985D01*
X-402453Y-49940D01*
X-403678Y-49865D01*
X-404901Y-49759D01*
X-406121Y-49624D01*
X-407337Y-49459D01*
X-408548Y-49264D01*
X-409755Y-49039D01*
X-410955Y-48785D01*
X-412149Y-48502D01*
X-413336Y-48189D01*
X-414514Y-47847D01*
X-415684Y-47476D01*
X-416844Y-47077D01*
X-417995Y-46650D01*
X-419134Y-46194D01*
X-420262Y-45710D01*
X-421378Y-45199D01*
X-422481Y-44661D01*
X-423570Y-44096D01*
X-424645Y-43504D01*
X-425705Y-42886D01*
X-426750Y-42243D01*
X-427779Y-41573D01*
X-428790Y-40879D01*
X-429785Y-40160D01*
X-430762Y-39417D01*
X-431720Y-38651D01*
X-432659Y-37860D01*
X-433578Y-37048D01*
X-434477Y-36212D01*
X-435355Y-35355D01*
X-436212Y-34477D01*
X-437048Y-33578D01*
X-437860Y-32659D01*
X-438651Y-31720D01*
X-439417Y-30762D01*
X-440160Y-29785D01*
X-440879Y-28790D01*
X-441573Y-27779D01*
X-442243Y-26750D01*
X-442886Y-25705D01*
X-443504Y-24645D01*
X-444096Y-23570D01*
X-444661Y-22481D01*
X-445199Y-21378D01*
X-445710Y-20262D01*
X-446194Y-19134D01*
X-446650Y-17995D01*
X-447077Y-16844D01*
X-447476Y-15684D01*
X-447847Y-14514D01*
X-448189Y-13336D01*
X-448502Y-12149D01*
X-448785Y-10955D01*
X-449039Y-9755D01*
X-449264Y-8548D01*
X-449459Y-7337D01*
X-449624Y-6121D01*
X-449759Y-4901D01*
X-449865Y-3678D01*
X-449940Y-2453D01*
X-449985Y-1227D01*
X-450000Y0D01*
D15*
X-400000Y0D03*
D14*
X-350000Y-100000D02*
X-349985Y-98773D01*
X-349940Y-97547D01*
X-349865Y-96322D01*
X-349759Y-95099D01*
X-349624Y-93879D01*
X-349459Y-92663D01*
X-349264Y-91452D01*
X-349039Y-90245D01*
X-348785Y-89045D01*
X-348502Y-87851D01*
X-348189Y-86664D01*
X-347847Y-85486D01*
X-347476Y-84316D01*
X-347077Y-83156D01*
X-346650Y-82005D01*
X-346194Y-80866D01*
X-345710Y-79738D01*
X-345199Y-78622D01*
X-344661Y-77519D01*
X-344096Y-76430D01*
X-343504Y-75355D01*
X-342886Y-74295D01*
X-342243Y-73250D01*
X-341573Y-72221D01*
X-340879Y-71210D01*
X-340160Y-70215D01*
X-339417Y-69238D01*
X-338651Y-68280D01*
X-337860Y-67341D01*
X-337048Y-66422D01*
X-336212Y-65523D01*
X-335355Y-64645D01*
X-334477Y-63788D01*
X-333578Y-62952D01*
X-332659Y-62140D01*
X-331720Y-61349D01*
X-330762Y-60583D01*
X-329785Y-59840D01*
X-328790Y-59121D01*
X-327779Y-58427D01*
X-326750Y-57757D01*
X-325705Y-57114D01*
X-324645Y-56496D01*
X-323570Y-55904D01*
X-322481Y-55339D01*
X-321378Y-54801D01*
X-320262Y-54290D01*
X-319134Y-53806D01*
X-317995Y-53350D01*
X-316844Y-52923D01*
X-315684Y-52524D01*
X-314514Y-52153D01*
X-313336Y-51811D01*
X-312149Y-51498D01*
X-310955Y-51215D01*
X-309755Y-50961D01*
X-308548Y-50736D01*
X-307337Y-50541D01*
X-306121Y-50376D01*
X-304901Y-50241D01*
X-303678Y-50135D01*
X-302453Y-50060D01*
X-301227Y-50015D01*
X-300000Y-50000D01*
X-298773Y-50015D01*
X-297547Y-50060D01*
X-296322Y-50135D01*
X-295099Y-50241D01*
X-293879Y-50376D01*
X-292663Y-50541D01*
X-291452Y-50736D01*
X-290245Y-50961D01*
X-289045Y-51215D01*
X-287851Y-51498D01*
X-286664Y-51811D01*
X-285486Y-52153D01*
X-284316Y-52524D01*
X-283156Y-52923D01*
X-282005Y-53350D01*
X-280866Y-53806D01*
X-279738Y-54290D01*
X-278622Y-54801D01*
X-277519Y-55339D01*
X-276430Y-55904D01*
X-275355Y-56496D01*
X-274295Y-57114D01*
X-273250Y-57757D01*
X-272221Y-58427D01*
X-271210Y-59121D01*
X-270215Y-59840D01*
X-269238Y-60583D01*
X-268280Y-61349D01*
X-267341Y-62140D01*
X-266422Y-62952D01*
X-265523Y-63788D01*
X-264645Y-64645D01*
X-263788Y-65523D01*
X-262952Y-66422D01*
X-262140Y-67341D01*
X-261349Y-68280D01*
X-260583Y-69238D01*
X-259840Y-70215D01*
X-259121Y-71210D01*
X-258427Y-72221D01*
X-257757Y-73250D01*
X-257114Y-74295D01*
X-256496Y-75355D01*
X-255904Y-76430D01*
X-255339Y-77519D01*
X-254801Y-78622D01*
X-254290Y-79738D01*
X-253806Y-80866D01*
X-253350Y-82005D01*
X-252923Y-83156D01*
X-252524Y-84316D01*
X-252153Y-85486D01*
X-251811Y-86664D01*
X-251498Y-87851D01*
X-251215Y-89045D01*
X-250961Y-90245D01*
X-250736Y-91452D01*
X-250541Y-92663D01*
X-250376Y-93879D01*
X-250241Y-95099D01*
X-250135Y-96322D01*
X-250060Y-97547D01*
X-250015Y-98773D01*
X-250000Y-100000D01*
X-250015Y-101227D01*
X-250060Y-102453D01*
X-250135Y-103678D01*
X-250241Y-104901D01*
X-250376Y-106121D01*
X-250541Y-107337D01*
X-250736Y-108548D01*
X-250961Y-109755D01*
X-251215Y-110955D01*
X-251498Y-112149D01*
X-251811Y-113336D01*
X-252153Y-114514D01*
X-252524Y-115684D01*
X-252923Y-116844D01*
X-253350Y-117995D01*
X-253806Y-119134D01*
X-254290Y-120262D01*
X-254801Y-121378D01*
X-255339Y-122481D01*
X-255904Y-123570D01*
X-256496Y-124645D01*
X-257114Y-125705D01*
X-257757Y-126750D01*
X-258427Y-127779D01*
X-259121Y-128790D01*
X-259840Y-129785D01*
X-260583Y-130762D01*
X-261349Y-131720D01*
X-262140Y-132659D01*
X-262952Y-133578D01*
X-263788Y-134477D01*
X-264645Y-135355D01*
X-265523Y-136212D01*
X-266422Y-137048D01*
X-267341Y-137860D01*
X-268280Y-138651D01*
X-269238Y-139417D01*
X-270215Y-140160D01*
X-271210Y-140879D01*
X-272221Y-141573D01*
X-273250Y-142243D01*
X-274295Y-142886D01*
X-275355Y-143504D01*
X-276430Y-144096D01*
X-277519Y-144661D01*
X-278622Y-145199D01*
X-279738Y-145710D01*
X-280866Y-146194D01*
X-282005Y-146650D01*
X-283156Y-147077D01*
X-284316Y-147476D01*
X-285486Y-147847D01*
X-286664Y-148189D01*
X-287851Y-148502D01*
X-289045Y-148785D01*
X-290245Y-149039D01*
X-291452Y-149264D01*
X-292663Y-149459D01*
X-293879Y-149624D01*
X-295099Y-149759D01*
X-296322Y-149865D01*
X-297547Y-149940D01*
X-298773Y-149985D01*
X-300000Y-150000D01*
X-301227Y-149985D01*
X-302453Y-149940D01*
X-303678Y-149865D01*
X-304901Y-149759D01*
X-306121Y-149624D01*
X-307337Y-149459D01*
X-308548Y-149264D01*
X-309755Y-149039D01*
X-310955Y-148785D01*
X-312149Y-148502D01*
X-313336Y-148189D01*
X-314514Y-147847D01*
X-315684Y-147476D01*
X-316844Y-147077D01*
X-317995Y-146650D01*
X-319134Y-146194D01*
X-320262Y-145710D01*
X-321378Y-145199D01*
X-322481Y-144661D01*
X-323570Y-144096D01*
X-324645Y-143504D01*
X-325705Y-142886D01*
X-326750Y-142243D01*
X-327779Y-141573D01*
X-328790Y-140879D01*
X-329785Y-140160D01*
X-330762Y-139417D01*
X-331720Y-138651D01*
X-332659Y-137860D01*
X-333578Y-137048D01*
X-334477Y-136212D01*
X-335355Y-135355D01*
X-336212Y-134477D01*
X-337048Y-133578D01*
X-337860Y-132659D01*
X-338651Y-131720D01*
X-339417Y-130762D01*
X-340160Y-129785D01*
X-340879Y-128790D01*
X-341573Y-127779D01*
X-342243Y-126750D01*
X-342886Y-125705D01*
X-343504Y-124645D01*
X-344096Y-123570D01*
X-344661Y-122481D01*
X-345199Y-121378D01*
X-345710Y-120262D01*
X-346194Y-119134D01*
X-346650Y-117995D01*
X-347077Y-116844D01*
X-347476Y-115684D01*
X-347847Y-114514D01*
X-348189Y-113336D01*
X-348502Y-112149D01*
X-348785Y-110955D01*
X-349039Y-109755D01*
X-349264Y-108548D01*
X-349459Y-107337D01*
X-349624Y-106121D01*
X-349759Y-104901D01*
X-349865Y-103678D01*
X-349940Y-102453D01*
X-349985Y-101227D01*
X-350000Y-100000D01*
D15*
X-300000Y-100000D03*
D14*
X-250000Y0D02*
X-249985Y1227D01*
X-249940Y2453D01*
X-249865Y3678D01*
X-249759Y4901D01*
X-249624Y6121D01*
X-249459Y7337D01*
X-249264Y8548D01*
X-249039Y9755D01*
X-248785Y10955D01*
X-248502Y12149D01*
X-248189Y13336D01*
X-247847Y14514D01*
X-247476Y15684D01*
X-247077Y16844D01*
X-246650Y17995D01*
X-246194Y19134D01*
X-245710Y20262D01*
X-245199Y21378D01*
X-244661Y22481D01*
X-244096Y23570D01*
X-243504Y24645D01*
X-242886Y25705D01*
X-242243Y26750D01*
X-241573Y27779D01*
X-240879Y28790D01*
X-240160Y29785D01*
X-239417Y30762D01*
X-238651Y31720D01*
X-237860Y32659D01*
X-237048Y33578D01*
X-236212Y34477D01*
X-235355Y35355D01*
X-234477Y36212D01*
X-233578Y37048D01*
X-232659Y37860D01*
X-231720Y38651D01*
X-230762Y39417D01*
X-229785Y40160D01*
X-228790Y40879D01*
X-227779Y41573D01*
X-226750Y42243D01*
X-225705Y42886D01*
X-224645Y43504D01*
X-223570Y44096D01*
X-222481Y44661D01*
X-221378Y45199D01*
X-220262Y45710D01*
X-219134Y46194D01*
X-217995Y46650D01*
X-216844Y47077D01*
X-215684Y47476D01*
X-214514Y47847D01*
X-213336Y48189D01*
X-212149Y48502D01*
X-210955Y48785D01*
X-209755Y49039D01*
X-208548Y49264D01*
X-207337Y49459D01*
X-206121Y49624D01*
X-204901Y49759D01*
X-203678Y49865D01*
X-202453Y49940D01*
X-201227Y49985D01*
X-200000Y50000D01*
X-198773Y49985D01*
X-197547Y49940D01*
X-196322Y49865D01*
X-195099Y49759D01*
X-193879Y49624D01*
X-192663Y49459D01*
X-191452Y49264D01*
X-190245Y49039D01*
X-189045Y48785D01*
X-187851Y48502D01*
X-186664Y48189D01*
X-185486Y47847D01*
X-184316Y47476D01*
X-183156Y47077D01*
X-182005Y46650D01*
X-180866Y46194D01*
X-179738Y45710D01*
X-178622Y45199D01*
X-177519Y44661D01*
X-176430Y44096D01*
X-175355Y43504D01*
X-174295Y42886D01*
X-173250Y42243D01*
X-172221Y41573D01*
X-171210Y40879D01*
X-170215Y40160D01*
X-169238Y39417D01*
X-168280Y38651D01*
X-167341Y37860D01*
X-166422Y37048D01*
X-165523Y36212D01*
X-164645Y35355D01*
X-163788Y34477D01*
X-162952Y33578D01*
X-162140Y32659D01*
X-161349Y31720D01*
X-160583Y30762D01*
X-159840Y29785D01*
X-159121Y28790D01*
X-158427Y27779D01*
X-157757Y26750D01*
X-157114Y25705D01*
X-156496Y24645D01*
X-155904Y23570D01*
X-155339Y22481D01*
X-154801Y21378D01*
X-154290Y20262D01*
X-153806Y19134D01*
X-153350Y17995D01*
X-152923Y16844D01*
X-152524Y15684D01*
X-152153Y14514D01*
X-151811Y13336D01*
X-151498Y12149D01*
X-151215Y10955D01*
X-150961Y9755D01*
X-150736Y8548D01*
X-150541Y7337D01*
X-150376Y6121D01*
X-150241Y4901D01*
X-150135Y3678D01*
X-150060Y2453D01*
X-150015Y1227D01*
X-150000Y0D01*
X-150015Y-1227D01*
X-150060Y-2453D01*
X-150135Y-3678D01*
X-150241Y-4901D01*
X-150376Y-6121D01*
X-150541Y-7337D01*
X-150736Y-8548D01*
X-150961Y-9755D01*
X-151215Y-10955D01*
X-151498Y-12149D01*
X-151811Y-13336D01*
X-152153Y-14514D01*
X-152524Y-15684D01*
X-152923Y-16844D01*
X-153350Y-17995D01*
X-153806Y-19134D01*
X-154290Y-20262D01*
X-154801Y-21378D01*
X-155339Y-22481D01*
X-155904Y-23570D01*
X-156496Y-24645D01*
X-157114Y-25705D01*
X-157757Y-26750D01*
X-158427Y-27779D01*
X-159121Y-28790D01*
X-159840Y-29785D01*
X-160583Y-30762D01*
X-161349Y-31720D01*
X-162140Y-32659D01*
X-162952Y-33578D01*
X-163788Y-34477D01*
X-164645Y-35355D01*
X-165523Y-36212D01*
X-166422Y-37048D01*
X-167341Y-37860D01*
X-168280Y-38651D01*
X-169238Y-39417D01*
X-170215Y-40160D01*
X-171210Y-40879D01*
X-172221Y-41573D01*
X-173250Y-42243D01*
X-174295Y-42886D01*
X-175355Y-43504D01*
X-176430Y-44096D01*
X-177519Y-44661D01*
X-178622Y-45199D01*
X-179738Y-45710D01*
X-180866Y-46194D01*
X-182005Y-46650D01*
X-183156Y-47077D01*
X-184316Y-47476D01*
X-185486Y-47847D01*
X-186664Y-48189D01*
X-187851Y-48502D01*
X-189045Y-48785D01*
X-190245Y-49039D01*
X-191452Y-49264D01*
X-192663Y-49459D01*
X-193879Y-49624D01*
X-195099Y-49759D01*
X-196322Y-49865D01*
X-197547Y-49940D01*
X-198773Y-49985D01*
X-200000Y-50000D01*
X-201227Y-49985D01*
X-202453Y-49940D01*
X-203678Y-49865D01*
X-204901Y-49759D01*
X-206121Y-49624D01*
X-207337Y-49459D01*
X-208548Y-49264D01*
X-209755Y-49039D01*
X-210955Y-48785D01*
X-212149Y-48502D01*
X-213336Y-48189D01*
X-214514Y-47847D01*
X-215684Y-47476D01*
X-216844Y-47077D01*
X-217995Y-46650D01*
X-219134Y-46194D01*
X-220262Y-45710D01*
X-221378Y-45199D01*
X-222481Y-44661D01*
X-223570Y-44096D01*
X-224645Y-43504D01*
X-225705Y-42886D01*
X-226750Y-42243D01*
X-227779Y-41573D01*
X-228790Y-40879D01*
X-229785Y-40160D01*
X-230762Y-39417D01*
X-231720Y-38651D01*
X-232659Y-37860D01*
X-233578Y-37048D01*
X-234477Y-36212D01*
X-235355Y-35355D01*
X-236212Y-34477D01*
X-237048Y-33578D01*
X-237860Y-32659D01*
X-238651Y-31720D01*
X-239417Y-30762D01*
X-240160Y-29785D01*
X-240879Y-28790D01*
X-241573Y-27779D01*
X-242243Y-26750D01*
X-242886Y-25705D01*
X-243504Y-24645D01*
X-244096Y-23570D01*
X-244661Y-22481D01*
X-245199Y-21378D01*
X-245710Y-20262D01*
X-246194Y-19134D01*
X-246650Y-17995D01*
X-247077Y-16844D01*
X-247476Y-15684D01*
X-247847Y-14514D01*
X-248189Y-13336D01*
X-248502Y-12149D01*
X-248785Y-10955D01*
X-249039Y-9755D01*
X-249264Y-8548D01*
X-249459Y-7337D01*
X-249624Y-6121D01*
X-249759Y-4901D01*
X-249865Y-3678D01*
X-249940Y-2453D01*
X-249985Y-1227D01*
X-250000Y0D01*
D15*
X-200000Y0D03*
D14*
X-150000Y-100000D02*
X-149985Y-98773D01*
X-149940Y-97547D01*
X-149865Y-96322D01*
X-149759Y-95099D01*
X-149624Y-93879D01*
X-149459Y-92663D01*
X-149264Y-91452D01*
X-149039Y-90245D01*
X-148785Y-89045D01*
X-148502Y-87851D01*
X-148189Y-86664D01*
X-147847Y-85486D01*
X-147476Y-84316D01*
X-147077Y-83156D01*
X-146650Y-82005D01*
X-146194Y-80866D01*
X-145710Y-79738D01*
X-145199Y-78622D01*
X-144661Y-77519D01*
X-144096Y-76430D01*
X-143504Y-75355D01*
X-142886Y-74295D01*
X-142243Y-73250D01*
X-141573Y-72221D01*
X-140879Y-71210D01*
X-140160Y-70215D01*
X-139417Y-69238D01*
X-138651Y-68280D01*
X-137860Y-67341D01*
X-137048Y-66422D01*
X-136212Y-65523D01*
X-135355Y-64645D01*
X-134477Y-63788D01*
X-133578Y-62952D01*
X-132659Y-62140D01*
X-131720Y-61349D01*
X-130762Y-60583D01*
X-129785Y-59840D01*
X-128790Y-59121D01*
X-127779Y-58427D01*
X-126750Y-57757D01*
X-125705Y-57114D01*
X-124645Y-56496D01*
X-123570Y-55904D01*
X-122481Y-55339D01*
X-121378Y-54801D01*
X-120262Y-54290D01*
X-119134Y-53806D01*
X-117995Y-53350D01*
X-116844Y-52923D01*
X-115684Y-52524D01*
X-114514Y-52153D01*
X-113336Y-51811D01*
X-112149Y-51498D01*
X-110955Y-51215D01*
X-109755Y-50961D01*
X-108548Y-50736D01*
X-107337Y-50541D01*
X-106121Y-50376D01*
X-104901Y-50241D01*
X-103678Y-50135D01*
X-102453Y-50060D01*
X-101227Y-50015D01*
X-100000Y-50000D01*
X-98773Y-50015D01*
X-97547Y-50060D01*
X-96322Y-50135D01*
X-95099Y-50241D01*
X-93879Y-50376D01*
X-92663Y-50541D01*
X-91452Y-50736D01*
X-90245Y-50961D01*
X-89045Y-51215D01*
X-87851Y-51498D01*
X-86664Y-51811D01*
X-85486Y-52153D01*
X-84316Y-52524D01*
X-83156Y-52923D01*
X-82005Y-53350D01*
X-80866Y-53806D01*
X-79738Y-54290D01*
X-78622Y-54801D01*
X-77519Y-55339D01*
X-76430Y-55904D01*
X-75355Y-56496D01*
X-74295Y-57114D01*
X-73250Y-57757D01*
X-72221Y-58427D01*
X-71210Y-59121D01*
X-70215Y-59840D01*
X-69238Y-60583D01*
X-68280Y-61349D01*
X-67341Y-62140D01*
X-66422Y-62952D01*
X-65523Y-63788D01*
X-64645Y-64645D01*
X-63788Y-65523D01*
X-62952Y-66422D01*
X-62140Y-67341D01*
X-61349Y-68280D01*
X-60583Y-69238D01*
X-59840Y-70215D01*
X-59121Y-71210D01*
X-58427Y-72221D01*
X-57757Y-73250D01*
X-57114Y-74295D01*
X-56496Y-75355D01*
X-55904Y-76430D01*
X-55339Y-77519D01*
X-54801Y-78622D01*
X-54290Y-79738D01*
X-53806Y-80866D01*
X-53350Y-82005D01*
X-52923Y-83156D01*
X-52524Y-84316D01*
X-52153Y-85486D01*
X-51811Y-86664D01*
X-51498Y-87851D01*
X-51215Y-89045D01*
X-50961Y-90245D01*
X-50736Y-91452D01*
X-50541Y-92663D01*
X-50376Y-93879D01*
X-50241Y-95099D01*
X-50135Y-96322D01*
X-50060Y-97547D01*
X-50015Y-98773D01*
X-50000Y-100000D01*
X-50015Y-101227D01*
X-50060Y-102453D01*
X-50135Y-103678D01*
X-50241Y-104901D01*
X-50376Y-106121D01*
X-50541Y-107337D01*
X-50736Y-108548D01*
X-50961Y-109755D01*
X-51215Y-110955D01*
X-51498Y-112149D01*
X-51811Y-113336D01*
X-52153Y-114514D01*
X-52524Y-115684D01*
X-52923Y-116844D01*
X-53350Y-117995D01*
X-53806Y-119134D01*
X-54290Y-120262D01*
X-54801Y-121378D01*
X-55339Y-122481D01*
X-55904Y-123570D01*
X-56496Y-124645D01*
X-57114Y-125705D01*
X-57757Y-126750D01*
X-58427Y-127779D01*
X-59121Y-128790D01*
X-59840Y-129785D01*
X-60583Y-130762D01*
X-61349Y-131720D01*
X-62140Y-132659D01*
X-62952Y-133578D01*
X-63788Y-134477D01*
X-64645Y-135355D01*
X-65523Y-136212D01*
X-66422Y-137048D01*
X-67341Y-137860D01*
X-68280Y-138651D01*
X-69238Y-139417D01*
X-70215Y-140160D01*
X-71210Y-140879D01*
X-72221Y-141573D01*
X-73250Y-142243D01*
X-74295Y-142886D01*
X-75355Y-143504D01*
X-76430Y-144096D01*
X-77519Y-144661D01*
X-78622Y-145199D01*
X-79738Y-145710D01*
X-80866Y-146194D01*
X-82005Y-146650D01*
X-83156Y-147077D01*
X-84316Y-147476D01*
X-85486Y-147847D01*
X-86664Y-148189D01*
X-87851Y-148502D01*
X-89045Y-148785D01*
X-90245Y-149039D01*
X-91452Y-149264D01*
X-92663Y-149459D01*
X-93879Y-149624D01*
X-95099Y-149759D01*
X-96322Y-149865D01*
X-97547Y-149940D01*
X-98773Y-149985D01*
X-100000Y-150000D01*
X-101227Y-149985D01*
X-102453Y-149940D01*
X-103678Y-149865D01*
X-104901Y-149759D01*
X-106121Y-149624D01*
X-107337Y-149459D01*
X-108548Y-149264D01*
X-109755Y-149039D01*
X-110955Y-148785D01*
X-112149Y-148502D01*
X-113336Y-148189D01*
X-114514Y-147847D01*
X-115684Y-147476D01*
X-116844Y-147077D01*
X-117995Y-146650D01*
X-119134Y-146194D01*
X-120262Y-145710D01*
X-121378Y-145199D01*
X-122481Y-144661D01*
X-123570Y-144096D01*
X-124645Y-143504D01*
X-125705Y-142886D01*
X-126750Y-142243D01*
X-127779Y-141573D01*
X-128790Y-140879D01*
X-129785Y-140160D01*
X-130762Y-139417D01*
X-131720Y-138651D01*
X-132659Y-137860D01*
X-133578Y-137048D01*
X-134477Y-136212D01*
X-135355Y-135355D01*
X-136212Y-134477D01*
X-137048Y-133578D01*
X-137860Y-132659D01*
X-138651Y-131720D01*
X-139417Y-130762D01*
X-140160Y-129785D01*
X-140879Y-128790D01*
X-141573Y-127779D01*
X-142243Y-126750D01*
X-142886Y-125705D01*
X-143504Y-124645D01*
X-144096Y-123570D01*
X-144661Y-122481D01*
X-145199Y-121378D01*
X-145710Y-120262D01*
X-146194Y-119134D01*
X-146650Y-117995D01*
X-147077Y-116844D01*
X-147476Y-115684D01*
X-147847Y-114514D01*
X-148189Y-113336D01*
X-148502Y-112149D01*
X-148785Y-110955D01*
X-149039Y-109755D01*
X-149264Y-108548D01*
X-149459Y-107337D01*
X-149624Y-106121D01*
X-149759Y-104901D01*
X-149865Y-103678D01*
X-149940Y-102453D01*
X-149985Y-101227D01*
X-150000Y-100000D01*
D15*
X-100000Y-100000D03*
D14*
X-50000Y0D02*
X-49985Y1227D01*
X-49940Y2453D01*
X-49865Y3678D01*
X-49759Y4901D01*
X-49624Y6121D01*
X-49459Y7337D01*
X-49264Y8548D01*
X-49039Y9755D01*
X-48785Y10955D01*
X-48502Y12149D01*
X-48189Y13336D01*
X-47847Y14514D01*
X-47476Y15684D01*
X-47077Y16844D01*
X-46650Y17995D01*
X-46194Y19134D01*
X-45710Y20262D01*
X-45199Y21378D01*
X-44661Y22481D01*
X-44096Y23570D01*
X-43504Y24645D01*
X-42886Y25705D01*
X-42243Y26750D01*
X-41573Y27779D01*
X-40879Y28790D01*
X-40160Y29785D01*
X-39417Y30762D01*
X-38651Y31720D01*
X-37860Y32659D01*
X-37048Y33578D01*
X-36212Y34477D01*
X-35355Y35355D01*
X-34477Y36212D01*
X-33578Y37048D01*
X-32659Y37860D01*
X-31720Y38651D01*
X-30762Y39417D01*
X-29785Y40160D01*
X-28790Y40879D01*
X-27779Y41573D01*
X-26750Y42243D01*
X-25705Y42886D01*
X-24645Y43504D01*
X-23570Y44096D01*
X-22481Y44661D01*
X-21378Y45199D01*
X-20262Y45710D01*
X-19134Y46194D01*
X-17995Y46650D01*
X-16844Y47077D01*
X-15684Y47476D01*
X-14514Y47847D01*
X-13336Y48189D01*
X-12149Y48502D01*
X-10955Y48785D01*
X-9755Y49039D01*
X-8548Y49264D01*
X-7337Y49459D01*
X-6121Y49624D01*
X-4901Y49759D01*
X-3678Y49865D01*
X-2453Y49940D01*
X-1227Y49985D01*
X0Y50000D01*
X1227Y49985D01*
X2453Y49940D01*
X3678Y49865D01*
X4901Y49759D01*
X6121Y49624D01*
X7337Y49459D01*
X8548Y49264D01*
X9755Y49039D01*
X10955Y48785D01*
X12149Y48502D01*
X13336Y48189D01*
X14514Y47847D01*
X15684Y47476D01*
X16844Y47077D01*
X17995Y46650D01*
X19134Y46194D01*
X20262Y45710D01*
X21378Y45199D01*
X22481Y44661D01*
X23570Y44096D01*
X24645Y43504D01*
X25705Y42886D01*
X26750Y42243D01*
X27779Y41573D01*
X28790Y40879D01*
X29785Y40160D01*
X30762Y39417D01*
X31720Y38651D01*
X32659Y37860D01*
X33578Y37048D01*
X34477Y36212D01*
X35355Y35355D01*
X36212Y34477D01*
X37048Y33578D01*
X37860Y32659D01*
X38651Y31720D01*
X39417Y30762D01*
X40160Y29785D01*
X40879Y28790D01*
X41573Y27779D01*
X42243Y26750D01*
X42886Y25705D01*
X43504Y24645D01*
X44096Y23570D01*
X44661Y22481D01*
X45199Y21378D01*
X45710Y20262D01*
X46194Y19134D01*
X46650Y17995D01*
X47077Y16844D01*
X47476Y15684D01*
X47847Y14514D01*
X48189Y13336D01*
X48502Y12149D01*
X48785Y10955D01*
X49039Y9755D01*
X49264Y8548D01*
X49459Y7337D01*
X49624Y6121D01*
X49759Y4901D01*
X49865Y3678D01*
X49940Y2453D01*
X49985Y1227D01*
X50000Y0D01*
X49985Y-1227D01*
X49940Y-2453D01*
X49865Y-3678D01*
X49759Y-4901D01*
X49624Y-6121D01*
X49459Y-7337D01*
X49264Y-8548D01*
X49039Y-9755D01*
X48785Y-10955D01*
X48502Y-12149D01*
X48189Y-13336D01*
X47847Y-14514D01*
X47476Y-15684D01*
X47077Y-16844D01*
X46650Y-17995D01*
X46194Y-19134D01*
X45710Y-20262D01*
X45199Y-21378D01*
X44661Y-22481D01*
X44096Y-23570D01*
X43504Y-24645D01*
X42886Y-25705D01*
X42243Y-26750D01*
X41573Y-27779D01*
X40879Y-28790D01*
X40160Y-29785D01*
X39417Y-30762D01*
X38651Y-31720D01*
X37860Y-32659D01*
X37048Y-33578D01*
X36212Y-34477D01*
X35355Y-35355D01*
X34477Y-36212D01*
X33578Y-37048D01*
X32659Y-37860D01*
X31720Y-38651D01*
X30762Y-39417D01*
X29785Y-40160D01*
X28790Y-40879D01*
X27779Y-41573D01*
X26750Y-42243D01*
X25705Y-42886D01*
X24645Y-43504D01*
X23570Y-44096D01*
X22481Y-44661D01*
X21378Y-45199D01*
X20262Y-45710D01*
X19134Y-46194D01*
X17995Y-46650D01*
X16844Y-47077D01*
X15684Y-47476D01*
X14514Y-47847D01*
X13336Y-48189D01*
X12149Y-48502D01*
X10955Y-48785D01*
X9755Y-49039D01*
X8548Y-49264D01*
X7337Y-49459D01*
X6121Y-49624D01*
X4901Y-49759D01*
X3678Y-49865D01*
X2453Y-49940D01*
X1227Y-49985D01*
X0Y-50000D01*
X-1227Y-49985D01*
X-2453Y-49940D01*
X-3678Y-49865D01*
X-4901Y-49759D01*
X-6121Y-49624D01*
X-7337Y-49459D01*
X-8548Y-49264D01*
X-9755Y-49039D01*
X-10955Y-48785D01*
X-12149Y-48502D01*
X-13336Y-48189D01*
X-14514Y-47847D01*
X-15684Y-47476D01*
X-16844Y-47077D01*
X-17995Y-46650D01*
X-19134Y-46194D01*
X-20262Y-45710D01*
X-21378Y-45199D01*
X-22481Y-44661D01*
X-23570Y-44096D01*
X-24645Y-43504D01*
X-25705Y-42886D01*
X-26750Y-42243D01*
X-27779Y-41573D01*
X-28790Y-40879D01*
X-29785Y-40160D01*
X-30762Y-39417D01*
X-31720Y-38651D01*
X-32659Y-37860D01*
X-33578Y-37048D01*
X-34477Y-36212D01*
X-35355Y-35355D01*
X-36212Y-34477D01*
X-37048Y-33578D01*
X-37860Y-32659D01*
X-38651Y-31720D01*
X-39417Y-30762D01*
X-40160Y-29785D01*
X-40879Y-28790D01*
X-41573Y-27779D01*
X-42243Y-26750D01*
X-42886Y-25705D01*
X-43504Y-24645D01*
X-44096Y-23570D01*
X-44661Y-22481D01*
X-45199Y-21378D01*
X-45710Y-20262D01*
X-46194Y-19134D01*
X-46650Y-17995D01*
X-47077Y-16844D01*
X-47476Y-15684D01*
X-47847Y-14514D01*
X-48189Y-13336D01*
X-48502Y-12149D01*
X-48785Y-10955D01*
X-49039Y-9755D01*
X-49264Y-8548D01*
X-49459Y-7337D01*
X-49624Y-6121D01*
X-49759Y-4901D01*
X-49865Y-3678D01*
X-49940Y-2453D01*
X-49985Y-1227D01*
X-50000Y0D01*
D15*
X0Y0D03*
D14*
X50000Y-100000D02*
X50015Y-98773D01*
X50060Y-97547D01*
X50135Y-96322D01*
X50241Y-95099D01*
X50376Y-93879D01*
X50541Y-92663D01*
X50736Y-91452D01*
X50961Y-90245D01*
X51215Y-89045D01*
X51498Y-87851D01*
X51811Y-86664D01*
X52153Y-85486D01*
X52524Y-84316D01*
X52923Y-83156D01*
X53350Y-82005D01*
X53806Y-80866D01*
X54290Y-79738D01*
X54801Y-78622D01*
X55339Y-77519D01*
X55904Y-76430D01*
X56496Y-75355D01*
X57114Y-74295D01*
X57757Y-73250D01*
X58427Y-72221D01*
X59121Y-71210D01*
X59840Y-70215D01*
X60583Y-69238D01*
X61349Y-68280D01*
X62140Y-67341D01*
X62952Y-66422D01*
X63788Y-65523D01*
X64645Y-64645D01*
X65523Y-63788D01*
X66422Y-62952D01*
X67341Y-62140D01*
X68280Y-61349D01*
X69238Y-60583D01*
X70215Y-59840D01*
X71210Y-59121D01*
X72221Y-58427D01*
X73250Y-57757D01*
X74295Y-57114D01*
X75355Y-56496D01*
X76430Y-55904D01*
X77519Y-55339D01*
X78622Y-54801D01*
X79738Y-54290D01*
X80866Y-53806D01*
X82005Y-53350D01*
X83156Y-52923D01*
X84316Y-52524D01*
X85486Y-52153D01*
X86664Y-51811D01*
X87851Y-51498D01*
X89045Y-51215D01*
X90245Y-50961D01*
X91452Y-50736D01*
X92663Y-50541D01*
X93879Y-50376D01*
X95099Y-50241D01*
X96322Y-50135D01*
X97547Y-50060D01*
X98773Y-50015D01*
X100000Y-50000D01*
X101227Y-50015D01*
X102453Y-50060D01*
X103678Y-50135D01*
X104901Y-50241D01*
X106121Y-50376D01*
X107337Y-50541D01*
X108548Y-50736D01*
X109755Y-50961D01*
X110955Y-51215D01*
X112149Y-51498D01*
X113336Y-51811D01*
X114514Y-52153D01*
X115684Y-52524D01*
X116844Y-52923D01*
X117995Y-53350D01*
X119134Y-53806D01*
X120262Y-54290D01*
X121378Y-54801D01*
X122481Y-55339D01*
X123570Y-55904D01*
X124645Y-56496D01*
X125705Y-57114D01*
X126750Y-57757D01*
X127779Y-58427D01*
X128790Y-59121D01*
X129785Y-59840D01*
X130762Y-60583D01*
X131720Y-61349D01*
X132659Y-62140D01*
X133578Y-62952D01*
X134477Y-63788D01*
X135355Y-64645D01*
X136212Y-65523D01*
X137048Y-66422D01*
X137860Y-67341D01*
X138651Y-68280D01*
X139417Y-69238D01*
X140160Y-70215D01*
X140879Y-71210D01*
X141573Y-72221D01*
X142243Y-73250D01*
X142886Y-74295D01*
X143504Y-75355D01*
X144096Y-76430D01*
X144661Y-77519D01*
X145199Y-78622D01*
X145710Y-79738D01*
X146194Y-80866D01*
X146650Y-82005D01*
X147077Y-83156D01*
X147476Y-84316D01*
X147847Y-85486D01*
X148189Y-86664D01*
X148502Y-87851D01*
X148785Y-89045D01*
X149039Y-90245D01*
X149264Y-91452D01*
X149459Y-92663D01*
X149624Y-93879D01*
X149759Y-95099D01*
X149865Y-96322D01*
X149940Y-97547D01*
X149985Y-98773D01*
X150000Y-100000D01*
X149985Y-101227D01*
X149940Y-102453D01*
X149865Y-103678D01*
X149759Y-104901D01*
X149624Y-106121D01*
X149459Y-107337D01*
X149264Y-108548D01*
X149039Y-109755D01*
X148785Y-110955D01*
X148502Y-112149D01*
X148189Y-113336D01*
X147847Y-114514D01*
X147476Y-115684D01*
X147077Y-116844D01*
X146650Y-117995D01*
X146194Y-119134D01*
X145710Y-120262D01*
X145199Y-121378D01*
X144661Y-122481D01*
X144096Y-123570D01*
X143504Y-124645D01*
X142886Y-125705D01*
X142243Y-126750D01*
X141573Y-127779D01*
X140879Y-128790D01*
X140160Y-129785D01*
X139417Y-130762D01*
X138651Y-131720D01*
X137860Y-132659D01*
X137048Y-133578D01*
X136212Y-134477D01*
X135355Y-135355D01*
X134477Y-136212D01*
X133578Y-137048D01*
X132659Y-137860D01*
X131720Y-138651D01*
X130762Y-139417D01*
X129785Y-140160D01*
X128790Y-140879D01*
X127779Y-141573D01*
X126750Y-142243D01*
X125705Y-142886D01*
X124645Y-143504D01*
X123570Y-144096D01*
X122481Y-144661D01*
X121378Y-145199D01*
X120262Y-145710D01*
X119134Y-146194D01*
X117995Y-146650D01*
X116844Y-147077D01*
X115684Y-147476D01*
X114514Y-147847D01*
X113336Y-148189D01*
X112149Y-148502D01*
X110955Y-148785D01*
X109755Y-149039D01*
X108548Y-149264D01*
X107337Y-149459D01*
X106121Y-149624D01*
X104901Y-149759D01*
X103678Y-149865D01*
X102453Y-149940D01*
X101227Y-149985D01*
X100000Y-150000D01*
X98773Y-149985D01*
X97547Y-149940D01*
X96322Y-149865D01*
X95099Y-149759D01*
X93879Y-149624D01*
X92663Y-149459D01*
X91452Y-149264D01*
X90245Y-149039D01*
X89045Y-148785D01*
X87851Y-148502D01*
X86664Y-148189D01*
X85486Y-147847D01*
X84316Y-147476D01*
X83156Y-147077D01*
X82005Y-146650D01*
X80866Y-146194D01*
X79738Y-145710D01*
X78622Y-145199D01*
X77519Y-144661D01*
X76430Y-144096D01*
X75355Y-143504D01*
X74295Y-142886D01*
X73250Y-142243D01*
X72221Y-141573D01*
X71210Y-140879D01*
X70215Y-140160D01*
X69238Y-139417D01*
X68280Y-138651D01*
X67341Y-137860D01*
X66422Y-137048D01*
X65523Y-136212D01*
X64645Y-135355D01*
X63788Y-134477D01*
X62952Y-133578D01*
X62140Y-132659D01*
X61349Y-131720D01*
X60583Y-130762D01*
X59840Y-129785D01*
X59121Y-128790D01*
X58427Y-127779D01*
X57757Y-126750D01*
X57114Y-125705D01*
X56496Y-124645D01*
X55904Y-123570D01*
X55339Y-122481D01*
X54801Y-121378D01*
X54290Y-120262D01*
X53806Y-119134D01*
X53350Y-117995D01*
X52923Y-116844D01*
X52524Y-115684D01*
X52153Y-114514D01*
X51811Y-113336D01*
X51498Y-112149D01*
X51215Y-110955D01*
X50961Y-109755D01*
X50736Y-108548D01*
X50541Y-107337D01*
X50376Y-106121D01*
X50241Y-104901D01*
X50135Y-103678D01*
X50060Y-102453D01*
X50015Y-101227D01*
X50000Y-100000D01*
D15*
X100000Y-100000D03*
D14*
X150000Y0D02*
X150015Y1227D01*
X150060Y2453D01*
X150135Y3678D01*
X150241Y4901D01*
X150376Y6121D01*
X150541Y7337D01*
X150736Y8548D01*
X150961Y9755D01*
X151215Y10955D01*
X151498Y12149D01*
X151811Y13336D01*
X152153Y14514D01*
X152524Y15684D01*
X152923Y16844D01*
X153350Y17995D01*
X153806Y19134D01*
X154290Y20262D01*
X154801Y21378D01*
X155339Y22481D01*
X155904Y23570D01*
X156496Y24645D01*
X157114Y25705D01*
X157757Y26750D01*
X158427Y27779D01*
X159121Y28790D01*
X159840Y29785D01*
X160583Y30762D01*
X161349Y31720D01*
X162140Y32659D01*
X162952Y33578D01*
X163788Y34477D01*
X164645Y35355D01*
X165523Y36212D01*
X166422Y37048D01*
X167341Y37860D01*
X168280Y38651D01*
X169238Y39417D01*
X170215Y40160D01*
X171210Y40879D01*
X172221Y41573D01*
X173250Y42243D01*
X174295Y42886D01*
X175355Y43504D01*
X176430Y44096D01*
X177519Y44661D01*
X178622Y45199D01*
X179738Y45710D01*
X180866Y46194D01*
X182005Y46650D01*
X183156Y47077D01*
X184316Y47476D01*
X185486Y47847D01*
X186664Y48189D01*
X187851Y48502D01*
X189045Y48785D01*
X190245Y49039D01*
X191452Y49264D01*
X192663Y49459D01*
X193879Y49624D01*
X195099Y49759D01*
X196322Y49865D01*
X197547Y49940D01*
X198773Y49985D01*
X200000Y50000D01*
X201227Y49985D01*
X202453Y49940D01*
X203678Y49865D01*
X204901Y49759D01*
X206121Y49624D01*
X207337Y49459D01*
X208548Y49264D01*
X209755Y49039D01*
X210955Y48785D01*
X212149Y48502D01*
X213336Y48189D01*
X214514Y47847D01*
X215684Y47476D01*
X216844Y47077D01*
X217995Y46650D01*
X219134Y46194D01*
X220262Y45710D01*
X221378Y45199D01*
X222481Y44661D01*
X223570Y44096D01*
X224645Y43504D01*
X225705Y42886D01*
X226750Y42243D01*
X227779Y41573D01*
X228790Y40879D01*
X229785Y40160D01*
X230762Y39417D01*
X231720Y38651D01*
X232659Y37860D01*
X233578Y37048D01*
X234477Y36212D01*
X235355Y35355D01*
X236212Y34477D01*
X237048Y33578D01*
X237860Y32659D01*
X238651Y31720D01*
X239417Y30762D01*
X240160Y29785D01*
X240879Y28790D01*
X241573Y27779D01*
X242243Y26750D01*
X242886Y25705D01*
X243504Y24645D01*
X244096Y23570D01*
X244661Y22481D01*
X245199Y21378D01*
X245710Y20262D01*
X246194Y19134D01*
X246650Y17995D01*
X247077Y16844D01*
X247476Y15684D01*
X247847Y14514D01*
X248189Y13336D01*
X248502Y12149D01*
X248785Y10955D01*
X249039Y9755D01*
X249264Y8548D01*
X249459Y7337D01*
X249624Y6121D01*
X249759Y4901D01*
X249865Y3678D01*
X249940Y2453D01*
X249985Y1227D01*
X250000Y0D01*
X249985Y-1227D01*
X249940Y-2453D01*
X249865Y-3678D01*
X249759Y-4901D01*
X249624Y-6121D01*
X249459Y-7337D01*
X249264Y-8548D01*
X249039Y-9755D01*
X248785Y-10955D01*
X248502Y-12149D01*
X248189Y-13336D01*
X247847Y-14514D01*
X247476Y-15684D01*
X247077Y-16844D01*
X246650Y-17995D01*
X246194Y-19134D01*
X245710Y-20262D01*
X245199Y-21378D01*
X244661Y-22481D01*
X244096Y-23570D01*
X243504Y-24645D01*
X242886Y-25705D01*
X242243Y-26750D01*
X241573Y-27779D01*
X240879Y-28790D01*
X240160Y-29785D01*
X239417Y-30762D01*
X238651Y-31720D01*
X237860Y-32659D01*
X237048Y-33578D01*
X236212Y-34477D01*
X235355Y-35355D01*
X234477Y-36212D01*
X233578Y-37048D01*
X232659Y-37860D01*
X231720Y-38651D01*
X230762Y-39417D01*
X229785Y-40160D01*
X228790Y-40879D01*
X227779Y-41573D01*
X226750Y-42243D01*
X225705Y-42886D01*
X224645Y-43504D01*
X223570Y-44096D01*
X222481Y-44661D01*
X221378Y-45199D01*
X220262Y-45710D01*
X219134Y-46194D01*
X217995Y-46650D01*
X216844Y-47077D01*
X215684Y-47476D01*
X214514Y-47847D01*
X213336Y-48189D01*
X212149Y-48502D01*
X210955Y-48785D01*
X209755Y-49039D01*
X208548Y-49264D01*
X207337Y-49459D01*
X206121Y-49624D01*
X204901Y-49759D01*
X203678Y-49865D01*
X202453Y-49940D01*
X201227Y-49985D01*
X200000Y-50000D01*
X198773Y-49985D01*
X197547Y-49940D01*
X196322Y-49865D01*
X195099Y-49759D01*
X193879Y-49624D01*
X192663Y-49459D01*
X191452Y-49264D01*
X190245Y-49039D01*
X189045Y-48785D01*
X187851Y-48502D01*
X186664Y-48189D01*
X185486Y-47847D01*
X184316Y-47476D01*
X183156Y-47077D01*
X182005Y-46650D01*
X180866Y-46194D01*
X179738Y-45710D01*
X178622Y-45199D01*
X177519Y-44661D01*
X176430Y-44096D01*
X175355Y-43504D01*
X174295Y-42886D01*
X173250Y-42243D01*
X172221Y-41573D01*
X171210Y-40879D01*
X170215Y-40160D01*
X169238Y-39417D01*
X168280Y-38651D01*
X167341Y-37860D01*
X166422Y-37048D01*
X165523Y-36212D01*
X164645Y-35355D01*
X163788Y-34477D01*
X162952Y-33578D01*
X162140Y-32659D01*
X161349Y-31720D01*
X160583Y-30762D01*
X159840Y-29785D01*
X159121Y-28790D01*
X158427Y-27779D01*
X157757Y-26750D01*
X157114Y-25705D01*
X156496Y-24645D01*
X155904Y-23570D01*
X155339Y-22481D01*
X154801Y-21378D01*
X154290Y-20262D01*
X153806Y-19134D01*
X153350Y-17995D01*
X152923Y-16844D01*
X152524Y-15684D01*
X152153Y-14514D01*
X151811Y-13336D01*
X151498Y-12149D01*
X151215Y-10955D01*
X150961Y-9755D01*
X150736Y-8548D01*
X150541Y-7337D01*
X150376Y-6121D01*
X150241Y-4901D01*
X150135Y-3678D01*
X150060Y-2453D01*
X150015Y-1227D01*
X150000Y0D01*
D15*
X200000Y0D03*
D14*
X250000Y-100000D02*
X250015Y-98773D01*
X250060Y-97547D01*
X250135Y-96322D01*
X250241Y-95099D01*
X250376Y-93879D01*
X250541Y-92663D01*
X250736Y-91452D01*
X250961Y-90245D01*
X251215Y-89045D01*
X251498Y-87851D01*
X251811Y-86664D01*
X252153Y-85486D01*
X252524Y-84316D01*
X252923Y-83156D01*
X253350Y-82005D01*
X253806Y-80866D01*
X254290Y-79738D01*
X254801Y-78622D01*
X255339Y-77519D01*
X255904Y-76430D01*
X256496Y-75355D01*
X257114Y-74295D01*
X257757Y-73250D01*
X258427Y-72221D01*
X259121Y-71210D01*
X259840Y-70215D01*
X260583Y-69238D01*
X261349Y-68280D01*
X262140Y-67341D01*
X262952Y-66422D01*
X263788Y-65523D01*
X264645Y-64645D01*
X265523Y-63788D01*
X266422Y-62952D01*
X267341Y-62140D01*
X268280Y-61349D01*
X269238Y-60583D01*
X270215Y-59840D01*
X271210Y-59121D01*
X272221Y-58427D01*
X273250Y-57757D01*
X274295Y-57114D01*
X275355Y-56496D01*
X276430Y-55904D01*
X277519Y-55339D01*
X278622Y-54801D01*
X279738Y-54290D01*
X280866Y-53806D01*
X282005Y-53350D01*
X283156Y-52923D01*
X284316Y-52524D01*
X285486Y-52153D01*
X286664Y-51811D01*
X287851Y-51498D01*
X289045Y-51215D01*
X290245Y-50961D01*
X291452Y-50736D01*
X292663Y-50541D01*
X293879Y-50376D01*
X295099Y-50241D01*
X296322Y-50135D01*
X297547Y-50060D01*
X298773Y-50015D01*
X300000Y-50000D01*
X301227Y-50015D01*
X302453Y-50060D01*
X303678Y-50135D01*
X304901Y-50241D01*
X306121Y-50376D01*
X307337Y-50541D01*
X308548Y-50736D01*
X309755Y-50961D01*
X310955Y-51215D01*
X312149Y-51498D01*
X313336Y-51811D01*
X314514Y-52153D01*
X315684Y-52524D01*
X316844Y-52923D01*
X317995Y-53350D01*
X319134Y-53806D01*
X320262Y-54290D01*
X321378Y-54801D01*
X322481Y-55339D01*
X323570Y-55904D01*
X324645Y-56496D01*
X325705Y-57114D01*
X326750Y-57757D01*
X327779Y-58427D01*
X328790Y-59121D01*
X329785Y-59840D01*
X330762Y-60583D01*
X331720Y-61349D01*
X332659Y-62140D01*
X333578Y-62952D01*
X334477Y-63788D01*
X335355Y-64645D01*
X336212Y-65523D01*
X337048Y-66422D01*
X337860Y-67341D01*
X338651Y-68280D01*
X339417Y-69238D01*
X340160Y-70215D01*
X340879Y-71210D01*
X341573Y-72221D01*
X342243Y-73250D01*
X342886Y-74295D01*
X343504Y-75355D01*
X344096Y-76430D01*
X344661Y-77519D01*
X345199Y-78622D01*
X345710Y-79738D01*
X346194Y-80866D01*
X346650Y-82005D01*
X347077Y-83156D01*
X347476Y-84316D01*
X347847Y-85486D01*
X348189Y-86664D01*
X348502Y-87851D01*
X348785Y-89045D01*
X349039Y-90245D01*
X349264Y-91452D01*
X349459Y-92663D01*
X349624Y-93879D01*
X349759Y-95099D01*
X349865Y-96322D01*
X349940Y-97547D01*
X349985Y-98773D01*
X350000Y-100000D01*
X349985Y-101227D01*
X349940Y-102453D01*
X349865Y-103678D01*
X349759Y-104901D01*
X349624Y-106121D01*
X349459Y-107337D01*
X349264Y-108548D01*
X349039Y-109755D01*
X348785Y-110955D01*
X348502Y-112149D01*
X348189Y-113336D01*
X347847Y-114514D01*
X347476Y-115684D01*
X347077Y-116844D01*
X346650Y-117995D01*
X346194Y-119134D01*
X345710Y-120262D01*
X345199Y-121378D01*
X344661Y-122481D01*
X344096Y-123570D01*
X343504Y-124645D01*
X342886Y-125705D01*
X342243Y-126750D01*
X341573Y-127779D01*
X340879Y-128790D01*
X340160Y-129785D01*
X339417Y-130762D01*
X338651Y-131720D01*
X337860Y-132659D01*
X337048Y-133578D01*
X336212Y-134477D01*
X335355Y-135355D01*
X334477Y-136212D01*
X333578Y-137048D01*
X332659Y-137860D01*
X331720Y-138651D01*
X330762Y-139417D01*
X329785Y-140160D01*
X328790Y-140879D01*
X327779Y-141573D01*
X326750Y-142243D01*
X325705Y-142886D01*
X324645Y-143504D01*
X323570Y-144096D01*
X322481Y-144661D01*
X321378Y-145199D01*
X320262Y-145710D01*
X319134Y-146194D01*
X317995Y-146650D01*
X316844Y-147077D01*
X315684Y-147476D01*
X314514Y-147847D01*
X313336Y-148189D01*
X312149Y-148502D01*
X310955Y-148785D01*
X309755Y-149039D01*
X308548Y-149264D01*
X307337Y-149459D01*
X306121Y-149624D01*
X304901Y-149759D01*
X303678Y-149865D01*
X302453Y-149940D01*
X301227Y-149985D01*
X300000Y-150000D01*
X298773Y-149985D01*
X297547Y-149940D01*
X296322Y-149865D01*
X295099Y-149759D01*
X293879Y-149624D01*
X292663Y-149459D01*
X291452Y-149264D01*
X290245Y-149039D01*
X289045Y-148785D01*
X287851Y-148502D01*
X286664Y-148189D01*
X285486Y-147847D01*
X284316Y-147476D01*
X283156Y-147077D01*
X282005Y-146650D01*
X280866Y-146194D01*
X279738Y-145710D01*
X278622Y-145199D01*
X277519Y-144661D01*
X276430Y-144096D01*
X275355Y-143504D01*
X274295Y-142886D01*
X273250Y-142243D01*
X272221Y-141573D01*
X271210Y-140879D01*
X270215Y-140160D01*
X269238Y-139417D01*
X268280Y-138651D01*
X267341Y-137860D01*
X266422Y-137048D01*
X265523Y-136212D01*
X264645Y-135355D01*
X263788Y-134477D01*
X262952Y-133578D01*
X262140Y-132659D01*
X261349Y-131720D01*
X260583Y-130762D01*
X259840Y-129785D01*
X259121Y-128790D01*
X258427Y-127779D01*
X257757Y-126750D01*
X257114Y-125705D01*
X256496Y-124645D01*
X255904Y-123570D01*
X255339Y-122481D01*
X254801Y-121378D01*
X254290Y-120262D01*
X253806Y-119134D01*
X253350Y-117995D01*
X252923Y-116844D01*
X252524Y-115684D01*
X252153Y-114514D01*
X251811Y-113336D01*
X251498Y-112149D01*
X251215Y-110955D01*
X250961Y-109755D01*
X250736Y-108548D01*
X250541Y-107337D01*
X250376Y-106121D01*
X250241Y-104901D01*
X250135Y-103678D01*
X250060Y-102453D01*
X250015Y-101227D01*
X250000Y-100000D01*
D15*
X300000Y-100000D03*
D14*
X350000Y0D02*
X350015Y1227D01*
X350060Y2453D01*
X350135Y3678D01*
X350241Y4901D01*
X350376Y6121D01*
X350541Y7337D01*
X350736Y8548D01*
X350961Y9755D01*
X351215Y10955D01*
X351498Y12149D01*
X351811Y13336D01*
X352153Y14514D01*
X352524Y15684D01*
X352923Y16844D01*
X353350Y17995D01*
X353806Y19134D01*
X354290Y20262D01*
X354801Y21378D01*
X355339Y22481D01*
X355904Y23570D01*
X356496Y24645D01*
X357114Y25705D01*
X357757Y26750D01*
X358427Y27779D01*
X359121Y28790D01*
X359840Y29785D01*
X360583Y30762D01*
X361349Y31720D01*
X362140Y32659D01*
X362952Y33578D01*
X363788Y34477D01*
X364645Y35355D01*
X365523Y36212D01*
X366422Y37048D01*
X367341Y37860D01*
X368280Y38651D01*
X369238Y39417D01*
X370215Y40160D01*
X371210Y40879D01*
X372221Y41573D01*
X373250Y42243D01*
X374295Y42886D01*
X375355Y43504D01*
X376430Y44096D01*
X377519Y44661D01*
X378622Y45199D01*
X379738Y45710D01*
X380866Y46194D01*
X382005Y46650D01*
X383156Y47077D01*
X384316Y47476D01*
X385486Y47847D01*
X386664Y48189D01*
X387851Y48502D01*
X389045Y48785D01*
X390245Y49039D01*
X391452Y49264D01*
X392663Y49459D01*
X393879Y49624D01*
X395099Y49759D01*
X396322Y49865D01*
X397547Y49940D01*
X398773Y49985D01*
X400000Y50000D01*
X401227Y49985D01*
X402453Y49940D01*
X403678Y49865D01*
X404901Y49759D01*
X406121Y49624D01*
X407337Y49459D01*
X408548Y49264D01*
X409755Y49039D01*
X410955Y48785D01*
X412149Y48502D01*
X413336Y48189D01*
X414514Y47847D01*
X415684Y47476D01*
X416844Y47077D01*
X417995Y46650D01*
X419134Y46194D01*
X420262Y45710D01*
X421378Y45199D01*
X422481Y44661D01*
X423570Y44096D01*
X424645Y43504D01*
X425705Y42886D01*
X426750Y42243D01*
X427779Y41573D01*
X428790Y40879D01*
X429785Y40160D01*
X430762Y39417D01*
X431720Y38651D01*
X432659Y37860D01*
X433578Y37048D01*
X434477Y36212D01*
X435355Y35355D01*
X436212Y34477D01*
X437048Y33578D01*
X437860Y32659D01*
X438651Y31720D01*
X439417Y30762D01*
X440160Y29785D01*
X440879Y28790D01*
X441573Y27779D01*
X442243Y26750D01*
X442886Y25705D01*
X443504Y24645D01*
X444096Y23570D01*
X444661Y22481D01*
X445199Y21378D01*
X445710Y20262D01*
X446194Y19134D01*
X446650Y17995D01*
X447077Y16844D01*
X447476Y15684D01*
X447847Y14514D01*
X448189Y13336D01*
X448502Y12149D01*
X448785Y10955D01*
X449039Y9755D01*
X449264Y8548D01*
X449459Y7337D01*
X449624Y6121D01*
X449759Y4901D01*
X449865Y3678D01*
X449940Y2453D01*
X449985Y1227D01*
X450000Y0D01*
X449985Y-1227D01*
X449940Y-2453D01*
X449865Y-3678D01*
X449759Y-4901D01*
X449624Y-6121D01*
X449459Y-7337D01*
X449264Y-8548D01*
X449039Y-9755D01*
X448785Y-10955D01*
X448502Y-12149D01*
X448189Y-13336D01*
X447847Y-14514D01*
X447476Y-15684D01*
X447077Y-16844D01*
X446650Y-17995D01*
X446194Y-19134D01*
X445710Y-20262D01*
X445199Y-21378D01*
X444661Y-22481D01*
X444096Y-23570D01*
X443504Y-24645D01*
X442886Y-25705D01*
X442243Y-26750D01*
X441573Y-27779D01*
X440879Y-28790D01*
X440160Y-29785D01*
X439417Y-30762D01*
X438651Y-31720D01*
X437860Y-32659D01*
X437048Y-33578D01*
X436212Y-34477D01*
X435355Y-35355D01*
X434477Y-36212D01*
X433578Y-37048D01*
X432659Y-37860D01*
X431720Y-38651D01*
X430762Y-39417D01*
X429785Y-40160D01*
X428790Y-40879D01*
X427779Y-41573D01*
X426750Y-42243D01*
X425705Y-42886D01*
X424645Y-43504D01*
X423570Y-44096D01*
X422481Y-44661D01*
X421378Y-45199D01*
X420262Y-45710D01*
X419134Y-46194D01*
X417995Y-46650D01*
X416844Y-47077D01*
X415684Y-47476D01*
X414514Y-47847D01*
X413336Y-48189D01*
X412149Y-48502D01*
X410955Y-48785D01*
X409755Y-49039D01*
X408548Y-49264D01*
X407337Y-49459D01*
X406121Y-49624D01*
X404901Y-49759D01*
X403678Y-49865D01*
X402453Y-49940D01*
X401227Y-49985D01*
X400000Y-50000D01*
X398773Y-49985D01*
X397547Y-49940D01*
X396322Y-49865D01*
X395099Y-49759D01*
X393879Y-49624D01*
X392663Y-49459D01*
X391452Y-49264D01*
X390245Y-49039D01*
X389045Y-48785D01*
X387851Y-48502D01*
X386664Y-48189D01*
X385486Y-47847D01*
X384316Y-47476D01*
X383156Y-47077D01*
X382005Y-46650D01*
X380866Y-46194D01*
X379738Y-45710D01*
X378622Y-45199D01*
X377519Y-44661D01*
X376430Y-44096D01*
X375355Y-43504D01*
X374295Y-42886D01*
X373250Y-42243D01*
X372221Y-41573D01*
X371210Y-40879D01*
X370215Y-40160D01*
X369238Y-39417D01*
X368280Y-38651D01*
X367341Y-37860D01*
X366422Y-37048D01*
X365523Y-36212D01*
X364645Y-35355D01*
X363788Y-34477D01*
X362952Y-33578D01*
X362140Y-32659D01*
X361349Y-31720D01*
X360583Y-30762D01*
X359840Y-29785D01*
X359121Y-28790D01*
X358427Y-27779D01*
X357757Y-26750D01*
X357114Y-25705D01*
X356496Y-24645D01*
X355904Y-23570D01*
X355339Y-22481D01*
X354801Y-21378D01*
X354290Y-20262D01*
X353806Y-19134D01*
X353350Y-17995D01*
X352923Y-16844D01*
X352524Y-15684D01*
X352153Y-14514D01*
X351811Y-13336D01*
X351498Y-12149D01*
X351215Y-10955D01*
X350961Y-9755D01*
X350736Y-8548D01*
X350541Y-7337D01*
X350376Y-6121D01*
X350241Y-4901D01*
X350135Y-3678D01*
X350060Y-2453D01*
X350015Y-1227D01*
X350000Y0D01*
D15*
X400000Y0D03*
D14*
X-450000Y-200000D02*
X-449985Y-198773D01*
X-449940Y-197547D01*
X-449865Y-196322D01*
X-449759Y-195099D01*
X-449624Y-193879D01*
X-449459Y-192663D01*
X-449264Y-191452D01*
X-449039Y-190245D01*
X-448785Y-189045D01*
X-448502Y-187851D01*
X-448189Y-186664D01*
X-447847Y-185486D01*
X-447476Y-184316D01*
X-447077Y-183156D01*
X-446650Y-182005D01*
X-446194Y-180866D01*
X-445710Y-179738D01*
X-445199Y-178622D01*
X-444661Y-177519D01*
X-444096Y-176430D01*
X-443504Y-175355D01*
X-442886Y-174295D01*
X-442243Y-173250D01*
X-441573Y-172221D01*
X-440879Y-171210D01*
X-440160Y-170215D01*
X-439417Y-169238D01*
X-438651Y-168280D01*
X-437860Y-167341D01*
X-437048Y-166422D01*
X-436212Y-165523D01*
X-435355Y-164645D01*
X-434477Y-163788D01*
X-433578Y-162952D01*
X-432659Y-162140D01*
X-431720Y-161349D01*
X-430762Y-160583D01*
X-429785Y-159840D01*
X-428790Y-159121D01*
X-427779Y-158427D01*
X-426750Y-157757D01*
X-425705Y-157114D01*
X-424645Y-156496D01*
X-423570Y-155904D01*
X-422481Y-155339D01*
X-421378Y-154801D01*
X-420262Y-154290D01*
X-419134Y-153806D01*
X-417995Y-153350D01*
X-416844Y-152923D01*
X-415684Y-152524D01*
X-414514Y-152153D01*
X-413336Y-151811D01*
X-412149Y-151498D01*
X-410955Y-151215D01*
X-409755Y-150961D01*
X-408548Y-150736D01*
X-407337Y-150541D01*
X-406121Y-150376D01*
X-404901Y-150241D01*
X-403678Y-150135D01*
X-402453Y-150060D01*
X-401227Y-150015D01*
X-400000Y-150000D01*
X-398773Y-150015D01*
X-397547Y-150060D01*
X-396322Y-150135D01*
X-395099Y-150241D01*
X-393879Y-150376D01*
X-392663Y-150541D01*
X-391452Y-150736D01*
X-390245Y-150961D01*
X-389045Y-151215D01*
X-387851Y-151498D01*
X-386664Y-151811D01*
X-385486Y-152153D01*
X-384316Y-152524D01*
X-383156Y-152923D01*
X-382005Y-153350D01*
X-380866Y-153806D01*
X-379738Y-154290D01*
X-378622Y-154801D01*
X-377519Y-155339D01*
X-376430Y-155904D01*
X-375355Y-156496D01*
X-374295Y-157114D01*
X-373250Y-157757D01*
X-372221Y-158427D01*
X-371210Y-159121D01*
X-370215Y-159840D01*
X-369238Y-160583D01*
X-368280Y-161349D01*
X-367341Y-162140D01*
X-366422Y-162952D01*
X-365523Y-163788D01*
X-364645Y-164645D01*
X-363788Y-165523D01*
X-362952Y-166422D01*
X-362140Y-167341D01*
X-361349Y-168280D01*
X-360583Y-169238D01*
X-359840Y-170215D01*
X-359121Y-171210D01*
X-358427Y-172221D01*
X-357757Y-173250D01*
X-357114Y-174295D01*
X-356496Y-175355D01*
X-355904Y-176430D01*
X-355339Y-177519D01*
X-354801Y-178622D01*
X-354290Y-179738D01*
X-353806Y-180866D01*
X-353350Y-182005D01*
X-352923Y-183156D01*
X-352524Y-184316D01*
X-352153Y-185486D01*
X-351811Y-186664D01*
X-351498Y-187851D01*
X-351215Y-189045D01*
X-350961Y-190245D01*
X-350736Y-191452D01*
X-350541Y-192663D01*
X-350376Y-193879D01*
X-350241Y-195099D01*
X-350135Y-196322D01*
X-350060Y-197547D01*
X-350015Y-198773D01*
X-350000Y-200000D01*
X-350015Y-201227D01*
X-350060Y-202453D01*
X-350135Y-203678D01*
X-350241Y-204901D01*
X-350376Y-206121D01*
X-350541Y-207337D01*
X-350736Y-208548D01*
X-350961Y-209755D01*
X-351215Y-210955D01*
X-351498Y-212149D01*
X-351811Y-213336D01*
X-352153Y-214514D01*
X-352524Y-215684D01*
X-352923Y-216844D01*
X-353350Y-217995D01*
X-353806Y-219134D01*
X-354290Y-220262D01*
X-354801Y-221378D01*
X-355339Y-222481D01*
X-355904Y-223570D01*
X-356496Y-224645D01*
X-357114Y-225705D01*
X-357757Y-226750D01*
X-358427Y-227779D01*
X-359121Y-228790D01*
X-359840Y-229785D01*
X-360583Y-230762D01*
X-361349Y-231720D01*
X-362140Y-232659D01*
X-362952Y-233578D01*
X-363788Y-234477D01*
X-364645Y-235355D01*
X-365523Y-236212D01*
X-366422Y-237048D01*
X-367341Y-237860D01*
X-368280Y-238651D01*
X-369238Y-239417D01*
X-370215Y-240160D01*
X-371210Y-240879D01*
X-372221Y-241573D01*
X-373250Y-242243D01*
X-374295Y-242886D01*
X-375355Y-243504D01*
X-376430Y-244096D01*
X-377519Y-244661D01*
X-378622Y-245199D01*
X-379738Y-245710D01*
X-380866Y-246194D01*
X-382005Y-246650D01*
X-383156Y-247077D01*
X-384316Y-247476D01*
X-385486Y-247847D01*
X-386664Y-248189D01*
X-387851Y-248502D01*
X-389045Y-248785D01*
X-390245Y-249039D01*
X-391452Y-249264D01*
X-392663Y-249459D01*
X-393879Y-249624D01*
X-395099Y-249759D01*
X-396322Y-249865D01*
X-397547Y-249940D01*
X-398773Y-249985D01*
X-400000Y-250000D01*
X-401227Y-249985D01*
X-402453Y-249940D01*
X-403678Y-249865D01*
X-404901Y-249759D01*
X-406121Y-249624D01*
X-407337Y-249459D01*
X-408548Y-249264D01*
X-409755Y-249039D01*
X-410955Y-248785D01*
X-412149Y-248502D01*
X-413336Y-248189D01*
X-414514Y-247847D01*
X-415684Y-247476D01*
X-416844Y-247077D01*
X-417995Y-246650D01*
X-419134Y-246194D01*
X-420262Y-245710D01*
X-421378Y-245199D01*
X-422481Y-244661D01*
X-423570Y-244096D01*
X-424645Y-243504D01*
X-425705Y-242886D01*
X-426750Y-242243D01*
X-427779Y-241573D01*
X-428790Y-240879D01*
X-429785Y-240160D01*
X-430762Y-239417D01*
X-431720Y-238651D01*
X-432659Y-237860D01*
X-433578Y-237048D01*
X-434477Y-236212D01*
X-435355Y-235355D01*
X-436212Y-234477D01*
X-437048Y-233578D01*
X-437860Y-232659D01*
X-438651Y-231720D01*
X-439417Y-230762D01*
X-440160Y-229785D01*
X-440879Y-228790D01*
X-441573Y-227779D01*
X-442243Y-226750D01*
X-442886Y-225705D01*
X-443504Y-224645D01*
X-444096Y-223570D01*
X-444661Y-222481D01*
X-445199Y-221378D01*
X-445710Y-220262D01*
X-446194Y-219134D01*
X-446650Y-217995D01*
X-447077Y-216844D01*
X-447476Y-215684D01*
X-447847Y-214514D01*
X-448189Y-213336D01*
X-448502Y-212149D01*
X-448785Y-210955D01*
X-449039Y-209755D01*
X-449264Y-208548D01*
X-449459Y-207337D01*
X-449624Y-206121D01*
X-449759Y-204901D01*
X-449865Y-203678D01*
X-449940Y-202453D01*
X-449985Y-201227D01*
X-450000Y-200000D01*
D15*
X-400000Y-200000D03*
D14*
X-350000Y-300000D02*
X-349985Y-298773D01*
X-349940Y-297547D01*
X-349865Y-296322D01*
X-349759Y-295099D01*
X-349624Y-293879D01*
X-349459Y-292663D01*
X-349264Y-291452D01*
X-349039Y-290245D01*
X-348785Y-289045D01*
X-348502Y-287851D01*
X-348189Y-286664D01*
X-347847Y-285486D01*
X-347476Y-284316D01*
X-347077Y-283156D01*
X-346650Y-282005D01*
X-346194Y-280866D01*
X-345710Y-279738D01*
X-345199Y-278622D01*
X-344661Y-277519D01*
X-344096Y-276430D01*
X-343504Y-275355D01*
X-342886Y-274295D01*
X-342243Y-273250D01*
X-341573Y-272221D01*
X-340879Y-271210D01*
X-340160Y-270215D01*
X-339417Y-269238D01*
X-338651Y-268280D01*
X-337860Y-267341D01*
X-337048Y-266422D01*
X-336212Y-265523D01*
X-335355Y-264645D01*
X-334477Y-263788D01*
X-333578Y-262952D01*
X-332659Y-262140D01*
X-331720Y-261349D01*
X-330762Y-260583D01*
X-329785Y-259840D01*
X-328790Y-259121D01*
X-327779Y-258427D01*
X-326750Y-257757D01*
X-325705Y-257114D01*
X-324645Y-256496D01*
X-323570Y-255904D01*
X-322481Y-255339D01*
X-321378Y-254801D01*
X-320262Y-254290D01*
X-319134Y-253806D01*
X-317995Y-253350D01*
X-316844Y-252923D01*
X-315684Y-252524D01*
X-314514Y-252153D01*
X-313336Y-251811D01*
X-312149Y-251498D01*
X-310955Y-251215D01*
X-309755Y-250961D01*
X-308548Y-250736D01*
X-307337Y-250541D01*
X-306121Y-250376D01*
X-304901Y-250241D01*
X-303678Y-250135D01*
X-302453Y-250060D01*
X-301227Y-250015D01*
X-300000Y-250000D01*
X-298773Y-250015D01*
X-297547Y-250060D01*
X-296322Y-250135D01*
X-295099Y-250241D01*
X-293879Y-250376D01*
X-292663Y-250541D01*
X-291452Y-250736D01*
X-290245Y-250961D01*
X-289045Y-251215D01*
X-287851Y-251498D01*
X-286664Y-251811D01*
X-285486Y-252153D01*
X-284316Y-252524D01*
X-283156Y-252923D01*
X-282005Y-253350D01*
X-280866Y-253806D01*
X-279738Y-254290D01*
X-278622Y-254801D01*
X-277519Y-255339D01*
X-276430Y-255904D01*
X-275355Y-256496D01*
X-274295Y-257114D01*
X-273250Y-257757D01*
X-272221Y-258427D01*
X-271210Y-259121D01*
X-270215Y-259840D01*
X-269238Y-260583D01*
X-268280Y-261349D01*
X-267341Y-262140D01*
X-266422Y-262952D01*
X-265523Y-263788D01*
X-264645Y-264645D01*
X-263788Y-265523D01*
X-262952Y-266422D01*
X-262140Y-267341D01*
X-261349Y-268280D01*
X-260583Y-269238D01*
X-259840Y-270215D01*
X-259121Y-271210D01*
X-258427Y-272221D01*
X-257757Y-273250D01*
X-257114Y-274295D01*
X-256496Y-275355D01*
X-255904Y-276430D01*
X-255339Y-277519D01*
X-254801Y-278622D01*
X-254290Y-279738D01*
X-253806Y-280866D01*
X-253350Y-282005D01*
X-252923Y-283156D01*
X-252524Y-284316D01*
X-252153Y-285486D01*
X-251811Y-286664D01*
X-251498Y-287851D01*
X-251215Y-289045D01*
X-250961Y-290245D01*
X-250736Y-291452D01*
X-250541Y-292663D01*
X-250376Y-293879D01*
X-250241Y-295099D01*
X-250135Y-296322D01*
X-250060Y-297547D01*
X-250015Y-298773D01*
X-250000Y-300000D01*
X-250015Y-301227D01*
X-250060Y-302453D01*
X-250135Y-303678D01*
X-250241Y-304901D01*
X-250376Y-306121D01*
X-250541Y-307337D01*
X-250736Y-308548D01*
X-250961Y-309755D01*
X-251215Y-310955D01*
X-251498Y-312149D01*
X-251811Y-313336D01*
X-252153Y-314514D01*
X-252524Y-315684D01*
X-252923Y-316844D01*
X-253350Y-317995D01*
X-253806Y-319134D01*
X-254290Y-320262D01*
X-254801Y-321378D01*
X-255339Y-322481D01*
X-255904Y-323570D01*
X-256496Y-324645D01*
X-257114Y-325705D01*
X-257757Y-326750D01*
X-258427Y-327779D01*
X-259121Y-328790D01*
X-259840Y-329785D01*
X-260583Y-330762D01*
X-261349Y-331720D01*
X-262140Y-332659D01*
X-262952Y-333578D01*
X-263788Y-334477D01*
X-264645Y-335355D01*
X-265523Y-336212D01*
X-266422Y-337048D01*
X-267341Y-337860D01*
X-268280Y-338651D01*
X-269238Y-339417D01*
X-270215Y-340160D01*
X-271210Y-340879D01*
X-272221Y-341573D01*
X-273250Y-342243D01*
X-274295Y-342886D01*
X-275355Y-343504D01*
X-276430Y-344096D01*
X-277519Y-344661D01*
X-278622Y-345199D01*
X-279738Y-345710D01*
X-280866Y-346194D01*
X-282005Y-346650D01*
X-283156Y-347077D01*
X-284316Y-347476D01*
X-285486Y-347847D01*
X-286664Y-348189D01*
X-287851Y-348502D01*
X-289045Y-348785D01*
X-290245Y-349039D01*
X-291452Y-349264D01*
X-292663Y-349459D01*
X-293879Y-349624D01*
X-295099Y-349759D01*
X-296322Y-349865D01*
X-297547Y-349940D01*
X-298773Y-349985D01*
X-300000Y-350000D01*
X-301227Y-349985D01*
X-302453Y-349940D01*
X-303678Y-349865D01*
X-304901Y-349759D01*
X-306121Y-349624D01*
X-307337Y-349459D01*
X-308548Y-349264D01*
X-309755Y-349039D01*
X-310955Y-348785D01*
X-312149Y-348502D01*
X-313336Y-348189D01*
X-314514Y-347847D01*
X-315684Y-347476D01*
X-316844Y-347077D01*
X-317995Y-346650D01*
X-319134Y-346194D01*
X-320262Y-345710D01*
X-321378Y-345199D01*
X-322481Y-344661D01*
X-323570Y-344096D01*
X-324645Y-343504D01*
X-325705Y-342886D01*
X-326750Y-342243D01*
X-327779Y-341573D01*
X-328790Y-340879D01*
X-329785Y-340160D01*
X-330762Y-339417D01*
X-331720Y-338651D01*
X-332659Y-337860D01*
X-333578Y-337048D01*
X-334477Y-336212D01*
X-335355Y-335355D01*
X-336212Y-334477D01*
X-337048Y-333578D01*
X-337860Y-332659D01*
X-338651Y-331720D01*
X-339417Y-330762D01*
X-340160Y-329785D01*
X-340879Y-328790D01*
X-341573Y-327779D01*
X-342243Y-326750D01*
X-342886Y-325705D01*
X-343504Y-324645D01*
X-344096Y-323570D01*
X-344661Y-322481D01*
X-345199Y-321378D01*
X-345710Y-320262D01*
X-346194Y-319134D01*
X-346650Y-317995D01*
X-347077Y-316844D01*
X-347476Y-315684D01*
X-347847Y-314514D01*
X-348189Y-313336D01*
X-348502Y-312149D01*
X-348785Y-310955D01*
X-349039Y-309755D01*
X-349264Y-308548D01*
X-349459Y-307337D01*
X-349624Y-306121D01*
X-349759Y-304901D01*
X-349865Y-303678D01*
X-349940Y-302453D01*
X-349985Y-301227D01*
X-350000Y-300000D01*
D15*
X-300000Y-300000D03*
D14*
X-250000Y-200000D02*
X-249985Y-198773D01*
X-249940Y-197547D01*
X-249865Y-196322D01*
X-249759Y-195099D01*
X-249624Y-193879D01*
X-249459Y-192663D01*
X-249264Y-191452D01*
X-249039Y-190245D01*
X-248785Y-189045D01*
X-248502Y-187851D01*
X-248189Y-186664D01*
X-247847Y-185486D01*
X-247476Y-184316D01*
X-247077Y-183156D01*
X-246650Y-182005D01*
X-246194Y-180866D01*
X-245710Y-179738D01*
X-245199Y-178622D01*
X-244661Y-177519D01*
X-244096Y-176430D01*
X-243504Y-175355D01*
X-242886Y-174295D01*
X-242243Y-173250D01*
X-241573Y-172221D01*
X-240879Y-171210D01*
X-240160Y-170215D01*
X-239417Y-169238D01*
X-238651Y-168280D01*
X-237860Y-167341D01*
X-237048Y-166422D01*
X-236212Y-165523D01*
X-235355Y-164645D01*
X-234477Y-163788D01*
X-233578Y-162952D01*
X-232659Y-162140D01*
X-231720Y-161349D01*
X-230762Y-160583D01*
X-229785Y-159840D01*
X-228790Y-159121D01*
X-227779Y-158427D01*
X-226750Y-157757D01*
X-225705Y-157114D01*
X-224645Y-156496D01*
X-223570Y-155904D01*
X-222481Y-155339D01*
X-221378Y-154801D01*
X-220262Y-154290D01*
X-219134Y-153806D01*
X-217995Y-153350D01*
X-216844Y-152923D01*
X-215684Y-152524D01*
X-214514Y-152153D01*
X-213336Y-151811D01*
X-212149Y-151498D01*
X-210955Y-151215D01*
X-209755Y-150961D01*
X-208548Y-150736D01*
X-207337Y-150541D01*
X-206121Y-150376D01*
X-204901Y-150241D01*
X-203678Y-150135D01*
X-202453Y-150060D01*
X-201227Y-150015D01*
X-200000Y-150000D01*
X-198773Y-150015D01*
X-197547Y-150060D01*
X-196322Y-150135D01*
X-195099Y-150241D01*
X-193879Y-150376D01*
X-192663Y-150541D01*
X-191452Y-150736D01*
X-190245Y-150961D01*
X-189045Y-151215D01*
X-187851Y-151498D01*
X-186664Y-151811D01*
X-185486Y-152153D01*
X-184316Y-152524D01*
X-183156Y-152923D01*
X-182005Y-153350D01*
X-180866Y-153806D01*
X-179738Y-154290D01*
X-178622Y-154801D01*
X-177519Y-155339D01*
X-176430Y-155904D01*
X-175355Y-156496D01*
X-174295Y-157114D01*
X-173250Y-157757D01*
X-172221Y-158427D01*
X-171210Y-159121D01*
X-170215Y-159840D01*
X-169238Y-160583D01*
X-168280Y-161349D01*
X-167341Y-162140D01*
X-166422Y-162952D01*
X-165523Y-163788D01*
X-164645Y-164645D01*
X-163788Y-165523D01*
X-162952Y-166422D01*
X-162140Y-167341D01*
X-161349Y-168280D01*
X-160583Y-169238D01*
X-159840Y-170215D01*
X-159121Y-171210D01*
X-158427Y-172221D01*
X-157757Y-173250D01*
X-157114Y-174295D01*
X-156496Y-175355D01*
X-155904Y-176430D01*
X-155339Y-177519D01*
X-154801Y-178622D01*
X-154290Y-179738D01*
X-153806Y-180866D01*
X-153350Y-182005D01*
X-152923Y-183156D01*
X-152524Y-184316D01*
X-152153Y-185486D01*
X-151811Y-186664D01*
X-151498Y-187851D01*
X-151215Y-189045D01*
X-150961Y-190245D01*
X-150736Y-191452D01*
X-150541Y-192663D01*
X-150376Y-193879D01*
X-150241Y-195099D01*
X-150135Y-196322D01*
X-150060Y-197547D01*
X-150015Y-198773D01*
X-150000Y-200000D01*
X-150015Y-201227D01*
X-150060Y-202453D01*
X-150135Y-203678D01*
X-150241Y-204901D01*
X-150376Y-206121D01*
X-150541Y-207337D01*
X-150736Y-208548D01*
X-150961Y-209755D01*
X-151215Y-210955D01*
X-151498Y-212149D01*
X-151811Y-213336D01*
X-152153Y-214514D01*
X-152524Y-215684D01*
X-152923Y-216844D01*
X-153350Y-217995D01*
X-153806Y-219134D01*
X-154290Y-220262D01*
X-154801Y-221378D01*
X-155339Y-222481D01*
X-155904Y-223570D01*
X-156496Y-224645D01*
X-157114Y-225705D01*
X-157757Y-226750D01*
X-158427Y-227779D01*
X-159121Y-228790D01*
X-159840Y-229785D01*
X-160583Y-230762D01*
X-161349Y-231720D01*
X-162140Y-232659D01*
X-162952Y-233578D01*
X-163788Y-234477D01*
X-164645Y-235355D01*
X-165523Y-236212D01*
X-166422Y-237048D01*
X-167341Y-237860D01*
X-168280Y-238651D01*
X-169238Y-239417D01*
X-170215Y-240160D01*
X-171210Y-240879D01*
X-172221Y-241573D01*
X-173250Y-242243D01*
X-174295Y-242886D01*
X-175355Y-243504D01*
X-176430Y-244096D01*
X-177519Y-244661D01*
X-178622Y-245199D01*
X-179738Y-245710D01*
X-180866Y-246194D01*
X-182005Y-246650D01*
X-183156Y-247077D01*
X-184316Y-247476D01*
X-185486Y-247847D01*
X-186664Y-248189D01*
X-187851Y-248502D01*
X-189045Y-248785D01*
X-190245Y-249039D01*
X-191452Y-249264D01*
X-192663Y-249459D01*
X-193879Y-249624D01*
X-195099Y-249759D01*
X-196322Y-249865D01*
X-197547Y-249940D01*
X-198773Y-249985D01*
X-200000Y-250000D01*
X-201227Y-249985D01*
X-202453Y-249940D01*
X-203678Y-249865D01*
X-204901Y-249759D01*
X-206121Y-249624D01*
X-207337Y-249459D01*
X-208548Y-249264D01*
X-209755Y-249039D01*
X-210955Y-248785D01*
X-212149Y-248502D01*
X-213336Y-248189D01*
X-214514Y-247847D01*
X-215684Y-247476D01*
X-216844Y-247077D01*
X-217995Y-246650D01*
X-219134Y-246194D01*
X-220262Y-245710D01*
X-221378Y-245199D01*
X-222481Y-244661D01*
X-223570Y-244096D01*
X-224645Y-243504D01*
X-225705Y-242886D01*
X-226750Y-242243D01*
X-227779Y-241573D01*
X-228790Y-240879D01*
X-229785Y-240160D01*
X-230762Y-239417D01*
X-231720Y-238651D01*
X-232659Y-237860D01*
X-233578Y-237048D01*
X-234477Y-236212D01*
X-235355Y-235355D01*
X-236212Y-234477D01*
X-237048Y-233578D01*
X-237860Y-232659D01*
X-238651Y-231720D01*
X-239417Y-230762D01*
X-240160Y-229785D01*
X-240879Y-228790D01*
X-241573Y-227779D01*
X-242243Y-226750D01*
X-242886Y-225705D01*
X-243504Y-224645D01*
X-244096Y-223570D01*
X-244661Y-222481D01*
X-245199Y-221378D01*
X-245710Y-220262D01*
X-246194Y-219134D01*
X-246650Y-217995D01*
X-247077Y-216844D01*
X-247476Y-215684D01*
X-247847Y-214514D01*
X-248189Y-213336D01*
X-248502Y-212149D01*
X-248785Y-210955D01*
X-249039Y-209755D01*
X-249264Y-208548D01*
X-249459Y-207337D01*
X-249624Y-206121D01*
X-249759Y-204901D01*
X-249865Y-203678D01*
X-249940Y-202453D01*
X-249985Y-201227D01*
X-250000Y-200000D01*
D15*
X-200000Y-200000D03*
D14*
X-150000Y-300000D02*
X-149985Y-298773D01*
X-149940Y-297547D01*
X-149865Y-296322D01*
X-149759Y-295099D01*
X-149624Y-293879D01*
X-149459Y-292663D01*
X-149264Y-291452D01*
X-149039Y-290245D01*
X-148785Y-289045D01*
X-148502Y-287851D01*
X-148189Y-286664D01*
X-147847Y-285486D01*
X-147476Y-284316D01*
X-147077Y-283156D01*
X-146650Y-282005D01*
X-146194Y-280866D01*
X-145710Y-279738D01*
X-145199Y-278622D01*
X-144661Y-277519D01*
X-144096Y-276430D01*
X-143504Y-275355D01*
X-142886Y-274295D01*
X-142243Y-273250D01*
X-141573Y-272221D01*
X-140879Y-271210D01*
X-140160Y-270215D01*
X-139417Y-269238D01*
X-138651Y-268280D01*
X-137860Y-267341D01*
X-137048Y-266422D01*
X-136212Y-265523D01*
X-135355Y-264645D01*
X-134477Y-263788D01*
X-133578Y-262952D01*
X-132659Y-262140D01*
X-131720Y-261349D01*
X-130762Y-260583D01*
X-129785Y-259840D01*
X-128790Y-259121D01*
X-127779Y-258427D01*
X-126750Y-257757D01*
X-125705Y-257114D01*
X-124645Y-256496D01*
X-123570Y-255904D01*
X-122481Y-255339D01*
X-121378Y-254801D01*
X-120262Y-254290D01*
X-119134Y-253806D01*
X-117995Y-253350D01*
X-116844Y-252923D01*
X-115684Y-252524D01*
X-114514Y-252153D01*
X-113336Y-251811D01*
X-112149Y-251498D01*
X-110955Y-251215D01*
X-109755Y-250961D01*
X-108548Y-250736D01*
X-107337Y-250541D01*
X-106121Y-250376D01*
X-104901Y-250241D01*
X-103678Y-250135D01*
X-102453Y-250060D01*
X-101227Y-250015D01*
X-100000Y-250000D01*
X-98773Y-250015D01*
X-97547Y-250060D01*
X-96322Y-250135D01*
X-95099Y-250241D01*
X-93879Y-250376D01*
X-92663Y-250541D01*
X-91452Y-250736D01*
X-90245Y-250961D01*
X-89045Y-251215D01*
X-87851Y-251498D01*
X-86664Y-251811D01*
X-85486Y-252153D01*
X-84316Y-252524D01*
X-83156Y-252923D01*
X-82005Y-253350D01*
X-80866Y-253806D01*
X-79738Y-254290D01*
X-78622Y-254801D01*
X-77519Y-255339D01*
X-76430Y-255904D01*
X-75355Y-256496D01*
X-74295Y-257114D01*
X-73250Y-257757D01*
X-72221Y-258427D01*
X-71210Y-259121D01*
X-70215Y-259840D01*
X-69238Y-260583D01*
X-68280Y-261349D01*
X-67341Y-262140D01*
X-66422Y-262952D01*
X-65523Y-263788D01*
X-64645Y-264645D01*
X-63788Y-265523D01*
X-62952Y-266422D01*
X-62140Y-267341D01*
X-61349Y-268280D01*
X-60583Y-269238D01*
X-59840Y-270215D01*
X-59121Y-271210D01*
X-58427Y-272221D01*
X-57757Y-273250D01*
X-57114Y-274295D01*
X-56496Y-275355D01*
X-55904Y-276430D01*
X-55339Y-277519D01*
X-54801Y-278622D01*
X-54290Y-279738D01*
X-53806Y-280866D01*
X-53350Y-282005D01*
X-52923Y-283156D01*
X-52524Y-284316D01*
X-52153Y-285486D01*
X-51811Y-286664D01*
X-51498Y-287851D01*
X-51215Y-289045D01*
X-50961Y-290245D01*
X-50736Y-291452D01*
X-50541Y-292663D01*
X-50376Y-293879D01*
X-50241Y-295099D01*
X-50135Y-296322D01*
X-50060Y-297547D01*
X-50015Y-298773D01*
X-50000Y-300000D01*
X-50015Y-301227D01*
X-50060Y-302453D01*
X-50135Y-303678D01*
X-50241Y-304901D01*
X-50376Y-306121D01*
X-50541Y-307337D01*
X-50736Y-308548D01*
X-50961Y-309755D01*
X-51215Y-310955D01*
X-51498Y-312149D01*
X-51811Y-313336D01*
X-52153Y-314514D01*
X-52524Y-315684D01*
X-52923Y-316844D01*
X-53350Y-317995D01*
X-53806Y-319134D01*
X-54290Y-320262D01*
X-54801Y-321378D01*
X-55339Y-322481D01*
X-55904Y-323570D01*
X-56496Y-324645D01*
X-57114Y-325705D01*
X-57757Y-326750D01*
X-58427Y-327779D01*
X-59121Y-328790D01*
X-59840Y-329785D01*
X-60583Y-330762D01*
X-61349Y-331720D01*
X-62140Y-332659D01*
X-62952Y-333578D01*
X-63788Y-334477D01*
X-64645Y-335355D01*
X-65523Y-336212D01*
X-66422Y-337048D01*
X-67341Y-337860D01*
X-68280Y-338651D01*
X-69238Y-339417D01*
X-70215Y-340160D01*
X-71210Y-340879D01*
X-72221Y-341573D01*
X-73250Y-342243D01*
X-74295Y-342886D01*
X-75355Y-343504D01*
X-76430Y-344096D01*
X-77519Y-344661D01*
X-78622Y-345199D01*
X-79738Y-345710D01*
X-80866Y-346194D01*
X-82005Y-346650D01*
X-83156Y-347077D01*
X-84316Y-347476D01*
X-85486Y-347847D01*
X-86664Y-348189D01*
X-87851Y-348502D01*
X-89045Y-348785D01*
X-90245Y-349039D01*
X-91452Y-349264D01*
X-92663Y-349459D01*
X-93879Y-349624D01*
X-95099Y-349759D01*
X-96322Y-349865D01*
X-97547Y-349940D01*
X-98773Y-349985D01*
X-100000Y-350000D01*
X-101227Y-349985D01*
X-102453Y-349940D01*
X-103678Y-349865D01*
X-104901Y-349759D01*
X-106121Y-349624D01*
X-107337Y-349459D01*
X-108548Y-349264D01*
X-109755Y-349039D01*
X-110955Y-348785D01*
X-112149Y-348502D01*
X-113336Y-348189D01*
X-114514Y-347847D01*
X-115684Y-347476D01*
X-116844Y-347077D01*
X-117995Y-346650D01*
X-119134Y-346194D01*
X-120262Y-345710D01*
X-121378Y-345199D01*
X-122481Y-344661D01*
X-123570Y-344096D01*
X-124645Y-343504D01*
X-125705Y-342886D01*
X-126750Y-342243D01*
X-127779Y-341573D01*
X-128790Y-340879D01*
X-129785Y-340160D01*
X-130762Y-339417D01*
X-131720Y-338651D01*
X-132659Y-337860D01*
X-133578Y-337048D01*
X-134477Y-336212D01*
X-135355Y-335355D01*
X-136212Y-334477D01*
X-137048Y-333578D01*
X-137860Y-332659D01*
X-138651Y-331720D01*
X-139417Y-330762D01*
X-140160Y-329785D01*
X-140879Y-328790D01*
X-141573Y-327779D01*
X-142243Y-326750D01*
X-142886Y-325705D01*
X-143504Y-324645D01*
X-144096Y-323570D01*
X-144661Y-322481D01*
X-145199Y-321378D01*
X-145710Y-320262D01*
X-146194Y-319134D01*
X-146650Y-317995D01*
X-147077Y-316844D01*
X-147476Y-315684D01*
X-147847Y-314514D01*
X-148189Y-313336D01*
X-148502Y-312149D01*
X-148785Y-310955D01*
X-149039Y-309755D01*
X-149264Y-308548D01*
X-149459Y-307337D01*
X-149624Y-306121D01*
X-149759Y-304901D01*
X-149865Y-303678D01*
X-149940Y-302453D01*
X-149985Y-301227D01*
X-150000Y-300000D01*
D15*
X-100000Y-300000D03*
D14*
X-50000Y-200000D02*
X-49985Y-198773D01*
X-49940Y-197547D01*
X-49865Y-196322D01*
X-49759Y-195099D01*
X-49624Y-193879D01*
X-49459Y-192663D01*
X-49264Y-191452D01*
X-49039Y-190245D01*
X-48785Y-189045D01*
X-48502Y-187851D01*
X-48189Y-186664D01*
X-47847Y-185486D01*
X-47476Y-184316D01*
X-47077Y-183156D01*
X-46650Y-182005D01*
X-46194Y-180866D01*
X-45710Y-179738D01*
X-45199Y-178622D01*
X-44661Y-177519D01*
X-44096Y-176430D01*
X-43504Y-175355D01*
X-42886Y-174295D01*
X-42243Y-173250D01*
X-41573Y-172221D01*
X-40879Y-171210D01*
X-40160Y-170215D01*
X-39417Y-169238D01*
X-38651Y-168280D01*
X-37860Y-167341D01*
X-37048Y-166422D01*
X-36212Y-165523D01*
X-35355Y-164645D01*
X-34477Y-163788D01*
X-33578Y-162952D01*
X-32659Y-162140D01*
X-31720Y-161349D01*
X-30762Y-160583D01*
X-29785Y-159840D01*
X-28790Y-159121D01*
X-27779Y-158427D01*
X-26750Y-157757D01*
X-25705Y-157114D01*
X-24645Y-156496D01*
X-23570Y-155904D01*
X-22481Y-155339D01*
X-21378Y-154801D01*
X-20262Y-154290D01*
X-19134Y-153806D01*
X-17995Y-153350D01*
X-16844Y-152923D01*
X-15684Y-152524D01*
X-14514Y-152153D01*
X-13336Y-151811D01*
X-12149Y-151498D01*
X-10955Y-151215D01*
X-9755Y-150961D01*
X-8548Y-150736D01*
X-7337Y-150541D01*
X-6121Y-150376D01*
X-4901Y-150241D01*
X-3678Y-150135D01*
X-2453Y-150060D01*
X-1227Y-150015D01*
X0Y-150000D01*
X1227Y-150015D01*
X2453Y-150060D01*
X3678Y-150135D01*
X4901Y-150241D01*
X6121Y-150376D01*
X7337Y-150541D01*
X8548Y-150736D01*
X9755Y-150961D01*
X10955Y-151215D01*
X12149Y-151498D01*
X13336Y-151811D01*
X14514Y-152153D01*
X15684Y-152524D01*
X16844Y-152923D01*
X17995Y-153350D01*
X19134Y-153806D01*
X20262Y-154290D01*
X21378Y-154801D01*
X22481Y-155339D01*
X23570Y-155904D01*
X24645Y-156496D01*
X25705Y-157114D01*
X26750Y-157757D01*
X27779Y-158427D01*
X28790Y-159121D01*
X29785Y-159840D01*
X30762Y-160583D01*
X31720Y-161349D01*
X32659Y-162140D01*
X33578Y-162952D01*
X34477Y-163788D01*
X35355Y-164645D01*
X36212Y-165523D01*
X37048Y-166422D01*
X37860Y-167341D01*
X38651Y-168280D01*
X39417Y-169238D01*
X40160Y-170215D01*
X40879Y-171210D01*
X41573Y-172221D01*
X42243Y-173250D01*
X42886Y-174295D01*
X43504Y-175355D01*
X44096Y-176430D01*
X44661Y-177519D01*
X45199Y-178622D01*
X45710Y-179738D01*
X46194Y-180866D01*
X46650Y-182005D01*
X47077Y-183156D01*
X47476Y-184316D01*
X47847Y-185486D01*
X48189Y-186664D01*
X48502Y-187851D01*
X48785Y-189045D01*
X49039Y-190245D01*
X49264Y-191452D01*
X49459Y-192663D01*
X49624Y-193879D01*
X49759Y-195099D01*
X49865Y-196322D01*
X49940Y-197547D01*
X49985Y-198773D01*
X50000Y-200000D01*
X49985Y-201227D01*
X49940Y-202453D01*
X49865Y-203678D01*
X49759Y-204901D01*
X49624Y-206121D01*
X49459Y-207337D01*
X49264Y-208548D01*
X49039Y-209755D01*
X48785Y-210955D01*
X48502Y-212149D01*
X48189Y-213336D01*
X47847Y-214514D01*
X47476Y-215684D01*
X47077Y-216844D01*
X46650Y-217995D01*
X46194Y-219134D01*
X45710Y-220262D01*
X45199Y-221378D01*
X44661Y-222481D01*
X44096Y-223570D01*
X43504Y-224645D01*
X42886Y-225705D01*
X42243Y-226750D01*
X41573Y-227779D01*
X40879Y-228790D01*
X40160Y-229785D01*
X39417Y-230762D01*
X38651Y-231720D01*
X37860Y-232659D01*
X37048Y-233578D01*
X36212Y-234477D01*
X35355Y-235355D01*
X34477Y-236212D01*
X33578Y-237048D01*
X32659Y-237860D01*
X31720Y-238651D01*
X30762Y-239417D01*
X29785Y-240160D01*
X28790Y-240879D01*
X27779Y-241573D01*
X26750Y-242243D01*
X25705Y-242886D01*
X24645Y-243504D01*
X23570Y-244096D01*
X22481Y-244661D01*
X21378Y-245199D01*
X20262Y-245710D01*
X19134Y-246194D01*
X17995Y-246650D01*
X16844Y-247077D01*
X15684Y-247476D01*
X14514Y-247847D01*
X13336Y-248189D01*
X12149Y-248502D01*
X10955Y-248785D01*
X9755Y-249039D01*
X8548Y-249264D01*
X7337Y-249459D01*
X6121Y-249624D01*
X4901Y-249759D01*
X3678Y-249865D01*
X2453Y-249940D01*
X1227Y-249985D01*
X0Y-250000D01*
X-1227Y-249985D01*
X-2453Y-249940D01*
X-3678Y-249865D01*
X-4901Y-249759D01*
X-6121Y-249624D01*
X-7337Y-249459D01*
X-8548Y-249264D01*
X-9755Y-249039D01*
X-10955Y-248785D01*
X-12149Y-248502D01*
X-13336Y-248189D01*
X-14514Y-247847D01*
X-15684Y-247476D01*
X-16844Y-247077D01*
X-17995Y-246650D01*
X-19134Y-246194D01*
X-20262Y-245710D01*
X-21378Y-245199D01*
X-22481Y-244661D01*
X-23570Y-244096D01*
X-24645Y-243504D01*
X-25705Y-242886D01*
X-26750Y-242243D01*
X-27779Y-241573D01*
X-28790Y-240879D01*
X-29785Y-240160D01*
X-30762Y-239417D01*
X-31720Y-238651D01*
X-32659Y-237860D01*
X-33578Y-237048D01*
X-34477Y-236212D01*
X-35355Y-235355D01*
X-36212Y-234477D01*
X-37048Y-233578D01*
X-37860Y-232659D01*
X-38651Y-231720D01*
X-39417Y-230762D01*
X-40160Y-229785D01*
X-40879Y-228790D01*
X-41573Y-227779D01*
X-42243Y-226750D01*
X-42886Y-225705D01*
X-43504Y-224645D01*
X-44096Y-223570D01*
X-44661Y-222481D01*
X-45199Y-221378D01*
X-45710Y-220262D01*
X-46194Y-219134D01*
X-46650Y-217995D01*
X-47077Y-216844D01*
X-47476Y-215684D01*
X-47847Y-214514D01*
X-48189Y-213336D01*
X-48502Y-212149D01*
X-48785Y-210955D01*
X-49039Y-209755D01*
X-49264Y-208548D01*
X-49459Y-207337D01*
X-49624Y-206121D01*
X-49759Y-204901D01*
X-49865Y-203678D01*
X-49940Y-202453D01*
X-49985Y-201227D01*
X-50000Y-200000D01*
D15*
X0Y-200000D03*
D14*
X50000Y-300000D02*
X50015Y-298773D01*
X50060Y-297547D01*
X50135Y-296322D01*
X50241Y-295099D01*
X50376Y-293879D01*
X50541Y-292663D01*
X50736Y-291452D01*
X50961Y-290245D01*
X51215Y-289045D01*
X51498Y-287851D01*
X51811Y-286664D01*
X52153Y-285486D01*
X52524Y-284316D01*
X52923Y-283156D01*
X53350Y-282005D01*
X53806Y-280866D01*
X54290Y-279738D01*
X54801Y-278622D01*
X55339Y-277519D01*
X55904Y-276430D01*
X56496Y-275355D01*
X57114Y-274295D01*
X57757Y-273250D01*
X58427Y-272221D01*
X59121Y-271210D01*
X59840Y-270215D01*
X60583Y-269238D01*
X61349Y-268280D01*
X62140Y-267341D01*
X62952Y-266422D01*
X63788Y-265523D01*
X64645Y-264645D01*
X65523Y-263788D01*
X66422Y-262952D01*
X67341Y-262140D01*
X68280Y-261349D01*
X69238Y-260583D01*
X70215Y-259840D01*
X71210Y-259121D01*
X72221Y-258427D01*
X73250Y-257757D01*
X74295Y-257114D01*
X75355Y-256496D01*
X76430Y-255904D01*
X77519Y-255339D01*
X78622Y-254801D01*
X79738Y-254290D01*
X80866Y-253806D01*
X82005Y-253350D01*
X83156Y-252923D01*
X84316Y-252524D01*
X85486Y-252153D01*
X86664Y-251811D01*
X87851Y-251498D01*
X89045Y-251215D01*
X90245Y-250961D01*
X91452Y-250736D01*
X92663Y-250541D01*
X93879Y-250376D01*
X95099Y-250241D01*
X96322Y-250135D01*
X97547Y-250060D01*
X98773Y-250015D01*
X100000Y-250000D01*
X101227Y-250015D01*
X102453Y-250060D01*
X103678Y-250135D01*
X104901Y-250241D01*
X106121Y-250376D01*
X107337Y-250541D01*
X108548Y-250736D01*
X109755Y-250961D01*
X110955Y-251215D01*
X112149Y-251498D01*
X113336Y-251811D01*
X114514Y-252153D01*
X115684Y-252524D01*
X116844Y-252923D01*
X117995Y-253350D01*
X119134Y-253806D01*
X120262Y-254290D01*
X121378Y-254801D01*
X122481Y-255339D01*
X123570Y-255904D01*
X124645Y-256496D01*
X125705Y-257114D01*
X126750Y-257757D01*
X127779Y-258427D01*
X128790Y-259121D01*
X129785Y-259840D01*
X130762Y-260583D01*
X131720Y-261349D01*
X132659Y-262140D01*
X133578Y-262952D01*
X134477Y-263788D01*
X135355Y-264645D01*
X136212Y-265523D01*
X137048Y-266422D01*
X137860Y-267341D01*
X138651Y-268280D01*
X139417Y-269238D01*
X140160Y-270215D01*
X140879Y-271210D01*
X141573Y-272221D01*
X142243Y-273250D01*
X142886Y-274295D01*
X143504Y-275355D01*
X144096Y-276430D01*
X144661Y-277519D01*
X145199Y-278622D01*
X145710Y-279738D01*
X146194Y-280866D01*
X146650Y-282005D01*
X147077Y-283156D01*
X147476Y-284316D01*
X147847Y-285486D01*
X148189Y-286664D01*
X148502Y-287851D01*
X148785Y-289045D01*
X149039Y-290245D01*
X149264Y-291452D01*
X149459Y-292663D01*
X149624Y-293879D01*
X149759Y-295099D01*
X149865Y-296322D01*
X149940Y-297547D01*
X149985Y-298773D01*
X150000Y-300000D01*
X149985Y-301227D01*
X149940Y-302453D01*
X149865Y-303678D01*
X149759Y-304901D01*
X149624Y-306121D01*
X149459Y-307337D01*
X149264Y-308548D01*
X149039Y-309755D01*
X148785Y-310955D01*
X148502Y-312149D01*
X148189Y-313336D01*
X147847Y-314514D01*
X147476Y-315684D01*
X147077Y-316844D01*
X146650Y-317995D01*
X146194Y-319134D01*
X145710Y-320262D01*
X145199Y-321378D01*
X144661Y-322481D01*
X144096Y-323570D01*
X143504Y-324645D01*
X142886Y-325705D01*
X142243Y-326750D01*
X141573Y-327779D01*
X140879Y-328790D01*
X140160Y-329785D01*
X139417Y-330762D01*
X138651Y-331720D01*
X137860Y-332659D01*
X137048Y-333578D01*
X136212Y-334477D01*
X135355Y-335355D01*
X134477Y-336212D01*
X133578Y-337048D01*
X132659Y-337860D01*
X131720Y-338651D01*
X130762Y-339417D01*
X129785Y-340160D01*
X128790Y-340879D01*
X127779Y-341573D01*
X126750Y-342243D01*
X125705Y-342886D01*
X124645Y-343504D01*
X123570Y-344096D01*
X122481Y-344661D01*
X121378Y-345199D01*
X120262Y-345710D01*
X119134Y-346194D01*
X117995Y-346650D01*
X116844Y-347077D01*
X115684Y-347476D01*
X114514Y-347847D01*
X113336Y-348189D01*
X112149Y-348502D01*
X110955Y-348785D01*
X109755Y-349039D01*
X108548Y-349264D01*
X107337Y-349459D01*
X106121Y-349624D01*
X104901Y-349759D01*
X103678Y-349865D01*
X102453Y-349940D01*
X101227Y-349985D01*
X100000Y-350000D01*
X98773Y-349985D01*
X97547Y-349940D01*
X96322Y-349865D01*
X95099Y-349759D01*
X93879Y-349624D01*
X92663Y-349459D01*
X91452Y-349264D01*
X90245Y-349039D01*
X89045Y-348785D01*
X87851Y-348502D01*
X86664Y-348189D01*
X85486Y-347847D01*
X84316Y-347476D01*
X83156Y-347077D01*
X82005Y-346650D01*
X80866Y-346194D01*
X79738Y-345710D01*
X78622Y-345199D01*
X77519Y-344661D01*
X76430Y-344096D01*
X75355Y-343504D01*
X74295Y-342886D01*
X73250Y-342243D01*
X72221Y-341573D01*
X71210Y-340879D01*
X70215Y-340160D01*
X69238Y-339417D01*
X68280Y-338651D01*
X67341Y-337860D01*
X66422Y-337048D01*
X65523Y-336212D01*
X64645Y-335355D01*
X63788Y-334477D01*
X62952Y-333578D01*
X62140Y-332659D01*
X61349Y-331720D01*
X60583Y-330762D01*
X59840Y-329785D01*
X59121Y-328790D01*
X58427Y-327779D01*
X57757Y-326750D01*
X57114Y-325705D01*
X56496Y-324645D01*
X55904Y-323570D01*
X55339Y-322481D01*
X54801Y-321378D01*
X54290Y-320262D01*
X53806Y-319134D01*
X53350Y-317995D01*
X52923Y-316844D01*
X52524Y-315684D01*
X52153Y-314514D01*
X51811Y-313336D01*
X51498Y-312149D01*
X51215Y-310955D01*
X50961Y-309755D01*
X50736Y-308548D01*
X50541Y-307337D01*
X50376Y-306121D01*
X50241Y-304901D01*
X50135Y-303678D01*
X50060Y-302453D01*
X50015Y-301227D01*
X50000Y-300000D01*
D15*
X100000Y-300000D03*
D14*
X150000Y-200000D02*
X150015Y-198773D01*
X150060Y-197547D01*
X150135Y-196322D01*
X150241Y-195099D01*
X150376Y-193879D01*
X150541Y-192663D01*
X150736Y-191452D01*
X150961Y-190245D01*
X151215Y-189045D01*
X151498Y-187851D01*
X151811Y-186664D01*
X152153Y-185486D01*
X152524Y-184316D01*
X152923Y-183156D01*
X153350Y-182005D01*
X153806Y-180866D01*
X154290Y-179738D01*
X154801Y-178622D01*
X155339Y-177519D01*
X155904Y-176430D01*
X156496Y-175355D01*
X157114Y-174295D01*
X157757Y-173250D01*
X158427Y-172221D01*
X159121Y-171210D01*
X159840Y-170215D01*
X160583Y-169238D01*
X161349Y-168280D01*
X162140Y-167341D01*
X162952Y-166422D01*
X163788Y-165523D01*
X164645Y-164645D01*
X165523Y-163788D01*
X166422Y-162952D01*
X167341Y-162140D01*
X168280Y-161349D01*
X169238Y-160583D01*
X170215Y-159840D01*
X171210Y-159121D01*
X172221Y-158427D01*
X173250Y-157757D01*
X174295Y-157114D01*
X175355Y-156496D01*
X176430Y-155904D01*
X177519Y-155339D01*
X178622Y-154801D01*
X179738Y-154290D01*
X180866Y-153806D01*
X182005Y-153350D01*
X183156Y-152923D01*
X184316Y-152524D01*
X185486Y-152153D01*
X186664Y-151811D01*
X187851Y-151498D01*
X189045Y-151215D01*
X190245Y-150961D01*
X191452Y-150736D01*
X192663Y-150541D01*
X193879Y-150376D01*
X195099Y-150241D01*
X196322Y-150135D01*
X197547Y-150060D01*
X198773Y-150015D01*
X200000Y-150000D01*
X201227Y-150015D01*
X202453Y-150060D01*
X203678Y-150135D01*
X204901Y-150241D01*
X206121Y-150376D01*
X207337Y-150541D01*
X208548Y-150736D01*
X209755Y-150961D01*
X210955Y-151215D01*
X212149Y-151498D01*
X213336Y-151811D01*
X214514Y-152153D01*
X215684Y-152524D01*
X216844Y-152923D01*
X217995Y-153350D01*
X219134Y-153806D01*
X220262Y-154290D01*
X221378Y-154801D01*
X222481Y-155339D01*
X223570Y-155904D01*
X224645Y-156496D01*
X225705Y-157114D01*
X226750Y-157757D01*
X227779Y-158427D01*
X228790Y-159121D01*
X229785Y-159840D01*
X230762Y-160583D01*
X231720Y-161349D01*
X232659Y-162140D01*
X233578Y-162952D01*
X234477Y-163788D01*
X235355Y-164645D01*
X236212Y-165523D01*
X237048Y-166422D01*
X237860Y-167341D01*
X238651Y-168280D01*
X239417Y-169238D01*
X240160Y-170215D01*
X240879Y-171210D01*
X241573Y-172221D01*
X242243Y-173250D01*
X242886Y-174295D01*
X243504Y-175355D01*
X244096Y-176430D01*
X244661Y-177519D01*
X245199Y-178622D01*
X245710Y-179738D01*
X246194Y-180866D01*
X246650Y-182005D01*
X247077Y-183156D01*
X247476Y-184316D01*
X247847Y-185486D01*
X248189Y-186664D01*
X248502Y-187851D01*
X248785Y-189045D01*
X249039Y-190245D01*
X249264Y-191452D01*
X249459Y-192663D01*
X249624Y-193879D01*
X249759Y-195099D01*
X249865Y-196322D01*
X249940Y-197547D01*
X249985Y-198773D01*
X250000Y-200000D01*
X249985Y-201227D01*
X249940Y-202453D01*
X249865Y-203678D01*
X249759Y-204901D01*
X249624Y-206121D01*
X249459Y-207337D01*
X249264Y-208548D01*
X249039Y-209755D01*
X248785Y-210955D01*
X248502Y-212149D01*
X248189Y-213336D01*
X247847Y-214514D01*
X247476Y-215684D01*
X247077Y-216844D01*
X246650Y-217995D01*
X246194Y-219134D01*
X245710Y-220262D01*
X245199Y-221378D01*
X244661Y-222481D01*
X244096Y-223570D01*
X243504Y-224645D01*
X242886Y-225705D01*
X242243Y-226750D01*
X241573Y-227779D01*
X240879Y-228790D01*
X240160Y-229785D01*
X239417Y-230762D01*
X238651Y-231720D01*
X237860Y-232659D01*
X237048Y-233578D01*
X236212Y-234477D01*
X235355Y-235355D01*
X234477Y-236212D01*
X233578Y-237048D01*
X232659Y-237860D01*
X231720Y-238651D01*
X230762Y-239417D01*
X229785Y-240160D01*
X228790Y-240879D01*
X227779Y-241573D01*
X226750Y-242243D01*
X225705Y-242886D01*
X224645Y-243504D01*
X223570Y-244096D01*
X222481Y-244661D01*
X221378Y-245199D01*
X220262Y-245710D01*
X219134Y-246194D01*
X217995Y-246650D01*
X216844Y-247077D01*
X215684Y-247476D01*
X214514Y-247847D01*
X213336Y-248189D01*
X212149Y-248502D01*
X210955Y-248785D01*
X209755Y-249039D01*
X208548Y-249264D01*
X207337Y-249459D01*
X206121Y-249624D01*
X204901Y-249759D01*
X203678Y-249865D01*
X202453Y-249940D01*
X201227Y-249985D01*
X200000Y-250000D01*
X198773Y-249985D01*
X197547Y-249940D01*
X196322Y-249865D01*
X195099Y-249759D01*
X193879Y-249624D01*
X192663Y-249459D01*
X191452Y-249264D01*
X190245Y-249039D01*
X189045Y-248785D01*
X187851Y-248502D01*
X186664Y-248189D01*
X185486Y-247847D01*
X184316Y-247476D01*
X183156Y-247077D01*
X182005Y-246650D01*
X180866Y-246194D01*
X179738Y-245710D01*
X178622Y-245199D01*
X177519Y-244661D01*
X176430Y-244096D01*
X175355Y-243504D01*
X174295Y-242886D01*
X173250Y-242243D01*
X172221Y-241573D01*
X171210Y-240879D01*
X170215Y-240160D01*
X169238Y-239417D01*
X168280Y-238651D01*
X167341Y-237860D01*
X166422Y-237048D01*
X165523Y-236212D01*
X164645Y-235355D01*
X163788Y-234477D01*
X162952Y-233578D01*
X162140Y-232659D01*
X161349Y-231720D01*
X160583Y-230762D01*
X159840Y-229785D01*
X159121Y-228790D01*
X158427Y-227779D01*
X157757Y-226750D01*
X157114Y-225705D01*
X156496Y-224645D01*
X155904Y-223570D01*
X155339Y-222481D01*
X154801Y-221378D01*
X154290Y-220262D01*
X153806Y-219134D01*
X153350Y-217995D01*
X152923Y-216844D01*
X152524Y-215684D01*
X152153Y-214514D01*
X151811Y-213336D01*
X151498Y-212149D01*
X151215Y-210955D01*
X150961Y-209755D01*
X150736Y-208548D01*
X150541Y-207337D01*
X150376Y-206121D01*
X150241Y-204901D01*
X150135Y-203678D01*
X150060Y-202453D01*
X150015Y-201227D01*
X150000Y-200000D01*
D15*
X200000Y-200000D03*
D14*
X250000Y-300000D02*
X250015Y-298773D01*
X250060Y-297547D01*
X250135Y-296322D01*
X250241Y-295099D01*
X250376Y-293879D01*
X250541Y-292663D01*
X250736Y-291452D01*
X250961Y-290245D01*
X251215Y-289045D01*
X251498Y-287851D01*
X251811Y-286664D01*
X252153Y-285486D01*
X252524Y-284316D01*
X252923Y-283156D01*
X253350Y-282005D01*
X253806Y-280866D01*
X254290Y-279738D01*
X254801Y-278622D01*
X255339Y-277519D01*
X255904Y-276430D01*
X256496Y-275355D01*
X257114Y-274295D01*
X257757Y-273250D01*
X258427Y-272221D01*
X259121Y-271210D01*
X259840Y-270215D01*
X260583Y-269238D01*
X261349Y-268280D01*
X262140Y-267341D01*
X262952Y-266422D01*
X263788Y-265523D01*
X264645Y-264645D01*
X265523Y-263788D01*
X266422Y-262952D01*
X267341Y-262140D01*
X268280Y-261349D01*
X269238Y-260583D01*
X270215Y-259840D01*
X271210Y-259121D01*
X272221Y-258427D01*
X273250Y-257757D01*
X274295Y-257114D01*
X275355Y-256496D01*
X276430Y-255904D01*
X277519Y-255339D01*
X278622Y-254801D01*
X279738Y-254290D01*
X280866Y-253806D01*
X282005Y-253350D01*
X283156Y-252923D01*
X284316Y-252524D01*
X285486Y-252153D01*
X286664Y-251811D01*
X287851Y-251498D01*
X289045Y-251215D01*
X290245Y-250961D01*
X291452Y-250736D01*
X292663Y-250541D01*
X293879Y-250376D01*
X295099Y-250241D01*
X296322Y-250135D01*
X297547Y-250060D01*
X298773Y-250015D01*
X300000Y-250000D01*
X301227Y-250015D01*
X302453Y-250060D01*
X303678Y-250135D01*
X304901Y-250241D01*
X306121Y-250376D01*
X307337Y-250541D01*
X308548Y-250736D01*
X309755Y-250961D01*
X310955Y-251215D01*
X312149Y-251498D01*
X313336Y-251811D01*
X314514Y-252153D01*
X315684Y-252524D01*
X316844Y-252923D01*
X317995Y-253350D01*
X319134Y-253806D01*
X320262Y-254290D01*
X321378Y-254801D01*
X322481Y-255339D01*
X323570Y-255904D01*
X324645Y-256496D01*
X325705Y-257114D01*
X326750Y-257757D01*
X327779Y-258427D01*
X328790Y-259121D01*
X329785Y-259840D01*
X330762Y-260583D01*
X331720Y-261349D01*
X332659Y-262140D01*
X333578Y-262952D01*
X334477Y-263788D01*
X335355Y-264645D01*
X336212Y-265523D01*
X337048Y-266422D01*
X337860Y-267341D01*
X338651Y-268280D01*
X339417Y-269238D01*
X340160Y-270215D01*
X340879Y-271210D01*
X341573Y-272221D01*
X342243Y-273250D01*
X342886Y-274295D01*
X343504Y-275355D01*
X344096Y-276430D01*
X344661Y-277519D01*
X345199Y-278622D01*
X345710Y-279738D01*
X346194Y-280866D01*
X346650Y-282005D01*
X347077Y-283156D01*
X347476Y-284316D01*
X347847Y-285486D01*
X348189Y-286664D01*
X348502Y-287851D01*
X348785Y-289045D01*
X349039Y-290245D01*
X349264Y-291452D01*
X349459Y-292663D01*
X349624Y-293879D01*
X349759Y-295099D01*
X349865Y-296322D01*
X349940Y-297547D01*
X349985Y-298773D01*
X350000Y-300000D01*
X349985Y-301227D01*
X349940Y-302453D01*
X349865Y-303678D01*
X349759Y-304901D01*
X349624Y-306121D01*
X349459Y-307337D01*
X349264Y-308548D01*
X349039Y-309755D01*
X348785Y-310955D01*
X348502Y-312149D01*
X348189Y-313336D01*
X347847Y-314514D01*
X347476Y-315684D01*
X347077Y-316844D01*
X346650Y-317995D01*
X346194Y-319134D01*
X345710Y-320262D01*
X345199Y-321378D01*
X344661Y-322481D01*
X344096Y-323570D01*
X343504Y-324645D01*
X342886Y-325705D01*
X342243Y-326750D01*
X341573Y-327779D01*
X340879Y-328790D01*
X340160Y-329785D01*
X339417Y-330762D01*
X338651Y-331720D01*
X337860Y-332659D01*
X337048Y-333578D01*
X336212Y-334477D01*
X335355Y-335355D01*
X334477Y-336212D01*
X333578Y-337048D01*
X332659Y-337860D01*
X331720Y-338651D01*
X330762Y-339417D01*
X329785Y-340160D01*
X328790Y-340879D01*
X327779Y-341573D01*
X326750Y-342243D01*
X325705Y-342886D01*
X324645Y-343504D01*
X323570Y-344096D01*
X322481Y-344661D01*
X321378Y-345199D01*
X320262Y-345710D01*
X319134Y-346194D01*
X317995Y-346650D01*
X316844Y-347077D01*
X315684Y-347476D01*
X314514Y-347847D01*
X313336Y-348189D01*
X312149Y-348502D01*
X310955Y-348785D01*
X309755Y-349039D01*
X308548Y-349264D01*
X307337Y-349459D01*
X306121Y-349624D01*
X304901Y-349759D01*
X303678Y-349865D01*
X302453Y-349940D01*
X301227Y-349985D01*
X300000Y-350000D01*
X298773Y-349985D01*
X297547Y-349940D01*
X296322Y-349865D01*
X295099Y-349759D01*
X293879Y-349624D01*
X292663Y-349459D01*
X291452Y-349264D01*
X290245Y-349039D01*
X289045Y-348785D01*
X287851Y-348502D01*
X286664Y-348189D01*
X285486Y-347847D01*
X284316Y-347476D01*
X283156Y-347077D01*
X282005Y-346650D01*
X280866Y-346194D01*
X279738Y-345710D01*
X278622Y-345199D01*
X277519Y-344661D01*
X276430Y-344096D01*
X275355Y-343504D01*
X274295Y-342886D01*
X273250Y-342243D01*
X272221Y-341573D01*
X271210Y-340879D01*
X270215Y-340160D01*
X269238Y-339417D01*
X268280Y-338651D01*
X267341Y-337860D01*
X266422Y-337048D01*
X265523Y-336212D01*
X264645Y-335355D01*
X263788Y-334477D01*
X262952Y-333578D01*
X262140Y-332659D01*
X261349Y-331720D01*
X260583Y-330762D01*
X259840Y-329785D01*
X259121Y-328790D01*
X258427Y-327779D01*
X257757Y-326750D01*
X257114Y-325705D01*
X256496Y-324645D01*
X255904Y-323570D01*
X255339Y-322481D01*
X254801Y-321378D01*
X254290Y-320262D01*
X253806Y-319134D01*
X253350Y-317995D01*
X252923Y-316844D01*
X252524Y-315684D01*
X252153Y-314514D01*
X251811Y-313336D01*
X251498Y-312149D01*
X251215Y-310955D01*
X250961Y-309755D01*
X250736Y-308548D01*
X250541Y-307337D01*
X250376Y-306121D01*
X250241Y-304901D01*
X250135Y-303678D01*
X250060Y-302453D01*
X250015Y-301227D01*
X250000Y-300000D01*
D15*
X300000Y-300000D03*
D14*
X350000Y-200000D02*
X350015Y-198773D01*
X350060Y-197547D01*
X350135Y-196322D01*
X350241Y-195099D01*
X350376Y-193879D01*
X350541Y-192663D01*
X350736Y-191452D01*
X350961Y-190245D01*
X351215Y-189045D01*
X351498Y-187851D01*
X351811Y-186664D01*
X352153Y-185486D01*
X352524Y-184316D01*
X352923Y-183156D01*
X353350Y-182005D01*
X353806Y-180866D01*
X354290Y-179738D01*
X354801Y-178622D01*
X355339Y-177519D01*
X355904Y-176430D01*
X356496Y-175355D01*
X357114Y-174295D01*
X357757Y-173250D01*
X358427Y-172221D01*
X359121Y-171210D01*
X359840Y-170215D01*
X360583Y-169238D01*
X361349Y-168280D01*
X362140Y-167341D01*
X362952Y-166422D01*
X363788Y-165523D01*
X364645Y-164645D01*
X365523Y-163788D01*
X366422Y-162952D01*
X367341Y-162140D01*
X368280Y-161349D01*
X369238Y-160583D01*
X370215Y-159840D01*
X371210Y-159121D01*
X372221Y-158427D01*
X373250Y-157757D01*
X374295Y-157114D01*
X375355Y-156496D01*
X376430Y-155904D01*
X377519Y-155339D01*
X378622Y-154801D01*
X379738Y-154290D01*
X380866Y-153806D01*
X382005Y-153350D01*
X383156Y-152923D01*
X384316Y-152524D01*
X385486Y-152153D01*
X386664Y-151811D01*
X387851Y-151498D01*
X389045Y-151215D01*
X390245Y-150961D01*
X391452Y-150736D01*
X392663Y-150541D01*
X393879Y-150376D01*
X395099Y-150241D01*
X396322Y-150135D01*
X397547Y-150060D01*
X398773Y-150015D01*
X400000Y-150000D01*
X401227Y-150015D01*
X402453Y-150060D01*
X403678Y-150135D01*
X404901Y-150241D01*
X406121Y-150376D01*
X407337Y-150541D01*
X408548Y-150736D01*
X409755Y-150961D01*
X410955Y-151215D01*
X412149Y-151498D01*
X413336Y-151811D01*
X414514Y-152153D01*
X415684Y-152524D01*
X416844Y-152923D01*
X417995Y-153350D01*
X419134Y-153806D01*
X420262Y-154290D01*
X421378Y-154801D01*
X422481Y-155339D01*
X423570Y-155904D01*
X424645Y-156496D01*
X425705Y-157114D01*
X426750Y-157757D01*
X427779Y-158427D01*
X428790Y-159121D01*
X429785Y-159840D01*
X430762Y-160583D01*
X431720Y-161349D01*
X432659Y-162140D01*
X433578Y-162952D01*
X434477Y-163788D01*
X435355Y-164645D01*
X436212Y-165523D01*
X437048Y-166422D01*
X437860Y-167341D01*
X438651Y-168280D01*
X439417Y-169238D01*
X440160Y-170215D01*
X440879Y-171210D01*
X441573Y-172221D01*
X442243Y-173250D01*
X442886Y-174295D01*
X443504Y-175355D01*
X444096Y-176430D01*
X444661Y-177519D01*
X445199Y-178622D01*
X445710Y-179738D01*
X446194Y-180866D01*
X446650Y-182005D01*
X447077Y-183156D01*
X447476Y-184316D01*
X447847Y-185486D01*
X448189Y-186664D01*
X448502Y-187851D01*
X448785Y-189045D01*
X449039Y-190245D01*
X449264Y-191452D01*
X449459Y-192663D01*
X449624Y-193879D01*
X449759Y-195099D01*
X449865Y-196322D01*
X449940Y-197547D01*
X449985Y-198773D01*
X450000Y-200000D01*
X449985Y-201227D01*
X449940Y-202453D01*
X449865Y-203678D01*
X449759Y-204901D01*
X449624Y-206121D01*
X449459Y-207337D01*
X449264Y-208548D01*
X449039Y-209755D01*
X448785Y-210955D01*
X448502Y-212149D01*
X448189Y-213336D01*
X447847Y-214514D01*
X447476Y-215684D01*
X447077Y-216844D01*
X446650Y-217995D01*
X446194Y-219134D01*
X445710Y-220262D01*
X445199Y-221378D01*
X444661Y-222481D01*
X444096Y-223570D01*
X443504Y-224645D01*
X442886Y-225705D01*
X442243Y-226750D01*
X441573Y-227779D01*
X440879Y-228790D01*
X440160Y-229785D01*
X439417Y-230762D01*
X438651Y-231720D01*
X437860Y-232659D01*
X437048Y-233578D01*
X436212Y-234477D01*
X435355Y-235355D01*
X434477Y-236212D01*
X433578Y-237048D01*
X432659Y-237860D01*
X431720Y-238651D01*
X430762Y-239417D01*
X429785Y-240160D01*
X428790Y-240879D01*
X427779Y-241573D01*
X426750Y-242243D01*
X425705Y-242886D01*
X424645Y-243504D01*
X423570Y-244096D01*
X422481Y-244661D01*
X421378Y-245199D01*
X420262Y-245710D01*
X419134Y-246194D01*
X417995Y-246650D01*
X416844Y-247077D01*
X415684Y-247476D01*
X414514Y-247847D01*
X413336Y-248189D01*
X412149Y-248502D01*
X410955Y-248785D01*
X409755Y-249039D01*
X408548Y-249264D01*
X407337Y-249459D01*
X406121Y-249624D01*
X404901Y-249759D01*
X403678Y-249865D01*
X402453Y-249940D01*
X401227Y-249985D01*
X400000Y-250000D01*
X398773Y-249985D01*
X397547Y-249940D01*
X396322Y-249865D01*
X395099Y-249759D01*
X393879Y-249624D01*
X392663Y-249459D01*
X391452Y-249264D01*
X390245Y-249039D01*
X389045Y-248785D01*
X387851Y-248502D01*
X386664Y-248189D01*
X385486Y-247847D01*
X384316Y-247476D01*
X383156Y-247077D01*
X382005Y-246650D01*
X380866Y-246194D01*
X379738Y-245710D01*
X378622Y-245199D01*
X377519Y-244661D01*
X376430Y-244096D01*
X375355Y-243504D01*
X374295Y-242886D01*
X373250Y-242243D01*
X372221Y-241573D01*
X371210Y-240879D01*
X370215Y-240160D01*
X369238Y-239417D01*
X368280Y-238651D01*
X367341Y-237860D01*
X366422Y-237048D01*
X365523Y-236212D01*
X364645Y-235355D01*
X363788Y-234477D01*
X362952Y-233578D01*
X362140Y-232659D01*
X361349Y-231720D01*
X360583Y-230762D01*
X359840Y-229785D01*
X359121Y-228790D01*
X358427Y-227779D01*
X357757Y-226750D01*
X357114Y-225705D01*
X356496Y-224645D01*
X355904Y-223570D01*
X355339Y-222481D01*
X354801Y-221378D01*
X354290Y-220262D01*
X353806Y-219134D01*
X353350Y-217995D01*
X352923Y-216844D01*
X352524Y-215684D01*
X352153Y-214514D01*
X351811Y-213336D01*
X351498Y-212149D01*
X351215Y-210955D01*
X350961Y-209755D01*
X350736Y-208548D01*
X350541Y-207337D01*
X350376Y-206121D01*
X350241Y-204901D01*
X350135Y-203678D01*
X350060Y-202453D01*
X350015Y-201227D01*
X350000Y-200000D01*
D15*
X400000Y-200000D03*
D14*
X-450000Y-400000D02*
X-449985Y-398773D01*
X-449940Y-397547D01*
X-449865Y-396322D01*
X-449759Y-395099D01*
X-449624Y-393879D01*
X-449459Y-392663D01*
X-449264Y-391452D01*
X-449039Y-390245D01*
X-448785Y-389045D01*
X-448502Y-387851D01*
X-448189Y-386664D01*
X-447847Y-385486D01*
X-447476Y-384316D01*
X-447077Y-383156D01*
X-446650Y-382005D01*
X-446194Y-380866D01*
X-445710Y-379738D01*
X-445199Y-378622D01*
X-444661Y-377519D01*
X-444096Y-376430D01*
X-443504Y-375355D01*
X-442886Y-374295D01*
X-442243Y-373250D01*
X-441573Y-372221D01*
X-440879Y-371210D01*
X-440160Y-370215D01*
X-439417Y-369238D01*
X-438651Y-368280D01*
X-437860Y-367341D01*
X-437048Y-366422D01*
X-436212Y-365523D01*
X-435355Y-364645D01*
X-434477Y-363788D01*
X-433578Y-362952D01*
X-432659Y-362140D01*
X-431720Y-361349D01*
X-430762Y-360583D01*
X-429785Y-359840D01*
X-428790Y-359121D01*
X-427779Y-358427D01*
X-426750Y-357757D01*
X-425705Y-357114D01*
X-424645Y-356496D01*
X-423570Y-355904D01*
X-422481Y-355339D01*
X-421378Y-354801D01*
X-420262Y-354290D01*
X-419134Y-353806D01*
X-417995Y-353350D01*
X-416844Y-352923D01*
X-415684Y-352524D01*
X-414514Y-352153D01*
X-413336Y-351811D01*
X-412149Y-351498D01*
X-410955Y-351215D01*
X-409755Y-350961D01*
X-408548Y-350736D01*
X-407337Y-350541D01*
X-406121Y-350376D01*
X-404901Y-350241D01*
X-403678Y-350135D01*
X-402453Y-350060D01*
X-401227Y-350015D01*
X-400000Y-350000D01*
X-398773Y-350015D01*
X-397547Y-350060D01*
X-396322Y-350135D01*
X-395099Y-350241D01*
X-393879Y-350376D01*
X-392663Y-350541D01*
X-391452Y-350736D01*
X-390245Y-350961D01*
X-389045Y-351215D01*
X-387851Y-351498D01*
X-386664Y-351811D01*
X-385486Y-352153D01*
X-384316Y-352524D01*
X-383156Y-352923D01*
X-382005Y-353350D01*
X-380866Y-353806D01*
X-379738Y-354290D01*
X-378622Y-354801D01*
X-377519Y-355339D01*
X-376430Y-355904D01*
X-375355Y-356496D01*
X-374295Y-357114D01*
X-373250Y-357757D01*
X-372221Y-358427D01*
X-371210Y-359121D01*
X-370215Y-359840D01*
X-369238Y-360583D01*
X-368280Y-361349D01*
X-367341Y-362140D01*
X-366422Y-362952D01*
X-365523Y-363788D01*
X-364645Y-364645D01*
X-363788Y-365523D01*
X-362952Y-366422D01*
X-362140Y-367341D01*
X-361349Y-368280D01*
X-360583Y-369238D01*
X-359840Y-370215D01*
X-359121Y-371210D01*
X-358427Y-372221D01*
X-357757Y-373250D01*
X-357114Y-374295D01*
X-356496Y-375355D01*
X-355904Y-376430D01*
X-355339Y-377519D01*
X-354801Y-378622D01*
X-354290Y-379738D01*
X-353806Y-380866D01*
X-353350Y-382005D01*
X-352923Y-383156D01*
X-352524Y-384316D01*
X-352153Y-385486D01*
X-351811Y-386664D01*
X-351498Y-387851D01*
X-351215Y-389045D01*
X-350961Y-390245D01*
X-350736Y-391452D01*
X-350541Y-392663D01*
X-350376Y-393879D01*
X-350241Y-395099D01*
X-350135Y-396322D01*
X-350060Y-397547D01*
X-350015Y-398773D01*
X-350000Y-400000D01*
X-350015Y-401227D01*
X-350060Y-402453D01*
X-350135Y-403678D01*
X-350241Y-404901D01*
X-350376Y-406121D01*
X-350541Y-407337D01*
X-350736Y-408548D01*
X-350961Y-409755D01*
X-351215Y-410955D01*
X-351498Y-412149D01*
X-351811Y-413336D01*
X-352153Y-414514D01*
X-352524Y-415684D01*
X-352923Y-416844D01*
X-353350Y-417995D01*
X-353806Y-419134D01*
X-354290Y-420262D01*
X-354801Y-421378D01*
X-355339Y-422481D01*
X-355904Y-423570D01*
X-356496Y-424645D01*
X-357114Y-425705D01*
X-357757Y-426750D01*
X-358427Y-427779D01*
X-359121Y-428790D01*
X-359840Y-429785D01*
X-360583Y-430762D01*
X-361349Y-431720D01*
X-362140Y-432659D01*
X-362952Y-433578D01*
X-363788Y-434477D01*
X-364645Y-435355D01*
X-365523Y-436212D01*
X-366422Y-437048D01*
X-367341Y-437860D01*
X-368280Y-438651D01*
X-369238Y-439417D01*
X-370215Y-440160D01*
X-371210Y-440879D01*
X-372221Y-441573D01*
X-373250Y-442243D01*
X-374295Y-442886D01*
X-375355Y-443504D01*
X-376430Y-444096D01*
X-377519Y-444661D01*
X-378622Y-445199D01*
X-379738Y-445710D01*
X-380866Y-446194D01*
X-382005Y-446650D01*
X-383156Y-447077D01*
X-384316Y-447476D01*
X-385486Y-447847D01*
X-386664Y-448189D01*
X-387851Y-448502D01*
X-389045Y-448785D01*
X-390245Y-449039D01*
X-391452Y-449264D01*
X-392663Y-449459D01*
X-393879Y-449624D01*
X-395099Y-449759D01*
X-396322Y-449865D01*
X-397547Y-449940D01*
X-398773Y-449985D01*
X-400000Y-450000D01*
X-401227Y-449985D01*
X-402453Y-449940D01*
X-403678Y-449865D01*
X-404901Y-449759D01*
X-406121Y-449624D01*
X-407337Y-449459D01*
X-408548Y-449264D01*
X-409755Y-449039D01*
X-410955Y-448785D01*
X-412149Y-448502D01*
X-413336Y-448189D01*
X-414514Y-447847D01*
X-415684Y-447476D01*
X-416844Y-447077D01*
X-417995Y-446650D01*
X-419134Y-446194D01*
X-420262Y-445710D01*
X-421378Y-445199D01*
X-422481Y-444661D01*
X-423570Y-444096D01*
X-424645Y-443504D01*
X-425705Y-442886D01*
X-426750Y-442243D01*
X-427779Y-441573D01*
X-428790Y-440879D01*
X-429785Y-440160D01*
X-430762Y-439417D01*
X-431720Y-438651D01*
X-432659Y-437860D01*
X-433578Y-437048D01*
X-434477Y-436212D01*
X-435355Y-435355D01*
X-436212Y-434477D01*
X-437048Y-433578D01*
X-437860Y-432659D01*
X-438651Y-431720D01*
X-439417Y-430762D01*
X-440160Y-429785D01*
X-440879Y-428790D01*
X-441573Y-427779D01*
X-442243Y-426750D01*
X-442886Y-425705D01*
X-443504Y-424645D01*
X-444096Y-423570D01*
X-444661Y-422481D01*
X-445199Y-421378D01*
X-445710Y-420262D01*
X-446194Y-419134D01*
X-446650Y-417995D01*
X-447077Y-416844D01*
X-447476Y-415684D01*
X-447847Y-414514D01*
X-448189Y-413336D01*
X-448502Y-412149D01*
X-448785Y-410955D01*
X-449039Y-409755D01*
X-449264Y-408548D01*
X-449459Y-407337D01*
X-449624Y-406121D01*
X-449759Y-404901D01*
X-449865Y-403678D01*
X-449940Y-402453D01*
X-449985Y-401227D01*
X-450000Y-400000D01*
D15*
X-400000Y-400000D03*
D14*
X-250000Y-400000D02*
X-249985Y-398773D01*
X-249940Y-397547D01*
X-249865Y-396322D01*
X-249759Y-395099D01*
X-249624Y-393879D01*
X-249459Y-392663D01*
X-249264Y-391452D01*
X-249039Y-390245D01*
X-248785Y-389045D01*
X-248502Y-387851D01*
X-248189Y-386664D01*
X-247847Y-385486D01*
X-247476Y-384316D01*
X-247077Y-383156D01*
X-246650Y-382005D01*
X-246194Y-380866D01*
X-245710Y-379738D01*
X-245199Y-378622D01*
X-244661Y-377519D01*
X-244096Y-376430D01*
X-243504Y-375355D01*
X-242886Y-374295D01*
X-242243Y-373250D01*
X-241573Y-372221D01*
X-240879Y-371210D01*
X-240160Y-370215D01*
X-239417Y-369238D01*
X-238651Y-368280D01*
X-237860Y-367341D01*
X-237048Y-366422D01*
X-236212Y-365523D01*
X-235355Y-364645D01*
X-234477Y-363788D01*
X-233578Y-362952D01*
X-232659Y-362140D01*
X-231720Y-361349D01*
X-230762Y-360583D01*
X-229785Y-359840D01*
X-228790Y-359121D01*
X-227779Y-358427D01*
X-226750Y-357757D01*
X-225705Y-357114D01*
X-224645Y-356496D01*
X-223570Y-355904D01*
X-222481Y-355339D01*
X-221378Y-354801D01*
X-220262Y-354290D01*
X-219134Y-353806D01*
X-217995Y-353350D01*
X-216844Y-352923D01*
X-215684Y-352524D01*
X-214514Y-352153D01*
X-213336Y-351811D01*
X-212149Y-351498D01*
X-210955Y-351215D01*
X-209755Y-350961D01*
X-208548Y-350736D01*
X-207337Y-350541D01*
X-206121Y-350376D01*
X-204901Y-350241D01*
X-203678Y-350135D01*
X-202453Y-350060D01*
X-201227Y-350015D01*
X-200000Y-350000D01*
X-198773Y-350015D01*
X-197547Y-350060D01*
X-196322Y-350135D01*
X-195099Y-350241D01*
X-193879Y-350376D01*
X-192663Y-350541D01*
X-191452Y-350736D01*
X-190245Y-350961D01*
X-189045Y-351215D01*
X-187851Y-351498D01*
X-186664Y-351811D01*
X-185486Y-352153D01*
X-184316Y-352524D01*
X-183156Y-352923D01*
X-182005Y-353350D01*
X-180866Y-353806D01*
X-179738Y-354290D01*
X-178622Y-354801D01*
X-177519Y-355339D01*
X-176430Y-355904D01*
X-175355Y-356496D01*
X-174295Y-357114D01*
X-173250Y-357757D01*
X-172221Y-358427D01*
X-171210Y-359121D01*
X-170215Y-359840D01*
X-169238Y-360583D01*
X-168280Y-361349D01*
X-167341Y-362140D01*
X-166422Y-362952D01*
X-165523Y-363788D01*
X-164645Y-364645D01*
X-163788Y-365523D01*
X-162952Y-366422D01*
X-162140Y-367341D01*
X-161349Y-368280D01*
X-160583Y-369238D01*
X-159840Y-370215D01*
X-159121Y-371210D01*
X-158427Y-372221D01*
X-157757Y-373250D01*
X-157114Y-374295D01*
X-156496Y-375355D01*
X-155904Y-376430D01*
X-155339Y-377519D01*
X-154801Y-378622D01*
X-154290Y-379738D01*
X-153806Y-380866D01*
X-153350Y-382005D01*
X-152923Y-383156D01*
X-152524Y-384316D01*
X-152153Y-385486D01*
X-151811Y-386664D01*
X-151498Y-387851D01*
X-151215Y-389045D01*
X-150961Y-390245D01*
X-150736Y-391452D01*
X-150541Y-392663D01*
X-150376Y-393879D01*
X-150241Y-395099D01*
X-150135Y-396322D01*
X-150060Y-397547D01*
X-150015Y-398773D01*
X-150000Y-400000D01*
X-150015Y-401227D01*
X-150060Y-402453D01*
X-150135Y-403678D01*
X-150241Y-404901D01*
X-150376Y-406121D01*
X-150541Y-407337D01*
X-150736Y-408548D01*
X-150961Y-409755D01*
X-151215Y-410955D01*
X-151498Y-412149D01*
X-151811Y-413336D01*
X-152153Y-414514D01*
X-152524Y-415684D01*
X-152923Y-416844D01*
X-153350Y-417995D01*
X-153806Y-419134D01*
X-154290Y-420262D01*
X-154801Y-421378D01*
X-155339Y-422481D01*
X-155904Y-423570D01*
X-156496Y-424645D01*
X-157114Y-425705D01*
X-157757Y-426750D01*
X-158427Y-427779D01*
X-159121Y-428790D01*
X-159840Y-429785D01*
X-160583Y-430762D01*
X-161349Y-431720D01*
X-162140Y-432659D01*
X-162952Y-433578D01*
X-163788Y-434477D01*
X-164645Y-435355D01*
X-165523Y-436212D01*
X-166422Y-437048D01*
X-167341Y-437860D01*
X-168280Y-438651D01*
X-169238Y-439417D01*
X-170215Y-440160D01*
X-171210Y-440879D01*
X-172221Y-441573D01*
X-173250Y-442243D01*
X-174295Y-442886D01*
X-175355Y-443504D01*
X-176430Y-444096D01*
X-177519Y-444661D01*
X-178622Y-445199D01*
X-179738Y-445710D01*
X-180866Y-446194D01*
X-182005Y-446650D01*
X-183156Y-447077D01*
X-184316Y-447476D01*
X-185486Y-447847D01*
X-186664Y-448189D01*
X-187851Y-448502D01*
X-189045Y-448785D01*
X-190245Y-449039D01*
X-191452Y-449264D01*
X-192663Y-449459D01*
X-193879Y-449624D01*
X-195099Y-449759D01*
X-196322Y-449865D01*
X-197547Y-449940D01*
X-198773Y-449985D01*
X-200000Y-450000D01*
X-201227Y-449985D01*
X-202453Y-449940D01*
X-203678Y-449865D01*
X-204901Y-449759D01*
X-206121Y-449624D01*
X-207337Y-449459D01*
X-208548Y-449264D01*
X-209755Y-449039D01*
X-210955Y-448785D01*
X-212149Y-448502D01*
X-213336Y-448189D01*
X-214514Y-447847D01*
X-215684Y-447476D01*
X-216844Y-447077D01*
X-217995Y-446650D01*
X-219134Y-446194D01*
X-220262Y-445710D01*
X-221378Y-445199D01*
X-222481Y-444661D01*
X-223570Y-444096D01*
X-224645Y-443504D01*
X-225705Y-442886D01*
X-226750Y-442243D01*
X-227779Y-441573D01*
X-228790Y-440879D01*
X-229785Y-440160D01*
X-230762Y-439417D01*
X-231720Y-438651D01*
X-232659Y-437860D01*
X-233578Y-437048D01*
X-234477Y-436212D01*
X-235355Y-435355D01*
X-236212Y-434477D01*
X-237048Y-433578D01*
X-237860Y-432659D01*
X-238651Y-431720D01*
X-239417Y-430762D01*
X-240160Y-429785D01*
X-240879Y-428790D01*
X-241573Y-427779D01*
X-242243Y-426750D01*
X-242886Y-425705D01*
X-243504Y-424645D01*
X-244096Y-423570D01*
X-244661Y-422481D01*
X-245199Y-421378D01*
X-245710Y-420262D01*
X-246194Y-419134D01*
X-246650Y-417995D01*
X-247077Y-416844D01*
X-247476Y-415684D01*
X-247847Y-414514D01*
X-248189Y-413336D01*
X-248502Y-412149D01*
X-248785Y-410955D01*
X-249039Y-409755D01*
X-249264Y-408548D01*
X-249459Y-407337D01*
X-249624Y-406121D01*
X-249759Y-404901D01*
X-249865Y-403678D01*
X-249940Y-402453D01*
X-249985Y-401227D01*
X-250000Y-400000D01*
D15*
X-200000Y-400000D03*
D14*
X-50000Y-400000D02*
X-49985Y-398773D01*
X-49940Y-397547D01*
X-49865Y-396322D01*
X-49759Y-395099D01*
X-49624Y-393879D01*
X-49459Y-392663D01*
X-49264Y-391452D01*
X-49039Y-390245D01*
X-48785Y-389045D01*
X-48502Y-387851D01*
X-48189Y-386664D01*
X-47847Y-385486D01*
X-47476Y-384316D01*
X-47077Y-383156D01*
X-46650Y-382005D01*
X-46194Y-380866D01*
X-45710Y-379738D01*
X-45199Y-378622D01*
X-44661Y-377519D01*
X-44096Y-376430D01*
X-43504Y-375355D01*
X-42886Y-374295D01*
X-42243Y-373250D01*
X-41573Y-372221D01*
X-40879Y-371210D01*
X-40160Y-370215D01*
X-39417Y-369238D01*
X-38651Y-368280D01*
X-37860Y-367341D01*
X-37048Y-366422D01*
X-36212Y-365523D01*
X-35355Y-364645D01*
X-34477Y-363788D01*
X-33578Y-362952D01*
X-32659Y-362140D01*
X-31720Y-361349D01*
X-30762Y-360583D01*
X-29785Y-359840D01*
X-28790Y-359121D01*
X-27779Y-358427D01*
X-26750Y-357757D01*
X-25705Y-357114D01*
X-24645Y-356496D01*
X-23570Y-355904D01*
X-22481Y-355339D01*
X-21378Y-354801D01*
X-20262Y-354290D01*
X-19134Y-353806D01*
X-17995Y-353350D01*
X-16844Y-352923D01*
X-15684Y-352524D01*
X-14514Y-352153D01*
X-13336Y-351811D01*
X-12149Y-351498D01*
X-10955Y-351215D01*
X-9755Y-350961D01*
X-8548Y-350736D01*
X-7337Y-350541D01*
X-6121Y-350376D01*
X-4901Y-350241D01*
X-3678Y-350135D01*
X-2453Y-350060D01*
X-1227Y-350015D01*
X0Y-350000D01*
X1227Y-350015D01*
X2453Y-350060D01*
X3678Y-350135D01*
X4901Y-350241D01*
X6121Y-350376D01*
X7337Y-350541D01*
X8548Y-350736D01*
X9755Y-350961D01*
X10955Y-351215D01*
X12149Y-351498D01*
X13336Y-351811D01*
X14514Y-352153D01*
X15684Y-352524D01*
X16844Y-352923D01*
X17995Y-353350D01*
X19134Y-353806D01*
X20262Y-354290D01*
X21378Y-354801D01*
X22481Y-355339D01*
X23570Y-355904D01*
X24645Y-356496D01*
X25705Y-357114D01*
X26750Y-357757D01*
X27779Y-358427D01*
X28790Y-359121D01*
X29785Y-359840D01*
X30762Y-360583D01*
X31720Y-361349D01*
X32659Y-362140D01*
X33578Y-362952D01*
X34477Y-363788D01*
X35355Y-364645D01*
X36212Y-365523D01*
X37048Y-366422D01*
X37860Y-367341D01*
X38651Y-368280D01*
X39417Y-369238D01*
X40160Y-370215D01*
X40879Y-371210D01*
X41573Y-372221D01*
X42243Y-373250D01*
X42886Y-374295D01*
X43504Y-375355D01*
X44096Y-376430D01*
X44661Y-377519D01*
X45199Y-378622D01*
X45710Y-379738D01*
X46194Y-380866D01*
X46650Y-382005D01*
X47077Y-383156D01*
X47476Y-384316D01*
X47847Y-385486D01*
X48189Y-386664D01*
X48502Y-387851D01*
X48785Y-389045D01*
X49039Y-390245D01*
X49264Y-391452D01*
X49459Y-392663D01*
X49624Y-393879D01*
X49759Y-395099D01*
X49865Y-396322D01*
X49940Y-397547D01*
X49985Y-398773D01*
X50000Y-400000D01*
X49985Y-401227D01*
X49940Y-402453D01*
X49865Y-403678D01*
X49759Y-404901D01*
X49624Y-406121D01*
X49459Y-407337D01*
X49264Y-408548D01*
X49039Y-409755D01*
X48785Y-410955D01*
X48502Y-412149D01*
X48189Y-413336D01*
X47847Y-414514D01*
X47476Y-415684D01*
X47077Y-416844D01*
X46650Y-417995D01*
X46194Y-419134D01*
X45710Y-420262D01*
X45199Y-421378D01*
X44661Y-422481D01*
X44096Y-423570D01*
X43504Y-424645D01*
X42886Y-425705D01*
X42243Y-426750D01*
X41573Y-427779D01*
X40879Y-428790D01*
X40160Y-429785D01*
X39417Y-430762D01*
X38651Y-431720D01*
X37860Y-432659D01*
X37048Y-433578D01*
X36212Y-434477D01*
X35355Y-435355D01*
X34477Y-436212D01*
X33578Y-437048D01*
X32659Y-437860D01*
X31720Y-438651D01*
X30762Y-439417D01*
X29785Y-440160D01*
X28790Y-440879D01*
X27779Y-441573D01*
X26750Y-442243D01*
X25705Y-442886D01*
X24645Y-443504D01*
X23570Y-444096D01*
X22481Y-444661D01*
X21378Y-445199D01*
X20262Y-445710D01*
X19134Y-446194D01*
X17995Y-446650D01*
X16844Y-447077D01*
X15684Y-447476D01*
X14514Y-447847D01*
X13336Y-448189D01*
X12149Y-448502D01*
X10955Y-448785D01*
X9755Y-449039D01*
X8548Y-449264D01*
X7337Y-449459D01*
X6121Y-449624D01*
X4901Y-449759D01*
X3678Y-449865D01*
X2453Y-449940D01*
X1227Y-449985D01*
X0Y-450000D01*
X-1227Y-449985D01*
X-2453Y-449940D01*
X-3678Y-449865D01*
X-4901Y-449759D01*
X-6121Y-449624D01*
X-7337Y-449459D01*
X-8548Y-449264D01*
X-9755Y-449039D01*
X-10955Y-448785D01*
X-12149Y-448502D01*
X-13336Y-448189D01*
X-14514Y-447847D01*
X-15684Y-447476D01*
X-16844Y-447077D01*
X-17995Y-446650D01*
X-19134Y-446194D01*
X-20262Y-445710D01*
X-21378Y-445199D01*
X-22481Y-444661D01*
X-23570Y-444096D01*
X-24645Y-443504D01*
X-25705Y-442886D01*
X-26750Y-442243D01*
X-27779Y-441573D01*
X-28790Y-440879D01*
X-29785Y-440160D01*
X-30762Y-439417D01*
X-31720Y-438651D01*
X-32659Y-437860D01*
X-33578Y-437048D01*
X-34477Y-436212D01*
X-35355Y-435355D01*
X-36212Y-434477D01*
X-37048Y-433578D01*
X-37860Y-432659D01*
X-38651Y-431720D01*
X-39417Y-430762D01*
X-40160Y-429785D01*
X-40879Y-428790D01*
X-41573Y-427779D01*
X-42243Y-426750D01*
X-42886Y-425705D01*
X-43504Y-424645D01*
X-44096Y-423570D01*
X-44661Y-422481D01*
X-45199Y-421378D01*
X-45710Y-420262D01*
X-46194Y-419134D01*
X-46650Y-417995D01*
X-47077Y-416844D01*
X-47476Y-415684D01*
X-47847Y-414514D01*
X-48189Y-413336D01*
X-48502Y-412149D01*
X-48785Y-410955D01*
X-49039Y-409755D01*
X-49264Y-408548D01*
X-49459Y-407337D01*
X-49624Y-406121D01*
X-49759Y-404901D01*
X-49865Y-403678D01*
X-49940Y-402453D01*
X-49985Y-401227D01*
X-50000Y-400000D01*
D15*
X0Y-400000D03*
D14*
X150000Y-400000D02*
X150015Y-398773D01*
X150060Y-397547D01*
X150135Y-396322D01*
X150241Y-395099D01*
X150376Y-393879D01*
X150541Y-392663D01*
X150736Y-391452D01*
X150961Y-390245D01*
X151215Y-389045D01*
X151498Y-387851D01*
X151811Y-386664D01*
X152153Y-385486D01*
X152524Y-384316D01*
X152923Y-383156D01*
X153350Y-382005D01*
X153806Y-380866D01*
X154290Y-379738D01*
X154801Y-378622D01*
X155339Y-377519D01*
X155904Y-376430D01*
X156496Y-375355D01*
X157114Y-374295D01*
X157757Y-373250D01*
X158427Y-372221D01*
X159121Y-371210D01*
X159840Y-370215D01*
X160583Y-369238D01*
X161349Y-368280D01*
X162140Y-367341D01*
X162952Y-366422D01*
X163788Y-365523D01*
X164645Y-364645D01*
X165523Y-363788D01*
X166422Y-362952D01*
X167341Y-362140D01*
X168280Y-361349D01*
X169238Y-360583D01*
X170215Y-359840D01*
X171210Y-359121D01*
X172221Y-358427D01*
X173250Y-357757D01*
X174295Y-357114D01*
X175355Y-356496D01*
X176430Y-355904D01*
X177519Y-355339D01*
X178622Y-354801D01*
X179738Y-354290D01*
X180866Y-353806D01*
X182005Y-353350D01*
X183156Y-352923D01*
X184316Y-352524D01*
X185486Y-352153D01*
X186664Y-351811D01*
X187851Y-351498D01*
X189045Y-351215D01*
X190245Y-350961D01*
X191452Y-350736D01*
X192663Y-350541D01*
X193879Y-350376D01*
X195099Y-350241D01*
X196322Y-350135D01*
X197547Y-350060D01*
X198773Y-350015D01*
X200000Y-350000D01*
X201227Y-350015D01*
X202453Y-350060D01*
X203678Y-350135D01*
X204901Y-350241D01*
X206121Y-350376D01*
X207337Y-350541D01*
X208548Y-350736D01*
X209755Y-350961D01*
X210955Y-351215D01*
X212149Y-351498D01*
X213336Y-351811D01*
X214514Y-352153D01*
X215684Y-352524D01*
X216844Y-352923D01*
X217995Y-353350D01*
X219134Y-353806D01*
X220262Y-354290D01*
X221378Y-354801D01*
X222481Y-355339D01*
X223570Y-355904D01*
X224645Y-356496D01*
X225705Y-357114D01*
X226750Y-357757D01*
X227779Y-358427D01*
X228790Y-359121D01*
X229785Y-359840D01*
X230762Y-360583D01*
X231720Y-361349D01*
X232659Y-362140D01*
X233578Y-362952D01*
X234477Y-363788D01*
X235355Y-364645D01*
X236212Y-365523D01*
X237048Y-366422D01*
X237860Y-367341D01*
X238651Y-368280D01*
X239417Y-369238D01*
X240160Y-370215D01*
X240879Y-371210D01*
X241573Y-372221D01*
X242243Y-373250D01*
X242886Y-374295D01*
X243504Y-375355D01*
X244096Y-376430D01*
X244661Y-377519D01*
X245199Y-378622D01*
X245710Y-379738D01*
X246194Y-380866D01*
X246650Y-382005D01*
X247077Y-383156D01*
X247476Y-384316D01*
X247847Y-385486D01*
X248189Y-386664D01*
X248502Y-387851D01*
X248785Y-389045D01*
X249039Y-390245D01*
X249264Y-391452D01*
X249459Y-392663D01*
X249624Y-393879D01*
X249759Y-395099D01*
X249865Y-396322D01*
X249940Y-397547D01*
X249985Y-398773D01*
X250000Y-400000D01*
X249985Y-401227D01*
X249940Y-402453D01*
X249865Y-403678D01*
X249759Y-404901D01*
X249624Y-406121D01*
X249459Y-407337D01*
X249264Y-408548D01*
X249039Y-409755D01*
X248785Y-410955D01*
X248502Y-412149D01*
X248189Y-413336D01*
X247847Y-414514D01*
X247476Y-415684D01*
X247077Y-416844D01*
X246650Y-417995D01*
X246194Y-419134D01*
X245710Y-420262D01*
X245199Y-421378D01*
X244661Y-422481D01*
X244096Y-423570D01*
X243504Y-424645D01*
X242886Y-425705D01*
X242243Y-426750D01*
X241573Y-427779D01*
X240879Y-428790D01*
X240160Y-429785D01*
X239417Y-430762D01*
X238651Y-431720D01*
X237860Y-432659D01*
X237048Y-433578D01*
X236212Y-434477D01*
X235355Y-435355D01*
X234477Y-436212D01*
X233578Y-437048D01*
X232659Y-437860D01*
X231720Y-438651D01*
X230762Y-439417D01*
X229785Y-440160D01*
X228790Y-440879D01*
X227779Y-441573D01*
X226750Y-442243D01*
X225705Y-442886D01*
X224645Y-443504D01*
X223570Y-444096D01*
X222481Y-444661D01*
X221378Y-445199D01*
X220262Y-445710D01*
X219134Y-446194D01*
X217995Y-446650D01*
X216844Y-447077D01*
X215684Y-447476D01*
X214514Y-447847D01*
X213336Y-448189D01*
X212149Y-448502D01*
X210955Y-448785D01*
X209755Y-449039D01*
X208548Y-449264D01*
X207337Y-449459D01*
X206121Y-449624D01*
X204901Y-449759D01*
X203678Y-449865D01*
X202453Y-449940D01*
X201227Y-449985D01*
X200000Y-450000D01*
X198773Y-449985D01*
X197547Y-449940D01*
X196322Y-449865D01*
X195099Y-449759D01*
X193879Y-449624D01*
X192663Y-449459D01*
X191452Y-449264D01*
X190245Y-449039D01*
X189045Y-448785D01*
X187851Y-448502D01*
X186664Y-448189D01*
X185486Y-447847D01*
X184316Y-447476D01*
X183156Y-447077D01*
X182005Y-446650D01*
X180866Y-446194D01*
X179738Y-445710D01*
X178622Y-445199D01*
X177519Y-444661D01*
X176430Y-444096D01*
X175355Y-443504D01*
X174295Y-442886D01*
X173250Y-442243D01*
X172221Y-441573D01*
X171210Y-440879D01*
X170215Y-440160D01*
X169238Y-439417D01*
X168280Y-438651D01*
X167341Y-437860D01*
X166422Y-437048D01*
X165523Y-436212D01*
X164645Y-435355D01*
X163788Y-434477D01*
X162952Y-433578D01*
X162140Y-432659D01*
X161349Y-431720D01*
X160583Y-430762D01*
X159840Y-429785D01*
X159121Y-428790D01*
X158427Y-427779D01*
X157757Y-426750D01*
X157114Y-425705D01*
X156496Y-424645D01*
X155904Y-423570D01*
X155339Y-422481D01*
X154801Y-421378D01*
X154290Y-420262D01*
X153806Y-419134D01*
X153350Y-417995D01*
X152923Y-416844D01*
X152524Y-415684D01*
X152153Y-414514D01*
X151811Y-413336D01*
X151498Y-412149D01*
X151215Y-410955D01*
X150961Y-409755D01*
X150736Y-408548D01*
X150541Y-407337D01*
X150376Y-406121D01*
X150241Y-404901D01*
X150135Y-403678D01*
X150060Y-402453D01*
X150015Y-401227D01*
X150000Y-400000D01*
D15*
X200000Y-400000D03*
D14*
X350000Y-400000D02*
X350015Y-398773D01*
X350060Y-397547D01*
X350135Y-396322D01*
X350241Y-395099D01*
X350376Y-393879D01*
X350541Y-392663D01*
X350736Y-391452D01*
X350961Y-390245D01*
X351215Y-389045D01*
X351498Y-387851D01*
X351811Y-386664D01*
X352153Y-385486D01*
X352524Y-384316D01*
X352923Y-383156D01*
X353350Y-382005D01*
X353806Y-380866D01*
X354290Y-379738D01*
X354801Y-378622D01*
X355339Y-377519D01*
X355904Y-376430D01*
X356496Y-375355D01*
X357114Y-374295D01*
X357757Y-373250D01*
X358427Y-372221D01*
X359121Y-371210D01*
X359840Y-370215D01*
X360583Y-369238D01*
X361349Y-368280D01*
X362140Y-367341D01*
X362952Y-366422D01*
X363788Y-365523D01*
X364645Y-364645D01*
X365523Y-363788D01*
X366422Y-362952D01*
X367341Y-362140D01*
X368280Y-361349D01*
X369238Y-360583D01*
X370215Y-359840D01*
X371210Y-359121D01*
X372221Y-358427D01*
X373250Y-357757D01*
X374295Y-357114D01*
X375355Y-356496D01*
X376430Y-355904D01*
X377519Y-355339D01*
X378622Y-354801D01*
X379738Y-354290D01*
X380866Y-353806D01*
X382005Y-353350D01*
X383156Y-352923D01*
X384316Y-352524D01*
X385486Y-352153D01*
X386664Y-351811D01*
X387851Y-351498D01*
X389045Y-351215D01*
X390245Y-350961D01*
X391452Y-350736D01*
X392663Y-350541D01*
X393879Y-350376D01*
X395099Y-350241D01*
X396322Y-350135D01*
X397547Y-350060D01*
X398773Y-350015D01*
X400000Y-350000D01*
X401227Y-350015D01*
X402453Y-350060D01*
X403678Y-350135D01*
X404901Y-350241D01*
X406121Y-350376D01*
X407337Y-350541D01*
X408548Y-350736D01*
X409755Y-350961D01*
X410955Y-351215D01*
X412149Y-351498D01*
X413336Y-351811D01*
X414514Y-352153D01*
X415684Y-352524D01*
X416844Y-352923D01*
X417995Y-353350D01*
X419134Y-353806D01*
X420262Y-354290D01*
X421378Y-354801D01*
X422481Y-355339D01*
X423570Y-355904D01*
X424645Y-356496D01*
X425705Y-357114D01*
X426750Y-357757D01*
X427779Y-358427D01*
X428790Y-359121D01*
X429785Y-359840D01*
X430762Y-360583D01*
X431720Y-361349D01*
X432659Y-362140D01*
X433578Y-362952D01*
X434477Y-363788D01*
X435355Y-364645D01*
X436212Y-365523D01*
X437048Y-366422D01*
X437860Y-367341D01*
X438651Y-368280D01*
X439417Y-369238D01*
X440160Y-370215D01*
X440879Y-371210D01*
X441573Y-372221D01*
X442243Y-373250D01*
X442886Y-374295D01*
X443504Y-375355D01*
X444096Y-376430D01*
X444661Y-377519D01*
X445199Y-378622D01*
X445710Y-379738D01*
X446194Y-380866D01*
X446650Y-382005D01*
X447077Y-383156D01*
X447476Y-384316D01*
X447847Y-385486D01*
X448189Y-386664D01*
X448502Y-387851D01*
X448785Y-389045D01*
X449039Y-390245D01*
X449264Y-391452D01*
X449459Y-392663D01*
X449624Y-393879D01*
X449759Y-395099D01*
X449865Y-396322D01*
X449940Y-397547D01*
X449985Y-398773D01*
X450000Y-400000D01*
X449985Y-401227D01*
X449940Y-402453D01*
X449865Y-403678D01*
X449759Y-404901D01*
X449624Y-406121D01*
X449459Y-407337D01*
X449264Y-408548D01*
X449039Y-409755D01*
X448785Y-410955D01*
X448502Y-412149D01*
X448189Y-413336D01*
X447847Y-414514D01*
X447476Y-415684D01*
X447077Y-416844D01*
X446650Y-417995D01*
X446194Y-419134D01*
X445710Y-420262D01*
X445199Y-421378D01*
X444661Y-422481D01*
X444096Y-423570D01*
X443504Y-424645D01*
X442886Y-425705D01*
X442243Y-426750D01*
X441573Y-427779D01*
X440879Y-428790D01*
X440160Y-429785D01*
X439417Y-430762D01*
X438651Y-431720D01*
X437860Y-432659D01*
X437048Y-433578D01*
X436212Y-434477D01*
X435355Y-435355D01*
X434477Y-436212D01*
X433578Y-437048D01*
X432659Y-437860D01*
X431720Y-438651D01*
X430762Y-439417D01*
X429785Y-440160D01*
X428790Y-440879D01*
X427779Y-441573D01*
X426750Y-442243D01*
X425705Y-442886D01*
X424645Y-443504D01*
X423570Y-444096D01*
X422481Y-444661D01*
X421378Y-445199D01*
X420262Y-445710D01*
X419134Y-446194D01*
X417995Y-446650D01*
X416844Y-447077D01*
X415684Y-447476D01*
X414514Y-447847D01*
X413336Y-448189D01*
X412149Y-448502D01*
X410955Y-448785D01*
X409755Y-449039D01*
X408548Y-449264D01*
X407337Y-449459D01*
X406121Y-449624D01*
X404901Y-449759D01*
X403678Y-449865D01*
X402453Y-449940D01*
X401227Y-449985D01*
X400000Y-450000D01*
X398773Y-449985D01*
X397547Y-449940D01*
X396322Y-449865D01*
X395099Y-449759D01*
X393879Y-449624D01*
X392663Y-449459D01*
X391452Y-449264D01*
X390245Y-449039D01*
X389045Y-448785D01*
X387851Y-448502D01*
X386664Y-448189D01*
X385486Y-447847D01*
X384316Y-447476D01*
X383156Y-447077D01*
X382005Y-446650D01*
X380866Y-446194D01*
X379738Y-445710D01*
X378622Y-445199D01*
X377519Y-444661D01*
X376430Y-444096D01*
X375355Y-443504D01*
X374295Y-442886D01*
X373250Y-442243D01*
X372221Y-441573D01*
X371210Y-440879D01*
X370215Y-440160D01*
X369238Y-439417D01*
X368280Y-438651D01*
X367341Y-437860D01*
X366422Y-437048D01*
X365523Y-436212D01*
X364645Y-435355D01*
X363788Y-434477D01*
X362952Y-433578D01*
X362140Y-432659D01*
X361349Y-431720D01*
X360583Y-430762D01*
X359840Y-429785D01*
X359121Y-428790D01*
X358427Y-427779D01*
X357757Y-426750D01*
X357114Y-425705D01*
X356496Y-424645D01*
X355904Y-423570D01*
X355339Y-422481D01*
X354801Y-421378D01*
X354290Y-420262D01*
X353806Y-419134D01*
X353350Y-417995D01*
X352923Y-416844D01*
X352524Y-415684D01*
X352153Y-414514D01*
X351811Y-413336D01*
X351498Y-412149D01*
X351215Y-410955D01*
X350961Y-409755D01*
X350736Y-408548D01*
X350541Y-407337D01*
X350376Y-406121D01*
X350241Y-404901D01*
X350135Y-403678D01*
X350060Y-402453D01*
X350015Y-401227D01*
X350000Y-400000D01*
D15*
X400000Y-400000D03*
M02*
