G04 EAGLE Gerber RS-274X export*
G75*
%MOMM*%
%FSLAX34Y34*%
%LPD*%
%INSoldermask Bottom*%
%IPPOS*%
%AMOC8*
5,1,8,0,0,1.08239X$1,22.5*%
G01*
%ADD10P,1.979475X8X22.500000*%
%ADD11C,5.283200*%
%ADD12C,2.235200*%


D10*
X248412Y-487300D03*
X220726Y-487300D03*
X193294Y-487300D03*
X165608Y-487300D03*
X137922Y-487300D03*
X110490Y-487300D03*
X82804Y-487300D03*
X55118Y-487300D03*
X27686Y-487300D03*
X0Y-487300D03*
X-27686Y-487300D03*
X-55118Y-487300D03*
X-82804Y-487300D03*
X234696Y-512700D03*
X207010Y-512700D03*
X179324Y-512700D03*
X151892Y-512700D03*
X124206Y-512700D03*
X96520Y-512700D03*
X69088Y-512700D03*
X41402Y-512700D03*
X13716Y-512700D03*
X-13716Y-512700D03*
X-41402Y-512700D03*
X-69088Y-512700D03*
X-110490Y-487300D03*
X-138176Y-487300D03*
X-165608Y-487300D03*
X-193294Y-487300D03*
X-96520Y-512700D03*
X-124206Y-512700D03*
X-151892Y-512700D03*
X-179578Y-512700D03*
X-220980Y-487300D03*
X-248412Y-487300D03*
X-207010Y-512700D03*
X-234696Y-512700D03*
D11*
X-317500Y-500000D03*
X317500Y-500000D03*
D10*
X-248412Y287300D03*
X-220726Y287300D03*
X-193294Y287300D03*
X-165608Y287300D03*
X-137922Y287300D03*
X-110490Y287300D03*
X-82804Y287300D03*
X-55118Y287300D03*
X-27686Y287300D03*
X0Y287300D03*
X27686Y287300D03*
X55118Y287300D03*
X82804Y287300D03*
X-234696Y312700D03*
X-207010Y312700D03*
X-179324Y312700D03*
X-151892Y312700D03*
X-124206Y312700D03*
X-96520Y312700D03*
X-69088Y312700D03*
X-41402Y312700D03*
X-13716Y312700D03*
X13716Y312700D03*
X41402Y312700D03*
X69088Y312700D03*
X110490Y287300D03*
X138176Y287300D03*
X165608Y287300D03*
X193294Y287300D03*
X96774Y312700D03*
X124206Y312700D03*
X151892Y312700D03*
X179578Y312700D03*
X220980Y287300D03*
X248412Y287300D03*
X207010Y312700D03*
X234696Y312700D03*
D11*
X-317500Y300000D03*
X317500Y300000D03*
D12*
X-400000Y200000D03*
X-300000Y100000D03*
X-200000Y200000D03*
X-100000Y100000D03*
X0Y200000D03*
X100000Y100000D03*
X200000Y200000D03*
X300000Y100000D03*
X400000Y200000D03*
X-400000Y0D03*
X-300000Y-100000D03*
X-200000Y0D03*
X-100000Y-100000D03*
X0Y0D03*
X100000Y-100000D03*
X200000Y0D03*
X300000Y-100000D03*
X400000Y0D03*
X-400000Y-200000D03*
X-300000Y-300000D03*
X-200000Y-200000D03*
X-100000Y-300000D03*
X0Y-200000D03*
X100000Y-300000D03*
X200000Y-200000D03*
X300000Y-300000D03*
X400000Y-200000D03*
X-400000Y-400000D03*
X-200000Y-400000D03*
X0Y-400000D03*
X200000Y-400000D03*
X400000Y-400000D03*
M02*
