G75*
%MOIN*%
%OFA0B0*%
%FSLAX25Y25*%
%IPPOS*%
%LPD*%
%AMOC8*
5,1,8,0,0,1.08239X$1,22.5*
%
%ADD10OC8,0.06000*%
%ADD11C,0.20000*%
%ADD12R,0.03543X0.02756*%
%ADD13R,0.02756X0.03543*%
%ADD14C,0.06000*%
%ADD15C,0.01600*%
%ADD16R,0.04362X0.04362*%
%ADD17C,0.01000*%
D10*
X0073188Y0088349D03*
X0084088Y0088349D03*
X0094988Y0088349D03*
X0105788Y0088349D03*
X0116688Y0088349D03*
X0127588Y0088349D03*
X0138388Y0088349D03*
X0149288Y0088349D03*
X0160188Y0088349D03*
X0170988Y0088349D03*
X0181888Y0088349D03*
X0192788Y0088349D03*
X0203688Y0088349D03*
X0214488Y0088349D03*
X0225388Y0088349D03*
X0236288Y0088349D03*
X0247088Y0088349D03*
X0257988Y0088349D03*
X0252588Y0099549D03*
X0263388Y0099549D03*
X0241688Y0099549D03*
X0230788Y0099549D03*
X0219988Y0099549D03*
X0209088Y0099549D03*
X0198188Y0099549D03*
X0187288Y0099549D03*
X0176488Y0099549D03*
X0165588Y0099549D03*
X0154688Y0099549D03*
X0143888Y0099549D03*
X0132988Y0099549D03*
X0122088Y0099549D03*
X0111288Y0099549D03*
X0100388Y0099549D03*
X0089488Y0099549D03*
X0078688Y0099549D03*
X0067788Y0099549D03*
X0305457Y0018351D03*
D11*
X0290588Y0093949D03*
X0040588Y0093949D03*
D12*
X0073143Y0065226D03*
X0073143Y0060108D03*
X0083994Y0060108D03*
X0083994Y0065226D03*
X0095094Y0065226D03*
X0095094Y0060108D03*
X0105696Y0060108D03*
X0105696Y0065226D03*
X0116547Y0065226D03*
X0116547Y0060108D03*
X0127792Y0059714D03*
X0127792Y0064832D03*
X0138643Y0064832D03*
X0138643Y0059714D03*
X0149389Y0059714D03*
X0149389Y0064832D03*
X0160490Y0064832D03*
X0160490Y0059714D03*
X0170947Y0059714D03*
X0170947Y0064832D03*
X0181943Y0064832D03*
X0181943Y0059714D03*
X0192794Y0059714D03*
X0192794Y0064832D03*
X0203789Y0064832D03*
X0203789Y0059714D03*
X0203789Y0042813D03*
X0203789Y0037695D03*
X0192794Y0037695D03*
X0192794Y0042813D03*
X0181693Y0042813D03*
X0181693Y0037695D03*
X0171235Y0037695D03*
X0171235Y0042813D03*
X0160135Y0042813D03*
X0160135Y0037695D03*
X0149389Y0037695D03*
X0149389Y0042813D03*
X0138643Y0042813D03*
X0138643Y0037695D03*
X0127792Y0037551D03*
X0127792Y0042669D03*
X0116691Y0042669D03*
X0116691Y0037551D03*
X0105696Y0037551D03*
X0105696Y0042669D03*
X0095239Y0042669D03*
X0095239Y0037551D03*
X0083888Y0037695D03*
X0083888Y0042813D03*
X0073143Y0042813D03*
X0073143Y0037695D03*
X0073143Y0020401D03*
X0073143Y0015283D03*
X0083994Y0015283D03*
X0083994Y0020401D03*
X0095239Y0020401D03*
X0095239Y0015283D03*
X0105696Y0015283D03*
X0105696Y0020401D03*
X0116691Y0020401D03*
X0116691Y0015283D03*
X0127792Y0015283D03*
X0127792Y0020401D03*
X0139076Y0020401D03*
X0139076Y0015283D03*
X0149283Y0015283D03*
X0149283Y0020401D03*
X0160528Y0020650D03*
X0160528Y0015532D03*
X0170986Y0015532D03*
X0170986Y0020650D03*
X0182087Y0020794D03*
X0182087Y0015676D03*
X0193187Y0015676D03*
X0193187Y0020794D03*
X0203789Y0021044D03*
X0203789Y0015926D03*
X0209088Y0122896D03*
X0209088Y0128014D03*
X0219901Y0128014D03*
X0219901Y0122896D03*
X0230963Y0122896D03*
X0230963Y0128014D03*
X0241526Y0128014D03*
X0241526Y0122896D03*
X0252588Y0122896D03*
X0252588Y0128014D03*
X0263401Y0128014D03*
X0263401Y0122896D03*
X0263151Y0145414D03*
X0263151Y0150532D03*
X0252194Y0150532D03*
X0252194Y0145414D03*
X0241526Y0145414D03*
X0241526Y0150532D03*
X0230963Y0150532D03*
X0230963Y0145414D03*
X0219901Y0145414D03*
X0219901Y0150532D03*
X0209088Y0150532D03*
X0209088Y0145414D03*
X0197882Y0145414D03*
X0197882Y0150532D03*
X0186820Y0150532D03*
X0186820Y0145414D03*
X0176401Y0145414D03*
X0176401Y0150532D03*
X0165588Y0150532D03*
X0165588Y0145414D03*
X0154526Y0145414D03*
X0154526Y0150532D03*
X0143963Y0150532D03*
X0143963Y0145414D03*
X0132901Y0145414D03*
X0132901Y0150532D03*
X0121694Y0150532D03*
X0121694Y0145414D03*
X0111420Y0145414D03*
X0111420Y0150532D03*
X0100213Y0150532D03*
X0100213Y0145414D03*
X0089401Y0145414D03*
X0089401Y0150532D03*
X0078982Y0150532D03*
X0078982Y0145414D03*
X0068313Y0145414D03*
X0068313Y0150532D03*
X0068025Y0167683D03*
X0068025Y0172801D03*
X0078982Y0172657D03*
X0078982Y0167539D03*
X0089401Y0167683D03*
X0089401Y0172801D03*
X0100213Y0172657D03*
X0100213Y0167539D03*
X0111420Y0167683D03*
X0111420Y0172801D03*
X0121694Y0172801D03*
X0121694Y0167683D03*
X0132901Y0167683D03*
X0132901Y0172801D03*
X0143963Y0173194D03*
X0143963Y0168076D03*
X0154526Y0168076D03*
X0154526Y0173194D03*
X0166126Y0173194D03*
X0166126Y0168076D03*
X0176401Y0168076D03*
X0176401Y0173194D03*
X0187213Y0173194D03*
X0187213Y0168076D03*
X0197488Y0168076D03*
X0197488Y0173194D03*
X0209482Y0173194D03*
X0209482Y0168076D03*
X0220294Y0168076D03*
X0220294Y0173194D03*
X0230963Y0173194D03*
X0230963Y0168076D03*
X0241526Y0168076D03*
X0241526Y0173194D03*
X0252588Y0173194D03*
X0252588Y0168076D03*
X0263151Y0168076D03*
X0263151Y0173194D03*
X0197882Y0128014D03*
X0197882Y0122896D03*
X0187213Y0122896D03*
X0187213Y0128014D03*
X0176401Y0128014D03*
X0176401Y0122896D03*
X0165588Y0122896D03*
X0165588Y0128014D03*
X0154526Y0128014D03*
X0154526Y0122896D03*
X0143963Y0122896D03*
X0143963Y0128014D03*
X0132901Y0128014D03*
X0132901Y0122896D03*
X0121694Y0122896D03*
X0121694Y0128014D03*
X0111420Y0128014D03*
X0111420Y0122896D03*
X0100272Y0122955D03*
X0100272Y0128073D03*
X0089401Y0128073D03*
X0089401Y0122955D03*
X0078982Y0122955D03*
X0078982Y0128073D03*
X0067920Y0128073D03*
X0067920Y0122955D03*
D13*
X0071017Y0134155D03*
X0076135Y0134155D03*
X0081435Y0138880D03*
X0086554Y0138880D03*
X0091854Y0134155D03*
X0096972Y0134155D03*
X0102917Y0138880D03*
X0108035Y0138880D03*
X0114267Y0134155D03*
X0119385Y0134155D03*
X0124686Y0138880D03*
X0129804Y0138880D03*
X0135354Y0134155D03*
X0140472Y0134155D03*
X0146561Y0138880D03*
X0151679Y0138880D03*
X0157229Y0134155D03*
X0162347Y0134155D03*
X0168186Y0138880D03*
X0173304Y0138880D03*
X0178998Y0134155D03*
X0184117Y0134155D03*
X0190061Y0138880D03*
X0195179Y0138880D03*
X0200873Y0134155D03*
X0205991Y0134155D03*
X0211542Y0138880D03*
X0216660Y0138880D03*
X0222748Y0134155D03*
X0227866Y0134155D03*
X0233417Y0138880D03*
X0238535Y0138880D03*
X0244229Y0134155D03*
X0249347Y0134155D03*
X0255186Y0138880D03*
X0260304Y0138880D03*
X0249347Y0156673D03*
X0244229Y0156673D03*
X0238535Y0161398D03*
X0233417Y0161398D03*
X0227866Y0156673D03*
X0222748Y0156673D03*
X0216660Y0161398D03*
X0211542Y0161398D03*
X0205991Y0156673D03*
X0200873Y0156673D03*
X0195035Y0161398D03*
X0189917Y0161398D03*
X0183972Y0156673D03*
X0178854Y0156673D03*
X0173160Y0161398D03*
X0168042Y0161398D03*
X0162347Y0156673D03*
X0157229Y0156673D03*
X0151679Y0161398D03*
X0146561Y0161398D03*
X0140328Y0156673D03*
X0135210Y0156673D03*
X0129660Y0161398D03*
X0124542Y0161398D03*
X0119241Y0156673D03*
X0114123Y0156673D03*
X0108035Y0161398D03*
X0102917Y0161398D03*
X0096972Y0156673D03*
X0091854Y0156673D03*
X0086554Y0161398D03*
X0081435Y0161398D03*
X0075741Y0156673D03*
X0070623Y0156673D03*
X0254398Y0161398D03*
X0259517Y0161398D03*
X0201297Y0053967D03*
X0196179Y0053967D03*
X0190446Y0049492D03*
X0185328Y0049492D03*
X0179844Y0053823D03*
X0174726Y0053823D03*
X0169387Y0049492D03*
X0164269Y0049492D03*
X0157892Y0053823D03*
X0152774Y0053823D03*
X0147041Y0049492D03*
X0141923Y0049492D03*
X0136046Y0053823D03*
X0130928Y0053823D03*
X0125050Y0049492D03*
X0119932Y0049492D03*
X0114593Y0054217D03*
X0109475Y0054217D03*
X0103598Y0049492D03*
X0098480Y0049492D03*
X0092103Y0054217D03*
X0086985Y0054217D03*
X0080858Y0049492D03*
X0075740Y0049492D03*
X0070113Y0054217D03*
X0064994Y0054217D03*
X0064994Y0031410D03*
X0070113Y0031410D03*
X0075635Y0026686D03*
X0080753Y0026686D03*
X0086985Y0031410D03*
X0092103Y0031410D03*
X0098480Y0027080D03*
X0103598Y0027080D03*
X0109475Y0031660D03*
X0114593Y0031660D03*
X0119683Y0026935D03*
X0124801Y0026935D03*
X0130928Y0031660D03*
X0136046Y0031660D03*
X0141673Y0026935D03*
X0146791Y0026935D03*
X0153062Y0031660D03*
X0158180Y0031660D03*
X0164307Y0026935D03*
X0169425Y0026935D03*
X0174765Y0031660D03*
X0179883Y0031660D03*
X0184684Y0026935D03*
X0189802Y0026935D03*
X0196323Y0031660D03*
X0201441Y0031660D03*
X0207069Y0026935D03*
X0212187Y0026935D03*
X0212974Y0049636D03*
X0207856Y0049636D03*
D14*
X0250469Y0049807D02*
X0256469Y0049807D01*
X0256469Y0039807D02*
X0250469Y0039807D01*
X0250469Y0029807D02*
X0256469Y0029807D01*
X0256469Y0059807D02*
X0250469Y0059807D01*
D15*
X0271972Y0070004D02*
X0271972Y0035752D01*
X0266028Y0029807D01*
X0253469Y0029807D01*
X0223941Y0033390D02*
X0218035Y0027484D01*
X0212735Y0027484D01*
X0212187Y0026935D01*
X0207069Y0026935D02*
X0203789Y0023656D01*
X0203789Y0021044D01*
X0203789Y0015926D02*
X0285106Y0015926D01*
X0285358Y0015673D01*
X0301697Y0032012D01*
X0301697Y0022112D01*
X0305457Y0018351D01*
X0301697Y0032012D02*
X0305043Y0035358D01*
X0305043Y0158587D01*
X0291264Y0172366D01*
X0263980Y0172366D01*
X0263151Y0173194D01*
X0252588Y0173194D01*
X0241526Y0173194D01*
X0230963Y0173194D01*
X0220294Y0173194D01*
X0209482Y0173194D01*
X0197488Y0173194D01*
X0187213Y0173194D01*
X0176401Y0173194D01*
X0166126Y0173194D01*
X0154526Y0173194D01*
X0143963Y0173194D01*
X0143569Y0172801D01*
X0132901Y0172801D01*
X0121694Y0172801D01*
X0116461Y0172801D01*
X0116461Y0164098D01*
X0111420Y0164783D02*
X0108035Y0161398D01*
X0109398Y0161398D01*
X0114123Y0156673D01*
X0111420Y0153970D01*
X0111420Y0150532D01*
X0111420Y0145414D02*
X0111420Y0142265D01*
X0108035Y0138880D01*
X0109543Y0138880D01*
X0114267Y0134155D01*
X0111420Y0131308D01*
X0111420Y0128014D01*
X0111420Y0122896D02*
X0111288Y0122765D01*
X0111288Y0099549D01*
X0122088Y0099549D02*
X0122088Y0122502D01*
X0121694Y0122896D01*
X0121694Y0128014D02*
X0121694Y0131846D01*
X0119385Y0134155D01*
X0119961Y0134155D01*
X0124686Y0138880D01*
X0121694Y0141871D01*
X0121694Y0145414D01*
X0121694Y0150532D02*
X0121694Y0154220D01*
X0119241Y0156673D01*
X0119817Y0156673D01*
X0124542Y0161398D01*
X0121694Y0164245D01*
X0121694Y0167683D01*
X0116461Y0172801D02*
X0111420Y0172801D01*
X0111276Y0172657D01*
X0100213Y0172657D01*
X0100069Y0172801D01*
X0089401Y0172801D01*
X0089257Y0172657D01*
X0078982Y0172657D01*
X0078838Y0172801D01*
X0068025Y0172801D01*
X0068025Y0167683D02*
X0068025Y0159271D01*
X0070623Y0156673D01*
X0070568Y0156618D01*
X0061736Y0156618D01*
X0054650Y0149531D01*
X0054650Y0074335D01*
X0062524Y0066461D01*
X0066461Y0066461D01*
X0073143Y0065226D02*
X0073143Y0088303D01*
X0073188Y0088349D01*
X0083994Y0088254D02*
X0083994Y0065226D01*
X0083994Y0060108D02*
X0083994Y0057208D01*
X0086985Y0054217D01*
X0082261Y0049492D01*
X0080858Y0049492D01*
X0083888Y0046462D01*
X0083888Y0042813D01*
X0083888Y0037695D02*
X0086985Y0034598D01*
X0086985Y0031410D01*
X0082261Y0026686D01*
X0080753Y0026686D01*
X0083994Y0023445D01*
X0083994Y0020401D01*
X0083994Y0015283D02*
X0095239Y0015283D01*
X0105696Y0015283D01*
X0116691Y0015283D01*
X0127792Y0015283D01*
X0139076Y0015283D01*
X0149283Y0015283D01*
X0155043Y0015283D01*
X0155043Y0025122D01*
X0160528Y0023157D02*
X0164307Y0026935D01*
X0159583Y0031660D01*
X0158180Y0031660D01*
X0158180Y0035741D01*
X0160135Y0037695D01*
X0160135Y0042813D02*
X0160135Y0045358D01*
X0164269Y0049492D01*
X0159938Y0053823D01*
X0157892Y0053823D01*
X0160490Y0056420D01*
X0160490Y0059714D01*
X0160490Y0064832D02*
X0160490Y0088047D01*
X0160188Y0088349D01*
X0170947Y0088308D02*
X0170947Y0064832D01*
X0170947Y0059714D02*
X0170947Y0057602D01*
X0174726Y0053823D01*
X0170395Y0049492D01*
X0169387Y0049492D01*
X0171235Y0047643D01*
X0171235Y0042813D01*
X0171235Y0037695D02*
X0174765Y0034166D01*
X0174765Y0031660D01*
X0170040Y0026935D01*
X0169425Y0026935D01*
X0170986Y0025375D01*
X0170986Y0020650D01*
X0170986Y0015532D02*
X0181943Y0015532D01*
X0182087Y0015676D01*
X0193187Y0015676D01*
X0203539Y0015676D01*
X0203789Y0015926D01*
X0193187Y0020794D02*
X0193187Y0023550D01*
X0189802Y0026935D01*
X0191598Y0026935D01*
X0196323Y0031660D01*
X0196323Y0034166D01*
X0192794Y0037695D01*
X0192794Y0042813D02*
X0192794Y0047144D01*
X0190446Y0049492D01*
X0191704Y0049492D01*
X0196179Y0053967D01*
X0192794Y0057352D01*
X0192794Y0059714D01*
X0192794Y0064832D02*
X0192794Y0088343D01*
X0192788Y0088349D01*
X0181943Y0088294D02*
X0181943Y0064832D01*
X0181943Y0059714D02*
X0181943Y0055921D01*
X0179844Y0053823D01*
X0180997Y0053823D01*
X0185328Y0049492D01*
X0181693Y0045857D01*
X0181693Y0042813D01*
X0181693Y0037695D02*
X0186392Y0032996D01*
X0186539Y0032996D01*
X0184684Y0026935D02*
X0179960Y0031660D01*
X0179883Y0031660D01*
X0179883Y0035885D01*
X0181693Y0037695D01*
X0201441Y0035347D02*
X0201441Y0031660D01*
X0202344Y0031660D01*
X0207069Y0026935D01*
X0201441Y0035347D02*
X0203789Y0037695D01*
X0203789Y0042813D02*
X0203789Y0045569D01*
X0207856Y0049636D01*
X0203525Y0053967D01*
X0201297Y0053967D01*
X0203789Y0056459D01*
X0203789Y0059714D01*
X0203789Y0064832D02*
X0203789Y0088248D01*
X0203688Y0088349D01*
X0209088Y0099549D02*
X0209088Y0122896D01*
X0209088Y0128014D02*
X0209088Y0131058D01*
X0205991Y0134155D01*
X0206817Y0134155D01*
X0211542Y0138880D01*
X0209088Y0141333D01*
X0209088Y0145414D01*
X0209088Y0150532D02*
X0209088Y0153576D01*
X0205991Y0156673D01*
X0206817Y0156673D01*
X0211542Y0161398D01*
X0209482Y0163457D01*
X0209482Y0168076D01*
X0216660Y0161398D02*
X0220294Y0165032D01*
X0220294Y0168076D01*
X0230963Y0168076D02*
X0230963Y0163851D01*
X0233417Y0161398D01*
X0228692Y0156673D01*
X0227866Y0156673D01*
X0230963Y0153576D01*
X0230963Y0150532D01*
X0230963Y0145414D02*
X0230963Y0141333D01*
X0233417Y0138880D01*
X0228692Y0134155D01*
X0227866Y0134155D01*
X0230963Y0131058D01*
X0230963Y0128014D01*
X0230963Y0122896D02*
X0230788Y0122721D01*
X0230788Y0099549D01*
X0219988Y0099549D02*
X0219988Y0122809D01*
X0219901Y0122896D01*
X0219901Y0128014D02*
X0219901Y0131308D01*
X0222748Y0134155D01*
X0218024Y0138880D01*
X0216660Y0138880D01*
X0219901Y0142120D01*
X0219901Y0145414D01*
X0219901Y0150532D02*
X0219901Y0153826D01*
X0222748Y0156673D01*
X0218024Y0161398D01*
X0216660Y0161398D01*
X0200873Y0156673D02*
X0196149Y0161398D01*
X0195035Y0161398D01*
X0197488Y0163851D01*
X0197488Y0168076D01*
X0189917Y0161398D02*
X0187213Y0164101D01*
X0187213Y0168076D01*
X0176401Y0168076D02*
X0176401Y0164639D01*
X0173160Y0161398D01*
X0174130Y0161398D01*
X0178854Y0156673D01*
X0176401Y0154220D01*
X0176401Y0150532D01*
X0170791Y0155043D02*
X0170099Y0155043D01*
X0165588Y0150532D01*
X0165588Y0153432D01*
X0162347Y0156673D01*
X0163317Y0156673D01*
X0168042Y0161398D01*
X0166126Y0163313D01*
X0166126Y0168076D01*
X0154526Y0168076D02*
X0154526Y0164245D01*
X0151679Y0161398D01*
X0152505Y0161398D01*
X0157229Y0156673D01*
X0154526Y0153970D01*
X0154526Y0150532D01*
X0154526Y0145414D02*
X0154526Y0141727D01*
X0151679Y0138880D01*
X0152505Y0138880D01*
X0157229Y0134155D01*
X0154526Y0131452D01*
X0154526Y0128014D01*
X0154526Y0122896D02*
X0154688Y0122734D01*
X0154688Y0099549D01*
X0165588Y0099549D02*
X0165588Y0122896D01*
X0165588Y0128014D02*
X0165588Y0130914D01*
X0162347Y0134155D01*
X0163461Y0134155D01*
X0168186Y0138880D01*
X0165588Y0141477D01*
X0165588Y0145414D01*
X0173304Y0138880D02*
X0176401Y0141976D01*
X0176401Y0145414D01*
X0186820Y0145414D02*
X0186820Y0142120D01*
X0190061Y0138880D01*
X0185336Y0134155D01*
X0184117Y0134155D01*
X0187213Y0131058D01*
X0187213Y0128014D01*
X0187213Y0122896D02*
X0187288Y0122821D01*
X0187288Y0099549D01*
X0176488Y0099549D02*
X0176488Y0122809D01*
X0176401Y0122896D01*
X0176401Y0128014D02*
X0176401Y0131557D01*
X0178998Y0134155D01*
X0174274Y0138880D01*
X0173304Y0138880D01*
X0186820Y0150532D02*
X0186820Y0153826D01*
X0183972Y0156673D01*
X0185192Y0156673D01*
X0189917Y0161398D01*
X0197882Y0153682D02*
X0200873Y0156673D01*
X0197882Y0153682D02*
X0197882Y0150532D01*
X0197882Y0145414D02*
X0197882Y0141583D01*
X0195179Y0138880D01*
X0196149Y0138880D01*
X0200873Y0134155D01*
X0197882Y0131164D01*
X0197882Y0128014D01*
X0197882Y0122896D02*
X0198188Y0122590D01*
X0198188Y0099549D01*
X0181943Y0088294D02*
X0181888Y0088349D01*
X0170988Y0088349D02*
X0170947Y0088308D01*
X0149389Y0088248D02*
X0149389Y0064832D01*
X0149389Y0059714D02*
X0149389Y0057208D01*
X0152774Y0053823D01*
X0148443Y0049492D01*
X0147041Y0049492D01*
X0149389Y0047144D01*
X0149389Y0042813D01*
X0149389Y0037695D02*
X0153062Y0034022D01*
X0153062Y0031660D01*
X0148338Y0026935D01*
X0146791Y0026935D01*
X0149283Y0024443D01*
X0149283Y0020401D01*
X0155043Y0015283D02*
X0160279Y0015283D01*
X0160528Y0015532D01*
X0170986Y0015532D01*
X0160528Y0020650D02*
X0160528Y0023157D01*
X0141673Y0026935D02*
X0139076Y0024338D01*
X0139076Y0020401D01*
X0127792Y0020401D02*
X0127792Y0023944D01*
X0124801Y0026935D01*
X0126203Y0026935D01*
X0130928Y0031660D01*
X0130928Y0034416D01*
X0127792Y0037551D01*
X0136046Y0035098D02*
X0138643Y0037695D01*
X0136046Y0035098D02*
X0136046Y0031660D01*
X0136949Y0031660D01*
X0141673Y0026935D01*
X0119683Y0026935D02*
X0116691Y0023944D01*
X0116691Y0020401D01*
X0105696Y0020401D02*
X0105696Y0024981D01*
X0103598Y0027080D01*
X0104894Y0027080D01*
X0109475Y0031660D01*
X0109475Y0033772D01*
X0105696Y0037551D01*
X0105696Y0042669D02*
X0105696Y0047394D01*
X0103598Y0049492D01*
X0104750Y0049492D01*
X0109475Y0054217D01*
X0105696Y0057995D01*
X0105696Y0060108D01*
X0105696Y0065226D02*
X0105696Y0088257D01*
X0105788Y0088349D01*
X0095094Y0088243D02*
X0095094Y0065226D01*
X0095094Y0060108D02*
X0095094Y0057208D01*
X0092103Y0054217D01*
X0093755Y0054217D01*
X0098480Y0049492D01*
X0095239Y0046251D01*
X0095239Y0042669D01*
X0095239Y0037551D02*
X0092103Y0034416D01*
X0092103Y0031410D01*
X0094149Y0031410D01*
X0098480Y0027080D01*
X0095239Y0023839D01*
X0095239Y0020401D01*
X0083994Y0015283D02*
X0073143Y0015283D01*
X0073139Y0015280D01*
X0042839Y0015280D01*
X0040870Y0017248D01*
X0040870Y0029059D01*
X0056618Y0039787D02*
X0064994Y0031410D01*
X0070113Y0031410D02*
X0070910Y0031410D01*
X0075635Y0026686D01*
X0073143Y0024194D01*
X0073143Y0020401D01*
X0070113Y0031410D02*
X0070113Y0034665D01*
X0073143Y0037695D01*
X0074360Y0037695D01*
X0078272Y0033783D01*
X0073143Y0042813D02*
X0073143Y0046894D01*
X0075740Y0049492D01*
X0071016Y0054217D01*
X0070113Y0054217D01*
X0070113Y0057078D01*
X0073143Y0060108D01*
X0065280Y0056618D02*
X0065280Y0054502D01*
X0064994Y0054217D01*
X0065280Y0056618D02*
X0056224Y0065673D01*
X0055437Y0065673D01*
X0056618Y0056618D02*
X0056618Y0039787D01*
X0064492Y0074335D02*
X0060555Y0078272D01*
X0060555Y0131421D01*
X0063311Y0134177D01*
X0070994Y0134177D01*
X0071017Y0134155D01*
X0068313Y0136858D01*
X0068313Y0145414D01*
X0068313Y0150532D02*
X0068313Y0154364D01*
X0070623Y0156673D01*
X0075741Y0156673D02*
X0076711Y0156673D01*
X0081435Y0161398D01*
X0078982Y0163851D01*
X0078982Y0167539D01*
X0086554Y0161398D02*
X0089401Y0164245D01*
X0089401Y0167683D01*
X0100213Y0167539D02*
X0100213Y0164101D01*
X0102917Y0161398D01*
X0098192Y0156673D01*
X0096972Y0156673D01*
X0100213Y0153432D01*
X0100213Y0150532D01*
X0100213Y0145414D02*
X0100213Y0141583D01*
X0102917Y0138880D01*
X0098192Y0134155D01*
X0096972Y0134155D01*
X0100272Y0130855D01*
X0100272Y0128073D01*
X0100272Y0122955D02*
X0100388Y0122839D01*
X0100388Y0099549D01*
X0089488Y0099549D02*
X0089488Y0122868D01*
X0089401Y0122955D01*
X0089401Y0128073D02*
X0089401Y0131702D01*
X0091854Y0134155D01*
X0087130Y0138880D01*
X0086554Y0138880D01*
X0089401Y0141727D01*
X0089401Y0145414D01*
X0089401Y0150532D02*
X0089401Y0154220D01*
X0091854Y0156673D01*
X0087130Y0161398D01*
X0086554Y0161398D01*
X0078982Y0153432D02*
X0075741Y0156673D01*
X0078982Y0153432D02*
X0078982Y0150532D01*
X0078982Y0145414D02*
X0078982Y0141333D01*
X0081435Y0138880D01*
X0080859Y0138880D01*
X0076135Y0134155D01*
X0078982Y0131308D01*
X0078982Y0128073D01*
X0078982Y0122955D02*
X0078688Y0122661D01*
X0078688Y0099549D01*
X0067788Y0099549D02*
X0067788Y0122824D01*
X0067920Y0122955D01*
X0067920Y0128073D02*
X0067920Y0131058D01*
X0071017Y0134155D01*
X0111420Y0164783D02*
X0111420Y0167683D01*
X0129660Y0161398D02*
X0130486Y0161398D01*
X0135210Y0156673D01*
X0132901Y0154364D01*
X0132901Y0150532D01*
X0132901Y0145414D02*
X0132901Y0141976D01*
X0129804Y0138880D01*
X0130630Y0138880D01*
X0135354Y0134155D01*
X0132901Y0131702D01*
X0132901Y0128014D01*
X0132901Y0122896D02*
X0132988Y0122809D01*
X0132988Y0099549D01*
X0143888Y0099549D02*
X0143888Y0122821D01*
X0143963Y0122896D01*
X0143963Y0128014D02*
X0143963Y0130665D01*
X0140472Y0134155D01*
X0141836Y0134155D01*
X0146561Y0138880D01*
X0143963Y0141477D01*
X0143963Y0145414D01*
X0143963Y0150532D02*
X0143963Y0153039D01*
X0140328Y0156673D01*
X0141836Y0156673D01*
X0146561Y0161398D01*
X0143963Y0163995D01*
X0143963Y0168076D01*
X0132901Y0167683D02*
X0132901Y0164639D01*
X0129660Y0161398D01*
X0238535Y0161398D02*
X0239505Y0161398D01*
X0244229Y0156673D01*
X0241526Y0153970D01*
X0241526Y0150532D01*
X0241526Y0145414D02*
X0241526Y0141871D01*
X0238535Y0138880D01*
X0239505Y0138880D01*
X0244229Y0134155D01*
X0241526Y0131452D01*
X0241526Y0128014D01*
X0241526Y0122896D02*
X0241688Y0122734D01*
X0241688Y0099549D01*
X0252588Y0099549D02*
X0252588Y0122896D01*
X0252588Y0128014D02*
X0252588Y0130914D01*
X0249347Y0134155D01*
X0250461Y0134155D01*
X0255186Y0138880D01*
X0252194Y0141871D01*
X0252194Y0145414D01*
X0252194Y0150532D02*
X0252194Y0153826D01*
X0249347Y0156673D01*
X0249674Y0156673D01*
X0254398Y0161398D01*
X0252588Y0163208D01*
X0252588Y0168076D01*
X0259517Y0161398D02*
X0263151Y0165032D01*
X0263151Y0168076D01*
X0259517Y0161398D02*
X0259572Y0161343D01*
X0268035Y0161343D01*
X0277484Y0151894D01*
X0277484Y0113705D01*
X0271185Y0117642D02*
X0271185Y0132602D01*
X0264886Y0138902D01*
X0260326Y0138902D01*
X0260304Y0138880D01*
X0263401Y0135783D01*
X0263401Y0128014D01*
X0263401Y0122896D02*
X0263388Y0122883D01*
X0263388Y0099549D01*
X0216067Y0074335D02*
X0216067Y0052729D01*
X0212974Y0049636D01*
X0223941Y0033390D02*
X0223941Y0068429D01*
X0271972Y0070004D02*
X0272366Y0070398D01*
X0184684Y0026935D02*
X0182087Y0024338D01*
X0182087Y0020794D01*
X0138643Y0042813D02*
X0138643Y0046213D01*
X0141923Y0049492D01*
X0137592Y0053823D01*
X0136046Y0053823D01*
X0138643Y0056420D01*
X0138643Y0059714D01*
X0138643Y0064832D02*
X0138643Y0088094D01*
X0138388Y0088349D01*
X0127792Y0088145D02*
X0127792Y0064832D01*
X0127792Y0059714D02*
X0127792Y0056958D01*
X0130928Y0053823D01*
X0126597Y0049492D01*
X0125050Y0049492D01*
X0127792Y0046750D01*
X0127792Y0042669D01*
X0119932Y0049492D02*
X0116691Y0046251D01*
X0116691Y0042669D01*
X0116691Y0037551D02*
X0114593Y0035453D01*
X0114593Y0031660D01*
X0114958Y0031660D01*
X0119683Y0026935D01*
X0119932Y0049492D02*
X0115208Y0054217D01*
X0114593Y0054217D01*
X0116547Y0056171D01*
X0116547Y0060108D01*
X0116547Y0065226D02*
X0116547Y0088208D01*
X0116688Y0088349D01*
X0127588Y0088349D02*
X0127792Y0088145D01*
X0149288Y0088349D02*
X0149389Y0088248D01*
X0095094Y0088243D02*
X0094988Y0088349D01*
X0084088Y0088349D02*
X0083994Y0088254D01*
X0066461Y0074335D02*
X0064492Y0074335D01*
X0238535Y0161398D02*
X0241526Y0164389D01*
X0241526Y0168076D01*
X0259517Y0161398D02*
X0263151Y0157763D01*
X0263151Y0150532D01*
X0263151Y0145414D02*
X0263151Y0141727D01*
X0260304Y0138880D01*
D16*
X0271185Y0117642D03*
X0277484Y0113705D03*
X0216067Y0074335D03*
X0223941Y0068429D03*
X0272366Y0070398D03*
X0186539Y0032996D03*
X0155043Y0025122D03*
X0078272Y0033783D03*
X0040870Y0029059D03*
X0056618Y0056618D03*
X0055437Y0065673D03*
X0066461Y0066461D03*
X0066461Y0074335D03*
X0170791Y0155043D03*
X0116461Y0164098D03*
D17*
X0018748Y0181102D02*
X0018748Y0006937D01*
X0314961Y0006937D01*
X0314961Y0181102D01*
X0018748Y0181102D01*
X0018748Y0180290D02*
X0314961Y0180290D01*
X0314961Y0179291D02*
X0018748Y0179291D01*
X0018748Y0178293D02*
X0314961Y0178293D01*
X0314961Y0177294D02*
X0018748Y0177294D01*
X0018748Y0176296D02*
X0314961Y0176296D01*
X0314961Y0175297D02*
X0266236Y0175297D01*
X0266321Y0175151D02*
X0266123Y0175493D01*
X0265844Y0175773D01*
X0265502Y0175970D01*
X0265120Y0176072D01*
X0263340Y0176072D01*
X0263340Y0173384D01*
X0262962Y0173384D01*
X0262962Y0176072D01*
X0261182Y0176072D01*
X0260801Y0175970D01*
X0260459Y0175773D01*
X0260179Y0175493D01*
X0259982Y0175151D01*
X0259880Y0174770D01*
X0259880Y0173383D01*
X0262962Y0173383D01*
X0262962Y0173005D01*
X0259880Y0173005D01*
X0259880Y0171619D01*
X0259982Y0171238D01*
X0260179Y0170896D01*
X0260459Y0170616D01*
X0260625Y0170520D01*
X0260092Y0169988D01*
X0260092Y0166165D01*
X0260712Y0165545D01*
X0259624Y0164457D01*
X0257605Y0164457D01*
X0256957Y0163809D01*
X0256310Y0164457D01*
X0254676Y0164457D01*
X0254676Y0165411D01*
X0254893Y0165411D01*
X0255647Y0166165D01*
X0255647Y0169988D01*
X0255115Y0170520D01*
X0255281Y0170616D01*
X0255560Y0170896D01*
X0255758Y0171238D01*
X0255860Y0171619D01*
X0255860Y0173005D01*
X0252777Y0173005D01*
X0252777Y0173383D01*
X0255860Y0173383D01*
X0255860Y0174770D01*
X0255758Y0175151D01*
X0255560Y0175493D01*
X0255281Y0175773D01*
X0254939Y0175970D01*
X0254557Y0176072D01*
X0252777Y0176072D01*
X0252777Y0173384D01*
X0252399Y0173384D01*
X0252399Y0176072D01*
X0250619Y0176072D01*
X0250238Y0175970D01*
X0249896Y0175773D01*
X0249616Y0175493D01*
X0249419Y0175151D01*
X0249317Y0174770D01*
X0249317Y0173383D01*
X0252399Y0173383D01*
X0252399Y0173005D01*
X0249317Y0173005D01*
X0249317Y0171619D01*
X0249419Y0171238D01*
X0249616Y0170896D01*
X0249896Y0170616D01*
X0250062Y0170520D01*
X0249529Y0169988D01*
X0249529Y0166165D01*
X0250283Y0165411D01*
X0250501Y0165411D01*
X0250501Y0162343D01*
X0251446Y0161398D01*
X0249781Y0159732D01*
X0247436Y0159732D01*
X0246788Y0159084D01*
X0246140Y0159732D01*
X0244122Y0159732D01*
X0241972Y0161883D01*
X0243613Y0163524D01*
X0243613Y0165411D01*
X0243831Y0165411D01*
X0244585Y0166165D01*
X0244585Y0169988D01*
X0244052Y0170520D01*
X0244219Y0170616D01*
X0244498Y0170896D01*
X0244695Y0171238D01*
X0244798Y0171619D01*
X0244798Y0173005D01*
X0241715Y0173005D01*
X0241715Y0173383D01*
X0244798Y0173383D01*
X0244798Y0174770D01*
X0244695Y0175151D01*
X0244498Y0175493D01*
X0244219Y0175773D01*
X0243877Y0175970D01*
X0243495Y0176072D01*
X0241715Y0176072D01*
X0241715Y0173384D01*
X0241337Y0173384D01*
X0241337Y0176072D01*
X0239557Y0176072D01*
X0239175Y0175970D01*
X0238833Y0175773D01*
X0238554Y0175493D01*
X0238357Y0175151D01*
X0238254Y0174770D01*
X0238254Y0173383D01*
X0241337Y0173383D01*
X0241337Y0173005D01*
X0238254Y0173005D01*
X0238254Y0171619D01*
X0238357Y0171238D01*
X0238554Y0170896D01*
X0238833Y0170616D01*
X0239000Y0170520D01*
X0238467Y0169988D01*
X0238467Y0166165D01*
X0239221Y0165411D01*
X0239439Y0165411D01*
X0239439Y0165254D01*
X0238642Y0164457D01*
X0236623Y0164457D01*
X0235976Y0163809D01*
X0235328Y0164457D01*
X0233309Y0164457D01*
X0233050Y0164716D01*
X0233050Y0165411D01*
X0233268Y0165411D01*
X0234022Y0166165D01*
X0234022Y0169988D01*
X0233489Y0170520D01*
X0233656Y0170616D01*
X0233935Y0170896D01*
X0234132Y0171238D01*
X0234235Y0171619D01*
X0234235Y0173005D01*
X0231152Y0173005D01*
X0231152Y0173383D01*
X0234235Y0173383D01*
X0234235Y0174770D01*
X0234132Y0175151D01*
X0233935Y0175493D01*
X0233656Y0175773D01*
X0233314Y0175970D01*
X0232932Y0176072D01*
X0231152Y0176072D01*
X0231152Y0173384D01*
X0230774Y0173384D01*
X0230774Y0176072D01*
X0228994Y0176072D01*
X0228612Y0175970D01*
X0228270Y0175773D01*
X0227991Y0175493D01*
X0227794Y0175151D01*
X0227691Y0174770D01*
X0227691Y0173383D01*
X0230774Y0173383D01*
X0230774Y0173005D01*
X0227691Y0173005D01*
X0227691Y0171619D01*
X0227794Y0171238D01*
X0227991Y0170896D01*
X0228270Y0170616D01*
X0228437Y0170520D01*
X0227904Y0169988D01*
X0227904Y0166165D01*
X0228658Y0165411D01*
X0228876Y0165411D01*
X0228876Y0162987D01*
X0230465Y0161398D01*
X0228799Y0159732D01*
X0225955Y0159732D01*
X0225307Y0159084D01*
X0224659Y0159732D01*
X0222641Y0159732D01*
X0220294Y0162080D01*
X0222382Y0164168D01*
X0222382Y0165411D01*
X0222599Y0165411D01*
X0223354Y0166165D01*
X0223354Y0169988D01*
X0222821Y0170520D01*
X0222987Y0170616D01*
X0223266Y0170896D01*
X0223464Y0171238D01*
X0223566Y0171619D01*
X0223566Y0173005D01*
X0220484Y0173005D01*
X0220484Y0173383D01*
X0223566Y0173383D01*
X0223566Y0174770D01*
X0223464Y0175151D01*
X0223266Y0175493D01*
X0222987Y0175773D01*
X0222645Y0175970D01*
X0222264Y0176072D01*
X0220483Y0176072D01*
X0220483Y0173384D01*
X0220105Y0173384D01*
X0220105Y0176072D01*
X0218325Y0176072D01*
X0217944Y0175970D01*
X0217602Y0175773D01*
X0217323Y0175493D01*
X0217125Y0175151D01*
X0217023Y0174770D01*
X0217023Y0173383D01*
X0220105Y0173383D01*
X0220105Y0173005D01*
X0217023Y0173005D01*
X0217023Y0171619D01*
X0217125Y0171238D01*
X0217323Y0170896D01*
X0217602Y0170616D01*
X0217768Y0170520D01*
X0217235Y0169988D01*
X0217235Y0166165D01*
X0217855Y0165545D01*
X0216767Y0164457D01*
X0214749Y0164457D01*
X0214101Y0163809D01*
X0213453Y0164457D01*
X0211569Y0164457D01*
X0211569Y0165411D01*
X0211787Y0165411D01*
X0212541Y0166165D01*
X0212541Y0169988D01*
X0212008Y0170520D01*
X0212175Y0170616D01*
X0212454Y0170896D01*
X0212651Y0171238D01*
X0212754Y0171619D01*
X0212754Y0173005D01*
X0209671Y0173005D01*
X0209671Y0173383D01*
X0212754Y0173383D01*
X0212754Y0174770D01*
X0212651Y0175151D01*
X0212454Y0175493D01*
X0212175Y0175773D01*
X0211833Y0175970D01*
X0211451Y0176072D01*
X0209671Y0176072D01*
X0209671Y0173384D01*
X0209293Y0173384D01*
X0209293Y0176072D01*
X0207513Y0176072D01*
X0207131Y0175970D01*
X0206789Y0175773D01*
X0206510Y0175493D01*
X0206312Y0175151D01*
X0206210Y0174770D01*
X0206210Y0173383D01*
X0209293Y0173383D01*
X0209293Y0173005D01*
X0206210Y0173005D01*
X0206210Y0171619D01*
X0206312Y0171238D01*
X0206510Y0170896D01*
X0206789Y0170616D01*
X0206955Y0170520D01*
X0206423Y0169988D01*
X0206423Y0166165D01*
X0207177Y0165411D01*
X0207394Y0165411D01*
X0207394Y0162593D01*
X0208590Y0161398D01*
X0206924Y0159732D01*
X0204080Y0159732D01*
X0203432Y0159084D01*
X0202784Y0159732D01*
X0200766Y0159732D01*
X0198544Y0161955D01*
X0199576Y0162987D01*
X0199576Y0165411D01*
X0199793Y0165411D01*
X0200547Y0166165D01*
X0200547Y0169988D01*
X0200015Y0170520D01*
X0200181Y0170616D01*
X0200460Y0170896D01*
X0200658Y0171238D01*
X0200760Y0171619D01*
X0200760Y0173005D01*
X0197677Y0173005D01*
X0197677Y0173383D01*
X0200760Y0173383D01*
X0200760Y0174770D01*
X0200658Y0175151D01*
X0200460Y0175493D01*
X0200181Y0175773D01*
X0199839Y0175970D01*
X0199457Y0176072D01*
X0197677Y0176072D01*
X0197677Y0173384D01*
X0197299Y0173384D01*
X0197299Y0176072D01*
X0195519Y0176072D01*
X0195138Y0175970D01*
X0194796Y0175773D01*
X0194516Y0175493D01*
X0194319Y0175151D01*
X0194217Y0174770D01*
X0194217Y0173383D01*
X0197299Y0173383D01*
X0197299Y0173005D01*
X0194217Y0173005D01*
X0194217Y0171619D01*
X0194319Y0171238D01*
X0194516Y0170896D01*
X0194796Y0170616D01*
X0194962Y0170520D01*
X0194429Y0169988D01*
X0194429Y0166165D01*
X0195183Y0165411D01*
X0195401Y0165411D01*
X0195401Y0164716D01*
X0195142Y0164457D01*
X0193123Y0164457D01*
X0192476Y0163809D01*
X0191828Y0164457D01*
X0189810Y0164457D01*
X0189301Y0164965D01*
X0189301Y0165411D01*
X0189518Y0165411D01*
X0190272Y0166165D01*
X0190272Y0169988D01*
X0189740Y0170520D01*
X0189906Y0170616D01*
X0190185Y0170896D01*
X0190383Y0171238D01*
X0190485Y0171619D01*
X0190485Y0173005D01*
X0187402Y0173005D01*
X0187402Y0173383D01*
X0190485Y0173383D01*
X0190485Y0174770D01*
X0190383Y0175151D01*
X0190185Y0175493D01*
X0189906Y0175773D01*
X0189564Y0175970D01*
X0189183Y0176072D01*
X0187402Y0176072D01*
X0187402Y0173384D01*
X0187024Y0173384D01*
X0187024Y0176072D01*
X0185244Y0176072D01*
X0184863Y0175970D01*
X0184521Y0175773D01*
X0184241Y0175493D01*
X0184044Y0175151D01*
X0183942Y0174770D01*
X0183942Y0173383D01*
X0187024Y0173383D01*
X0187024Y0173005D01*
X0183942Y0173005D01*
X0183942Y0171619D01*
X0184044Y0171238D01*
X0184241Y0170896D01*
X0184521Y0170616D01*
X0184687Y0170520D01*
X0184154Y0169988D01*
X0184154Y0166165D01*
X0184908Y0165411D01*
X0185126Y0165411D01*
X0185126Y0163236D01*
X0186965Y0161398D01*
X0185299Y0159732D01*
X0182061Y0159732D01*
X0181413Y0159084D01*
X0180766Y0159732D01*
X0178747Y0159732D01*
X0176597Y0161883D01*
X0178488Y0163774D01*
X0178488Y0165411D01*
X0178706Y0165411D01*
X0179460Y0166165D01*
X0179460Y0169988D01*
X0178927Y0170520D01*
X0179093Y0170616D01*
X0179373Y0170896D01*
X0179570Y0171238D01*
X0179672Y0171619D01*
X0179672Y0173005D01*
X0176590Y0173005D01*
X0176590Y0173383D01*
X0179672Y0173383D01*
X0179672Y0174770D01*
X0179570Y0175151D01*
X0179373Y0175493D01*
X0179093Y0175773D01*
X0178751Y0175970D01*
X0178370Y0176072D01*
X0176590Y0176072D01*
X0176590Y0173384D01*
X0176212Y0173384D01*
X0176212Y0176072D01*
X0174432Y0176072D01*
X0174050Y0175970D01*
X0173708Y0175773D01*
X0173429Y0175493D01*
X0173231Y0175151D01*
X0173129Y0174770D01*
X0173129Y0173383D01*
X0176212Y0173383D01*
X0176212Y0173005D01*
X0173129Y0173005D01*
X0173129Y0171619D01*
X0173231Y0171238D01*
X0173429Y0170896D01*
X0173708Y0170616D01*
X0173874Y0170520D01*
X0173342Y0169988D01*
X0173342Y0166165D01*
X0174096Y0165411D01*
X0174221Y0165411D01*
X0173267Y0164457D01*
X0171249Y0164457D01*
X0170601Y0163809D01*
X0169953Y0164457D01*
X0168213Y0164457D01*
X0168213Y0165411D01*
X0168431Y0165411D01*
X0169185Y0166165D01*
X0169185Y0169988D01*
X0168652Y0170520D01*
X0168819Y0170616D01*
X0169098Y0170896D01*
X0169295Y0171238D01*
X0169398Y0171619D01*
X0169398Y0173005D01*
X0166315Y0173005D01*
X0166315Y0173383D01*
X0169398Y0173383D01*
X0169398Y0174770D01*
X0169295Y0175151D01*
X0169098Y0175493D01*
X0168819Y0175773D01*
X0168477Y0175970D01*
X0168095Y0176072D01*
X0166315Y0176072D01*
X0166315Y0173384D01*
X0165937Y0173384D01*
X0165937Y0176072D01*
X0164157Y0176072D01*
X0163775Y0175970D01*
X0163433Y0175773D01*
X0163154Y0175493D01*
X0162957Y0175151D01*
X0162854Y0174770D01*
X0162854Y0173383D01*
X0165937Y0173383D01*
X0165937Y0173005D01*
X0162854Y0173005D01*
X0162854Y0171619D01*
X0162957Y0171238D01*
X0163154Y0170896D01*
X0163433Y0170616D01*
X0163600Y0170520D01*
X0163067Y0169988D01*
X0163067Y0166165D01*
X0163821Y0165411D01*
X0164039Y0165411D01*
X0164039Y0162449D01*
X0165090Y0161398D01*
X0163424Y0159732D01*
X0160436Y0159732D01*
X0159788Y0159084D01*
X0159140Y0159732D01*
X0157122Y0159732D01*
X0155044Y0161811D01*
X0156613Y0163380D01*
X0156613Y0165411D01*
X0156831Y0165411D01*
X0157585Y0166165D01*
X0157585Y0169988D01*
X0157052Y0170520D01*
X0157219Y0170616D01*
X0157498Y0170896D01*
X0157695Y0171238D01*
X0157798Y0171619D01*
X0157798Y0173005D01*
X0154715Y0173005D01*
X0154715Y0173383D01*
X0157798Y0173383D01*
X0157798Y0174770D01*
X0157695Y0175151D01*
X0157498Y0175493D01*
X0157219Y0175773D01*
X0156877Y0175970D01*
X0156495Y0176072D01*
X0154715Y0176072D01*
X0154715Y0173384D01*
X0154337Y0173384D01*
X0154337Y0176072D01*
X0152557Y0176072D01*
X0152175Y0175970D01*
X0151833Y0175773D01*
X0151554Y0175493D01*
X0151357Y0175151D01*
X0151254Y0174770D01*
X0151254Y0173383D01*
X0154337Y0173383D01*
X0154337Y0173005D01*
X0151254Y0173005D01*
X0151254Y0171619D01*
X0151357Y0171238D01*
X0151554Y0170896D01*
X0151833Y0170616D01*
X0152000Y0170520D01*
X0151467Y0169988D01*
X0151467Y0166165D01*
X0152221Y0165411D01*
X0152439Y0165411D01*
X0152439Y0165110D01*
X0151786Y0164457D01*
X0149768Y0164457D01*
X0149120Y0163809D01*
X0148472Y0164457D01*
X0146454Y0164457D01*
X0146050Y0164860D01*
X0146050Y0165411D01*
X0146268Y0165411D01*
X0147022Y0166165D01*
X0147022Y0169988D01*
X0146489Y0170520D01*
X0146656Y0170616D01*
X0146935Y0170896D01*
X0147132Y0171238D01*
X0147235Y0171619D01*
X0147235Y0173005D01*
X0144152Y0173005D01*
X0144152Y0173383D01*
X0147235Y0173383D01*
X0147235Y0174770D01*
X0147132Y0175151D01*
X0146935Y0175493D01*
X0146656Y0175773D01*
X0146314Y0175970D01*
X0145932Y0176072D01*
X0144152Y0176072D01*
X0144152Y0173384D01*
X0143774Y0173384D01*
X0143774Y0176072D01*
X0141994Y0176072D01*
X0141612Y0175970D01*
X0141270Y0175773D01*
X0140991Y0175493D01*
X0140794Y0175151D01*
X0140691Y0174770D01*
X0140691Y0173383D01*
X0143774Y0173383D01*
X0143774Y0173005D01*
X0140691Y0173005D01*
X0140691Y0171619D01*
X0140794Y0171238D01*
X0140991Y0170896D01*
X0141270Y0170616D01*
X0141437Y0170520D01*
X0140904Y0169988D01*
X0140904Y0166165D01*
X0141658Y0165411D01*
X0141876Y0165411D01*
X0141876Y0163131D01*
X0143609Y0161398D01*
X0141943Y0159732D01*
X0138417Y0159732D01*
X0137769Y0159084D01*
X0137121Y0159732D01*
X0135103Y0159732D01*
X0133025Y0161811D01*
X0134988Y0163774D01*
X0134988Y0165017D01*
X0135206Y0165017D01*
X0135960Y0165771D01*
X0135960Y0169594D01*
X0135427Y0170127D01*
X0135593Y0170223D01*
X0135873Y0170502D01*
X0136070Y0170844D01*
X0136172Y0171225D01*
X0136172Y0172612D01*
X0133090Y0172612D01*
X0133090Y0172990D01*
X0132712Y0172990D01*
X0132712Y0175679D01*
X0130932Y0175679D01*
X0130550Y0175577D01*
X0130208Y0175379D01*
X0129929Y0175100D01*
X0129731Y0174758D01*
X0129629Y0174376D01*
X0129629Y0172990D01*
X0132712Y0172990D01*
X0132712Y0172612D01*
X0129629Y0172612D01*
X0129629Y0171225D01*
X0129731Y0170844D01*
X0129929Y0170502D01*
X0130208Y0170223D01*
X0130374Y0170127D01*
X0129842Y0169594D01*
X0129842Y0165771D01*
X0130462Y0165152D01*
X0129767Y0164457D01*
X0127749Y0164457D01*
X0127101Y0163809D01*
X0126453Y0164457D01*
X0124435Y0164457D01*
X0123874Y0165017D01*
X0123999Y0165017D01*
X0124754Y0165771D01*
X0124754Y0169594D01*
X0124221Y0170127D01*
X0124387Y0170223D01*
X0124666Y0170502D01*
X0124864Y0170844D01*
X0124966Y0171225D01*
X0124966Y0172612D01*
X0121884Y0172612D01*
X0121884Y0172990D01*
X0124966Y0172990D01*
X0124966Y0174376D01*
X0124864Y0174758D01*
X0124666Y0175100D01*
X0124387Y0175379D01*
X0124045Y0175577D01*
X0123664Y0175679D01*
X0121883Y0175679D01*
X0121883Y0172990D01*
X0121505Y0172990D01*
X0121505Y0172612D01*
X0118423Y0172612D01*
X0118423Y0171225D01*
X0118525Y0170844D01*
X0118723Y0170502D01*
X0119002Y0170223D01*
X0119168Y0170127D01*
X0118635Y0169594D01*
X0118635Y0165771D01*
X0119390Y0165017D01*
X0119607Y0165017D01*
X0119607Y0163380D01*
X0121590Y0161398D01*
X0119924Y0159732D01*
X0117330Y0159732D01*
X0116682Y0159084D01*
X0116034Y0159732D01*
X0114016Y0159732D01*
X0111669Y0162080D01*
X0113507Y0163918D01*
X0113507Y0165017D01*
X0113725Y0165017D01*
X0114479Y0165771D01*
X0114479Y0169594D01*
X0113946Y0170127D01*
X0114112Y0170223D01*
X0114392Y0170502D01*
X0114589Y0170844D01*
X0114691Y0171225D01*
X0114691Y0172612D01*
X0111609Y0172612D01*
X0111609Y0172990D01*
X0114691Y0172990D01*
X0114691Y0174376D01*
X0114589Y0174758D01*
X0114392Y0175100D01*
X0114112Y0175379D01*
X0113770Y0175577D01*
X0113389Y0175679D01*
X0111609Y0175679D01*
X0111609Y0172990D01*
X0111231Y0172990D01*
X0111231Y0175679D01*
X0109451Y0175679D01*
X0109069Y0175577D01*
X0108727Y0175379D01*
X0108448Y0175100D01*
X0108250Y0174758D01*
X0108148Y0174376D01*
X0108148Y0172990D01*
X0111231Y0172990D01*
X0111231Y0172612D01*
X0108148Y0172612D01*
X0108148Y0171225D01*
X0108250Y0170844D01*
X0108448Y0170502D01*
X0108727Y0170223D01*
X0108893Y0170127D01*
X0108361Y0169594D01*
X0108361Y0165771D01*
X0108909Y0165224D01*
X0108142Y0164457D01*
X0106123Y0164457D01*
X0105476Y0163809D01*
X0104828Y0164457D01*
X0102810Y0164457D01*
X0102393Y0164873D01*
X0102518Y0164873D01*
X0103272Y0165627D01*
X0103272Y0169450D01*
X0102740Y0169982D01*
X0102906Y0170078D01*
X0103185Y0170358D01*
X0103383Y0170700D01*
X0103485Y0171081D01*
X0103485Y0172468D01*
X0100402Y0172468D01*
X0100402Y0172846D01*
X0100024Y0172846D01*
X0100024Y0172468D01*
X0096942Y0172468D01*
X0096942Y0171081D01*
X0097044Y0170700D01*
X0097241Y0170358D01*
X0097521Y0170078D01*
X0097687Y0169982D01*
X0097154Y0169450D01*
X0097154Y0165627D01*
X0097908Y0164873D01*
X0098126Y0164873D01*
X0098126Y0163236D01*
X0099965Y0161398D01*
X0098299Y0159732D01*
X0095061Y0159732D01*
X0094413Y0159084D01*
X0093766Y0159732D01*
X0091747Y0159732D01*
X0089794Y0161686D01*
X0091488Y0163380D01*
X0091488Y0165017D01*
X0091706Y0165017D01*
X0092460Y0165771D01*
X0092460Y0169594D01*
X0091927Y0170127D01*
X0092093Y0170223D01*
X0092373Y0170502D01*
X0092570Y0170844D01*
X0092672Y0171225D01*
X0092672Y0172612D01*
X0089590Y0172612D01*
X0089590Y0172990D01*
X0089212Y0172990D01*
X0089212Y0175679D01*
X0087432Y0175679D01*
X0087050Y0175577D01*
X0086708Y0175379D01*
X0086429Y0175100D01*
X0086231Y0174758D01*
X0086129Y0174376D01*
X0086129Y0172990D01*
X0089212Y0172990D01*
X0089212Y0172612D01*
X0086129Y0172612D01*
X0086129Y0171225D01*
X0086231Y0170844D01*
X0086429Y0170502D01*
X0086708Y0170223D01*
X0086874Y0170127D01*
X0086342Y0169594D01*
X0086342Y0165771D01*
X0087096Y0165017D01*
X0087221Y0165017D01*
X0086661Y0164457D01*
X0084642Y0164457D01*
X0083994Y0163809D01*
X0083347Y0164457D01*
X0081328Y0164457D01*
X0081069Y0164716D01*
X0081069Y0164873D01*
X0081287Y0164873D01*
X0082041Y0165627D01*
X0082041Y0169450D01*
X0081508Y0169982D01*
X0081675Y0170078D01*
X0081954Y0170358D01*
X0082151Y0170700D01*
X0082254Y0171081D01*
X0082254Y0172468D01*
X0079171Y0172468D01*
X0079171Y0172846D01*
X0078793Y0172846D01*
X0078793Y0175535D01*
X0077013Y0175535D01*
X0076631Y0175432D01*
X0076289Y0175235D01*
X0076010Y0174956D01*
X0075812Y0174614D01*
X0075710Y0174232D01*
X0075710Y0172846D01*
X0078793Y0172846D01*
X0078793Y0172468D01*
X0075710Y0172468D01*
X0075710Y0171081D01*
X0075812Y0170700D01*
X0076010Y0170358D01*
X0076289Y0170078D01*
X0076455Y0169982D01*
X0075923Y0169450D01*
X0075923Y0165627D01*
X0076677Y0164873D01*
X0076894Y0164873D01*
X0076894Y0162987D01*
X0078483Y0161398D01*
X0076818Y0159732D01*
X0073830Y0159732D01*
X0073182Y0159084D01*
X0072534Y0159732D01*
X0070516Y0159732D01*
X0070113Y0160135D01*
X0070113Y0165017D01*
X0070330Y0165017D01*
X0071084Y0165771D01*
X0071084Y0169594D01*
X0070552Y0170127D01*
X0070718Y0170223D01*
X0070997Y0170502D01*
X0071195Y0170844D01*
X0071297Y0171225D01*
X0071297Y0172612D01*
X0068214Y0172612D01*
X0068214Y0172990D01*
X0067836Y0172990D01*
X0067836Y0175679D01*
X0066056Y0175679D01*
X0065675Y0175577D01*
X0065333Y0175379D01*
X0065053Y0175100D01*
X0064856Y0174758D01*
X0064754Y0174376D01*
X0064754Y0172990D01*
X0067836Y0172990D01*
X0067836Y0172612D01*
X0064754Y0172612D01*
X0064754Y0171225D01*
X0064856Y0170844D01*
X0065053Y0170502D01*
X0065333Y0170223D01*
X0065499Y0170127D01*
X0064966Y0169594D01*
X0064966Y0165771D01*
X0065720Y0165017D01*
X0065938Y0165017D01*
X0065938Y0158705D01*
X0060872Y0158705D01*
X0059649Y0157483D01*
X0052562Y0150396D01*
X0052562Y0073470D01*
X0053785Y0072247D01*
X0056891Y0069142D01*
X0052723Y0069142D01*
X0051969Y0068388D01*
X0051969Y0062959D01*
X0052723Y0062205D01*
X0056741Y0062205D01*
X0058859Y0060087D01*
X0053904Y0060087D01*
X0053150Y0059332D01*
X0053150Y0053904D01*
X0053904Y0053150D01*
X0054531Y0053150D01*
X0054531Y0038922D01*
X0062329Y0031124D01*
X0062329Y0029105D01*
X0063083Y0028351D01*
X0066906Y0028351D01*
X0067554Y0028999D01*
X0068201Y0028351D01*
X0071017Y0028351D01*
X0072683Y0026686D01*
X0071055Y0025058D01*
X0071055Y0023066D01*
X0070838Y0023066D01*
X0070083Y0022312D01*
X0070083Y0018490D01*
X0070616Y0017957D01*
X0070450Y0017861D01*
X0070171Y0017582D01*
X0069973Y0017240D01*
X0069871Y0016858D01*
X0069871Y0015472D01*
X0072953Y0015472D01*
X0072953Y0015094D01*
X0069871Y0015094D01*
X0069871Y0013707D01*
X0069973Y0013326D01*
X0070171Y0012984D01*
X0070450Y0012704D01*
X0070792Y0012507D01*
X0071173Y0012405D01*
X0072954Y0012405D01*
X0072954Y0015094D01*
X0073331Y0015094D01*
X0073331Y0012405D01*
X0075112Y0012405D01*
X0075493Y0012507D01*
X0075835Y0012704D01*
X0076114Y0012984D01*
X0076312Y0013326D01*
X0076414Y0013707D01*
X0076414Y0015094D01*
X0073332Y0015094D01*
X0073332Y0015472D01*
X0076414Y0015472D01*
X0076414Y0016858D01*
X0076312Y0017240D01*
X0076114Y0017582D01*
X0075835Y0017861D01*
X0075669Y0017957D01*
X0076202Y0018490D01*
X0076202Y0022312D01*
X0075447Y0023066D01*
X0075230Y0023066D01*
X0075230Y0023329D01*
X0075528Y0023627D01*
X0077546Y0023627D01*
X0078194Y0024275D01*
X0078842Y0023627D01*
X0080860Y0023627D01*
X0081555Y0022932D01*
X0080935Y0022312D01*
X0080935Y0018490D01*
X0081467Y0017957D01*
X0081301Y0017861D01*
X0081022Y0017582D01*
X0080824Y0017240D01*
X0080722Y0016858D01*
X0080722Y0015472D01*
X0083805Y0015472D01*
X0083805Y0015094D01*
X0080722Y0015094D01*
X0080722Y0013707D01*
X0080824Y0013326D01*
X0081022Y0012984D01*
X0081301Y0012704D01*
X0081643Y0012507D01*
X0082025Y0012405D01*
X0083805Y0012405D01*
X0083805Y0015094D01*
X0084183Y0015094D01*
X0084183Y0015472D01*
X0087265Y0015472D01*
X0087265Y0016858D01*
X0087163Y0017240D01*
X0086966Y0017582D01*
X0086686Y0017861D01*
X0086520Y0017957D01*
X0087053Y0018490D01*
X0087053Y0022312D01*
X0086299Y0023066D01*
X0086081Y0023066D01*
X0086081Y0024310D01*
X0084459Y0025932D01*
X0086878Y0028351D01*
X0088896Y0028351D01*
X0089544Y0028999D01*
X0090192Y0028351D01*
X0094014Y0028351D01*
X0094135Y0028472D01*
X0095527Y0027080D01*
X0093151Y0024703D01*
X0093151Y0023066D01*
X0092934Y0023066D01*
X0092180Y0022312D01*
X0092180Y0018490D01*
X0092712Y0017957D01*
X0092546Y0017861D01*
X0092267Y0017582D01*
X0092069Y0017240D01*
X0091967Y0016858D01*
X0091967Y0015472D01*
X0095050Y0015472D01*
X0095050Y0015094D01*
X0095428Y0015094D01*
X0095428Y0015472D01*
X0098510Y0015472D01*
X0098510Y0016858D01*
X0098408Y0017240D01*
X0098211Y0017582D01*
X0097931Y0017861D01*
X0097765Y0017957D01*
X0098298Y0018490D01*
X0098298Y0022312D01*
X0097543Y0023066D01*
X0097418Y0023066D01*
X0098373Y0024020D01*
X0100391Y0024020D01*
X0101039Y0024668D01*
X0101686Y0024020D01*
X0103609Y0024020D01*
X0103609Y0023066D01*
X0103391Y0023066D01*
X0102637Y0022312D01*
X0102637Y0018490D01*
X0103170Y0017957D01*
X0103003Y0017861D01*
X0102724Y0017582D01*
X0102527Y0017240D01*
X0102424Y0016858D01*
X0102424Y0015472D01*
X0105507Y0015472D01*
X0105507Y0015094D01*
X0102424Y0015094D01*
X0102424Y0013707D01*
X0102527Y0013326D01*
X0102724Y0012984D01*
X0103003Y0012704D01*
X0103345Y0012507D01*
X0103727Y0012405D01*
X0105507Y0012405D01*
X0105507Y0015094D01*
X0105885Y0015094D01*
X0105885Y0015472D01*
X0108968Y0015472D01*
X0108968Y0016858D01*
X0108865Y0017240D01*
X0108668Y0017582D01*
X0108389Y0017861D01*
X0108222Y0017957D01*
X0108755Y0018490D01*
X0108755Y0022312D01*
X0108001Y0023066D01*
X0107783Y0023066D01*
X0107783Y0025846D01*
X0107198Y0026431D01*
X0109368Y0028601D01*
X0111386Y0028601D01*
X0112034Y0029249D01*
X0112682Y0028601D01*
X0115065Y0028601D01*
X0116731Y0026935D01*
X0114604Y0024809D01*
X0114604Y0023066D01*
X0114386Y0023066D01*
X0113632Y0022312D01*
X0113632Y0018490D01*
X0114165Y0017957D01*
X0113999Y0017861D01*
X0113719Y0017582D01*
X0113522Y0017240D01*
X0113420Y0016858D01*
X0113420Y0015472D01*
X0116502Y0015472D01*
X0116502Y0015094D01*
X0113420Y0015094D01*
X0113420Y0013707D01*
X0113522Y0013326D01*
X0113719Y0012984D01*
X0113999Y0012704D01*
X0114341Y0012507D01*
X0114722Y0012405D01*
X0116502Y0012405D01*
X0116502Y0015094D01*
X0116880Y0015094D01*
X0116880Y0012405D01*
X0118660Y0012405D01*
X0119042Y0012507D01*
X0119384Y0012704D01*
X0119663Y0012984D01*
X0119861Y0013326D01*
X0119963Y0013707D01*
X0119963Y0015094D01*
X0116880Y0015094D01*
X0116880Y0015472D01*
X0119963Y0015472D01*
X0119963Y0016858D01*
X0119861Y0017240D01*
X0119663Y0017582D01*
X0119384Y0017861D01*
X0119218Y0017957D01*
X0119750Y0018490D01*
X0119750Y0022312D01*
X0118996Y0023066D01*
X0118779Y0023066D01*
X0118779Y0023079D01*
X0119576Y0023876D01*
X0121594Y0023876D01*
X0122242Y0024524D01*
X0122890Y0023876D01*
X0124908Y0023876D01*
X0125705Y0023079D01*
X0125705Y0023066D01*
X0125487Y0023066D01*
X0124733Y0022312D01*
X0124733Y0018490D01*
X0125266Y0017957D01*
X0125099Y0017861D01*
X0124820Y0017582D01*
X0124623Y0017240D01*
X0124520Y0016858D01*
X0124520Y0015472D01*
X0127603Y0015472D01*
X0127603Y0015094D01*
X0124520Y0015094D01*
X0124520Y0013707D01*
X0124623Y0013326D01*
X0124820Y0012984D01*
X0125099Y0012704D01*
X0125441Y0012507D01*
X0125823Y0012405D01*
X0127603Y0012405D01*
X0127603Y0015094D01*
X0127981Y0015094D01*
X0127981Y0015472D01*
X0131064Y0015472D01*
X0131064Y0016858D01*
X0130962Y0017240D01*
X0130764Y0017582D01*
X0130485Y0017861D01*
X0130319Y0017957D01*
X0130851Y0018490D01*
X0130851Y0022312D01*
X0130097Y0023066D01*
X0129880Y0023066D01*
X0129880Y0024809D01*
X0128454Y0026234D01*
X0130821Y0028601D01*
X0132839Y0028601D01*
X0133487Y0029249D01*
X0134134Y0028601D01*
X0137056Y0028601D01*
X0138721Y0026935D01*
X0136988Y0025202D01*
X0136988Y0023066D01*
X0136771Y0023066D01*
X0136017Y0022312D01*
X0136017Y0018490D01*
X0136549Y0017957D01*
X0136383Y0017861D01*
X0136104Y0017582D01*
X0135906Y0017240D01*
X0135804Y0016858D01*
X0135804Y0015472D01*
X0138887Y0015472D01*
X0138887Y0015094D01*
X0139265Y0015094D01*
X0139265Y0015472D01*
X0142347Y0015472D01*
X0142347Y0016858D01*
X0142245Y0017240D01*
X0142048Y0017582D01*
X0141768Y0017861D01*
X0141602Y0017957D01*
X0142135Y0018490D01*
X0142135Y0022312D01*
X0141380Y0023066D01*
X0141163Y0023066D01*
X0141163Y0023473D01*
X0141566Y0023876D01*
X0143584Y0023876D01*
X0144232Y0024524D01*
X0144880Y0023876D01*
X0146898Y0023876D01*
X0147196Y0023579D01*
X0147196Y0023066D01*
X0146979Y0023066D01*
X0146224Y0022312D01*
X0146224Y0018490D01*
X0146757Y0017957D01*
X0146591Y0017861D01*
X0146312Y0017582D01*
X0146114Y0017240D01*
X0146012Y0016858D01*
X0146012Y0015472D01*
X0149094Y0015472D01*
X0149094Y0015094D01*
X0146012Y0015094D01*
X0146012Y0013707D01*
X0146114Y0013326D01*
X0146312Y0012984D01*
X0146591Y0012704D01*
X0146933Y0012507D01*
X0147314Y0012405D01*
X0149094Y0012405D01*
X0149094Y0015094D01*
X0149472Y0015094D01*
X0149472Y0012405D01*
X0151253Y0012405D01*
X0151634Y0012507D01*
X0151976Y0012704D01*
X0152255Y0012984D01*
X0152453Y0013326D01*
X0152555Y0013707D01*
X0152555Y0015094D01*
X0149473Y0015094D01*
X0149473Y0015472D01*
X0152555Y0015472D01*
X0152555Y0016858D01*
X0152453Y0017240D01*
X0152255Y0017582D01*
X0151976Y0017861D01*
X0151810Y0017957D01*
X0152343Y0018490D01*
X0152343Y0022312D01*
X0151588Y0023066D01*
X0151371Y0023066D01*
X0151371Y0025308D01*
X0150517Y0026162D01*
X0152955Y0028601D01*
X0154973Y0028601D01*
X0155621Y0029249D01*
X0156269Y0028601D01*
X0159690Y0028601D01*
X0161355Y0026935D01*
X0158441Y0024021D01*
X0158441Y0023316D01*
X0158223Y0023316D01*
X0157469Y0022562D01*
X0157469Y0018739D01*
X0158002Y0018207D01*
X0157836Y0018111D01*
X0157556Y0017831D01*
X0157359Y0017489D01*
X0157257Y0017108D01*
X0157257Y0015721D01*
X0160339Y0015721D01*
X0160339Y0015343D01*
X0157257Y0015343D01*
X0157257Y0013957D01*
X0157359Y0013575D01*
X0157556Y0013233D01*
X0157836Y0012954D01*
X0158178Y0012757D01*
X0158559Y0012654D01*
X0160339Y0012654D01*
X0160339Y0015343D01*
X0160717Y0015343D01*
X0160717Y0012654D01*
X0162497Y0012654D01*
X0162879Y0012757D01*
X0163221Y0012954D01*
X0163500Y0013233D01*
X0163698Y0013575D01*
X0163800Y0013957D01*
X0163800Y0015343D01*
X0160717Y0015343D01*
X0160717Y0015721D01*
X0163800Y0015721D01*
X0163800Y0017108D01*
X0163698Y0017489D01*
X0163500Y0017831D01*
X0163221Y0018111D01*
X0163055Y0018207D01*
X0163587Y0018739D01*
X0163587Y0022562D01*
X0163236Y0022913D01*
X0164200Y0023876D01*
X0166218Y0023876D01*
X0166866Y0024524D01*
X0167514Y0023876D01*
X0168898Y0023876D01*
X0168898Y0023316D01*
X0168681Y0023316D01*
X0167927Y0022562D01*
X0167927Y0018739D01*
X0168459Y0018207D01*
X0168293Y0018111D01*
X0168014Y0017831D01*
X0167816Y0017489D01*
X0167714Y0017108D01*
X0167714Y0015721D01*
X0170797Y0015721D01*
X0170797Y0015343D01*
X0171175Y0015343D01*
X0171175Y0012654D01*
X0172955Y0012654D01*
X0173336Y0012757D01*
X0173678Y0012954D01*
X0173958Y0013233D01*
X0174155Y0013575D01*
X0174257Y0013957D01*
X0174257Y0015343D01*
X0171175Y0015343D01*
X0171175Y0015721D01*
X0174257Y0015721D01*
X0174257Y0017108D01*
X0174155Y0017489D01*
X0173958Y0017831D01*
X0173678Y0018111D01*
X0173512Y0018207D01*
X0174045Y0018739D01*
X0174045Y0022562D01*
X0173291Y0023316D01*
X0173073Y0023316D01*
X0173073Y0026239D01*
X0172685Y0026628D01*
X0174658Y0028601D01*
X0176676Y0028601D01*
X0177324Y0029249D01*
X0177971Y0028601D01*
X0180067Y0028601D01*
X0181732Y0026935D01*
X0179999Y0025202D01*
X0179999Y0023460D01*
X0179782Y0023460D01*
X0179028Y0022706D01*
X0179028Y0018883D01*
X0179560Y0018351D01*
X0179394Y0018255D01*
X0179115Y0017975D01*
X0178917Y0017633D01*
X0178815Y0017252D01*
X0178815Y0015865D01*
X0181898Y0015865D01*
X0181898Y0015487D01*
X0182276Y0015487D01*
X0182276Y0015865D01*
X0185358Y0015865D01*
X0185358Y0017252D01*
X0185256Y0017633D01*
X0185059Y0017975D01*
X0184779Y0018255D01*
X0184613Y0018351D01*
X0185146Y0018883D01*
X0185146Y0022706D01*
X0184392Y0023460D01*
X0184174Y0023460D01*
X0184174Y0023473D01*
X0184577Y0023876D01*
X0186595Y0023876D01*
X0187243Y0024524D01*
X0187891Y0023876D01*
X0189909Y0023876D01*
X0190604Y0023182D01*
X0190128Y0022706D01*
X0190128Y0018883D01*
X0190661Y0018351D01*
X0190495Y0018255D01*
X0190215Y0017975D01*
X0190018Y0017633D01*
X0189916Y0017252D01*
X0189916Y0015865D01*
X0192998Y0015865D01*
X0192998Y0015487D01*
X0189916Y0015487D01*
X0189916Y0014101D01*
X0190018Y0013719D01*
X0190215Y0013377D01*
X0190495Y0013098D01*
X0190837Y0012901D01*
X0191218Y0012798D01*
X0192998Y0012798D01*
X0192998Y0015487D01*
X0193376Y0015487D01*
X0193376Y0012798D01*
X0195157Y0012798D01*
X0195538Y0012901D01*
X0195880Y0013098D01*
X0196159Y0013377D01*
X0196357Y0013719D01*
X0196459Y0014101D01*
X0196459Y0015487D01*
X0193376Y0015487D01*
X0193376Y0015865D01*
X0196459Y0015865D01*
X0196459Y0017252D01*
X0196357Y0017633D01*
X0196159Y0017975D01*
X0195880Y0018255D01*
X0195714Y0018351D01*
X0196246Y0018883D01*
X0196246Y0022706D01*
X0195492Y0023460D01*
X0195275Y0023460D01*
X0195275Y0024415D01*
X0193652Y0026037D01*
X0196216Y0028601D01*
X0198234Y0028601D01*
X0198882Y0029249D01*
X0199530Y0028601D01*
X0202451Y0028601D01*
X0204116Y0026935D01*
X0201702Y0024521D01*
X0201702Y0023709D01*
X0201484Y0023709D01*
X0200730Y0022955D01*
X0200730Y0019133D01*
X0201263Y0018600D01*
X0201096Y0018504D01*
X0200817Y0018225D01*
X0200620Y0017883D01*
X0200517Y0017501D01*
X0200517Y0016115D01*
X0203600Y0016115D01*
X0203600Y0015737D01*
X0203978Y0015737D01*
X0203978Y0016115D01*
X0207061Y0016115D01*
X0207061Y0017501D01*
X0206958Y0017883D01*
X0206761Y0018225D01*
X0206482Y0018504D01*
X0206315Y0018600D01*
X0206848Y0019133D01*
X0206848Y0022955D01*
X0206444Y0023359D01*
X0206961Y0023876D01*
X0208980Y0023876D01*
X0209628Y0024524D01*
X0210275Y0023876D01*
X0214098Y0023876D01*
X0214852Y0024631D01*
X0214852Y0025397D01*
X0218900Y0025397D01*
X0220123Y0026620D01*
X0226028Y0032525D01*
X0226028Y0064961D01*
X0226655Y0064961D01*
X0227409Y0065715D01*
X0227409Y0071143D01*
X0226655Y0071898D01*
X0221227Y0071898D01*
X0220472Y0071143D01*
X0220472Y0065715D01*
X0221227Y0064961D01*
X0221854Y0064961D01*
X0221854Y0034254D01*
X0217171Y0029572D01*
X0214521Y0029572D01*
X0214098Y0029994D01*
X0210275Y0029994D01*
X0209628Y0029347D01*
X0208980Y0029994D01*
X0206961Y0029994D01*
X0204106Y0032850D01*
X0204106Y0033965D01*
X0203558Y0034513D01*
X0204076Y0035030D01*
X0206094Y0035030D01*
X0206848Y0035784D01*
X0206848Y0039606D01*
X0206200Y0040254D01*
X0206848Y0040902D01*
X0206848Y0044725D01*
X0206372Y0045200D01*
X0207749Y0046577D01*
X0209767Y0046577D01*
X0210415Y0047225D01*
X0211063Y0046577D01*
X0214885Y0046577D01*
X0215639Y0047331D01*
X0215639Y0049350D01*
X0218154Y0051864D01*
X0218154Y0070866D01*
X0218781Y0070866D01*
X0219535Y0071620D01*
X0219535Y0077049D01*
X0218781Y0077803D01*
X0213353Y0077803D01*
X0212598Y0077049D01*
X0212598Y0071620D01*
X0213353Y0070866D01*
X0213980Y0070866D01*
X0213980Y0053594D01*
X0213081Y0052695D01*
X0211063Y0052695D01*
X0210415Y0052047D01*
X0209767Y0052695D01*
X0207749Y0052695D01*
X0205363Y0055081D01*
X0205876Y0055594D01*
X0205876Y0057049D01*
X0206094Y0057049D01*
X0206848Y0057803D01*
X0206848Y0061625D01*
X0206200Y0062273D01*
X0206848Y0062921D01*
X0206848Y0066743D01*
X0206094Y0067498D01*
X0205876Y0067498D01*
X0205876Y0084474D01*
X0207976Y0086573D01*
X0207976Y0090125D01*
X0205464Y0092636D01*
X0201912Y0092636D01*
X0199401Y0090125D01*
X0199401Y0086573D01*
X0201702Y0084272D01*
X0201702Y0067498D01*
X0201484Y0067498D01*
X0200730Y0066743D01*
X0200730Y0062921D01*
X0201378Y0062273D01*
X0200730Y0061625D01*
X0200730Y0057803D01*
X0201455Y0057077D01*
X0201404Y0057026D01*
X0199386Y0057026D01*
X0198738Y0056378D01*
X0198090Y0057026D01*
X0196072Y0057026D01*
X0195574Y0057524D01*
X0195853Y0057803D01*
X0195853Y0061625D01*
X0195205Y0062273D01*
X0195853Y0062921D01*
X0195853Y0066743D01*
X0195099Y0067498D01*
X0194881Y0067498D01*
X0194881Y0084378D01*
X0197076Y0086573D01*
X0197076Y0090125D01*
X0194564Y0092636D01*
X0191012Y0092636D01*
X0188501Y0090125D01*
X0188501Y0086573D01*
X0190706Y0084367D01*
X0190706Y0067498D01*
X0190489Y0067498D01*
X0189735Y0066743D01*
X0189735Y0062921D01*
X0190382Y0062273D01*
X0189735Y0061625D01*
X0189735Y0057803D01*
X0190489Y0057049D01*
X0190706Y0057049D01*
X0190706Y0056487D01*
X0193227Y0053967D01*
X0191811Y0052551D01*
X0188534Y0052551D01*
X0187887Y0051903D01*
X0187239Y0052551D01*
X0185221Y0052551D01*
X0183372Y0054399D01*
X0184030Y0055057D01*
X0184030Y0057049D01*
X0184247Y0057049D01*
X0185002Y0057803D01*
X0185002Y0061625D01*
X0184354Y0062273D01*
X0185002Y0062921D01*
X0185002Y0066743D01*
X0184247Y0067498D01*
X0184030Y0067498D01*
X0184030Y0084427D01*
X0186176Y0086573D01*
X0186176Y0090125D01*
X0183664Y0092636D01*
X0180112Y0092636D01*
X0177601Y0090125D01*
X0177601Y0086573D01*
X0179855Y0084319D01*
X0179855Y0067498D01*
X0179638Y0067498D01*
X0178883Y0066743D01*
X0178883Y0062921D01*
X0179531Y0062273D01*
X0178883Y0061625D01*
X0178883Y0057803D01*
X0179638Y0057049D01*
X0179855Y0057049D01*
X0179855Y0056882D01*
X0177933Y0056882D01*
X0177285Y0056234D01*
X0176637Y0056882D01*
X0174619Y0056882D01*
X0173852Y0057649D01*
X0174006Y0057803D01*
X0174006Y0061625D01*
X0173358Y0062273D01*
X0174006Y0062921D01*
X0174006Y0066743D01*
X0173252Y0067498D01*
X0173035Y0067498D01*
X0173035Y0084332D01*
X0175276Y0086573D01*
X0175276Y0090125D01*
X0172764Y0092636D01*
X0169212Y0092636D01*
X0166701Y0090125D01*
X0166701Y0086573D01*
X0168860Y0084414D01*
X0168860Y0067498D01*
X0168642Y0067498D01*
X0167888Y0066743D01*
X0167888Y0062921D01*
X0168536Y0062273D01*
X0167888Y0061625D01*
X0167888Y0057803D01*
X0168642Y0057049D01*
X0168860Y0057049D01*
X0168860Y0056737D01*
X0171774Y0053823D01*
X0170502Y0052551D01*
X0167475Y0052551D01*
X0166828Y0051903D01*
X0166180Y0052551D01*
X0164161Y0052551D01*
X0161867Y0054846D01*
X0162577Y0055556D01*
X0162577Y0057049D01*
X0162795Y0057049D01*
X0163549Y0057803D01*
X0163549Y0061625D01*
X0162901Y0062273D01*
X0163549Y0062921D01*
X0163549Y0066743D01*
X0162795Y0067498D01*
X0162577Y0067498D01*
X0162577Y0084674D01*
X0164476Y0086573D01*
X0164476Y0090125D01*
X0161964Y0092636D01*
X0158412Y0092636D01*
X0155901Y0090125D01*
X0155901Y0086573D01*
X0158402Y0084071D01*
X0158402Y0067498D01*
X0158185Y0067498D01*
X0157431Y0066743D01*
X0157431Y0062921D01*
X0158079Y0062273D01*
X0157431Y0061625D01*
X0157431Y0057803D01*
X0158175Y0057058D01*
X0157999Y0056882D01*
X0155981Y0056882D01*
X0155333Y0056234D01*
X0154685Y0056882D01*
X0152667Y0056882D01*
X0152097Y0057452D01*
X0152448Y0057803D01*
X0152448Y0061625D01*
X0151800Y0062273D01*
X0152448Y0062921D01*
X0152448Y0066743D01*
X0151694Y0067498D01*
X0151476Y0067498D01*
X0151476Y0084474D01*
X0153576Y0086573D01*
X0153576Y0090125D01*
X0151064Y0092636D01*
X0147512Y0092636D01*
X0145001Y0090125D01*
X0145001Y0086573D01*
X0147302Y0084272D01*
X0147302Y0067498D01*
X0147084Y0067498D01*
X0146330Y0066743D01*
X0146330Y0062921D01*
X0146978Y0062273D01*
X0146330Y0061625D01*
X0146330Y0057803D01*
X0147084Y0057049D01*
X0147302Y0057049D01*
X0147302Y0056343D01*
X0149822Y0053823D01*
X0148550Y0052551D01*
X0145130Y0052551D01*
X0144482Y0051903D01*
X0143834Y0052551D01*
X0141816Y0052551D01*
X0139771Y0054596D01*
X0140731Y0055556D01*
X0140731Y0057049D01*
X0140948Y0057049D01*
X0141702Y0057803D01*
X0141702Y0061625D01*
X0141055Y0062273D01*
X0141702Y0062921D01*
X0141702Y0066743D01*
X0140948Y0067498D01*
X0140731Y0067498D01*
X0140731Y0084628D01*
X0142676Y0086573D01*
X0142676Y0090125D01*
X0140164Y0092636D01*
X0136612Y0092636D01*
X0134101Y0090125D01*
X0134101Y0086573D01*
X0136556Y0084118D01*
X0136556Y0067498D01*
X0136338Y0067498D01*
X0135584Y0066743D01*
X0135584Y0062921D01*
X0136232Y0062273D01*
X0135584Y0061625D01*
X0135584Y0057803D01*
X0136329Y0057058D01*
X0136153Y0056882D01*
X0134134Y0056882D01*
X0133487Y0056234D01*
X0132839Y0056882D01*
X0130821Y0056882D01*
X0130375Y0057327D01*
X0130851Y0057803D01*
X0130851Y0061625D01*
X0130203Y0062273D01*
X0130851Y0062921D01*
X0130851Y0066743D01*
X0130097Y0067498D01*
X0129880Y0067498D01*
X0129880Y0084577D01*
X0131876Y0086573D01*
X0131876Y0090125D01*
X0129364Y0092636D01*
X0125812Y0092636D01*
X0123301Y0090125D01*
X0123301Y0086573D01*
X0125705Y0084169D01*
X0125705Y0067498D01*
X0125487Y0067498D01*
X0124733Y0066743D01*
X0124733Y0062921D01*
X0125381Y0062273D01*
X0124733Y0061625D01*
X0124733Y0057803D01*
X0125487Y0057049D01*
X0125705Y0057049D01*
X0125705Y0056094D01*
X0127976Y0053823D01*
X0126704Y0052551D01*
X0123139Y0052551D01*
X0122491Y0051903D01*
X0121843Y0052551D01*
X0119825Y0052551D01*
X0117852Y0054524D01*
X0118635Y0055306D01*
X0118635Y0057443D01*
X0118852Y0057443D01*
X0119606Y0058197D01*
X0119606Y0062019D01*
X0118958Y0062667D01*
X0119606Y0063315D01*
X0119606Y0067137D01*
X0118852Y0067891D01*
X0118635Y0067891D01*
X0118635Y0084232D01*
X0120976Y0086573D01*
X0120976Y0090125D01*
X0118464Y0092636D01*
X0114912Y0092636D01*
X0112401Y0090125D01*
X0112401Y0086573D01*
X0114460Y0084514D01*
X0114460Y0067891D01*
X0114242Y0067891D01*
X0113488Y0067137D01*
X0113488Y0063315D01*
X0114136Y0062667D01*
X0113488Y0062019D01*
X0113488Y0058197D01*
X0114242Y0057443D01*
X0114460Y0057443D01*
X0114460Y0057276D01*
X0112682Y0057276D01*
X0112034Y0056628D01*
X0111386Y0057276D01*
X0109368Y0057276D01*
X0108601Y0058042D01*
X0108755Y0058197D01*
X0108755Y0062019D01*
X0108107Y0062667D01*
X0108755Y0063315D01*
X0108755Y0067137D01*
X0108001Y0067891D01*
X0107783Y0067891D01*
X0107783Y0084281D01*
X0110076Y0086573D01*
X0110076Y0090125D01*
X0107564Y0092636D01*
X0104012Y0092636D01*
X0101501Y0090125D01*
X0101501Y0086573D01*
X0103609Y0084465D01*
X0103609Y0067891D01*
X0103391Y0067891D01*
X0102637Y0067137D01*
X0102637Y0063315D01*
X0103285Y0062667D01*
X0102637Y0062019D01*
X0102637Y0058197D01*
X0103391Y0057443D01*
X0103609Y0057443D01*
X0103609Y0057131D01*
X0106523Y0054217D01*
X0104857Y0052551D01*
X0101686Y0052551D01*
X0101039Y0051903D01*
X0100391Y0052551D01*
X0098373Y0052551D01*
X0095881Y0055043D01*
X0097182Y0056343D01*
X0097182Y0057443D01*
X0097399Y0057443D01*
X0098154Y0058197D01*
X0098154Y0062019D01*
X0097506Y0062667D01*
X0098154Y0063315D01*
X0098154Y0067137D01*
X0097399Y0067891D01*
X0097182Y0067891D01*
X0097182Y0084479D01*
X0099276Y0086573D01*
X0099276Y0090125D01*
X0096764Y0092636D01*
X0093212Y0092636D01*
X0090701Y0090125D01*
X0090701Y0086573D01*
X0093007Y0084267D01*
X0093007Y0067891D01*
X0092790Y0067891D01*
X0092035Y0067137D01*
X0092035Y0063315D01*
X0092683Y0062667D01*
X0092035Y0062019D01*
X0092035Y0058197D01*
X0092583Y0057649D01*
X0092210Y0057276D01*
X0090192Y0057276D01*
X0089544Y0056628D01*
X0088896Y0057276D01*
X0086878Y0057276D01*
X0086505Y0057649D01*
X0087053Y0058197D01*
X0087053Y0062019D01*
X0086405Y0062667D01*
X0087053Y0063315D01*
X0087053Y0067137D01*
X0086299Y0067891D01*
X0086081Y0067891D01*
X0086081Y0084278D01*
X0088376Y0086573D01*
X0088376Y0090125D01*
X0085864Y0092636D01*
X0082312Y0092636D01*
X0079801Y0090125D01*
X0079801Y0086573D01*
X0081906Y0084467D01*
X0081906Y0067891D01*
X0081689Y0067891D01*
X0080935Y0067137D01*
X0080935Y0063315D01*
X0081582Y0062667D01*
X0080935Y0062019D01*
X0080935Y0058197D01*
X0081689Y0057443D01*
X0081906Y0057443D01*
X0081906Y0056343D01*
X0084033Y0054217D01*
X0082368Y0052551D01*
X0078947Y0052551D01*
X0078299Y0051903D01*
X0077651Y0052551D01*
X0075633Y0052551D01*
X0072778Y0055406D01*
X0072778Y0056521D01*
X0072643Y0056656D01*
X0073429Y0057443D01*
X0075447Y0057443D01*
X0076202Y0058197D01*
X0076202Y0062019D01*
X0075554Y0062667D01*
X0076202Y0063315D01*
X0076202Y0067137D01*
X0075447Y0067891D01*
X0075230Y0067891D01*
X0075230Y0084327D01*
X0077476Y0086573D01*
X0077476Y0090125D01*
X0074964Y0092636D01*
X0071412Y0092636D01*
X0068901Y0090125D01*
X0068901Y0086573D01*
X0071055Y0084419D01*
X0071055Y0067891D01*
X0070838Y0067891D01*
X0070083Y0067137D01*
X0070083Y0063315D01*
X0070731Y0062667D01*
X0070083Y0062019D01*
X0070083Y0060001D01*
X0068025Y0057943D01*
X0068025Y0057099D01*
X0067554Y0056628D01*
X0067367Y0056814D01*
X0067367Y0057483D01*
X0066144Y0058705D01*
X0058905Y0065944D01*
X0058905Y0067127D01*
X0061659Y0064373D01*
X0062992Y0064373D01*
X0062992Y0063746D01*
X0063746Y0062992D01*
X0069175Y0062992D01*
X0069929Y0063746D01*
X0069929Y0069175D01*
X0069175Y0069929D01*
X0063746Y0069929D01*
X0062992Y0069175D01*
X0062992Y0068944D01*
X0056737Y0075199D01*
X0056737Y0148667D01*
X0062601Y0154531D01*
X0066226Y0154531D01*
X0066226Y0153198D01*
X0066008Y0153198D01*
X0065254Y0152443D01*
X0065254Y0148621D01*
X0065902Y0147973D01*
X0065254Y0147325D01*
X0065254Y0143503D01*
X0066008Y0142749D01*
X0066226Y0142749D01*
X0066226Y0136265D01*
X0062446Y0136265D01*
X0061224Y0135042D01*
X0059690Y0133509D01*
X0058468Y0132286D01*
X0058468Y0077407D01*
X0059690Y0076184D01*
X0062992Y0072883D01*
X0062992Y0071620D01*
X0063746Y0070866D01*
X0069175Y0070866D01*
X0069929Y0071620D01*
X0069929Y0077049D01*
X0069175Y0077803D01*
X0063976Y0077803D01*
X0062643Y0079136D01*
X0062643Y0130557D01*
X0064176Y0132090D01*
X0065999Y0132090D01*
X0065832Y0131923D01*
X0065832Y0130739D01*
X0065615Y0130739D01*
X0064861Y0129984D01*
X0064861Y0126162D01*
X0065508Y0125514D01*
X0064861Y0124866D01*
X0064861Y0121044D01*
X0065615Y0120290D01*
X0065701Y0120290D01*
X0065701Y0103525D01*
X0063501Y0101325D01*
X0063501Y0097773D01*
X0066012Y0095261D01*
X0069564Y0095261D01*
X0072076Y0097773D01*
X0072076Y0101325D01*
X0069876Y0103525D01*
X0069876Y0120290D01*
X0070225Y0120290D01*
X0070979Y0121044D01*
X0070979Y0124866D01*
X0070331Y0125514D01*
X0070979Y0126162D01*
X0070979Y0129984D01*
X0070388Y0130575D01*
X0070910Y0131096D01*
X0072928Y0131096D01*
X0073576Y0131744D01*
X0074223Y0131096D01*
X0076242Y0131096D01*
X0076638Y0130700D01*
X0075923Y0129984D01*
X0075923Y0126162D01*
X0076571Y0125514D01*
X0075923Y0124866D01*
X0075923Y0121044D01*
X0076601Y0120366D01*
X0076601Y0103525D01*
X0074401Y0101325D01*
X0074401Y0097773D01*
X0076912Y0095261D01*
X0080464Y0095261D01*
X0082976Y0097773D01*
X0082976Y0101325D01*
X0080776Y0103525D01*
X0080776Y0120290D01*
X0081287Y0120290D01*
X0082041Y0121044D01*
X0082041Y0124866D01*
X0081393Y0125514D01*
X0082041Y0126162D01*
X0082041Y0129984D01*
X0081287Y0130739D01*
X0081069Y0130739D01*
X0081069Y0132173D01*
X0079087Y0134155D01*
X0080752Y0135820D01*
X0083347Y0135820D01*
X0083994Y0136468D01*
X0084642Y0135820D01*
X0087237Y0135820D01*
X0088902Y0134155D01*
X0087313Y0132566D01*
X0087313Y0130739D01*
X0087096Y0130739D01*
X0086342Y0129984D01*
X0086342Y0126162D01*
X0086990Y0125514D01*
X0086342Y0124866D01*
X0086342Y0121044D01*
X0087096Y0120290D01*
X0087401Y0120290D01*
X0087401Y0103525D01*
X0085201Y0101325D01*
X0085201Y0097773D01*
X0087712Y0095261D01*
X0091264Y0095261D01*
X0093776Y0097773D01*
X0093776Y0101325D01*
X0091576Y0103525D01*
X0091576Y0120290D01*
X0091706Y0120290D01*
X0092460Y0121044D01*
X0092460Y0124866D01*
X0091812Y0125514D01*
X0092460Y0126162D01*
X0092460Y0129984D01*
X0091706Y0130739D01*
X0091488Y0130739D01*
X0091488Y0130837D01*
X0091747Y0131096D01*
X0093766Y0131096D01*
X0094413Y0131744D01*
X0095061Y0131096D01*
X0097079Y0131096D01*
X0097702Y0130473D01*
X0097213Y0129984D01*
X0097213Y0126162D01*
X0097861Y0125514D01*
X0097213Y0124866D01*
X0097213Y0121044D01*
X0097968Y0120290D01*
X0098301Y0120290D01*
X0098301Y0103525D01*
X0096101Y0101325D01*
X0096101Y0097773D01*
X0098612Y0095261D01*
X0102164Y0095261D01*
X0104676Y0097773D01*
X0104676Y0101325D01*
X0102476Y0103525D01*
X0102476Y0120290D01*
X0102577Y0120290D01*
X0103331Y0121044D01*
X0103331Y0124866D01*
X0102684Y0125514D01*
X0103331Y0126162D01*
X0103331Y0129984D01*
X0102577Y0130739D01*
X0102360Y0130739D01*
X0102360Y0131720D01*
X0100534Y0133545D01*
X0102810Y0135820D01*
X0104828Y0135820D01*
X0105476Y0136468D01*
X0106123Y0135820D01*
X0109650Y0135820D01*
X0111315Y0134155D01*
X0109332Y0132173D01*
X0109332Y0130680D01*
X0109115Y0130680D01*
X0108361Y0129925D01*
X0108361Y0126103D01*
X0109008Y0125455D01*
X0108361Y0124807D01*
X0108361Y0120985D01*
X0109115Y0120231D01*
X0109201Y0120231D01*
X0109201Y0103525D01*
X0107001Y0101325D01*
X0107001Y0097773D01*
X0109512Y0095261D01*
X0113064Y0095261D01*
X0115576Y0097773D01*
X0115576Y0101325D01*
X0113376Y0103525D01*
X0113376Y0120231D01*
X0113725Y0120231D01*
X0114479Y0120985D01*
X0114479Y0124807D01*
X0113831Y0125455D01*
X0114479Y0126103D01*
X0114479Y0129925D01*
X0113734Y0130670D01*
X0114160Y0131096D01*
X0116178Y0131096D01*
X0116826Y0131744D01*
X0117474Y0131096D01*
X0119492Y0131096D01*
X0119607Y0130981D01*
X0119607Y0130680D01*
X0119390Y0130680D01*
X0118635Y0129925D01*
X0118635Y0126103D01*
X0119283Y0125455D01*
X0118635Y0124807D01*
X0118635Y0120985D01*
X0119390Y0120231D01*
X0120001Y0120231D01*
X0120001Y0103525D01*
X0117801Y0101325D01*
X0117801Y0097773D01*
X0120312Y0095261D01*
X0123864Y0095261D01*
X0126376Y0097773D01*
X0126376Y0101325D01*
X0124176Y0103525D01*
X0124176Y0120407D01*
X0124754Y0120985D01*
X0124754Y0124807D01*
X0124106Y0125455D01*
X0124754Y0126103D01*
X0124754Y0129925D01*
X0123999Y0130680D01*
X0123782Y0130680D01*
X0123782Y0132710D01*
X0122625Y0133867D01*
X0124579Y0135820D01*
X0126597Y0135820D01*
X0127245Y0136468D01*
X0127893Y0135820D01*
X0130737Y0135820D01*
X0132402Y0134155D01*
X0130813Y0132566D01*
X0130813Y0130680D01*
X0130596Y0130680D01*
X0129842Y0129925D01*
X0129842Y0126103D01*
X0130490Y0125455D01*
X0129842Y0124807D01*
X0129842Y0120985D01*
X0130596Y0120231D01*
X0130901Y0120231D01*
X0130901Y0103525D01*
X0128701Y0101325D01*
X0128701Y0097773D01*
X0131212Y0095261D01*
X0134764Y0095261D01*
X0137276Y0097773D01*
X0137276Y0101325D01*
X0135076Y0103525D01*
X0135076Y0120231D01*
X0135206Y0120231D01*
X0135960Y0120985D01*
X0135960Y0124807D01*
X0135312Y0125455D01*
X0135960Y0126103D01*
X0135960Y0129925D01*
X0135206Y0130680D01*
X0134988Y0130680D01*
X0134988Y0130837D01*
X0135247Y0131096D01*
X0137266Y0131096D01*
X0137913Y0131744D01*
X0138561Y0131096D01*
X0140579Y0131096D01*
X0141327Y0130348D01*
X0140904Y0129925D01*
X0140904Y0126103D01*
X0141552Y0125455D01*
X0140904Y0124807D01*
X0140904Y0120985D01*
X0141658Y0120231D01*
X0141801Y0120231D01*
X0141801Y0103525D01*
X0139601Y0101325D01*
X0139601Y0097773D01*
X0142112Y0095261D01*
X0145664Y0095261D01*
X0148176Y0097773D01*
X0148176Y0101325D01*
X0145976Y0103525D01*
X0145976Y0120231D01*
X0146268Y0120231D01*
X0147022Y0120985D01*
X0147022Y0124807D01*
X0146374Y0125455D01*
X0147022Y0126103D01*
X0147022Y0129925D01*
X0146268Y0130680D01*
X0146050Y0130680D01*
X0146050Y0131529D01*
X0144106Y0133473D01*
X0146454Y0135820D01*
X0148472Y0135820D01*
X0149120Y0136468D01*
X0149768Y0135820D01*
X0152612Y0135820D01*
X0154277Y0134155D01*
X0152439Y0132317D01*
X0152439Y0130680D01*
X0152221Y0130680D01*
X0151467Y0129925D01*
X0151467Y0126103D01*
X0152115Y0125455D01*
X0151467Y0124807D01*
X0151467Y0120985D01*
X0152221Y0120231D01*
X0152601Y0120231D01*
X0152601Y0103525D01*
X0150401Y0101325D01*
X0150401Y0097773D01*
X0152912Y0095261D01*
X0156464Y0095261D01*
X0158976Y0097773D01*
X0158976Y0101325D01*
X0156776Y0103525D01*
X0156776Y0120231D01*
X0156831Y0120231D01*
X0157585Y0120985D01*
X0157585Y0124807D01*
X0156937Y0125455D01*
X0157585Y0126103D01*
X0157585Y0129925D01*
X0156831Y0130680D01*
X0156706Y0130680D01*
X0157122Y0131096D01*
X0159140Y0131096D01*
X0159788Y0131744D01*
X0160436Y0131096D01*
X0162454Y0131096D01*
X0163077Y0130473D01*
X0162529Y0129925D01*
X0162529Y0126103D01*
X0163177Y0125455D01*
X0162529Y0124807D01*
X0162529Y0120985D01*
X0163283Y0120231D01*
X0163501Y0120231D01*
X0163501Y0103525D01*
X0161301Y0101325D01*
X0161301Y0097773D01*
X0163812Y0095261D01*
X0167364Y0095261D01*
X0169876Y0097773D01*
X0169876Y0101325D01*
X0167676Y0103525D01*
X0167676Y0120231D01*
X0167893Y0120231D01*
X0168647Y0120985D01*
X0168647Y0124807D01*
X0167999Y0125455D01*
X0168647Y0126103D01*
X0168647Y0129925D01*
X0167893Y0130680D01*
X0167676Y0130680D01*
X0167676Y0131779D01*
X0165856Y0133598D01*
X0168079Y0135820D01*
X0170097Y0135820D01*
X0170745Y0136468D01*
X0171393Y0135820D01*
X0174381Y0135820D01*
X0176046Y0134155D01*
X0174313Y0132422D01*
X0174313Y0130680D01*
X0174096Y0130680D01*
X0173342Y0129925D01*
X0173342Y0126103D01*
X0173990Y0125455D01*
X0173342Y0124807D01*
X0173342Y0120985D01*
X0174096Y0120231D01*
X0174401Y0120231D01*
X0174401Y0103525D01*
X0172201Y0101325D01*
X0172201Y0097773D01*
X0174712Y0095261D01*
X0178264Y0095261D01*
X0180776Y0097773D01*
X0180776Y0101325D01*
X0178576Y0103525D01*
X0178576Y0120231D01*
X0178706Y0120231D01*
X0179460Y0120985D01*
X0179460Y0124807D01*
X0178812Y0125455D01*
X0179460Y0126103D01*
X0179460Y0129925D01*
X0178706Y0130680D01*
X0178488Y0130680D01*
X0178488Y0130693D01*
X0178891Y0131096D01*
X0180910Y0131096D01*
X0181557Y0131744D01*
X0182205Y0131096D01*
X0184224Y0131096D01*
X0184774Y0130545D01*
X0184154Y0129925D01*
X0184154Y0126103D01*
X0184802Y0125455D01*
X0184154Y0124807D01*
X0184154Y0120985D01*
X0184908Y0120231D01*
X0185201Y0120231D01*
X0185201Y0103525D01*
X0183001Y0101325D01*
X0183001Y0097773D01*
X0185512Y0095261D01*
X0189064Y0095261D01*
X0191576Y0097773D01*
X0191576Y0101325D01*
X0189376Y0103525D01*
X0189376Y0120231D01*
X0189518Y0120231D01*
X0190272Y0120985D01*
X0190272Y0124807D01*
X0189625Y0125455D01*
X0190272Y0126103D01*
X0190272Y0129925D01*
X0189518Y0130680D01*
X0189301Y0130680D01*
X0189301Y0131923D01*
X0187678Y0133545D01*
X0189954Y0135820D01*
X0191972Y0135820D01*
X0192620Y0136468D01*
X0193268Y0135820D01*
X0196256Y0135820D01*
X0197921Y0134155D01*
X0195794Y0132028D01*
X0195794Y0130680D01*
X0195577Y0130680D01*
X0194823Y0129925D01*
X0194823Y0126103D01*
X0195471Y0125455D01*
X0194823Y0124807D01*
X0194823Y0120985D01*
X0195577Y0120231D01*
X0196101Y0120231D01*
X0196101Y0103525D01*
X0193901Y0101325D01*
X0193901Y0097773D01*
X0196412Y0095261D01*
X0199964Y0095261D01*
X0202476Y0097773D01*
X0202476Y0101325D01*
X0200276Y0103525D01*
X0200276Y0120320D01*
X0200941Y0120985D01*
X0200941Y0124807D01*
X0200293Y0125455D01*
X0200941Y0126103D01*
X0200941Y0129925D01*
X0200268Y0130598D01*
X0200766Y0131096D01*
X0202784Y0131096D01*
X0203432Y0131744D01*
X0204080Y0131096D01*
X0206098Y0131096D01*
X0206649Y0130545D01*
X0206029Y0129925D01*
X0206029Y0126103D01*
X0206677Y0125455D01*
X0206029Y0124807D01*
X0206029Y0120985D01*
X0206783Y0120231D01*
X0207001Y0120231D01*
X0207001Y0103525D01*
X0204801Y0101325D01*
X0204801Y0097773D01*
X0207312Y0095261D01*
X0210864Y0095261D01*
X0213376Y0097773D01*
X0213376Y0101325D01*
X0211176Y0103525D01*
X0211176Y0120231D01*
X0211393Y0120231D01*
X0212147Y0120985D01*
X0212147Y0124807D01*
X0211499Y0125455D01*
X0212147Y0126103D01*
X0212147Y0129925D01*
X0211393Y0130680D01*
X0211176Y0130680D01*
X0211176Y0131923D01*
X0209356Y0133742D01*
X0211435Y0135820D01*
X0213453Y0135820D01*
X0214101Y0136468D01*
X0214749Y0135820D01*
X0218131Y0135820D01*
X0219796Y0134155D01*
X0217813Y0132173D01*
X0217813Y0130680D01*
X0217596Y0130680D01*
X0216842Y0129925D01*
X0216842Y0126103D01*
X0217490Y0125455D01*
X0216842Y0124807D01*
X0216842Y0120985D01*
X0217596Y0120231D01*
X0217901Y0120231D01*
X0217901Y0103525D01*
X0215701Y0101325D01*
X0215701Y0097773D01*
X0218212Y0095261D01*
X0221764Y0095261D01*
X0224276Y0097773D01*
X0224276Y0101325D01*
X0222076Y0103525D01*
X0222076Y0120231D01*
X0222206Y0120231D01*
X0222960Y0120985D01*
X0222960Y0124807D01*
X0222312Y0125455D01*
X0222960Y0126103D01*
X0222960Y0129925D01*
X0222215Y0130670D01*
X0222641Y0131096D01*
X0224659Y0131096D01*
X0225307Y0131744D01*
X0225955Y0131096D01*
X0227973Y0131096D01*
X0228524Y0130545D01*
X0227904Y0129925D01*
X0227904Y0126103D01*
X0228552Y0125455D01*
X0227904Y0124807D01*
X0227904Y0120985D01*
X0228658Y0120231D01*
X0228701Y0120231D01*
X0228701Y0103525D01*
X0226501Y0101325D01*
X0226501Y0097773D01*
X0229012Y0095261D01*
X0232564Y0095261D01*
X0235076Y0097773D01*
X0235076Y0101325D01*
X0232876Y0103525D01*
X0232876Y0120231D01*
X0233268Y0120231D01*
X0234022Y0120985D01*
X0234022Y0124807D01*
X0233374Y0125455D01*
X0234022Y0126103D01*
X0234022Y0129925D01*
X0233268Y0130680D01*
X0233050Y0130680D01*
X0233050Y0131923D01*
X0231231Y0133742D01*
X0233310Y0135820D01*
X0235328Y0135820D01*
X0235976Y0136468D01*
X0236623Y0135820D01*
X0239612Y0135820D01*
X0241277Y0134155D01*
X0239439Y0132317D01*
X0239439Y0130680D01*
X0239221Y0130680D01*
X0238467Y0129925D01*
X0238467Y0126103D01*
X0239115Y0125455D01*
X0238467Y0124807D01*
X0238467Y0120985D01*
X0239221Y0120231D01*
X0239601Y0120231D01*
X0239601Y0103525D01*
X0237401Y0101325D01*
X0237401Y0097773D01*
X0239912Y0095261D01*
X0243464Y0095261D01*
X0245976Y0097773D01*
X0245976Y0101325D01*
X0243776Y0103525D01*
X0243776Y0120231D01*
X0243831Y0120231D01*
X0244585Y0120985D01*
X0244585Y0124807D01*
X0243937Y0125455D01*
X0244585Y0126103D01*
X0244585Y0129925D01*
X0243831Y0130680D01*
X0243706Y0130680D01*
X0244122Y0131096D01*
X0246140Y0131096D01*
X0246788Y0131744D01*
X0247436Y0131096D01*
X0249454Y0131096D01*
X0250077Y0130473D01*
X0249529Y0129925D01*
X0249529Y0126103D01*
X0250177Y0125455D01*
X0249529Y0124807D01*
X0249529Y0120985D01*
X0250283Y0120231D01*
X0250501Y0120231D01*
X0250501Y0103525D01*
X0248301Y0101325D01*
X0248301Y0097773D01*
X0250812Y0095261D01*
X0254364Y0095261D01*
X0256876Y0097773D01*
X0256876Y0101325D01*
X0254676Y0103525D01*
X0254676Y0120231D01*
X0254893Y0120231D01*
X0255647Y0120985D01*
X0255647Y0124807D01*
X0254999Y0125455D01*
X0255647Y0126103D01*
X0255647Y0129925D01*
X0254893Y0130680D01*
X0254676Y0130680D01*
X0254676Y0131779D01*
X0252856Y0133598D01*
X0255079Y0135820D01*
X0257097Y0135820D01*
X0257745Y0136468D01*
X0258393Y0135820D01*
X0260411Y0135820D01*
X0261313Y0134918D01*
X0261313Y0130680D01*
X0261096Y0130680D01*
X0260342Y0129925D01*
X0260342Y0126103D01*
X0260990Y0125455D01*
X0260342Y0124807D01*
X0260342Y0120985D01*
X0261096Y0120231D01*
X0261301Y0120231D01*
X0261301Y0103525D01*
X0259101Y0101325D01*
X0259101Y0097773D01*
X0261612Y0095261D01*
X0265164Y0095261D01*
X0267676Y0097773D01*
X0267676Y0101325D01*
X0265476Y0103525D01*
X0265476Y0120231D01*
X0265706Y0120231D01*
X0266460Y0120985D01*
X0266460Y0124807D01*
X0265812Y0125455D01*
X0266460Y0126103D01*
X0266460Y0129925D01*
X0265706Y0130680D01*
X0265488Y0130680D01*
X0265488Y0135347D01*
X0269098Y0131738D01*
X0269098Y0121110D01*
X0268471Y0121110D01*
X0267717Y0120356D01*
X0267717Y0114927D01*
X0268471Y0114173D01*
X0273899Y0114173D01*
X0274016Y0114290D01*
X0274016Y0110990D01*
X0274770Y0110236D01*
X0280199Y0110236D01*
X0280953Y0110990D01*
X0280953Y0116419D01*
X0280199Y0117173D01*
X0279572Y0117173D01*
X0279572Y0152758D01*
X0270123Y0162207D01*
X0268900Y0163430D01*
X0264501Y0163430D01*
X0265239Y0164168D01*
X0265239Y0165411D01*
X0265456Y0165411D01*
X0266210Y0166165D01*
X0266210Y0169988D01*
X0265678Y0170520D01*
X0265844Y0170616D01*
X0266123Y0170896D01*
X0266321Y0171238D01*
X0266423Y0171619D01*
X0266423Y0173005D01*
X0263340Y0173005D01*
X0263340Y0173383D01*
X0266423Y0173383D01*
X0266423Y0174770D01*
X0266321Y0175151D01*
X0266423Y0174299D02*
X0314961Y0174299D01*
X0314961Y0173300D02*
X0263340Y0173300D01*
X0262962Y0173300D02*
X0252777Y0173300D01*
X0252399Y0173300D02*
X0241715Y0173300D01*
X0241337Y0173300D02*
X0231152Y0173300D01*
X0230774Y0173300D02*
X0220484Y0173300D01*
X0220105Y0173300D02*
X0209671Y0173300D01*
X0209293Y0173300D02*
X0197677Y0173300D01*
X0197299Y0173300D02*
X0187402Y0173300D01*
X0187024Y0173300D02*
X0176590Y0173300D01*
X0176212Y0173300D02*
X0166315Y0173300D01*
X0165937Y0173300D02*
X0154715Y0173300D01*
X0154337Y0173300D02*
X0144152Y0173300D01*
X0143774Y0173300D02*
X0136172Y0173300D01*
X0136172Y0172990D02*
X0136172Y0174376D01*
X0136070Y0174758D01*
X0135873Y0175100D01*
X0135593Y0175379D01*
X0135251Y0175577D01*
X0134870Y0175679D01*
X0133090Y0175679D01*
X0133090Y0172990D01*
X0136172Y0172990D01*
X0136172Y0172302D02*
X0140691Y0172302D01*
X0140776Y0171303D02*
X0136172Y0171303D01*
X0135676Y0170305D02*
X0141221Y0170305D01*
X0140904Y0169306D02*
X0135960Y0169306D01*
X0135960Y0168308D02*
X0140904Y0168308D01*
X0140904Y0167309D02*
X0135960Y0167309D01*
X0135960Y0166311D02*
X0140904Y0166311D01*
X0141876Y0165312D02*
X0135501Y0165312D01*
X0134988Y0164314D02*
X0141876Y0164314D01*
X0141876Y0163315D02*
X0134529Y0163315D01*
X0133531Y0162317D02*
X0142690Y0162317D01*
X0143529Y0161318D02*
X0133517Y0161318D01*
X0134516Y0160320D02*
X0142531Y0160320D01*
X0138006Y0159321D02*
X0137533Y0159321D01*
X0130301Y0165312D02*
X0124294Y0165312D01*
X0124754Y0166311D02*
X0129842Y0166311D01*
X0129842Y0167309D02*
X0124754Y0167309D01*
X0124754Y0168308D02*
X0129842Y0168308D01*
X0129842Y0169306D02*
X0124754Y0169306D01*
X0124469Y0170305D02*
X0130126Y0170305D01*
X0129629Y0171303D02*
X0124966Y0171303D01*
X0124966Y0172302D02*
X0129629Y0172302D01*
X0129629Y0173300D02*
X0124966Y0173300D01*
X0124966Y0174299D02*
X0129629Y0174299D01*
X0130126Y0175297D02*
X0124469Y0175297D01*
X0121883Y0175297D02*
X0121505Y0175297D01*
X0121505Y0175679D02*
X0119725Y0175679D01*
X0119344Y0175577D01*
X0119002Y0175379D01*
X0118723Y0175100D01*
X0118525Y0174758D01*
X0118423Y0174376D01*
X0118423Y0172990D01*
X0121505Y0172990D01*
X0121505Y0175679D01*
X0121505Y0174299D02*
X0121883Y0174299D01*
X0121883Y0173300D02*
X0121505Y0173300D01*
X0118423Y0173300D02*
X0114691Y0173300D01*
X0114691Y0172302D02*
X0118423Y0172302D01*
X0118423Y0171303D02*
X0114691Y0171303D01*
X0114195Y0170305D02*
X0118920Y0170305D01*
X0118635Y0169306D02*
X0114479Y0169306D01*
X0114479Y0168308D02*
X0118635Y0168308D01*
X0118635Y0167309D02*
X0114479Y0167309D01*
X0114479Y0166311D02*
X0118635Y0166311D01*
X0119095Y0165312D02*
X0114019Y0165312D01*
X0113507Y0164314D02*
X0119607Y0164314D01*
X0119672Y0163315D02*
X0112904Y0163315D01*
X0111906Y0162317D02*
X0120671Y0162317D01*
X0121510Y0161318D02*
X0112430Y0161318D01*
X0113428Y0160320D02*
X0120512Y0160320D01*
X0116919Y0159321D02*
X0116445Y0159321D01*
X0108820Y0165312D02*
X0102957Y0165312D01*
X0103272Y0166311D02*
X0108361Y0166311D01*
X0108361Y0167309D02*
X0103272Y0167309D01*
X0103272Y0168308D02*
X0108361Y0168308D01*
X0108361Y0169306D02*
X0103272Y0169306D01*
X0103132Y0170305D02*
X0108645Y0170305D01*
X0108148Y0171303D02*
X0103485Y0171303D01*
X0103485Y0172302D02*
X0108148Y0172302D01*
X0108148Y0173300D02*
X0103485Y0173300D01*
X0103485Y0172846D02*
X0103485Y0174232D01*
X0103383Y0174614D01*
X0103185Y0174956D01*
X0102906Y0175235D01*
X0102564Y0175432D01*
X0102183Y0175535D01*
X0100402Y0175535D01*
X0100402Y0172846D01*
X0103485Y0172846D01*
X0103467Y0174299D02*
X0108148Y0174299D01*
X0108645Y0175297D02*
X0102798Y0175297D01*
X0100402Y0175297D02*
X0100024Y0175297D01*
X0100024Y0175535D02*
X0098244Y0175535D01*
X0097863Y0175432D01*
X0097521Y0175235D01*
X0097241Y0174956D01*
X0097044Y0174614D01*
X0096942Y0174232D01*
X0096942Y0172846D01*
X0100024Y0172846D01*
X0100024Y0175535D01*
X0100024Y0174299D02*
X0100402Y0174299D01*
X0100402Y0173300D02*
X0100024Y0173300D01*
X0096942Y0173300D02*
X0092672Y0173300D01*
X0092672Y0172990D02*
X0092672Y0174376D01*
X0092570Y0174758D01*
X0092373Y0175100D01*
X0092093Y0175379D01*
X0091751Y0175577D01*
X0091370Y0175679D01*
X0089590Y0175679D01*
X0089590Y0172990D01*
X0092672Y0172990D01*
X0092672Y0172302D02*
X0096942Y0172302D01*
X0096942Y0171303D02*
X0092672Y0171303D01*
X0092176Y0170305D02*
X0097294Y0170305D01*
X0097154Y0169306D02*
X0092460Y0169306D01*
X0092460Y0168308D02*
X0097154Y0168308D01*
X0097154Y0167309D02*
X0092460Y0167309D01*
X0092460Y0166311D02*
X0097154Y0166311D01*
X0097470Y0165312D02*
X0092001Y0165312D01*
X0091488Y0164314D02*
X0098126Y0164314D01*
X0098126Y0163315D02*
X0091423Y0163315D01*
X0090425Y0162317D02*
X0099045Y0162317D01*
X0099885Y0161318D02*
X0090161Y0161318D01*
X0091160Y0160320D02*
X0098886Y0160320D01*
X0094650Y0159321D02*
X0094177Y0159321D01*
X0086801Y0165312D02*
X0081726Y0165312D01*
X0082041Y0166311D02*
X0086342Y0166311D01*
X0086342Y0167309D02*
X0082041Y0167309D01*
X0082041Y0168308D02*
X0086342Y0168308D01*
X0086342Y0169306D02*
X0082041Y0169306D01*
X0081901Y0170305D02*
X0086626Y0170305D01*
X0086129Y0171303D02*
X0082254Y0171303D01*
X0082254Y0172302D02*
X0086129Y0172302D01*
X0086129Y0173300D02*
X0082254Y0173300D01*
X0082254Y0172846D02*
X0082254Y0174232D01*
X0082151Y0174614D01*
X0081954Y0174956D01*
X0081675Y0175235D01*
X0081333Y0175432D01*
X0080951Y0175535D01*
X0079171Y0175535D01*
X0079171Y0172846D01*
X0082254Y0172846D01*
X0082236Y0174299D02*
X0086129Y0174299D01*
X0086626Y0175297D02*
X0081567Y0175297D01*
X0079171Y0175297D02*
X0078793Y0175297D01*
X0078793Y0174299D02*
X0079171Y0174299D01*
X0079171Y0173300D02*
X0078793Y0173300D01*
X0075710Y0173300D02*
X0071297Y0173300D01*
X0071297Y0172990D02*
X0071297Y0174376D01*
X0071195Y0174758D01*
X0070997Y0175100D01*
X0070718Y0175379D01*
X0070376Y0175577D01*
X0069994Y0175679D01*
X0068214Y0175679D01*
X0068214Y0172990D01*
X0071297Y0172990D01*
X0071297Y0172302D02*
X0075710Y0172302D01*
X0075710Y0171303D02*
X0071297Y0171303D01*
X0070800Y0170305D02*
X0076063Y0170305D01*
X0075923Y0169306D02*
X0071084Y0169306D01*
X0071084Y0168308D02*
X0075923Y0168308D01*
X0075923Y0167309D02*
X0071084Y0167309D01*
X0071084Y0166311D02*
X0075923Y0166311D01*
X0076238Y0165312D02*
X0070625Y0165312D01*
X0070113Y0164314D02*
X0076894Y0164314D01*
X0076894Y0163315D02*
X0070113Y0163315D01*
X0070113Y0162317D02*
X0077564Y0162317D01*
X0078404Y0161318D02*
X0070113Y0161318D01*
X0070113Y0160320D02*
X0077405Y0160320D01*
X0073419Y0159321D02*
X0072945Y0159321D01*
X0065938Y0159321D02*
X0018748Y0159321D01*
X0018748Y0158323D02*
X0060489Y0158323D01*
X0059490Y0157324D02*
X0018748Y0157324D01*
X0018748Y0156326D02*
X0058492Y0156326D01*
X0057493Y0155327D02*
X0018748Y0155327D01*
X0018748Y0154329D02*
X0056495Y0154329D01*
X0055496Y0153330D02*
X0018748Y0153330D01*
X0018748Y0152332D02*
X0054498Y0152332D01*
X0053499Y0151333D02*
X0018748Y0151333D01*
X0018748Y0150335D02*
X0052562Y0150335D01*
X0052562Y0149336D02*
X0018748Y0149336D01*
X0018748Y0148337D02*
X0052562Y0148337D01*
X0052562Y0147339D02*
X0018748Y0147339D01*
X0018748Y0146340D02*
X0052562Y0146340D01*
X0052562Y0145342D02*
X0018748Y0145342D01*
X0018748Y0144343D02*
X0052562Y0144343D01*
X0052562Y0143345D02*
X0018748Y0143345D01*
X0018748Y0142346D02*
X0052562Y0142346D01*
X0052562Y0141348D02*
X0018748Y0141348D01*
X0018748Y0140349D02*
X0052562Y0140349D01*
X0052562Y0139351D02*
X0018748Y0139351D01*
X0018748Y0138352D02*
X0052562Y0138352D01*
X0052562Y0137354D02*
X0018748Y0137354D01*
X0018748Y0136355D02*
X0052562Y0136355D01*
X0052562Y0135357D02*
X0018748Y0135357D01*
X0018748Y0134358D02*
X0052562Y0134358D01*
X0052562Y0133360D02*
X0018748Y0133360D01*
X0018748Y0132361D02*
X0052562Y0132361D01*
X0052562Y0131363D02*
X0018748Y0131363D01*
X0018748Y0130364D02*
X0052562Y0130364D01*
X0052562Y0129366D02*
X0018748Y0129366D01*
X0018748Y0128367D02*
X0052562Y0128367D01*
X0052562Y0127369D02*
X0018748Y0127369D01*
X0018748Y0126370D02*
X0052562Y0126370D01*
X0052562Y0125372D02*
X0018748Y0125372D01*
X0018748Y0124373D02*
X0052562Y0124373D01*
X0052562Y0123375D02*
X0018748Y0123375D01*
X0018748Y0122376D02*
X0052562Y0122376D01*
X0052562Y0121378D02*
X0018748Y0121378D01*
X0018748Y0120379D02*
X0052562Y0120379D01*
X0052562Y0119381D02*
X0018748Y0119381D01*
X0018748Y0118382D02*
X0052562Y0118382D01*
X0052562Y0117384D02*
X0018748Y0117384D01*
X0018748Y0116385D02*
X0052562Y0116385D01*
X0052562Y0115387D02*
X0018748Y0115387D01*
X0018748Y0114388D02*
X0052562Y0114388D01*
X0052562Y0113390D02*
X0018748Y0113390D01*
X0018748Y0112391D02*
X0052562Y0112391D01*
X0052562Y0111393D02*
X0018748Y0111393D01*
X0018748Y0110394D02*
X0052562Y0110394D01*
X0052562Y0109396D02*
X0018748Y0109396D01*
X0018748Y0108397D02*
X0052562Y0108397D01*
X0052562Y0107399D02*
X0018748Y0107399D01*
X0018748Y0106400D02*
X0052562Y0106400D01*
X0052562Y0105402D02*
X0041654Y0105402D01*
X0041234Y0105449D02*
X0041088Y0105449D01*
X0041088Y0094449D01*
X0040088Y0094449D01*
X0040088Y0105449D01*
X0039942Y0105449D01*
X0038659Y0105304D01*
X0037400Y0105017D01*
X0036180Y0104590D01*
X0035017Y0104030D01*
X0033923Y0103343D01*
X0032913Y0102537D01*
X0032000Y0101624D01*
X0031194Y0100614D01*
X0030507Y0099520D01*
X0029947Y0098357D01*
X0029520Y0097137D01*
X0029233Y0095878D01*
X0029088Y0094595D01*
X0029088Y0094449D01*
X0040088Y0094449D01*
X0040088Y0093449D01*
X0029088Y0093449D01*
X0029088Y0093303D01*
X0029233Y0092019D01*
X0029520Y0090760D01*
X0029947Y0089541D01*
X0030507Y0088377D01*
X0031194Y0087284D01*
X0032000Y0086274D01*
X0032913Y0085360D01*
X0033923Y0084555D01*
X0035017Y0083868D01*
X0036180Y0083307D01*
X0037400Y0082881D01*
X0038659Y0082593D01*
X0039942Y0082449D01*
X0040088Y0082449D01*
X0040088Y0093449D01*
X0041088Y0093449D01*
X0041088Y0082449D01*
X0041234Y0082449D01*
X0042518Y0082593D01*
X0043777Y0082881D01*
X0044996Y0083307D01*
X0046160Y0083868D01*
X0047253Y0084555D01*
X0048263Y0085360D01*
X0049177Y0086274D01*
X0049982Y0087284D01*
X0050669Y0088377D01*
X0051230Y0089541D01*
X0051656Y0090760D01*
X0051944Y0092019D01*
X0052088Y0093303D01*
X0052088Y0093449D01*
X0041088Y0093449D01*
X0041088Y0094449D01*
X0052088Y0094449D01*
X0052088Y0094595D01*
X0051944Y0095878D01*
X0051656Y0097137D01*
X0051230Y0098357D01*
X0050669Y0099520D01*
X0049982Y0100614D01*
X0049177Y0101624D01*
X0048263Y0102537D01*
X0047253Y0103343D01*
X0046160Y0104030D01*
X0044996Y0104590D01*
X0043777Y0105017D01*
X0042518Y0105304D01*
X0041234Y0105449D01*
X0041088Y0105402D02*
X0040088Y0105402D01*
X0039523Y0105402D02*
X0018748Y0105402D01*
X0018748Y0104403D02*
X0035792Y0104403D01*
X0034022Y0103404D02*
X0018748Y0103404D01*
X0018748Y0102406D02*
X0032782Y0102406D01*
X0031827Y0101407D02*
X0018748Y0101407D01*
X0018748Y0100409D02*
X0031066Y0100409D01*
X0030454Y0099410D02*
X0018748Y0099410D01*
X0018748Y0098412D02*
X0029973Y0098412D01*
X0029617Y0097413D02*
X0018748Y0097413D01*
X0018748Y0096415D02*
X0029355Y0096415D01*
X0029181Y0095416D02*
X0018748Y0095416D01*
X0018748Y0094418D02*
X0040088Y0094418D01*
X0040088Y0095416D02*
X0041088Y0095416D01*
X0041088Y0094418D02*
X0052562Y0094418D01*
X0052562Y0095416D02*
X0051996Y0095416D01*
X0051821Y0096415D02*
X0052562Y0096415D01*
X0052562Y0097413D02*
X0051560Y0097413D01*
X0051203Y0098412D02*
X0052562Y0098412D01*
X0052562Y0099410D02*
X0050722Y0099410D01*
X0050111Y0100409D02*
X0052562Y0100409D01*
X0052562Y0101407D02*
X0049349Y0101407D01*
X0048394Y0102406D02*
X0052562Y0102406D01*
X0052562Y0103404D02*
X0047155Y0103404D01*
X0045385Y0104403D02*
X0052562Y0104403D01*
X0056737Y0104403D02*
X0058468Y0104403D01*
X0058468Y0105402D02*
X0056737Y0105402D01*
X0056737Y0106400D02*
X0058468Y0106400D01*
X0058468Y0107399D02*
X0056737Y0107399D01*
X0056737Y0108397D02*
X0058468Y0108397D01*
X0058468Y0109396D02*
X0056737Y0109396D01*
X0056737Y0110394D02*
X0058468Y0110394D01*
X0058468Y0111393D02*
X0056737Y0111393D01*
X0056737Y0112391D02*
X0058468Y0112391D01*
X0058468Y0113390D02*
X0056737Y0113390D01*
X0056737Y0114388D02*
X0058468Y0114388D01*
X0058468Y0115387D02*
X0056737Y0115387D01*
X0056737Y0116385D02*
X0058468Y0116385D01*
X0058468Y0117384D02*
X0056737Y0117384D01*
X0056737Y0118382D02*
X0058468Y0118382D01*
X0058468Y0119381D02*
X0056737Y0119381D01*
X0056737Y0120379D02*
X0058468Y0120379D01*
X0058468Y0121378D02*
X0056737Y0121378D01*
X0056737Y0122376D02*
X0058468Y0122376D01*
X0058468Y0123375D02*
X0056737Y0123375D01*
X0056737Y0124373D02*
X0058468Y0124373D01*
X0058468Y0125372D02*
X0056737Y0125372D01*
X0056737Y0126370D02*
X0058468Y0126370D01*
X0058468Y0127369D02*
X0056737Y0127369D01*
X0056737Y0128367D02*
X0058468Y0128367D01*
X0058468Y0129366D02*
X0056737Y0129366D01*
X0056737Y0130364D02*
X0058468Y0130364D01*
X0058468Y0131363D02*
X0056737Y0131363D01*
X0056737Y0132361D02*
X0058543Y0132361D01*
X0059542Y0133360D02*
X0056737Y0133360D01*
X0056737Y0134358D02*
X0060540Y0134358D01*
X0061224Y0135042D02*
X0061224Y0135042D01*
X0061539Y0135357D02*
X0056737Y0135357D01*
X0056737Y0136355D02*
X0066226Y0136355D01*
X0066226Y0137354D02*
X0056737Y0137354D01*
X0056737Y0138352D02*
X0066226Y0138352D01*
X0066226Y0139351D02*
X0056737Y0139351D01*
X0056737Y0140349D02*
X0066226Y0140349D01*
X0066226Y0141348D02*
X0056737Y0141348D01*
X0056737Y0142346D02*
X0066226Y0142346D01*
X0065412Y0143345D02*
X0056737Y0143345D01*
X0056737Y0144343D02*
X0065254Y0144343D01*
X0065254Y0145342D02*
X0056737Y0145342D01*
X0056737Y0146340D02*
X0065254Y0146340D01*
X0065268Y0147339D02*
X0056737Y0147339D01*
X0056737Y0148337D02*
X0065538Y0148337D01*
X0065254Y0149336D02*
X0057406Y0149336D01*
X0058405Y0150335D02*
X0065254Y0150335D01*
X0065254Y0151333D02*
X0059403Y0151333D01*
X0060402Y0152332D02*
X0065254Y0152332D01*
X0066226Y0153330D02*
X0061400Y0153330D01*
X0062399Y0154329D02*
X0066226Y0154329D01*
X0065938Y0160320D02*
X0018748Y0160320D01*
X0018748Y0161318D02*
X0065938Y0161318D01*
X0065938Y0162317D02*
X0018748Y0162317D01*
X0018748Y0163315D02*
X0065938Y0163315D01*
X0065938Y0164314D02*
X0018748Y0164314D01*
X0018748Y0165312D02*
X0065425Y0165312D01*
X0064966Y0166311D02*
X0018748Y0166311D01*
X0018748Y0167309D02*
X0064966Y0167309D01*
X0064966Y0168308D02*
X0018748Y0168308D01*
X0018748Y0169306D02*
X0064966Y0169306D01*
X0065250Y0170305D02*
X0018748Y0170305D01*
X0018748Y0171303D02*
X0064754Y0171303D01*
X0064754Y0172302D02*
X0018748Y0172302D01*
X0018748Y0173300D02*
X0064754Y0173300D01*
X0064754Y0174299D02*
X0018748Y0174299D01*
X0018748Y0175297D02*
X0065251Y0175297D01*
X0067836Y0175297D02*
X0068214Y0175297D01*
X0068214Y0174299D02*
X0067836Y0174299D01*
X0067836Y0173300D02*
X0068214Y0173300D01*
X0071297Y0174299D02*
X0075728Y0174299D01*
X0076397Y0175297D02*
X0070800Y0175297D01*
X0089212Y0175297D02*
X0089590Y0175297D01*
X0089590Y0174299D02*
X0089212Y0174299D01*
X0089212Y0173300D02*
X0089590Y0173300D01*
X0092672Y0174299D02*
X0096960Y0174299D01*
X0097629Y0175297D02*
X0092175Y0175297D01*
X0084499Y0164314D02*
X0083490Y0164314D01*
X0104971Y0164314D02*
X0105980Y0164314D01*
X0111231Y0173300D02*
X0111609Y0173300D01*
X0111609Y0174299D02*
X0111231Y0174299D01*
X0111231Y0175297D02*
X0111609Y0175297D01*
X0114194Y0175297D02*
X0118920Y0175297D01*
X0118423Y0174299D02*
X0114691Y0174299D01*
X0126596Y0164314D02*
X0127606Y0164314D01*
X0132712Y0173300D02*
X0133090Y0173300D01*
X0133090Y0174299D02*
X0132712Y0174299D01*
X0132712Y0175297D02*
X0133090Y0175297D01*
X0135675Y0175297D02*
X0140878Y0175297D01*
X0140691Y0174299D02*
X0136172Y0174299D01*
X0143774Y0174299D02*
X0144152Y0174299D01*
X0144152Y0175297D02*
X0143774Y0175297D01*
X0147048Y0175297D02*
X0151441Y0175297D01*
X0151254Y0174299D02*
X0147235Y0174299D01*
X0147235Y0172302D02*
X0151254Y0172302D01*
X0151339Y0171303D02*
X0147150Y0171303D01*
X0146705Y0170305D02*
X0151784Y0170305D01*
X0151467Y0169306D02*
X0147022Y0169306D01*
X0147022Y0168308D02*
X0151467Y0168308D01*
X0151467Y0167309D02*
X0147022Y0167309D01*
X0147022Y0166311D02*
X0151467Y0166311D01*
X0152439Y0165312D02*
X0146050Y0165312D01*
X0148615Y0164314D02*
X0149625Y0164314D01*
X0155550Y0162317D02*
X0164171Y0162317D01*
X0164039Y0163315D02*
X0156548Y0163315D01*
X0156613Y0164314D02*
X0164039Y0164314D01*
X0164039Y0165312D02*
X0156613Y0165312D01*
X0157585Y0166311D02*
X0163067Y0166311D01*
X0163067Y0167309D02*
X0157585Y0167309D01*
X0157585Y0168308D02*
X0163067Y0168308D01*
X0163067Y0169306D02*
X0157585Y0169306D01*
X0157268Y0170305D02*
X0163384Y0170305D01*
X0162939Y0171303D02*
X0157713Y0171303D01*
X0157798Y0172302D02*
X0162854Y0172302D01*
X0162854Y0174299D02*
X0157798Y0174299D01*
X0157611Y0175297D02*
X0163041Y0175297D01*
X0165937Y0175297D02*
X0166315Y0175297D01*
X0166315Y0174299D02*
X0165937Y0174299D01*
X0169211Y0175297D02*
X0173316Y0175297D01*
X0173129Y0174299D02*
X0169398Y0174299D01*
X0169398Y0172302D02*
X0173129Y0172302D01*
X0173214Y0171303D02*
X0169313Y0171303D01*
X0168868Y0170305D02*
X0173659Y0170305D01*
X0173342Y0169306D02*
X0169185Y0169306D01*
X0169185Y0168308D02*
X0173342Y0168308D01*
X0173342Y0167309D02*
X0169185Y0167309D01*
X0169185Y0166311D02*
X0173342Y0166311D01*
X0174122Y0165312D02*
X0168213Y0165312D01*
X0170096Y0164314D02*
X0171106Y0164314D01*
X0177031Y0162317D02*
X0186045Y0162317D01*
X0186885Y0161318D02*
X0177161Y0161318D01*
X0178160Y0160320D02*
X0185886Y0160320D01*
X0185126Y0163315D02*
X0178029Y0163315D01*
X0178488Y0164314D02*
X0185126Y0164314D01*
X0185126Y0165312D02*
X0178488Y0165312D01*
X0179460Y0166311D02*
X0184154Y0166311D01*
X0184154Y0167309D02*
X0179460Y0167309D01*
X0179460Y0168308D02*
X0184154Y0168308D01*
X0184154Y0169306D02*
X0179460Y0169306D01*
X0179143Y0170305D02*
X0184471Y0170305D01*
X0184026Y0171303D02*
X0179588Y0171303D01*
X0179672Y0172302D02*
X0183942Y0172302D01*
X0183942Y0174299D02*
X0179672Y0174299D01*
X0179486Y0175297D02*
X0184128Y0175297D01*
X0187024Y0175297D02*
X0187402Y0175297D01*
X0187402Y0174299D02*
X0187024Y0174299D01*
X0190299Y0175297D02*
X0194403Y0175297D01*
X0194217Y0174299D02*
X0190485Y0174299D01*
X0190485Y0172302D02*
X0194217Y0172302D01*
X0194301Y0171303D02*
X0190400Y0171303D01*
X0189955Y0170305D02*
X0194746Y0170305D01*
X0194429Y0169306D02*
X0190272Y0169306D01*
X0190272Y0168308D02*
X0194429Y0168308D01*
X0194429Y0167309D02*
X0190272Y0167309D01*
X0190272Y0166311D02*
X0194429Y0166311D01*
X0195401Y0165312D02*
X0189301Y0165312D01*
X0191971Y0164314D02*
X0192980Y0164314D01*
X0198906Y0162317D02*
X0207671Y0162317D01*
X0207394Y0163315D02*
X0199576Y0163315D01*
X0199576Y0164314D02*
X0207394Y0164314D01*
X0207394Y0165312D02*
X0199576Y0165312D01*
X0200547Y0166311D02*
X0206423Y0166311D01*
X0206423Y0167309D02*
X0200547Y0167309D01*
X0200547Y0168308D02*
X0206423Y0168308D01*
X0206423Y0169306D02*
X0200547Y0169306D01*
X0200230Y0170305D02*
X0206740Y0170305D01*
X0206295Y0171303D02*
X0200675Y0171303D01*
X0200760Y0172302D02*
X0206210Y0172302D01*
X0206210Y0174299D02*
X0200760Y0174299D01*
X0200573Y0175297D02*
X0206397Y0175297D01*
X0209293Y0175297D02*
X0209671Y0175297D01*
X0209671Y0174299D02*
X0209293Y0174299D01*
X0212567Y0175297D02*
X0217209Y0175297D01*
X0217023Y0174299D02*
X0212754Y0174299D01*
X0212754Y0172302D02*
X0217023Y0172302D01*
X0217107Y0171303D02*
X0212669Y0171303D01*
X0212224Y0170305D02*
X0217553Y0170305D01*
X0217235Y0169306D02*
X0212541Y0169306D01*
X0212541Y0168308D02*
X0217235Y0168308D01*
X0217235Y0167309D02*
X0212541Y0167309D01*
X0212541Y0166311D02*
X0217235Y0166311D01*
X0217622Y0165312D02*
X0211569Y0165312D01*
X0213596Y0164314D02*
X0214606Y0164314D01*
X0220531Y0162317D02*
X0229545Y0162317D01*
X0228876Y0163315D02*
X0221529Y0163315D01*
X0222382Y0164314D02*
X0228876Y0164314D01*
X0228876Y0165312D02*
X0222382Y0165312D01*
X0223354Y0166311D02*
X0227904Y0166311D01*
X0227904Y0167309D02*
X0223354Y0167309D01*
X0223354Y0168308D02*
X0227904Y0168308D01*
X0227904Y0169306D02*
X0223354Y0169306D01*
X0223036Y0170305D02*
X0228221Y0170305D01*
X0227776Y0171303D02*
X0223481Y0171303D01*
X0223566Y0172302D02*
X0227691Y0172302D01*
X0227691Y0174299D02*
X0223566Y0174299D01*
X0223380Y0175297D02*
X0227878Y0175297D01*
X0230774Y0175297D02*
X0231152Y0175297D01*
X0231152Y0174299D02*
X0230774Y0174299D01*
X0234048Y0175297D02*
X0238441Y0175297D01*
X0238254Y0174299D02*
X0234235Y0174299D01*
X0234235Y0172302D02*
X0238254Y0172302D01*
X0238339Y0171303D02*
X0234150Y0171303D01*
X0233705Y0170305D02*
X0238784Y0170305D01*
X0238467Y0169306D02*
X0234022Y0169306D01*
X0234022Y0168308D02*
X0238467Y0168308D01*
X0238467Y0167309D02*
X0234022Y0167309D01*
X0234022Y0166311D02*
X0238467Y0166311D01*
X0239439Y0165312D02*
X0233050Y0165312D01*
X0235471Y0164314D02*
X0236480Y0164314D01*
X0242406Y0162317D02*
X0250527Y0162317D01*
X0250501Y0163315D02*
X0243404Y0163315D01*
X0243613Y0164314D02*
X0250501Y0164314D01*
X0250501Y0165312D02*
X0243613Y0165312D01*
X0244585Y0166311D02*
X0249529Y0166311D01*
X0249529Y0167309D02*
X0244585Y0167309D01*
X0244585Y0168308D02*
X0249529Y0168308D01*
X0249529Y0169306D02*
X0244585Y0169306D01*
X0244268Y0170305D02*
X0249846Y0170305D01*
X0249401Y0171303D02*
X0244713Y0171303D01*
X0244798Y0172302D02*
X0249317Y0172302D01*
X0249317Y0174299D02*
X0244798Y0174299D01*
X0244611Y0175297D02*
X0249503Y0175297D01*
X0252399Y0175297D02*
X0252777Y0175297D01*
X0252777Y0174299D02*
X0252399Y0174299D01*
X0255673Y0175297D02*
X0260066Y0175297D01*
X0259880Y0174299D02*
X0255860Y0174299D01*
X0255860Y0172302D02*
X0259880Y0172302D01*
X0259964Y0171303D02*
X0255775Y0171303D01*
X0255330Y0170305D02*
X0260409Y0170305D01*
X0260092Y0169306D02*
X0255647Y0169306D01*
X0255647Y0168308D02*
X0260092Y0168308D01*
X0260092Y0167309D02*
X0255647Y0167309D01*
X0255647Y0166311D02*
X0260092Y0166311D01*
X0260479Y0165312D02*
X0254676Y0165312D01*
X0256453Y0164314D02*
X0257462Y0164314D01*
X0251367Y0161318D02*
X0242536Y0161318D01*
X0243535Y0160320D02*
X0250368Y0160320D01*
X0247025Y0159321D02*
X0246552Y0159321D01*
X0230385Y0161318D02*
X0221055Y0161318D01*
X0222054Y0160320D02*
X0229387Y0160320D01*
X0225544Y0159321D02*
X0225070Y0159321D01*
X0208510Y0161318D02*
X0199180Y0161318D01*
X0200179Y0160320D02*
X0207512Y0160320D01*
X0203669Y0159321D02*
X0203196Y0159321D01*
X0181650Y0159321D02*
X0181177Y0159321D01*
X0165010Y0161318D02*
X0155536Y0161318D01*
X0156535Y0160320D02*
X0164012Y0160320D01*
X0160025Y0159321D02*
X0159552Y0159321D01*
X0154715Y0174299D02*
X0154337Y0174299D01*
X0154337Y0175297D02*
X0154715Y0175297D01*
X0176212Y0175297D02*
X0176590Y0175297D01*
X0176590Y0174299D02*
X0176212Y0174299D01*
X0197299Y0174299D02*
X0197677Y0174299D01*
X0197677Y0175297D02*
X0197299Y0175297D01*
X0220105Y0175297D02*
X0220483Y0175297D01*
X0220483Y0174299D02*
X0220105Y0174299D01*
X0241337Y0174299D02*
X0241715Y0174299D01*
X0241715Y0175297D02*
X0241337Y0175297D01*
X0262962Y0175297D02*
X0263340Y0175297D01*
X0263340Y0174299D02*
X0262962Y0174299D01*
X0266423Y0172302D02*
X0314961Y0172302D01*
X0314961Y0171303D02*
X0266338Y0171303D01*
X0265893Y0170305D02*
X0314961Y0170305D01*
X0314961Y0169306D02*
X0266210Y0169306D01*
X0266210Y0168308D02*
X0314961Y0168308D01*
X0314961Y0167309D02*
X0266210Y0167309D01*
X0266210Y0166311D02*
X0314961Y0166311D01*
X0314961Y0165312D02*
X0265239Y0165312D01*
X0265239Y0164314D02*
X0314961Y0164314D01*
X0314961Y0163315D02*
X0269015Y0163315D01*
X0270013Y0162317D02*
X0314961Y0162317D01*
X0314961Y0161318D02*
X0271012Y0161318D01*
X0272010Y0160320D02*
X0314961Y0160320D01*
X0314961Y0159321D02*
X0273009Y0159321D01*
X0274007Y0158323D02*
X0314961Y0158323D01*
X0314961Y0157324D02*
X0275006Y0157324D01*
X0276004Y0156326D02*
X0314961Y0156326D01*
X0314961Y0155327D02*
X0277003Y0155327D01*
X0278001Y0154329D02*
X0314961Y0154329D01*
X0314961Y0153330D02*
X0279000Y0153330D01*
X0279572Y0152332D02*
X0314961Y0152332D01*
X0314961Y0151333D02*
X0279572Y0151333D01*
X0279572Y0150335D02*
X0314961Y0150335D01*
X0314961Y0149336D02*
X0279572Y0149336D01*
X0279572Y0148337D02*
X0314961Y0148337D01*
X0314961Y0147339D02*
X0279572Y0147339D01*
X0279572Y0146340D02*
X0314961Y0146340D01*
X0314961Y0145342D02*
X0279572Y0145342D01*
X0279572Y0144343D02*
X0314961Y0144343D01*
X0314961Y0143345D02*
X0279572Y0143345D01*
X0279572Y0142346D02*
X0314961Y0142346D01*
X0314961Y0141348D02*
X0279572Y0141348D01*
X0279572Y0140349D02*
X0314961Y0140349D01*
X0314961Y0139351D02*
X0279572Y0139351D01*
X0279572Y0138352D02*
X0314961Y0138352D01*
X0314961Y0137354D02*
X0279572Y0137354D01*
X0279572Y0136355D02*
X0314961Y0136355D01*
X0314961Y0135357D02*
X0279572Y0135357D01*
X0279572Y0134358D02*
X0314961Y0134358D01*
X0314961Y0133360D02*
X0279572Y0133360D01*
X0279572Y0132361D02*
X0314961Y0132361D01*
X0314961Y0131363D02*
X0279572Y0131363D01*
X0279572Y0130364D02*
X0314961Y0130364D01*
X0314961Y0129366D02*
X0279572Y0129366D01*
X0279572Y0128367D02*
X0314961Y0128367D01*
X0314961Y0127369D02*
X0279572Y0127369D01*
X0279572Y0126370D02*
X0314961Y0126370D01*
X0314961Y0125372D02*
X0279572Y0125372D01*
X0279572Y0124373D02*
X0314961Y0124373D01*
X0314961Y0123375D02*
X0279572Y0123375D01*
X0279572Y0122376D02*
X0314961Y0122376D01*
X0314961Y0121378D02*
X0279572Y0121378D01*
X0279572Y0120379D02*
X0314961Y0120379D01*
X0314961Y0119381D02*
X0279572Y0119381D01*
X0279572Y0118382D02*
X0314961Y0118382D01*
X0314961Y0117384D02*
X0279572Y0117384D01*
X0280953Y0116385D02*
X0314961Y0116385D01*
X0314961Y0115387D02*
X0280953Y0115387D01*
X0280953Y0114388D02*
X0314961Y0114388D01*
X0314961Y0113390D02*
X0280953Y0113390D01*
X0280953Y0112391D02*
X0314961Y0112391D01*
X0314961Y0111393D02*
X0280953Y0111393D01*
X0280356Y0110394D02*
X0314961Y0110394D01*
X0314961Y0109396D02*
X0265476Y0109396D01*
X0265476Y0110394D02*
X0274612Y0110394D01*
X0274016Y0111393D02*
X0265476Y0111393D01*
X0265476Y0112391D02*
X0274016Y0112391D01*
X0274016Y0113390D02*
X0265476Y0113390D01*
X0265476Y0114388D02*
X0268256Y0114388D01*
X0267717Y0115387D02*
X0265476Y0115387D01*
X0265476Y0116385D02*
X0267717Y0116385D01*
X0267717Y0117384D02*
X0265476Y0117384D01*
X0265476Y0118382D02*
X0267717Y0118382D01*
X0267717Y0119381D02*
X0265476Y0119381D01*
X0265854Y0120379D02*
X0267740Y0120379D01*
X0266460Y0121378D02*
X0269098Y0121378D01*
X0269098Y0122376D02*
X0266460Y0122376D01*
X0266460Y0123375D02*
X0269098Y0123375D01*
X0269098Y0124373D02*
X0266460Y0124373D01*
X0265895Y0125372D02*
X0269098Y0125372D01*
X0269098Y0126370D02*
X0266460Y0126370D01*
X0266460Y0127369D02*
X0269098Y0127369D01*
X0269098Y0128367D02*
X0266460Y0128367D01*
X0266460Y0129366D02*
X0269098Y0129366D01*
X0269098Y0130364D02*
X0266021Y0130364D01*
X0265488Y0131363D02*
X0269098Y0131363D01*
X0268474Y0132361D02*
X0265488Y0132361D01*
X0265488Y0133360D02*
X0267476Y0133360D01*
X0266477Y0134358D02*
X0265488Y0134358D01*
X0261313Y0134358D02*
X0253617Y0134358D01*
X0253095Y0133360D02*
X0261313Y0133360D01*
X0261313Y0132361D02*
X0254093Y0132361D01*
X0254676Y0131363D02*
X0261313Y0131363D01*
X0260781Y0130364D02*
X0255208Y0130364D01*
X0255647Y0129366D02*
X0260342Y0129366D01*
X0260342Y0128367D02*
X0255647Y0128367D01*
X0255647Y0127369D02*
X0260342Y0127369D01*
X0260342Y0126370D02*
X0255647Y0126370D01*
X0255083Y0125372D02*
X0260906Y0125372D01*
X0260342Y0124373D02*
X0255647Y0124373D01*
X0255647Y0123375D02*
X0260342Y0123375D01*
X0260342Y0122376D02*
X0255647Y0122376D01*
X0255647Y0121378D02*
X0260342Y0121378D01*
X0260947Y0120379D02*
X0255042Y0120379D01*
X0254676Y0119381D02*
X0261301Y0119381D01*
X0261301Y0118382D02*
X0254676Y0118382D01*
X0254676Y0117384D02*
X0261301Y0117384D01*
X0261301Y0116385D02*
X0254676Y0116385D01*
X0254676Y0115387D02*
X0261301Y0115387D01*
X0261301Y0114388D02*
X0254676Y0114388D01*
X0254676Y0113390D02*
X0261301Y0113390D01*
X0261301Y0112391D02*
X0254676Y0112391D01*
X0254676Y0111393D02*
X0261301Y0111393D01*
X0261301Y0110394D02*
X0254676Y0110394D01*
X0254676Y0109396D02*
X0261301Y0109396D01*
X0261301Y0108397D02*
X0254676Y0108397D01*
X0254676Y0107399D02*
X0261301Y0107399D01*
X0261301Y0106400D02*
X0254676Y0106400D01*
X0254676Y0105402D02*
X0261301Y0105402D01*
X0261301Y0104403D02*
X0254676Y0104403D01*
X0254796Y0103404D02*
X0261181Y0103404D01*
X0260182Y0102406D02*
X0255794Y0102406D01*
X0256793Y0101407D02*
X0259184Y0101407D01*
X0259101Y0100409D02*
X0256876Y0100409D01*
X0256876Y0099410D02*
X0259101Y0099410D01*
X0259101Y0098412D02*
X0256876Y0098412D01*
X0256516Y0097413D02*
X0259460Y0097413D01*
X0260459Y0096415D02*
X0255518Y0096415D01*
X0254519Y0095416D02*
X0261457Y0095416D01*
X0259764Y0092636D02*
X0256212Y0092636D01*
X0253701Y0090125D01*
X0253701Y0086573D01*
X0256212Y0084061D01*
X0259764Y0084061D01*
X0262276Y0086573D01*
X0262276Y0090125D01*
X0259764Y0092636D01*
X0259979Y0092421D02*
X0279188Y0092421D01*
X0279233Y0092019D02*
X0279088Y0093303D01*
X0279088Y0093449D01*
X0290088Y0093449D01*
X0290088Y0094449D01*
X0290088Y0105449D01*
X0289942Y0105449D01*
X0288659Y0105304D01*
X0287400Y0105017D01*
X0286180Y0104590D01*
X0285017Y0104030D01*
X0283923Y0103343D01*
X0282913Y0102537D01*
X0282000Y0101624D01*
X0281194Y0100614D01*
X0280507Y0099520D01*
X0279947Y0098357D01*
X0279520Y0097137D01*
X0279233Y0095878D01*
X0279088Y0094595D01*
X0279088Y0094449D01*
X0290088Y0094449D01*
X0291088Y0094449D01*
X0291088Y0105449D01*
X0291234Y0105449D01*
X0292518Y0105304D01*
X0293777Y0105017D01*
X0294996Y0104590D01*
X0296160Y0104030D01*
X0297253Y0103343D01*
X0298263Y0102537D01*
X0299177Y0101624D01*
X0299982Y0100614D01*
X0300669Y0099520D01*
X0301230Y0098357D01*
X0301656Y0097137D01*
X0301944Y0095878D01*
X0302088Y0094595D01*
X0302088Y0094449D01*
X0291088Y0094449D01*
X0291088Y0093449D01*
X0291088Y0082449D01*
X0291234Y0082449D01*
X0292518Y0082593D01*
X0293777Y0082881D01*
X0294996Y0083307D01*
X0296160Y0083868D01*
X0297253Y0084555D01*
X0298263Y0085360D01*
X0299177Y0086274D01*
X0299982Y0087284D01*
X0300669Y0088377D01*
X0301230Y0089541D01*
X0301656Y0090760D01*
X0301944Y0092019D01*
X0302088Y0093303D01*
X0302088Y0093449D01*
X0291088Y0093449D01*
X0290088Y0093449D01*
X0290088Y0082449D01*
X0289942Y0082449D01*
X0288659Y0082593D01*
X0287400Y0082881D01*
X0286180Y0083307D01*
X0285017Y0083868D01*
X0283923Y0084555D01*
X0282913Y0085360D01*
X0282000Y0086274D01*
X0281194Y0087284D01*
X0280507Y0088377D01*
X0279947Y0089541D01*
X0279520Y0090760D01*
X0279233Y0092019D01*
X0279369Y0091422D02*
X0260978Y0091422D01*
X0261976Y0090424D02*
X0279638Y0090424D01*
X0280003Y0089425D02*
X0262276Y0089425D01*
X0262276Y0088427D02*
X0280483Y0088427D01*
X0281104Y0087428D02*
X0262276Y0087428D01*
X0262132Y0086430D02*
X0281875Y0086430D01*
X0282842Y0085431D02*
X0261134Y0085431D01*
X0260135Y0084433D02*
X0284118Y0084433D01*
X0285917Y0083434D02*
X0205876Y0083434D01*
X0205876Y0082436D02*
X0314961Y0082436D01*
X0314961Y0083434D02*
X0295259Y0083434D01*
X0297059Y0084433D02*
X0314961Y0084433D01*
X0314961Y0085431D02*
X0298334Y0085431D01*
X0299301Y0086430D02*
X0314961Y0086430D01*
X0314961Y0087428D02*
X0300073Y0087428D01*
X0300693Y0088427D02*
X0314961Y0088427D01*
X0314961Y0089425D02*
X0301174Y0089425D01*
X0301538Y0090424D02*
X0314961Y0090424D01*
X0314961Y0091422D02*
X0301807Y0091422D01*
X0301989Y0092421D02*
X0314961Y0092421D01*
X0314961Y0093419D02*
X0302088Y0093419D01*
X0301996Y0095416D02*
X0314961Y0095416D01*
X0314961Y0094418D02*
X0291088Y0094418D01*
X0291088Y0095416D02*
X0290088Y0095416D01*
X0290088Y0094418D02*
X0062643Y0094418D01*
X0062643Y0095416D02*
X0065857Y0095416D01*
X0064859Y0096415D02*
X0062643Y0096415D01*
X0062643Y0097413D02*
X0063860Y0097413D01*
X0063501Y0098412D02*
X0062643Y0098412D01*
X0062643Y0099410D02*
X0063501Y0099410D01*
X0063501Y0100409D02*
X0062643Y0100409D01*
X0062643Y0101407D02*
X0063584Y0101407D01*
X0062643Y0102406D02*
X0064582Y0102406D01*
X0065581Y0103404D02*
X0062643Y0103404D01*
X0062643Y0104403D02*
X0065701Y0104403D01*
X0065701Y0105402D02*
X0062643Y0105402D01*
X0062643Y0106400D02*
X0065701Y0106400D01*
X0065701Y0107399D02*
X0062643Y0107399D01*
X0062643Y0108397D02*
X0065701Y0108397D01*
X0065701Y0109396D02*
X0062643Y0109396D01*
X0062643Y0110394D02*
X0065701Y0110394D01*
X0065701Y0111393D02*
X0062643Y0111393D01*
X0062643Y0112391D02*
X0065701Y0112391D01*
X0065701Y0113390D02*
X0062643Y0113390D01*
X0062643Y0114388D02*
X0065701Y0114388D01*
X0065701Y0115387D02*
X0062643Y0115387D01*
X0062643Y0116385D02*
X0065701Y0116385D01*
X0065701Y0117384D02*
X0062643Y0117384D01*
X0062643Y0118382D02*
X0065701Y0118382D01*
X0065701Y0119381D02*
X0062643Y0119381D01*
X0062643Y0120379D02*
X0065525Y0120379D01*
X0064861Y0121378D02*
X0062643Y0121378D01*
X0062643Y0122376D02*
X0064861Y0122376D01*
X0064861Y0123375D02*
X0062643Y0123375D01*
X0062643Y0124373D02*
X0064861Y0124373D01*
X0065366Y0125372D02*
X0062643Y0125372D01*
X0062643Y0126370D02*
X0064861Y0126370D01*
X0064861Y0127369D02*
X0062643Y0127369D01*
X0062643Y0128367D02*
X0064861Y0128367D01*
X0064861Y0129366D02*
X0062643Y0129366D01*
X0062643Y0130364D02*
X0065240Y0130364D01*
X0065832Y0131363D02*
X0063449Y0131363D01*
X0059690Y0133509D02*
X0059690Y0133509D01*
X0070599Y0130364D02*
X0076303Y0130364D01*
X0075923Y0129366D02*
X0070979Y0129366D01*
X0070979Y0128367D02*
X0075923Y0128367D01*
X0075923Y0127369D02*
X0070979Y0127369D01*
X0070979Y0126370D02*
X0075923Y0126370D01*
X0076428Y0125372D02*
X0070473Y0125372D01*
X0070979Y0124373D02*
X0075923Y0124373D01*
X0075923Y0123375D02*
X0070979Y0123375D01*
X0070979Y0122376D02*
X0075923Y0122376D01*
X0075923Y0121378D02*
X0070979Y0121378D01*
X0070314Y0120379D02*
X0076588Y0120379D01*
X0076601Y0119381D02*
X0069876Y0119381D01*
X0069876Y0118382D02*
X0076601Y0118382D01*
X0076601Y0117384D02*
X0069876Y0117384D01*
X0069876Y0116385D02*
X0076601Y0116385D01*
X0076601Y0115387D02*
X0069876Y0115387D01*
X0069876Y0114388D02*
X0076601Y0114388D01*
X0076601Y0113390D02*
X0069876Y0113390D01*
X0069876Y0112391D02*
X0076601Y0112391D01*
X0076601Y0111393D02*
X0069876Y0111393D01*
X0069876Y0110394D02*
X0076601Y0110394D01*
X0076601Y0109396D02*
X0069876Y0109396D01*
X0069876Y0108397D02*
X0076601Y0108397D01*
X0076601Y0107399D02*
X0069876Y0107399D01*
X0069876Y0106400D02*
X0076601Y0106400D01*
X0076601Y0105402D02*
X0069876Y0105402D01*
X0069876Y0104403D02*
X0076601Y0104403D01*
X0076481Y0103404D02*
X0069996Y0103404D01*
X0070994Y0102406D02*
X0075482Y0102406D01*
X0074484Y0101407D02*
X0071993Y0101407D01*
X0072076Y0100409D02*
X0074401Y0100409D01*
X0074401Y0099410D02*
X0072076Y0099410D01*
X0072076Y0098412D02*
X0074401Y0098412D01*
X0074760Y0097413D02*
X0071716Y0097413D01*
X0070718Y0096415D02*
X0075759Y0096415D01*
X0076757Y0095416D02*
X0069719Y0095416D01*
X0071197Y0092421D02*
X0062643Y0092421D01*
X0062643Y0093419D02*
X0279088Y0093419D01*
X0279181Y0095416D02*
X0265319Y0095416D01*
X0266318Y0096415D02*
X0279355Y0096415D01*
X0279617Y0097413D02*
X0267316Y0097413D01*
X0267676Y0098412D02*
X0279973Y0098412D01*
X0280454Y0099410D02*
X0267676Y0099410D01*
X0267676Y0100409D02*
X0281066Y0100409D01*
X0281827Y0101407D02*
X0267593Y0101407D01*
X0266594Y0102406D02*
X0282782Y0102406D01*
X0284022Y0103404D02*
X0265596Y0103404D01*
X0265476Y0104403D02*
X0285792Y0104403D01*
X0289523Y0105402D02*
X0265476Y0105402D01*
X0265476Y0106400D02*
X0314961Y0106400D01*
X0314961Y0105402D02*
X0291654Y0105402D01*
X0291088Y0105402D02*
X0290088Y0105402D01*
X0290088Y0104403D02*
X0291088Y0104403D01*
X0291088Y0103404D02*
X0290088Y0103404D01*
X0290088Y0102406D02*
X0291088Y0102406D01*
X0291088Y0101407D02*
X0290088Y0101407D01*
X0290088Y0100409D02*
X0291088Y0100409D01*
X0291088Y0099410D02*
X0290088Y0099410D01*
X0290088Y0098412D02*
X0291088Y0098412D01*
X0291088Y0097413D02*
X0290088Y0097413D01*
X0290088Y0096415D02*
X0291088Y0096415D01*
X0291088Y0093419D02*
X0290088Y0093419D01*
X0290088Y0092421D02*
X0291088Y0092421D01*
X0291088Y0091422D02*
X0290088Y0091422D01*
X0290088Y0090424D02*
X0291088Y0090424D01*
X0291088Y0089425D02*
X0290088Y0089425D01*
X0290088Y0088427D02*
X0291088Y0088427D01*
X0291088Y0087428D02*
X0290088Y0087428D01*
X0290088Y0086430D02*
X0291088Y0086430D01*
X0291088Y0085431D02*
X0290088Y0085431D01*
X0290088Y0084433D02*
X0291088Y0084433D01*
X0291088Y0083434D02*
X0290088Y0083434D01*
X0275835Y0073112D02*
X0275080Y0073866D01*
X0269652Y0073866D01*
X0268898Y0073112D01*
X0268898Y0067683D01*
X0269652Y0066929D01*
X0269885Y0066929D01*
X0269885Y0036617D01*
X0265163Y0031894D01*
X0260245Y0031894D01*
X0260103Y0032236D01*
X0258897Y0033442D01*
X0257321Y0034094D01*
X0249616Y0034094D01*
X0248040Y0033442D01*
X0246834Y0032236D01*
X0246181Y0030660D01*
X0246181Y0028954D01*
X0246834Y0027378D01*
X0248040Y0026172D01*
X0249616Y0025520D01*
X0257321Y0025520D01*
X0258897Y0026172D01*
X0260103Y0027378D01*
X0260245Y0027720D01*
X0266892Y0027720D01*
X0268115Y0028942D01*
X0274060Y0034887D01*
X0274060Y0066929D01*
X0275080Y0066929D01*
X0275835Y0067683D01*
X0275835Y0073112D01*
X0275497Y0073449D02*
X0314961Y0073449D01*
X0314961Y0072451D02*
X0275835Y0072451D01*
X0275835Y0071452D02*
X0314961Y0071452D01*
X0314961Y0070454D02*
X0275835Y0070454D01*
X0275835Y0069455D02*
X0314961Y0069455D01*
X0314961Y0068457D02*
X0275835Y0068457D01*
X0275609Y0067458D02*
X0314961Y0067458D01*
X0314961Y0066460D02*
X0274060Y0066460D01*
X0274060Y0065461D02*
X0314961Y0065461D01*
X0314961Y0064463D02*
X0274060Y0064463D01*
X0274060Y0063464D02*
X0314961Y0063464D01*
X0314961Y0062466D02*
X0274060Y0062466D01*
X0274060Y0061467D02*
X0314961Y0061467D01*
X0314961Y0060468D02*
X0274060Y0060468D01*
X0274060Y0059470D02*
X0314961Y0059470D01*
X0314961Y0058471D02*
X0274060Y0058471D01*
X0274060Y0057473D02*
X0314961Y0057473D01*
X0314961Y0056474D02*
X0274060Y0056474D01*
X0274060Y0055476D02*
X0314961Y0055476D01*
X0314961Y0054477D02*
X0274060Y0054477D01*
X0274060Y0053479D02*
X0314961Y0053479D01*
X0314961Y0052480D02*
X0274060Y0052480D01*
X0274060Y0051482D02*
X0314961Y0051482D01*
X0314961Y0050483D02*
X0274060Y0050483D01*
X0274060Y0049485D02*
X0314961Y0049485D01*
X0314961Y0048486D02*
X0274060Y0048486D01*
X0274060Y0047488D02*
X0314961Y0047488D01*
X0314961Y0046489D02*
X0274060Y0046489D01*
X0274060Y0045491D02*
X0314961Y0045491D01*
X0314961Y0044492D02*
X0274060Y0044492D01*
X0274060Y0043494D02*
X0314961Y0043494D01*
X0314961Y0042495D02*
X0274060Y0042495D01*
X0274060Y0041497D02*
X0314961Y0041497D01*
X0314961Y0040498D02*
X0274060Y0040498D01*
X0274060Y0039500D02*
X0314961Y0039500D01*
X0314961Y0038501D02*
X0274060Y0038501D01*
X0274060Y0037503D02*
X0314961Y0037503D01*
X0314961Y0036504D02*
X0274060Y0036504D01*
X0274060Y0035506D02*
X0314961Y0035506D01*
X0314961Y0034507D02*
X0273680Y0034507D01*
X0272681Y0033509D02*
X0314961Y0033509D01*
X0314961Y0032510D02*
X0271683Y0032510D01*
X0270684Y0031512D02*
X0314961Y0031512D01*
X0314961Y0030513D02*
X0269686Y0030513D01*
X0268687Y0029515D02*
X0314961Y0029515D01*
X0314961Y0028516D02*
X0267689Y0028516D01*
X0265779Y0032510D02*
X0259829Y0032510D01*
X0258736Y0033509D02*
X0266777Y0033509D01*
X0267776Y0034507D02*
X0226028Y0034507D01*
X0226028Y0033509D02*
X0248201Y0033509D01*
X0247108Y0032510D02*
X0226013Y0032510D01*
X0225015Y0031512D02*
X0246534Y0031512D01*
X0246181Y0030513D02*
X0224016Y0030513D01*
X0223018Y0029515D02*
X0246181Y0029515D01*
X0246363Y0028516D02*
X0222019Y0028516D01*
X0221021Y0027518D02*
X0246776Y0027518D01*
X0247693Y0026519D02*
X0220022Y0026519D01*
X0219024Y0025521D02*
X0249613Y0025521D01*
X0257324Y0025521D02*
X0314961Y0025521D01*
X0314961Y0026519D02*
X0259244Y0026519D01*
X0260161Y0027518D02*
X0314961Y0027518D01*
X0314961Y0024522D02*
X0214744Y0024522D01*
X0209630Y0024522D02*
X0209625Y0024522D01*
X0206609Y0023524D02*
X0314961Y0023524D01*
X0314961Y0022525D02*
X0307648Y0022525D01*
X0307321Y0022851D02*
X0305957Y0022851D01*
X0305957Y0018851D01*
X0304957Y0018851D01*
X0304957Y0017851D01*
X0300957Y0017851D01*
X0300957Y0016487D01*
X0303594Y0013851D01*
X0304957Y0013851D01*
X0304957Y0017851D01*
X0305957Y0017851D01*
X0305957Y0013851D01*
X0307321Y0013851D01*
X0309957Y0016487D01*
X0309957Y0017851D01*
X0305958Y0017851D01*
X0305958Y0018851D01*
X0309957Y0018851D01*
X0309957Y0020215D01*
X0307321Y0022851D01*
X0305957Y0022525D02*
X0304957Y0022525D01*
X0304957Y0022851D02*
X0304957Y0018851D01*
X0300957Y0018851D01*
X0300957Y0020215D01*
X0303594Y0022851D01*
X0304957Y0022851D01*
X0304957Y0021527D02*
X0305957Y0021527D01*
X0305957Y0020528D02*
X0304957Y0020528D01*
X0304957Y0019530D02*
X0305957Y0019530D01*
X0305958Y0018531D02*
X0314961Y0018531D01*
X0314961Y0017533D02*
X0309957Y0017533D01*
X0309957Y0016534D02*
X0314961Y0016534D01*
X0314961Y0015535D02*
X0309006Y0015535D01*
X0308007Y0014537D02*
X0314961Y0014537D01*
X0314961Y0013538D02*
X0206672Y0013538D01*
X0206761Y0013627D02*
X0206958Y0013969D01*
X0207061Y0014351D01*
X0207061Y0015737D01*
X0203978Y0015737D01*
X0203978Y0013048D01*
X0205758Y0013048D01*
X0206140Y0013150D01*
X0206482Y0013348D01*
X0206761Y0013627D01*
X0207061Y0014537D02*
X0302908Y0014537D01*
X0301909Y0015535D02*
X0207061Y0015535D01*
X0207061Y0016534D02*
X0300957Y0016534D01*
X0300957Y0017533D02*
X0207052Y0017533D01*
X0206435Y0018531D02*
X0304957Y0018531D01*
X0304957Y0017533D02*
X0305957Y0017533D01*
X0305957Y0016534D02*
X0304957Y0016534D01*
X0304957Y0015535D02*
X0305957Y0015535D01*
X0305957Y0014537D02*
X0304957Y0014537D01*
X0300957Y0019530D02*
X0206848Y0019530D01*
X0206848Y0020528D02*
X0301270Y0020528D01*
X0302269Y0021527D02*
X0206848Y0021527D01*
X0206848Y0022525D02*
X0303267Y0022525D01*
X0308646Y0021527D02*
X0314961Y0021527D01*
X0314961Y0020528D02*
X0309645Y0020528D01*
X0309957Y0019530D02*
X0314961Y0019530D01*
X0314961Y0012540D02*
X0151691Y0012540D01*
X0152510Y0013538D02*
X0157380Y0013538D01*
X0157257Y0014537D02*
X0152555Y0014537D01*
X0152555Y0015535D02*
X0160339Y0015535D01*
X0160717Y0015535D02*
X0170797Y0015535D01*
X0170797Y0015343D02*
X0167714Y0015343D01*
X0167714Y0013957D01*
X0167816Y0013575D01*
X0168014Y0013233D01*
X0168293Y0012954D01*
X0168635Y0012757D01*
X0169017Y0012654D01*
X0170797Y0012654D01*
X0170797Y0015343D01*
X0171175Y0015535D02*
X0181898Y0015535D01*
X0181898Y0015487D02*
X0178815Y0015487D01*
X0178815Y0014101D01*
X0178917Y0013719D01*
X0179115Y0013377D01*
X0179394Y0013098D01*
X0179736Y0012901D01*
X0180117Y0012798D01*
X0181898Y0012798D01*
X0181898Y0015487D01*
X0182276Y0015487D02*
X0182276Y0012798D01*
X0184056Y0012798D01*
X0184437Y0012901D01*
X0184779Y0013098D01*
X0185059Y0013377D01*
X0185256Y0013719D01*
X0185358Y0014101D01*
X0185358Y0015487D01*
X0182276Y0015487D01*
X0182276Y0015535D02*
X0192998Y0015535D01*
X0193376Y0015535D02*
X0200517Y0015535D01*
X0200517Y0015737D02*
X0200517Y0014351D01*
X0200620Y0013969D01*
X0200817Y0013627D01*
X0201096Y0013348D01*
X0201438Y0013150D01*
X0201820Y0013048D01*
X0203600Y0013048D01*
X0203600Y0015737D01*
X0200517Y0015737D01*
X0200517Y0016534D02*
X0196459Y0016534D01*
X0196384Y0017533D02*
X0200526Y0017533D01*
X0201143Y0018531D02*
X0195894Y0018531D01*
X0196246Y0019530D02*
X0200730Y0019530D01*
X0200730Y0020528D02*
X0196246Y0020528D01*
X0196246Y0021527D02*
X0200730Y0021527D01*
X0200730Y0022525D02*
X0196246Y0022525D01*
X0195275Y0023524D02*
X0201298Y0023524D01*
X0201703Y0024522D02*
X0195168Y0024522D01*
X0194169Y0025521D02*
X0202702Y0025521D01*
X0203700Y0026519D02*
X0194134Y0026519D01*
X0195133Y0027518D02*
X0203534Y0027518D01*
X0202536Y0028516D02*
X0196131Y0028516D01*
X0204446Y0032510D02*
X0220109Y0032510D01*
X0219111Y0031512D02*
X0205444Y0031512D01*
X0206443Y0030513D02*
X0218112Y0030513D01*
X0221108Y0033509D02*
X0204106Y0033509D01*
X0203564Y0034507D02*
X0221854Y0034507D01*
X0221854Y0035506D02*
X0206570Y0035506D01*
X0206848Y0036504D02*
X0221854Y0036504D01*
X0221854Y0037503D02*
X0206848Y0037503D01*
X0206848Y0038501D02*
X0221854Y0038501D01*
X0221854Y0039500D02*
X0206848Y0039500D01*
X0206444Y0040498D02*
X0221854Y0040498D01*
X0221854Y0041497D02*
X0206848Y0041497D01*
X0206848Y0042495D02*
X0221854Y0042495D01*
X0221854Y0043494D02*
X0206848Y0043494D01*
X0206848Y0044492D02*
X0221854Y0044492D01*
X0221854Y0045491D02*
X0206663Y0045491D01*
X0207661Y0046489D02*
X0221854Y0046489D01*
X0221854Y0047488D02*
X0215639Y0047488D01*
X0215639Y0048486D02*
X0221854Y0048486D01*
X0221854Y0049485D02*
X0215775Y0049485D01*
X0216773Y0050483D02*
X0221854Y0050483D01*
X0221854Y0051482D02*
X0217772Y0051482D01*
X0218154Y0052480D02*
X0221854Y0052480D01*
X0221854Y0053479D02*
X0218154Y0053479D01*
X0218154Y0054477D02*
X0221854Y0054477D01*
X0221854Y0055476D02*
X0218154Y0055476D01*
X0218154Y0056474D02*
X0221854Y0056474D01*
X0221854Y0057473D02*
X0218154Y0057473D01*
X0218154Y0058471D02*
X0221854Y0058471D01*
X0221854Y0059470D02*
X0218154Y0059470D01*
X0218154Y0060468D02*
X0221854Y0060468D01*
X0221854Y0061467D02*
X0218154Y0061467D01*
X0218154Y0062466D02*
X0221854Y0062466D01*
X0221854Y0063464D02*
X0218154Y0063464D01*
X0218154Y0064463D02*
X0221854Y0064463D01*
X0220726Y0065461D02*
X0218154Y0065461D01*
X0218154Y0066460D02*
X0220472Y0066460D01*
X0220472Y0067458D02*
X0218154Y0067458D01*
X0218154Y0068457D02*
X0220472Y0068457D01*
X0220472Y0069455D02*
X0218154Y0069455D01*
X0218154Y0070454D02*
X0220472Y0070454D01*
X0220781Y0071452D02*
X0219367Y0071452D01*
X0219535Y0072451D02*
X0268898Y0072451D01*
X0268898Y0071452D02*
X0227101Y0071452D01*
X0227409Y0070454D02*
X0268898Y0070454D01*
X0268898Y0069455D02*
X0227409Y0069455D01*
X0227409Y0068457D02*
X0268898Y0068457D01*
X0269123Y0067458D02*
X0227409Y0067458D01*
X0227409Y0066460D02*
X0269885Y0066460D01*
X0269885Y0065461D02*
X0227156Y0065461D01*
X0226028Y0064463D02*
X0269885Y0064463D01*
X0269885Y0063464D02*
X0258843Y0063464D01*
X0258897Y0063442D02*
X0257321Y0064094D01*
X0249616Y0064094D01*
X0248040Y0063442D01*
X0246834Y0062236D01*
X0246181Y0060660D01*
X0246181Y0058954D01*
X0246834Y0057378D01*
X0248040Y0056172D01*
X0249616Y0055520D01*
X0257321Y0055520D01*
X0258897Y0056172D01*
X0260103Y0057378D01*
X0260756Y0058954D01*
X0260756Y0060660D01*
X0260103Y0062236D01*
X0258897Y0063442D01*
X0259873Y0062466D02*
X0269885Y0062466D01*
X0269885Y0061467D02*
X0260422Y0061467D01*
X0260756Y0060468D02*
X0269885Y0060468D01*
X0269885Y0059470D02*
X0260756Y0059470D01*
X0260556Y0058471D02*
X0269885Y0058471D01*
X0269885Y0057473D02*
X0260142Y0057473D01*
X0259199Y0056474D02*
X0269885Y0056474D01*
X0269885Y0055476D02*
X0226028Y0055476D01*
X0226028Y0056474D02*
X0247738Y0056474D01*
X0246795Y0057473D02*
X0226028Y0057473D01*
X0226028Y0058471D02*
X0246381Y0058471D01*
X0246181Y0059470D02*
X0226028Y0059470D01*
X0226028Y0060468D02*
X0246181Y0060468D01*
X0246515Y0061467D02*
X0226028Y0061467D01*
X0226028Y0062466D02*
X0247064Y0062466D01*
X0248094Y0063464D02*
X0226028Y0063464D01*
X0213980Y0063464D02*
X0206848Y0063464D01*
X0206848Y0064463D02*
X0213980Y0064463D01*
X0213980Y0065461D02*
X0206848Y0065461D01*
X0206848Y0066460D02*
X0213980Y0066460D01*
X0213980Y0067458D02*
X0206133Y0067458D01*
X0205876Y0068457D02*
X0213980Y0068457D01*
X0213980Y0069455D02*
X0205876Y0069455D01*
X0205876Y0070454D02*
X0213980Y0070454D01*
X0212767Y0071452D02*
X0205876Y0071452D01*
X0205876Y0072451D02*
X0212598Y0072451D01*
X0212598Y0073449D02*
X0205876Y0073449D01*
X0205876Y0074448D02*
X0212598Y0074448D01*
X0212598Y0075446D02*
X0205876Y0075446D01*
X0205876Y0076445D02*
X0212598Y0076445D01*
X0212993Y0077443D02*
X0205876Y0077443D01*
X0205876Y0078442D02*
X0314961Y0078442D01*
X0314961Y0079440D02*
X0205876Y0079440D01*
X0205876Y0080439D02*
X0314961Y0080439D01*
X0314961Y0081437D02*
X0205876Y0081437D01*
X0205876Y0084433D02*
X0212341Y0084433D01*
X0212712Y0084061D02*
X0216264Y0084061D01*
X0218776Y0086573D01*
X0218776Y0090125D01*
X0216264Y0092636D01*
X0212712Y0092636D01*
X0210201Y0090125D01*
X0210201Y0086573D01*
X0212712Y0084061D01*
X0211342Y0085431D02*
X0206834Y0085431D01*
X0207832Y0086430D02*
X0210344Y0086430D01*
X0210201Y0087428D02*
X0207976Y0087428D01*
X0207976Y0088427D02*
X0210201Y0088427D01*
X0210201Y0089425D02*
X0207976Y0089425D01*
X0207676Y0090424D02*
X0210500Y0090424D01*
X0211498Y0091422D02*
X0206678Y0091422D01*
X0205679Y0092421D02*
X0212497Y0092421D01*
X0211019Y0095416D02*
X0218057Y0095416D01*
X0217059Y0096415D02*
X0212018Y0096415D01*
X0213016Y0097413D02*
X0216060Y0097413D01*
X0215701Y0098412D02*
X0213376Y0098412D01*
X0213376Y0099410D02*
X0215701Y0099410D01*
X0215701Y0100409D02*
X0213376Y0100409D01*
X0213293Y0101407D02*
X0215784Y0101407D01*
X0216782Y0102406D02*
X0212294Y0102406D01*
X0211296Y0103404D02*
X0217781Y0103404D01*
X0217901Y0104403D02*
X0211176Y0104403D01*
X0211176Y0105402D02*
X0217901Y0105402D01*
X0217901Y0106400D02*
X0211176Y0106400D01*
X0211176Y0107399D02*
X0217901Y0107399D01*
X0217901Y0108397D02*
X0211176Y0108397D01*
X0211176Y0109396D02*
X0217901Y0109396D01*
X0217901Y0110394D02*
X0211176Y0110394D01*
X0211176Y0111393D02*
X0217901Y0111393D01*
X0217901Y0112391D02*
X0211176Y0112391D01*
X0211176Y0113390D02*
X0217901Y0113390D01*
X0217901Y0114388D02*
X0211176Y0114388D01*
X0211176Y0115387D02*
X0217901Y0115387D01*
X0217901Y0116385D02*
X0211176Y0116385D01*
X0211176Y0117384D02*
X0217901Y0117384D01*
X0217901Y0118382D02*
X0211176Y0118382D01*
X0211176Y0119381D02*
X0217901Y0119381D01*
X0217447Y0120379D02*
X0211542Y0120379D01*
X0212147Y0121378D02*
X0216842Y0121378D01*
X0216842Y0122376D02*
X0212147Y0122376D01*
X0212147Y0123375D02*
X0216842Y0123375D01*
X0216842Y0124373D02*
X0212147Y0124373D01*
X0211583Y0125372D02*
X0217406Y0125372D01*
X0216842Y0126370D02*
X0212147Y0126370D01*
X0212147Y0127369D02*
X0216842Y0127369D01*
X0216842Y0128367D02*
X0212147Y0128367D01*
X0212147Y0129366D02*
X0216842Y0129366D01*
X0217281Y0130364D02*
X0211708Y0130364D01*
X0211176Y0131363D02*
X0217813Y0131363D01*
X0218002Y0132361D02*
X0210737Y0132361D01*
X0209739Y0133360D02*
X0219001Y0133360D01*
X0219593Y0134358D02*
X0209973Y0134358D01*
X0210971Y0135357D02*
X0218594Y0135357D01*
X0214214Y0136355D02*
X0213988Y0136355D01*
X0206468Y0130364D02*
X0200502Y0130364D01*
X0200941Y0129366D02*
X0206029Y0129366D01*
X0206029Y0128367D02*
X0200941Y0128367D01*
X0200941Y0127369D02*
X0206029Y0127369D01*
X0206029Y0126370D02*
X0200941Y0126370D01*
X0200376Y0125372D02*
X0206594Y0125372D01*
X0206029Y0124373D02*
X0200941Y0124373D01*
X0200941Y0123375D02*
X0206029Y0123375D01*
X0206029Y0122376D02*
X0200941Y0122376D01*
X0200941Y0121378D02*
X0206029Y0121378D01*
X0206635Y0120379D02*
X0200335Y0120379D01*
X0200276Y0119381D02*
X0207001Y0119381D01*
X0207001Y0118382D02*
X0200276Y0118382D01*
X0200276Y0117384D02*
X0207001Y0117384D01*
X0207001Y0116385D02*
X0200276Y0116385D01*
X0200276Y0115387D02*
X0207001Y0115387D01*
X0207001Y0114388D02*
X0200276Y0114388D01*
X0200276Y0113390D02*
X0207001Y0113390D01*
X0207001Y0112391D02*
X0200276Y0112391D01*
X0200276Y0111393D02*
X0207001Y0111393D01*
X0207001Y0110394D02*
X0200276Y0110394D01*
X0200276Y0109396D02*
X0207001Y0109396D01*
X0207001Y0108397D02*
X0200276Y0108397D01*
X0200276Y0107399D02*
X0207001Y0107399D01*
X0207001Y0106400D02*
X0200276Y0106400D01*
X0200276Y0105402D02*
X0207001Y0105402D01*
X0207001Y0104403D02*
X0200276Y0104403D01*
X0200396Y0103404D02*
X0206881Y0103404D01*
X0205882Y0102406D02*
X0201394Y0102406D01*
X0202393Y0101407D02*
X0204884Y0101407D01*
X0204801Y0100409D02*
X0202476Y0100409D01*
X0202476Y0099410D02*
X0204801Y0099410D01*
X0204801Y0098412D02*
X0202476Y0098412D01*
X0202116Y0097413D02*
X0205160Y0097413D01*
X0206159Y0096415D02*
X0201118Y0096415D01*
X0200119Y0095416D02*
X0207157Y0095416D01*
X0201697Y0092421D02*
X0194779Y0092421D01*
X0195778Y0091422D02*
X0200698Y0091422D01*
X0199700Y0090424D02*
X0196776Y0090424D01*
X0197076Y0089425D02*
X0199401Y0089425D01*
X0199401Y0088427D02*
X0197076Y0088427D01*
X0197076Y0087428D02*
X0199401Y0087428D01*
X0199544Y0086430D02*
X0196932Y0086430D01*
X0195934Y0085431D02*
X0200542Y0085431D01*
X0201541Y0084433D02*
X0194935Y0084433D01*
X0194881Y0083434D02*
X0201702Y0083434D01*
X0201702Y0082436D02*
X0194881Y0082436D01*
X0194881Y0081437D02*
X0201702Y0081437D01*
X0201702Y0080439D02*
X0194881Y0080439D01*
X0194881Y0079440D02*
X0201702Y0079440D01*
X0201702Y0078442D02*
X0194881Y0078442D01*
X0194881Y0077443D02*
X0201702Y0077443D01*
X0201702Y0076445D02*
X0194881Y0076445D01*
X0194881Y0075446D02*
X0201702Y0075446D01*
X0201702Y0074448D02*
X0194881Y0074448D01*
X0194881Y0073449D02*
X0201702Y0073449D01*
X0201702Y0072451D02*
X0194881Y0072451D01*
X0194881Y0071452D02*
X0201702Y0071452D01*
X0201702Y0070454D02*
X0194881Y0070454D01*
X0194881Y0069455D02*
X0201702Y0069455D01*
X0201702Y0068457D02*
X0194881Y0068457D01*
X0195138Y0067458D02*
X0201445Y0067458D01*
X0200730Y0066460D02*
X0195853Y0066460D01*
X0195853Y0065461D02*
X0200730Y0065461D01*
X0200730Y0064463D02*
X0195853Y0064463D01*
X0195853Y0063464D02*
X0200730Y0063464D01*
X0201185Y0062466D02*
X0195397Y0062466D01*
X0195853Y0061467D02*
X0200730Y0061467D01*
X0200730Y0060468D02*
X0195853Y0060468D01*
X0195853Y0059470D02*
X0200730Y0059470D01*
X0200730Y0058471D02*
X0195853Y0058471D01*
X0195625Y0057473D02*
X0201060Y0057473D01*
X0198834Y0056474D02*
X0198641Y0056474D01*
X0192716Y0054477D02*
X0183451Y0054477D01*
X0184030Y0055476D02*
X0191718Y0055476D01*
X0190719Y0056474D02*
X0184030Y0056474D01*
X0184672Y0057473D02*
X0190065Y0057473D01*
X0189735Y0058471D02*
X0185002Y0058471D01*
X0185002Y0059470D02*
X0189735Y0059470D01*
X0189735Y0060468D02*
X0185002Y0060468D01*
X0185002Y0061467D02*
X0189735Y0061467D01*
X0190190Y0062466D02*
X0184546Y0062466D01*
X0185002Y0063464D02*
X0189735Y0063464D01*
X0189735Y0064463D02*
X0185002Y0064463D01*
X0185002Y0065461D02*
X0189735Y0065461D01*
X0189735Y0066460D02*
X0185002Y0066460D01*
X0184287Y0067458D02*
X0190449Y0067458D01*
X0190706Y0068457D02*
X0184030Y0068457D01*
X0184030Y0069455D02*
X0190706Y0069455D01*
X0190706Y0070454D02*
X0184030Y0070454D01*
X0184030Y0071452D02*
X0190706Y0071452D01*
X0190706Y0072451D02*
X0184030Y0072451D01*
X0184030Y0073449D02*
X0190706Y0073449D01*
X0190706Y0074448D02*
X0184030Y0074448D01*
X0184030Y0075446D02*
X0190706Y0075446D01*
X0190706Y0076445D02*
X0184030Y0076445D01*
X0184030Y0077443D02*
X0190706Y0077443D01*
X0190706Y0078442D02*
X0184030Y0078442D01*
X0184030Y0079440D02*
X0190706Y0079440D01*
X0190706Y0080439D02*
X0184030Y0080439D01*
X0184030Y0081437D02*
X0190706Y0081437D01*
X0190706Y0082436D02*
X0184030Y0082436D01*
X0184030Y0083434D02*
X0190706Y0083434D01*
X0190641Y0084433D02*
X0184035Y0084433D01*
X0185034Y0085431D02*
X0189642Y0085431D01*
X0188644Y0086430D02*
X0186032Y0086430D01*
X0186176Y0087428D02*
X0188501Y0087428D01*
X0188501Y0088427D02*
X0186176Y0088427D01*
X0186176Y0089425D02*
X0188501Y0089425D01*
X0188800Y0090424D02*
X0185876Y0090424D01*
X0184878Y0091422D02*
X0189798Y0091422D01*
X0190797Y0092421D02*
X0183879Y0092421D01*
X0185357Y0095416D02*
X0178419Y0095416D01*
X0179418Y0096415D02*
X0184359Y0096415D01*
X0183360Y0097413D02*
X0180416Y0097413D01*
X0180776Y0098412D02*
X0183001Y0098412D01*
X0183001Y0099410D02*
X0180776Y0099410D01*
X0180776Y0100409D02*
X0183001Y0100409D01*
X0183084Y0101407D02*
X0180693Y0101407D01*
X0179694Y0102406D02*
X0184082Y0102406D01*
X0185081Y0103404D02*
X0178696Y0103404D01*
X0178576Y0104403D02*
X0185201Y0104403D01*
X0185201Y0105402D02*
X0178576Y0105402D01*
X0178576Y0106400D02*
X0185201Y0106400D01*
X0185201Y0107399D02*
X0178576Y0107399D01*
X0178576Y0108397D02*
X0185201Y0108397D01*
X0185201Y0109396D02*
X0178576Y0109396D01*
X0178576Y0110394D02*
X0185201Y0110394D01*
X0185201Y0111393D02*
X0178576Y0111393D01*
X0178576Y0112391D02*
X0185201Y0112391D01*
X0185201Y0113390D02*
X0178576Y0113390D01*
X0178576Y0114388D02*
X0185201Y0114388D01*
X0185201Y0115387D02*
X0178576Y0115387D01*
X0178576Y0116385D02*
X0185201Y0116385D01*
X0185201Y0117384D02*
X0178576Y0117384D01*
X0178576Y0118382D02*
X0185201Y0118382D01*
X0185201Y0119381D02*
X0178576Y0119381D01*
X0178854Y0120379D02*
X0184760Y0120379D01*
X0184154Y0121378D02*
X0179460Y0121378D01*
X0179460Y0122376D02*
X0184154Y0122376D01*
X0184154Y0123375D02*
X0179460Y0123375D01*
X0179460Y0124373D02*
X0184154Y0124373D01*
X0184719Y0125372D02*
X0178895Y0125372D01*
X0179460Y0126370D02*
X0184154Y0126370D01*
X0184154Y0127369D02*
X0179460Y0127369D01*
X0179460Y0128367D02*
X0184154Y0128367D01*
X0184154Y0129366D02*
X0179460Y0129366D01*
X0179021Y0130364D02*
X0184593Y0130364D01*
X0181939Y0131363D02*
X0181176Y0131363D01*
X0175251Y0133360D02*
X0166095Y0133360D01*
X0166617Y0134358D02*
X0175843Y0134358D01*
X0174845Y0135357D02*
X0167615Y0135357D01*
X0167093Y0132361D02*
X0174313Y0132361D01*
X0174313Y0131363D02*
X0167676Y0131363D01*
X0168208Y0130364D02*
X0173781Y0130364D01*
X0173342Y0129366D02*
X0168647Y0129366D01*
X0168647Y0128367D02*
X0173342Y0128367D01*
X0173342Y0127369D02*
X0168647Y0127369D01*
X0168647Y0126370D02*
X0173342Y0126370D01*
X0173906Y0125372D02*
X0168083Y0125372D01*
X0168647Y0124373D02*
X0173342Y0124373D01*
X0173342Y0123375D02*
X0168647Y0123375D01*
X0168647Y0122376D02*
X0173342Y0122376D01*
X0173342Y0121378D02*
X0168647Y0121378D01*
X0168042Y0120379D02*
X0173947Y0120379D01*
X0174401Y0119381D02*
X0167676Y0119381D01*
X0167676Y0118382D02*
X0174401Y0118382D01*
X0174401Y0117384D02*
X0167676Y0117384D01*
X0167676Y0116385D02*
X0174401Y0116385D01*
X0174401Y0115387D02*
X0167676Y0115387D01*
X0167676Y0114388D02*
X0174401Y0114388D01*
X0174401Y0113390D02*
X0167676Y0113390D01*
X0167676Y0112391D02*
X0174401Y0112391D01*
X0174401Y0111393D02*
X0167676Y0111393D01*
X0167676Y0110394D02*
X0174401Y0110394D01*
X0174401Y0109396D02*
X0167676Y0109396D01*
X0167676Y0108397D02*
X0174401Y0108397D01*
X0174401Y0107399D02*
X0167676Y0107399D01*
X0167676Y0106400D02*
X0174401Y0106400D01*
X0174401Y0105402D02*
X0167676Y0105402D01*
X0167676Y0104403D02*
X0174401Y0104403D01*
X0174281Y0103404D02*
X0167796Y0103404D01*
X0168794Y0102406D02*
X0173282Y0102406D01*
X0172284Y0101407D02*
X0169793Y0101407D01*
X0169876Y0100409D02*
X0172201Y0100409D01*
X0172201Y0099410D02*
X0169876Y0099410D01*
X0169876Y0098412D02*
X0172201Y0098412D01*
X0172560Y0097413D02*
X0169516Y0097413D01*
X0168518Y0096415D02*
X0173559Y0096415D01*
X0174557Y0095416D02*
X0167519Y0095416D01*
X0168997Y0092421D02*
X0162179Y0092421D01*
X0163178Y0091422D02*
X0167998Y0091422D01*
X0167000Y0090424D02*
X0164176Y0090424D01*
X0164476Y0089425D02*
X0166701Y0089425D01*
X0166701Y0088427D02*
X0164476Y0088427D01*
X0164476Y0087428D02*
X0166701Y0087428D01*
X0166844Y0086430D02*
X0164332Y0086430D01*
X0163334Y0085431D02*
X0167842Y0085431D01*
X0168841Y0084433D02*
X0162577Y0084433D01*
X0162577Y0083434D02*
X0168860Y0083434D01*
X0168860Y0082436D02*
X0162577Y0082436D01*
X0162577Y0081437D02*
X0168860Y0081437D01*
X0168860Y0080439D02*
X0162577Y0080439D01*
X0162577Y0079440D02*
X0168860Y0079440D01*
X0168860Y0078442D02*
X0162577Y0078442D01*
X0162577Y0077443D02*
X0168860Y0077443D01*
X0168860Y0076445D02*
X0162577Y0076445D01*
X0162577Y0075446D02*
X0168860Y0075446D01*
X0168860Y0074448D02*
X0162577Y0074448D01*
X0162577Y0073449D02*
X0168860Y0073449D01*
X0168860Y0072451D02*
X0162577Y0072451D01*
X0162577Y0071452D02*
X0168860Y0071452D01*
X0168860Y0070454D02*
X0162577Y0070454D01*
X0162577Y0069455D02*
X0168860Y0069455D01*
X0168860Y0068457D02*
X0162577Y0068457D01*
X0162834Y0067458D02*
X0168603Y0067458D01*
X0167888Y0066460D02*
X0163549Y0066460D01*
X0163549Y0065461D02*
X0167888Y0065461D01*
X0167888Y0064463D02*
X0163549Y0064463D01*
X0163549Y0063464D02*
X0167888Y0063464D01*
X0168344Y0062466D02*
X0163093Y0062466D01*
X0163549Y0061467D02*
X0167888Y0061467D01*
X0167888Y0060468D02*
X0163549Y0060468D01*
X0163549Y0059470D02*
X0167888Y0059470D01*
X0167888Y0058471D02*
X0163549Y0058471D01*
X0163219Y0057473D02*
X0168218Y0057473D01*
X0169122Y0056474D02*
X0162577Y0056474D01*
X0162497Y0055476D02*
X0170121Y0055476D01*
X0171119Y0054477D02*
X0162235Y0054477D01*
X0163234Y0053479D02*
X0171430Y0053479D01*
X0167405Y0052480D02*
X0166250Y0052480D01*
X0174028Y0057473D02*
X0179213Y0057473D01*
X0178883Y0058471D02*
X0174006Y0058471D01*
X0174006Y0059470D02*
X0178883Y0059470D01*
X0178883Y0060468D02*
X0174006Y0060468D01*
X0174006Y0061467D02*
X0178883Y0061467D01*
X0179339Y0062466D02*
X0173551Y0062466D01*
X0174006Y0063464D02*
X0178883Y0063464D01*
X0178883Y0064463D02*
X0174006Y0064463D01*
X0174006Y0065461D02*
X0178883Y0065461D01*
X0178883Y0066460D02*
X0174006Y0066460D01*
X0173292Y0067458D02*
X0179598Y0067458D01*
X0179855Y0068457D02*
X0173035Y0068457D01*
X0173035Y0069455D02*
X0179855Y0069455D01*
X0179855Y0070454D02*
X0173035Y0070454D01*
X0173035Y0071452D02*
X0179855Y0071452D01*
X0179855Y0072451D02*
X0173035Y0072451D01*
X0173035Y0073449D02*
X0179855Y0073449D01*
X0179855Y0074448D02*
X0173035Y0074448D01*
X0173035Y0075446D02*
X0179855Y0075446D01*
X0179855Y0076445D02*
X0173035Y0076445D01*
X0173035Y0077443D02*
X0179855Y0077443D01*
X0179855Y0078442D02*
X0173035Y0078442D01*
X0173035Y0079440D02*
X0179855Y0079440D01*
X0179855Y0080439D02*
X0173035Y0080439D01*
X0173035Y0081437D02*
X0179855Y0081437D01*
X0179855Y0082436D02*
X0173035Y0082436D01*
X0173035Y0083434D02*
X0179855Y0083434D01*
X0179741Y0084433D02*
X0173135Y0084433D01*
X0174134Y0085431D02*
X0178742Y0085431D01*
X0177744Y0086430D02*
X0175132Y0086430D01*
X0175276Y0087428D02*
X0177601Y0087428D01*
X0177601Y0088427D02*
X0175276Y0088427D01*
X0175276Y0089425D02*
X0177601Y0089425D01*
X0177900Y0090424D02*
X0174976Y0090424D01*
X0173978Y0091422D02*
X0178898Y0091422D01*
X0179897Y0092421D02*
X0172979Y0092421D01*
X0163657Y0095416D02*
X0156619Y0095416D01*
X0157618Y0096415D02*
X0162659Y0096415D01*
X0161660Y0097413D02*
X0158616Y0097413D01*
X0158976Y0098412D02*
X0161301Y0098412D01*
X0161301Y0099410D02*
X0158976Y0099410D01*
X0158976Y0100409D02*
X0161301Y0100409D01*
X0161384Y0101407D02*
X0158893Y0101407D01*
X0157894Y0102406D02*
X0162382Y0102406D01*
X0163381Y0103404D02*
X0156896Y0103404D01*
X0156776Y0104403D02*
X0163501Y0104403D01*
X0163501Y0105402D02*
X0156776Y0105402D01*
X0156776Y0106400D02*
X0163501Y0106400D01*
X0163501Y0107399D02*
X0156776Y0107399D01*
X0156776Y0108397D02*
X0163501Y0108397D01*
X0163501Y0109396D02*
X0156776Y0109396D01*
X0156776Y0110394D02*
X0163501Y0110394D01*
X0163501Y0111393D02*
X0156776Y0111393D01*
X0156776Y0112391D02*
X0163501Y0112391D01*
X0163501Y0113390D02*
X0156776Y0113390D01*
X0156776Y0114388D02*
X0163501Y0114388D01*
X0163501Y0115387D02*
X0156776Y0115387D01*
X0156776Y0116385D02*
X0163501Y0116385D01*
X0163501Y0117384D02*
X0156776Y0117384D01*
X0156776Y0118382D02*
X0163501Y0118382D01*
X0163501Y0119381D02*
X0156776Y0119381D01*
X0156979Y0120379D02*
X0163135Y0120379D01*
X0162529Y0121378D02*
X0157585Y0121378D01*
X0157585Y0122376D02*
X0162529Y0122376D01*
X0162529Y0123375D02*
X0157585Y0123375D01*
X0157585Y0124373D02*
X0162529Y0124373D01*
X0163094Y0125372D02*
X0157021Y0125372D01*
X0157585Y0126370D02*
X0162529Y0126370D01*
X0162529Y0127369D02*
X0157585Y0127369D01*
X0157585Y0128367D02*
X0162529Y0128367D01*
X0162529Y0129366D02*
X0157585Y0129366D01*
X0157146Y0130364D02*
X0162968Y0130364D01*
X0160169Y0131363D02*
X0159407Y0131363D01*
X0154074Y0134358D02*
X0144991Y0134358D01*
X0144220Y0133360D02*
X0153482Y0133360D01*
X0152483Y0132361D02*
X0145218Y0132361D01*
X0146050Y0131363D02*
X0152439Y0131363D01*
X0151906Y0130364D02*
X0146583Y0130364D01*
X0147022Y0129366D02*
X0151467Y0129366D01*
X0151467Y0128367D02*
X0147022Y0128367D01*
X0147022Y0127369D02*
X0151467Y0127369D01*
X0151467Y0126370D02*
X0147022Y0126370D01*
X0146458Y0125372D02*
X0152031Y0125372D01*
X0151467Y0124373D02*
X0147022Y0124373D01*
X0147022Y0123375D02*
X0151467Y0123375D01*
X0151467Y0122376D02*
X0147022Y0122376D01*
X0147022Y0121378D02*
X0151467Y0121378D01*
X0152073Y0120379D02*
X0146416Y0120379D01*
X0145976Y0119381D02*
X0152601Y0119381D01*
X0152601Y0118382D02*
X0145976Y0118382D01*
X0145976Y0117384D02*
X0152601Y0117384D01*
X0152601Y0116385D02*
X0145976Y0116385D01*
X0145976Y0115387D02*
X0152601Y0115387D01*
X0152601Y0114388D02*
X0145976Y0114388D01*
X0145976Y0113390D02*
X0152601Y0113390D01*
X0152601Y0112391D02*
X0145976Y0112391D01*
X0145976Y0111393D02*
X0152601Y0111393D01*
X0152601Y0110394D02*
X0145976Y0110394D01*
X0145976Y0109396D02*
X0152601Y0109396D01*
X0152601Y0108397D02*
X0145976Y0108397D01*
X0145976Y0107399D02*
X0152601Y0107399D01*
X0152601Y0106400D02*
X0145976Y0106400D01*
X0145976Y0105402D02*
X0152601Y0105402D01*
X0152601Y0104403D02*
X0145976Y0104403D01*
X0146096Y0103404D02*
X0152481Y0103404D01*
X0151482Y0102406D02*
X0147094Y0102406D01*
X0148093Y0101407D02*
X0150484Y0101407D01*
X0150401Y0100409D02*
X0148176Y0100409D01*
X0148176Y0099410D02*
X0150401Y0099410D01*
X0150401Y0098412D02*
X0148176Y0098412D01*
X0147816Y0097413D02*
X0150760Y0097413D01*
X0151759Y0096415D02*
X0146818Y0096415D01*
X0145819Y0095416D02*
X0152757Y0095416D01*
X0151279Y0092421D02*
X0158197Y0092421D01*
X0157198Y0091422D02*
X0152278Y0091422D01*
X0153276Y0090424D02*
X0156200Y0090424D01*
X0155901Y0089425D02*
X0153576Y0089425D01*
X0153576Y0088427D02*
X0155901Y0088427D01*
X0155901Y0087428D02*
X0153576Y0087428D01*
X0153432Y0086430D02*
X0156044Y0086430D01*
X0157042Y0085431D02*
X0152434Y0085431D01*
X0151476Y0084433D02*
X0158041Y0084433D01*
X0158402Y0083434D02*
X0151476Y0083434D01*
X0151476Y0082436D02*
X0158402Y0082436D01*
X0158402Y0081437D02*
X0151476Y0081437D01*
X0151476Y0080439D02*
X0158402Y0080439D01*
X0158402Y0079440D02*
X0151476Y0079440D01*
X0151476Y0078442D02*
X0158402Y0078442D01*
X0158402Y0077443D02*
X0151476Y0077443D01*
X0151476Y0076445D02*
X0158402Y0076445D01*
X0158402Y0075446D02*
X0151476Y0075446D01*
X0151476Y0074448D02*
X0158402Y0074448D01*
X0158402Y0073449D02*
X0151476Y0073449D01*
X0151476Y0072451D02*
X0158402Y0072451D01*
X0158402Y0071452D02*
X0151476Y0071452D01*
X0151476Y0070454D02*
X0158402Y0070454D01*
X0158402Y0069455D02*
X0151476Y0069455D01*
X0151476Y0068457D02*
X0158402Y0068457D01*
X0158145Y0067458D02*
X0151733Y0067458D01*
X0152448Y0066460D02*
X0157431Y0066460D01*
X0157431Y0065461D02*
X0152448Y0065461D01*
X0152448Y0064463D02*
X0157431Y0064463D01*
X0157431Y0063464D02*
X0152448Y0063464D01*
X0151992Y0062466D02*
X0157886Y0062466D01*
X0157431Y0061467D02*
X0152448Y0061467D01*
X0152448Y0060468D02*
X0157431Y0060468D01*
X0157431Y0059470D02*
X0152448Y0059470D01*
X0152448Y0058471D02*
X0157431Y0058471D01*
X0157761Y0057473D02*
X0152118Y0057473D01*
X0155093Y0056474D02*
X0155573Y0056474D01*
X0149167Y0054477D02*
X0139890Y0054477D01*
X0140651Y0055476D02*
X0148169Y0055476D01*
X0147302Y0056474D02*
X0140731Y0056474D01*
X0141372Y0057473D02*
X0146660Y0057473D01*
X0146330Y0058471D02*
X0141702Y0058471D01*
X0141702Y0059470D02*
X0146330Y0059470D01*
X0146330Y0060468D02*
X0141702Y0060468D01*
X0141702Y0061467D02*
X0146330Y0061467D01*
X0146785Y0062466D02*
X0141247Y0062466D01*
X0141702Y0063464D02*
X0146330Y0063464D01*
X0146330Y0064463D02*
X0141702Y0064463D01*
X0141702Y0065461D02*
X0146330Y0065461D01*
X0146330Y0066460D02*
X0141702Y0066460D01*
X0140988Y0067458D02*
X0147045Y0067458D01*
X0147302Y0068457D02*
X0140731Y0068457D01*
X0140731Y0069455D02*
X0147302Y0069455D01*
X0147302Y0070454D02*
X0140731Y0070454D01*
X0140731Y0071452D02*
X0147302Y0071452D01*
X0147302Y0072451D02*
X0140731Y0072451D01*
X0140731Y0073449D02*
X0147302Y0073449D01*
X0147302Y0074448D02*
X0140731Y0074448D01*
X0140731Y0075446D02*
X0147302Y0075446D01*
X0147302Y0076445D02*
X0140731Y0076445D01*
X0140731Y0077443D02*
X0147302Y0077443D01*
X0147302Y0078442D02*
X0140731Y0078442D01*
X0140731Y0079440D02*
X0147302Y0079440D01*
X0147302Y0080439D02*
X0140731Y0080439D01*
X0140731Y0081437D02*
X0147302Y0081437D01*
X0147302Y0082436D02*
X0140731Y0082436D01*
X0140731Y0083434D02*
X0147302Y0083434D01*
X0147141Y0084433D02*
X0140731Y0084433D01*
X0141534Y0085431D02*
X0146142Y0085431D01*
X0145144Y0086430D02*
X0142532Y0086430D01*
X0142676Y0087428D02*
X0145001Y0087428D01*
X0145001Y0088427D02*
X0142676Y0088427D01*
X0142676Y0089425D02*
X0145001Y0089425D01*
X0145300Y0090424D02*
X0142376Y0090424D01*
X0141378Y0091422D02*
X0146298Y0091422D01*
X0147297Y0092421D02*
X0140379Y0092421D01*
X0141957Y0095416D02*
X0134919Y0095416D01*
X0135918Y0096415D02*
X0140959Y0096415D01*
X0139960Y0097413D02*
X0136916Y0097413D01*
X0137276Y0098412D02*
X0139601Y0098412D01*
X0139601Y0099410D02*
X0137276Y0099410D01*
X0137276Y0100409D02*
X0139601Y0100409D01*
X0139684Y0101407D02*
X0137193Y0101407D01*
X0136194Y0102406D02*
X0140682Y0102406D01*
X0141681Y0103404D02*
X0135196Y0103404D01*
X0135076Y0104403D02*
X0141801Y0104403D01*
X0141801Y0105402D02*
X0135076Y0105402D01*
X0135076Y0106400D02*
X0141801Y0106400D01*
X0141801Y0107399D02*
X0135076Y0107399D01*
X0135076Y0108397D02*
X0141801Y0108397D01*
X0141801Y0109396D02*
X0135076Y0109396D01*
X0135076Y0110394D02*
X0141801Y0110394D01*
X0141801Y0111393D02*
X0135076Y0111393D01*
X0135076Y0112391D02*
X0141801Y0112391D01*
X0141801Y0113390D02*
X0135076Y0113390D01*
X0135076Y0114388D02*
X0141801Y0114388D01*
X0141801Y0115387D02*
X0135076Y0115387D01*
X0135076Y0116385D02*
X0141801Y0116385D01*
X0141801Y0117384D02*
X0135076Y0117384D01*
X0135076Y0118382D02*
X0141801Y0118382D01*
X0141801Y0119381D02*
X0135076Y0119381D01*
X0135354Y0120379D02*
X0141510Y0120379D01*
X0140904Y0121378D02*
X0135960Y0121378D01*
X0135960Y0122376D02*
X0140904Y0122376D01*
X0140904Y0123375D02*
X0135960Y0123375D01*
X0135960Y0124373D02*
X0140904Y0124373D01*
X0141468Y0125372D02*
X0135395Y0125372D01*
X0135960Y0126370D02*
X0140904Y0126370D01*
X0140904Y0127369D02*
X0135960Y0127369D01*
X0135960Y0128367D02*
X0140904Y0128367D01*
X0140904Y0129366D02*
X0135960Y0129366D01*
X0135521Y0130364D02*
X0141311Y0130364D01*
X0138294Y0131363D02*
X0137532Y0131363D01*
X0131607Y0133360D02*
X0123132Y0133360D01*
X0123117Y0134358D02*
X0132199Y0134358D01*
X0131201Y0135357D02*
X0124115Y0135357D01*
X0123782Y0132361D02*
X0130813Y0132361D01*
X0130813Y0131363D02*
X0123782Y0131363D01*
X0124315Y0130364D02*
X0130281Y0130364D01*
X0129842Y0129366D02*
X0124754Y0129366D01*
X0124754Y0128367D02*
X0129842Y0128367D01*
X0129842Y0127369D02*
X0124754Y0127369D01*
X0124754Y0126370D02*
X0129842Y0126370D01*
X0130406Y0125372D02*
X0124189Y0125372D01*
X0124754Y0124373D02*
X0129842Y0124373D01*
X0129842Y0123375D02*
X0124754Y0123375D01*
X0124754Y0122376D02*
X0129842Y0122376D01*
X0129842Y0121378D02*
X0124754Y0121378D01*
X0124176Y0120379D02*
X0130447Y0120379D01*
X0130901Y0119381D02*
X0124176Y0119381D01*
X0124176Y0118382D02*
X0130901Y0118382D01*
X0130901Y0117384D02*
X0124176Y0117384D01*
X0124176Y0116385D02*
X0130901Y0116385D01*
X0130901Y0115387D02*
X0124176Y0115387D01*
X0124176Y0114388D02*
X0130901Y0114388D01*
X0130901Y0113390D02*
X0124176Y0113390D01*
X0124176Y0112391D02*
X0130901Y0112391D01*
X0130901Y0111393D02*
X0124176Y0111393D01*
X0124176Y0110394D02*
X0130901Y0110394D01*
X0130901Y0109396D02*
X0124176Y0109396D01*
X0124176Y0108397D02*
X0130901Y0108397D01*
X0130901Y0107399D02*
X0124176Y0107399D01*
X0124176Y0106400D02*
X0130901Y0106400D01*
X0130901Y0105402D02*
X0124176Y0105402D01*
X0124176Y0104403D02*
X0130901Y0104403D01*
X0130781Y0103404D02*
X0124296Y0103404D01*
X0125294Y0102406D02*
X0129782Y0102406D01*
X0128784Y0101407D02*
X0126293Y0101407D01*
X0126376Y0100409D02*
X0128701Y0100409D01*
X0128701Y0099410D02*
X0126376Y0099410D01*
X0126376Y0098412D02*
X0128701Y0098412D01*
X0129060Y0097413D02*
X0126016Y0097413D01*
X0125018Y0096415D02*
X0130059Y0096415D01*
X0131057Y0095416D02*
X0124019Y0095416D01*
X0125597Y0092421D02*
X0118679Y0092421D01*
X0119678Y0091422D02*
X0124598Y0091422D01*
X0123600Y0090424D02*
X0120676Y0090424D01*
X0120976Y0089425D02*
X0123301Y0089425D01*
X0123301Y0088427D02*
X0120976Y0088427D01*
X0120976Y0087428D02*
X0123301Y0087428D01*
X0123444Y0086430D02*
X0120832Y0086430D01*
X0119834Y0085431D02*
X0124442Y0085431D01*
X0125441Y0084433D02*
X0118835Y0084433D01*
X0118635Y0083434D02*
X0125705Y0083434D01*
X0125705Y0082436D02*
X0118635Y0082436D01*
X0118635Y0081437D02*
X0125705Y0081437D01*
X0125705Y0080439D02*
X0118635Y0080439D01*
X0118635Y0079440D02*
X0125705Y0079440D01*
X0125705Y0078442D02*
X0118635Y0078442D01*
X0118635Y0077443D02*
X0125705Y0077443D01*
X0125705Y0076445D02*
X0118635Y0076445D01*
X0118635Y0075446D02*
X0125705Y0075446D01*
X0125705Y0074448D02*
X0118635Y0074448D01*
X0118635Y0073449D02*
X0125705Y0073449D01*
X0125705Y0072451D02*
X0118635Y0072451D01*
X0118635Y0071452D02*
X0125705Y0071452D01*
X0125705Y0070454D02*
X0118635Y0070454D01*
X0118635Y0069455D02*
X0125705Y0069455D01*
X0125705Y0068457D02*
X0118635Y0068457D01*
X0119285Y0067458D02*
X0125448Y0067458D01*
X0124733Y0066460D02*
X0119606Y0066460D01*
X0119606Y0065461D02*
X0124733Y0065461D01*
X0124733Y0064463D02*
X0119606Y0064463D01*
X0119606Y0063464D02*
X0124733Y0063464D01*
X0125189Y0062466D02*
X0119160Y0062466D01*
X0119606Y0061467D02*
X0124733Y0061467D01*
X0124733Y0060468D02*
X0119606Y0060468D01*
X0119606Y0059470D02*
X0124733Y0059470D01*
X0124733Y0058471D02*
X0119606Y0058471D01*
X0118883Y0057473D02*
X0125063Y0057473D01*
X0125705Y0056474D02*
X0118635Y0056474D01*
X0118635Y0055476D02*
X0126322Y0055476D01*
X0127321Y0054477D02*
X0117899Y0054477D01*
X0118898Y0053479D02*
X0127632Y0053479D01*
X0123068Y0052480D02*
X0121914Y0052480D01*
X0114212Y0057473D02*
X0109170Y0057473D01*
X0108755Y0058471D02*
X0113488Y0058471D01*
X0113488Y0059470D02*
X0108755Y0059470D01*
X0108755Y0060468D02*
X0113488Y0060468D01*
X0113488Y0061467D02*
X0108755Y0061467D01*
X0108309Y0062466D02*
X0113935Y0062466D01*
X0113488Y0063464D02*
X0108755Y0063464D01*
X0108755Y0064463D02*
X0113488Y0064463D01*
X0113488Y0065461D02*
X0108755Y0065461D01*
X0108755Y0066460D02*
X0113488Y0066460D01*
X0113809Y0067458D02*
X0108434Y0067458D01*
X0107783Y0068457D02*
X0114460Y0068457D01*
X0114460Y0069455D02*
X0107783Y0069455D01*
X0107783Y0070454D02*
X0114460Y0070454D01*
X0114460Y0071452D02*
X0107783Y0071452D01*
X0107783Y0072451D02*
X0114460Y0072451D01*
X0114460Y0073449D02*
X0107783Y0073449D01*
X0107783Y0074448D02*
X0114460Y0074448D01*
X0114460Y0075446D02*
X0107783Y0075446D01*
X0107783Y0076445D02*
X0114460Y0076445D01*
X0114460Y0077443D02*
X0107783Y0077443D01*
X0107783Y0078442D02*
X0114460Y0078442D01*
X0114460Y0079440D02*
X0107783Y0079440D01*
X0107783Y0080439D02*
X0114460Y0080439D01*
X0114460Y0081437D02*
X0107783Y0081437D01*
X0107783Y0082436D02*
X0114460Y0082436D01*
X0114460Y0083434D02*
X0107783Y0083434D01*
X0107935Y0084433D02*
X0114460Y0084433D01*
X0113542Y0085431D02*
X0108934Y0085431D01*
X0109932Y0086430D02*
X0112544Y0086430D01*
X0112401Y0087428D02*
X0110076Y0087428D01*
X0110076Y0088427D02*
X0112401Y0088427D01*
X0112401Y0089425D02*
X0110076Y0089425D01*
X0109776Y0090424D02*
X0112700Y0090424D01*
X0113698Y0091422D02*
X0108778Y0091422D01*
X0107779Y0092421D02*
X0114697Y0092421D01*
X0113219Y0095416D02*
X0120157Y0095416D01*
X0119159Y0096415D02*
X0114218Y0096415D01*
X0115216Y0097413D02*
X0118160Y0097413D01*
X0117801Y0098412D02*
X0115576Y0098412D01*
X0115576Y0099410D02*
X0117801Y0099410D01*
X0117801Y0100409D02*
X0115576Y0100409D01*
X0115493Y0101407D02*
X0117884Y0101407D01*
X0118882Y0102406D02*
X0114494Y0102406D01*
X0113496Y0103404D02*
X0119881Y0103404D01*
X0120001Y0104403D02*
X0113376Y0104403D01*
X0113376Y0105402D02*
X0120001Y0105402D01*
X0120001Y0106400D02*
X0113376Y0106400D01*
X0113376Y0107399D02*
X0120001Y0107399D01*
X0120001Y0108397D02*
X0113376Y0108397D01*
X0113376Y0109396D02*
X0120001Y0109396D01*
X0120001Y0110394D02*
X0113376Y0110394D01*
X0113376Y0111393D02*
X0120001Y0111393D01*
X0120001Y0112391D02*
X0113376Y0112391D01*
X0113376Y0113390D02*
X0120001Y0113390D01*
X0120001Y0114388D02*
X0113376Y0114388D01*
X0113376Y0115387D02*
X0120001Y0115387D01*
X0120001Y0116385D02*
X0113376Y0116385D01*
X0113376Y0117384D02*
X0120001Y0117384D01*
X0120001Y0118382D02*
X0113376Y0118382D01*
X0113376Y0119381D02*
X0120001Y0119381D01*
X0119241Y0120379D02*
X0113873Y0120379D01*
X0114479Y0121378D02*
X0118635Y0121378D01*
X0118635Y0122376D02*
X0114479Y0122376D01*
X0114479Y0123375D02*
X0118635Y0123375D01*
X0118635Y0124373D02*
X0114479Y0124373D01*
X0113914Y0125372D02*
X0119200Y0125372D01*
X0118635Y0126370D02*
X0114479Y0126370D01*
X0114479Y0127369D02*
X0118635Y0127369D01*
X0118635Y0128367D02*
X0114479Y0128367D01*
X0114479Y0129366D02*
X0118635Y0129366D01*
X0119074Y0130364D02*
X0114040Y0130364D01*
X0116445Y0131363D02*
X0117207Y0131363D01*
X0111112Y0134358D02*
X0101347Y0134358D01*
X0100720Y0133360D02*
X0110520Y0133360D01*
X0109521Y0132361D02*
X0101718Y0132361D01*
X0102360Y0131363D02*
X0109332Y0131363D01*
X0108800Y0130364D02*
X0102952Y0130364D01*
X0103331Y0129366D02*
X0108361Y0129366D01*
X0108361Y0128367D02*
X0103331Y0128367D01*
X0103331Y0127369D02*
X0108361Y0127369D01*
X0108361Y0126370D02*
X0103331Y0126370D01*
X0102826Y0125372D02*
X0108925Y0125372D01*
X0108361Y0124373D02*
X0103331Y0124373D01*
X0103331Y0123375D02*
X0108361Y0123375D01*
X0108361Y0122376D02*
X0103331Y0122376D01*
X0103331Y0121378D02*
X0108361Y0121378D01*
X0108966Y0120379D02*
X0102667Y0120379D01*
X0102476Y0119381D02*
X0109201Y0119381D01*
X0109201Y0118382D02*
X0102476Y0118382D01*
X0102476Y0117384D02*
X0109201Y0117384D01*
X0109201Y0116385D02*
X0102476Y0116385D01*
X0102476Y0115387D02*
X0109201Y0115387D01*
X0109201Y0114388D02*
X0102476Y0114388D01*
X0102476Y0113390D02*
X0109201Y0113390D01*
X0109201Y0112391D02*
X0102476Y0112391D01*
X0102476Y0111393D02*
X0109201Y0111393D01*
X0109201Y0110394D02*
X0102476Y0110394D01*
X0102476Y0109396D02*
X0109201Y0109396D01*
X0109201Y0108397D02*
X0102476Y0108397D01*
X0102476Y0107399D02*
X0109201Y0107399D01*
X0109201Y0106400D02*
X0102476Y0106400D01*
X0102476Y0105402D02*
X0109201Y0105402D01*
X0109201Y0104403D02*
X0102476Y0104403D01*
X0102596Y0103404D02*
X0109081Y0103404D01*
X0108082Y0102406D02*
X0103594Y0102406D01*
X0104593Y0101407D02*
X0107084Y0101407D01*
X0107001Y0100409D02*
X0104676Y0100409D01*
X0104676Y0099410D02*
X0107001Y0099410D01*
X0107001Y0098412D02*
X0104676Y0098412D01*
X0104316Y0097413D02*
X0107360Y0097413D01*
X0108359Y0096415D02*
X0103318Y0096415D01*
X0102319Y0095416D02*
X0109357Y0095416D01*
X0103797Y0092421D02*
X0096979Y0092421D01*
X0097978Y0091422D02*
X0102798Y0091422D01*
X0101800Y0090424D02*
X0098976Y0090424D01*
X0099276Y0089425D02*
X0101501Y0089425D01*
X0101501Y0088427D02*
X0099276Y0088427D01*
X0099276Y0087428D02*
X0101501Y0087428D01*
X0101644Y0086430D02*
X0099132Y0086430D01*
X0098134Y0085431D02*
X0102642Y0085431D01*
X0103609Y0084433D02*
X0097182Y0084433D01*
X0097182Y0083434D02*
X0103609Y0083434D01*
X0103609Y0082436D02*
X0097182Y0082436D01*
X0097182Y0081437D02*
X0103609Y0081437D01*
X0103609Y0080439D02*
X0097182Y0080439D01*
X0097182Y0079440D02*
X0103609Y0079440D01*
X0103609Y0078442D02*
X0097182Y0078442D01*
X0097182Y0077443D02*
X0103609Y0077443D01*
X0103609Y0076445D02*
X0097182Y0076445D01*
X0097182Y0075446D02*
X0103609Y0075446D01*
X0103609Y0074448D02*
X0097182Y0074448D01*
X0097182Y0073449D02*
X0103609Y0073449D01*
X0103609Y0072451D02*
X0097182Y0072451D01*
X0097182Y0071452D02*
X0103609Y0071452D01*
X0103609Y0070454D02*
X0097182Y0070454D01*
X0097182Y0069455D02*
X0103609Y0069455D01*
X0103609Y0068457D02*
X0097182Y0068457D01*
X0097833Y0067458D02*
X0102958Y0067458D01*
X0102637Y0066460D02*
X0098154Y0066460D01*
X0098154Y0065461D02*
X0102637Y0065461D01*
X0102637Y0064463D02*
X0098154Y0064463D01*
X0098154Y0063464D02*
X0102637Y0063464D01*
X0103083Y0062466D02*
X0097707Y0062466D01*
X0098154Y0061467D02*
X0102637Y0061467D01*
X0102637Y0060468D02*
X0098154Y0060468D01*
X0098154Y0059470D02*
X0102637Y0059470D01*
X0102637Y0058471D02*
X0098154Y0058471D01*
X0097430Y0057473D02*
X0103361Y0057473D01*
X0104265Y0056474D02*
X0097182Y0056474D01*
X0096315Y0055476D02*
X0105263Y0055476D01*
X0106262Y0054477D02*
X0096446Y0054477D01*
X0097445Y0053479D02*
X0105785Y0053479D01*
X0101616Y0052480D02*
X0100462Y0052480D01*
X0092408Y0057473D02*
X0086681Y0057473D01*
X0087053Y0058471D02*
X0092035Y0058471D01*
X0092035Y0059470D02*
X0087053Y0059470D01*
X0087053Y0060468D02*
X0092035Y0060468D01*
X0092035Y0061467D02*
X0087053Y0061467D01*
X0086606Y0062466D02*
X0092482Y0062466D01*
X0092035Y0063464D02*
X0087053Y0063464D01*
X0087053Y0064463D02*
X0092035Y0064463D01*
X0092035Y0065461D02*
X0087053Y0065461D01*
X0087053Y0066460D02*
X0092035Y0066460D01*
X0092356Y0067458D02*
X0086732Y0067458D01*
X0086081Y0068457D02*
X0093007Y0068457D01*
X0093007Y0069455D02*
X0086081Y0069455D01*
X0086081Y0070454D02*
X0093007Y0070454D01*
X0093007Y0071452D02*
X0086081Y0071452D01*
X0086081Y0072451D02*
X0093007Y0072451D01*
X0093007Y0073449D02*
X0086081Y0073449D01*
X0086081Y0074448D02*
X0093007Y0074448D01*
X0093007Y0075446D02*
X0086081Y0075446D01*
X0086081Y0076445D02*
X0093007Y0076445D01*
X0093007Y0077443D02*
X0086081Y0077443D01*
X0086081Y0078442D02*
X0093007Y0078442D01*
X0093007Y0079440D02*
X0086081Y0079440D01*
X0086081Y0080439D02*
X0093007Y0080439D01*
X0093007Y0081437D02*
X0086081Y0081437D01*
X0086081Y0082436D02*
X0093007Y0082436D01*
X0093007Y0083434D02*
X0086081Y0083434D01*
X0086235Y0084433D02*
X0092841Y0084433D01*
X0091842Y0085431D02*
X0087234Y0085431D01*
X0088232Y0086430D02*
X0090844Y0086430D01*
X0090701Y0087428D02*
X0088376Y0087428D01*
X0088376Y0088427D02*
X0090701Y0088427D01*
X0090701Y0089425D02*
X0088376Y0089425D01*
X0088076Y0090424D02*
X0091000Y0090424D01*
X0091998Y0091422D02*
X0087078Y0091422D01*
X0086079Y0092421D02*
X0092997Y0092421D01*
X0091419Y0095416D02*
X0098457Y0095416D01*
X0097459Y0096415D02*
X0092418Y0096415D01*
X0093416Y0097413D02*
X0096460Y0097413D01*
X0096101Y0098412D02*
X0093776Y0098412D01*
X0093776Y0099410D02*
X0096101Y0099410D01*
X0096101Y0100409D02*
X0093776Y0100409D01*
X0093693Y0101407D02*
X0096184Y0101407D01*
X0097182Y0102406D02*
X0092694Y0102406D01*
X0091696Y0103404D02*
X0098181Y0103404D01*
X0098301Y0104403D02*
X0091576Y0104403D01*
X0091576Y0105402D02*
X0098301Y0105402D01*
X0098301Y0106400D02*
X0091576Y0106400D01*
X0091576Y0107399D02*
X0098301Y0107399D01*
X0098301Y0108397D02*
X0091576Y0108397D01*
X0091576Y0109396D02*
X0098301Y0109396D01*
X0098301Y0110394D02*
X0091576Y0110394D01*
X0091576Y0111393D02*
X0098301Y0111393D01*
X0098301Y0112391D02*
X0091576Y0112391D01*
X0091576Y0113390D02*
X0098301Y0113390D01*
X0098301Y0114388D02*
X0091576Y0114388D01*
X0091576Y0115387D02*
X0098301Y0115387D01*
X0098301Y0116385D02*
X0091576Y0116385D01*
X0091576Y0117384D02*
X0098301Y0117384D01*
X0098301Y0118382D02*
X0091576Y0118382D01*
X0091576Y0119381D02*
X0098301Y0119381D01*
X0097878Y0120379D02*
X0091795Y0120379D01*
X0092460Y0121378D02*
X0097213Y0121378D01*
X0097213Y0122376D02*
X0092460Y0122376D01*
X0092460Y0123375D02*
X0097213Y0123375D01*
X0097213Y0124373D02*
X0092460Y0124373D01*
X0091954Y0125372D02*
X0097719Y0125372D01*
X0097213Y0126370D02*
X0092460Y0126370D01*
X0092460Y0127369D02*
X0097213Y0127369D01*
X0097213Y0128367D02*
X0092460Y0128367D01*
X0092460Y0129366D02*
X0097213Y0129366D01*
X0097593Y0130364D02*
X0092080Y0130364D01*
X0094032Y0131363D02*
X0094794Y0131363D01*
X0088699Y0134358D02*
X0079290Y0134358D01*
X0079882Y0133360D02*
X0088107Y0133360D01*
X0087313Y0132361D02*
X0080880Y0132361D01*
X0081069Y0131363D02*
X0087313Y0131363D01*
X0086722Y0130364D02*
X0081661Y0130364D01*
X0082041Y0129366D02*
X0086342Y0129366D01*
X0086342Y0128367D02*
X0082041Y0128367D01*
X0082041Y0127369D02*
X0086342Y0127369D01*
X0086342Y0126370D02*
X0082041Y0126370D01*
X0081536Y0125372D02*
X0086847Y0125372D01*
X0086342Y0124373D02*
X0082041Y0124373D01*
X0082041Y0123375D02*
X0086342Y0123375D01*
X0086342Y0122376D02*
X0082041Y0122376D01*
X0082041Y0121378D02*
X0086342Y0121378D01*
X0087006Y0120379D02*
X0081376Y0120379D01*
X0080776Y0119381D02*
X0087401Y0119381D01*
X0087401Y0118382D02*
X0080776Y0118382D01*
X0080776Y0117384D02*
X0087401Y0117384D01*
X0087401Y0116385D02*
X0080776Y0116385D01*
X0080776Y0115387D02*
X0087401Y0115387D01*
X0087401Y0114388D02*
X0080776Y0114388D01*
X0080776Y0113390D02*
X0087401Y0113390D01*
X0087401Y0112391D02*
X0080776Y0112391D01*
X0080776Y0111393D02*
X0087401Y0111393D01*
X0087401Y0110394D02*
X0080776Y0110394D01*
X0080776Y0109396D02*
X0087401Y0109396D01*
X0087401Y0108397D02*
X0080776Y0108397D01*
X0080776Y0107399D02*
X0087401Y0107399D01*
X0087401Y0106400D02*
X0080776Y0106400D01*
X0080776Y0105402D02*
X0087401Y0105402D01*
X0087401Y0104403D02*
X0080776Y0104403D01*
X0080896Y0103404D02*
X0087281Y0103404D01*
X0086282Y0102406D02*
X0081894Y0102406D01*
X0082893Y0101407D02*
X0085284Y0101407D01*
X0085201Y0100409D02*
X0082976Y0100409D01*
X0082976Y0099410D02*
X0085201Y0099410D01*
X0085201Y0098412D02*
X0082976Y0098412D01*
X0082616Y0097413D02*
X0085560Y0097413D01*
X0086559Y0096415D02*
X0081618Y0096415D01*
X0080619Y0095416D02*
X0087557Y0095416D01*
X0082097Y0092421D02*
X0075179Y0092421D01*
X0076178Y0091422D02*
X0081098Y0091422D01*
X0080100Y0090424D02*
X0077176Y0090424D01*
X0077476Y0089425D02*
X0079801Y0089425D01*
X0079801Y0088427D02*
X0077476Y0088427D01*
X0077476Y0087428D02*
X0079801Y0087428D01*
X0079944Y0086430D02*
X0077332Y0086430D01*
X0076334Y0085431D02*
X0080942Y0085431D01*
X0081906Y0084433D02*
X0075335Y0084433D01*
X0075230Y0083434D02*
X0081906Y0083434D01*
X0081906Y0082436D02*
X0075230Y0082436D01*
X0075230Y0081437D02*
X0081906Y0081437D01*
X0081906Y0080439D02*
X0075230Y0080439D01*
X0075230Y0079440D02*
X0081906Y0079440D01*
X0081906Y0078442D02*
X0075230Y0078442D01*
X0075230Y0077443D02*
X0081906Y0077443D01*
X0081906Y0076445D02*
X0075230Y0076445D01*
X0075230Y0075446D02*
X0081906Y0075446D01*
X0081906Y0074448D02*
X0075230Y0074448D01*
X0075230Y0073449D02*
X0081906Y0073449D01*
X0081906Y0072451D02*
X0075230Y0072451D01*
X0075230Y0071452D02*
X0081906Y0071452D01*
X0081906Y0070454D02*
X0075230Y0070454D01*
X0075230Y0069455D02*
X0081906Y0069455D01*
X0081906Y0068457D02*
X0075230Y0068457D01*
X0075881Y0067458D02*
X0081256Y0067458D01*
X0080935Y0066460D02*
X0076202Y0066460D01*
X0076202Y0065461D02*
X0080935Y0065461D01*
X0080935Y0064463D02*
X0076202Y0064463D01*
X0076202Y0063464D02*
X0080935Y0063464D01*
X0081381Y0062466D02*
X0075755Y0062466D01*
X0076202Y0061467D02*
X0080935Y0061467D01*
X0080935Y0060468D02*
X0076202Y0060468D01*
X0076202Y0059470D02*
X0080935Y0059470D01*
X0080935Y0058471D02*
X0076202Y0058471D01*
X0075478Y0057473D02*
X0081658Y0057473D01*
X0081906Y0056474D02*
X0072778Y0056474D01*
X0072778Y0055476D02*
X0082774Y0055476D01*
X0083772Y0054477D02*
X0073707Y0054477D01*
X0074705Y0053479D02*
X0083295Y0053479D01*
X0078876Y0052480D02*
X0077722Y0052480D01*
X0068025Y0057473D02*
X0067367Y0057473D01*
X0066378Y0058471D02*
X0068554Y0058471D01*
X0069553Y0059470D02*
X0065380Y0059470D01*
X0064381Y0060468D02*
X0070083Y0060468D01*
X0070083Y0061467D02*
X0063383Y0061467D01*
X0062384Y0062466D02*
X0070530Y0062466D01*
X0070083Y0063464D02*
X0069647Y0063464D01*
X0069929Y0064463D02*
X0070083Y0064463D01*
X0070083Y0065461D02*
X0069929Y0065461D01*
X0069929Y0066460D02*
X0070083Y0066460D01*
X0069929Y0067458D02*
X0070404Y0067458D01*
X0069929Y0068457D02*
X0071055Y0068457D01*
X0071055Y0069455D02*
X0069649Y0069455D01*
X0071055Y0070454D02*
X0061483Y0070454D01*
X0060484Y0071452D02*
X0063160Y0071452D01*
X0062992Y0072451D02*
X0059486Y0072451D01*
X0058487Y0073449D02*
X0062426Y0073449D01*
X0061427Y0074448D02*
X0057489Y0074448D01*
X0056737Y0075446D02*
X0060429Y0075446D01*
X0059430Y0076445D02*
X0056737Y0076445D01*
X0056737Y0077443D02*
X0058468Y0077443D01*
X0058468Y0078442D02*
X0056737Y0078442D01*
X0056737Y0079440D02*
X0058468Y0079440D01*
X0058468Y0080439D02*
X0056737Y0080439D01*
X0056737Y0081437D02*
X0058468Y0081437D01*
X0058468Y0082436D02*
X0056737Y0082436D01*
X0056737Y0083434D02*
X0058468Y0083434D01*
X0058468Y0084433D02*
X0056737Y0084433D01*
X0056737Y0085431D02*
X0058468Y0085431D01*
X0058468Y0086430D02*
X0056737Y0086430D01*
X0056737Y0087428D02*
X0058468Y0087428D01*
X0058468Y0088427D02*
X0056737Y0088427D01*
X0056737Y0089425D02*
X0058468Y0089425D01*
X0058468Y0090424D02*
X0056737Y0090424D01*
X0056737Y0091422D02*
X0058468Y0091422D01*
X0058468Y0092421D02*
X0056737Y0092421D01*
X0056737Y0093419D02*
X0058468Y0093419D01*
X0058468Y0094418D02*
X0056737Y0094418D01*
X0056737Y0095416D02*
X0058468Y0095416D01*
X0058468Y0096415D02*
X0056737Y0096415D01*
X0056737Y0097413D02*
X0058468Y0097413D01*
X0058468Y0098412D02*
X0056737Y0098412D01*
X0056737Y0099410D02*
X0058468Y0099410D01*
X0058468Y0100409D02*
X0056737Y0100409D01*
X0056737Y0101407D02*
X0058468Y0101407D01*
X0058468Y0102406D02*
X0056737Y0102406D01*
X0056737Y0103404D02*
X0058468Y0103404D01*
X0052562Y0093419D02*
X0052088Y0093419D01*
X0051989Y0092421D02*
X0052562Y0092421D01*
X0052562Y0091422D02*
X0051807Y0091422D01*
X0051538Y0090424D02*
X0052562Y0090424D01*
X0052562Y0089425D02*
X0051174Y0089425D01*
X0050693Y0088427D02*
X0052562Y0088427D01*
X0052562Y0087428D02*
X0050073Y0087428D01*
X0049301Y0086430D02*
X0052562Y0086430D01*
X0052562Y0085431D02*
X0048334Y0085431D01*
X0047059Y0084433D02*
X0052562Y0084433D01*
X0052562Y0083434D02*
X0045259Y0083434D01*
X0041088Y0083434D02*
X0040088Y0083434D01*
X0040088Y0084433D02*
X0041088Y0084433D01*
X0041088Y0085431D02*
X0040088Y0085431D01*
X0040088Y0086430D02*
X0041088Y0086430D01*
X0041088Y0087428D02*
X0040088Y0087428D01*
X0040088Y0088427D02*
X0041088Y0088427D01*
X0041088Y0089425D02*
X0040088Y0089425D01*
X0040088Y0090424D02*
X0041088Y0090424D01*
X0041088Y0091422D02*
X0040088Y0091422D01*
X0040088Y0092421D02*
X0041088Y0092421D01*
X0041088Y0093419D02*
X0040088Y0093419D01*
X0040088Y0096415D02*
X0041088Y0096415D01*
X0041088Y0097413D02*
X0040088Y0097413D01*
X0040088Y0098412D02*
X0041088Y0098412D01*
X0041088Y0099410D02*
X0040088Y0099410D01*
X0040088Y0100409D02*
X0041088Y0100409D01*
X0041088Y0101407D02*
X0040088Y0101407D01*
X0040088Y0102406D02*
X0041088Y0102406D01*
X0041088Y0103404D02*
X0040088Y0103404D01*
X0040088Y0104403D02*
X0041088Y0104403D01*
X0029088Y0093419D02*
X0018748Y0093419D01*
X0018748Y0092421D02*
X0029188Y0092421D01*
X0029369Y0091422D02*
X0018748Y0091422D01*
X0018748Y0090424D02*
X0029638Y0090424D01*
X0030003Y0089425D02*
X0018748Y0089425D01*
X0018748Y0088427D02*
X0030483Y0088427D01*
X0031104Y0087428D02*
X0018748Y0087428D01*
X0018748Y0086430D02*
X0031875Y0086430D01*
X0032842Y0085431D02*
X0018748Y0085431D01*
X0018748Y0084433D02*
X0034118Y0084433D01*
X0035917Y0083434D02*
X0018748Y0083434D01*
X0018748Y0082436D02*
X0052562Y0082436D01*
X0052562Y0081437D02*
X0018748Y0081437D01*
X0018748Y0080439D02*
X0052562Y0080439D01*
X0052562Y0079440D02*
X0018748Y0079440D01*
X0018748Y0078442D02*
X0052562Y0078442D01*
X0052562Y0077443D02*
X0018748Y0077443D01*
X0018748Y0076445D02*
X0052562Y0076445D01*
X0052562Y0075446D02*
X0018748Y0075446D01*
X0018748Y0074448D02*
X0052562Y0074448D01*
X0052583Y0073449D02*
X0018748Y0073449D01*
X0018748Y0072451D02*
X0053582Y0072451D01*
X0054580Y0071452D02*
X0018748Y0071452D01*
X0018748Y0070454D02*
X0055579Y0070454D01*
X0056577Y0069455D02*
X0018748Y0069455D01*
X0018748Y0068457D02*
X0052037Y0068457D01*
X0051969Y0067458D02*
X0018748Y0067458D01*
X0018748Y0066460D02*
X0051969Y0066460D01*
X0051969Y0065461D02*
X0018748Y0065461D01*
X0018748Y0064463D02*
X0051969Y0064463D01*
X0051969Y0063464D02*
X0018748Y0063464D01*
X0018748Y0062466D02*
X0052462Y0062466D01*
X0053287Y0059470D02*
X0018748Y0059470D01*
X0018748Y0060468D02*
X0058477Y0060468D01*
X0057479Y0061467D02*
X0018748Y0061467D01*
X0018748Y0058471D02*
X0053150Y0058471D01*
X0053150Y0057473D02*
X0018748Y0057473D01*
X0018748Y0056474D02*
X0053150Y0056474D01*
X0053150Y0055476D02*
X0018748Y0055476D01*
X0018748Y0054477D02*
X0053150Y0054477D01*
X0053574Y0053479D02*
X0018748Y0053479D01*
X0018748Y0052480D02*
X0054531Y0052480D01*
X0054531Y0051482D02*
X0018748Y0051482D01*
X0018748Y0050483D02*
X0054531Y0050483D01*
X0054531Y0049485D02*
X0018748Y0049485D01*
X0018748Y0048486D02*
X0054531Y0048486D01*
X0054531Y0047488D02*
X0018748Y0047488D01*
X0018748Y0046489D02*
X0054531Y0046489D01*
X0054531Y0045491D02*
X0018748Y0045491D01*
X0018748Y0044492D02*
X0054531Y0044492D01*
X0054531Y0043494D02*
X0018748Y0043494D01*
X0018748Y0042495D02*
X0054531Y0042495D01*
X0054531Y0041497D02*
X0018748Y0041497D01*
X0018748Y0040498D02*
X0054531Y0040498D01*
X0054531Y0039500D02*
X0018748Y0039500D01*
X0018748Y0038501D02*
X0054951Y0038501D01*
X0055950Y0037503D02*
X0018748Y0037503D01*
X0018748Y0036504D02*
X0056948Y0036504D01*
X0057947Y0035506D02*
X0018748Y0035506D01*
X0018748Y0034507D02*
X0058945Y0034507D01*
X0059944Y0033509D02*
X0018748Y0033509D01*
X0018748Y0032510D02*
X0060943Y0032510D01*
X0061941Y0031512D02*
X0018748Y0031512D01*
X0018748Y0030513D02*
X0062329Y0030513D01*
X0062329Y0029515D02*
X0018748Y0029515D01*
X0018748Y0028516D02*
X0062918Y0028516D01*
X0067071Y0028516D02*
X0068036Y0028516D01*
X0071851Y0027518D02*
X0018748Y0027518D01*
X0018748Y0026519D02*
X0072516Y0026519D01*
X0071517Y0025521D02*
X0018748Y0025521D01*
X0018748Y0024522D02*
X0071055Y0024522D01*
X0071055Y0023524D02*
X0018748Y0023524D01*
X0018748Y0022525D02*
X0070297Y0022525D01*
X0070083Y0021527D02*
X0018748Y0021527D01*
X0018748Y0020528D02*
X0070083Y0020528D01*
X0070083Y0019530D02*
X0018748Y0019530D01*
X0018748Y0018531D02*
X0070083Y0018531D01*
X0070142Y0017533D02*
X0018748Y0017533D01*
X0018748Y0016534D02*
X0069871Y0016534D01*
X0069871Y0015535D02*
X0018748Y0015535D01*
X0018748Y0014537D02*
X0069871Y0014537D01*
X0069916Y0013538D02*
X0018748Y0013538D01*
X0018748Y0012540D02*
X0070735Y0012540D01*
X0072954Y0012540D02*
X0073331Y0012540D01*
X0073331Y0013538D02*
X0072954Y0013538D01*
X0072954Y0014537D02*
X0073331Y0014537D01*
X0075550Y0012540D02*
X0081586Y0012540D01*
X0080767Y0013538D02*
X0076369Y0013538D01*
X0076414Y0014537D02*
X0080722Y0014537D01*
X0080722Y0015535D02*
X0076414Y0015535D01*
X0076414Y0016534D02*
X0080722Y0016534D01*
X0080993Y0017533D02*
X0076143Y0017533D01*
X0076202Y0018531D02*
X0080935Y0018531D01*
X0080935Y0019530D02*
X0076202Y0019530D01*
X0076202Y0020528D02*
X0080935Y0020528D01*
X0080935Y0021527D02*
X0076202Y0021527D01*
X0075988Y0022525D02*
X0081148Y0022525D01*
X0080963Y0023524D02*
X0075424Y0023524D01*
X0084870Y0025521D02*
X0093969Y0025521D01*
X0093151Y0024522D02*
X0085869Y0024522D01*
X0086081Y0023524D02*
X0093151Y0023524D01*
X0092393Y0022525D02*
X0086840Y0022525D01*
X0087053Y0021527D02*
X0092180Y0021527D01*
X0092180Y0020528D02*
X0087053Y0020528D01*
X0087053Y0019530D02*
X0092180Y0019530D01*
X0092180Y0018531D02*
X0087053Y0018531D01*
X0086994Y0017533D02*
X0092238Y0017533D01*
X0091967Y0016534D02*
X0087265Y0016534D01*
X0087265Y0015535D02*
X0091967Y0015535D01*
X0091967Y0015094D02*
X0091967Y0013707D01*
X0092069Y0013326D01*
X0092267Y0012984D01*
X0092546Y0012704D01*
X0092888Y0012507D01*
X0093269Y0012405D01*
X0095050Y0012405D01*
X0095050Y0015094D01*
X0091967Y0015094D01*
X0091967Y0014537D02*
X0087265Y0014537D01*
X0087265Y0015094D02*
X0087265Y0013707D01*
X0087163Y0013326D01*
X0086966Y0012984D01*
X0086686Y0012704D01*
X0086344Y0012507D01*
X0085963Y0012405D01*
X0084183Y0012405D01*
X0084183Y0015094D01*
X0087265Y0015094D01*
X0087220Y0013538D02*
X0092012Y0013538D01*
X0092831Y0012540D02*
X0086401Y0012540D01*
X0084183Y0012540D02*
X0083805Y0012540D01*
X0083805Y0013538D02*
X0084183Y0013538D01*
X0084183Y0014537D02*
X0083805Y0014537D01*
X0095050Y0014537D02*
X0095428Y0014537D01*
X0095428Y0015094D02*
X0095428Y0012405D01*
X0097208Y0012405D01*
X0097589Y0012507D01*
X0097931Y0012704D01*
X0098211Y0012984D01*
X0098408Y0013326D01*
X0098510Y0013707D01*
X0098510Y0015094D01*
X0095428Y0015094D01*
X0095428Y0013538D02*
X0095050Y0013538D01*
X0095050Y0012540D02*
X0095428Y0012540D01*
X0097646Y0012540D02*
X0103288Y0012540D01*
X0102470Y0013538D02*
X0098465Y0013538D01*
X0098510Y0014537D02*
X0102424Y0014537D01*
X0102424Y0015535D02*
X0098510Y0015535D01*
X0098510Y0016534D02*
X0102424Y0016534D01*
X0102696Y0017533D02*
X0098239Y0017533D01*
X0098298Y0018531D02*
X0102637Y0018531D01*
X0102637Y0019530D02*
X0098298Y0019530D01*
X0098298Y0020528D02*
X0102637Y0020528D01*
X0102637Y0021527D02*
X0098298Y0021527D01*
X0098085Y0022525D02*
X0102850Y0022525D01*
X0103609Y0023524D02*
X0097876Y0023524D01*
X0100892Y0024522D02*
X0101185Y0024522D01*
X0107286Y0026519D02*
X0116314Y0026519D01*
X0116148Y0027518D02*
X0108285Y0027518D01*
X0109283Y0028516D02*
X0115150Y0028516D01*
X0115316Y0025521D02*
X0107783Y0025521D01*
X0107783Y0024522D02*
X0114604Y0024522D01*
X0114604Y0023524D02*
X0107783Y0023524D01*
X0108542Y0022525D02*
X0113845Y0022525D01*
X0113632Y0021527D02*
X0108755Y0021527D01*
X0108755Y0020528D02*
X0113632Y0020528D01*
X0113632Y0019530D02*
X0108755Y0019530D01*
X0108755Y0018531D02*
X0113632Y0018531D01*
X0113691Y0017533D02*
X0108696Y0017533D01*
X0108968Y0016534D02*
X0113420Y0016534D01*
X0113420Y0015535D02*
X0108968Y0015535D01*
X0108968Y0015094D02*
X0105885Y0015094D01*
X0105885Y0012405D01*
X0107665Y0012405D01*
X0108047Y0012507D01*
X0108389Y0012704D01*
X0108668Y0012984D01*
X0108865Y0013326D01*
X0108968Y0013707D01*
X0108968Y0015094D01*
X0108968Y0014537D02*
X0113420Y0014537D01*
X0113465Y0013538D02*
X0108922Y0013538D01*
X0108104Y0012540D02*
X0114284Y0012540D01*
X0116502Y0012540D02*
X0116880Y0012540D01*
X0116880Y0013538D02*
X0116502Y0013538D01*
X0116502Y0014537D02*
X0116880Y0014537D01*
X0119099Y0012540D02*
X0125384Y0012540D01*
X0124566Y0013538D02*
X0119918Y0013538D01*
X0119963Y0014537D02*
X0124520Y0014537D01*
X0124520Y0015535D02*
X0119963Y0015535D01*
X0119963Y0016534D02*
X0124520Y0016534D01*
X0124792Y0017533D02*
X0119692Y0017533D01*
X0119750Y0018531D02*
X0124733Y0018531D01*
X0124733Y0019530D02*
X0119750Y0019530D01*
X0119750Y0020528D02*
X0124733Y0020528D01*
X0124733Y0021527D02*
X0119750Y0021527D01*
X0119537Y0022525D02*
X0124946Y0022525D01*
X0125261Y0023524D02*
X0119223Y0023524D01*
X0122240Y0024522D02*
X0122244Y0024522D01*
X0128739Y0026519D02*
X0138305Y0026519D01*
X0138139Y0027518D02*
X0129737Y0027518D01*
X0130736Y0028516D02*
X0137140Y0028516D01*
X0137306Y0025521D02*
X0129168Y0025521D01*
X0129880Y0024522D02*
X0136988Y0024522D01*
X0136988Y0023524D02*
X0129880Y0023524D01*
X0130638Y0022525D02*
X0136230Y0022525D01*
X0136017Y0021527D02*
X0130851Y0021527D01*
X0130851Y0020528D02*
X0136017Y0020528D01*
X0136017Y0019530D02*
X0130851Y0019530D01*
X0130851Y0018531D02*
X0136017Y0018531D01*
X0136075Y0017533D02*
X0130792Y0017533D01*
X0131064Y0016534D02*
X0135804Y0016534D01*
X0135804Y0015535D02*
X0131064Y0015535D01*
X0131064Y0015094D02*
X0127981Y0015094D01*
X0127981Y0012405D01*
X0129761Y0012405D01*
X0130143Y0012507D01*
X0130485Y0012704D01*
X0130764Y0012984D01*
X0130962Y0013326D01*
X0131064Y0013707D01*
X0131064Y0015094D01*
X0131064Y0014537D02*
X0135804Y0014537D01*
X0135804Y0015094D02*
X0135804Y0013707D01*
X0135906Y0013326D01*
X0136104Y0012984D01*
X0136383Y0012704D01*
X0136725Y0012507D01*
X0137106Y0012405D01*
X0138887Y0012405D01*
X0138887Y0015094D01*
X0135804Y0015094D01*
X0135849Y0013538D02*
X0131019Y0013538D01*
X0130200Y0012540D02*
X0136668Y0012540D01*
X0138887Y0012540D02*
X0139265Y0012540D01*
X0139265Y0012405D02*
X0141045Y0012405D01*
X0141426Y0012507D01*
X0141768Y0012704D01*
X0142048Y0012984D01*
X0142245Y0013326D01*
X0142347Y0013707D01*
X0142347Y0015094D01*
X0139265Y0015094D01*
X0139265Y0012405D01*
X0139265Y0013538D02*
X0138887Y0013538D01*
X0138887Y0014537D02*
X0139265Y0014537D01*
X0141483Y0012540D02*
X0146876Y0012540D01*
X0146057Y0013538D02*
X0142302Y0013538D01*
X0142347Y0014537D02*
X0146012Y0014537D01*
X0146012Y0015535D02*
X0142347Y0015535D01*
X0142347Y0016534D02*
X0146012Y0016534D01*
X0146283Y0017533D02*
X0142076Y0017533D01*
X0142135Y0018531D02*
X0146224Y0018531D01*
X0146224Y0019530D02*
X0142135Y0019530D01*
X0142135Y0020528D02*
X0146224Y0020528D01*
X0146224Y0021527D02*
X0142135Y0021527D01*
X0141922Y0022525D02*
X0146437Y0022525D01*
X0147196Y0023524D02*
X0141213Y0023524D01*
X0144230Y0024522D02*
X0144234Y0024522D01*
X0150873Y0026519D02*
X0160939Y0026519D01*
X0160773Y0027518D02*
X0151872Y0027518D01*
X0152871Y0028516D02*
X0159774Y0028516D01*
X0159940Y0025521D02*
X0151158Y0025521D01*
X0151371Y0024522D02*
X0158942Y0024522D01*
X0158441Y0023524D02*
X0151371Y0023524D01*
X0152129Y0022525D02*
X0157469Y0022525D01*
X0157469Y0021527D02*
X0152343Y0021527D01*
X0152343Y0020528D02*
X0157469Y0020528D01*
X0157469Y0019530D02*
X0152343Y0019530D01*
X0152343Y0018531D02*
X0157677Y0018531D01*
X0157384Y0017533D02*
X0152284Y0017533D01*
X0152555Y0016534D02*
X0157257Y0016534D01*
X0160339Y0014537D02*
X0160717Y0014537D01*
X0160717Y0013538D02*
X0160339Y0013538D01*
X0163676Y0013538D02*
X0167838Y0013538D01*
X0167714Y0014537D02*
X0163800Y0014537D01*
X0163800Y0016534D02*
X0167714Y0016534D01*
X0167841Y0017533D02*
X0163673Y0017533D01*
X0163379Y0018531D02*
X0168135Y0018531D01*
X0167927Y0019530D02*
X0163587Y0019530D01*
X0163587Y0020528D02*
X0167927Y0020528D01*
X0167927Y0021527D02*
X0163587Y0021527D01*
X0163587Y0022525D02*
X0167927Y0022525D01*
X0168898Y0023524D02*
X0163847Y0023524D01*
X0166864Y0024522D02*
X0166868Y0024522D01*
X0173073Y0024522D02*
X0179999Y0024522D01*
X0179999Y0023524D02*
X0173073Y0023524D01*
X0174045Y0022525D02*
X0179028Y0022525D01*
X0179028Y0021527D02*
X0174045Y0021527D01*
X0174045Y0020528D02*
X0179028Y0020528D01*
X0179028Y0019530D02*
X0174045Y0019530D01*
X0173837Y0018531D02*
X0179380Y0018531D01*
X0178890Y0017533D02*
X0174130Y0017533D01*
X0174257Y0016534D02*
X0178815Y0016534D01*
X0178815Y0014537D02*
X0174257Y0014537D01*
X0174134Y0013538D02*
X0179022Y0013538D01*
X0181898Y0013538D02*
X0182276Y0013538D01*
X0182276Y0014537D02*
X0181898Y0014537D01*
X0185152Y0013538D02*
X0190122Y0013538D01*
X0189916Y0014537D02*
X0185358Y0014537D01*
X0185358Y0016534D02*
X0189916Y0016534D01*
X0189991Y0017533D02*
X0185283Y0017533D01*
X0184793Y0018531D02*
X0190481Y0018531D01*
X0190128Y0019530D02*
X0185146Y0019530D01*
X0185146Y0020528D02*
X0190128Y0020528D01*
X0190128Y0021527D02*
X0185146Y0021527D01*
X0185146Y0022525D02*
X0190128Y0022525D01*
X0190262Y0023524D02*
X0184224Y0023524D01*
X0187241Y0024522D02*
X0187245Y0024522D01*
X0181316Y0026519D02*
X0172794Y0026519D01*
X0173073Y0025521D02*
X0180317Y0025521D01*
X0181150Y0027518D02*
X0173574Y0027518D01*
X0174573Y0028516D02*
X0180152Y0028516D01*
X0203600Y0015535D02*
X0203978Y0015535D01*
X0203978Y0014537D02*
X0203600Y0014537D01*
X0203600Y0013538D02*
X0203978Y0013538D01*
X0200906Y0013538D02*
X0196252Y0013538D01*
X0196459Y0014537D02*
X0200517Y0014537D01*
X0193376Y0014537D02*
X0192998Y0014537D01*
X0192998Y0013538D02*
X0193376Y0013538D01*
X0171175Y0013538D02*
X0170797Y0013538D01*
X0170797Y0014537D02*
X0171175Y0014537D01*
X0149472Y0014537D02*
X0149094Y0014537D01*
X0149094Y0013538D02*
X0149472Y0013538D01*
X0149472Y0012540D02*
X0149094Y0012540D01*
X0127981Y0012540D02*
X0127603Y0012540D01*
X0127603Y0013538D02*
X0127981Y0013538D01*
X0127981Y0014537D02*
X0127603Y0014537D01*
X0105885Y0014537D02*
X0105507Y0014537D01*
X0105507Y0013538D02*
X0105885Y0013538D01*
X0105885Y0012540D02*
X0105507Y0012540D01*
X0094967Y0026519D02*
X0085046Y0026519D01*
X0086044Y0027518D02*
X0095089Y0027518D01*
X0090027Y0028516D02*
X0089061Y0028516D01*
X0130521Y0057473D02*
X0135914Y0057473D01*
X0135584Y0058471D02*
X0130851Y0058471D01*
X0130851Y0059470D02*
X0135584Y0059470D01*
X0135584Y0060468D02*
X0130851Y0060468D01*
X0130851Y0061467D02*
X0135584Y0061467D01*
X0136040Y0062466D02*
X0130396Y0062466D01*
X0130851Y0063464D02*
X0135584Y0063464D01*
X0135584Y0064463D02*
X0130851Y0064463D01*
X0130851Y0065461D02*
X0135584Y0065461D01*
X0135584Y0066460D02*
X0130851Y0066460D01*
X0130137Y0067458D02*
X0136299Y0067458D01*
X0136556Y0068457D02*
X0129880Y0068457D01*
X0129880Y0069455D02*
X0136556Y0069455D01*
X0136556Y0070454D02*
X0129880Y0070454D01*
X0129880Y0071452D02*
X0136556Y0071452D01*
X0136556Y0072451D02*
X0129880Y0072451D01*
X0129880Y0073449D02*
X0136556Y0073449D01*
X0136556Y0074448D02*
X0129880Y0074448D01*
X0129880Y0075446D02*
X0136556Y0075446D01*
X0136556Y0076445D02*
X0129880Y0076445D01*
X0129880Y0077443D02*
X0136556Y0077443D01*
X0136556Y0078442D02*
X0129880Y0078442D01*
X0129880Y0079440D02*
X0136556Y0079440D01*
X0136556Y0080439D02*
X0129880Y0080439D01*
X0129880Y0081437D02*
X0136556Y0081437D01*
X0136556Y0082436D02*
X0129880Y0082436D01*
X0129880Y0083434D02*
X0136556Y0083434D01*
X0136241Y0084433D02*
X0129880Y0084433D01*
X0130734Y0085431D02*
X0135242Y0085431D01*
X0134244Y0086430D02*
X0131732Y0086430D01*
X0131876Y0087428D02*
X0134101Y0087428D01*
X0134101Y0088427D02*
X0131876Y0088427D01*
X0131876Y0089425D02*
X0134101Y0089425D01*
X0134400Y0090424D02*
X0131576Y0090424D01*
X0130578Y0091422D02*
X0135398Y0091422D01*
X0136397Y0092421D02*
X0129579Y0092421D01*
X0071041Y0084433D02*
X0062643Y0084433D01*
X0062643Y0085431D02*
X0070042Y0085431D01*
X0069044Y0086430D02*
X0062643Y0086430D01*
X0062643Y0087428D02*
X0068901Y0087428D01*
X0068901Y0088427D02*
X0062643Y0088427D01*
X0062643Y0089425D02*
X0068901Y0089425D01*
X0069200Y0090424D02*
X0062643Y0090424D01*
X0062643Y0091422D02*
X0070198Y0091422D01*
X0071055Y0083434D02*
X0062643Y0083434D01*
X0062643Y0082436D02*
X0071055Y0082436D01*
X0071055Y0081437D02*
X0062643Y0081437D01*
X0062643Y0080439D02*
X0071055Y0080439D01*
X0071055Y0079440D02*
X0062643Y0079440D01*
X0063337Y0078442D02*
X0071055Y0078442D01*
X0071055Y0077443D02*
X0069535Y0077443D01*
X0069929Y0076445D02*
X0071055Y0076445D01*
X0071055Y0075446D02*
X0069929Y0075446D01*
X0069929Y0074448D02*
X0071055Y0074448D01*
X0071055Y0073449D02*
X0069929Y0073449D01*
X0069929Y0072451D02*
X0071055Y0072451D01*
X0071055Y0071452D02*
X0069761Y0071452D01*
X0063272Y0069455D02*
X0062481Y0069455D01*
X0059573Y0066460D02*
X0058905Y0066460D01*
X0059389Y0065461D02*
X0060571Y0065461D01*
X0060387Y0064463D02*
X0061570Y0064463D01*
X0061386Y0063464D02*
X0063274Y0063464D01*
X0133246Y0056474D02*
X0133727Y0056474D01*
X0140888Y0053479D02*
X0149478Y0053479D01*
X0145059Y0052480D02*
X0143905Y0052480D01*
X0177045Y0056474D02*
X0177525Y0056474D01*
X0184293Y0053479D02*
X0192739Y0053479D01*
X0188464Y0052480D02*
X0187310Y0052480D01*
X0205758Y0055476D02*
X0213980Y0055476D01*
X0213980Y0056474D02*
X0205876Y0056474D01*
X0206518Y0057473D02*
X0213980Y0057473D01*
X0213980Y0058471D02*
X0206848Y0058471D01*
X0206848Y0059470D02*
X0213980Y0059470D01*
X0213980Y0060468D02*
X0206848Y0060468D01*
X0206848Y0061467D02*
X0213980Y0061467D01*
X0213980Y0062466D02*
X0206392Y0062466D01*
X0205967Y0054477D02*
X0213980Y0054477D01*
X0213865Y0053479D02*
X0206965Y0053479D01*
X0209982Y0052480D02*
X0210848Y0052480D01*
X0226028Y0052480D02*
X0247079Y0052480D01*
X0246834Y0052236D02*
X0246181Y0050660D01*
X0246181Y0048954D01*
X0246834Y0047378D01*
X0248040Y0046172D01*
X0249616Y0045520D01*
X0257321Y0045520D01*
X0258897Y0046172D01*
X0260103Y0047378D01*
X0260756Y0048954D01*
X0260756Y0050660D01*
X0260103Y0052236D01*
X0258897Y0053442D01*
X0257321Y0054094D01*
X0249616Y0054094D01*
X0248040Y0053442D01*
X0246834Y0052236D01*
X0246522Y0051482D02*
X0226028Y0051482D01*
X0226028Y0050483D02*
X0246181Y0050483D01*
X0246181Y0049485D02*
X0226028Y0049485D01*
X0226028Y0048486D02*
X0246375Y0048486D01*
X0246789Y0047488D02*
X0226028Y0047488D01*
X0226028Y0046489D02*
X0247723Y0046489D01*
X0248166Y0043494D02*
X0226028Y0043494D01*
X0226028Y0044492D02*
X0269885Y0044492D01*
X0269885Y0043494D02*
X0258771Y0043494D01*
X0258897Y0043442D02*
X0257321Y0044094D01*
X0249616Y0044094D01*
X0248040Y0043442D01*
X0246834Y0042236D01*
X0246181Y0040660D01*
X0246181Y0038954D01*
X0246834Y0037378D01*
X0248040Y0036172D01*
X0249616Y0035520D01*
X0257321Y0035520D01*
X0258897Y0036172D01*
X0260103Y0037378D01*
X0260756Y0038954D01*
X0260756Y0040660D01*
X0260103Y0042236D01*
X0258897Y0043442D01*
X0259844Y0042495D02*
X0269885Y0042495D01*
X0269885Y0041497D02*
X0260409Y0041497D01*
X0260756Y0040498D02*
X0269885Y0040498D01*
X0269885Y0039500D02*
X0260756Y0039500D01*
X0260568Y0038501D02*
X0269885Y0038501D01*
X0269885Y0037503D02*
X0260155Y0037503D01*
X0259229Y0036504D02*
X0269773Y0036504D01*
X0268774Y0035506D02*
X0226028Y0035506D01*
X0226028Y0036504D02*
X0247708Y0036504D01*
X0246782Y0037503D02*
X0226028Y0037503D01*
X0226028Y0038501D02*
X0246369Y0038501D01*
X0246181Y0039500D02*
X0226028Y0039500D01*
X0226028Y0040498D02*
X0246181Y0040498D01*
X0246528Y0041497D02*
X0226028Y0041497D01*
X0226028Y0042495D02*
X0247093Y0042495D01*
X0259214Y0046489D02*
X0269885Y0046489D01*
X0269885Y0045491D02*
X0226028Y0045491D01*
X0226028Y0053479D02*
X0248130Y0053479D01*
X0258807Y0053479D02*
X0269885Y0053479D01*
X0269885Y0054477D02*
X0226028Y0054477D01*
X0259858Y0052480D02*
X0269885Y0052480D01*
X0269885Y0051482D02*
X0260415Y0051482D01*
X0260756Y0050483D02*
X0269885Y0050483D01*
X0269885Y0049485D02*
X0260756Y0049485D01*
X0260562Y0048486D02*
X0269885Y0048486D01*
X0269885Y0047488D02*
X0260148Y0047488D01*
X0269235Y0073449D02*
X0219535Y0073449D01*
X0219535Y0074448D02*
X0314961Y0074448D01*
X0314961Y0075446D02*
X0219535Y0075446D01*
X0219535Y0076445D02*
X0314961Y0076445D01*
X0314961Y0077443D02*
X0219141Y0077443D01*
X0216635Y0084433D02*
X0223241Y0084433D01*
X0223612Y0084061D02*
X0227164Y0084061D01*
X0229676Y0086573D01*
X0229676Y0090125D01*
X0227164Y0092636D01*
X0223612Y0092636D01*
X0221101Y0090125D01*
X0221101Y0086573D01*
X0223612Y0084061D01*
X0222242Y0085431D02*
X0217634Y0085431D01*
X0218632Y0086430D02*
X0221244Y0086430D01*
X0221101Y0087428D02*
X0218776Y0087428D01*
X0218776Y0088427D02*
X0221101Y0088427D01*
X0221101Y0089425D02*
X0218776Y0089425D01*
X0218476Y0090424D02*
X0221400Y0090424D01*
X0222398Y0091422D02*
X0217478Y0091422D01*
X0216479Y0092421D02*
X0223397Y0092421D01*
X0221919Y0095416D02*
X0228857Y0095416D01*
X0227859Y0096415D02*
X0222918Y0096415D01*
X0223916Y0097413D02*
X0226860Y0097413D01*
X0226501Y0098412D02*
X0224276Y0098412D01*
X0224276Y0099410D02*
X0226501Y0099410D01*
X0226501Y0100409D02*
X0224276Y0100409D01*
X0224193Y0101407D02*
X0226584Y0101407D01*
X0227582Y0102406D02*
X0223194Y0102406D01*
X0222196Y0103404D02*
X0228581Y0103404D01*
X0228701Y0104403D02*
X0222076Y0104403D01*
X0222076Y0105402D02*
X0228701Y0105402D01*
X0228701Y0106400D02*
X0222076Y0106400D01*
X0222076Y0107399D02*
X0228701Y0107399D01*
X0228701Y0108397D02*
X0222076Y0108397D01*
X0222076Y0109396D02*
X0228701Y0109396D01*
X0228701Y0110394D02*
X0222076Y0110394D01*
X0222076Y0111393D02*
X0228701Y0111393D01*
X0228701Y0112391D02*
X0222076Y0112391D01*
X0222076Y0113390D02*
X0228701Y0113390D01*
X0228701Y0114388D02*
X0222076Y0114388D01*
X0222076Y0115387D02*
X0228701Y0115387D01*
X0228701Y0116385D02*
X0222076Y0116385D01*
X0222076Y0117384D02*
X0228701Y0117384D01*
X0228701Y0118382D02*
X0222076Y0118382D01*
X0222076Y0119381D02*
X0228701Y0119381D01*
X0228510Y0120379D02*
X0222354Y0120379D01*
X0222960Y0121378D02*
X0227904Y0121378D01*
X0227904Y0122376D02*
X0222960Y0122376D01*
X0222960Y0123375D02*
X0227904Y0123375D01*
X0227904Y0124373D02*
X0222960Y0124373D01*
X0222395Y0125372D02*
X0228468Y0125372D01*
X0227904Y0126370D02*
X0222960Y0126370D01*
X0222960Y0127369D02*
X0227904Y0127369D01*
X0227904Y0128367D02*
X0222960Y0128367D01*
X0222960Y0129366D02*
X0227904Y0129366D01*
X0228343Y0130364D02*
X0222521Y0130364D01*
X0224926Y0131363D02*
X0225688Y0131363D01*
X0231613Y0133360D02*
X0240482Y0133360D01*
X0241074Y0134358D02*
X0231847Y0134358D01*
X0232846Y0135357D02*
X0240075Y0135357D01*
X0239483Y0132361D02*
X0232612Y0132361D01*
X0233050Y0131363D02*
X0239439Y0131363D01*
X0238906Y0130364D02*
X0233583Y0130364D01*
X0234022Y0129366D02*
X0238467Y0129366D01*
X0238467Y0128367D02*
X0234022Y0128367D01*
X0234022Y0127369D02*
X0238467Y0127369D01*
X0238467Y0126370D02*
X0234022Y0126370D01*
X0233458Y0125372D02*
X0239031Y0125372D01*
X0238467Y0124373D02*
X0234022Y0124373D01*
X0234022Y0123375D02*
X0238467Y0123375D01*
X0238467Y0122376D02*
X0234022Y0122376D01*
X0234022Y0121378D02*
X0238467Y0121378D01*
X0239073Y0120379D02*
X0233416Y0120379D01*
X0232876Y0119381D02*
X0239601Y0119381D01*
X0239601Y0118382D02*
X0232876Y0118382D01*
X0232876Y0117384D02*
X0239601Y0117384D01*
X0239601Y0116385D02*
X0232876Y0116385D01*
X0232876Y0115387D02*
X0239601Y0115387D01*
X0239601Y0114388D02*
X0232876Y0114388D01*
X0232876Y0113390D02*
X0239601Y0113390D01*
X0239601Y0112391D02*
X0232876Y0112391D01*
X0232876Y0111393D02*
X0239601Y0111393D01*
X0239601Y0110394D02*
X0232876Y0110394D01*
X0232876Y0109396D02*
X0239601Y0109396D01*
X0239601Y0108397D02*
X0232876Y0108397D01*
X0232876Y0107399D02*
X0239601Y0107399D01*
X0239601Y0106400D02*
X0232876Y0106400D01*
X0232876Y0105402D02*
X0239601Y0105402D01*
X0239601Y0104403D02*
X0232876Y0104403D01*
X0232996Y0103404D02*
X0239481Y0103404D01*
X0238482Y0102406D02*
X0233994Y0102406D01*
X0234993Y0101407D02*
X0237484Y0101407D01*
X0237401Y0100409D02*
X0235076Y0100409D01*
X0235076Y0099410D02*
X0237401Y0099410D01*
X0237401Y0098412D02*
X0235076Y0098412D01*
X0234716Y0097413D02*
X0237760Y0097413D01*
X0238759Y0096415D02*
X0233718Y0096415D01*
X0232719Y0095416D02*
X0239757Y0095416D01*
X0238064Y0092636D02*
X0234512Y0092636D01*
X0232001Y0090125D01*
X0232001Y0086573D01*
X0234512Y0084061D01*
X0238064Y0084061D01*
X0240576Y0086573D01*
X0240576Y0090125D01*
X0238064Y0092636D01*
X0238279Y0092421D02*
X0245097Y0092421D01*
X0245312Y0092636D02*
X0242801Y0090125D01*
X0242801Y0086573D01*
X0245312Y0084061D01*
X0248864Y0084061D01*
X0251376Y0086573D01*
X0251376Y0090125D01*
X0248864Y0092636D01*
X0245312Y0092636D01*
X0244098Y0091422D02*
X0239278Y0091422D01*
X0240276Y0090424D02*
X0243100Y0090424D01*
X0242801Y0089425D02*
X0240576Y0089425D01*
X0240576Y0088427D02*
X0242801Y0088427D01*
X0242801Y0087428D02*
X0240576Y0087428D01*
X0240432Y0086430D02*
X0242944Y0086430D01*
X0243942Y0085431D02*
X0239434Y0085431D01*
X0238435Y0084433D02*
X0244941Y0084433D01*
X0249235Y0084433D02*
X0255841Y0084433D01*
X0254842Y0085431D02*
X0250234Y0085431D01*
X0251232Y0086430D02*
X0253844Y0086430D01*
X0253701Y0087428D02*
X0251376Y0087428D01*
X0251376Y0088427D02*
X0253701Y0088427D01*
X0253701Y0089425D02*
X0251376Y0089425D01*
X0251076Y0090424D02*
X0254000Y0090424D01*
X0254998Y0091422D02*
X0250078Y0091422D01*
X0249079Y0092421D02*
X0255997Y0092421D01*
X0250657Y0095416D02*
X0243619Y0095416D01*
X0244618Y0096415D02*
X0249659Y0096415D01*
X0248660Y0097413D02*
X0245616Y0097413D01*
X0245976Y0098412D02*
X0248301Y0098412D01*
X0248301Y0099410D02*
X0245976Y0099410D01*
X0245976Y0100409D02*
X0248301Y0100409D01*
X0248384Y0101407D02*
X0245893Y0101407D01*
X0244894Y0102406D02*
X0249382Y0102406D01*
X0250381Y0103404D02*
X0243896Y0103404D01*
X0243776Y0104403D02*
X0250501Y0104403D01*
X0250501Y0105402D02*
X0243776Y0105402D01*
X0243776Y0106400D02*
X0250501Y0106400D01*
X0250501Y0107399D02*
X0243776Y0107399D01*
X0243776Y0108397D02*
X0250501Y0108397D01*
X0250501Y0109396D02*
X0243776Y0109396D01*
X0243776Y0110394D02*
X0250501Y0110394D01*
X0250501Y0111393D02*
X0243776Y0111393D01*
X0243776Y0112391D02*
X0250501Y0112391D01*
X0250501Y0113390D02*
X0243776Y0113390D01*
X0243776Y0114388D02*
X0250501Y0114388D01*
X0250501Y0115387D02*
X0243776Y0115387D01*
X0243776Y0116385D02*
X0250501Y0116385D01*
X0250501Y0117384D02*
X0243776Y0117384D01*
X0243776Y0118382D02*
X0250501Y0118382D01*
X0250501Y0119381D02*
X0243776Y0119381D01*
X0243979Y0120379D02*
X0250135Y0120379D01*
X0249529Y0121378D02*
X0244585Y0121378D01*
X0244585Y0122376D02*
X0249529Y0122376D01*
X0249529Y0123375D02*
X0244585Y0123375D01*
X0244585Y0124373D02*
X0249529Y0124373D01*
X0250094Y0125372D02*
X0244021Y0125372D01*
X0244585Y0126370D02*
X0249529Y0126370D01*
X0249529Y0127369D02*
X0244585Y0127369D01*
X0244585Y0128367D02*
X0249529Y0128367D01*
X0249529Y0129366D02*
X0244585Y0129366D01*
X0244146Y0130364D02*
X0249968Y0130364D01*
X0247169Y0131363D02*
X0246407Y0131363D01*
X0254615Y0135357D02*
X0260875Y0135357D01*
X0257858Y0136355D02*
X0257632Y0136355D01*
X0236089Y0136355D02*
X0235863Y0136355D01*
X0203813Y0131363D02*
X0203051Y0131363D01*
X0197718Y0134358D02*
X0188491Y0134358D01*
X0187864Y0133360D02*
X0197126Y0133360D01*
X0196127Y0132361D02*
X0188862Y0132361D01*
X0189301Y0131363D02*
X0195794Y0131363D01*
X0195262Y0130364D02*
X0189834Y0130364D01*
X0190272Y0129366D02*
X0194823Y0129366D01*
X0194823Y0128367D02*
X0190272Y0128367D01*
X0190272Y0127369D02*
X0194823Y0127369D01*
X0194823Y0126370D02*
X0190272Y0126370D01*
X0189708Y0125372D02*
X0195387Y0125372D01*
X0194823Y0124373D02*
X0190272Y0124373D01*
X0190272Y0123375D02*
X0194823Y0123375D01*
X0194823Y0122376D02*
X0190272Y0122376D01*
X0190272Y0121378D02*
X0194823Y0121378D01*
X0195429Y0120379D02*
X0189667Y0120379D01*
X0189376Y0119381D02*
X0196101Y0119381D01*
X0196101Y0118382D02*
X0189376Y0118382D01*
X0189376Y0117384D02*
X0196101Y0117384D01*
X0196101Y0116385D02*
X0189376Y0116385D01*
X0189376Y0115387D02*
X0196101Y0115387D01*
X0196101Y0114388D02*
X0189376Y0114388D01*
X0189376Y0113390D02*
X0196101Y0113390D01*
X0196101Y0112391D02*
X0189376Y0112391D01*
X0189376Y0111393D02*
X0196101Y0111393D01*
X0196101Y0110394D02*
X0189376Y0110394D01*
X0189376Y0109396D02*
X0196101Y0109396D01*
X0196101Y0108397D02*
X0189376Y0108397D01*
X0189376Y0107399D02*
X0196101Y0107399D01*
X0196101Y0106400D02*
X0189376Y0106400D01*
X0189376Y0105402D02*
X0196101Y0105402D01*
X0196101Y0104403D02*
X0189376Y0104403D01*
X0189496Y0103404D02*
X0195981Y0103404D01*
X0194982Y0102406D02*
X0190494Y0102406D01*
X0191493Y0101407D02*
X0193984Y0101407D01*
X0193901Y0100409D02*
X0191576Y0100409D01*
X0191576Y0099410D02*
X0193901Y0099410D01*
X0193901Y0098412D02*
X0191576Y0098412D01*
X0191216Y0097413D02*
X0194260Y0097413D01*
X0195259Y0096415D02*
X0190218Y0096415D01*
X0189219Y0095416D02*
X0196257Y0095416D01*
X0227379Y0092421D02*
X0234297Y0092421D01*
X0233298Y0091422D02*
X0228378Y0091422D01*
X0229376Y0090424D02*
X0232300Y0090424D01*
X0232001Y0089425D02*
X0229676Y0089425D01*
X0229676Y0088427D02*
X0232001Y0088427D01*
X0232001Y0087428D02*
X0229676Y0087428D01*
X0229532Y0086430D02*
X0232144Y0086430D01*
X0233142Y0085431D02*
X0228534Y0085431D01*
X0227535Y0084433D02*
X0234141Y0084433D01*
X0265476Y0107399D02*
X0314961Y0107399D01*
X0314961Y0108397D02*
X0265476Y0108397D01*
X0295385Y0104403D02*
X0314961Y0104403D01*
X0314961Y0103404D02*
X0297155Y0103404D01*
X0298394Y0102406D02*
X0314961Y0102406D01*
X0314961Y0101407D02*
X0299349Y0101407D01*
X0300111Y0100409D02*
X0314961Y0100409D01*
X0314961Y0099410D02*
X0300722Y0099410D01*
X0301203Y0098412D02*
X0314961Y0098412D01*
X0314961Y0097413D02*
X0301560Y0097413D01*
X0301821Y0096415D02*
X0314961Y0096415D01*
X0196719Y0135357D02*
X0189490Y0135357D01*
X0192507Y0136355D02*
X0192733Y0136355D01*
X0170858Y0136355D02*
X0170632Y0136355D01*
X0153075Y0135357D02*
X0145990Y0135357D01*
X0149007Y0136355D02*
X0149233Y0136355D01*
X0127358Y0136355D02*
X0127132Y0136355D01*
X0110113Y0135357D02*
X0102346Y0135357D01*
X0105363Y0136355D02*
X0105589Y0136355D01*
X0087701Y0135357D02*
X0080288Y0135357D01*
X0083882Y0136355D02*
X0084107Y0136355D01*
X0073957Y0131363D02*
X0073194Y0131363D01*
X0209460Y0029515D02*
X0209796Y0029515D01*
X0314961Y0011541D02*
X0018748Y0011541D01*
X0018748Y0010543D02*
X0314961Y0010543D01*
X0314961Y0009544D02*
X0018748Y0009544D01*
X0018748Y0008546D02*
X0314961Y0008546D01*
X0314961Y0007547D02*
X0018748Y0007547D01*
M02*
