G75*
%MOIN*%
%OFA0B0*%
%FSLAX25Y25*%
%IPPOS*%
%LPD*%
%AMOC8*
5,1,8,0,0,1.08239X$1,22.5*
%
%ADD10C,0.01200*%
%ADD11C,0.00800*%
%ADD12C,0.00300*%
%ADD13C,0.00600*%
D10*
X0049935Y0152458D02*
X0052471Y0152458D01*
X0053105Y0153092D01*
X0053105Y0154360D01*
X0052471Y0154993D01*
X0051203Y0154993D01*
X0051203Y0153726D01*
X0049935Y0154993D02*
X0049301Y0154360D01*
X0049301Y0153092D01*
X0049935Y0152458D01*
X0050569Y0157062D02*
X0050569Y0158963D01*
X0051203Y0159597D01*
X0053105Y0159597D01*
X0052471Y0161666D02*
X0051203Y0161666D01*
X0050569Y0162300D01*
X0050569Y0164201D01*
X0049301Y0164201D02*
X0053105Y0164201D01*
X0053105Y0162300D01*
X0052471Y0161666D01*
X0053105Y0157062D02*
X0050569Y0157062D01*
X0299052Y0011667D02*
X0299052Y0009132D01*
X0299686Y0008498D01*
X0300954Y0008498D01*
X0301588Y0009132D01*
X0301588Y0010399D01*
X0300320Y0010399D01*
X0299052Y0011667D02*
X0299686Y0012301D01*
X0300954Y0012301D01*
X0301588Y0011667D01*
X0303656Y0011033D02*
X0305558Y0011033D01*
X0306192Y0010399D01*
X0306192Y0008498D01*
X0308260Y0009132D02*
X0308260Y0010399D01*
X0308894Y0011033D01*
X0310796Y0011033D01*
X0310796Y0012301D02*
X0310796Y0008498D01*
X0308894Y0008498D01*
X0308260Y0009132D01*
X0303656Y0008498D02*
X0303656Y0011033D01*
D11*
X0294175Y0027746D02*
X0292073Y0027746D01*
X0291373Y0028447D01*
X0291373Y0029848D01*
X0292073Y0030549D01*
X0294175Y0030549D01*
X0294175Y0031950D02*
X0294175Y0027746D01*
X0289571Y0027746D02*
X0289571Y0029848D01*
X0288870Y0030549D01*
X0286769Y0030549D01*
X0286769Y0027746D01*
X0284967Y0028447D02*
X0284967Y0029848D01*
X0283566Y0029848D01*
X0284967Y0028447D02*
X0284267Y0027746D01*
X0282865Y0027746D01*
X0282165Y0028447D01*
X0282165Y0031249D01*
X0282865Y0031950D01*
X0284267Y0031950D01*
X0284967Y0031249D01*
X0275759Y0030549D02*
X0273657Y0030549D01*
X0272957Y0029848D01*
X0272957Y0028447D01*
X0273657Y0027746D01*
X0275759Y0027746D01*
X0275759Y0031950D01*
X0271222Y0030549D02*
X0270521Y0030549D01*
X0269120Y0029148D01*
X0269120Y0030549D02*
X0269120Y0027746D01*
X0267319Y0027746D02*
X0267319Y0030549D01*
X0265918Y0031950D01*
X0264516Y0030549D01*
X0264516Y0027746D01*
X0264516Y0029848D02*
X0267319Y0029848D01*
X0267805Y0038076D02*
X0264602Y0038076D01*
X0266203Y0038076D02*
X0266203Y0042880D01*
X0264602Y0041279D01*
X0269758Y0042080D02*
X0269758Y0038877D01*
X0272961Y0042080D01*
X0272961Y0038877D01*
X0272160Y0038076D01*
X0270559Y0038076D01*
X0269758Y0038877D01*
X0274915Y0038076D02*
X0278918Y0042880D01*
X0275715Y0042880D02*
X0275715Y0042080D01*
X0274915Y0042080D01*
X0274915Y0042880D01*
X0275715Y0042880D01*
X0272961Y0042080D02*
X0272160Y0042880D01*
X0270559Y0042880D01*
X0269758Y0042080D01*
X0278117Y0038877D02*
X0278918Y0038877D01*
X0278918Y0038076D01*
X0278117Y0038076D01*
X0278117Y0038877D01*
X0277385Y0047525D02*
X0281388Y0052329D01*
X0278186Y0052329D02*
X0278186Y0051529D01*
X0277385Y0051529D01*
X0277385Y0052329D01*
X0278186Y0052329D01*
X0275431Y0051529D02*
X0272228Y0048326D01*
X0273029Y0047525D01*
X0274630Y0047525D01*
X0275431Y0048326D01*
X0275431Y0051529D01*
X0274630Y0052329D01*
X0273029Y0052329D01*
X0272228Y0051529D01*
X0272228Y0048326D01*
X0270451Y0048326D02*
X0270451Y0047525D01*
X0269650Y0047525D01*
X0269650Y0048326D01*
X0270451Y0048326D01*
X0267697Y0047525D02*
X0264494Y0047525D01*
X0266095Y0047525D02*
X0266095Y0052329D01*
X0264494Y0050728D01*
X0264901Y0058155D02*
X0264100Y0058956D01*
X0267303Y0062159D01*
X0267303Y0058956D01*
X0266502Y0058155D01*
X0264901Y0058155D01*
X0264100Y0058956D02*
X0264100Y0062159D01*
X0264901Y0062959D01*
X0266502Y0062959D01*
X0267303Y0062159D01*
X0271835Y0061358D02*
X0273436Y0062959D01*
X0273436Y0058155D01*
X0271835Y0058155D02*
X0275037Y0058155D01*
X0276991Y0058155D02*
X0280995Y0062959D01*
X0277792Y0062959D02*
X0277792Y0062159D01*
X0276991Y0062159D01*
X0276991Y0062959D01*
X0277792Y0062959D01*
X0280194Y0058956D02*
X0280995Y0058956D01*
X0280995Y0058155D01*
X0280194Y0058155D01*
X0280194Y0058956D01*
X0270057Y0058956D02*
X0270057Y0058155D01*
X0269257Y0058155D01*
X0269257Y0058956D01*
X0270057Y0058956D01*
X0280588Y0048326D02*
X0281388Y0048326D01*
X0281388Y0047525D01*
X0280588Y0047525D01*
X0280588Y0048326D01*
D12*
X0283540Y0049862D02*
X0283540Y0050829D01*
X0284507Y0051797D01*
X0285504Y0050345D02*
X0285504Y0049378D01*
X0285988Y0048894D01*
X0287439Y0048894D01*
X0288451Y0048894D02*
X0288451Y0051797D01*
X0288934Y0050829D02*
X0289902Y0050829D01*
X0290386Y0050345D01*
X0290386Y0048894D01*
X0288451Y0050345D02*
X0288934Y0050829D01*
X0287439Y0050829D02*
X0285988Y0050829D01*
X0285504Y0050345D01*
X0284507Y0048894D02*
X0283540Y0049862D01*
X0294344Y0048894D02*
X0296279Y0050829D01*
X0296279Y0051313D01*
X0295795Y0051797D01*
X0294827Y0051797D01*
X0294344Y0051313D01*
X0297290Y0051313D02*
X0297290Y0049378D01*
X0299225Y0051313D01*
X0299225Y0049378D01*
X0298741Y0048894D01*
X0297774Y0048894D01*
X0297290Y0049378D01*
X0296279Y0048894D02*
X0294344Y0048894D01*
X0297290Y0051313D02*
X0297774Y0051797D01*
X0298741Y0051797D01*
X0299225Y0051313D01*
X0300237Y0051797D02*
X0301204Y0050829D01*
X0301204Y0049862D01*
X0300237Y0048894D01*
X0300630Y0041560D02*
X0301598Y0040593D01*
X0301598Y0039625D01*
X0300630Y0038658D01*
X0299619Y0039142D02*
X0299135Y0038658D01*
X0298168Y0038658D01*
X0297684Y0039142D01*
X0299619Y0041077D01*
X0299619Y0039142D01*
X0299619Y0041077D02*
X0299135Y0041560D01*
X0298168Y0041560D01*
X0297684Y0041077D01*
X0297684Y0039142D01*
X0296672Y0039142D02*
X0296189Y0038658D01*
X0295221Y0038658D01*
X0294737Y0039142D01*
X0295705Y0040109D02*
X0296189Y0040109D01*
X0296672Y0039625D01*
X0296672Y0039142D01*
X0296189Y0040109D02*
X0296672Y0040593D01*
X0296672Y0041077D01*
X0296189Y0041560D01*
X0295221Y0041560D01*
X0294737Y0041077D01*
X0290779Y0040109D02*
X0290779Y0038658D01*
X0290779Y0040109D02*
X0290296Y0040593D01*
X0289328Y0040593D01*
X0288844Y0040109D01*
X0287833Y0040593D02*
X0286382Y0040593D01*
X0285898Y0040109D01*
X0285898Y0039142D01*
X0286382Y0038658D01*
X0287833Y0038658D01*
X0288844Y0038658D02*
X0288844Y0041560D01*
X0284901Y0041560D02*
X0283933Y0040593D01*
X0283933Y0039625D01*
X0284901Y0038658D01*
X0284507Y0058737D02*
X0283540Y0059704D01*
X0283540Y0060672D01*
X0284507Y0061639D01*
X0285504Y0060188D02*
X0285504Y0059220D01*
X0285988Y0058737D01*
X0287439Y0058737D01*
X0288451Y0058737D02*
X0288451Y0061639D01*
X0288934Y0060672D02*
X0289902Y0060672D01*
X0290386Y0060188D01*
X0290386Y0058737D01*
X0288451Y0060188D02*
X0288934Y0060672D01*
X0287439Y0060672D02*
X0285988Y0060672D01*
X0285504Y0060188D01*
X0294344Y0060672D02*
X0295311Y0061639D01*
X0295311Y0058737D01*
X0294344Y0058737D02*
X0296279Y0058737D01*
X0297290Y0059220D02*
X0299225Y0061155D01*
X0299225Y0059220D01*
X0298741Y0058737D01*
X0297774Y0058737D01*
X0297290Y0059220D01*
X0297290Y0061155D01*
X0297774Y0061639D01*
X0298741Y0061639D01*
X0299225Y0061155D01*
X0300237Y0061639D02*
X0301204Y0060672D01*
X0301204Y0059704D01*
X0300237Y0058737D01*
D13*
X0021753Y0018282D02*
X0021753Y0013611D01*
X0028759Y0013611D01*
X0025256Y0013611D02*
X0025256Y0015946D01*
X0027591Y0020609D02*
X0026424Y0021777D01*
X0026424Y0025280D01*
X0025256Y0025280D02*
X0028759Y0025280D01*
X0028759Y0021777D01*
X0027591Y0020609D01*
X0024088Y0021777D02*
X0024088Y0024112D01*
X0025256Y0025280D01*
X0025256Y0027607D02*
X0024088Y0028775D01*
X0024088Y0032278D01*
X0024088Y0034605D02*
X0024088Y0036940D01*
X0022921Y0035773D02*
X0027591Y0035773D01*
X0028759Y0036940D01*
X0027591Y0032278D02*
X0026424Y0031110D01*
X0026424Y0028775D01*
X0025256Y0027607D01*
X0028759Y0027607D02*
X0028759Y0031110D01*
X0027591Y0032278D01*
X0028759Y0046268D02*
X0021753Y0046268D01*
X0028759Y0050939D01*
X0021753Y0050939D01*
X0024088Y0054434D02*
X0024088Y0056769D01*
X0025256Y0057937D01*
X0026424Y0057937D01*
X0026424Y0053266D01*
X0027591Y0053266D02*
X0025256Y0053266D01*
X0024088Y0054434D01*
X0027591Y0053266D02*
X0028759Y0054434D01*
X0028759Y0056769D01*
X0027591Y0060264D02*
X0024088Y0060264D01*
X0027591Y0060264D02*
X0028759Y0061432D01*
X0028759Y0064935D01*
X0024088Y0064935D01*
X0024088Y0067262D02*
X0028759Y0067262D01*
X0026424Y0067262D02*
X0024088Y0069597D01*
X0024088Y0070765D01*
X0026424Y0074261D02*
X0027591Y0073094D01*
X0028759Y0074261D01*
X0028759Y0077764D01*
X0025256Y0077764D01*
X0024088Y0076597D01*
X0024088Y0074261D01*
X0026424Y0074261D02*
X0026424Y0077764D01*
X0028759Y0080092D02*
X0028759Y0082427D01*
X0028759Y0081259D02*
X0021753Y0081259D01*
X0021753Y0080092D01*
X0021753Y0091755D02*
X0021753Y0095258D01*
X0022921Y0096426D01*
X0025256Y0096426D01*
X0026424Y0095258D01*
X0026424Y0091755D01*
X0028759Y0091755D02*
X0021753Y0091755D01*
X0021753Y0098753D02*
X0028759Y0098753D01*
X0025256Y0098753D02*
X0024088Y0099921D01*
X0024088Y0102256D01*
X0025256Y0103424D01*
X0028759Y0103424D01*
X0027591Y0105751D02*
X0026424Y0106919D01*
X0026424Y0110422D01*
X0025256Y0110422D02*
X0028759Y0110422D01*
X0028759Y0106919D01*
X0027591Y0105751D01*
X0024088Y0106919D02*
X0024088Y0109254D01*
X0025256Y0110422D01*
X0024088Y0112749D02*
X0024088Y0116252D01*
X0025256Y0117420D01*
X0028759Y0117420D01*
X0024088Y0119747D02*
X0024088Y0122082D01*
X0022921Y0120915D02*
X0027591Y0120915D01*
X0028759Y0122082D01*
X0027591Y0124412D02*
X0025256Y0124412D01*
X0024088Y0125580D01*
X0024088Y0127915D01*
X0025256Y0129083D01*
X0027591Y0129083D01*
X0028759Y0127915D01*
X0028759Y0125580D01*
X0027591Y0124412D01*
X0028759Y0131410D02*
X0024088Y0131410D01*
X0024088Y0132578D01*
X0025256Y0133746D01*
X0024088Y0134913D01*
X0025256Y0136081D01*
X0028759Y0136081D01*
X0028759Y0133746D02*
X0025256Y0133746D01*
X0024088Y0112749D02*
X0028759Y0112749D01*
M02*
