*
G04 Mass Parameters ***
*
G04 Image ***
*
%INC:\USERS\MAK\DESKTOP\60WAY ELECTRODE CONNECTOR\ELECTRODE_CONNECTOR-SMALLSQUARE.BOT*%
%ICAS*%
%MOIN*%
%IPPOS*%
%ASAXBY*%
G74*%FSLAN2X34Y34*%
*
G04 Aperture Definitions ***
*
%ADD10R,0.0354X0.1102*%
*
G04 Plot Data ***
*
G54D10*
X-0001784Y0025472D03*
X-0001284D03*
X-0000784D03*
X-0000284D03*
X0000216D03*
X0000716D03*
X0001216D03*
X0001716D03*
X0002216D03*
X0002716D03*
X0003216D03*
X0003716D03*
X0004216D03*
X0004716D03*
X0005216D03*
X0005716D03*
X0006216D03*
X0006716D03*
X0007216D03*
X0007716D03*
X-0001784Y0023110D03*
X-0001284D03*
X-0000784D03*
X-0000284D03*
X0000216D03*
X0000716D03*
X0001216D03*
X0001716D03*
X0002216D03*
X0002716D03*
X0003216D03*
X0003716D03*
X0004216D03*
X0004716D03*
X0005216D03*
X0005716D03*
X0006216D03*
X0006716D03*
X0007216D03*
X0007716D03*
X-0001784Y0020748D03*
X-0001284D03*
X-0000784D03*
X-0000284D03*
X0000216D03*
X0000716D03*
X0001216D03*
X0001716D03*
X0002216D03*
X0002716D03*
X0003216D03*
X0003716D03*
X0004216D03*
X0004716D03*
X0005216D03*
X0005716D03*
X0006216D03*
X0006716D03*
X0007216D03*
X0007716D03*
M02*
