%
T1C0.0197F200S100
X-001784Y020748
X-001284Y020748
X-001284Y023110
X-001784Y023110
X-001784Y025472
X-001284Y025472
X-000784Y020748
X-000284Y020748
X-000284Y023110
X-000784Y023110
X-000784Y025472
X-000284Y025472
X000216Y020748
X000716Y020748
X000716Y023110
X000216Y023110
X000216Y025472
X000716Y025472
X001216Y020748
X001716Y020748
X001716Y023110
X001216Y023110
X001216Y025472
X001716Y025472
X002216Y020748
X002716Y020748
X002716Y023110
X002216Y023110
X002216Y025472
X002716Y025472
X003216Y020748
X003716Y020748
X003716Y023110
X003216Y023110
X003216Y025472
X003716Y025472
X004216Y020748
X004716Y020748
X004716Y023110
X004216Y023110
X004216Y025472
X004716Y025472
X005216Y020748
X005716Y020748
X005716Y023110
X005216Y023110
X005216Y025472
X005716Y025472
X006216Y020748
X006716Y020748
X006716Y023110
X006216Y023110
X006216Y025472
X006716Y025472
X007216Y020748
X007716Y020748
X007716Y023110
X007216Y023110
X007216Y025472
X007716Y025472
M30
