G75*
%MOIN*%
%OFA0B0*%
%FSLAX25Y25*%
%IPPOS*%
%LPD*%
%AMOC8*
5,1,8,0,0,1.08239X$1,22.5*
%
%ADD10C,0.05937*%
%ADD11OC8,0.06000*%
%ADD12C,0.20000*%
%ADD13C,0.01600*%
D10*
X0043639Y0113312D02*
X0043639Y0119249D01*
X0082808Y0119119D02*
X0082808Y0113182D01*
X0122335Y0113245D02*
X0122335Y0119182D01*
X0161678Y0119221D02*
X0161678Y0113284D01*
X0201115Y0113300D02*
X0201115Y0119237D01*
X0240335Y0118875D02*
X0240335Y0112938D01*
X0279741Y0113052D02*
X0279741Y0118989D01*
X0319123Y0118757D02*
X0319123Y0112820D01*
X0358643Y0112717D02*
X0358643Y0118654D01*
X0397576Y0118875D02*
X0397576Y0112938D01*
X0377875Y0152253D02*
X0377875Y0158190D01*
X0338796Y0158509D02*
X0338796Y0152572D01*
X0299540Y0152698D02*
X0299540Y0158635D01*
X0260048Y0158501D02*
X0260048Y0152564D01*
X0220682Y0152536D02*
X0220682Y0158473D01*
X0181284Y0158359D02*
X0181284Y0152422D01*
X0142135Y0152607D02*
X0142135Y0158544D01*
X0102528Y0158174D02*
X0102528Y0152237D01*
X0063229Y0152595D02*
X0063229Y0158532D01*
X0023812Y0158497D02*
X0023812Y0152560D01*
X0043485Y0192123D02*
X0043485Y0198060D01*
X0082934Y0197918D02*
X0082934Y0191981D01*
X0122095Y0191879D02*
X0122095Y0197816D01*
X0161749Y0198091D02*
X0161749Y0192154D01*
X0201048Y0191977D02*
X0201048Y0197914D01*
X0240501Y0197780D02*
X0240501Y0191843D01*
X0279615Y0192072D02*
X0279615Y0198009D01*
X0319324Y0197772D02*
X0319324Y0191835D01*
X0358339Y0191583D02*
X0358339Y0197520D01*
X0397863Y0197524D02*
X0397863Y0191587D01*
D11*
X0318183Y0234095D03*
X0307383Y0234095D03*
X0296483Y0234095D03*
X0285583Y0234095D03*
X0274783Y0234095D03*
X0263883Y0234095D03*
X0252983Y0234095D03*
X0242083Y0234095D03*
X0231283Y0234095D03*
X0220383Y0234095D03*
X0209483Y0234095D03*
X0198683Y0234095D03*
X0187783Y0234095D03*
X0176883Y0234095D03*
X0166083Y0234095D03*
X0155183Y0234095D03*
X0144283Y0234095D03*
X0133483Y0234095D03*
X0122583Y0234095D03*
X0127983Y0244095D03*
X0138883Y0244095D03*
X0149783Y0244095D03*
X0160583Y0244095D03*
X0171483Y0244095D03*
X0182383Y0244095D03*
X0193183Y0244095D03*
X0204083Y0244095D03*
X0214983Y0244095D03*
X0225783Y0244095D03*
X0236683Y0244095D03*
X0247583Y0244095D03*
X0258383Y0244095D03*
X0269283Y0244095D03*
X0280183Y0244095D03*
X0291083Y0244095D03*
X0301883Y0244095D03*
X0312783Y0244095D03*
X0318104Y0076800D03*
X0307204Y0076800D03*
X0296404Y0076800D03*
X0285504Y0076800D03*
X0274604Y0076800D03*
X0263804Y0076800D03*
X0252904Y0076800D03*
X0242004Y0076800D03*
X0231204Y0076800D03*
X0220304Y0076800D03*
X0209404Y0076800D03*
X0198604Y0076800D03*
X0187704Y0076800D03*
X0176804Y0076800D03*
X0165904Y0076800D03*
X0155104Y0076800D03*
X0144204Y0076800D03*
X0133304Y0076800D03*
X0122504Y0076800D03*
X0127904Y0066800D03*
X0138804Y0066800D03*
X0149604Y0066800D03*
X0160504Y0066800D03*
X0171404Y0066800D03*
X0182204Y0066800D03*
X0193104Y0066800D03*
X0204004Y0066800D03*
X0214904Y0066800D03*
X0225704Y0066800D03*
X0236604Y0066800D03*
X0247504Y0066800D03*
X0258304Y0066800D03*
X0269204Y0066800D03*
X0280104Y0066800D03*
X0290904Y0066800D03*
X0301804Y0066800D03*
X0312704Y0066800D03*
D12*
X0345304Y0071800D03*
X0345383Y0239095D03*
X0095383Y0239095D03*
X0095304Y0071800D03*
D13*
X0007400Y0031258D02*
X0007400Y0277932D01*
X0016693Y0277932D01*
X0431239Y0277932D01*
X0431239Y0031258D01*
X0007400Y0031258D01*
X0007400Y0032688D02*
X0431239Y0032688D01*
X0431239Y0034287D02*
X0007400Y0034287D01*
X0007400Y0035885D02*
X0431239Y0035885D01*
X0431239Y0037484D02*
X0007400Y0037484D01*
X0007400Y0039082D02*
X0431239Y0039082D01*
X0431239Y0040681D02*
X0007400Y0040681D01*
X0007400Y0042279D02*
X0431239Y0042279D01*
X0431239Y0043878D02*
X0007400Y0043878D01*
X0007400Y0045476D02*
X0431239Y0045476D01*
X0431239Y0047075D02*
X0007400Y0047075D01*
X0007400Y0048673D02*
X0431239Y0048673D01*
X0431239Y0050272D02*
X0007400Y0050272D01*
X0007400Y0051870D02*
X0431239Y0051870D01*
X0431239Y0053469D02*
X0007400Y0053469D01*
X0007400Y0055067D02*
X0431239Y0055067D01*
X0431239Y0056666D02*
X0007400Y0056666D01*
X0007400Y0058264D02*
X0431239Y0058264D01*
X0431239Y0059863D02*
X0007400Y0059863D01*
X0007400Y0061461D02*
X0090011Y0061461D01*
X0090827Y0060991D02*
X0093777Y0060200D01*
X0096831Y0060200D01*
X0099781Y0060991D01*
X0102427Y0062518D01*
X0104586Y0064677D01*
X0106113Y0067323D01*
X0106904Y0070273D01*
X0106904Y0073327D01*
X0106113Y0076277D01*
X0104586Y0078923D01*
X0102427Y0081082D01*
X0099781Y0082609D01*
X0096831Y0083400D01*
X0093777Y0083400D01*
X0090827Y0082609D01*
X0088181Y0081082D01*
X0086022Y0078923D01*
X0084494Y0076277D01*
X0083704Y0073327D01*
X0083704Y0070273D01*
X0084494Y0067323D01*
X0086022Y0064677D01*
X0088181Y0062518D01*
X0090827Y0060991D01*
X0087639Y0063060D02*
X0007400Y0063060D01*
X0007400Y0064658D02*
X0086041Y0064658D01*
X0085110Y0066257D02*
X0007400Y0066257D01*
X0007400Y0067855D02*
X0084352Y0067855D01*
X0083923Y0069454D02*
X0007400Y0069454D01*
X0007400Y0071052D02*
X0083704Y0071052D01*
X0083704Y0072651D02*
X0007400Y0072651D01*
X0007400Y0074249D02*
X0083951Y0074249D01*
X0084379Y0075848D02*
X0007400Y0075848D01*
X0007400Y0077446D02*
X0085169Y0077446D01*
X0086144Y0079045D02*
X0007400Y0079045D01*
X0007400Y0080643D02*
X0087743Y0080643D01*
X0090190Y0082242D02*
X0007400Y0082242D01*
X0007400Y0083840D02*
X0112069Y0083840D01*
X0113668Y0082242D02*
X0100418Y0082242D01*
X0102865Y0080643D02*
X0115266Y0080643D01*
X0116865Y0079045D02*
X0104464Y0079045D01*
X0105438Y0077446D02*
X0117904Y0077446D01*
X0117904Y0078006D02*
X0117904Y0074895D01*
X0120599Y0072200D01*
X0124409Y0072200D01*
X0127104Y0074895D01*
X0127104Y0078705D01*
X0124409Y0081400D01*
X0121298Y0081400D01*
X0094296Y0108402D01*
X0093414Y0108767D01*
X0084087Y0108767D01*
X0085396Y0109309D01*
X0086681Y0110594D01*
X0087376Y0112273D01*
X0087376Y0120028D01*
X0086681Y0121707D01*
X0085396Y0122992D01*
X0083717Y0123687D01*
X0081899Y0123687D01*
X0080220Y0122992D01*
X0078935Y0121707D01*
X0078239Y0120028D01*
X0078239Y0112273D01*
X0078935Y0110594D01*
X0080220Y0109309D01*
X0081528Y0108767D01*
X0073660Y0108767D01*
X0045885Y0136542D01*
X0045885Y0188172D01*
X0046073Y0188250D01*
X0047358Y0189535D01*
X0048054Y0191214D01*
X0048054Y0198969D01*
X0047358Y0200648D01*
X0046326Y0201680D01*
X0046326Y0209609D01*
X0060576Y0222077D01*
X0115655Y0222077D01*
X0115808Y0222036D01*
X0116128Y0222077D01*
X0116451Y0222077D01*
X0116597Y0222138D01*
X0116755Y0222158D01*
X0117035Y0222319D01*
X0117333Y0222443D01*
X0117445Y0222555D01*
X0117583Y0222634D01*
X0117780Y0222890D01*
X0118008Y0223118D01*
X0118069Y0223265D01*
X0122870Y0229495D01*
X0124488Y0229495D01*
X0127183Y0232190D01*
X0127183Y0236001D01*
X0124488Y0238695D01*
X0120677Y0238695D01*
X0117983Y0236001D01*
X0117983Y0232190D01*
X0118493Y0231680D01*
X0114793Y0226877D01*
X0059754Y0226877D01*
X0059357Y0226904D01*
X0059279Y0226877D01*
X0059197Y0226877D01*
X0058829Y0226725D01*
X0058453Y0226598D01*
X0058391Y0226543D01*
X0058315Y0226512D01*
X0058033Y0226231D01*
X0042643Y0212764D01*
X0042566Y0212732D01*
X0042286Y0212451D01*
X0041986Y0212189D01*
X0041950Y0212115D01*
X0041891Y0212057D01*
X0041739Y0211690D01*
X0041563Y0211334D01*
X0041558Y0211251D01*
X0041526Y0211175D01*
X0041526Y0210778D01*
X0041500Y0210381D01*
X0041526Y0210303D01*
X0041526Y0202193D01*
X0040897Y0201933D01*
X0039612Y0200648D01*
X0038917Y0198969D01*
X0038917Y0191214D01*
X0039612Y0189535D01*
X0040897Y0188250D01*
X0041085Y0188172D01*
X0041085Y0135071D01*
X0041450Y0134189D01*
X0070632Y0105007D01*
X0071307Y0104332D01*
X0072189Y0103967D01*
X0091943Y0103967D01*
X0117904Y0078006D01*
X0117904Y0075848D02*
X0106228Y0075848D01*
X0106657Y0074249D02*
X0118549Y0074249D01*
X0120148Y0072651D02*
X0106904Y0072651D01*
X0106904Y0071052D02*
X0125651Y0071052D01*
X0125999Y0071400D02*
X0123304Y0068705D01*
X0123304Y0064895D01*
X0125999Y0062200D01*
X0129809Y0062200D01*
X0132504Y0064895D01*
X0132504Y0068705D01*
X0129809Y0071400D01*
X0125999Y0071400D01*
X0124860Y0072651D02*
X0130948Y0072651D01*
X0131399Y0072200D02*
X0135209Y0072200D01*
X0137904Y0074895D01*
X0137904Y0078705D01*
X0135209Y0081400D01*
X0131399Y0081400D01*
X0128704Y0078705D01*
X0128704Y0074895D01*
X0131399Y0072200D01*
X0130157Y0071052D02*
X0136551Y0071052D01*
X0136899Y0071400D02*
X0134204Y0068705D01*
X0134204Y0064895D01*
X0136899Y0062200D01*
X0140709Y0062200D01*
X0143404Y0064895D01*
X0143404Y0068705D01*
X0140709Y0071400D01*
X0136899Y0071400D01*
X0135660Y0072651D02*
X0141848Y0072651D01*
X0142299Y0072200D02*
X0146109Y0072200D01*
X0148804Y0074895D01*
X0148804Y0078705D01*
X0146109Y0081400D01*
X0142299Y0081400D01*
X0139604Y0078705D01*
X0139604Y0074895D01*
X0142299Y0072200D01*
X0141057Y0071052D02*
X0147351Y0071052D01*
X0147699Y0071400D02*
X0145004Y0068705D01*
X0145004Y0064895D01*
X0147699Y0062200D01*
X0151509Y0062200D01*
X0154204Y0064895D01*
X0154204Y0068705D01*
X0151509Y0071400D01*
X0147699Y0071400D01*
X0146560Y0072651D02*
X0152748Y0072651D01*
X0153199Y0072200D02*
X0157009Y0072200D01*
X0159704Y0074895D01*
X0159704Y0078705D01*
X0157009Y0081400D01*
X0153898Y0081400D01*
X0128865Y0106433D01*
X0127983Y0106798D01*
X0114999Y0106798D01*
X0067798Y0154000D01*
X0067798Y0159441D01*
X0067102Y0161120D01*
X0065817Y0162405D01*
X0065224Y0162651D01*
X0065224Y0203798D01*
X0073660Y0212235D01*
X0118419Y0212235D01*
X0119301Y0212600D01*
X0119976Y0213275D01*
X0126810Y0220109D01*
X0145978Y0220109D01*
X0146860Y0220474D01*
X0147535Y0221149D01*
X0155881Y0229495D01*
X0157088Y0229495D01*
X0159783Y0232190D01*
X0159783Y0236001D01*
X0157088Y0238695D01*
X0153277Y0238695D01*
X0150583Y0236001D01*
X0150583Y0232190D01*
X0151185Y0231587D01*
X0144507Y0224909D01*
X0125338Y0224909D01*
X0124456Y0224543D01*
X0116948Y0217035D01*
X0072189Y0217035D01*
X0071307Y0216669D01*
X0061464Y0206827D01*
X0060789Y0206152D01*
X0060424Y0205270D01*
X0060424Y0162188D01*
X0059356Y0161120D01*
X0058661Y0159441D01*
X0058661Y0151687D01*
X0059356Y0150007D01*
X0060641Y0148722D01*
X0062320Y0148027D01*
X0064138Y0148027D01*
X0065817Y0148722D01*
X0066052Y0148957D01*
X0111970Y0103039D01*
X0112645Y0102364D01*
X0113527Y0101998D01*
X0126511Y0101998D01*
X0150504Y0078006D01*
X0150504Y0074895D01*
X0153199Y0072200D01*
X0151857Y0071052D02*
X0158251Y0071052D01*
X0158599Y0071400D02*
X0155904Y0068705D01*
X0155904Y0064895D01*
X0158599Y0062200D01*
X0162409Y0062200D01*
X0165104Y0064895D01*
X0165104Y0068705D01*
X0162409Y0071400D01*
X0158599Y0071400D01*
X0157460Y0072651D02*
X0163548Y0072651D01*
X0163999Y0072200D02*
X0167809Y0072200D01*
X0170504Y0074895D01*
X0170504Y0078705D01*
X0167809Y0081400D01*
X0167586Y0081400D01*
X0167586Y0087159D01*
X0167220Y0088041D01*
X0166545Y0088716D01*
X0113396Y0141866D01*
X0112514Y0142231D01*
X0099251Y0142231D01*
X0085334Y0156148D01*
X0085334Y0188030D01*
X0085522Y0188108D01*
X0086807Y0189393D01*
X0087502Y0191072D01*
X0087502Y0198827D01*
X0086807Y0200506D01*
X0085522Y0201791D01*
X0084909Y0202045D01*
X0084909Y0203798D01*
X0085471Y0204361D01*
X0120388Y0204361D01*
X0121270Y0204726D01*
X0121945Y0205401D01*
X0128778Y0212235D01*
X0147947Y0212235D01*
X0148829Y0212600D01*
X0149504Y0213275D01*
X0165724Y0229495D01*
X0167988Y0229495D01*
X0170683Y0232190D01*
X0170683Y0236001D01*
X0167988Y0238695D01*
X0164177Y0238695D01*
X0161483Y0236001D01*
X0161483Y0232190D01*
X0161557Y0232116D01*
X0146475Y0217035D01*
X0127307Y0217035D01*
X0126425Y0216669D01*
X0118916Y0209161D01*
X0084000Y0209161D01*
X0083118Y0208795D01*
X0081149Y0206827D01*
X0080474Y0206152D01*
X0080109Y0205270D01*
X0080109Y0201554D01*
X0079061Y0200506D01*
X0078365Y0198827D01*
X0078365Y0191072D01*
X0079061Y0189393D01*
X0080346Y0188108D01*
X0080534Y0188030D01*
X0080534Y0154677D01*
X0080899Y0153795D01*
X0081574Y0153120D01*
X0081574Y0153120D01*
X0096222Y0138472D01*
X0096897Y0137797D01*
X0097779Y0137431D01*
X0111042Y0137431D01*
X0162786Y0085688D01*
X0162786Y0080187D01*
X0161304Y0078705D01*
X0161304Y0074895D01*
X0163999Y0072200D01*
X0162757Y0071052D02*
X0169151Y0071052D01*
X0169499Y0071400D02*
X0166804Y0068705D01*
X0166804Y0064895D01*
X0169499Y0062200D01*
X0173309Y0062200D01*
X0176004Y0064895D01*
X0176004Y0068705D01*
X0173309Y0071400D01*
X0169499Y0071400D01*
X0168260Y0072651D02*
X0174448Y0072651D01*
X0174899Y0072200D02*
X0178709Y0072200D01*
X0181404Y0074895D01*
X0181404Y0078705D01*
X0178709Y0081400D01*
X0174899Y0081400D01*
X0172204Y0078705D01*
X0172204Y0074895D01*
X0174899Y0072200D01*
X0173657Y0071052D02*
X0179951Y0071052D01*
X0180299Y0071400D02*
X0177604Y0068705D01*
X0177604Y0064895D01*
X0180299Y0062200D01*
X0184109Y0062200D01*
X0186804Y0064895D01*
X0186804Y0068705D01*
X0184109Y0071400D01*
X0180299Y0071400D01*
X0179160Y0072651D02*
X0185348Y0072651D01*
X0185799Y0072200D02*
X0189609Y0072200D01*
X0192304Y0074895D01*
X0192304Y0078705D01*
X0189609Y0081400D01*
X0185799Y0081400D01*
X0185736Y0081337D01*
X0153806Y0113267D01*
X0153806Y0120624D01*
X0153441Y0121506D01*
X0118008Y0156939D01*
X0117333Y0157614D01*
X0116451Y0157980D01*
X0107097Y0157980D01*
X0107097Y0159083D01*
X0106401Y0160762D01*
X0105116Y0162047D01*
X0103437Y0162743D01*
X0101620Y0162743D01*
X0099940Y0162047D01*
X0098655Y0160762D01*
X0097960Y0159083D01*
X0097960Y0151328D01*
X0098655Y0149649D01*
X0099940Y0148364D01*
X0101620Y0147669D01*
X0103437Y0147669D01*
X0105116Y0148364D01*
X0106401Y0149649D01*
X0107097Y0151328D01*
X0107097Y0153180D01*
X0114979Y0153180D01*
X0149006Y0119152D01*
X0149006Y0111795D01*
X0149372Y0110913D01*
X0150047Y0110238D01*
X0183104Y0077181D01*
X0183104Y0074895D01*
X0185799Y0072200D01*
X0184457Y0071052D02*
X0190851Y0071052D01*
X0191199Y0071400D02*
X0188504Y0068705D01*
X0188504Y0064895D01*
X0191199Y0062200D01*
X0195009Y0062200D01*
X0197704Y0064895D01*
X0197704Y0068705D01*
X0195009Y0071400D01*
X0191199Y0071400D01*
X0190060Y0072651D02*
X0196248Y0072651D01*
X0196699Y0072200D02*
X0200509Y0072200D01*
X0202156Y0073847D01*
X0202156Y0071400D01*
X0202099Y0071400D01*
X0199404Y0068705D01*
X0199404Y0064895D01*
X0202099Y0062200D01*
X0205909Y0062200D01*
X0208604Y0064895D01*
X0208604Y0068705D01*
X0206956Y0070353D01*
X0206956Y0072743D01*
X0207499Y0072200D01*
X0211309Y0072200D01*
X0211998Y0072889D01*
X0211998Y0070400D01*
X0210304Y0068705D01*
X0210304Y0064895D01*
X0212999Y0062200D01*
X0216809Y0062200D01*
X0219504Y0064895D01*
X0219504Y0068705D01*
X0216809Y0071400D01*
X0216798Y0071400D01*
X0216798Y0073800D01*
X0218399Y0072200D01*
X0222209Y0072200D01*
X0224904Y0074895D01*
X0224904Y0078705D01*
X0223082Y0080527D01*
X0223082Y0148585D01*
X0223270Y0148663D01*
X0224555Y0149948D01*
X0225250Y0151627D01*
X0225250Y0159382D01*
X0224555Y0161061D01*
X0223270Y0162346D01*
X0222783Y0162548D01*
X0222783Y0229990D01*
X0224983Y0232190D01*
X0224983Y0236001D01*
X0222288Y0238695D01*
X0218477Y0238695D01*
X0217383Y0237601D01*
X0217383Y0239990D01*
X0219583Y0242190D01*
X0219583Y0246001D01*
X0216888Y0248695D01*
X0213077Y0248695D01*
X0210383Y0246001D01*
X0210383Y0242190D01*
X0212583Y0239990D01*
X0212583Y0237501D01*
X0211388Y0238695D01*
X0207577Y0238695D01*
X0206483Y0237601D01*
X0206483Y0239990D01*
X0208683Y0242190D01*
X0208683Y0246001D01*
X0205988Y0248695D01*
X0202177Y0248695D01*
X0199483Y0246001D01*
X0199483Y0242190D01*
X0201683Y0239990D01*
X0201683Y0237601D01*
X0200588Y0238695D01*
X0196777Y0238695D01*
X0194083Y0236001D01*
X0194083Y0233146D01*
X0181908Y0220972D01*
X0162740Y0220972D01*
X0161858Y0220606D01*
X0146475Y0205224D01*
X0125338Y0205224D01*
X0124456Y0204858D01*
X0121982Y0202384D01*
X0121187Y0202384D01*
X0119507Y0201689D01*
X0118222Y0200404D01*
X0117527Y0198724D01*
X0117527Y0190970D01*
X0118222Y0189291D01*
X0119507Y0188006D01*
X0119695Y0187928D01*
X0119695Y0162760D01*
X0120061Y0161878D01*
X0145435Y0136503D01*
X0146110Y0135828D01*
X0146992Y0135463D01*
X0154349Y0135463D01*
X0196250Y0093562D01*
X0196250Y0080952D01*
X0194004Y0078705D01*
X0194004Y0074895D01*
X0196699Y0072200D01*
X0195357Y0071052D02*
X0201751Y0071052D01*
X0202156Y0072651D02*
X0200960Y0072651D01*
X0200152Y0069454D02*
X0196955Y0069454D01*
X0197704Y0067855D02*
X0199404Y0067855D01*
X0199404Y0066257D02*
X0197704Y0066257D01*
X0197468Y0064658D02*
X0199640Y0064658D01*
X0201239Y0063060D02*
X0195869Y0063060D01*
X0190339Y0063060D02*
X0184969Y0063060D01*
X0186568Y0064658D02*
X0188740Y0064658D01*
X0188504Y0066257D02*
X0186804Y0066257D01*
X0186804Y0067855D02*
X0188504Y0067855D01*
X0189252Y0069454D02*
X0186055Y0069454D01*
X0183749Y0074249D02*
X0180759Y0074249D01*
X0181404Y0075848D02*
X0183104Y0075848D01*
X0182838Y0077446D02*
X0181404Y0077446D01*
X0181240Y0079045D02*
X0181064Y0079045D01*
X0179641Y0080643D02*
X0179466Y0080643D01*
X0178043Y0082242D02*
X0167586Y0082242D01*
X0167586Y0083840D02*
X0176444Y0083840D01*
X0174846Y0085439D02*
X0167586Y0085439D01*
X0167586Y0087038D02*
X0173247Y0087038D01*
X0171649Y0088636D02*
X0166626Y0088636D01*
X0166545Y0088716D02*
X0166545Y0088716D01*
X0165027Y0090235D02*
X0170050Y0090235D01*
X0168452Y0091833D02*
X0163429Y0091833D01*
X0161830Y0093432D02*
X0166853Y0093432D01*
X0165255Y0095030D02*
X0160232Y0095030D01*
X0158633Y0096629D02*
X0163656Y0096629D01*
X0162058Y0098227D02*
X0157035Y0098227D01*
X0155436Y0099826D02*
X0160459Y0099826D01*
X0158861Y0101424D02*
X0153838Y0101424D01*
X0152239Y0103023D02*
X0157262Y0103023D01*
X0155663Y0104621D02*
X0150641Y0104621D01*
X0149042Y0106220D02*
X0154065Y0106220D01*
X0152466Y0107818D02*
X0147444Y0107818D01*
X0145845Y0109417D02*
X0150868Y0109417D01*
X0149329Y0111015D02*
X0144247Y0111015D01*
X0142648Y0112614D02*
X0149006Y0112614D01*
X0149006Y0114212D02*
X0141050Y0114212D01*
X0139451Y0115811D02*
X0149006Y0115811D01*
X0149006Y0117409D02*
X0137853Y0117409D01*
X0136254Y0119008D02*
X0149006Y0119008D01*
X0147552Y0120606D02*
X0134656Y0120606D01*
X0133057Y0122205D02*
X0145954Y0122205D01*
X0144355Y0123803D02*
X0131459Y0123803D01*
X0129860Y0125402D02*
X0142757Y0125402D01*
X0141158Y0127000D02*
X0128262Y0127000D01*
X0126663Y0128599D02*
X0139560Y0128599D01*
X0137961Y0130197D02*
X0125064Y0130197D01*
X0123466Y0131796D02*
X0136363Y0131796D01*
X0134764Y0133394D02*
X0121867Y0133394D01*
X0120269Y0134993D02*
X0133166Y0134993D01*
X0131567Y0136591D02*
X0118670Y0136591D01*
X0117072Y0138190D02*
X0129969Y0138190D01*
X0128370Y0139788D02*
X0115473Y0139788D01*
X0113875Y0141387D02*
X0126772Y0141387D01*
X0125173Y0142985D02*
X0098497Y0142985D01*
X0096898Y0144584D02*
X0123575Y0144584D01*
X0121976Y0146182D02*
X0095300Y0146182D01*
X0093701Y0147781D02*
X0101348Y0147781D01*
X0103709Y0147781D02*
X0120378Y0147781D01*
X0118779Y0149379D02*
X0106132Y0149379D01*
X0106952Y0150978D02*
X0117181Y0150978D01*
X0115582Y0152576D02*
X0107097Y0152576D01*
X0102902Y0155580D02*
X0102528Y0155206D01*
X0102902Y0155580D02*
X0115973Y0155580D01*
X0151406Y0120146D01*
X0151406Y0112272D01*
X0186879Y0076800D01*
X0187704Y0076800D01*
X0192304Y0077446D02*
X0194004Y0077446D01*
X0194004Y0075848D02*
X0192304Y0075848D01*
X0191659Y0074249D02*
X0194649Y0074249D01*
X0198604Y0076800D02*
X0198650Y0076846D01*
X0198650Y0094556D01*
X0155343Y0137863D01*
X0147469Y0137863D01*
X0122095Y0163237D01*
X0122095Y0191013D01*
X0121879Y0191229D01*
X0121879Y0198887D01*
X0125816Y0202824D01*
X0147469Y0202824D01*
X0163217Y0218572D01*
X0182902Y0218572D01*
X0198426Y0234095D01*
X0198683Y0234095D01*
X0194083Y0234101D02*
X0192383Y0234101D01*
X0192383Y0235699D02*
X0194083Y0235699D01*
X0192383Y0236001D02*
X0192383Y0232190D01*
X0189688Y0229495D01*
X0185877Y0229495D01*
X0183183Y0232190D01*
X0183183Y0236001D01*
X0185877Y0238695D01*
X0189688Y0238695D01*
X0192383Y0236001D01*
X0191086Y0237298D02*
X0195380Y0237298D01*
X0195088Y0239495D02*
X0191277Y0239495D01*
X0188583Y0242190D01*
X0188583Y0246001D01*
X0191277Y0248695D01*
X0195088Y0248695D01*
X0197783Y0246001D01*
X0197783Y0242190D01*
X0195088Y0239495D01*
X0196087Y0240495D02*
X0201178Y0240495D01*
X0201683Y0238896D02*
X0106983Y0238896D01*
X0106983Y0237568D02*
X0106983Y0240622D01*
X0106192Y0243573D01*
X0104665Y0246218D01*
X0102505Y0248378D01*
X0099860Y0249905D01*
X0096910Y0250695D01*
X0093855Y0250695D01*
X0090905Y0249905D01*
X0088260Y0248378D01*
X0086100Y0246218D01*
X0084573Y0243573D01*
X0083783Y0240622D01*
X0083783Y0237568D01*
X0084573Y0234618D01*
X0086100Y0231973D01*
X0088260Y0229813D01*
X0090905Y0228286D01*
X0093855Y0227495D01*
X0096910Y0227495D01*
X0099860Y0228286D01*
X0102505Y0229813D01*
X0104665Y0231973D01*
X0106192Y0234618D01*
X0106983Y0237568D01*
X0106910Y0237298D02*
X0119280Y0237298D01*
X0117983Y0235699D02*
X0106482Y0235699D01*
X0105893Y0234101D02*
X0117983Y0234101D01*
X0117983Y0232502D02*
X0104971Y0232502D01*
X0103596Y0230904D02*
X0117895Y0230904D01*
X0116663Y0229305D02*
X0101625Y0229305D01*
X0097698Y0227707D02*
X0115432Y0227707D01*
X0115973Y0224477D02*
X0059674Y0224477D01*
X0043926Y0210698D01*
X0043926Y0193422D01*
X0043485Y0192981D01*
X0043485Y0135548D01*
X0072666Y0106367D01*
X0092937Y0106367D01*
X0122504Y0076800D01*
X0127104Y0077446D02*
X0128704Y0077446D01*
X0128704Y0075848D02*
X0127104Y0075848D01*
X0126459Y0074249D02*
X0129349Y0074249D01*
X0131755Y0069454D02*
X0134952Y0069454D01*
X0134204Y0067855D02*
X0132504Y0067855D01*
X0132504Y0066257D02*
X0134204Y0066257D01*
X0134440Y0064658D02*
X0132268Y0064658D01*
X0130669Y0063060D02*
X0136039Y0063060D01*
X0141569Y0063060D02*
X0146839Y0063060D01*
X0145240Y0064658D02*
X0143168Y0064658D01*
X0143404Y0066257D02*
X0145004Y0066257D01*
X0145004Y0067855D02*
X0143404Y0067855D01*
X0142655Y0069454D02*
X0145752Y0069454D01*
X0148159Y0074249D02*
X0151149Y0074249D01*
X0150504Y0075848D02*
X0148804Y0075848D01*
X0148804Y0077446D02*
X0150504Y0077446D01*
X0149465Y0079045D02*
X0148464Y0079045D01*
X0147866Y0080643D02*
X0146866Y0080643D01*
X0146268Y0082242D02*
X0120456Y0082242D01*
X0118858Y0083840D02*
X0144669Y0083840D01*
X0143071Y0085439D02*
X0117259Y0085439D01*
X0115661Y0087038D02*
X0141472Y0087038D01*
X0139874Y0088636D02*
X0114062Y0088636D01*
X0112463Y0090235D02*
X0138275Y0090235D01*
X0136677Y0091833D02*
X0110865Y0091833D01*
X0109266Y0093432D02*
X0135078Y0093432D01*
X0133480Y0095030D02*
X0107668Y0095030D01*
X0106069Y0096629D02*
X0131881Y0096629D01*
X0130283Y0098227D02*
X0104471Y0098227D01*
X0102872Y0099826D02*
X0128684Y0099826D01*
X0127086Y0101424D02*
X0101274Y0101424D01*
X0099675Y0103023D02*
X0111986Y0103023D01*
X0110388Y0104621D02*
X0098077Y0104621D01*
X0096478Y0106220D02*
X0108789Y0106220D01*
X0107191Y0107818D02*
X0094880Y0107818D01*
X0092887Y0103023D02*
X0007400Y0103023D01*
X0007400Y0104621D02*
X0071018Y0104621D01*
X0069419Y0106220D02*
X0007400Y0106220D01*
X0007400Y0107818D02*
X0067821Y0107818D01*
X0066222Y0109417D02*
X0046173Y0109417D01*
X0046226Y0109439D02*
X0047512Y0110724D01*
X0048207Y0112403D01*
X0048207Y0120158D01*
X0047512Y0121837D01*
X0046226Y0123122D01*
X0044547Y0123817D01*
X0042730Y0123817D01*
X0041051Y0123122D01*
X0039766Y0121837D01*
X0039070Y0120158D01*
X0039070Y0112403D01*
X0039766Y0110724D01*
X0041051Y0109439D01*
X0042730Y0108743D01*
X0044547Y0108743D01*
X0046226Y0109439D01*
X0047632Y0111015D02*
X0064624Y0111015D01*
X0063025Y0112614D02*
X0048207Y0112614D01*
X0048207Y0114212D02*
X0061427Y0114212D01*
X0059828Y0115811D02*
X0048207Y0115811D01*
X0048207Y0117409D02*
X0058230Y0117409D01*
X0056631Y0119008D02*
X0048207Y0119008D01*
X0048021Y0120606D02*
X0055033Y0120606D01*
X0053434Y0122205D02*
X0047143Y0122205D01*
X0044581Y0123803D02*
X0051836Y0123803D01*
X0050237Y0125402D02*
X0007400Y0125402D01*
X0007400Y0127000D02*
X0048639Y0127000D01*
X0047040Y0128599D02*
X0007400Y0128599D01*
X0007400Y0130197D02*
X0045442Y0130197D01*
X0043843Y0131796D02*
X0007400Y0131796D01*
X0007400Y0133394D02*
X0042245Y0133394D01*
X0041117Y0134993D02*
X0007400Y0134993D01*
X0007400Y0136591D02*
X0041085Y0136591D01*
X0041085Y0138190D02*
X0007400Y0138190D01*
X0007400Y0139788D02*
X0041085Y0139788D01*
X0041085Y0141387D02*
X0007400Y0141387D01*
X0007400Y0142985D02*
X0041085Y0142985D01*
X0041085Y0144584D02*
X0007400Y0144584D01*
X0007400Y0146182D02*
X0041085Y0146182D01*
X0041085Y0147781D02*
X0007400Y0147781D01*
X0007400Y0149379D02*
X0020531Y0149379D01*
X0019939Y0149972D02*
X0021224Y0148687D01*
X0022903Y0147991D01*
X0024721Y0147991D01*
X0026400Y0148687D01*
X0027685Y0149972D01*
X0028380Y0151651D01*
X0028380Y0159406D01*
X0027685Y0161085D01*
X0026400Y0162370D01*
X0024721Y0163065D01*
X0022903Y0163065D01*
X0021224Y0162370D01*
X0019939Y0161085D01*
X0019243Y0159406D01*
X0019243Y0151651D01*
X0019939Y0149972D01*
X0019522Y0150978D02*
X0007400Y0150978D01*
X0007400Y0152576D02*
X0019243Y0152576D01*
X0019243Y0154175D02*
X0007400Y0154175D01*
X0007400Y0155773D02*
X0019243Y0155773D01*
X0019243Y0157372D02*
X0007400Y0157372D01*
X0007400Y0158971D02*
X0019243Y0158971D01*
X0019725Y0160569D02*
X0007400Y0160569D01*
X0007400Y0162168D02*
X0021022Y0162168D01*
X0026602Y0162168D02*
X0041085Y0162168D01*
X0041085Y0163766D02*
X0007400Y0163766D01*
X0007400Y0165365D02*
X0041085Y0165365D01*
X0041085Y0166963D02*
X0007400Y0166963D01*
X0007400Y0168562D02*
X0041085Y0168562D01*
X0041085Y0170160D02*
X0007400Y0170160D01*
X0007400Y0171759D02*
X0041085Y0171759D01*
X0041085Y0173357D02*
X0007400Y0173357D01*
X0007400Y0174956D02*
X0041085Y0174956D01*
X0041085Y0176554D02*
X0007400Y0176554D01*
X0007400Y0178153D02*
X0041085Y0178153D01*
X0041085Y0179751D02*
X0007400Y0179751D01*
X0007400Y0181350D02*
X0041085Y0181350D01*
X0041085Y0182948D02*
X0007400Y0182948D01*
X0007400Y0184547D02*
X0041085Y0184547D01*
X0041085Y0186145D02*
X0007400Y0186145D01*
X0007400Y0187744D02*
X0041085Y0187744D01*
X0039805Y0189342D02*
X0007400Y0189342D01*
X0007400Y0190941D02*
X0039030Y0190941D01*
X0038917Y0192539D02*
X0007400Y0192539D01*
X0007400Y0194138D02*
X0038917Y0194138D01*
X0038917Y0195736D02*
X0007400Y0195736D01*
X0007400Y0197335D02*
X0038917Y0197335D01*
X0038917Y0198933D02*
X0007400Y0198933D01*
X0007400Y0200532D02*
X0039564Y0200532D01*
X0041374Y0202130D02*
X0007400Y0202130D01*
X0007400Y0203729D02*
X0041526Y0203729D01*
X0041526Y0205327D02*
X0007400Y0205327D01*
X0007400Y0206926D02*
X0041526Y0206926D01*
X0041526Y0208524D02*
X0007400Y0208524D01*
X0007400Y0210123D02*
X0041526Y0210123D01*
X0041752Y0211721D02*
X0007400Y0211721D01*
X0007400Y0213320D02*
X0043278Y0213320D01*
X0045105Y0214918D02*
X0007400Y0214918D01*
X0007400Y0216517D02*
X0046932Y0216517D01*
X0048759Y0218115D02*
X0007400Y0218115D01*
X0007400Y0219714D02*
X0050586Y0219714D01*
X0052413Y0221312D02*
X0007400Y0221312D01*
X0007400Y0222911D02*
X0054239Y0222911D01*
X0056066Y0224509D02*
X0007400Y0224509D01*
X0007400Y0226108D02*
X0057893Y0226108D01*
X0059702Y0221312D02*
X0121225Y0221312D01*
X0119627Y0219714D02*
X0057875Y0219714D01*
X0056048Y0218115D02*
X0118028Y0218115D01*
X0117942Y0214635D02*
X0072666Y0214635D01*
X0062824Y0204792D01*
X0062824Y0155969D01*
X0063229Y0155564D01*
X0063229Y0155174D01*
X0114005Y0104398D01*
X0127506Y0104398D01*
X0155104Y0076800D01*
X0159704Y0077446D02*
X0161304Y0077446D01*
X0161304Y0075848D02*
X0159704Y0075848D01*
X0159059Y0074249D02*
X0161949Y0074249D01*
X0165186Y0077518D02*
X0165904Y0076800D01*
X0165186Y0077518D02*
X0165186Y0086682D01*
X0112036Y0139831D01*
X0098257Y0139831D01*
X0082934Y0155154D01*
X0082934Y0194950D01*
X0082509Y0195375D01*
X0082509Y0204792D01*
X0084477Y0206761D01*
X0119910Y0206761D01*
X0127784Y0214635D01*
X0147469Y0214635D01*
X0166083Y0233248D01*
X0166083Y0234095D01*
X0170683Y0234101D02*
X0172283Y0234101D01*
X0172283Y0235699D02*
X0170683Y0235699D01*
X0172283Y0236001D02*
X0172283Y0232190D01*
X0174977Y0229495D01*
X0178788Y0229495D01*
X0181483Y0232190D01*
X0181483Y0236001D01*
X0178788Y0238695D01*
X0174977Y0238695D01*
X0172283Y0236001D01*
X0173580Y0237298D02*
X0169386Y0237298D01*
X0169577Y0239495D02*
X0173388Y0239495D01*
X0176083Y0242190D01*
X0176083Y0246001D01*
X0173388Y0248695D01*
X0169577Y0248695D01*
X0166883Y0246001D01*
X0166883Y0242190D01*
X0169577Y0239495D01*
X0168578Y0240495D02*
X0163487Y0240495D01*
X0162488Y0239495D02*
X0165183Y0242190D01*
X0165183Y0246001D01*
X0162488Y0248695D01*
X0158677Y0248695D01*
X0155983Y0246001D01*
X0155983Y0242190D01*
X0158677Y0239495D01*
X0162488Y0239495D01*
X0162780Y0237298D02*
X0158486Y0237298D01*
X0159783Y0235699D02*
X0161483Y0235699D01*
X0161483Y0234101D02*
X0159783Y0234101D01*
X0159783Y0232502D02*
X0161483Y0232502D01*
X0160344Y0230904D02*
X0158496Y0230904D01*
X0158746Y0229305D02*
X0155691Y0229305D01*
X0157147Y0227707D02*
X0154093Y0227707D01*
X0155549Y0226108D02*
X0152494Y0226108D01*
X0153950Y0224509D02*
X0150896Y0224509D01*
X0152352Y0222911D02*
X0149297Y0222911D01*
X0150753Y0221312D02*
X0147699Y0221312D01*
X0149155Y0219714D02*
X0126415Y0219714D01*
X0124817Y0218115D02*
X0147556Y0218115D01*
X0151147Y0214918D02*
X0156170Y0214918D01*
X0154571Y0213320D02*
X0149549Y0213320D01*
X0151374Y0210123D02*
X0126667Y0210123D01*
X0128265Y0211721D02*
X0152973Y0211721D01*
X0149776Y0208524D02*
X0125068Y0208524D01*
X0123470Y0206926D02*
X0148177Y0206926D01*
X0146579Y0205327D02*
X0121871Y0205327D01*
X0123327Y0203729D02*
X0084909Y0203729D01*
X0084909Y0202130D02*
X0120574Y0202130D01*
X0118351Y0200532D02*
X0086781Y0200532D01*
X0087458Y0198933D02*
X0117613Y0198933D01*
X0117527Y0197335D02*
X0087502Y0197335D01*
X0087502Y0195736D02*
X0117527Y0195736D01*
X0117527Y0194138D02*
X0087502Y0194138D01*
X0087502Y0192539D02*
X0117527Y0192539D01*
X0117539Y0190941D02*
X0087448Y0190941D01*
X0086756Y0189342D02*
X0118201Y0189342D01*
X0119695Y0187744D02*
X0085334Y0187744D01*
X0085334Y0186145D02*
X0119695Y0186145D01*
X0119695Y0184547D02*
X0085334Y0184547D01*
X0085334Y0182948D02*
X0119695Y0182948D01*
X0119695Y0181350D02*
X0085334Y0181350D01*
X0085334Y0179751D02*
X0119695Y0179751D01*
X0119695Y0178153D02*
X0085334Y0178153D01*
X0085334Y0176554D02*
X0119695Y0176554D01*
X0119695Y0174956D02*
X0085334Y0174956D01*
X0085334Y0173357D02*
X0119695Y0173357D01*
X0119695Y0171759D02*
X0085334Y0171759D01*
X0085334Y0170160D02*
X0119695Y0170160D01*
X0119695Y0168562D02*
X0085334Y0168562D01*
X0085334Y0166963D02*
X0119695Y0166963D01*
X0119695Y0165365D02*
X0085334Y0165365D01*
X0085334Y0163766D02*
X0119695Y0163766D01*
X0119941Y0162168D02*
X0104825Y0162168D01*
X0106481Y0160569D02*
X0121369Y0160569D01*
X0122968Y0158971D02*
X0107097Y0158971D01*
X0100232Y0162168D02*
X0085334Y0162168D01*
X0085334Y0160569D02*
X0098575Y0160569D01*
X0097960Y0158971D02*
X0085334Y0158971D01*
X0085334Y0157372D02*
X0097960Y0157372D01*
X0097960Y0155773D02*
X0085709Y0155773D01*
X0087307Y0154175D02*
X0097960Y0154175D01*
X0097960Y0152576D02*
X0088906Y0152576D01*
X0090504Y0150978D02*
X0098105Y0150978D01*
X0098925Y0149379D02*
X0092103Y0149379D01*
X0088512Y0146182D02*
X0075615Y0146182D01*
X0077213Y0144584D02*
X0090110Y0144584D01*
X0091709Y0142985D02*
X0078812Y0142985D01*
X0080410Y0141387D02*
X0093307Y0141387D01*
X0094906Y0139788D02*
X0082009Y0139788D01*
X0083607Y0138190D02*
X0096504Y0138190D01*
X0096222Y0138472D02*
X0096222Y0138472D01*
X0088403Y0133394D02*
X0115079Y0133394D01*
X0116678Y0131796D02*
X0090001Y0131796D01*
X0091600Y0130197D02*
X0118276Y0130197D01*
X0119875Y0128599D02*
X0093198Y0128599D01*
X0094797Y0127000D02*
X0121473Y0127000D01*
X0123072Y0125402D02*
X0096395Y0125402D01*
X0097994Y0123803D02*
X0124670Y0123803D01*
X0124923Y0123055D02*
X0123244Y0123750D01*
X0121427Y0123750D01*
X0119748Y0123055D01*
X0118462Y0121770D01*
X0117767Y0120091D01*
X0117767Y0112336D01*
X0118462Y0110657D01*
X0119748Y0109372D01*
X0121427Y0108676D01*
X0123244Y0108676D01*
X0124923Y0109372D01*
X0126208Y0110657D01*
X0126904Y0112336D01*
X0126904Y0120091D01*
X0126208Y0121770D01*
X0124923Y0123055D01*
X0125773Y0122205D02*
X0126269Y0122205D01*
X0126690Y0120606D02*
X0127867Y0120606D01*
X0126904Y0119008D02*
X0129466Y0119008D01*
X0131064Y0117409D02*
X0126904Y0117409D01*
X0126904Y0115811D02*
X0132663Y0115811D01*
X0134261Y0114212D02*
X0126904Y0114212D01*
X0126904Y0112614D02*
X0135860Y0112614D01*
X0137458Y0111015D02*
X0126357Y0111015D01*
X0124968Y0109417D02*
X0139057Y0109417D01*
X0140655Y0107818D02*
X0113979Y0107818D01*
X0112381Y0109417D02*
X0119703Y0109417D01*
X0118314Y0111015D02*
X0110782Y0111015D01*
X0109184Y0112614D02*
X0117767Y0112614D01*
X0117767Y0114212D02*
X0107585Y0114212D01*
X0105987Y0115811D02*
X0117767Y0115811D01*
X0117767Y0117409D02*
X0104388Y0117409D01*
X0102790Y0119008D02*
X0117767Y0119008D01*
X0117981Y0120606D02*
X0101191Y0120606D01*
X0099592Y0122205D02*
X0118897Y0122205D01*
X0113481Y0134993D02*
X0086804Y0134993D01*
X0085206Y0136591D02*
X0111882Y0136591D01*
X0127166Y0147781D02*
X0134157Y0147781D01*
X0132559Y0149379D02*
X0125567Y0149379D01*
X0123969Y0150978D02*
X0130960Y0150978D01*
X0129362Y0152576D02*
X0122370Y0152576D01*
X0120772Y0154175D02*
X0127763Y0154175D01*
X0126165Y0155773D02*
X0119173Y0155773D01*
X0117575Y0157372D02*
X0124566Y0157372D01*
X0128157Y0160569D02*
X0138028Y0160569D01*
X0138262Y0161132D02*
X0137566Y0159453D01*
X0137566Y0151698D01*
X0137947Y0150780D01*
X0124495Y0164231D01*
X0124495Y0187928D01*
X0124683Y0188006D01*
X0125968Y0189291D01*
X0126664Y0190970D01*
X0126664Y0198724D01*
X0126209Y0199823D01*
X0126810Y0200424D01*
X0147947Y0200424D01*
X0148829Y0200789D01*
X0149504Y0201464D01*
X0164211Y0216172D01*
X0183380Y0216172D01*
X0184262Y0216537D01*
X0184937Y0217212D01*
X0197220Y0229495D01*
X0200588Y0229495D01*
X0201683Y0230590D01*
X0201683Y0228935D01*
X0183877Y0211129D01*
X0160771Y0211129D01*
X0159889Y0210764D01*
X0140204Y0191079D01*
X0139529Y0190404D01*
X0139164Y0189521D01*
X0139164Y0162034D01*
X0138262Y0161132D01*
X0139164Y0162168D02*
X0126559Y0162168D01*
X0124960Y0163766D02*
X0139164Y0163766D01*
X0139164Y0165365D02*
X0124495Y0165365D01*
X0124495Y0166963D02*
X0139164Y0166963D01*
X0139164Y0168562D02*
X0124495Y0168562D01*
X0124495Y0170160D02*
X0139164Y0170160D01*
X0139164Y0171759D02*
X0124495Y0171759D01*
X0124495Y0173357D02*
X0139164Y0173357D01*
X0139164Y0174956D02*
X0124495Y0174956D01*
X0124495Y0176554D02*
X0139164Y0176554D01*
X0139164Y0178153D02*
X0124495Y0178153D01*
X0124495Y0179751D02*
X0139164Y0179751D01*
X0139164Y0181350D02*
X0124495Y0181350D01*
X0124495Y0182948D02*
X0139164Y0182948D01*
X0139164Y0184547D02*
X0124495Y0184547D01*
X0124495Y0186145D02*
X0139164Y0186145D01*
X0139164Y0187744D02*
X0124495Y0187744D01*
X0125990Y0189342D02*
X0139164Y0189342D01*
X0140066Y0190941D02*
X0126652Y0190941D01*
X0126664Y0192539D02*
X0141665Y0192539D01*
X0143263Y0194138D02*
X0126664Y0194138D01*
X0126664Y0195736D02*
X0144862Y0195736D01*
X0146460Y0197335D02*
X0126664Y0197335D01*
X0126577Y0198933D02*
X0148059Y0198933D01*
X0148208Y0200532D02*
X0149657Y0200532D01*
X0150170Y0202130D02*
X0151256Y0202130D01*
X0151769Y0203729D02*
X0152854Y0203729D01*
X0153367Y0205327D02*
X0154453Y0205327D01*
X0154966Y0206926D02*
X0156051Y0206926D01*
X0156564Y0208524D02*
X0157650Y0208524D01*
X0158163Y0210123D02*
X0159248Y0210123D01*
X0159761Y0211721D02*
X0184469Y0211721D01*
X0186068Y0213320D02*
X0161360Y0213320D01*
X0162958Y0214918D02*
X0187666Y0214918D01*
X0189265Y0216517D02*
X0184213Y0216517D01*
X0185840Y0218115D02*
X0190863Y0218115D01*
X0192462Y0219714D02*
X0187439Y0219714D01*
X0189037Y0221312D02*
X0194060Y0221312D01*
X0195659Y0222911D02*
X0190636Y0222911D01*
X0192234Y0224509D02*
X0197257Y0224509D01*
X0198856Y0226108D02*
X0193833Y0226108D01*
X0195431Y0227707D02*
X0200454Y0227707D01*
X0201683Y0229305D02*
X0197030Y0229305D01*
X0193439Y0232502D02*
X0192383Y0232502D01*
X0191840Y0230904D02*
X0191096Y0230904D01*
X0190242Y0229305D02*
X0165534Y0229305D01*
X0163935Y0227707D02*
X0188643Y0227707D01*
X0187045Y0226108D02*
X0162337Y0226108D01*
X0160738Y0224509D02*
X0185446Y0224509D01*
X0183848Y0222911D02*
X0159140Y0222911D01*
X0157541Y0221312D02*
X0182249Y0221312D01*
X0180196Y0230904D02*
X0184469Y0230904D01*
X0183183Y0232502D02*
X0181483Y0232502D01*
X0181483Y0234101D02*
X0183183Y0234101D01*
X0183183Y0235699D02*
X0181483Y0235699D01*
X0180186Y0237298D02*
X0184480Y0237298D01*
X0184288Y0239495D02*
X0186983Y0242190D01*
X0186983Y0246001D01*
X0184288Y0248695D01*
X0180477Y0248695D01*
X0177783Y0246001D01*
X0177783Y0242190D01*
X0180477Y0239495D01*
X0184288Y0239495D01*
X0185287Y0240495D02*
X0190278Y0240495D01*
X0188679Y0242093D02*
X0186886Y0242093D01*
X0186983Y0243692D02*
X0188583Y0243692D01*
X0188583Y0245290D02*
X0186983Y0245290D01*
X0186095Y0246889D02*
X0189471Y0246889D01*
X0191069Y0248487D02*
X0184496Y0248487D01*
X0180269Y0248487D02*
X0173596Y0248487D01*
X0175195Y0246889D02*
X0178671Y0246889D01*
X0177783Y0245290D02*
X0176083Y0245290D01*
X0176083Y0243692D02*
X0177783Y0243692D01*
X0177879Y0242093D02*
X0175986Y0242093D01*
X0174387Y0240495D02*
X0179478Y0240495D01*
X0172283Y0232502D02*
X0170683Y0232502D01*
X0169396Y0230904D02*
X0173569Y0230904D01*
X0160966Y0219714D02*
X0155943Y0219714D01*
X0154344Y0218115D02*
X0159367Y0218115D01*
X0157768Y0216517D02*
X0152746Y0216517D01*
X0145501Y0222509D02*
X0125816Y0222509D01*
X0117942Y0214635D01*
X0120021Y0213320D02*
X0123075Y0213320D01*
X0121620Y0214918D02*
X0124674Y0214918D01*
X0123218Y0216517D02*
X0126272Y0216517D01*
X0121477Y0211721D02*
X0073147Y0211721D01*
X0071548Y0210123D02*
X0119878Y0210123D01*
X0117801Y0222911D02*
X0122824Y0222911D01*
X0124422Y0224509D02*
X0119028Y0224509D01*
X0120260Y0226108D02*
X0145706Y0226108D01*
X0147305Y0227707D02*
X0121491Y0227707D01*
X0122723Y0229305D02*
X0148903Y0229305D01*
X0147596Y0230904D02*
X0150502Y0230904D01*
X0150583Y0232502D02*
X0148883Y0232502D01*
X0148883Y0232190D02*
X0146188Y0229495D01*
X0142377Y0229495D01*
X0139683Y0232190D01*
X0139683Y0236001D01*
X0142377Y0238695D01*
X0146188Y0238695D01*
X0148883Y0236001D01*
X0148883Y0232190D01*
X0148883Y0234101D02*
X0150583Y0234101D01*
X0150583Y0235699D02*
X0148883Y0235699D01*
X0147586Y0237298D02*
X0151880Y0237298D01*
X0151688Y0239495D02*
X0147877Y0239495D01*
X0145183Y0242190D01*
X0145183Y0246001D01*
X0147877Y0248695D01*
X0151688Y0248695D01*
X0154383Y0246001D01*
X0154383Y0242190D01*
X0151688Y0239495D01*
X0152687Y0240495D02*
X0157678Y0240495D01*
X0156079Y0242093D02*
X0154286Y0242093D01*
X0154383Y0243692D02*
X0155983Y0243692D01*
X0155983Y0245290D02*
X0154383Y0245290D01*
X0153495Y0246889D02*
X0156871Y0246889D01*
X0158469Y0248487D02*
X0151896Y0248487D01*
X0147669Y0248487D02*
X0140996Y0248487D01*
X0140788Y0248695D02*
X0136977Y0248695D01*
X0134283Y0246001D01*
X0134283Y0242190D01*
X0136977Y0239495D01*
X0140788Y0239495D01*
X0143483Y0242190D01*
X0143483Y0246001D01*
X0140788Y0248695D01*
X0142595Y0246889D02*
X0146071Y0246889D01*
X0145183Y0245290D02*
X0143483Y0245290D01*
X0143483Y0243692D02*
X0145183Y0243692D01*
X0145279Y0242093D02*
X0143386Y0242093D01*
X0141787Y0240495D02*
X0146878Y0240495D01*
X0140980Y0237298D02*
X0136786Y0237298D01*
X0138083Y0236001D02*
X0135388Y0238695D01*
X0131577Y0238695D01*
X0128883Y0236001D01*
X0128883Y0232190D01*
X0131577Y0229495D01*
X0135388Y0229495D01*
X0138083Y0232190D01*
X0138083Y0236001D01*
X0138083Y0235699D02*
X0139683Y0235699D01*
X0139683Y0234101D02*
X0138083Y0234101D01*
X0138083Y0232502D02*
X0139683Y0232502D01*
X0140969Y0230904D02*
X0136796Y0230904D01*
X0130169Y0230904D02*
X0125896Y0230904D01*
X0127183Y0232502D02*
X0128883Y0232502D01*
X0128883Y0234101D02*
X0127183Y0234101D01*
X0127183Y0235699D02*
X0128883Y0235699D01*
X0130180Y0237298D02*
X0125886Y0237298D01*
X0126077Y0239495D02*
X0129888Y0239495D01*
X0132583Y0242190D01*
X0132583Y0246001D01*
X0129888Y0248695D01*
X0126077Y0248695D01*
X0123383Y0246001D01*
X0123383Y0242190D01*
X0126077Y0239495D01*
X0125078Y0240495D02*
X0106983Y0240495D01*
X0106589Y0242093D02*
X0123479Y0242093D01*
X0123383Y0243692D02*
X0106123Y0243692D01*
X0105201Y0245290D02*
X0123383Y0245290D01*
X0124271Y0246889D02*
X0103994Y0246889D01*
X0102315Y0248487D02*
X0125869Y0248487D01*
X0130096Y0248487D02*
X0136769Y0248487D01*
X0135171Y0246889D02*
X0131695Y0246889D01*
X0132583Y0245290D02*
X0134283Y0245290D01*
X0134283Y0243692D02*
X0132583Y0243692D01*
X0132486Y0242093D02*
X0134379Y0242093D01*
X0135978Y0240495D02*
X0130887Y0240495D01*
X0122583Y0234095D02*
X0122583Y0233055D01*
X0115973Y0224477D01*
X0093067Y0227707D02*
X0007400Y0227707D01*
X0007400Y0229305D02*
X0089140Y0229305D01*
X0087170Y0230904D02*
X0007400Y0230904D01*
X0007400Y0232502D02*
X0085795Y0232502D01*
X0084872Y0234101D02*
X0007400Y0234101D01*
X0007400Y0235699D02*
X0084283Y0235699D01*
X0083855Y0237298D02*
X0007400Y0237298D01*
X0007400Y0238896D02*
X0083783Y0238896D01*
X0083783Y0240495D02*
X0007400Y0240495D01*
X0007400Y0242093D02*
X0084177Y0242093D01*
X0084642Y0243692D02*
X0007400Y0243692D01*
X0007400Y0245290D02*
X0085565Y0245290D01*
X0086771Y0246889D02*
X0007400Y0246889D01*
X0007400Y0248487D02*
X0088450Y0248487D01*
X0091580Y0250086D02*
X0007400Y0250086D01*
X0007400Y0251684D02*
X0431239Y0251684D01*
X0431239Y0250086D02*
X0349185Y0250086D01*
X0349860Y0249905D02*
X0346910Y0250695D01*
X0343855Y0250695D01*
X0340905Y0249905D01*
X0338260Y0248378D01*
X0336100Y0246218D01*
X0334573Y0243573D01*
X0333783Y0240622D01*
X0333783Y0237568D01*
X0334573Y0234618D01*
X0336100Y0231973D01*
X0338260Y0229813D01*
X0340905Y0228286D01*
X0343855Y0227495D01*
X0346910Y0227495D01*
X0349860Y0228286D01*
X0352505Y0229813D01*
X0354665Y0231973D01*
X0356192Y0234618D01*
X0356983Y0237568D01*
X0356983Y0240622D01*
X0356192Y0243573D01*
X0354665Y0246218D01*
X0352505Y0248378D01*
X0349860Y0249905D01*
X0352315Y0248487D02*
X0431239Y0248487D01*
X0431239Y0246889D02*
X0353994Y0246889D01*
X0355201Y0245290D02*
X0431239Y0245290D01*
X0431239Y0243692D02*
X0356123Y0243692D01*
X0356589Y0242093D02*
X0431239Y0242093D01*
X0431239Y0240495D02*
X0356983Y0240495D01*
X0356983Y0238896D02*
X0431239Y0238896D01*
X0431239Y0237298D02*
X0356910Y0237298D01*
X0356482Y0235699D02*
X0431239Y0235699D01*
X0431239Y0234101D02*
X0355893Y0234101D01*
X0354971Y0232502D02*
X0431239Y0232502D01*
X0431239Y0230904D02*
X0353596Y0230904D01*
X0351625Y0229305D02*
X0431239Y0229305D01*
X0431239Y0227707D02*
X0347698Y0227707D01*
X0343067Y0227707D02*
X0332673Y0227707D01*
X0331075Y0229305D02*
X0339140Y0229305D01*
X0337170Y0230904D02*
X0329476Y0230904D01*
X0327878Y0232502D02*
X0335795Y0232502D01*
X0334872Y0234101D02*
X0326279Y0234101D01*
X0324681Y0235699D02*
X0334283Y0235699D01*
X0333855Y0237298D02*
X0321486Y0237298D01*
X0322288Y0236495D02*
X0320088Y0238695D01*
X0316277Y0238695D01*
X0313583Y0236001D01*
X0313583Y0234986D01*
X0312439Y0236130D01*
X0311557Y0236495D01*
X0311488Y0236495D01*
X0309288Y0238695D01*
X0305477Y0238695D01*
X0302783Y0236001D01*
X0302783Y0232190D01*
X0305477Y0229495D01*
X0309288Y0229495D01*
X0310787Y0230994D01*
X0328506Y0213275D01*
X0329181Y0212600D01*
X0330063Y0212235D01*
X0368916Y0212235D01*
X0375384Y0205767D01*
X0375384Y0162103D01*
X0375287Y0162063D01*
X0374002Y0160778D01*
X0373306Y0159098D01*
X0373306Y0151344D01*
X0374002Y0149665D01*
X0375287Y0148380D01*
X0375384Y0148339D01*
X0375384Y0142794D01*
X0370885Y0138294D01*
X0363527Y0138294D01*
X0362645Y0137929D01*
X0361970Y0137254D01*
X0306116Y0081400D01*
X0305299Y0081400D01*
X0302604Y0078705D01*
X0302604Y0074895D01*
X0305299Y0072200D01*
X0309109Y0072200D01*
X0311804Y0074895D01*
X0311804Y0078705D01*
X0311007Y0079502D01*
X0364999Y0133494D01*
X0372356Y0133494D01*
X0373238Y0133860D01*
X0379144Y0139765D01*
X0379819Y0140441D01*
X0380184Y0141323D01*
X0380184Y0148264D01*
X0380463Y0148380D01*
X0381748Y0149665D01*
X0382443Y0151344D01*
X0382443Y0159098D01*
X0381748Y0160778D01*
X0380463Y0162063D01*
X0380184Y0162178D01*
X0380184Y0207238D01*
X0379819Y0208120D01*
X0379144Y0208795D01*
X0371270Y0216669D01*
X0370388Y0217035D01*
X0331534Y0217035D01*
X0319074Y0229495D01*
X0320088Y0229495D01*
X0322092Y0231499D01*
X0334411Y0219181D01*
X0335086Y0218506D01*
X0335968Y0218140D01*
X0386633Y0218140D01*
X0395857Y0208916D01*
X0395857Y0201638D01*
X0395275Y0201397D01*
X0393990Y0200112D01*
X0393294Y0198433D01*
X0393294Y0190679D01*
X0393990Y0189000D01*
X0395275Y0187714D01*
X0395463Y0187637D01*
X0395463Y0154605D01*
X0377718Y0136860D01*
X0377353Y0135978D01*
X0377353Y0111298D01*
X0357105Y0091050D01*
X0324157Y0091050D01*
X0323275Y0090685D01*
X0322600Y0090010D01*
X0316069Y0083479D01*
X0315704Y0082597D01*
X0315704Y0080905D01*
X0313504Y0078705D01*
X0313504Y0074895D01*
X0316199Y0072200D01*
X0320009Y0072200D01*
X0322704Y0074895D01*
X0322704Y0078705D01*
X0320504Y0080905D01*
X0320504Y0081126D01*
X0325629Y0086250D01*
X0358577Y0086250D01*
X0359459Y0086616D01*
X0381112Y0108269D01*
X0381787Y0108944D01*
X0382153Y0109827D01*
X0382153Y0134507D01*
X0399222Y0151576D01*
X0399898Y0152252D01*
X0400263Y0153134D01*
X0400263Y0187637D01*
X0400451Y0187714D01*
X0401736Y0189000D01*
X0402431Y0190679D01*
X0402431Y0198433D01*
X0401736Y0200112D01*
X0400657Y0201192D01*
X0400657Y0210388D01*
X0400291Y0211270D01*
X0399616Y0211945D01*
X0388986Y0222575D01*
X0388104Y0222940D01*
X0337440Y0222940D01*
X0324250Y0236130D01*
X0323368Y0236495D01*
X0322288Y0236495D01*
X0322891Y0234095D02*
X0318183Y0234095D01*
X0321496Y0230904D02*
X0322688Y0230904D01*
X0324287Y0229305D02*
X0319264Y0229305D01*
X0320862Y0227707D02*
X0325885Y0227707D01*
X0327484Y0226108D02*
X0322461Y0226108D01*
X0324059Y0224509D02*
X0329082Y0224509D01*
X0330681Y0222911D02*
X0325658Y0222911D01*
X0327256Y0221312D02*
X0332279Y0221312D01*
X0333878Y0219714D02*
X0328855Y0219714D01*
X0330453Y0218115D02*
X0386657Y0218115D01*
X0388256Y0216517D02*
X0371422Y0216517D01*
X0373021Y0214918D02*
X0389854Y0214918D01*
X0391453Y0213320D02*
X0374619Y0213320D01*
X0376218Y0211721D02*
X0393051Y0211721D01*
X0394650Y0210123D02*
X0377816Y0210123D01*
X0379415Y0208524D02*
X0395857Y0208524D01*
X0395857Y0206926D02*
X0380184Y0206926D01*
X0380184Y0205327D02*
X0395857Y0205327D01*
X0395857Y0203729D02*
X0380184Y0203729D01*
X0380184Y0202130D02*
X0395857Y0202130D01*
X0394410Y0200532D02*
X0380184Y0200532D01*
X0380184Y0198933D02*
X0393502Y0198933D01*
X0393294Y0197335D02*
X0380184Y0197335D01*
X0380184Y0195736D02*
X0393294Y0195736D01*
X0393294Y0194138D02*
X0380184Y0194138D01*
X0380184Y0192539D02*
X0393294Y0192539D01*
X0393294Y0190941D02*
X0380184Y0190941D01*
X0380184Y0189342D02*
X0393848Y0189342D01*
X0395246Y0187744D02*
X0380184Y0187744D01*
X0380184Y0186145D02*
X0395463Y0186145D01*
X0395463Y0184547D02*
X0380184Y0184547D01*
X0380184Y0182948D02*
X0395463Y0182948D01*
X0395463Y0181350D02*
X0380184Y0181350D01*
X0380184Y0179751D02*
X0395463Y0179751D01*
X0395463Y0178153D02*
X0380184Y0178153D01*
X0380184Y0176554D02*
X0395463Y0176554D01*
X0395463Y0174956D02*
X0380184Y0174956D01*
X0380184Y0173357D02*
X0395463Y0173357D01*
X0395463Y0171759D02*
X0380184Y0171759D01*
X0380184Y0170160D02*
X0395463Y0170160D01*
X0395463Y0168562D02*
X0380184Y0168562D01*
X0380184Y0166963D02*
X0395463Y0166963D01*
X0395463Y0165365D02*
X0380184Y0165365D01*
X0380184Y0163766D02*
X0395463Y0163766D01*
X0395463Y0162168D02*
X0380210Y0162168D01*
X0381834Y0160569D02*
X0395463Y0160569D01*
X0395463Y0158971D02*
X0382443Y0158971D01*
X0382443Y0157372D02*
X0395463Y0157372D01*
X0395463Y0155773D02*
X0382443Y0155773D01*
X0382443Y0154175D02*
X0395033Y0154175D01*
X0393434Y0152576D02*
X0382443Y0152576D01*
X0382292Y0150978D02*
X0391836Y0150978D01*
X0390237Y0149379D02*
X0381462Y0149379D01*
X0380184Y0147781D02*
X0388639Y0147781D01*
X0387040Y0146182D02*
X0380184Y0146182D01*
X0380184Y0144584D02*
X0385442Y0144584D01*
X0383843Y0142985D02*
X0380184Y0142985D01*
X0380184Y0141387D02*
X0382245Y0141387D01*
X0380646Y0139788D02*
X0379167Y0139788D01*
X0379048Y0138190D02*
X0377568Y0138190D01*
X0377607Y0136591D02*
X0375970Y0136591D01*
X0377353Y0134993D02*
X0374371Y0134993D01*
X0371879Y0135894D02*
X0377784Y0141800D01*
X0377784Y0151643D01*
X0377784Y0155131D01*
X0377784Y0206761D01*
X0369910Y0214635D01*
X0330540Y0214635D01*
X0311080Y0234095D01*
X0307383Y0234095D01*
X0310696Y0230904D02*
X0310877Y0230904D01*
X0312476Y0229305D02*
X0304667Y0229305D01*
X0304069Y0230904D02*
X0303069Y0230904D01*
X0302783Y0232502D02*
X0301470Y0232502D01*
X0301083Y0232889D02*
X0301083Y0236001D01*
X0298388Y0238695D01*
X0294577Y0238695D01*
X0291883Y0236001D01*
X0291883Y0232190D01*
X0294577Y0229495D01*
X0297689Y0229495D01*
X0304741Y0222443D01*
X0305623Y0222077D01*
X0311830Y0222077D01*
X0331149Y0202758D01*
X0332031Y0202392D01*
X0355137Y0202392D01*
X0355699Y0201830D01*
X0355699Y0201341D01*
X0354466Y0200108D01*
X0353771Y0198429D01*
X0353771Y0190675D01*
X0354466Y0188996D01*
X0355752Y0187710D01*
X0356093Y0187569D01*
X0356093Y0144763D01*
X0323691Y0112361D01*
X0323691Y0119665D01*
X0322996Y0121345D01*
X0321711Y0122630D01*
X0320032Y0123325D01*
X0318214Y0123325D01*
X0316535Y0122630D01*
X0315250Y0121345D01*
X0314554Y0119665D01*
X0314554Y0111911D01*
X0315250Y0110232D01*
X0316535Y0108947D01*
X0318214Y0108251D01*
X0319581Y0108251D01*
X0294369Y0083039D01*
X0294004Y0082157D01*
X0294004Y0080905D01*
X0291804Y0078705D01*
X0291804Y0074895D01*
X0294499Y0072200D01*
X0298309Y0072200D01*
X0301004Y0074895D01*
X0301004Y0078705D01*
X0298914Y0080795D01*
X0359852Y0141734D01*
X0360528Y0142409D01*
X0360893Y0143291D01*
X0360893Y0187696D01*
X0360927Y0187710D01*
X0362212Y0188996D01*
X0362908Y0190675D01*
X0362908Y0198429D01*
X0362212Y0200108D01*
X0360927Y0201393D01*
X0360499Y0201571D01*
X0360499Y0203301D01*
X0360134Y0204183D01*
X0359459Y0204858D01*
X0358165Y0206152D01*
X0357490Y0206827D01*
X0356608Y0207192D01*
X0333503Y0207192D01*
X0314858Y0225837D01*
X0314183Y0226512D01*
X0313301Y0226877D01*
X0307095Y0226877D01*
X0301083Y0232889D01*
X0301083Y0234101D02*
X0302783Y0234101D01*
X0302783Y0235699D02*
X0301083Y0235699D01*
X0299786Y0237298D02*
X0304080Y0237298D01*
X0303788Y0239495D02*
X0299977Y0239495D01*
X0297283Y0242190D01*
X0297283Y0246001D01*
X0299977Y0248695D01*
X0303788Y0248695D01*
X0306483Y0246001D01*
X0306483Y0242190D01*
X0303788Y0239495D01*
X0304787Y0240495D02*
X0309878Y0240495D01*
X0310877Y0239495D02*
X0314688Y0239495D01*
X0317383Y0242190D01*
X0317383Y0246001D01*
X0314688Y0248695D01*
X0310877Y0248695D01*
X0308183Y0246001D01*
X0308183Y0242190D01*
X0310877Y0239495D01*
X0310686Y0237298D02*
X0314880Y0237298D01*
X0313583Y0235699D02*
X0312870Y0235699D01*
X0315687Y0240495D02*
X0333783Y0240495D01*
X0333783Y0238896D02*
X0217383Y0238896D01*
X0217887Y0240495D02*
X0222878Y0240495D01*
X0223877Y0239495D02*
X0227688Y0239495D01*
X0230383Y0242190D01*
X0230383Y0246001D01*
X0227688Y0248695D01*
X0223877Y0248695D01*
X0221183Y0246001D01*
X0221183Y0242190D01*
X0223877Y0239495D01*
X0223686Y0237298D02*
X0227980Y0237298D01*
X0226683Y0236001D02*
X0226683Y0232190D01*
X0228883Y0229990D01*
X0228883Y0216564D01*
X0229248Y0215682D01*
X0237589Y0207341D01*
X0237589Y0201329D01*
X0236628Y0200368D01*
X0235932Y0198689D01*
X0235932Y0190935D01*
X0236628Y0189255D01*
X0237913Y0187970D01*
X0237983Y0187941D01*
X0237983Y0151062D01*
X0229169Y0142248D01*
X0228804Y0141366D01*
X0228804Y0080905D01*
X0226604Y0078705D01*
X0226604Y0074895D01*
X0229299Y0072200D01*
X0233109Y0072200D01*
X0235804Y0074895D01*
X0235804Y0078705D01*
X0233604Y0080905D01*
X0233604Y0139895D01*
X0241742Y0148033D01*
X0242417Y0148708D01*
X0242783Y0149590D01*
X0242783Y0187844D01*
X0243089Y0187970D01*
X0244374Y0189255D01*
X0245069Y0190935D01*
X0245069Y0198689D01*
X0244374Y0200368D01*
X0243089Y0201653D01*
X0242389Y0201943D01*
X0242389Y0208813D01*
X0242024Y0209695D01*
X0241348Y0210370D01*
X0233683Y0218036D01*
X0233683Y0229990D01*
X0235883Y0232190D01*
X0235883Y0236001D01*
X0233188Y0238695D01*
X0229377Y0238695D01*
X0226683Y0236001D01*
X0226683Y0235699D02*
X0224983Y0235699D01*
X0224983Y0234101D02*
X0226683Y0234101D01*
X0226683Y0232502D02*
X0224983Y0232502D01*
X0223696Y0230904D02*
X0227969Y0230904D01*
X0228883Y0229305D02*
X0222783Y0229305D01*
X0222783Y0227707D02*
X0228883Y0227707D01*
X0228883Y0226108D02*
X0222783Y0226108D01*
X0222783Y0224509D02*
X0228883Y0224509D01*
X0228883Y0222911D02*
X0222783Y0222911D01*
X0222783Y0221312D02*
X0228883Y0221312D01*
X0228883Y0219714D02*
X0222783Y0219714D01*
X0222783Y0218115D02*
X0228883Y0218115D01*
X0228902Y0216517D02*
X0222783Y0216517D01*
X0222783Y0214918D02*
X0230012Y0214918D01*
X0231610Y0213320D02*
X0222783Y0213320D01*
X0222783Y0211721D02*
X0233209Y0211721D01*
X0234807Y0210123D02*
X0222783Y0210123D01*
X0222783Y0208524D02*
X0236406Y0208524D01*
X0237589Y0206926D02*
X0222783Y0206926D01*
X0222783Y0205327D02*
X0237589Y0205327D01*
X0237589Y0203729D02*
X0222783Y0203729D01*
X0222783Y0202130D02*
X0237589Y0202130D01*
X0236791Y0200532D02*
X0222783Y0200532D01*
X0222783Y0198933D02*
X0236033Y0198933D01*
X0235932Y0197335D02*
X0222783Y0197335D01*
X0222783Y0195736D02*
X0235932Y0195736D01*
X0235932Y0194138D02*
X0222783Y0194138D01*
X0222783Y0192539D02*
X0235932Y0192539D01*
X0235932Y0190941D02*
X0222783Y0190941D01*
X0222783Y0189342D02*
X0236592Y0189342D01*
X0237983Y0187744D02*
X0222783Y0187744D01*
X0222783Y0186145D02*
X0237983Y0186145D01*
X0237983Y0184547D02*
X0222783Y0184547D01*
X0222783Y0182948D02*
X0237983Y0182948D01*
X0237983Y0181350D02*
X0222783Y0181350D01*
X0222783Y0179751D02*
X0237983Y0179751D01*
X0237983Y0178153D02*
X0222783Y0178153D01*
X0222783Y0176554D02*
X0237983Y0176554D01*
X0237983Y0174956D02*
X0222783Y0174956D01*
X0222783Y0173357D02*
X0237983Y0173357D01*
X0237983Y0171759D02*
X0222783Y0171759D01*
X0222783Y0170160D02*
X0237983Y0170160D01*
X0237983Y0168562D02*
X0222783Y0168562D01*
X0222783Y0166963D02*
X0237983Y0166963D01*
X0237983Y0165365D02*
X0222783Y0165365D01*
X0222783Y0163766D02*
X0237983Y0163766D01*
X0237983Y0162168D02*
X0223448Y0162168D01*
X0224759Y0160569D02*
X0237983Y0160569D01*
X0237983Y0158971D02*
X0225250Y0158971D01*
X0225250Y0157372D02*
X0237983Y0157372D01*
X0237983Y0155773D02*
X0225250Y0155773D01*
X0225250Y0154175D02*
X0237983Y0154175D01*
X0237983Y0152576D02*
X0225250Y0152576D01*
X0224981Y0150978D02*
X0237899Y0150978D01*
X0236300Y0149379D02*
X0223986Y0149379D01*
X0223082Y0147781D02*
X0234702Y0147781D01*
X0233103Y0146182D02*
X0223082Y0146182D01*
X0223082Y0144584D02*
X0231505Y0144584D01*
X0229906Y0142985D02*
X0223082Y0142985D01*
X0223082Y0141387D02*
X0228812Y0141387D01*
X0228804Y0139788D02*
X0223082Y0139788D01*
X0223082Y0138190D02*
X0228804Y0138190D01*
X0228804Y0136591D02*
X0223082Y0136591D01*
X0223082Y0134993D02*
X0228804Y0134993D01*
X0228804Y0133394D02*
X0223082Y0133394D01*
X0223082Y0131796D02*
X0228804Y0131796D01*
X0228804Y0130197D02*
X0223082Y0130197D01*
X0223082Y0128599D02*
X0228804Y0128599D01*
X0228804Y0127000D02*
X0223082Y0127000D01*
X0223082Y0125402D02*
X0228804Y0125402D01*
X0228804Y0123803D02*
X0223082Y0123803D01*
X0223082Y0122205D02*
X0228804Y0122205D01*
X0228804Y0120606D02*
X0223082Y0120606D01*
X0223082Y0119008D02*
X0228804Y0119008D01*
X0228804Y0117409D02*
X0223082Y0117409D01*
X0223082Y0115811D02*
X0228804Y0115811D01*
X0228804Y0114212D02*
X0223082Y0114212D01*
X0223082Y0112614D02*
X0228804Y0112614D01*
X0228804Y0111015D02*
X0223082Y0111015D01*
X0223082Y0109417D02*
X0228804Y0109417D01*
X0228804Y0107818D02*
X0223082Y0107818D01*
X0223082Y0106220D02*
X0228804Y0106220D01*
X0228804Y0104621D02*
X0223082Y0104621D01*
X0223082Y0103023D02*
X0228804Y0103023D01*
X0228804Y0101424D02*
X0223082Y0101424D01*
X0223082Y0099826D02*
X0228804Y0099826D01*
X0228804Y0098227D02*
X0223082Y0098227D01*
X0223082Y0096629D02*
X0228804Y0096629D01*
X0228804Y0095030D02*
X0223082Y0095030D01*
X0223082Y0093432D02*
X0228804Y0093432D01*
X0228804Y0091833D02*
X0223082Y0091833D01*
X0223082Y0090235D02*
X0228804Y0090235D01*
X0228804Y0088636D02*
X0223082Y0088636D01*
X0223082Y0087038D02*
X0228804Y0087038D01*
X0228804Y0085439D02*
X0223082Y0085439D01*
X0223082Y0083840D02*
X0228804Y0083840D01*
X0228804Y0082242D02*
X0223082Y0082242D01*
X0223082Y0080643D02*
X0228542Y0080643D01*
X0226944Y0079045D02*
X0224564Y0079045D01*
X0224904Y0077446D02*
X0226604Y0077446D01*
X0226604Y0075848D02*
X0224904Y0075848D01*
X0224259Y0074249D02*
X0227249Y0074249D01*
X0228848Y0072651D02*
X0222660Y0072651D01*
X0223799Y0071400D02*
X0221104Y0068705D01*
X0221104Y0064895D01*
X0223799Y0062200D01*
X0227609Y0062200D01*
X0230304Y0064895D01*
X0230304Y0068705D01*
X0227609Y0071400D01*
X0223799Y0071400D01*
X0223451Y0071052D02*
X0217157Y0071052D01*
X0216798Y0072651D02*
X0217948Y0072651D01*
X0218755Y0069454D02*
X0221852Y0069454D01*
X0221104Y0067855D02*
X0219504Y0067855D01*
X0219504Y0066257D02*
X0221104Y0066257D01*
X0221340Y0064658D02*
X0219268Y0064658D01*
X0217669Y0063060D02*
X0222939Y0063060D01*
X0228469Y0063060D02*
X0233839Y0063060D01*
X0234699Y0062200D02*
X0238509Y0062200D01*
X0241204Y0064895D01*
X0241204Y0068705D01*
X0238509Y0071400D01*
X0234699Y0071400D01*
X0232004Y0068705D01*
X0232004Y0064895D01*
X0234699Y0062200D01*
X0232240Y0064658D02*
X0230068Y0064658D01*
X0230304Y0066257D02*
X0232004Y0066257D01*
X0232004Y0067855D02*
X0230304Y0067855D01*
X0229555Y0069454D02*
X0232752Y0069454D01*
X0234351Y0071052D02*
X0227957Y0071052D01*
X0233560Y0072651D02*
X0239648Y0072651D01*
X0240099Y0072200D02*
X0243909Y0072200D01*
X0246604Y0074895D01*
X0246604Y0078705D01*
X0244404Y0080905D01*
X0244404Y0083766D01*
X0253159Y0092521D01*
X0253835Y0093196D01*
X0254200Y0094079D01*
X0254200Y0134900D01*
X0261034Y0141734D01*
X0261709Y0142409D01*
X0262074Y0143291D01*
X0262074Y0148458D01*
X0262636Y0148691D01*
X0263921Y0149976D01*
X0264617Y0151655D01*
X0264617Y0159410D01*
X0263921Y0161089D01*
X0262636Y0162374D01*
X0262074Y0162606D01*
X0262074Y0201333D01*
X0261709Y0202215D01*
X0261034Y0202890D01*
X0244483Y0219441D01*
X0244483Y0229990D01*
X0246683Y0232190D01*
X0246683Y0236001D01*
X0243988Y0238695D01*
X0240177Y0238695D01*
X0237483Y0236001D01*
X0237483Y0232190D01*
X0239683Y0229990D01*
X0239683Y0217969D01*
X0240048Y0217087D01*
X0257274Y0199861D01*
X0257274Y0162188D01*
X0256175Y0161089D01*
X0255480Y0159410D01*
X0255480Y0151655D01*
X0256175Y0149976D01*
X0257274Y0148877D01*
X0257274Y0144763D01*
X0249765Y0137254D01*
X0249400Y0136372D01*
X0249400Y0095550D01*
X0239969Y0086119D01*
X0239604Y0085237D01*
X0239604Y0080905D01*
X0237404Y0078705D01*
X0237404Y0074895D01*
X0240099Y0072200D01*
X0238857Y0071052D02*
X0245251Y0071052D01*
X0245599Y0071400D02*
X0242904Y0068705D01*
X0242904Y0064895D01*
X0245599Y0062200D01*
X0249409Y0062200D01*
X0252104Y0064895D01*
X0252104Y0068705D01*
X0249409Y0071400D01*
X0245599Y0071400D01*
X0244360Y0072651D02*
X0250548Y0072651D01*
X0250999Y0072200D02*
X0254809Y0072200D01*
X0257504Y0074895D01*
X0257504Y0078705D01*
X0255314Y0080896D01*
X0261034Y0086616D01*
X0261709Y0087291D01*
X0262074Y0088173D01*
X0262074Y0130963D01*
X0280719Y0149608D01*
X0281394Y0150283D01*
X0281759Y0151165D01*
X0281759Y0188015D01*
X0282203Y0188199D01*
X0283488Y0189484D01*
X0284183Y0191163D01*
X0284183Y0198917D01*
X0283488Y0200597D01*
X0282203Y0201882D01*
X0280524Y0202577D01*
X0278706Y0202577D01*
X0277027Y0201882D01*
X0276597Y0201452D01*
X0255383Y0222667D01*
X0255383Y0229990D01*
X0257583Y0232190D01*
X0257583Y0236001D01*
X0254888Y0238695D01*
X0251077Y0238695D01*
X0248383Y0236001D01*
X0248383Y0232190D01*
X0250583Y0229990D01*
X0250583Y0221195D01*
X0250948Y0220313D01*
X0275046Y0196215D01*
X0275046Y0191163D01*
X0275742Y0189484D01*
X0276959Y0188267D01*
X0276959Y0152637D01*
X0257639Y0133317D01*
X0257274Y0132435D01*
X0257274Y0089645D01*
X0250869Y0083240D01*
X0250504Y0082358D01*
X0250504Y0080905D01*
X0248304Y0078705D01*
X0248304Y0074895D01*
X0250999Y0072200D01*
X0249757Y0071052D02*
X0256051Y0071052D01*
X0256399Y0071400D02*
X0253704Y0068705D01*
X0253704Y0064895D01*
X0256399Y0062200D01*
X0260209Y0062200D01*
X0262904Y0064895D01*
X0262904Y0068705D01*
X0260209Y0071400D01*
X0256399Y0071400D01*
X0255260Y0072651D02*
X0261448Y0072651D01*
X0261899Y0072200D02*
X0265709Y0072200D01*
X0268404Y0074895D01*
X0268404Y0078705D01*
X0266204Y0080905D01*
X0266204Y0081944D01*
X0268908Y0084647D01*
X0269583Y0085322D01*
X0269948Y0086204D01*
X0269948Y0115215D01*
X0275556Y0120823D01*
X0275172Y0119898D01*
X0275172Y0112143D01*
X0275868Y0110464D01*
X0277153Y0109179D01*
X0278832Y0108483D01*
X0280650Y0108483D01*
X0282329Y0109179D01*
X0283614Y0110464D01*
X0284309Y0112143D01*
X0284309Y0119898D01*
X0283614Y0121577D01*
X0282329Y0122862D01*
X0280650Y0123557D01*
X0278832Y0123557D01*
X0277907Y0123174D01*
X0290196Y0135463D01*
X0295978Y0135463D01*
X0296860Y0135828D01*
X0301191Y0140159D01*
X0301866Y0140834D01*
X0302231Y0141716D01*
X0302231Y0148928D01*
X0303413Y0150110D01*
X0304109Y0151789D01*
X0304109Y0159543D01*
X0303413Y0161222D01*
X0302128Y0162508D01*
X0301444Y0162791D01*
X0301444Y0191490D01*
X0301079Y0192372D01*
X0300404Y0193047D01*
X0266283Y0227168D01*
X0266283Y0229990D01*
X0268483Y0232190D01*
X0268483Y0236001D01*
X0265788Y0238695D01*
X0261977Y0238695D01*
X0259283Y0236001D01*
X0259283Y0232190D01*
X0261483Y0229990D01*
X0261483Y0225697D01*
X0261848Y0224815D01*
X0296644Y0190018D01*
X0296644Y0162199D01*
X0295667Y0161222D01*
X0294972Y0159543D01*
X0294972Y0151789D01*
X0295667Y0150110D01*
X0296952Y0148825D01*
X0297431Y0148626D01*
X0297431Y0143188D01*
X0294507Y0140263D01*
X0288724Y0140263D01*
X0287842Y0139898D01*
X0287167Y0139222D01*
X0265513Y0117569D01*
X0265148Y0116687D01*
X0265148Y0087676D01*
X0261769Y0084297D01*
X0261404Y0083415D01*
X0261404Y0080905D01*
X0259204Y0078705D01*
X0259204Y0074895D01*
X0261899Y0072200D01*
X0260557Y0071052D02*
X0266951Y0071052D01*
X0267299Y0071400D02*
X0264604Y0068705D01*
X0264604Y0064895D01*
X0267299Y0062200D01*
X0271109Y0062200D01*
X0273804Y0064895D01*
X0273804Y0068705D01*
X0271109Y0071400D01*
X0267299Y0071400D01*
X0266160Y0072651D02*
X0272248Y0072651D01*
X0272699Y0072200D02*
X0276509Y0072200D01*
X0279204Y0074895D01*
X0279204Y0078705D01*
X0277004Y0080905D01*
X0277004Y0086838D01*
X0296467Y0106301D01*
X0297142Y0106976D01*
X0297507Y0107858D01*
X0297507Y0121121D01*
X0320482Y0144096D01*
X0321157Y0144771D01*
X0321523Y0145653D01*
X0321523Y0187801D01*
X0321911Y0187962D01*
X0323197Y0189248D01*
X0323892Y0190927D01*
X0323892Y0198681D01*
X0323197Y0200360D01*
X0321911Y0201645D01*
X0320811Y0202101D01*
X0320764Y0202215D01*
X0320089Y0202890D01*
X0312215Y0210764D01*
X0311333Y0211129D01*
X0296101Y0211129D01*
X0277212Y0230019D01*
X0279383Y0232190D01*
X0279383Y0236001D01*
X0276688Y0238695D01*
X0272877Y0238695D01*
X0270183Y0236001D01*
X0270183Y0232190D01*
X0272383Y0229990D01*
X0272383Y0228576D01*
X0272748Y0227694D01*
X0273423Y0227019D01*
X0273423Y0227019D01*
X0293072Y0207370D01*
X0293072Y0207370D01*
X0293748Y0206695D01*
X0294630Y0206329D01*
X0309861Y0206329D01*
X0315640Y0200550D01*
X0315451Y0200360D01*
X0314755Y0198681D01*
X0314755Y0190927D01*
X0315451Y0189248D01*
X0316723Y0187975D01*
X0316723Y0147125D01*
X0293072Y0123474D01*
X0292707Y0122592D01*
X0292707Y0109330D01*
X0272569Y0089192D01*
X0272204Y0088310D01*
X0272204Y0080905D01*
X0270004Y0078705D01*
X0270004Y0074895D01*
X0272699Y0072200D01*
X0271457Y0071052D02*
X0277851Y0071052D01*
X0278199Y0071400D02*
X0275504Y0068705D01*
X0275504Y0064895D01*
X0278199Y0062200D01*
X0282009Y0062200D01*
X0284704Y0064895D01*
X0284704Y0068705D01*
X0282009Y0071400D01*
X0278199Y0071400D01*
X0276960Y0072651D02*
X0283148Y0072651D01*
X0283599Y0072200D02*
X0287409Y0072200D01*
X0290104Y0074895D01*
X0290104Y0078705D01*
X0287904Y0080905D01*
X0287904Y0083959D01*
X0308953Y0105007D01*
X0309318Y0105890D01*
X0309318Y0117184D01*
X0323660Y0131526D01*
X0329049Y0131526D01*
X0329931Y0131891D01*
X0339774Y0141734D01*
X0340449Y0142409D01*
X0340814Y0143291D01*
X0340814Y0148463D01*
X0341384Y0148699D01*
X0342669Y0149984D01*
X0343365Y0151663D01*
X0343365Y0159417D01*
X0342669Y0161097D01*
X0341602Y0162164D01*
X0341602Y0190184D01*
X0341616Y0190223D01*
X0341602Y0190660D01*
X0341602Y0191096D01*
X0341585Y0191135D01*
X0341584Y0191178D01*
X0341403Y0191575D01*
X0341236Y0191978D01*
X0341206Y0192008D01*
X0341189Y0192047D01*
X0340870Y0192345D01*
X0340561Y0192654D01*
X0340522Y0192670D01*
X0310949Y0220298D01*
X0310640Y0220606D01*
X0310601Y0220622D01*
X0310570Y0220651D01*
X0310161Y0220805D01*
X0309758Y0220972D01*
X0309715Y0220972D01*
X0309676Y0220986D01*
X0309240Y0220972D01*
X0299929Y0220972D01*
X0288620Y0230627D01*
X0290183Y0232190D01*
X0290183Y0236001D01*
X0287488Y0238695D01*
X0283677Y0238695D01*
X0280983Y0236001D01*
X0280983Y0232190D01*
X0283181Y0229992D01*
X0283183Y0229970D01*
X0283183Y0229587D01*
X0283220Y0229497D01*
X0283228Y0229400D01*
X0283402Y0229059D01*
X0283548Y0228705D01*
X0283617Y0228636D01*
X0283661Y0228549D01*
X0283952Y0228301D01*
X0284223Y0228030D01*
X0284313Y0227993D01*
X0297414Y0216808D01*
X0297685Y0216537D01*
X0297775Y0216500D01*
X0297849Y0216436D01*
X0298213Y0216318D01*
X0298567Y0216172D01*
X0298664Y0216172D01*
X0298757Y0216142D01*
X0299139Y0216172D01*
X0308334Y0216172D01*
X0336802Y0189577D01*
X0336802Y0162627D01*
X0336208Y0162382D01*
X0334923Y0161097D01*
X0334228Y0159417D01*
X0334228Y0151663D01*
X0334923Y0149984D01*
X0336014Y0148893D01*
X0336014Y0144763D01*
X0327578Y0136326D01*
X0322189Y0136326D01*
X0321307Y0135961D01*
X0320632Y0135285D01*
X0304883Y0119537D01*
X0304518Y0118655D01*
X0304518Y0107361D01*
X0283469Y0086312D01*
X0283104Y0085430D01*
X0283104Y0080905D01*
X0280904Y0078705D01*
X0280904Y0074895D01*
X0283599Y0072200D01*
X0282357Y0071052D02*
X0288651Y0071052D01*
X0288999Y0071400D02*
X0286304Y0068705D01*
X0286304Y0064895D01*
X0288999Y0062200D01*
X0292809Y0062200D01*
X0295504Y0064895D01*
X0295504Y0068705D01*
X0292809Y0071400D01*
X0288999Y0071400D01*
X0287860Y0072651D02*
X0294048Y0072651D01*
X0293157Y0071052D02*
X0299551Y0071052D01*
X0299899Y0071400D02*
X0297204Y0068705D01*
X0297204Y0064895D01*
X0299899Y0062200D01*
X0303709Y0062200D01*
X0306404Y0064895D01*
X0306404Y0068705D01*
X0303709Y0071400D01*
X0299899Y0071400D01*
X0298760Y0072651D02*
X0304848Y0072651D01*
X0304057Y0071052D02*
X0310451Y0071052D01*
X0310799Y0071400D02*
X0308104Y0068705D01*
X0308104Y0064895D01*
X0310799Y0062200D01*
X0314609Y0062200D01*
X0317304Y0064895D01*
X0317304Y0068705D01*
X0314609Y0071400D01*
X0310799Y0071400D01*
X0309560Y0072651D02*
X0315748Y0072651D01*
X0314957Y0071052D02*
X0333704Y0071052D01*
X0333704Y0070273D02*
X0334494Y0067323D01*
X0336022Y0064677D01*
X0338181Y0062518D01*
X0340827Y0060991D01*
X0343777Y0060200D01*
X0346831Y0060200D01*
X0349781Y0060991D01*
X0352427Y0062518D01*
X0354586Y0064677D01*
X0356113Y0067323D01*
X0356904Y0070273D01*
X0356904Y0073327D01*
X0356113Y0076277D01*
X0354586Y0078923D01*
X0352427Y0081082D01*
X0349781Y0082609D01*
X0346831Y0083400D01*
X0343777Y0083400D01*
X0340827Y0082609D01*
X0338181Y0081082D01*
X0336022Y0078923D01*
X0334494Y0076277D01*
X0333704Y0073327D01*
X0333704Y0070273D01*
X0333923Y0069454D02*
X0316555Y0069454D01*
X0317304Y0067855D02*
X0334352Y0067855D01*
X0335110Y0066257D02*
X0317304Y0066257D01*
X0317068Y0064658D02*
X0336041Y0064658D01*
X0337639Y0063060D02*
X0315469Y0063060D01*
X0309939Y0063060D02*
X0304569Y0063060D01*
X0306168Y0064658D02*
X0308340Y0064658D01*
X0308104Y0066257D02*
X0306404Y0066257D01*
X0306404Y0067855D02*
X0308104Y0067855D01*
X0308852Y0069454D02*
X0305655Y0069454D01*
X0303249Y0074249D02*
X0300359Y0074249D01*
X0301004Y0075848D02*
X0302604Y0075848D01*
X0302604Y0077446D02*
X0301004Y0077446D01*
X0300664Y0079045D02*
X0302944Y0079045D01*
X0304542Y0080643D02*
X0299066Y0080643D01*
X0300360Y0082242D02*
X0306958Y0082242D01*
X0308557Y0083840D02*
X0301959Y0083840D01*
X0303558Y0085439D02*
X0310155Y0085439D01*
X0311754Y0087038D02*
X0305156Y0087038D01*
X0306755Y0088636D02*
X0313352Y0088636D01*
X0314951Y0090235D02*
X0308353Y0090235D01*
X0309952Y0091833D02*
X0316549Y0091833D01*
X0318148Y0093432D02*
X0311550Y0093432D01*
X0313149Y0095030D02*
X0319746Y0095030D01*
X0321345Y0096629D02*
X0314747Y0096629D01*
X0316346Y0098227D02*
X0322943Y0098227D01*
X0324542Y0099826D02*
X0317944Y0099826D01*
X0319543Y0101424D02*
X0326140Y0101424D01*
X0327739Y0103023D02*
X0321141Y0103023D01*
X0322740Y0104621D02*
X0329337Y0104621D01*
X0330936Y0106220D02*
X0324338Y0106220D01*
X0325937Y0107818D02*
X0332534Y0107818D01*
X0334133Y0109417D02*
X0327535Y0109417D01*
X0329134Y0111015D02*
X0335731Y0111015D01*
X0337330Y0112614D02*
X0330732Y0112614D01*
X0332331Y0114212D02*
X0338928Y0114212D01*
X0340527Y0115811D02*
X0333929Y0115811D01*
X0335528Y0117409D02*
X0342125Y0117409D01*
X0343724Y0119008D02*
X0337126Y0119008D01*
X0338725Y0120606D02*
X0345322Y0120606D01*
X0346921Y0122205D02*
X0340323Y0122205D01*
X0341922Y0123803D02*
X0348519Y0123803D01*
X0350118Y0125402D02*
X0343520Y0125402D01*
X0345119Y0127000D02*
X0351716Y0127000D01*
X0353315Y0128599D02*
X0346717Y0128599D01*
X0348316Y0130197D02*
X0354913Y0130197D01*
X0356512Y0131796D02*
X0349914Y0131796D01*
X0351513Y0133394D02*
X0358110Y0133394D01*
X0359709Y0134993D02*
X0353111Y0134993D01*
X0354710Y0136591D02*
X0361308Y0136591D01*
X0363275Y0138190D02*
X0356308Y0138190D01*
X0357907Y0139788D02*
X0372379Y0139788D01*
X0373977Y0141387D02*
X0359505Y0141387D01*
X0360766Y0142985D02*
X0375384Y0142985D01*
X0375384Y0144584D02*
X0360893Y0144584D01*
X0360893Y0146182D02*
X0375384Y0146182D01*
X0375384Y0147781D02*
X0360893Y0147781D01*
X0360893Y0149379D02*
X0374287Y0149379D01*
X0373458Y0150978D02*
X0360893Y0150978D01*
X0360893Y0152576D02*
X0373306Y0152576D01*
X0373306Y0154175D02*
X0360893Y0154175D01*
X0360893Y0155773D02*
X0373306Y0155773D01*
X0373306Y0157372D02*
X0360893Y0157372D01*
X0360893Y0158971D02*
X0373306Y0158971D01*
X0373915Y0160569D02*
X0360893Y0160569D01*
X0360893Y0162168D02*
X0375384Y0162168D01*
X0375384Y0163766D02*
X0360893Y0163766D01*
X0360893Y0165365D02*
X0375384Y0165365D01*
X0375384Y0166963D02*
X0360893Y0166963D01*
X0360893Y0168562D02*
X0375384Y0168562D01*
X0375384Y0170160D02*
X0360893Y0170160D01*
X0360893Y0171759D02*
X0375384Y0171759D01*
X0375384Y0173357D02*
X0360893Y0173357D01*
X0360893Y0174956D02*
X0375384Y0174956D01*
X0375384Y0176554D02*
X0360893Y0176554D01*
X0360893Y0178153D02*
X0375384Y0178153D01*
X0375384Y0179751D02*
X0360893Y0179751D01*
X0360893Y0181350D02*
X0375384Y0181350D01*
X0375384Y0182948D02*
X0360893Y0182948D01*
X0360893Y0184547D02*
X0375384Y0184547D01*
X0375384Y0186145D02*
X0360893Y0186145D01*
X0360960Y0187744D02*
X0375384Y0187744D01*
X0375384Y0189342D02*
X0362356Y0189342D01*
X0362908Y0190941D02*
X0375384Y0190941D01*
X0375384Y0192539D02*
X0362908Y0192539D01*
X0362908Y0194138D02*
X0375384Y0194138D01*
X0375384Y0195736D02*
X0362908Y0195736D01*
X0362908Y0197335D02*
X0375384Y0197335D01*
X0375384Y0198933D02*
X0362699Y0198933D01*
X0361789Y0200532D02*
X0375384Y0200532D01*
X0375384Y0202130D02*
X0360499Y0202130D01*
X0360322Y0203729D02*
X0375384Y0203729D01*
X0375384Y0205327D02*
X0358990Y0205327D01*
X0358165Y0206152D02*
X0358165Y0206152D01*
X0357251Y0206926D02*
X0374225Y0206926D01*
X0372626Y0208524D02*
X0332171Y0208524D01*
X0330572Y0210123D02*
X0371028Y0210123D01*
X0369429Y0211721D02*
X0328973Y0211721D01*
X0328461Y0213320D02*
X0327375Y0213320D01*
X0326862Y0214918D02*
X0325776Y0214918D01*
X0325264Y0216517D02*
X0324178Y0216517D01*
X0323665Y0218115D02*
X0322579Y0218115D01*
X0322067Y0219714D02*
X0320981Y0219714D01*
X0320468Y0221312D02*
X0319382Y0221312D01*
X0318870Y0222911D02*
X0317784Y0222911D01*
X0317271Y0224509D02*
X0316185Y0224509D01*
X0315673Y0226108D02*
X0314587Y0226108D01*
X0314074Y0227707D02*
X0306266Y0227707D01*
X0306101Y0224477D02*
X0296483Y0234095D01*
X0297300Y0234095D01*
X0297879Y0229305D02*
X0290169Y0229305D01*
X0288896Y0230904D02*
X0293169Y0230904D01*
X0291883Y0232502D02*
X0290183Y0232502D01*
X0290183Y0234101D02*
X0291883Y0234101D01*
X0291883Y0235699D02*
X0290183Y0235699D01*
X0288886Y0237298D02*
X0293180Y0237298D01*
X0292988Y0239495D02*
X0289177Y0239495D01*
X0286483Y0242190D01*
X0286483Y0246001D01*
X0289177Y0248695D01*
X0292988Y0248695D01*
X0295683Y0246001D01*
X0295683Y0242190D01*
X0292988Y0239495D01*
X0293987Y0240495D02*
X0298978Y0240495D01*
X0297379Y0242093D02*
X0295586Y0242093D01*
X0295683Y0243692D02*
X0297283Y0243692D01*
X0297283Y0245290D02*
X0295683Y0245290D01*
X0294795Y0246889D02*
X0298171Y0246889D01*
X0299769Y0248487D02*
X0293196Y0248487D01*
X0288969Y0248487D02*
X0282296Y0248487D01*
X0282088Y0248695D02*
X0278277Y0248695D01*
X0275583Y0246001D01*
X0275583Y0242190D01*
X0278277Y0239495D01*
X0282088Y0239495D01*
X0284783Y0242190D01*
X0284783Y0246001D01*
X0282088Y0248695D01*
X0283895Y0246889D02*
X0287371Y0246889D01*
X0286483Y0245290D02*
X0284783Y0245290D01*
X0284783Y0243692D02*
X0286483Y0243692D01*
X0286579Y0242093D02*
X0284686Y0242093D01*
X0283087Y0240495D02*
X0288178Y0240495D01*
X0282280Y0237298D02*
X0278086Y0237298D01*
X0279383Y0235699D02*
X0280983Y0235699D01*
X0280983Y0234101D02*
X0279383Y0234101D01*
X0279383Y0232502D02*
X0280983Y0232502D01*
X0282269Y0230904D02*
X0278096Y0230904D01*
X0277925Y0229305D02*
X0283276Y0229305D01*
X0284648Y0227707D02*
X0279524Y0227707D01*
X0281122Y0226108D02*
X0286521Y0226108D01*
X0288393Y0224509D02*
X0282721Y0224509D01*
X0284319Y0222911D02*
X0290265Y0222911D01*
X0292138Y0221312D02*
X0285918Y0221312D01*
X0287516Y0219714D02*
X0294010Y0219714D01*
X0295882Y0218115D02*
X0289115Y0218115D01*
X0290713Y0216517D02*
X0297733Y0216517D01*
X0299044Y0218572D02*
X0309280Y0218572D01*
X0339202Y0190619D01*
X0339202Y0155946D01*
X0338796Y0155540D01*
X0338414Y0155158D01*
X0338414Y0143769D01*
X0328572Y0133926D01*
X0322666Y0133926D01*
X0306918Y0118178D01*
X0306918Y0106367D01*
X0285504Y0084953D01*
X0285504Y0076800D01*
X0290104Y0077446D02*
X0291804Y0077446D01*
X0291804Y0075848D02*
X0290104Y0075848D01*
X0289459Y0074249D02*
X0292449Y0074249D01*
X0296404Y0076800D02*
X0296404Y0081680D01*
X0358493Y0143769D01*
X0358493Y0194398D01*
X0358339Y0194552D01*
X0358099Y0194792D01*
X0358099Y0202824D01*
X0356131Y0204792D01*
X0332509Y0204792D01*
X0312824Y0224477D01*
X0306101Y0224477D01*
X0304273Y0222911D02*
X0297658Y0222911D01*
X0299530Y0221312D02*
X0312594Y0221312D01*
X0311573Y0219714D02*
X0314193Y0219714D01*
X0313284Y0218115D02*
X0315791Y0218115D01*
X0314995Y0216517D02*
X0317390Y0216517D01*
X0316706Y0214918D02*
X0318988Y0214918D01*
X0318418Y0213320D02*
X0320587Y0213320D01*
X0320129Y0211721D02*
X0322185Y0211721D01*
X0321840Y0210123D02*
X0323784Y0210123D01*
X0323551Y0208524D02*
X0325382Y0208524D01*
X0325262Y0206926D02*
X0326981Y0206926D01*
X0326973Y0205327D02*
X0328579Y0205327D01*
X0328684Y0203729D02*
X0330178Y0203729D01*
X0330395Y0202130D02*
X0355398Y0202130D01*
X0354890Y0200532D02*
X0332106Y0200532D01*
X0333817Y0198933D02*
X0353980Y0198933D01*
X0353771Y0197335D02*
X0335528Y0197335D01*
X0337239Y0195736D02*
X0353771Y0195736D01*
X0353771Y0194138D02*
X0338951Y0194138D01*
X0340675Y0192539D02*
X0353771Y0192539D01*
X0353771Y0190941D02*
X0341602Y0190941D01*
X0341602Y0189342D02*
X0354323Y0189342D01*
X0355718Y0187744D02*
X0341602Y0187744D01*
X0341602Y0186145D02*
X0356093Y0186145D01*
X0356093Y0184547D02*
X0341602Y0184547D01*
X0341602Y0182948D02*
X0356093Y0182948D01*
X0356093Y0181350D02*
X0341602Y0181350D01*
X0341602Y0179751D02*
X0356093Y0179751D01*
X0356093Y0178153D02*
X0341602Y0178153D01*
X0341602Y0176554D02*
X0356093Y0176554D01*
X0356093Y0174956D02*
X0341602Y0174956D01*
X0341602Y0173357D02*
X0356093Y0173357D01*
X0356093Y0171759D02*
X0341602Y0171759D01*
X0341602Y0170160D02*
X0356093Y0170160D01*
X0356093Y0168562D02*
X0341602Y0168562D01*
X0341602Y0166963D02*
X0356093Y0166963D01*
X0356093Y0165365D02*
X0341602Y0165365D01*
X0341602Y0163766D02*
X0356093Y0163766D01*
X0356093Y0162168D02*
X0341602Y0162168D01*
X0342888Y0160569D02*
X0356093Y0160569D01*
X0356093Y0158971D02*
X0343365Y0158971D01*
X0343365Y0157372D02*
X0356093Y0157372D01*
X0356093Y0155773D02*
X0343365Y0155773D01*
X0343365Y0154175D02*
X0356093Y0154175D01*
X0356093Y0152576D02*
X0343365Y0152576D01*
X0343081Y0150978D02*
X0356093Y0150978D01*
X0356093Y0149379D02*
X0342065Y0149379D01*
X0340814Y0147781D02*
X0356093Y0147781D01*
X0356093Y0146182D02*
X0340814Y0146182D01*
X0340814Y0144584D02*
X0355914Y0144584D01*
X0354316Y0142985D02*
X0340688Y0142985D01*
X0339427Y0141387D02*
X0352717Y0141387D01*
X0351119Y0139788D02*
X0337828Y0139788D01*
X0336230Y0138190D02*
X0349520Y0138190D01*
X0347922Y0136591D02*
X0334631Y0136591D01*
X0333033Y0134993D02*
X0346323Y0134993D01*
X0344725Y0133394D02*
X0331434Y0133394D01*
X0329700Y0131796D02*
X0343126Y0131796D01*
X0341528Y0130197D02*
X0322332Y0130197D01*
X0320733Y0128599D02*
X0339929Y0128599D01*
X0338331Y0127000D02*
X0319135Y0127000D01*
X0317536Y0125402D02*
X0336732Y0125402D01*
X0335134Y0123803D02*
X0315938Y0123803D01*
X0316110Y0122205D02*
X0314339Y0122205D01*
X0314944Y0120606D02*
X0312741Y0120606D01*
X0311142Y0119008D02*
X0314554Y0119008D01*
X0314554Y0117409D02*
X0309543Y0117409D01*
X0309318Y0115811D02*
X0314554Y0115811D01*
X0314554Y0114212D02*
X0309318Y0114212D01*
X0309318Y0112614D02*
X0314554Y0112614D01*
X0314925Y0111015D02*
X0309318Y0111015D01*
X0309318Y0109417D02*
X0316065Y0109417D01*
X0319148Y0107818D02*
X0309318Y0107818D01*
X0309318Y0106220D02*
X0317550Y0106220D01*
X0315951Y0104621D02*
X0308566Y0104621D01*
X0306968Y0103023D02*
X0314353Y0103023D01*
X0312754Y0101424D02*
X0305369Y0101424D01*
X0303771Y0099826D02*
X0311156Y0099826D01*
X0309557Y0098227D02*
X0302172Y0098227D01*
X0300574Y0096629D02*
X0307959Y0096629D01*
X0306360Y0095030D02*
X0298975Y0095030D01*
X0297377Y0093432D02*
X0304762Y0093432D01*
X0303163Y0091833D02*
X0295778Y0091833D01*
X0294180Y0090235D02*
X0301565Y0090235D01*
X0299966Y0088636D02*
X0292581Y0088636D01*
X0290983Y0087038D02*
X0298368Y0087038D01*
X0296769Y0085439D02*
X0289384Y0085439D01*
X0287904Y0083840D02*
X0295171Y0083840D01*
X0294039Y0082242D02*
X0287904Y0082242D01*
X0288166Y0080643D02*
X0293742Y0080643D01*
X0292144Y0079045D02*
X0289764Y0079045D01*
X0282842Y0080643D02*
X0277266Y0080643D01*
X0277004Y0082242D02*
X0283104Y0082242D01*
X0283104Y0083840D02*
X0277004Y0083840D01*
X0277004Y0085439D02*
X0283108Y0085439D01*
X0284195Y0087038D02*
X0277203Y0087038D01*
X0278802Y0088636D02*
X0285793Y0088636D01*
X0287392Y0090235D02*
X0280400Y0090235D01*
X0281999Y0091833D02*
X0288990Y0091833D01*
X0290589Y0093432D02*
X0283597Y0093432D01*
X0285196Y0095030D02*
X0292187Y0095030D01*
X0293786Y0096629D02*
X0286794Y0096629D01*
X0288393Y0098227D02*
X0295384Y0098227D01*
X0296983Y0099826D02*
X0289991Y0099826D01*
X0291590Y0101424D02*
X0298581Y0101424D01*
X0300180Y0103023D02*
X0293188Y0103023D01*
X0294787Y0104621D02*
X0301778Y0104621D01*
X0303377Y0106220D02*
X0296385Y0106220D01*
X0297491Y0107818D02*
X0304518Y0107818D01*
X0304518Y0109417D02*
X0297507Y0109417D01*
X0297507Y0111015D02*
X0304518Y0111015D01*
X0304518Y0112614D02*
X0297507Y0112614D01*
X0297507Y0114212D02*
X0304518Y0114212D01*
X0304518Y0115811D02*
X0297507Y0115811D01*
X0297507Y0117409D02*
X0304518Y0117409D01*
X0304664Y0119008D02*
X0297507Y0119008D01*
X0297507Y0120606D02*
X0305952Y0120606D01*
X0307551Y0122205D02*
X0298591Y0122205D01*
X0300190Y0123803D02*
X0309149Y0123803D01*
X0310748Y0125402D02*
X0301788Y0125402D01*
X0303387Y0127000D02*
X0312346Y0127000D01*
X0313945Y0128599D02*
X0304985Y0128599D01*
X0306584Y0130197D02*
X0315543Y0130197D01*
X0317142Y0131796D02*
X0308182Y0131796D01*
X0309781Y0133394D02*
X0318740Y0133394D01*
X0320339Y0134993D02*
X0311379Y0134993D01*
X0312978Y0136591D02*
X0327843Y0136591D01*
X0329441Y0138190D02*
X0314576Y0138190D01*
X0316175Y0139788D02*
X0331040Y0139788D01*
X0332638Y0141387D02*
X0317773Y0141387D01*
X0319372Y0142985D02*
X0334237Y0142985D01*
X0335835Y0144584D02*
X0320970Y0144584D01*
X0321523Y0146182D02*
X0336014Y0146182D01*
X0336014Y0147781D02*
X0321523Y0147781D01*
X0321523Y0149379D02*
X0335527Y0149379D01*
X0334511Y0150978D02*
X0321523Y0150978D01*
X0321523Y0152576D02*
X0334228Y0152576D01*
X0334228Y0154175D02*
X0321523Y0154175D01*
X0321523Y0155773D02*
X0334228Y0155773D01*
X0334228Y0157372D02*
X0321523Y0157372D01*
X0321523Y0158971D02*
X0334228Y0158971D01*
X0334705Y0160569D02*
X0321523Y0160569D01*
X0321523Y0162168D02*
X0335994Y0162168D01*
X0336802Y0163766D02*
X0321523Y0163766D01*
X0321523Y0165365D02*
X0336802Y0165365D01*
X0336802Y0166963D02*
X0321523Y0166963D01*
X0321523Y0168562D02*
X0336802Y0168562D01*
X0336802Y0170160D02*
X0321523Y0170160D01*
X0321523Y0171759D02*
X0336802Y0171759D01*
X0336802Y0173357D02*
X0321523Y0173357D01*
X0321523Y0174956D02*
X0336802Y0174956D01*
X0336802Y0176554D02*
X0321523Y0176554D01*
X0321523Y0178153D02*
X0336802Y0178153D01*
X0336802Y0179751D02*
X0321523Y0179751D01*
X0321523Y0181350D02*
X0336802Y0181350D01*
X0336802Y0182948D02*
X0321523Y0182948D01*
X0321523Y0184547D02*
X0336802Y0184547D01*
X0336802Y0186145D02*
X0321523Y0186145D01*
X0321523Y0187744D02*
X0336802Y0187744D01*
X0336802Y0189342D02*
X0323236Y0189342D01*
X0323892Y0190941D02*
X0335341Y0190941D01*
X0333630Y0192539D02*
X0323892Y0192539D01*
X0323892Y0194138D02*
X0331919Y0194138D01*
X0330208Y0195736D02*
X0323892Y0195736D01*
X0323892Y0197335D02*
X0328497Y0197335D01*
X0326786Y0198933D02*
X0323788Y0198933D01*
X0323025Y0200532D02*
X0325075Y0200532D01*
X0323364Y0202130D02*
X0320799Y0202130D01*
X0320089Y0202890D02*
X0320089Y0202890D01*
X0319250Y0203729D02*
X0321653Y0203729D01*
X0319942Y0205327D02*
X0317651Y0205327D01*
X0318231Y0206926D02*
X0316052Y0206926D01*
X0316519Y0208524D02*
X0314454Y0208524D01*
X0314808Y0210123D02*
X0312855Y0210123D01*
X0313097Y0211721D02*
X0295509Y0211721D01*
X0293910Y0213320D02*
X0311386Y0213320D01*
X0309675Y0214918D02*
X0292312Y0214918D01*
X0288721Y0211721D02*
X0281729Y0211721D01*
X0283328Y0210123D02*
X0290319Y0210123D01*
X0291918Y0208524D02*
X0284926Y0208524D01*
X0286525Y0206926D02*
X0293516Y0206926D01*
X0295107Y0208729D02*
X0310855Y0208729D01*
X0318729Y0200855D01*
X0318729Y0195398D01*
X0319324Y0194804D01*
X0319123Y0194603D01*
X0319123Y0146131D01*
X0295107Y0122115D01*
X0295107Y0108335D01*
X0274604Y0087832D01*
X0274604Y0076800D01*
X0279204Y0077446D02*
X0280904Y0077446D01*
X0280904Y0075848D02*
X0279204Y0075848D01*
X0278559Y0074249D02*
X0281549Y0074249D01*
X0283955Y0069454D02*
X0287052Y0069454D01*
X0286304Y0067855D02*
X0284704Y0067855D01*
X0284704Y0066257D02*
X0286304Y0066257D01*
X0286540Y0064658D02*
X0284468Y0064658D01*
X0282869Y0063060D02*
X0288139Y0063060D01*
X0293669Y0063060D02*
X0299039Y0063060D01*
X0297440Y0064658D02*
X0295268Y0064658D01*
X0295504Y0066257D02*
X0297204Y0066257D01*
X0297204Y0067855D02*
X0295504Y0067855D01*
X0294755Y0069454D02*
X0297952Y0069454D01*
X0307204Y0076800D02*
X0307204Y0079094D01*
X0364005Y0135894D01*
X0371879Y0135894D01*
X0377353Y0133394D02*
X0364899Y0133394D01*
X0363300Y0131796D02*
X0377353Y0131796D01*
X0377353Y0130197D02*
X0361702Y0130197D01*
X0360103Y0128599D02*
X0377353Y0128599D01*
X0377353Y0127000D02*
X0358505Y0127000D01*
X0356906Y0125402D02*
X0377353Y0125402D01*
X0377353Y0123803D02*
X0355308Y0123803D01*
X0356055Y0122527D02*
X0354770Y0121242D01*
X0354074Y0119563D01*
X0354074Y0111809D01*
X0354770Y0110129D01*
X0356055Y0108844D01*
X0357734Y0108149D01*
X0359551Y0108149D01*
X0361230Y0108844D01*
X0362516Y0110129D01*
X0363211Y0111809D01*
X0363211Y0119563D01*
X0362516Y0121242D01*
X0361230Y0122527D01*
X0359551Y0123223D01*
X0357734Y0123223D01*
X0356055Y0122527D01*
X0355732Y0122205D02*
X0353709Y0122205D01*
X0354506Y0120606D02*
X0352111Y0120606D01*
X0350512Y0119008D02*
X0354074Y0119008D01*
X0354074Y0117409D02*
X0348914Y0117409D01*
X0347315Y0115811D02*
X0354074Y0115811D01*
X0354074Y0114212D02*
X0345717Y0114212D01*
X0344118Y0112614D02*
X0354074Y0112614D01*
X0354403Y0111015D02*
X0342520Y0111015D01*
X0340921Y0109417D02*
X0355482Y0109417D01*
X0361803Y0109417D02*
X0375471Y0109417D01*
X0373873Y0107818D02*
X0339322Y0107818D01*
X0337724Y0106220D02*
X0372274Y0106220D01*
X0370676Y0104621D02*
X0336125Y0104621D01*
X0334527Y0103023D02*
X0369077Y0103023D01*
X0367479Y0101424D02*
X0332928Y0101424D01*
X0331330Y0099826D02*
X0365880Y0099826D01*
X0364282Y0098227D02*
X0329731Y0098227D01*
X0328133Y0096629D02*
X0362683Y0096629D01*
X0361085Y0095030D02*
X0326534Y0095030D01*
X0324936Y0093432D02*
X0359486Y0093432D01*
X0357888Y0091833D02*
X0323337Y0091833D01*
X0322825Y0090235D02*
X0321739Y0090235D01*
X0321226Y0088636D02*
X0320140Y0088636D01*
X0319628Y0087038D02*
X0318542Y0087038D01*
X0318029Y0085439D02*
X0316943Y0085439D01*
X0316431Y0083840D02*
X0315345Y0083840D01*
X0315704Y0082242D02*
X0313746Y0082242D01*
X0312148Y0080643D02*
X0315442Y0080643D01*
X0313844Y0079045D02*
X0311464Y0079045D01*
X0311804Y0077446D02*
X0313504Y0077446D01*
X0313504Y0075848D02*
X0311804Y0075848D01*
X0311159Y0074249D02*
X0314149Y0074249D01*
X0318104Y0076800D02*
X0318104Y0082120D01*
X0324635Y0088650D01*
X0358099Y0088650D01*
X0379753Y0110304D01*
X0379753Y0135501D01*
X0397863Y0153611D01*
X0397863Y0194556D01*
X0398257Y0194950D01*
X0398257Y0209910D01*
X0387627Y0220540D01*
X0336446Y0220540D01*
X0322891Y0234095D01*
X0317286Y0242093D02*
X0334177Y0242093D01*
X0334642Y0243692D02*
X0317383Y0243692D01*
X0317383Y0245290D02*
X0335565Y0245290D01*
X0336771Y0246889D02*
X0316495Y0246889D01*
X0314896Y0248487D02*
X0338450Y0248487D01*
X0341580Y0250086D02*
X0099185Y0250086D01*
X0071154Y0216517D02*
X0054221Y0216517D01*
X0052394Y0214918D02*
X0069556Y0214918D01*
X0067957Y0213320D02*
X0050567Y0213320D01*
X0048741Y0211721D02*
X0066359Y0211721D01*
X0064760Y0210123D02*
X0046914Y0210123D01*
X0046326Y0208524D02*
X0063162Y0208524D01*
X0061563Y0206926D02*
X0046326Y0206926D01*
X0046326Y0205327D02*
X0060448Y0205327D01*
X0060424Y0203729D02*
X0046326Y0203729D01*
X0046326Y0202130D02*
X0060424Y0202130D01*
X0060424Y0200532D02*
X0047406Y0200532D01*
X0048054Y0198933D02*
X0060424Y0198933D01*
X0060424Y0197335D02*
X0048054Y0197335D01*
X0048054Y0195736D02*
X0060424Y0195736D01*
X0060424Y0194138D02*
X0048054Y0194138D01*
X0048054Y0192539D02*
X0060424Y0192539D01*
X0060424Y0190941D02*
X0047940Y0190941D01*
X0047165Y0189342D02*
X0060424Y0189342D01*
X0060424Y0187744D02*
X0045885Y0187744D01*
X0045885Y0186145D02*
X0060424Y0186145D01*
X0060424Y0184547D02*
X0045885Y0184547D01*
X0045885Y0182948D02*
X0060424Y0182948D01*
X0060424Y0181350D02*
X0045885Y0181350D01*
X0045885Y0179751D02*
X0060424Y0179751D01*
X0060424Y0178153D02*
X0045885Y0178153D01*
X0045885Y0176554D02*
X0060424Y0176554D01*
X0060424Y0174956D02*
X0045885Y0174956D01*
X0045885Y0173357D02*
X0060424Y0173357D01*
X0060424Y0171759D02*
X0045885Y0171759D01*
X0045885Y0170160D02*
X0060424Y0170160D01*
X0060424Y0168562D02*
X0045885Y0168562D01*
X0045885Y0166963D02*
X0060424Y0166963D01*
X0060424Y0165365D02*
X0045885Y0165365D01*
X0045885Y0163766D02*
X0060424Y0163766D01*
X0060404Y0162168D02*
X0045885Y0162168D01*
X0045885Y0160569D02*
X0059128Y0160569D01*
X0058661Y0158971D02*
X0045885Y0158971D01*
X0045885Y0157372D02*
X0058661Y0157372D01*
X0058661Y0155773D02*
X0045885Y0155773D01*
X0045885Y0154175D02*
X0058661Y0154175D01*
X0058661Y0152576D02*
X0045885Y0152576D01*
X0045885Y0150978D02*
X0058954Y0150978D01*
X0059984Y0149379D02*
X0045885Y0149379D01*
X0045885Y0147781D02*
X0067228Y0147781D01*
X0068827Y0146182D02*
X0045885Y0146182D01*
X0045885Y0144584D02*
X0070425Y0144584D01*
X0072024Y0142985D02*
X0045885Y0142985D01*
X0045885Y0141387D02*
X0073622Y0141387D01*
X0075221Y0139788D02*
X0045885Y0139788D01*
X0045885Y0138190D02*
X0076819Y0138190D01*
X0078418Y0136591D02*
X0045885Y0136591D01*
X0047434Y0134993D02*
X0080016Y0134993D01*
X0081615Y0133394D02*
X0049033Y0133394D01*
X0050631Y0131796D02*
X0083213Y0131796D01*
X0084812Y0130197D02*
X0052230Y0130197D01*
X0053828Y0128599D02*
X0086410Y0128599D01*
X0088009Y0127000D02*
X0055427Y0127000D01*
X0057025Y0125402D02*
X0089607Y0125402D01*
X0091206Y0123803D02*
X0058624Y0123803D01*
X0060222Y0122205D02*
X0079433Y0122205D01*
X0078479Y0120606D02*
X0061821Y0120606D01*
X0063419Y0119008D02*
X0078239Y0119008D01*
X0078239Y0117409D02*
X0065018Y0117409D01*
X0066616Y0115811D02*
X0078239Y0115811D01*
X0078239Y0114212D02*
X0068215Y0114212D01*
X0069813Y0112614D02*
X0078239Y0112614D01*
X0078760Y0111015D02*
X0071412Y0111015D01*
X0073010Y0109417D02*
X0080112Y0109417D01*
X0085503Y0109417D02*
X0105592Y0109417D01*
X0103994Y0111015D02*
X0086855Y0111015D01*
X0087376Y0112614D02*
X0102395Y0112614D01*
X0100797Y0114212D02*
X0087376Y0114212D01*
X0087376Y0115811D02*
X0099198Y0115811D01*
X0097600Y0117409D02*
X0087376Y0117409D01*
X0087376Y0119008D02*
X0096001Y0119008D01*
X0094403Y0120606D02*
X0087137Y0120606D01*
X0086183Y0122205D02*
X0092804Y0122205D01*
X0094486Y0101424D02*
X0007400Y0101424D01*
X0007400Y0099826D02*
X0096084Y0099826D01*
X0097683Y0098227D02*
X0007400Y0098227D01*
X0007400Y0096629D02*
X0099281Y0096629D01*
X0100880Y0095030D02*
X0007400Y0095030D01*
X0007400Y0093432D02*
X0102478Y0093432D01*
X0104077Y0091833D02*
X0007400Y0091833D01*
X0007400Y0090235D02*
X0105675Y0090235D01*
X0107274Y0088636D02*
X0007400Y0088636D01*
X0007400Y0087038D02*
X0108872Y0087038D01*
X0110471Y0085439D02*
X0007400Y0085439D01*
X0007400Y0109417D02*
X0041104Y0109417D01*
X0039645Y0111015D02*
X0007400Y0111015D01*
X0007400Y0112614D02*
X0039070Y0112614D01*
X0039070Y0114212D02*
X0007400Y0114212D01*
X0007400Y0115811D02*
X0039070Y0115811D01*
X0039070Y0117409D02*
X0007400Y0117409D01*
X0007400Y0119008D02*
X0039070Y0119008D01*
X0039256Y0120606D02*
X0007400Y0120606D01*
X0007400Y0122205D02*
X0040134Y0122205D01*
X0042696Y0123803D02*
X0007400Y0123803D01*
X0027092Y0149379D02*
X0041085Y0149379D01*
X0041085Y0150978D02*
X0028101Y0150978D01*
X0028380Y0152576D02*
X0041085Y0152576D01*
X0041085Y0154175D02*
X0028380Y0154175D01*
X0028380Y0155773D02*
X0041085Y0155773D01*
X0041085Y0157372D02*
X0028380Y0157372D01*
X0028380Y0158971D02*
X0041085Y0158971D01*
X0041085Y0160569D02*
X0027898Y0160569D01*
X0065224Y0163766D02*
X0080534Y0163766D01*
X0080534Y0162168D02*
X0066055Y0162168D01*
X0067330Y0160569D02*
X0080534Y0160569D01*
X0080534Y0158971D02*
X0067798Y0158971D01*
X0067798Y0157372D02*
X0080534Y0157372D01*
X0080534Y0155773D02*
X0067798Y0155773D01*
X0067798Y0154175D02*
X0080742Y0154175D01*
X0082118Y0152576D02*
X0069221Y0152576D01*
X0070819Y0150978D02*
X0083716Y0150978D01*
X0085315Y0149379D02*
X0072418Y0149379D01*
X0074016Y0147781D02*
X0086913Y0147781D01*
X0080534Y0165365D02*
X0065224Y0165365D01*
X0065224Y0166963D02*
X0080534Y0166963D01*
X0080534Y0168562D02*
X0065224Y0168562D01*
X0065224Y0170160D02*
X0080534Y0170160D01*
X0080534Y0171759D02*
X0065224Y0171759D01*
X0065224Y0173357D02*
X0080534Y0173357D01*
X0080534Y0174956D02*
X0065224Y0174956D01*
X0065224Y0176554D02*
X0080534Y0176554D01*
X0080534Y0178153D02*
X0065224Y0178153D01*
X0065224Y0179751D02*
X0080534Y0179751D01*
X0080534Y0181350D02*
X0065224Y0181350D01*
X0065224Y0182948D02*
X0080534Y0182948D01*
X0080534Y0184547D02*
X0065224Y0184547D01*
X0065224Y0186145D02*
X0080534Y0186145D01*
X0080534Y0187744D02*
X0065224Y0187744D01*
X0065224Y0189342D02*
X0079112Y0189342D01*
X0078420Y0190941D02*
X0065224Y0190941D01*
X0065224Y0192539D02*
X0078365Y0192539D01*
X0078365Y0194138D02*
X0065224Y0194138D01*
X0065224Y0195736D02*
X0078365Y0195736D01*
X0078365Y0197335D02*
X0065224Y0197335D01*
X0065224Y0198933D02*
X0078409Y0198933D01*
X0079087Y0200532D02*
X0065224Y0200532D01*
X0065224Y0202130D02*
X0080109Y0202130D01*
X0080109Y0203729D02*
X0065224Y0203729D01*
X0066753Y0205327D02*
X0080133Y0205327D01*
X0081248Y0206926D02*
X0068351Y0206926D01*
X0069950Y0208524D02*
X0082847Y0208524D01*
X0122095Y0194847D02*
X0122095Y0191013D01*
X0141564Y0189044D02*
X0141564Y0156146D01*
X0142135Y0155576D01*
X0147473Y0155576D01*
X0204556Y0098493D01*
X0204556Y0067352D01*
X0204004Y0066800D01*
X0208604Y0066257D02*
X0210304Y0066257D01*
X0210304Y0067855D02*
X0208604Y0067855D01*
X0207855Y0069454D02*
X0211052Y0069454D01*
X0211998Y0071052D02*
X0206956Y0071052D01*
X0206956Y0072651D02*
X0207048Y0072651D01*
X0211760Y0072651D02*
X0211998Y0072651D01*
X0214398Y0067306D02*
X0214904Y0066800D01*
X0214398Y0067306D02*
X0214398Y0116209D01*
X0214398Y0122115D01*
X0214398Y0135894D01*
X0204556Y0145737D01*
X0204556Y0161485D01*
X0173060Y0192981D01*
X0161749Y0192981D01*
X0161249Y0193481D01*
X0161249Y0198887D01*
X0163217Y0200855D01*
X0188808Y0200855D01*
X0198650Y0210698D01*
X0208493Y0210698D01*
X0214983Y0217187D01*
X0214983Y0244095D01*
X0210383Y0243692D02*
X0208683Y0243692D01*
X0208683Y0245290D02*
X0210383Y0245290D01*
X0211271Y0246889D02*
X0207795Y0246889D01*
X0206196Y0248487D02*
X0212869Y0248487D01*
X0217096Y0248487D02*
X0223669Y0248487D01*
X0222071Y0246889D02*
X0218695Y0246889D01*
X0219583Y0245290D02*
X0221183Y0245290D01*
X0221183Y0243692D02*
X0219583Y0243692D01*
X0219486Y0242093D02*
X0221279Y0242093D01*
X0228687Y0240495D02*
X0233778Y0240495D01*
X0234777Y0239495D02*
X0238588Y0239495D01*
X0241283Y0242190D01*
X0241283Y0246001D01*
X0238588Y0248695D01*
X0234777Y0248695D01*
X0232083Y0246001D01*
X0232083Y0242190D01*
X0234777Y0239495D01*
X0234586Y0237298D02*
X0238780Y0237298D01*
X0237483Y0235699D02*
X0235883Y0235699D01*
X0235883Y0234101D02*
X0237483Y0234101D01*
X0237483Y0232502D02*
X0235883Y0232502D01*
X0234596Y0230904D02*
X0238769Y0230904D01*
X0239683Y0229305D02*
X0233683Y0229305D01*
X0233683Y0227707D02*
X0239683Y0227707D01*
X0239683Y0226108D02*
X0233683Y0226108D01*
X0233683Y0224509D02*
X0239683Y0224509D01*
X0239683Y0222911D02*
X0233683Y0222911D01*
X0233683Y0221312D02*
X0239683Y0221312D01*
X0239683Y0219714D02*
X0233683Y0219714D01*
X0233683Y0218115D02*
X0239683Y0218115D01*
X0240618Y0216517D02*
X0235202Y0216517D01*
X0236800Y0214918D02*
X0242217Y0214918D01*
X0243815Y0213320D02*
X0238399Y0213320D01*
X0239997Y0211721D02*
X0245414Y0211721D01*
X0247012Y0210123D02*
X0241596Y0210123D01*
X0242389Y0208524D02*
X0248611Y0208524D01*
X0250209Y0206926D02*
X0242389Y0206926D01*
X0242389Y0205327D02*
X0251808Y0205327D01*
X0253406Y0203729D02*
X0242389Y0203729D01*
X0242389Y0202130D02*
X0255005Y0202130D01*
X0256603Y0200532D02*
X0244210Y0200532D01*
X0244968Y0198933D02*
X0257274Y0198933D01*
X0257274Y0197335D02*
X0245069Y0197335D01*
X0245069Y0195736D02*
X0257274Y0195736D01*
X0257274Y0194138D02*
X0245069Y0194138D01*
X0245069Y0192539D02*
X0257274Y0192539D01*
X0257274Y0190941D02*
X0245069Y0190941D01*
X0244410Y0189342D02*
X0257274Y0189342D01*
X0257274Y0187744D02*
X0242783Y0187744D01*
X0242783Y0186145D02*
X0257274Y0186145D01*
X0257274Y0184547D02*
X0242783Y0184547D01*
X0242783Y0182948D02*
X0257274Y0182948D01*
X0257274Y0181350D02*
X0242783Y0181350D01*
X0242783Y0179751D02*
X0257274Y0179751D01*
X0257274Y0178153D02*
X0242783Y0178153D01*
X0242783Y0176554D02*
X0257274Y0176554D01*
X0257274Y0174956D02*
X0242783Y0174956D01*
X0242783Y0173357D02*
X0257274Y0173357D01*
X0257274Y0171759D02*
X0242783Y0171759D01*
X0242783Y0170160D02*
X0257274Y0170160D01*
X0257274Y0168562D02*
X0242783Y0168562D01*
X0242783Y0166963D02*
X0257274Y0166963D01*
X0257274Y0165365D02*
X0242783Y0165365D01*
X0242783Y0163766D02*
X0257274Y0163766D01*
X0257254Y0162168D02*
X0242783Y0162168D01*
X0242783Y0160569D02*
X0255960Y0160569D01*
X0255480Y0158971D02*
X0242783Y0158971D01*
X0242783Y0157372D02*
X0255480Y0157372D01*
X0255480Y0155773D02*
X0242783Y0155773D01*
X0242783Y0154175D02*
X0255480Y0154175D01*
X0255480Y0152576D02*
X0242783Y0152576D01*
X0242783Y0150978D02*
X0255760Y0150978D01*
X0256772Y0149379D02*
X0242695Y0149379D01*
X0241490Y0147781D02*
X0257274Y0147781D01*
X0257274Y0146182D02*
X0239891Y0146182D01*
X0238293Y0144584D02*
X0257095Y0144584D01*
X0255497Y0142985D02*
X0236694Y0142985D01*
X0235096Y0141387D02*
X0253898Y0141387D01*
X0252300Y0139788D02*
X0233604Y0139788D01*
X0233604Y0138190D02*
X0250701Y0138190D01*
X0249491Y0136591D02*
X0233604Y0136591D01*
X0233604Y0134993D02*
X0249400Y0134993D01*
X0249400Y0133394D02*
X0233604Y0133394D01*
X0233604Y0131796D02*
X0249400Y0131796D01*
X0249400Y0130197D02*
X0233604Y0130197D01*
X0233604Y0128599D02*
X0249400Y0128599D01*
X0249400Y0127000D02*
X0233604Y0127000D01*
X0233604Y0125402D02*
X0249400Y0125402D01*
X0249400Y0123803D02*
X0233604Y0123803D01*
X0233604Y0122205D02*
X0237205Y0122205D01*
X0237748Y0122748D02*
X0236462Y0121463D01*
X0235767Y0119784D01*
X0235767Y0112029D01*
X0236462Y0110350D01*
X0237748Y0109065D01*
X0239427Y0108369D01*
X0241244Y0108369D01*
X0242923Y0109065D01*
X0244208Y0110350D01*
X0244904Y0112029D01*
X0244904Y0119784D01*
X0244208Y0121463D01*
X0242923Y0122748D01*
X0241244Y0123443D01*
X0239427Y0123443D01*
X0237748Y0122748D01*
X0236108Y0120606D02*
X0233604Y0120606D01*
X0233604Y0119008D02*
X0235767Y0119008D01*
X0235767Y0117409D02*
X0233604Y0117409D01*
X0233604Y0115811D02*
X0235767Y0115811D01*
X0235767Y0114212D02*
X0233604Y0114212D01*
X0233604Y0112614D02*
X0235767Y0112614D01*
X0236187Y0111015D02*
X0233604Y0111015D01*
X0233604Y0109417D02*
X0237396Y0109417D01*
X0233604Y0107818D02*
X0249400Y0107818D01*
X0249400Y0106220D02*
X0233604Y0106220D01*
X0233604Y0104621D02*
X0249400Y0104621D01*
X0249400Y0103023D02*
X0233604Y0103023D01*
X0233604Y0101424D02*
X0249400Y0101424D01*
X0249400Y0099826D02*
X0233604Y0099826D01*
X0233604Y0098227D02*
X0249400Y0098227D01*
X0249400Y0096629D02*
X0233604Y0096629D01*
X0233604Y0095030D02*
X0248880Y0095030D01*
X0247282Y0093432D02*
X0233604Y0093432D01*
X0233604Y0091833D02*
X0245683Y0091833D01*
X0244085Y0090235D02*
X0233604Y0090235D01*
X0233604Y0088636D02*
X0242486Y0088636D01*
X0240887Y0087038D02*
X0233604Y0087038D01*
X0233604Y0085439D02*
X0239688Y0085439D01*
X0239604Y0083840D02*
X0233604Y0083840D01*
X0233604Y0082242D02*
X0239604Y0082242D01*
X0239342Y0080643D02*
X0233866Y0080643D01*
X0235464Y0079045D02*
X0237744Y0079045D01*
X0237404Y0077446D02*
X0235804Y0077446D01*
X0235804Y0075848D02*
X0237404Y0075848D01*
X0238049Y0074249D02*
X0235159Y0074249D01*
X0231204Y0076800D02*
X0231204Y0140889D01*
X0240383Y0150068D01*
X0240383Y0194694D01*
X0240501Y0194812D01*
X0239989Y0195324D01*
X0239989Y0208335D01*
X0231283Y0217042D01*
X0231283Y0234095D01*
X0239587Y0240495D02*
X0244678Y0240495D01*
X0245677Y0239495D02*
X0249488Y0239495D01*
X0252183Y0242190D01*
X0252183Y0246001D01*
X0249488Y0248695D01*
X0245677Y0248695D01*
X0242983Y0246001D01*
X0242983Y0242190D01*
X0245677Y0239495D01*
X0245386Y0237298D02*
X0249680Y0237298D01*
X0248383Y0235699D02*
X0246683Y0235699D01*
X0246683Y0234101D02*
X0248383Y0234101D01*
X0248383Y0232502D02*
X0246683Y0232502D01*
X0245396Y0230904D02*
X0249669Y0230904D01*
X0250583Y0229305D02*
X0244483Y0229305D01*
X0244483Y0227707D02*
X0250583Y0227707D01*
X0250583Y0226108D02*
X0244483Y0226108D01*
X0244483Y0224509D02*
X0250583Y0224509D01*
X0250583Y0222911D02*
X0244483Y0222911D01*
X0244483Y0221312D02*
X0250583Y0221312D01*
X0251547Y0219714D02*
X0244483Y0219714D01*
X0245808Y0218115D02*
X0253146Y0218115D01*
X0254744Y0216517D02*
X0247406Y0216517D01*
X0249005Y0214918D02*
X0256343Y0214918D01*
X0257941Y0213320D02*
X0250603Y0213320D01*
X0252202Y0211721D02*
X0259540Y0211721D01*
X0261138Y0210123D02*
X0253800Y0210123D01*
X0255399Y0208524D02*
X0262737Y0208524D01*
X0264335Y0206926D02*
X0256997Y0206926D01*
X0258596Y0205327D02*
X0265934Y0205327D01*
X0267532Y0203729D02*
X0260194Y0203729D01*
X0261744Y0202130D02*
X0269131Y0202130D01*
X0270729Y0200532D02*
X0262074Y0200532D01*
X0262074Y0198933D02*
X0272328Y0198933D01*
X0273926Y0197335D02*
X0262074Y0197335D01*
X0262074Y0195736D02*
X0275046Y0195736D01*
X0275046Y0194138D02*
X0262074Y0194138D01*
X0262074Y0192539D02*
X0275046Y0192539D01*
X0275138Y0190941D02*
X0262074Y0190941D01*
X0262074Y0189342D02*
X0275884Y0189342D01*
X0276959Y0187744D02*
X0262074Y0187744D01*
X0262074Y0186145D02*
X0276959Y0186145D01*
X0276959Y0184547D02*
X0262074Y0184547D01*
X0262074Y0182948D02*
X0276959Y0182948D01*
X0276959Y0181350D02*
X0262074Y0181350D01*
X0262074Y0179751D02*
X0276959Y0179751D01*
X0276959Y0178153D02*
X0262074Y0178153D01*
X0262074Y0176554D02*
X0276959Y0176554D01*
X0276959Y0174956D02*
X0262074Y0174956D01*
X0262074Y0173357D02*
X0276959Y0173357D01*
X0276959Y0171759D02*
X0262074Y0171759D01*
X0262074Y0170160D02*
X0276959Y0170160D01*
X0276959Y0168562D02*
X0262074Y0168562D01*
X0262074Y0166963D02*
X0276959Y0166963D01*
X0276959Y0165365D02*
X0262074Y0165365D01*
X0262074Y0163766D02*
X0276959Y0163766D01*
X0276959Y0162168D02*
X0262842Y0162168D01*
X0264136Y0160569D02*
X0276959Y0160569D01*
X0276959Y0158971D02*
X0264617Y0158971D01*
X0264617Y0157372D02*
X0276959Y0157372D01*
X0276959Y0155773D02*
X0264617Y0155773D01*
X0264617Y0154175D02*
X0276959Y0154175D01*
X0276899Y0152576D02*
X0264617Y0152576D01*
X0264336Y0150978D02*
X0275300Y0150978D01*
X0273702Y0149379D02*
X0263325Y0149379D01*
X0262074Y0147781D02*
X0272103Y0147781D01*
X0270505Y0146182D02*
X0262074Y0146182D01*
X0262074Y0144584D02*
X0268906Y0144584D01*
X0267308Y0142985D02*
X0261947Y0142985D01*
X0260687Y0141387D02*
X0265709Y0141387D01*
X0264111Y0139788D02*
X0259088Y0139788D01*
X0257489Y0138190D02*
X0262512Y0138190D01*
X0260914Y0136591D02*
X0255891Y0136591D01*
X0254292Y0134993D02*
X0259315Y0134993D01*
X0257717Y0133394D02*
X0254200Y0133394D01*
X0254200Y0131796D02*
X0257274Y0131796D01*
X0257274Y0130197D02*
X0254200Y0130197D01*
X0254200Y0128599D02*
X0257274Y0128599D01*
X0257274Y0127000D02*
X0254200Y0127000D01*
X0254200Y0125402D02*
X0257274Y0125402D01*
X0257274Y0123803D02*
X0254200Y0123803D01*
X0254200Y0122205D02*
X0257274Y0122205D01*
X0257274Y0120606D02*
X0254200Y0120606D01*
X0254200Y0119008D02*
X0257274Y0119008D01*
X0257274Y0117409D02*
X0254200Y0117409D01*
X0254200Y0115811D02*
X0257274Y0115811D01*
X0257274Y0114212D02*
X0254200Y0114212D01*
X0254200Y0112614D02*
X0257274Y0112614D01*
X0257274Y0111015D02*
X0254200Y0111015D01*
X0254200Y0109417D02*
X0257274Y0109417D01*
X0257274Y0107818D02*
X0254200Y0107818D01*
X0254200Y0106220D02*
X0257274Y0106220D01*
X0257274Y0104621D02*
X0254200Y0104621D01*
X0254200Y0103023D02*
X0257274Y0103023D01*
X0257274Y0101424D02*
X0254200Y0101424D01*
X0254200Y0099826D02*
X0257274Y0099826D01*
X0257274Y0098227D02*
X0254200Y0098227D01*
X0254200Y0096629D02*
X0257274Y0096629D01*
X0257274Y0095030D02*
X0254200Y0095030D01*
X0253932Y0093432D02*
X0257274Y0093432D01*
X0257274Y0091833D02*
X0252471Y0091833D01*
X0250873Y0090235D02*
X0257274Y0090235D01*
X0256266Y0088636D02*
X0249274Y0088636D01*
X0247676Y0087038D02*
X0254667Y0087038D01*
X0253069Y0085439D02*
X0246077Y0085439D01*
X0244479Y0083840D02*
X0251470Y0083840D01*
X0250504Y0082242D02*
X0244404Y0082242D01*
X0244666Y0080643D02*
X0250242Y0080643D01*
X0248644Y0079045D02*
X0246264Y0079045D01*
X0246604Y0077446D02*
X0248304Y0077446D01*
X0248304Y0075848D02*
X0246604Y0075848D01*
X0245959Y0074249D02*
X0248949Y0074249D01*
X0252904Y0076800D02*
X0252904Y0081880D01*
X0259674Y0088650D01*
X0259674Y0131957D01*
X0279359Y0151643D01*
X0279359Y0194784D01*
X0279615Y0195040D01*
X0252983Y0221672D01*
X0252983Y0234095D01*
X0257583Y0234101D02*
X0259283Y0234101D01*
X0259283Y0235699D02*
X0257583Y0235699D01*
X0256286Y0237298D02*
X0260580Y0237298D01*
X0260288Y0239495D02*
X0256477Y0239495D01*
X0253783Y0242190D01*
X0253783Y0246001D01*
X0256477Y0248695D01*
X0260288Y0248695D01*
X0262983Y0246001D01*
X0262983Y0242190D01*
X0260288Y0239495D01*
X0261287Y0240495D02*
X0266378Y0240495D01*
X0267377Y0239495D02*
X0271188Y0239495D01*
X0273883Y0242190D01*
X0273883Y0246001D01*
X0271188Y0248695D01*
X0267377Y0248695D01*
X0264683Y0246001D01*
X0264683Y0242190D01*
X0267377Y0239495D01*
X0267186Y0237298D02*
X0271480Y0237298D01*
X0270183Y0235699D02*
X0268483Y0235699D01*
X0268483Y0234101D02*
X0270183Y0234101D01*
X0270183Y0232502D02*
X0268483Y0232502D01*
X0267196Y0230904D02*
X0271469Y0230904D01*
X0272383Y0229305D02*
X0266283Y0229305D01*
X0266283Y0227707D02*
X0272743Y0227707D01*
X0274334Y0226108D02*
X0267343Y0226108D01*
X0268941Y0224509D02*
X0275933Y0224509D01*
X0277531Y0222911D02*
X0270540Y0222911D01*
X0272138Y0221312D02*
X0279130Y0221312D01*
X0280728Y0219714D02*
X0273737Y0219714D01*
X0275335Y0218115D02*
X0282327Y0218115D01*
X0283925Y0216517D02*
X0276934Y0216517D01*
X0278532Y0214918D02*
X0285524Y0214918D01*
X0287122Y0213320D02*
X0280131Y0213320D01*
X0276540Y0210123D02*
X0267926Y0210123D01*
X0266328Y0211721D02*
X0274941Y0211721D01*
X0273343Y0213320D02*
X0264729Y0213320D01*
X0263131Y0214918D02*
X0271744Y0214918D01*
X0270146Y0216517D02*
X0261532Y0216517D01*
X0259934Y0218115D02*
X0268547Y0218115D01*
X0266949Y0219714D02*
X0258335Y0219714D01*
X0256737Y0221312D02*
X0265350Y0221312D01*
X0263752Y0222911D02*
X0255383Y0222911D01*
X0255383Y0224509D02*
X0262153Y0224509D01*
X0261483Y0226108D02*
X0255383Y0226108D01*
X0255383Y0227707D02*
X0261483Y0227707D01*
X0261483Y0229305D02*
X0255383Y0229305D01*
X0256296Y0230904D02*
X0260569Y0230904D01*
X0259283Y0232502D02*
X0257583Y0232502D01*
X0263883Y0234095D02*
X0263883Y0226174D01*
X0299044Y0191013D01*
X0299044Y0156162D01*
X0299540Y0155666D01*
X0299831Y0155375D01*
X0299831Y0142194D01*
X0295501Y0137863D01*
X0289202Y0137863D01*
X0267548Y0116209D01*
X0267548Y0086682D01*
X0263804Y0082938D01*
X0263804Y0076800D01*
X0268404Y0077446D02*
X0270004Y0077446D01*
X0270004Y0075848D02*
X0268404Y0075848D01*
X0267759Y0074249D02*
X0270649Y0074249D01*
X0273055Y0069454D02*
X0276252Y0069454D01*
X0275504Y0067855D02*
X0273804Y0067855D01*
X0273804Y0066257D02*
X0275504Y0066257D01*
X0275740Y0064658D02*
X0273568Y0064658D01*
X0271969Y0063060D02*
X0277339Y0063060D01*
X0266439Y0063060D02*
X0261069Y0063060D01*
X0262668Y0064658D02*
X0264840Y0064658D01*
X0264604Y0066257D02*
X0262904Y0066257D01*
X0262904Y0067855D02*
X0264604Y0067855D01*
X0265352Y0069454D02*
X0262155Y0069454D01*
X0259849Y0074249D02*
X0256859Y0074249D01*
X0257504Y0075848D02*
X0259204Y0075848D01*
X0259204Y0077446D02*
X0257504Y0077446D01*
X0257164Y0079045D02*
X0259544Y0079045D01*
X0261142Y0080643D02*
X0255566Y0080643D01*
X0256660Y0082242D02*
X0261404Y0082242D01*
X0261580Y0083840D02*
X0258258Y0083840D01*
X0259857Y0085439D02*
X0262911Y0085439D01*
X0261455Y0087038D02*
X0264510Y0087038D01*
X0265148Y0088636D02*
X0262074Y0088636D01*
X0262074Y0090235D02*
X0265148Y0090235D01*
X0265148Y0091833D02*
X0262074Y0091833D01*
X0262074Y0093432D02*
X0265148Y0093432D01*
X0265148Y0095030D02*
X0262074Y0095030D01*
X0262074Y0096629D02*
X0265148Y0096629D01*
X0265148Y0098227D02*
X0262074Y0098227D01*
X0262074Y0099826D02*
X0265148Y0099826D01*
X0265148Y0101424D02*
X0262074Y0101424D01*
X0262074Y0103023D02*
X0265148Y0103023D01*
X0265148Y0104621D02*
X0262074Y0104621D01*
X0262074Y0106220D02*
X0265148Y0106220D01*
X0265148Y0107818D02*
X0262074Y0107818D01*
X0262074Y0109417D02*
X0265148Y0109417D01*
X0265148Y0111015D02*
X0262074Y0111015D01*
X0262074Y0112614D02*
X0265148Y0112614D01*
X0265148Y0114212D02*
X0262074Y0114212D01*
X0262074Y0115811D02*
X0265148Y0115811D01*
X0265447Y0117409D02*
X0262074Y0117409D01*
X0262074Y0119008D02*
X0266952Y0119008D01*
X0268551Y0120606D02*
X0262074Y0120606D01*
X0262074Y0122205D02*
X0270149Y0122205D01*
X0271748Y0123803D02*
X0262074Y0123803D01*
X0262074Y0125402D02*
X0273346Y0125402D01*
X0274945Y0127000D02*
X0262074Y0127000D01*
X0262074Y0128599D02*
X0276543Y0128599D01*
X0278142Y0130197D02*
X0262074Y0130197D01*
X0262906Y0131796D02*
X0279740Y0131796D01*
X0281339Y0133394D02*
X0264505Y0133394D01*
X0266103Y0134993D02*
X0282937Y0134993D01*
X0284536Y0136591D02*
X0267702Y0136591D01*
X0269301Y0138190D02*
X0286134Y0138190D01*
X0287733Y0139788D02*
X0270899Y0139788D01*
X0272498Y0141387D02*
X0295631Y0141387D01*
X0297229Y0142985D02*
X0274096Y0142985D01*
X0275695Y0144584D02*
X0297431Y0144584D01*
X0297431Y0146182D02*
X0277293Y0146182D01*
X0278892Y0147781D02*
X0297431Y0147781D01*
X0296397Y0149379D02*
X0280490Y0149379D01*
X0281682Y0150978D02*
X0295308Y0150978D01*
X0294972Y0152576D02*
X0281759Y0152576D01*
X0281759Y0154175D02*
X0294972Y0154175D01*
X0294972Y0155773D02*
X0281759Y0155773D01*
X0281759Y0157372D02*
X0294972Y0157372D01*
X0294972Y0158971D02*
X0281759Y0158971D01*
X0281759Y0160569D02*
X0295396Y0160569D01*
X0296612Y0162168D02*
X0281759Y0162168D01*
X0281759Y0163766D02*
X0296644Y0163766D01*
X0296644Y0165365D02*
X0281759Y0165365D01*
X0281759Y0166963D02*
X0296644Y0166963D01*
X0296644Y0168562D02*
X0281759Y0168562D01*
X0281759Y0170160D02*
X0296644Y0170160D01*
X0296644Y0171759D02*
X0281759Y0171759D01*
X0281759Y0173357D02*
X0296644Y0173357D01*
X0296644Y0174956D02*
X0281759Y0174956D01*
X0281759Y0176554D02*
X0296644Y0176554D01*
X0296644Y0178153D02*
X0281759Y0178153D01*
X0281759Y0179751D02*
X0296644Y0179751D01*
X0296644Y0181350D02*
X0281759Y0181350D01*
X0281759Y0182948D02*
X0296644Y0182948D01*
X0296644Y0184547D02*
X0281759Y0184547D01*
X0281759Y0186145D02*
X0296644Y0186145D01*
X0296644Y0187744D02*
X0281759Y0187744D01*
X0283346Y0189342D02*
X0296644Y0189342D01*
X0295722Y0190941D02*
X0284091Y0190941D01*
X0284183Y0192539D02*
X0294123Y0192539D01*
X0292525Y0194138D02*
X0284183Y0194138D01*
X0284183Y0195736D02*
X0290926Y0195736D01*
X0289328Y0197335D02*
X0284183Y0197335D01*
X0284177Y0198933D02*
X0287729Y0198933D01*
X0286131Y0200532D02*
X0283515Y0200532D01*
X0284532Y0202130D02*
X0281602Y0202130D01*
X0282934Y0203729D02*
X0274320Y0203729D01*
X0272722Y0205327D02*
X0281335Y0205327D01*
X0279737Y0206926D02*
X0271123Y0206926D01*
X0269525Y0208524D02*
X0278138Y0208524D01*
X0277627Y0202130D02*
X0275919Y0202130D01*
X0288123Y0205327D02*
X0310863Y0205327D01*
X0312461Y0203729D02*
X0289722Y0203729D01*
X0291320Y0202130D02*
X0314060Y0202130D01*
X0315622Y0200532D02*
X0292919Y0200532D01*
X0294517Y0198933D02*
X0314860Y0198933D01*
X0314755Y0197335D02*
X0296116Y0197335D01*
X0297715Y0195736D02*
X0314755Y0195736D01*
X0314755Y0194138D02*
X0299313Y0194138D01*
X0300912Y0192539D02*
X0314755Y0192539D01*
X0314755Y0190941D02*
X0301444Y0190941D01*
X0301444Y0189342D02*
X0315411Y0189342D01*
X0316723Y0187744D02*
X0301444Y0187744D01*
X0301444Y0186145D02*
X0316723Y0186145D01*
X0316723Y0184547D02*
X0301444Y0184547D01*
X0301444Y0182948D02*
X0316723Y0182948D01*
X0316723Y0181350D02*
X0301444Y0181350D01*
X0301444Y0179751D02*
X0316723Y0179751D01*
X0316723Y0178153D02*
X0301444Y0178153D01*
X0301444Y0176554D02*
X0316723Y0176554D01*
X0316723Y0174956D02*
X0301444Y0174956D01*
X0301444Y0173357D02*
X0316723Y0173357D01*
X0316723Y0171759D02*
X0301444Y0171759D01*
X0301444Y0170160D02*
X0316723Y0170160D01*
X0316723Y0168562D02*
X0301444Y0168562D01*
X0301444Y0166963D02*
X0316723Y0166963D01*
X0316723Y0165365D02*
X0301444Y0165365D01*
X0301444Y0163766D02*
X0316723Y0163766D01*
X0316723Y0162168D02*
X0302468Y0162168D01*
X0303684Y0160569D02*
X0316723Y0160569D01*
X0316723Y0158971D02*
X0304109Y0158971D01*
X0304109Y0157372D02*
X0316723Y0157372D01*
X0316723Y0155773D02*
X0304109Y0155773D01*
X0304109Y0154175D02*
X0316723Y0154175D01*
X0316723Y0152576D02*
X0304109Y0152576D01*
X0303773Y0150978D02*
X0316723Y0150978D01*
X0316723Y0149379D02*
X0302683Y0149379D01*
X0302231Y0147781D02*
X0316723Y0147781D01*
X0315780Y0146182D02*
X0302231Y0146182D01*
X0302231Y0144584D02*
X0314182Y0144584D01*
X0312583Y0142985D02*
X0302231Y0142985D01*
X0302095Y0141387D02*
X0310985Y0141387D01*
X0309386Y0139788D02*
X0300820Y0139788D01*
X0299222Y0138190D02*
X0307788Y0138190D01*
X0306189Y0136591D02*
X0297623Y0136591D01*
X0301394Y0131796D02*
X0286529Y0131796D01*
X0288127Y0133394D02*
X0302992Y0133394D01*
X0304591Y0134993D02*
X0289726Y0134993D01*
X0284930Y0130197D02*
X0299795Y0130197D01*
X0298197Y0128599D02*
X0283331Y0128599D01*
X0281733Y0127000D02*
X0296598Y0127000D01*
X0295000Y0125402D02*
X0280134Y0125402D01*
X0278536Y0123803D02*
X0293401Y0123803D01*
X0292707Y0122205D02*
X0282986Y0122205D01*
X0284016Y0120606D02*
X0292707Y0120606D01*
X0292707Y0119008D02*
X0284309Y0119008D01*
X0284309Y0117409D02*
X0292707Y0117409D01*
X0292707Y0115811D02*
X0284309Y0115811D01*
X0284309Y0114212D02*
X0292707Y0114212D01*
X0292707Y0112614D02*
X0284309Y0112614D01*
X0283842Y0111015D02*
X0292707Y0111015D01*
X0292707Y0109417D02*
X0282566Y0109417D01*
X0276915Y0109417D02*
X0269948Y0109417D01*
X0269948Y0111015D02*
X0275640Y0111015D01*
X0275172Y0112614D02*
X0269948Y0112614D01*
X0269948Y0114212D02*
X0275172Y0114212D01*
X0275172Y0115811D02*
X0270543Y0115811D01*
X0272142Y0117409D02*
X0275172Y0117409D01*
X0275172Y0119008D02*
X0273740Y0119008D01*
X0275339Y0120606D02*
X0275466Y0120606D01*
X0269948Y0107818D02*
X0291196Y0107818D01*
X0289597Y0106220D02*
X0269948Y0106220D01*
X0269948Y0104621D02*
X0287999Y0104621D01*
X0286400Y0103023D02*
X0269948Y0103023D01*
X0269948Y0101424D02*
X0284802Y0101424D01*
X0283203Y0099826D02*
X0269948Y0099826D01*
X0269948Y0098227D02*
X0281605Y0098227D01*
X0280006Y0096629D02*
X0269948Y0096629D01*
X0269948Y0095030D02*
X0278408Y0095030D01*
X0276809Y0093432D02*
X0269948Y0093432D01*
X0269948Y0091833D02*
X0275211Y0091833D01*
X0273612Y0090235D02*
X0269948Y0090235D01*
X0269948Y0088636D02*
X0272339Y0088636D01*
X0272204Y0087038D02*
X0269948Y0087038D01*
X0269631Y0085439D02*
X0272204Y0085439D01*
X0272204Y0083840D02*
X0268101Y0083840D01*
X0266502Y0082242D02*
X0272204Y0082242D01*
X0271942Y0080643D02*
X0266466Y0080643D01*
X0268064Y0079045D02*
X0270344Y0079045D01*
X0278864Y0079045D02*
X0281244Y0079045D01*
X0255539Y0063060D02*
X0250269Y0063060D01*
X0251868Y0064658D02*
X0253940Y0064658D01*
X0253704Y0066257D02*
X0252104Y0066257D01*
X0252104Y0067855D02*
X0253704Y0067855D01*
X0254452Y0069454D02*
X0251355Y0069454D01*
X0243652Y0069454D02*
X0240455Y0069454D01*
X0241204Y0067855D02*
X0242904Y0067855D01*
X0242904Y0066257D02*
X0241204Y0066257D01*
X0240968Y0064658D02*
X0243140Y0064658D01*
X0244739Y0063060D02*
X0239369Y0063060D01*
X0242004Y0076800D02*
X0242004Y0084760D01*
X0251800Y0094556D01*
X0251800Y0135894D01*
X0259674Y0143769D01*
X0259674Y0155158D01*
X0260048Y0155532D01*
X0259674Y0155906D01*
X0259674Y0200855D01*
X0242083Y0218446D01*
X0242083Y0234095D01*
X0250487Y0240495D02*
X0255478Y0240495D01*
X0253879Y0242093D02*
X0252086Y0242093D01*
X0252183Y0243692D02*
X0253783Y0243692D01*
X0253783Y0245290D02*
X0252183Y0245290D01*
X0251295Y0246889D02*
X0254671Y0246889D01*
X0256269Y0248487D02*
X0249696Y0248487D01*
X0245469Y0248487D02*
X0238796Y0248487D01*
X0240395Y0246889D02*
X0243871Y0246889D01*
X0242983Y0245290D02*
X0241283Y0245290D01*
X0241283Y0243692D02*
X0242983Y0243692D01*
X0243079Y0242093D02*
X0241186Y0242093D01*
X0232971Y0246889D02*
X0229495Y0246889D01*
X0230383Y0245290D02*
X0232083Y0245290D01*
X0232083Y0243692D02*
X0230383Y0243692D01*
X0230286Y0242093D02*
X0232179Y0242093D01*
X0234569Y0248487D02*
X0227896Y0248487D01*
X0212078Y0240495D02*
X0206987Y0240495D01*
X0206483Y0238896D02*
X0212583Y0238896D01*
X0210479Y0242093D02*
X0208586Y0242093D01*
X0204083Y0244095D02*
X0204083Y0227941D01*
X0184871Y0208729D01*
X0161249Y0208729D01*
X0141564Y0189044D01*
X0143964Y0188050D02*
X0162243Y0206329D01*
X0185348Y0206329D01*
X0186230Y0206695D01*
X0186905Y0207370D01*
X0206117Y0226581D01*
X0206483Y0227464D01*
X0206483Y0230590D01*
X0207577Y0229495D01*
X0211388Y0229495D01*
X0212583Y0230690D01*
X0212583Y0218182D01*
X0207499Y0213098D01*
X0198173Y0213098D01*
X0197291Y0212732D01*
X0187814Y0203255D01*
X0162740Y0203255D01*
X0161858Y0202890D01*
X0161628Y0202660D01*
X0160840Y0202660D01*
X0159161Y0201964D01*
X0157876Y0200679D01*
X0157180Y0199000D01*
X0157180Y0191246D01*
X0157876Y0189566D01*
X0159161Y0188281D01*
X0160840Y0187586D01*
X0162658Y0187586D01*
X0164337Y0188281D01*
X0165622Y0189566D01*
X0166042Y0190581D01*
X0172066Y0190581D01*
X0202156Y0160491D01*
X0202156Y0145260D01*
X0202521Y0144378D01*
X0211998Y0134900D01*
X0211998Y0122592D01*
X0211998Y0080711D01*
X0211309Y0081400D01*
X0207499Y0081400D01*
X0206956Y0080857D01*
X0206956Y0098970D01*
X0206591Y0099852D01*
X0205915Y0100528D01*
X0148833Y0157610D01*
X0147951Y0157976D01*
X0146703Y0157976D01*
X0146703Y0159453D01*
X0146008Y0161132D01*
X0144722Y0162417D01*
X0143964Y0162731D01*
X0143964Y0188050D01*
X0143964Y0187744D02*
X0160459Y0187744D01*
X0163039Y0187744D02*
X0174903Y0187744D01*
X0173305Y0189342D02*
X0165398Y0189342D01*
X0161749Y0192981D02*
X0161749Y0195123D01*
X0166317Y0195381D02*
X0166317Y0198455D01*
X0189285Y0198455D01*
X0190167Y0198820D01*
X0190842Y0199496D01*
X0199645Y0208298D01*
X0208970Y0208298D01*
X0209852Y0208663D01*
X0210528Y0209338D01*
X0217017Y0215828D01*
X0217383Y0216710D01*
X0217383Y0230590D01*
X0217983Y0229990D01*
X0217983Y0162235D01*
X0216809Y0161061D01*
X0216113Y0159382D01*
X0216113Y0151627D01*
X0216809Y0149948D01*
X0218094Y0148663D01*
X0218282Y0148585D01*
X0218282Y0081283D01*
X0216798Y0079800D01*
X0216798Y0116687D01*
X0216798Y0122592D01*
X0216798Y0136372D01*
X0216433Y0137254D01*
X0215758Y0137929D01*
X0206956Y0146731D01*
X0206956Y0161962D01*
X0206591Y0162845D01*
X0205915Y0163520D01*
X0174419Y0195016D01*
X0173537Y0195381D01*
X0166317Y0195381D01*
X0166317Y0195736D02*
X0196480Y0195736D01*
X0196480Y0194138D02*
X0175297Y0194138D01*
X0176896Y0192539D02*
X0196480Y0192539D01*
X0196480Y0191068D02*
X0197175Y0189389D01*
X0198460Y0188104D01*
X0200139Y0187409D01*
X0201957Y0187409D01*
X0203636Y0188104D01*
X0204921Y0189389D01*
X0205617Y0191068D01*
X0205617Y0198823D01*
X0204921Y0200502D01*
X0203636Y0201787D01*
X0201957Y0202483D01*
X0200139Y0202483D01*
X0198460Y0201787D01*
X0197175Y0200502D01*
X0196480Y0198823D01*
X0196480Y0191068D01*
X0196532Y0190941D02*
X0178494Y0190941D01*
X0180093Y0189342D02*
X0197222Y0189342D01*
X0199330Y0187744D02*
X0181691Y0187744D01*
X0183290Y0186145D02*
X0217983Y0186145D01*
X0217983Y0184547D02*
X0184888Y0184547D01*
X0186487Y0182948D02*
X0217983Y0182948D01*
X0217983Y0181350D02*
X0188085Y0181350D01*
X0189684Y0179751D02*
X0217983Y0179751D01*
X0217983Y0178153D02*
X0191282Y0178153D01*
X0192881Y0176554D02*
X0217983Y0176554D01*
X0217983Y0174956D02*
X0194479Y0174956D01*
X0196078Y0173357D02*
X0217983Y0173357D01*
X0217983Y0171759D02*
X0197676Y0171759D01*
X0199275Y0170160D02*
X0217983Y0170160D01*
X0217983Y0168562D02*
X0200873Y0168562D01*
X0202472Y0166963D02*
X0217983Y0166963D01*
X0217983Y0165365D02*
X0204070Y0165365D01*
X0205669Y0163766D02*
X0217983Y0163766D01*
X0217915Y0162168D02*
X0206871Y0162168D01*
X0206956Y0160569D02*
X0216605Y0160569D01*
X0216113Y0158971D02*
X0206956Y0158971D01*
X0206956Y0157372D02*
X0216113Y0157372D01*
X0216113Y0155773D02*
X0206956Y0155773D01*
X0206956Y0154175D02*
X0216113Y0154175D01*
X0216113Y0152576D02*
X0206956Y0152576D01*
X0206956Y0150978D02*
X0216382Y0150978D01*
X0217378Y0149379D02*
X0206956Y0149379D01*
X0206956Y0147781D02*
X0218282Y0147781D01*
X0218282Y0146182D02*
X0207505Y0146182D01*
X0209103Y0144584D02*
X0218282Y0144584D01*
X0218282Y0142985D02*
X0210702Y0142985D01*
X0212300Y0141387D02*
X0218282Y0141387D01*
X0218282Y0139788D02*
X0213899Y0139788D01*
X0215497Y0138190D02*
X0218282Y0138190D01*
X0218282Y0136591D02*
X0216708Y0136591D01*
X0216798Y0134993D02*
X0218282Y0134993D01*
X0218282Y0133394D02*
X0216798Y0133394D01*
X0216798Y0131796D02*
X0218282Y0131796D01*
X0218282Y0130197D02*
X0216798Y0130197D01*
X0216798Y0128599D02*
X0218282Y0128599D01*
X0218282Y0127000D02*
X0216798Y0127000D01*
X0216798Y0125402D02*
X0218282Y0125402D01*
X0218282Y0123803D02*
X0216798Y0123803D01*
X0216798Y0122205D02*
X0218282Y0122205D01*
X0218282Y0120606D02*
X0216798Y0120606D01*
X0216798Y0119008D02*
X0218282Y0119008D01*
X0218282Y0117409D02*
X0216798Y0117409D01*
X0216798Y0115811D02*
X0218282Y0115811D01*
X0218282Y0114212D02*
X0216798Y0114212D01*
X0216798Y0112614D02*
X0218282Y0112614D01*
X0218282Y0111015D02*
X0216798Y0111015D01*
X0216798Y0109417D02*
X0218282Y0109417D01*
X0218282Y0107818D02*
X0216798Y0107818D01*
X0216798Y0106220D02*
X0218282Y0106220D01*
X0218282Y0104621D02*
X0216798Y0104621D01*
X0216798Y0103023D02*
X0218282Y0103023D01*
X0218282Y0101424D02*
X0216798Y0101424D01*
X0216798Y0099826D02*
X0218282Y0099826D01*
X0218282Y0098227D02*
X0216798Y0098227D01*
X0216798Y0096629D02*
X0218282Y0096629D01*
X0218282Y0095030D02*
X0216798Y0095030D01*
X0216798Y0093432D02*
X0218282Y0093432D01*
X0218282Y0091833D02*
X0216798Y0091833D01*
X0216798Y0090235D02*
X0218282Y0090235D01*
X0218282Y0088636D02*
X0216798Y0088636D01*
X0216798Y0087038D02*
X0218282Y0087038D01*
X0218282Y0085439D02*
X0216798Y0085439D01*
X0216798Y0083840D02*
X0218282Y0083840D01*
X0218282Y0082242D02*
X0216798Y0082242D01*
X0216798Y0080643D02*
X0217642Y0080643D01*
X0211998Y0082242D02*
X0206956Y0082242D01*
X0206956Y0083840D02*
X0211998Y0083840D01*
X0211998Y0085439D02*
X0206956Y0085439D01*
X0206956Y0087038D02*
X0211998Y0087038D01*
X0211998Y0088636D02*
X0206956Y0088636D01*
X0206956Y0090235D02*
X0211998Y0090235D01*
X0211998Y0091833D02*
X0206956Y0091833D01*
X0206956Y0093432D02*
X0211998Y0093432D01*
X0211998Y0095030D02*
X0206956Y0095030D01*
X0206956Y0096629D02*
X0211998Y0096629D01*
X0211998Y0098227D02*
X0206956Y0098227D01*
X0206602Y0099826D02*
X0211998Y0099826D01*
X0211998Y0101424D02*
X0205019Y0101424D01*
X0203420Y0103023D02*
X0211998Y0103023D01*
X0211998Y0104621D02*
X0201822Y0104621D01*
X0200223Y0106220D02*
X0211998Y0106220D01*
X0211998Y0107818D02*
X0198625Y0107818D01*
X0198552Y0109417D02*
X0197026Y0109417D01*
X0197242Y0110712D02*
X0198527Y0109427D01*
X0200206Y0108731D01*
X0202024Y0108731D01*
X0203703Y0109427D01*
X0204988Y0110712D01*
X0205683Y0112391D01*
X0205683Y0120146D01*
X0204988Y0121825D01*
X0203703Y0123110D01*
X0202024Y0123805D01*
X0200206Y0123805D01*
X0198527Y0123110D01*
X0197242Y0121825D01*
X0196546Y0120146D01*
X0196546Y0112391D01*
X0197242Y0110712D01*
X0197116Y0111015D02*
X0195428Y0111015D01*
X0196546Y0112614D02*
X0193829Y0112614D01*
X0192231Y0114212D02*
X0196546Y0114212D01*
X0196546Y0115811D02*
X0190632Y0115811D01*
X0189034Y0117409D02*
X0196546Y0117409D01*
X0196546Y0119008D02*
X0187435Y0119008D01*
X0185837Y0120606D02*
X0196737Y0120606D01*
X0197622Y0122205D02*
X0184238Y0122205D01*
X0182640Y0123803D02*
X0200201Y0123803D01*
X0202029Y0123803D02*
X0211998Y0123803D01*
X0211998Y0122205D02*
X0204608Y0122205D01*
X0205493Y0120606D02*
X0211998Y0120606D01*
X0211998Y0119008D02*
X0205683Y0119008D01*
X0205683Y0117409D02*
X0211998Y0117409D01*
X0211998Y0115811D02*
X0205683Y0115811D01*
X0205683Y0114212D02*
X0211998Y0114212D01*
X0211998Y0112614D02*
X0205683Y0112614D01*
X0205113Y0111015D02*
X0211998Y0111015D01*
X0211998Y0109417D02*
X0203678Y0109417D01*
X0196632Y0103023D02*
X0193578Y0103023D01*
X0195034Y0104621D02*
X0191979Y0104621D01*
X0193435Y0106220D02*
X0190381Y0106220D01*
X0191837Y0107818D02*
X0188782Y0107818D01*
X0190238Y0109417D02*
X0187184Y0109417D01*
X0188640Y0111015D02*
X0185585Y0111015D01*
X0187041Y0112614D02*
X0183987Y0112614D01*
X0185442Y0114212D02*
X0182388Y0114212D01*
X0183844Y0115811D02*
X0180790Y0115811D01*
X0182245Y0117409D02*
X0179191Y0117409D01*
X0180647Y0119008D02*
X0177593Y0119008D01*
X0179048Y0120606D02*
X0175994Y0120606D01*
X0177450Y0122205D02*
X0174396Y0122205D01*
X0175851Y0123803D02*
X0172797Y0123803D01*
X0174253Y0125402D02*
X0171199Y0125402D01*
X0172654Y0127000D02*
X0169600Y0127000D01*
X0171056Y0128599D02*
X0168002Y0128599D01*
X0169457Y0130197D02*
X0166403Y0130197D01*
X0167859Y0131796D02*
X0164805Y0131796D01*
X0166260Y0133394D02*
X0163206Y0133394D01*
X0164662Y0134993D02*
X0161608Y0134993D01*
X0163063Y0136591D02*
X0160009Y0136591D01*
X0161465Y0138190D02*
X0158411Y0138190D01*
X0157378Y0139222D02*
X0157378Y0139222D01*
X0200010Y0096591D01*
X0200010Y0096591D01*
X0200685Y0095915D01*
X0201050Y0095033D01*
X0201050Y0080859D01*
X0202156Y0079753D01*
X0202156Y0097499D01*
X0146703Y0152952D01*
X0146703Y0151698D01*
X0146008Y0150019D01*
X0144722Y0148734D01*
X0143043Y0148039D01*
X0141226Y0148039D01*
X0140307Y0148419D01*
X0148463Y0140263D01*
X0155821Y0140263D01*
X0156703Y0139898D01*
X0157378Y0139222D01*
X0156812Y0139788D02*
X0159866Y0139788D01*
X0158268Y0141387D02*
X0147339Y0141387D01*
X0145741Y0142985D02*
X0156669Y0142985D01*
X0155071Y0144584D02*
X0144142Y0144584D01*
X0142544Y0146182D02*
X0153472Y0146182D01*
X0151874Y0147781D02*
X0140945Y0147781D01*
X0137865Y0150978D02*
X0137748Y0150978D01*
X0137566Y0152576D02*
X0136150Y0152576D01*
X0137566Y0154175D02*
X0134551Y0154175D01*
X0132953Y0155773D02*
X0137566Y0155773D01*
X0137566Y0157372D02*
X0131354Y0157372D01*
X0129756Y0158971D02*
X0137566Y0158971D01*
X0143964Y0163766D02*
X0198881Y0163766D01*
X0200479Y0162168D02*
X0183937Y0162168D01*
X0183872Y0162232D02*
X0182193Y0162928D01*
X0180376Y0162928D01*
X0178696Y0162232D01*
X0177411Y0160947D01*
X0176716Y0159268D01*
X0176716Y0151513D01*
X0177411Y0149834D01*
X0178696Y0148549D01*
X0180376Y0147854D01*
X0182193Y0147854D01*
X0183872Y0148549D01*
X0185157Y0149834D01*
X0185853Y0151513D01*
X0185853Y0159268D01*
X0185157Y0160947D01*
X0183872Y0162232D01*
X0185314Y0160569D02*
X0202078Y0160569D01*
X0202156Y0158971D02*
X0185853Y0158971D01*
X0185853Y0157372D02*
X0202156Y0157372D01*
X0202156Y0155773D02*
X0185853Y0155773D01*
X0185853Y0154175D02*
X0202156Y0154175D01*
X0202156Y0152576D02*
X0185853Y0152576D01*
X0185631Y0150978D02*
X0202156Y0150978D01*
X0202156Y0149379D02*
X0184702Y0149379D01*
X0177866Y0149379D02*
X0157063Y0149379D01*
X0155465Y0150978D02*
X0176937Y0150978D01*
X0176716Y0152576D02*
X0153866Y0152576D01*
X0152268Y0154175D02*
X0176716Y0154175D01*
X0176716Y0155773D02*
X0150669Y0155773D01*
X0149071Y0157372D02*
X0176716Y0157372D01*
X0176716Y0158971D02*
X0146703Y0158971D01*
X0146241Y0160569D02*
X0177255Y0160569D01*
X0178632Y0162168D02*
X0144972Y0162168D01*
X0143964Y0165365D02*
X0197282Y0165365D01*
X0195684Y0166963D02*
X0143964Y0166963D01*
X0143964Y0168562D02*
X0194085Y0168562D01*
X0192487Y0170160D02*
X0143964Y0170160D01*
X0143964Y0171759D02*
X0190888Y0171759D01*
X0189290Y0173357D02*
X0143964Y0173357D01*
X0143964Y0174956D02*
X0187691Y0174956D01*
X0186093Y0176554D02*
X0143964Y0176554D01*
X0143964Y0178153D02*
X0184494Y0178153D01*
X0182896Y0179751D02*
X0143964Y0179751D01*
X0143964Y0181350D02*
X0181297Y0181350D01*
X0179699Y0182948D02*
X0143964Y0182948D01*
X0143964Y0184547D02*
X0178100Y0184547D01*
X0176502Y0186145D02*
X0143964Y0186145D01*
X0145256Y0189342D02*
X0158100Y0189342D01*
X0157307Y0190941D02*
X0146855Y0190941D01*
X0148453Y0192539D02*
X0157180Y0192539D01*
X0157180Y0194138D02*
X0150052Y0194138D01*
X0151650Y0195736D02*
X0157180Y0195736D01*
X0157180Y0197335D02*
X0153249Y0197335D01*
X0154847Y0198933D02*
X0157180Y0198933D01*
X0157815Y0200532D02*
X0156446Y0200532D01*
X0158044Y0202130D02*
X0159562Y0202130D01*
X0159643Y0203729D02*
X0188287Y0203729D01*
X0189886Y0205327D02*
X0161241Y0205327D01*
X0166317Y0197335D02*
X0196480Y0197335D01*
X0196525Y0198933D02*
X0190280Y0198933D01*
X0191879Y0200532D02*
X0197205Y0200532D01*
X0199289Y0202130D02*
X0193477Y0202130D01*
X0195076Y0203729D02*
X0217983Y0203729D01*
X0217983Y0205327D02*
X0196674Y0205327D01*
X0198273Y0206926D02*
X0217983Y0206926D01*
X0217983Y0208524D02*
X0209518Y0208524D01*
X0210528Y0209338D02*
X0210528Y0209338D01*
X0211312Y0210123D02*
X0217983Y0210123D01*
X0217983Y0211721D02*
X0212911Y0211721D01*
X0214509Y0213320D02*
X0217983Y0213320D01*
X0217983Y0214918D02*
X0216108Y0214918D01*
X0217303Y0216517D02*
X0217983Y0216517D01*
X0217983Y0218115D02*
X0217383Y0218115D01*
X0217383Y0219714D02*
X0217983Y0219714D01*
X0217983Y0221312D02*
X0217383Y0221312D01*
X0217383Y0222911D02*
X0217983Y0222911D01*
X0217983Y0224509D02*
X0217383Y0224509D01*
X0217383Y0226108D02*
X0217983Y0226108D01*
X0217983Y0227707D02*
X0217383Y0227707D01*
X0217383Y0229305D02*
X0217983Y0229305D01*
X0220383Y0234095D02*
X0220383Y0155804D01*
X0220682Y0155505D01*
X0220682Y0077178D01*
X0220304Y0076800D01*
X0210540Y0064658D02*
X0208368Y0064658D01*
X0206769Y0063060D02*
X0212139Y0063060D01*
X0194344Y0079045D02*
X0191964Y0079045D01*
X0190366Y0080643D02*
X0195942Y0080643D01*
X0196250Y0082242D02*
X0184831Y0082242D01*
X0183232Y0083840D02*
X0196250Y0083840D01*
X0196250Y0085439D02*
X0181634Y0085439D01*
X0180035Y0087038D02*
X0196250Y0087038D01*
X0196250Y0088636D02*
X0178437Y0088636D01*
X0176838Y0090235D02*
X0196250Y0090235D01*
X0196250Y0091833D02*
X0175240Y0091833D01*
X0173641Y0093432D02*
X0196250Y0093432D01*
X0194782Y0095030D02*
X0172043Y0095030D01*
X0170444Y0096629D02*
X0193184Y0096629D01*
X0191585Y0098227D02*
X0168846Y0098227D01*
X0167247Y0099826D02*
X0189987Y0099826D01*
X0188388Y0101424D02*
X0165649Y0101424D01*
X0164050Y0103023D02*
X0186790Y0103023D01*
X0185191Y0104621D02*
X0162452Y0104621D01*
X0160853Y0106220D02*
X0183593Y0106220D01*
X0181994Y0107818D02*
X0159255Y0107818D01*
X0159090Y0109411D02*
X0157805Y0110696D01*
X0157109Y0112376D01*
X0157109Y0120130D01*
X0157805Y0121809D01*
X0159090Y0123094D01*
X0160769Y0123790D01*
X0162587Y0123790D01*
X0164266Y0123094D01*
X0165551Y0121809D01*
X0166246Y0120130D01*
X0166246Y0112376D01*
X0165551Y0110696D01*
X0164266Y0109411D01*
X0162587Y0108716D01*
X0160769Y0108716D01*
X0159090Y0109411D01*
X0159085Y0109417D02*
X0157656Y0109417D01*
X0157673Y0111015D02*
X0156058Y0111015D01*
X0157109Y0112614D02*
X0154459Y0112614D01*
X0153806Y0114212D02*
X0157109Y0114212D01*
X0157109Y0115811D02*
X0153806Y0115811D01*
X0153806Y0117409D02*
X0157109Y0117409D01*
X0157109Y0119008D02*
X0153806Y0119008D01*
X0153806Y0120606D02*
X0157307Y0120606D01*
X0158201Y0122205D02*
X0152742Y0122205D01*
X0151144Y0123803D02*
X0166009Y0123803D01*
X0165155Y0122205D02*
X0167607Y0122205D01*
X0166049Y0120606D02*
X0169206Y0120606D01*
X0170804Y0119008D02*
X0166246Y0119008D01*
X0166246Y0117409D02*
X0172403Y0117409D01*
X0174001Y0115811D02*
X0166246Y0115811D01*
X0166246Y0114212D02*
X0175600Y0114212D01*
X0177198Y0112614D02*
X0166246Y0112614D01*
X0165683Y0111015D02*
X0178797Y0111015D01*
X0180396Y0109417D02*
X0164271Y0109417D01*
X0151845Y0096629D02*
X0138669Y0096629D01*
X0137071Y0098227D02*
X0150247Y0098227D01*
X0148648Y0099826D02*
X0135472Y0099826D01*
X0133874Y0101424D02*
X0147049Y0101424D01*
X0145451Y0103023D02*
X0132275Y0103023D01*
X0130677Y0104621D02*
X0143852Y0104621D01*
X0142254Y0106220D02*
X0129078Y0106220D01*
X0140268Y0095030D02*
X0153444Y0095030D01*
X0155042Y0093432D02*
X0141866Y0093432D01*
X0143465Y0091833D02*
X0156641Y0091833D01*
X0158239Y0090235D02*
X0145063Y0090235D01*
X0146662Y0088636D02*
X0159838Y0088636D01*
X0161436Y0087038D02*
X0148261Y0087038D01*
X0149859Y0085439D02*
X0162786Y0085439D01*
X0162786Y0083840D02*
X0151458Y0083840D01*
X0153056Y0082242D02*
X0162786Y0082242D01*
X0162786Y0080643D02*
X0157766Y0080643D01*
X0159364Y0079045D02*
X0161644Y0079045D01*
X0168566Y0080643D02*
X0174142Y0080643D01*
X0172544Y0079045D02*
X0170164Y0079045D01*
X0170504Y0077446D02*
X0172204Y0077446D01*
X0172204Y0075848D02*
X0170504Y0075848D01*
X0169859Y0074249D02*
X0172849Y0074249D01*
X0175255Y0069454D02*
X0178352Y0069454D01*
X0177604Y0067855D02*
X0176004Y0067855D01*
X0176004Y0066257D02*
X0177604Y0066257D01*
X0177840Y0064658D02*
X0175768Y0064658D01*
X0174169Y0063060D02*
X0179439Y0063060D01*
X0168639Y0063060D02*
X0163269Y0063060D01*
X0164868Y0064658D02*
X0167040Y0064658D01*
X0166804Y0066257D02*
X0165104Y0066257D01*
X0165104Y0067855D02*
X0166804Y0067855D01*
X0167552Y0069454D02*
X0164355Y0069454D01*
X0156652Y0069454D02*
X0153455Y0069454D01*
X0154204Y0067855D02*
X0155904Y0067855D01*
X0155904Y0066257D02*
X0154204Y0066257D01*
X0153968Y0064658D02*
X0156140Y0064658D01*
X0157739Y0063060D02*
X0152369Y0063060D01*
X0140249Y0074249D02*
X0137259Y0074249D01*
X0137904Y0075848D02*
X0139604Y0075848D01*
X0139604Y0077446D02*
X0137904Y0077446D01*
X0137564Y0079045D02*
X0139944Y0079045D01*
X0141542Y0080643D02*
X0135966Y0080643D01*
X0130642Y0080643D02*
X0125166Y0080643D01*
X0126764Y0079045D02*
X0129044Y0079045D01*
X0124052Y0069454D02*
X0106684Y0069454D01*
X0106256Y0067855D02*
X0123304Y0067855D01*
X0123304Y0066257D02*
X0105498Y0066257D01*
X0104567Y0064658D02*
X0123540Y0064658D01*
X0125139Y0063060D02*
X0102969Y0063060D01*
X0100597Y0061461D02*
X0340011Y0061461D01*
X0350597Y0061461D02*
X0431239Y0061461D01*
X0431239Y0063060D02*
X0352969Y0063060D01*
X0354567Y0064658D02*
X0431239Y0064658D01*
X0431239Y0066257D02*
X0355498Y0066257D01*
X0356256Y0067855D02*
X0431239Y0067855D01*
X0431239Y0069454D02*
X0356684Y0069454D01*
X0356904Y0071052D02*
X0431239Y0071052D01*
X0431239Y0072651D02*
X0356904Y0072651D01*
X0356657Y0074249D02*
X0431239Y0074249D01*
X0431239Y0075848D02*
X0356228Y0075848D01*
X0355438Y0077446D02*
X0431239Y0077446D01*
X0431239Y0079045D02*
X0354464Y0079045D01*
X0352865Y0080643D02*
X0431239Y0080643D01*
X0431239Y0082242D02*
X0350418Y0082242D01*
X0340190Y0082242D02*
X0321620Y0082242D01*
X0320766Y0080643D02*
X0337743Y0080643D01*
X0336144Y0079045D02*
X0322364Y0079045D01*
X0322704Y0077446D02*
X0335169Y0077446D01*
X0334379Y0075848D02*
X0322704Y0075848D01*
X0322059Y0074249D02*
X0333951Y0074249D01*
X0333704Y0072651D02*
X0320460Y0072651D01*
X0323219Y0083840D02*
X0431239Y0083840D01*
X0431239Y0085439D02*
X0324817Y0085439D01*
X0359880Y0087038D02*
X0431239Y0087038D01*
X0431239Y0088636D02*
X0361479Y0088636D01*
X0363077Y0090235D02*
X0431239Y0090235D01*
X0431239Y0091833D02*
X0364676Y0091833D01*
X0366274Y0093432D02*
X0431239Y0093432D01*
X0431239Y0095030D02*
X0367873Y0095030D01*
X0369472Y0096629D02*
X0431239Y0096629D01*
X0431239Y0098227D02*
X0371070Y0098227D01*
X0372669Y0099826D02*
X0431239Y0099826D01*
X0431239Y0101424D02*
X0374267Y0101424D01*
X0375866Y0103023D02*
X0431239Y0103023D01*
X0431239Y0104621D02*
X0377464Y0104621D01*
X0379063Y0106220D02*
X0431239Y0106220D01*
X0431239Y0107818D02*
X0380661Y0107818D01*
X0381983Y0109417D02*
X0394636Y0109417D01*
X0394988Y0109065D02*
X0396667Y0108369D01*
X0398484Y0108369D01*
X0400163Y0109065D01*
X0401449Y0110350D01*
X0402144Y0112029D01*
X0402144Y0119784D01*
X0401449Y0121463D01*
X0400163Y0122748D01*
X0398484Y0123443D01*
X0396667Y0123443D01*
X0394988Y0122748D01*
X0393703Y0121463D01*
X0393007Y0119784D01*
X0393007Y0112029D01*
X0393703Y0110350D01*
X0394988Y0109065D01*
X0393427Y0111015D02*
X0382153Y0111015D01*
X0382153Y0112614D02*
X0393007Y0112614D01*
X0393007Y0114212D02*
X0382153Y0114212D01*
X0382153Y0115811D02*
X0393007Y0115811D01*
X0393007Y0117409D02*
X0382153Y0117409D01*
X0382153Y0119008D02*
X0393007Y0119008D01*
X0393348Y0120606D02*
X0382153Y0120606D01*
X0382153Y0122205D02*
X0394445Y0122205D01*
X0400706Y0122205D02*
X0431239Y0122205D01*
X0431239Y0123803D02*
X0382153Y0123803D01*
X0382153Y0125402D02*
X0431239Y0125402D01*
X0431239Y0127000D02*
X0382153Y0127000D01*
X0382153Y0128599D02*
X0431239Y0128599D01*
X0431239Y0130197D02*
X0382153Y0130197D01*
X0382153Y0131796D02*
X0431239Y0131796D01*
X0431239Y0133394D02*
X0382153Y0133394D01*
X0382639Y0134993D02*
X0431239Y0134993D01*
X0431239Y0136591D02*
X0384237Y0136591D01*
X0385836Y0138190D02*
X0431239Y0138190D01*
X0431239Y0139788D02*
X0387434Y0139788D01*
X0389033Y0141387D02*
X0431239Y0141387D01*
X0431239Y0142985D02*
X0390631Y0142985D01*
X0392230Y0144584D02*
X0431239Y0144584D01*
X0431239Y0146182D02*
X0393829Y0146182D01*
X0395427Y0147781D02*
X0431239Y0147781D01*
X0431239Y0149379D02*
X0397026Y0149379D01*
X0398624Y0150978D02*
X0431239Y0150978D01*
X0431239Y0152576D02*
X0400032Y0152576D01*
X0400263Y0154175D02*
X0431239Y0154175D01*
X0431239Y0155773D02*
X0400263Y0155773D01*
X0400263Y0157372D02*
X0431239Y0157372D01*
X0431239Y0158971D02*
X0400263Y0158971D01*
X0400263Y0160569D02*
X0431239Y0160569D01*
X0431239Y0162168D02*
X0400263Y0162168D01*
X0400263Y0163766D02*
X0431239Y0163766D01*
X0431239Y0165365D02*
X0400263Y0165365D01*
X0400263Y0166963D02*
X0431239Y0166963D01*
X0431239Y0168562D02*
X0400263Y0168562D01*
X0400263Y0170160D02*
X0431239Y0170160D01*
X0431239Y0171759D02*
X0400263Y0171759D01*
X0400263Y0173357D02*
X0431239Y0173357D01*
X0431239Y0174956D02*
X0400263Y0174956D01*
X0400263Y0176554D02*
X0431239Y0176554D01*
X0431239Y0178153D02*
X0400263Y0178153D01*
X0400263Y0179751D02*
X0431239Y0179751D01*
X0431239Y0181350D02*
X0400263Y0181350D01*
X0400263Y0182948D02*
X0431239Y0182948D01*
X0431239Y0184547D02*
X0400263Y0184547D01*
X0400263Y0186145D02*
X0431239Y0186145D01*
X0431239Y0187744D02*
X0400480Y0187744D01*
X0401878Y0189342D02*
X0431239Y0189342D01*
X0431239Y0190941D02*
X0402431Y0190941D01*
X0402431Y0192539D02*
X0431239Y0192539D01*
X0431239Y0194138D02*
X0402431Y0194138D01*
X0402431Y0195736D02*
X0431239Y0195736D01*
X0431239Y0197335D02*
X0402431Y0197335D01*
X0402224Y0198933D02*
X0431239Y0198933D01*
X0431239Y0200532D02*
X0401316Y0200532D01*
X0400657Y0202130D02*
X0431239Y0202130D01*
X0431239Y0203729D02*
X0400657Y0203729D01*
X0400657Y0205327D02*
X0431239Y0205327D01*
X0431239Y0206926D02*
X0400657Y0206926D01*
X0400657Y0208524D02*
X0431239Y0208524D01*
X0431239Y0210123D02*
X0400657Y0210123D01*
X0399840Y0211721D02*
X0431239Y0211721D01*
X0431239Y0213320D02*
X0398241Y0213320D01*
X0396643Y0214918D02*
X0431239Y0214918D01*
X0431239Y0216517D02*
X0395044Y0216517D01*
X0393446Y0218115D02*
X0431239Y0218115D01*
X0431239Y0219714D02*
X0391847Y0219714D01*
X0390249Y0221312D02*
X0431239Y0221312D01*
X0431239Y0222911D02*
X0388175Y0222911D01*
X0431239Y0224509D02*
X0335870Y0224509D01*
X0334272Y0226108D02*
X0431239Y0226108D01*
X0431239Y0253283D02*
X0007400Y0253283D01*
X0007400Y0254881D02*
X0431239Y0254881D01*
X0431239Y0256480D02*
X0007400Y0256480D01*
X0007400Y0258078D02*
X0431239Y0258078D01*
X0431239Y0259677D02*
X0007400Y0259677D01*
X0007400Y0261275D02*
X0431239Y0261275D01*
X0431239Y0262874D02*
X0007400Y0262874D01*
X0007400Y0264472D02*
X0431239Y0264472D01*
X0431239Y0266071D02*
X0007400Y0266071D01*
X0007400Y0267669D02*
X0431239Y0267669D01*
X0431239Y0269268D02*
X0007400Y0269268D01*
X0007400Y0270866D02*
X0431239Y0270866D01*
X0431239Y0272465D02*
X0007400Y0272465D01*
X0007400Y0274063D02*
X0431239Y0274063D01*
X0431239Y0275662D02*
X0007400Y0275662D01*
X0007400Y0277260D02*
X0431239Y0277260D01*
X0310669Y0248487D02*
X0303996Y0248487D01*
X0305595Y0246889D02*
X0309071Y0246889D01*
X0308183Y0245290D02*
X0306483Y0245290D01*
X0306483Y0243692D02*
X0308183Y0243692D01*
X0308279Y0242093D02*
X0306386Y0242093D01*
X0285583Y0234095D02*
X0285583Y0230065D01*
X0299044Y0218572D01*
X0295785Y0224509D02*
X0302674Y0224509D01*
X0301076Y0226108D02*
X0293913Y0226108D01*
X0292041Y0227707D02*
X0299477Y0227707D01*
X0277278Y0240495D02*
X0272187Y0240495D01*
X0273786Y0242093D02*
X0275679Y0242093D01*
X0275583Y0243692D02*
X0273883Y0243692D01*
X0273883Y0245290D02*
X0275583Y0245290D01*
X0276471Y0246889D02*
X0272995Y0246889D01*
X0271396Y0248487D02*
X0278069Y0248487D01*
X0267169Y0248487D02*
X0260496Y0248487D01*
X0262095Y0246889D02*
X0265571Y0246889D01*
X0264683Y0245290D02*
X0262983Y0245290D01*
X0262983Y0243692D02*
X0264683Y0243692D01*
X0264779Y0242093D02*
X0262886Y0242093D01*
X0274783Y0234095D02*
X0274783Y0229054D01*
X0295107Y0208729D01*
X0217983Y0202130D02*
X0202807Y0202130D01*
X0204891Y0200532D02*
X0217983Y0200532D01*
X0217983Y0198933D02*
X0205571Y0198933D01*
X0205617Y0197335D02*
X0217983Y0197335D01*
X0217983Y0195736D02*
X0205617Y0195736D01*
X0205617Y0194138D02*
X0217983Y0194138D01*
X0217983Y0192539D02*
X0205617Y0192539D01*
X0205564Y0190941D02*
X0217983Y0190941D01*
X0217983Y0189342D02*
X0204874Y0189342D01*
X0202766Y0187744D02*
X0217983Y0187744D01*
X0191485Y0206926D02*
X0186462Y0206926D01*
X0188060Y0208524D02*
X0193083Y0208524D01*
X0194682Y0210123D02*
X0189659Y0210123D01*
X0191257Y0211721D02*
X0196280Y0211721D01*
X0194454Y0214918D02*
X0209320Y0214918D01*
X0207721Y0213320D02*
X0192856Y0213320D01*
X0196053Y0216517D02*
X0210918Y0216517D01*
X0212517Y0218115D02*
X0197651Y0218115D01*
X0199250Y0219714D02*
X0212583Y0219714D01*
X0212583Y0221312D02*
X0200848Y0221312D01*
X0202447Y0222911D02*
X0212583Y0222911D01*
X0212583Y0224509D02*
X0204045Y0224509D01*
X0205644Y0226108D02*
X0212583Y0226108D01*
X0212583Y0227707D02*
X0206483Y0227707D01*
X0206483Y0229305D02*
X0212583Y0229305D01*
X0199579Y0242093D02*
X0197686Y0242093D01*
X0197783Y0243692D02*
X0199483Y0243692D01*
X0199483Y0245290D02*
X0197783Y0245290D01*
X0196895Y0246889D02*
X0200371Y0246889D01*
X0201969Y0248487D02*
X0195296Y0248487D01*
X0169369Y0248487D02*
X0162696Y0248487D01*
X0164295Y0246889D02*
X0167771Y0246889D01*
X0166883Y0245290D02*
X0165183Y0245290D01*
X0165183Y0243692D02*
X0166883Y0243692D01*
X0166979Y0242093D02*
X0165086Y0242093D01*
X0155183Y0234095D02*
X0155183Y0232191D01*
X0145501Y0222509D01*
X0146703Y0152576D02*
X0147078Y0152576D01*
X0146405Y0150978D02*
X0148677Y0150978D01*
X0150275Y0149379D02*
X0145368Y0149379D01*
X0138953Y0142985D02*
X0131961Y0142985D01*
X0130363Y0144584D02*
X0137354Y0144584D01*
X0135756Y0146182D02*
X0128764Y0146182D01*
X0133560Y0141387D02*
X0140551Y0141387D01*
X0142150Y0139788D02*
X0135158Y0139788D01*
X0136757Y0138190D02*
X0143748Y0138190D01*
X0145347Y0136591D02*
X0138355Y0136591D01*
X0139954Y0134993D02*
X0154819Y0134993D01*
X0156418Y0133394D02*
X0141553Y0133394D01*
X0143151Y0131796D02*
X0158016Y0131796D01*
X0159615Y0130197D02*
X0144750Y0130197D01*
X0146348Y0128599D02*
X0161213Y0128599D01*
X0162812Y0127000D02*
X0147947Y0127000D01*
X0149545Y0125402D02*
X0164410Y0125402D01*
X0174647Y0131796D02*
X0211998Y0131796D01*
X0211998Y0133394D02*
X0173049Y0133394D01*
X0171450Y0134993D02*
X0211906Y0134993D01*
X0210307Y0136591D02*
X0169852Y0136591D01*
X0168253Y0138190D02*
X0208709Y0138190D01*
X0207110Y0139788D02*
X0166655Y0139788D01*
X0165056Y0141387D02*
X0205512Y0141387D01*
X0203913Y0142985D02*
X0163458Y0142985D01*
X0161859Y0144584D02*
X0202436Y0144584D01*
X0202156Y0146182D02*
X0160260Y0146182D01*
X0158662Y0147781D02*
X0202156Y0147781D01*
X0211998Y0130197D02*
X0176246Y0130197D01*
X0177844Y0128599D02*
X0211998Y0128599D01*
X0211998Y0127000D02*
X0179443Y0127000D01*
X0181041Y0125402D02*
X0211998Y0125402D01*
X0243466Y0122205D02*
X0249400Y0122205D01*
X0249400Y0120606D02*
X0244563Y0120606D01*
X0244904Y0119008D02*
X0249400Y0119008D01*
X0249400Y0117409D02*
X0244904Y0117409D01*
X0244904Y0115811D02*
X0249400Y0115811D01*
X0249400Y0114212D02*
X0244904Y0114212D01*
X0244904Y0112614D02*
X0249400Y0112614D01*
X0249400Y0111015D02*
X0244484Y0111015D01*
X0243275Y0109417D02*
X0249400Y0109417D01*
X0202156Y0096629D02*
X0199972Y0096629D01*
X0201050Y0095030D02*
X0202156Y0095030D01*
X0202156Y0093432D02*
X0201050Y0093432D01*
X0201050Y0091833D02*
X0202156Y0091833D01*
X0202156Y0090235D02*
X0201050Y0090235D01*
X0201050Y0088636D02*
X0202156Y0088636D01*
X0202156Y0087038D02*
X0201050Y0087038D01*
X0201050Y0085439D02*
X0202156Y0085439D01*
X0202156Y0083840D02*
X0201050Y0083840D01*
X0201050Y0082242D02*
X0202156Y0082242D01*
X0202156Y0080643D02*
X0201266Y0080643D01*
X0201428Y0098227D02*
X0198373Y0098227D01*
X0199829Y0099826D02*
X0196775Y0099826D01*
X0198231Y0101424D02*
X0195176Y0101424D01*
X0322136Y0122205D02*
X0333535Y0122205D01*
X0331937Y0120606D02*
X0323302Y0120606D01*
X0323691Y0119008D02*
X0330338Y0119008D01*
X0328740Y0117409D02*
X0323691Y0117409D01*
X0323691Y0115811D02*
X0327141Y0115811D01*
X0325543Y0114212D02*
X0323691Y0114212D01*
X0323691Y0112614D02*
X0323944Y0112614D01*
X0320632Y0135285D02*
X0320632Y0135285D01*
X0361553Y0122205D02*
X0377353Y0122205D01*
X0377353Y0120606D02*
X0362779Y0120606D01*
X0363211Y0119008D02*
X0377353Y0119008D01*
X0377353Y0117409D02*
X0363211Y0117409D01*
X0363211Y0115811D02*
X0377353Y0115811D01*
X0377353Y0114212D02*
X0363211Y0114212D01*
X0363211Y0112614D02*
X0377353Y0112614D01*
X0377070Y0111015D02*
X0362882Y0111015D01*
X0400515Y0109417D02*
X0431239Y0109417D01*
X0431239Y0111015D02*
X0401724Y0111015D01*
X0402144Y0112614D02*
X0431239Y0112614D01*
X0431239Y0114212D02*
X0402144Y0114212D01*
X0402144Y0115811D02*
X0431239Y0115811D01*
X0431239Y0117409D02*
X0402144Y0117409D01*
X0402144Y0119008D02*
X0431239Y0119008D01*
X0431239Y0120606D02*
X0401803Y0120606D01*
X0377784Y0155131D02*
X0377875Y0155221D01*
X0043485Y0192981D02*
X0043485Y0195091D01*
M02*
