G75*
%MOIN*%
%OFA0B0*%
%FSLAX25Y25*%
%IPPOS*%
%LPD*%
%AMOC8*
5,1,8,0,0,1.08239X$1,22.5*
%
%ADD10C,0.06337*%
%ADD11OC8,0.06400*%
%ADD12C,0.20000*%
%ADD13C,0.01600*%
D10*
X0499721Y0109309D02*
X0499721Y0115646D01*
X0539091Y0115646D02*
X0539091Y0109309D01*
X0578461Y0109309D02*
X0578461Y0115646D01*
X0617831Y0115646D02*
X0617831Y0109309D01*
X0657201Y0109309D02*
X0657201Y0115646D01*
X0696572Y0115646D02*
X0696572Y0109309D01*
X0745942Y0109309D02*
X0745942Y0115646D01*
X0794997Y0115646D02*
X0794997Y0109309D01*
X0834367Y0109309D02*
X0834367Y0115646D01*
X0854052Y0148679D02*
X0854052Y0155016D01*
X0814682Y0155016D02*
X0814682Y0148679D01*
X0775312Y0148679D02*
X0775312Y0155016D01*
X0726257Y0155016D02*
X0726257Y0148679D01*
X0676886Y0148679D02*
X0676886Y0155016D01*
X0637516Y0155016D02*
X0637516Y0148679D01*
X0598146Y0148679D02*
X0598146Y0155016D01*
X0558776Y0155016D02*
X0558776Y0148679D01*
X0519406Y0148679D02*
X0519406Y0155016D01*
X0499721Y0188049D02*
X0499721Y0194386D01*
X0539091Y0194386D02*
X0539091Y0188049D01*
X0578461Y0188049D02*
X0578461Y0194386D01*
X0617831Y0194386D02*
X0617831Y0188049D01*
X0657201Y0188049D02*
X0657201Y0194386D01*
X0696572Y0194386D02*
X0696572Y0188049D01*
X0735942Y0188049D02*
X0735942Y0194386D01*
X0775312Y0194386D02*
X0775312Y0188049D01*
X0814682Y0188049D02*
X0814682Y0194386D01*
X0854052Y0194386D02*
X0854052Y0188049D01*
X0854052Y0227419D02*
X0854052Y0233756D01*
X0814682Y0233756D02*
X0814682Y0227419D01*
X0775312Y0227419D02*
X0775312Y0233756D01*
X0735942Y0233756D02*
X0735942Y0227419D01*
X0696572Y0227419D02*
X0696572Y0233756D01*
X0657201Y0233756D02*
X0657201Y0227419D01*
X0617831Y0227419D02*
X0617831Y0233756D01*
X0578461Y0233756D02*
X0578461Y0227419D01*
X0539091Y0227419D02*
X0539091Y0233756D01*
D11*
X0578181Y0271965D03*
X0589081Y0271965D03*
X0599881Y0271965D03*
X0610781Y0271965D03*
X0621681Y0271965D03*
X0632481Y0271965D03*
X0643381Y0271965D03*
X0654281Y0271965D03*
X0665081Y0271965D03*
X0675981Y0271965D03*
X0686881Y0271965D03*
X0697681Y0271965D03*
X0708581Y0271965D03*
X0719481Y0271965D03*
X0730381Y0271965D03*
X0741181Y0271965D03*
X0752081Y0271965D03*
X0762981Y0271965D03*
X0773781Y0271965D03*
X0768381Y0281965D03*
X0757481Y0281965D03*
X0746681Y0281965D03*
X0735781Y0281965D03*
X0724881Y0281965D03*
X0714081Y0281965D03*
X0703181Y0281965D03*
X0692281Y0281965D03*
X0681381Y0281965D03*
X0670581Y0281965D03*
X0659681Y0281965D03*
X0648781Y0281965D03*
X0637981Y0281965D03*
X0627081Y0281965D03*
X0616181Y0281965D03*
X0605381Y0281965D03*
X0594481Y0281965D03*
X0583581Y0281965D03*
X0588902Y0075300D03*
X0599802Y0075300D03*
X0610702Y0075300D03*
X0621502Y0075300D03*
X0632402Y0075300D03*
X0643302Y0075300D03*
X0654202Y0075300D03*
X0665002Y0075300D03*
X0675902Y0075300D03*
X0686802Y0075300D03*
X0697602Y0075300D03*
X0708502Y0075300D03*
X0719402Y0075300D03*
X0730202Y0075300D03*
X0741102Y0075300D03*
X0752002Y0075300D03*
X0762802Y0075300D03*
X0773702Y0075300D03*
X0768302Y0065300D03*
X0757402Y0065300D03*
X0746502Y0065300D03*
X0735702Y0065300D03*
X0724802Y0065300D03*
X0713902Y0065300D03*
X0703102Y0065300D03*
X0692202Y0065300D03*
X0681302Y0065300D03*
X0670502Y0065300D03*
X0659602Y0065300D03*
X0648702Y0065300D03*
X0637902Y0065300D03*
X0627002Y0065300D03*
X0616102Y0065300D03*
X0605202Y0065300D03*
X0594402Y0065300D03*
X0583502Y0065300D03*
X0578102Y0075300D03*
D12*
X0550902Y0070300D03*
X0800902Y0070300D03*
X0800981Y0276965D03*
X0550981Y0276965D03*
D13*
X0481531Y0028263D02*
X0860543Y0028263D01*
X0872400Y0028263D01*
X0872400Y0320707D01*
X0481531Y0320707D01*
X0481531Y0028263D01*
X0481531Y0029502D02*
X0872400Y0029502D01*
X0872400Y0031100D02*
X0481531Y0031100D01*
X0481531Y0032699D02*
X0872400Y0032699D01*
X0872400Y0034297D02*
X0481531Y0034297D01*
X0481531Y0035896D02*
X0872400Y0035896D01*
X0872400Y0037494D02*
X0481531Y0037494D01*
X0481531Y0039093D02*
X0872400Y0039093D01*
X0872400Y0040691D02*
X0481531Y0040691D01*
X0481531Y0042290D02*
X0872400Y0042290D01*
X0872400Y0043888D02*
X0481531Y0043888D01*
X0481531Y0045487D02*
X0872400Y0045487D01*
X0872400Y0047085D02*
X0481531Y0047085D01*
X0481531Y0048684D02*
X0872400Y0048684D01*
X0872400Y0050283D02*
X0481531Y0050283D01*
X0481531Y0051881D02*
X0872400Y0051881D01*
X0872400Y0053480D02*
X0481531Y0053480D01*
X0481531Y0055078D02*
X0872400Y0055078D01*
X0872400Y0056677D02*
X0481531Y0056677D01*
X0481531Y0058275D02*
X0872400Y0058275D01*
X0872400Y0059874D02*
X0806043Y0059874D01*
X0805380Y0059491D02*
X0808025Y0061018D01*
X0810185Y0063177D01*
X0811712Y0065823D01*
X0812502Y0068773D01*
X0812502Y0071827D01*
X0811712Y0074777D01*
X0810185Y0077423D01*
X0808025Y0079582D01*
X0805380Y0081109D01*
X0802429Y0081900D01*
X0799375Y0081900D01*
X0796425Y0081109D01*
X0793780Y0079582D01*
X0791620Y0077423D01*
X0790093Y0074777D01*
X0789302Y0071827D01*
X0789302Y0068773D01*
X0790093Y0065823D01*
X0791620Y0063177D01*
X0793780Y0061018D01*
X0796425Y0059491D01*
X0799375Y0058700D01*
X0802429Y0058700D01*
X0805380Y0059491D01*
X0808479Y0061472D02*
X0872400Y0061472D01*
X0872400Y0063071D02*
X0810078Y0063071D01*
X0811046Y0064669D02*
X0872400Y0064669D01*
X0872400Y0066268D02*
X0811831Y0066268D01*
X0812259Y0067866D02*
X0872400Y0067866D01*
X0872400Y0069465D02*
X0812502Y0069465D01*
X0812502Y0071063D02*
X0872400Y0071063D01*
X0872400Y0072662D02*
X0812279Y0072662D01*
X0811850Y0074260D02*
X0872400Y0074260D01*
X0872400Y0075859D02*
X0811087Y0075859D01*
X0810150Y0077457D02*
X0872400Y0077457D01*
X0872400Y0079056D02*
X0808551Y0079056D01*
X0806168Y0080654D02*
X0872400Y0080654D01*
X0872400Y0082253D02*
X0773166Y0082253D01*
X0773432Y0082518D02*
X0831970Y0082518D01*
X0832852Y0082883D01*
X0845338Y0095370D01*
X0856086Y0106118D01*
X0856452Y0107000D01*
X0856452Y0144511D01*
X0856753Y0144636D01*
X0858094Y0145978D01*
X0858820Y0147730D01*
X0858820Y0155964D01*
X0858094Y0157717D01*
X0856753Y0159058D01*
X0856452Y0159183D01*
X0856452Y0173073D01*
X0856086Y0173955D01*
X0849275Y0180766D01*
X0845704Y0184337D01*
X0845704Y0219254D01*
X0845338Y0220136D01*
X0813842Y0251632D01*
X0813167Y0252307D01*
X0812285Y0252672D01*
X0789180Y0252672D01*
X0777734Y0264118D01*
X0774687Y0267165D01*
X0775769Y0267165D01*
X0778581Y0269977D01*
X0778581Y0273954D01*
X0775769Y0276765D01*
X0771793Y0276765D01*
X0770781Y0275754D01*
X0770781Y0277577D01*
X0773181Y0279977D01*
X0773181Y0283954D01*
X0770369Y0286765D01*
X0766393Y0286765D01*
X0763581Y0283954D01*
X0763581Y0279977D01*
X0765981Y0277577D01*
X0765981Y0275754D01*
X0764969Y0276765D01*
X0760993Y0276765D01*
X0759881Y0275654D01*
X0759881Y0277577D01*
X0762281Y0279977D01*
X0762281Y0283954D01*
X0759469Y0286765D01*
X0755493Y0286765D01*
X0752681Y0283954D01*
X0752681Y0279977D01*
X0755081Y0277577D01*
X0755081Y0275754D01*
X0754069Y0276765D01*
X0750093Y0276765D01*
X0749081Y0275754D01*
X0749081Y0277577D01*
X0751481Y0279977D01*
X0751481Y0283954D01*
X0748669Y0286765D01*
X0744693Y0286765D01*
X0741881Y0283954D01*
X0741881Y0279977D01*
X0744281Y0277577D01*
X0744281Y0275654D01*
X0743169Y0276765D01*
X0739193Y0276765D01*
X0738181Y0275754D01*
X0738181Y0277577D01*
X0740581Y0279977D01*
X0740581Y0283954D01*
X0737769Y0286765D01*
X0733793Y0286765D01*
X0730981Y0283954D01*
X0730981Y0279977D01*
X0733381Y0277577D01*
X0733381Y0275754D01*
X0732369Y0276765D01*
X0728393Y0276765D01*
X0727281Y0275654D01*
X0727281Y0277577D01*
X0729681Y0279977D01*
X0729681Y0283954D01*
X0726869Y0286765D01*
X0722893Y0286765D01*
X0720081Y0283954D01*
X0720081Y0279977D01*
X0722481Y0277577D01*
X0722481Y0275754D01*
X0721469Y0276765D01*
X0717493Y0276765D01*
X0716481Y0275754D01*
X0716481Y0277577D01*
X0718881Y0279977D01*
X0718881Y0283954D01*
X0716069Y0286765D01*
X0712093Y0286765D01*
X0709281Y0283954D01*
X0709281Y0279977D01*
X0711681Y0277577D01*
X0711681Y0275654D01*
X0710569Y0276765D01*
X0706593Y0276765D01*
X0705581Y0275754D01*
X0705581Y0277577D01*
X0707981Y0279977D01*
X0707981Y0283954D01*
X0705169Y0286765D01*
X0701193Y0286765D01*
X0698381Y0283954D01*
X0698381Y0279977D01*
X0700781Y0277577D01*
X0700781Y0275654D01*
X0699669Y0276765D01*
X0695693Y0276765D01*
X0694681Y0275754D01*
X0694681Y0277577D01*
X0697081Y0279977D01*
X0697081Y0283954D01*
X0694269Y0286765D01*
X0690293Y0286765D01*
X0687481Y0283954D01*
X0687481Y0279977D01*
X0689881Y0277577D01*
X0689881Y0275754D01*
X0688869Y0276765D01*
X0684893Y0276765D01*
X0683781Y0275654D01*
X0683781Y0277577D01*
X0686181Y0279977D01*
X0686181Y0283954D01*
X0683369Y0286765D01*
X0679393Y0286765D01*
X0676581Y0283954D01*
X0676581Y0279977D01*
X0678981Y0277577D01*
X0678981Y0275754D01*
X0677969Y0276765D01*
X0673993Y0276765D01*
X0672981Y0275754D01*
X0672981Y0277577D01*
X0675381Y0279977D01*
X0675381Y0283954D01*
X0672569Y0286765D01*
X0668593Y0286765D01*
X0665781Y0283954D01*
X0665781Y0279977D01*
X0668181Y0277577D01*
X0668181Y0275654D01*
X0667069Y0276765D01*
X0663093Y0276765D01*
X0662081Y0275754D01*
X0662081Y0277577D01*
X0664481Y0279977D01*
X0664481Y0283954D01*
X0661669Y0286765D01*
X0657693Y0286765D01*
X0654881Y0283954D01*
X0654881Y0279977D01*
X0657281Y0277577D01*
X0657281Y0275754D01*
X0656269Y0276765D01*
X0652293Y0276765D01*
X0651181Y0275654D01*
X0651181Y0277577D01*
X0653581Y0279977D01*
X0653581Y0283954D01*
X0650769Y0286765D01*
X0646793Y0286765D01*
X0643981Y0283954D01*
X0643981Y0279977D01*
X0646381Y0277577D01*
X0646381Y0275754D01*
X0645369Y0276765D01*
X0641393Y0276765D01*
X0640381Y0275754D01*
X0640381Y0277577D01*
X0642781Y0279977D01*
X0642781Y0283954D01*
X0639969Y0286765D01*
X0635993Y0286765D01*
X0633181Y0283954D01*
X0633181Y0279977D01*
X0635581Y0277577D01*
X0635581Y0275654D01*
X0634469Y0276765D01*
X0630493Y0276765D01*
X0629481Y0275754D01*
X0629481Y0277577D01*
X0631881Y0279977D01*
X0631881Y0283954D01*
X0629069Y0286765D01*
X0625093Y0286765D01*
X0622281Y0283954D01*
X0622281Y0279977D01*
X0624681Y0277577D01*
X0624681Y0275754D01*
X0623669Y0276765D01*
X0619693Y0276765D01*
X0618581Y0275654D01*
X0618581Y0277577D01*
X0620981Y0279977D01*
X0620981Y0283954D01*
X0618169Y0286765D01*
X0614193Y0286765D01*
X0611381Y0283954D01*
X0611381Y0279977D01*
X0613781Y0277577D01*
X0613781Y0275754D01*
X0612769Y0276765D01*
X0608793Y0276765D01*
X0607781Y0275754D01*
X0607781Y0277577D01*
X0610181Y0279977D01*
X0610181Y0283954D01*
X0607369Y0286765D01*
X0603393Y0286765D01*
X0600581Y0283954D01*
X0600581Y0279977D01*
X0602981Y0277577D01*
X0602981Y0275654D01*
X0601869Y0276765D01*
X0597893Y0276765D01*
X0596881Y0275754D01*
X0596881Y0277577D01*
X0599281Y0279977D01*
X0599281Y0283954D01*
X0596469Y0286765D01*
X0592493Y0286765D01*
X0589681Y0283954D01*
X0589681Y0279977D01*
X0592081Y0277577D01*
X0592081Y0275754D01*
X0591069Y0276765D01*
X0587093Y0276765D01*
X0585981Y0275654D01*
X0585981Y0277577D01*
X0588381Y0279977D01*
X0588381Y0283954D01*
X0585569Y0286765D01*
X0581593Y0286765D01*
X0578781Y0283954D01*
X0578781Y0279977D01*
X0581181Y0277577D01*
X0581181Y0275754D01*
X0580169Y0276765D01*
X0576193Y0276765D01*
X0573381Y0273954D01*
X0573381Y0269977D01*
X0576193Y0267165D01*
X0580169Y0267165D01*
X0581181Y0268177D01*
X0581181Y0267134D01*
X0577490Y0263443D01*
X0570656Y0256609D01*
X0543614Y0256609D01*
X0542732Y0256244D01*
X0542057Y0255569D01*
X0514498Y0228010D01*
X0514132Y0227128D01*
X0514132Y0180400D01*
X0497687Y0163955D01*
X0497321Y0163073D01*
X0497321Y0119813D01*
X0497020Y0119688D01*
X0495679Y0118347D01*
X0494953Y0116594D01*
X0494953Y0108360D01*
X0495679Y0106608D01*
X0497020Y0105266D01*
X0498773Y0104540D01*
X0500670Y0104540D01*
X0502422Y0105266D01*
X0502980Y0105824D01*
X0525921Y0082883D01*
X0526803Y0082518D01*
X0578530Y0082518D01*
X0581102Y0079946D01*
X0581102Y0079088D01*
X0580090Y0080100D01*
X0576114Y0080100D01*
X0573302Y0077288D01*
X0573302Y0073312D01*
X0576114Y0070500D01*
X0580090Y0070500D01*
X0581102Y0071512D01*
X0581102Y0069688D01*
X0578702Y0067288D01*
X0578702Y0063312D01*
X0581514Y0060500D01*
X0585490Y0060500D01*
X0588302Y0063312D01*
X0588302Y0067288D01*
X0585902Y0069688D01*
X0585902Y0071512D01*
X0586914Y0070500D01*
X0590890Y0070500D01*
X0592002Y0071612D01*
X0592002Y0069688D01*
X0589602Y0067288D01*
X0589602Y0063312D01*
X0592414Y0060500D01*
X0596390Y0060500D01*
X0599202Y0063312D01*
X0599202Y0067288D01*
X0596802Y0069688D01*
X0596802Y0071512D01*
X0597814Y0070500D01*
X0601790Y0070500D01*
X0602802Y0071512D01*
X0602802Y0069688D01*
X0600402Y0067288D01*
X0600402Y0063312D01*
X0603214Y0060500D01*
X0607190Y0060500D01*
X0610002Y0063312D01*
X0610002Y0067288D01*
X0607602Y0069688D01*
X0607602Y0071612D01*
X0608714Y0070500D01*
X0612690Y0070500D01*
X0613702Y0071512D01*
X0613702Y0069688D01*
X0611302Y0067288D01*
X0611302Y0063312D01*
X0614114Y0060500D01*
X0618090Y0060500D01*
X0620902Y0063312D01*
X0620902Y0067288D01*
X0618502Y0069688D01*
X0618502Y0071512D01*
X0619514Y0070500D01*
X0623490Y0070500D01*
X0624602Y0071612D01*
X0624602Y0069688D01*
X0622202Y0067288D01*
X0622202Y0063312D01*
X0625014Y0060500D01*
X0628990Y0060500D01*
X0631802Y0063312D01*
X0631802Y0067288D01*
X0629402Y0069688D01*
X0629402Y0071512D01*
X0630414Y0070500D01*
X0634390Y0070500D01*
X0635502Y0071612D01*
X0635502Y0069688D01*
X0633102Y0067288D01*
X0633102Y0063312D01*
X0635914Y0060500D01*
X0639890Y0060500D01*
X0642702Y0063312D01*
X0642702Y0067288D01*
X0640302Y0069688D01*
X0640302Y0071512D01*
X0641314Y0070500D01*
X0645290Y0070500D01*
X0646302Y0071512D01*
X0646302Y0069688D01*
X0643902Y0067288D01*
X0643902Y0063312D01*
X0646714Y0060500D01*
X0650690Y0060500D01*
X0653502Y0063312D01*
X0653502Y0067288D01*
X0651102Y0069688D01*
X0651102Y0071612D01*
X0652214Y0070500D01*
X0656190Y0070500D01*
X0657202Y0071512D01*
X0657202Y0069688D01*
X0654802Y0067288D01*
X0654802Y0063312D01*
X0657614Y0060500D01*
X0661590Y0060500D01*
X0664402Y0063312D01*
X0664402Y0067288D01*
X0662002Y0069688D01*
X0662002Y0071512D01*
X0663014Y0070500D01*
X0666990Y0070500D01*
X0668102Y0071612D01*
X0668102Y0069688D01*
X0665702Y0067288D01*
X0665702Y0063312D01*
X0668514Y0060500D01*
X0672490Y0060500D01*
X0675302Y0063312D01*
X0675302Y0067288D01*
X0672902Y0069688D01*
X0672902Y0071512D01*
X0673914Y0070500D01*
X0677890Y0070500D01*
X0678902Y0071512D01*
X0678902Y0069688D01*
X0676502Y0067288D01*
X0676502Y0063312D01*
X0679314Y0060500D01*
X0683290Y0060500D01*
X0686102Y0063312D01*
X0686102Y0067288D01*
X0683702Y0069688D01*
X0683702Y0071612D01*
X0684814Y0070500D01*
X0688790Y0070500D01*
X0689802Y0071512D01*
X0689802Y0069688D01*
X0687402Y0067288D01*
X0687402Y0063312D01*
X0690214Y0060500D01*
X0694190Y0060500D01*
X0697002Y0063312D01*
X0697002Y0067288D01*
X0694602Y0069688D01*
X0694602Y0071512D01*
X0695614Y0070500D01*
X0699590Y0070500D01*
X0700702Y0071612D01*
X0700702Y0069688D01*
X0698302Y0067288D01*
X0698302Y0063312D01*
X0701114Y0060500D01*
X0705090Y0060500D01*
X0707902Y0063312D01*
X0707902Y0067288D01*
X0705502Y0069688D01*
X0705502Y0071512D01*
X0706514Y0070500D01*
X0710490Y0070500D01*
X0711502Y0071512D01*
X0711502Y0069688D01*
X0709102Y0067288D01*
X0709102Y0063312D01*
X0711914Y0060500D01*
X0715890Y0060500D01*
X0718702Y0063312D01*
X0718702Y0067288D01*
X0716302Y0069688D01*
X0716302Y0071612D01*
X0717414Y0070500D01*
X0721390Y0070500D01*
X0722402Y0071512D01*
X0722402Y0069688D01*
X0720002Y0067288D01*
X0720002Y0063312D01*
X0722814Y0060500D01*
X0726790Y0060500D01*
X0729602Y0063312D01*
X0729602Y0067288D01*
X0727202Y0069688D01*
X0727202Y0071512D01*
X0728214Y0070500D01*
X0732190Y0070500D01*
X0733302Y0071612D01*
X0733302Y0069688D01*
X0730902Y0067288D01*
X0730902Y0063312D01*
X0733714Y0060500D01*
X0737690Y0060500D01*
X0740502Y0063312D01*
X0740502Y0067288D01*
X0738102Y0069688D01*
X0738102Y0071512D01*
X0739114Y0070500D01*
X0743090Y0070500D01*
X0744102Y0071512D01*
X0744102Y0069688D01*
X0741702Y0067288D01*
X0741702Y0063312D01*
X0744514Y0060500D01*
X0748490Y0060500D01*
X0751302Y0063312D01*
X0751302Y0067288D01*
X0748902Y0069688D01*
X0748902Y0071612D01*
X0750014Y0070500D01*
X0753990Y0070500D01*
X0755002Y0071512D01*
X0755002Y0069688D01*
X0752602Y0067288D01*
X0752602Y0063312D01*
X0755414Y0060500D01*
X0759390Y0060500D01*
X0762202Y0063312D01*
X0762202Y0067288D01*
X0759802Y0069688D01*
X0759802Y0071512D01*
X0760814Y0070500D01*
X0764790Y0070500D01*
X0765902Y0071612D01*
X0765902Y0069688D01*
X0763502Y0067288D01*
X0763502Y0063312D01*
X0766314Y0060500D01*
X0770290Y0060500D01*
X0773102Y0063312D01*
X0773102Y0067288D01*
X0770702Y0069688D01*
X0770702Y0071512D01*
X0771714Y0070500D01*
X0775690Y0070500D01*
X0778502Y0073312D01*
X0778502Y0077288D01*
X0775690Y0080100D01*
X0771714Y0080100D01*
X0770702Y0079088D01*
X0770702Y0079789D01*
X0773432Y0082518D01*
X0772438Y0084918D02*
X0831493Y0084918D01*
X0843304Y0096729D01*
X0839367Y0092792D01*
X0838221Y0095041D02*
X0836705Y0095041D01*
X0836767Y0095189D02*
X0836767Y0105141D01*
X0837068Y0105266D01*
X0838409Y0106608D01*
X0839135Y0108360D01*
X0839135Y0116594D01*
X0838409Y0118347D01*
X0837068Y0119688D01*
X0836767Y0119813D01*
X0836767Y0192758D01*
X0836401Y0193640D01*
X0778409Y0251632D01*
X0762876Y0267165D01*
X0764969Y0267165D01*
X0766434Y0268630D01*
X0774340Y0260724D01*
X0774340Y0260724D01*
X0786826Y0248238D01*
X0787708Y0247872D01*
X0810814Y0247872D01*
X0840904Y0217782D01*
X0840904Y0182866D01*
X0841269Y0181984D01*
X0841944Y0181309D01*
X0845881Y0177372D01*
X0851652Y0171601D01*
X0851652Y0159183D01*
X0851351Y0159058D01*
X0850009Y0157717D01*
X0849283Y0155964D01*
X0849283Y0147730D01*
X0850009Y0145978D01*
X0851351Y0144636D01*
X0851652Y0144511D01*
X0851652Y0108471D01*
X0841944Y0098764D01*
X0830499Y0087318D01*
X0829413Y0087318D01*
X0829590Y0087496D01*
X0836401Y0094307D01*
X0836767Y0095189D01*
X0836767Y0096639D02*
X0839820Y0096639D01*
X0841418Y0098238D02*
X0836767Y0098238D01*
X0836767Y0099836D02*
X0843017Y0099836D01*
X0841944Y0098764D02*
X0841944Y0098764D01*
X0843304Y0096729D02*
X0854052Y0107477D01*
X0854052Y0151847D01*
X0854052Y0172595D01*
X0847241Y0179406D01*
X0843304Y0183343D01*
X0843304Y0218776D01*
X0811808Y0250272D01*
X0788186Y0250272D01*
X0776375Y0262083D01*
X0768381Y0270077D01*
X0768381Y0281965D01*
X0773181Y0282067D02*
X0790532Y0282067D01*
X0790171Y0281443D02*
X0789381Y0278493D01*
X0789381Y0275438D01*
X0790171Y0272488D01*
X0791699Y0269843D01*
X0793858Y0267683D01*
X0796504Y0266156D01*
X0799454Y0265365D01*
X0802508Y0265365D01*
X0805458Y0266156D01*
X0808104Y0267683D01*
X0810263Y0269843D01*
X0811790Y0272488D01*
X0812581Y0275438D01*
X0812581Y0278493D01*
X0811790Y0281443D01*
X0810263Y0284088D01*
X0808104Y0286248D01*
X0805458Y0287775D01*
X0802508Y0288565D01*
X0799454Y0288565D01*
X0796504Y0287775D01*
X0793858Y0286248D01*
X0791699Y0284088D01*
X0790171Y0281443D01*
X0789910Y0280468D02*
X0773181Y0280468D01*
X0772073Y0278870D02*
X0789482Y0278870D01*
X0789381Y0277271D02*
X0770781Y0277271D01*
X0765981Y0277271D02*
X0759881Y0277271D01*
X0759881Y0275673D02*
X0759900Y0275673D01*
X0761173Y0278870D02*
X0764688Y0278870D01*
X0763581Y0280468D02*
X0762281Y0280468D01*
X0762281Y0282067D02*
X0763581Y0282067D01*
X0763581Y0283665D02*
X0762281Y0283665D01*
X0760971Y0285264D02*
X0764891Y0285264D01*
X0771871Y0285264D02*
X0792874Y0285264D01*
X0791455Y0283665D02*
X0773181Y0283665D01*
X0776862Y0275673D02*
X0789381Y0275673D01*
X0789746Y0274074D02*
X0778460Y0274074D01*
X0778581Y0272476D02*
X0790179Y0272476D01*
X0791102Y0270877D02*
X0778581Y0270877D01*
X0777882Y0269279D02*
X0792263Y0269279D01*
X0793864Y0267680D02*
X0776284Y0267680D01*
X0775771Y0266082D02*
X0796781Y0266082D01*
X0805181Y0266082D02*
X0872400Y0266082D01*
X0872400Y0267680D02*
X0808098Y0267680D01*
X0809699Y0269279D02*
X0872400Y0269279D01*
X0872400Y0270877D02*
X0810860Y0270877D01*
X0811783Y0272476D02*
X0872400Y0272476D01*
X0872400Y0274074D02*
X0812215Y0274074D01*
X0812581Y0275673D02*
X0872400Y0275673D01*
X0872400Y0277271D02*
X0812581Y0277271D01*
X0812480Y0278870D02*
X0872400Y0278870D01*
X0872400Y0280468D02*
X0812052Y0280468D01*
X0811430Y0282067D02*
X0872400Y0282067D01*
X0872400Y0283665D02*
X0810507Y0283665D01*
X0809088Y0285264D02*
X0872400Y0285264D01*
X0872400Y0286862D02*
X0807039Y0286862D01*
X0802899Y0288461D02*
X0872400Y0288461D01*
X0872400Y0290059D02*
X0481531Y0290059D01*
X0481531Y0288461D02*
X0549063Y0288461D01*
X0549454Y0288565D02*
X0546504Y0287775D01*
X0543858Y0286248D01*
X0541699Y0284088D01*
X0540171Y0281443D01*
X0539381Y0278493D01*
X0539381Y0275438D01*
X0540171Y0272488D01*
X0541699Y0269843D01*
X0543858Y0267683D01*
X0546504Y0266156D01*
X0549454Y0265365D01*
X0552508Y0265365D01*
X0555458Y0266156D01*
X0558104Y0267683D01*
X0560263Y0269843D01*
X0561790Y0272488D01*
X0562581Y0275438D01*
X0562581Y0278493D01*
X0561790Y0281443D01*
X0560263Y0284088D01*
X0558104Y0286248D01*
X0555458Y0287775D01*
X0552508Y0288565D01*
X0549454Y0288565D01*
X0552899Y0288461D02*
X0799063Y0288461D01*
X0794923Y0286862D02*
X0557039Y0286862D01*
X0559088Y0285264D02*
X0580091Y0285264D01*
X0578781Y0283665D02*
X0560507Y0283665D01*
X0561430Y0282067D02*
X0578781Y0282067D01*
X0578781Y0280468D02*
X0562052Y0280468D01*
X0562480Y0278870D02*
X0579888Y0278870D01*
X0581181Y0277271D02*
X0562581Y0277271D01*
X0562581Y0275673D02*
X0575100Y0275673D01*
X0573501Y0274074D02*
X0562215Y0274074D01*
X0561783Y0272476D02*
X0573381Y0272476D01*
X0573381Y0270877D02*
X0560860Y0270877D01*
X0559699Y0269279D02*
X0574080Y0269279D01*
X0575678Y0267680D02*
X0558098Y0267680D01*
X0555181Y0266082D02*
X0580128Y0266082D01*
X0580684Y0267680D02*
X0581181Y0267680D01*
X0583581Y0266140D02*
X0579524Y0262083D01*
X0571650Y0254209D01*
X0544091Y0254209D01*
X0516532Y0226650D01*
X0516532Y0179406D01*
X0499721Y0162595D01*
X0499721Y0112477D01*
X0527280Y0084918D01*
X0579524Y0084918D01*
X0583502Y0080940D01*
X0583502Y0065300D01*
X0580542Y0061472D02*
X0558479Y0061472D01*
X0558025Y0061018D02*
X0560185Y0063177D01*
X0561712Y0065823D01*
X0562502Y0068773D01*
X0562502Y0071827D01*
X0561712Y0074777D01*
X0560185Y0077423D01*
X0558025Y0079582D01*
X0555380Y0081109D01*
X0552429Y0081900D01*
X0549375Y0081900D01*
X0546425Y0081109D01*
X0543780Y0079582D01*
X0541620Y0077423D01*
X0540093Y0074777D01*
X0539302Y0071827D01*
X0539302Y0068773D01*
X0540093Y0065823D01*
X0541620Y0063177D01*
X0543780Y0061018D01*
X0546425Y0059491D01*
X0549375Y0058700D01*
X0552429Y0058700D01*
X0555380Y0059491D01*
X0558025Y0061018D01*
X0556043Y0059874D02*
X0795761Y0059874D01*
X0793325Y0061472D02*
X0771263Y0061472D01*
X0772861Y0063071D02*
X0791727Y0063071D01*
X0790759Y0064669D02*
X0773102Y0064669D01*
X0773102Y0066268D02*
X0789973Y0066268D01*
X0789545Y0067866D02*
X0772524Y0067866D01*
X0770926Y0069465D02*
X0789302Y0069465D01*
X0789302Y0071063D02*
X0776254Y0071063D01*
X0777852Y0072662D02*
X0789526Y0072662D01*
X0789954Y0074260D02*
X0778502Y0074260D01*
X0778502Y0075859D02*
X0790717Y0075859D01*
X0791655Y0077457D02*
X0778333Y0077457D01*
X0776735Y0079056D02*
X0793253Y0079056D01*
X0795636Y0080654D02*
X0771568Y0080654D01*
X0768302Y0080783D02*
X0772438Y0084918D01*
X0770581Y0086455D02*
X0770403Y0086278D01*
X0766268Y0082142D01*
X0765902Y0081260D01*
X0765902Y0080305D01*
X0765902Y0078988D01*
X0764790Y0080100D01*
X0760814Y0080100D01*
X0759802Y0079088D01*
X0759802Y0080700D01*
X0765558Y0086455D01*
X0770581Y0086455D01*
X0769575Y0085450D02*
X0764552Y0085450D01*
X0762954Y0083851D02*
X0767977Y0083851D01*
X0766378Y0082253D02*
X0761355Y0082253D01*
X0759802Y0080654D02*
X0765902Y0080654D01*
X0765902Y0079056D02*
X0765835Y0079056D01*
X0768302Y0080783D02*
X0768302Y0065300D01*
X0765342Y0061472D02*
X0760363Y0061472D01*
X0761961Y0063071D02*
X0763743Y0063071D01*
X0763502Y0064669D02*
X0762202Y0064669D01*
X0762202Y0066268D02*
X0763502Y0066268D01*
X0764080Y0067866D02*
X0761624Y0067866D01*
X0760026Y0069465D02*
X0765679Y0069465D01*
X0765902Y0071063D02*
X0765354Y0071063D01*
X0760251Y0071063D02*
X0759802Y0071063D01*
X0755002Y0071063D02*
X0754554Y0071063D01*
X0754779Y0069465D02*
X0749126Y0069465D01*
X0748902Y0071063D02*
X0749451Y0071063D01*
X0750724Y0067866D02*
X0753180Y0067866D01*
X0752602Y0066268D02*
X0751302Y0066268D01*
X0751302Y0064669D02*
X0752602Y0064669D01*
X0752843Y0063071D02*
X0751061Y0063071D01*
X0749463Y0061472D02*
X0754442Y0061472D01*
X0757402Y0065300D02*
X0757402Y0081694D01*
X0764564Y0088855D01*
X0827556Y0088855D01*
X0834367Y0095666D01*
X0834367Y0112477D01*
X0834367Y0192280D01*
X0776375Y0250272D01*
X0757481Y0269166D01*
X0757481Y0281965D01*
X0752681Y0282067D02*
X0751481Y0282067D01*
X0751481Y0283665D02*
X0752681Y0283665D01*
X0753991Y0285264D02*
X0750171Y0285264D01*
X0746681Y0281965D02*
X0746681Y0264218D01*
X0764564Y0246335D01*
X0772438Y0246335D01*
X0784249Y0234524D01*
X0784249Y0206965D01*
X0796060Y0195154D01*
X0792123Y0199091D01*
X0790474Y0197346D02*
X0785452Y0197346D01*
X0783853Y0198944D02*
X0788876Y0198944D01*
X0787277Y0200543D02*
X0782255Y0200543D01*
X0780656Y0202141D02*
X0785679Y0202141D01*
X0784080Y0203740D02*
X0779058Y0203740D01*
X0777459Y0205338D02*
X0782482Y0205338D01*
X0782214Y0205606D02*
X0794700Y0193120D01*
X0812282Y0175538D01*
X0812282Y0159183D01*
X0811981Y0159058D01*
X0810639Y0157717D01*
X0809913Y0155964D01*
X0809913Y0147730D01*
X0810639Y0145978D01*
X0811981Y0144636D01*
X0812282Y0144511D01*
X0812282Y0100597D01*
X0806877Y0095192D01*
X0790043Y0095192D01*
X0790220Y0095370D01*
X0797031Y0102181D01*
X0797397Y0103063D01*
X0797397Y0105141D01*
X0797698Y0105266D01*
X0799039Y0106608D01*
X0799765Y0108360D01*
X0799765Y0116594D01*
X0799039Y0118347D01*
X0797698Y0119688D01*
X0797397Y0119813D01*
X0797397Y0184884D01*
X0797031Y0185766D01*
X0766964Y0215833D01*
X0766964Y0238939D01*
X0766598Y0239821D01*
X0746913Y0259506D01*
X0739254Y0267165D01*
X0743169Y0267165D01*
X0744281Y0268277D01*
X0744281Y0263741D01*
X0744646Y0262859D01*
X0762529Y0244976D01*
X0763204Y0244301D01*
X0764086Y0243935D01*
X0771444Y0243935D01*
X0777275Y0238104D01*
X0776260Y0238524D01*
X0774363Y0238524D01*
X0772611Y0237798D01*
X0771269Y0236457D01*
X0770543Y0234704D01*
X0770543Y0226470D01*
X0771269Y0224718D01*
X0772611Y0223376D01*
X0774363Y0222650D01*
X0776260Y0222650D01*
X0778013Y0223376D01*
X0779354Y0224718D01*
X0780080Y0226470D01*
X0780080Y0234704D01*
X0779660Y0235719D01*
X0781849Y0233530D01*
X0781849Y0206488D01*
X0782214Y0205606D01*
X0781849Y0206937D02*
X0775860Y0206937D01*
X0774262Y0208535D02*
X0781849Y0208535D01*
X0781849Y0210134D02*
X0772663Y0210134D01*
X0771065Y0211732D02*
X0781849Y0211732D01*
X0781849Y0213331D02*
X0769466Y0213331D01*
X0767868Y0214929D02*
X0781849Y0214929D01*
X0781849Y0216528D02*
X0766964Y0216528D01*
X0766964Y0218126D02*
X0781849Y0218126D01*
X0781849Y0219725D02*
X0766964Y0219725D01*
X0766964Y0221323D02*
X0781849Y0221323D01*
X0781849Y0222922D02*
X0776915Y0222922D01*
X0779157Y0224520D02*
X0781849Y0224520D01*
X0781849Y0226119D02*
X0779935Y0226119D01*
X0780080Y0227717D02*
X0781849Y0227717D01*
X0781849Y0229316D02*
X0780080Y0229316D01*
X0780080Y0230914D02*
X0781849Y0230914D01*
X0781849Y0232513D02*
X0780080Y0232513D01*
X0780080Y0234111D02*
X0781268Y0234111D01*
X0779669Y0235710D02*
X0779664Y0235710D01*
X0776472Y0238907D02*
X0766964Y0238907D01*
X0766964Y0237308D02*
X0772120Y0237308D01*
X0770960Y0235710D02*
X0766964Y0235710D01*
X0766964Y0234111D02*
X0770543Y0234111D01*
X0770543Y0232513D02*
X0766964Y0232513D01*
X0766964Y0230914D02*
X0770543Y0230914D01*
X0770543Y0229316D02*
X0766964Y0229316D01*
X0766964Y0227717D02*
X0770543Y0227717D01*
X0770689Y0226119D02*
X0766964Y0226119D01*
X0766964Y0224520D02*
X0771467Y0224520D01*
X0773708Y0222922D02*
X0766964Y0222922D01*
X0762164Y0222922D02*
X0755153Y0222922D01*
X0755153Y0224520D02*
X0762164Y0224520D01*
X0762164Y0226119D02*
X0755153Y0226119D01*
X0755153Y0227717D02*
X0762164Y0227717D01*
X0762164Y0229316D02*
X0755153Y0229316D01*
X0755153Y0230914D02*
X0762164Y0230914D01*
X0762164Y0232513D02*
X0755153Y0232513D01*
X0755153Y0234111D02*
X0762164Y0234111D01*
X0762164Y0235710D02*
X0755153Y0235710D01*
X0755153Y0237308D02*
X0762164Y0237308D01*
X0762164Y0237467D02*
X0762164Y0214362D01*
X0762529Y0213480D01*
X0763204Y0212805D01*
X0777275Y0198734D01*
X0776260Y0199154D01*
X0774363Y0199154D01*
X0772611Y0198428D01*
X0771269Y0197087D01*
X0770543Y0195334D01*
X0770543Y0187100D01*
X0771269Y0185348D01*
X0772611Y0184006D01*
X0774363Y0183280D01*
X0776260Y0183280D01*
X0778013Y0184006D01*
X0779354Y0185348D01*
X0780080Y0187100D01*
X0780080Y0195334D01*
X0779660Y0196349D01*
X0792597Y0183412D01*
X0792597Y0119813D01*
X0792296Y0119688D01*
X0790954Y0118347D01*
X0790228Y0116594D01*
X0790228Y0108360D01*
X0790954Y0106608D01*
X0792296Y0105266D01*
X0792597Y0105141D01*
X0792597Y0104534D01*
X0787192Y0099129D01*
X0766421Y0099129D01*
X0766598Y0099307D01*
X0777346Y0110055D01*
X0777712Y0110937D01*
X0777712Y0111892D01*
X0777712Y0144511D01*
X0778013Y0144636D01*
X0779354Y0145978D01*
X0780080Y0147730D01*
X0780080Y0155964D01*
X0779354Y0157717D01*
X0778013Y0159058D01*
X0777712Y0159183D01*
X0777712Y0165199D01*
X0777346Y0166081D01*
X0755153Y0188274D01*
X0755153Y0238939D01*
X0754787Y0239821D01*
X0731165Y0263443D01*
X0727281Y0267327D01*
X0727281Y0268277D01*
X0728393Y0267165D01*
X0732369Y0267165D01*
X0733381Y0268177D01*
X0733381Y0266767D01*
X0733746Y0265885D01*
X0743519Y0256112D01*
X0762164Y0237467D01*
X0760724Y0238907D02*
X0755153Y0238907D01*
X0754103Y0240505D02*
X0759126Y0240505D01*
X0757527Y0242104D02*
X0752504Y0242104D01*
X0750906Y0243702D02*
X0755929Y0243702D01*
X0754330Y0245301D02*
X0749307Y0245301D01*
X0747709Y0246899D02*
X0752732Y0246899D01*
X0751133Y0248498D02*
X0746110Y0248498D01*
X0744512Y0250096D02*
X0749535Y0250096D01*
X0747936Y0251695D02*
X0742913Y0251695D01*
X0741315Y0253293D02*
X0746337Y0253293D01*
X0744739Y0254892D02*
X0739716Y0254892D01*
X0738118Y0256490D02*
X0743140Y0256490D01*
X0741542Y0258089D02*
X0736519Y0258089D01*
X0734921Y0259687D02*
X0739943Y0259687D01*
X0738345Y0261286D02*
X0733322Y0261286D01*
X0731724Y0262885D02*
X0736746Y0262885D01*
X0735148Y0264483D02*
X0730125Y0264483D01*
X0728527Y0266082D02*
X0733665Y0266082D01*
X0733381Y0267680D02*
X0732884Y0267680D01*
X0735781Y0267244D02*
X0744879Y0258146D01*
X0764564Y0238461D01*
X0764564Y0214839D01*
X0794997Y0184406D01*
X0794997Y0112477D01*
X0794997Y0103540D01*
X0788186Y0096729D01*
X0748816Y0096729D01*
X0735702Y0083616D01*
X0735702Y0065300D01*
X0732742Y0061472D02*
X0727763Y0061472D01*
X0729361Y0063071D02*
X0731143Y0063071D01*
X0730902Y0064669D02*
X0729602Y0064669D01*
X0729602Y0066268D02*
X0730902Y0066268D01*
X0731480Y0067866D02*
X0729024Y0067866D01*
X0727426Y0069465D02*
X0733079Y0069465D01*
X0733302Y0071063D02*
X0732754Y0071063D01*
X0727651Y0071063D02*
X0727202Y0071063D01*
X0722402Y0071063D02*
X0721954Y0071063D01*
X0722179Y0069465D02*
X0716526Y0069465D01*
X0716302Y0071063D02*
X0716851Y0071063D01*
X0718124Y0067866D02*
X0720580Y0067866D01*
X0720002Y0066268D02*
X0718702Y0066268D01*
X0718702Y0064669D02*
X0720002Y0064669D01*
X0720243Y0063071D02*
X0718461Y0063071D01*
X0716863Y0061472D02*
X0721842Y0061472D01*
X0724802Y0065300D02*
X0724802Y0088464D01*
X0737005Y0100666D01*
X0764564Y0100666D01*
X0775312Y0111414D01*
X0775312Y0151847D01*
X0775312Y0164721D01*
X0752753Y0187280D01*
X0752753Y0238461D01*
X0729131Y0262083D01*
X0724881Y0266333D01*
X0724881Y0281965D01*
X0729681Y0282067D02*
X0730981Y0282067D01*
X0730981Y0283665D02*
X0729681Y0283665D01*
X0728371Y0285264D02*
X0732291Y0285264D01*
X0735781Y0281965D02*
X0735781Y0267244D01*
X0740338Y0266082D02*
X0744281Y0266082D01*
X0744281Y0267680D02*
X0743684Y0267680D01*
X0744281Y0264483D02*
X0741936Y0264483D01*
X0743535Y0262885D02*
X0744636Y0262885D01*
X0745133Y0261286D02*
X0746219Y0261286D01*
X0746732Y0259687D02*
X0747817Y0259687D01*
X0748330Y0258089D02*
X0749416Y0258089D01*
X0749929Y0256490D02*
X0751014Y0256490D01*
X0751527Y0254892D02*
X0752613Y0254892D01*
X0753126Y0253293D02*
X0754212Y0253293D01*
X0754724Y0251695D02*
X0755810Y0251695D01*
X0756323Y0250096D02*
X0757409Y0250096D01*
X0757921Y0248498D02*
X0759007Y0248498D01*
X0759520Y0246899D02*
X0760606Y0246899D01*
X0761118Y0245301D02*
X0762204Y0245301D01*
X0762717Y0243702D02*
X0771677Y0243702D01*
X0773275Y0242104D02*
X0764315Y0242104D01*
X0765914Y0240505D02*
X0774874Y0240505D01*
X0778465Y0243702D02*
X0779551Y0243702D01*
X0780063Y0242104D02*
X0781149Y0242104D01*
X0781662Y0240505D02*
X0782748Y0240505D01*
X0783260Y0238907D02*
X0784346Y0238907D01*
X0784859Y0237308D02*
X0785945Y0237308D01*
X0785608Y0236559D02*
X0773797Y0248370D01*
X0772915Y0248735D01*
X0765558Y0248735D01*
X0749081Y0265212D01*
X0749081Y0268177D01*
X0750093Y0267165D01*
X0754069Y0267165D01*
X0755231Y0268327D01*
X0755446Y0267807D01*
X0775015Y0248238D01*
X0775015Y0248238D01*
X0831967Y0191286D01*
X0831967Y0119813D01*
X0831666Y0119688D01*
X0830324Y0118347D01*
X0829598Y0116594D01*
X0829598Y0108360D01*
X0830324Y0106608D01*
X0831666Y0105266D01*
X0831967Y0105141D01*
X0831967Y0096660D01*
X0826562Y0091255D01*
X0809728Y0091255D01*
X0809905Y0091433D01*
X0816716Y0098244D01*
X0817082Y0099126D01*
X0817082Y0100081D01*
X0817082Y0144511D01*
X0817383Y0144636D01*
X0818724Y0145978D01*
X0819450Y0147730D01*
X0819450Y0155964D01*
X0818724Y0157717D01*
X0817383Y0159058D01*
X0817082Y0159183D01*
X0817082Y0177010D01*
X0816716Y0177892D01*
X0798094Y0196514D01*
X0786649Y0207959D01*
X0786649Y0235002D01*
X0786283Y0235884D01*
X0785608Y0236559D01*
X0786355Y0235710D02*
X0787543Y0235710D01*
X0786649Y0234111D02*
X0789142Y0234111D01*
X0790740Y0232513D02*
X0786649Y0232513D01*
X0786649Y0230914D02*
X0792339Y0230914D01*
X0793937Y0229316D02*
X0786649Y0229316D01*
X0786649Y0227717D02*
X0795536Y0227717D01*
X0797134Y0226119D02*
X0786649Y0226119D01*
X0786649Y0224520D02*
X0798733Y0224520D01*
X0800331Y0222922D02*
X0786649Y0222922D01*
X0786649Y0221323D02*
X0801930Y0221323D01*
X0803528Y0219725D02*
X0786649Y0219725D01*
X0786649Y0218126D02*
X0805127Y0218126D01*
X0806725Y0216528D02*
X0786649Y0216528D01*
X0786649Y0214929D02*
X0808324Y0214929D01*
X0809922Y0213331D02*
X0786649Y0213331D01*
X0786649Y0211732D02*
X0811521Y0211732D01*
X0813119Y0210134D02*
X0786649Y0210134D01*
X0786649Y0208535D02*
X0814718Y0208535D01*
X0816316Y0206937D02*
X0787672Y0206937D01*
X0789270Y0205338D02*
X0817915Y0205338D01*
X0819513Y0203740D02*
X0790869Y0203740D01*
X0792467Y0202141D02*
X0821112Y0202141D01*
X0822710Y0200543D02*
X0794066Y0200543D01*
X0795664Y0198944D02*
X0813226Y0198944D01*
X0813733Y0199154D02*
X0811981Y0198428D01*
X0810639Y0197087D01*
X0809913Y0195334D01*
X0809913Y0187100D01*
X0810639Y0185348D01*
X0811981Y0184006D01*
X0813733Y0183280D01*
X0815630Y0183280D01*
X0817383Y0184006D01*
X0818724Y0185348D01*
X0819450Y0187100D01*
X0819450Y0195334D01*
X0818724Y0197087D01*
X0817383Y0198428D01*
X0815630Y0199154D01*
X0813733Y0199154D01*
X0816138Y0198944D02*
X0824309Y0198944D01*
X0825907Y0197346D02*
X0818466Y0197346D01*
X0819279Y0195747D02*
X0827506Y0195747D01*
X0829104Y0194149D02*
X0819450Y0194149D01*
X0819450Y0192550D02*
X0830703Y0192550D01*
X0831967Y0190952D02*
X0819450Y0190952D01*
X0819450Y0189353D02*
X0831967Y0189353D01*
X0831967Y0187754D02*
X0819450Y0187754D01*
X0819059Y0186156D02*
X0831967Y0186156D01*
X0831967Y0184557D02*
X0817934Y0184557D01*
X0813248Y0181360D02*
X0831967Y0181360D01*
X0831967Y0179762D02*
X0814846Y0179762D01*
X0816445Y0178163D02*
X0831967Y0178163D01*
X0831967Y0176565D02*
X0817082Y0176565D01*
X0817082Y0174966D02*
X0831967Y0174966D01*
X0831967Y0173368D02*
X0817082Y0173368D01*
X0817082Y0171769D02*
X0831967Y0171769D01*
X0831967Y0170171D02*
X0817082Y0170171D01*
X0817082Y0168572D02*
X0831967Y0168572D01*
X0831967Y0166974D02*
X0817082Y0166974D01*
X0817082Y0165375D02*
X0831967Y0165375D01*
X0831967Y0163777D02*
X0817082Y0163777D01*
X0817082Y0162178D02*
X0831967Y0162178D01*
X0831967Y0160580D02*
X0817082Y0160580D01*
X0817460Y0158981D02*
X0831967Y0158981D01*
X0831967Y0157383D02*
X0818863Y0157383D01*
X0819450Y0155784D02*
X0831967Y0155784D01*
X0831967Y0154186D02*
X0819450Y0154186D01*
X0819450Y0152587D02*
X0831967Y0152587D01*
X0831967Y0150989D02*
X0819450Y0150989D01*
X0819450Y0149390D02*
X0831967Y0149390D01*
X0831967Y0147792D02*
X0819450Y0147792D01*
X0818814Y0146193D02*
X0831967Y0146193D01*
X0831967Y0144595D02*
X0817283Y0144595D01*
X0817082Y0142996D02*
X0831967Y0142996D01*
X0831967Y0141398D02*
X0817082Y0141398D01*
X0817082Y0139799D02*
X0831967Y0139799D01*
X0831967Y0138201D02*
X0817082Y0138201D01*
X0817082Y0136602D02*
X0831967Y0136602D01*
X0831967Y0135004D02*
X0817082Y0135004D01*
X0817082Y0133405D02*
X0831967Y0133405D01*
X0831967Y0131807D02*
X0817082Y0131807D01*
X0817082Y0130208D02*
X0831967Y0130208D01*
X0831967Y0128610D02*
X0817082Y0128610D01*
X0817082Y0127011D02*
X0831967Y0127011D01*
X0831967Y0125413D02*
X0817082Y0125413D01*
X0817082Y0123814D02*
X0831967Y0123814D01*
X0831967Y0122216D02*
X0817082Y0122216D01*
X0817082Y0120617D02*
X0831967Y0120617D01*
X0830996Y0119018D02*
X0817082Y0119018D01*
X0817082Y0117420D02*
X0829940Y0117420D01*
X0829598Y0115821D02*
X0817082Y0115821D01*
X0817082Y0114223D02*
X0829598Y0114223D01*
X0829598Y0112624D02*
X0817082Y0112624D01*
X0817082Y0111026D02*
X0829598Y0111026D01*
X0829598Y0109427D02*
X0817082Y0109427D01*
X0817082Y0107829D02*
X0829818Y0107829D01*
X0830701Y0106230D02*
X0817082Y0106230D01*
X0817082Y0104632D02*
X0831967Y0104632D01*
X0831967Y0103033D02*
X0817082Y0103033D01*
X0817082Y0101435D02*
X0831967Y0101435D01*
X0831967Y0099836D02*
X0817082Y0099836D01*
X0816711Y0098238D02*
X0831967Y0098238D01*
X0831946Y0096639D02*
X0815112Y0096639D01*
X0813514Y0095041D02*
X0830347Y0095041D01*
X0828749Y0093442D02*
X0811915Y0093442D01*
X0810316Y0091844D02*
X0827150Y0091844D01*
X0830742Y0088647D02*
X0831827Y0088647D01*
X0832340Y0090245D02*
X0833426Y0090245D01*
X0833939Y0091844D02*
X0835024Y0091844D01*
X0835537Y0093442D02*
X0836623Y0093442D01*
X0840214Y0090245D02*
X0872400Y0090245D01*
X0872400Y0088647D02*
X0838616Y0088647D01*
X0837017Y0087048D02*
X0872400Y0087048D01*
X0872400Y0085450D02*
X0835419Y0085450D01*
X0833820Y0083851D02*
X0872400Y0083851D01*
X0872400Y0091844D02*
X0841813Y0091844D01*
X0843411Y0093442D02*
X0872400Y0093442D01*
X0872400Y0095041D02*
X0845010Y0095041D01*
X0845338Y0095370D02*
X0845338Y0095370D01*
X0846608Y0096639D02*
X0872400Y0096639D01*
X0872400Y0098238D02*
X0848207Y0098238D01*
X0849805Y0099836D02*
X0872400Y0099836D01*
X0872400Y0101435D02*
X0851404Y0101435D01*
X0853002Y0103033D02*
X0872400Y0103033D01*
X0872400Y0104632D02*
X0854601Y0104632D01*
X0856133Y0106230D02*
X0872400Y0106230D01*
X0872400Y0107829D02*
X0856452Y0107829D01*
X0856452Y0109427D02*
X0872400Y0109427D01*
X0872400Y0111026D02*
X0856452Y0111026D01*
X0856452Y0112624D02*
X0872400Y0112624D01*
X0872400Y0114223D02*
X0856452Y0114223D01*
X0856452Y0115821D02*
X0872400Y0115821D01*
X0872400Y0117420D02*
X0856452Y0117420D01*
X0856452Y0119018D02*
X0872400Y0119018D01*
X0872400Y0120617D02*
X0856452Y0120617D01*
X0856452Y0122216D02*
X0872400Y0122216D01*
X0872400Y0123814D02*
X0856452Y0123814D01*
X0856452Y0125413D02*
X0872400Y0125413D01*
X0872400Y0127011D02*
X0856452Y0127011D01*
X0856452Y0128610D02*
X0872400Y0128610D01*
X0872400Y0130208D02*
X0856452Y0130208D01*
X0856452Y0131807D02*
X0872400Y0131807D01*
X0872400Y0133405D02*
X0856452Y0133405D01*
X0856452Y0135004D02*
X0872400Y0135004D01*
X0872400Y0136602D02*
X0856452Y0136602D01*
X0856452Y0138201D02*
X0872400Y0138201D01*
X0872400Y0139799D02*
X0856452Y0139799D01*
X0856452Y0141398D02*
X0872400Y0141398D01*
X0872400Y0142996D02*
X0856452Y0142996D01*
X0856653Y0144595D02*
X0872400Y0144595D01*
X0872400Y0146193D02*
X0858184Y0146193D01*
X0858820Y0147792D02*
X0872400Y0147792D01*
X0872400Y0149390D02*
X0858820Y0149390D01*
X0858820Y0150989D02*
X0872400Y0150989D01*
X0872400Y0152587D02*
X0858820Y0152587D01*
X0858820Y0154186D02*
X0872400Y0154186D01*
X0872400Y0155784D02*
X0858820Y0155784D01*
X0858233Y0157383D02*
X0872400Y0157383D01*
X0872400Y0158981D02*
X0856830Y0158981D01*
X0856452Y0160580D02*
X0872400Y0160580D01*
X0872400Y0162178D02*
X0856452Y0162178D01*
X0856452Y0163777D02*
X0872400Y0163777D01*
X0872400Y0165375D02*
X0856452Y0165375D01*
X0856452Y0166974D02*
X0872400Y0166974D01*
X0872400Y0168572D02*
X0856452Y0168572D01*
X0856452Y0170171D02*
X0872400Y0170171D01*
X0872400Y0171769D02*
X0856452Y0171769D01*
X0856330Y0173368D02*
X0872400Y0173368D01*
X0872400Y0174966D02*
X0855075Y0174966D01*
X0853476Y0176565D02*
X0872400Y0176565D01*
X0872400Y0178163D02*
X0851878Y0178163D01*
X0850279Y0179762D02*
X0872400Y0179762D01*
X0872400Y0181360D02*
X0848681Y0181360D01*
X0847082Y0182959D02*
X0872400Y0182959D01*
X0872400Y0184557D02*
X0857304Y0184557D01*
X0856753Y0184006D02*
X0858094Y0185348D01*
X0858820Y0187100D01*
X0858820Y0195334D01*
X0858094Y0197087D01*
X0856753Y0198428D01*
X0855000Y0199154D01*
X0853103Y0199154D01*
X0851351Y0198428D01*
X0850009Y0197087D01*
X0849283Y0195334D01*
X0849283Y0187100D01*
X0850009Y0185348D01*
X0851351Y0184006D01*
X0853103Y0183280D01*
X0855000Y0183280D01*
X0856753Y0184006D01*
X0858429Y0186156D02*
X0872400Y0186156D01*
X0872400Y0187754D02*
X0858820Y0187754D01*
X0858820Y0189353D02*
X0872400Y0189353D01*
X0872400Y0190952D02*
X0858820Y0190952D01*
X0858820Y0192550D02*
X0872400Y0192550D01*
X0872400Y0194149D02*
X0858820Y0194149D01*
X0858649Y0195747D02*
X0872400Y0195747D01*
X0872400Y0197346D02*
X0857836Y0197346D01*
X0855508Y0198944D02*
X0872400Y0198944D01*
X0872400Y0200543D02*
X0845704Y0200543D01*
X0845704Y0202141D02*
X0872400Y0202141D01*
X0872400Y0203740D02*
X0845704Y0203740D01*
X0845704Y0205338D02*
X0872400Y0205338D01*
X0872400Y0206937D02*
X0845704Y0206937D01*
X0845704Y0208535D02*
X0872400Y0208535D01*
X0872400Y0210134D02*
X0845704Y0210134D01*
X0845704Y0211732D02*
X0872400Y0211732D01*
X0872400Y0213331D02*
X0845704Y0213331D01*
X0845704Y0214929D02*
X0872400Y0214929D01*
X0872400Y0216528D02*
X0845704Y0216528D01*
X0845704Y0218126D02*
X0872400Y0218126D01*
X0872400Y0219725D02*
X0845509Y0219725D01*
X0844151Y0221323D02*
X0872400Y0221323D01*
X0872400Y0222922D02*
X0855655Y0222922D01*
X0855000Y0222650D02*
X0856753Y0223376D01*
X0858094Y0224718D01*
X0858820Y0226470D01*
X0858820Y0234704D01*
X0858094Y0236457D01*
X0856753Y0237798D01*
X0855000Y0238524D01*
X0853103Y0238524D01*
X0851351Y0237798D01*
X0850009Y0236457D01*
X0849283Y0234704D01*
X0849283Y0226470D01*
X0850009Y0224718D01*
X0851351Y0223376D01*
X0853103Y0222650D01*
X0855000Y0222650D01*
X0852448Y0222922D02*
X0842553Y0222922D01*
X0840954Y0224520D02*
X0850207Y0224520D01*
X0849429Y0226119D02*
X0839356Y0226119D01*
X0837757Y0227717D02*
X0849283Y0227717D01*
X0849283Y0229316D02*
X0836159Y0229316D01*
X0834560Y0230914D02*
X0849283Y0230914D01*
X0849283Y0232513D02*
X0832961Y0232513D01*
X0831363Y0234111D02*
X0849283Y0234111D01*
X0849700Y0235710D02*
X0829764Y0235710D01*
X0828166Y0237308D02*
X0850861Y0237308D01*
X0857243Y0237308D02*
X0872400Y0237308D01*
X0872400Y0235710D02*
X0858404Y0235710D01*
X0858820Y0234111D02*
X0872400Y0234111D01*
X0872400Y0232513D02*
X0858820Y0232513D01*
X0858820Y0230914D02*
X0872400Y0230914D01*
X0872400Y0229316D02*
X0858820Y0229316D01*
X0858820Y0227717D02*
X0872400Y0227717D01*
X0872400Y0226119D02*
X0858675Y0226119D01*
X0857897Y0224520D02*
X0872400Y0224520D01*
X0872400Y0238907D02*
X0826567Y0238907D01*
X0824969Y0240505D02*
X0872400Y0240505D01*
X0872400Y0242104D02*
X0823370Y0242104D01*
X0821772Y0243702D02*
X0872400Y0243702D01*
X0872400Y0245301D02*
X0820173Y0245301D01*
X0818575Y0246899D02*
X0872400Y0246899D01*
X0872400Y0248498D02*
X0816976Y0248498D01*
X0815378Y0250096D02*
X0872400Y0250096D01*
X0872400Y0251695D02*
X0813779Y0251695D01*
X0811787Y0246899D02*
X0783142Y0246899D01*
X0784740Y0245301D02*
X0813385Y0245301D01*
X0814984Y0243702D02*
X0786339Y0243702D01*
X0787937Y0242104D02*
X0816582Y0242104D01*
X0818181Y0240505D02*
X0789536Y0240505D01*
X0791134Y0238907D02*
X0819779Y0238907D01*
X0821378Y0237308D02*
X0817873Y0237308D01*
X0817383Y0237798D02*
X0818724Y0236457D01*
X0819450Y0234704D01*
X0819450Y0226470D01*
X0818724Y0224718D01*
X0817383Y0223376D01*
X0815630Y0222650D01*
X0813733Y0222650D01*
X0811981Y0223376D01*
X0810639Y0224718D01*
X0809913Y0226470D01*
X0809913Y0234704D01*
X0810639Y0236457D01*
X0811981Y0237798D01*
X0813733Y0238524D01*
X0815630Y0238524D01*
X0817383Y0237798D01*
X0819034Y0235710D02*
X0822976Y0235710D01*
X0824575Y0234111D02*
X0819450Y0234111D01*
X0819450Y0232513D02*
X0826173Y0232513D01*
X0827772Y0230914D02*
X0819450Y0230914D01*
X0819450Y0229316D02*
X0829370Y0229316D01*
X0830969Y0227717D02*
X0819450Y0227717D01*
X0819305Y0226119D02*
X0832567Y0226119D01*
X0834166Y0224520D02*
X0818527Y0224520D01*
X0816285Y0222922D02*
X0835764Y0222922D01*
X0837363Y0221323D02*
X0808718Y0221323D01*
X0810316Y0219725D02*
X0838961Y0219725D01*
X0840560Y0218126D02*
X0811915Y0218126D01*
X0813514Y0216528D02*
X0840904Y0216528D01*
X0840904Y0214929D02*
X0815112Y0214929D01*
X0816711Y0213331D02*
X0840904Y0213331D01*
X0840904Y0211732D02*
X0818309Y0211732D01*
X0819908Y0210134D02*
X0840904Y0210134D01*
X0840904Y0208535D02*
X0821506Y0208535D01*
X0823105Y0206937D02*
X0840904Y0206937D01*
X0840904Y0205338D02*
X0824703Y0205338D01*
X0826302Y0203740D02*
X0840904Y0203740D01*
X0840904Y0202141D02*
X0827900Y0202141D01*
X0829499Y0200543D02*
X0840904Y0200543D01*
X0840904Y0198944D02*
X0831097Y0198944D01*
X0832696Y0197346D02*
X0840904Y0197346D01*
X0840904Y0195747D02*
X0834294Y0195747D01*
X0835893Y0194149D02*
X0840904Y0194149D01*
X0840904Y0192550D02*
X0836767Y0192550D01*
X0836767Y0190952D02*
X0840904Y0190952D01*
X0840904Y0189353D02*
X0836767Y0189353D01*
X0836767Y0187754D02*
X0840904Y0187754D01*
X0840904Y0186156D02*
X0836767Y0186156D01*
X0836767Y0184557D02*
X0840904Y0184557D01*
X0840904Y0182959D02*
X0836767Y0182959D01*
X0836767Y0181360D02*
X0841893Y0181360D01*
X0843491Y0179762D02*
X0836767Y0179762D01*
X0836767Y0178163D02*
X0845090Y0178163D01*
X0846688Y0176565D02*
X0836767Y0176565D01*
X0836767Y0174966D02*
X0848287Y0174966D01*
X0849885Y0173368D02*
X0836767Y0173368D01*
X0836767Y0171769D02*
X0851484Y0171769D01*
X0851652Y0170171D02*
X0836767Y0170171D01*
X0836767Y0168572D02*
X0851652Y0168572D01*
X0851652Y0166974D02*
X0836767Y0166974D01*
X0836767Y0165375D02*
X0851652Y0165375D01*
X0851652Y0163777D02*
X0836767Y0163777D01*
X0836767Y0162178D02*
X0851652Y0162178D01*
X0851652Y0160580D02*
X0836767Y0160580D01*
X0836767Y0158981D02*
X0851274Y0158981D01*
X0849871Y0157383D02*
X0836767Y0157383D01*
X0836767Y0155784D02*
X0849283Y0155784D01*
X0849283Y0154186D02*
X0836767Y0154186D01*
X0836767Y0152587D02*
X0849283Y0152587D01*
X0849283Y0150989D02*
X0836767Y0150989D01*
X0836767Y0149390D02*
X0849283Y0149390D01*
X0849283Y0147792D02*
X0836767Y0147792D01*
X0836767Y0146193D02*
X0849920Y0146193D01*
X0851451Y0144595D02*
X0836767Y0144595D01*
X0836767Y0142996D02*
X0851652Y0142996D01*
X0851652Y0141398D02*
X0836767Y0141398D01*
X0836767Y0139799D02*
X0851652Y0139799D01*
X0851652Y0138201D02*
X0836767Y0138201D01*
X0836767Y0136602D02*
X0851652Y0136602D01*
X0851652Y0135004D02*
X0836767Y0135004D01*
X0836767Y0133405D02*
X0851652Y0133405D01*
X0851652Y0131807D02*
X0836767Y0131807D01*
X0836767Y0130208D02*
X0851652Y0130208D01*
X0851652Y0128610D02*
X0836767Y0128610D01*
X0836767Y0127011D02*
X0851652Y0127011D01*
X0851652Y0125413D02*
X0836767Y0125413D01*
X0836767Y0123814D02*
X0851652Y0123814D01*
X0851652Y0122216D02*
X0836767Y0122216D01*
X0836767Y0120617D02*
X0851652Y0120617D01*
X0851652Y0119018D02*
X0837738Y0119018D01*
X0838793Y0117420D02*
X0851652Y0117420D01*
X0851652Y0115821D02*
X0839135Y0115821D01*
X0839135Y0114223D02*
X0851652Y0114223D01*
X0851652Y0112624D02*
X0839135Y0112624D01*
X0839135Y0111026D02*
X0851652Y0111026D01*
X0851652Y0109427D02*
X0839135Y0109427D01*
X0838915Y0107829D02*
X0851009Y0107829D01*
X0849411Y0106230D02*
X0838032Y0106230D01*
X0836767Y0104632D02*
X0847812Y0104632D01*
X0846214Y0103033D02*
X0836767Y0103033D01*
X0836767Y0101435D02*
X0844615Y0101435D01*
X0814682Y0099603D02*
X0807871Y0092792D01*
X0760627Y0092792D01*
X0758658Y0090824D01*
X0760627Y0092792D01*
X0758770Y0094329D02*
X0757299Y0092858D01*
X0757299Y0092858D01*
X0744468Y0080027D01*
X0744102Y0079145D01*
X0744102Y0079088D01*
X0743090Y0080100D01*
X0739114Y0080100D01*
X0738102Y0079088D01*
X0738102Y0082622D01*
X0749810Y0094329D01*
X0758770Y0094329D01*
X0757883Y0093442D02*
X0748923Y0093442D01*
X0747324Y0091844D02*
X0756284Y0091844D01*
X0754686Y0090245D02*
X0745726Y0090245D01*
X0744127Y0088647D02*
X0753087Y0088647D01*
X0751489Y0087048D02*
X0742529Y0087048D01*
X0740930Y0085450D02*
X0749890Y0085450D01*
X0748292Y0083851D02*
X0739332Y0083851D01*
X0738102Y0082253D02*
X0746693Y0082253D01*
X0745095Y0080654D02*
X0738102Y0080654D01*
X0733302Y0080654D02*
X0727202Y0080654D01*
X0728214Y0080100D02*
X0727202Y0079088D01*
X0727202Y0087470D01*
X0737999Y0098266D01*
X0746959Y0098266D01*
X0746781Y0098089D01*
X0746781Y0098089D01*
X0734343Y0085650D01*
X0734343Y0085650D01*
X0733668Y0084975D01*
X0733302Y0084093D01*
X0733302Y0078988D01*
X0732190Y0080100D01*
X0728214Y0080100D01*
X0727202Y0082253D02*
X0733302Y0082253D01*
X0733302Y0083851D02*
X0727202Y0083851D01*
X0727202Y0085450D02*
X0734142Y0085450D01*
X0735741Y0087048D02*
X0727202Y0087048D01*
X0728379Y0088647D02*
X0737339Y0088647D01*
X0738938Y0090245D02*
X0729978Y0090245D01*
X0731576Y0091844D02*
X0740536Y0091844D01*
X0742135Y0093442D02*
X0733175Y0093442D01*
X0734773Y0095041D02*
X0743733Y0095041D01*
X0745332Y0096639D02*
X0736372Y0096639D01*
X0737970Y0098238D02*
X0746930Y0098238D01*
X0746736Y0103066D02*
X0746913Y0103244D01*
X0747976Y0104307D01*
X0748318Y0105132D01*
X0748643Y0105266D01*
X0749984Y0106608D01*
X0750710Y0108360D01*
X0750710Y0116594D01*
X0749984Y0118347D01*
X0748643Y0119688D01*
X0748342Y0119813D01*
X0748342Y0163073D01*
X0747976Y0163955D01*
X0723657Y0188274D01*
X0723657Y0258624D01*
X0723291Y0259506D01*
X0719354Y0263443D01*
X0716481Y0266316D01*
X0716481Y0268177D01*
X0717493Y0267165D01*
X0721469Y0267165D01*
X0722481Y0268177D01*
X0722481Y0265856D01*
X0722846Y0264974D01*
X0727771Y0260049D01*
X0750353Y0237467D01*
X0750353Y0186803D01*
X0750718Y0185921D01*
X0751393Y0185246D01*
X0772912Y0163727D01*
X0772912Y0159183D01*
X0772611Y0159058D01*
X0771269Y0157717D01*
X0770543Y0155964D01*
X0770543Y0147730D01*
X0771269Y0145978D01*
X0772611Y0144636D01*
X0772912Y0144511D01*
X0772912Y0112408D01*
X0763570Y0103066D01*
X0746736Y0103066D01*
X0748111Y0104632D02*
X0765135Y0104632D01*
X0766734Y0106230D02*
X0749607Y0106230D01*
X0750490Y0107829D02*
X0768332Y0107829D01*
X0769931Y0109427D02*
X0750710Y0109427D01*
X0750710Y0111026D02*
X0771529Y0111026D01*
X0772912Y0112624D02*
X0750710Y0112624D01*
X0750710Y0114223D02*
X0772912Y0114223D01*
X0772912Y0115821D02*
X0750710Y0115821D01*
X0750368Y0117420D02*
X0772912Y0117420D01*
X0772912Y0119018D02*
X0749312Y0119018D01*
X0748342Y0120617D02*
X0772912Y0120617D01*
X0772912Y0122216D02*
X0748342Y0122216D01*
X0748342Y0123814D02*
X0772912Y0123814D01*
X0772912Y0125413D02*
X0748342Y0125413D01*
X0748342Y0127011D02*
X0772912Y0127011D01*
X0772912Y0128610D02*
X0748342Y0128610D01*
X0748342Y0130208D02*
X0772912Y0130208D01*
X0772912Y0131807D02*
X0748342Y0131807D01*
X0748342Y0133405D02*
X0772912Y0133405D01*
X0772912Y0135004D02*
X0748342Y0135004D01*
X0748342Y0136602D02*
X0772912Y0136602D01*
X0772912Y0138201D02*
X0748342Y0138201D01*
X0748342Y0139799D02*
X0772912Y0139799D01*
X0772912Y0141398D02*
X0748342Y0141398D01*
X0748342Y0142996D02*
X0772912Y0142996D01*
X0772711Y0144595D02*
X0748342Y0144595D01*
X0748342Y0146193D02*
X0771180Y0146193D01*
X0770543Y0147792D02*
X0748342Y0147792D01*
X0748342Y0149390D02*
X0770543Y0149390D01*
X0770543Y0150989D02*
X0748342Y0150989D01*
X0748342Y0152587D02*
X0770543Y0152587D01*
X0770543Y0154186D02*
X0748342Y0154186D01*
X0748342Y0155784D02*
X0770543Y0155784D01*
X0771131Y0157383D02*
X0748342Y0157383D01*
X0748342Y0158981D02*
X0772534Y0158981D01*
X0772912Y0160580D02*
X0748342Y0160580D01*
X0748342Y0162178D02*
X0772912Y0162178D01*
X0772862Y0163777D02*
X0748050Y0163777D01*
X0746556Y0165375D02*
X0771263Y0165375D01*
X0769665Y0166974D02*
X0744957Y0166974D01*
X0743359Y0168572D02*
X0768066Y0168572D01*
X0766468Y0170171D02*
X0741760Y0170171D01*
X0740162Y0171769D02*
X0764869Y0171769D01*
X0763271Y0173368D02*
X0738563Y0173368D01*
X0736965Y0174966D02*
X0761672Y0174966D01*
X0760074Y0176565D02*
X0735366Y0176565D01*
X0733768Y0178163D02*
X0758475Y0178163D01*
X0756877Y0179762D02*
X0732169Y0179762D01*
X0730571Y0181360D02*
X0755278Y0181360D01*
X0753680Y0182959D02*
X0728972Y0182959D01*
X0727374Y0184557D02*
X0732689Y0184557D01*
X0733240Y0184006D02*
X0734993Y0183280D01*
X0736890Y0183280D01*
X0738643Y0184006D01*
X0739984Y0185348D01*
X0740710Y0187100D01*
X0740710Y0195334D01*
X0739984Y0197087D01*
X0738643Y0198428D01*
X0736890Y0199154D01*
X0734993Y0199154D01*
X0733240Y0198428D01*
X0731899Y0197087D01*
X0731173Y0195334D01*
X0731173Y0187100D01*
X0731899Y0185348D01*
X0733240Y0184006D01*
X0731564Y0186156D02*
X0725775Y0186156D01*
X0724176Y0187754D02*
X0731173Y0187754D01*
X0731173Y0189353D02*
X0723657Y0189353D01*
X0723657Y0190952D02*
X0731173Y0190952D01*
X0731173Y0192550D02*
X0723657Y0192550D01*
X0723657Y0194149D02*
X0731173Y0194149D01*
X0731344Y0195747D02*
X0723657Y0195747D01*
X0723657Y0197346D02*
X0732158Y0197346D01*
X0734485Y0198944D02*
X0723657Y0198944D01*
X0723657Y0200543D02*
X0750353Y0200543D01*
X0750353Y0202141D02*
X0723657Y0202141D01*
X0723657Y0203740D02*
X0750353Y0203740D01*
X0750353Y0205338D02*
X0723657Y0205338D01*
X0723657Y0206937D02*
X0750353Y0206937D01*
X0750353Y0208535D02*
X0723657Y0208535D01*
X0723657Y0210134D02*
X0750353Y0210134D01*
X0750353Y0211732D02*
X0723657Y0211732D01*
X0723657Y0213331D02*
X0750353Y0213331D01*
X0750353Y0214929D02*
X0723657Y0214929D01*
X0723657Y0216528D02*
X0750353Y0216528D01*
X0750353Y0218126D02*
X0723657Y0218126D01*
X0723657Y0219725D02*
X0750353Y0219725D01*
X0750353Y0221323D02*
X0723657Y0221323D01*
X0723657Y0222922D02*
X0734338Y0222922D01*
X0734993Y0222650D02*
X0736890Y0222650D01*
X0738643Y0223376D01*
X0739984Y0224718D01*
X0740710Y0226470D01*
X0740710Y0234704D01*
X0739984Y0236457D01*
X0738643Y0237798D01*
X0736890Y0238524D01*
X0734993Y0238524D01*
X0733240Y0237798D01*
X0731899Y0236457D01*
X0731173Y0234704D01*
X0731173Y0226470D01*
X0731899Y0224718D01*
X0733240Y0223376D01*
X0734993Y0222650D01*
X0737545Y0222922D02*
X0750353Y0222922D01*
X0750353Y0224520D02*
X0739787Y0224520D01*
X0740564Y0226119D02*
X0750353Y0226119D01*
X0750353Y0227717D02*
X0740710Y0227717D01*
X0740710Y0229316D02*
X0750353Y0229316D01*
X0750353Y0230914D02*
X0740710Y0230914D01*
X0740710Y0232513D02*
X0750353Y0232513D01*
X0750353Y0234111D02*
X0740710Y0234111D01*
X0740294Y0235710D02*
X0750353Y0235710D01*
X0750353Y0237308D02*
X0739133Y0237308D01*
X0732750Y0237308D02*
X0723657Y0237308D01*
X0723657Y0235710D02*
X0731590Y0235710D01*
X0731173Y0234111D02*
X0723657Y0234111D01*
X0723657Y0232513D02*
X0731173Y0232513D01*
X0731173Y0230914D02*
X0723657Y0230914D01*
X0723657Y0229316D02*
X0731173Y0229316D01*
X0731173Y0227717D02*
X0723657Y0227717D01*
X0723657Y0226119D02*
X0731319Y0226119D01*
X0732097Y0224520D02*
X0723657Y0224520D01*
X0718857Y0224520D02*
X0715783Y0224520D01*
X0715783Y0222922D02*
X0718857Y0222922D01*
X0718857Y0221323D02*
X0715783Y0221323D01*
X0715783Y0219725D02*
X0718857Y0219725D01*
X0718857Y0218126D02*
X0715783Y0218126D01*
X0715783Y0216528D02*
X0718857Y0216528D01*
X0718857Y0214929D02*
X0715783Y0214929D01*
X0715783Y0213331D02*
X0718857Y0213331D01*
X0718857Y0211732D02*
X0715783Y0211732D01*
X0715783Y0210134D02*
X0718857Y0210134D01*
X0718857Y0208535D02*
X0715783Y0208535D01*
X0715783Y0206937D02*
X0718857Y0206937D01*
X0718857Y0205338D02*
X0715783Y0205338D01*
X0715783Y0203740D02*
X0718857Y0203740D01*
X0718857Y0202141D02*
X0715783Y0202141D01*
X0715783Y0200543D02*
X0718857Y0200543D01*
X0718857Y0198944D02*
X0715783Y0198944D01*
X0715783Y0197346D02*
X0718857Y0197346D01*
X0718857Y0195747D02*
X0715783Y0195747D01*
X0715783Y0194149D02*
X0718857Y0194149D01*
X0718857Y0192550D02*
X0715783Y0192550D01*
X0715783Y0190952D02*
X0718857Y0190952D01*
X0718857Y0189353D02*
X0715783Y0189353D01*
X0715783Y0187754D02*
X0718857Y0187754D01*
X0718857Y0186803D02*
X0719222Y0185921D01*
X0719897Y0185246D01*
X0743542Y0161601D01*
X0743542Y0119813D01*
X0743240Y0119688D01*
X0741899Y0118347D01*
X0741173Y0116594D01*
X0741173Y0108360D01*
X0741735Y0107003D01*
X0732590Y0107003D01*
X0731708Y0106638D01*
X0729064Y0103994D01*
X0711868Y0086797D01*
X0711502Y0085915D01*
X0711502Y0079088D01*
X0710490Y0080100D01*
X0706514Y0080100D01*
X0705502Y0079088D01*
X0705502Y0081518D01*
X0715417Y0091433D01*
X0728291Y0104307D01*
X0728657Y0105189D01*
X0728657Y0144511D01*
X0728958Y0144636D01*
X0730299Y0145978D01*
X0731025Y0147730D01*
X0731025Y0155964D01*
X0730299Y0157717D01*
X0728958Y0159058D01*
X0728657Y0159183D01*
X0728657Y0170947D01*
X0728291Y0171829D01*
X0715783Y0184337D01*
X0715783Y0254687D01*
X0715417Y0255569D01*
X0709512Y0261474D01*
X0709512Y0261474D01*
X0705581Y0265405D01*
X0705581Y0268177D01*
X0706593Y0267165D01*
X0710569Y0267165D01*
X0711681Y0268277D01*
X0711681Y0264845D01*
X0712046Y0263963D01*
X0715960Y0260049D01*
X0718857Y0257152D01*
X0718857Y0186803D01*
X0719125Y0186156D02*
X0715783Y0186156D01*
X0715783Y0184557D02*
X0720585Y0184557D01*
X0722184Y0182959D02*
X0717161Y0182959D01*
X0718760Y0181360D02*
X0723782Y0181360D01*
X0725381Y0179762D02*
X0720358Y0179762D01*
X0721957Y0178163D02*
X0726979Y0178163D01*
X0728578Y0176565D02*
X0723555Y0176565D01*
X0725154Y0174966D02*
X0730176Y0174966D01*
X0731775Y0173368D02*
X0726752Y0173368D01*
X0728316Y0171769D02*
X0733373Y0171769D01*
X0734972Y0170171D02*
X0728657Y0170171D01*
X0728657Y0168572D02*
X0736570Y0168572D01*
X0738169Y0166974D02*
X0728657Y0166974D01*
X0728657Y0165375D02*
X0739767Y0165375D01*
X0741366Y0163777D02*
X0728657Y0163777D01*
X0728657Y0162178D02*
X0742964Y0162178D01*
X0743542Y0160580D02*
X0728657Y0160580D01*
X0729035Y0158981D02*
X0743542Y0158981D01*
X0743542Y0157383D02*
X0730437Y0157383D01*
X0731025Y0155784D02*
X0743542Y0155784D01*
X0743542Y0154186D02*
X0731025Y0154186D01*
X0731025Y0152587D02*
X0743542Y0152587D01*
X0743542Y0150989D02*
X0731025Y0150989D01*
X0731025Y0149390D02*
X0743542Y0149390D01*
X0743542Y0147792D02*
X0731025Y0147792D01*
X0730388Y0146193D02*
X0743542Y0146193D01*
X0743542Y0144595D02*
X0728857Y0144595D01*
X0728657Y0142996D02*
X0743542Y0142996D01*
X0743542Y0141398D02*
X0728657Y0141398D01*
X0728657Y0139799D02*
X0743542Y0139799D01*
X0743542Y0138201D02*
X0728657Y0138201D01*
X0728657Y0136602D02*
X0743542Y0136602D01*
X0743542Y0135004D02*
X0728657Y0135004D01*
X0728657Y0133405D02*
X0743542Y0133405D01*
X0743542Y0131807D02*
X0728657Y0131807D01*
X0728657Y0130208D02*
X0743542Y0130208D01*
X0743542Y0128610D02*
X0728657Y0128610D01*
X0728657Y0127011D02*
X0743542Y0127011D01*
X0743542Y0125413D02*
X0728657Y0125413D01*
X0728657Y0123814D02*
X0743542Y0123814D01*
X0743542Y0122216D02*
X0728657Y0122216D01*
X0728657Y0120617D02*
X0743542Y0120617D01*
X0742571Y0119018D02*
X0728657Y0119018D01*
X0728657Y0117420D02*
X0741515Y0117420D01*
X0741173Y0115821D02*
X0728657Y0115821D01*
X0728657Y0114223D02*
X0741173Y0114223D01*
X0741173Y0112624D02*
X0728657Y0112624D01*
X0728657Y0111026D02*
X0741173Y0111026D01*
X0741173Y0109427D02*
X0728657Y0109427D01*
X0728657Y0107829D02*
X0741393Y0107829D01*
X0744879Y0104603D02*
X0733068Y0104603D01*
X0731099Y0102635D01*
X0733068Y0104603D01*
X0731301Y0106230D02*
X0728657Y0106230D01*
X0728426Y0104632D02*
X0729702Y0104632D01*
X0728104Y0103033D02*
X0727018Y0103033D01*
X0726505Y0101435D02*
X0725419Y0101435D01*
X0724907Y0099836D02*
X0723821Y0099836D01*
X0723308Y0098238D02*
X0722222Y0098238D01*
X0721710Y0096639D02*
X0720624Y0096639D01*
X0720111Y0095041D02*
X0719025Y0095041D01*
X0718513Y0093442D02*
X0717427Y0093442D01*
X0716914Y0091844D02*
X0715828Y0091844D01*
X0715316Y0090245D02*
X0714230Y0090245D01*
X0713717Y0088647D02*
X0712631Y0088647D01*
X0712119Y0087048D02*
X0711033Y0087048D01*
X0711502Y0085450D02*
X0709434Y0085450D01*
X0707836Y0083851D02*
X0711502Y0083851D01*
X0711502Y0082253D02*
X0706237Y0082253D01*
X0705502Y0080654D02*
X0711502Y0080654D01*
X0716302Y0080654D02*
X0722402Y0080654D01*
X0721390Y0080100D02*
X0722402Y0079088D01*
X0722402Y0088941D01*
X0722768Y0089823D01*
X0734970Y0102026D01*
X0735148Y0102203D01*
X0734062Y0102203D01*
X0732459Y0100600D01*
X0716302Y0084444D01*
X0716302Y0078988D01*
X0717414Y0080100D01*
X0721390Y0080100D01*
X0722402Y0082253D02*
X0716302Y0082253D01*
X0716302Y0083851D02*
X0722402Y0083851D01*
X0722402Y0085450D02*
X0717308Y0085450D01*
X0718907Y0087048D02*
X0722402Y0087048D01*
X0722402Y0088647D02*
X0720505Y0088647D01*
X0722104Y0090245D02*
X0723190Y0090245D01*
X0723702Y0091844D02*
X0724788Y0091844D01*
X0725301Y0093442D02*
X0726387Y0093442D01*
X0726899Y0095041D02*
X0727985Y0095041D01*
X0728498Y0096639D02*
X0729584Y0096639D01*
X0730096Y0098238D02*
X0731182Y0098238D01*
X0731695Y0099836D02*
X0732781Y0099836D01*
X0733293Y0101435D02*
X0734379Y0101435D01*
X0731099Y0102635D02*
X0713902Y0085438D01*
X0713902Y0065300D01*
X0710942Y0061472D02*
X0706063Y0061472D01*
X0707661Y0063071D02*
X0709343Y0063071D01*
X0709102Y0064669D02*
X0707902Y0064669D01*
X0707902Y0066268D02*
X0709102Y0066268D01*
X0709680Y0067866D02*
X0707324Y0067866D01*
X0705726Y0069465D02*
X0711279Y0069465D01*
X0711054Y0071063D02*
X0711502Y0071063D01*
X0705951Y0071063D02*
X0705502Y0071063D01*
X0700702Y0071063D02*
X0700154Y0071063D01*
X0700479Y0069465D02*
X0694826Y0069465D01*
X0694602Y0071063D02*
X0695051Y0071063D01*
X0696424Y0067866D02*
X0698880Y0067866D01*
X0698302Y0066268D02*
X0697002Y0066268D01*
X0697002Y0064669D02*
X0698302Y0064669D01*
X0698543Y0063071D02*
X0696761Y0063071D01*
X0695163Y0061472D02*
X0700142Y0061472D01*
X0703102Y0065300D02*
X0703102Y0082512D01*
X0713383Y0092792D01*
X0726257Y0105666D01*
X0726257Y0151847D01*
X0726257Y0170469D01*
X0713383Y0183343D01*
X0713383Y0254209D01*
X0707477Y0260115D01*
X0703181Y0264411D01*
X0703181Y0281965D01*
X0707981Y0282067D02*
X0709281Y0282067D01*
X0709281Y0283665D02*
X0707981Y0283665D01*
X0706671Y0285264D02*
X0710591Y0285264D01*
X0714081Y0281965D02*
X0714081Y0265322D01*
X0717320Y0262083D01*
X0721257Y0258146D01*
X0721257Y0187280D01*
X0745942Y0162595D01*
X0745942Y0112477D01*
X0745942Y0105666D01*
X0744879Y0104603D01*
X0723857Y0106660D02*
X0712023Y0094827D01*
X0701068Y0083871D01*
X0700702Y0082989D01*
X0700702Y0078988D01*
X0699590Y0080100D01*
X0695614Y0080100D01*
X0694602Y0079088D01*
X0694602Y0082429D01*
X0695057Y0082883D01*
X0698606Y0086433D01*
X0698972Y0087315D01*
X0698972Y0105141D01*
X0699273Y0105266D01*
X0700614Y0106608D01*
X0701340Y0108360D01*
X0701340Y0116594D01*
X0700614Y0118347D01*
X0699273Y0119688D01*
X0698972Y0119813D01*
X0698972Y0173412D01*
X0706868Y0181309D01*
X0707543Y0181984D01*
X0707909Y0182866D01*
X0707909Y0250750D01*
X0707543Y0251632D01*
X0699669Y0259506D01*
X0694681Y0264494D01*
X0694681Y0268177D01*
X0695693Y0267165D01*
X0699669Y0267165D01*
X0700781Y0268277D01*
X0700781Y0263934D01*
X0701146Y0263052D01*
X0706118Y0258080D01*
X0710983Y0253215D01*
X0710983Y0182866D01*
X0711348Y0181984D01*
X0712023Y0181309D01*
X0723857Y0169475D01*
X0723857Y0159183D01*
X0723555Y0159058D01*
X0722214Y0157717D01*
X0721488Y0155964D01*
X0721488Y0147730D01*
X0722214Y0145978D01*
X0723555Y0144636D01*
X0723857Y0144511D01*
X0723857Y0106660D01*
X0723427Y0106230D02*
X0700237Y0106230D01*
X0701120Y0107829D02*
X0723857Y0107829D01*
X0723857Y0109427D02*
X0701340Y0109427D01*
X0701340Y0111026D02*
X0723857Y0111026D01*
X0723857Y0112624D02*
X0701340Y0112624D01*
X0701340Y0114223D02*
X0723857Y0114223D01*
X0723857Y0115821D02*
X0701340Y0115821D01*
X0700998Y0117420D02*
X0723857Y0117420D01*
X0723857Y0119018D02*
X0699942Y0119018D01*
X0698972Y0120617D02*
X0723857Y0120617D01*
X0723857Y0122216D02*
X0698972Y0122216D01*
X0698972Y0123814D02*
X0723857Y0123814D01*
X0723857Y0125413D02*
X0698972Y0125413D01*
X0698972Y0127011D02*
X0723857Y0127011D01*
X0723857Y0128610D02*
X0698972Y0128610D01*
X0698972Y0130208D02*
X0723857Y0130208D01*
X0723857Y0131807D02*
X0698972Y0131807D01*
X0698972Y0133405D02*
X0723857Y0133405D01*
X0723857Y0135004D02*
X0698972Y0135004D01*
X0698972Y0136602D02*
X0723857Y0136602D01*
X0723857Y0138201D02*
X0698972Y0138201D01*
X0698972Y0139799D02*
X0723857Y0139799D01*
X0723857Y0141398D02*
X0698972Y0141398D01*
X0698972Y0142996D02*
X0723857Y0142996D01*
X0723656Y0144595D02*
X0698972Y0144595D01*
X0698972Y0146193D02*
X0722125Y0146193D01*
X0721488Y0147792D02*
X0698972Y0147792D01*
X0698972Y0149390D02*
X0721488Y0149390D01*
X0721488Y0150989D02*
X0698972Y0150989D01*
X0698972Y0152587D02*
X0721488Y0152587D01*
X0721488Y0154186D02*
X0698972Y0154186D01*
X0698972Y0155784D02*
X0721488Y0155784D01*
X0722076Y0157383D02*
X0698972Y0157383D01*
X0698972Y0158981D02*
X0723478Y0158981D01*
X0723857Y0160580D02*
X0698972Y0160580D01*
X0698972Y0162178D02*
X0723857Y0162178D01*
X0723857Y0163777D02*
X0698972Y0163777D01*
X0698972Y0165375D02*
X0723857Y0165375D01*
X0723857Y0166974D02*
X0698972Y0166974D01*
X0698972Y0168572D02*
X0723857Y0168572D01*
X0723161Y0170171D02*
X0698972Y0170171D01*
X0698972Y0171769D02*
X0721562Y0171769D01*
X0719964Y0173368D02*
X0698972Y0173368D01*
X0700526Y0174966D02*
X0718365Y0174966D01*
X0716767Y0176565D02*
X0702124Y0176565D01*
X0703723Y0178163D02*
X0715168Y0178163D01*
X0713570Y0179762D02*
X0705321Y0179762D01*
X0706920Y0181360D02*
X0711971Y0181360D01*
X0710983Y0182959D02*
X0707909Y0182959D01*
X0707909Y0184557D02*
X0710983Y0184557D01*
X0710983Y0186156D02*
X0707909Y0186156D01*
X0707909Y0187754D02*
X0710983Y0187754D01*
X0710983Y0189353D02*
X0707909Y0189353D01*
X0707909Y0190952D02*
X0710983Y0190952D01*
X0710983Y0192550D02*
X0707909Y0192550D01*
X0707909Y0194149D02*
X0710983Y0194149D01*
X0710983Y0195747D02*
X0707909Y0195747D01*
X0707909Y0197346D02*
X0710983Y0197346D01*
X0710983Y0198944D02*
X0707909Y0198944D01*
X0707909Y0200543D02*
X0710983Y0200543D01*
X0710983Y0202141D02*
X0707909Y0202141D01*
X0707909Y0203740D02*
X0710983Y0203740D01*
X0710983Y0205338D02*
X0707909Y0205338D01*
X0707909Y0206937D02*
X0710983Y0206937D01*
X0710983Y0208535D02*
X0707909Y0208535D01*
X0707909Y0210134D02*
X0710983Y0210134D01*
X0710983Y0211732D02*
X0707909Y0211732D01*
X0707909Y0213331D02*
X0710983Y0213331D01*
X0710983Y0214929D02*
X0707909Y0214929D01*
X0707909Y0216528D02*
X0710983Y0216528D01*
X0710983Y0218126D02*
X0707909Y0218126D01*
X0707909Y0219725D02*
X0710983Y0219725D01*
X0710983Y0221323D02*
X0707909Y0221323D01*
X0707909Y0222922D02*
X0710983Y0222922D01*
X0710983Y0224520D02*
X0707909Y0224520D01*
X0707909Y0226119D02*
X0710983Y0226119D01*
X0710983Y0227717D02*
X0707909Y0227717D01*
X0707909Y0229316D02*
X0710983Y0229316D01*
X0710983Y0230914D02*
X0707909Y0230914D01*
X0707909Y0232513D02*
X0710983Y0232513D01*
X0710983Y0234111D02*
X0707909Y0234111D01*
X0707909Y0235710D02*
X0710983Y0235710D01*
X0710983Y0237308D02*
X0707909Y0237308D01*
X0707909Y0238907D02*
X0710983Y0238907D01*
X0710983Y0240505D02*
X0707909Y0240505D01*
X0707909Y0242104D02*
X0710983Y0242104D01*
X0710983Y0243702D02*
X0707909Y0243702D01*
X0707909Y0245301D02*
X0710983Y0245301D01*
X0710983Y0246899D02*
X0707909Y0246899D01*
X0707909Y0248498D02*
X0710983Y0248498D01*
X0710983Y0250096D02*
X0707909Y0250096D01*
X0707480Y0251695D02*
X0710983Y0251695D01*
X0710904Y0253293D02*
X0705882Y0253293D01*
X0704283Y0254892D02*
X0709306Y0254892D01*
X0707707Y0256490D02*
X0702685Y0256490D01*
X0701086Y0258089D02*
X0706109Y0258089D01*
X0706118Y0258080D02*
X0706118Y0258080D01*
X0704510Y0259687D02*
X0699488Y0259687D01*
X0697889Y0261286D02*
X0702912Y0261286D01*
X0701313Y0262885D02*
X0696291Y0262885D01*
X0694692Y0264483D02*
X0700781Y0264483D01*
X0700781Y0266082D02*
X0694681Y0266082D01*
X0694681Y0267680D02*
X0695178Y0267680D01*
X0700184Y0267680D02*
X0700781Y0267680D01*
X0705581Y0267680D02*
X0706078Y0267680D01*
X0705581Y0266082D02*
X0711681Y0266082D01*
X0711681Y0267680D02*
X0711084Y0267680D01*
X0711831Y0264483D02*
X0706503Y0264483D01*
X0708102Y0262885D02*
X0713124Y0262885D01*
X0714723Y0261286D02*
X0709700Y0261286D01*
X0711299Y0259687D02*
X0716321Y0259687D01*
X0717920Y0258089D02*
X0712897Y0258089D01*
X0714496Y0256490D02*
X0718857Y0256490D01*
X0718857Y0254892D02*
X0715698Y0254892D01*
X0715783Y0253293D02*
X0718857Y0253293D01*
X0718857Y0251695D02*
X0715783Y0251695D01*
X0715783Y0250096D02*
X0718857Y0250096D01*
X0718857Y0248498D02*
X0715783Y0248498D01*
X0715783Y0246899D02*
X0718857Y0246899D01*
X0718857Y0245301D02*
X0715783Y0245301D01*
X0715783Y0243702D02*
X0718857Y0243702D01*
X0718857Y0242104D02*
X0715783Y0242104D01*
X0715783Y0240505D02*
X0718857Y0240505D01*
X0718857Y0238907D02*
X0715783Y0238907D01*
X0715783Y0237308D02*
X0718857Y0237308D01*
X0718857Y0235710D02*
X0715783Y0235710D01*
X0715783Y0234111D02*
X0718857Y0234111D01*
X0718857Y0232513D02*
X0715783Y0232513D01*
X0715783Y0230914D02*
X0718857Y0230914D01*
X0718857Y0229316D02*
X0715783Y0229316D01*
X0715783Y0227717D02*
X0718857Y0227717D01*
X0718857Y0226119D02*
X0715783Y0226119D01*
X0703109Y0226119D02*
X0701194Y0226119D01*
X0701340Y0226470D02*
X0700614Y0224718D01*
X0699273Y0223376D01*
X0697520Y0222650D01*
X0695623Y0222650D01*
X0693870Y0223376D01*
X0692529Y0224718D01*
X0691803Y0226470D01*
X0691803Y0234704D01*
X0692529Y0236457D01*
X0693870Y0237798D01*
X0695623Y0238524D01*
X0697520Y0238524D01*
X0699273Y0237798D01*
X0700614Y0236457D01*
X0701340Y0234704D01*
X0701340Y0226470D01*
X0701340Y0227717D02*
X0703109Y0227717D01*
X0703109Y0229316D02*
X0701340Y0229316D01*
X0701340Y0230914D02*
X0703109Y0230914D01*
X0703109Y0232513D02*
X0701340Y0232513D01*
X0701340Y0234111D02*
X0703109Y0234111D01*
X0703109Y0235710D02*
X0700924Y0235710D01*
X0699763Y0237308D02*
X0703109Y0237308D01*
X0703109Y0238907D02*
X0679286Y0238907D01*
X0679286Y0240505D02*
X0703109Y0240505D01*
X0703109Y0242104D02*
X0679286Y0242104D01*
X0679286Y0243702D02*
X0703109Y0243702D01*
X0703109Y0245301D02*
X0679286Y0245301D01*
X0679286Y0246899D02*
X0703109Y0246899D01*
X0703109Y0248498D02*
X0679286Y0248498D01*
X0679286Y0250096D02*
X0702290Y0250096D01*
X0703109Y0249278D02*
X0703109Y0184337D01*
X0694537Y0175766D01*
X0694172Y0174884D01*
X0694172Y0119813D01*
X0693870Y0119688D01*
X0692529Y0118347D01*
X0691803Y0116594D01*
X0691803Y0108360D01*
X0692529Y0106608D01*
X0693870Y0105266D01*
X0694172Y0105141D01*
X0694172Y0088786D01*
X0691663Y0086278D01*
X0690168Y0084782D01*
X0689802Y0083900D01*
X0689802Y0079088D01*
X0688790Y0080100D01*
X0684814Y0080100D01*
X0683702Y0078988D01*
X0683702Y0105665D01*
X0683337Y0106547D01*
X0679309Y0110575D01*
X0679286Y0110597D01*
X0679286Y0144511D01*
X0679588Y0144636D01*
X0680929Y0145978D01*
X0681655Y0147730D01*
X0681655Y0155964D01*
X0680929Y0157717D01*
X0679588Y0159058D01*
X0679286Y0159183D01*
X0679286Y0260026D01*
X0679309Y0260049D01*
X0683416Y0264155D01*
X0683781Y0265038D01*
X0683781Y0268277D01*
X0684893Y0267165D01*
X0688869Y0267165D01*
X0689881Y0268177D01*
X0689881Y0263023D01*
X0690246Y0262141D01*
X0696275Y0256112D01*
X0703109Y0249278D01*
X0705509Y0250272D02*
X0697635Y0258146D01*
X0692281Y0263500D01*
X0692281Y0281965D01*
X0697081Y0282067D02*
X0698381Y0282067D01*
X0698381Y0283665D02*
X0697081Y0283665D01*
X0695771Y0285264D02*
X0699691Y0285264D01*
X0698381Y0280468D02*
X0697081Y0280468D01*
X0695973Y0278870D02*
X0699488Y0278870D01*
X0700781Y0277271D02*
X0694681Y0277271D01*
X0689881Y0277271D02*
X0683781Y0277271D01*
X0683781Y0275673D02*
X0683800Y0275673D01*
X0685073Y0278870D02*
X0688588Y0278870D01*
X0687481Y0280468D02*
X0686181Y0280468D01*
X0686181Y0282067D02*
X0687481Y0282067D01*
X0687481Y0283665D02*
X0686181Y0283665D01*
X0684871Y0285264D02*
X0688791Y0285264D01*
X0681381Y0281965D02*
X0681381Y0265515D01*
X0677949Y0262083D01*
X0676886Y0261020D01*
X0676886Y0151847D01*
X0676886Y0109603D01*
X0677949Y0108540D01*
X0681302Y0105187D01*
X0681302Y0065300D01*
X0678342Y0061472D02*
X0673463Y0061472D01*
X0675061Y0063071D02*
X0676743Y0063071D01*
X0676502Y0064669D02*
X0675302Y0064669D01*
X0675302Y0066268D02*
X0676502Y0066268D01*
X0677080Y0067866D02*
X0674724Y0067866D01*
X0673126Y0069465D02*
X0678679Y0069465D01*
X0678454Y0071063D02*
X0678902Y0071063D01*
X0683702Y0071063D02*
X0684251Y0071063D01*
X0683926Y0069465D02*
X0689579Y0069465D01*
X0689354Y0071063D02*
X0689802Y0071063D01*
X0687980Y0067866D02*
X0685524Y0067866D01*
X0686102Y0066268D02*
X0687402Y0066268D01*
X0687402Y0064669D02*
X0686102Y0064669D01*
X0685861Y0063071D02*
X0687643Y0063071D01*
X0689242Y0061472D02*
X0684263Y0061472D01*
X0692202Y0065300D02*
X0692202Y0083423D01*
X0693698Y0084918D01*
X0696572Y0087792D01*
X0696572Y0112477D01*
X0696572Y0174406D01*
X0705509Y0183343D01*
X0705509Y0250272D01*
X0700692Y0251695D02*
X0679286Y0251695D01*
X0679286Y0253293D02*
X0699093Y0253293D01*
X0697495Y0254892D02*
X0679286Y0254892D01*
X0679286Y0256490D02*
X0695896Y0256490D01*
X0694298Y0258089D02*
X0679286Y0258089D01*
X0679286Y0259687D02*
X0692699Y0259687D01*
X0691101Y0261286D02*
X0680546Y0261286D01*
X0682145Y0262885D02*
X0689938Y0262885D01*
X0689881Y0264483D02*
X0683551Y0264483D01*
X0683781Y0266082D02*
X0689881Y0266082D01*
X0689881Y0267680D02*
X0689384Y0267680D01*
X0684378Y0267680D02*
X0683781Y0267680D01*
X0678981Y0267680D02*
X0678484Y0267680D01*
X0678981Y0268177D02*
X0678981Y0266509D01*
X0675915Y0263443D01*
X0674852Y0262380D01*
X0674486Y0261498D01*
X0674486Y0159183D01*
X0674185Y0159058D01*
X0672844Y0157717D01*
X0672118Y0155964D01*
X0672118Y0147730D01*
X0672844Y0145978D01*
X0674185Y0144636D01*
X0674486Y0144511D01*
X0674486Y0109126D01*
X0674852Y0108244D01*
X0675527Y0107569D01*
X0675915Y0107181D01*
X0675915Y0107181D01*
X0678902Y0104193D01*
X0678902Y0079088D01*
X0677890Y0080100D01*
X0673914Y0080100D01*
X0672902Y0079088D01*
X0672902Y0092843D01*
X0672537Y0093725D01*
X0667498Y0098764D01*
X0660449Y0105813D01*
X0661244Y0106608D01*
X0661970Y0108360D01*
X0661970Y0116594D01*
X0661244Y0118347D01*
X0659903Y0119688D01*
X0659601Y0119813D01*
X0659601Y0177349D01*
X0667498Y0185246D01*
X0672616Y0190363D01*
X0672981Y0191245D01*
X0672981Y0268177D01*
X0673993Y0267165D01*
X0677969Y0267165D01*
X0678981Y0268177D01*
X0678553Y0266082D02*
X0672981Y0266082D01*
X0672981Y0267680D02*
X0673478Y0267680D01*
X0672981Y0264483D02*
X0676955Y0264483D01*
X0675356Y0262885D02*
X0672981Y0262885D01*
X0672981Y0261286D02*
X0674486Y0261286D01*
X0674486Y0259687D02*
X0672981Y0259687D01*
X0672981Y0258089D02*
X0674486Y0258089D01*
X0674486Y0256490D02*
X0672981Y0256490D01*
X0672981Y0254892D02*
X0674486Y0254892D01*
X0674486Y0253293D02*
X0672981Y0253293D01*
X0672981Y0251695D02*
X0674486Y0251695D01*
X0674486Y0250096D02*
X0672981Y0250096D01*
X0672981Y0248498D02*
X0674486Y0248498D01*
X0674486Y0246899D02*
X0672981Y0246899D01*
X0672981Y0245301D02*
X0674486Y0245301D01*
X0674486Y0243702D02*
X0672981Y0243702D01*
X0672981Y0242104D02*
X0674486Y0242104D01*
X0674486Y0240505D02*
X0672981Y0240505D01*
X0672981Y0238907D02*
X0674486Y0238907D01*
X0674486Y0237308D02*
X0672981Y0237308D01*
X0672981Y0235710D02*
X0674486Y0235710D01*
X0674486Y0234111D02*
X0672981Y0234111D01*
X0672981Y0232513D02*
X0674486Y0232513D01*
X0674486Y0230914D02*
X0672981Y0230914D01*
X0672981Y0229316D02*
X0674486Y0229316D01*
X0674486Y0227717D02*
X0672981Y0227717D01*
X0672981Y0226119D02*
X0674486Y0226119D01*
X0674486Y0224520D02*
X0672981Y0224520D01*
X0672981Y0222922D02*
X0674486Y0222922D01*
X0674486Y0221323D02*
X0672981Y0221323D01*
X0672981Y0219725D02*
X0674486Y0219725D01*
X0674486Y0218126D02*
X0672981Y0218126D01*
X0672981Y0216528D02*
X0674486Y0216528D01*
X0674486Y0214929D02*
X0672981Y0214929D01*
X0672981Y0213331D02*
X0674486Y0213331D01*
X0674486Y0211732D02*
X0672981Y0211732D01*
X0672981Y0210134D02*
X0674486Y0210134D01*
X0674486Y0208535D02*
X0672981Y0208535D01*
X0672981Y0206937D02*
X0674486Y0206937D01*
X0674486Y0205338D02*
X0672981Y0205338D01*
X0672981Y0203740D02*
X0674486Y0203740D01*
X0674486Y0202141D02*
X0672981Y0202141D01*
X0672981Y0200543D02*
X0674486Y0200543D01*
X0674486Y0198944D02*
X0672981Y0198944D01*
X0672981Y0197346D02*
X0674486Y0197346D01*
X0674486Y0195747D02*
X0672981Y0195747D01*
X0672981Y0194149D02*
X0674486Y0194149D01*
X0674486Y0192550D02*
X0672981Y0192550D01*
X0672859Y0190952D02*
X0674486Y0190952D01*
X0674486Y0189353D02*
X0671605Y0189353D01*
X0670007Y0187754D02*
X0674486Y0187754D01*
X0674486Y0186156D02*
X0668408Y0186156D01*
X0666810Y0184557D02*
X0674486Y0184557D01*
X0674486Y0182959D02*
X0665211Y0182959D01*
X0663613Y0181360D02*
X0674486Y0181360D01*
X0674486Y0179762D02*
X0662014Y0179762D01*
X0660416Y0178163D02*
X0674486Y0178163D01*
X0674486Y0176565D02*
X0659601Y0176565D01*
X0659601Y0174966D02*
X0674486Y0174966D01*
X0674486Y0173368D02*
X0659601Y0173368D01*
X0659601Y0171769D02*
X0674486Y0171769D01*
X0674486Y0170171D02*
X0659601Y0170171D01*
X0659601Y0168572D02*
X0674486Y0168572D01*
X0674486Y0166974D02*
X0659601Y0166974D01*
X0659601Y0165375D02*
X0674486Y0165375D01*
X0674486Y0163777D02*
X0659601Y0163777D01*
X0659601Y0162178D02*
X0674486Y0162178D01*
X0674486Y0160580D02*
X0659601Y0160580D01*
X0659601Y0158981D02*
X0674108Y0158981D01*
X0672706Y0157383D02*
X0659601Y0157383D01*
X0659601Y0155784D02*
X0672118Y0155784D01*
X0672118Y0154186D02*
X0659601Y0154186D01*
X0659601Y0152587D02*
X0672118Y0152587D01*
X0672118Y0150989D02*
X0659601Y0150989D01*
X0659601Y0149390D02*
X0672118Y0149390D01*
X0672118Y0147792D02*
X0659601Y0147792D01*
X0659601Y0146193D02*
X0672755Y0146193D01*
X0674286Y0144595D02*
X0659601Y0144595D01*
X0659601Y0142996D02*
X0674486Y0142996D01*
X0674486Y0141398D02*
X0659601Y0141398D01*
X0659601Y0139799D02*
X0674486Y0139799D01*
X0674486Y0138201D02*
X0659601Y0138201D01*
X0659601Y0136602D02*
X0674486Y0136602D01*
X0674486Y0135004D02*
X0659601Y0135004D01*
X0659601Y0133405D02*
X0674486Y0133405D01*
X0674486Y0131807D02*
X0659601Y0131807D01*
X0659601Y0130208D02*
X0674486Y0130208D01*
X0674486Y0128610D02*
X0659601Y0128610D01*
X0659601Y0127011D02*
X0674486Y0127011D01*
X0674486Y0125413D02*
X0659601Y0125413D01*
X0659601Y0123814D02*
X0674486Y0123814D01*
X0674486Y0122216D02*
X0659601Y0122216D01*
X0659601Y0120617D02*
X0674486Y0120617D01*
X0674486Y0119018D02*
X0660572Y0119018D01*
X0661628Y0117420D02*
X0674486Y0117420D01*
X0674486Y0115821D02*
X0661970Y0115821D01*
X0661970Y0114223D02*
X0674486Y0114223D01*
X0674486Y0112624D02*
X0661970Y0112624D01*
X0661970Y0111026D02*
X0674486Y0111026D01*
X0674486Y0109427D02*
X0661970Y0109427D01*
X0661750Y0107829D02*
X0675267Y0107829D01*
X0675527Y0107569D02*
X0675527Y0107569D01*
X0676865Y0106230D02*
X0660867Y0106230D01*
X0661630Y0104632D02*
X0678464Y0104632D01*
X0678902Y0103033D02*
X0663228Y0103033D01*
X0664827Y0101435D02*
X0678902Y0101435D01*
X0678902Y0099836D02*
X0666425Y0099836D01*
X0667498Y0098764D02*
X0667498Y0098764D01*
X0668024Y0098238D02*
X0678902Y0098238D01*
X0678902Y0096639D02*
X0669622Y0096639D01*
X0671221Y0095041D02*
X0678902Y0095041D01*
X0678902Y0093442D02*
X0672654Y0093442D01*
X0672902Y0091844D02*
X0678902Y0091844D01*
X0678902Y0090245D02*
X0672902Y0090245D01*
X0672902Y0088647D02*
X0678902Y0088647D01*
X0678902Y0087048D02*
X0672902Y0087048D01*
X0672902Y0085450D02*
X0678902Y0085450D01*
X0678902Y0083851D02*
X0672902Y0083851D01*
X0672902Y0082253D02*
X0678902Y0082253D01*
X0678902Y0080654D02*
X0672902Y0080654D01*
X0668102Y0080654D02*
X0662002Y0080654D01*
X0663014Y0080100D02*
X0662002Y0079088D01*
X0662002Y0091932D01*
X0661637Y0092814D01*
X0657655Y0096795D01*
X0639916Y0114534D01*
X0639916Y0144511D01*
X0640218Y0144636D01*
X0641559Y0145978D01*
X0642285Y0147730D01*
X0642285Y0155964D01*
X0641559Y0157717D01*
X0640218Y0159058D01*
X0639916Y0159183D01*
X0639916Y0240341D01*
X0655687Y0256112D01*
X0661716Y0262141D01*
X0662081Y0263023D01*
X0662081Y0268177D01*
X0663093Y0267165D01*
X0667069Y0267165D01*
X0668181Y0268277D01*
X0668181Y0192717D01*
X0664104Y0188640D01*
X0661550Y0186086D01*
X0661970Y0187100D01*
X0661970Y0195334D01*
X0661244Y0197087D01*
X0659903Y0198428D01*
X0658150Y0199154D01*
X0656253Y0199154D01*
X0654500Y0198428D01*
X0653159Y0197087D01*
X0652433Y0195334D01*
X0652433Y0187100D01*
X0653159Y0185348D01*
X0654500Y0184006D01*
X0656253Y0183280D01*
X0658150Y0183280D01*
X0659165Y0183701D01*
X0655167Y0179703D01*
X0654801Y0178821D01*
X0654801Y0119813D01*
X0654500Y0119688D01*
X0653159Y0118347D01*
X0652433Y0116594D01*
X0652433Y0108360D01*
X0653159Y0106608D01*
X0654500Y0105266D01*
X0654825Y0105132D01*
X0655167Y0104307D01*
X0655842Y0103632D01*
X0664104Y0095370D01*
X0664104Y0095370D01*
X0668102Y0091371D01*
X0668102Y0078988D01*
X0666990Y0080100D01*
X0663014Y0080100D01*
X0662002Y0082253D02*
X0668102Y0082253D01*
X0668102Y0083851D02*
X0662002Y0083851D01*
X0662002Y0085450D02*
X0668102Y0085450D01*
X0668102Y0087048D02*
X0662002Y0087048D01*
X0662002Y0088647D02*
X0668102Y0088647D01*
X0668102Y0090245D02*
X0662002Y0090245D01*
X0662002Y0091844D02*
X0667630Y0091844D01*
X0666031Y0093442D02*
X0661008Y0093442D01*
X0659410Y0095041D02*
X0664433Y0095041D01*
X0662834Y0096639D02*
X0657811Y0096639D01*
X0656213Y0098238D02*
X0661236Y0098238D01*
X0659637Y0099836D02*
X0654614Y0099836D01*
X0653016Y0101435D02*
X0658039Y0101435D01*
X0656440Y0103033D02*
X0651417Y0103033D01*
X0649819Y0104632D02*
X0655032Y0104632D01*
X0655842Y0103632D02*
X0655842Y0103632D01*
X0657201Y0105666D02*
X0666138Y0096729D01*
X0670502Y0092365D01*
X0670502Y0065300D01*
X0667542Y0061472D02*
X0662563Y0061472D01*
X0664161Y0063071D02*
X0665943Y0063071D01*
X0665702Y0064669D02*
X0664402Y0064669D01*
X0664402Y0066268D02*
X0665702Y0066268D01*
X0666280Y0067866D02*
X0663824Y0067866D01*
X0662226Y0069465D02*
X0667879Y0069465D01*
X0668102Y0071063D02*
X0667554Y0071063D01*
X0662451Y0071063D02*
X0662002Y0071063D01*
X0657202Y0071063D02*
X0656754Y0071063D01*
X0656979Y0069465D02*
X0651326Y0069465D01*
X0651102Y0071063D02*
X0651651Y0071063D01*
X0652924Y0067866D02*
X0655380Y0067866D01*
X0654802Y0066268D02*
X0653502Y0066268D01*
X0653502Y0064669D02*
X0654802Y0064669D01*
X0655043Y0063071D02*
X0653261Y0063071D01*
X0651663Y0061472D02*
X0656642Y0061472D01*
X0659602Y0065300D02*
X0659602Y0091454D01*
X0656296Y0094761D01*
X0658264Y0092792D01*
X0657202Y0090460D02*
X0657202Y0079088D01*
X0656190Y0080100D01*
X0652214Y0080100D01*
X0651102Y0078988D01*
X0651102Y0083147D01*
X0650737Y0084029D01*
X0647813Y0086953D01*
X0644551Y0090215D01*
X0638645Y0096120D01*
X0636002Y0098764D01*
X0635120Y0099129D01*
X0627762Y0099129D01*
X0621079Y0105813D01*
X0621874Y0106608D01*
X0622600Y0108360D01*
X0622600Y0116594D01*
X0621874Y0118347D01*
X0620532Y0119688D01*
X0620231Y0119813D01*
X0620231Y0173412D01*
X0632065Y0185246D01*
X0632740Y0185921D01*
X0633105Y0186803D01*
X0633105Y0245341D01*
X0641907Y0254143D01*
X0650816Y0263052D01*
X0651181Y0263934D01*
X0651181Y0268277D01*
X0652293Y0267165D01*
X0656269Y0267165D01*
X0657281Y0268177D01*
X0657281Y0264494D01*
X0652293Y0259506D01*
X0635482Y0242695D01*
X0635116Y0241813D01*
X0635116Y0159183D01*
X0634815Y0159058D01*
X0633474Y0157717D01*
X0632748Y0155964D01*
X0632748Y0147730D01*
X0633474Y0145978D01*
X0634815Y0144636D01*
X0635116Y0144511D01*
X0635116Y0113063D01*
X0635482Y0112181D01*
X0654261Y0093401D01*
X0657202Y0090460D01*
X0657202Y0090245D02*
X0644520Y0090245D01*
X0642922Y0091844D02*
X0655819Y0091844D01*
X0654220Y0093442D02*
X0641323Y0093442D01*
X0639725Y0095041D02*
X0652622Y0095041D01*
X0651023Y0096639D02*
X0638126Y0096639D01*
X0636528Y0098238D02*
X0649425Y0098238D01*
X0647826Y0099836D02*
X0627055Y0099836D01*
X0625457Y0101435D02*
X0646228Y0101435D01*
X0644629Y0103033D02*
X0623858Y0103033D01*
X0622260Y0104632D02*
X0643031Y0104632D01*
X0641432Y0106230D02*
X0621497Y0106230D01*
X0622380Y0107829D02*
X0639834Y0107829D01*
X0638235Y0109427D02*
X0622600Y0109427D01*
X0622600Y0111026D02*
X0636637Y0111026D01*
X0635298Y0112624D02*
X0622600Y0112624D01*
X0622600Y0114223D02*
X0635116Y0114223D01*
X0635116Y0115821D02*
X0622600Y0115821D01*
X0622258Y0117420D02*
X0635116Y0117420D01*
X0635116Y0119018D02*
X0621202Y0119018D01*
X0620231Y0120617D02*
X0635116Y0120617D01*
X0635116Y0122216D02*
X0620231Y0122216D01*
X0620231Y0123814D02*
X0635116Y0123814D01*
X0635116Y0125413D02*
X0620231Y0125413D01*
X0620231Y0127011D02*
X0635116Y0127011D01*
X0635116Y0128610D02*
X0620231Y0128610D01*
X0620231Y0130208D02*
X0635116Y0130208D01*
X0635116Y0131807D02*
X0620231Y0131807D01*
X0620231Y0133405D02*
X0635116Y0133405D01*
X0635116Y0135004D02*
X0620231Y0135004D01*
X0620231Y0136602D02*
X0635116Y0136602D01*
X0635116Y0138201D02*
X0620231Y0138201D01*
X0620231Y0139799D02*
X0635116Y0139799D01*
X0635116Y0141398D02*
X0620231Y0141398D01*
X0620231Y0142996D02*
X0635116Y0142996D01*
X0634916Y0144595D02*
X0620231Y0144595D01*
X0620231Y0146193D02*
X0633385Y0146193D01*
X0632748Y0147792D02*
X0620231Y0147792D01*
X0620231Y0149390D02*
X0632748Y0149390D01*
X0632748Y0150989D02*
X0620231Y0150989D01*
X0620231Y0152587D02*
X0632748Y0152587D01*
X0632748Y0154186D02*
X0620231Y0154186D01*
X0620231Y0155784D02*
X0632748Y0155784D01*
X0633335Y0157383D02*
X0620231Y0157383D01*
X0620231Y0158981D02*
X0634738Y0158981D01*
X0635116Y0160580D02*
X0620231Y0160580D01*
X0620231Y0162178D02*
X0635116Y0162178D01*
X0635116Y0163777D02*
X0620231Y0163777D01*
X0620231Y0165375D02*
X0635116Y0165375D01*
X0635116Y0166974D02*
X0620231Y0166974D01*
X0620231Y0168572D02*
X0635116Y0168572D01*
X0635116Y0170171D02*
X0620231Y0170171D01*
X0620231Y0171769D02*
X0635116Y0171769D01*
X0635116Y0173368D02*
X0620231Y0173368D01*
X0621786Y0174966D02*
X0635116Y0174966D01*
X0635116Y0176565D02*
X0623384Y0176565D01*
X0624983Y0178163D02*
X0635116Y0178163D01*
X0635116Y0179762D02*
X0626581Y0179762D01*
X0628180Y0181360D02*
X0635116Y0181360D01*
X0635116Y0182959D02*
X0629778Y0182959D01*
X0631377Y0184557D02*
X0635116Y0184557D01*
X0635116Y0186156D02*
X0632837Y0186156D01*
X0633105Y0187754D02*
X0635116Y0187754D01*
X0635116Y0189353D02*
X0633105Y0189353D01*
X0633105Y0190952D02*
X0635116Y0190952D01*
X0635116Y0192550D02*
X0633105Y0192550D01*
X0633105Y0194149D02*
X0635116Y0194149D01*
X0635116Y0195747D02*
X0633105Y0195747D01*
X0633105Y0197346D02*
X0635116Y0197346D01*
X0635116Y0198944D02*
X0633105Y0198944D01*
X0633105Y0200543D02*
X0635116Y0200543D01*
X0635116Y0202141D02*
X0633105Y0202141D01*
X0633105Y0203740D02*
X0635116Y0203740D01*
X0635116Y0205338D02*
X0633105Y0205338D01*
X0633105Y0206937D02*
X0635116Y0206937D01*
X0635116Y0208535D02*
X0633105Y0208535D01*
X0633105Y0210134D02*
X0635116Y0210134D01*
X0635116Y0211732D02*
X0633105Y0211732D01*
X0633105Y0213331D02*
X0635116Y0213331D01*
X0635116Y0214929D02*
X0633105Y0214929D01*
X0633105Y0216528D02*
X0635116Y0216528D01*
X0635116Y0218126D02*
X0633105Y0218126D01*
X0633105Y0219725D02*
X0635116Y0219725D01*
X0635116Y0221323D02*
X0633105Y0221323D01*
X0633105Y0222922D02*
X0635116Y0222922D01*
X0635116Y0224520D02*
X0633105Y0224520D01*
X0633105Y0226119D02*
X0635116Y0226119D01*
X0635116Y0227717D02*
X0633105Y0227717D01*
X0633105Y0229316D02*
X0635116Y0229316D01*
X0635116Y0230914D02*
X0633105Y0230914D01*
X0633105Y0232513D02*
X0635116Y0232513D01*
X0635116Y0234111D02*
X0633105Y0234111D01*
X0633105Y0235710D02*
X0635116Y0235710D01*
X0635116Y0237308D02*
X0633105Y0237308D01*
X0633105Y0238907D02*
X0635116Y0238907D01*
X0635116Y0240505D02*
X0633105Y0240505D01*
X0633105Y0242104D02*
X0635237Y0242104D01*
X0636489Y0243702D02*
X0633105Y0243702D01*
X0633105Y0245301D02*
X0638088Y0245301D01*
X0639686Y0246899D02*
X0634663Y0246899D01*
X0636262Y0248498D02*
X0641285Y0248498D01*
X0642883Y0250096D02*
X0637860Y0250096D01*
X0639459Y0251695D02*
X0644482Y0251695D01*
X0646080Y0253293D02*
X0641057Y0253293D01*
X0642656Y0254892D02*
X0647679Y0254892D01*
X0649277Y0256490D02*
X0644255Y0256490D01*
X0645853Y0258089D02*
X0650876Y0258089D01*
X0652474Y0259687D02*
X0647452Y0259687D01*
X0649050Y0261286D02*
X0654073Y0261286D01*
X0655671Y0262885D02*
X0650649Y0262885D01*
X0651181Y0264483D02*
X0657270Y0264483D01*
X0657281Y0266082D02*
X0651181Y0266082D01*
X0651181Y0267680D02*
X0651778Y0267680D01*
X0648781Y0264411D02*
X0640548Y0256178D01*
X0642516Y0258146D01*
X0640663Y0259687D02*
X0635641Y0259687D01*
X0634042Y0258089D02*
X0639065Y0258089D01*
X0638513Y0257537D02*
X0629168Y0248193D01*
X0629168Y0253215D01*
X0634033Y0258080D01*
X0640016Y0264063D01*
X0640381Y0264945D01*
X0640381Y0268177D01*
X0641393Y0267165D01*
X0645369Y0267165D01*
X0646381Y0268177D01*
X0646381Y0265405D01*
X0638513Y0257537D01*
X0637466Y0256490D02*
X0632443Y0256490D01*
X0630845Y0254892D02*
X0635868Y0254892D01*
X0634269Y0253293D02*
X0629246Y0253293D01*
X0629168Y0251695D02*
X0632671Y0251695D01*
X0631072Y0250096D02*
X0629168Y0250096D01*
X0629168Y0248498D02*
X0629474Y0248498D01*
X0630705Y0246335D02*
X0640548Y0256178D01*
X0642262Y0261286D02*
X0637239Y0261286D01*
X0638838Y0262885D02*
X0643860Y0262885D01*
X0645459Y0264483D02*
X0640190Y0264483D01*
X0640381Y0266082D02*
X0646381Y0266082D01*
X0646381Y0267680D02*
X0645884Y0267680D01*
X0648781Y0264411D02*
X0648781Y0281965D01*
X0653581Y0282067D02*
X0654881Y0282067D01*
X0654881Y0283665D02*
X0653581Y0283665D01*
X0652271Y0285264D02*
X0656191Y0285264D01*
X0659681Y0281965D02*
X0659681Y0263500D01*
X0654327Y0258146D01*
X0637516Y0241335D01*
X0637516Y0151847D01*
X0637516Y0113540D01*
X0656296Y0094761D01*
X0657202Y0088647D02*
X0646119Y0088647D01*
X0647717Y0087048D02*
X0657202Y0087048D01*
X0657202Y0085450D02*
X0649316Y0085450D01*
X0650810Y0083851D02*
X0657202Y0083851D01*
X0657202Y0082253D02*
X0651102Y0082253D01*
X0651102Y0080654D02*
X0657202Y0080654D01*
X0651170Y0079056D02*
X0651102Y0079056D01*
X0648702Y0082669D02*
X0646453Y0084918D01*
X0642516Y0088855D01*
X0636611Y0094761D01*
X0634642Y0096729D01*
X0626768Y0096729D01*
X0617831Y0105666D01*
X0617831Y0112477D01*
X0617831Y0174406D01*
X0630705Y0187280D01*
X0630705Y0246335D01*
X0624368Y0246899D02*
X0611041Y0246899D01*
X0609443Y0245301D02*
X0624368Y0245301D01*
X0624368Y0243702D02*
X0607844Y0243702D01*
X0606246Y0242104D02*
X0624368Y0242104D01*
X0624368Y0240505D02*
X0604647Y0240505D01*
X0603049Y0238907D02*
X0624368Y0238907D01*
X0624368Y0237308D02*
X0621023Y0237308D01*
X0620532Y0237798D02*
X0621874Y0236457D01*
X0622600Y0234704D01*
X0622600Y0226470D01*
X0621874Y0224718D01*
X0620532Y0223376D01*
X0618780Y0222650D01*
X0616883Y0222650D01*
X0615130Y0223376D01*
X0613789Y0224718D01*
X0613063Y0226470D01*
X0613063Y0234704D01*
X0613789Y0236457D01*
X0615130Y0237798D01*
X0616883Y0238524D01*
X0618780Y0238524D01*
X0620532Y0237798D01*
X0622183Y0235710D02*
X0624368Y0235710D01*
X0624368Y0234111D02*
X0622600Y0234111D01*
X0622600Y0232513D02*
X0624368Y0232513D01*
X0624368Y0230914D02*
X0622600Y0230914D01*
X0622600Y0229316D02*
X0624368Y0229316D01*
X0624368Y0227717D02*
X0622600Y0227717D01*
X0622454Y0226119D02*
X0624368Y0226119D01*
X0624368Y0224520D02*
X0621676Y0224520D01*
X0619435Y0222922D02*
X0624368Y0222922D01*
X0624368Y0221323D02*
X0597672Y0221323D01*
X0597672Y0221719D02*
X0600569Y0224616D01*
X0601244Y0225291D01*
X0601609Y0226173D01*
X0601609Y0237467D01*
X0620254Y0256112D01*
X0629116Y0264974D01*
X0629481Y0265856D01*
X0629481Y0268177D01*
X0630493Y0267165D01*
X0634469Y0267165D01*
X0635581Y0268277D01*
X0635581Y0266416D01*
X0630639Y0261474D01*
X0624734Y0255569D01*
X0624368Y0254687D01*
X0624368Y0219770D01*
X0601112Y0196514D01*
X0600746Y0195632D01*
X0600746Y0180400D01*
X0596112Y0175766D01*
X0595746Y0174884D01*
X0595746Y0159183D01*
X0595445Y0159058D01*
X0594104Y0157717D01*
X0593378Y0155964D01*
X0593378Y0147730D01*
X0594104Y0145978D01*
X0595445Y0144636D01*
X0595746Y0144511D01*
X0595746Y0112000D01*
X0596112Y0111118D01*
X0615974Y0091255D01*
X0612014Y0091255D01*
X0601244Y0102026D01*
X0600569Y0102701D01*
X0599687Y0103066D01*
X0591266Y0103066D01*
X0583230Y0111103D01*
X0583230Y0116594D01*
X0582504Y0118347D01*
X0581162Y0119688D01*
X0580861Y0119813D01*
X0580861Y0161601D01*
X0596632Y0177372D01*
X0597307Y0178047D01*
X0597672Y0178929D01*
X0597672Y0221719D01*
X0598875Y0222922D02*
X0616228Y0222922D01*
X0613986Y0224520D02*
X0600473Y0224520D01*
X0600569Y0224616D02*
X0600569Y0224616D01*
X0601587Y0226119D02*
X0613209Y0226119D01*
X0613063Y0227717D02*
X0601609Y0227717D01*
X0601609Y0229316D02*
X0613063Y0229316D01*
X0613063Y0230914D02*
X0601609Y0230914D01*
X0601609Y0232513D02*
X0613063Y0232513D01*
X0613063Y0234111D02*
X0601609Y0234111D01*
X0601609Y0235710D02*
X0613479Y0235710D01*
X0614640Y0237308D02*
X0601609Y0237308D01*
X0599209Y0238461D02*
X0618894Y0258146D01*
X0627081Y0266333D01*
X0627081Y0281965D01*
X0631881Y0282067D02*
X0633181Y0282067D01*
X0633181Y0283665D02*
X0631881Y0283665D01*
X0630571Y0285264D02*
X0634491Y0285264D01*
X0637981Y0281965D02*
X0637981Y0265422D01*
X0632674Y0260115D01*
X0634642Y0262083D01*
X0633648Y0264483D02*
X0628625Y0264483D01*
X0629481Y0266082D02*
X0635246Y0266082D01*
X0634984Y0267680D02*
X0635581Y0267680D01*
X0640381Y0267680D02*
X0640878Y0267680D01*
X0632049Y0262885D02*
X0627027Y0262885D01*
X0625428Y0261286D02*
X0630451Y0261286D01*
X0628852Y0259687D02*
X0623829Y0259687D01*
X0622231Y0258089D02*
X0627254Y0258089D01*
X0625655Y0256490D02*
X0620632Y0256490D01*
X0620254Y0256112D02*
X0620254Y0256112D01*
X0619034Y0254892D02*
X0624453Y0254892D01*
X0624368Y0253293D02*
X0617435Y0253293D01*
X0615837Y0251695D02*
X0624368Y0251695D01*
X0624368Y0250096D02*
X0614238Y0250096D01*
X0612640Y0248498D02*
X0624368Y0248498D01*
X0626768Y0254209D02*
X0632674Y0260115D01*
X0629978Y0267680D02*
X0629481Y0267680D01*
X0624681Y0267680D02*
X0624184Y0267680D01*
X0624681Y0267327D02*
X0616860Y0259506D01*
X0597175Y0239821D01*
X0596809Y0238939D01*
X0596809Y0227645D01*
X0593238Y0224073D01*
X0592872Y0223191D01*
X0592872Y0180400D01*
X0577102Y0164630D01*
X0577102Y0164630D01*
X0576427Y0163955D01*
X0576061Y0163073D01*
X0576061Y0119813D01*
X0575760Y0119688D01*
X0574419Y0118347D01*
X0573693Y0116594D01*
X0573693Y0108360D01*
X0574419Y0106608D01*
X0575760Y0105266D01*
X0577513Y0104540D01*
X0579410Y0104540D01*
X0581162Y0105266D01*
X0581720Y0105824D01*
X0588415Y0099129D01*
X0580518Y0099129D01*
X0561176Y0118471D01*
X0561176Y0144511D01*
X0561477Y0144636D01*
X0562819Y0145978D01*
X0563545Y0147730D01*
X0563545Y0155964D01*
X0562819Y0157717D01*
X0561477Y0159058D01*
X0561176Y0159183D01*
X0561176Y0200971D01*
X0572644Y0212439D01*
X0580002Y0212439D01*
X0580884Y0212805D01*
X0592695Y0224616D01*
X0593370Y0225291D01*
X0593735Y0226173D01*
X0593735Y0241404D01*
X0608443Y0256112D01*
X0618216Y0265885D01*
X0618581Y0266767D01*
X0618581Y0268277D01*
X0619693Y0267165D01*
X0623669Y0267165D01*
X0624681Y0268177D01*
X0624681Y0267327D01*
X0623435Y0266082D02*
X0618297Y0266082D01*
X0618581Y0267680D02*
X0619178Y0267680D01*
X0616181Y0267244D02*
X0607083Y0258146D01*
X0591335Y0242398D01*
X0591335Y0226650D01*
X0579524Y0214839D01*
X0571650Y0214839D01*
X0558776Y0201965D01*
X0558776Y0151847D01*
X0558776Y0117477D01*
X0579524Y0096729D01*
X0595272Y0096729D01*
X0607083Y0084918D01*
X0611020Y0084918D01*
X0616102Y0079836D01*
X0616102Y0065300D01*
X0613142Y0061472D02*
X0608163Y0061472D01*
X0609761Y0063071D02*
X0611543Y0063071D01*
X0611302Y0064669D02*
X0610002Y0064669D01*
X0610002Y0066268D02*
X0611302Y0066268D01*
X0611880Y0067866D02*
X0609424Y0067866D01*
X0607826Y0069465D02*
X0613479Y0069465D01*
X0613254Y0071063D02*
X0613702Y0071063D01*
X0618502Y0071063D02*
X0618951Y0071063D01*
X0618726Y0069465D02*
X0624379Y0069465D01*
X0624602Y0071063D02*
X0624054Y0071063D01*
X0622780Y0067866D02*
X0620324Y0067866D01*
X0620902Y0066268D02*
X0622202Y0066268D01*
X0622202Y0064669D02*
X0620902Y0064669D01*
X0620661Y0063071D02*
X0622443Y0063071D01*
X0624042Y0061472D02*
X0619063Y0061472D01*
X0627002Y0065300D02*
X0627002Y0076810D01*
X0627002Y0084684D01*
X0622831Y0088855D01*
X0611020Y0088855D01*
X0599209Y0100666D01*
X0590272Y0100666D01*
X0578461Y0112477D01*
X0578461Y0162595D01*
X0595272Y0179406D01*
X0595272Y0222713D01*
X0599209Y0226650D01*
X0599209Y0238461D01*
X0596809Y0238907D02*
X0593735Y0238907D01*
X0593735Y0240505D02*
X0597859Y0240505D01*
X0599458Y0242104D02*
X0594435Y0242104D01*
X0596033Y0243702D02*
X0601056Y0243702D01*
X0602655Y0245301D02*
X0597632Y0245301D01*
X0599230Y0246899D02*
X0604253Y0246899D01*
X0605852Y0248498D02*
X0600829Y0248498D01*
X0602427Y0250096D02*
X0607450Y0250096D01*
X0609049Y0251695D02*
X0604026Y0251695D01*
X0605624Y0253293D02*
X0610647Y0253293D01*
X0612246Y0254892D02*
X0607223Y0254892D01*
X0608821Y0256490D02*
X0613844Y0256490D01*
X0615443Y0258089D02*
X0610420Y0258089D01*
X0612018Y0259687D02*
X0617041Y0259687D01*
X0616860Y0259506D02*
X0616860Y0259506D01*
X0618640Y0261286D02*
X0613617Y0261286D01*
X0615215Y0262885D02*
X0620238Y0262885D01*
X0621837Y0264483D02*
X0616814Y0264483D01*
X0616181Y0267244D02*
X0616181Y0281965D01*
X0620981Y0282067D02*
X0622281Y0282067D01*
X0622281Y0283665D02*
X0620981Y0283665D01*
X0619671Y0285264D02*
X0623591Y0285264D01*
X0622281Y0280468D02*
X0620981Y0280468D01*
X0619873Y0278870D02*
X0623388Y0278870D01*
X0624681Y0277271D02*
X0618581Y0277271D01*
X0618581Y0275673D02*
X0618600Y0275673D01*
X0613781Y0277271D02*
X0607781Y0277271D01*
X0609073Y0278870D02*
X0612488Y0278870D01*
X0611381Y0280468D02*
X0610181Y0280468D01*
X0610181Y0282067D02*
X0611381Y0282067D01*
X0611381Y0283665D02*
X0610181Y0283665D01*
X0608871Y0285264D02*
X0612691Y0285264D01*
X0605381Y0281965D02*
X0605381Y0264318D01*
X0595272Y0254209D01*
X0587398Y0246335D01*
X0575587Y0246335D01*
X0548028Y0218776D01*
X0548028Y0183343D01*
X0539091Y0174406D01*
X0539091Y0112477D01*
X0558776Y0092792D01*
X0591335Y0092792D01*
X0605202Y0078925D01*
X0605202Y0065300D01*
X0602242Y0061472D02*
X0597363Y0061472D01*
X0598961Y0063071D02*
X0600643Y0063071D01*
X0600402Y0064669D02*
X0599202Y0064669D01*
X0599202Y0066268D02*
X0600402Y0066268D01*
X0600980Y0067866D02*
X0598624Y0067866D01*
X0597026Y0069465D02*
X0602579Y0069465D01*
X0602354Y0071063D02*
X0602802Y0071063D01*
X0607602Y0071063D02*
X0608151Y0071063D01*
X0597251Y0071063D02*
X0596802Y0071063D01*
X0592002Y0071063D02*
X0591454Y0071063D01*
X0591779Y0069465D02*
X0586126Y0069465D01*
X0585902Y0071063D02*
X0586351Y0071063D01*
X0587724Y0067866D02*
X0590180Y0067866D01*
X0589602Y0066268D02*
X0588302Y0066268D01*
X0588302Y0064669D02*
X0589602Y0064669D01*
X0589843Y0063071D02*
X0588061Y0063071D01*
X0586463Y0061472D02*
X0591442Y0061472D01*
X0594402Y0065300D02*
X0594402Y0081851D01*
X0587398Y0088855D01*
X0548028Y0088855D01*
X0522438Y0114446D01*
X0519406Y0117477D01*
X0519406Y0151847D01*
X0519406Y0166532D01*
X0528343Y0175469D01*
X0528343Y0206965D01*
X0571650Y0250272D01*
X0579524Y0250272D01*
X0585430Y0256178D01*
X0594481Y0265229D01*
X0594481Y0281965D01*
X0599281Y0282067D02*
X0600581Y0282067D01*
X0600581Y0283665D02*
X0599281Y0283665D01*
X0597971Y0285264D02*
X0601891Y0285264D01*
X0600581Y0280468D02*
X0599281Y0280468D01*
X0598173Y0278870D02*
X0601688Y0278870D01*
X0602981Y0277271D02*
X0596881Y0277271D01*
X0592081Y0277271D02*
X0585981Y0277271D01*
X0585981Y0275673D02*
X0586000Y0275673D01*
X0587273Y0278870D02*
X0590788Y0278870D01*
X0589681Y0280468D02*
X0588381Y0280468D01*
X0588381Y0282067D02*
X0589681Y0282067D01*
X0589681Y0283665D02*
X0588381Y0283665D01*
X0587071Y0285264D02*
X0590991Y0285264D01*
X0583581Y0281965D02*
X0583581Y0266140D01*
X0585318Y0264483D02*
X0590341Y0264483D01*
X0591939Y0266082D02*
X0585981Y0266082D01*
X0585981Y0265663D02*
X0585981Y0268277D01*
X0587093Y0267165D01*
X0591069Y0267165D01*
X0592081Y0268177D01*
X0592081Y0266223D01*
X0583395Y0257537D01*
X0578530Y0252672D01*
X0573507Y0252672D01*
X0580884Y0260049D01*
X0585616Y0264781D01*
X0585981Y0265663D01*
X0585981Y0267680D02*
X0586578Y0267680D01*
X0591584Y0267680D02*
X0592081Y0267680D01*
X0596881Y0267680D02*
X0597378Y0267680D01*
X0596881Y0268177D02*
X0597893Y0267165D01*
X0601869Y0267165D01*
X0602981Y0268277D01*
X0602981Y0265312D01*
X0593238Y0255569D01*
X0586404Y0248735D01*
X0581381Y0248735D01*
X0586789Y0254143D01*
X0596516Y0263870D01*
X0596881Y0264752D01*
X0596881Y0268177D01*
X0596881Y0266082D02*
X0602981Y0266082D01*
X0602981Y0267680D02*
X0602384Y0267680D01*
X0602152Y0264483D02*
X0596770Y0264483D01*
X0595530Y0262885D02*
X0600553Y0262885D01*
X0598955Y0261286D02*
X0593932Y0261286D01*
X0592333Y0259687D02*
X0597356Y0259687D01*
X0595758Y0258089D02*
X0590735Y0258089D01*
X0589136Y0256490D02*
X0594159Y0256490D01*
X0592561Y0254892D02*
X0587538Y0254892D01*
X0585939Y0253293D02*
X0590962Y0253293D01*
X0589364Y0251695D02*
X0584341Y0251695D01*
X0582742Y0250096D02*
X0587765Y0250096D01*
X0591356Y0246899D02*
X0592442Y0246899D01*
X0592955Y0248498D02*
X0594041Y0248498D01*
X0594553Y0250096D02*
X0595639Y0250096D01*
X0596152Y0251695D02*
X0597238Y0251695D01*
X0596632Y0252175D02*
X0607416Y0262959D01*
X0607781Y0263841D01*
X0607781Y0268177D01*
X0608793Y0267165D01*
X0612708Y0267165D01*
X0605049Y0259506D01*
X0589301Y0243758D01*
X0588935Y0242876D01*
X0588935Y0227645D01*
X0578530Y0217239D01*
X0571173Y0217239D01*
X0570291Y0216874D01*
X0569616Y0216199D01*
X0556742Y0203325D01*
X0556376Y0202443D01*
X0556376Y0159183D01*
X0556075Y0159058D01*
X0554734Y0157717D01*
X0554008Y0155964D01*
X0554008Y0147730D01*
X0554734Y0145978D01*
X0556075Y0144636D01*
X0556376Y0144511D01*
X0556376Y0117000D01*
X0556742Y0116118D01*
X0577667Y0095192D01*
X0559770Y0095192D01*
X0543860Y0111103D01*
X0543860Y0116594D01*
X0543134Y0118347D01*
X0541792Y0119688D01*
X0541491Y0119813D01*
X0541491Y0173412D01*
X0549388Y0181309D01*
X0550063Y0181984D01*
X0550428Y0182866D01*
X0550428Y0217782D01*
X0576581Y0243935D01*
X0587876Y0243935D01*
X0588758Y0244301D01*
X0596632Y0252175D01*
X0597750Y0253293D02*
X0598836Y0253293D01*
X0599349Y0254892D02*
X0600435Y0254892D01*
X0600947Y0256490D02*
X0602033Y0256490D01*
X0602546Y0258089D02*
X0603632Y0258089D01*
X0604144Y0259687D02*
X0605230Y0259687D01*
X0605743Y0261286D02*
X0606829Y0261286D01*
X0607341Y0262885D02*
X0608427Y0262885D01*
X0607781Y0264483D02*
X0610026Y0264483D01*
X0611624Y0266082D02*
X0607781Y0266082D01*
X0607781Y0267680D02*
X0608278Y0267680D01*
X0602981Y0275673D02*
X0602962Y0275673D01*
X0588742Y0262885D02*
X0583719Y0262885D01*
X0582121Y0261286D02*
X0587144Y0261286D01*
X0585545Y0259687D02*
X0580522Y0259687D01*
X0578924Y0258089D02*
X0583947Y0258089D01*
X0582348Y0256490D02*
X0577325Y0256490D01*
X0575727Y0254892D02*
X0580750Y0254892D01*
X0579151Y0253293D02*
X0574128Y0253293D01*
X0569793Y0251809D02*
X0569616Y0251632D01*
X0543439Y0225456D01*
X0543860Y0226470D01*
X0543860Y0234704D01*
X0543134Y0236457D01*
X0541792Y0237798D01*
X0540040Y0238524D01*
X0538143Y0238524D01*
X0536390Y0237798D01*
X0535049Y0236457D01*
X0534323Y0234704D01*
X0534323Y0226470D01*
X0535049Y0224718D01*
X0536390Y0223376D01*
X0538143Y0222650D01*
X0540040Y0222650D01*
X0541054Y0223071D01*
X0526309Y0208325D01*
X0525943Y0207443D01*
X0525943Y0176463D01*
X0517372Y0167892D01*
X0517006Y0167010D01*
X0517006Y0159183D01*
X0516705Y0159058D01*
X0515364Y0157717D01*
X0514638Y0155964D01*
X0514638Y0147730D01*
X0515364Y0145978D01*
X0516705Y0144636D01*
X0517006Y0144511D01*
X0517006Y0117000D01*
X0517372Y0116118D01*
X0521078Y0112411D01*
X0546171Y0087318D01*
X0528274Y0087318D01*
X0504490Y0111103D01*
X0504490Y0116594D01*
X0503764Y0118347D01*
X0502422Y0119688D01*
X0502121Y0119813D01*
X0502121Y0161601D01*
X0517892Y0177372D01*
X0518567Y0178047D01*
X0518932Y0178929D01*
X0518932Y0225656D01*
X0545085Y0251809D01*
X0569793Y0251809D01*
X0569679Y0251695D02*
X0544971Y0251695D01*
X0543372Y0250096D02*
X0568080Y0250096D01*
X0566482Y0248498D02*
X0541774Y0248498D01*
X0540175Y0246899D02*
X0564883Y0246899D01*
X0563285Y0245301D02*
X0538577Y0245301D01*
X0536978Y0243702D02*
X0561686Y0243702D01*
X0560088Y0242104D02*
X0535380Y0242104D01*
X0533781Y0240505D02*
X0558489Y0240505D01*
X0556891Y0238907D02*
X0532183Y0238907D01*
X0530584Y0237308D02*
X0535900Y0237308D01*
X0534739Y0235710D02*
X0528986Y0235710D01*
X0527387Y0234111D02*
X0534323Y0234111D01*
X0534323Y0232513D02*
X0525789Y0232513D01*
X0524190Y0230914D02*
X0534323Y0230914D01*
X0534323Y0229316D02*
X0522592Y0229316D01*
X0520993Y0227717D02*
X0534323Y0227717D01*
X0534468Y0226119D02*
X0519395Y0226119D01*
X0518932Y0224520D02*
X0535246Y0224520D01*
X0537488Y0222922D02*
X0518932Y0222922D01*
X0518932Y0221323D02*
X0539307Y0221323D01*
X0540695Y0222922D02*
X0540905Y0222922D01*
X0543714Y0226119D02*
X0544102Y0226119D01*
X0543860Y0227717D02*
X0545701Y0227717D01*
X0547299Y0229316D02*
X0543860Y0229316D01*
X0543860Y0230914D02*
X0548898Y0230914D01*
X0550497Y0232513D02*
X0543860Y0232513D01*
X0543860Y0234111D02*
X0552095Y0234111D01*
X0553694Y0235710D02*
X0543443Y0235710D01*
X0542282Y0237308D02*
X0555292Y0237308D01*
X0558883Y0234111D02*
X0559969Y0234111D01*
X0560482Y0235710D02*
X0561568Y0235710D01*
X0562080Y0237308D02*
X0563166Y0237308D01*
X0563679Y0238907D02*
X0564765Y0238907D01*
X0565277Y0240505D02*
X0566363Y0240505D01*
X0566876Y0242104D02*
X0567962Y0242104D01*
X0568474Y0243702D02*
X0569560Y0243702D01*
X0570073Y0245301D02*
X0571159Y0245301D01*
X0571671Y0246899D02*
X0572757Y0246899D01*
X0572644Y0247872D02*
X0573730Y0247872D01*
X0573553Y0247695D01*
X0545994Y0220136D01*
X0545628Y0219254D01*
X0545628Y0184337D01*
X0537057Y0175766D01*
X0536691Y0174884D01*
X0536691Y0119813D01*
X0536390Y0119688D01*
X0535049Y0118347D01*
X0534323Y0116594D01*
X0534323Y0108360D01*
X0535049Y0106608D01*
X0536390Y0105266D01*
X0538143Y0104540D01*
X0540040Y0104540D01*
X0541792Y0105266D01*
X0542350Y0105824D01*
X0556919Y0091255D01*
X0549022Y0091255D01*
X0524472Y0115805D01*
X0521806Y0118471D01*
X0521806Y0144511D01*
X0522107Y0144636D01*
X0523449Y0145978D01*
X0524175Y0147730D01*
X0524175Y0155964D01*
X0523449Y0157717D01*
X0522107Y0159058D01*
X0521806Y0159183D01*
X0521806Y0165538D01*
X0529703Y0173435D01*
X0530378Y0174110D01*
X0530743Y0174992D01*
X0530743Y0205971D01*
X0572644Y0247872D01*
X0576348Y0243702D02*
X0589278Y0243702D01*
X0588935Y0242104D02*
X0574750Y0242104D01*
X0573151Y0240505D02*
X0588935Y0240505D01*
X0588935Y0238907D02*
X0571553Y0238907D01*
X0569954Y0237308D02*
X0575270Y0237308D01*
X0575760Y0237798D02*
X0574419Y0236457D01*
X0573693Y0234704D01*
X0573693Y0226470D01*
X0574419Y0224718D01*
X0575760Y0223376D01*
X0577513Y0222650D01*
X0579410Y0222650D01*
X0581162Y0223376D01*
X0582504Y0224718D01*
X0583230Y0226470D01*
X0583230Y0234704D01*
X0582504Y0236457D01*
X0581162Y0237798D01*
X0579410Y0238524D01*
X0577513Y0238524D01*
X0575760Y0237798D01*
X0574109Y0235710D02*
X0568356Y0235710D01*
X0566757Y0234111D02*
X0573693Y0234111D01*
X0573693Y0232513D02*
X0565159Y0232513D01*
X0563560Y0230914D02*
X0573693Y0230914D01*
X0573693Y0229316D02*
X0561962Y0229316D01*
X0560363Y0227717D02*
X0573693Y0227717D01*
X0573838Y0226119D02*
X0558765Y0226119D01*
X0557166Y0224520D02*
X0574616Y0224520D01*
X0576858Y0222922D02*
X0555568Y0222922D01*
X0553969Y0221323D02*
X0582614Y0221323D01*
X0581016Y0219725D02*
X0552371Y0219725D01*
X0550772Y0218126D02*
X0579417Y0218126D01*
X0583008Y0214929D02*
X0592872Y0214929D01*
X0592872Y0213331D02*
X0581410Y0213331D01*
X0584607Y0216528D02*
X0592872Y0216528D01*
X0592872Y0218126D02*
X0586205Y0218126D01*
X0587804Y0219725D02*
X0592872Y0219725D01*
X0592872Y0221323D02*
X0589402Y0221323D01*
X0591001Y0222922D02*
X0592872Y0222922D01*
X0592599Y0224520D02*
X0593685Y0224520D01*
X0593713Y0226119D02*
X0595284Y0226119D01*
X0596809Y0227717D02*
X0593735Y0227717D01*
X0593735Y0229316D02*
X0596809Y0229316D01*
X0596809Y0230914D02*
X0593735Y0230914D01*
X0593735Y0232513D02*
X0596809Y0232513D01*
X0596809Y0234111D02*
X0593735Y0234111D01*
X0593735Y0235710D02*
X0596809Y0235710D01*
X0596809Y0237308D02*
X0593735Y0237308D01*
X0588935Y0237308D02*
X0581653Y0237308D01*
X0582813Y0235710D02*
X0588935Y0235710D01*
X0588935Y0234111D02*
X0583230Y0234111D01*
X0583230Y0232513D02*
X0588935Y0232513D01*
X0588935Y0230914D02*
X0583230Y0230914D01*
X0583230Y0229316D02*
X0588935Y0229316D01*
X0588935Y0227717D02*
X0583230Y0227717D01*
X0583084Y0226119D02*
X0587410Y0226119D01*
X0585811Y0224520D02*
X0582306Y0224520D01*
X0584213Y0222922D02*
X0580065Y0222922D01*
X0569944Y0216528D02*
X0550428Y0216528D01*
X0550428Y0214929D02*
X0568346Y0214929D01*
X0566747Y0213331D02*
X0550428Y0213331D01*
X0550428Y0211732D02*
X0565149Y0211732D01*
X0563550Y0210134D02*
X0550428Y0210134D01*
X0550428Y0208535D02*
X0561952Y0208535D01*
X0560353Y0206937D02*
X0550428Y0206937D01*
X0550428Y0205338D02*
X0558755Y0205338D01*
X0557156Y0203740D02*
X0550428Y0203740D01*
X0550428Y0202141D02*
X0556376Y0202141D01*
X0556376Y0200543D02*
X0550428Y0200543D01*
X0550428Y0198944D02*
X0556376Y0198944D01*
X0556376Y0197346D02*
X0550428Y0197346D01*
X0550428Y0195747D02*
X0556376Y0195747D01*
X0556376Y0194149D02*
X0550428Y0194149D01*
X0550428Y0192550D02*
X0556376Y0192550D01*
X0556376Y0190952D02*
X0550428Y0190952D01*
X0550428Y0189353D02*
X0556376Y0189353D01*
X0556376Y0187754D02*
X0550428Y0187754D01*
X0550428Y0186156D02*
X0556376Y0186156D01*
X0556376Y0184557D02*
X0550428Y0184557D01*
X0550428Y0182959D02*
X0556376Y0182959D01*
X0556376Y0181360D02*
X0549439Y0181360D01*
X0547841Y0179762D02*
X0556376Y0179762D01*
X0556376Y0178163D02*
X0546242Y0178163D01*
X0544644Y0176565D02*
X0556376Y0176565D01*
X0556376Y0174966D02*
X0543045Y0174966D01*
X0541491Y0173368D02*
X0556376Y0173368D01*
X0556376Y0171769D02*
X0541491Y0171769D01*
X0541491Y0170171D02*
X0556376Y0170171D01*
X0556376Y0168572D02*
X0541491Y0168572D01*
X0541491Y0166974D02*
X0556376Y0166974D01*
X0556376Y0165375D02*
X0541491Y0165375D01*
X0541491Y0163777D02*
X0556376Y0163777D01*
X0556376Y0162178D02*
X0541491Y0162178D01*
X0541491Y0160580D02*
X0556376Y0160580D01*
X0555998Y0158981D02*
X0541491Y0158981D01*
X0541491Y0157383D02*
X0554595Y0157383D01*
X0554008Y0155784D02*
X0541491Y0155784D01*
X0541491Y0154186D02*
X0554008Y0154186D01*
X0554008Y0152587D02*
X0541491Y0152587D01*
X0541491Y0150989D02*
X0554008Y0150989D01*
X0554008Y0149390D02*
X0541491Y0149390D01*
X0541491Y0147792D02*
X0554008Y0147792D01*
X0554644Y0146193D02*
X0541491Y0146193D01*
X0541491Y0144595D02*
X0556175Y0144595D01*
X0556376Y0142996D02*
X0541491Y0142996D01*
X0541491Y0141398D02*
X0556376Y0141398D01*
X0556376Y0139799D02*
X0541491Y0139799D01*
X0541491Y0138201D02*
X0556376Y0138201D01*
X0556376Y0136602D02*
X0541491Y0136602D01*
X0541491Y0135004D02*
X0556376Y0135004D01*
X0556376Y0133405D02*
X0541491Y0133405D01*
X0541491Y0131807D02*
X0556376Y0131807D01*
X0556376Y0130208D02*
X0541491Y0130208D01*
X0541491Y0128610D02*
X0556376Y0128610D01*
X0556376Y0127011D02*
X0541491Y0127011D01*
X0541491Y0125413D02*
X0556376Y0125413D01*
X0556376Y0123814D02*
X0541491Y0123814D01*
X0541491Y0122216D02*
X0556376Y0122216D01*
X0556376Y0120617D02*
X0541491Y0120617D01*
X0542462Y0119018D02*
X0556376Y0119018D01*
X0556376Y0117420D02*
X0543518Y0117420D01*
X0543860Y0115821D02*
X0557038Y0115821D01*
X0558636Y0114223D02*
X0543860Y0114223D01*
X0543860Y0112624D02*
X0560235Y0112624D01*
X0561833Y0111026D02*
X0543937Y0111026D01*
X0545535Y0109427D02*
X0563432Y0109427D01*
X0565030Y0107829D02*
X0547134Y0107829D01*
X0548732Y0106230D02*
X0566629Y0106230D01*
X0568227Y0104632D02*
X0550331Y0104632D01*
X0551929Y0103033D02*
X0569826Y0103033D01*
X0571424Y0101435D02*
X0553528Y0101435D01*
X0555126Y0099836D02*
X0573023Y0099836D01*
X0574621Y0098238D02*
X0556725Y0098238D01*
X0558323Y0096639D02*
X0576220Y0096639D01*
X0579811Y0099836D02*
X0587708Y0099836D01*
X0586109Y0101435D02*
X0578213Y0101435D01*
X0576614Y0103033D02*
X0584511Y0103033D01*
X0582912Y0104632D02*
X0579631Y0104632D01*
X0577291Y0104632D02*
X0575016Y0104632D01*
X0574796Y0106230D02*
X0573417Y0106230D01*
X0573913Y0107829D02*
X0571819Y0107829D01*
X0570220Y0109427D02*
X0573693Y0109427D01*
X0573693Y0111026D02*
X0568622Y0111026D01*
X0567023Y0112624D02*
X0573693Y0112624D01*
X0573693Y0114223D02*
X0565425Y0114223D01*
X0563826Y0115821D02*
X0573693Y0115821D01*
X0574035Y0117420D02*
X0562228Y0117420D01*
X0561176Y0119018D02*
X0575090Y0119018D01*
X0576061Y0120617D02*
X0561176Y0120617D01*
X0561176Y0122216D02*
X0576061Y0122216D01*
X0576061Y0123814D02*
X0561176Y0123814D01*
X0561176Y0125413D02*
X0576061Y0125413D01*
X0576061Y0127011D02*
X0561176Y0127011D01*
X0561176Y0128610D02*
X0576061Y0128610D01*
X0576061Y0130208D02*
X0561176Y0130208D01*
X0561176Y0131807D02*
X0576061Y0131807D01*
X0576061Y0133405D02*
X0561176Y0133405D01*
X0561176Y0135004D02*
X0576061Y0135004D01*
X0576061Y0136602D02*
X0561176Y0136602D01*
X0561176Y0138201D02*
X0576061Y0138201D01*
X0576061Y0139799D02*
X0561176Y0139799D01*
X0561176Y0141398D02*
X0576061Y0141398D01*
X0576061Y0142996D02*
X0561176Y0142996D01*
X0561377Y0144595D02*
X0576061Y0144595D01*
X0576061Y0146193D02*
X0562908Y0146193D01*
X0563545Y0147792D02*
X0576061Y0147792D01*
X0576061Y0149390D02*
X0563545Y0149390D01*
X0563545Y0150989D02*
X0576061Y0150989D01*
X0576061Y0152587D02*
X0563545Y0152587D01*
X0563545Y0154186D02*
X0576061Y0154186D01*
X0576061Y0155784D02*
X0563545Y0155784D01*
X0562957Y0157383D02*
X0576061Y0157383D01*
X0576061Y0158981D02*
X0561554Y0158981D01*
X0561176Y0160580D02*
X0576061Y0160580D01*
X0576061Y0162178D02*
X0561176Y0162178D01*
X0561176Y0163777D02*
X0576353Y0163777D01*
X0577847Y0165375D02*
X0561176Y0165375D01*
X0561176Y0166974D02*
X0579446Y0166974D01*
X0581044Y0168572D02*
X0561176Y0168572D01*
X0561176Y0170171D02*
X0582643Y0170171D01*
X0584241Y0171769D02*
X0561176Y0171769D01*
X0561176Y0173368D02*
X0585840Y0173368D01*
X0587438Y0174966D02*
X0561176Y0174966D01*
X0561176Y0176565D02*
X0589037Y0176565D01*
X0590635Y0178163D02*
X0561176Y0178163D01*
X0561176Y0179762D02*
X0592234Y0179762D01*
X0592872Y0181360D02*
X0561176Y0181360D01*
X0561176Y0182959D02*
X0592872Y0182959D01*
X0592872Y0184557D02*
X0581714Y0184557D01*
X0581162Y0184006D02*
X0582504Y0185348D01*
X0583230Y0187100D01*
X0583230Y0195334D01*
X0582504Y0197087D01*
X0581162Y0198428D01*
X0579410Y0199154D01*
X0577513Y0199154D01*
X0575760Y0198428D01*
X0574419Y0197087D01*
X0573693Y0195334D01*
X0573693Y0187100D01*
X0574419Y0185348D01*
X0575760Y0184006D01*
X0577513Y0183280D01*
X0579410Y0183280D01*
X0581162Y0184006D01*
X0582839Y0186156D02*
X0592872Y0186156D01*
X0592872Y0187754D02*
X0583230Y0187754D01*
X0583230Y0189353D02*
X0592872Y0189353D01*
X0592872Y0190952D02*
X0583230Y0190952D01*
X0583230Y0192550D02*
X0592872Y0192550D01*
X0592872Y0194149D02*
X0583230Y0194149D01*
X0583059Y0195747D02*
X0592872Y0195747D01*
X0592872Y0197346D02*
X0582245Y0197346D01*
X0579917Y0198944D02*
X0592872Y0198944D01*
X0592872Y0200543D02*
X0561176Y0200543D01*
X0561176Y0198944D02*
X0577005Y0198944D01*
X0574677Y0197346D02*
X0561176Y0197346D01*
X0561176Y0195747D02*
X0573864Y0195747D01*
X0573693Y0194149D02*
X0561176Y0194149D01*
X0561176Y0192550D02*
X0573693Y0192550D01*
X0573693Y0190952D02*
X0561176Y0190952D01*
X0561176Y0189353D02*
X0573693Y0189353D01*
X0573693Y0187754D02*
X0561176Y0187754D01*
X0561176Y0186156D02*
X0574084Y0186156D01*
X0575209Y0184557D02*
X0561176Y0184557D01*
X0545628Y0184557D02*
X0542344Y0184557D01*
X0541792Y0184006D02*
X0543134Y0185348D01*
X0543860Y0187100D01*
X0543860Y0195334D01*
X0543134Y0197087D01*
X0541792Y0198428D01*
X0540040Y0199154D01*
X0538143Y0199154D01*
X0536390Y0198428D01*
X0535049Y0197087D01*
X0534323Y0195334D01*
X0534323Y0187100D01*
X0535049Y0185348D01*
X0536390Y0184006D01*
X0538143Y0183280D01*
X0540040Y0183280D01*
X0541792Y0184006D01*
X0544250Y0182959D02*
X0530743Y0182959D01*
X0530743Y0184557D02*
X0535839Y0184557D01*
X0534714Y0186156D02*
X0530743Y0186156D01*
X0530743Y0187754D02*
X0534323Y0187754D01*
X0534323Y0189353D02*
X0530743Y0189353D01*
X0530743Y0190952D02*
X0534323Y0190952D01*
X0534323Y0192550D02*
X0530743Y0192550D01*
X0530743Y0194149D02*
X0534323Y0194149D01*
X0534494Y0195747D02*
X0530743Y0195747D01*
X0530743Y0197346D02*
X0535307Y0197346D01*
X0537635Y0198944D02*
X0530743Y0198944D01*
X0530743Y0200543D02*
X0545628Y0200543D01*
X0545628Y0202141D02*
X0530743Y0202141D01*
X0530743Y0203740D02*
X0545628Y0203740D01*
X0545628Y0205338D02*
X0530743Y0205338D01*
X0531709Y0206937D02*
X0545628Y0206937D01*
X0545628Y0208535D02*
X0533307Y0208535D01*
X0534906Y0210134D02*
X0545628Y0210134D01*
X0545628Y0211732D02*
X0536504Y0211732D01*
X0538103Y0213331D02*
X0545628Y0213331D01*
X0545628Y0214929D02*
X0539701Y0214929D01*
X0541300Y0216528D02*
X0545628Y0216528D01*
X0545628Y0218126D02*
X0542898Y0218126D01*
X0544497Y0219725D02*
X0545823Y0219725D01*
X0546095Y0221323D02*
X0547181Y0221323D01*
X0547694Y0222922D02*
X0548779Y0222922D01*
X0549292Y0224520D02*
X0550378Y0224520D01*
X0550891Y0226119D02*
X0551976Y0226119D01*
X0552489Y0227717D02*
X0553575Y0227717D01*
X0554088Y0229316D02*
X0555173Y0229316D01*
X0555686Y0230914D02*
X0556772Y0230914D01*
X0557285Y0232513D02*
X0558371Y0232513D01*
X0537708Y0219725D02*
X0518932Y0219725D01*
X0518932Y0218126D02*
X0536110Y0218126D01*
X0534511Y0216528D02*
X0518932Y0216528D01*
X0518932Y0214929D02*
X0532913Y0214929D01*
X0531314Y0213331D02*
X0518932Y0213331D01*
X0518932Y0211732D02*
X0529716Y0211732D01*
X0528117Y0210134D02*
X0518932Y0210134D01*
X0518932Y0208535D02*
X0526519Y0208535D01*
X0525943Y0206937D02*
X0518932Y0206937D01*
X0518932Y0205338D02*
X0525943Y0205338D01*
X0525943Y0203740D02*
X0518932Y0203740D01*
X0518932Y0202141D02*
X0525943Y0202141D01*
X0525943Y0200543D02*
X0518932Y0200543D01*
X0518932Y0198944D02*
X0525943Y0198944D01*
X0525943Y0197346D02*
X0518932Y0197346D01*
X0518932Y0195747D02*
X0525943Y0195747D01*
X0525943Y0194149D02*
X0518932Y0194149D01*
X0518932Y0192550D02*
X0525943Y0192550D01*
X0525943Y0190952D02*
X0518932Y0190952D01*
X0518932Y0189353D02*
X0525943Y0189353D01*
X0525943Y0187754D02*
X0518932Y0187754D01*
X0518932Y0186156D02*
X0525943Y0186156D01*
X0525943Y0184557D02*
X0518932Y0184557D01*
X0518932Y0182959D02*
X0525943Y0182959D01*
X0525943Y0181360D02*
X0518932Y0181360D01*
X0518932Y0179762D02*
X0525943Y0179762D01*
X0525943Y0178163D02*
X0518615Y0178163D01*
X0517085Y0176565D02*
X0525943Y0176565D01*
X0524446Y0174966D02*
X0515486Y0174966D01*
X0513888Y0173368D02*
X0522848Y0173368D01*
X0521249Y0171769D02*
X0512289Y0171769D01*
X0510691Y0170171D02*
X0519651Y0170171D01*
X0518052Y0168572D02*
X0509092Y0168572D01*
X0507494Y0166974D02*
X0517006Y0166974D01*
X0517006Y0165375D02*
X0505895Y0165375D01*
X0504297Y0163777D02*
X0517006Y0163777D01*
X0517006Y0162178D02*
X0502698Y0162178D01*
X0502121Y0160580D02*
X0517006Y0160580D01*
X0516628Y0158981D02*
X0502121Y0158981D01*
X0502121Y0157383D02*
X0515225Y0157383D01*
X0514638Y0155784D02*
X0502121Y0155784D01*
X0502121Y0154186D02*
X0514638Y0154186D01*
X0514638Y0152587D02*
X0502121Y0152587D01*
X0502121Y0150989D02*
X0514638Y0150989D01*
X0514638Y0149390D02*
X0502121Y0149390D01*
X0502121Y0147792D02*
X0514638Y0147792D01*
X0515274Y0146193D02*
X0502121Y0146193D01*
X0502121Y0144595D02*
X0516805Y0144595D01*
X0517006Y0142996D02*
X0502121Y0142996D01*
X0502121Y0141398D02*
X0517006Y0141398D01*
X0517006Y0139799D02*
X0502121Y0139799D01*
X0502121Y0138201D02*
X0517006Y0138201D01*
X0517006Y0136602D02*
X0502121Y0136602D01*
X0502121Y0135004D02*
X0517006Y0135004D01*
X0517006Y0133405D02*
X0502121Y0133405D01*
X0502121Y0131807D02*
X0517006Y0131807D01*
X0517006Y0130208D02*
X0502121Y0130208D01*
X0502121Y0128610D02*
X0517006Y0128610D01*
X0517006Y0127011D02*
X0502121Y0127011D01*
X0502121Y0125413D02*
X0517006Y0125413D01*
X0517006Y0123814D02*
X0502121Y0123814D01*
X0502121Y0122216D02*
X0517006Y0122216D01*
X0517006Y0120617D02*
X0502121Y0120617D01*
X0503092Y0119018D02*
X0517006Y0119018D01*
X0517006Y0117420D02*
X0504148Y0117420D01*
X0504490Y0115821D02*
X0517668Y0115821D01*
X0519266Y0114223D02*
X0504490Y0114223D01*
X0504490Y0112624D02*
X0520865Y0112624D01*
X0522463Y0111026D02*
X0504566Y0111026D01*
X0506165Y0109427D02*
X0524062Y0109427D01*
X0525660Y0107829D02*
X0507763Y0107829D01*
X0509362Y0106230D02*
X0527259Y0106230D01*
X0528857Y0104632D02*
X0510960Y0104632D01*
X0512559Y0103033D02*
X0530456Y0103033D01*
X0532054Y0101435D02*
X0514158Y0101435D01*
X0515756Y0099836D02*
X0533653Y0099836D01*
X0535251Y0098238D02*
X0517355Y0098238D01*
X0518953Y0096639D02*
X0536850Y0096639D01*
X0538448Y0095041D02*
X0520552Y0095041D01*
X0522150Y0093442D02*
X0540047Y0093442D01*
X0541645Y0091844D02*
X0523749Y0091844D01*
X0525347Y0090245D02*
X0543244Y0090245D01*
X0544842Y0088647D02*
X0526946Y0088647D01*
X0523354Y0085450D02*
X0481531Y0085450D01*
X0481531Y0087048D02*
X0521756Y0087048D01*
X0520157Y0088647D02*
X0481531Y0088647D01*
X0481531Y0090245D02*
X0518559Y0090245D01*
X0516960Y0091844D02*
X0481531Y0091844D01*
X0481531Y0093442D02*
X0515362Y0093442D01*
X0513763Y0095041D02*
X0481531Y0095041D01*
X0481531Y0096639D02*
X0512165Y0096639D01*
X0510566Y0098238D02*
X0481531Y0098238D01*
X0481531Y0099836D02*
X0508968Y0099836D01*
X0507369Y0101435D02*
X0481531Y0101435D01*
X0481531Y0103033D02*
X0505771Y0103033D01*
X0504172Y0104632D02*
X0500891Y0104632D01*
X0498551Y0104632D02*
X0481531Y0104632D01*
X0481531Y0106230D02*
X0496056Y0106230D01*
X0495173Y0107829D02*
X0481531Y0107829D01*
X0481531Y0109427D02*
X0494953Y0109427D01*
X0494953Y0111026D02*
X0481531Y0111026D01*
X0481531Y0112624D02*
X0494953Y0112624D01*
X0494953Y0114223D02*
X0481531Y0114223D01*
X0481531Y0115821D02*
X0494953Y0115821D01*
X0495295Y0117420D02*
X0481531Y0117420D01*
X0481531Y0119018D02*
X0496350Y0119018D01*
X0497321Y0120617D02*
X0481531Y0120617D01*
X0481531Y0122216D02*
X0497321Y0122216D01*
X0497321Y0123814D02*
X0481531Y0123814D01*
X0481531Y0125413D02*
X0497321Y0125413D01*
X0497321Y0127011D02*
X0481531Y0127011D01*
X0481531Y0128610D02*
X0497321Y0128610D01*
X0497321Y0130208D02*
X0481531Y0130208D01*
X0481531Y0131807D02*
X0497321Y0131807D01*
X0497321Y0133405D02*
X0481531Y0133405D01*
X0481531Y0135004D02*
X0497321Y0135004D01*
X0497321Y0136602D02*
X0481531Y0136602D01*
X0481531Y0138201D02*
X0497321Y0138201D01*
X0497321Y0139799D02*
X0481531Y0139799D01*
X0481531Y0141398D02*
X0497321Y0141398D01*
X0497321Y0142996D02*
X0481531Y0142996D01*
X0481531Y0144595D02*
X0497321Y0144595D01*
X0497321Y0146193D02*
X0481531Y0146193D01*
X0481531Y0147792D02*
X0497321Y0147792D01*
X0497321Y0149390D02*
X0481531Y0149390D01*
X0481531Y0150989D02*
X0497321Y0150989D01*
X0497321Y0152587D02*
X0481531Y0152587D01*
X0481531Y0154186D02*
X0497321Y0154186D01*
X0497321Y0155784D02*
X0481531Y0155784D01*
X0481531Y0157383D02*
X0497321Y0157383D01*
X0497321Y0158981D02*
X0481531Y0158981D01*
X0481531Y0160580D02*
X0497321Y0160580D01*
X0497321Y0162178D02*
X0481531Y0162178D01*
X0481531Y0163777D02*
X0497613Y0163777D01*
X0499107Y0165375D02*
X0481531Y0165375D01*
X0481531Y0166974D02*
X0500706Y0166974D01*
X0502304Y0168572D02*
X0481531Y0168572D01*
X0481531Y0170171D02*
X0503903Y0170171D01*
X0505501Y0171769D02*
X0481531Y0171769D01*
X0481531Y0173368D02*
X0507100Y0173368D01*
X0508698Y0174966D02*
X0481531Y0174966D01*
X0481531Y0176565D02*
X0510297Y0176565D01*
X0511895Y0178163D02*
X0481531Y0178163D01*
X0481531Y0179762D02*
X0513494Y0179762D01*
X0514132Y0181360D02*
X0481531Y0181360D01*
X0481531Y0182959D02*
X0514132Y0182959D01*
X0514132Y0184557D02*
X0502973Y0184557D01*
X0502422Y0184006D02*
X0503764Y0185348D01*
X0504490Y0187100D01*
X0504490Y0195334D01*
X0503764Y0197087D01*
X0502422Y0198428D01*
X0500670Y0199154D01*
X0498773Y0199154D01*
X0497020Y0198428D01*
X0495679Y0197087D01*
X0494953Y0195334D01*
X0494953Y0187100D01*
X0495679Y0185348D01*
X0497020Y0184006D01*
X0498773Y0183280D01*
X0500670Y0183280D01*
X0502422Y0184006D01*
X0504098Y0186156D02*
X0514132Y0186156D01*
X0514132Y0187754D02*
X0504490Y0187754D01*
X0504490Y0189353D02*
X0514132Y0189353D01*
X0514132Y0190952D02*
X0504490Y0190952D01*
X0504490Y0192550D02*
X0514132Y0192550D01*
X0514132Y0194149D02*
X0504490Y0194149D01*
X0504319Y0195747D02*
X0514132Y0195747D01*
X0514132Y0197346D02*
X0503505Y0197346D01*
X0501177Y0198944D02*
X0514132Y0198944D01*
X0514132Y0200543D02*
X0481531Y0200543D01*
X0481531Y0202141D02*
X0514132Y0202141D01*
X0514132Y0203740D02*
X0481531Y0203740D01*
X0481531Y0205338D02*
X0514132Y0205338D01*
X0514132Y0206937D02*
X0481531Y0206937D01*
X0481531Y0208535D02*
X0514132Y0208535D01*
X0514132Y0210134D02*
X0481531Y0210134D01*
X0481531Y0211732D02*
X0514132Y0211732D01*
X0514132Y0213331D02*
X0481531Y0213331D01*
X0481531Y0214929D02*
X0514132Y0214929D01*
X0514132Y0216528D02*
X0481531Y0216528D01*
X0481531Y0218126D02*
X0514132Y0218126D01*
X0514132Y0219725D02*
X0481531Y0219725D01*
X0481531Y0221323D02*
X0514132Y0221323D01*
X0514132Y0222922D02*
X0481531Y0222922D01*
X0481531Y0224520D02*
X0514132Y0224520D01*
X0514132Y0226119D02*
X0481531Y0226119D01*
X0481531Y0227717D02*
X0514376Y0227717D01*
X0515803Y0229316D02*
X0481531Y0229316D01*
X0481531Y0230914D02*
X0517402Y0230914D01*
X0519000Y0232513D02*
X0481531Y0232513D01*
X0481531Y0234111D02*
X0520599Y0234111D01*
X0522197Y0235710D02*
X0481531Y0235710D01*
X0481531Y0237308D02*
X0523796Y0237308D01*
X0525394Y0238907D02*
X0481531Y0238907D01*
X0481531Y0240505D02*
X0526993Y0240505D01*
X0528592Y0242104D02*
X0481531Y0242104D01*
X0481531Y0243702D02*
X0530190Y0243702D01*
X0531789Y0245301D02*
X0481531Y0245301D01*
X0481531Y0246899D02*
X0533387Y0246899D01*
X0534986Y0248498D02*
X0481531Y0248498D01*
X0481531Y0250096D02*
X0536584Y0250096D01*
X0538183Y0251695D02*
X0481531Y0251695D01*
X0481531Y0253293D02*
X0539781Y0253293D01*
X0541380Y0254892D02*
X0481531Y0254892D01*
X0481531Y0256490D02*
X0543327Y0256490D01*
X0546781Y0266082D02*
X0481531Y0266082D01*
X0481531Y0267680D02*
X0543864Y0267680D01*
X0542263Y0269279D02*
X0481531Y0269279D01*
X0481531Y0270877D02*
X0541102Y0270877D01*
X0540179Y0272476D02*
X0481531Y0272476D01*
X0481531Y0274074D02*
X0539746Y0274074D01*
X0539381Y0275673D02*
X0481531Y0275673D01*
X0481531Y0277271D02*
X0539381Y0277271D01*
X0539482Y0278870D02*
X0481531Y0278870D01*
X0481531Y0280468D02*
X0539910Y0280468D01*
X0540532Y0282067D02*
X0481531Y0282067D01*
X0481531Y0283665D02*
X0541455Y0283665D01*
X0542874Y0285264D02*
X0481531Y0285264D01*
X0481531Y0286862D02*
X0544923Y0286862D01*
X0575333Y0261286D02*
X0481531Y0261286D01*
X0481531Y0262885D02*
X0576931Y0262885D01*
X0578530Y0264483D02*
X0481531Y0264483D01*
X0481531Y0259687D02*
X0573734Y0259687D01*
X0572136Y0258089D02*
X0481531Y0258089D01*
X0481531Y0291658D02*
X0872400Y0291658D01*
X0872400Y0293256D02*
X0481531Y0293256D01*
X0481531Y0294855D02*
X0872400Y0294855D01*
X0872400Y0296453D02*
X0481531Y0296453D01*
X0481531Y0298052D02*
X0872400Y0298052D01*
X0872400Y0299650D02*
X0481531Y0299650D01*
X0481531Y0301249D02*
X0872400Y0301249D01*
X0872400Y0302847D02*
X0481531Y0302847D01*
X0481531Y0304446D02*
X0872400Y0304446D01*
X0872400Y0306044D02*
X0481531Y0306044D01*
X0481531Y0307643D02*
X0872400Y0307643D01*
X0872400Y0309241D02*
X0481531Y0309241D01*
X0481531Y0310840D02*
X0872400Y0310840D01*
X0872400Y0312438D02*
X0481531Y0312438D01*
X0481531Y0314037D02*
X0872400Y0314037D01*
X0872400Y0315635D02*
X0481531Y0315635D01*
X0481531Y0317234D02*
X0872400Y0317234D01*
X0872400Y0318832D02*
X0481531Y0318832D01*
X0481531Y0320431D02*
X0872400Y0320431D01*
X0768982Y0266082D02*
X0763960Y0266082D01*
X0765484Y0267680D02*
X0767384Y0267680D01*
X0765558Y0264483D02*
X0770581Y0264483D01*
X0772180Y0262885D02*
X0767157Y0262885D01*
X0768755Y0261286D02*
X0773778Y0261286D01*
X0775377Y0259687D02*
X0770354Y0259687D01*
X0771952Y0258089D02*
X0776975Y0258089D01*
X0778574Y0256490D02*
X0773551Y0256490D01*
X0775149Y0254892D02*
X0780172Y0254892D01*
X0781771Y0253293D02*
X0776748Y0253293D01*
X0778346Y0251695D02*
X0783369Y0251695D01*
X0784968Y0250096D02*
X0779945Y0250096D01*
X0778409Y0251632D02*
X0778409Y0251632D01*
X0781543Y0248498D02*
X0786566Y0248498D01*
X0788559Y0253293D02*
X0872400Y0253293D01*
X0872400Y0254892D02*
X0786960Y0254892D01*
X0785362Y0256490D02*
X0872400Y0256490D01*
X0872400Y0258089D02*
X0783763Y0258089D01*
X0782165Y0259687D02*
X0872400Y0259687D01*
X0872400Y0261286D02*
X0780566Y0261286D01*
X0778968Y0262885D02*
X0872400Y0262885D01*
X0872400Y0264483D02*
X0777369Y0264483D01*
X0777734Y0264118D02*
X0777734Y0264118D01*
X0766763Y0256490D02*
X0757803Y0256490D01*
X0759401Y0254892D02*
X0768361Y0254892D01*
X0769960Y0253293D02*
X0761000Y0253293D01*
X0762598Y0251695D02*
X0771558Y0251695D01*
X0773157Y0250096D02*
X0764197Y0250096D01*
X0773488Y0248498D02*
X0774755Y0248498D01*
X0775268Y0246899D02*
X0776354Y0246899D01*
X0776866Y0245301D02*
X0777952Y0245301D01*
X0792733Y0237308D02*
X0811491Y0237308D01*
X0810330Y0235710D02*
X0794331Y0235710D01*
X0795930Y0234111D02*
X0809913Y0234111D01*
X0809913Y0232513D02*
X0797528Y0232513D01*
X0799127Y0230914D02*
X0809913Y0230914D01*
X0809913Y0229316D02*
X0800725Y0229316D01*
X0802324Y0227717D02*
X0809913Y0227717D01*
X0810059Y0226119D02*
X0803922Y0226119D01*
X0805521Y0224520D02*
X0810837Y0224520D01*
X0813078Y0222922D02*
X0807119Y0222922D01*
X0773868Y0202141D02*
X0755153Y0202141D01*
X0755153Y0200543D02*
X0775466Y0200543D01*
X0776768Y0198944D02*
X0777065Y0198944D01*
X0773856Y0198944D02*
X0755153Y0198944D01*
X0755153Y0197346D02*
X0771528Y0197346D01*
X0770714Y0195747D02*
X0755153Y0195747D01*
X0755153Y0194149D02*
X0770543Y0194149D01*
X0770543Y0192550D02*
X0755153Y0192550D01*
X0755153Y0190952D02*
X0770543Y0190952D01*
X0770543Y0189353D02*
X0755153Y0189353D01*
X0755673Y0187754D02*
X0770543Y0187754D01*
X0770934Y0186156D02*
X0757271Y0186156D01*
X0758870Y0184557D02*
X0772059Y0184557D01*
X0778564Y0184557D02*
X0791451Y0184557D01*
X0792597Y0182959D02*
X0760468Y0182959D01*
X0762067Y0181360D02*
X0792597Y0181360D01*
X0792597Y0179762D02*
X0763665Y0179762D01*
X0765264Y0178163D02*
X0792597Y0178163D01*
X0792597Y0176565D02*
X0766862Y0176565D01*
X0768461Y0174966D02*
X0792597Y0174966D01*
X0792597Y0173368D02*
X0770059Y0173368D01*
X0771658Y0171769D02*
X0792597Y0171769D01*
X0792597Y0170171D02*
X0773256Y0170171D01*
X0774855Y0168572D02*
X0792597Y0168572D01*
X0792597Y0166974D02*
X0776453Y0166974D01*
X0777638Y0165375D02*
X0792597Y0165375D01*
X0792597Y0163777D02*
X0777712Y0163777D01*
X0777712Y0162178D02*
X0792597Y0162178D01*
X0792597Y0160580D02*
X0777712Y0160580D01*
X0778090Y0158981D02*
X0792597Y0158981D01*
X0792597Y0157383D02*
X0779493Y0157383D01*
X0780080Y0155784D02*
X0792597Y0155784D01*
X0792597Y0154186D02*
X0780080Y0154186D01*
X0780080Y0152587D02*
X0792597Y0152587D01*
X0792597Y0150989D02*
X0780080Y0150989D01*
X0780080Y0149390D02*
X0792597Y0149390D01*
X0792597Y0147792D02*
X0780080Y0147792D01*
X0779444Y0146193D02*
X0792597Y0146193D01*
X0792597Y0144595D02*
X0777913Y0144595D01*
X0777712Y0142996D02*
X0792597Y0142996D01*
X0792597Y0141398D02*
X0777712Y0141398D01*
X0777712Y0139799D02*
X0792597Y0139799D01*
X0792597Y0138201D02*
X0777712Y0138201D01*
X0777712Y0136602D02*
X0792597Y0136602D01*
X0792597Y0135004D02*
X0777712Y0135004D01*
X0777712Y0133405D02*
X0792597Y0133405D01*
X0792597Y0131807D02*
X0777712Y0131807D01*
X0777712Y0130208D02*
X0792597Y0130208D01*
X0792597Y0128610D02*
X0777712Y0128610D01*
X0777712Y0127011D02*
X0792597Y0127011D01*
X0792597Y0125413D02*
X0777712Y0125413D01*
X0777712Y0123814D02*
X0792597Y0123814D01*
X0792597Y0122216D02*
X0777712Y0122216D01*
X0777712Y0120617D02*
X0792597Y0120617D01*
X0791626Y0119018D02*
X0777712Y0119018D01*
X0777712Y0117420D02*
X0790570Y0117420D01*
X0790228Y0115821D02*
X0777712Y0115821D01*
X0777712Y0114223D02*
X0790228Y0114223D01*
X0790228Y0112624D02*
X0777712Y0112624D01*
X0777712Y0111026D02*
X0790228Y0111026D01*
X0790228Y0109427D02*
X0776719Y0109427D01*
X0775121Y0107829D02*
X0790448Y0107829D01*
X0791331Y0106230D02*
X0773522Y0106230D01*
X0771923Y0104632D02*
X0792597Y0104632D01*
X0791096Y0103033D02*
X0770325Y0103033D01*
X0768726Y0101435D02*
X0789497Y0101435D01*
X0787899Y0099836D02*
X0767128Y0099836D01*
X0762707Y0090392D02*
X0761621Y0090392D01*
X0760693Y0089464D01*
X0760693Y0089464D01*
X0751329Y0080100D01*
X0753990Y0080100D01*
X0755002Y0079088D01*
X0755002Y0082171D01*
X0755368Y0083053D01*
X0762707Y0090392D01*
X0762560Y0090245D02*
X0761474Y0090245D01*
X0760961Y0088647D02*
X0759875Y0088647D01*
X0759363Y0087048D02*
X0758277Y0087048D01*
X0757764Y0085450D02*
X0756678Y0085450D01*
X0756166Y0083851D02*
X0755080Y0083851D01*
X0755036Y0082253D02*
X0753481Y0082253D01*
X0755002Y0080654D02*
X0751883Y0080654D01*
X0746502Y0078668D02*
X0758658Y0090824D01*
X0746502Y0078668D02*
X0746502Y0065300D01*
X0743542Y0061472D02*
X0738663Y0061472D01*
X0740261Y0063071D02*
X0741943Y0063071D01*
X0741702Y0064669D02*
X0740502Y0064669D01*
X0740502Y0066268D02*
X0741702Y0066268D01*
X0742280Y0067866D02*
X0739924Y0067866D01*
X0738326Y0069465D02*
X0743879Y0069465D01*
X0743654Y0071063D02*
X0744102Y0071063D01*
X0738551Y0071063D02*
X0738102Y0071063D01*
X0733302Y0079056D02*
X0733235Y0079056D01*
X0716370Y0079056D02*
X0716302Y0079056D01*
X0705843Y0088647D02*
X0698972Y0088647D01*
X0698972Y0090245D02*
X0707442Y0090245D01*
X0709040Y0091844D02*
X0698972Y0091844D01*
X0698972Y0093442D02*
X0710639Y0093442D01*
X0712237Y0095041D02*
X0698972Y0095041D01*
X0698972Y0096639D02*
X0713836Y0096639D01*
X0715434Y0098238D02*
X0698972Y0098238D01*
X0698972Y0099836D02*
X0717033Y0099836D01*
X0718631Y0101435D02*
X0698972Y0101435D01*
X0698972Y0103033D02*
X0720230Y0103033D01*
X0721828Y0104632D02*
X0698972Y0104632D01*
X0694172Y0104632D02*
X0683702Y0104632D01*
X0683702Y0103033D02*
X0694172Y0103033D01*
X0694172Y0101435D02*
X0683702Y0101435D01*
X0683702Y0099836D02*
X0694172Y0099836D01*
X0694172Y0098238D02*
X0683702Y0098238D01*
X0683702Y0096639D02*
X0694172Y0096639D01*
X0694172Y0095041D02*
X0683702Y0095041D01*
X0683702Y0093442D02*
X0694172Y0093442D01*
X0694172Y0091844D02*
X0683702Y0091844D01*
X0683702Y0090245D02*
X0694172Y0090245D01*
X0694032Y0088647D02*
X0683702Y0088647D01*
X0683702Y0087048D02*
X0692434Y0087048D01*
X0690835Y0085450D02*
X0683702Y0085450D01*
X0683702Y0083851D02*
X0689802Y0083851D01*
X0689802Y0082253D02*
X0683702Y0082253D01*
X0683702Y0080654D02*
X0689802Y0080654D01*
X0694602Y0080654D02*
X0700702Y0080654D01*
X0700702Y0079056D02*
X0700635Y0079056D01*
X0700702Y0082253D02*
X0694602Y0082253D01*
X0696025Y0083851D02*
X0701059Y0083851D01*
X0702646Y0085450D02*
X0697623Y0085450D01*
X0698861Y0087048D02*
X0704245Y0087048D01*
X0683770Y0079056D02*
X0683702Y0079056D01*
X0668102Y0079056D02*
X0668035Y0079056D01*
X0672902Y0071063D02*
X0673351Y0071063D01*
X0648702Y0065300D02*
X0648702Y0082669D01*
X0646302Y0081675D02*
X0646302Y0079088D01*
X0645290Y0080100D01*
X0641314Y0080100D01*
X0640302Y0079088D01*
X0640302Y0082136D01*
X0639937Y0083018D01*
X0638645Y0084309D01*
X0636677Y0086278D01*
X0628803Y0094152D01*
X0628625Y0094329D01*
X0633648Y0094329D01*
X0635251Y0092726D01*
X0641157Y0086820D01*
X0644419Y0083559D01*
X0646302Y0081675D01*
X0645725Y0082253D02*
X0640254Y0082253D01*
X0640302Y0080654D02*
X0646302Y0080654D01*
X0644126Y0083851D02*
X0639103Y0083851D01*
X0637505Y0085450D02*
X0642528Y0085450D01*
X0640929Y0087048D02*
X0635906Y0087048D01*
X0634308Y0088647D02*
X0639331Y0088647D01*
X0637732Y0090245D02*
X0632709Y0090245D01*
X0631111Y0091844D02*
X0636134Y0091844D01*
X0634535Y0093442D02*
X0629512Y0093442D01*
X0626768Y0092792D02*
X0617831Y0092792D01*
X0598146Y0112477D01*
X0598146Y0151847D01*
X0598146Y0174406D01*
X0603146Y0179406D01*
X0603146Y0195154D01*
X0626768Y0218776D01*
X0626768Y0254209D01*
X0643277Y0243702D02*
X0668181Y0243702D01*
X0668181Y0242104D02*
X0641679Y0242104D01*
X0640080Y0240505D02*
X0668181Y0240505D01*
X0668181Y0238907D02*
X0639916Y0238907D01*
X0639916Y0237308D02*
X0654010Y0237308D01*
X0654500Y0237798D02*
X0653159Y0236457D01*
X0652433Y0234704D01*
X0652433Y0226470D01*
X0653159Y0224718D01*
X0654500Y0223376D01*
X0656253Y0222650D01*
X0658150Y0222650D01*
X0659903Y0223376D01*
X0661244Y0224718D01*
X0661970Y0226470D01*
X0661970Y0234704D01*
X0661244Y0236457D01*
X0659903Y0237798D01*
X0658150Y0238524D01*
X0656253Y0238524D01*
X0654500Y0237798D01*
X0652849Y0235710D02*
X0639916Y0235710D01*
X0639916Y0234111D02*
X0652433Y0234111D01*
X0652433Y0232513D02*
X0639916Y0232513D01*
X0639916Y0230914D02*
X0652433Y0230914D01*
X0652433Y0229316D02*
X0639916Y0229316D01*
X0639916Y0227717D02*
X0652433Y0227717D01*
X0652579Y0226119D02*
X0639916Y0226119D01*
X0639916Y0224520D02*
X0653356Y0224520D01*
X0655598Y0222922D02*
X0639916Y0222922D01*
X0639916Y0221323D02*
X0668181Y0221323D01*
X0668181Y0219725D02*
X0639916Y0219725D01*
X0639916Y0218126D02*
X0668181Y0218126D01*
X0668181Y0216528D02*
X0639916Y0216528D01*
X0639916Y0214929D02*
X0668181Y0214929D01*
X0668181Y0213331D02*
X0639916Y0213331D01*
X0639916Y0211732D02*
X0668181Y0211732D01*
X0668181Y0210134D02*
X0639916Y0210134D01*
X0639916Y0208535D02*
X0668181Y0208535D01*
X0668181Y0206937D02*
X0639916Y0206937D01*
X0639916Y0205338D02*
X0668181Y0205338D01*
X0668181Y0203740D02*
X0639916Y0203740D01*
X0639916Y0202141D02*
X0668181Y0202141D01*
X0668181Y0200543D02*
X0639916Y0200543D01*
X0639916Y0198944D02*
X0655745Y0198944D01*
X0653417Y0197346D02*
X0639916Y0197346D01*
X0639916Y0195747D02*
X0652604Y0195747D01*
X0652433Y0194149D02*
X0639916Y0194149D01*
X0639916Y0192550D02*
X0652433Y0192550D01*
X0652433Y0190952D02*
X0639916Y0190952D01*
X0639916Y0189353D02*
X0652433Y0189353D01*
X0652433Y0187754D02*
X0639916Y0187754D01*
X0639916Y0186156D02*
X0652824Y0186156D01*
X0653949Y0184557D02*
X0639916Y0184557D01*
X0639916Y0182959D02*
X0658423Y0182959D01*
X0656824Y0181360D02*
X0639916Y0181360D01*
X0639916Y0179762D02*
X0655226Y0179762D01*
X0654801Y0178163D02*
X0639916Y0178163D01*
X0639916Y0176565D02*
X0654801Y0176565D01*
X0654801Y0174966D02*
X0639916Y0174966D01*
X0639916Y0173368D02*
X0654801Y0173368D01*
X0654801Y0171769D02*
X0639916Y0171769D01*
X0639916Y0170171D02*
X0654801Y0170171D01*
X0654801Y0168572D02*
X0639916Y0168572D01*
X0639916Y0166974D02*
X0654801Y0166974D01*
X0654801Y0165375D02*
X0639916Y0165375D01*
X0639916Y0163777D02*
X0654801Y0163777D01*
X0654801Y0162178D02*
X0639916Y0162178D01*
X0639916Y0160580D02*
X0654801Y0160580D01*
X0654801Y0158981D02*
X0640295Y0158981D01*
X0641697Y0157383D02*
X0654801Y0157383D01*
X0654801Y0155784D02*
X0642285Y0155784D01*
X0642285Y0154186D02*
X0654801Y0154186D01*
X0654801Y0152587D02*
X0642285Y0152587D01*
X0642285Y0150989D02*
X0654801Y0150989D01*
X0654801Y0149390D02*
X0642285Y0149390D01*
X0642285Y0147792D02*
X0654801Y0147792D01*
X0654801Y0146193D02*
X0641648Y0146193D01*
X0640117Y0144595D02*
X0654801Y0144595D01*
X0654801Y0142996D02*
X0639916Y0142996D01*
X0639916Y0141398D02*
X0654801Y0141398D01*
X0654801Y0139799D02*
X0639916Y0139799D01*
X0639916Y0138201D02*
X0654801Y0138201D01*
X0654801Y0136602D02*
X0639916Y0136602D01*
X0639916Y0135004D02*
X0654801Y0135004D01*
X0654801Y0133405D02*
X0639916Y0133405D01*
X0639916Y0131807D02*
X0654801Y0131807D01*
X0654801Y0130208D02*
X0639916Y0130208D01*
X0639916Y0128610D02*
X0654801Y0128610D01*
X0654801Y0127011D02*
X0639916Y0127011D01*
X0639916Y0125413D02*
X0654801Y0125413D01*
X0654801Y0123814D02*
X0639916Y0123814D01*
X0639916Y0122216D02*
X0654801Y0122216D01*
X0654801Y0120617D02*
X0639916Y0120617D01*
X0639916Y0119018D02*
X0653831Y0119018D01*
X0652775Y0117420D02*
X0639916Y0117420D01*
X0639916Y0115821D02*
X0652433Y0115821D01*
X0652433Y0114223D02*
X0640228Y0114223D01*
X0641826Y0112624D02*
X0652433Y0112624D01*
X0652433Y0111026D02*
X0643425Y0111026D01*
X0645023Y0109427D02*
X0652433Y0109427D01*
X0652653Y0107829D02*
X0646622Y0107829D01*
X0648220Y0106230D02*
X0653536Y0106230D01*
X0657201Y0105666D02*
X0657201Y0112477D01*
X0657201Y0178343D01*
X0666138Y0187280D01*
X0670581Y0191723D01*
X0670581Y0281965D01*
X0675381Y0282067D02*
X0676581Y0282067D01*
X0676581Y0283665D02*
X0675381Y0283665D01*
X0674071Y0285264D02*
X0677891Y0285264D01*
X0676581Y0280468D02*
X0675381Y0280468D01*
X0674273Y0278870D02*
X0677688Y0278870D01*
X0678981Y0277271D02*
X0672981Y0277271D01*
X0668181Y0277271D02*
X0662081Y0277271D01*
X0663373Y0278870D02*
X0666888Y0278870D01*
X0665781Y0280468D02*
X0664481Y0280468D01*
X0664481Y0282067D02*
X0665781Y0282067D01*
X0665781Y0283665D02*
X0664481Y0283665D01*
X0663171Y0285264D02*
X0667091Y0285264D01*
X0668162Y0275673D02*
X0668181Y0275673D01*
X0668181Y0267680D02*
X0667584Y0267680D01*
X0668181Y0266082D02*
X0662081Y0266082D01*
X0662081Y0267680D02*
X0662578Y0267680D01*
X0662081Y0264483D02*
X0668181Y0264483D01*
X0668181Y0262885D02*
X0662024Y0262885D01*
X0660861Y0261286D02*
X0668181Y0261286D01*
X0668181Y0259687D02*
X0659263Y0259687D01*
X0657664Y0258089D02*
X0668181Y0258089D01*
X0668181Y0256490D02*
X0656066Y0256490D01*
X0654467Y0254892D02*
X0668181Y0254892D01*
X0668181Y0253293D02*
X0652869Y0253293D01*
X0651270Y0251695D02*
X0668181Y0251695D01*
X0668181Y0250096D02*
X0649671Y0250096D01*
X0648073Y0248498D02*
X0668181Y0248498D01*
X0668181Y0246899D02*
X0646474Y0246899D01*
X0644876Y0245301D02*
X0668181Y0245301D01*
X0668181Y0237308D02*
X0660393Y0237308D01*
X0661553Y0235710D02*
X0668181Y0235710D01*
X0668181Y0234111D02*
X0661970Y0234111D01*
X0661970Y0232513D02*
X0668181Y0232513D01*
X0668181Y0230914D02*
X0661970Y0230914D01*
X0661970Y0229316D02*
X0668181Y0229316D01*
X0668181Y0227717D02*
X0661970Y0227717D01*
X0661824Y0226119D02*
X0668181Y0226119D01*
X0668181Y0224520D02*
X0661046Y0224520D01*
X0658805Y0222922D02*
X0668181Y0222922D01*
X0679286Y0222922D02*
X0694968Y0222922D01*
X0692726Y0224520D02*
X0679286Y0224520D01*
X0679286Y0226119D02*
X0691949Y0226119D01*
X0691803Y0227717D02*
X0679286Y0227717D01*
X0679286Y0229316D02*
X0691803Y0229316D01*
X0691803Y0230914D02*
X0679286Y0230914D01*
X0679286Y0232513D02*
X0691803Y0232513D01*
X0691803Y0234111D02*
X0679286Y0234111D01*
X0679286Y0235710D02*
X0692219Y0235710D01*
X0693380Y0237308D02*
X0679286Y0237308D01*
X0700417Y0224520D02*
X0703109Y0224520D01*
X0703109Y0222922D02*
X0698175Y0222922D01*
X0703109Y0221323D02*
X0679286Y0221323D01*
X0679286Y0219725D02*
X0703109Y0219725D01*
X0703109Y0218126D02*
X0679286Y0218126D01*
X0679286Y0216528D02*
X0703109Y0216528D01*
X0703109Y0214929D02*
X0679286Y0214929D01*
X0679286Y0213331D02*
X0703109Y0213331D01*
X0703109Y0211732D02*
X0679286Y0211732D01*
X0679286Y0210134D02*
X0703109Y0210134D01*
X0703109Y0208535D02*
X0679286Y0208535D01*
X0679286Y0206937D02*
X0703109Y0206937D01*
X0703109Y0205338D02*
X0679286Y0205338D01*
X0679286Y0203740D02*
X0703109Y0203740D01*
X0703109Y0202141D02*
X0679286Y0202141D01*
X0679286Y0200543D02*
X0703109Y0200543D01*
X0703109Y0198944D02*
X0698028Y0198944D01*
X0697520Y0199154D02*
X0695623Y0199154D01*
X0693870Y0198428D01*
X0692529Y0197087D01*
X0691803Y0195334D01*
X0691803Y0187100D01*
X0692529Y0185348D01*
X0693870Y0184006D01*
X0695623Y0183280D01*
X0697520Y0183280D01*
X0699273Y0184006D01*
X0700614Y0185348D01*
X0701340Y0187100D01*
X0701340Y0195334D01*
X0700614Y0197087D01*
X0699273Y0198428D01*
X0697520Y0199154D01*
X0695115Y0198944D02*
X0679286Y0198944D01*
X0679286Y0197346D02*
X0692788Y0197346D01*
X0691974Y0195747D02*
X0679286Y0195747D01*
X0679286Y0194149D02*
X0691803Y0194149D01*
X0691803Y0192550D02*
X0679286Y0192550D01*
X0679286Y0190952D02*
X0691803Y0190952D01*
X0691803Y0189353D02*
X0679286Y0189353D01*
X0679286Y0187754D02*
X0691803Y0187754D01*
X0692194Y0186156D02*
X0679286Y0186156D01*
X0679286Y0184557D02*
X0693319Y0184557D01*
X0699824Y0184557D02*
X0703109Y0184557D01*
X0703109Y0186156D02*
X0700949Y0186156D01*
X0701340Y0187754D02*
X0703109Y0187754D01*
X0703109Y0189353D02*
X0701340Y0189353D01*
X0701340Y0190952D02*
X0703109Y0190952D01*
X0703109Y0192550D02*
X0701340Y0192550D01*
X0701340Y0194149D02*
X0703109Y0194149D01*
X0703109Y0195747D02*
X0701169Y0195747D01*
X0700355Y0197346D02*
X0703109Y0197346D01*
X0701730Y0182959D02*
X0679286Y0182959D01*
X0679286Y0181360D02*
X0700132Y0181360D01*
X0698533Y0179762D02*
X0679286Y0179762D01*
X0679286Y0178163D02*
X0696935Y0178163D01*
X0695336Y0176565D02*
X0679286Y0176565D01*
X0679286Y0174966D02*
X0694206Y0174966D01*
X0694172Y0173368D02*
X0679286Y0173368D01*
X0679286Y0171769D02*
X0694172Y0171769D01*
X0694172Y0170171D02*
X0679286Y0170171D01*
X0679286Y0168572D02*
X0694172Y0168572D01*
X0694172Y0166974D02*
X0679286Y0166974D01*
X0679286Y0165375D02*
X0694172Y0165375D01*
X0694172Y0163777D02*
X0679286Y0163777D01*
X0679286Y0162178D02*
X0694172Y0162178D01*
X0694172Y0160580D02*
X0679286Y0160580D01*
X0679665Y0158981D02*
X0694172Y0158981D01*
X0694172Y0157383D02*
X0681067Y0157383D01*
X0681655Y0155784D02*
X0694172Y0155784D01*
X0694172Y0154186D02*
X0681655Y0154186D01*
X0681655Y0152587D02*
X0694172Y0152587D01*
X0694172Y0150989D02*
X0681655Y0150989D01*
X0681655Y0149390D02*
X0694172Y0149390D01*
X0694172Y0147792D02*
X0681655Y0147792D01*
X0681018Y0146193D02*
X0694172Y0146193D01*
X0694172Y0144595D02*
X0679487Y0144595D01*
X0679286Y0142996D02*
X0694172Y0142996D01*
X0694172Y0141398D02*
X0679286Y0141398D01*
X0679286Y0139799D02*
X0694172Y0139799D01*
X0694172Y0138201D02*
X0679286Y0138201D01*
X0679286Y0136602D02*
X0694172Y0136602D01*
X0694172Y0135004D02*
X0679286Y0135004D01*
X0679286Y0133405D02*
X0694172Y0133405D01*
X0694172Y0131807D02*
X0679286Y0131807D01*
X0679286Y0130208D02*
X0694172Y0130208D01*
X0694172Y0128610D02*
X0679286Y0128610D01*
X0679286Y0127011D02*
X0694172Y0127011D01*
X0694172Y0125413D02*
X0679286Y0125413D01*
X0679286Y0123814D02*
X0694172Y0123814D01*
X0694172Y0122216D02*
X0679286Y0122216D01*
X0679286Y0120617D02*
X0694172Y0120617D01*
X0693201Y0119018D02*
X0679286Y0119018D01*
X0679286Y0117420D02*
X0692145Y0117420D01*
X0691803Y0115821D02*
X0679286Y0115821D01*
X0679286Y0114223D02*
X0691803Y0114223D01*
X0691803Y0112624D02*
X0679286Y0112624D01*
X0679286Y0111026D02*
X0691803Y0111026D01*
X0691803Y0109427D02*
X0680456Y0109427D01*
X0679309Y0110575D02*
X0679309Y0110575D01*
X0682055Y0107829D02*
X0692023Y0107829D01*
X0692906Y0106230D02*
X0683468Y0106230D01*
X0636611Y0094761D02*
X0634642Y0096729D01*
X0626768Y0092792D02*
X0634642Y0084918D01*
X0636611Y0082950D01*
X0634642Y0084918D01*
X0633283Y0082883D02*
X0625774Y0090392D01*
X0624688Y0090392D01*
X0624866Y0090215D01*
X0629037Y0086044D01*
X0629402Y0085162D01*
X0629402Y0079088D01*
X0630414Y0080100D01*
X0634390Y0080100D01*
X0635502Y0078988D01*
X0635502Y0080664D01*
X0635251Y0080915D01*
X0633283Y0082883D01*
X0633914Y0082253D02*
X0629402Y0082253D01*
X0629402Y0083851D02*
X0632315Y0083851D01*
X0630717Y0085450D02*
X0629283Y0085450D01*
X0629118Y0087048D02*
X0628032Y0087048D01*
X0627520Y0088647D02*
X0626434Y0088647D01*
X0625921Y0090245D02*
X0624835Y0090245D01*
X0621837Y0086455D02*
X0612877Y0086455D01*
X0613055Y0086278D01*
X0618137Y0081196D01*
X0618502Y0080314D01*
X0618502Y0079088D01*
X0619514Y0080100D01*
X0623490Y0080100D01*
X0624602Y0078988D01*
X0624602Y0083690D01*
X0621837Y0086455D01*
X0622843Y0085450D02*
X0613883Y0085450D01*
X0615481Y0083851D02*
X0624441Y0083851D01*
X0624602Y0082253D02*
X0617080Y0082253D01*
X0618361Y0080654D02*
X0624602Y0080654D01*
X0624602Y0079056D02*
X0624535Y0079056D01*
X0629402Y0080654D02*
X0635502Y0080654D01*
X0635502Y0079056D02*
X0635435Y0079056D01*
X0637902Y0081658D02*
X0636611Y0082950D01*
X0637902Y0081658D02*
X0637902Y0065300D01*
X0634942Y0061472D02*
X0629963Y0061472D01*
X0631561Y0063071D02*
X0633343Y0063071D01*
X0633102Y0064669D02*
X0631802Y0064669D01*
X0631802Y0066268D02*
X0633102Y0066268D01*
X0633680Y0067866D02*
X0631224Y0067866D01*
X0629626Y0069465D02*
X0635279Y0069465D01*
X0635502Y0071063D02*
X0634954Y0071063D01*
X0629851Y0071063D02*
X0629402Y0071063D01*
X0640302Y0071063D02*
X0640751Y0071063D01*
X0640526Y0069465D02*
X0646079Y0069465D01*
X0645854Y0071063D02*
X0646302Y0071063D01*
X0644480Y0067866D02*
X0642124Y0067866D01*
X0642702Y0066268D02*
X0643902Y0066268D01*
X0643902Y0064669D02*
X0642702Y0064669D01*
X0642461Y0063071D02*
X0644143Y0063071D01*
X0645742Y0061472D02*
X0640863Y0061472D01*
X0612444Y0080100D02*
X0608714Y0080100D01*
X0607602Y0078988D01*
X0607602Y0079403D01*
X0607237Y0080285D01*
X0593370Y0094152D01*
X0593192Y0094329D01*
X0594278Y0094329D01*
X0605049Y0083559D01*
X0605049Y0083559D01*
X0605724Y0082883D01*
X0606606Y0082518D01*
X0610026Y0082518D01*
X0612444Y0080100D01*
X0611890Y0080654D02*
X0606867Y0080654D01*
X0607602Y0079056D02*
X0607670Y0079056D01*
X0605269Y0082253D02*
X0610292Y0082253D01*
X0609163Y0087318D02*
X0608077Y0087318D01*
X0597129Y0098266D01*
X0598215Y0098266D01*
X0609163Y0087318D01*
X0607835Y0088647D02*
X0606749Y0088647D01*
X0606236Y0090245D02*
X0605150Y0090245D01*
X0604638Y0091844D02*
X0603552Y0091844D01*
X0603039Y0093442D02*
X0601953Y0093442D01*
X0601441Y0095041D02*
X0600355Y0095041D01*
X0599842Y0096639D02*
X0598756Y0096639D01*
X0598243Y0098238D02*
X0597158Y0098238D01*
X0595165Y0093442D02*
X0594079Y0093442D01*
X0595678Y0091844D02*
X0596764Y0091844D01*
X0597276Y0090245D02*
X0598362Y0090245D01*
X0598875Y0088647D02*
X0599961Y0088647D01*
X0600473Y0087048D02*
X0601559Y0087048D01*
X0602072Y0085450D02*
X0603158Y0085450D01*
X0603670Y0083851D02*
X0604756Y0083851D01*
X0600633Y0080100D02*
X0597814Y0080100D01*
X0596802Y0079088D01*
X0596802Y0082329D01*
X0596437Y0083211D01*
X0589433Y0090215D01*
X0589255Y0090392D01*
X0590341Y0090392D01*
X0600633Y0080100D01*
X0600079Y0080654D02*
X0596802Y0080654D01*
X0596802Y0082253D02*
X0598481Y0082253D01*
X0596882Y0083851D02*
X0595796Y0083851D01*
X0595284Y0085450D02*
X0594198Y0085450D01*
X0593685Y0087048D02*
X0592599Y0087048D01*
X0592087Y0088647D02*
X0591001Y0088647D01*
X0590488Y0090245D02*
X0589402Y0090245D01*
X0586404Y0086455D02*
X0592002Y0080857D01*
X0592002Y0078988D01*
X0590890Y0080100D01*
X0586914Y0080100D01*
X0585902Y0079088D01*
X0585902Y0081418D01*
X0585537Y0082300D01*
X0581559Y0086278D01*
X0581381Y0086455D01*
X0586404Y0086455D01*
X0587410Y0085450D02*
X0582387Y0085450D01*
X0583985Y0083851D02*
X0589008Y0083851D01*
X0590607Y0082253D02*
X0585556Y0082253D01*
X0585902Y0080654D02*
X0592002Y0080654D01*
X0592002Y0079056D02*
X0591935Y0079056D01*
X0580394Y0080654D02*
X0556168Y0080654D01*
X0558551Y0079056D02*
X0575070Y0079056D01*
X0573471Y0077457D02*
X0560150Y0077457D01*
X0561087Y0075859D02*
X0573302Y0075859D01*
X0573302Y0074260D02*
X0561850Y0074260D01*
X0562279Y0072662D02*
X0573952Y0072662D01*
X0575551Y0071063D02*
X0562502Y0071063D01*
X0562502Y0069465D02*
X0580879Y0069465D01*
X0580654Y0071063D02*
X0581102Y0071063D01*
X0579280Y0067866D02*
X0562259Y0067866D01*
X0561831Y0066268D02*
X0578702Y0066268D01*
X0578702Y0064669D02*
X0561046Y0064669D01*
X0560078Y0063071D02*
X0578943Y0063071D01*
X0578796Y0082253D02*
X0481531Y0082253D01*
X0481531Y0083851D02*
X0524953Y0083851D01*
X0540717Y0075859D02*
X0481531Y0075859D01*
X0481531Y0077457D02*
X0541655Y0077457D01*
X0543253Y0079056D02*
X0481531Y0079056D01*
X0481531Y0080654D02*
X0545636Y0080654D01*
X0539954Y0074260D02*
X0481531Y0074260D01*
X0481531Y0072662D02*
X0539526Y0072662D01*
X0539302Y0071063D02*
X0481531Y0071063D01*
X0481531Y0069465D02*
X0539302Y0069465D01*
X0539545Y0067866D02*
X0481531Y0067866D01*
X0481531Y0066268D02*
X0539973Y0066268D01*
X0540759Y0064669D02*
X0481531Y0064669D01*
X0481531Y0063071D02*
X0541727Y0063071D01*
X0543325Y0061472D02*
X0481531Y0061472D01*
X0481531Y0059874D02*
X0545761Y0059874D01*
X0548434Y0091844D02*
X0556330Y0091844D01*
X0554732Y0093442D02*
X0546835Y0093442D01*
X0545237Y0095041D02*
X0553133Y0095041D01*
X0551535Y0096639D02*
X0543638Y0096639D01*
X0542040Y0098238D02*
X0549936Y0098238D01*
X0548338Y0099836D02*
X0540441Y0099836D01*
X0538843Y0101435D02*
X0546739Y0101435D01*
X0545141Y0103033D02*
X0537244Y0103033D01*
X0537921Y0104632D02*
X0535646Y0104632D01*
X0535426Y0106230D02*
X0534047Y0106230D01*
X0534543Y0107829D02*
X0532449Y0107829D01*
X0530850Y0109427D02*
X0534323Y0109427D01*
X0534323Y0111026D02*
X0529251Y0111026D01*
X0527653Y0112624D02*
X0534323Y0112624D01*
X0534323Y0114223D02*
X0526054Y0114223D01*
X0524456Y0115821D02*
X0534323Y0115821D01*
X0534665Y0117420D02*
X0522857Y0117420D01*
X0521806Y0119018D02*
X0535720Y0119018D01*
X0536691Y0120617D02*
X0521806Y0120617D01*
X0521806Y0122216D02*
X0536691Y0122216D01*
X0536691Y0123814D02*
X0521806Y0123814D01*
X0521806Y0125413D02*
X0536691Y0125413D01*
X0536691Y0127011D02*
X0521806Y0127011D01*
X0521806Y0128610D02*
X0536691Y0128610D01*
X0536691Y0130208D02*
X0521806Y0130208D01*
X0521806Y0131807D02*
X0536691Y0131807D01*
X0536691Y0133405D02*
X0521806Y0133405D01*
X0521806Y0135004D02*
X0536691Y0135004D01*
X0536691Y0136602D02*
X0521806Y0136602D01*
X0521806Y0138201D02*
X0536691Y0138201D01*
X0536691Y0139799D02*
X0521806Y0139799D01*
X0521806Y0141398D02*
X0536691Y0141398D01*
X0536691Y0142996D02*
X0521806Y0142996D01*
X0522007Y0144595D02*
X0536691Y0144595D01*
X0536691Y0146193D02*
X0523538Y0146193D01*
X0524175Y0147792D02*
X0536691Y0147792D01*
X0536691Y0149390D02*
X0524175Y0149390D01*
X0524175Y0150989D02*
X0536691Y0150989D01*
X0536691Y0152587D02*
X0524175Y0152587D01*
X0524175Y0154186D02*
X0536691Y0154186D01*
X0536691Y0155784D02*
X0524175Y0155784D01*
X0523587Y0157383D02*
X0536691Y0157383D01*
X0536691Y0158981D02*
X0522184Y0158981D01*
X0521806Y0160580D02*
X0536691Y0160580D01*
X0536691Y0162178D02*
X0521806Y0162178D01*
X0521806Y0163777D02*
X0536691Y0163777D01*
X0536691Y0165375D02*
X0521806Y0165375D01*
X0523242Y0166974D02*
X0536691Y0166974D01*
X0536691Y0168572D02*
X0524840Y0168572D01*
X0526439Y0170171D02*
X0536691Y0170171D01*
X0536691Y0171769D02*
X0528037Y0171769D01*
X0529636Y0173368D02*
X0536691Y0173368D01*
X0536725Y0174966D02*
X0530733Y0174966D01*
X0530743Y0176565D02*
X0537856Y0176565D01*
X0539454Y0178163D02*
X0530743Y0178163D01*
X0530743Y0179762D02*
X0541053Y0179762D01*
X0542651Y0181360D02*
X0530743Y0181360D01*
X0543469Y0186156D02*
X0545628Y0186156D01*
X0545628Y0187754D02*
X0543860Y0187754D01*
X0543860Y0189353D02*
X0545628Y0189353D01*
X0545628Y0190952D02*
X0543860Y0190952D01*
X0543860Y0192550D02*
X0545628Y0192550D01*
X0545628Y0194149D02*
X0543860Y0194149D01*
X0543689Y0195747D02*
X0545628Y0195747D01*
X0545628Y0197346D02*
X0542875Y0197346D01*
X0540547Y0198944D02*
X0545628Y0198944D01*
X0562346Y0202141D02*
X0592872Y0202141D01*
X0592872Y0203740D02*
X0563945Y0203740D01*
X0565543Y0205338D02*
X0592872Y0205338D01*
X0592872Y0206937D02*
X0567142Y0206937D01*
X0568740Y0208535D02*
X0592872Y0208535D01*
X0592872Y0210134D02*
X0570339Y0210134D01*
X0571937Y0211732D02*
X0592872Y0211732D01*
X0597672Y0211732D02*
X0616330Y0211732D01*
X0614732Y0210134D02*
X0597672Y0210134D01*
X0597672Y0208535D02*
X0613133Y0208535D01*
X0611534Y0206937D02*
X0597672Y0206937D01*
X0597672Y0205338D02*
X0609936Y0205338D01*
X0608337Y0203740D02*
X0597672Y0203740D01*
X0597672Y0202141D02*
X0606739Y0202141D01*
X0605140Y0200543D02*
X0597672Y0200543D01*
X0597672Y0198944D02*
X0603542Y0198944D01*
X0601943Y0197346D02*
X0597672Y0197346D01*
X0597672Y0195747D02*
X0600794Y0195747D01*
X0600746Y0194149D02*
X0597672Y0194149D01*
X0597672Y0192550D02*
X0600746Y0192550D01*
X0600746Y0190952D02*
X0597672Y0190952D01*
X0597672Y0189353D02*
X0600746Y0189353D01*
X0600746Y0187754D02*
X0597672Y0187754D01*
X0597672Y0186156D02*
X0600746Y0186156D01*
X0600746Y0184557D02*
X0597672Y0184557D01*
X0597672Y0182959D02*
X0600746Y0182959D01*
X0600746Y0181360D02*
X0597672Y0181360D01*
X0597672Y0179762D02*
X0600108Y0179762D01*
X0598509Y0178163D02*
X0597355Y0178163D01*
X0596632Y0177372D02*
X0596632Y0177372D01*
X0596911Y0176565D02*
X0595825Y0176565D01*
X0595781Y0174966D02*
X0594226Y0174966D01*
X0595746Y0173368D02*
X0592628Y0173368D01*
X0591029Y0171769D02*
X0595746Y0171769D01*
X0595746Y0170171D02*
X0589431Y0170171D01*
X0587832Y0168572D02*
X0595746Y0168572D01*
X0595746Y0166974D02*
X0586234Y0166974D01*
X0584635Y0165375D02*
X0595746Y0165375D01*
X0595746Y0163777D02*
X0583037Y0163777D01*
X0581438Y0162178D02*
X0595746Y0162178D01*
X0595746Y0160580D02*
X0580861Y0160580D01*
X0580861Y0158981D02*
X0595368Y0158981D01*
X0593965Y0157383D02*
X0580861Y0157383D01*
X0580861Y0155784D02*
X0593378Y0155784D01*
X0593378Y0154186D02*
X0580861Y0154186D01*
X0580861Y0152587D02*
X0593378Y0152587D01*
X0593378Y0150989D02*
X0580861Y0150989D01*
X0580861Y0149390D02*
X0593378Y0149390D01*
X0593378Y0147792D02*
X0580861Y0147792D01*
X0580861Y0146193D02*
X0594014Y0146193D01*
X0595545Y0144595D02*
X0580861Y0144595D01*
X0580861Y0142996D02*
X0595746Y0142996D01*
X0595746Y0141398D02*
X0580861Y0141398D01*
X0580861Y0139799D02*
X0595746Y0139799D01*
X0595746Y0138201D02*
X0580861Y0138201D01*
X0580861Y0136602D02*
X0595746Y0136602D01*
X0595746Y0135004D02*
X0580861Y0135004D01*
X0580861Y0133405D02*
X0595746Y0133405D01*
X0595746Y0131807D02*
X0580861Y0131807D01*
X0580861Y0130208D02*
X0595746Y0130208D01*
X0595746Y0128610D02*
X0580861Y0128610D01*
X0580861Y0127011D02*
X0595746Y0127011D01*
X0595746Y0125413D02*
X0580861Y0125413D01*
X0580861Y0123814D02*
X0595746Y0123814D01*
X0595746Y0122216D02*
X0580861Y0122216D01*
X0580861Y0120617D02*
X0595746Y0120617D01*
X0595746Y0119018D02*
X0581832Y0119018D01*
X0582888Y0117420D02*
X0595746Y0117420D01*
X0595746Y0115821D02*
X0583230Y0115821D01*
X0583230Y0114223D02*
X0595746Y0114223D01*
X0595746Y0112624D02*
X0583230Y0112624D01*
X0583307Y0111026D02*
X0596203Y0111026D01*
X0597802Y0109427D02*
X0584905Y0109427D01*
X0586504Y0107829D02*
X0599400Y0107829D01*
X0600999Y0106230D02*
X0588102Y0106230D01*
X0589701Y0104632D02*
X0602597Y0104632D01*
X0604196Y0103033D02*
X0599766Y0103033D01*
X0601835Y0101435D02*
X0605795Y0101435D01*
X0607393Y0099836D02*
X0603433Y0099836D01*
X0605032Y0098238D02*
X0608992Y0098238D01*
X0610590Y0096639D02*
X0606630Y0096639D01*
X0608229Y0095041D02*
X0612189Y0095041D01*
X0613787Y0093442D02*
X0609827Y0093442D01*
X0611426Y0091844D02*
X0615386Y0091844D01*
X0618825Y0095192D02*
X0600546Y0113471D01*
X0600546Y0144511D01*
X0600847Y0144636D01*
X0602189Y0145978D01*
X0602915Y0147730D01*
X0602915Y0155964D01*
X0602189Y0157717D01*
X0600847Y0159058D01*
X0600546Y0159183D01*
X0600546Y0173412D01*
X0604506Y0177372D01*
X0605181Y0178047D01*
X0605546Y0178929D01*
X0605546Y0194160D01*
X0628128Y0216742D01*
X0628305Y0216919D01*
X0628305Y0188274D01*
X0615797Y0175766D01*
X0615431Y0174884D01*
X0615431Y0119813D01*
X0615130Y0119688D01*
X0613789Y0118347D01*
X0613063Y0116594D01*
X0613063Y0108360D01*
X0613789Y0106608D01*
X0615130Y0105266D01*
X0615455Y0105132D01*
X0615797Y0104307D01*
X0624734Y0095370D01*
X0624911Y0095192D01*
X0618825Y0095192D01*
X0617378Y0096639D02*
X0623464Y0096639D01*
X0621866Y0098238D02*
X0615780Y0098238D01*
X0614181Y0099836D02*
X0620267Y0099836D01*
X0618669Y0101435D02*
X0612583Y0101435D01*
X0610984Y0103033D02*
X0617070Y0103033D01*
X0615662Y0104632D02*
X0609386Y0104632D01*
X0607787Y0106230D02*
X0614166Y0106230D01*
X0613283Y0107829D02*
X0606189Y0107829D01*
X0604590Y0109427D02*
X0613063Y0109427D01*
X0613063Y0111026D02*
X0602992Y0111026D01*
X0601393Y0112624D02*
X0613063Y0112624D01*
X0613063Y0114223D02*
X0600546Y0114223D01*
X0600546Y0115821D02*
X0613063Y0115821D01*
X0613405Y0117420D02*
X0600546Y0117420D01*
X0600546Y0119018D02*
X0614461Y0119018D01*
X0615431Y0120617D02*
X0600546Y0120617D01*
X0600546Y0122216D02*
X0615431Y0122216D01*
X0615431Y0123814D02*
X0600546Y0123814D01*
X0600546Y0125413D02*
X0615431Y0125413D01*
X0615431Y0127011D02*
X0600546Y0127011D01*
X0600546Y0128610D02*
X0615431Y0128610D01*
X0615431Y0130208D02*
X0600546Y0130208D01*
X0600546Y0131807D02*
X0615431Y0131807D01*
X0615431Y0133405D02*
X0600546Y0133405D01*
X0600546Y0135004D02*
X0615431Y0135004D01*
X0615431Y0136602D02*
X0600546Y0136602D01*
X0600546Y0138201D02*
X0615431Y0138201D01*
X0615431Y0139799D02*
X0600546Y0139799D01*
X0600546Y0141398D02*
X0615431Y0141398D01*
X0615431Y0142996D02*
X0600546Y0142996D01*
X0600747Y0144595D02*
X0615431Y0144595D01*
X0615431Y0146193D02*
X0602278Y0146193D01*
X0602915Y0147792D02*
X0615431Y0147792D01*
X0615431Y0149390D02*
X0602915Y0149390D01*
X0602915Y0150989D02*
X0615431Y0150989D01*
X0615431Y0152587D02*
X0602915Y0152587D01*
X0602915Y0154186D02*
X0615431Y0154186D01*
X0615431Y0155784D02*
X0602915Y0155784D01*
X0602327Y0157383D02*
X0615431Y0157383D01*
X0615431Y0158981D02*
X0600924Y0158981D01*
X0600546Y0160580D02*
X0615431Y0160580D01*
X0615431Y0162178D02*
X0600546Y0162178D01*
X0600546Y0163777D02*
X0615431Y0163777D01*
X0615431Y0165375D02*
X0600546Y0165375D01*
X0600546Y0166974D02*
X0615431Y0166974D01*
X0615431Y0168572D02*
X0600546Y0168572D01*
X0600546Y0170171D02*
X0615431Y0170171D01*
X0615431Y0171769D02*
X0600546Y0171769D01*
X0600546Y0173368D02*
X0615431Y0173368D01*
X0615466Y0174966D02*
X0602101Y0174966D01*
X0603699Y0176565D02*
X0616596Y0176565D01*
X0618194Y0178163D02*
X0605229Y0178163D01*
X0605546Y0179762D02*
X0619793Y0179762D01*
X0621391Y0181360D02*
X0605546Y0181360D01*
X0605546Y0182959D02*
X0622990Y0182959D01*
X0624588Y0184557D02*
X0621084Y0184557D01*
X0620532Y0184006D02*
X0621874Y0185348D01*
X0622600Y0187100D01*
X0622600Y0195334D01*
X0621874Y0197087D01*
X0620532Y0198428D01*
X0618780Y0199154D01*
X0616883Y0199154D01*
X0615130Y0198428D01*
X0613789Y0197087D01*
X0613063Y0195334D01*
X0613063Y0187100D01*
X0613789Y0185348D01*
X0615130Y0184006D01*
X0616883Y0183280D01*
X0618780Y0183280D01*
X0620532Y0184006D01*
X0622209Y0186156D02*
X0626187Y0186156D01*
X0627785Y0187754D02*
X0622600Y0187754D01*
X0622600Y0189353D02*
X0628305Y0189353D01*
X0628305Y0190952D02*
X0622600Y0190952D01*
X0622600Y0192550D02*
X0628305Y0192550D01*
X0628305Y0194149D02*
X0622600Y0194149D01*
X0622429Y0195747D02*
X0628305Y0195747D01*
X0628305Y0197346D02*
X0621615Y0197346D01*
X0619287Y0198944D02*
X0628305Y0198944D01*
X0628305Y0200543D02*
X0611929Y0200543D01*
X0613527Y0202141D02*
X0628305Y0202141D01*
X0628305Y0203740D02*
X0615126Y0203740D01*
X0616724Y0205338D02*
X0628305Y0205338D01*
X0628305Y0206937D02*
X0618323Y0206937D01*
X0619921Y0208535D02*
X0628305Y0208535D01*
X0628305Y0210134D02*
X0621520Y0210134D01*
X0623118Y0211732D02*
X0628305Y0211732D01*
X0628305Y0213331D02*
X0624717Y0213331D01*
X0626315Y0214929D02*
X0628305Y0214929D01*
X0628305Y0216528D02*
X0627914Y0216528D01*
X0624323Y0219725D02*
X0597672Y0219725D01*
X0597672Y0218126D02*
X0622724Y0218126D01*
X0621126Y0216528D02*
X0597672Y0216528D01*
X0597672Y0214929D02*
X0619527Y0214929D01*
X0617929Y0213331D02*
X0597672Y0213331D01*
X0610330Y0198944D02*
X0616375Y0198944D01*
X0614047Y0197346D02*
X0608732Y0197346D01*
X0607133Y0195747D02*
X0613234Y0195747D01*
X0613063Y0194149D02*
X0605546Y0194149D01*
X0605546Y0192550D02*
X0613063Y0192550D01*
X0613063Y0190952D02*
X0605546Y0190952D01*
X0605546Y0189353D02*
X0613063Y0189353D01*
X0613063Y0187754D02*
X0605546Y0187754D01*
X0605546Y0186156D02*
X0613454Y0186156D01*
X0614579Y0184557D02*
X0605546Y0184557D01*
X0658658Y0198944D02*
X0668181Y0198944D01*
X0668181Y0197346D02*
X0660985Y0197346D01*
X0661799Y0195747D02*
X0668181Y0195747D01*
X0668181Y0194149D02*
X0661970Y0194149D01*
X0661970Y0192550D02*
X0668014Y0192550D01*
X0666416Y0190952D02*
X0661970Y0190952D01*
X0661970Y0189353D02*
X0664817Y0189353D01*
X0663219Y0187754D02*
X0661970Y0187754D01*
X0661620Y0186156D02*
X0661579Y0186156D01*
X0666138Y0187280D02*
X0670075Y0191217D01*
X0737398Y0198944D02*
X0750353Y0198944D01*
X0750353Y0197346D02*
X0739726Y0197346D01*
X0740539Y0195747D02*
X0750353Y0195747D01*
X0750353Y0194149D02*
X0740710Y0194149D01*
X0740710Y0192550D02*
X0750353Y0192550D01*
X0750353Y0190952D02*
X0740710Y0190952D01*
X0740710Y0189353D02*
X0750353Y0189353D01*
X0750353Y0187754D02*
X0740710Y0187754D01*
X0740319Y0186156D02*
X0750621Y0186156D01*
X0752081Y0184557D02*
X0739194Y0184557D01*
X0755153Y0203740D02*
X0772269Y0203740D01*
X0770671Y0205338D02*
X0755153Y0205338D01*
X0755153Y0206937D02*
X0769072Y0206937D01*
X0767474Y0208535D02*
X0755153Y0208535D01*
X0755153Y0210134D02*
X0765875Y0210134D01*
X0764277Y0211732D02*
X0755153Y0211732D01*
X0755153Y0213331D02*
X0762678Y0213331D01*
X0762164Y0214929D02*
X0755153Y0214929D01*
X0755153Y0216528D02*
X0762164Y0216528D01*
X0762164Y0218126D02*
X0755153Y0218126D01*
X0755153Y0219725D02*
X0762164Y0219725D01*
X0762164Y0221323D02*
X0755153Y0221323D01*
X0748913Y0238907D02*
X0723657Y0238907D01*
X0723657Y0240505D02*
X0747315Y0240505D01*
X0745716Y0242104D02*
X0723657Y0242104D01*
X0723657Y0243702D02*
X0744118Y0243702D01*
X0742519Y0245301D02*
X0723657Y0245301D01*
X0723657Y0246899D02*
X0740921Y0246899D01*
X0739322Y0248498D02*
X0723657Y0248498D01*
X0723657Y0250096D02*
X0737723Y0250096D01*
X0736125Y0251695D02*
X0723657Y0251695D01*
X0723657Y0253293D02*
X0734526Y0253293D01*
X0732928Y0254892D02*
X0723657Y0254892D01*
X0723657Y0256490D02*
X0731329Y0256490D01*
X0729731Y0258089D02*
X0723657Y0258089D01*
X0723110Y0259687D02*
X0728132Y0259687D01*
X0726534Y0261286D02*
X0721511Y0261286D01*
X0719913Y0262885D02*
X0724935Y0262885D01*
X0723337Y0264483D02*
X0718314Y0264483D01*
X0716716Y0266082D02*
X0722481Y0266082D01*
X0722481Y0267680D02*
X0721984Y0267680D01*
X0716978Y0267680D02*
X0716481Y0267680D01*
X0727281Y0267680D02*
X0727878Y0267680D01*
X0727300Y0275673D02*
X0727281Y0275673D01*
X0727281Y0277271D02*
X0733381Y0277271D01*
X0732088Y0278870D02*
X0728573Y0278870D01*
X0729681Y0280468D02*
X0730981Y0280468D01*
X0738181Y0277271D02*
X0744281Y0277271D01*
X0744262Y0275673D02*
X0744281Y0275673D01*
X0742988Y0278870D02*
X0739473Y0278870D01*
X0740581Y0280468D02*
X0741881Y0280468D01*
X0741881Y0282067D02*
X0740581Y0282067D01*
X0740581Y0283665D02*
X0741881Y0283665D01*
X0743191Y0285264D02*
X0739271Y0285264D01*
X0750373Y0278870D02*
X0753788Y0278870D01*
X0752681Y0280468D02*
X0751481Y0280468D01*
X0749081Y0277271D02*
X0755081Y0277271D01*
X0754584Y0267680D02*
X0755573Y0267680D01*
X0757171Y0266082D02*
X0749081Y0266082D01*
X0749081Y0267680D02*
X0749578Y0267680D01*
X0749810Y0264483D02*
X0758770Y0264483D01*
X0760368Y0262885D02*
X0751409Y0262885D01*
X0753007Y0261286D02*
X0761967Y0261286D01*
X0763566Y0259687D02*
X0754606Y0259687D01*
X0756204Y0258089D02*
X0765164Y0258089D01*
X0722481Y0277271D02*
X0716481Y0277271D01*
X0717773Y0278870D02*
X0721188Y0278870D01*
X0720081Y0280468D02*
X0718881Y0280468D01*
X0718881Y0282067D02*
X0720081Y0282067D01*
X0720081Y0283665D02*
X0718881Y0283665D01*
X0717571Y0285264D02*
X0721391Y0285264D01*
X0710388Y0278870D02*
X0706873Y0278870D01*
X0707981Y0280468D02*
X0709281Y0280468D01*
X0711681Y0277271D02*
X0705581Y0277271D01*
X0700781Y0275673D02*
X0700762Y0275673D01*
X0711662Y0275673D02*
X0711681Y0275673D01*
X0705509Y0262083D02*
X0707477Y0260115D01*
X0657281Y0267680D02*
X0656784Y0267680D01*
X0657281Y0277271D02*
X0651181Y0277271D01*
X0651181Y0275673D02*
X0651200Y0275673D01*
X0652473Y0278870D02*
X0655988Y0278870D01*
X0654881Y0280468D02*
X0653581Y0280468D01*
X0646381Y0277271D02*
X0640381Y0277271D01*
X0641673Y0278870D02*
X0645088Y0278870D01*
X0643981Y0280468D02*
X0642781Y0280468D01*
X0642781Y0282067D02*
X0643981Y0282067D01*
X0643981Y0283665D02*
X0642781Y0283665D01*
X0641471Y0285264D02*
X0645291Y0285264D01*
X0634288Y0278870D02*
X0630773Y0278870D01*
X0631881Y0280468D02*
X0633181Y0280468D01*
X0635581Y0277271D02*
X0629481Y0277271D01*
X0635562Y0275673D02*
X0635581Y0275673D01*
X0587398Y0258146D02*
X0585430Y0256178D01*
X0589758Y0245301D02*
X0590844Y0245301D01*
X0498265Y0198944D02*
X0481531Y0198944D01*
X0481531Y0197346D02*
X0495937Y0197346D01*
X0495124Y0195747D02*
X0481531Y0195747D01*
X0481531Y0194149D02*
X0494953Y0194149D01*
X0494953Y0192550D02*
X0481531Y0192550D01*
X0481531Y0190952D02*
X0494953Y0190952D01*
X0494953Y0189353D02*
X0481531Y0189353D01*
X0481531Y0187754D02*
X0494953Y0187754D01*
X0495344Y0186156D02*
X0481531Y0186156D01*
X0481531Y0184557D02*
X0496469Y0184557D01*
X0520469Y0116414D02*
X0522438Y0114446D01*
X0540261Y0104632D02*
X0543542Y0104632D01*
X0770702Y0071063D02*
X0771151Y0071063D01*
X0809905Y0091433D02*
X0809905Y0091433D01*
X0808324Y0096639D02*
X0791490Y0096639D01*
X0793089Y0098238D02*
X0809922Y0098238D01*
X0811521Y0099836D02*
X0794687Y0099836D01*
X0796286Y0101435D02*
X0812282Y0101435D01*
X0812282Y0103033D02*
X0797385Y0103033D01*
X0797397Y0104632D02*
X0812282Y0104632D01*
X0812282Y0106230D02*
X0798662Y0106230D01*
X0799545Y0107829D02*
X0812282Y0107829D01*
X0812282Y0109427D02*
X0799765Y0109427D01*
X0799765Y0111026D02*
X0812282Y0111026D01*
X0812282Y0112624D02*
X0799765Y0112624D01*
X0799765Y0114223D02*
X0812282Y0114223D01*
X0812282Y0115821D02*
X0799765Y0115821D01*
X0799423Y0117420D02*
X0812282Y0117420D01*
X0812282Y0119018D02*
X0798368Y0119018D01*
X0797397Y0120617D02*
X0812282Y0120617D01*
X0812282Y0122216D02*
X0797397Y0122216D01*
X0797397Y0123814D02*
X0812282Y0123814D01*
X0812282Y0125413D02*
X0797397Y0125413D01*
X0797397Y0127011D02*
X0812282Y0127011D01*
X0812282Y0128610D02*
X0797397Y0128610D01*
X0797397Y0130208D02*
X0812282Y0130208D01*
X0812282Y0131807D02*
X0797397Y0131807D01*
X0797397Y0133405D02*
X0812282Y0133405D01*
X0812282Y0135004D02*
X0797397Y0135004D01*
X0797397Y0136602D02*
X0812282Y0136602D01*
X0812282Y0138201D02*
X0797397Y0138201D01*
X0797397Y0139799D02*
X0812282Y0139799D01*
X0812282Y0141398D02*
X0797397Y0141398D01*
X0797397Y0142996D02*
X0812282Y0142996D01*
X0812081Y0144595D02*
X0797397Y0144595D01*
X0797397Y0146193D02*
X0810550Y0146193D01*
X0809913Y0147792D02*
X0797397Y0147792D01*
X0797397Y0149390D02*
X0809913Y0149390D01*
X0809913Y0150989D02*
X0797397Y0150989D01*
X0797397Y0152587D02*
X0809913Y0152587D01*
X0809913Y0154186D02*
X0797397Y0154186D01*
X0797397Y0155784D02*
X0809913Y0155784D01*
X0810501Y0157383D02*
X0797397Y0157383D01*
X0797397Y0158981D02*
X0811904Y0158981D01*
X0812282Y0160580D02*
X0797397Y0160580D01*
X0797397Y0162178D02*
X0812282Y0162178D01*
X0812282Y0163777D02*
X0797397Y0163777D01*
X0797397Y0165375D02*
X0812282Y0165375D01*
X0812282Y0166974D02*
X0797397Y0166974D01*
X0797397Y0168572D02*
X0812282Y0168572D01*
X0812282Y0170171D02*
X0797397Y0170171D01*
X0797397Y0171769D02*
X0812282Y0171769D01*
X0812282Y0173368D02*
X0797397Y0173368D01*
X0797397Y0174966D02*
X0812282Y0174966D01*
X0811255Y0176565D02*
X0797397Y0176565D01*
X0797397Y0178163D02*
X0809657Y0178163D01*
X0808058Y0179762D02*
X0797397Y0179762D01*
X0797397Y0181360D02*
X0806459Y0181360D01*
X0804861Y0182959D02*
X0797397Y0182959D01*
X0797397Y0184557D02*
X0803262Y0184557D01*
X0801664Y0186156D02*
X0796641Y0186156D01*
X0795043Y0187754D02*
X0800065Y0187754D01*
X0798467Y0189353D02*
X0793444Y0189353D01*
X0791846Y0190952D02*
X0796868Y0190952D01*
X0795270Y0192550D02*
X0790247Y0192550D01*
X0788649Y0194149D02*
X0793671Y0194149D01*
X0792073Y0195747D02*
X0787050Y0195747D01*
X0783459Y0192550D02*
X0780080Y0192550D01*
X0780080Y0190952D02*
X0785057Y0190952D01*
X0786656Y0189353D02*
X0780080Y0189353D01*
X0780080Y0187754D02*
X0788254Y0187754D01*
X0789853Y0186156D02*
X0779689Y0186156D01*
X0780080Y0194149D02*
X0781860Y0194149D01*
X0780262Y0195747D02*
X0779909Y0195747D01*
X0796060Y0195154D02*
X0814682Y0176532D01*
X0814682Y0151847D01*
X0814682Y0099603D01*
X0811649Y0182959D02*
X0831967Y0182959D01*
X0845704Y0184557D02*
X0850800Y0184557D01*
X0849674Y0186156D02*
X0845704Y0186156D01*
X0845704Y0187754D02*
X0849283Y0187754D01*
X0849283Y0189353D02*
X0845704Y0189353D01*
X0845704Y0190952D02*
X0849283Y0190952D01*
X0849283Y0192550D02*
X0845704Y0192550D01*
X0845704Y0194149D02*
X0849283Y0194149D01*
X0849454Y0195747D02*
X0845704Y0195747D01*
X0845704Y0197346D02*
X0850268Y0197346D01*
X0852596Y0198944D02*
X0845704Y0198944D01*
X0810898Y0197346D02*
X0797263Y0197346D01*
X0798861Y0195747D02*
X0810084Y0195747D01*
X0809913Y0194149D02*
X0800460Y0194149D01*
X0802058Y0192550D02*
X0809913Y0192550D01*
X0809913Y0190952D02*
X0803657Y0190952D01*
X0805255Y0189353D02*
X0809913Y0189353D01*
X0809913Y0187754D02*
X0806854Y0187754D01*
X0808452Y0186156D02*
X0810304Y0186156D01*
X0810051Y0184557D02*
X0811429Y0184557D01*
M02*
