%
M48
M72
T01C0.0394
T02C0.0400
T03C0.1300
%
T01
X4364Y11628
X8281Y11615
X12234Y11621
X16168Y11625
X20111Y11627
X24034Y11591
X27974Y11602
X31912Y11579
X35864Y11569
X39758Y11591
X37787Y15522
X33880Y15554
X29954Y15567
X26005Y15553
X22068Y15550
X18128Y15539
X14213Y15558
X10253Y15521
X6323Y15556
X2381Y15553
X4349Y19509
X8293Y19495
X12210Y19485
X16175Y19512
X20105Y19495
X24050Y19481
X27961Y19504
X31932Y19480
X35834Y19455
X39786Y19456
T02
X31818Y23410
X30738Y23410
X29648Y23410
X28558Y23410
X27478Y23410
X26388Y23410
X25298Y23410
X24208Y23410
X23128Y23410
X22038Y23410
X20948Y23410
X19868Y23410
X18778Y23410
X17688Y23410
X16608Y23410
X15518Y23410
X14428Y23410
X13348Y23410
X12258Y23410
X12798Y24410
X13888Y24410
X14978Y24410
X16058Y24410
X17148Y24410
X18238Y24410
X19318Y24410
X20408Y24410
X21498Y24410
X22578Y24410
X23668Y24410
X24758Y24410
X25838Y24410
X26928Y24410
X28018Y24410
X29108Y24410
X30188Y24410
X31278Y24410
X31810Y7680
X30720Y7680
X29640Y7680
X28550Y7680
X27460Y7680
X26380Y7680
X25290Y7680
X24200Y7680
X23120Y7680
X22030Y7680
X20940Y7680
X19860Y7680
X18770Y7680
X17680Y7680
X16590Y7680
X15510Y7680
X14420Y7680
X13330Y7680
X12250Y7680
X12790Y6680
X13880Y6680
X14960Y6680
X16050Y6680
X17140Y6680
X18220Y6680
X19310Y6680
X20400Y6680
X21490Y6680
X22570Y6680
X23660Y6680
X24750Y6680
X25830Y6680
X26920Y6680
X28010Y6680
X29090Y6680
X30180Y6680
X31270Y6680
T03
X9530Y7180
X9538Y23910
X34538Y23910
X34530Y7180
M30
