%
M48
M72
T01C0.0394
T02C0.0400
T03C0.1300
%
T01
X49972Y11248
X53909Y11248
X57846Y11248
X61783Y11248
X65720Y11248
X69657Y11248
X74594Y11248
X79500Y11248
X83437Y11248
X85405Y15185
X81468Y15185
X77531Y15185
X72626Y15185
X67689Y15185
X63752Y15185
X59815Y15185
X55878Y15185
X51941Y15185
X53909Y19122
X49972Y19122
X57846Y19122
X61783Y19122
X65720Y19122
X69657Y19122
X73594Y19122
X77531Y19122
X81468Y19122
X85405Y19122
X85405Y23059
X81468Y23059
X77531Y23059
X73594Y23059
X69657Y23059
X65720Y23059
X61783Y23059
X57846Y23059
X53909Y23059
T02
X57818Y27197
X58908Y27197
X59988Y27197
X61078Y27197
X62168Y27197
X63248Y27197
X64338Y27197
X65428Y27197
X66508Y27197
X67598Y27197
X68688Y27197
X69768Y27197
X70858Y27197
X71948Y27197
X73038Y27197
X74118Y27197
X75208Y27197
X76298Y27197
X77378Y27197
X76838Y28197
X75748Y28197
X74668Y28197
X73578Y28197
X72488Y28197
X71408Y28197
X70318Y28197
X69228Y28197
X68138Y28197
X67058Y28197
X65968Y28197
X64878Y28197
X63798Y28197
X62708Y28197
X61618Y28197
X60538Y28197
X59448Y28197
X58358Y28197
X58890Y7530
X59980Y7530
X61070Y7530
X62150Y7530
X63240Y7530
X64330Y7530
X65420Y7530
X66500Y7530
X67590Y7530
X68680Y7530
X69760Y7530
X70850Y7530
X71940Y7530
X73020Y7530
X74110Y7530
X75200Y7530
X76280Y7530
X77370Y7530
X76830Y6530
X75740Y6530
X74650Y6530
X73570Y6530
X72480Y6530
X71390Y6530
X70310Y6530
X69220Y6530
X68130Y6530
X67050Y6530
X65960Y6530
X64870Y6530
X63790Y6530
X62700Y6530
X61610Y6530
X60520Y6530
X59440Y6530
X58350Y6530
X57810Y7530
T03
X55090Y7030
X80090Y7030
X80098Y27697
X55098Y27697
M30
