G75*
%MOIN*%
%OFA0B0*%
%FSLAX25Y25*%
%IPPOS*%
%LPD*%
%AMOC8*
5,1,8,0,0,1.08239X$1,22.5*
%
%ADD10C,0.01500*%
%ADD11C,0.01000*%
%ADD12C,0.03100*%
%ADD13C,0.00600*%
%ADD14C,0.00500*%
%ADD15R,0.01000X0.09500*%
%ADD16R,0.04000X0.06500*%
%ADD17R,2.25000X0.03000*%
%ADD18R,2.74000X0.02000*%
%ADD19R,0.03200X0.28500*%
%ADD20R,0.03200X0.18500*%
D10*
X0479664Y0111533D02*
X0483734Y0115603D01*
X0483734Y0116620D01*
X0482717Y0117638D01*
X0480682Y0117638D01*
X0479664Y0116620D01*
X0486662Y0116620D02*
X0486662Y0112550D01*
X0490732Y0116620D01*
X0490732Y0112550D01*
X0489715Y0111533D01*
X0487680Y0111533D01*
X0486662Y0112550D01*
X0483734Y0111533D02*
X0479664Y0111533D01*
X0486662Y0116620D02*
X0487680Y0117638D01*
X0489715Y0117638D01*
X0490732Y0116620D01*
X0517066Y0116620D02*
X0518083Y0117638D01*
X0520118Y0117638D01*
X0521136Y0116620D01*
X0521136Y0115603D01*
X0517066Y0111533D01*
X0521136Y0111533D01*
X0524064Y0111533D02*
X0528134Y0115603D01*
X0528134Y0116620D01*
X0527116Y0117638D01*
X0525081Y0117638D01*
X0524064Y0116620D01*
X0524064Y0111533D02*
X0528134Y0111533D01*
X0556436Y0111533D02*
X0560506Y0115603D01*
X0560506Y0116620D01*
X0559488Y0117638D01*
X0557453Y0117638D01*
X0556436Y0116620D01*
X0563434Y0114585D02*
X0567504Y0114585D01*
X0566486Y0111533D02*
X0566486Y0117638D01*
X0563434Y0114585D01*
X0560506Y0111533D02*
X0556436Y0111533D01*
X0599743Y0111533D02*
X0603813Y0115603D01*
X0603813Y0116620D01*
X0602795Y0117638D01*
X0600760Y0117638D01*
X0599743Y0116620D01*
X0606741Y0114585D02*
X0609793Y0114585D01*
X0610811Y0113568D01*
X0610811Y0112550D01*
X0609793Y0111533D01*
X0607758Y0111533D01*
X0606741Y0112550D01*
X0606741Y0114585D01*
X0608776Y0116620D01*
X0610811Y0117638D01*
X0603813Y0111533D02*
X0599743Y0111533D01*
X0639113Y0111533D02*
X0643183Y0115603D01*
X0643183Y0116620D01*
X0642166Y0117638D01*
X0640130Y0117638D01*
X0639113Y0116620D01*
X0646111Y0116620D02*
X0646111Y0115603D01*
X0647128Y0114585D01*
X0649164Y0114585D01*
X0650181Y0113568D01*
X0650181Y0112550D01*
X0649164Y0111533D01*
X0647128Y0111533D01*
X0646111Y0112550D01*
X0646111Y0113568D01*
X0647128Y0114585D01*
X0649164Y0114585D02*
X0650181Y0115603D01*
X0650181Y0116620D01*
X0649164Y0117638D01*
X0647128Y0117638D01*
X0646111Y0116620D01*
X0643183Y0111533D02*
X0639113Y0111533D01*
X0678483Y0112550D02*
X0679501Y0111533D01*
X0681536Y0111533D01*
X0682553Y0112550D01*
X0682553Y0113568D01*
X0681536Y0114585D01*
X0680518Y0114585D01*
X0681536Y0114585D02*
X0682553Y0115603D01*
X0682553Y0116620D01*
X0681536Y0117638D01*
X0679501Y0117638D01*
X0678483Y0116620D01*
X0685481Y0116620D02*
X0685481Y0112550D01*
X0689551Y0116620D01*
X0689551Y0112550D01*
X0688534Y0111533D01*
X0686499Y0111533D01*
X0685481Y0112550D01*
X0685481Y0116620D02*
X0686499Y0117638D01*
X0688534Y0117638D01*
X0689551Y0116620D01*
X0725727Y0116620D02*
X0726745Y0117638D01*
X0728780Y0117638D01*
X0729797Y0116620D01*
X0729797Y0115603D01*
X0728780Y0114585D01*
X0729797Y0113568D01*
X0729797Y0112550D01*
X0728780Y0111533D01*
X0726745Y0111533D01*
X0725727Y0112550D01*
X0727762Y0114585D02*
X0728780Y0114585D01*
X0732725Y0116620D02*
X0733743Y0117638D01*
X0735778Y0117638D01*
X0736795Y0116620D01*
X0736795Y0115603D01*
X0732725Y0111533D01*
X0736795Y0111533D01*
X0776908Y0112550D02*
X0777926Y0111533D01*
X0779961Y0111533D01*
X0780978Y0112550D01*
X0780978Y0113568D01*
X0779961Y0114585D01*
X0778943Y0114585D01*
X0779961Y0114585D02*
X0780978Y0115603D01*
X0780978Y0116620D01*
X0779961Y0117638D01*
X0777926Y0117638D01*
X0776908Y0116620D01*
X0783906Y0114585D02*
X0787976Y0114585D01*
X0786959Y0111533D02*
X0786959Y0117638D01*
X0783906Y0114585D01*
X0816278Y0112550D02*
X0817296Y0111533D01*
X0819331Y0111533D01*
X0820348Y0112550D01*
X0820348Y0113568D01*
X0819331Y0114585D01*
X0818313Y0114585D01*
X0819331Y0114585D02*
X0820348Y0115603D01*
X0820348Y0116620D01*
X0819331Y0117638D01*
X0817296Y0117638D01*
X0816278Y0116620D01*
X0823276Y0114585D02*
X0826329Y0114585D01*
X0827346Y0113568D01*
X0827346Y0112550D01*
X0826329Y0111533D01*
X0824294Y0111533D01*
X0823276Y0112550D01*
X0823276Y0114585D01*
X0825311Y0116620D01*
X0827346Y0117638D01*
X0836981Y0150903D02*
X0835963Y0151920D01*
X0836981Y0150903D02*
X0839016Y0150903D01*
X0840034Y0151920D01*
X0840034Y0152938D01*
X0839016Y0153955D01*
X0837998Y0153955D01*
X0839016Y0153955D02*
X0840034Y0154973D01*
X0840034Y0155990D01*
X0839016Y0157008D01*
X0836981Y0157008D01*
X0835963Y0155990D01*
X0842961Y0157008D02*
X0847031Y0157008D01*
X0847031Y0155990D01*
X0842961Y0151920D01*
X0842961Y0150903D01*
X0807661Y0151920D02*
X0806644Y0150903D01*
X0804609Y0150903D01*
X0803591Y0151920D01*
X0803591Y0153955D02*
X0805626Y0154973D01*
X0806644Y0154973D01*
X0807661Y0153955D01*
X0807661Y0151920D01*
X0803591Y0153955D02*
X0803591Y0157008D01*
X0807661Y0157008D01*
X0800663Y0155990D02*
X0800663Y0154973D01*
X0799646Y0153955D01*
X0800663Y0152938D01*
X0800663Y0151920D01*
X0799646Y0150903D01*
X0797611Y0150903D01*
X0796593Y0151920D01*
X0798628Y0153955D02*
X0799646Y0153955D01*
X0800663Y0155990D02*
X0799646Y0157008D01*
X0797611Y0157008D01*
X0796593Y0155990D01*
X0768291Y0155990D02*
X0768291Y0154973D01*
X0767274Y0153955D01*
X0768291Y0152938D01*
X0768291Y0151920D01*
X0767274Y0150903D01*
X0765239Y0150903D01*
X0764221Y0151920D01*
X0766256Y0153955D02*
X0767274Y0153955D01*
X0768291Y0155990D02*
X0767274Y0157008D01*
X0765239Y0157008D01*
X0764221Y0155990D01*
X0761293Y0155990D02*
X0760276Y0157008D01*
X0758241Y0157008D01*
X0757223Y0155990D01*
X0759258Y0153955D02*
X0760276Y0153955D01*
X0761293Y0152938D01*
X0761293Y0151920D01*
X0760276Y0150903D01*
X0758241Y0150903D01*
X0757223Y0151920D01*
X0760276Y0153955D02*
X0761293Y0154973D01*
X0761293Y0155990D01*
X0717110Y0150903D02*
X0713040Y0150903D01*
X0715075Y0150903D02*
X0715075Y0157008D01*
X0713040Y0154973D01*
X0710112Y0154973D02*
X0709095Y0153955D01*
X0710112Y0152938D01*
X0710112Y0151920D01*
X0709095Y0150903D01*
X0707060Y0150903D01*
X0706042Y0151920D01*
X0708077Y0153955D02*
X0709095Y0153955D01*
X0710112Y0154973D02*
X0710112Y0155990D01*
X0709095Y0157008D01*
X0707060Y0157008D01*
X0706042Y0155990D01*
X0669866Y0155990D02*
X0669866Y0151920D01*
X0668849Y0150903D01*
X0666814Y0150903D01*
X0665796Y0151920D01*
X0666814Y0153955D02*
X0665796Y0154973D01*
X0665796Y0155990D01*
X0666814Y0157008D01*
X0668849Y0157008D01*
X0669866Y0155990D01*
X0669866Y0153955D02*
X0666814Y0153955D01*
X0662868Y0154973D02*
X0658798Y0150903D01*
X0662868Y0150903D01*
X0662868Y0154973D02*
X0662868Y0155990D01*
X0661851Y0157008D01*
X0659816Y0157008D01*
X0658798Y0155990D01*
X0626559Y0155990D02*
X0622489Y0151920D01*
X0622489Y0150903D01*
X0619561Y0150903D02*
X0615491Y0150903D01*
X0619561Y0154973D01*
X0619561Y0155990D01*
X0618544Y0157008D01*
X0616508Y0157008D01*
X0615491Y0155990D01*
X0622489Y0157008D02*
X0626559Y0157008D01*
X0626559Y0155990D01*
X0587189Y0157008D02*
X0583119Y0157008D01*
X0583119Y0153955D01*
X0585154Y0154973D01*
X0586171Y0154973D01*
X0587189Y0153955D01*
X0587189Y0151920D01*
X0586171Y0150903D01*
X0584136Y0150903D01*
X0583119Y0151920D01*
X0580191Y0150903D02*
X0576121Y0150903D01*
X0580191Y0154973D01*
X0580191Y0155990D01*
X0579173Y0157008D01*
X0577138Y0157008D01*
X0576121Y0155990D01*
X0547819Y0155990D02*
X0547819Y0154973D01*
X0546801Y0153955D01*
X0547819Y0152938D01*
X0547819Y0151920D01*
X0546801Y0150903D01*
X0544766Y0150903D01*
X0543749Y0151920D01*
X0545784Y0153955D02*
X0546801Y0153955D01*
X0547819Y0155990D02*
X0546801Y0157008D01*
X0544766Y0157008D01*
X0543749Y0155990D01*
X0540821Y0155990D02*
X0539803Y0157008D01*
X0537768Y0157008D01*
X0536751Y0155990D01*
X0540821Y0155990D02*
X0540821Y0154973D01*
X0536751Y0150903D01*
X0540821Y0150903D01*
X0508449Y0150903D02*
X0504379Y0150903D01*
X0506414Y0150903D02*
X0506414Y0157008D01*
X0504379Y0154973D01*
X0501451Y0154973D02*
X0501451Y0155990D01*
X0500433Y0157008D01*
X0498398Y0157008D01*
X0497381Y0155990D01*
X0501451Y0154973D02*
X0497381Y0150903D01*
X0501451Y0150903D01*
X0488764Y0190273D02*
X0484694Y0190273D01*
X0486729Y0190273D02*
X0486729Y0196378D01*
X0484694Y0194343D01*
X0524064Y0195361D02*
X0525081Y0196378D01*
X0527116Y0196378D01*
X0528134Y0195361D01*
X0528134Y0194343D01*
X0527116Y0193325D01*
X0528134Y0192308D01*
X0528134Y0191290D01*
X0527116Y0190273D01*
X0525081Y0190273D01*
X0524064Y0191290D01*
X0525081Y0190273D01*
X0527116Y0190273D01*
X0528134Y0191290D01*
X0528134Y0192308D01*
X0527116Y0193325D01*
X0526099Y0193325D01*
X0527116Y0193325D01*
X0528134Y0194343D01*
X0528134Y0195361D01*
X0527116Y0196378D01*
X0525081Y0196378D01*
X0524064Y0195361D01*
X0563434Y0196378D02*
X0563434Y0193325D01*
X0565469Y0194343D01*
X0566486Y0194343D01*
X0567504Y0193325D01*
X0567504Y0191290D01*
X0566486Y0190273D01*
X0564451Y0190273D01*
X0563434Y0191290D01*
X0563434Y0196378D02*
X0567504Y0196378D01*
X0602804Y0196378D02*
X0606874Y0196378D01*
X0606874Y0195361D01*
X0602804Y0191290D01*
X0602804Y0190273D01*
X0642174Y0191290D02*
X0643191Y0190273D01*
X0645227Y0190273D01*
X0646244Y0191290D01*
X0646244Y0195361D01*
X0645227Y0196378D01*
X0643191Y0196378D01*
X0642174Y0195361D01*
X0642174Y0194343D01*
X0643191Y0193325D01*
X0646244Y0193325D01*
X0678483Y0194343D02*
X0680518Y0196378D01*
X0680518Y0190273D01*
X0678483Y0190273D02*
X0682553Y0190273D01*
X0685481Y0190273D02*
X0689551Y0190273D01*
X0687516Y0190273D02*
X0687516Y0196378D01*
X0685481Y0194343D01*
X0717853Y0194343D02*
X0719888Y0196378D01*
X0719888Y0190273D01*
X0717853Y0190273D02*
X0721923Y0190273D01*
X0724851Y0191290D02*
X0725869Y0190273D01*
X0727904Y0190273D01*
X0728921Y0191290D01*
X0728921Y0192308D01*
X0727904Y0193325D01*
X0726886Y0193325D01*
X0727904Y0193325D02*
X0728921Y0194343D01*
X0728921Y0195361D01*
X0727904Y0196378D01*
X0725869Y0196378D01*
X0724851Y0195361D01*
X0757223Y0194343D02*
X0759258Y0196378D01*
X0759258Y0190273D01*
X0757223Y0190273D02*
X0761293Y0190273D01*
X0764221Y0191290D02*
X0765239Y0190273D01*
X0767274Y0190273D01*
X0768291Y0191290D01*
X0768291Y0193325D01*
X0767274Y0194343D01*
X0766256Y0194343D01*
X0764221Y0193325D01*
X0764221Y0196378D01*
X0768291Y0196378D01*
X0796593Y0194343D02*
X0798628Y0196378D01*
X0798628Y0190273D01*
X0796593Y0190273D02*
X0800663Y0190273D01*
X0803591Y0190273D02*
X0803591Y0191290D01*
X0807661Y0195361D01*
X0807661Y0196378D01*
X0803591Y0196378D01*
X0835963Y0194343D02*
X0837998Y0196378D01*
X0837998Y0190273D01*
X0835963Y0190273D02*
X0840034Y0190273D01*
X0842961Y0191290D02*
X0843979Y0190273D01*
X0846014Y0190273D01*
X0847031Y0191290D01*
X0847031Y0195361D01*
X0846014Y0196378D01*
X0843979Y0196378D01*
X0842961Y0195361D01*
X0842961Y0194343D01*
X0843979Y0193325D01*
X0847031Y0193325D01*
X0846014Y0229643D02*
X0843979Y0229643D01*
X0842961Y0230660D01*
X0842961Y0231678D01*
X0843979Y0232696D01*
X0846014Y0232696D01*
X0847031Y0231678D01*
X0847031Y0230660D01*
X0846014Y0229643D01*
X0843979Y0229643D01*
X0842961Y0230660D01*
X0842961Y0231678D01*
X0843979Y0232696D01*
X0842961Y0233713D01*
X0842961Y0234731D01*
X0843979Y0235748D01*
X0846014Y0235748D01*
X0847031Y0234731D01*
X0847031Y0233713D01*
X0846014Y0232696D01*
X0843979Y0232696D01*
X0842961Y0233713D01*
X0842961Y0234731D01*
X0843979Y0235748D01*
X0846014Y0235748D01*
X0847031Y0234731D01*
X0847031Y0233713D01*
X0846014Y0232696D01*
X0847031Y0231678D01*
X0847031Y0230660D01*
X0846014Y0229643D01*
X0840034Y0229643D02*
X0835963Y0229643D01*
X0840034Y0229643D01*
X0837998Y0229643D02*
X0837998Y0235748D01*
X0835963Y0233713D01*
X0837998Y0235748D01*
X0837998Y0229643D01*
X0807661Y0230660D02*
X0807661Y0231678D01*
X0806644Y0232696D01*
X0803591Y0232696D01*
X0803591Y0230660D01*
X0804609Y0229643D01*
X0806644Y0229643D01*
X0807661Y0230660D01*
X0803591Y0232696D02*
X0805626Y0234731D01*
X0807661Y0235748D01*
X0798628Y0235748D02*
X0798628Y0229643D01*
X0796593Y0229643D02*
X0800663Y0229643D01*
X0796593Y0233713D02*
X0798628Y0235748D01*
X0768291Y0232696D02*
X0764221Y0232696D01*
X0767274Y0235748D01*
X0767274Y0229643D01*
X0761293Y0229643D02*
X0757223Y0229643D01*
X0759258Y0229643D02*
X0759258Y0235748D01*
X0757223Y0233713D01*
X0728921Y0233713D02*
X0728921Y0234731D01*
X0727904Y0235748D01*
X0725869Y0235748D01*
X0724851Y0234731D01*
X0728921Y0233713D02*
X0724851Y0229643D01*
X0728921Y0229643D01*
X0721923Y0229643D02*
X0717853Y0229643D01*
X0719888Y0229643D02*
X0719888Y0235748D01*
X0717853Y0233713D01*
X0685614Y0234731D02*
X0685614Y0230660D01*
X0684597Y0229643D01*
X0682562Y0229643D01*
X0681544Y0230660D01*
X0685614Y0234731D01*
X0684597Y0235748D01*
X0682562Y0235748D01*
X0681544Y0234731D01*
X0681544Y0230660D01*
X0678616Y0229643D02*
X0674546Y0229643D01*
X0676581Y0229643D02*
X0676581Y0235748D01*
X0674546Y0233713D01*
X0646244Y0233713D02*
X0645227Y0232696D01*
X0643191Y0232696D01*
X0642174Y0233713D01*
X0642174Y0234731D01*
X0643191Y0235748D01*
X0645227Y0235748D01*
X0646244Y0234731D01*
X0646244Y0233713D01*
X0645227Y0232696D02*
X0646244Y0231678D01*
X0646244Y0230660D01*
X0645227Y0229643D01*
X0643191Y0229643D01*
X0642174Y0230660D01*
X0642174Y0231678D01*
X0643191Y0232696D01*
X0606874Y0231678D02*
X0605856Y0232696D01*
X0602804Y0232696D01*
X0602804Y0230660D01*
X0603821Y0229643D01*
X0605856Y0229643D01*
X0606874Y0230660D01*
X0606874Y0231678D01*
X0605856Y0232696D01*
X0602804Y0232696D01*
X0604839Y0234731D01*
X0606874Y0235748D01*
X0604839Y0234731D01*
X0602804Y0232696D01*
X0602804Y0230660D01*
X0603821Y0229643D01*
X0605856Y0229643D01*
X0606874Y0230660D01*
X0606874Y0231678D01*
X0567504Y0232696D02*
X0563434Y0232696D01*
X0566486Y0235748D01*
X0566486Y0229643D01*
X0530102Y0229643D02*
X0526032Y0229643D01*
X0530102Y0233713D01*
X0530102Y0234731D01*
X0529085Y0235748D01*
X0527050Y0235748D01*
X0526032Y0234731D01*
D11*
X0567546Y0269394D02*
X0570215Y0269394D01*
X0568881Y0269394D02*
X0568881Y0273398D01*
X0567546Y0272063D01*
X0777509Y0272063D02*
X0778844Y0273398D01*
X0778844Y0269394D01*
X0780178Y0269394D02*
X0777509Y0269394D01*
X0782113Y0270062D02*
X0782780Y0269394D01*
X0784115Y0269394D01*
X0784782Y0270062D01*
X0784782Y0272731D01*
X0784115Y0273398D01*
X0782780Y0273398D01*
X0782113Y0272731D01*
X0782113Y0272063D01*
X0782780Y0271396D01*
X0784782Y0271396D01*
X0784115Y0076548D02*
X0782780Y0076548D01*
X0782113Y0075880D01*
X0782113Y0075213D01*
X0782780Y0074546D01*
X0784782Y0074546D01*
X0784782Y0075880D02*
X0784115Y0076548D01*
X0784782Y0075880D02*
X0784782Y0073211D01*
X0784115Y0072544D01*
X0782780Y0072544D01*
X0782113Y0073211D01*
X0780178Y0072544D02*
X0777509Y0072544D01*
X0778844Y0072544D02*
X0778844Y0076548D01*
X0777509Y0075213D01*
X0570215Y0072544D02*
X0567546Y0072544D01*
X0568881Y0072544D02*
X0568881Y0076548D01*
X0567546Y0075213D01*
D12*
X0492797Y0217795D02*
X0485891Y0217795D01*
X0485891Y0221248D01*
X0487042Y0222399D01*
X0491646Y0222399D01*
X0492797Y0221248D01*
X0492797Y0217795D01*
X0491646Y0227003D02*
X0492797Y0228154D01*
X0492797Y0230456D01*
X0491646Y0231607D01*
X0490495Y0231607D01*
X0489344Y0230456D01*
X0489344Y0228154D01*
X0488193Y0227003D01*
X0487042Y0227003D01*
X0485891Y0228154D01*
X0485891Y0230456D01*
X0487042Y0231607D01*
X0485891Y0236211D02*
X0491646Y0236211D01*
X0492797Y0237362D01*
X0492797Y0239664D01*
X0491646Y0240815D01*
X0485891Y0240815D01*
X0485891Y0245418D02*
X0485891Y0248871D01*
X0487042Y0250022D01*
X0488193Y0250022D01*
X0489344Y0248871D01*
X0489344Y0245418D01*
X0492797Y0245418D02*
X0485891Y0245418D01*
X0489344Y0248871D02*
X0490495Y0250022D01*
X0491646Y0250022D01*
X0492797Y0248871D01*
X0492797Y0245418D01*
X0500891Y0250790D02*
X0505495Y0250790D01*
X0507797Y0253092D01*
X0505495Y0255394D01*
X0500891Y0255394D01*
X0485891Y0263834D02*
X0485891Y0268438D01*
X0485891Y0266136D02*
X0492797Y0266136D01*
X0491646Y0273042D02*
X0487042Y0273042D01*
X0485891Y0274193D01*
X0485891Y0276495D01*
X0487042Y0277646D01*
X0491646Y0277646D01*
X0492797Y0276495D01*
X0492797Y0274193D01*
X0491646Y0273042D01*
X0500891Y0272658D02*
X0502042Y0273809D01*
X0503193Y0273809D01*
X0507797Y0269205D01*
X0507797Y0273809D01*
X0507797Y0278413D02*
X0507797Y0279564D01*
X0506646Y0279564D01*
X0506646Y0278413D01*
X0507797Y0278413D01*
X0506646Y0283017D02*
X0502042Y0287621D01*
X0506646Y0287621D01*
X0507797Y0286470D01*
X0507797Y0284168D01*
X0506646Y0283017D01*
X0502042Y0283017D01*
X0500891Y0284168D01*
X0500891Y0286470D01*
X0502042Y0287621D01*
X0492797Y0291458D02*
X0485891Y0291458D01*
X0485891Y0294911D01*
X0487042Y0296062D01*
X0489344Y0296062D01*
X0490495Y0294911D01*
X0490495Y0291458D01*
X0492797Y0300666D02*
X0492797Y0302968D01*
X0492797Y0301817D02*
X0485891Y0301817D01*
X0485891Y0300666D02*
X0485891Y0302968D01*
X0485891Y0306804D02*
X0492797Y0311408D01*
X0485891Y0311408D01*
X0485891Y0306804D02*
X0492797Y0306804D01*
X0491646Y0316012D02*
X0492797Y0317163D01*
X0492797Y0319465D01*
X0491646Y0320616D01*
X0490495Y0320616D01*
X0489344Y0319465D01*
X0489344Y0317163D01*
X0488193Y0316012D01*
X0487042Y0316012D01*
X0485891Y0317163D01*
X0485891Y0319465D01*
X0487042Y0320616D01*
X0500891Y0272658D02*
X0500891Y0270356D01*
X0502042Y0269205D01*
X0848096Y0130489D02*
X0848096Y0128187D01*
X0849247Y0127036D01*
X0850398Y0127036D01*
X0851549Y0128187D01*
X0851549Y0130489D01*
X0852700Y0131640D01*
X0853851Y0131640D01*
X0855002Y0130489D01*
X0855002Y0128187D01*
X0853851Y0127036D01*
X0855002Y0122432D02*
X0848096Y0122432D01*
X0848096Y0117828D02*
X0855002Y0122432D01*
X0855002Y0117828D02*
X0848096Y0117828D01*
X0848096Y0113991D02*
X0848096Y0111689D01*
X0848096Y0112840D02*
X0855002Y0112840D01*
X0855002Y0111689D02*
X0855002Y0113991D01*
X0851549Y0107085D02*
X0849247Y0107085D01*
X0848096Y0105934D01*
X0848096Y0102481D01*
X0855002Y0102481D01*
X0852700Y0102481D02*
X0852700Y0105934D01*
X0851549Y0107085D01*
X0863096Y0097494D02*
X0864247Y0098645D01*
X0868851Y0094041D01*
X0870002Y0095192D01*
X0870002Y0097494D01*
X0868851Y0098645D01*
X0864247Y0098645D01*
X0863096Y0097494D02*
X0863096Y0095192D01*
X0864247Y0094041D01*
X0868851Y0094041D01*
X0868851Y0090588D02*
X0870002Y0090588D01*
X0870002Y0089437D01*
X0868851Y0089437D01*
X0868851Y0090588D01*
X0870002Y0084833D02*
X0870002Y0080229D01*
X0865398Y0084833D01*
X0864247Y0084833D01*
X0863096Y0083682D01*
X0863096Y0081380D01*
X0864247Y0080229D01*
X0855002Y0077160D02*
X0848096Y0077160D01*
X0848096Y0074858D02*
X0848096Y0079462D01*
X0849247Y0084066D02*
X0853851Y0084066D01*
X0855002Y0085217D01*
X0855002Y0087519D01*
X0853851Y0088670D01*
X0849247Y0088670D01*
X0848096Y0087519D01*
X0848096Y0085217D01*
X0849247Y0084066D01*
X0863096Y0066417D02*
X0867700Y0066417D01*
X0870002Y0064115D01*
X0867700Y0061813D01*
X0863096Y0061813D01*
X0855002Y0059895D02*
X0855002Y0056442D01*
X0848096Y0056442D01*
X0848096Y0059895D01*
X0849247Y0061046D01*
X0850398Y0061046D01*
X0851549Y0059895D01*
X0851549Y0056442D01*
X0851549Y0059895D02*
X0852700Y0061046D01*
X0853851Y0061046D01*
X0855002Y0059895D01*
X0853851Y0051838D02*
X0848096Y0051838D01*
X0848096Y0047234D02*
X0853851Y0047234D01*
X0855002Y0048385D01*
X0855002Y0050687D01*
X0853851Y0051838D01*
X0853851Y0042630D02*
X0855002Y0041479D01*
X0855002Y0039177D01*
X0853851Y0038026D01*
X0851549Y0039177D02*
X0851549Y0041479D01*
X0852700Y0042630D01*
X0853851Y0042630D01*
X0851549Y0039177D02*
X0850398Y0038026D01*
X0849247Y0038026D01*
X0848096Y0039177D01*
X0848096Y0041479D01*
X0849247Y0042630D01*
X0849247Y0033422D02*
X0848096Y0032271D01*
X0848096Y0028819D01*
X0855002Y0028819D01*
X0855002Y0032271D01*
X0853851Y0033422D01*
X0849247Y0033422D01*
X0848096Y0130489D02*
X0849247Y0131640D01*
D13*
X0810402Y0082800D02*
X0791402Y0082800D01*
X0789402Y0080800D01*
X0789402Y0040300D01*
X0788402Y0040300D01*
X0563402Y0040300D01*
X0562402Y0040300D01*
X0562402Y0080800D01*
X0560402Y0082800D01*
X0540902Y0082800D01*
X0538902Y0080800D01*
X0538902Y0040800D01*
X0558902Y0040800D01*
X0558902Y0040300D01*
X0538902Y0040300D01*
X0538902Y0040800D01*
X0538902Y0040300D02*
X0538902Y0028300D01*
X0548902Y0028300D01*
X0548902Y0029300D01*
X0558902Y0029300D01*
X0558902Y0028300D01*
X0559402Y0028300D01*
X0559402Y0037800D01*
X0559404Y0037898D01*
X0559410Y0037996D01*
X0559419Y0038094D01*
X0559433Y0038191D01*
X0559450Y0038288D01*
X0559471Y0038384D01*
X0559496Y0038479D01*
X0559524Y0038573D01*
X0559557Y0038665D01*
X0559592Y0038757D01*
X0559632Y0038847D01*
X0559674Y0038935D01*
X0559721Y0039022D01*
X0559770Y0039106D01*
X0559823Y0039189D01*
X0559879Y0039269D01*
X0559939Y0039348D01*
X0560001Y0039424D01*
X0560066Y0039497D01*
X0560134Y0039568D01*
X0560205Y0039636D01*
X0560278Y0039701D01*
X0560354Y0039763D01*
X0560433Y0039823D01*
X0560513Y0039879D01*
X0560596Y0039932D01*
X0560680Y0039981D01*
X0560767Y0040028D01*
X0560855Y0040070D01*
X0560945Y0040110D01*
X0561037Y0040145D01*
X0561129Y0040178D01*
X0561223Y0040206D01*
X0561318Y0040231D01*
X0561414Y0040252D01*
X0561511Y0040269D01*
X0561608Y0040283D01*
X0561706Y0040292D01*
X0561804Y0040298D01*
X0561902Y0040300D01*
X0562402Y0040300D02*
X0558902Y0040300D01*
X0563402Y0040300D02*
X0563402Y0043300D01*
X0788402Y0043300D01*
X0788402Y0040300D01*
X0789402Y0040300D02*
X0792902Y0040300D01*
X0792902Y0040800D01*
X0812902Y0040800D01*
X0812902Y0080300D01*
X0810402Y0082800D01*
X0794402Y0070300D02*
X0794404Y0070461D01*
X0794410Y0070621D01*
X0794420Y0070782D01*
X0794434Y0070942D01*
X0794452Y0071102D01*
X0794473Y0071261D01*
X0794499Y0071420D01*
X0794529Y0071578D01*
X0794562Y0071735D01*
X0794600Y0071892D01*
X0794641Y0072047D01*
X0794686Y0072201D01*
X0794735Y0072354D01*
X0794788Y0072506D01*
X0794844Y0072657D01*
X0794905Y0072806D01*
X0794968Y0072954D01*
X0795036Y0073100D01*
X0795107Y0073244D01*
X0795181Y0073386D01*
X0795259Y0073527D01*
X0795341Y0073665D01*
X0795426Y0073802D01*
X0795514Y0073936D01*
X0795606Y0074068D01*
X0795701Y0074198D01*
X0795799Y0074326D01*
X0795900Y0074451D01*
X0796004Y0074573D01*
X0796111Y0074693D01*
X0796221Y0074810D01*
X0796334Y0074925D01*
X0796450Y0075036D01*
X0796569Y0075145D01*
X0796690Y0075250D01*
X0796814Y0075353D01*
X0796940Y0075453D01*
X0797068Y0075549D01*
X0797199Y0075642D01*
X0797333Y0075732D01*
X0797468Y0075819D01*
X0797606Y0075902D01*
X0797745Y0075982D01*
X0797887Y0076058D01*
X0798030Y0076131D01*
X0798175Y0076200D01*
X0798322Y0076266D01*
X0798470Y0076328D01*
X0798620Y0076386D01*
X0798771Y0076441D01*
X0798924Y0076492D01*
X0799078Y0076539D01*
X0799233Y0076582D01*
X0799389Y0076621D01*
X0799545Y0076657D01*
X0799703Y0076688D01*
X0799861Y0076716D01*
X0800020Y0076740D01*
X0800180Y0076760D01*
X0800340Y0076776D01*
X0800500Y0076788D01*
X0800661Y0076796D01*
X0800822Y0076800D01*
X0800982Y0076800D01*
X0801143Y0076796D01*
X0801304Y0076788D01*
X0801464Y0076776D01*
X0801624Y0076760D01*
X0801784Y0076740D01*
X0801943Y0076716D01*
X0802101Y0076688D01*
X0802259Y0076657D01*
X0802415Y0076621D01*
X0802571Y0076582D01*
X0802726Y0076539D01*
X0802880Y0076492D01*
X0803033Y0076441D01*
X0803184Y0076386D01*
X0803334Y0076328D01*
X0803482Y0076266D01*
X0803629Y0076200D01*
X0803774Y0076131D01*
X0803917Y0076058D01*
X0804059Y0075982D01*
X0804198Y0075902D01*
X0804336Y0075819D01*
X0804471Y0075732D01*
X0804605Y0075642D01*
X0804736Y0075549D01*
X0804864Y0075453D01*
X0804990Y0075353D01*
X0805114Y0075250D01*
X0805235Y0075145D01*
X0805354Y0075036D01*
X0805470Y0074925D01*
X0805583Y0074810D01*
X0805693Y0074693D01*
X0805800Y0074573D01*
X0805904Y0074451D01*
X0806005Y0074326D01*
X0806103Y0074198D01*
X0806198Y0074068D01*
X0806290Y0073936D01*
X0806378Y0073802D01*
X0806463Y0073665D01*
X0806545Y0073527D01*
X0806623Y0073386D01*
X0806697Y0073244D01*
X0806768Y0073100D01*
X0806836Y0072954D01*
X0806899Y0072806D01*
X0806960Y0072657D01*
X0807016Y0072506D01*
X0807069Y0072354D01*
X0807118Y0072201D01*
X0807163Y0072047D01*
X0807204Y0071892D01*
X0807242Y0071735D01*
X0807275Y0071578D01*
X0807305Y0071420D01*
X0807331Y0071261D01*
X0807352Y0071102D01*
X0807370Y0070942D01*
X0807384Y0070782D01*
X0807394Y0070621D01*
X0807400Y0070461D01*
X0807402Y0070300D01*
X0807400Y0070139D01*
X0807394Y0069979D01*
X0807384Y0069818D01*
X0807370Y0069658D01*
X0807352Y0069498D01*
X0807331Y0069339D01*
X0807305Y0069180D01*
X0807275Y0069022D01*
X0807242Y0068865D01*
X0807204Y0068708D01*
X0807163Y0068553D01*
X0807118Y0068399D01*
X0807069Y0068246D01*
X0807016Y0068094D01*
X0806960Y0067943D01*
X0806899Y0067794D01*
X0806836Y0067646D01*
X0806768Y0067500D01*
X0806697Y0067356D01*
X0806623Y0067214D01*
X0806545Y0067073D01*
X0806463Y0066935D01*
X0806378Y0066798D01*
X0806290Y0066664D01*
X0806198Y0066532D01*
X0806103Y0066402D01*
X0806005Y0066274D01*
X0805904Y0066149D01*
X0805800Y0066027D01*
X0805693Y0065907D01*
X0805583Y0065790D01*
X0805470Y0065675D01*
X0805354Y0065564D01*
X0805235Y0065455D01*
X0805114Y0065350D01*
X0804990Y0065247D01*
X0804864Y0065147D01*
X0804736Y0065051D01*
X0804605Y0064958D01*
X0804471Y0064868D01*
X0804336Y0064781D01*
X0804198Y0064698D01*
X0804059Y0064618D01*
X0803917Y0064542D01*
X0803774Y0064469D01*
X0803629Y0064400D01*
X0803482Y0064334D01*
X0803334Y0064272D01*
X0803184Y0064214D01*
X0803033Y0064159D01*
X0802880Y0064108D01*
X0802726Y0064061D01*
X0802571Y0064018D01*
X0802415Y0063979D01*
X0802259Y0063943D01*
X0802101Y0063912D01*
X0801943Y0063884D01*
X0801784Y0063860D01*
X0801624Y0063840D01*
X0801464Y0063824D01*
X0801304Y0063812D01*
X0801143Y0063804D01*
X0800982Y0063800D01*
X0800822Y0063800D01*
X0800661Y0063804D01*
X0800500Y0063812D01*
X0800340Y0063824D01*
X0800180Y0063840D01*
X0800020Y0063860D01*
X0799861Y0063884D01*
X0799703Y0063912D01*
X0799545Y0063943D01*
X0799389Y0063979D01*
X0799233Y0064018D01*
X0799078Y0064061D01*
X0798924Y0064108D01*
X0798771Y0064159D01*
X0798620Y0064214D01*
X0798470Y0064272D01*
X0798322Y0064334D01*
X0798175Y0064400D01*
X0798030Y0064469D01*
X0797887Y0064542D01*
X0797745Y0064618D01*
X0797606Y0064698D01*
X0797468Y0064781D01*
X0797333Y0064868D01*
X0797199Y0064958D01*
X0797068Y0065051D01*
X0796940Y0065147D01*
X0796814Y0065247D01*
X0796690Y0065350D01*
X0796569Y0065455D01*
X0796450Y0065564D01*
X0796334Y0065675D01*
X0796221Y0065790D01*
X0796111Y0065907D01*
X0796004Y0066027D01*
X0795900Y0066149D01*
X0795799Y0066274D01*
X0795701Y0066402D01*
X0795606Y0066532D01*
X0795514Y0066664D01*
X0795426Y0066798D01*
X0795341Y0066935D01*
X0795259Y0067073D01*
X0795181Y0067214D01*
X0795107Y0067356D01*
X0795036Y0067500D01*
X0794968Y0067646D01*
X0794905Y0067794D01*
X0794844Y0067943D01*
X0794788Y0068094D01*
X0794735Y0068246D01*
X0794686Y0068399D01*
X0794641Y0068553D01*
X0794600Y0068708D01*
X0794562Y0068865D01*
X0794529Y0069022D01*
X0794499Y0069180D01*
X0794473Y0069339D01*
X0794452Y0069498D01*
X0794434Y0069658D01*
X0794420Y0069818D01*
X0794410Y0069979D01*
X0794404Y0070139D01*
X0794402Y0070300D01*
X0812902Y0040800D02*
X0812902Y0040300D01*
X0812902Y0028300D01*
X0812902Y0026300D01*
X0802902Y0026300D01*
X0802902Y0028300D01*
X0802902Y0029300D01*
X0792902Y0029300D01*
X0792902Y0028300D01*
X0792402Y0028300D01*
X0792402Y0037800D01*
X0792400Y0037898D01*
X0792394Y0037996D01*
X0792385Y0038094D01*
X0792371Y0038191D01*
X0792354Y0038288D01*
X0792333Y0038384D01*
X0792308Y0038479D01*
X0792280Y0038573D01*
X0792247Y0038665D01*
X0792212Y0038757D01*
X0792172Y0038847D01*
X0792130Y0038935D01*
X0792083Y0039022D01*
X0792034Y0039106D01*
X0791981Y0039189D01*
X0791925Y0039269D01*
X0791865Y0039348D01*
X0791803Y0039424D01*
X0791738Y0039497D01*
X0791670Y0039568D01*
X0791599Y0039636D01*
X0791526Y0039701D01*
X0791450Y0039763D01*
X0791371Y0039823D01*
X0791291Y0039879D01*
X0791208Y0039932D01*
X0791124Y0039981D01*
X0791037Y0040028D01*
X0790949Y0040070D01*
X0790859Y0040110D01*
X0790767Y0040145D01*
X0790675Y0040178D01*
X0790581Y0040206D01*
X0790486Y0040231D01*
X0790390Y0040252D01*
X0790293Y0040269D01*
X0790196Y0040283D01*
X0790098Y0040292D01*
X0790000Y0040298D01*
X0789902Y0040300D01*
X0792902Y0040300D02*
X0812902Y0040300D01*
X0812902Y0028300D02*
X0802902Y0028300D01*
X0802902Y0026300D02*
X0792902Y0026300D01*
X0558902Y0026300D01*
X0558902Y0028300D01*
X0559402Y0028300D02*
X0792402Y0028300D01*
X0792902Y0028300D02*
X0792902Y0026300D01*
X0788902Y0024300D02*
X0788804Y0024298D01*
X0788706Y0024292D01*
X0788608Y0024283D01*
X0788511Y0024269D01*
X0788414Y0024252D01*
X0788318Y0024231D01*
X0788223Y0024206D01*
X0788129Y0024178D01*
X0788037Y0024145D01*
X0787945Y0024110D01*
X0787855Y0024070D01*
X0787767Y0024028D01*
X0787680Y0023981D01*
X0787596Y0023932D01*
X0787513Y0023879D01*
X0787433Y0023823D01*
X0787354Y0023763D01*
X0787278Y0023701D01*
X0787205Y0023636D01*
X0787134Y0023568D01*
X0787066Y0023497D01*
X0787001Y0023424D01*
X0786939Y0023348D01*
X0786879Y0023269D01*
X0786823Y0023189D01*
X0786770Y0023106D01*
X0786721Y0023022D01*
X0786674Y0022935D01*
X0786632Y0022847D01*
X0786592Y0022757D01*
X0786557Y0022665D01*
X0786524Y0022573D01*
X0786496Y0022479D01*
X0786471Y0022384D01*
X0786450Y0022288D01*
X0786433Y0022191D01*
X0786419Y0022094D01*
X0786410Y0021996D01*
X0786404Y0021898D01*
X0786402Y0021800D01*
X0786402Y0003300D01*
X0784902Y0003300D02*
X0784902Y0024300D01*
X0812902Y0024300D01*
X0812902Y0026300D01*
X0784902Y0024300D02*
X0566902Y0024300D01*
X0538902Y0024300D01*
X0538902Y0026300D01*
X0548902Y0026300D01*
X0558902Y0026300D01*
X0562902Y0024300D02*
X0563000Y0024298D01*
X0563098Y0024292D01*
X0563196Y0024283D01*
X0563293Y0024269D01*
X0563390Y0024252D01*
X0563486Y0024231D01*
X0563581Y0024206D01*
X0563675Y0024178D01*
X0563767Y0024145D01*
X0563859Y0024110D01*
X0563949Y0024070D01*
X0564037Y0024028D01*
X0564124Y0023981D01*
X0564208Y0023932D01*
X0564291Y0023879D01*
X0564371Y0023823D01*
X0564450Y0023763D01*
X0564526Y0023701D01*
X0564599Y0023636D01*
X0564670Y0023568D01*
X0564738Y0023497D01*
X0564803Y0023424D01*
X0564865Y0023348D01*
X0564925Y0023269D01*
X0564981Y0023189D01*
X0565034Y0023106D01*
X0565083Y0023022D01*
X0565130Y0022935D01*
X0565172Y0022847D01*
X0565212Y0022757D01*
X0565247Y0022665D01*
X0565280Y0022573D01*
X0565308Y0022479D01*
X0565333Y0022384D01*
X0565354Y0022288D01*
X0565371Y0022191D01*
X0565385Y0022094D01*
X0565394Y0021996D01*
X0565400Y0021898D01*
X0565402Y0021800D01*
X0565402Y0003300D01*
X0566902Y0003300D02*
X0566902Y0024300D01*
X0568402Y0022300D02*
X0568402Y0001300D01*
X0783402Y0001300D01*
X0783402Y0022300D01*
X0759402Y0015300D02*
X0759402Y0006300D01*
X0757902Y0006300D01*
X0757902Y0013800D01*
X0751902Y0013800D01*
X0751902Y0006300D01*
X0750402Y0006300D01*
X0750402Y0015300D01*
X0759402Y0015300D01*
X0743902Y0015300D02*
X0743902Y0006300D01*
X0742402Y0006300D01*
X0742402Y0013800D01*
X0736402Y0013800D01*
X0736402Y0006300D01*
X0734902Y0006300D01*
X0734902Y0015300D01*
X0743902Y0015300D01*
X0728402Y0015300D02*
X0728402Y0006300D01*
X0726902Y0006300D01*
X0726902Y0013800D01*
X0720902Y0013800D01*
X0720902Y0006300D01*
X0719402Y0006300D01*
X0719402Y0015300D01*
X0728402Y0015300D01*
X0712402Y0015300D02*
X0712402Y0006300D01*
X0710902Y0006300D01*
X0710902Y0013800D01*
X0704902Y0013800D01*
X0704902Y0006300D01*
X0703402Y0006300D01*
X0703402Y0015300D01*
X0712402Y0015300D01*
X0695902Y0015300D02*
X0695902Y0006300D01*
X0694402Y0006300D01*
X0694402Y0013800D01*
X0688402Y0013800D01*
X0688402Y0006300D01*
X0686902Y0006300D01*
X0686902Y0015300D01*
X0695902Y0015300D01*
X0680402Y0015300D02*
X0680402Y0006300D01*
X0678902Y0006300D01*
X0678902Y0013800D01*
X0672902Y0013800D01*
X0672902Y0006300D01*
X0671402Y0006300D01*
X0671402Y0015300D01*
X0680402Y0015300D01*
X0664902Y0015300D02*
X0664902Y0006300D01*
X0663402Y0006300D01*
X0663402Y0013800D01*
X0657402Y0013800D01*
X0657402Y0006300D01*
X0655902Y0006300D01*
X0655902Y0015300D01*
X0664902Y0015300D01*
X0648402Y0015300D02*
X0648402Y0006300D01*
X0646902Y0006300D01*
X0646902Y0013800D01*
X0640902Y0013800D01*
X0640902Y0006300D01*
X0639402Y0006300D01*
X0639402Y0015300D01*
X0648402Y0015300D01*
X0632402Y0015300D02*
X0632402Y0006300D01*
X0630902Y0006300D01*
X0630902Y0013800D01*
X0624902Y0013800D01*
X0624902Y0006300D01*
X0623402Y0006300D01*
X0623402Y0015300D01*
X0632402Y0015300D01*
X0616902Y0015300D02*
X0616902Y0006300D01*
X0615402Y0006300D01*
X0615402Y0013800D01*
X0609402Y0013800D01*
X0609402Y0006300D01*
X0607902Y0006300D01*
X0607902Y0015300D01*
X0616902Y0015300D01*
X0601402Y0015300D02*
X0601402Y0006300D01*
X0599902Y0006300D01*
X0599902Y0013800D01*
X0593902Y0013800D01*
X0593902Y0006300D01*
X0592402Y0006300D01*
X0592402Y0015300D01*
X0601402Y0015300D01*
X0568402Y0001300D02*
X0567402Y0001300D01*
X0567315Y0001302D01*
X0567228Y0001308D01*
X0567141Y0001317D01*
X0567055Y0001330D01*
X0566969Y0001347D01*
X0566884Y0001368D01*
X0566801Y0001393D01*
X0566718Y0001421D01*
X0566637Y0001452D01*
X0566557Y0001487D01*
X0566479Y0001526D01*
X0566402Y0001568D01*
X0566327Y0001613D01*
X0566255Y0001662D01*
X0566184Y0001713D01*
X0566116Y0001768D01*
X0566051Y0001825D01*
X0565988Y0001886D01*
X0565927Y0001949D01*
X0565870Y0002014D01*
X0565815Y0002082D01*
X0565764Y0002153D01*
X0565715Y0002225D01*
X0565670Y0002300D01*
X0565628Y0002377D01*
X0565589Y0002455D01*
X0565554Y0002535D01*
X0565523Y0002616D01*
X0565495Y0002699D01*
X0565470Y0002782D01*
X0565449Y0002867D01*
X0565432Y0002953D01*
X0565419Y0003039D01*
X0565410Y0003126D01*
X0565404Y0003213D01*
X0565402Y0003300D01*
X0548902Y0026300D02*
X0548902Y0028300D01*
X0538902Y0028300D02*
X0538902Y0026300D01*
X0544402Y0070300D02*
X0544404Y0070461D01*
X0544410Y0070621D01*
X0544420Y0070782D01*
X0544434Y0070942D01*
X0544452Y0071102D01*
X0544473Y0071261D01*
X0544499Y0071420D01*
X0544529Y0071578D01*
X0544562Y0071735D01*
X0544600Y0071892D01*
X0544641Y0072047D01*
X0544686Y0072201D01*
X0544735Y0072354D01*
X0544788Y0072506D01*
X0544844Y0072657D01*
X0544905Y0072806D01*
X0544968Y0072954D01*
X0545036Y0073100D01*
X0545107Y0073244D01*
X0545181Y0073386D01*
X0545259Y0073527D01*
X0545341Y0073665D01*
X0545426Y0073802D01*
X0545514Y0073936D01*
X0545606Y0074068D01*
X0545701Y0074198D01*
X0545799Y0074326D01*
X0545900Y0074451D01*
X0546004Y0074573D01*
X0546111Y0074693D01*
X0546221Y0074810D01*
X0546334Y0074925D01*
X0546450Y0075036D01*
X0546569Y0075145D01*
X0546690Y0075250D01*
X0546814Y0075353D01*
X0546940Y0075453D01*
X0547068Y0075549D01*
X0547199Y0075642D01*
X0547333Y0075732D01*
X0547468Y0075819D01*
X0547606Y0075902D01*
X0547745Y0075982D01*
X0547887Y0076058D01*
X0548030Y0076131D01*
X0548175Y0076200D01*
X0548322Y0076266D01*
X0548470Y0076328D01*
X0548620Y0076386D01*
X0548771Y0076441D01*
X0548924Y0076492D01*
X0549078Y0076539D01*
X0549233Y0076582D01*
X0549389Y0076621D01*
X0549545Y0076657D01*
X0549703Y0076688D01*
X0549861Y0076716D01*
X0550020Y0076740D01*
X0550180Y0076760D01*
X0550340Y0076776D01*
X0550500Y0076788D01*
X0550661Y0076796D01*
X0550822Y0076800D01*
X0550982Y0076800D01*
X0551143Y0076796D01*
X0551304Y0076788D01*
X0551464Y0076776D01*
X0551624Y0076760D01*
X0551784Y0076740D01*
X0551943Y0076716D01*
X0552101Y0076688D01*
X0552259Y0076657D01*
X0552415Y0076621D01*
X0552571Y0076582D01*
X0552726Y0076539D01*
X0552880Y0076492D01*
X0553033Y0076441D01*
X0553184Y0076386D01*
X0553334Y0076328D01*
X0553482Y0076266D01*
X0553629Y0076200D01*
X0553774Y0076131D01*
X0553917Y0076058D01*
X0554059Y0075982D01*
X0554198Y0075902D01*
X0554336Y0075819D01*
X0554471Y0075732D01*
X0554605Y0075642D01*
X0554736Y0075549D01*
X0554864Y0075453D01*
X0554990Y0075353D01*
X0555114Y0075250D01*
X0555235Y0075145D01*
X0555354Y0075036D01*
X0555470Y0074925D01*
X0555583Y0074810D01*
X0555693Y0074693D01*
X0555800Y0074573D01*
X0555904Y0074451D01*
X0556005Y0074326D01*
X0556103Y0074198D01*
X0556198Y0074068D01*
X0556290Y0073936D01*
X0556378Y0073802D01*
X0556463Y0073665D01*
X0556545Y0073527D01*
X0556623Y0073386D01*
X0556697Y0073244D01*
X0556768Y0073100D01*
X0556836Y0072954D01*
X0556899Y0072806D01*
X0556960Y0072657D01*
X0557016Y0072506D01*
X0557069Y0072354D01*
X0557118Y0072201D01*
X0557163Y0072047D01*
X0557204Y0071892D01*
X0557242Y0071735D01*
X0557275Y0071578D01*
X0557305Y0071420D01*
X0557331Y0071261D01*
X0557352Y0071102D01*
X0557370Y0070942D01*
X0557384Y0070782D01*
X0557394Y0070621D01*
X0557400Y0070461D01*
X0557402Y0070300D01*
X0557400Y0070139D01*
X0557394Y0069979D01*
X0557384Y0069818D01*
X0557370Y0069658D01*
X0557352Y0069498D01*
X0557331Y0069339D01*
X0557305Y0069180D01*
X0557275Y0069022D01*
X0557242Y0068865D01*
X0557204Y0068708D01*
X0557163Y0068553D01*
X0557118Y0068399D01*
X0557069Y0068246D01*
X0557016Y0068094D01*
X0556960Y0067943D01*
X0556899Y0067794D01*
X0556836Y0067646D01*
X0556768Y0067500D01*
X0556697Y0067356D01*
X0556623Y0067214D01*
X0556545Y0067073D01*
X0556463Y0066935D01*
X0556378Y0066798D01*
X0556290Y0066664D01*
X0556198Y0066532D01*
X0556103Y0066402D01*
X0556005Y0066274D01*
X0555904Y0066149D01*
X0555800Y0066027D01*
X0555693Y0065907D01*
X0555583Y0065790D01*
X0555470Y0065675D01*
X0555354Y0065564D01*
X0555235Y0065455D01*
X0555114Y0065350D01*
X0554990Y0065247D01*
X0554864Y0065147D01*
X0554736Y0065051D01*
X0554605Y0064958D01*
X0554471Y0064868D01*
X0554336Y0064781D01*
X0554198Y0064698D01*
X0554059Y0064618D01*
X0553917Y0064542D01*
X0553774Y0064469D01*
X0553629Y0064400D01*
X0553482Y0064334D01*
X0553334Y0064272D01*
X0553184Y0064214D01*
X0553033Y0064159D01*
X0552880Y0064108D01*
X0552726Y0064061D01*
X0552571Y0064018D01*
X0552415Y0063979D01*
X0552259Y0063943D01*
X0552101Y0063912D01*
X0551943Y0063884D01*
X0551784Y0063860D01*
X0551624Y0063840D01*
X0551464Y0063824D01*
X0551304Y0063812D01*
X0551143Y0063804D01*
X0550982Y0063800D01*
X0550822Y0063800D01*
X0550661Y0063804D01*
X0550500Y0063812D01*
X0550340Y0063824D01*
X0550180Y0063840D01*
X0550020Y0063860D01*
X0549861Y0063884D01*
X0549703Y0063912D01*
X0549545Y0063943D01*
X0549389Y0063979D01*
X0549233Y0064018D01*
X0549078Y0064061D01*
X0548924Y0064108D01*
X0548771Y0064159D01*
X0548620Y0064214D01*
X0548470Y0064272D01*
X0548322Y0064334D01*
X0548175Y0064400D01*
X0548030Y0064469D01*
X0547887Y0064542D01*
X0547745Y0064618D01*
X0547606Y0064698D01*
X0547468Y0064781D01*
X0547333Y0064868D01*
X0547199Y0064958D01*
X0547068Y0065051D01*
X0546940Y0065147D01*
X0546814Y0065247D01*
X0546690Y0065350D01*
X0546569Y0065455D01*
X0546450Y0065564D01*
X0546334Y0065675D01*
X0546221Y0065790D01*
X0546111Y0065907D01*
X0546004Y0066027D01*
X0545900Y0066149D01*
X0545799Y0066274D01*
X0545701Y0066402D01*
X0545606Y0066532D01*
X0545514Y0066664D01*
X0545426Y0066798D01*
X0545341Y0066935D01*
X0545259Y0067073D01*
X0545181Y0067214D01*
X0545107Y0067356D01*
X0545036Y0067500D01*
X0544968Y0067646D01*
X0544905Y0067794D01*
X0544844Y0067943D01*
X0544788Y0068094D01*
X0544735Y0068246D01*
X0544686Y0068399D01*
X0544641Y0068553D01*
X0544600Y0068708D01*
X0544562Y0068865D01*
X0544529Y0069022D01*
X0544499Y0069180D01*
X0544473Y0069339D01*
X0544452Y0069498D01*
X0544434Y0069658D01*
X0544420Y0069818D01*
X0544410Y0069979D01*
X0544404Y0070139D01*
X0544402Y0070300D01*
X0783402Y0001300D02*
X0784402Y0001300D01*
X0784489Y0001302D01*
X0784576Y0001308D01*
X0784663Y0001317D01*
X0784749Y0001330D01*
X0784835Y0001347D01*
X0784920Y0001368D01*
X0785003Y0001393D01*
X0785086Y0001421D01*
X0785167Y0001452D01*
X0785247Y0001487D01*
X0785325Y0001526D01*
X0785402Y0001568D01*
X0785477Y0001613D01*
X0785549Y0001662D01*
X0785620Y0001713D01*
X0785688Y0001768D01*
X0785753Y0001825D01*
X0785816Y0001886D01*
X0785877Y0001949D01*
X0785934Y0002014D01*
X0785989Y0002082D01*
X0786040Y0002153D01*
X0786089Y0002225D01*
X0786134Y0002300D01*
X0786176Y0002377D01*
X0786215Y0002455D01*
X0786250Y0002535D01*
X0786281Y0002616D01*
X0786309Y0002699D01*
X0786334Y0002782D01*
X0786355Y0002867D01*
X0786372Y0002953D01*
X0786385Y0003039D01*
X0786394Y0003126D01*
X0786400Y0003213D01*
X0786402Y0003300D01*
X0791481Y0264465D02*
X0810981Y0264465D01*
X0812981Y0266465D01*
X0812981Y0306465D01*
X0812981Y0306965D01*
X0792981Y0306965D01*
X0789481Y0306965D01*
X0789481Y0266465D01*
X0791481Y0264465D01*
X0794481Y0276965D02*
X0794483Y0277126D01*
X0794489Y0277286D01*
X0794499Y0277447D01*
X0794513Y0277607D01*
X0794531Y0277767D01*
X0794552Y0277926D01*
X0794578Y0278085D01*
X0794608Y0278243D01*
X0794641Y0278400D01*
X0794679Y0278557D01*
X0794720Y0278712D01*
X0794765Y0278866D01*
X0794814Y0279019D01*
X0794867Y0279171D01*
X0794923Y0279322D01*
X0794984Y0279471D01*
X0795047Y0279619D01*
X0795115Y0279765D01*
X0795186Y0279909D01*
X0795260Y0280051D01*
X0795338Y0280192D01*
X0795420Y0280330D01*
X0795505Y0280467D01*
X0795593Y0280601D01*
X0795685Y0280733D01*
X0795780Y0280863D01*
X0795878Y0280991D01*
X0795979Y0281116D01*
X0796083Y0281238D01*
X0796190Y0281358D01*
X0796300Y0281475D01*
X0796413Y0281590D01*
X0796529Y0281701D01*
X0796648Y0281810D01*
X0796769Y0281915D01*
X0796893Y0282018D01*
X0797019Y0282118D01*
X0797147Y0282214D01*
X0797278Y0282307D01*
X0797412Y0282397D01*
X0797547Y0282484D01*
X0797685Y0282567D01*
X0797824Y0282647D01*
X0797966Y0282723D01*
X0798109Y0282796D01*
X0798254Y0282865D01*
X0798401Y0282931D01*
X0798549Y0282993D01*
X0798699Y0283051D01*
X0798850Y0283106D01*
X0799003Y0283157D01*
X0799157Y0283204D01*
X0799312Y0283247D01*
X0799468Y0283286D01*
X0799624Y0283322D01*
X0799782Y0283353D01*
X0799940Y0283381D01*
X0800099Y0283405D01*
X0800259Y0283425D01*
X0800419Y0283441D01*
X0800579Y0283453D01*
X0800740Y0283461D01*
X0800901Y0283465D01*
X0801061Y0283465D01*
X0801222Y0283461D01*
X0801383Y0283453D01*
X0801543Y0283441D01*
X0801703Y0283425D01*
X0801863Y0283405D01*
X0802022Y0283381D01*
X0802180Y0283353D01*
X0802338Y0283322D01*
X0802494Y0283286D01*
X0802650Y0283247D01*
X0802805Y0283204D01*
X0802959Y0283157D01*
X0803112Y0283106D01*
X0803263Y0283051D01*
X0803413Y0282993D01*
X0803561Y0282931D01*
X0803708Y0282865D01*
X0803853Y0282796D01*
X0803996Y0282723D01*
X0804138Y0282647D01*
X0804277Y0282567D01*
X0804415Y0282484D01*
X0804550Y0282397D01*
X0804684Y0282307D01*
X0804815Y0282214D01*
X0804943Y0282118D01*
X0805069Y0282018D01*
X0805193Y0281915D01*
X0805314Y0281810D01*
X0805433Y0281701D01*
X0805549Y0281590D01*
X0805662Y0281475D01*
X0805772Y0281358D01*
X0805879Y0281238D01*
X0805983Y0281116D01*
X0806084Y0280991D01*
X0806182Y0280863D01*
X0806277Y0280733D01*
X0806369Y0280601D01*
X0806457Y0280467D01*
X0806542Y0280330D01*
X0806624Y0280192D01*
X0806702Y0280051D01*
X0806776Y0279909D01*
X0806847Y0279765D01*
X0806915Y0279619D01*
X0806978Y0279471D01*
X0807039Y0279322D01*
X0807095Y0279171D01*
X0807148Y0279019D01*
X0807197Y0278866D01*
X0807242Y0278712D01*
X0807283Y0278557D01*
X0807321Y0278400D01*
X0807354Y0278243D01*
X0807384Y0278085D01*
X0807410Y0277926D01*
X0807431Y0277767D01*
X0807449Y0277607D01*
X0807463Y0277447D01*
X0807473Y0277286D01*
X0807479Y0277126D01*
X0807481Y0276965D01*
X0807479Y0276804D01*
X0807473Y0276644D01*
X0807463Y0276483D01*
X0807449Y0276323D01*
X0807431Y0276163D01*
X0807410Y0276004D01*
X0807384Y0275845D01*
X0807354Y0275687D01*
X0807321Y0275530D01*
X0807283Y0275373D01*
X0807242Y0275218D01*
X0807197Y0275064D01*
X0807148Y0274911D01*
X0807095Y0274759D01*
X0807039Y0274608D01*
X0806978Y0274459D01*
X0806915Y0274311D01*
X0806847Y0274165D01*
X0806776Y0274021D01*
X0806702Y0273879D01*
X0806624Y0273738D01*
X0806542Y0273600D01*
X0806457Y0273463D01*
X0806369Y0273329D01*
X0806277Y0273197D01*
X0806182Y0273067D01*
X0806084Y0272939D01*
X0805983Y0272814D01*
X0805879Y0272692D01*
X0805772Y0272572D01*
X0805662Y0272455D01*
X0805549Y0272340D01*
X0805433Y0272229D01*
X0805314Y0272120D01*
X0805193Y0272015D01*
X0805069Y0271912D01*
X0804943Y0271812D01*
X0804815Y0271716D01*
X0804684Y0271623D01*
X0804550Y0271533D01*
X0804415Y0271446D01*
X0804277Y0271363D01*
X0804138Y0271283D01*
X0803996Y0271207D01*
X0803853Y0271134D01*
X0803708Y0271065D01*
X0803561Y0270999D01*
X0803413Y0270937D01*
X0803263Y0270879D01*
X0803112Y0270824D01*
X0802959Y0270773D01*
X0802805Y0270726D01*
X0802650Y0270683D01*
X0802494Y0270644D01*
X0802338Y0270608D01*
X0802180Y0270577D01*
X0802022Y0270549D01*
X0801863Y0270525D01*
X0801703Y0270505D01*
X0801543Y0270489D01*
X0801383Y0270477D01*
X0801222Y0270469D01*
X0801061Y0270465D01*
X0800901Y0270465D01*
X0800740Y0270469D01*
X0800579Y0270477D01*
X0800419Y0270489D01*
X0800259Y0270505D01*
X0800099Y0270525D01*
X0799940Y0270549D01*
X0799782Y0270577D01*
X0799624Y0270608D01*
X0799468Y0270644D01*
X0799312Y0270683D01*
X0799157Y0270726D01*
X0799003Y0270773D01*
X0798850Y0270824D01*
X0798699Y0270879D01*
X0798549Y0270937D01*
X0798401Y0270999D01*
X0798254Y0271065D01*
X0798109Y0271134D01*
X0797966Y0271207D01*
X0797824Y0271283D01*
X0797685Y0271363D01*
X0797547Y0271446D01*
X0797412Y0271533D01*
X0797278Y0271623D01*
X0797147Y0271716D01*
X0797019Y0271812D01*
X0796893Y0271912D01*
X0796769Y0272015D01*
X0796648Y0272120D01*
X0796529Y0272229D01*
X0796413Y0272340D01*
X0796300Y0272455D01*
X0796190Y0272572D01*
X0796083Y0272692D01*
X0795979Y0272814D01*
X0795878Y0272939D01*
X0795780Y0273067D01*
X0795685Y0273197D01*
X0795593Y0273329D01*
X0795505Y0273463D01*
X0795420Y0273600D01*
X0795338Y0273738D01*
X0795260Y0273879D01*
X0795186Y0274021D01*
X0795115Y0274165D01*
X0795047Y0274311D01*
X0794984Y0274459D01*
X0794923Y0274608D01*
X0794867Y0274759D01*
X0794814Y0274911D01*
X0794765Y0275064D01*
X0794720Y0275218D01*
X0794679Y0275373D01*
X0794641Y0275530D01*
X0794608Y0275687D01*
X0794578Y0275845D01*
X0794552Y0276004D01*
X0794531Y0276163D01*
X0794513Y0276323D01*
X0794499Y0276483D01*
X0794489Y0276644D01*
X0794483Y0276804D01*
X0794481Y0276965D01*
X0788481Y0303965D02*
X0788481Y0306965D01*
X0789481Y0306965D01*
X0788481Y0306965D02*
X0563481Y0306965D01*
X0563481Y0303965D01*
X0788481Y0303965D01*
X0789981Y0306965D02*
X0790079Y0306967D01*
X0790177Y0306973D01*
X0790275Y0306982D01*
X0790372Y0306996D01*
X0790469Y0307013D01*
X0790565Y0307034D01*
X0790660Y0307059D01*
X0790754Y0307087D01*
X0790846Y0307120D01*
X0790938Y0307155D01*
X0791028Y0307195D01*
X0791116Y0307237D01*
X0791203Y0307284D01*
X0791287Y0307333D01*
X0791370Y0307386D01*
X0791450Y0307442D01*
X0791529Y0307502D01*
X0791605Y0307564D01*
X0791678Y0307629D01*
X0791749Y0307697D01*
X0791817Y0307768D01*
X0791882Y0307841D01*
X0791944Y0307917D01*
X0792004Y0307996D01*
X0792060Y0308076D01*
X0792113Y0308159D01*
X0792162Y0308243D01*
X0792209Y0308330D01*
X0792251Y0308418D01*
X0792291Y0308508D01*
X0792326Y0308600D01*
X0792359Y0308692D01*
X0792387Y0308786D01*
X0792412Y0308881D01*
X0792433Y0308977D01*
X0792450Y0309074D01*
X0792464Y0309171D01*
X0792473Y0309269D01*
X0792479Y0309367D01*
X0792481Y0309465D01*
X0792481Y0318965D01*
X0792981Y0318965D01*
X0792981Y0320965D01*
X0802981Y0320965D01*
X0812981Y0320965D01*
X0812981Y0318965D01*
X0812981Y0306965D01*
X0812981Y0320965D02*
X0812981Y0322965D01*
X0782481Y0322965D01*
X0569481Y0322965D01*
X0538981Y0322965D01*
X0538981Y0320965D01*
X0548981Y0320965D01*
X0558981Y0320965D01*
X0792981Y0320965D01*
X0786481Y0322965D02*
X0786383Y0322967D01*
X0786285Y0322973D01*
X0786187Y0322982D01*
X0786090Y0322996D01*
X0785993Y0323013D01*
X0785897Y0323034D01*
X0785802Y0323059D01*
X0785708Y0323087D01*
X0785616Y0323120D01*
X0785524Y0323155D01*
X0785434Y0323195D01*
X0785346Y0323237D01*
X0785259Y0323284D01*
X0785175Y0323333D01*
X0785092Y0323386D01*
X0785012Y0323442D01*
X0784933Y0323502D01*
X0784857Y0323564D01*
X0784784Y0323629D01*
X0784713Y0323697D01*
X0784645Y0323768D01*
X0784580Y0323841D01*
X0784518Y0323917D01*
X0784458Y0323996D01*
X0784402Y0324076D01*
X0784349Y0324159D01*
X0784300Y0324243D01*
X0784253Y0324330D01*
X0784211Y0324418D01*
X0784171Y0324508D01*
X0784136Y0324600D01*
X0784103Y0324692D01*
X0784075Y0324786D01*
X0784050Y0324881D01*
X0784029Y0324977D01*
X0784012Y0325074D01*
X0783998Y0325171D01*
X0783989Y0325269D01*
X0783983Y0325367D01*
X0783981Y0325465D01*
X0783981Y0345465D01*
X0783979Y0345552D01*
X0783973Y0345639D01*
X0783964Y0345726D01*
X0783951Y0345812D01*
X0783934Y0345898D01*
X0783913Y0345983D01*
X0783888Y0346066D01*
X0783860Y0346149D01*
X0783829Y0346230D01*
X0783794Y0346310D01*
X0783755Y0346388D01*
X0783713Y0346465D01*
X0783668Y0346540D01*
X0783619Y0346612D01*
X0783568Y0346683D01*
X0783513Y0346751D01*
X0783456Y0346816D01*
X0783395Y0346879D01*
X0783332Y0346940D01*
X0783267Y0346997D01*
X0783199Y0347052D01*
X0783128Y0347103D01*
X0783056Y0347152D01*
X0782981Y0347197D01*
X0782904Y0347239D01*
X0782826Y0347278D01*
X0782746Y0347313D01*
X0782665Y0347344D01*
X0782582Y0347372D01*
X0782499Y0347397D01*
X0782414Y0347418D01*
X0782328Y0347435D01*
X0782242Y0347448D01*
X0782155Y0347457D01*
X0782068Y0347463D01*
X0781981Y0347465D01*
X0780981Y0347465D01*
X0570981Y0347465D01*
X0569981Y0347465D01*
X0569894Y0347463D01*
X0569807Y0347457D01*
X0569720Y0347448D01*
X0569634Y0347435D01*
X0569548Y0347418D01*
X0569463Y0347397D01*
X0569380Y0347372D01*
X0569297Y0347344D01*
X0569216Y0347313D01*
X0569136Y0347278D01*
X0569058Y0347239D01*
X0568981Y0347197D01*
X0568906Y0347152D01*
X0568834Y0347103D01*
X0568763Y0347052D01*
X0568695Y0346997D01*
X0568630Y0346940D01*
X0568567Y0346879D01*
X0568506Y0346816D01*
X0568449Y0346751D01*
X0568394Y0346683D01*
X0568343Y0346612D01*
X0568294Y0346540D01*
X0568249Y0346465D01*
X0568207Y0346388D01*
X0568168Y0346310D01*
X0568133Y0346230D01*
X0568102Y0346149D01*
X0568074Y0346066D01*
X0568049Y0345983D01*
X0568028Y0345898D01*
X0568011Y0345812D01*
X0567998Y0345726D01*
X0567989Y0345639D01*
X0567983Y0345552D01*
X0567981Y0345465D01*
X0567981Y0325465D01*
X0567979Y0325367D01*
X0567973Y0325269D01*
X0567964Y0325171D01*
X0567950Y0325074D01*
X0567933Y0324977D01*
X0567912Y0324881D01*
X0567887Y0324786D01*
X0567859Y0324692D01*
X0567826Y0324600D01*
X0567791Y0324508D01*
X0567751Y0324418D01*
X0567709Y0324330D01*
X0567662Y0324243D01*
X0567613Y0324159D01*
X0567560Y0324076D01*
X0567504Y0323996D01*
X0567444Y0323917D01*
X0567382Y0323841D01*
X0567317Y0323768D01*
X0567249Y0323697D01*
X0567178Y0323629D01*
X0567105Y0323564D01*
X0567029Y0323502D01*
X0566950Y0323442D01*
X0566870Y0323386D01*
X0566787Y0323333D01*
X0566703Y0323284D01*
X0566616Y0323237D01*
X0566528Y0323195D01*
X0566438Y0323155D01*
X0566346Y0323120D01*
X0566254Y0323087D01*
X0566160Y0323059D01*
X0566065Y0323034D01*
X0565969Y0323013D01*
X0565872Y0322996D01*
X0565775Y0322982D01*
X0565677Y0322973D01*
X0565579Y0322967D01*
X0565481Y0322965D01*
X0558981Y0320965D02*
X0558981Y0318965D01*
X0559481Y0318965D01*
X0559481Y0309465D01*
X0559483Y0309367D01*
X0559489Y0309269D01*
X0559498Y0309171D01*
X0559512Y0309074D01*
X0559529Y0308977D01*
X0559550Y0308881D01*
X0559575Y0308786D01*
X0559603Y0308692D01*
X0559636Y0308600D01*
X0559671Y0308508D01*
X0559711Y0308418D01*
X0559753Y0308330D01*
X0559800Y0308243D01*
X0559849Y0308159D01*
X0559902Y0308076D01*
X0559958Y0307996D01*
X0560018Y0307917D01*
X0560080Y0307841D01*
X0560145Y0307768D01*
X0560213Y0307697D01*
X0560284Y0307629D01*
X0560357Y0307564D01*
X0560433Y0307502D01*
X0560512Y0307442D01*
X0560592Y0307386D01*
X0560675Y0307333D01*
X0560759Y0307284D01*
X0560846Y0307237D01*
X0560934Y0307195D01*
X0561024Y0307155D01*
X0561116Y0307120D01*
X0561208Y0307087D01*
X0561302Y0307059D01*
X0561397Y0307034D01*
X0561493Y0307013D01*
X0561590Y0306996D01*
X0561687Y0306982D01*
X0561785Y0306973D01*
X0561883Y0306967D01*
X0561981Y0306965D01*
X0562481Y0306965D02*
X0562481Y0266465D01*
X0560481Y0264465D01*
X0541481Y0264465D01*
X0538981Y0266965D01*
X0538981Y0306465D01*
X0538981Y0306965D01*
X0538981Y0318965D01*
X0538981Y0320965D01*
X0538981Y0306965D02*
X0558981Y0306965D01*
X0562481Y0306965D01*
X0563481Y0306965D01*
X0544481Y0276965D02*
X0544483Y0277126D01*
X0544489Y0277286D01*
X0544499Y0277447D01*
X0544513Y0277607D01*
X0544531Y0277767D01*
X0544552Y0277926D01*
X0544578Y0278085D01*
X0544608Y0278243D01*
X0544641Y0278400D01*
X0544679Y0278557D01*
X0544720Y0278712D01*
X0544765Y0278866D01*
X0544814Y0279019D01*
X0544867Y0279171D01*
X0544923Y0279322D01*
X0544984Y0279471D01*
X0545047Y0279619D01*
X0545115Y0279765D01*
X0545186Y0279909D01*
X0545260Y0280051D01*
X0545338Y0280192D01*
X0545420Y0280330D01*
X0545505Y0280467D01*
X0545593Y0280601D01*
X0545685Y0280733D01*
X0545780Y0280863D01*
X0545878Y0280991D01*
X0545979Y0281116D01*
X0546083Y0281238D01*
X0546190Y0281358D01*
X0546300Y0281475D01*
X0546413Y0281590D01*
X0546529Y0281701D01*
X0546648Y0281810D01*
X0546769Y0281915D01*
X0546893Y0282018D01*
X0547019Y0282118D01*
X0547147Y0282214D01*
X0547278Y0282307D01*
X0547412Y0282397D01*
X0547547Y0282484D01*
X0547685Y0282567D01*
X0547824Y0282647D01*
X0547966Y0282723D01*
X0548109Y0282796D01*
X0548254Y0282865D01*
X0548401Y0282931D01*
X0548549Y0282993D01*
X0548699Y0283051D01*
X0548850Y0283106D01*
X0549003Y0283157D01*
X0549157Y0283204D01*
X0549312Y0283247D01*
X0549468Y0283286D01*
X0549624Y0283322D01*
X0549782Y0283353D01*
X0549940Y0283381D01*
X0550099Y0283405D01*
X0550259Y0283425D01*
X0550419Y0283441D01*
X0550579Y0283453D01*
X0550740Y0283461D01*
X0550901Y0283465D01*
X0551061Y0283465D01*
X0551222Y0283461D01*
X0551383Y0283453D01*
X0551543Y0283441D01*
X0551703Y0283425D01*
X0551863Y0283405D01*
X0552022Y0283381D01*
X0552180Y0283353D01*
X0552338Y0283322D01*
X0552494Y0283286D01*
X0552650Y0283247D01*
X0552805Y0283204D01*
X0552959Y0283157D01*
X0553112Y0283106D01*
X0553263Y0283051D01*
X0553413Y0282993D01*
X0553561Y0282931D01*
X0553708Y0282865D01*
X0553853Y0282796D01*
X0553996Y0282723D01*
X0554138Y0282647D01*
X0554277Y0282567D01*
X0554415Y0282484D01*
X0554550Y0282397D01*
X0554684Y0282307D01*
X0554815Y0282214D01*
X0554943Y0282118D01*
X0555069Y0282018D01*
X0555193Y0281915D01*
X0555314Y0281810D01*
X0555433Y0281701D01*
X0555549Y0281590D01*
X0555662Y0281475D01*
X0555772Y0281358D01*
X0555879Y0281238D01*
X0555983Y0281116D01*
X0556084Y0280991D01*
X0556182Y0280863D01*
X0556277Y0280733D01*
X0556369Y0280601D01*
X0556457Y0280467D01*
X0556542Y0280330D01*
X0556624Y0280192D01*
X0556702Y0280051D01*
X0556776Y0279909D01*
X0556847Y0279765D01*
X0556915Y0279619D01*
X0556978Y0279471D01*
X0557039Y0279322D01*
X0557095Y0279171D01*
X0557148Y0279019D01*
X0557197Y0278866D01*
X0557242Y0278712D01*
X0557283Y0278557D01*
X0557321Y0278400D01*
X0557354Y0278243D01*
X0557384Y0278085D01*
X0557410Y0277926D01*
X0557431Y0277767D01*
X0557449Y0277607D01*
X0557463Y0277447D01*
X0557473Y0277286D01*
X0557479Y0277126D01*
X0557481Y0276965D01*
X0557479Y0276804D01*
X0557473Y0276644D01*
X0557463Y0276483D01*
X0557449Y0276323D01*
X0557431Y0276163D01*
X0557410Y0276004D01*
X0557384Y0275845D01*
X0557354Y0275687D01*
X0557321Y0275530D01*
X0557283Y0275373D01*
X0557242Y0275218D01*
X0557197Y0275064D01*
X0557148Y0274911D01*
X0557095Y0274759D01*
X0557039Y0274608D01*
X0556978Y0274459D01*
X0556915Y0274311D01*
X0556847Y0274165D01*
X0556776Y0274021D01*
X0556702Y0273879D01*
X0556624Y0273738D01*
X0556542Y0273600D01*
X0556457Y0273463D01*
X0556369Y0273329D01*
X0556277Y0273197D01*
X0556182Y0273067D01*
X0556084Y0272939D01*
X0555983Y0272814D01*
X0555879Y0272692D01*
X0555772Y0272572D01*
X0555662Y0272455D01*
X0555549Y0272340D01*
X0555433Y0272229D01*
X0555314Y0272120D01*
X0555193Y0272015D01*
X0555069Y0271912D01*
X0554943Y0271812D01*
X0554815Y0271716D01*
X0554684Y0271623D01*
X0554550Y0271533D01*
X0554415Y0271446D01*
X0554277Y0271363D01*
X0554138Y0271283D01*
X0553996Y0271207D01*
X0553853Y0271134D01*
X0553708Y0271065D01*
X0553561Y0270999D01*
X0553413Y0270937D01*
X0553263Y0270879D01*
X0553112Y0270824D01*
X0552959Y0270773D01*
X0552805Y0270726D01*
X0552650Y0270683D01*
X0552494Y0270644D01*
X0552338Y0270608D01*
X0552180Y0270577D01*
X0552022Y0270549D01*
X0551863Y0270525D01*
X0551703Y0270505D01*
X0551543Y0270489D01*
X0551383Y0270477D01*
X0551222Y0270469D01*
X0551061Y0270465D01*
X0550901Y0270465D01*
X0550740Y0270469D01*
X0550579Y0270477D01*
X0550419Y0270489D01*
X0550259Y0270505D01*
X0550099Y0270525D01*
X0549940Y0270549D01*
X0549782Y0270577D01*
X0549624Y0270608D01*
X0549468Y0270644D01*
X0549312Y0270683D01*
X0549157Y0270726D01*
X0549003Y0270773D01*
X0548850Y0270824D01*
X0548699Y0270879D01*
X0548549Y0270937D01*
X0548401Y0270999D01*
X0548254Y0271065D01*
X0548109Y0271134D01*
X0547966Y0271207D01*
X0547824Y0271283D01*
X0547685Y0271363D01*
X0547547Y0271446D01*
X0547412Y0271533D01*
X0547278Y0271623D01*
X0547147Y0271716D01*
X0547019Y0271812D01*
X0546893Y0271912D01*
X0546769Y0272015D01*
X0546648Y0272120D01*
X0546529Y0272229D01*
X0546413Y0272340D01*
X0546300Y0272455D01*
X0546190Y0272572D01*
X0546083Y0272692D01*
X0545979Y0272814D01*
X0545878Y0272939D01*
X0545780Y0273067D01*
X0545685Y0273197D01*
X0545593Y0273329D01*
X0545505Y0273463D01*
X0545420Y0273600D01*
X0545338Y0273738D01*
X0545260Y0273879D01*
X0545186Y0274021D01*
X0545115Y0274165D01*
X0545047Y0274311D01*
X0544984Y0274459D01*
X0544923Y0274608D01*
X0544867Y0274759D01*
X0544814Y0274911D01*
X0544765Y0275064D01*
X0544720Y0275218D01*
X0544679Y0275373D01*
X0544641Y0275530D01*
X0544608Y0275687D01*
X0544578Y0275845D01*
X0544552Y0276004D01*
X0544531Y0276163D01*
X0544513Y0276323D01*
X0544499Y0276483D01*
X0544489Y0276644D01*
X0544483Y0276804D01*
X0544481Y0276965D01*
D14*
X0565731Y0279715D02*
X0568734Y0282718D01*
X0568734Y0283469D01*
X0567983Y0284219D01*
X0566482Y0284219D01*
X0565731Y0283469D01*
X0565731Y0279715D02*
X0568734Y0279715D01*
X0570335Y0280466D02*
X0573337Y0283469D01*
X0573337Y0280466D01*
X0572587Y0279715D01*
X0571086Y0279715D01*
X0570335Y0280466D01*
X0570335Y0283469D01*
X0571086Y0284219D01*
X0572587Y0284219D01*
X0573337Y0283469D01*
X0571732Y0274219D02*
X0571732Y0269715D01*
X0570231Y0269715D02*
X0573234Y0269715D01*
X0570231Y0272718D02*
X0571732Y0274219D01*
X0570231Y0310715D02*
X0570231Y0315219D01*
X0573234Y0315219D01*
X0574835Y0314469D02*
X0575586Y0315219D01*
X0577087Y0315219D01*
X0577837Y0314469D01*
X0577837Y0313718D01*
X0577087Y0312967D01*
X0577837Y0312217D01*
X0577837Y0311466D01*
X0577087Y0310715D01*
X0575586Y0310715D01*
X0574835Y0311466D01*
X0576336Y0312967D02*
X0577087Y0312967D01*
X0579439Y0311466D02*
X0582441Y0314469D01*
X0582441Y0315219D01*
X0579439Y0315219D01*
X0579439Y0311466D02*
X0579439Y0310715D01*
X0571732Y0312967D02*
X0570231Y0312967D01*
X0778731Y0283469D02*
X0779482Y0284219D01*
X0780983Y0284219D01*
X0781734Y0283469D01*
X0781734Y0282718D01*
X0780983Y0281967D01*
X0781734Y0281217D01*
X0781734Y0280466D01*
X0780983Y0279715D01*
X0779482Y0279715D01*
X0778731Y0280466D01*
X0780232Y0281967D02*
X0780983Y0281967D01*
X0783335Y0280466D02*
X0783335Y0279715D01*
X0783335Y0280466D02*
X0786337Y0283469D01*
X0786337Y0284219D01*
X0783335Y0284219D01*
X0784086Y0274219D02*
X0783335Y0273469D01*
X0783335Y0272718D01*
X0784086Y0271967D01*
X0786337Y0271967D01*
X0786337Y0270466D02*
X0786337Y0273469D01*
X0785587Y0274219D01*
X0784086Y0274219D01*
X0783335Y0270466D02*
X0784086Y0269715D01*
X0785587Y0269715D01*
X0786337Y0270466D01*
X0781734Y0269715D02*
X0778731Y0269715D01*
X0780232Y0269715D02*
X0780232Y0274219D01*
X0778731Y0272718D01*
X0806227Y0287966D02*
X0806978Y0287215D01*
X0806227Y0287966D02*
X0806227Y0289467D01*
X0806978Y0290218D01*
X0807728Y0290218D01*
X0810731Y0287215D01*
X0810731Y0290218D01*
X0812232Y0291819D02*
X0810731Y0293321D01*
X0810731Y0292570D01*
X0809980Y0292570D01*
X0809980Y0293321D01*
X0810731Y0293321D01*
X0809980Y0294889D02*
X0810731Y0295639D01*
X0810731Y0297140D01*
X0809980Y0297891D01*
X0808479Y0297891D01*
X0807728Y0297140D01*
X0807728Y0296390D01*
X0808479Y0294889D01*
X0806227Y0294889D01*
X0806227Y0297891D01*
X0808479Y0299492D02*
X0806227Y0301744D01*
X0810731Y0301744D01*
X0808479Y0302495D02*
X0808479Y0299492D01*
X0786008Y0077554D02*
X0784507Y0077554D01*
X0783756Y0076803D01*
X0783756Y0076053D01*
X0784507Y0075302D01*
X0786759Y0075302D01*
X0786759Y0073801D02*
X0786759Y0076803D01*
X0786008Y0077554D01*
X0786759Y0073801D02*
X0786008Y0073050D01*
X0784507Y0073050D01*
X0783756Y0073801D01*
X0782155Y0073050D02*
X0779152Y0073050D01*
X0780654Y0073050D02*
X0780654Y0077554D01*
X0779152Y0076053D01*
X0778903Y0067554D02*
X0780404Y0067554D01*
X0781155Y0066803D01*
X0781155Y0066053D01*
X0780404Y0065302D01*
X0781155Y0064551D01*
X0781155Y0063801D01*
X0780404Y0063050D01*
X0778903Y0063050D01*
X0778152Y0063801D01*
X0779654Y0065302D02*
X0780404Y0065302D01*
X0778152Y0066803D02*
X0778903Y0067554D01*
X0782756Y0067554D02*
X0785759Y0067554D01*
X0785759Y0066803D01*
X0782756Y0063801D01*
X0782756Y0063050D01*
X0582363Y0036554D02*
X0582363Y0035803D01*
X0579360Y0032801D01*
X0579360Y0032050D01*
X0577759Y0032801D02*
X0577008Y0032050D01*
X0575507Y0032050D01*
X0574756Y0032801D01*
X0573155Y0032050D02*
X0573155Y0036554D01*
X0571654Y0035053D01*
X0570152Y0036554D01*
X0570152Y0032050D01*
X0574756Y0035803D02*
X0575507Y0036554D01*
X0577008Y0036554D01*
X0577759Y0035803D01*
X0577759Y0035053D01*
X0577008Y0034302D01*
X0577759Y0033551D01*
X0577759Y0032801D01*
X0577008Y0034302D02*
X0576257Y0034302D01*
X0579360Y0036554D02*
X0582363Y0036554D01*
X0547654Y0048154D02*
X0546152Y0049655D01*
X0546152Y0048905D01*
X0545402Y0048905D01*
X0545402Y0049655D01*
X0546152Y0049655D01*
X0545402Y0051223D02*
X0546152Y0051974D01*
X0546152Y0053475D01*
X0545402Y0054226D01*
X0543900Y0054226D01*
X0543150Y0053475D01*
X0543150Y0052724D01*
X0543900Y0051223D01*
X0541648Y0051223D01*
X0541648Y0054226D01*
X0543900Y0055827D02*
X0541648Y0058079D01*
X0546152Y0058079D01*
X0543900Y0058830D02*
X0543900Y0055827D01*
X0543150Y0046553D02*
X0542399Y0046553D01*
X0541648Y0045802D01*
X0541648Y0044301D01*
X0542399Y0043550D01*
X0543150Y0046553D02*
X0546152Y0043550D01*
X0546152Y0046553D01*
X0565652Y0062550D02*
X0568655Y0065553D01*
X0568655Y0066303D01*
X0567904Y0067054D01*
X0566403Y0067054D01*
X0565652Y0066303D01*
X0565652Y0062550D02*
X0568655Y0062550D01*
X0570256Y0063301D02*
X0573259Y0066303D01*
X0573259Y0063301D01*
X0572508Y0062550D01*
X0571007Y0062550D01*
X0570256Y0063301D01*
X0570256Y0066303D01*
X0571007Y0067054D01*
X0572508Y0067054D01*
X0573259Y0066303D01*
X0573155Y0073050D02*
X0570152Y0073050D01*
X0571654Y0073050D02*
X0571654Y0077554D01*
X0570152Y0076053D01*
D15*
X0561402Y0033050D03*
X0790402Y0033050D03*
D16*
X0801202Y0043550D03*
X0550602Y0043550D03*
D17*
X0675902Y0041800D03*
X0675981Y0305465D03*
D18*
X0675981Y0321965D03*
X0675902Y0025300D03*
D19*
X0675902Y0057550D03*
X0686802Y0057550D03*
X0697602Y0057550D03*
X0708502Y0057550D03*
X0719402Y0057650D03*
X0730202Y0057550D03*
X0741102Y0057550D03*
X0752002Y0057550D03*
X0762802Y0057550D03*
X0773702Y0057550D03*
X0665002Y0057550D03*
X0654202Y0057550D03*
X0643302Y0057550D03*
X0632402Y0057550D03*
X0621502Y0057550D03*
X0610702Y0057550D03*
X0610702Y0057550D03*
X0599802Y0057550D03*
X0588902Y0057550D03*
X0578102Y0057550D03*
X0578181Y0289715D03*
X0589081Y0289715D03*
X0599881Y0289715D03*
X0610781Y0289715D03*
X0621681Y0289715D03*
X0632481Y0289715D03*
X0643381Y0289715D03*
X0654281Y0289715D03*
X0665181Y0289715D03*
X0675981Y0289715D03*
X0686881Y0289715D03*
X0697681Y0289715D03*
X0708581Y0289715D03*
X0719481Y0289715D03*
X0730381Y0289715D03*
X0741181Y0289715D03*
X0752181Y0289715D03*
X0762881Y0289715D03*
X0773781Y0289715D03*
D20*
X0768381Y0294715D03*
X0757481Y0294715D03*
X0746681Y0294715D03*
X0735781Y0294715D03*
X0724881Y0294715D03*
X0713981Y0294715D03*
X0703181Y0294715D03*
X0692281Y0294715D03*
X0681381Y0294715D03*
X0670581Y0294715D03*
X0659681Y0294715D03*
X0648781Y0294715D03*
X0637981Y0294715D03*
X0627081Y0294715D03*
X0616181Y0294715D03*
X0605381Y0294715D03*
X0594481Y0294715D03*
X0583581Y0294715D03*
X0583502Y0052550D03*
X0594402Y0052550D03*
X0605202Y0052550D03*
X0616102Y0052550D03*
X0616102Y0052550D03*
X0627002Y0052550D03*
X0637902Y0052550D03*
X0648702Y0052550D03*
X0659602Y0052550D03*
X0670502Y0052550D03*
X0681302Y0052550D03*
X0692202Y0052550D03*
X0703102Y0052550D03*
X0713902Y0052550D03*
X0724802Y0052550D03*
X0735702Y0052550D03*
X0746502Y0052550D03*
X0757402Y0052550D03*
X0768302Y0052550D03*
M02*
