G75*
%MOIN*%
%OFA0B0*%
%FSLAX25Y25*%
%IPPOS*%
%LPD*%
%AMOC8*
5,1,8,0,0,1.08239X$1,22.5*
%
%ADD10C,0.01500*%
%ADD11C,0.01000*%
%ADD12C,0.03100*%
D10*
X0051763Y0113022D02*
X0055833Y0113022D01*
X0053798Y0113022D02*
X0053798Y0119128D01*
X0051763Y0117093D01*
X0058761Y0119128D02*
X0062831Y0119128D01*
X0062831Y0118110D01*
X0058761Y0114040D01*
X0058761Y0113022D01*
X0091133Y0113022D02*
X0095203Y0113022D01*
X0093168Y0113022D02*
X0093168Y0119128D01*
X0091133Y0117093D01*
X0098131Y0116075D02*
X0102201Y0116075D01*
X0101183Y0113022D02*
X0101183Y0119128D01*
X0098131Y0116075D01*
X0130503Y0117093D02*
X0132538Y0119128D01*
X0132538Y0113022D01*
X0130503Y0113022D02*
X0134573Y0113022D01*
X0137501Y0113022D02*
X0141571Y0113022D01*
X0139536Y0113022D02*
X0139536Y0119128D01*
X0137501Y0117093D01*
X0169873Y0118110D02*
X0170890Y0119128D01*
X0172925Y0119128D01*
X0173943Y0118110D01*
X0173943Y0117093D01*
X0169873Y0113022D01*
X0173943Y0113022D01*
X0176871Y0114040D02*
X0176871Y0115058D01*
X0177888Y0116075D01*
X0179923Y0116075D01*
X0180941Y0115058D01*
X0180941Y0114040D01*
X0179923Y0113022D01*
X0177888Y0113022D01*
X0176871Y0114040D01*
X0177888Y0116075D02*
X0176871Y0117093D01*
X0176871Y0118110D01*
X0177888Y0119128D01*
X0179923Y0119128D01*
X0180941Y0118110D01*
X0180941Y0117093D01*
X0179923Y0116075D01*
X0209243Y0118110D02*
X0210260Y0119128D01*
X0212296Y0119128D01*
X0213313Y0118110D01*
X0213313Y0117093D01*
X0209243Y0113022D01*
X0213313Y0113022D01*
X0216241Y0114040D02*
X0217258Y0113022D01*
X0219293Y0113022D01*
X0220311Y0114040D01*
X0220311Y0116075D01*
X0219293Y0117093D01*
X0218276Y0117093D01*
X0216241Y0116075D01*
X0216241Y0119128D01*
X0220311Y0119128D01*
X0248613Y0118110D02*
X0249631Y0119128D01*
X0251666Y0119128D01*
X0252683Y0118110D01*
X0252683Y0117093D01*
X0248613Y0113022D01*
X0252683Y0113022D01*
X0255611Y0116075D02*
X0259681Y0116075D01*
X0258664Y0113022D02*
X0258664Y0119128D01*
X0255611Y0116075D01*
X0287983Y0118110D02*
X0289001Y0119128D01*
X0291036Y0119128D01*
X0292053Y0118110D01*
X0292053Y0117093D01*
X0287983Y0113022D01*
X0292053Y0113022D01*
X0294981Y0114040D02*
X0295999Y0113022D01*
X0298034Y0113022D01*
X0299051Y0114040D01*
X0299051Y0115058D01*
X0298034Y0116075D01*
X0297016Y0116075D01*
X0298034Y0116075D02*
X0299051Y0117093D01*
X0299051Y0118110D01*
X0298034Y0119128D01*
X0295999Y0119128D01*
X0294981Y0118110D01*
X0327353Y0118110D02*
X0328371Y0119128D01*
X0330406Y0119128D01*
X0331423Y0118110D01*
X0331423Y0117093D01*
X0327353Y0113022D01*
X0331423Y0113022D01*
X0334351Y0113022D02*
X0338421Y0117093D01*
X0338421Y0118110D01*
X0337404Y0119128D01*
X0335369Y0119128D01*
X0334351Y0118110D01*
X0334351Y0113022D02*
X0338421Y0113022D01*
X0366723Y0113022D02*
X0370793Y0117093D01*
X0370793Y0118110D01*
X0369776Y0119128D01*
X0367741Y0119128D01*
X0366723Y0118110D01*
X0366723Y0113022D02*
X0370793Y0113022D01*
X0373721Y0113022D02*
X0377791Y0113022D01*
X0375756Y0113022D02*
X0375756Y0119128D01*
X0373721Y0117093D01*
X0404125Y0118110D02*
X0405142Y0119128D01*
X0407177Y0119128D01*
X0408195Y0118110D01*
X0408195Y0117093D01*
X0404125Y0113022D01*
X0408195Y0113022D01*
X0411123Y0114040D02*
X0415193Y0118110D01*
X0415193Y0114040D01*
X0414175Y0113022D01*
X0412140Y0113022D01*
X0411123Y0114040D01*
X0411123Y0118110D01*
X0412140Y0119128D01*
X0414175Y0119128D01*
X0415193Y0118110D01*
X0388510Y0152393D02*
X0384440Y0152393D01*
X0388510Y0156463D01*
X0388510Y0157480D01*
X0387492Y0158498D01*
X0385457Y0158498D01*
X0384440Y0157480D01*
X0351108Y0155445D02*
X0347038Y0155445D01*
X0350091Y0158498D01*
X0350091Y0152393D01*
X0311738Y0153410D02*
X0311738Y0154428D01*
X0310721Y0155445D01*
X0307668Y0155445D01*
X0307668Y0153410D01*
X0308686Y0152393D01*
X0310721Y0152393D01*
X0311738Y0153410D01*
X0309703Y0157480D02*
X0307668Y0155445D01*
X0309703Y0157480D02*
X0311738Y0158498D01*
X0272368Y0157480D02*
X0272368Y0156463D01*
X0271351Y0155445D01*
X0269316Y0155445D01*
X0268298Y0156463D01*
X0268298Y0157480D01*
X0269316Y0158498D01*
X0271351Y0158498D01*
X0272368Y0157480D01*
X0271351Y0155445D02*
X0272368Y0154428D01*
X0272368Y0153410D01*
X0271351Y0152393D01*
X0269316Y0152393D01*
X0268298Y0153410D01*
X0268298Y0154428D01*
X0269316Y0155445D01*
X0239996Y0153410D02*
X0238979Y0152393D01*
X0236943Y0152393D01*
X0235926Y0153410D01*
X0239996Y0157480D01*
X0239996Y0153410D01*
X0235926Y0153410D02*
X0235926Y0157480D01*
X0236943Y0158498D01*
X0238979Y0158498D01*
X0239996Y0157480D01*
X0232998Y0152393D02*
X0228928Y0152393D01*
X0230963Y0152393D02*
X0230963Y0158498D01*
X0228928Y0156463D01*
X0200626Y0158498D02*
X0198591Y0157480D01*
X0196556Y0155445D01*
X0199608Y0155445D01*
X0200626Y0154428D01*
X0200626Y0153410D01*
X0199608Y0152393D01*
X0197573Y0152393D01*
X0196556Y0153410D01*
X0196556Y0155445D01*
X0193628Y0156463D02*
X0193628Y0157480D01*
X0192610Y0158498D01*
X0190575Y0158498D01*
X0189558Y0157480D01*
X0193628Y0156463D02*
X0189558Y0152393D01*
X0193628Y0152393D01*
X0161256Y0153410D02*
X0160238Y0152393D01*
X0158203Y0152393D01*
X0157186Y0153410D01*
X0161256Y0157480D01*
X0161256Y0153410D01*
X0161256Y0157480D02*
X0160238Y0158498D01*
X0158203Y0158498D01*
X0157186Y0157480D01*
X0157186Y0153410D01*
X0154258Y0153410D02*
X0153240Y0152393D01*
X0151205Y0152393D01*
X0150188Y0153410D01*
X0152223Y0155445D02*
X0153240Y0155445D01*
X0154258Y0154428D01*
X0154258Y0153410D01*
X0153240Y0155445D02*
X0154258Y0156463D01*
X0154258Y0157480D01*
X0153240Y0158498D01*
X0151205Y0158498D01*
X0150188Y0157480D01*
X0121886Y0157480D02*
X0121886Y0156463D01*
X0120868Y0155445D01*
X0121886Y0154428D01*
X0121886Y0153410D01*
X0120868Y0152393D01*
X0118833Y0152393D01*
X0117816Y0153410D01*
X0119851Y0155445D02*
X0120868Y0155445D01*
X0121886Y0157480D02*
X0120868Y0158498D01*
X0118833Y0158498D01*
X0117816Y0157480D01*
X0112853Y0158498D02*
X0112853Y0152393D01*
X0110818Y0152393D02*
X0114888Y0152393D01*
X0110818Y0156463D02*
X0112853Y0158498D01*
X0082516Y0158498D02*
X0080481Y0157480D01*
X0078446Y0155445D01*
X0081498Y0155445D01*
X0082516Y0154428D01*
X0082516Y0153410D01*
X0081498Y0152393D01*
X0079463Y0152393D01*
X0078446Y0153410D01*
X0078446Y0155445D01*
X0075518Y0152393D02*
X0071448Y0152393D01*
X0073483Y0152393D02*
X0073483Y0158498D01*
X0071448Y0156463D01*
X0043146Y0156463D02*
X0042128Y0155445D01*
X0040093Y0155445D01*
X0039076Y0156463D01*
X0039076Y0157480D01*
X0040093Y0158498D01*
X0042128Y0158498D01*
X0043146Y0157480D01*
X0043146Y0156463D01*
X0042128Y0155445D02*
X0043146Y0154428D01*
X0043146Y0153410D01*
X0042128Y0152393D01*
X0040093Y0152393D01*
X0039076Y0153410D01*
X0039076Y0154428D01*
X0040093Y0155445D01*
X0036148Y0152393D02*
X0032078Y0152393D01*
X0034113Y0152393D02*
X0034113Y0158498D01*
X0032078Y0156463D01*
X0051763Y0191763D02*
X0055833Y0191763D01*
X0053798Y0191763D02*
X0053798Y0197868D01*
X0051763Y0195833D01*
X0058761Y0195833D02*
X0059778Y0194815D01*
X0062831Y0194815D01*
X0062831Y0192780D02*
X0062831Y0196850D01*
X0061813Y0197868D01*
X0059778Y0197868D01*
X0058761Y0196850D01*
X0058761Y0195833D01*
X0058761Y0192780D02*
X0059778Y0191763D01*
X0061813Y0191763D01*
X0062831Y0192780D01*
X0091133Y0191763D02*
X0095203Y0191763D01*
X0093168Y0191763D02*
X0093168Y0197868D01*
X0091133Y0195833D01*
X0098131Y0194815D02*
X0100166Y0195833D01*
X0101183Y0195833D01*
X0102201Y0194815D01*
X0102201Y0192780D01*
X0101183Y0191763D01*
X0099148Y0191763D01*
X0098131Y0192780D01*
X0098131Y0194815D02*
X0098131Y0197868D01*
X0102201Y0197868D01*
X0130503Y0195833D02*
X0132538Y0197868D01*
X0132538Y0191763D01*
X0130503Y0191763D02*
X0134573Y0191763D01*
X0137501Y0191763D02*
X0141571Y0195833D01*
X0141571Y0196850D01*
X0140553Y0197868D01*
X0138518Y0197868D01*
X0137501Y0196850D01*
X0137501Y0191763D02*
X0141571Y0191763D01*
X0169873Y0191763D02*
X0173943Y0195833D01*
X0173943Y0196850D01*
X0172925Y0197868D01*
X0170890Y0197868D01*
X0169873Y0196850D01*
X0169873Y0191763D02*
X0173943Y0191763D01*
X0176871Y0192780D02*
X0177888Y0191763D01*
X0179923Y0191763D01*
X0180941Y0192780D01*
X0180941Y0196850D01*
X0179923Y0197868D01*
X0177888Y0197868D01*
X0176871Y0196850D01*
X0176871Y0195833D01*
X0177888Y0194815D01*
X0180941Y0194815D01*
X0209243Y0196850D02*
X0210260Y0197868D01*
X0212296Y0197868D01*
X0213313Y0196850D01*
X0213313Y0195833D01*
X0209243Y0191763D01*
X0213313Y0191763D01*
X0216241Y0191763D02*
X0216241Y0192780D01*
X0220311Y0196850D01*
X0220311Y0197868D01*
X0216241Y0197868D01*
X0248613Y0196850D02*
X0248613Y0195833D01*
X0249631Y0194815D01*
X0252683Y0194815D01*
X0252683Y0192780D02*
X0252683Y0196850D01*
X0251666Y0197868D01*
X0249631Y0197868D01*
X0248613Y0196850D01*
X0248613Y0192780D02*
X0249631Y0191763D01*
X0251666Y0191763D01*
X0252683Y0192780D01*
X0287983Y0192780D02*
X0287983Y0191763D01*
X0287983Y0192780D02*
X0292053Y0196850D01*
X0292053Y0197868D01*
X0287983Y0197868D01*
X0327353Y0197868D02*
X0327353Y0194815D01*
X0329388Y0195833D01*
X0330406Y0195833D01*
X0331423Y0194815D01*
X0331423Y0192780D01*
X0330406Y0191763D01*
X0328371Y0191763D01*
X0327353Y0192780D01*
X0327353Y0197868D02*
X0331423Y0197868D01*
X0366723Y0196850D02*
X0367741Y0197868D01*
X0369776Y0197868D01*
X0370793Y0196850D01*
X0370793Y0195833D01*
X0369776Y0194815D01*
X0370793Y0193798D01*
X0370793Y0192780D01*
X0369776Y0191763D01*
X0367741Y0191763D01*
X0366723Y0192780D01*
X0368758Y0194815D02*
X0369776Y0194815D01*
X0406093Y0195833D02*
X0408128Y0197868D01*
X0408128Y0191763D01*
X0406093Y0191763D02*
X0410163Y0191763D01*
D11*
X0113237Y0075371D02*
X0110568Y0075371D01*
X0111902Y0075371D02*
X0111902Y0079374D01*
X0110568Y0078040D01*
X0115172Y0078040D02*
X0115839Y0077373D01*
X0117841Y0077373D01*
X0117841Y0078707D02*
X0117173Y0079374D01*
X0115839Y0079374D01*
X0115172Y0078707D01*
X0115172Y0078040D01*
X0115172Y0076038D02*
X0115839Y0075371D01*
X0117173Y0075371D01*
X0117841Y0076038D01*
X0117841Y0078707D01*
X0325135Y0078040D02*
X0326469Y0079374D01*
X0326469Y0075371D01*
X0325135Y0075371D02*
X0327804Y0075371D01*
X0327804Y0232851D02*
X0325135Y0232851D01*
X0326469Y0232851D02*
X0326469Y0236855D01*
X0325135Y0235520D01*
X0117841Y0234853D02*
X0115839Y0234853D01*
X0115172Y0235520D01*
X0115172Y0236187D01*
X0115839Y0236855D01*
X0117173Y0236855D01*
X0117841Y0236187D01*
X0117841Y0233518D01*
X0117173Y0232851D01*
X0115839Y0232851D01*
X0115172Y0233518D01*
X0113237Y0232851D02*
X0110568Y0232851D01*
X0111902Y0232851D02*
X0111902Y0236855D01*
X0110568Y0235520D01*
D12*
X0418541Y0233546D02*
X0418541Y0231244D01*
X0419692Y0230093D01*
X0424296Y0230093D01*
X0425447Y0231244D01*
X0425447Y0233546D01*
X0424296Y0234697D01*
X0419692Y0234697D01*
X0418541Y0233546D01*
X0418541Y0225489D02*
X0418541Y0220885D01*
X0418541Y0223187D02*
X0425447Y0223187D01*
X0424296Y0207074D02*
X0425447Y0205923D01*
X0425447Y0202470D01*
X0418541Y0202470D01*
X0418541Y0205923D01*
X0419692Y0207074D01*
X0420843Y0207074D01*
X0421994Y0205923D01*
X0421994Y0202470D01*
X0421994Y0205923D02*
X0423145Y0207074D01*
X0424296Y0207074D01*
X0424296Y0197866D02*
X0418541Y0197866D01*
X0418541Y0193262D02*
X0424296Y0193262D01*
X0425447Y0194413D01*
X0425447Y0196715D01*
X0424296Y0197866D01*
X0424296Y0188658D02*
X0425447Y0187507D01*
X0425447Y0185205D01*
X0424296Y0184054D01*
X0421994Y0185205D02*
X0421994Y0187507D01*
X0423145Y0188658D01*
X0424296Y0188658D01*
X0421994Y0185205D02*
X0420843Y0184054D01*
X0419692Y0184054D01*
X0418541Y0185205D01*
X0418541Y0187507D01*
X0419692Y0188658D01*
X0419692Y0179450D02*
X0418541Y0178299D01*
X0418541Y0174846D01*
X0425447Y0174846D01*
X0425447Y0178299D01*
X0424296Y0179450D01*
X0419692Y0179450D01*
X0418541Y0248509D02*
X0418541Y0251962D01*
X0419692Y0253113D01*
X0421994Y0253113D01*
X0423145Y0251962D01*
X0423145Y0248509D01*
X0425447Y0248509D02*
X0418541Y0248509D01*
X0418541Y0257717D02*
X0418541Y0260019D01*
X0418541Y0258868D02*
X0425447Y0258868D01*
X0425447Y0257717D02*
X0425447Y0260019D01*
X0425447Y0263855D02*
X0418541Y0263855D01*
X0425447Y0268459D01*
X0418541Y0268459D01*
X0419692Y0273063D02*
X0420843Y0273063D01*
X0421994Y0274214D01*
X0421994Y0276516D01*
X0423145Y0277667D01*
X0424296Y0277667D01*
X0425447Y0276516D01*
X0425447Y0274214D01*
X0424296Y0273063D01*
X0419692Y0273063D02*
X0418541Y0274214D01*
X0418541Y0276516D01*
X0419692Y0277667D01*
M02*
