G75*
%MOIN*%
%OFA0B0*%
%FSLAX25Y25*%
%IPPOS*%
%LPD*%
%AMOC8*
5,1,8,0,0,1.08239X$1,22.5*
%
%ADD10C,0.06337*%
%ADD11OC8,0.06400*%
%ADD12C,0.20000*%
%ADD13C,0.01600*%
D10*
X0499721Y0109309D02*
X0499721Y0115646D01*
X0539091Y0115646D02*
X0539091Y0109309D01*
X0578461Y0109309D02*
X0578461Y0115646D01*
X0617831Y0115646D02*
X0617831Y0109309D01*
X0657201Y0109309D02*
X0657201Y0115646D01*
X0696572Y0115646D02*
X0696572Y0109309D01*
X0745942Y0109309D02*
X0745942Y0115646D01*
X0794997Y0115646D02*
X0794997Y0109309D01*
X0834367Y0109309D02*
X0834367Y0115646D01*
X0854052Y0148679D02*
X0854052Y0155016D01*
X0814682Y0155016D02*
X0814682Y0148679D01*
X0775312Y0148679D02*
X0775312Y0155016D01*
X0726257Y0155016D02*
X0726257Y0148679D01*
X0676886Y0148679D02*
X0676886Y0155016D01*
X0637516Y0155016D02*
X0637516Y0148679D01*
X0598146Y0148679D02*
X0598146Y0155016D01*
X0558776Y0155016D02*
X0558776Y0148679D01*
X0519406Y0148679D02*
X0519406Y0155016D01*
X0499721Y0188049D02*
X0499721Y0194386D01*
X0539091Y0194386D02*
X0539091Y0188049D01*
X0578461Y0188049D02*
X0578461Y0194386D01*
X0617831Y0194386D02*
X0617831Y0188049D01*
X0657201Y0188049D02*
X0657201Y0194386D01*
X0696572Y0194386D02*
X0696572Y0188049D01*
X0735942Y0188049D02*
X0735942Y0194386D01*
X0775312Y0194386D02*
X0775312Y0188049D01*
X0814682Y0188049D02*
X0814682Y0194386D01*
X0854052Y0194386D02*
X0854052Y0188049D01*
X0854052Y0227419D02*
X0854052Y0233756D01*
X0814682Y0233756D02*
X0814682Y0227419D01*
X0775312Y0227419D02*
X0775312Y0233756D01*
X0735942Y0233756D02*
X0735942Y0227419D01*
X0696572Y0227419D02*
X0696572Y0233756D01*
X0657201Y0233756D02*
X0657201Y0227419D01*
X0617831Y0227419D02*
X0617831Y0233756D01*
X0578461Y0233756D02*
X0578461Y0227419D01*
X0539091Y0227419D02*
X0539091Y0233756D01*
D11*
X0578181Y0271965D03*
X0589081Y0271965D03*
X0599881Y0271965D03*
X0610781Y0271965D03*
X0621681Y0271965D03*
X0632481Y0271965D03*
X0643381Y0271965D03*
X0654281Y0271965D03*
X0665081Y0271965D03*
X0675981Y0271965D03*
X0686881Y0271965D03*
X0697681Y0271965D03*
X0708581Y0271965D03*
X0719481Y0271965D03*
X0730381Y0271965D03*
X0741181Y0271965D03*
X0752081Y0271965D03*
X0762981Y0271965D03*
X0773781Y0271965D03*
X0768381Y0281965D03*
X0757481Y0281965D03*
X0746681Y0281965D03*
X0735781Y0281965D03*
X0724881Y0281965D03*
X0714081Y0281965D03*
X0703181Y0281965D03*
X0692281Y0281965D03*
X0681381Y0281965D03*
X0670581Y0281965D03*
X0659681Y0281965D03*
X0648781Y0281965D03*
X0637981Y0281965D03*
X0627081Y0281965D03*
X0616181Y0281965D03*
X0605381Y0281965D03*
X0594481Y0281965D03*
X0583581Y0281965D03*
X0588902Y0075300D03*
X0599802Y0075300D03*
X0610702Y0075300D03*
X0621502Y0075300D03*
X0632402Y0075300D03*
X0643302Y0075300D03*
X0654202Y0075300D03*
X0665002Y0075300D03*
X0675902Y0075300D03*
X0686802Y0075300D03*
X0697602Y0075300D03*
X0708502Y0075300D03*
X0719402Y0075300D03*
X0730202Y0075300D03*
X0741102Y0075300D03*
X0752002Y0075300D03*
X0762802Y0075300D03*
X0773702Y0075300D03*
X0768302Y0065300D03*
X0757402Y0065300D03*
X0746502Y0065300D03*
X0735702Y0065300D03*
X0724802Y0065300D03*
X0713902Y0065300D03*
X0703102Y0065300D03*
X0692202Y0065300D03*
X0681302Y0065300D03*
X0670502Y0065300D03*
X0659602Y0065300D03*
X0648702Y0065300D03*
X0637902Y0065300D03*
X0627002Y0065300D03*
X0616102Y0065300D03*
X0605202Y0065300D03*
X0594402Y0065300D03*
X0583502Y0065300D03*
X0578102Y0075300D03*
D12*
X0550902Y0070300D03*
X0800902Y0070300D03*
X0800981Y0276965D03*
X0550981Y0276965D03*
D13*
X0481531Y0028263D02*
X0860543Y0028263D01*
X0872400Y0028263D01*
X0872400Y0320707D01*
X0481531Y0320707D01*
X0481531Y0028263D01*
X0481531Y0029502D02*
X0872400Y0029502D01*
X0872400Y0031100D02*
X0481531Y0031100D01*
X0481531Y0032699D02*
X0872400Y0032699D01*
X0872400Y0034297D02*
X0481531Y0034297D01*
X0481531Y0035896D02*
X0872400Y0035896D01*
X0872400Y0037494D02*
X0481531Y0037494D01*
X0481531Y0039093D02*
X0872400Y0039093D01*
X0872400Y0040691D02*
X0481531Y0040691D01*
X0481531Y0042290D02*
X0872400Y0042290D01*
X0872400Y0043888D02*
X0481531Y0043888D01*
X0481531Y0045487D02*
X0872400Y0045487D01*
X0872400Y0047085D02*
X0481531Y0047085D01*
X0481531Y0048684D02*
X0872400Y0048684D01*
X0872400Y0050283D02*
X0481531Y0050283D01*
X0481531Y0051881D02*
X0872400Y0051881D01*
X0872400Y0053480D02*
X0481531Y0053480D01*
X0481531Y0055078D02*
X0872400Y0055078D01*
X0872400Y0056677D02*
X0481531Y0056677D01*
X0481531Y0058275D02*
X0872400Y0058275D01*
X0872400Y0059874D02*
X0806043Y0059874D01*
X0805380Y0059491D02*
X0808025Y0061018D01*
X0810185Y0063177D01*
X0811712Y0065823D01*
X0812502Y0068773D01*
X0812502Y0071827D01*
X0811712Y0074777D01*
X0810185Y0077423D01*
X0808025Y0079582D01*
X0805380Y0081109D01*
X0802429Y0081900D01*
X0799375Y0081900D01*
X0796425Y0081109D01*
X0793780Y0079582D01*
X0791620Y0077423D01*
X0790093Y0074777D01*
X0789302Y0071827D01*
X0789302Y0068773D01*
X0790093Y0065823D01*
X0791620Y0063177D01*
X0793780Y0061018D01*
X0796425Y0059491D01*
X0799375Y0058700D01*
X0802429Y0058700D01*
X0805380Y0059491D01*
X0808479Y0061472D02*
X0872400Y0061472D01*
X0872400Y0063071D02*
X0810078Y0063071D01*
X0811046Y0064669D02*
X0872400Y0064669D01*
X0872400Y0066268D02*
X0811831Y0066268D01*
X0812259Y0067866D02*
X0872400Y0067866D01*
X0872400Y0069465D02*
X0812502Y0069465D01*
X0812502Y0071063D02*
X0872400Y0071063D01*
X0872400Y0072662D02*
X0812279Y0072662D01*
X0811850Y0074260D02*
X0872400Y0074260D01*
X0872400Y0075859D02*
X0811087Y0075859D01*
X0810150Y0077457D02*
X0872400Y0077457D01*
X0872400Y0079056D02*
X0808551Y0079056D01*
X0806168Y0080654D02*
X0872400Y0080654D01*
X0872400Y0082253D02*
X0777103Y0082253D01*
X0776102Y0081252D02*
X0781306Y0086455D01*
X0824096Y0086455D01*
X0824978Y0086820D01*
X0844663Y0106506D01*
X0845338Y0107181D01*
X0845704Y0108063D01*
X0845704Y0179475D01*
X0850793Y0184564D01*
X0851351Y0184006D01*
X0853103Y0183280D01*
X0855000Y0183280D01*
X0856753Y0184006D01*
X0858094Y0185348D01*
X0858820Y0187100D01*
X0858820Y0195334D01*
X0858094Y0197087D01*
X0856753Y0198428D01*
X0856452Y0198553D01*
X0856452Y0212782D01*
X0864348Y0220679D01*
X0865023Y0221354D01*
X0865389Y0222236D01*
X0865389Y0238939D01*
X0865023Y0239821D01*
X0864348Y0240496D01*
X0840726Y0264118D01*
X0839844Y0264483D01*
X0784657Y0264483D01*
X0778581Y0270559D01*
X0778581Y0273954D01*
X0775769Y0276765D01*
X0771793Y0276765D01*
X0768981Y0273954D01*
X0768981Y0269977D01*
X0771793Y0267165D01*
X0775187Y0267165D01*
X0781628Y0260724D01*
X0781806Y0260546D01*
X0777794Y0260546D01*
X0770285Y0268055D01*
X0767781Y0270559D01*
X0767781Y0273954D01*
X0764969Y0276765D01*
X0760993Y0276765D01*
X0758181Y0273954D01*
X0758181Y0269977D01*
X0760993Y0267165D01*
X0764387Y0267165D01*
X0766891Y0264661D01*
X0774943Y0256609D01*
X0770831Y0256609D01*
X0756881Y0270559D01*
X0756881Y0273954D01*
X0754069Y0276765D01*
X0750093Y0276765D01*
X0747281Y0273954D01*
X0747281Y0269977D01*
X0750093Y0267165D01*
X0753487Y0267165D01*
X0767802Y0252850D01*
X0767980Y0252672D01*
X0763868Y0252672D01*
X0745981Y0270559D01*
X0745981Y0273954D01*
X0743169Y0276765D01*
X0739193Y0276765D01*
X0736381Y0273954D01*
X0736381Y0269977D01*
X0739193Y0267165D01*
X0742587Y0267165D01*
X0761017Y0248735D01*
X0757005Y0248735D01*
X0735181Y0270559D01*
X0735181Y0273954D01*
X0732369Y0276765D01*
X0728393Y0276765D01*
X0725581Y0273954D01*
X0725581Y0269977D01*
X0728393Y0267165D01*
X0731787Y0267165D01*
X0753976Y0244976D01*
X0754154Y0244798D01*
X0750042Y0244798D01*
X0724281Y0270559D01*
X0724281Y0273954D01*
X0721469Y0276765D01*
X0717493Y0276765D01*
X0714681Y0273954D01*
X0714681Y0269977D01*
X0717493Y0267165D01*
X0720887Y0267165D01*
X0747013Y0241039D01*
X0747688Y0240364D01*
X0748570Y0239998D01*
X0767507Y0239998D01*
X0771204Y0236301D01*
X0770543Y0234704D01*
X0770543Y0229213D01*
X0747279Y0205948D01*
X0747279Y0236145D01*
X0746913Y0237027D01*
X0746238Y0237702D01*
X0713381Y0270559D01*
X0713381Y0273954D01*
X0710569Y0276765D01*
X0706593Y0276765D01*
X0703781Y0273954D01*
X0703781Y0269977D01*
X0706593Y0267165D01*
X0709987Y0267165D01*
X0742479Y0234674D01*
X0742479Y0201148D01*
X0739201Y0197870D01*
X0738643Y0198428D01*
X0736890Y0199154D01*
X0734993Y0199154D01*
X0733240Y0198428D01*
X0731899Y0197087D01*
X0731173Y0195334D01*
X0731173Y0189843D01*
X0711348Y0170018D01*
X0710983Y0169136D01*
X0710983Y0109534D01*
X0707909Y0106460D01*
X0707909Y0182349D01*
X0732459Y0206899D01*
X0737976Y0212417D01*
X0738342Y0213299D01*
X0738342Y0223252D01*
X0738643Y0223376D01*
X0739984Y0224718D01*
X0740710Y0226470D01*
X0740710Y0234704D01*
X0739984Y0236457D01*
X0738643Y0237798D01*
X0736890Y0238524D01*
X0734993Y0238524D01*
X0733240Y0237798D01*
X0732683Y0237241D01*
X0701213Y0268710D01*
X0702481Y0269977D01*
X0702481Y0273954D01*
X0699669Y0276765D01*
X0695693Y0276765D01*
X0692881Y0273954D01*
X0692881Y0269977D01*
X0695693Y0267165D01*
X0695970Y0267165D01*
X0731173Y0231962D01*
X0731173Y0226470D01*
X0731899Y0224718D01*
X0733240Y0223376D01*
X0733542Y0223252D01*
X0733542Y0214770D01*
X0729064Y0210293D01*
X0703474Y0184703D01*
X0703109Y0183821D01*
X0703109Y0105597D01*
X0695568Y0098056D01*
X0695202Y0097174D01*
X0695202Y0079688D01*
X0692802Y0077288D01*
X0692802Y0073312D01*
X0695614Y0070500D01*
X0699590Y0070500D01*
X0702402Y0073312D01*
X0702402Y0077288D01*
X0700002Y0079688D01*
X0700002Y0095703D01*
X0706102Y0101803D01*
X0706102Y0079688D01*
X0703702Y0077288D01*
X0703702Y0073312D01*
X0706514Y0070500D01*
X0710490Y0070500D01*
X0713302Y0073312D01*
X0713302Y0077288D01*
X0710902Y0079688D01*
X0710902Y0102666D01*
X0714742Y0106506D01*
X0715417Y0107181D01*
X0715783Y0108063D01*
X0715783Y0167664D01*
X0732683Y0184564D01*
X0733240Y0184006D01*
X0734993Y0183280D01*
X0736890Y0183280D01*
X0738643Y0184006D01*
X0739984Y0185348D01*
X0740710Y0187100D01*
X0740710Y0192592D01*
X0746238Y0198120D01*
X0746416Y0198297D01*
X0746416Y0156778D01*
X0717368Y0127730D01*
X0717002Y0126848D01*
X0717002Y0079688D01*
X0714602Y0077288D01*
X0714602Y0073312D01*
X0717414Y0070500D01*
X0721390Y0070500D01*
X0724202Y0073312D01*
X0724202Y0077288D01*
X0721802Y0079688D01*
X0721802Y0125377D01*
X0750175Y0153750D01*
X0750850Y0154425D01*
X0751216Y0155307D01*
X0751216Y0203097D01*
X0772053Y0223934D01*
X0772611Y0223376D01*
X0774363Y0222650D01*
X0776260Y0222650D01*
X0777275Y0223071D01*
X0773277Y0219073D01*
X0772912Y0218191D01*
X0772912Y0198553D01*
X0772611Y0198428D01*
X0771269Y0197087D01*
X0770543Y0195334D01*
X0770543Y0189843D01*
X0754655Y0173955D01*
X0754290Y0173073D01*
X0754290Y0109534D01*
X0728168Y0083412D01*
X0727802Y0082530D01*
X0727802Y0079688D01*
X0725402Y0077288D01*
X0725402Y0073312D01*
X0728214Y0070500D01*
X0732190Y0070500D01*
X0735002Y0073312D01*
X0735002Y0077288D01*
X0732602Y0079688D01*
X0732602Y0081059D01*
X0758049Y0106506D01*
X0758724Y0107181D01*
X0759090Y0108063D01*
X0759090Y0171601D01*
X0772053Y0184564D01*
X0772611Y0184006D01*
X0774363Y0183280D01*
X0776260Y0183280D01*
X0778013Y0184006D01*
X0779354Y0185348D01*
X0780080Y0187100D01*
X0780080Y0195334D01*
X0779354Y0197087D01*
X0778013Y0198428D01*
X0777712Y0198553D01*
X0777712Y0216719D01*
X0785608Y0224616D01*
X0786283Y0225291D01*
X0786649Y0226173D01*
X0786649Y0235002D01*
X0786283Y0235884D01*
X0782346Y0239821D01*
X0774295Y0247872D01*
X0794003Y0247872D01*
X0809913Y0231962D01*
X0809913Y0229213D01*
X0782214Y0201514D01*
X0781849Y0200632D01*
X0781849Y0129219D01*
X0739068Y0086438D01*
X0738702Y0085556D01*
X0738702Y0079688D01*
X0736302Y0077288D01*
X0736302Y0073312D01*
X0739114Y0070500D01*
X0743090Y0070500D01*
X0745902Y0073312D01*
X0745902Y0077288D01*
X0743502Y0079688D01*
X0743502Y0084085D01*
X0785608Y0126191D01*
X0786283Y0126866D01*
X0786649Y0127748D01*
X0786649Y0199160D01*
X0811423Y0223934D01*
X0811981Y0223376D01*
X0813733Y0222650D01*
X0815630Y0222650D01*
X0816645Y0223071D01*
X0812647Y0219073D01*
X0812282Y0218191D01*
X0812282Y0198553D01*
X0811981Y0198428D01*
X0810639Y0197087D01*
X0809913Y0195334D01*
X0809913Y0187100D01*
X0810639Y0185348D01*
X0811981Y0184006D01*
X0812282Y0183882D01*
X0812282Y0179337D01*
X0794700Y0161756D01*
X0794025Y0161081D01*
X0793660Y0160199D01*
X0793660Y0133156D01*
X0751393Y0090890D01*
X0749968Y0089464D01*
X0749602Y0088582D01*
X0749602Y0079688D01*
X0747202Y0077288D01*
X0747202Y0073312D01*
X0750014Y0070500D01*
X0753990Y0070500D01*
X0756802Y0073312D01*
X0756802Y0077288D01*
X0754402Y0079688D01*
X0754402Y0087111D01*
X0754787Y0087496D01*
X0798094Y0130803D01*
X0798460Y0131685D01*
X0798460Y0158727D01*
X0816716Y0176984D01*
X0817082Y0177866D01*
X0817082Y0183882D01*
X0817383Y0184006D01*
X0818724Y0185348D01*
X0819450Y0187100D01*
X0819450Y0195334D01*
X0818724Y0197087D01*
X0817383Y0198428D01*
X0817082Y0198553D01*
X0817082Y0216719D01*
X0824978Y0224616D01*
X0825653Y0225291D01*
X0826019Y0226173D01*
X0826019Y0235002D01*
X0825653Y0235884D01*
X0817779Y0243758D01*
X0805968Y0255569D01*
X0805791Y0255746D01*
X0834436Y0255746D01*
X0851652Y0238530D01*
X0851652Y0237923D01*
X0851351Y0237798D01*
X0850009Y0236457D01*
X0849283Y0234704D01*
X0849283Y0229213D01*
X0821584Y0201514D01*
X0821219Y0200632D01*
X0821219Y0125282D01*
X0791129Y0095192D01*
X0771960Y0095192D01*
X0771078Y0094827D01*
X0770403Y0094152D01*
X0760768Y0084516D01*
X0760402Y0083634D01*
X0760402Y0079688D01*
X0758002Y0077288D01*
X0758002Y0073312D01*
X0760814Y0070500D01*
X0764790Y0070500D01*
X0767602Y0073312D01*
X0767602Y0077288D01*
X0765202Y0079688D01*
X0765202Y0082163D01*
X0773432Y0090392D01*
X0778455Y0090392D01*
X0778277Y0090215D01*
X0771668Y0083605D01*
X0771302Y0082723D01*
X0771302Y0079688D01*
X0768902Y0077288D01*
X0768902Y0073312D01*
X0771714Y0070500D01*
X0775690Y0070500D01*
X0778502Y0073312D01*
X0778502Y0077288D01*
X0776102Y0079688D01*
X0776102Y0081252D01*
X0776102Y0080654D02*
X0795636Y0080654D01*
X0793253Y0079056D02*
X0776735Y0079056D01*
X0778333Y0077457D02*
X0791655Y0077457D01*
X0790717Y0075859D02*
X0778502Y0075859D01*
X0778502Y0074260D02*
X0789954Y0074260D01*
X0789526Y0072662D02*
X0777852Y0072662D01*
X0776254Y0071063D02*
X0789302Y0071063D01*
X0789302Y0069465D02*
X0770926Y0069465D01*
X0770290Y0070100D02*
X0766314Y0070100D01*
X0763502Y0067288D01*
X0763502Y0063312D01*
X0766314Y0060500D01*
X0770290Y0060500D01*
X0773102Y0063312D01*
X0773102Y0067288D01*
X0770290Y0070100D01*
X0771151Y0071063D02*
X0765354Y0071063D01*
X0765679Y0069465D02*
X0760026Y0069465D01*
X0759390Y0070100D02*
X0755414Y0070100D01*
X0752602Y0067288D01*
X0752602Y0063312D01*
X0755414Y0060500D01*
X0759390Y0060500D01*
X0762202Y0063312D01*
X0762202Y0067288D01*
X0759390Y0070100D01*
X0760251Y0071063D02*
X0754554Y0071063D01*
X0754779Y0069465D02*
X0749126Y0069465D01*
X0748490Y0070100D02*
X0744514Y0070100D01*
X0741702Y0067288D01*
X0741702Y0063312D01*
X0744514Y0060500D01*
X0748490Y0060500D01*
X0751302Y0063312D01*
X0751302Y0067288D01*
X0748490Y0070100D01*
X0749451Y0071063D02*
X0743654Y0071063D01*
X0743879Y0069465D02*
X0738326Y0069465D01*
X0737690Y0070100D02*
X0733714Y0070100D01*
X0730902Y0067288D01*
X0730902Y0063312D01*
X0733714Y0060500D01*
X0737690Y0060500D01*
X0740502Y0063312D01*
X0740502Y0067288D01*
X0737690Y0070100D01*
X0738551Y0071063D02*
X0732754Y0071063D01*
X0733079Y0069465D02*
X0727426Y0069465D01*
X0726790Y0070100D02*
X0722814Y0070100D01*
X0720002Y0067288D01*
X0720002Y0063312D01*
X0722814Y0060500D01*
X0726790Y0060500D01*
X0729602Y0063312D01*
X0729602Y0067288D01*
X0726790Y0070100D01*
X0727651Y0071063D02*
X0721954Y0071063D01*
X0722179Y0069465D02*
X0716526Y0069465D01*
X0715890Y0070100D02*
X0711914Y0070100D01*
X0709102Y0067288D01*
X0709102Y0063312D01*
X0711914Y0060500D01*
X0715890Y0060500D01*
X0718702Y0063312D01*
X0718702Y0067288D01*
X0715890Y0070100D01*
X0716851Y0071063D02*
X0711054Y0071063D01*
X0711279Y0069465D02*
X0705726Y0069465D01*
X0705090Y0070100D02*
X0701114Y0070100D01*
X0698302Y0067288D01*
X0698302Y0063312D01*
X0701114Y0060500D01*
X0705090Y0060500D01*
X0707902Y0063312D01*
X0707902Y0067288D01*
X0705090Y0070100D01*
X0705951Y0071063D02*
X0700154Y0071063D01*
X0700479Y0069465D02*
X0694826Y0069465D01*
X0694190Y0070100D02*
X0690214Y0070100D01*
X0687402Y0067288D01*
X0687402Y0063312D01*
X0690214Y0060500D01*
X0694190Y0060500D01*
X0697002Y0063312D01*
X0697002Y0067288D01*
X0694190Y0070100D01*
X0695051Y0071063D02*
X0689354Y0071063D01*
X0688790Y0070500D02*
X0691602Y0073312D01*
X0691602Y0077288D01*
X0689202Y0079688D01*
X0689202Y0124273D01*
X0691120Y0126191D01*
X0693764Y0128834D01*
X0698606Y0133677D01*
X0698972Y0134559D01*
X0698972Y0183882D01*
X0699273Y0184006D01*
X0700614Y0185348D01*
X0701340Y0187100D01*
X0701340Y0192592D01*
X0702931Y0194183D01*
X0703606Y0194858D01*
X0703972Y0195740D01*
X0703972Y0246813D01*
X0703606Y0247695D01*
X0689281Y0262020D01*
X0689281Y0267577D01*
X0691681Y0269977D01*
X0691681Y0273954D01*
X0688869Y0276765D01*
X0684893Y0276765D01*
X0682081Y0273954D01*
X0682081Y0269977D01*
X0684481Y0267577D01*
X0684481Y0260549D01*
X0684846Y0259666D01*
X0685521Y0258991D01*
X0699172Y0245341D01*
X0699172Y0237840D01*
X0698972Y0237923D01*
X0698972Y0240002D01*
X0698606Y0240884D01*
X0679984Y0259506D01*
X0678381Y0261109D01*
X0678381Y0267577D01*
X0680781Y0269977D01*
X0680781Y0273954D01*
X0677969Y0276765D01*
X0673993Y0276765D01*
X0671181Y0273954D01*
X0671181Y0269977D01*
X0673581Y0267577D01*
X0673581Y0259638D01*
X0673946Y0258755D01*
X0674621Y0258080D01*
X0676590Y0256112D01*
X0694172Y0238530D01*
X0694172Y0237923D01*
X0693870Y0237798D01*
X0692529Y0236457D01*
X0691803Y0234704D01*
X0691803Y0226470D01*
X0692529Y0224718D01*
X0693870Y0223376D01*
X0694172Y0223252D01*
X0694172Y0210833D01*
X0689694Y0206356D01*
X0683789Y0200451D01*
X0683423Y0199569D01*
X0683423Y0137093D01*
X0673868Y0127537D01*
X0673502Y0126655D01*
X0673502Y0079688D01*
X0671102Y0077288D01*
X0671102Y0073312D01*
X0673914Y0070500D01*
X0677890Y0070500D01*
X0680702Y0073312D01*
X0680702Y0077288D01*
X0678302Y0079688D01*
X0678302Y0125184D01*
X0687183Y0134065D01*
X0687858Y0134740D01*
X0688223Y0135622D01*
X0688223Y0198097D01*
X0693088Y0202962D01*
X0698606Y0208480D01*
X0698972Y0209362D01*
X0698972Y0223252D01*
X0699172Y0223334D01*
X0699172Y0198470D01*
X0697520Y0199154D01*
X0695623Y0199154D01*
X0693870Y0198428D01*
X0692529Y0197087D01*
X0691803Y0195334D01*
X0691803Y0187100D01*
X0692529Y0185348D01*
X0693870Y0184006D01*
X0694172Y0183882D01*
X0694172Y0136030D01*
X0690370Y0132228D01*
X0687726Y0129585D01*
X0687726Y0129585D01*
X0685443Y0127302D01*
X0684768Y0126626D01*
X0684402Y0125744D01*
X0684402Y0079688D01*
X0682002Y0077288D01*
X0682002Y0073312D01*
X0684814Y0070500D01*
X0688790Y0070500D01*
X0689579Y0069465D02*
X0683926Y0069465D01*
X0683290Y0070100D02*
X0686102Y0067288D01*
X0686102Y0063312D01*
X0683290Y0060500D01*
X0679314Y0060500D01*
X0676502Y0063312D01*
X0676502Y0067288D01*
X0679314Y0070100D01*
X0683290Y0070100D01*
X0684251Y0071063D02*
X0678454Y0071063D01*
X0678679Y0069465D02*
X0673126Y0069465D01*
X0672490Y0070100D02*
X0668514Y0070100D01*
X0665702Y0067288D01*
X0665702Y0063312D01*
X0668514Y0060500D01*
X0672490Y0060500D01*
X0675302Y0063312D01*
X0675302Y0067288D01*
X0672490Y0070100D01*
X0673351Y0071063D02*
X0667554Y0071063D01*
X0666990Y0070500D02*
X0669802Y0073312D01*
X0669802Y0077288D01*
X0667402Y0079688D01*
X0667402Y0129839D01*
X0667037Y0130721D01*
X0664236Y0133522D01*
X0659601Y0138156D01*
X0659601Y0183882D01*
X0659903Y0184006D01*
X0661244Y0185348D01*
X0661970Y0187100D01*
X0661970Y0192592D01*
X0666440Y0197062D01*
X0667116Y0197737D01*
X0667481Y0198619D01*
X0667481Y0267577D01*
X0669881Y0269977D01*
X0669881Y0273954D01*
X0667069Y0276765D01*
X0663093Y0276765D01*
X0660281Y0273954D01*
X0660281Y0269977D01*
X0662681Y0267577D01*
X0662681Y0200091D01*
X0660460Y0197870D01*
X0659903Y0198428D01*
X0658150Y0199154D01*
X0656253Y0199154D01*
X0654500Y0198428D01*
X0653159Y0197087D01*
X0652790Y0196197D01*
X0652790Y0198097D01*
X0659236Y0204543D01*
X0659601Y0205425D01*
X0659601Y0223252D01*
X0659903Y0223376D01*
X0661244Y0224718D01*
X0661970Y0226470D01*
X0661970Y0234704D01*
X0661244Y0236457D01*
X0659903Y0237798D01*
X0658150Y0238524D01*
X0656681Y0238524D01*
X0656681Y0267577D01*
X0659081Y0269977D01*
X0659081Y0273954D01*
X0656269Y0276765D01*
X0652293Y0276765D01*
X0649481Y0273954D01*
X0649481Y0269977D01*
X0651881Y0267577D01*
X0651881Y0233030D01*
X0652246Y0232148D01*
X0652433Y0231962D01*
X0652433Y0226470D01*
X0653159Y0224718D01*
X0654500Y0223376D01*
X0654801Y0223252D01*
X0654801Y0206896D01*
X0649031Y0201126D01*
X0648356Y0200451D01*
X0647990Y0199569D01*
X0647990Y0096252D01*
X0648356Y0095370D01*
X0651927Y0091798D01*
X0651927Y0079813D01*
X0649402Y0077288D01*
X0649402Y0073312D01*
X0652214Y0070500D01*
X0656190Y0070500D01*
X0659002Y0073312D01*
X0659002Y0077288D01*
X0656727Y0079563D01*
X0656727Y0093270D01*
X0656362Y0094152D01*
X0655687Y0094827D01*
X0652790Y0097723D01*
X0652790Y0107497D01*
X0653159Y0106608D01*
X0654500Y0105266D01*
X0656253Y0104540D01*
X0658150Y0104540D01*
X0659903Y0105266D01*
X0661244Y0106608D01*
X0661970Y0108360D01*
X0661970Y0116594D01*
X0661244Y0118347D01*
X0659903Y0119688D01*
X0658150Y0120414D01*
X0656253Y0120414D01*
X0654500Y0119688D01*
X0653159Y0118347D01*
X0652790Y0117457D01*
X0652790Y0186237D01*
X0653159Y0185348D01*
X0654500Y0184006D01*
X0654801Y0183882D01*
X0654801Y0136685D01*
X0655167Y0135803D01*
X0660842Y0130128D01*
X0662602Y0128367D01*
X0662602Y0079688D01*
X0660202Y0077288D01*
X0660202Y0073312D01*
X0663014Y0070500D01*
X0666990Y0070500D01*
X0667879Y0069465D02*
X0662226Y0069465D01*
X0661590Y0070100D02*
X0657614Y0070100D01*
X0654802Y0067288D01*
X0654802Y0063312D01*
X0657614Y0060500D01*
X0661590Y0060500D01*
X0664402Y0063312D01*
X0664402Y0067288D01*
X0661590Y0070100D01*
X0662451Y0071063D02*
X0656754Y0071063D01*
X0656979Y0069465D02*
X0651326Y0069465D01*
X0650690Y0070100D02*
X0646714Y0070100D01*
X0643902Y0067288D01*
X0643902Y0063312D01*
X0646714Y0060500D01*
X0650690Y0060500D01*
X0653502Y0063312D01*
X0653502Y0067288D01*
X0650690Y0070100D01*
X0651651Y0071063D02*
X0645854Y0071063D01*
X0645290Y0070500D02*
X0648102Y0073312D01*
X0648102Y0077288D01*
X0645702Y0079688D01*
X0645702Y0104295D01*
X0645337Y0105177D01*
X0633105Y0117408D01*
X0633105Y0146867D01*
X0633474Y0145978D01*
X0634815Y0144636D01*
X0636568Y0143910D01*
X0638465Y0143910D01*
X0640218Y0144636D01*
X0641559Y0145978D01*
X0642285Y0147730D01*
X0642285Y0155964D01*
X0641559Y0157717D01*
X0640218Y0159058D01*
X0638465Y0159784D01*
X0636568Y0159784D01*
X0634815Y0159058D01*
X0633474Y0157717D01*
X0633105Y0156827D01*
X0633105Y0178821D01*
X0632740Y0179703D01*
X0622600Y0189843D01*
X0622600Y0192592D01*
X0628128Y0198120D01*
X0628803Y0198795D01*
X0629168Y0199677D01*
X0629168Y0253215D01*
X0643118Y0267165D01*
X0645369Y0267165D01*
X0648181Y0269977D01*
X0648181Y0273954D01*
X0645369Y0276765D01*
X0641393Y0276765D01*
X0638581Y0273954D01*
X0638581Y0269977D01*
X0638861Y0269697D01*
X0624734Y0255569D01*
X0624368Y0254687D01*
X0624368Y0201148D01*
X0621090Y0197870D01*
X0620532Y0198428D01*
X0618780Y0199154D01*
X0616883Y0199154D01*
X0615130Y0198428D01*
X0613789Y0197087D01*
X0613420Y0196197D01*
X0613420Y0198097D01*
X0619866Y0204543D01*
X0620231Y0205425D01*
X0620231Y0223252D01*
X0620532Y0223376D01*
X0621874Y0224718D01*
X0622600Y0226470D01*
X0622600Y0234704D01*
X0621874Y0236457D01*
X0620532Y0237798D01*
X0620231Y0237923D01*
X0620231Y0256322D01*
X0631075Y0267165D01*
X0634469Y0267165D01*
X0637281Y0269977D01*
X0637281Y0273954D01*
X0634469Y0276765D01*
X0630493Y0276765D01*
X0627681Y0273954D01*
X0627681Y0270559D01*
X0615797Y0258675D01*
X0615431Y0257793D01*
X0615431Y0237923D01*
X0615130Y0237798D01*
X0613789Y0236457D01*
X0613063Y0234704D01*
X0613063Y0226470D01*
X0613789Y0224718D01*
X0615130Y0223376D01*
X0615431Y0223252D01*
X0615431Y0206896D01*
X0609661Y0201126D01*
X0608986Y0200451D01*
X0608620Y0199569D01*
X0608620Y0143496D01*
X0608986Y0142614D01*
X0624368Y0127231D01*
X0624368Y0104126D01*
X0624734Y0103244D01*
X0626702Y0101275D01*
X0630002Y0097975D01*
X0630002Y0079688D01*
X0627602Y0077288D01*
X0627602Y0073312D01*
X0630414Y0070500D01*
X0634390Y0070500D01*
X0637202Y0073312D01*
X0637202Y0077288D01*
X0634802Y0079688D01*
X0634802Y0099447D01*
X0634437Y0100329D01*
X0630096Y0104669D01*
X0629168Y0105597D01*
X0629168Y0114557D01*
X0629346Y0114380D01*
X0640902Y0102823D01*
X0640902Y0079688D01*
X0638502Y0077288D01*
X0638502Y0073312D01*
X0641314Y0070500D01*
X0645290Y0070500D01*
X0646079Y0069465D02*
X0640526Y0069465D01*
X0639890Y0070100D02*
X0642702Y0067288D01*
X0642702Y0063312D01*
X0639890Y0060500D01*
X0635914Y0060500D01*
X0633102Y0063312D01*
X0633102Y0067288D01*
X0635914Y0070100D01*
X0639890Y0070100D01*
X0640751Y0071063D02*
X0634954Y0071063D01*
X0635279Y0069465D02*
X0629626Y0069465D01*
X0628990Y0070100D02*
X0625014Y0070100D01*
X0622202Y0067288D01*
X0622202Y0063312D01*
X0625014Y0060500D01*
X0628990Y0060500D01*
X0631802Y0063312D01*
X0631802Y0067288D01*
X0628990Y0070100D01*
X0629851Y0071063D02*
X0624054Y0071063D01*
X0623490Y0070500D02*
X0626302Y0073312D01*
X0626302Y0077288D01*
X0623902Y0079688D01*
X0623902Y0090662D01*
X0623537Y0091544D01*
X0616992Y0098089D01*
X0609118Y0105963D01*
X0580861Y0134219D01*
X0580861Y0183882D01*
X0581162Y0184006D01*
X0582504Y0185348D01*
X0583230Y0187100D01*
X0583230Y0192592D01*
X0588758Y0198120D01*
X0589433Y0198795D01*
X0589798Y0199677D01*
X0589798Y0236689D01*
X0620275Y0267165D01*
X0623669Y0267165D01*
X0626481Y0269977D01*
X0626481Y0273954D01*
X0623669Y0276765D01*
X0619693Y0276765D01*
X0616881Y0273954D01*
X0616881Y0270559D01*
X0586039Y0239717D01*
X0585364Y0239042D01*
X0584998Y0238160D01*
X0584998Y0201148D01*
X0581720Y0197870D01*
X0581162Y0198428D01*
X0579410Y0199154D01*
X0577513Y0199154D01*
X0575760Y0198428D01*
X0574419Y0197087D01*
X0574050Y0196197D01*
X0574050Y0198097D01*
X0579821Y0203868D01*
X0580496Y0204543D01*
X0580861Y0205425D01*
X0580861Y0223252D01*
X0581162Y0223376D01*
X0582504Y0224718D01*
X0583230Y0226470D01*
X0583230Y0234704D01*
X0582504Y0236457D01*
X0581162Y0237798D01*
X0580861Y0237923D01*
X0580861Y0238652D01*
X0586511Y0244301D01*
X0588309Y0246100D01*
X0609375Y0267165D01*
X0612769Y0267165D01*
X0615581Y0269977D01*
X0615581Y0273954D01*
X0612769Y0276765D01*
X0608793Y0276765D01*
X0605981Y0273954D01*
X0605981Y0270559D01*
X0584915Y0249494D01*
X0583116Y0247695D01*
X0576427Y0241005D01*
X0576061Y0240123D01*
X0576061Y0237923D01*
X0575760Y0237798D01*
X0574419Y0236457D01*
X0573693Y0234704D01*
X0573693Y0226470D01*
X0574419Y0224718D01*
X0575760Y0223376D01*
X0576061Y0223252D01*
X0576061Y0206896D01*
X0570291Y0201126D01*
X0570291Y0201126D01*
X0569616Y0200451D01*
X0569250Y0199569D01*
X0569250Y0131685D01*
X0569616Y0130803D01*
X0580425Y0119994D01*
X0579410Y0120414D01*
X0577513Y0120414D01*
X0575760Y0119688D01*
X0574419Y0118347D01*
X0573693Y0116594D01*
X0573693Y0108360D01*
X0574419Y0106608D01*
X0575760Y0105266D01*
X0577513Y0104540D01*
X0579410Y0104540D01*
X0581162Y0105266D01*
X0582504Y0106608D01*
X0583230Y0108360D01*
X0583230Y0116594D01*
X0582809Y0117609D01*
X0589301Y0111118D01*
X0589301Y0111118D01*
X0608302Y0092116D01*
X0608302Y0079688D01*
X0605902Y0077288D01*
X0605902Y0073312D01*
X0608714Y0070500D01*
X0612690Y0070500D01*
X0615502Y0073312D01*
X0615502Y0077288D01*
X0613102Y0079688D01*
X0613102Y0093588D01*
X0612737Y0094470D01*
X0592695Y0114512D01*
X0592695Y0114512D01*
X0574050Y0133156D01*
X0574050Y0186237D01*
X0574419Y0185348D01*
X0575760Y0184006D01*
X0576061Y0183882D01*
X0576061Y0132748D01*
X0576427Y0131866D01*
X0605724Y0102569D01*
X0613598Y0094695D01*
X0619102Y0089190D01*
X0619102Y0079688D01*
X0616702Y0077288D01*
X0616702Y0073312D01*
X0619514Y0070500D01*
X0623490Y0070500D01*
X0624379Y0069465D02*
X0618726Y0069465D01*
X0618090Y0070100D02*
X0614114Y0070100D01*
X0611302Y0067288D01*
X0611302Y0063312D01*
X0614114Y0060500D01*
X0618090Y0060500D01*
X0620902Y0063312D01*
X0620902Y0067288D01*
X0618090Y0070100D01*
X0618951Y0071063D02*
X0613254Y0071063D01*
X0613479Y0069465D02*
X0607826Y0069465D01*
X0607190Y0070100D02*
X0603214Y0070100D01*
X0600402Y0067288D01*
X0600402Y0063312D01*
X0603214Y0060500D01*
X0607190Y0060500D01*
X0610002Y0063312D01*
X0610002Y0067288D01*
X0607190Y0070100D01*
X0608151Y0071063D02*
X0602354Y0071063D01*
X0601790Y0070500D02*
X0604602Y0073312D01*
X0604602Y0077288D01*
X0601790Y0080100D01*
X0599548Y0080100D01*
X0581559Y0098089D01*
X0546126Y0133522D01*
X0541491Y0138156D01*
X0541491Y0183882D01*
X0541792Y0184006D01*
X0543134Y0185348D01*
X0543860Y0187100D01*
X0543860Y0192592D01*
X0549388Y0198120D01*
X0550063Y0198795D01*
X0550428Y0199677D01*
X0550428Y0217111D01*
X0582231Y0248913D01*
X0600483Y0267165D01*
X0601869Y0267165D01*
X0604681Y0269977D01*
X0604681Y0273954D01*
X0601869Y0276765D01*
X0597893Y0276765D01*
X0595081Y0273954D01*
X0595081Y0269977D01*
X0595794Y0269264D01*
X0578836Y0252307D01*
X0545994Y0219464D01*
X0545628Y0218582D01*
X0545628Y0201148D01*
X0542350Y0197870D01*
X0541792Y0198428D01*
X0540040Y0199154D01*
X0538143Y0199154D01*
X0536390Y0198428D01*
X0535049Y0197087D01*
X0534323Y0195334D01*
X0534323Y0187100D01*
X0535049Y0185348D01*
X0536390Y0184006D01*
X0536691Y0183882D01*
X0536691Y0136685D01*
X0537057Y0135803D01*
X0542732Y0130128D01*
X0578165Y0094695D01*
X0595287Y0077573D01*
X0595002Y0077288D01*
X0595002Y0073312D01*
X0597814Y0070500D01*
X0601790Y0070500D01*
X0602579Y0069465D02*
X0597026Y0069465D01*
X0596390Y0070100D02*
X0592414Y0070100D01*
X0589602Y0067288D01*
X0589602Y0063312D01*
X0592414Y0060500D01*
X0596390Y0060500D01*
X0599202Y0063312D01*
X0599202Y0067288D01*
X0596390Y0070100D01*
X0597251Y0071063D02*
X0591454Y0071063D01*
X0590890Y0070500D02*
X0593702Y0073312D01*
X0593702Y0077288D01*
X0590890Y0080100D01*
X0587736Y0080100D01*
X0571041Y0096795D01*
X0530743Y0137093D01*
X0530743Y0205971D01*
X0541126Y0216354D01*
X0541491Y0217236D01*
X0541491Y0223252D01*
X0541792Y0223376D01*
X0543134Y0224718D01*
X0543860Y0226470D01*
X0543860Y0231962D01*
X0563707Y0251809D01*
X0577747Y0251809D01*
X0578629Y0252175D01*
X0579305Y0252850D01*
X0591116Y0264661D01*
X0591481Y0265543D01*
X0591481Y0267577D01*
X0593881Y0269977D01*
X0593881Y0273954D01*
X0591069Y0276765D01*
X0587093Y0276765D01*
X0584281Y0273954D01*
X0584281Y0269977D01*
X0586681Y0267577D01*
X0586681Y0267015D01*
X0576276Y0256609D01*
X0573507Y0256609D01*
X0573685Y0256787D01*
X0580216Y0263318D01*
X0580581Y0264200D01*
X0580581Y0267577D01*
X0582981Y0269977D01*
X0582981Y0273954D01*
X0580169Y0276765D01*
X0576193Y0276765D01*
X0573381Y0273954D01*
X0573381Y0269977D01*
X0575781Y0267577D01*
X0575781Y0265671D01*
X0570656Y0260546D01*
X0531803Y0260546D01*
X0530921Y0260181D01*
X0507299Y0236559D01*
X0497687Y0226947D01*
X0497321Y0226065D01*
X0497321Y0198553D01*
X0497020Y0198428D01*
X0495679Y0197087D01*
X0494953Y0195334D01*
X0494953Y0187100D01*
X0495679Y0185348D01*
X0497020Y0184006D01*
X0497321Y0183882D01*
X0497321Y0128811D01*
X0497687Y0127929D01*
X0501393Y0124222D01*
X0534183Y0091433D01*
X0534183Y0091433D01*
X0538795Y0086820D01*
X0539677Y0086455D01*
X0562782Y0086455D01*
X0573302Y0075935D01*
X0573302Y0073312D01*
X0576114Y0070500D01*
X0580090Y0070500D01*
X0582902Y0073312D01*
X0582902Y0077288D01*
X0580090Y0080100D01*
X0576114Y0080100D01*
X0576020Y0080006D01*
X0565811Y0090215D01*
X0565136Y0090890D01*
X0564254Y0091255D01*
X0541148Y0091255D01*
X0537577Y0094827D01*
X0537577Y0094827D01*
X0504787Y0127616D01*
X0502121Y0130282D01*
X0502121Y0183882D01*
X0502422Y0184006D01*
X0503764Y0185348D01*
X0504490Y0187100D01*
X0504490Y0195334D01*
X0503764Y0197087D01*
X0502422Y0198428D01*
X0502121Y0198553D01*
X0502121Y0224593D01*
X0510693Y0233165D01*
X0533274Y0255746D01*
X0560856Y0255746D01*
X0560679Y0255569D01*
X0542350Y0237241D01*
X0541792Y0237798D01*
X0540040Y0238524D01*
X0538143Y0238524D01*
X0536390Y0237798D01*
X0535049Y0236457D01*
X0534323Y0234704D01*
X0534323Y0226470D01*
X0535049Y0224718D01*
X0536390Y0223376D01*
X0536691Y0223252D01*
X0536691Y0218707D01*
X0526984Y0209000D01*
X0526309Y0208325D01*
X0525943Y0207443D01*
X0525943Y0135622D01*
X0526309Y0134740D01*
X0541054Y0119994D01*
X0540040Y0120414D01*
X0538143Y0120414D01*
X0536390Y0119688D01*
X0535049Y0118347D01*
X0534323Y0116594D01*
X0534323Y0108360D01*
X0535049Y0106608D01*
X0536390Y0105266D01*
X0538143Y0104540D01*
X0540040Y0104540D01*
X0541792Y0105266D01*
X0543134Y0106608D01*
X0543860Y0108360D01*
X0543860Y0116594D01*
X0543439Y0117609D01*
X0567647Y0093401D01*
X0584102Y0076946D01*
X0584102Y0073312D01*
X0586914Y0070500D01*
X0590890Y0070500D01*
X0591779Y0069465D02*
X0586126Y0069465D01*
X0585490Y0070100D02*
X0581514Y0070100D01*
X0578702Y0067288D01*
X0578702Y0063312D01*
X0581514Y0060500D01*
X0585490Y0060500D01*
X0588302Y0063312D01*
X0588302Y0067288D01*
X0585490Y0070100D01*
X0586351Y0071063D02*
X0580654Y0071063D01*
X0580879Y0069465D02*
X0562502Y0069465D01*
X0562502Y0068773D02*
X0561712Y0065823D01*
X0560185Y0063177D01*
X0558025Y0061018D01*
X0555380Y0059491D01*
X0552429Y0058700D01*
X0549375Y0058700D01*
X0546425Y0059491D01*
X0543780Y0061018D01*
X0541620Y0063177D01*
X0540093Y0065823D01*
X0539302Y0068773D01*
X0539302Y0071827D01*
X0540093Y0074777D01*
X0541620Y0077423D01*
X0543780Y0079582D01*
X0546425Y0081109D01*
X0549375Y0081900D01*
X0552429Y0081900D01*
X0555380Y0081109D01*
X0558025Y0079582D01*
X0560185Y0077423D01*
X0561712Y0074777D01*
X0562502Y0071827D01*
X0562502Y0068773D01*
X0562259Y0067866D02*
X0579280Y0067866D01*
X0578702Y0066268D02*
X0561831Y0066268D01*
X0561046Y0064669D02*
X0578702Y0064669D01*
X0578943Y0063071D02*
X0560078Y0063071D01*
X0558479Y0061472D02*
X0580542Y0061472D01*
X0586463Y0061472D02*
X0591442Y0061472D01*
X0589843Y0063071D02*
X0588061Y0063071D01*
X0588302Y0064669D02*
X0589602Y0064669D01*
X0589602Y0066268D02*
X0588302Y0066268D01*
X0587724Y0067866D02*
X0590180Y0067866D01*
X0593052Y0072662D02*
X0595652Y0072662D01*
X0595002Y0074260D02*
X0593702Y0074260D01*
X0593702Y0075859D02*
X0595002Y0075859D01*
X0595171Y0077457D02*
X0593533Y0077457D01*
X0593804Y0079056D02*
X0591935Y0079056D01*
X0592205Y0080654D02*
X0587182Y0080654D01*
X0585584Y0082253D02*
X0590607Y0082253D01*
X0589008Y0083851D02*
X0583985Y0083851D01*
X0582387Y0085450D02*
X0587410Y0085450D01*
X0585811Y0087048D02*
X0580788Y0087048D01*
X0579190Y0088647D02*
X0584213Y0088647D01*
X0582614Y0090245D02*
X0577591Y0090245D01*
X0575993Y0091844D02*
X0581016Y0091844D01*
X0579417Y0093442D02*
X0574394Y0093442D01*
X0572796Y0095041D02*
X0577818Y0095041D01*
X0578165Y0094695D02*
X0578165Y0094695D01*
X0579524Y0096729D02*
X0599802Y0076451D01*
X0599802Y0075300D01*
X0602835Y0079056D02*
X0607670Y0079056D01*
X0608302Y0080654D02*
X0598993Y0080654D01*
X0597395Y0082253D02*
X0608302Y0082253D01*
X0608302Y0083851D02*
X0595796Y0083851D01*
X0594198Y0085450D02*
X0608302Y0085450D01*
X0608302Y0087048D02*
X0592599Y0087048D01*
X0591001Y0088647D02*
X0608302Y0088647D01*
X0608302Y0090245D02*
X0589402Y0090245D01*
X0587804Y0091844D02*
X0608302Y0091844D01*
X0606976Y0093442D02*
X0586205Y0093442D01*
X0584607Y0095041D02*
X0605378Y0095041D01*
X0603779Y0096639D02*
X0583008Y0096639D01*
X0581559Y0098089D02*
X0581559Y0098089D01*
X0581410Y0098238D02*
X0602180Y0098238D01*
X0600582Y0099836D02*
X0579811Y0099836D01*
X0578213Y0101435D02*
X0598983Y0101435D01*
X0597385Y0103033D02*
X0576614Y0103033D01*
X0577291Y0104632D02*
X0575016Y0104632D01*
X0574796Y0106230D02*
X0573417Y0106230D01*
X0573913Y0107829D02*
X0571819Y0107829D01*
X0570220Y0109427D02*
X0573693Y0109427D01*
X0573693Y0111026D02*
X0568622Y0111026D01*
X0567023Y0112624D02*
X0573693Y0112624D01*
X0573693Y0114223D02*
X0565425Y0114223D01*
X0563826Y0115821D02*
X0573693Y0115821D01*
X0574035Y0117420D02*
X0562228Y0117420D01*
X0560629Y0119018D02*
X0575090Y0119018D01*
X0578203Y0122216D02*
X0557432Y0122216D01*
X0555833Y0123814D02*
X0576604Y0123814D01*
X0575006Y0125413D02*
X0554235Y0125413D01*
X0552636Y0127011D02*
X0573407Y0127011D01*
X0571809Y0128610D02*
X0551038Y0128610D01*
X0549439Y0130208D02*
X0570210Y0130208D01*
X0569250Y0131807D02*
X0547841Y0131807D01*
X0546242Y0133405D02*
X0569250Y0133405D01*
X0569250Y0135004D02*
X0544644Y0135004D01*
X0543045Y0136602D02*
X0569250Y0136602D01*
X0569250Y0138201D02*
X0541491Y0138201D01*
X0541491Y0139799D02*
X0569250Y0139799D01*
X0569250Y0141398D02*
X0541491Y0141398D01*
X0541491Y0142996D02*
X0569250Y0142996D01*
X0569250Y0144595D02*
X0561377Y0144595D01*
X0561477Y0144636D02*
X0562819Y0145978D01*
X0563545Y0147730D01*
X0563545Y0155964D01*
X0562819Y0157717D01*
X0561477Y0159058D01*
X0559725Y0159784D01*
X0557828Y0159784D01*
X0556075Y0159058D01*
X0554734Y0157717D01*
X0554008Y0155964D01*
X0554008Y0147730D01*
X0554734Y0145978D01*
X0556075Y0144636D01*
X0557828Y0143910D01*
X0559725Y0143910D01*
X0561477Y0144636D01*
X0562908Y0146193D02*
X0569250Y0146193D01*
X0569250Y0147792D02*
X0563545Y0147792D01*
X0563545Y0149390D02*
X0569250Y0149390D01*
X0569250Y0150989D02*
X0563545Y0150989D01*
X0563545Y0152587D02*
X0569250Y0152587D01*
X0569250Y0154186D02*
X0563545Y0154186D01*
X0563545Y0155784D02*
X0569250Y0155784D01*
X0569250Y0157383D02*
X0562957Y0157383D01*
X0561554Y0158981D02*
X0569250Y0158981D01*
X0569250Y0160580D02*
X0541491Y0160580D01*
X0541491Y0162178D02*
X0569250Y0162178D01*
X0569250Y0163777D02*
X0541491Y0163777D01*
X0541491Y0165375D02*
X0569250Y0165375D01*
X0569250Y0166974D02*
X0541491Y0166974D01*
X0541491Y0168572D02*
X0569250Y0168572D01*
X0569250Y0170171D02*
X0541491Y0170171D01*
X0541491Y0171769D02*
X0569250Y0171769D01*
X0569250Y0173368D02*
X0541491Y0173368D01*
X0541491Y0174966D02*
X0569250Y0174966D01*
X0569250Y0176565D02*
X0541491Y0176565D01*
X0541491Y0178163D02*
X0569250Y0178163D01*
X0569250Y0179762D02*
X0541491Y0179762D01*
X0541491Y0181360D02*
X0569250Y0181360D01*
X0569250Y0182959D02*
X0541491Y0182959D01*
X0542344Y0184557D02*
X0569250Y0184557D01*
X0569250Y0186156D02*
X0543469Y0186156D01*
X0543860Y0187754D02*
X0569250Y0187754D01*
X0569250Y0189353D02*
X0543860Y0189353D01*
X0543860Y0190952D02*
X0569250Y0190952D01*
X0569250Y0192550D02*
X0543860Y0192550D01*
X0545417Y0194149D02*
X0569250Y0194149D01*
X0569250Y0195747D02*
X0547015Y0195747D01*
X0548614Y0197346D02*
X0569250Y0197346D01*
X0569250Y0198944D02*
X0550125Y0198944D01*
X0550428Y0200543D02*
X0569707Y0200543D01*
X0571306Y0202141D02*
X0550428Y0202141D01*
X0550428Y0203740D02*
X0572904Y0203740D01*
X0574503Y0205338D02*
X0550428Y0205338D01*
X0550428Y0206937D02*
X0576061Y0206937D01*
X0576061Y0208535D02*
X0550428Y0208535D01*
X0550428Y0210134D02*
X0576061Y0210134D01*
X0576061Y0211732D02*
X0550428Y0211732D01*
X0550428Y0213331D02*
X0576061Y0213331D01*
X0576061Y0214929D02*
X0550428Y0214929D01*
X0550428Y0216528D02*
X0576061Y0216528D01*
X0576061Y0218126D02*
X0551444Y0218126D01*
X0553042Y0219725D02*
X0576061Y0219725D01*
X0576061Y0221323D02*
X0554641Y0221323D01*
X0556239Y0222922D02*
X0576061Y0222922D01*
X0574616Y0224520D02*
X0557838Y0224520D01*
X0559436Y0226119D02*
X0573838Y0226119D01*
X0573693Y0227717D02*
X0561035Y0227717D01*
X0562633Y0229316D02*
X0573693Y0229316D01*
X0573693Y0230914D02*
X0564232Y0230914D01*
X0565830Y0232513D02*
X0573693Y0232513D01*
X0573693Y0234111D02*
X0567429Y0234111D01*
X0569027Y0235710D02*
X0574109Y0235710D01*
X0575270Y0237308D02*
X0570626Y0237308D01*
X0572224Y0238907D02*
X0576061Y0238907D01*
X0576220Y0240505D02*
X0573823Y0240505D01*
X0575421Y0242104D02*
X0577525Y0242104D01*
X0577020Y0243702D02*
X0579124Y0243702D01*
X0578618Y0245301D02*
X0580722Y0245301D01*
X0580217Y0246899D02*
X0582321Y0246899D01*
X0583116Y0247695D02*
X0583116Y0247695D01*
X0583919Y0248498D02*
X0581816Y0248498D01*
X0583414Y0250096D02*
X0585518Y0250096D01*
X0585013Y0251695D02*
X0587116Y0251695D01*
X0586611Y0253293D02*
X0588715Y0253293D01*
X0588210Y0254892D02*
X0590313Y0254892D01*
X0589808Y0256490D02*
X0591912Y0256490D01*
X0591407Y0258089D02*
X0593510Y0258089D01*
X0593005Y0259687D02*
X0595109Y0259687D01*
X0594604Y0261286D02*
X0596708Y0261286D01*
X0596202Y0262885D02*
X0598306Y0262885D01*
X0597801Y0264483D02*
X0599905Y0264483D01*
X0599399Y0266082D02*
X0601503Y0266082D01*
X0602384Y0267680D02*
X0603102Y0267680D01*
X0603982Y0269279D02*
X0604700Y0269279D01*
X0604681Y0270877D02*
X0605981Y0270877D01*
X0605981Y0272476D02*
X0604681Y0272476D01*
X0604560Y0274074D02*
X0606101Y0274074D01*
X0607700Y0275673D02*
X0602962Y0275673D01*
X0603393Y0277165D02*
X0607369Y0277165D01*
X0610181Y0279977D01*
X0610181Y0283954D01*
X0607369Y0286765D01*
X0603393Y0286765D01*
X0600581Y0283954D01*
X0600581Y0279977D01*
X0603393Y0277165D01*
X0603287Y0277271D02*
X0596575Y0277271D01*
X0596469Y0277165D02*
X0599281Y0279977D01*
X0599281Y0283954D01*
X0596469Y0286765D01*
X0592493Y0286765D01*
X0589681Y0283954D01*
X0589681Y0279977D01*
X0592493Y0277165D01*
X0596469Y0277165D01*
X0596800Y0275673D02*
X0592162Y0275673D01*
X0592387Y0277271D02*
X0585675Y0277271D01*
X0585569Y0277165D02*
X0588381Y0279977D01*
X0588381Y0283954D01*
X0585569Y0286765D01*
X0581593Y0286765D01*
X0578781Y0283954D01*
X0578781Y0279977D01*
X0581593Y0277165D01*
X0585569Y0277165D01*
X0586000Y0275673D02*
X0581262Y0275673D01*
X0581487Y0277271D02*
X0562581Y0277271D01*
X0562581Y0278493D02*
X0562581Y0275438D01*
X0561790Y0272488D01*
X0560263Y0269843D01*
X0558104Y0267683D01*
X0555458Y0266156D01*
X0552508Y0265365D01*
X0549454Y0265365D01*
X0546504Y0266156D01*
X0543858Y0267683D01*
X0541699Y0269843D01*
X0540171Y0272488D01*
X0539381Y0275438D01*
X0539381Y0278493D01*
X0540171Y0281443D01*
X0541699Y0284088D01*
X0543858Y0286248D01*
X0546504Y0287775D01*
X0549454Y0288565D01*
X0552508Y0288565D01*
X0555458Y0287775D01*
X0558104Y0286248D01*
X0560263Y0284088D01*
X0561790Y0281443D01*
X0562581Y0278493D01*
X0562480Y0278870D02*
X0579888Y0278870D01*
X0578781Y0280468D02*
X0562052Y0280468D01*
X0561430Y0282067D02*
X0578781Y0282067D01*
X0578781Y0283665D02*
X0560507Y0283665D01*
X0559088Y0285264D02*
X0580091Y0285264D01*
X0587071Y0285264D02*
X0590991Y0285264D01*
X0589681Y0283665D02*
X0588381Y0283665D01*
X0588381Y0282067D02*
X0589681Y0282067D01*
X0589681Y0280468D02*
X0588381Y0280468D01*
X0587273Y0278870D02*
X0590788Y0278870D01*
X0593760Y0274074D02*
X0595201Y0274074D01*
X0595081Y0272476D02*
X0593881Y0272476D01*
X0593881Y0270877D02*
X0595081Y0270877D01*
X0595780Y0269279D02*
X0593182Y0269279D01*
X0594209Y0267680D02*
X0591584Y0267680D01*
X0591481Y0266082D02*
X0592611Y0266082D01*
X0591012Y0264483D02*
X0590938Y0264483D01*
X0589414Y0262885D02*
X0589339Y0262885D01*
X0587815Y0261286D02*
X0587741Y0261286D01*
X0586217Y0259687D02*
X0586142Y0259687D01*
X0584618Y0258089D02*
X0584544Y0258089D01*
X0583020Y0256490D02*
X0582945Y0256490D01*
X0581421Y0254892D02*
X0581347Y0254892D01*
X0579823Y0253293D02*
X0579748Y0253293D01*
X0579305Y0252850D02*
X0579305Y0252850D01*
X0578224Y0251695D02*
X0563593Y0251695D01*
X0561994Y0250096D02*
X0576626Y0250096D01*
X0575027Y0248498D02*
X0560396Y0248498D01*
X0558797Y0246899D02*
X0573429Y0246899D01*
X0571830Y0245301D02*
X0557199Y0245301D01*
X0555600Y0243702D02*
X0570232Y0243702D01*
X0568633Y0242104D02*
X0554002Y0242104D01*
X0552403Y0240505D02*
X0567035Y0240505D01*
X0565436Y0238907D02*
X0550805Y0238907D01*
X0549206Y0237308D02*
X0563838Y0237308D01*
X0562239Y0235710D02*
X0547608Y0235710D01*
X0546009Y0234111D02*
X0560641Y0234111D01*
X0559042Y0232513D02*
X0544411Y0232513D01*
X0543860Y0230914D02*
X0557444Y0230914D01*
X0555845Y0229316D02*
X0543860Y0229316D01*
X0543860Y0227717D02*
X0554247Y0227717D01*
X0552648Y0226119D02*
X0543714Y0226119D01*
X0542936Y0224520D02*
X0551050Y0224520D01*
X0549451Y0222922D02*
X0541491Y0222922D01*
X0541491Y0221323D02*
X0547853Y0221323D01*
X0546254Y0219725D02*
X0541491Y0219725D01*
X0541491Y0218126D02*
X0545628Y0218126D01*
X0545628Y0216528D02*
X0541198Y0216528D01*
X0539701Y0214929D02*
X0545628Y0214929D01*
X0545628Y0213331D02*
X0538103Y0213331D01*
X0536504Y0211732D02*
X0545628Y0211732D01*
X0545628Y0210134D02*
X0534906Y0210134D01*
X0533307Y0208535D02*
X0545628Y0208535D01*
X0545628Y0206937D02*
X0531709Y0206937D01*
X0530743Y0205338D02*
X0545628Y0205338D01*
X0545628Y0203740D02*
X0530743Y0203740D01*
X0530743Y0202141D02*
X0545628Y0202141D01*
X0545022Y0200543D02*
X0530743Y0200543D01*
X0530743Y0198944D02*
X0537635Y0198944D01*
X0535307Y0197346D02*
X0530743Y0197346D01*
X0530743Y0195747D02*
X0534494Y0195747D01*
X0534323Y0194149D02*
X0530743Y0194149D01*
X0530743Y0192550D02*
X0534323Y0192550D01*
X0534323Y0190952D02*
X0530743Y0190952D01*
X0530743Y0189353D02*
X0534323Y0189353D01*
X0534323Y0187754D02*
X0530743Y0187754D01*
X0530743Y0186156D02*
X0534714Y0186156D01*
X0535839Y0184557D02*
X0530743Y0184557D01*
X0530743Y0182959D02*
X0536691Y0182959D01*
X0536691Y0181360D02*
X0530743Y0181360D01*
X0530743Y0179762D02*
X0536691Y0179762D01*
X0536691Y0178163D02*
X0530743Y0178163D01*
X0530743Y0176565D02*
X0536691Y0176565D01*
X0536691Y0174966D02*
X0530743Y0174966D01*
X0530743Y0173368D02*
X0536691Y0173368D01*
X0536691Y0171769D02*
X0530743Y0171769D01*
X0530743Y0170171D02*
X0536691Y0170171D01*
X0536691Y0168572D02*
X0530743Y0168572D01*
X0530743Y0166974D02*
X0536691Y0166974D01*
X0536691Y0165375D02*
X0530743Y0165375D01*
X0530743Y0163777D02*
X0536691Y0163777D01*
X0536691Y0162178D02*
X0530743Y0162178D01*
X0530743Y0160580D02*
X0536691Y0160580D01*
X0536691Y0158981D02*
X0530743Y0158981D01*
X0530743Y0157383D02*
X0536691Y0157383D01*
X0536691Y0155784D02*
X0530743Y0155784D01*
X0530743Y0154186D02*
X0536691Y0154186D01*
X0536691Y0152587D02*
X0530743Y0152587D01*
X0530743Y0150989D02*
X0536691Y0150989D01*
X0536691Y0149390D02*
X0530743Y0149390D01*
X0530743Y0147792D02*
X0536691Y0147792D01*
X0536691Y0146193D02*
X0530743Y0146193D01*
X0530743Y0144595D02*
X0536691Y0144595D01*
X0536691Y0142996D02*
X0530743Y0142996D01*
X0530743Y0141398D02*
X0536691Y0141398D01*
X0536691Y0139799D02*
X0530743Y0139799D01*
X0530743Y0138201D02*
X0536691Y0138201D01*
X0536725Y0136602D02*
X0531234Y0136602D01*
X0532833Y0135004D02*
X0537856Y0135004D01*
X0539454Y0133405D02*
X0534431Y0133405D01*
X0536030Y0131807D02*
X0541053Y0131807D01*
X0542651Y0130208D02*
X0537628Y0130208D01*
X0539227Y0128610D02*
X0544250Y0128610D01*
X0545848Y0127011D02*
X0540825Y0127011D01*
X0542424Y0125413D02*
X0547447Y0125413D01*
X0549045Y0123814D02*
X0544022Y0123814D01*
X0545621Y0122216D02*
X0550644Y0122216D01*
X0552242Y0120617D02*
X0547219Y0120617D01*
X0548818Y0119018D02*
X0553841Y0119018D01*
X0555439Y0117420D02*
X0550416Y0117420D01*
X0552015Y0115821D02*
X0557038Y0115821D01*
X0558636Y0114223D02*
X0553614Y0114223D01*
X0555212Y0112624D02*
X0560235Y0112624D01*
X0561833Y0111026D02*
X0556811Y0111026D01*
X0558409Y0109427D02*
X0563432Y0109427D01*
X0565030Y0107829D02*
X0560008Y0107829D01*
X0561606Y0106230D02*
X0566629Y0106230D01*
X0568227Y0104632D02*
X0563205Y0104632D01*
X0564803Y0103033D02*
X0569826Y0103033D01*
X0571424Y0101435D02*
X0566402Y0101435D01*
X0568000Y0099836D02*
X0573023Y0099836D01*
X0574621Y0098238D02*
X0569599Y0098238D01*
X0571197Y0096639D02*
X0576220Y0096639D01*
X0579524Y0096729D02*
X0544091Y0132162D01*
X0539091Y0137162D01*
X0539091Y0191217D01*
X0548028Y0200154D01*
X0548028Y0218105D01*
X0580196Y0250272D01*
X0599881Y0269957D01*
X0599881Y0271965D01*
X0607475Y0277271D02*
X0614087Y0277271D01*
X0614193Y0277165D02*
X0618169Y0277165D01*
X0620981Y0279977D01*
X0620981Y0283954D01*
X0618169Y0286765D01*
X0614193Y0286765D01*
X0611381Y0283954D01*
X0611381Y0279977D01*
X0614193Y0277165D01*
X0613862Y0275673D02*
X0618600Y0275673D01*
X0618275Y0277271D02*
X0624987Y0277271D01*
X0625093Y0277165D02*
X0629069Y0277165D01*
X0631881Y0279977D01*
X0631881Y0283954D01*
X0629069Y0286765D01*
X0625093Y0286765D01*
X0622281Y0283954D01*
X0622281Y0279977D01*
X0625093Y0277165D01*
X0624762Y0275673D02*
X0629400Y0275673D01*
X0629175Y0277271D02*
X0635887Y0277271D01*
X0635993Y0277165D02*
X0639969Y0277165D01*
X0642781Y0279977D01*
X0642781Y0283954D01*
X0639969Y0286765D01*
X0635993Y0286765D01*
X0633181Y0283954D01*
X0633181Y0279977D01*
X0635993Y0277165D01*
X0635562Y0275673D02*
X0640300Y0275673D01*
X0640075Y0277271D02*
X0646687Y0277271D01*
X0646793Y0277165D02*
X0650769Y0277165D01*
X0653581Y0279977D01*
X0653581Y0283954D01*
X0650769Y0286765D01*
X0646793Y0286765D01*
X0643981Y0283954D01*
X0643981Y0279977D01*
X0646793Y0277165D01*
X0646462Y0275673D02*
X0651200Y0275673D01*
X0650875Y0277271D02*
X0657587Y0277271D01*
X0657693Y0277165D02*
X0661669Y0277165D01*
X0664481Y0279977D01*
X0664481Y0283954D01*
X0661669Y0286765D01*
X0657693Y0286765D01*
X0654881Y0283954D01*
X0654881Y0279977D01*
X0657693Y0277165D01*
X0657362Y0275673D02*
X0662000Y0275673D01*
X0661775Y0277271D02*
X0668487Y0277271D01*
X0668593Y0277165D02*
X0672569Y0277165D01*
X0675381Y0279977D01*
X0675381Y0283954D01*
X0672569Y0286765D01*
X0668593Y0286765D01*
X0665781Y0283954D01*
X0665781Y0279977D01*
X0668593Y0277165D01*
X0668162Y0275673D02*
X0672900Y0275673D01*
X0672675Y0277271D02*
X0679287Y0277271D01*
X0679393Y0277165D02*
X0683369Y0277165D01*
X0686181Y0279977D01*
X0686181Y0283954D01*
X0683369Y0286765D01*
X0679393Y0286765D01*
X0676581Y0283954D01*
X0676581Y0279977D01*
X0679393Y0277165D01*
X0679062Y0275673D02*
X0683800Y0275673D01*
X0683475Y0277271D02*
X0690187Y0277271D01*
X0690293Y0277165D02*
X0694269Y0277165D01*
X0697081Y0279977D01*
X0697081Y0283954D01*
X0694269Y0286765D01*
X0690293Y0286765D01*
X0687481Y0283954D01*
X0687481Y0279977D01*
X0690293Y0277165D01*
X0689962Y0275673D02*
X0694600Y0275673D01*
X0694375Y0277271D02*
X0701087Y0277271D01*
X0701193Y0277165D02*
X0705169Y0277165D01*
X0707981Y0279977D01*
X0707981Y0283954D01*
X0705169Y0286765D01*
X0701193Y0286765D01*
X0698381Y0283954D01*
X0698381Y0279977D01*
X0701193Y0277165D01*
X0700762Y0275673D02*
X0705500Y0275673D01*
X0705275Y0277271D02*
X0711987Y0277271D01*
X0712093Y0277165D02*
X0716069Y0277165D01*
X0718881Y0279977D01*
X0718881Y0283954D01*
X0716069Y0286765D01*
X0712093Y0286765D01*
X0709281Y0283954D01*
X0709281Y0279977D01*
X0712093Y0277165D01*
X0711662Y0275673D02*
X0716400Y0275673D01*
X0716175Y0277271D02*
X0722787Y0277271D01*
X0722893Y0277165D02*
X0726869Y0277165D01*
X0729681Y0279977D01*
X0729681Y0283954D01*
X0726869Y0286765D01*
X0722893Y0286765D01*
X0720081Y0283954D01*
X0720081Y0279977D01*
X0722893Y0277165D01*
X0722562Y0275673D02*
X0727300Y0275673D01*
X0726975Y0277271D02*
X0733687Y0277271D01*
X0733793Y0277165D02*
X0737769Y0277165D01*
X0740581Y0279977D01*
X0740581Y0283954D01*
X0737769Y0286765D01*
X0733793Y0286765D01*
X0730981Y0283954D01*
X0730981Y0279977D01*
X0733793Y0277165D01*
X0733462Y0275673D02*
X0738100Y0275673D01*
X0737875Y0277271D02*
X0744587Y0277271D01*
X0744693Y0277165D02*
X0748669Y0277165D01*
X0751481Y0279977D01*
X0751481Y0283954D01*
X0748669Y0286765D01*
X0744693Y0286765D01*
X0741881Y0283954D01*
X0741881Y0279977D01*
X0744693Y0277165D01*
X0744262Y0275673D02*
X0749000Y0275673D01*
X0748775Y0277271D02*
X0755387Y0277271D01*
X0755493Y0277165D02*
X0759469Y0277165D01*
X0762281Y0279977D01*
X0762281Y0283954D01*
X0759469Y0286765D01*
X0755493Y0286765D01*
X0752681Y0283954D01*
X0752681Y0279977D01*
X0755493Y0277165D01*
X0755162Y0275673D02*
X0759900Y0275673D01*
X0759575Y0277271D02*
X0766287Y0277271D01*
X0766393Y0277165D02*
X0770369Y0277165D01*
X0773181Y0279977D01*
X0773181Y0283954D01*
X0770369Y0286765D01*
X0766393Y0286765D01*
X0763581Y0283954D01*
X0763581Y0279977D01*
X0766393Y0277165D01*
X0766062Y0275673D02*
X0770700Y0275673D01*
X0770475Y0277271D02*
X0789381Y0277271D01*
X0789381Y0278493D02*
X0789381Y0275438D01*
X0790171Y0272488D01*
X0791699Y0269843D01*
X0793858Y0267683D01*
X0796504Y0266156D01*
X0799454Y0265365D01*
X0802508Y0265365D01*
X0805458Y0266156D01*
X0808104Y0267683D01*
X0810263Y0269843D01*
X0811790Y0272488D01*
X0812581Y0275438D01*
X0812581Y0278493D01*
X0811790Y0281443D01*
X0810263Y0284088D01*
X0808104Y0286248D01*
X0805458Y0287775D01*
X0802508Y0288565D01*
X0799454Y0288565D01*
X0796504Y0287775D01*
X0793858Y0286248D01*
X0791699Y0284088D01*
X0790171Y0281443D01*
X0789381Y0278493D01*
X0789482Y0278870D02*
X0772073Y0278870D01*
X0773181Y0280468D02*
X0789910Y0280468D01*
X0790532Y0282067D02*
X0773181Y0282067D01*
X0773181Y0283665D02*
X0791455Y0283665D01*
X0792874Y0285264D02*
X0771871Y0285264D01*
X0764891Y0285264D02*
X0760971Y0285264D01*
X0762281Y0283665D02*
X0763581Y0283665D01*
X0763581Y0282067D02*
X0762281Y0282067D01*
X0762281Y0280468D02*
X0763581Y0280468D01*
X0764688Y0278870D02*
X0761173Y0278870D01*
X0758301Y0274074D02*
X0756760Y0274074D01*
X0756881Y0272476D02*
X0758181Y0272476D01*
X0758181Y0270877D02*
X0756881Y0270877D01*
X0758162Y0269279D02*
X0758880Y0269279D01*
X0759760Y0267680D02*
X0760478Y0267680D01*
X0761359Y0266082D02*
X0765471Y0266082D01*
X0766891Y0264661D02*
X0766891Y0264661D01*
X0767069Y0264483D02*
X0762957Y0264483D01*
X0764556Y0262885D02*
X0768668Y0262885D01*
X0770266Y0261286D02*
X0766154Y0261286D01*
X0767753Y0259687D02*
X0771865Y0259687D01*
X0773463Y0258089D02*
X0769351Y0258089D01*
X0769837Y0254209D02*
X0780312Y0254209D01*
X0772438Y0254209D01*
X0769837Y0254209D02*
X0752081Y0271965D01*
X0747281Y0272476D02*
X0745981Y0272476D01*
X0745981Y0270877D02*
X0747281Y0270877D01*
X0747262Y0269279D02*
X0747980Y0269279D01*
X0748860Y0267680D02*
X0749578Y0267680D01*
X0750459Y0266082D02*
X0754571Y0266082D01*
X0756169Y0264483D02*
X0752057Y0264483D01*
X0753656Y0262885D02*
X0757768Y0262885D01*
X0759366Y0261286D02*
X0755254Y0261286D01*
X0756853Y0259687D02*
X0760965Y0259687D01*
X0762563Y0258089D02*
X0758451Y0258089D01*
X0760050Y0256490D02*
X0764162Y0256490D01*
X0765760Y0254892D02*
X0761648Y0254892D01*
X0763247Y0253293D02*
X0767359Y0253293D01*
X0767802Y0252850D02*
X0767802Y0252850D01*
X0762874Y0250272D02*
X0741181Y0271965D01*
X0736381Y0272476D02*
X0735181Y0272476D01*
X0735181Y0270877D02*
X0736381Y0270877D01*
X0736462Y0269279D02*
X0737080Y0269279D01*
X0738060Y0267680D02*
X0738678Y0267680D01*
X0739659Y0266082D02*
X0743671Y0266082D01*
X0745269Y0264483D02*
X0741257Y0264483D01*
X0742856Y0262885D02*
X0746868Y0262885D01*
X0748466Y0261286D02*
X0744454Y0261286D01*
X0746053Y0259687D02*
X0750065Y0259687D01*
X0751663Y0258089D02*
X0747651Y0258089D01*
X0749250Y0256490D02*
X0753262Y0256490D01*
X0754860Y0254892D02*
X0750848Y0254892D01*
X0752447Y0253293D02*
X0756459Y0253293D01*
X0758057Y0251695D02*
X0754045Y0251695D01*
X0755644Y0250096D02*
X0759656Y0250096D01*
X0762874Y0250272D02*
X0776375Y0250272D01*
X0794997Y0250272D01*
X0814682Y0230587D01*
X0784249Y0200154D01*
X0784249Y0128225D01*
X0741102Y0085079D01*
X0741102Y0075300D01*
X0738070Y0079056D02*
X0733235Y0079056D01*
X0732602Y0080654D02*
X0738702Y0080654D01*
X0738702Y0082253D02*
X0733796Y0082253D01*
X0735395Y0083851D02*
X0738702Y0083851D01*
X0738702Y0085450D02*
X0736993Y0085450D01*
X0738592Y0087048D02*
X0739678Y0087048D01*
X0740190Y0088647D02*
X0741276Y0088647D01*
X0741789Y0090245D02*
X0742875Y0090245D01*
X0743387Y0091844D02*
X0744473Y0091844D01*
X0744986Y0093442D02*
X0746072Y0093442D01*
X0746584Y0095041D02*
X0747670Y0095041D01*
X0748183Y0096639D02*
X0749269Y0096639D01*
X0749781Y0098238D02*
X0750867Y0098238D01*
X0751380Y0099836D02*
X0752466Y0099836D01*
X0752978Y0101435D02*
X0754064Y0101435D01*
X0754577Y0103033D02*
X0755663Y0103033D01*
X0756175Y0104632D02*
X0757261Y0104632D01*
X0757774Y0106230D02*
X0758860Y0106230D01*
X0758993Y0107829D02*
X0760458Y0107829D01*
X0759090Y0109427D02*
X0762057Y0109427D01*
X0763655Y0111026D02*
X0759090Y0111026D01*
X0759090Y0112624D02*
X0765254Y0112624D01*
X0766852Y0114223D02*
X0759090Y0114223D01*
X0759090Y0115821D02*
X0768451Y0115821D01*
X0770049Y0117420D02*
X0759090Y0117420D01*
X0759090Y0119018D02*
X0771648Y0119018D01*
X0773246Y0120617D02*
X0759090Y0120617D01*
X0759090Y0122216D02*
X0774845Y0122216D01*
X0776443Y0123814D02*
X0759090Y0123814D01*
X0759090Y0125413D02*
X0778042Y0125413D01*
X0779640Y0127011D02*
X0759090Y0127011D01*
X0759090Y0128610D02*
X0781239Y0128610D01*
X0781849Y0130208D02*
X0759090Y0130208D01*
X0759090Y0131807D02*
X0781849Y0131807D01*
X0781849Y0133405D02*
X0759090Y0133405D01*
X0759090Y0135004D02*
X0781849Y0135004D01*
X0781849Y0136602D02*
X0759090Y0136602D01*
X0759090Y0138201D02*
X0781849Y0138201D01*
X0781849Y0139799D02*
X0759090Y0139799D01*
X0759090Y0141398D02*
X0781849Y0141398D01*
X0781849Y0142996D02*
X0759090Y0142996D01*
X0759090Y0144595D02*
X0772711Y0144595D01*
X0772611Y0144636D02*
X0774363Y0143910D01*
X0776260Y0143910D01*
X0778013Y0144636D01*
X0779354Y0145978D01*
X0780080Y0147730D01*
X0780080Y0155964D01*
X0779354Y0157717D01*
X0778013Y0159058D01*
X0776260Y0159784D01*
X0774363Y0159784D01*
X0772611Y0159058D01*
X0771269Y0157717D01*
X0770543Y0155964D01*
X0770543Y0147730D01*
X0771269Y0145978D01*
X0772611Y0144636D01*
X0771180Y0146193D02*
X0759090Y0146193D01*
X0759090Y0147792D02*
X0770543Y0147792D01*
X0770543Y0149390D02*
X0759090Y0149390D01*
X0759090Y0150989D02*
X0770543Y0150989D01*
X0770543Y0152587D02*
X0759090Y0152587D01*
X0759090Y0154186D02*
X0770543Y0154186D01*
X0770543Y0155784D02*
X0759090Y0155784D01*
X0759090Y0157383D02*
X0771131Y0157383D01*
X0772534Y0158981D02*
X0759090Y0158981D01*
X0759090Y0160580D02*
X0781849Y0160580D01*
X0781849Y0162178D02*
X0759090Y0162178D01*
X0759090Y0163777D02*
X0781849Y0163777D01*
X0781849Y0165375D02*
X0759090Y0165375D01*
X0759090Y0166974D02*
X0781849Y0166974D01*
X0781849Y0168572D02*
X0759090Y0168572D01*
X0759090Y0170171D02*
X0781849Y0170171D01*
X0781849Y0171769D02*
X0759258Y0171769D01*
X0760856Y0173368D02*
X0781849Y0173368D01*
X0781849Y0174966D02*
X0762455Y0174966D01*
X0764053Y0176565D02*
X0781849Y0176565D01*
X0781849Y0178163D02*
X0765652Y0178163D01*
X0767250Y0179762D02*
X0781849Y0179762D01*
X0781849Y0181360D02*
X0768849Y0181360D01*
X0770447Y0182959D02*
X0781849Y0182959D01*
X0781849Y0184557D02*
X0778564Y0184557D01*
X0779689Y0186156D02*
X0781849Y0186156D01*
X0781849Y0187754D02*
X0780080Y0187754D01*
X0780080Y0189353D02*
X0781849Y0189353D01*
X0781849Y0190952D02*
X0780080Y0190952D01*
X0780080Y0192550D02*
X0781849Y0192550D01*
X0781849Y0194149D02*
X0780080Y0194149D01*
X0779909Y0195747D02*
X0781849Y0195747D01*
X0781849Y0197346D02*
X0779096Y0197346D01*
X0777712Y0198944D02*
X0781849Y0198944D01*
X0781849Y0200543D02*
X0777712Y0200543D01*
X0777712Y0202141D02*
X0782841Y0202141D01*
X0784440Y0203740D02*
X0777712Y0203740D01*
X0777712Y0205338D02*
X0786038Y0205338D01*
X0787637Y0206937D02*
X0777712Y0206937D01*
X0777712Y0208535D02*
X0789235Y0208535D01*
X0790834Y0210134D02*
X0777712Y0210134D01*
X0777712Y0211732D02*
X0792432Y0211732D01*
X0794031Y0213331D02*
X0777712Y0213331D01*
X0777712Y0214929D02*
X0795629Y0214929D01*
X0797228Y0216528D02*
X0777712Y0216528D01*
X0779119Y0218126D02*
X0798826Y0218126D01*
X0800425Y0219725D02*
X0780717Y0219725D01*
X0782316Y0221323D02*
X0802023Y0221323D01*
X0803622Y0222922D02*
X0783914Y0222922D01*
X0785513Y0224520D02*
X0805220Y0224520D01*
X0806819Y0226119D02*
X0786626Y0226119D01*
X0786649Y0227717D02*
X0808418Y0227717D01*
X0809913Y0229316D02*
X0786649Y0229316D01*
X0786649Y0230914D02*
X0809913Y0230914D01*
X0809362Y0232513D02*
X0786649Y0232513D01*
X0786649Y0234111D02*
X0807764Y0234111D01*
X0806165Y0235710D02*
X0786355Y0235710D01*
X0784859Y0237308D02*
X0804567Y0237308D01*
X0802968Y0238907D02*
X0783260Y0238907D01*
X0782346Y0239821D02*
X0782346Y0239821D01*
X0781662Y0240505D02*
X0801370Y0240505D01*
X0799771Y0242104D02*
X0780063Y0242104D01*
X0778465Y0243702D02*
X0798173Y0243702D01*
X0796574Y0245301D02*
X0776866Y0245301D01*
X0775268Y0246899D02*
X0794976Y0246899D01*
X0798567Y0250096D02*
X0804653Y0250096D01*
X0806251Y0248498D02*
X0800165Y0248498D01*
X0801764Y0246899D02*
X0807850Y0246899D01*
X0809448Y0245301D02*
X0803362Y0245301D01*
X0804961Y0243702D02*
X0811047Y0243702D01*
X0812645Y0242104D02*
X0806559Y0242104D01*
X0808158Y0240505D02*
X0814244Y0240505D01*
X0814385Y0240364D02*
X0816645Y0238104D01*
X0815630Y0238524D01*
X0813733Y0238524D01*
X0811981Y0237798D01*
X0811423Y0237241D01*
X0796854Y0251809D01*
X0802940Y0251809D01*
X0814385Y0240364D01*
X0815842Y0238907D02*
X0809756Y0238907D01*
X0811355Y0237308D02*
X0811491Y0237308D01*
X0815745Y0242398D02*
X0823619Y0234524D01*
X0823619Y0226650D01*
X0814682Y0217713D01*
X0814682Y0191217D01*
X0814682Y0178343D01*
X0796060Y0159721D01*
X0796060Y0132162D01*
X0752753Y0088855D01*
X0752002Y0088105D01*
X0752002Y0075300D01*
X0748970Y0079056D02*
X0744135Y0079056D01*
X0743502Y0080654D02*
X0749602Y0080654D01*
X0749602Y0082253D02*
X0743502Y0082253D01*
X0743502Y0083851D02*
X0749602Y0083851D01*
X0749602Y0085450D02*
X0744867Y0085450D01*
X0746466Y0087048D02*
X0749602Y0087048D01*
X0749629Y0088647D02*
X0748064Y0088647D01*
X0749663Y0090245D02*
X0750749Y0090245D01*
X0751261Y0091844D02*
X0752347Y0091844D01*
X0752860Y0093442D02*
X0753946Y0093442D01*
X0754458Y0095041D02*
X0755544Y0095041D01*
X0756057Y0096639D02*
X0757143Y0096639D01*
X0757655Y0098238D02*
X0758741Y0098238D01*
X0759254Y0099836D02*
X0760340Y0099836D01*
X0760852Y0101435D02*
X0761938Y0101435D01*
X0762451Y0103033D02*
X0763537Y0103033D01*
X0764049Y0104632D02*
X0765135Y0104632D01*
X0765648Y0106230D02*
X0766734Y0106230D01*
X0767247Y0107829D02*
X0768332Y0107829D01*
X0768845Y0109427D02*
X0769931Y0109427D01*
X0770444Y0111026D02*
X0771529Y0111026D01*
X0772042Y0112624D02*
X0773128Y0112624D01*
X0773641Y0114223D02*
X0774726Y0114223D01*
X0775239Y0115821D02*
X0776325Y0115821D01*
X0776838Y0117420D02*
X0777923Y0117420D01*
X0778436Y0119018D02*
X0779522Y0119018D01*
X0780035Y0120617D02*
X0781120Y0120617D01*
X0781633Y0122216D02*
X0782719Y0122216D01*
X0783232Y0123814D02*
X0784317Y0123814D01*
X0784830Y0125413D02*
X0785916Y0125413D01*
X0786343Y0127011D02*
X0787514Y0127011D01*
X0786649Y0128610D02*
X0789113Y0128610D01*
X0790711Y0130208D02*
X0786649Y0130208D01*
X0786649Y0131807D02*
X0792310Y0131807D01*
X0793660Y0133405D02*
X0786649Y0133405D01*
X0786649Y0135004D02*
X0793660Y0135004D01*
X0793660Y0136602D02*
X0786649Y0136602D01*
X0786649Y0138201D02*
X0793660Y0138201D01*
X0793660Y0139799D02*
X0786649Y0139799D01*
X0786649Y0141398D02*
X0793660Y0141398D01*
X0793660Y0142996D02*
X0786649Y0142996D01*
X0786649Y0144595D02*
X0793660Y0144595D01*
X0793660Y0146193D02*
X0786649Y0146193D01*
X0786649Y0147792D02*
X0793660Y0147792D01*
X0793660Y0149390D02*
X0786649Y0149390D01*
X0786649Y0150989D02*
X0793660Y0150989D01*
X0793660Y0152587D02*
X0786649Y0152587D01*
X0786649Y0154186D02*
X0793660Y0154186D01*
X0793660Y0155784D02*
X0786649Y0155784D01*
X0786649Y0157383D02*
X0793660Y0157383D01*
X0793660Y0158981D02*
X0786649Y0158981D01*
X0786649Y0160580D02*
X0793818Y0160580D01*
X0795123Y0162178D02*
X0786649Y0162178D01*
X0786649Y0163777D02*
X0796721Y0163777D01*
X0798320Y0165375D02*
X0786649Y0165375D01*
X0786649Y0166974D02*
X0799918Y0166974D01*
X0801517Y0168572D02*
X0786649Y0168572D01*
X0786649Y0170171D02*
X0803115Y0170171D01*
X0804714Y0171769D02*
X0786649Y0171769D01*
X0786649Y0173368D02*
X0806312Y0173368D01*
X0807911Y0174966D02*
X0786649Y0174966D01*
X0786649Y0176565D02*
X0809509Y0176565D01*
X0811108Y0178163D02*
X0786649Y0178163D01*
X0786649Y0179762D02*
X0812282Y0179762D01*
X0812282Y0181360D02*
X0786649Y0181360D01*
X0786649Y0182959D02*
X0812282Y0182959D01*
X0811429Y0184557D02*
X0786649Y0184557D01*
X0786649Y0186156D02*
X0810304Y0186156D01*
X0809913Y0187754D02*
X0786649Y0187754D01*
X0786649Y0189353D02*
X0809913Y0189353D01*
X0809913Y0190952D02*
X0786649Y0190952D01*
X0786649Y0192550D02*
X0809913Y0192550D01*
X0809913Y0194149D02*
X0786649Y0194149D01*
X0786649Y0195747D02*
X0810084Y0195747D01*
X0810898Y0197346D02*
X0786649Y0197346D01*
X0786649Y0198944D02*
X0812282Y0198944D01*
X0812282Y0200543D02*
X0788031Y0200543D01*
X0789630Y0202141D02*
X0812282Y0202141D01*
X0812282Y0203740D02*
X0791228Y0203740D01*
X0792827Y0205338D02*
X0812282Y0205338D01*
X0812282Y0206937D02*
X0794425Y0206937D01*
X0796024Y0208535D02*
X0812282Y0208535D01*
X0812282Y0210134D02*
X0797622Y0210134D01*
X0799221Y0211732D02*
X0812282Y0211732D01*
X0812282Y0213331D02*
X0800819Y0213331D01*
X0802418Y0214929D02*
X0812282Y0214929D01*
X0812282Y0216528D02*
X0804016Y0216528D01*
X0805615Y0218126D02*
X0812282Y0218126D01*
X0813299Y0219725D02*
X0807213Y0219725D01*
X0808812Y0221323D02*
X0814897Y0221323D01*
X0816285Y0222922D02*
X0816496Y0222922D01*
X0813078Y0222922D02*
X0810410Y0222922D01*
X0819030Y0225456D02*
X0819450Y0226470D01*
X0819450Y0234704D01*
X0819030Y0235719D01*
X0821219Y0233530D01*
X0821219Y0227645D01*
X0819030Y0225456D01*
X0819305Y0226119D02*
X0819693Y0226119D01*
X0819450Y0227717D02*
X0821219Y0227717D01*
X0821219Y0229316D02*
X0819450Y0229316D01*
X0819450Y0230914D02*
X0821219Y0230914D01*
X0821219Y0232513D02*
X0819450Y0232513D01*
X0819450Y0234111D02*
X0820638Y0234111D01*
X0819039Y0235710D02*
X0819034Y0235710D01*
X0822630Y0238907D02*
X0851275Y0238907D01*
X0850861Y0237308D02*
X0824229Y0237308D01*
X0825725Y0235710D02*
X0849700Y0235710D01*
X0849283Y0234111D02*
X0826019Y0234111D01*
X0826019Y0232513D02*
X0849283Y0232513D01*
X0849283Y0230914D02*
X0826019Y0230914D01*
X0826019Y0229316D02*
X0849283Y0229316D01*
X0847788Y0227717D02*
X0826019Y0227717D01*
X0825996Y0226119D02*
X0846189Y0226119D01*
X0844591Y0224520D02*
X0824883Y0224520D01*
X0823284Y0222922D02*
X0842992Y0222922D01*
X0841394Y0221323D02*
X0821686Y0221323D01*
X0820087Y0219725D02*
X0839795Y0219725D01*
X0838197Y0218126D02*
X0818489Y0218126D01*
X0817082Y0216528D02*
X0836598Y0216528D01*
X0834999Y0214929D02*
X0817082Y0214929D01*
X0817082Y0213331D02*
X0833401Y0213331D01*
X0831802Y0211732D02*
X0817082Y0211732D01*
X0817082Y0210134D02*
X0830204Y0210134D01*
X0828605Y0208535D02*
X0817082Y0208535D01*
X0817082Y0206937D02*
X0827007Y0206937D01*
X0825408Y0205338D02*
X0817082Y0205338D01*
X0817082Y0203740D02*
X0823810Y0203740D01*
X0822211Y0202141D02*
X0817082Y0202141D01*
X0817082Y0200543D02*
X0821219Y0200543D01*
X0821219Y0198944D02*
X0817082Y0198944D01*
X0818466Y0197346D02*
X0821219Y0197346D01*
X0821219Y0195747D02*
X0819279Y0195747D01*
X0819450Y0194149D02*
X0821219Y0194149D01*
X0821219Y0192550D02*
X0819450Y0192550D01*
X0819450Y0190952D02*
X0821219Y0190952D01*
X0821219Y0189353D02*
X0819450Y0189353D01*
X0819450Y0187754D02*
X0821219Y0187754D01*
X0821219Y0186156D02*
X0819059Y0186156D01*
X0817934Y0184557D02*
X0821219Y0184557D01*
X0821219Y0182959D02*
X0817082Y0182959D01*
X0817082Y0181360D02*
X0821219Y0181360D01*
X0821219Y0179762D02*
X0817082Y0179762D01*
X0817082Y0178163D02*
X0821219Y0178163D01*
X0821219Y0176565D02*
X0816297Y0176565D01*
X0814699Y0174966D02*
X0821219Y0174966D01*
X0821219Y0173368D02*
X0813100Y0173368D01*
X0811502Y0171769D02*
X0821219Y0171769D01*
X0821219Y0170171D02*
X0809903Y0170171D01*
X0808305Y0168572D02*
X0821219Y0168572D01*
X0821219Y0166974D02*
X0806706Y0166974D01*
X0805108Y0165375D02*
X0821219Y0165375D01*
X0821219Y0163777D02*
X0803509Y0163777D01*
X0801911Y0162178D02*
X0821219Y0162178D01*
X0821219Y0160580D02*
X0800312Y0160580D01*
X0798714Y0158981D02*
X0811904Y0158981D01*
X0811981Y0159058D02*
X0810639Y0157717D01*
X0809913Y0155964D01*
X0809913Y0147730D01*
X0810639Y0145978D01*
X0811981Y0144636D01*
X0813733Y0143910D01*
X0815630Y0143910D01*
X0817383Y0144636D01*
X0818724Y0145978D01*
X0819450Y0147730D01*
X0819450Y0155964D01*
X0818724Y0157717D01*
X0817383Y0159058D01*
X0815630Y0159784D01*
X0813733Y0159784D01*
X0811981Y0159058D01*
X0810501Y0157383D02*
X0798460Y0157383D01*
X0798460Y0155784D02*
X0809913Y0155784D01*
X0809913Y0154186D02*
X0798460Y0154186D01*
X0798460Y0152587D02*
X0809913Y0152587D01*
X0809913Y0150989D02*
X0798460Y0150989D01*
X0798460Y0149390D02*
X0809913Y0149390D01*
X0809913Y0147792D02*
X0798460Y0147792D01*
X0798460Y0146193D02*
X0810550Y0146193D01*
X0812081Y0144595D02*
X0798460Y0144595D01*
X0798460Y0142996D02*
X0821219Y0142996D01*
X0821219Y0141398D02*
X0798460Y0141398D01*
X0798460Y0139799D02*
X0821219Y0139799D01*
X0821219Y0138201D02*
X0798460Y0138201D01*
X0798460Y0136602D02*
X0821219Y0136602D01*
X0821219Y0135004D02*
X0798460Y0135004D01*
X0798460Y0133405D02*
X0821219Y0133405D01*
X0821219Y0131807D02*
X0798460Y0131807D01*
X0797500Y0130208D02*
X0821219Y0130208D01*
X0821219Y0128610D02*
X0795901Y0128610D01*
X0794303Y0127011D02*
X0821219Y0127011D01*
X0821219Y0125413D02*
X0792704Y0125413D01*
X0791106Y0123814D02*
X0819750Y0123814D01*
X0818152Y0122216D02*
X0789507Y0122216D01*
X0787909Y0120617D02*
X0816553Y0120617D01*
X0814955Y0119018D02*
X0798368Y0119018D01*
X0797698Y0119688D02*
X0799039Y0118347D01*
X0799765Y0116594D01*
X0799765Y0108360D01*
X0799039Y0106608D01*
X0797698Y0105266D01*
X0795945Y0104540D01*
X0794048Y0104540D01*
X0792296Y0105266D01*
X0790954Y0106608D01*
X0790228Y0108360D01*
X0790228Y0116594D01*
X0790954Y0118347D01*
X0792296Y0119688D01*
X0794048Y0120414D01*
X0795945Y0120414D01*
X0797698Y0119688D01*
X0799423Y0117420D02*
X0813356Y0117420D01*
X0811758Y0115821D02*
X0799765Y0115821D01*
X0799765Y0114223D02*
X0810159Y0114223D01*
X0808561Y0112624D02*
X0799765Y0112624D01*
X0799765Y0111026D02*
X0806962Y0111026D01*
X0805364Y0109427D02*
X0799765Y0109427D01*
X0799545Y0107829D02*
X0803765Y0107829D01*
X0802167Y0106230D02*
X0798662Y0106230D01*
X0800568Y0104632D02*
X0796167Y0104632D01*
X0793827Y0104632D02*
X0771923Y0104632D01*
X0770325Y0103033D02*
X0798970Y0103033D01*
X0797371Y0101435D02*
X0768726Y0101435D01*
X0767128Y0099836D02*
X0795773Y0099836D01*
X0794174Y0098238D02*
X0765529Y0098238D01*
X0763931Y0096639D02*
X0792576Y0096639D01*
X0792123Y0092792D02*
X0823619Y0124288D01*
X0823619Y0200154D01*
X0854052Y0230587D01*
X0854052Y0239524D01*
X0835430Y0258146D01*
X0792123Y0258146D01*
X0776800Y0258146D01*
X0768926Y0266020D01*
X0762981Y0271965D01*
X0767781Y0272476D02*
X0768981Y0272476D01*
X0768981Y0270877D02*
X0767781Y0270877D01*
X0769062Y0269279D02*
X0769680Y0269279D01*
X0770285Y0268055D02*
X0770285Y0268055D01*
X0770660Y0267680D02*
X0771278Y0267680D01*
X0772259Y0266082D02*
X0776271Y0266082D01*
X0777869Y0264483D02*
X0773857Y0264483D01*
X0775456Y0262885D02*
X0779468Y0262885D01*
X0781066Y0261286D02*
X0777054Y0261286D01*
X0783663Y0262083D02*
X0799997Y0262083D01*
X0839367Y0262083D01*
X0862989Y0238461D01*
X0862989Y0230587D01*
X0862989Y0238461D01*
X0859052Y0242398D01*
X0857551Y0240505D02*
X0856243Y0240505D01*
X0856086Y0240884D02*
X0855411Y0241559D01*
X0837287Y0259683D01*
X0838373Y0259683D01*
X0860589Y0237467D01*
X0860589Y0223707D01*
X0852017Y0215136D01*
X0851652Y0214254D01*
X0851652Y0198553D01*
X0851351Y0198428D01*
X0850009Y0197087D01*
X0849283Y0195334D01*
X0849283Y0189843D01*
X0841269Y0181829D01*
X0840904Y0180947D01*
X0840904Y0109534D01*
X0838715Y0107345D01*
X0839135Y0108360D01*
X0839135Y0116594D01*
X0838409Y0118347D01*
X0837068Y0119688D01*
X0835315Y0120414D01*
X0833418Y0120414D01*
X0831666Y0119688D01*
X0830324Y0118347D01*
X0829598Y0116594D01*
X0829598Y0108360D01*
X0830324Y0106608D01*
X0831666Y0105266D01*
X0833418Y0104540D01*
X0835315Y0104540D01*
X0836330Y0104960D01*
X0822625Y0091255D01*
X0793980Y0091255D01*
X0824978Y0122254D01*
X0825653Y0122929D01*
X0826019Y0123811D01*
X0826019Y0199160D01*
X0850793Y0223934D01*
X0851351Y0223376D01*
X0853103Y0222650D01*
X0855000Y0222650D01*
X0856753Y0223376D01*
X0858094Y0224718D01*
X0858820Y0226470D01*
X0858820Y0234704D01*
X0858094Y0236457D01*
X0856753Y0237798D01*
X0856452Y0237923D01*
X0856452Y0240002D01*
X0856086Y0240884D01*
X0855952Y0242104D02*
X0854866Y0242104D01*
X0854354Y0243702D02*
X0853268Y0243702D01*
X0852755Y0245301D02*
X0851669Y0245301D01*
X0851157Y0246899D02*
X0850071Y0246899D01*
X0849558Y0248498D02*
X0848472Y0248498D01*
X0847960Y0250096D02*
X0846874Y0250096D01*
X0846361Y0251695D02*
X0845275Y0251695D01*
X0844763Y0253293D02*
X0843677Y0253293D01*
X0843164Y0254892D02*
X0842078Y0254892D01*
X0841566Y0256490D02*
X0840480Y0256490D01*
X0839967Y0258089D02*
X0838881Y0258089D01*
X0835290Y0254892D02*
X0806645Y0254892D01*
X0808244Y0253293D02*
X0836889Y0253293D01*
X0838487Y0251695D02*
X0809842Y0251695D01*
X0811441Y0250096D02*
X0840086Y0250096D01*
X0841684Y0248498D02*
X0813039Y0248498D01*
X0814638Y0246899D02*
X0843283Y0246899D01*
X0844881Y0245301D02*
X0816236Y0245301D01*
X0817835Y0243702D02*
X0846480Y0243702D01*
X0848078Y0242104D02*
X0819433Y0242104D01*
X0821032Y0240505D02*
X0849677Y0240505D01*
X0856452Y0238907D02*
X0859149Y0238907D01*
X0860589Y0237308D02*
X0857243Y0237308D01*
X0858404Y0235710D02*
X0860589Y0235710D01*
X0860589Y0234111D02*
X0858820Y0234111D01*
X0858820Y0232513D02*
X0860589Y0232513D01*
X0860589Y0230914D02*
X0858820Y0230914D01*
X0858820Y0229316D02*
X0860589Y0229316D01*
X0860589Y0227717D02*
X0858820Y0227717D01*
X0858675Y0226119D02*
X0860589Y0226119D01*
X0860589Y0224520D02*
X0857897Y0224520D01*
X0859803Y0222922D02*
X0855655Y0222922D01*
X0858205Y0221323D02*
X0848182Y0221323D01*
X0849780Y0222922D02*
X0852448Y0222922D01*
X0856606Y0219725D02*
X0846583Y0219725D01*
X0844985Y0218126D02*
X0855008Y0218126D01*
X0853409Y0216528D02*
X0843386Y0216528D01*
X0841788Y0214929D02*
X0851932Y0214929D01*
X0851652Y0213331D02*
X0840189Y0213331D01*
X0838591Y0211732D02*
X0851652Y0211732D01*
X0851652Y0210134D02*
X0836992Y0210134D01*
X0835394Y0208535D02*
X0851652Y0208535D01*
X0851652Y0206937D02*
X0833795Y0206937D01*
X0832197Y0205338D02*
X0851652Y0205338D01*
X0851652Y0203740D02*
X0830598Y0203740D01*
X0829000Y0202141D02*
X0851652Y0202141D01*
X0851652Y0200543D02*
X0827401Y0200543D01*
X0826019Y0198944D02*
X0851652Y0198944D01*
X0850268Y0197346D02*
X0826019Y0197346D01*
X0826019Y0195747D02*
X0849454Y0195747D01*
X0849283Y0194149D02*
X0826019Y0194149D01*
X0826019Y0192550D02*
X0849283Y0192550D01*
X0849283Y0190952D02*
X0826019Y0190952D01*
X0826019Y0189353D02*
X0848793Y0189353D01*
X0847195Y0187754D02*
X0826019Y0187754D01*
X0826019Y0186156D02*
X0845596Y0186156D01*
X0843998Y0184557D02*
X0826019Y0184557D01*
X0826019Y0182959D02*
X0842399Y0182959D01*
X0841075Y0181360D02*
X0826019Y0181360D01*
X0826019Y0179762D02*
X0840904Y0179762D01*
X0840904Y0178163D02*
X0826019Y0178163D01*
X0826019Y0176565D02*
X0840904Y0176565D01*
X0840904Y0174966D02*
X0826019Y0174966D01*
X0826019Y0173368D02*
X0840904Y0173368D01*
X0840904Y0171769D02*
X0826019Y0171769D01*
X0826019Y0170171D02*
X0840904Y0170171D01*
X0840904Y0168572D02*
X0826019Y0168572D01*
X0826019Y0166974D02*
X0840904Y0166974D01*
X0840904Y0165375D02*
X0826019Y0165375D01*
X0826019Y0163777D02*
X0840904Y0163777D01*
X0840904Y0162178D02*
X0826019Y0162178D01*
X0826019Y0160580D02*
X0840904Y0160580D01*
X0840904Y0158981D02*
X0826019Y0158981D01*
X0826019Y0157383D02*
X0840904Y0157383D01*
X0840904Y0155784D02*
X0826019Y0155784D01*
X0826019Y0154186D02*
X0840904Y0154186D01*
X0840904Y0152587D02*
X0826019Y0152587D01*
X0826019Y0150989D02*
X0840904Y0150989D01*
X0840904Y0149390D02*
X0826019Y0149390D01*
X0826019Y0147792D02*
X0840904Y0147792D01*
X0840904Y0146193D02*
X0826019Y0146193D01*
X0826019Y0144595D02*
X0840904Y0144595D01*
X0840904Y0142996D02*
X0826019Y0142996D01*
X0826019Y0141398D02*
X0840904Y0141398D01*
X0840904Y0139799D02*
X0826019Y0139799D01*
X0826019Y0138201D02*
X0840904Y0138201D01*
X0840904Y0136602D02*
X0826019Y0136602D01*
X0826019Y0135004D02*
X0840904Y0135004D01*
X0840904Y0133405D02*
X0826019Y0133405D01*
X0826019Y0131807D02*
X0840904Y0131807D01*
X0840904Y0130208D02*
X0826019Y0130208D01*
X0826019Y0128610D02*
X0840904Y0128610D01*
X0840904Y0127011D02*
X0826019Y0127011D01*
X0826019Y0125413D02*
X0840904Y0125413D01*
X0840904Y0123814D02*
X0826019Y0123814D01*
X0824940Y0122216D02*
X0840904Y0122216D01*
X0840904Y0120617D02*
X0823342Y0120617D01*
X0821743Y0119018D02*
X0830996Y0119018D01*
X0829940Y0117420D02*
X0820145Y0117420D01*
X0818546Y0115821D02*
X0829598Y0115821D01*
X0829598Y0114223D02*
X0816948Y0114223D01*
X0815349Y0112624D02*
X0829598Y0112624D01*
X0829598Y0111026D02*
X0813751Y0111026D01*
X0812152Y0109427D02*
X0829598Y0109427D01*
X0829818Y0107829D02*
X0810554Y0107829D01*
X0808955Y0106230D02*
X0830701Y0106230D01*
X0833197Y0104632D02*
X0807357Y0104632D01*
X0805758Y0103033D02*
X0834403Y0103033D01*
X0835537Y0104632D02*
X0836001Y0104632D01*
X0838915Y0107829D02*
X0839198Y0107829D01*
X0839135Y0109427D02*
X0840797Y0109427D01*
X0840904Y0111026D02*
X0839135Y0111026D01*
X0839135Y0112624D02*
X0840904Y0112624D01*
X0840904Y0114223D02*
X0839135Y0114223D01*
X0839135Y0115821D02*
X0840904Y0115821D01*
X0840904Y0117420D02*
X0838793Y0117420D01*
X0837738Y0119018D02*
X0840904Y0119018D01*
X0845704Y0119018D02*
X0872400Y0119018D01*
X0872400Y0117420D02*
X0845704Y0117420D01*
X0845704Y0115821D02*
X0872400Y0115821D01*
X0872400Y0114223D02*
X0845704Y0114223D01*
X0845704Y0112624D02*
X0872400Y0112624D01*
X0872400Y0111026D02*
X0845704Y0111026D01*
X0845704Y0109427D02*
X0872400Y0109427D01*
X0872400Y0107829D02*
X0845607Y0107829D01*
X0844388Y0106230D02*
X0872400Y0106230D01*
X0872400Y0104632D02*
X0842790Y0104632D01*
X0841191Y0103033D02*
X0872400Y0103033D01*
X0872400Y0101435D02*
X0839593Y0101435D01*
X0837994Y0099836D02*
X0872400Y0099836D01*
X0872400Y0098238D02*
X0836396Y0098238D01*
X0834797Y0096639D02*
X0872400Y0096639D01*
X0872400Y0095041D02*
X0833199Y0095041D01*
X0831600Y0093442D02*
X0872400Y0093442D01*
X0872400Y0091844D02*
X0830002Y0091844D01*
X0828403Y0090245D02*
X0872400Y0090245D01*
X0872400Y0088647D02*
X0826805Y0088647D01*
X0825206Y0087048D02*
X0872400Y0087048D01*
X0872400Y0085450D02*
X0780300Y0085450D01*
X0778702Y0083851D02*
X0872400Y0083851D01*
X0832804Y0101435D02*
X0804160Y0101435D01*
X0802561Y0099836D02*
X0831206Y0099836D01*
X0829607Y0098238D02*
X0800963Y0098238D01*
X0799364Y0096639D02*
X0828009Y0096639D01*
X0826410Y0095041D02*
X0797765Y0095041D01*
X0796167Y0093442D02*
X0824812Y0093442D01*
X0823213Y0091844D02*
X0794568Y0091844D01*
X0792123Y0092792D02*
X0772438Y0092792D01*
X0762802Y0083157D01*
X0762802Y0075300D01*
X0759770Y0079056D02*
X0755035Y0079056D01*
X0754402Y0080654D02*
X0760402Y0080654D01*
X0760402Y0082253D02*
X0754402Y0082253D01*
X0754402Y0083851D02*
X0760492Y0083851D01*
X0761701Y0085450D02*
X0754402Y0085450D01*
X0754402Y0087048D02*
X0763300Y0087048D01*
X0764898Y0088647D02*
X0755938Y0088647D01*
X0757537Y0090245D02*
X0766497Y0090245D01*
X0768095Y0091844D02*
X0759135Y0091844D01*
X0760734Y0093442D02*
X0769694Y0093442D01*
X0771595Y0095041D02*
X0762332Y0095041D01*
X0747789Y0103033D02*
X0721802Y0103033D01*
X0721802Y0101435D02*
X0746190Y0101435D01*
X0744592Y0099836D02*
X0721802Y0099836D01*
X0721802Y0098238D02*
X0742993Y0098238D01*
X0741395Y0096639D02*
X0721802Y0096639D01*
X0721802Y0095041D02*
X0739796Y0095041D01*
X0738198Y0093442D02*
X0721802Y0093442D01*
X0721802Y0091844D02*
X0736599Y0091844D01*
X0735001Y0090245D02*
X0721802Y0090245D01*
X0721802Y0088647D02*
X0733402Y0088647D01*
X0731804Y0087048D02*
X0721802Y0087048D01*
X0721802Y0085450D02*
X0730205Y0085450D01*
X0728607Y0083851D02*
X0721802Y0083851D01*
X0721802Y0082253D02*
X0727802Y0082253D01*
X0727802Y0080654D02*
X0721802Y0080654D01*
X0722435Y0079056D02*
X0727170Y0079056D01*
X0725571Y0077457D02*
X0724033Y0077457D01*
X0724202Y0075859D02*
X0725402Y0075859D01*
X0725402Y0074260D02*
X0724202Y0074260D01*
X0723552Y0072662D02*
X0726052Y0072662D01*
X0730202Y0075300D02*
X0730202Y0082053D01*
X0756690Y0108540D01*
X0756690Y0172595D01*
X0775312Y0191217D01*
X0775312Y0217713D01*
X0784249Y0226650D01*
X0784249Y0234524D01*
X0780312Y0238461D01*
X0772438Y0246335D01*
X0768501Y0246335D01*
X0756011Y0246335D01*
X0730381Y0271965D01*
X0725581Y0272476D02*
X0724281Y0272476D01*
X0724281Y0270877D02*
X0725581Y0270877D01*
X0725562Y0269279D02*
X0726280Y0269279D01*
X0727160Y0267680D02*
X0727878Y0267680D01*
X0728759Y0266082D02*
X0732871Y0266082D01*
X0734469Y0264483D02*
X0730357Y0264483D01*
X0731956Y0262885D02*
X0736068Y0262885D01*
X0737666Y0261286D02*
X0733554Y0261286D01*
X0735153Y0259687D02*
X0739265Y0259687D01*
X0740863Y0258089D02*
X0736751Y0258089D01*
X0738350Y0256490D02*
X0742462Y0256490D01*
X0744060Y0254892D02*
X0739948Y0254892D01*
X0741547Y0253293D02*
X0745659Y0253293D01*
X0747257Y0251695D02*
X0743145Y0251695D01*
X0744744Y0250096D02*
X0748856Y0250096D01*
X0750454Y0248498D02*
X0746343Y0248498D01*
X0747941Y0246899D02*
X0752053Y0246899D01*
X0753651Y0245301D02*
X0749540Y0245301D01*
X0749048Y0242398D02*
X0768501Y0242398D01*
X0775312Y0235587D01*
X0775312Y0230587D01*
X0748816Y0204091D01*
X0748816Y0155784D01*
X0719402Y0126371D01*
X0719402Y0075300D01*
X0716370Y0079056D02*
X0711535Y0079056D01*
X0710902Y0080654D02*
X0717002Y0080654D01*
X0717002Y0082253D02*
X0710902Y0082253D01*
X0710902Y0083851D02*
X0717002Y0083851D01*
X0717002Y0085450D02*
X0710902Y0085450D01*
X0710902Y0087048D02*
X0717002Y0087048D01*
X0717002Y0088647D02*
X0710902Y0088647D01*
X0710902Y0090245D02*
X0717002Y0090245D01*
X0717002Y0091844D02*
X0710902Y0091844D01*
X0710902Y0093442D02*
X0717002Y0093442D01*
X0717002Y0095041D02*
X0710902Y0095041D01*
X0710902Y0096639D02*
X0717002Y0096639D01*
X0717002Y0098238D02*
X0710902Y0098238D01*
X0710902Y0099836D02*
X0717002Y0099836D01*
X0717002Y0101435D02*
X0710902Y0101435D01*
X0711270Y0103033D02*
X0717002Y0103033D01*
X0717002Y0104632D02*
X0712868Y0104632D01*
X0714467Y0106230D02*
X0717002Y0106230D01*
X0717002Y0107829D02*
X0715686Y0107829D01*
X0715783Y0109427D02*
X0717002Y0109427D01*
X0717002Y0111026D02*
X0715783Y0111026D01*
X0715783Y0112624D02*
X0717002Y0112624D01*
X0717002Y0114223D02*
X0715783Y0114223D01*
X0715783Y0115821D02*
X0717002Y0115821D01*
X0717002Y0117420D02*
X0715783Y0117420D01*
X0715783Y0119018D02*
X0717002Y0119018D01*
X0717002Y0120617D02*
X0715783Y0120617D01*
X0715783Y0122216D02*
X0717002Y0122216D01*
X0717002Y0123814D02*
X0715783Y0123814D01*
X0715783Y0125413D02*
X0717002Y0125413D01*
X0717070Y0127011D02*
X0715783Y0127011D01*
X0715783Y0128610D02*
X0718247Y0128610D01*
X0719845Y0130208D02*
X0715783Y0130208D01*
X0715783Y0131807D02*
X0721444Y0131807D01*
X0723042Y0133405D02*
X0715783Y0133405D01*
X0715783Y0135004D02*
X0724641Y0135004D01*
X0726239Y0136602D02*
X0715783Y0136602D01*
X0715783Y0138201D02*
X0727838Y0138201D01*
X0729436Y0139799D02*
X0715783Y0139799D01*
X0715783Y0141398D02*
X0731035Y0141398D01*
X0732633Y0142996D02*
X0715783Y0142996D01*
X0715783Y0144595D02*
X0723656Y0144595D01*
X0723555Y0144636D02*
X0725308Y0143910D01*
X0727205Y0143910D01*
X0728958Y0144636D01*
X0730299Y0145978D01*
X0731025Y0147730D01*
X0731025Y0155964D01*
X0730299Y0157717D01*
X0728958Y0159058D01*
X0727205Y0159784D01*
X0725308Y0159784D01*
X0723555Y0159058D01*
X0722214Y0157717D01*
X0721488Y0155964D01*
X0721488Y0147730D01*
X0722214Y0145978D01*
X0723555Y0144636D01*
X0722125Y0146193D02*
X0715783Y0146193D01*
X0715783Y0147792D02*
X0721488Y0147792D01*
X0721488Y0149390D02*
X0715783Y0149390D01*
X0715783Y0150989D02*
X0721488Y0150989D01*
X0721488Y0152587D02*
X0715783Y0152587D01*
X0715783Y0154186D02*
X0721488Y0154186D01*
X0721488Y0155784D02*
X0715783Y0155784D01*
X0715783Y0157383D02*
X0722076Y0157383D01*
X0723478Y0158981D02*
X0715783Y0158981D01*
X0715783Y0160580D02*
X0746416Y0160580D01*
X0746416Y0162178D02*
X0715783Y0162178D01*
X0715783Y0163777D02*
X0746416Y0163777D01*
X0746416Y0165375D02*
X0715783Y0165375D01*
X0715783Y0166974D02*
X0746416Y0166974D01*
X0746416Y0168572D02*
X0716691Y0168572D01*
X0718289Y0170171D02*
X0746416Y0170171D01*
X0746416Y0171769D02*
X0719888Y0171769D01*
X0721486Y0173368D02*
X0746416Y0173368D01*
X0746416Y0174966D02*
X0723085Y0174966D01*
X0724683Y0176565D02*
X0746416Y0176565D01*
X0746416Y0178163D02*
X0726282Y0178163D01*
X0727880Y0179762D02*
X0746416Y0179762D01*
X0746416Y0181360D02*
X0729479Y0181360D01*
X0731077Y0182959D02*
X0746416Y0182959D01*
X0746416Y0184557D02*
X0739194Y0184557D01*
X0740319Y0186156D02*
X0746416Y0186156D01*
X0746416Y0187754D02*
X0740710Y0187754D01*
X0740710Y0189353D02*
X0746416Y0189353D01*
X0746416Y0190952D02*
X0740710Y0190952D01*
X0740710Y0192550D02*
X0746416Y0192550D01*
X0746416Y0194149D02*
X0742267Y0194149D01*
X0743865Y0195747D02*
X0746416Y0195747D01*
X0746416Y0197346D02*
X0745464Y0197346D01*
X0744879Y0200154D02*
X0744879Y0226650D01*
X0744879Y0222713D01*
X0747279Y0222922D02*
X0764252Y0222922D01*
X0765850Y0224520D02*
X0747279Y0224520D01*
X0747279Y0226119D02*
X0767449Y0226119D01*
X0769047Y0227717D02*
X0747279Y0227717D01*
X0747279Y0229316D02*
X0770543Y0229316D01*
X0770543Y0230914D02*
X0747279Y0230914D01*
X0747279Y0232513D02*
X0770543Y0232513D01*
X0770543Y0234111D02*
X0747279Y0234111D01*
X0747279Y0235710D02*
X0770960Y0235710D01*
X0770197Y0237308D02*
X0746632Y0237308D01*
X0745034Y0238907D02*
X0768598Y0238907D01*
X0772189Y0242104D02*
X0773275Y0242104D01*
X0773788Y0240505D02*
X0774874Y0240505D01*
X0775386Y0238907D02*
X0776472Y0238907D01*
X0776260Y0238524D02*
X0775769Y0238524D01*
X0770358Y0243935D01*
X0771444Y0243935D01*
X0777275Y0238104D01*
X0776260Y0238524D01*
X0776375Y0242398D02*
X0780312Y0238461D01*
X0779660Y0235719D02*
X0781849Y0233530D01*
X0781849Y0227645D01*
X0779660Y0225456D01*
X0780080Y0226470D01*
X0780080Y0234704D01*
X0779660Y0235719D01*
X0779664Y0235710D02*
X0779669Y0235710D01*
X0780080Y0234111D02*
X0781268Y0234111D01*
X0781849Y0232513D02*
X0780080Y0232513D01*
X0780080Y0230914D02*
X0781849Y0230914D01*
X0781849Y0229316D02*
X0780080Y0229316D01*
X0780080Y0227717D02*
X0781849Y0227717D01*
X0780323Y0226119D02*
X0779935Y0226119D01*
X0777126Y0222922D02*
X0776915Y0222922D01*
X0775527Y0221323D02*
X0769442Y0221323D01*
X0771040Y0222922D02*
X0773708Y0222922D01*
X0773929Y0219725D02*
X0767843Y0219725D01*
X0766245Y0218126D02*
X0772912Y0218126D01*
X0772912Y0216528D02*
X0764646Y0216528D01*
X0763048Y0214929D02*
X0772912Y0214929D01*
X0772912Y0213331D02*
X0761449Y0213331D01*
X0759851Y0211732D02*
X0772912Y0211732D01*
X0772912Y0210134D02*
X0758252Y0210134D01*
X0756653Y0208535D02*
X0772912Y0208535D01*
X0772912Y0206937D02*
X0755055Y0206937D01*
X0753456Y0205338D02*
X0772912Y0205338D01*
X0772912Y0203740D02*
X0751858Y0203740D01*
X0751216Y0202141D02*
X0772912Y0202141D01*
X0772912Y0200543D02*
X0751216Y0200543D01*
X0751216Y0198944D02*
X0772912Y0198944D01*
X0771528Y0197346D02*
X0751216Y0197346D01*
X0751216Y0195747D02*
X0770714Y0195747D01*
X0770543Y0194149D02*
X0751216Y0194149D01*
X0751216Y0192550D02*
X0770543Y0192550D01*
X0770543Y0190952D02*
X0751216Y0190952D01*
X0751216Y0189353D02*
X0770053Y0189353D01*
X0768455Y0187754D02*
X0751216Y0187754D01*
X0751216Y0186156D02*
X0766856Y0186156D01*
X0765258Y0184557D02*
X0751216Y0184557D01*
X0751216Y0182959D02*
X0763659Y0182959D01*
X0762061Y0181360D02*
X0751216Y0181360D01*
X0751216Y0179762D02*
X0760462Y0179762D01*
X0758864Y0178163D02*
X0751216Y0178163D01*
X0751216Y0176565D02*
X0757265Y0176565D01*
X0755667Y0174966D02*
X0751216Y0174966D01*
X0751216Y0173368D02*
X0754412Y0173368D01*
X0754290Y0171769D02*
X0751216Y0171769D01*
X0751216Y0170171D02*
X0754290Y0170171D01*
X0754290Y0168572D02*
X0751216Y0168572D01*
X0751216Y0166974D02*
X0754290Y0166974D01*
X0754290Y0165375D02*
X0751216Y0165375D01*
X0751216Y0163777D02*
X0754290Y0163777D01*
X0754290Y0162178D02*
X0751216Y0162178D01*
X0751216Y0160580D02*
X0754290Y0160580D01*
X0754290Y0158981D02*
X0751216Y0158981D01*
X0751216Y0157383D02*
X0754290Y0157383D01*
X0754290Y0155784D02*
X0751216Y0155784D01*
X0750611Y0154186D02*
X0754290Y0154186D01*
X0754290Y0152587D02*
X0749013Y0152587D01*
X0747414Y0150989D02*
X0754290Y0150989D01*
X0754290Y0149390D02*
X0745816Y0149390D01*
X0744217Y0147792D02*
X0754290Y0147792D01*
X0754290Y0146193D02*
X0742619Y0146193D01*
X0741020Y0144595D02*
X0754290Y0144595D01*
X0754290Y0142996D02*
X0739422Y0142996D01*
X0737823Y0141398D02*
X0754290Y0141398D01*
X0754290Y0139799D02*
X0736225Y0139799D01*
X0734626Y0138201D02*
X0754290Y0138201D01*
X0754290Y0136602D02*
X0733028Y0136602D01*
X0731429Y0135004D02*
X0754290Y0135004D01*
X0754290Y0133405D02*
X0729831Y0133405D01*
X0728232Y0131807D02*
X0754290Y0131807D01*
X0754290Y0130208D02*
X0726634Y0130208D01*
X0725035Y0128610D02*
X0754290Y0128610D01*
X0754290Y0127011D02*
X0723437Y0127011D01*
X0721838Y0125413D02*
X0754290Y0125413D01*
X0754290Y0123814D02*
X0721802Y0123814D01*
X0721802Y0122216D02*
X0754290Y0122216D01*
X0754290Y0120617D02*
X0721802Y0120617D01*
X0721802Y0119018D02*
X0742571Y0119018D01*
X0743240Y0119688D02*
X0741899Y0118347D01*
X0741173Y0116594D01*
X0741173Y0108360D01*
X0741899Y0106608D01*
X0743240Y0105266D01*
X0744993Y0104540D01*
X0746890Y0104540D01*
X0748643Y0105266D01*
X0749984Y0106608D01*
X0750710Y0108360D01*
X0750710Y0116594D01*
X0749984Y0118347D01*
X0748643Y0119688D01*
X0746890Y0120414D01*
X0744993Y0120414D01*
X0743240Y0119688D01*
X0741515Y0117420D02*
X0721802Y0117420D01*
X0721802Y0115821D02*
X0741173Y0115821D01*
X0741173Y0114223D02*
X0721802Y0114223D01*
X0721802Y0112624D02*
X0741173Y0112624D01*
X0741173Y0111026D02*
X0721802Y0111026D01*
X0721802Y0109427D02*
X0741173Y0109427D01*
X0741393Y0107829D02*
X0721802Y0107829D01*
X0721802Y0106230D02*
X0742276Y0106230D01*
X0744772Y0104632D02*
X0721802Y0104632D01*
X0714742Y0106506D02*
X0714742Y0106506D01*
X0713383Y0108540D02*
X0713383Y0168658D01*
X0735942Y0191217D01*
X0744879Y0200154D01*
X0741873Y0200543D02*
X0726102Y0200543D01*
X0727700Y0202141D02*
X0742479Y0202141D01*
X0742479Y0203740D02*
X0729299Y0203740D01*
X0730897Y0205338D02*
X0742479Y0205338D01*
X0742479Y0206937D02*
X0732496Y0206937D01*
X0732459Y0206899D02*
X0732459Y0206899D01*
X0734094Y0208535D02*
X0742479Y0208535D01*
X0742479Y0210134D02*
X0735693Y0210134D01*
X0737291Y0211732D02*
X0742479Y0211732D01*
X0742479Y0213331D02*
X0738342Y0213331D01*
X0738342Y0214929D02*
X0742479Y0214929D01*
X0742479Y0216528D02*
X0738342Y0216528D01*
X0738342Y0218126D02*
X0742479Y0218126D01*
X0742479Y0219725D02*
X0738342Y0219725D01*
X0738342Y0221323D02*
X0742479Y0221323D01*
X0742479Y0222922D02*
X0738342Y0222922D01*
X0739787Y0224520D02*
X0742479Y0224520D01*
X0742479Y0226119D02*
X0740564Y0226119D01*
X0740710Y0227717D02*
X0742479Y0227717D01*
X0742479Y0229316D02*
X0740710Y0229316D01*
X0740710Y0230914D02*
X0742479Y0230914D01*
X0742479Y0232513D02*
X0740710Y0232513D01*
X0740710Y0234111D02*
X0742479Y0234111D01*
X0741442Y0235710D02*
X0740294Y0235710D01*
X0739844Y0237308D02*
X0739133Y0237308D01*
X0738245Y0238907D02*
X0731016Y0238907D01*
X0729418Y0240505D02*
X0736647Y0240505D01*
X0735048Y0242104D02*
X0727819Y0242104D01*
X0726221Y0243702D02*
X0733450Y0243702D01*
X0731851Y0245301D02*
X0724622Y0245301D01*
X0723024Y0246899D02*
X0730253Y0246899D01*
X0728654Y0248498D02*
X0721425Y0248498D01*
X0719827Y0250096D02*
X0727056Y0250096D01*
X0725457Y0251695D02*
X0718228Y0251695D01*
X0716630Y0253293D02*
X0723859Y0253293D01*
X0722260Y0254892D02*
X0715031Y0254892D01*
X0713433Y0256490D02*
X0720662Y0256490D01*
X0719063Y0258089D02*
X0711834Y0258089D01*
X0710236Y0259687D02*
X0717465Y0259687D01*
X0715866Y0261286D02*
X0708637Y0261286D01*
X0707039Y0262885D02*
X0714268Y0262885D01*
X0712669Y0264483D02*
X0705440Y0264483D01*
X0703842Y0266082D02*
X0711071Y0266082D01*
X0714662Y0269279D02*
X0715380Y0269279D01*
X0714681Y0270877D02*
X0713381Y0270877D01*
X0713381Y0272476D02*
X0714681Y0272476D01*
X0714801Y0274074D02*
X0713260Y0274074D01*
X0708581Y0271965D02*
X0744879Y0235668D01*
X0744879Y0226650D01*
X0747279Y0221323D02*
X0762653Y0221323D01*
X0761055Y0219725D02*
X0747279Y0219725D01*
X0747279Y0218126D02*
X0759456Y0218126D01*
X0757858Y0216528D02*
X0747279Y0216528D01*
X0747279Y0214929D02*
X0756259Y0214929D01*
X0754661Y0213331D02*
X0747279Y0213331D01*
X0747279Y0211732D02*
X0753062Y0211732D01*
X0751464Y0210134D02*
X0747279Y0210134D01*
X0747279Y0208535D02*
X0749865Y0208535D01*
X0748267Y0206937D02*
X0747279Y0206937D01*
X0740274Y0198944D02*
X0737398Y0198944D01*
X0734485Y0198944D02*
X0724503Y0198944D01*
X0722905Y0197346D02*
X0732158Y0197346D01*
X0731344Y0195747D02*
X0721306Y0195747D01*
X0719708Y0194149D02*
X0731173Y0194149D01*
X0731173Y0192550D02*
X0718109Y0192550D01*
X0716511Y0190952D02*
X0731173Y0190952D01*
X0730683Y0189353D02*
X0714912Y0189353D01*
X0713314Y0187754D02*
X0729085Y0187754D01*
X0727486Y0186156D02*
X0711715Y0186156D01*
X0710117Y0184557D02*
X0725888Y0184557D01*
X0724289Y0182959D02*
X0708518Y0182959D01*
X0707909Y0181360D02*
X0722691Y0181360D01*
X0721092Y0179762D02*
X0707909Y0179762D01*
X0707909Y0178163D02*
X0719494Y0178163D01*
X0717895Y0176565D02*
X0707909Y0176565D01*
X0707909Y0174966D02*
X0716297Y0174966D01*
X0714698Y0173368D02*
X0707909Y0173368D01*
X0707909Y0171769D02*
X0713100Y0171769D01*
X0711501Y0170171D02*
X0707909Y0170171D01*
X0707909Y0168572D02*
X0710983Y0168572D01*
X0710983Y0166974D02*
X0707909Y0166974D01*
X0707909Y0165375D02*
X0710983Y0165375D01*
X0710983Y0163777D02*
X0707909Y0163777D01*
X0707909Y0162178D02*
X0710983Y0162178D01*
X0710983Y0160580D02*
X0707909Y0160580D01*
X0707909Y0158981D02*
X0710983Y0158981D01*
X0710983Y0157383D02*
X0707909Y0157383D01*
X0707909Y0155784D02*
X0710983Y0155784D01*
X0710983Y0154186D02*
X0707909Y0154186D01*
X0707909Y0152587D02*
X0710983Y0152587D01*
X0710983Y0150989D02*
X0707909Y0150989D01*
X0707909Y0149390D02*
X0710983Y0149390D01*
X0710983Y0147792D02*
X0707909Y0147792D01*
X0707909Y0146193D02*
X0710983Y0146193D01*
X0710983Y0144595D02*
X0707909Y0144595D01*
X0707909Y0142996D02*
X0710983Y0142996D01*
X0710983Y0141398D02*
X0707909Y0141398D01*
X0707909Y0139799D02*
X0710983Y0139799D01*
X0710983Y0138201D02*
X0707909Y0138201D01*
X0707909Y0136602D02*
X0710983Y0136602D01*
X0710983Y0135004D02*
X0707909Y0135004D01*
X0707909Y0133405D02*
X0710983Y0133405D01*
X0710983Y0131807D02*
X0707909Y0131807D01*
X0707909Y0130208D02*
X0710983Y0130208D01*
X0710983Y0128610D02*
X0707909Y0128610D01*
X0707909Y0127011D02*
X0710983Y0127011D01*
X0710983Y0125413D02*
X0707909Y0125413D01*
X0707909Y0123814D02*
X0710983Y0123814D01*
X0710983Y0122216D02*
X0707909Y0122216D01*
X0707909Y0120617D02*
X0710983Y0120617D01*
X0710983Y0119018D02*
X0707909Y0119018D01*
X0707909Y0117420D02*
X0710983Y0117420D01*
X0710983Y0115821D02*
X0707909Y0115821D01*
X0707909Y0114223D02*
X0710983Y0114223D01*
X0710983Y0112624D02*
X0707909Y0112624D01*
X0707909Y0111026D02*
X0710983Y0111026D01*
X0710876Y0109427D02*
X0707909Y0109427D01*
X0707909Y0107829D02*
X0709277Y0107829D01*
X0713383Y0108540D02*
X0708502Y0103660D01*
X0708502Y0075300D01*
X0705470Y0079056D02*
X0700635Y0079056D01*
X0700002Y0080654D02*
X0706102Y0080654D01*
X0706102Y0082253D02*
X0700002Y0082253D01*
X0700002Y0083851D02*
X0706102Y0083851D01*
X0706102Y0085450D02*
X0700002Y0085450D01*
X0700002Y0087048D02*
X0706102Y0087048D01*
X0706102Y0088647D02*
X0700002Y0088647D01*
X0700002Y0090245D02*
X0706102Y0090245D01*
X0706102Y0091844D02*
X0700002Y0091844D01*
X0700002Y0093442D02*
X0706102Y0093442D01*
X0706102Y0095041D02*
X0700002Y0095041D01*
X0700939Y0096639D02*
X0706102Y0096639D01*
X0706102Y0098238D02*
X0702537Y0098238D01*
X0704136Y0099836D02*
X0706102Y0099836D01*
X0706102Y0101435D02*
X0705734Y0101435D01*
X0705509Y0104603D02*
X0697602Y0096697D01*
X0697602Y0075300D01*
X0694570Y0079056D02*
X0689835Y0079056D01*
X0689202Y0080654D02*
X0695202Y0080654D01*
X0695202Y0082253D02*
X0689202Y0082253D01*
X0689202Y0083851D02*
X0695202Y0083851D01*
X0695202Y0085450D02*
X0689202Y0085450D01*
X0689202Y0087048D02*
X0695202Y0087048D01*
X0695202Y0088647D02*
X0689202Y0088647D01*
X0689202Y0090245D02*
X0695202Y0090245D01*
X0695202Y0091844D02*
X0689202Y0091844D01*
X0689202Y0093442D02*
X0695202Y0093442D01*
X0695202Y0095041D02*
X0689202Y0095041D01*
X0689202Y0096639D02*
X0695202Y0096639D01*
X0695749Y0098238D02*
X0689202Y0098238D01*
X0689202Y0099836D02*
X0697348Y0099836D01*
X0698946Y0101435D02*
X0689202Y0101435D01*
X0689202Y0103033D02*
X0700545Y0103033D01*
X0702143Y0104632D02*
X0697741Y0104632D01*
X0697520Y0104540D02*
X0699273Y0105266D01*
X0700614Y0106608D01*
X0701340Y0108360D01*
X0701340Y0116594D01*
X0700614Y0118347D01*
X0699273Y0119688D01*
X0697520Y0120414D01*
X0695623Y0120414D01*
X0693870Y0119688D01*
X0692529Y0118347D01*
X0691803Y0116594D01*
X0691803Y0108360D01*
X0692529Y0106608D01*
X0693870Y0105266D01*
X0695623Y0104540D01*
X0697520Y0104540D01*
X0695402Y0104632D02*
X0689202Y0104632D01*
X0689202Y0106230D02*
X0692906Y0106230D01*
X0692023Y0107829D02*
X0689202Y0107829D01*
X0689202Y0109427D02*
X0691803Y0109427D01*
X0691803Y0111026D02*
X0689202Y0111026D01*
X0689202Y0112624D02*
X0691803Y0112624D01*
X0691803Y0114223D02*
X0689202Y0114223D01*
X0689202Y0115821D02*
X0691803Y0115821D01*
X0692145Y0117420D02*
X0689202Y0117420D01*
X0689202Y0119018D02*
X0693201Y0119018D01*
X0689202Y0120617D02*
X0703109Y0120617D01*
X0703109Y0119018D02*
X0699942Y0119018D01*
X0700998Y0117420D02*
X0703109Y0117420D01*
X0703109Y0115821D02*
X0701340Y0115821D01*
X0701340Y0114223D02*
X0703109Y0114223D01*
X0703109Y0112624D02*
X0701340Y0112624D01*
X0701340Y0111026D02*
X0703109Y0111026D01*
X0703109Y0109427D02*
X0701340Y0109427D01*
X0701120Y0107829D02*
X0703109Y0107829D01*
X0703109Y0106230D02*
X0700237Y0106230D01*
X0705509Y0104603D02*
X0705509Y0183343D01*
X0731099Y0208934D01*
X0735942Y0213776D01*
X0735942Y0230587D01*
X0697681Y0268848D01*
X0697681Y0271965D01*
X0702481Y0272476D02*
X0703781Y0272476D01*
X0703781Y0270877D02*
X0702481Y0270877D01*
X0701782Y0269279D02*
X0704480Y0269279D01*
X0706078Y0267680D02*
X0702243Y0267680D01*
X0698652Y0264483D02*
X0689281Y0264483D01*
X0689281Y0262885D02*
X0700250Y0262885D01*
X0701849Y0261286D02*
X0690015Y0261286D01*
X0691614Y0259687D02*
X0703447Y0259687D01*
X0705046Y0258089D02*
X0693212Y0258089D01*
X0694811Y0256490D02*
X0706644Y0256490D01*
X0708243Y0254892D02*
X0696409Y0254892D01*
X0698008Y0253293D02*
X0709841Y0253293D01*
X0711440Y0251695D02*
X0699606Y0251695D01*
X0701205Y0250096D02*
X0713038Y0250096D01*
X0714637Y0248498D02*
X0702803Y0248498D01*
X0703936Y0246899D02*
X0716235Y0246899D01*
X0717834Y0245301D02*
X0703972Y0245301D01*
X0703972Y0243702D02*
X0719433Y0243702D01*
X0721031Y0242104D02*
X0703972Y0242104D01*
X0703972Y0240505D02*
X0722630Y0240505D01*
X0724228Y0238907D02*
X0703972Y0238907D01*
X0703972Y0237308D02*
X0725827Y0237308D01*
X0727425Y0235710D02*
X0703972Y0235710D01*
X0703972Y0234111D02*
X0729024Y0234111D01*
X0730622Y0232513D02*
X0703972Y0232513D01*
X0703972Y0230914D02*
X0731173Y0230914D01*
X0731173Y0229316D02*
X0703972Y0229316D01*
X0703972Y0227717D02*
X0731173Y0227717D01*
X0731319Y0226119D02*
X0703972Y0226119D01*
X0703972Y0224520D02*
X0732097Y0224520D01*
X0733542Y0222922D02*
X0703972Y0222922D01*
X0703972Y0221323D02*
X0733542Y0221323D01*
X0733542Y0219725D02*
X0703972Y0219725D01*
X0703972Y0218126D02*
X0733542Y0218126D01*
X0733542Y0216528D02*
X0703972Y0216528D01*
X0703972Y0214929D02*
X0733542Y0214929D01*
X0732102Y0213331D02*
X0703972Y0213331D01*
X0703972Y0211732D02*
X0730503Y0211732D01*
X0729064Y0210293D02*
X0729064Y0210293D01*
X0728905Y0210134D02*
X0703972Y0210134D01*
X0703972Y0208535D02*
X0727306Y0208535D01*
X0725708Y0206937D02*
X0703972Y0206937D01*
X0703972Y0205338D02*
X0724109Y0205338D01*
X0722511Y0203740D02*
X0703972Y0203740D01*
X0703972Y0202141D02*
X0720912Y0202141D01*
X0719314Y0200543D02*
X0703972Y0200543D01*
X0703972Y0198944D02*
X0717715Y0198944D01*
X0716117Y0197346D02*
X0703972Y0197346D01*
X0703972Y0195747D02*
X0714518Y0195747D01*
X0712920Y0194149D02*
X0702897Y0194149D01*
X0701340Y0192550D02*
X0711321Y0192550D01*
X0709723Y0190952D02*
X0701340Y0190952D01*
X0701340Y0189353D02*
X0708124Y0189353D01*
X0706526Y0187754D02*
X0701340Y0187754D01*
X0700949Y0186156D02*
X0704927Y0186156D01*
X0703414Y0184557D02*
X0699824Y0184557D01*
X0698972Y0182959D02*
X0703109Y0182959D01*
X0703109Y0181360D02*
X0698972Y0181360D01*
X0698972Y0179762D02*
X0703109Y0179762D01*
X0703109Y0178163D02*
X0698972Y0178163D01*
X0698972Y0176565D02*
X0703109Y0176565D01*
X0703109Y0174966D02*
X0698972Y0174966D01*
X0698972Y0173368D02*
X0703109Y0173368D01*
X0703109Y0171769D02*
X0698972Y0171769D01*
X0698972Y0170171D02*
X0703109Y0170171D01*
X0703109Y0168572D02*
X0698972Y0168572D01*
X0698972Y0166974D02*
X0703109Y0166974D01*
X0703109Y0165375D02*
X0698972Y0165375D01*
X0698972Y0163777D02*
X0703109Y0163777D01*
X0703109Y0162178D02*
X0698972Y0162178D01*
X0698972Y0160580D02*
X0703109Y0160580D01*
X0703109Y0158981D02*
X0698972Y0158981D01*
X0698972Y0157383D02*
X0703109Y0157383D01*
X0703109Y0155784D02*
X0698972Y0155784D01*
X0698972Y0154186D02*
X0703109Y0154186D01*
X0703109Y0152587D02*
X0698972Y0152587D01*
X0698972Y0150989D02*
X0703109Y0150989D01*
X0703109Y0149390D02*
X0698972Y0149390D01*
X0698972Y0147792D02*
X0703109Y0147792D01*
X0703109Y0146193D02*
X0698972Y0146193D01*
X0698972Y0144595D02*
X0703109Y0144595D01*
X0703109Y0142996D02*
X0698972Y0142996D01*
X0698972Y0141398D02*
X0703109Y0141398D01*
X0703109Y0139799D02*
X0698972Y0139799D01*
X0698972Y0138201D02*
X0703109Y0138201D01*
X0703109Y0136602D02*
X0698972Y0136602D01*
X0698972Y0135004D02*
X0703109Y0135004D01*
X0703109Y0133405D02*
X0698334Y0133405D01*
X0696736Y0131807D02*
X0703109Y0131807D01*
X0703109Y0130208D02*
X0695137Y0130208D01*
X0693539Y0128610D02*
X0703109Y0128610D01*
X0703109Y0127011D02*
X0691940Y0127011D01*
X0691120Y0126191D02*
X0691120Y0126191D01*
X0690342Y0125413D02*
X0703109Y0125413D01*
X0703109Y0123814D02*
X0689202Y0123814D01*
X0689202Y0122216D02*
X0703109Y0122216D01*
X0691729Y0130194D02*
X0686802Y0125267D01*
X0686802Y0075300D01*
X0683770Y0079056D02*
X0678935Y0079056D01*
X0678302Y0080654D02*
X0684402Y0080654D01*
X0684402Y0082253D02*
X0678302Y0082253D01*
X0678302Y0083851D02*
X0684402Y0083851D01*
X0684402Y0085450D02*
X0678302Y0085450D01*
X0678302Y0087048D02*
X0684402Y0087048D01*
X0684402Y0088647D02*
X0678302Y0088647D01*
X0678302Y0090245D02*
X0684402Y0090245D01*
X0684402Y0091844D02*
X0678302Y0091844D01*
X0678302Y0093442D02*
X0684402Y0093442D01*
X0684402Y0095041D02*
X0678302Y0095041D01*
X0678302Y0096639D02*
X0684402Y0096639D01*
X0684402Y0098238D02*
X0678302Y0098238D01*
X0678302Y0099836D02*
X0684402Y0099836D01*
X0684402Y0101435D02*
X0678302Y0101435D01*
X0678302Y0103033D02*
X0684402Y0103033D01*
X0684402Y0104632D02*
X0678302Y0104632D01*
X0678302Y0106230D02*
X0684402Y0106230D01*
X0684402Y0107829D02*
X0678302Y0107829D01*
X0678302Y0109427D02*
X0684402Y0109427D01*
X0684402Y0111026D02*
X0678302Y0111026D01*
X0678302Y0112624D02*
X0684402Y0112624D01*
X0684402Y0114223D02*
X0678302Y0114223D01*
X0678302Y0115821D02*
X0684402Y0115821D01*
X0684402Y0117420D02*
X0678302Y0117420D01*
X0678302Y0119018D02*
X0684402Y0119018D01*
X0684402Y0120617D02*
X0678302Y0120617D01*
X0678302Y0122216D02*
X0684402Y0122216D01*
X0684402Y0123814D02*
X0678302Y0123814D01*
X0678531Y0125413D02*
X0684402Y0125413D01*
X0685152Y0127011D02*
X0680129Y0127011D01*
X0681728Y0128610D02*
X0686751Y0128610D01*
X0685443Y0127302D02*
X0685443Y0127302D01*
X0683326Y0130208D02*
X0688349Y0130208D01*
X0689948Y0131807D02*
X0684925Y0131807D01*
X0686523Y0133405D02*
X0691546Y0133405D01*
X0693145Y0135004D02*
X0687967Y0135004D01*
X0688223Y0136602D02*
X0694172Y0136602D01*
X0694172Y0138201D02*
X0688223Y0138201D01*
X0688223Y0139799D02*
X0694172Y0139799D01*
X0694172Y0141398D02*
X0688223Y0141398D01*
X0688223Y0142996D02*
X0694172Y0142996D01*
X0694172Y0144595D02*
X0688223Y0144595D01*
X0688223Y0146193D02*
X0694172Y0146193D01*
X0694172Y0147792D02*
X0688223Y0147792D01*
X0688223Y0149390D02*
X0694172Y0149390D01*
X0694172Y0150989D02*
X0688223Y0150989D01*
X0688223Y0152587D02*
X0694172Y0152587D01*
X0694172Y0154186D02*
X0688223Y0154186D01*
X0688223Y0155784D02*
X0694172Y0155784D01*
X0694172Y0157383D02*
X0688223Y0157383D01*
X0688223Y0158981D02*
X0694172Y0158981D01*
X0694172Y0160580D02*
X0688223Y0160580D01*
X0688223Y0162178D02*
X0694172Y0162178D01*
X0694172Y0163777D02*
X0688223Y0163777D01*
X0688223Y0165375D02*
X0694172Y0165375D01*
X0694172Y0166974D02*
X0688223Y0166974D01*
X0688223Y0168572D02*
X0694172Y0168572D01*
X0694172Y0170171D02*
X0688223Y0170171D01*
X0688223Y0171769D02*
X0694172Y0171769D01*
X0694172Y0173368D02*
X0688223Y0173368D01*
X0688223Y0174966D02*
X0694172Y0174966D01*
X0694172Y0176565D02*
X0688223Y0176565D01*
X0688223Y0178163D02*
X0694172Y0178163D01*
X0694172Y0179762D02*
X0688223Y0179762D01*
X0688223Y0181360D02*
X0694172Y0181360D01*
X0694172Y0182959D02*
X0688223Y0182959D01*
X0688223Y0184557D02*
X0693319Y0184557D01*
X0692194Y0186156D02*
X0688223Y0186156D01*
X0688223Y0187754D02*
X0691803Y0187754D01*
X0691803Y0189353D02*
X0688223Y0189353D01*
X0688223Y0190952D02*
X0691803Y0190952D01*
X0691803Y0192550D02*
X0688223Y0192550D01*
X0688223Y0194149D02*
X0691803Y0194149D01*
X0691974Y0195747D02*
X0688223Y0195747D01*
X0688223Y0197346D02*
X0692788Y0197346D01*
X0695115Y0198944D02*
X0689070Y0198944D01*
X0690669Y0200543D02*
X0699172Y0200543D01*
X0699172Y0202141D02*
X0692267Y0202141D01*
X0693866Y0203740D02*
X0699172Y0203740D01*
X0699172Y0205338D02*
X0695464Y0205338D01*
X0697063Y0206937D02*
X0699172Y0206937D01*
X0699172Y0208535D02*
X0698629Y0208535D01*
X0698972Y0210134D02*
X0699172Y0210134D01*
X0699172Y0211732D02*
X0698972Y0211732D01*
X0698972Y0213331D02*
X0699172Y0213331D01*
X0699172Y0214929D02*
X0698972Y0214929D01*
X0698972Y0216528D02*
X0699172Y0216528D01*
X0699172Y0218126D02*
X0698972Y0218126D01*
X0698972Y0219725D02*
X0699172Y0219725D01*
X0699172Y0221323D02*
X0698972Y0221323D01*
X0698972Y0222922D02*
X0699172Y0222922D01*
X0694172Y0222922D02*
X0667481Y0222922D01*
X0667481Y0224520D02*
X0692726Y0224520D01*
X0691949Y0226119D02*
X0667481Y0226119D01*
X0667481Y0227717D02*
X0691803Y0227717D01*
X0691803Y0229316D02*
X0667481Y0229316D01*
X0667481Y0230914D02*
X0691803Y0230914D01*
X0691803Y0232513D02*
X0667481Y0232513D01*
X0667481Y0234111D02*
X0691803Y0234111D01*
X0692219Y0235710D02*
X0667481Y0235710D01*
X0667481Y0237308D02*
X0693380Y0237308D01*
X0693795Y0238907D02*
X0667481Y0238907D01*
X0667481Y0240505D02*
X0692196Y0240505D01*
X0690598Y0242104D02*
X0667481Y0242104D01*
X0667481Y0243702D02*
X0688999Y0243702D01*
X0687401Y0245301D02*
X0667481Y0245301D01*
X0667481Y0246899D02*
X0685802Y0246899D01*
X0684204Y0248498D02*
X0667481Y0248498D01*
X0667481Y0250096D02*
X0682605Y0250096D01*
X0681007Y0251695D02*
X0667481Y0251695D01*
X0667481Y0253293D02*
X0679408Y0253293D01*
X0677810Y0254892D02*
X0667481Y0254892D01*
X0667481Y0256490D02*
X0676211Y0256490D01*
X0674613Y0258089D02*
X0667481Y0258089D01*
X0667481Y0259687D02*
X0673581Y0259687D01*
X0673581Y0261286D02*
X0667481Y0261286D01*
X0667481Y0262885D02*
X0673581Y0262885D01*
X0673581Y0264483D02*
X0667481Y0264483D01*
X0667481Y0266082D02*
X0673581Y0266082D01*
X0673478Y0267680D02*
X0667584Y0267680D01*
X0669182Y0269279D02*
X0671880Y0269279D01*
X0671181Y0270877D02*
X0669881Y0270877D01*
X0669881Y0272476D02*
X0671181Y0272476D01*
X0671301Y0274074D02*
X0669760Y0274074D01*
X0665081Y0271965D02*
X0665081Y0199097D01*
X0657201Y0191217D01*
X0657201Y0137162D01*
X0662201Y0132162D01*
X0658264Y0136099D01*
X0659601Y0138201D02*
X0683423Y0138201D01*
X0683423Y0139799D02*
X0659601Y0139799D01*
X0659601Y0141398D02*
X0683423Y0141398D01*
X0683423Y0142996D02*
X0659601Y0142996D01*
X0659601Y0144595D02*
X0674286Y0144595D01*
X0674185Y0144636D02*
X0675938Y0143910D01*
X0677835Y0143910D01*
X0679588Y0144636D01*
X0680929Y0145978D01*
X0681655Y0147730D01*
X0681655Y0155964D01*
X0680929Y0157717D01*
X0679588Y0159058D01*
X0677835Y0159784D01*
X0675938Y0159784D01*
X0674185Y0159058D01*
X0672844Y0157717D01*
X0672118Y0155964D01*
X0672118Y0147730D01*
X0672844Y0145978D01*
X0674185Y0144636D01*
X0672755Y0146193D02*
X0659601Y0146193D01*
X0659601Y0147792D02*
X0672118Y0147792D01*
X0672118Y0149390D02*
X0659601Y0149390D01*
X0659601Y0150989D02*
X0672118Y0150989D01*
X0672118Y0152587D02*
X0659601Y0152587D01*
X0659601Y0154186D02*
X0672118Y0154186D01*
X0672118Y0155784D02*
X0659601Y0155784D01*
X0659601Y0157383D02*
X0672706Y0157383D01*
X0674108Y0158981D02*
X0659601Y0158981D01*
X0659601Y0160580D02*
X0683423Y0160580D01*
X0683423Y0162178D02*
X0659601Y0162178D01*
X0659601Y0163777D02*
X0683423Y0163777D01*
X0683423Y0165375D02*
X0659601Y0165375D01*
X0659601Y0166974D02*
X0683423Y0166974D01*
X0683423Y0168572D02*
X0659601Y0168572D01*
X0659601Y0170171D02*
X0683423Y0170171D01*
X0683423Y0171769D02*
X0659601Y0171769D01*
X0659601Y0173368D02*
X0683423Y0173368D01*
X0683423Y0174966D02*
X0659601Y0174966D01*
X0659601Y0176565D02*
X0683423Y0176565D01*
X0683423Y0178163D02*
X0659601Y0178163D01*
X0659601Y0179762D02*
X0683423Y0179762D01*
X0683423Y0181360D02*
X0659601Y0181360D01*
X0659601Y0182959D02*
X0683423Y0182959D01*
X0683423Y0184557D02*
X0660454Y0184557D01*
X0661579Y0186156D02*
X0683423Y0186156D01*
X0683423Y0187754D02*
X0661970Y0187754D01*
X0661970Y0189353D02*
X0683423Y0189353D01*
X0683423Y0190952D02*
X0661970Y0190952D01*
X0661970Y0192550D02*
X0683423Y0192550D01*
X0683423Y0194149D02*
X0663527Y0194149D01*
X0665125Y0195747D02*
X0683423Y0195747D01*
X0683423Y0197346D02*
X0666724Y0197346D01*
X0667481Y0198944D02*
X0683423Y0198944D01*
X0683881Y0200543D02*
X0667481Y0200543D01*
X0667481Y0202141D02*
X0685479Y0202141D01*
X0687078Y0203740D02*
X0667481Y0203740D01*
X0667481Y0205338D02*
X0688676Y0205338D01*
X0690275Y0206937D02*
X0667481Y0206937D01*
X0667481Y0208535D02*
X0691873Y0208535D01*
X0693472Y0210134D02*
X0667481Y0210134D01*
X0667481Y0211732D02*
X0694172Y0211732D01*
X0694172Y0213331D02*
X0667481Y0213331D01*
X0667481Y0214929D02*
X0694172Y0214929D01*
X0694172Y0216528D02*
X0667481Y0216528D01*
X0667481Y0218126D02*
X0694172Y0218126D01*
X0694172Y0219725D02*
X0667481Y0219725D01*
X0667481Y0221323D02*
X0694172Y0221323D01*
X0696572Y0230587D02*
X0696572Y0209839D01*
X0691729Y0204997D01*
X0693698Y0206965D01*
X0691729Y0204997D02*
X0685823Y0199091D01*
X0685823Y0136099D01*
X0675902Y0126178D01*
X0675902Y0075300D01*
X0672870Y0079056D02*
X0668035Y0079056D01*
X0667402Y0080654D02*
X0673502Y0080654D01*
X0673502Y0082253D02*
X0667402Y0082253D01*
X0667402Y0083851D02*
X0673502Y0083851D01*
X0673502Y0085450D02*
X0667402Y0085450D01*
X0667402Y0087048D02*
X0673502Y0087048D01*
X0673502Y0088647D02*
X0667402Y0088647D01*
X0667402Y0090245D02*
X0673502Y0090245D01*
X0673502Y0091844D02*
X0667402Y0091844D01*
X0667402Y0093442D02*
X0673502Y0093442D01*
X0673502Y0095041D02*
X0667402Y0095041D01*
X0667402Y0096639D02*
X0673502Y0096639D01*
X0673502Y0098238D02*
X0667402Y0098238D01*
X0667402Y0099836D02*
X0673502Y0099836D01*
X0673502Y0101435D02*
X0667402Y0101435D01*
X0667402Y0103033D02*
X0673502Y0103033D01*
X0673502Y0104632D02*
X0667402Y0104632D01*
X0667402Y0106230D02*
X0673502Y0106230D01*
X0673502Y0107829D02*
X0667402Y0107829D01*
X0667402Y0109427D02*
X0673502Y0109427D01*
X0673502Y0111026D02*
X0667402Y0111026D01*
X0667402Y0112624D02*
X0673502Y0112624D01*
X0673502Y0114223D02*
X0667402Y0114223D01*
X0667402Y0115821D02*
X0673502Y0115821D01*
X0673502Y0117420D02*
X0667402Y0117420D01*
X0667402Y0119018D02*
X0673502Y0119018D01*
X0673502Y0120617D02*
X0667402Y0120617D01*
X0667402Y0122216D02*
X0673502Y0122216D01*
X0673502Y0123814D02*
X0667402Y0123814D01*
X0667402Y0125413D02*
X0673502Y0125413D01*
X0673650Y0127011D02*
X0667402Y0127011D01*
X0667402Y0128610D02*
X0674940Y0128610D01*
X0676538Y0130208D02*
X0667249Y0130208D01*
X0665951Y0131807D02*
X0678137Y0131807D01*
X0679735Y0133405D02*
X0664353Y0133405D01*
X0662754Y0135004D02*
X0681334Y0135004D01*
X0682932Y0136602D02*
X0661156Y0136602D01*
X0662201Y0132162D02*
X0665002Y0129361D01*
X0665002Y0075300D01*
X0661970Y0079056D02*
X0657235Y0079056D01*
X0656727Y0080654D02*
X0662602Y0080654D01*
X0662602Y0082253D02*
X0656727Y0082253D01*
X0656727Y0083851D02*
X0662602Y0083851D01*
X0662602Y0085450D02*
X0656727Y0085450D01*
X0656727Y0087048D02*
X0662602Y0087048D01*
X0662602Y0088647D02*
X0656727Y0088647D01*
X0656727Y0090245D02*
X0662602Y0090245D01*
X0662602Y0091844D02*
X0656727Y0091844D01*
X0656656Y0093442D02*
X0662602Y0093442D01*
X0662602Y0095041D02*
X0655473Y0095041D01*
X0653874Y0096639D02*
X0662602Y0096639D01*
X0662602Y0098238D02*
X0652790Y0098238D01*
X0652790Y0099836D02*
X0662602Y0099836D01*
X0662602Y0101435D02*
X0652790Y0101435D01*
X0652790Y0103033D02*
X0662602Y0103033D01*
X0662602Y0104632D02*
X0658371Y0104632D01*
X0656031Y0104632D02*
X0652790Y0104632D01*
X0652790Y0106230D02*
X0653536Y0106230D01*
X0647990Y0106230D02*
X0644283Y0106230D01*
X0645563Y0104632D02*
X0647990Y0104632D01*
X0647990Y0103033D02*
X0645702Y0103033D01*
X0645702Y0101435D02*
X0647990Y0101435D01*
X0647990Y0099836D02*
X0645702Y0099836D01*
X0645702Y0098238D02*
X0647990Y0098238D01*
X0647990Y0096639D02*
X0645702Y0096639D01*
X0645702Y0095041D02*
X0648685Y0095041D01*
X0650283Y0093442D02*
X0645702Y0093442D01*
X0645702Y0091844D02*
X0651882Y0091844D01*
X0651927Y0090245D02*
X0645702Y0090245D01*
X0645702Y0088647D02*
X0651927Y0088647D01*
X0651927Y0087048D02*
X0645702Y0087048D01*
X0645702Y0085450D02*
X0651927Y0085450D01*
X0651927Y0083851D02*
X0645702Y0083851D01*
X0645702Y0082253D02*
X0651927Y0082253D01*
X0651927Y0080654D02*
X0645702Y0080654D01*
X0646335Y0079056D02*
X0651170Y0079056D01*
X0649571Y0077457D02*
X0647933Y0077457D01*
X0648102Y0075859D02*
X0649402Y0075859D01*
X0649402Y0074260D02*
X0648102Y0074260D01*
X0647452Y0072662D02*
X0650052Y0072662D01*
X0654202Y0075300D02*
X0654327Y0075425D01*
X0654327Y0092792D01*
X0650390Y0096729D01*
X0650390Y0199091D01*
X0657201Y0205902D01*
X0657201Y0230587D01*
X0654281Y0233508D01*
X0654281Y0271965D01*
X0659081Y0272476D02*
X0660281Y0272476D01*
X0660281Y0270877D02*
X0659081Y0270877D01*
X0658382Y0269279D02*
X0660980Y0269279D01*
X0662578Y0267680D02*
X0656784Y0267680D01*
X0656681Y0266082D02*
X0662681Y0266082D01*
X0662681Y0264483D02*
X0656681Y0264483D01*
X0656681Y0262885D02*
X0662681Y0262885D01*
X0662681Y0261286D02*
X0656681Y0261286D01*
X0656681Y0259687D02*
X0662681Y0259687D01*
X0662681Y0258089D02*
X0656681Y0258089D01*
X0656681Y0256490D02*
X0662681Y0256490D01*
X0662681Y0254892D02*
X0656681Y0254892D01*
X0656681Y0253293D02*
X0662681Y0253293D01*
X0662681Y0251695D02*
X0656681Y0251695D01*
X0656681Y0250096D02*
X0662681Y0250096D01*
X0662681Y0248498D02*
X0656681Y0248498D01*
X0656681Y0246899D02*
X0662681Y0246899D01*
X0662681Y0245301D02*
X0656681Y0245301D01*
X0656681Y0243702D02*
X0662681Y0243702D01*
X0662681Y0242104D02*
X0656681Y0242104D01*
X0656681Y0240505D02*
X0662681Y0240505D01*
X0662681Y0238907D02*
X0656681Y0238907D01*
X0660393Y0237308D02*
X0662681Y0237308D01*
X0662681Y0235710D02*
X0661553Y0235710D01*
X0661970Y0234111D02*
X0662681Y0234111D01*
X0662681Y0232513D02*
X0661970Y0232513D01*
X0661970Y0230914D02*
X0662681Y0230914D01*
X0662681Y0229316D02*
X0661970Y0229316D01*
X0661970Y0227717D02*
X0662681Y0227717D01*
X0662681Y0226119D02*
X0661824Y0226119D01*
X0661046Y0224520D02*
X0662681Y0224520D01*
X0662681Y0222922D02*
X0659601Y0222922D01*
X0659601Y0221323D02*
X0662681Y0221323D01*
X0662681Y0219725D02*
X0659601Y0219725D01*
X0659601Y0218126D02*
X0662681Y0218126D01*
X0662681Y0216528D02*
X0659601Y0216528D01*
X0659601Y0214929D02*
X0662681Y0214929D01*
X0662681Y0213331D02*
X0659601Y0213331D01*
X0659601Y0211732D02*
X0662681Y0211732D01*
X0662681Y0210134D02*
X0659601Y0210134D01*
X0659601Y0208535D02*
X0662681Y0208535D01*
X0662681Y0206937D02*
X0659601Y0206937D01*
X0659565Y0205338D02*
X0662681Y0205338D01*
X0662681Y0203740D02*
X0658433Y0203740D01*
X0656834Y0202141D02*
X0662681Y0202141D01*
X0662681Y0200543D02*
X0655236Y0200543D01*
X0655745Y0198944D02*
X0653637Y0198944D01*
X0653417Y0197346D02*
X0652790Y0197346D01*
X0647990Y0197346D02*
X0627354Y0197346D01*
X0628865Y0198944D02*
X0647990Y0198944D01*
X0648448Y0200543D02*
X0629168Y0200543D01*
X0629168Y0202141D02*
X0650046Y0202141D01*
X0651645Y0203740D02*
X0629168Y0203740D01*
X0629168Y0205338D02*
X0653243Y0205338D01*
X0654801Y0206937D02*
X0629168Y0206937D01*
X0629168Y0208535D02*
X0654801Y0208535D01*
X0654801Y0210134D02*
X0629168Y0210134D01*
X0629168Y0211732D02*
X0654801Y0211732D01*
X0654801Y0213331D02*
X0629168Y0213331D01*
X0629168Y0214929D02*
X0654801Y0214929D01*
X0654801Y0216528D02*
X0629168Y0216528D01*
X0629168Y0218126D02*
X0654801Y0218126D01*
X0654801Y0219725D02*
X0629168Y0219725D01*
X0629168Y0221323D02*
X0654801Y0221323D01*
X0654801Y0222922D02*
X0629168Y0222922D01*
X0629168Y0224520D02*
X0653356Y0224520D01*
X0652579Y0226119D02*
X0629168Y0226119D01*
X0629168Y0227717D02*
X0652433Y0227717D01*
X0652433Y0229316D02*
X0629168Y0229316D01*
X0629168Y0230914D02*
X0652433Y0230914D01*
X0652095Y0232513D02*
X0629168Y0232513D01*
X0629168Y0234111D02*
X0651881Y0234111D01*
X0651881Y0235710D02*
X0629168Y0235710D01*
X0629168Y0237308D02*
X0651881Y0237308D01*
X0651881Y0238907D02*
X0629168Y0238907D01*
X0629168Y0240505D02*
X0651881Y0240505D01*
X0651881Y0242104D02*
X0629168Y0242104D01*
X0629168Y0243702D02*
X0651881Y0243702D01*
X0651881Y0245301D02*
X0629168Y0245301D01*
X0629168Y0246899D02*
X0651881Y0246899D01*
X0651881Y0248498D02*
X0629168Y0248498D01*
X0629168Y0250096D02*
X0651881Y0250096D01*
X0651881Y0251695D02*
X0629168Y0251695D01*
X0629246Y0253293D02*
X0651881Y0253293D01*
X0651881Y0254892D02*
X0630845Y0254892D01*
X0632443Y0256490D02*
X0651881Y0256490D01*
X0651881Y0258089D02*
X0634042Y0258089D01*
X0635641Y0259687D02*
X0651881Y0259687D01*
X0651881Y0261286D02*
X0637239Y0261286D01*
X0638838Y0262885D02*
X0651881Y0262885D01*
X0651881Y0264483D02*
X0640436Y0264483D01*
X0642035Y0266082D02*
X0651881Y0266082D01*
X0651778Y0267680D02*
X0645884Y0267680D01*
X0647482Y0269279D02*
X0650180Y0269279D01*
X0649481Y0270877D02*
X0648181Y0270877D01*
X0648181Y0272476D02*
X0649481Y0272476D01*
X0649601Y0274074D02*
X0648060Y0274074D01*
X0643381Y0271965D02*
X0643381Y0270822D01*
X0626768Y0254209D01*
X0626768Y0200154D01*
X0617831Y0191217D01*
X0630705Y0178343D01*
X0630705Y0116414D01*
X0643302Y0103817D01*
X0643302Y0075300D01*
X0640270Y0079056D02*
X0635435Y0079056D01*
X0634802Y0080654D02*
X0640902Y0080654D01*
X0640902Y0082253D02*
X0634802Y0082253D01*
X0634802Y0083851D02*
X0640902Y0083851D01*
X0640902Y0085450D02*
X0634802Y0085450D01*
X0634802Y0087048D02*
X0640902Y0087048D01*
X0640902Y0088647D02*
X0634802Y0088647D01*
X0634802Y0090245D02*
X0640902Y0090245D01*
X0640902Y0091844D02*
X0634802Y0091844D01*
X0634802Y0093442D02*
X0640902Y0093442D01*
X0640902Y0095041D02*
X0634802Y0095041D01*
X0634802Y0096639D02*
X0640902Y0096639D01*
X0640902Y0098238D02*
X0634802Y0098238D01*
X0634641Y0099836D02*
X0640902Y0099836D01*
X0640902Y0101435D02*
X0633331Y0101435D01*
X0631732Y0103033D02*
X0640692Y0103033D01*
X0639094Y0104632D02*
X0630134Y0104632D01*
X0629168Y0106230D02*
X0637495Y0106230D01*
X0635897Y0107829D02*
X0629168Y0107829D01*
X0629168Y0109427D02*
X0634298Y0109427D01*
X0632699Y0111026D02*
X0629168Y0111026D01*
X0629168Y0112624D02*
X0631101Y0112624D01*
X0629502Y0114223D02*
X0629168Y0114223D01*
X0624368Y0114223D02*
X0622600Y0114223D01*
X0622600Y0115821D02*
X0624368Y0115821D01*
X0624368Y0117420D02*
X0622258Y0117420D01*
X0622600Y0116594D02*
X0621874Y0118347D01*
X0620532Y0119688D01*
X0618780Y0120414D01*
X0616883Y0120414D01*
X0615130Y0119688D01*
X0613789Y0118347D01*
X0613063Y0116594D01*
X0613063Y0108360D01*
X0613789Y0106608D01*
X0615130Y0105266D01*
X0616883Y0104540D01*
X0618780Y0104540D01*
X0620532Y0105266D01*
X0621874Y0106608D01*
X0622600Y0108360D01*
X0622600Y0116594D01*
X0621202Y0119018D02*
X0624368Y0119018D01*
X0624368Y0120617D02*
X0594464Y0120617D01*
X0596062Y0119018D02*
X0614461Y0119018D01*
X0613405Y0117420D02*
X0597661Y0117420D01*
X0599259Y0115821D02*
X0613063Y0115821D01*
X0613063Y0114223D02*
X0600858Y0114223D01*
X0602456Y0112624D02*
X0613063Y0112624D01*
X0613063Y0111026D02*
X0604055Y0111026D01*
X0605653Y0109427D02*
X0613063Y0109427D01*
X0613283Y0107829D02*
X0607252Y0107829D01*
X0608850Y0106230D02*
X0614166Y0106230D01*
X0616661Y0104632D02*
X0610449Y0104632D01*
X0612047Y0103033D02*
X0624944Y0103033D01*
X0624368Y0104632D02*
X0619001Y0104632D01*
X0621497Y0106230D02*
X0624368Y0106230D01*
X0624368Y0107829D02*
X0622380Y0107829D01*
X0622600Y0109427D02*
X0624368Y0109427D01*
X0624368Y0111026D02*
X0622600Y0111026D01*
X0622600Y0112624D02*
X0624368Y0112624D01*
X0633105Y0117420D02*
X0647990Y0117420D01*
X0647990Y0119018D02*
X0633105Y0119018D01*
X0633105Y0120617D02*
X0647990Y0120617D01*
X0647990Y0122216D02*
X0633105Y0122216D01*
X0633105Y0123814D02*
X0647990Y0123814D01*
X0647990Y0125413D02*
X0633105Y0125413D01*
X0633105Y0127011D02*
X0647990Y0127011D01*
X0647990Y0128610D02*
X0633105Y0128610D01*
X0633105Y0130208D02*
X0647990Y0130208D01*
X0647990Y0131807D02*
X0633105Y0131807D01*
X0633105Y0133405D02*
X0647990Y0133405D01*
X0647990Y0135004D02*
X0633105Y0135004D01*
X0633105Y0136602D02*
X0647990Y0136602D01*
X0647990Y0138201D02*
X0633105Y0138201D01*
X0633105Y0139799D02*
X0647990Y0139799D01*
X0647990Y0141398D02*
X0633105Y0141398D01*
X0633105Y0142996D02*
X0647990Y0142996D01*
X0647990Y0144595D02*
X0640117Y0144595D01*
X0641648Y0146193D02*
X0647990Y0146193D01*
X0647990Y0147792D02*
X0642285Y0147792D01*
X0642285Y0149390D02*
X0647990Y0149390D01*
X0647990Y0150989D02*
X0642285Y0150989D01*
X0642285Y0152587D02*
X0647990Y0152587D01*
X0647990Y0154186D02*
X0642285Y0154186D01*
X0642285Y0155784D02*
X0647990Y0155784D01*
X0647990Y0157383D02*
X0641697Y0157383D01*
X0640295Y0158981D02*
X0647990Y0158981D01*
X0647990Y0160580D02*
X0633105Y0160580D01*
X0633105Y0162178D02*
X0647990Y0162178D01*
X0647990Y0163777D02*
X0633105Y0163777D01*
X0633105Y0165375D02*
X0647990Y0165375D01*
X0647990Y0166974D02*
X0633105Y0166974D01*
X0633105Y0168572D02*
X0647990Y0168572D01*
X0647990Y0170171D02*
X0633105Y0170171D01*
X0633105Y0171769D02*
X0647990Y0171769D01*
X0647990Y0173368D02*
X0633105Y0173368D01*
X0633105Y0174966D02*
X0647990Y0174966D01*
X0647990Y0176565D02*
X0633105Y0176565D01*
X0633105Y0178163D02*
X0647990Y0178163D01*
X0647990Y0179762D02*
X0632681Y0179762D01*
X0631082Y0181360D02*
X0647990Y0181360D01*
X0647990Y0182959D02*
X0629484Y0182959D01*
X0627885Y0184557D02*
X0647990Y0184557D01*
X0647990Y0186156D02*
X0626287Y0186156D01*
X0624688Y0187754D02*
X0647990Y0187754D01*
X0647990Y0189353D02*
X0623090Y0189353D01*
X0622600Y0190952D02*
X0647990Y0190952D01*
X0647990Y0192550D02*
X0622600Y0192550D01*
X0624157Y0194149D02*
X0647990Y0194149D01*
X0647990Y0195747D02*
X0625755Y0195747D01*
X0622164Y0198944D02*
X0619287Y0198944D01*
X0616375Y0198944D02*
X0614267Y0198944D01*
X0614047Y0197346D02*
X0613420Y0197346D01*
X0611020Y0199091D02*
X0611020Y0143973D01*
X0626768Y0128225D01*
X0626768Y0104603D01*
X0628737Y0102635D01*
X0632402Y0098969D01*
X0632402Y0075300D01*
X0629370Y0079056D02*
X0624535Y0079056D01*
X0623902Y0080654D02*
X0630002Y0080654D01*
X0630002Y0082253D02*
X0623902Y0082253D01*
X0623902Y0083851D02*
X0630002Y0083851D01*
X0630002Y0085450D02*
X0623902Y0085450D01*
X0623902Y0087048D02*
X0630002Y0087048D01*
X0630002Y0088647D02*
X0623902Y0088647D01*
X0623902Y0090245D02*
X0630002Y0090245D01*
X0630002Y0091844D02*
X0623237Y0091844D01*
X0621638Y0093442D02*
X0630002Y0093442D01*
X0630002Y0095041D02*
X0620040Y0095041D01*
X0618441Y0096639D02*
X0630002Y0096639D01*
X0629740Y0098238D02*
X0616843Y0098238D01*
X0615244Y0099836D02*
X0628141Y0099836D01*
X0626543Y0101435D02*
X0613646Y0101435D01*
X0611020Y0100666D02*
X0614957Y0096729D01*
X0607083Y0104603D01*
X0578461Y0133225D01*
X0578461Y0156847D01*
X0578461Y0191217D01*
X0587398Y0200154D01*
X0587398Y0230587D01*
X0587398Y0237683D01*
X0621681Y0271965D01*
X0626481Y0272476D02*
X0627681Y0272476D01*
X0627681Y0270877D02*
X0626481Y0270877D01*
X0626400Y0269279D02*
X0625782Y0269279D01*
X0624802Y0267680D02*
X0624184Y0267680D01*
X0623203Y0266082D02*
X0619191Y0266082D01*
X0617593Y0264483D02*
X0621605Y0264483D01*
X0620006Y0262885D02*
X0615994Y0262885D01*
X0614396Y0261286D02*
X0618408Y0261286D01*
X0616809Y0259687D02*
X0612797Y0259687D01*
X0611199Y0258089D02*
X0615554Y0258089D01*
X0615431Y0256490D02*
X0609600Y0256490D01*
X0608002Y0254892D02*
X0615431Y0254892D01*
X0615431Y0253293D02*
X0606403Y0253293D01*
X0604805Y0251695D02*
X0615431Y0251695D01*
X0615431Y0250096D02*
X0603206Y0250096D01*
X0601608Y0248498D02*
X0615431Y0248498D01*
X0615431Y0246899D02*
X0600009Y0246899D01*
X0598411Y0245301D02*
X0615431Y0245301D01*
X0615431Y0243702D02*
X0596812Y0243702D01*
X0595214Y0242104D02*
X0615431Y0242104D01*
X0615431Y0240505D02*
X0593615Y0240505D01*
X0592017Y0238907D02*
X0615431Y0238907D01*
X0614640Y0237308D02*
X0590418Y0237308D01*
X0589798Y0235710D02*
X0613479Y0235710D01*
X0613063Y0234111D02*
X0589798Y0234111D01*
X0589798Y0232513D02*
X0613063Y0232513D01*
X0613063Y0230914D02*
X0589798Y0230914D01*
X0589798Y0229316D02*
X0613063Y0229316D01*
X0613063Y0227717D02*
X0589798Y0227717D01*
X0589798Y0226119D02*
X0613209Y0226119D01*
X0613986Y0224520D02*
X0589798Y0224520D01*
X0589798Y0222922D02*
X0615431Y0222922D01*
X0615431Y0221323D02*
X0589798Y0221323D01*
X0589798Y0219725D02*
X0615431Y0219725D01*
X0615431Y0218126D02*
X0589798Y0218126D01*
X0589798Y0216528D02*
X0615431Y0216528D01*
X0615431Y0214929D02*
X0589798Y0214929D01*
X0589798Y0213331D02*
X0615431Y0213331D01*
X0615431Y0211732D02*
X0589798Y0211732D01*
X0589798Y0210134D02*
X0615431Y0210134D01*
X0615431Y0208535D02*
X0589798Y0208535D01*
X0589798Y0206937D02*
X0615431Y0206937D01*
X0613873Y0205338D02*
X0589798Y0205338D01*
X0589798Y0203740D02*
X0612274Y0203740D01*
X0610676Y0202141D02*
X0589798Y0202141D01*
X0589798Y0200543D02*
X0609077Y0200543D01*
X0608620Y0198944D02*
X0589495Y0198944D01*
X0588758Y0198120D02*
X0588758Y0198120D01*
X0587984Y0197346D02*
X0608620Y0197346D01*
X0608620Y0195747D02*
X0586385Y0195747D01*
X0584787Y0194149D02*
X0608620Y0194149D01*
X0608620Y0192550D02*
X0583230Y0192550D01*
X0583230Y0190952D02*
X0608620Y0190952D01*
X0608620Y0189353D02*
X0583230Y0189353D01*
X0583230Y0187754D02*
X0608620Y0187754D01*
X0608620Y0186156D02*
X0582839Y0186156D01*
X0581714Y0184557D02*
X0608620Y0184557D01*
X0608620Y0182959D02*
X0580861Y0182959D01*
X0580861Y0181360D02*
X0608620Y0181360D01*
X0608620Y0179762D02*
X0580861Y0179762D01*
X0580861Y0178163D02*
X0608620Y0178163D01*
X0608620Y0176565D02*
X0580861Y0176565D01*
X0580861Y0174966D02*
X0608620Y0174966D01*
X0608620Y0173368D02*
X0580861Y0173368D01*
X0580861Y0171769D02*
X0608620Y0171769D01*
X0608620Y0170171D02*
X0580861Y0170171D01*
X0580861Y0168572D02*
X0608620Y0168572D01*
X0608620Y0166974D02*
X0580861Y0166974D01*
X0580861Y0165375D02*
X0608620Y0165375D01*
X0608620Y0163777D02*
X0580861Y0163777D01*
X0580861Y0162178D02*
X0608620Y0162178D01*
X0608620Y0160580D02*
X0580861Y0160580D01*
X0580861Y0158981D02*
X0595368Y0158981D01*
X0595445Y0159058D02*
X0594104Y0157717D01*
X0593378Y0155964D01*
X0593378Y0147730D01*
X0594104Y0145978D01*
X0595445Y0144636D01*
X0597198Y0143910D01*
X0599095Y0143910D01*
X0600847Y0144636D01*
X0602189Y0145978D01*
X0602915Y0147730D01*
X0602915Y0155964D01*
X0602189Y0157717D01*
X0600847Y0159058D01*
X0599095Y0159784D01*
X0597198Y0159784D01*
X0595445Y0159058D01*
X0593965Y0157383D02*
X0580861Y0157383D01*
X0580861Y0155784D02*
X0593378Y0155784D01*
X0593378Y0154186D02*
X0580861Y0154186D01*
X0580861Y0152587D02*
X0593378Y0152587D01*
X0593378Y0150989D02*
X0580861Y0150989D01*
X0580861Y0149390D02*
X0593378Y0149390D01*
X0593378Y0147792D02*
X0580861Y0147792D01*
X0580861Y0146193D02*
X0594014Y0146193D01*
X0595545Y0144595D02*
X0580861Y0144595D01*
X0580861Y0142996D02*
X0608827Y0142996D01*
X0608620Y0144595D02*
X0600747Y0144595D01*
X0602278Y0146193D02*
X0608620Y0146193D01*
X0608620Y0147792D02*
X0602915Y0147792D01*
X0602915Y0149390D02*
X0608620Y0149390D01*
X0608620Y0150989D02*
X0602915Y0150989D01*
X0602915Y0152587D02*
X0608620Y0152587D01*
X0608620Y0154186D02*
X0602915Y0154186D01*
X0602915Y0155784D02*
X0608620Y0155784D01*
X0608620Y0157383D02*
X0602327Y0157383D01*
X0600924Y0158981D02*
X0608620Y0158981D01*
X0613420Y0158981D02*
X0628305Y0158981D01*
X0628305Y0157383D02*
X0613420Y0157383D01*
X0613420Y0155784D02*
X0628305Y0155784D01*
X0628305Y0154186D02*
X0613420Y0154186D01*
X0613420Y0152587D02*
X0628305Y0152587D01*
X0628305Y0150989D02*
X0613420Y0150989D01*
X0613420Y0149390D02*
X0628305Y0149390D01*
X0628305Y0147792D02*
X0613420Y0147792D01*
X0613420Y0146193D02*
X0628305Y0146193D01*
X0628305Y0144595D02*
X0613793Y0144595D01*
X0613420Y0144967D02*
X0613420Y0186237D01*
X0613789Y0185348D01*
X0615130Y0184006D01*
X0616883Y0183280D01*
X0618780Y0183280D01*
X0620532Y0184006D01*
X0621090Y0184564D01*
X0628305Y0177349D01*
X0628305Y0130082D01*
X0628128Y0130260D01*
X0613420Y0144967D01*
X0615391Y0142996D02*
X0628305Y0142996D01*
X0628305Y0141398D02*
X0616990Y0141398D01*
X0618589Y0139799D02*
X0628305Y0139799D01*
X0628305Y0138201D02*
X0620187Y0138201D01*
X0621786Y0136602D02*
X0628305Y0136602D01*
X0628305Y0135004D02*
X0623384Y0135004D01*
X0624983Y0133405D02*
X0628305Y0133405D01*
X0628305Y0131807D02*
X0626581Y0131807D01*
X0628180Y0130208D02*
X0628305Y0130208D01*
X0624368Y0127011D02*
X0588070Y0127011D01*
X0589668Y0125413D02*
X0624368Y0125413D01*
X0624368Y0123814D02*
X0591267Y0123814D01*
X0592865Y0122216D02*
X0624368Y0122216D01*
X0622990Y0128610D02*
X0586471Y0128610D01*
X0584873Y0130208D02*
X0621391Y0130208D01*
X0619793Y0131807D02*
X0583274Y0131807D01*
X0581675Y0133405D02*
X0618194Y0133405D01*
X0616596Y0135004D02*
X0580861Y0135004D01*
X0580861Y0136602D02*
X0614997Y0136602D01*
X0613399Y0138201D02*
X0580861Y0138201D01*
X0580861Y0139799D02*
X0611800Y0139799D01*
X0610202Y0141398D02*
X0580861Y0141398D01*
X0576061Y0141398D02*
X0574050Y0141398D01*
X0574050Y0142996D02*
X0576061Y0142996D01*
X0576061Y0144595D02*
X0574050Y0144595D01*
X0574050Y0146193D02*
X0576061Y0146193D01*
X0576061Y0147792D02*
X0574050Y0147792D01*
X0574050Y0149390D02*
X0576061Y0149390D01*
X0576061Y0150989D02*
X0574050Y0150989D01*
X0574050Y0152587D02*
X0576061Y0152587D01*
X0576061Y0154186D02*
X0574050Y0154186D01*
X0574050Y0155784D02*
X0576061Y0155784D01*
X0576061Y0157383D02*
X0574050Y0157383D01*
X0574050Y0158981D02*
X0576061Y0158981D01*
X0576061Y0160580D02*
X0574050Y0160580D01*
X0574050Y0162178D02*
X0576061Y0162178D01*
X0576061Y0163777D02*
X0574050Y0163777D01*
X0574050Y0165375D02*
X0576061Y0165375D01*
X0576061Y0166974D02*
X0574050Y0166974D01*
X0574050Y0168572D02*
X0576061Y0168572D01*
X0576061Y0170171D02*
X0574050Y0170171D01*
X0574050Y0171769D02*
X0576061Y0171769D01*
X0576061Y0173368D02*
X0574050Y0173368D01*
X0574050Y0174966D02*
X0576061Y0174966D01*
X0576061Y0176565D02*
X0574050Y0176565D01*
X0574050Y0178163D02*
X0576061Y0178163D01*
X0576061Y0179762D02*
X0574050Y0179762D01*
X0574050Y0181360D02*
X0576061Y0181360D01*
X0576061Y0182959D02*
X0574050Y0182959D01*
X0574050Y0184557D02*
X0575209Y0184557D01*
X0574084Y0186156D02*
X0574050Y0186156D01*
X0574050Y0197346D02*
X0574677Y0197346D01*
X0574897Y0198944D02*
X0577005Y0198944D01*
X0576496Y0200543D02*
X0584392Y0200543D01*
X0584998Y0202141D02*
X0578094Y0202141D01*
X0579693Y0203740D02*
X0584998Y0203740D01*
X0584998Y0205338D02*
X0580825Y0205338D01*
X0580861Y0206937D02*
X0584998Y0206937D01*
X0584998Y0208535D02*
X0580861Y0208535D01*
X0580861Y0210134D02*
X0584998Y0210134D01*
X0584998Y0211732D02*
X0580861Y0211732D01*
X0580861Y0213331D02*
X0584998Y0213331D01*
X0584998Y0214929D02*
X0580861Y0214929D01*
X0580861Y0216528D02*
X0584998Y0216528D01*
X0584998Y0218126D02*
X0580861Y0218126D01*
X0580861Y0219725D02*
X0584998Y0219725D01*
X0584998Y0221323D02*
X0580861Y0221323D01*
X0580861Y0222922D02*
X0584998Y0222922D01*
X0584998Y0224520D02*
X0582306Y0224520D01*
X0583084Y0226119D02*
X0584998Y0226119D01*
X0584998Y0227717D02*
X0583230Y0227717D01*
X0583230Y0229316D02*
X0584998Y0229316D01*
X0584998Y0230914D02*
X0583230Y0230914D01*
X0583230Y0232513D02*
X0584998Y0232513D01*
X0584998Y0234111D02*
X0583230Y0234111D01*
X0582813Y0235710D02*
X0584998Y0235710D01*
X0584998Y0237308D02*
X0581653Y0237308D01*
X0581117Y0238907D02*
X0585308Y0238907D01*
X0586827Y0240505D02*
X0582715Y0240505D01*
X0584314Y0242104D02*
X0588425Y0242104D01*
X0590024Y0243702D02*
X0585912Y0243702D01*
X0586511Y0244301D02*
X0586511Y0244301D01*
X0587511Y0245301D02*
X0591622Y0245301D01*
X0593221Y0246899D02*
X0589109Y0246899D01*
X0590708Y0248498D02*
X0594819Y0248498D01*
X0596418Y0250096D02*
X0592306Y0250096D01*
X0593905Y0251695D02*
X0598016Y0251695D01*
X0599615Y0253293D02*
X0595503Y0253293D01*
X0597102Y0254892D02*
X0601213Y0254892D01*
X0602812Y0256490D02*
X0598700Y0256490D01*
X0600299Y0258089D02*
X0604410Y0258089D01*
X0606009Y0259687D02*
X0601897Y0259687D01*
X0603496Y0261286D02*
X0607608Y0261286D01*
X0609206Y0262885D02*
X0605094Y0262885D01*
X0606693Y0264483D02*
X0610805Y0264483D01*
X0612403Y0266082D02*
X0608291Y0266082D01*
X0613284Y0267680D02*
X0614002Y0267680D01*
X0614882Y0269279D02*
X0615600Y0269279D01*
X0615581Y0270877D02*
X0616881Y0270877D01*
X0616881Y0272476D02*
X0615581Y0272476D01*
X0615460Y0274074D02*
X0617001Y0274074D01*
X0619873Y0278870D02*
X0623388Y0278870D01*
X0622281Y0280468D02*
X0620981Y0280468D01*
X0620981Y0282067D02*
X0622281Y0282067D01*
X0622281Y0283665D02*
X0620981Y0283665D01*
X0619671Y0285264D02*
X0623591Y0285264D01*
X0630571Y0285264D02*
X0634491Y0285264D01*
X0633181Y0283665D02*
X0631881Y0283665D01*
X0631881Y0282067D02*
X0633181Y0282067D01*
X0633181Y0280468D02*
X0631881Y0280468D01*
X0630773Y0278870D02*
X0634288Y0278870D01*
X0637160Y0274074D02*
X0638701Y0274074D01*
X0638581Y0272476D02*
X0637281Y0272476D01*
X0637281Y0270877D02*
X0638581Y0270877D01*
X0638443Y0269279D02*
X0636582Y0269279D01*
X0636845Y0267680D02*
X0634984Y0267680D01*
X0635246Y0266082D02*
X0629991Y0266082D01*
X0628393Y0264483D02*
X0633648Y0264483D01*
X0632049Y0262885D02*
X0626794Y0262885D01*
X0625196Y0261286D02*
X0630451Y0261286D01*
X0628852Y0259687D02*
X0623597Y0259687D01*
X0621999Y0258089D02*
X0627254Y0258089D01*
X0625655Y0256490D02*
X0620400Y0256490D01*
X0620231Y0254892D02*
X0624453Y0254892D01*
X0624368Y0253293D02*
X0620231Y0253293D01*
X0620231Y0251695D02*
X0624368Y0251695D01*
X0624368Y0250096D02*
X0620231Y0250096D01*
X0620231Y0248498D02*
X0624368Y0248498D01*
X0624368Y0246899D02*
X0620231Y0246899D01*
X0620231Y0245301D02*
X0624368Y0245301D01*
X0624368Y0243702D02*
X0620231Y0243702D01*
X0620231Y0242104D02*
X0624368Y0242104D01*
X0624368Y0240505D02*
X0620231Y0240505D01*
X0620231Y0238907D02*
X0624368Y0238907D01*
X0624368Y0237308D02*
X0621023Y0237308D01*
X0622183Y0235710D02*
X0624368Y0235710D01*
X0624368Y0234111D02*
X0622600Y0234111D01*
X0622600Y0232513D02*
X0624368Y0232513D01*
X0624368Y0230914D02*
X0622600Y0230914D01*
X0622600Y0229316D02*
X0624368Y0229316D01*
X0624368Y0227717D02*
X0622600Y0227717D01*
X0622454Y0226119D02*
X0624368Y0226119D01*
X0624368Y0224520D02*
X0621676Y0224520D01*
X0620231Y0222922D02*
X0624368Y0222922D01*
X0624368Y0221323D02*
X0620231Y0221323D01*
X0620231Y0219725D02*
X0624368Y0219725D01*
X0624368Y0218126D02*
X0620231Y0218126D01*
X0620231Y0216528D02*
X0624368Y0216528D01*
X0624368Y0214929D02*
X0620231Y0214929D01*
X0620231Y0213331D02*
X0624368Y0213331D01*
X0624368Y0211732D02*
X0620231Y0211732D01*
X0620231Y0210134D02*
X0624368Y0210134D01*
X0624368Y0208535D02*
X0620231Y0208535D01*
X0620231Y0206937D02*
X0624368Y0206937D01*
X0624368Y0205338D02*
X0620195Y0205338D01*
X0619063Y0203740D02*
X0624368Y0203740D01*
X0624368Y0202141D02*
X0617464Y0202141D01*
X0615866Y0200543D02*
X0623763Y0200543D01*
X0617831Y0205902D02*
X0611020Y0199091D01*
X0617831Y0205902D02*
X0617831Y0230587D01*
X0617831Y0257316D01*
X0632481Y0271965D01*
X0627801Y0274074D02*
X0626360Y0274074D01*
X0612488Y0278870D02*
X0609073Y0278870D01*
X0610181Y0280468D02*
X0611381Y0280468D01*
X0611381Y0282067D02*
X0610181Y0282067D01*
X0610181Y0283665D02*
X0611381Y0283665D01*
X0612691Y0285264D02*
X0608871Y0285264D01*
X0601891Y0285264D02*
X0597971Y0285264D01*
X0599281Y0283665D02*
X0600581Y0283665D01*
X0600581Y0282067D02*
X0599281Y0282067D01*
X0599281Y0280468D02*
X0600581Y0280468D01*
X0601688Y0278870D02*
X0598173Y0278870D01*
X0589081Y0271965D02*
X0589081Y0266020D01*
X0577270Y0254209D01*
X0562713Y0254209D01*
X0539091Y0230587D01*
X0539091Y0217713D01*
X0528343Y0206965D01*
X0528343Y0136099D01*
X0569682Y0094761D01*
X0588902Y0075540D01*
X0588902Y0075300D01*
X0584102Y0075859D02*
X0582902Y0075859D01*
X0582902Y0074260D02*
X0584102Y0074260D01*
X0584752Y0072662D02*
X0582252Y0072662D01*
X0582733Y0077457D02*
X0583591Y0077457D01*
X0581993Y0079056D02*
X0581135Y0079056D01*
X0580394Y0080654D02*
X0575371Y0080654D01*
X0573773Y0082253D02*
X0578796Y0082253D01*
X0577197Y0083851D02*
X0572174Y0083851D01*
X0570576Y0085450D02*
X0575599Y0085450D01*
X0574000Y0087048D02*
X0568977Y0087048D01*
X0567379Y0088647D02*
X0572401Y0088647D01*
X0570803Y0090245D02*
X0565780Y0090245D01*
X0563776Y0088855D02*
X0540154Y0088855D01*
X0536217Y0092792D01*
X0502753Y0126257D01*
X0499721Y0129288D01*
X0499721Y0191217D01*
X0499721Y0225587D01*
X0508658Y0234524D01*
X0504721Y0230587D01*
X0503252Y0232513D02*
X0481531Y0232513D01*
X0481531Y0234111D02*
X0504851Y0234111D01*
X0506449Y0235710D02*
X0481531Y0235710D01*
X0481531Y0237308D02*
X0508048Y0237308D01*
X0509646Y0238907D02*
X0481531Y0238907D01*
X0481531Y0240505D02*
X0511245Y0240505D01*
X0512843Y0242104D02*
X0481531Y0242104D01*
X0481531Y0243702D02*
X0514442Y0243702D01*
X0516041Y0245301D02*
X0481531Y0245301D01*
X0481531Y0246899D02*
X0517639Y0246899D01*
X0519238Y0248498D02*
X0481531Y0248498D01*
X0481531Y0250096D02*
X0520836Y0250096D01*
X0522435Y0251695D02*
X0481531Y0251695D01*
X0481531Y0253293D02*
X0524033Y0253293D01*
X0525632Y0254892D02*
X0481531Y0254892D01*
X0481531Y0256490D02*
X0527230Y0256490D01*
X0528829Y0258089D02*
X0481531Y0258089D01*
X0481531Y0259687D02*
X0530427Y0259687D01*
X0532280Y0258146D02*
X0508658Y0234524D01*
X0510041Y0232513D02*
X0534323Y0232513D01*
X0534323Y0234111D02*
X0511639Y0234111D01*
X0513238Y0235710D02*
X0534739Y0235710D01*
X0535900Y0237308D02*
X0514836Y0237308D01*
X0516435Y0238907D02*
X0544017Y0238907D01*
X0545615Y0240505D02*
X0518033Y0240505D01*
X0519632Y0242104D02*
X0547214Y0242104D01*
X0548812Y0243702D02*
X0521230Y0243702D01*
X0522829Y0245301D02*
X0550411Y0245301D01*
X0552009Y0246899D02*
X0524427Y0246899D01*
X0526026Y0248498D02*
X0553608Y0248498D01*
X0555206Y0250096D02*
X0527624Y0250096D01*
X0529223Y0251695D02*
X0556805Y0251695D01*
X0558403Y0253293D02*
X0530821Y0253293D01*
X0532420Y0254892D02*
X0560002Y0254892D01*
X0571650Y0258146D02*
X0532280Y0258146D01*
X0543864Y0267680D02*
X0481531Y0267680D01*
X0481531Y0266082D02*
X0546781Y0266082D01*
X0542263Y0269279D02*
X0481531Y0269279D01*
X0481531Y0270877D02*
X0541102Y0270877D01*
X0540179Y0272476D02*
X0481531Y0272476D01*
X0481531Y0274074D02*
X0539746Y0274074D01*
X0539381Y0275673D02*
X0481531Y0275673D01*
X0481531Y0277271D02*
X0539381Y0277271D01*
X0539482Y0278870D02*
X0481531Y0278870D01*
X0481531Y0280468D02*
X0539910Y0280468D01*
X0540532Y0282067D02*
X0481531Y0282067D01*
X0481531Y0283665D02*
X0541455Y0283665D01*
X0542874Y0285264D02*
X0481531Y0285264D01*
X0481531Y0286862D02*
X0544923Y0286862D01*
X0549063Y0288461D02*
X0481531Y0288461D01*
X0481531Y0290059D02*
X0872400Y0290059D01*
X0872400Y0288461D02*
X0802899Y0288461D01*
X0799063Y0288461D02*
X0552899Y0288461D01*
X0557039Y0286862D02*
X0794923Y0286862D01*
X0807039Y0286862D02*
X0872400Y0286862D01*
X0872400Y0285264D02*
X0809088Y0285264D01*
X0810507Y0283665D02*
X0872400Y0283665D01*
X0872400Y0282067D02*
X0811430Y0282067D01*
X0812052Y0280468D02*
X0872400Y0280468D01*
X0872400Y0278870D02*
X0812480Y0278870D01*
X0812581Y0277271D02*
X0872400Y0277271D01*
X0872400Y0275673D02*
X0812581Y0275673D01*
X0812215Y0274074D02*
X0872400Y0274074D01*
X0872400Y0272476D02*
X0811783Y0272476D01*
X0810860Y0270877D02*
X0872400Y0270877D01*
X0872400Y0269279D02*
X0809699Y0269279D01*
X0808098Y0267680D02*
X0872400Y0267680D01*
X0872400Y0266082D02*
X0805181Y0266082D01*
X0799997Y0262083D02*
X0792123Y0262083D01*
X0792123Y0258146D02*
X0788186Y0258146D01*
X0783663Y0262083D02*
X0773781Y0271965D01*
X0776862Y0275673D02*
X0789381Y0275673D01*
X0789746Y0274074D02*
X0778460Y0274074D01*
X0778581Y0272476D02*
X0790179Y0272476D01*
X0791102Y0270877D02*
X0778581Y0270877D01*
X0779862Y0269279D02*
X0792263Y0269279D01*
X0793864Y0267680D02*
X0781460Y0267680D01*
X0783059Y0266082D02*
X0796781Y0266082D01*
X0803934Y0254209D02*
X0780312Y0254209D01*
X0796968Y0251695D02*
X0803054Y0251695D01*
X0803934Y0254209D02*
X0815745Y0242398D01*
X0845157Y0259687D02*
X0872400Y0259687D01*
X0872400Y0258089D02*
X0846755Y0258089D01*
X0848354Y0256490D02*
X0872400Y0256490D01*
X0872400Y0254892D02*
X0849952Y0254892D01*
X0851551Y0253293D02*
X0872400Y0253293D01*
X0872400Y0251695D02*
X0853149Y0251695D01*
X0854748Y0250096D02*
X0872400Y0250096D01*
X0872400Y0248498D02*
X0856346Y0248498D01*
X0857945Y0246899D02*
X0872400Y0246899D01*
X0872400Y0245301D02*
X0859543Y0245301D01*
X0861142Y0243702D02*
X0872400Y0243702D01*
X0872400Y0242104D02*
X0862740Y0242104D01*
X0864339Y0240505D02*
X0872400Y0240505D01*
X0872400Y0238907D02*
X0865389Y0238907D01*
X0865389Y0237308D02*
X0872400Y0237308D01*
X0872400Y0235710D02*
X0865389Y0235710D01*
X0865389Y0234111D02*
X0872400Y0234111D01*
X0872400Y0232513D02*
X0865389Y0232513D01*
X0865389Y0230914D02*
X0872400Y0230914D01*
X0872400Y0229316D02*
X0865389Y0229316D01*
X0865389Y0227717D02*
X0872400Y0227717D01*
X0872400Y0226119D02*
X0865389Y0226119D01*
X0865389Y0224520D02*
X0872400Y0224520D01*
X0872400Y0222922D02*
X0865389Y0222922D01*
X0864993Y0221323D02*
X0872400Y0221323D01*
X0872400Y0219725D02*
X0863394Y0219725D01*
X0861796Y0218126D02*
X0872400Y0218126D01*
X0872400Y0216528D02*
X0860197Y0216528D01*
X0858599Y0214929D02*
X0872400Y0214929D01*
X0872400Y0213331D02*
X0857000Y0213331D01*
X0856452Y0211732D02*
X0872400Y0211732D01*
X0872400Y0210134D02*
X0856452Y0210134D01*
X0856452Y0208535D02*
X0872400Y0208535D01*
X0872400Y0206937D02*
X0856452Y0206937D01*
X0856452Y0205338D02*
X0872400Y0205338D01*
X0872400Y0203740D02*
X0856452Y0203740D01*
X0856452Y0202141D02*
X0872400Y0202141D01*
X0872400Y0200543D02*
X0856452Y0200543D01*
X0856452Y0198944D02*
X0872400Y0198944D01*
X0872400Y0197346D02*
X0857836Y0197346D01*
X0858649Y0195747D02*
X0872400Y0195747D01*
X0872400Y0194149D02*
X0858820Y0194149D01*
X0858820Y0192550D02*
X0872400Y0192550D01*
X0872400Y0190952D02*
X0858820Y0190952D01*
X0858820Y0189353D02*
X0872400Y0189353D01*
X0872400Y0187754D02*
X0858820Y0187754D01*
X0858429Y0186156D02*
X0872400Y0186156D01*
X0872400Y0184557D02*
X0857304Y0184557D01*
X0850800Y0184557D02*
X0850786Y0184557D01*
X0849188Y0182959D02*
X0872400Y0182959D01*
X0872400Y0181360D02*
X0847589Y0181360D01*
X0845991Y0179762D02*
X0872400Y0179762D01*
X0872400Y0178163D02*
X0845704Y0178163D01*
X0845704Y0176565D02*
X0872400Y0176565D01*
X0872400Y0174966D02*
X0845704Y0174966D01*
X0845704Y0173368D02*
X0872400Y0173368D01*
X0872400Y0171769D02*
X0845704Y0171769D01*
X0845704Y0170171D02*
X0872400Y0170171D01*
X0872400Y0168572D02*
X0845704Y0168572D01*
X0845704Y0166974D02*
X0872400Y0166974D01*
X0872400Y0165375D02*
X0845704Y0165375D01*
X0845704Y0163777D02*
X0872400Y0163777D01*
X0872400Y0162178D02*
X0845704Y0162178D01*
X0845704Y0160580D02*
X0872400Y0160580D01*
X0872400Y0158981D02*
X0856830Y0158981D01*
X0856753Y0159058D02*
X0855000Y0159784D01*
X0853103Y0159784D01*
X0851351Y0159058D01*
X0850009Y0157717D01*
X0849283Y0155964D01*
X0849283Y0147730D01*
X0850009Y0145978D01*
X0851351Y0144636D01*
X0853103Y0143910D01*
X0855000Y0143910D01*
X0856753Y0144636D01*
X0858094Y0145978D01*
X0858820Y0147730D01*
X0858820Y0155964D01*
X0858094Y0157717D01*
X0856753Y0159058D01*
X0858233Y0157383D02*
X0872400Y0157383D01*
X0872400Y0155784D02*
X0858820Y0155784D01*
X0858820Y0154186D02*
X0872400Y0154186D01*
X0872400Y0152587D02*
X0858820Y0152587D01*
X0858820Y0150989D02*
X0872400Y0150989D01*
X0872400Y0149390D02*
X0858820Y0149390D01*
X0858820Y0147792D02*
X0872400Y0147792D01*
X0872400Y0146193D02*
X0858184Y0146193D01*
X0856653Y0144595D02*
X0872400Y0144595D01*
X0872400Y0142996D02*
X0845704Y0142996D01*
X0845704Y0141398D02*
X0872400Y0141398D01*
X0872400Y0139799D02*
X0845704Y0139799D01*
X0845704Y0138201D02*
X0872400Y0138201D01*
X0872400Y0136602D02*
X0845704Y0136602D01*
X0845704Y0135004D02*
X0872400Y0135004D01*
X0872400Y0133405D02*
X0845704Y0133405D01*
X0845704Y0131807D02*
X0872400Y0131807D01*
X0872400Y0130208D02*
X0845704Y0130208D01*
X0845704Y0128610D02*
X0872400Y0128610D01*
X0872400Y0127011D02*
X0845704Y0127011D01*
X0845704Y0125413D02*
X0872400Y0125413D01*
X0872400Y0123814D02*
X0845704Y0123814D01*
X0845704Y0122216D02*
X0872400Y0122216D01*
X0872400Y0120617D02*
X0845704Y0120617D01*
X0843304Y0108540D02*
X0843304Y0180469D01*
X0854052Y0191217D01*
X0854052Y0213776D01*
X0862989Y0222713D01*
X0862989Y0230587D01*
X0872400Y0261286D02*
X0843558Y0261286D01*
X0841960Y0262885D02*
X0872400Y0262885D01*
X0872400Y0264483D02*
X0839845Y0264483D01*
X0872400Y0291658D02*
X0481531Y0291658D01*
X0481531Y0293256D02*
X0872400Y0293256D01*
X0872400Y0294855D02*
X0481531Y0294855D01*
X0481531Y0296453D02*
X0872400Y0296453D01*
X0872400Y0298052D02*
X0481531Y0298052D01*
X0481531Y0299650D02*
X0872400Y0299650D01*
X0872400Y0301249D02*
X0481531Y0301249D01*
X0481531Y0302847D02*
X0872400Y0302847D01*
X0872400Y0304446D02*
X0481531Y0304446D01*
X0481531Y0306044D02*
X0872400Y0306044D01*
X0872400Y0307643D02*
X0481531Y0307643D01*
X0481531Y0309241D02*
X0872400Y0309241D01*
X0872400Y0310840D02*
X0481531Y0310840D01*
X0481531Y0312438D02*
X0872400Y0312438D01*
X0872400Y0314037D02*
X0481531Y0314037D01*
X0481531Y0315635D02*
X0872400Y0315635D01*
X0872400Y0317234D02*
X0481531Y0317234D01*
X0481531Y0318832D02*
X0872400Y0318832D01*
X0872400Y0320431D02*
X0481531Y0320431D01*
X0562581Y0275673D02*
X0575100Y0275673D01*
X0573501Y0274074D02*
X0562215Y0274074D01*
X0561783Y0272476D02*
X0573381Y0272476D01*
X0573381Y0270877D02*
X0560860Y0270877D01*
X0559699Y0269279D02*
X0574080Y0269279D01*
X0575678Y0267680D02*
X0558098Y0267680D01*
X0555181Y0266082D02*
X0575781Y0266082D01*
X0574593Y0264483D02*
X0481531Y0264483D01*
X0481531Y0262885D02*
X0572994Y0262885D01*
X0571396Y0261286D02*
X0481531Y0261286D01*
X0481531Y0230914D02*
X0501654Y0230914D01*
X0500055Y0229316D02*
X0481531Y0229316D01*
X0481531Y0227717D02*
X0498457Y0227717D01*
X0497343Y0226119D02*
X0481531Y0226119D01*
X0481531Y0224520D02*
X0497321Y0224520D01*
X0497321Y0222922D02*
X0481531Y0222922D01*
X0481531Y0221323D02*
X0497321Y0221323D01*
X0497321Y0219725D02*
X0481531Y0219725D01*
X0481531Y0218126D02*
X0497321Y0218126D01*
X0497321Y0216528D02*
X0481531Y0216528D01*
X0481531Y0214929D02*
X0497321Y0214929D01*
X0497321Y0213331D02*
X0481531Y0213331D01*
X0481531Y0211732D02*
X0497321Y0211732D01*
X0497321Y0210134D02*
X0481531Y0210134D01*
X0481531Y0208535D02*
X0497321Y0208535D01*
X0497321Y0206937D02*
X0481531Y0206937D01*
X0481531Y0205338D02*
X0497321Y0205338D01*
X0497321Y0203740D02*
X0481531Y0203740D01*
X0481531Y0202141D02*
X0497321Y0202141D01*
X0497321Y0200543D02*
X0481531Y0200543D01*
X0481531Y0198944D02*
X0497321Y0198944D01*
X0495937Y0197346D02*
X0481531Y0197346D01*
X0481531Y0195747D02*
X0495124Y0195747D01*
X0494953Y0194149D02*
X0481531Y0194149D01*
X0481531Y0192550D02*
X0494953Y0192550D01*
X0494953Y0190952D02*
X0481531Y0190952D01*
X0481531Y0189353D02*
X0494953Y0189353D01*
X0494953Y0187754D02*
X0481531Y0187754D01*
X0481531Y0186156D02*
X0495344Y0186156D01*
X0496469Y0184557D02*
X0481531Y0184557D01*
X0481531Y0182959D02*
X0497321Y0182959D01*
X0497321Y0181360D02*
X0481531Y0181360D01*
X0481531Y0179762D02*
X0497321Y0179762D01*
X0497321Y0178163D02*
X0481531Y0178163D01*
X0481531Y0176565D02*
X0497321Y0176565D01*
X0497321Y0174966D02*
X0481531Y0174966D01*
X0481531Y0173368D02*
X0497321Y0173368D01*
X0497321Y0171769D02*
X0481531Y0171769D01*
X0481531Y0170171D02*
X0497321Y0170171D01*
X0497321Y0168572D02*
X0481531Y0168572D01*
X0481531Y0166974D02*
X0497321Y0166974D01*
X0497321Y0165375D02*
X0481531Y0165375D01*
X0481531Y0163777D02*
X0497321Y0163777D01*
X0497321Y0162178D02*
X0481531Y0162178D01*
X0481531Y0160580D02*
X0497321Y0160580D01*
X0497321Y0158981D02*
X0481531Y0158981D01*
X0481531Y0157383D02*
X0497321Y0157383D01*
X0497321Y0155784D02*
X0481531Y0155784D01*
X0481531Y0154186D02*
X0497321Y0154186D01*
X0497321Y0152587D02*
X0481531Y0152587D01*
X0481531Y0150989D02*
X0497321Y0150989D01*
X0497321Y0149390D02*
X0481531Y0149390D01*
X0481531Y0147792D02*
X0497321Y0147792D01*
X0497321Y0146193D02*
X0481531Y0146193D01*
X0481531Y0144595D02*
X0497321Y0144595D01*
X0497321Y0142996D02*
X0481531Y0142996D01*
X0481531Y0141398D02*
X0497321Y0141398D01*
X0497321Y0139799D02*
X0481531Y0139799D01*
X0481531Y0138201D02*
X0497321Y0138201D01*
X0497321Y0136602D02*
X0481531Y0136602D01*
X0481531Y0135004D02*
X0497321Y0135004D01*
X0497321Y0133405D02*
X0481531Y0133405D01*
X0481531Y0131807D02*
X0497321Y0131807D01*
X0497321Y0130208D02*
X0481531Y0130208D01*
X0481531Y0128610D02*
X0497404Y0128610D01*
X0498604Y0127011D02*
X0481531Y0127011D01*
X0481531Y0125413D02*
X0500203Y0125413D01*
X0501801Y0123814D02*
X0481531Y0123814D01*
X0481531Y0122216D02*
X0503400Y0122216D01*
X0504998Y0120617D02*
X0481531Y0120617D01*
X0481531Y0119018D02*
X0496350Y0119018D01*
X0497020Y0119688D02*
X0495679Y0118347D01*
X0494953Y0116594D01*
X0494953Y0108360D01*
X0495679Y0106608D01*
X0497020Y0105266D01*
X0498773Y0104540D01*
X0500670Y0104540D01*
X0502422Y0105266D01*
X0503764Y0106608D01*
X0504490Y0108360D01*
X0504490Y0116594D01*
X0503764Y0118347D01*
X0502422Y0119688D01*
X0500670Y0120414D01*
X0498773Y0120414D01*
X0497020Y0119688D01*
X0495295Y0117420D02*
X0481531Y0117420D01*
X0481531Y0115821D02*
X0494953Y0115821D01*
X0494953Y0114223D02*
X0481531Y0114223D01*
X0481531Y0112624D02*
X0494953Y0112624D01*
X0494953Y0111026D02*
X0481531Y0111026D01*
X0481531Y0109427D02*
X0494953Y0109427D01*
X0495173Y0107829D02*
X0481531Y0107829D01*
X0481531Y0106230D02*
X0496056Y0106230D01*
X0498551Y0104632D02*
X0481531Y0104632D01*
X0481531Y0103033D02*
X0522582Y0103033D01*
X0524180Y0101435D02*
X0481531Y0101435D01*
X0481531Y0099836D02*
X0525779Y0099836D01*
X0527377Y0098238D02*
X0481531Y0098238D01*
X0481531Y0096639D02*
X0528976Y0096639D01*
X0530574Y0095041D02*
X0481531Y0095041D01*
X0481531Y0093442D02*
X0532173Y0093442D01*
X0533771Y0091844D02*
X0481531Y0091844D01*
X0481531Y0090245D02*
X0535370Y0090245D01*
X0536968Y0088647D02*
X0481531Y0088647D01*
X0481531Y0087048D02*
X0538567Y0087048D01*
X0540154Y0088855D02*
X0536217Y0092792D01*
X0537363Y0095041D02*
X0566007Y0095041D01*
X0564409Y0096639D02*
X0535764Y0096639D01*
X0534166Y0098238D02*
X0562810Y0098238D01*
X0561212Y0099836D02*
X0532567Y0099836D01*
X0530969Y0101435D02*
X0559613Y0101435D01*
X0558015Y0103033D02*
X0529370Y0103033D01*
X0527772Y0104632D02*
X0537921Y0104632D01*
X0540261Y0104632D02*
X0556416Y0104632D01*
X0554818Y0106230D02*
X0542757Y0106230D01*
X0543640Y0107829D02*
X0553219Y0107829D01*
X0551621Y0109427D02*
X0543860Y0109427D01*
X0543860Y0111026D02*
X0550022Y0111026D01*
X0548424Y0112624D02*
X0543860Y0112624D01*
X0543860Y0114223D02*
X0546825Y0114223D01*
X0545227Y0115821D02*
X0543860Y0115821D01*
X0543628Y0117420D02*
X0543518Y0117420D01*
X0540431Y0120617D02*
X0511786Y0120617D01*
X0510188Y0122216D02*
X0538833Y0122216D01*
X0537234Y0123814D02*
X0508589Y0123814D01*
X0506991Y0125413D02*
X0535636Y0125413D01*
X0534037Y0127011D02*
X0505392Y0127011D01*
X0503794Y0128610D02*
X0532439Y0128610D01*
X0530840Y0130208D02*
X0502195Y0130208D01*
X0502121Y0131807D02*
X0529242Y0131807D01*
X0527643Y0133405D02*
X0502121Y0133405D01*
X0502121Y0135004D02*
X0526199Y0135004D01*
X0525943Y0136602D02*
X0502121Y0136602D01*
X0502121Y0138201D02*
X0525943Y0138201D01*
X0525943Y0139799D02*
X0502121Y0139799D01*
X0502121Y0141398D02*
X0525943Y0141398D01*
X0525943Y0142996D02*
X0502121Y0142996D01*
X0502121Y0144595D02*
X0516805Y0144595D01*
X0516705Y0144636D02*
X0518458Y0143910D01*
X0520355Y0143910D01*
X0522107Y0144636D01*
X0523449Y0145978D01*
X0524175Y0147730D01*
X0524175Y0155964D01*
X0523449Y0157717D01*
X0522107Y0159058D01*
X0520355Y0159784D01*
X0518458Y0159784D01*
X0516705Y0159058D01*
X0515364Y0157717D01*
X0514638Y0155964D01*
X0514638Y0147730D01*
X0515364Y0145978D01*
X0516705Y0144636D01*
X0515274Y0146193D02*
X0502121Y0146193D01*
X0502121Y0147792D02*
X0514638Y0147792D01*
X0514638Y0149390D02*
X0502121Y0149390D01*
X0502121Y0150989D02*
X0514638Y0150989D01*
X0514638Y0152587D02*
X0502121Y0152587D01*
X0502121Y0154186D02*
X0514638Y0154186D01*
X0514638Y0155784D02*
X0502121Y0155784D01*
X0502121Y0157383D02*
X0515225Y0157383D01*
X0516628Y0158981D02*
X0502121Y0158981D01*
X0502121Y0160580D02*
X0525943Y0160580D01*
X0525943Y0162178D02*
X0502121Y0162178D01*
X0502121Y0163777D02*
X0525943Y0163777D01*
X0525943Y0165375D02*
X0502121Y0165375D01*
X0502121Y0166974D02*
X0525943Y0166974D01*
X0525943Y0168572D02*
X0502121Y0168572D01*
X0502121Y0170171D02*
X0525943Y0170171D01*
X0525943Y0171769D02*
X0502121Y0171769D01*
X0502121Y0173368D02*
X0525943Y0173368D01*
X0525943Y0174966D02*
X0502121Y0174966D01*
X0502121Y0176565D02*
X0525943Y0176565D01*
X0525943Y0178163D02*
X0502121Y0178163D01*
X0502121Y0179762D02*
X0525943Y0179762D01*
X0525943Y0181360D02*
X0502121Y0181360D01*
X0502121Y0182959D02*
X0525943Y0182959D01*
X0525943Y0184557D02*
X0502973Y0184557D01*
X0504098Y0186156D02*
X0525943Y0186156D01*
X0525943Y0187754D02*
X0504490Y0187754D01*
X0504490Y0189353D02*
X0525943Y0189353D01*
X0525943Y0190952D02*
X0504490Y0190952D01*
X0504490Y0192550D02*
X0525943Y0192550D01*
X0525943Y0194149D02*
X0504490Y0194149D01*
X0504319Y0195747D02*
X0525943Y0195747D01*
X0525943Y0197346D02*
X0503505Y0197346D01*
X0502121Y0198944D02*
X0525943Y0198944D01*
X0525943Y0200543D02*
X0502121Y0200543D01*
X0502121Y0202141D02*
X0525943Y0202141D01*
X0525943Y0203740D02*
X0502121Y0203740D01*
X0502121Y0205338D02*
X0525943Y0205338D01*
X0525943Y0206937D02*
X0502121Y0206937D01*
X0502121Y0208535D02*
X0526519Y0208535D01*
X0528117Y0210134D02*
X0502121Y0210134D01*
X0502121Y0211732D02*
X0529716Y0211732D01*
X0531314Y0213331D02*
X0502121Y0213331D01*
X0502121Y0214929D02*
X0532913Y0214929D01*
X0534511Y0216528D02*
X0502121Y0216528D01*
X0502121Y0218126D02*
X0536110Y0218126D01*
X0536691Y0219725D02*
X0502121Y0219725D01*
X0502121Y0221323D02*
X0536691Y0221323D01*
X0536691Y0222922D02*
X0502121Y0222922D01*
X0502121Y0224520D02*
X0535246Y0224520D01*
X0534468Y0226119D02*
X0503647Y0226119D01*
X0505245Y0227717D02*
X0534323Y0227717D01*
X0534323Y0229316D02*
X0506844Y0229316D01*
X0508442Y0230914D02*
X0534323Y0230914D01*
X0542282Y0237308D02*
X0542418Y0237308D01*
X0578461Y0239646D02*
X0578461Y0230587D01*
X0578461Y0205902D01*
X0571650Y0199091D01*
X0571650Y0132162D01*
X0591335Y0112477D01*
X0610702Y0093110D01*
X0610702Y0075300D01*
X0613735Y0079056D02*
X0618470Y0079056D01*
X0619102Y0080654D02*
X0613102Y0080654D01*
X0613102Y0082253D02*
X0619102Y0082253D01*
X0619102Y0083851D02*
X0613102Y0083851D01*
X0613102Y0085450D02*
X0619102Y0085450D01*
X0619102Y0087048D02*
X0613102Y0087048D01*
X0613102Y0088647D02*
X0619102Y0088647D01*
X0618047Y0090245D02*
X0613102Y0090245D01*
X0613102Y0091844D02*
X0616449Y0091844D01*
X0614850Y0093442D02*
X0613102Y0093442D01*
X0613252Y0095041D02*
X0612166Y0095041D01*
X0611653Y0096639D02*
X0610567Y0096639D01*
X0610055Y0098238D02*
X0608969Y0098238D01*
X0608456Y0099836D02*
X0607370Y0099836D01*
X0606857Y0101435D02*
X0605772Y0101435D01*
X0605259Y0103033D02*
X0604173Y0103033D01*
X0603660Y0104632D02*
X0602575Y0104632D01*
X0602062Y0106230D02*
X0600976Y0106230D01*
X0600463Y0107829D02*
X0599378Y0107829D01*
X0598865Y0109427D02*
X0597779Y0109427D01*
X0597266Y0111026D02*
X0596181Y0111026D01*
X0595668Y0112624D02*
X0594582Y0112624D01*
X0594069Y0114223D02*
X0592984Y0114223D01*
X0592471Y0115821D02*
X0591385Y0115821D01*
X0590872Y0117420D02*
X0589787Y0117420D01*
X0589274Y0119018D02*
X0588188Y0119018D01*
X0587675Y0120617D02*
X0586590Y0120617D01*
X0586077Y0122216D02*
X0584991Y0122216D01*
X0584478Y0123814D02*
X0583393Y0123814D01*
X0582880Y0125413D02*
X0581794Y0125413D01*
X0581281Y0127011D02*
X0580196Y0127011D01*
X0579683Y0128610D02*
X0578597Y0128610D01*
X0578084Y0130208D02*
X0576998Y0130208D01*
X0576486Y0131807D02*
X0575400Y0131807D01*
X0576061Y0133405D02*
X0574050Y0133405D01*
X0574050Y0135004D02*
X0576061Y0135004D01*
X0576061Y0136602D02*
X0574050Y0136602D01*
X0574050Y0138201D02*
X0576061Y0138201D01*
X0576061Y0139799D02*
X0574050Y0139799D01*
X0556175Y0144595D02*
X0541491Y0144595D01*
X0541491Y0146193D02*
X0554644Y0146193D01*
X0554008Y0147792D02*
X0541491Y0147792D01*
X0541491Y0149390D02*
X0554008Y0149390D01*
X0554008Y0150989D02*
X0541491Y0150989D01*
X0541491Y0152587D02*
X0554008Y0152587D01*
X0554008Y0154186D02*
X0541491Y0154186D01*
X0541491Y0155784D02*
X0554008Y0155784D01*
X0554595Y0157383D02*
X0541491Y0157383D01*
X0541491Y0158981D02*
X0555998Y0158981D01*
X0525943Y0158981D02*
X0522184Y0158981D01*
X0523587Y0157383D02*
X0525943Y0157383D01*
X0525943Y0155784D02*
X0524175Y0155784D01*
X0524175Y0154186D02*
X0525943Y0154186D01*
X0525943Y0152587D02*
X0524175Y0152587D01*
X0524175Y0150989D02*
X0525943Y0150989D01*
X0525943Y0149390D02*
X0524175Y0149390D01*
X0524175Y0147792D02*
X0525943Y0147792D01*
X0525943Y0146193D02*
X0523538Y0146193D01*
X0522007Y0144595D02*
X0525943Y0144595D01*
X0540154Y0136099D02*
X0544091Y0132162D01*
X0535720Y0119018D02*
X0513385Y0119018D01*
X0514983Y0117420D02*
X0534665Y0117420D01*
X0534323Y0115821D02*
X0516582Y0115821D01*
X0518180Y0114223D02*
X0534323Y0114223D01*
X0534323Y0112624D02*
X0519779Y0112624D01*
X0521377Y0111026D02*
X0534323Y0111026D01*
X0534323Y0109427D02*
X0522976Y0109427D01*
X0524574Y0107829D02*
X0534543Y0107829D01*
X0535426Y0106230D02*
X0526173Y0106230D01*
X0520983Y0104632D02*
X0500891Y0104632D01*
X0503387Y0106230D02*
X0519385Y0106230D01*
X0517786Y0107829D02*
X0504270Y0107829D01*
X0504490Y0109427D02*
X0516188Y0109427D01*
X0514589Y0111026D02*
X0504490Y0111026D01*
X0504490Y0112624D02*
X0512991Y0112624D01*
X0511392Y0114223D02*
X0504490Y0114223D01*
X0504490Y0115821D02*
X0509794Y0115821D01*
X0508195Y0117420D02*
X0504148Y0117420D01*
X0503092Y0119018D02*
X0506597Y0119018D01*
X0502753Y0126257D02*
X0500784Y0128225D01*
X0559030Y0120617D02*
X0579801Y0120617D01*
X0582888Y0117420D02*
X0582998Y0117420D01*
X0583230Y0115821D02*
X0584597Y0115821D01*
X0583230Y0114223D02*
X0586195Y0114223D01*
X0587794Y0112624D02*
X0583230Y0112624D01*
X0583230Y0111026D02*
X0589392Y0111026D01*
X0590991Y0109427D02*
X0583230Y0109427D01*
X0583010Y0107829D02*
X0592589Y0107829D01*
X0594188Y0106230D02*
X0582127Y0106230D01*
X0579631Y0104632D02*
X0595786Y0104632D01*
X0614957Y0096729D02*
X0621502Y0090184D01*
X0621502Y0075300D01*
X0616702Y0075859D02*
X0615502Y0075859D01*
X0615502Y0074260D02*
X0616702Y0074260D01*
X0617352Y0072662D02*
X0614852Y0072662D01*
X0615333Y0077457D02*
X0616871Y0077457D01*
X0626133Y0077457D02*
X0627771Y0077457D01*
X0627602Y0075859D02*
X0626302Y0075859D01*
X0626302Y0074260D02*
X0627602Y0074260D01*
X0628252Y0072662D02*
X0625652Y0072662D01*
X0622780Y0067866D02*
X0620324Y0067866D01*
X0620902Y0066268D02*
X0622202Y0066268D01*
X0622202Y0064669D02*
X0620902Y0064669D01*
X0620661Y0063071D02*
X0622443Y0063071D01*
X0624042Y0061472D02*
X0619063Y0061472D01*
X0613142Y0061472D02*
X0608163Y0061472D01*
X0609761Y0063071D02*
X0611543Y0063071D01*
X0611302Y0064669D02*
X0610002Y0064669D01*
X0610002Y0066268D02*
X0611302Y0066268D01*
X0611880Y0067866D02*
X0609424Y0067866D01*
X0606552Y0072662D02*
X0603952Y0072662D01*
X0604602Y0074260D02*
X0605902Y0074260D01*
X0605902Y0075859D02*
X0604602Y0075859D01*
X0604433Y0077457D02*
X0606071Y0077457D01*
X0600980Y0067866D02*
X0598624Y0067866D01*
X0599202Y0066268D02*
X0600402Y0066268D01*
X0600402Y0064669D02*
X0599202Y0064669D01*
X0598961Y0063071D02*
X0600643Y0063071D01*
X0602242Y0061472D02*
X0597363Y0061472D01*
X0578102Y0075300D02*
X0577331Y0075300D01*
X0563776Y0088855D01*
X0563787Y0085450D02*
X0481531Y0085450D01*
X0481531Y0083851D02*
X0565386Y0083851D01*
X0566985Y0082253D02*
X0481531Y0082253D01*
X0481531Y0080654D02*
X0545636Y0080654D01*
X0543253Y0079056D02*
X0481531Y0079056D01*
X0481531Y0077457D02*
X0541655Y0077457D01*
X0540717Y0075859D02*
X0481531Y0075859D01*
X0481531Y0074260D02*
X0539954Y0074260D01*
X0539526Y0072662D02*
X0481531Y0072662D01*
X0481531Y0071063D02*
X0539302Y0071063D01*
X0539302Y0069465D02*
X0481531Y0069465D01*
X0481531Y0067866D02*
X0539545Y0067866D01*
X0539973Y0066268D02*
X0481531Y0066268D01*
X0481531Y0064669D02*
X0540759Y0064669D01*
X0541727Y0063071D02*
X0481531Y0063071D01*
X0481531Y0061472D02*
X0543325Y0061472D01*
X0545761Y0059874D02*
X0481531Y0059874D01*
X0538961Y0093442D02*
X0567606Y0093442D01*
X0569204Y0091844D02*
X0540560Y0091844D01*
X0556168Y0080654D02*
X0568583Y0080654D01*
X0570182Y0079056D02*
X0558551Y0079056D01*
X0560150Y0077457D02*
X0571780Y0077457D01*
X0573302Y0075859D02*
X0561087Y0075859D01*
X0561850Y0074260D02*
X0573302Y0074260D01*
X0573952Y0072662D02*
X0562279Y0072662D01*
X0562502Y0071063D02*
X0575551Y0071063D01*
X0556043Y0059874D02*
X0795761Y0059874D01*
X0793325Y0061472D02*
X0771263Y0061472D01*
X0772861Y0063071D02*
X0791727Y0063071D01*
X0790759Y0064669D02*
X0773102Y0064669D01*
X0773102Y0066268D02*
X0789973Y0066268D01*
X0789545Y0067866D02*
X0772524Y0067866D01*
X0769552Y0072662D02*
X0766952Y0072662D01*
X0767602Y0074260D02*
X0768902Y0074260D01*
X0768902Y0075859D02*
X0767602Y0075859D01*
X0767433Y0077457D02*
X0769071Y0077457D01*
X0770670Y0079056D02*
X0765835Y0079056D01*
X0765202Y0080654D02*
X0771302Y0080654D01*
X0771302Y0082253D02*
X0765292Y0082253D01*
X0766891Y0083851D02*
X0771914Y0083851D01*
X0773512Y0085450D02*
X0768489Y0085450D01*
X0770088Y0087048D02*
X0775111Y0087048D01*
X0776709Y0088647D02*
X0771686Y0088647D01*
X0773285Y0090245D02*
X0778308Y0090245D01*
X0780312Y0088855D02*
X0823619Y0088855D01*
X0843304Y0108540D01*
X0791331Y0106230D02*
X0773522Y0106230D01*
X0775121Y0107829D02*
X0790448Y0107829D01*
X0790228Y0109427D02*
X0776719Y0109427D01*
X0778318Y0111026D02*
X0790228Y0111026D01*
X0790228Y0112624D02*
X0779916Y0112624D01*
X0781515Y0114223D02*
X0790228Y0114223D01*
X0790228Y0115821D02*
X0783113Y0115821D01*
X0784712Y0117420D02*
X0790570Y0117420D01*
X0791626Y0119018D02*
X0786310Y0119018D01*
X0754290Y0119018D02*
X0749312Y0119018D01*
X0750368Y0117420D02*
X0754290Y0117420D01*
X0754290Y0115821D02*
X0750710Y0115821D01*
X0750710Y0114223D02*
X0754290Y0114223D01*
X0754290Y0112624D02*
X0750710Y0112624D01*
X0750710Y0111026D02*
X0754290Y0111026D01*
X0754183Y0109427D02*
X0750710Y0109427D01*
X0750490Y0107829D02*
X0752584Y0107829D01*
X0750986Y0106230D02*
X0749607Y0106230D01*
X0749387Y0104632D02*
X0747112Y0104632D01*
X0773702Y0082246D02*
X0780312Y0088855D01*
X0773702Y0082246D02*
X0773702Y0075300D01*
X0764080Y0067866D02*
X0761624Y0067866D01*
X0762202Y0066268D02*
X0763502Y0066268D01*
X0763502Y0064669D02*
X0762202Y0064669D01*
X0761961Y0063071D02*
X0763743Y0063071D01*
X0765342Y0061472D02*
X0760363Y0061472D01*
X0754442Y0061472D02*
X0749463Y0061472D01*
X0751061Y0063071D02*
X0752843Y0063071D01*
X0752602Y0064669D02*
X0751302Y0064669D01*
X0751302Y0066268D02*
X0752602Y0066268D01*
X0753180Y0067866D02*
X0750724Y0067866D01*
X0747852Y0072662D02*
X0745252Y0072662D01*
X0745902Y0074260D02*
X0747202Y0074260D01*
X0747202Y0075859D02*
X0745902Y0075859D01*
X0745733Y0077457D02*
X0747371Y0077457D01*
X0756633Y0077457D02*
X0758171Y0077457D01*
X0758002Y0075859D02*
X0756802Y0075859D01*
X0756802Y0074260D02*
X0758002Y0074260D01*
X0758652Y0072662D02*
X0756152Y0072662D01*
X0742280Y0067866D02*
X0739924Y0067866D01*
X0740502Y0066268D02*
X0741702Y0066268D01*
X0741702Y0064669D02*
X0740502Y0064669D01*
X0740261Y0063071D02*
X0741943Y0063071D01*
X0743542Y0061472D02*
X0738663Y0061472D01*
X0732742Y0061472D02*
X0727763Y0061472D01*
X0729361Y0063071D02*
X0731143Y0063071D01*
X0730902Y0064669D02*
X0729602Y0064669D01*
X0729602Y0066268D02*
X0730902Y0066268D01*
X0731480Y0067866D02*
X0729024Y0067866D01*
X0734352Y0072662D02*
X0736952Y0072662D01*
X0736302Y0074260D02*
X0735002Y0074260D01*
X0735002Y0075859D02*
X0736302Y0075859D01*
X0736471Y0077457D02*
X0734833Y0077457D01*
X0720580Y0067866D02*
X0718124Y0067866D01*
X0718702Y0066268D02*
X0720002Y0066268D01*
X0720002Y0064669D02*
X0718702Y0064669D01*
X0718461Y0063071D02*
X0720243Y0063071D01*
X0721842Y0061472D02*
X0716863Y0061472D01*
X0710942Y0061472D02*
X0706063Y0061472D01*
X0707661Y0063071D02*
X0709343Y0063071D01*
X0709102Y0064669D02*
X0707902Y0064669D01*
X0707902Y0066268D02*
X0709102Y0066268D01*
X0709680Y0067866D02*
X0707324Y0067866D01*
X0704352Y0072662D02*
X0701752Y0072662D01*
X0702402Y0074260D02*
X0703702Y0074260D01*
X0703702Y0075859D02*
X0702402Y0075859D01*
X0702233Y0077457D02*
X0703871Y0077457D01*
X0713133Y0077457D02*
X0714771Y0077457D01*
X0714602Y0075859D02*
X0713302Y0075859D01*
X0713302Y0074260D02*
X0714602Y0074260D01*
X0715252Y0072662D02*
X0712652Y0072662D01*
X0698880Y0067866D02*
X0696424Y0067866D01*
X0697002Y0066268D02*
X0698302Y0066268D01*
X0698302Y0064669D02*
X0697002Y0064669D01*
X0696761Y0063071D02*
X0698543Y0063071D01*
X0700142Y0061472D02*
X0695163Y0061472D01*
X0689242Y0061472D02*
X0684263Y0061472D01*
X0685861Y0063071D02*
X0687643Y0063071D01*
X0687402Y0064669D02*
X0686102Y0064669D01*
X0686102Y0066268D02*
X0687402Y0066268D01*
X0687980Y0067866D02*
X0685524Y0067866D01*
X0682652Y0072662D02*
X0680052Y0072662D01*
X0680702Y0074260D02*
X0682002Y0074260D01*
X0682002Y0075859D02*
X0680702Y0075859D01*
X0680533Y0077457D02*
X0682171Y0077457D01*
X0691433Y0077457D02*
X0692971Y0077457D01*
X0692802Y0075859D02*
X0691602Y0075859D01*
X0691602Y0074260D02*
X0692802Y0074260D01*
X0693452Y0072662D02*
X0690952Y0072662D01*
X0677080Y0067866D02*
X0674724Y0067866D01*
X0675302Y0066268D02*
X0676502Y0066268D01*
X0676502Y0064669D02*
X0675302Y0064669D01*
X0675061Y0063071D02*
X0676743Y0063071D01*
X0678342Y0061472D02*
X0673463Y0061472D01*
X0667542Y0061472D02*
X0662563Y0061472D01*
X0664161Y0063071D02*
X0665943Y0063071D01*
X0665702Y0064669D02*
X0664402Y0064669D01*
X0664402Y0066268D02*
X0665702Y0066268D01*
X0666280Y0067866D02*
X0663824Y0067866D01*
X0660852Y0072662D02*
X0658352Y0072662D01*
X0659002Y0074260D02*
X0660202Y0074260D01*
X0660202Y0075859D02*
X0659002Y0075859D01*
X0658833Y0077457D02*
X0660371Y0077457D01*
X0669633Y0077457D02*
X0671271Y0077457D01*
X0671102Y0075859D02*
X0669802Y0075859D01*
X0669802Y0074260D02*
X0671102Y0074260D01*
X0671752Y0072662D02*
X0669152Y0072662D01*
X0655380Y0067866D02*
X0652924Y0067866D01*
X0653502Y0066268D02*
X0654802Y0066268D01*
X0654802Y0064669D02*
X0653502Y0064669D01*
X0653261Y0063071D02*
X0655043Y0063071D01*
X0656642Y0061472D02*
X0651663Y0061472D01*
X0645742Y0061472D02*
X0640863Y0061472D01*
X0642461Y0063071D02*
X0644143Y0063071D01*
X0643902Y0064669D02*
X0642702Y0064669D01*
X0642702Y0066268D02*
X0643902Y0066268D01*
X0644480Y0067866D02*
X0642124Y0067866D01*
X0639152Y0072662D02*
X0636552Y0072662D01*
X0637202Y0074260D02*
X0638502Y0074260D01*
X0638502Y0075859D02*
X0637202Y0075859D01*
X0637033Y0077457D02*
X0638671Y0077457D01*
X0633680Y0067866D02*
X0631224Y0067866D01*
X0631802Y0066268D02*
X0633102Y0066268D01*
X0633102Y0064669D02*
X0631802Y0064669D01*
X0631561Y0063071D02*
X0633343Y0063071D01*
X0634942Y0061472D02*
X0629963Y0061472D01*
X0571650Y0092792D02*
X0569682Y0094761D01*
X0628737Y0102635D02*
X0630705Y0100666D01*
X0639488Y0111026D02*
X0647990Y0111026D01*
X0647990Y0112624D02*
X0637889Y0112624D01*
X0636291Y0114223D02*
X0647990Y0114223D01*
X0647990Y0115821D02*
X0634692Y0115821D01*
X0641086Y0109427D02*
X0647990Y0109427D01*
X0647990Y0107829D02*
X0642685Y0107829D01*
X0652790Y0119018D02*
X0653831Y0119018D01*
X0652790Y0120617D02*
X0662602Y0120617D01*
X0662602Y0119018D02*
X0660572Y0119018D01*
X0661628Y0117420D02*
X0662602Y0117420D01*
X0662602Y0115821D02*
X0661970Y0115821D01*
X0661970Y0114223D02*
X0662602Y0114223D01*
X0662602Y0112624D02*
X0661970Y0112624D01*
X0661970Y0111026D02*
X0662602Y0111026D01*
X0662602Y0109427D02*
X0661970Y0109427D01*
X0661750Y0107829D02*
X0662602Y0107829D01*
X0662602Y0106230D02*
X0660867Y0106230D01*
X0662602Y0122216D02*
X0652790Y0122216D01*
X0652790Y0123814D02*
X0662602Y0123814D01*
X0662602Y0125413D02*
X0652790Y0125413D01*
X0652790Y0127011D02*
X0662602Y0127011D01*
X0662360Y0128610D02*
X0652790Y0128610D01*
X0652790Y0130208D02*
X0660761Y0130208D01*
X0659163Y0131807D02*
X0652790Y0131807D01*
X0652790Y0133405D02*
X0657564Y0133405D01*
X0655966Y0135004D02*
X0652790Y0135004D01*
X0652790Y0136602D02*
X0654836Y0136602D01*
X0654801Y0138201D02*
X0652790Y0138201D01*
X0652790Y0139799D02*
X0654801Y0139799D01*
X0654801Y0141398D02*
X0652790Y0141398D01*
X0652790Y0142996D02*
X0654801Y0142996D01*
X0654801Y0144595D02*
X0652790Y0144595D01*
X0652790Y0146193D02*
X0654801Y0146193D01*
X0654801Y0147792D02*
X0652790Y0147792D01*
X0652790Y0149390D02*
X0654801Y0149390D01*
X0654801Y0150989D02*
X0652790Y0150989D01*
X0652790Y0152587D02*
X0654801Y0152587D01*
X0654801Y0154186D02*
X0652790Y0154186D01*
X0652790Y0155784D02*
X0654801Y0155784D01*
X0654801Y0157383D02*
X0652790Y0157383D01*
X0652790Y0158981D02*
X0654801Y0158981D01*
X0654801Y0160580D02*
X0652790Y0160580D01*
X0652790Y0162178D02*
X0654801Y0162178D01*
X0654801Y0163777D02*
X0652790Y0163777D01*
X0652790Y0165375D02*
X0654801Y0165375D01*
X0654801Y0166974D02*
X0652790Y0166974D01*
X0652790Y0168572D02*
X0654801Y0168572D01*
X0654801Y0170171D02*
X0652790Y0170171D01*
X0652790Y0171769D02*
X0654801Y0171769D01*
X0654801Y0173368D02*
X0652790Y0173368D01*
X0652790Y0174966D02*
X0654801Y0174966D01*
X0654801Y0176565D02*
X0652790Y0176565D01*
X0652790Y0178163D02*
X0654801Y0178163D01*
X0654801Y0179762D02*
X0652790Y0179762D01*
X0652790Y0181360D02*
X0654801Y0181360D01*
X0654801Y0182959D02*
X0652790Y0182959D01*
X0652790Y0184557D02*
X0653949Y0184557D01*
X0652824Y0186156D02*
X0652790Y0186156D01*
X0658658Y0198944D02*
X0661534Y0198944D01*
X0696572Y0191217D02*
X0696572Y0135036D01*
X0691729Y0130194D01*
X0689760Y0128225D01*
X0683423Y0144595D02*
X0679487Y0144595D01*
X0681018Y0146193D02*
X0683423Y0146193D01*
X0683423Y0147792D02*
X0681655Y0147792D01*
X0681655Y0149390D02*
X0683423Y0149390D01*
X0683423Y0150989D02*
X0681655Y0150989D01*
X0681655Y0152587D02*
X0683423Y0152587D01*
X0683423Y0154186D02*
X0681655Y0154186D01*
X0681655Y0155784D02*
X0683423Y0155784D01*
X0683423Y0157383D02*
X0681067Y0157383D01*
X0679665Y0158981D02*
X0683423Y0158981D01*
X0634738Y0158981D02*
X0633105Y0158981D01*
X0633105Y0157383D02*
X0633335Y0157383D01*
X0628305Y0160580D02*
X0613420Y0160580D01*
X0613420Y0162178D02*
X0628305Y0162178D01*
X0628305Y0163777D02*
X0613420Y0163777D01*
X0613420Y0165375D02*
X0628305Y0165375D01*
X0628305Y0166974D02*
X0613420Y0166974D01*
X0613420Y0168572D02*
X0628305Y0168572D01*
X0628305Y0170171D02*
X0613420Y0170171D01*
X0613420Y0171769D02*
X0628305Y0171769D01*
X0628305Y0173368D02*
X0613420Y0173368D01*
X0613420Y0174966D02*
X0628305Y0174966D01*
X0628305Y0176565D02*
X0613420Y0176565D01*
X0613420Y0178163D02*
X0627491Y0178163D01*
X0625893Y0179762D02*
X0613420Y0179762D01*
X0613420Y0181360D02*
X0624294Y0181360D01*
X0622696Y0182959D02*
X0613420Y0182959D01*
X0613420Y0184557D02*
X0614579Y0184557D01*
X0613454Y0186156D02*
X0613420Y0186156D01*
X0621084Y0184557D02*
X0621097Y0184557D01*
X0582794Y0198944D02*
X0579917Y0198944D01*
X0579821Y0203868D02*
X0579821Y0203868D01*
X0543424Y0198944D02*
X0540547Y0198944D01*
X0578461Y0239646D02*
X0586275Y0247459D01*
X0585151Y0246335D01*
X0586275Y0247459D01*
X0610781Y0271965D01*
X0586578Y0267680D02*
X0580684Y0267680D01*
X0580581Y0266082D02*
X0585748Y0266082D01*
X0584149Y0264483D02*
X0580581Y0264483D01*
X0579782Y0262885D02*
X0582551Y0262885D01*
X0580952Y0261286D02*
X0578184Y0261286D01*
X0579354Y0259687D02*
X0576585Y0259687D01*
X0577755Y0258089D02*
X0574987Y0258089D01*
X0571650Y0258146D02*
X0578181Y0264677D01*
X0578181Y0271965D01*
X0582981Y0272476D02*
X0584281Y0272476D01*
X0584281Y0270877D02*
X0582981Y0270877D01*
X0582282Y0269279D02*
X0584980Y0269279D01*
X0584401Y0274074D02*
X0582860Y0274074D01*
X0641673Y0278870D02*
X0645088Y0278870D01*
X0643981Y0280468D02*
X0642781Y0280468D01*
X0642781Y0282067D02*
X0643981Y0282067D01*
X0643981Y0283665D02*
X0642781Y0283665D01*
X0641471Y0285264D02*
X0645291Y0285264D01*
X0652271Y0285264D02*
X0656191Y0285264D01*
X0654881Y0283665D02*
X0653581Y0283665D01*
X0653581Y0282067D02*
X0654881Y0282067D01*
X0654881Y0280468D02*
X0653581Y0280468D01*
X0652473Y0278870D02*
X0655988Y0278870D01*
X0658960Y0274074D02*
X0660401Y0274074D01*
X0663373Y0278870D02*
X0666888Y0278870D01*
X0665781Y0280468D02*
X0664481Y0280468D01*
X0664481Y0282067D02*
X0665781Y0282067D01*
X0665781Y0283665D02*
X0664481Y0283665D01*
X0663171Y0285264D02*
X0667091Y0285264D01*
X0674071Y0285264D02*
X0677891Y0285264D01*
X0676581Y0283665D02*
X0675381Y0283665D01*
X0675381Y0282067D02*
X0676581Y0282067D01*
X0676581Y0280468D02*
X0675381Y0280468D01*
X0674273Y0278870D02*
X0677688Y0278870D01*
X0680660Y0274074D02*
X0682201Y0274074D01*
X0682081Y0272476D02*
X0680781Y0272476D01*
X0680781Y0270877D02*
X0682081Y0270877D01*
X0682780Y0269279D02*
X0680082Y0269279D01*
X0678484Y0267680D02*
X0684378Y0267680D01*
X0684481Y0266082D02*
X0678381Y0266082D01*
X0678381Y0264483D02*
X0684481Y0264483D01*
X0684481Y0262885D02*
X0678381Y0262885D01*
X0678381Y0261286D02*
X0684481Y0261286D01*
X0684838Y0259687D02*
X0679803Y0259687D01*
X0681401Y0258089D02*
X0686424Y0258089D01*
X0688022Y0256490D02*
X0683000Y0256490D01*
X0684598Y0254892D02*
X0689621Y0254892D01*
X0691219Y0253293D02*
X0686197Y0253293D01*
X0687795Y0251695D02*
X0692818Y0251695D01*
X0694416Y0250096D02*
X0689394Y0250096D01*
X0690992Y0248498D02*
X0696015Y0248498D01*
X0697613Y0246899D02*
X0692591Y0246899D01*
X0694189Y0245301D02*
X0699172Y0245301D01*
X0699172Y0243702D02*
X0695788Y0243702D01*
X0697386Y0242104D02*
X0699172Y0242104D01*
X0699172Y0240505D02*
X0698763Y0240505D01*
X0698972Y0238907D02*
X0699172Y0238907D01*
X0696572Y0239524D02*
X0677949Y0258146D01*
X0675981Y0260115D01*
X0675981Y0271965D01*
X0686881Y0271965D02*
X0686881Y0261026D01*
X0701572Y0246335D01*
X0701572Y0196217D01*
X0696572Y0191217D01*
X0698028Y0198944D02*
X0699172Y0198944D01*
X0731099Y0208934D02*
X0733068Y0210902D01*
X0696572Y0230587D02*
X0696572Y0239524D01*
X0724253Y0259687D02*
X0728365Y0259687D01*
X0729963Y0258089D02*
X0725851Y0258089D01*
X0727450Y0256490D02*
X0731562Y0256490D01*
X0733160Y0254892D02*
X0729048Y0254892D01*
X0730647Y0253293D02*
X0734759Y0253293D01*
X0736357Y0251695D02*
X0732245Y0251695D01*
X0733844Y0250096D02*
X0737956Y0250096D01*
X0739554Y0248498D02*
X0735443Y0248498D01*
X0737041Y0246899D02*
X0741153Y0246899D01*
X0742751Y0245301D02*
X0738640Y0245301D01*
X0740238Y0243702D02*
X0744350Y0243702D01*
X0745948Y0242104D02*
X0741837Y0242104D01*
X0743435Y0240505D02*
X0747547Y0240505D01*
X0749048Y0242398D02*
X0719481Y0271965D01*
X0716978Y0267680D02*
X0716260Y0267680D01*
X0717859Y0266082D02*
X0721971Y0266082D01*
X0723569Y0264483D02*
X0719457Y0264483D01*
X0721056Y0262885D02*
X0725168Y0262885D01*
X0726766Y0261286D02*
X0722654Y0261286D01*
X0724160Y0274074D02*
X0725701Y0274074D01*
X0728573Y0278870D02*
X0732088Y0278870D01*
X0730981Y0280468D02*
X0729681Y0280468D01*
X0729681Y0282067D02*
X0730981Y0282067D01*
X0730981Y0283665D02*
X0729681Y0283665D01*
X0728371Y0285264D02*
X0732291Y0285264D01*
X0739271Y0285264D02*
X0743191Y0285264D01*
X0741881Y0283665D02*
X0740581Y0283665D01*
X0740581Y0282067D02*
X0741881Y0282067D01*
X0741881Y0280468D02*
X0740581Y0280468D01*
X0739473Y0278870D02*
X0742988Y0278870D01*
X0745860Y0274074D02*
X0747401Y0274074D01*
X0750373Y0278870D02*
X0753788Y0278870D01*
X0752681Y0280468D02*
X0751481Y0280468D01*
X0751481Y0282067D02*
X0752681Y0282067D01*
X0752681Y0283665D02*
X0751481Y0283665D01*
X0750171Y0285264D02*
X0753991Y0285264D01*
X0767660Y0274074D02*
X0769101Y0274074D01*
X0736501Y0274074D02*
X0735060Y0274074D01*
X0721188Y0278870D02*
X0717773Y0278870D01*
X0718881Y0280468D02*
X0720081Y0280468D01*
X0720081Y0282067D02*
X0718881Y0282067D01*
X0718881Y0283665D02*
X0720081Y0283665D01*
X0721391Y0285264D02*
X0717571Y0285264D01*
X0710591Y0285264D02*
X0706671Y0285264D01*
X0707981Y0283665D02*
X0709281Y0283665D01*
X0709281Y0282067D02*
X0707981Y0282067D01*
X0707981Y0280468D02*
X0709281Y0280468D01*
X0710388Y0278870D02*
X0706873Y0278870D01*
X0703901Y0274074D02*
X0702360Y0274074D01*
X0699488Y0278870D02*
X0695973Y0278870D01*
X0697081Y0280468D02*
X0698381Y0280468D01*
X0698381Y0282067D02*
X0697081Y0282067D01*
X0697081Y0283665D02*
X0698381Y0283665D01*
X0699691Y0285264D02*
X0695771Y0285264D01*
X0688791Y0285264D02*
X0684871Y0285264D01*
X0686181Y0283665D02*
X0687481Y0283665D01*
X0687481Y0282067D02*
X0686181Y0282067D01*
X0686181Y0280468D02*
X0687481Y0280468D01*
X0688588Y0278870D02*
X0685073Y0278870D01*
X0691560Y0274074D02*
X0693001Y0274074D01*
X0692881Y0272476D02*
X0691681Y0272476D01*
X0691681Y0270877D02*
X0692881Y0270877D01*
X0693580Y0269279D02*
X0690982Y0269279D01*
X0689384Y0267680D02*
X0695178Y0267680D01*
X0697053Y0266082D02*
X0689281Y0266082D01*
X0732615Y0237308D02*
X0732750Y0237308D01*
X0770591Y0243702D02*
X0771677Y0243702D01*
X0772046Y0184557D02*
X0772059Y0184557D01*
X0732689Y0184557D02*
X0732676Y0184557D01*
X0729035Y0158981D02*
X0746416Y0158981D01*
X0746416Y0157383D02*
X0730437Y0157383D01*
X0731025Y0155784D02*
X0745422Y0155784D01*
X0743823Y0154186D02*
X0731025Y0154186D01*
X0731025Y0152587D02*
X0742224Y0152587D01*
X0740626Y0150989D02*
X0731025Y0150989D01*
X0731025Y0149390D02*
X0739027Y0149390D01*
X0737429Y0147792D02*
X0731025Y0147792D01*
X0730388Y0146193D02*
X0735830Y0146193D01*
X0734232Y0144595D02*
X0728857Y0144595D01*
X0777913Y0144595D02*
X0781849Y0144595D01*
X0781849Y0146193D02*
X0779444Y0146193D01*
X0780080Y0147792D02*
X0781849Y0147792D01*
X0781849Y0149390D02*
X0780080Y0149390D01*
X0780080Y0150989D02*
X0781849Y0150989D01*
X0781849Y0152587D02*
X0780080Y0152587D01*
X0780080Y0154186D02*
X0781849Y0154186D01*
X0781849Y0155784D02*
X0780080Y0155784D01*
X0779493Y0157383D02*
X0781849Y0157383D01*
X0781849Y0158981D02*
X0778090Y0158981D01*
X0817460Y0158981D02*
X0821219Y0158981D01*
X0821219Y0157383D02*
X0818863Y0157383D01*
X0819450Y0155784D02*
X0821219Y0155784D01*
X0821219Y0154186D02*
X0819450Y0154186D01*
X0819450Y0152587D02*
X0821219Y0152587D01*
X0821219Y0150989D02*
X0819450Y0150989D01*
X0819450Y0149390D02*
X0821219Y0149390D01*
X0821219Y0147792D02*
X0819450Y0147792D01*
X0818814Y0146193D02*
X0821219Y0146193D01*
X0821219Y0144595D02*
X0817283Y0144595D01*
X0845704Y0144595D02*
X0851451Y0144595D01*
X0849920Y0146193D02*
X0845704Y0146193D01*
X0845704Y0147792D02*
X0849283Y0147792D01*
X0849283Y0149390D02*
X0845704Y0149390D01*
X0845704Y0150989D02*
X0849283Y0150989D01*
X0849283Y0152587D02*
X0845704Y0152587D01*
X0845704Y0154186D02*
X0849283Y0154186D01*
X0849283Y0155784D02*
X0845704Y0155784D01*
X0845704Y0157383D02*
X0849871Y0157383D01*
X0851274Y0158981D02*
X0845704Y0158981D01*
X0634915Y0144595D02*
X0633105Y0144595D01*
X0633105Y0146193D02*
X0633385Y0146193D01*
M02*
