G75*
%MOIN*%
%OFA0B0*%
%FSLAX25Y25*%
%IPPOS*%
%LPD*%
%AMOC8*
5,1,8,0,0,1.08239X$1,22.5*
%
%ADD10C,0.07137*%
%ADD11OC8,0.07200*%
%ADD12C,0.20800*%
D10*
X0499721Y0109309D02*
X0499721Y0115646D01*
X0539091Y0115646D02*
X0539091Y0109309D01*
X0578461Y0109309D02*
X0578461Y0115646D01*
X0617831Y0115646D02*
X0617831Y0109309D01*
X0657201Y0109309D02*
X0657201Y0115646D01*
X0696572Y0115646D02*
X0696572Y0109309D01*
X0745942Y0109309D02*
X0745942Y0115646D01*
X0794997Y0115646D02*
X0794997Y0109309D01*
X0834367Y0109309D02*
X0834367Y0115646D01*
X0854052Y0148679D02*
X0854052Y0155016D01*
X0814682Y0155016D02*
X0814682Y0148679D01*
X0775312Y0148679D02*
X0775312Y0155016D01*
X0726257Y0155016D02*
X0726257Y0148679D01*
X0676886Y0148679D02*
X0676886Y0155016D01*
X0637516Y0155016D02*
X0637516Y0148679D01*
X0598146Y0148679D02*
X0598146Y0155016D01*
X0558776Y0155016D02*
X0558776Y0148679D01*
X0519406Y0148679D02*
X0519406Y0155016D01*
X0499721Y0188049D02*
X0499721Y0194386D01*
X0539091Y0194386D02*
X0539091Y0188049D01*
X0578461Y0188049D02*
X0578461Y0194386D01*
X0617831Y0194386D02*
X0617831Y0188049D01*
X0657201Y0188049D02*
X0657201Y0194386D01*
X0696572Y0194386D02*
X0696572Y0188049D01*
X0735942Y0188049D02*
X0735942Y0194386D01*
X0775312Y0194386D02*
X0775312Y0188049D01*
X0814682Y0188049D02*
X0814682Y0194386D01*
X0854052Y0194386D02*
X0854052Y0188049D01*
X0854052Y0227419D02*
X0854052Y0233756D01*
X0814682Y0233756D02*
X0814682Y0227419D01*
X0775312Y0227419D02*
X0775312Y0233756D01*
X0735942Y0233756D02*
X0735942Y0227419D01*
X0696572Y0227419D02*
X0696572Y0233756D01*
X0657201Y0233756D02*
X0657201Y0227419D01*
X0617831Y0227419D02*
X0617831Y0233756D01*
X0578461Y0233756D02*
X0578461Y0227419D01*
X0539091Y0227419D02*
X0539091Y0233756D01*
D11*
X0578181Y0271965D03*
X0589081Y0271965D03*
X0599881Y0271965D03*
X0610781Y0271965D03*
X0621681Y0271965D03*
X0632481Y0271965D03*
X0643381Y0271965D03*
X0654281Y0271965D03*
X0665081Y0271965D03*
X0675981Y0271965D03*
X0686881Y0271965D03*
X0697681Y0271965D03*
X0708581Y0271965D03*
X0719481Y0271965D03*
X0730381Y0271965D03*
X0741181Y0271965D03*
X0752081Y0271965D03*
X0762981Y0271965D03*
X0773781Y0271965D03*
X0768381Y0281965D03*
X0757481Y0281965D03*
X0746681Y0281965D03*
X0735781Y0281965D03*
X0724881Y0281965D03*
X0714081Y0281965D03*
X0703181Y0281965D03*
X0692281Y0281965D03*
X0681381Y0281965D03*
X0670581Y0281965D03*
X0659681Y0281965D03*
X0648781Y0281965D03*
X0637981Y0281965D03*
X0627081Y0281965D03*
X0616181Y0281965D03*
X0605381Y0281965D03*
X0594481Y0281965D03*
X0583581Y0281965D03*
X0588902Y0075300D03*
X0599802Y0075300D03*
X0610702Y0075300D03*
X0621502Y0075300D03*
X0632402Y0075300D03*
X0643302Y0075300D03*
X0654202Y0075300D03*
X0665002Y0075300D03*
X0675902Y0075300D03*
X0686802Y0075300D03*
X0697602Y0075300D03*
X0708502Y0075300D03*
X0719402Y0075300D03*
X0730202Y0075300D03*
X0741102Y0075300D03*
X0752002Y0075300D03*
X0762802Y0075300D03*
X0773702Y0075300D03*
X0768302Y0065300D03*
X0757402Y0065300D03*
X0746502Y0065300D03*
X0735702Y0065300D03*
X0724802Y0065300D03*
X0713902Y0065300D03*
X0703102Y0065300D03*
X0692202Y0065300D03*
X0681302Y0065300D03*
X0670502Y0065300D03*
X0659602Y0065300D03*
X0648702Y0065300D03*
X0637902Y0065300D03*
X0627002Y0065300D03*
X0616102Y0065300D03*
X0605202Y0065300D03*
X0594402Y0065300D03*
X0583502Y0065300D03*
X0578102Y0075300D03*
D12*
X0550902Y0070300D03*
X0800902Y0070300D03*
X0800981Y0276965D03*
X0550981Y0276965D03*
M02*
