G75*
%MOIN*%
%OFA0B0*%
%FSLAX25Y25*%
%IPPOS*%
%LPD*%
%AMOC8*
5,1,8,0,0,1.08239X$1,22.5*
%
%ADD10C,0.00200*%
%ADD11C,0.00500*%
D10*
X0065154Y0034010D02*
X0065154Y0036212D01*
X0066254Y0036212D01*
X0066621Y0035845D01*
X0066621Y0035111D01*
X0066254Y0034744D01*
X0065154Y0034744D01*
X0065888Y0034744D02*
X0066621Y0034010D01*
X0067363Y0034377D02*
X0067730Y0034010D01*
X0068464Y0034010D01*
X0068831Y0034377D01*
X0068831Y0035845D01*
X0068464Y0036212D01*
X0067730Y0036212D01*
X0067363Y0035845D01*
X0067363Y0035478D01*
X0067730Y0035111D01*
X0068831Y0035111D01*
X0069573Y0035111D02*
X0070307Y0035478D01*
X0070674Y0035478D01*
X0071041Y0035111D01*
X0071041Y0034377D01*
X0070674Y0034010D01*
X0069940Y0034010D01*
X0069573Y0034377D01*
X0069573Y0035111D02*
X0069573Y0036212D01*
X0071041Y0036212D01*
X0075741Y0040162D02*
X0075741Y0041263D01*
X0076108Y0041630D01*
X0076842Y0041630D01*
X0077209Y0041263D01*
X0077209Y0040162D01*
X0077943Y0040162D02*
X0075741Y0040162D01*
X0077209Y0040896D02*
X0077943Y0041630D01*
X0077576Y0042372D02*
X0077943Y0042739D01*
X0077943Y0043472D01*
X0077576Y0043839D01*
X0076108Y0043839D01*
X0075741Y0043472D01*
X0075741Y0042739D01*
X0076108Y0042372D01*
X0076475Y0042372D01*
X0076842Y0042739D01*
X0076842Y0043839D01*
X0077209Y0044581D02*
X0076842Y0044948D01*
X0076842Y0045682D01*
X0077209Y0046049D01*
X0077576Y0046049D01*
X0077943Y0045682D01*
X0077943Y0044948D01*
X0077576Y0044581D01*
X0077209Y0044581D01*
X0076842Y0044948D02*
X0076475Y0044581D01*
X0076108Y0044581D01*
X0075741Y0044948D01*
X0075741Y0045682D01*
X0076108Y0046049D01*
X0076475Y0046049D01*
X0076842Y0045682D01*
X0077367Y0052092D02*
X0076633Y0052826D01*
X0077000Y0052826D02*
X0075899Y0052826D01*
X0075899Y0052092D02*
X0075899Y0054294D01*
X0077000Y0054294D01*
X0077367Y0053927D01*
X0077367Y0053193D01*
X0077000Y0052826D01*
X0078109Y0052459D02*
X0078476Y0052092D01*
X0079210Y0052092D01*
X0079577Y0052459D01*
X0079577Y0053927D01*
X0079210Y0054294D01*
X0078476Y0054294D01*
X0078109Y0053927D01*
X0078109Y0053560D01*
X0078476Y0053193D01*
X0079577Y0053193D01*
X0080319Y0053560D02*
X0080686Y0053193D01*
X0081787Y0053193D01*
X0081787Y0052459D02*
X0081787Y0053927D01*
X0081420Y0054294D01*
X0080686Y0054294D01*
X0080319Y0053927D01*
X0080319Y0053560D01*
X0080319Y0052459D02*
X0080686Y0052092D01*
X0081420Y0052092D01*
X0081787Y0052459D01*
X0087144Y0056817D02*
X0087144Y0059018D01*
X0088245Y0059018D01*
X0088612Y0058651D01*
X0088612Y0057917D01*
X0088245Y0057550D01*
X0087144Y0057550D01*
X0087878Y0057550D02*
X0088612Y0056817D01*
X0089354Y0056817D02*
X0090822Y0056817D01*
X0090088Y0056817D02*
X0090088Y0059018D01*
X0089354Y0058284D01*
X0088794Y0060364D02*
X0086592Y0060364D01*
X0086592Y0061465D01*
X0086959Y0061832D01*
X0087693Y0061832D01*
X0088060Y0061465D01*
X0088060Y0060364D01*
X0088060Y0061098D02*
X0088794Y0061832D01*
X0088794Y0062574D02*
X0088794Y0064042D01*
X0088794Y0063308D02*
X0086592Y0063308D01*
X0087326Y0062574D01*
X0086959Y0064784D02*
X0086592Y0065151D01*
X0086592Y0065885D01*
X0086959Y0066252D01*
X0088427Y0064784D01*
X0088794Y0065151D01*
X0088794Y0065885D01*
X0088427Y0066252D01*
X0086959Y0066252D01*
X0087326Y0066994D02*
X0086592Y0067728D01*
X0088794Y0067728D01*
X0088794Y0066994D02*
X0088794Y0068462D01*
X0088427Y0064784D02*
X0086959Y0064784D01*
X0091931Y0059018D02*
X0092665Y0059018D01*
X0093032Y0058651D01*
X0091564Y0057184D01*
X0091931Y0056817D01*
X0092665Y0056817D01*
X0093032Y0057184D01*
X0093032Y0058651D01*
X0093774Y0057917D02*
X0094875Y0059018D01*
X0094875Y0056817D01*
X0095242Y0057917D02*
X0093774Y0057917D01*
X0091931Y0059018D02*
X0091564Y0058651D01*
X0091564Y0057184D01*
X0097693Y0060364D02*
X0097693Y0061465D01*
X0098060Y0061832D01*
X0098794Y0061832D01*
X0099161Y0061465D01*
X0099161Y0060364D01*
X0099894Y0060364D02*
X0097693Y0060364D01*
X0099161Y0061098D02*
X0099894Y0061832D01*
X0099894Y0062574D02*
X0099894Y0064042D01*
X0099894Y0063308D02*
X0097693Y0063308D01*
X0098427Y0062574D01*
X0098060Y0064784D02*
X0097693Y0065151D01*
X0097693Y0065885D01*
X0098060Y0066252D01*
X0099528Y0064784D01*
X0099894Y0065151D01*
X0099894Y0065885D01*
X0099528Y0066252D01*
X0098060Y0066252D01*
X0098794Y0066994D02*
X0098794Y0068095D01*
X0099161Y0068462D01*
X0099528Y0068462D01*
X0099894Y0068095D01*
X0099894Y0067361D01*
X0099528Y0066994D01*
X0098794Y0066994D01*
X0098060Y0067728D01*
X0097693Y0068462D01*
X0098060Y0064784D02*
X0099528Y0064784D01*
X0108294Y0065518D02*
X0110496Y0065518D01*
X0110496Y0064784D02*
X0110496Y0066252D01*
X0110496Y0066994D02*
X0110496Y0068462D01*
X0110496Y0067728D02*
X0108294Y0067728D01*
X0109028Y0066994D01*
X0108294Y0065518D02*
X0109028Y0064784D01*
X0110496Y0064042D02*
X0110496Y0062574D01*
X0110496Y0063308D02*
X0108294Y0063308D01*
X0109028Y0062574D01*
X0108661Y0061832D02*
X0109395Y0061832D01*
X0109762Y0061465D01*
X0109762Y0060364D01*
X0110496Y0060364D02*
X0108294Y0060364D01*
X0108294Y0061465D01*
X0108661Y0061832D01*
X0109762Y0061098D02*
X0110496Y0061832D01*
X0110735Y0059018D02*
X0111102Y0058651D01*
X0111102Y0057917D01*
X0110735Y0057550D01*
X0109634Y0057550D01*
X0109634Y0056817D02*
X0109634Y0059018D01*
X0110735Y0059018D01*
X0111844Y0058284D02*
X0112578Y0059018D01*
X0112578Y0056817D01*
X0111844Y0056817D02*
X0113312Y0056817D01*
X0114054Y0056817D02*
X0115522Y0056817D01*
X0114788Y0056817D02*
X0114788Y0059018D01*
X0114054Y0058284D01*
X0116263Y0057917D02*
X0117364Y0059018D01*
X0117364Y0056817D01*
X0117731Y0057917D02*
X0116263Y0057917D01*
X0119145Y0060364D02*
X0119145Y0061465D01*
X0119512Y0061832D01*
X0120246Y0061832D01*
X0120613Y0061465D01*
X0120613Y0060364D01*
X0121347Y0060364D02*
X0119145Y0060364D01*
X0120613Y0061098D02*
X0121347Y0061832D01*
X0121347Y0062574D02*
X0121347Y0064042D01*
X0121347Y0063308D02*
X0119145Y0063308D01*
X0119879Y0062574D01*
X0119879Y0064784D02*
X0119145Y0065518D01*
X0121347Y0065518D01*
X0121347Y0064784D02*
X0121347Y0066252D01*
X0120980Y0066994D02*
X0121347Y0067361D01*
X0121347Y0068095D01*
X0120980Y0068462D01*
X0120613Y0068462D01*
X0120246Y0068095D01*
X0120246Y0066994D01*
X0120980Y0066994D01*
X0120246Y0066994D02*
X0119512Y0067728D01*
X0119145Y0068462D01*
X0130390Y0067334D02*
X0132592Y0067334D01*
X0132592Y0066600D02*
X0132592Y0068068D01*
X0131124Y0066600D02*
X0130390Y0067334D01*
X0130757Y0065858D02*
X0130390Y0065491D01*
X0130390Y0064757D01*
X0130757Y0064390D01*
X0130757Y0065858D02*
X0131124Y0065858D01*
X0132592Y0064390D01*
X0132592Y0065858D01*
X0132592Y0063648D02*
X0132592Y0062181D01*
X0132592Y0062915D02*
X0130390Y0062915D01*
X0131124Y0062181D01*
X0130757Y0061439D02*
X0131491Y0061439D01*
X0131858Y0061072D01*
X0131858Y0059971D01*
X0131858Y0060705D02*
X0132592Y0061439D01*
X0132592Y0059971D02*
X0130390Y0059971D01*
X0130390Y0061072D01*
X0130757Y0061439D01*
X0131087Y0058625D02*
X0132188Y0058625D01*
X0132555Y0058258D01*
X0132555Y0057524D01*
X0132188Y0057157D01*
X0131087Y0057157D01*
X0131821Y0057157D02*
X0132555Y0056423D01*
X0133296Y0056423D02*
X0134764Y0056423D01*
X0134030Y0056423D02*
X0134030Y0058625D01*
X0133296Y0057891D01*
X0135506Y0058258D02*
X0135873Y0058625D01*
X0136607Y0058625D01*
X0136974Y0058258D01*
X0136974Y0057891D01*
X0135506Y0056423D01*
X0136974Y0056423D01*
X0137716Y0057524D02*
X0139184Y0057524D01*
X0138817Y0058625D02*
X0137716Y0057524D01*
X0138817Y0056423D02*
X0138817Y0058625D01*
X0141241Y0059971D02*
X0141241Y0061072D01*
X0141608Y0061439D01*
X0142342Y0061439D01*
X0142709Y0061072D01*
X0142709Y0059971D01*
X0142709Y0060705D02*
X0143443Y0061439D01*
X0143443Y0062181D02*
X0143443Y0063648D01*
X0143443Y0062915D02*
X0141241Y0062915D01*
X0141975Y0062181D01*
X0141608Y0064390D02*
X0141241Y0064757D01*
X0141241Y0065491D01*
X0141608Y0065858D01*
X0141975Y0065858D01*
X0143443Y0064390D01*
X0143443Y0065858D01*
X0143076Y0066600D02*
X0143443Y0066967D01*
X0143443Y0067701D01*
X0143076Y0068068D01*
X0142709Y0068068D01*
X0142342Y0067701D01*
X0142342Y0066600D01*
X0143076Y0066600D01*
X0142342Y0066600D02*
X0141608Y0067334D01*
X0141241Y0068068D01*
X0151987Y0067334D02*
X0154189Y0067334D01*
X0154189Y0066600D02*
X0154189Y0068068D01*
X0152721Y0066600D02*
X0151987Y0067334D01*
X0152354Y0065858D02*
X0152721Y0065858D01*
X0153088Y0065491D01*
X0153455Y0065858D01*
X0153822Y0065858D01*
X0154189Y0065491D01*
X0154189Y0064757D01*
X0153822Y0064390D01*
X0154189Y0063648D02*
X0154189Y0062181D01*
X0154189Y0062915D02*
X0151987Y0062915D01*
X0152721Y0062181D01*
X0152354Y0061439D02*
X0153088Y0061439D01*
X0153455Y0061072D01*
X0153455Y0059971D01*
X0153455Y0060705D02*
X0154189Y0061439D01*
X0154189Y0059971D02*
X0151987Y0059971D01*
X0151987Y0061072D01*
X0152354Y0061439D01*
X0152354Y0064390D02*
X0151987Y0064757D01*
X0151987Y0065491D01*
X0152354Y0065858D01*
X0153088Y0065491D02*
X0153088Y0065124D01*
X0163088Y0064757D02*
X0163088Y0065491D01*
X0163455Y0065858D01*
X0163822Y0065858D01*
X0164189Y0065491D01*
X0164556Y0065858D01*
X0164923Y0065858D01*
X0165290Y0065491D01*
X0165290Y0064757D01*
X0164923Y0064390D01*
X0165290Y0063648D02*
X0165290Y0062181D01*
X0165290Y0062915D02*
X0163088Y0062915D01*
X0163822Y0062181D01*
X0163455Y0061439D02*
X0164189Y0061439D01*
X0164556Y0061072D01*
X0164556Y0059971D01*
X0164556Y0060705D02*
X0165290Y0061439D01*
X0165290Y0059971D02*
X0163088Y0059971D01*
X0163088Y0061072D01*
X0163455Y0061439D01*
X0163455Y0064390D02*
X0163088Y0064757D01*
X0164189Y0065124D02*
X0164189Y0065491D01*
X0164189Y0066600D02*
X0163455Y0067334D01*
X0163088Y0068068D01*
X0164189Y0067701D02*
X0164189Y0066600D01*
X0164923Y0066600D01*
X0165290Y0066967D01*
X0165290Y0067701D01*
X0164923Y0068068D01*
X0164556Y0068068D01*
X0164189Y0067701D01*
X0173545Y0067334D02*
X0175747Y0067334D01*
X0175747Y0066600D02*
X0175747Y0068068D01*
X0174279Y0066600D02*
X0173545Y0067334D01*
X0174646Y0065858D02*
X0174646Y0064390D01*
X0173545Y0065491D01*
X0175747Y0065491D01*
X0175747Y0063648D02*
X0175747Y0062181D01*
X0175747Y0062915D02*
X0173545Y0062915D01*
X0174279Y0062181D01*
X0173912Y0061439D02*
X0174646Y0061439D01*
X0175013Y0061072D01*
X0175013Y0059971D01*
X0175013Y0060705D02*
X0175747Y0061439D01*
X0175747Y0059971D02*
X0173545Y0059971D01*
X0173545Y0061072D01*
X0173912Y0061439D01*
X0174885Y0058625D02*
X0175986Y0058625D01*
X0176353Y0058258D01*
X0176353Y0057524D01*
X0175986Y0057157D01*
X0174885Y0057157D01*
X0175619Y0057157D02*
X0176353Y0056423D01*
X0177095Y0056423D02*
X0178563Y0056423D01*
X0177829Y0056423D02*
X0177829Y0058625D01*
X0177095Y0057891D01*
X0179305Y0057524D02*
X0180773Y0057524D01*
X0181515Y0057524D02*
X0182983Y0057524D01*
X0182616Y0058625D02*
X0181515Y0057524D01*
X0182616Y0056423D02*
X0182616Y0058625D01*
X0180406Y0058625D02*
X0180406Y0056423D01*
X0179305Y0057524D02*
X0180406Y0058625D01*
X0184541Y0059971D02*
X0184541Y0061072D01*
X0184908Y0061439D01*
X0185642Y0061439D01*
X0186009Y0061072D01*
X0186009Y0059971D01*
X0186743Y0059971D02*
X0184541Y0059971D01*
X0186009Y0060705D02*
X0186743Y0061439D01*
X0186743Y0062181D02*
X0186743Y0063648D01*
X0186743Y0062915D02*
X0184541Y0062915D01*
X0185275Y0062181D01*
X0185642Y0064390D02*
X0185642Y0065858D01*
X0186376Y0066600D02*
X0184908Y0068068D01*
X0184541Y0068068D01*
X0184541Y0066600D01*
X0184541Y0065491D02*
X0185642Y0064390D01*
X0186743Y0065491D02*
X0184541Y0065491D01*
X0186376Y0066600D02*
X0186743Y0066600D01*
X0195392Y0067334D02*
X0197594Y0067334D01*
X0197594Y0066600D02*
X0197594Y0068068D01*
X0196126Y0066600D02*
X0195392Y0067334D01*
X0195392Y0065858D02*
X0195392Y0064390D01*
X0196493Y0064390D01*
X0196126Y0065124D01*
X0196126Y0065491D01*
X0196493Y0065858D01*
X0197227Y0065858D01*
X0197594Y0065491D01*
X0197594Y0064757D01*
X0197227Y0064390D01*
X0197594Y0063648D02*
X0197594Y0062181D01*
X0197594Y0062915D02*
X0195392Y0062915D01*
X0196126Y0062181D01*
X0196493Y0061439D02*
X0196860Y0061072D01*
X0196860Y0059971D01*
X0196860Y0060705D02*
X0197594Y0061439D01*
X0196493Y0061439D02*
X0195759Y0061439D01*
X0195392Y0061072D01*
X0195392Y0059971D01*
X0197594Y0059971D01*
X0197439Y0058769D02*
X0197806Y0058402D01*
X0197806Y0057668D01*
X0197439Y0057301D01*
X0196338Y0057301D01*
X0197072Y0057301D02*
X0197806Y0056567D01*
X0198548Y0056567D02*
X0200016Y0056567D01*
X0199282Y0056567D02*
X0199282Y0058769D01*
X0198548Y0058035D01*
X0197439Y0058769D02*
X0196338Y0058769D01*
X0196338Y0056567D01*
X0193584Y0053927D02*
X0193217Y0054294D01*
X0192483Y0054294D01*
X0192116Y0053927D01*
X0192116Y0053560D01*
X0192483Y0053193D01*
X0193584Y0053193D01*
X0193584Y0052459D02*
X0193584Y0053927D01*
X0193584Y0052459D02*
X0193217Y0052092D01*
X0192483Y0052092D01*
X0192116Y0052459D01*
X0191374Y0053193D02*
X0189906Y0053193D01*
X0191007Y0054294D01*
X0191007Y0052092D01*
X0189164Y0052092D02*
X0187696Y0052092D01*
X0188430Y0052092D02*
X0188430Y0054294D01*
X0187696Y0053560D01*
X0186955Y0053193D02*
X0186588Y0052826D01*
X0185487Y0052826D01*
X0186221Y0052826D02*
X0186955Y0052092D01*
X0186955Y0053193D02*
X0186955Y0053927D01*
X0186588Y0054294D01*
X0185487Y0054294D01*
X0185487Y0052092D01*
X0185759Y0046049D02*
X0186126Y0046049D01*
X0186493Y0045682D01*
X0186493Y0044948D01*
X0186126Y0044581D01*
X0185759Y0044581D01*
X0185392Y0044948D01*
X0185392Y0045682D01*
X0185759Y0046049D01*
X0185392Y0045682D02*
X0185025Y0046049D01*
X0184658Y0046049D01*
X0184291Y0045682D01*
X0184291Y0044948D01*
X0184658Y0044581D01*
X0185025Y0044581D01*
X0185392Y0044948D01*
X0185392Y0043839D02*
X0185392Y0042372D01*
X0184291Y0043472D01*
X0186493Y0043472D01*
X0186493Y0041630D02*
X0186493Y0040162D01*
X0186493Y0040896D02*
X0184291Y0040896D01*
X0185025Y0040162D01*
X0185392Y0039420D02*
X0185759Y0039053D01*
X0185759Y0037952D01*
X0185759Y0038686D02*
X0186493Y0039420D01*
X0185392Y0039420D02*
X0184658Y0039420D01*
X0184291Y0039053D01*
X0184291Y0037952D01*
X0186493Y0037952D01*
X0183021Y0036462D02*
X0181553Y0036462D01*
X0181553Y0035361D01*
X0182287Y0035728D01*
X0182654Y0035728D01*
X0183021Y0035361D01*
X0183021Y0034627D01*
X0182654Y0034260D01*
X0181920Y0034260D01*
X0181553Y0034627D01*
X0180811Y0035361D02*
X0179343Y0035361D01*
X0180444Y0036462D01*
X0180444Y0034260D01*
X0178601Y0034260D02*
X0177134Y0034260D01*
X0177867Y0034260D02*
X0177867Y0036462D01*
X0177134Y0035728D01*
X0176392Y0036095D02*
X0176392Y0035361D01*
X0176025Y0034994D01*
X0174924Y0034994D01*
X0175658Y0034994D02*
X0176392Y0034260D01*
X0174924Y0034260D02*
X0174924Y0036462D01*
X0176025Y0036462D01*
X0176392Y0036095D01*
X0176035Y0037952D02*
X0173834Y0037952D01*
X0173834Y0039053D01*
X0174201Y0039420D01*
X0174934Y0039420D01*
X0175301Y0039053D01*
X0175301Y0037952D01*
X0175301Y0038686D02*
X0176035Y0039420D01*
X0176035Y0040162D02*
X0176035Y0041630D01*
X0176035Y0040896D02*
X0173834Y0040896D01*
X0174568Y0040162D01*
X0174934Y0042372D02*
X0174934Y0043839D01*
X0174201Y0044581D02*
X0173834Y0044948D01*
X0173834Y0045682D01*
X0174201Y0046049D01*
X0174568Y0046049D01*
X0176035Y0044581D01*
X0176035Y0046049D01*
X0176035Y0043472D02*
X0173834Y0043472D01*
X0174934Y0042372D01*
X0164935Y0042739D02*
X0164568Y0042372D01*
X0164935Y0042739D02*
X0164935Y0043472D01*
X0164568Y0043839D01*
X0164201Y0043839D01*
X0163834Y0043472D01*
X0163834Y0043105D01*
X0163834Y0043472D02*
X0163467Y0043839D01*
X0163100Y0043839D01*
X0162733Y0043472D01*
X0162733Y0042739D01*
X0163100Y0042372D01*
X0162733Y0040896D02*
X0164935Y0040896D01*
X0164935Y0040162D02*
X0164935Y0041630D01*
X0163467Y0040162D02*
X0162733Y0040896D01*
X0163100Y0039420D02*
X0163834Y0039420D01*
X0164201Y0039053D01*
X0164201Y0037952D01*
X0164935Y0037952D02*
X0162733Y0037952D01*
X0162733Y0039053D01*
X0163100Y0039420D01*
X0164201Y0038686D02*
X0164935Y0039420D01*
X0161319Y0036462D02*
X0159851Y0036462D01*
X0159851Y0035361D01*
X0160585Y0035728D01*
X0160952Y0035728D01*
X0161319Y0035361D01*
X0161319Y0034627D01*
X0160952Y0034260D01*
X0160218Y0034260D01*
X0159851Y0034627D01*
X0159109Y0034627D02*
X0158742Y0034260D01*
X0158008Y0034260D01*
X0157641Y0034627D01*
X0156899Y0034260D02*
X0155431Y0034260D01*
X0156165Y0034260D02*
X0156165Y0036462D01*
X0155431Y0035728D01*
X0154689Y0036095D02*
X0154689Y0035361D01*
X0154322Y0034994D01*
X0153221Y0034994D01*
X0153221Y0034260D02*
X0153221Y0036462D01*
X0154322Y0036462D01*
X0154689Y0036095D01*
X0153955Y0034994D02*
X0154689Y0034260D01*
X0157641Y0036095D02*
X0158008Y0036462D01*
X0158742Y0036462D01*
X0159109Y0036095D01*
X0159109Y0035728D01*
X0158742Y0035361D01*
X0159109Y0034994D01*
X0159109Y0034627D01*
X0158742Y0035361D02*
X0158375Y0035361D01*
X0154189Y0037952D02*
X0151987Y0037952D01*
X0151987Y0039053D01*
X0152354Y0039420D01*
X0153088Y0039420D01*
X0153455Y0039053D01*
X0153455Y0037952D01*
X0153455Y0038686D02*
X0154189Y0039420D01*
X0154189Y0040162D02*
X0154189Y0041630D01*
X0154189Y0040896D02*
X0151987Y0040896D01*
X0152721Y0040162D01*
X0152354Y0042372D02*
X0151987Y0042739D01*
X0151987Y0043472D01*
X0152354Y0043839D01*
X0152721Y0043839D01*
X0153088Y0043472D01*
X0153455Y0043839D01*
X0153822Y0043839D01*
X0154189Y0043472D01*
X0154189Y0042739D01*
X0153822Y0042372D01*
X0153088Y0043105D02*
X0153088Y0043472D01*
X0152354Y0044581D02*
X0151987Y0044948D01*
X0151987Y0045682D01*
X0152354Y0046049D01*
X0152721Y0046049D01*
X0154189Y0044581D01*
X0154189Y0046049D01*
X0149812Y0052092D02*
X0150179Y0052459D01*
X0150179Y0053927D01*
X0149812Y0054294D01*
X0149079Y0054294D01*
X0148712Y0053927D01*
X0148712Y0053560D01*
X0149079Y0053193D01*
X0150179Y0053193D01*
X0149812Y0052092D02*
X0149079Y0052092D01*
X0148712Y0052459D01*
X0147970Y0052092D02*
X0146502Y0052092D01*
X0147970Y0053560D01*
X0147970Y0053927D01*
X0147603Y0054294D01*
X0146869Y0054294D01*
X0146502Y0053927D01*
X0145026Y0054294D02*
X0145026Y0052092D01*
X0144292Y0052092D02*
X0145760Y0052092D01*
X0144292Y0053560D02*
X0145026Y0054294D01*
X0143550Y0053927D02*
X0143550Y0053193D01*
X0143183Y0052826D01*
X0142082Y0052826D01*
X0142816Y0052826D02*
X0143550Y0052092D01*
X0142082Y0052092D02*
X0142082Y0054294D01*
X0143183Y0054294D01*
X0143550Y0053927D01*
X0143443Y0059971D02*
X0141241Y0059971D01*
X0131087Y0058625D02*
X0131087Y0056423D01*
X0128189Y0053927D02*
X0127822Y0054294D01*
X0127088Y0054294D01*
X0126721Y0053927D01*
X0126721Y0053560D01*
X0127088Y0053193D01*
X0128189Y0053193D01*
X0128189Y0052459D02*
X0128189Y0053927D01*
X0128189Y0052459D02*
X0127822Y0052092D01*
X0127088Y0052092D01*
X0126721Y0052459D01*
X0125979Y0052092D02*
X0124511Y0052092D01*
X0125245Y0052092D02*
X0125245Y0054294D01*
X0124511Y0053560D01*
X0123769Y0052092D02*
X0122301Y0052092D01*
X0123035Y0052092D02*
X0123035Y0054294D01*
X0122301Y0053560D01*
X0121559Y0053193D02*
X0121192Y0052826D01*
X0120091Y0052826D01*
X0120091Y0052092D02*
X0120091Y0054294D01*
X0121192Y0054294D01*
X0121559Y0053927D01*
X0121559Y0053193D01*
X0120825Y0052826D02*
X0121559Y0052092D01*
X0119656Y0045905D02*
X0121124Y0044437D01*
X0121491Y0044437D01*
X0121491Y0043695D02*
X0121491Y0042227D01*
X0121491Y0042961D02*
X0119289Y0042961D01*
X0120023Y0042227D01*
X0121491Y0041485D02*
X0121491Y0040018D01*
X0121491Y0040752D02*
X0119289Y0040752D01*
X0120023Y0040018D01*
X0119656Y0039276D02*
X0120390Y0039276D01*
X0120757Y0038909D01*
X0120757Y0037808D01*
X0120757Y0038542D02*
X0121491Y0039276D01*
X0121491Y0037808D02*
X0119289Y0037808D01*
X0119289Y0038909D01*
X0119656Y0039276D01*
X0117731Y0036462D02*
X0116263Y0036462D01*
X0116263Y0035361D01*
X0116997Y0035728D01*
X0117364Y0035728D01*
X0117731Y0035361D01*
X0117731Y0034627D01*
X0117364Y0034260D01*
X0116630Y0034260D01*
X0116263Y0034627D01*
X0115522Y0034260D02*
X0114054Y0034260D01*
X0114788Y0034260D02*
X0114788Y0036462D01*
X0114054Y0035728D01*
X0113312Y0034260D02*
X0111844Y0034260D01*
X0112578Y0034260D02*
X0112578Y0036462D01*
X0111844Y0035728D01*
X0111102Y0036095D02*
X0110735Y0036462D01*
X0109634Y0036462D01*
X0109634Y0034260D01*
X0109634Y0034994D02*
X0110735Y0034994D01*
X0111102Y0035361D01*
X0111102Y0036095D01*
X0110368Y0034994D02*
X0111102Y0034260D01*
X0110496Y0037808D02*
X0108294Y0037808D01*
X0108294Y0038909D01*
X0108661Y0039276D01*
X0109395Y0039276D01*
X0109762Y0038909D01*
X0109762Y0037808D01*
X0109762Y0038542D02*
X0110496Y0039276D01*
X0110496Y0040018D02*
X0110496Y0041485D01*
X0110496Y0040752D02*
X0108294Y0040752D01*
X0109028Y0040018D01*
X0109028Y0042227D02*
X0108294Y0042961D01*
X0110496Y0042961D01*
X0110496Y0042227D02*
X0110496Y0043695D01*
X0110496Y0044437D02*
X0109028Y0045905D01*
X0108661Y0045905D01*
X0108294Y0045538D01*
X0108294Y0044804D01*
X0108661Y0044437D01*
X0110496Y0044437D02*
X0110496Y0045905D01*
X0106369Y0052092D02*
X0106736Y0052459D01*
X0106736Y0053927D01*
X0106369Y0054294D01*
X0105635Y0054294D01*
X0105268Y0053927D01*
X0105268Y0053560D01*
X0105635Y0053193D01*
X0106736Y0053193D01*
X0106369Y0052092D02*
X0105635Y0052092D01*
X0105268Y0052459D01*
X0104526Y0052459D02*
X0104159Y0052092D01*
X0103425Y0052092D01*
X0103058Y0052459D01*
X0104526Y0053927D01*
X0104526Y0052459D01*
X0103058Y0052459D02*
X0103058Y0053927D01*
X0103425Y0054294D01*
X0104159Y0054294D01*
X0104526Y0053927D01*
X0102316Y0052092D02*
X0100848Y0052092D01*
X0101582Y0052092D02*
X0101582Y0054294D01*
X0100848Y0053560D01*
X0100106Y0053193D02*
X0099740Y0052826D01*
X0098639Y0052826D01*
X0099373Y0052826D02*
X0100106Y0052092D01*
X0100106Y0053193D02*
X0100106Y0053927D01*
X0099740Y0054294D01*
X0098639Y0054294D01*
X0098639Y0052092D01*
X0098204Y0045905D02*
X0099672Y0044437D01*
X0100039Y0044437D01*
X0099672Y0043695D02*
X0100039Y0043328D01*
X0100039Y0042594D01*
X0099672Y0042227D01*
X0098204Y0043695D01*
X0099672Y0043695D01*
X0099672Y0042227D02*
X0098204Y0042227D01*
X0097837Y0042594D01*
X0097837Y0043328D01*
X0098204Y0043695D01*
X0097837Y0044437D02*
X0097837Y0045905D01*
X0098204Y0045905D01*
X0100039Y0041485D02*
X0100039Y0040018D01*
X0100039Y0040752D02*
X0097837Y0040752D01*
X0098571Y0040018D01*
X0098938Y0039276D02*
X0099305Y0038909D01*
X0099305Y0037808D01*
X0100039Y0037808D02*
X0097837Y0037808D01*
X0097837Y0038909D01*
X0098204Y0039276D01*
X0098938Y0039276D01*
X0099305Y0038542D02*
X0100039Y0039276D01*
X0095242Y0036212D02*
X0093774Y0036212D01*
X0093774Y0035111D01*
X0094508Y0035478D01*
X0094875Y0035478D01*
X0095242Y0035111D01*
X0095242Y0034377D01*
X0094875Y0034010D01*
X0094141Y0034010D01*
X0093774Y0034377D01*
X0093032Y0034377D02*
X0092665Y0034010D01*
X0091931Y0034010D01*
X0091564Y0034377D01*
X0093032Y0035845D01*
X0093032Y0034377D01*
X0093032Y0035845D02*
X0092665Y0036212D01*
X0091931Y0036212D01*
X0091564Y0035845D01*
X0091564Y0034377D01*
X0090822Y0034010D02*
X0089354Y0034010D01*
X0090088Y0034010D02*
X0090088Y0036212D01*
X0089354Y0035478D01*
X0088612Y0035111D02*
X0088245Y0034744D01*
X0087144Y0034744D01*
X0087144Y0034010D02*
X0087144Y0036212D01*
X0088245Y0036212D01*
X0088612Y0035845D01*
X0088612Y0035111D01*
X0087878Y0034744D02*
X0088612Y0034010D01*
X0088688Y0037952D02*
X0086486Y0037952D01*
X0086486Y0039053D01*
X0086853Y0039420D01*
X0087587Y0039420D01*
X0087954Y0039053D01*
X0087954Y0037952D01*
X0087954Y0038686D02*
X0088688Y0039420D01*
X0088688Y0040162D02*
X0088688Y0041630D01*
X0088688Y0040896D02*
X0086486Y0040896D01*
X0087220Y0040162D01*
X0086853Y0042372D02*
X0086486Y0042739D01*
X0086486Y0043472D01*
X0086853Y0043839D01*
X0088321Y0042372D01*
X0088688Y0042739D01*
X0088688Y0043472D01*
X0088321Y0043839D01*
X0086853Y0043839D01*
X0086853Y0044581D02*
X0086486Y0044948D01*
X0086486Y0045682D01*
X0086853Y0046049D01*
X0087220Y0046049D01*
X0088688Y0044581D01*
X0088688Y0046049D01*
X0088321Y0042372D02*
X0086853Y0042372D01*
X0098639Y0031881D02*
X0099740Y0031881D01*
X0100106Y0031514D01*
X0100106Y0030780D01*
X0099740Y0030413D01*
X0098639Y0030413D01*
X0098639Y0029680D02*
X0098639Y0031881D01*
X0099373Y0030413D02*
X0100106Y0029680D01*
X0100848Y0029680D02*
X0102316Y0029680D01*
X0101582Y0029680D02*
X0101582Y0031881D01*
X0100848Y0031147D01*
X0103058Y0031147D02*
X0103792Y0031881D01*
X0103792Y0029680D01*
X0103058Y0029680D02*
X0104526Y0029680D01*
X0105268Y0030047D02*
X0106736Y0031514D01*
X0106736Y0030047D01*
X0106369Y0029680D01*
X0105635Y0029680D01*
X0105268Y0030047D01*
X0105268Y0031514D01*
X0105635Y0031881D01*
X0106369Y0031881D01*
X0106736Y0031514D01*
X0119842Y0031737D02*
X0119842Y0029535D01*
X0119842Y0030269D02*
X0120943Y0030269D01*
X0121310Y0030636D01*
X0121310Y0031370D01*
X0120943Y0031737D01*
X0119842Y0031737D01*
X0120576Y0030269D02*
X0121310Y0029535D01*
X0122052Y0029535D02*
X0123520Y0029535D01*
X0122786Y0029535D02*
X0122786Y0031737D01*
X0122052Y0031003D01*
X0124261Y0031370D02*
X0124628Y0031737D01*
X0125362Y0031737D01*
X0125729Y0031370D01*
X0125729Y0031003D01*
X0124261Y0029535D01*
X0125729Y0029535D01*
X0126471Y0029902D02*
X0127939Y0031370D01*
X0127939Y0029902D01*
X0127572Y0029535D01*
X0126838Y0029535D01*
X0126471Y0029902D01*
X0126471Y0031370D01*
X0126838Y0031737D01*
X0127572Y0031737D01*
X0127939Y0031370D01*
X0131087Y0034260D02*
X0131087Y0036462D01*
X0132188Y0036462D01*
X0132555Y0036095D01*
X0132555Y0035361D01*
X0132188Y0034994D01*
X0131087Y0034994D01*
X0131821Y0034994D02*
X0132555Y0034260D01*
X0133296Y0034260D02*
X0134764Y0034260D01*
X0134030Y0034260D02*
X0134030Y0036462D01*
X0133296Y0035728D01*
X0132592Y0037808D02*
X0130390Y0037808D01*
X0130390Y0038909D01*
X0130757Y0039276D01*
X0131491Y0039276D01*
X0131858Y0038909D01*
X0131858Y0037808D01*
X0131858Y0038542D02*
X0132592Y0039276D01*
X0132592Y0040018D02*
X0132592Y0041485D01*
X0132592Y0040752D02*
X0130390Y0040752D01*
X0131124Y0040018D01*
X0130757Y0042227D02*
X0130390Y0042594D01*
X0130390Y0043328D01*
X0130757Y0043695D01*
X0131124Y0043695D01*
X0132592Y0042227D01*
X0132592Y0043695D01*
X0132592Y0044437D02*
X0131124Y0045905D01*
X0130757Y0045905D01*
X0130390Y0045538D01*
X0130390Y0044804D01*
X0130757Y0044437D01*
X0132592Y0044437D02*
X0132592Y0045905D01*
X0141241Y0046049D02*
X0141241Y0044581D01*
X0141608Y0043839D02*
X0141241Y0043472D01*
X0141241Y0042739D01*
X0141608Y0042372D01*
X0141608Y0043839D02*
X0141975Y0043839D01*
X0143443Y0042372D01*
X0143443Y0043839D01*
X0143443Y0044581D02*
X0143076Y0044581D01*
X0141608Y0046049D01*
X0141241Y0046049D01*
X0143443Y0041630D02*
X0143443Y0040162D01*
X0143443Y0040896D02*
X0141241Y0040896D01*
X0141975Y0040162D01*
X0141608Y0039420D02*
X0142342Y0039420D01*
X0142709Y0039053D01*
X0142709Y0037952D01*
X0142709Y0038686D02*
X0143443Y0039420D01*
X0143443Y0037952D02*
X0141241Y0037952D01*
X0141241Y0039053D01*
X0141608Y0039420D01*
X0139184Y0036462D02*
X0137716Y0036462D01*
X0137716Y0035361D01*
X0138450Y0035728D01*
X0138817Y0035728D01*
X0139184Y0035361D01*
X0139184Y0034627D01*
X0138817Y0034260D01*
X0138083Y0034260D01*
X0137716Y0034627D01*
X0136974Y0034260D02*
X0135506Y0034260D01*
X0136974Y0035728D01*
X0136974Y0036095D01*
X0136607Y0036462D01*
X0135873Y0036462D01*
X0135506Y0036095D01*
X0141832Y0031737D02*
X0141832Y0029535D01*
X0141832Y0030269D02*
X0142933Y0030269D01*
X0143300Y0030636D01*
X0143300Y0031370D01*
X0142933Y0031737D01*
X0141832Y0031737D01*
X0142566Y0030269D02*
X0143300Y0029535D01*
X0144042Y0029535D02*
X0145510Y0029535D01*
X0144776Y0029535D02*
X0144776Y0031737D01*
X0144042Y0031003D01*
X0146252Y0031370D02*
X0146619Y0031737D01*
X0147353Y0031737D01*
X0147720Y0031370D01*
X0147720Y0031003D01*
X0147353Y0030636D01*
X0147720Y0030269D01*
X0147720Y0029902D01*
X0147353Y0029535D01*
X0146619Y0029535D01*
X0146252Y0029902D01*
X0146986Y0030636D02*
X0147353Y0030636D01*
X0148462Y0029902D02*
X0149930Y0031370D01*
X0149930Y0029902D01*
X0149563Y0029535D01*
X0148829Y0029535D01*
X0148462Y0029902D01*
X0148462Y0031370D01*
X0148829Y0031737D01*
X0149563Y0031737D01*
X0149930Y0031370D01*
X0164466Y0031737D02*
X0164466Y0029535D01*
X0164466Y0030269D02*
X0165567Y0030269D01*
X0165934Y0030636D01*
X0165934Y0031370D01*
X0165567Y0031737D01*
X0164466Y0031737D01*
X0165200Y0030269D02*
X0165934Y0029535D01*
X0166676Y0029535D02*
X0168144Y0029535D01*
X0167410Y0029535D02*
X0167410Y0031737D01*
X0166676Y0031003D01*
X0168886Y0030636D02*
X0169987Y0031737D01*
X0169987Y0029535D01*
X0170354Y0030636D02*
X0168886Y0030636D01*
X0171096Y0029902D02*
X0172564Y0031370D01*
X0172564Y0029902D01*
X0172197Y0029535D01*
X0171463Y0029535D01*
X0171096Y0029902D01*
X0171096Y0031370D01*
X0171463Y0031737D01*
X0172197Y0031737D01*
X0172564Y0031370D01*
X0184843Y0031737D02*
X0184843Y0029535D01*
X0184843Y0030269D02*
X0185944Y0030269D01*
X0186311Y0030636D01*
X0186311Y0031370D01*
X0185944Y0031737D01*
X0184843Y0031737D01*
X0185577Y0030269D02*
X0186311Y0029535D01*
X0187053Y0029535D02*
X0188521Y0029535D01*
X0187787Y0029535D02*
X0187787Y0031737D01*
X0187053Y0031003D01*
X0189263Y0030636D02*
X0189997Y0031003D01*
X0190364Y0031003D01*
X0190731Y0030636D01*
X0190731Y0029902D01*
X0190364Y0029535D01*
X0189630Y0029535D01*
X0189263Y0029902D01*
X0189263Y0030636D02*
X0189263Y0031737D01*
X0190731Y0031737D01*
X0191473Y0031370D02*
X0191840Y0031737D01*
X0192574Y0031737D01*
X0192941Y0031370D01*
X0191473Y0029902D01*
X0191840Y0029535D01*
X0192574Y0029535D01*
X0192941Y0029902D01*
X0192941Y0031370D01*
X0191473Y0031370D02*
X0191473Y0029902D01*
X0196482Y0034260D02*
X0196482Y0036462D01*
X0197583Y0036462D01*
X0197950Y0036095D01*
X0197950Y0035361D01*
X0197583Y0034994D01*
X0196482Y0034994D01*
X0197216Y0034994D02*
X0197950Y0034260D01*
X0198692Y0034260D02*
X0200160Y0034260D01*
X0199426Y0034260D02*
X0199426Y0036462D01*
X0198692Y0035728D01*
X0200902Y0035361D02*
X0201636Y0035728D01*
X0202003Y0035728D01*
X0202370Y0035361D01*
X0202370Y0034627D01*
X0202003Y0034260D01*
X0201269Y0034260D01*
X0200902Y0034627D01*
X0200902Y0035361D02*
X0200902Y0036462D01*
X0202370Y0036462D01*
X0203112Y0036462D02*
X0203112Y0035361D01*
X0203845Y0035728D01*
X0204212Y0035728D01*
X0204579Y0035361D01*
X0204579Y0034627D01*
X0204212Y0034260D01*
X0203479Y0034260D01*
X0203112Y0034627D01*
X0203112Y0036462D02*
X0204579Y0036462D01*
X0206387Y0037952D02*
X0206387Y0039053D01*
X0206754Y0039420D01*
X0207488Y0039420D01*
X0207855Y0039053D01*
X0207855Y0037952D01*
X0207855Y0038686D02*
X0208589Y0039420D01*
X0208589Y0040162D02*
X0208589Y0041630D01*
X0208589Y0040896D02*
X0206387Y0040896D01*
X0207121Y0040162D01*
X0207488Y0042372D02*
X0207121Y0043105D01*
X0207121Y0043472D01*
X0207488Y0043839D01*
X0208222Y0043839D01*
X0208589Y0043472D01*
X0208589Y0042739D01*
X0208222Y0042372D01*
X0207488Y0042372D02*
X0206387Y0042372D01*
X0206387Y0043839D01*
X0206387Y0044581D02*
X0206387Y0046049D01*
X0206754Y0046049D01*
X0208222Y0044581D01*
X0208589Y0044581D01*
X0197594Y0044581D02*
X0196126Y0046049D01*
X0195759Y0046049D01*
X0195392Y0045682D01*
X0195392Y0044948D01*
X0195759Y0044581D01*
X0195392Y0043839D02*
X0195392Y0042372D01*
X0196493Y0042372D01*
X0196126Y0043105D01*
X0196126Y0043472D01*
X0196493Y0043839D01*
X0197227Y0043839D01*
X0197594Y0043472D01*
X0197594Y0042739D01*
X0197227Y0042372D01*
X0197594Y0041630D02*
X0197594Y0040162D01*
X0197594Y0040896D02*
X0195392Y0040896D01*
X0196126Y0040162D01*
X0196493Y0039420D02*
X0196860Y0039053D01*
X0196860Y0037952D01*
X0197594Y0037952D02*
X0195392Y0037952D01*
X0195392Y0039053D01*
X0195759Y0039420D01*
X0196493Y0039420D01*
X0196860Y0038686D02*
X0197594Y0039420D01*
X0197594Y0044581D02*
X0197594Y0046049D01*
X0208015Y0052236D02*
X0208015Y0054438D01*
X0209116Y0054438D01*
X0209483Y0054071D01*
X0209483Y0053337D01*
X0209116Y0052970D01*
X0208015Y0052970D01*
X0208749Y0052970D02*
X0209483Y0052236D01*
X0210225Y0052236D02*
X0211693Y0052236D01*
X0210959Y0052236D02*
X0210959Y0054438D01*
X0210225Y0053704D01*
X0212435Y0053337D02*
X0212435Y0054438D01*
X0213903Y0054438D01*
X0213536Y0053704D02*
X0213903Y0053337D01*
X0213903Y0052603D01*
X0213536Y0052236D01*
X0212802Y0052236D01*
X0212435Y0052603D01*
X0212435Y0053337D02*
X0213169Y0053704D01*
X0213536Y0053704D01*
X0214645Y0053704D02*
X0215012Y0053337D01*
X0216113Y0053337D01*
X0216113Y0052603D02*
X0216113Y0054071D01*
X0215746Y0054438D01*
X0215012Y0054438D01*
X0214645Y0054071D01*
X0214645Y0053704D01*
X0214645Y0052603D02*
X0215012Y0052236D01*
X0215746Y0052236D01*
X0216113Y0052603D01*
X0208589Y0059971D02*
X0206387Y0059971D01*
X0206387Y0061072D01*
X0206754Y0061439D01*
X0207488Y0061439D01*
X0207855Y0061072D01*
X0207855Y0059971D01*
X0207855Y0060705D02*
X0208589Y0061439D01*
X0208589Y0062181D02*
X0208589Y0063648D01*
X0208589Y0062915D02*
X0206387Y0062915D01*
X0207121Y0062181D01*
X0207488Y0064390D02*
X0207121Y0065124D01*
X0207121Y0065491D01*
X0207488Y0065858D01*
X0208222Y0065858D01*
X0208589Y0065491D01*
X0208589Y0064757D01*
X0208222Y0064390D01*
X0207488Y0064390D02*
X0206387Y0064390D01*
X0206387Y0065858D01*
X0207488Y0066600D02*
X0207488Y0067701D01*
X0207855Y0068068D01*
X0208222Y0068068D01*
X0208589Y0067701D01*
X0208589Y0066967D01*
X0208222Y0066600D01*
X0207488Y0066600D01*
X0206754Y0067334D01*
X0206387Y0068068D01*
X0204068Y0058769D02*
X0202967Y0057668D01*
X0204435Y0057668D01*
X0204068Y0056567D02*
X0204068Y0058769D01*
X0202225Y0058769D02*
X0200758Y0058769D01*
X0200758Y0057668D01*
X0201492Y0058035D01*
X0201858Y0058035D01*
X0202225Y0057668D01*
X0202225Y0056934D01*
X0201858Y0056567D01*
X0201125Y0056567D01*
X0200758Y0056934D01*
X0174885Y0056423D02*
X0174885Y0058625D01*
X0172158Y0054294D02*
X0171424Y0054294D01*
X0171057Y0053927D01*
X0171057Y0053560D01*
X0171424Y0053193D01*
X0172525Y0053193D01*
X0172525Y0052459D02*
X0172525Y0053927D01*
X0172158Y0054294D01*
X0172525Y0052459D02*
X0172158Y0052092D01*
X0171424Y0052092D01*
X0171057Y0052459D01*
X0170315Y0052459D02*
X0169948Y0052092D01*
X0169214Y0052092D01*
X0168847Y0052459D01*
X0168105Y0052092D02*
X0166637Y0052092D01*
X0167371Y0052092D02*
X0167371Y0054294D01*
X0166637Y0053560D01*
X0165895Y0053193D02*
X0165528Y0052826D01*
X0164428Y0052826D01*
X0165162Y0052826D02*
X0165895Y0052092D01*
X0165895Y0053193D02*
X0165895Y0053927D01*
X0165528Y0054294D01*
X0164428Y0054294D01*
X0164428Y0052092D01*
X0168847Y0053927D02*
X0169214Y0054294D01*
X0169948Y0054294D01*
X0170315Y0053927D01*
X0170315Y0053560D01*
X0169948Y0053193D01*
X0170315Y0052826D01*
X0170315Y0052459D01*
X0169948Y0053193D02*
X0169581Y0053193D01*
X0160664Y0056423D02*
X0160664Y0058625D01*
X0159563Y0057524D01*
X0161031Y0057524D01*
X0158821Y0057891D02*
X0158454Y0057524D01*
X0158821Y0057157D01*
X0158821Y0056790D01*
X0158454Y0056423D01*
X0157720Y0056423D01*
X0157353Y0056790D01*
X0156611Y0056423D02*
X0155143Y0056423D01*
X0155877Y0056423D02*
X0155877Y0058625D01*
X0155143Y0057891D01*
X0154401Y0058258D02*
X0154401Y0057524D01*
X0154034Y0057157D01*
X0152933Y0057157D01*
X0153667Y0057157D02*
X0154401Y0056423D01*
X0152933Y0056423D02*
X0152933Y0058625D01*
X0154034Y0058625D01*
X0154401Y0058258D01*
X0157353Y0058258D02*
X0157720Y0058625D01*
X0158454Y0058625D01*
X0158821Y0058258D01*
X0158821Y0057891D01*
X0158454Y0057524D02*
X0158087Y0057524D01*
X0162733Y0046049D02*
X0163100Y0046049D01*
X0164568Y0044581D01*
X0164935Y0044581D01*
X0162733Y0044581D02*
X0162733Y0046049D01*
X0119656Y0045905D02*
X0119289Y0045905D01*
X0119289Y0044437D01*
X0111102Y0056817D02*
X0110368Y0057550D01*
X0077943Y0062574D02*
X0075741Y0062574D01*
X0075741Y0063675D01*
X0076108Y0064042D01*
X0076842Y0064042D01*
X0077209Y0063675D01*
X0077209Y0062574D01*
X0077209Y0063308D02*
X0077943Y0064042D01*
X0077576Y0064784D02*
X0077943Y0065151D01*
X0077943Y0065885D01*
X0077576Y0066252D01*
X0076108Y0066252D01*
X0075741Y0065885D01*
X0075741Y0065151D01*
X0076108Y0064784D01*
X0076475Y0064784D01*
X0076842Y0065151D01*
X0076842Y0066252D01*
X0077576Y0066994D02*
X0077943Y0066994D01*
X0077576Y0066994D02*
X0076108Y0068462D01*
X0075741Y0068462D01*
X0075741Y0066994D01*
X0070674Y0059018D02*
X0069573Y0057917D01*
X0071041Y0057917D01*
X0070674Y0056817D02*
X0070674Y0059018D01*
X0068831Y0058651D02*
X0068464Y0059018D01*
X0067730Y0059018D01*
X0067363Y0058651D01*
X0067363Y0058284D01*
X0067730Y0057917D01*
X0068831Y0057917D01*
X0068831Y0057184D02*
X0068831Y0058651D01*
X0068831Y0057184D02*
X0068464Y0056817D01*
X0067730Y0056817D01*
X0067363Y0057184D01*
X0066621Y0056817D02*
X0065888Y0057550D01*
X0066254Y0057550D02*
X0065154Y0057550D01*
X0065154Y0056817D02*
X0065154Y0059018D01*
X0066254Y0059018D01*
X0066621Y0058651D01*
X0066621Y0057917D01*
X0066254Y0057550D01*
X0075794Y0031488D02*
X0076895Y0031488D01*
X0077262Y0031121D01*
X0077262Y0030387D01*
X0076895Y0030020D01*
X0075794Y0030020D01*
X0076528Y0030020D02*
X0077262Y0029286D01*
X0078004Y0029286D02*
X0079471Y0029286D01*
X0078738Y0029286D02*
X0078738Y0031488D01*
X0078004Y0030754D01*
X0080213Y0031121D02*
X0080580Y0031488D01*
X0081314Y0031488D01*
X0081681Y0031121D01*
X0080213Y0029653D01*
X0080580Y0029286D01*
X0081314Y0029286D01*
X0081681Y0029653D01*
X0081681Y0031121D01*
X0082423Y0031121D02*
X0082790Y0031488D01*
X0083524Y0031488D01*
X0083891Y0031121D01*
X0082423Y0029653D01*
X0082790Y0029286D01*
X0083524Y0029286D01*
X0083891Y0029653D01*
X0083891Y0031121D01*
X0082423Y0031121D02*
X0082423Y0029653D01*
X0080213Y0029653D02*
X0080213Y0031121D01*
X0075794Y0031488D02*
X0075794Y0029286D01*
X0075741Y0019700D02*
X0076108Y0018966D01*
X0076842Y0018232D01*
X0076842Y0019333D01*
X0077209Y0019700D01*
X0077576Y0019700D01*
X0077943Y0019333D01*
X0077943Y0018599D01*
X0077576Y0018232D01*
X0076842Y0018232D01*
X0076842Y0017490D02*
X0076842Y0016389D01*
X0076475Y0016022D01*
X0076108Y0016022D01*
X0075741Y0016389D01*
X0075741Y0017123D01*
X0076108Y0017490D01*
X0077576Y0017490D01*
X0077943Y0017123D01*
X0077943Y0016389D01*
X0077576Y0016022D01*
X0077943Y0015280D02*
X0077209Y0014546D01*
X0077209Y0014913D02*
X0077209Y0013812D01*
X0077943Y0013812D02*
X0075741Y0013812D01*
X0075741Y0014913D01*
X0076108Y0015280D01*
X0076842Y0015280D01*
X0077209Y0014913D01*
X0086592Y0014546D02*
X0088794Y0014546D01*
X0088794Y0013812D02*
X0088794Y0015280D01*
X0088427Y0016022D02*
X0086959Y0017490D01*
X0088427Y0017490D01*
X0088794Y0017123D01*
X0088794Y0016389D01*
X0088427Y0016022D01*
X0086959Y0016022D01*
X0086592Y0016389D01*
X0086592Y0017123D01*
X0086959Y0017490D01*
X0086959Y0018232D02*
X0086592Y0018599D01*
X0086592Y0019333D01*
X0086959Y0019700D01*
X0087326Y0019700D01*
X0087693Y0019333D01*
X0088060Y0019700D01*
X0088427Y0019700D01*
X0088794Y0019333D01*
X0088794Y0018599D01*
X0088427Y0018232D01*
X0087693Y0018966D02*
X0087693Y0019333D01*
X0086592Y0014546D02*
X0087326Y0013812D01*
X0087693Y0013070D02*
X0088060Y0012703D01*
X0088060Y0011602D01*
X0088794Y0011602D02*
X0086592Y0011602D01*
X0086592Y0012703D01*
X0086959Y0013070D01*
X0087693Y0013070D01*
X0088060Y0012336D02*
X0088794Y0013070D01*
X0097837Y0012703D02*
X0098204Y0013070D01*
X0098938Y0013070D01*
X0099305Y0012703D01*
X0099305Y0011602D01*
X0100039Y0011602D02*
X0097837Y0011602D01*
X0097837Y0012703D01*
X0098571Y0013812D02*
X0097837Y0014546D01*
X0100039Y0014546D01*
X0100039Y0013812D02*
X0100039Y0015280D01*
X0099672Y0016022D02*
X0098204Y0017490D01*
X0099672Y0017490D01*
X0100039Y0017123D01*
X0100039Y0016389D01*
X0099672Y0016022D01*
X0098204Y0016022D01*
X0097837Y0016389D01*
X0097837Y0017123D01*
X0098204Y0017490D01*
X0098204Y0018232D02*
X0098571Y0018232D01*
X0098938Y0018599D01*
X0098938Y0019333D01*
X0099305Y0019700D01*
X0099672Y0019700D01*
X0100039Y0019333D01*
X0100039Y0018599D01*
X0099672Y0018232D01*
X0099305Y0018232D01*
X0098938Y0018599D01*
X0098938Y0019333D02*
X0098571Y0019700D01*
X0098204Y0019700D01*
X0097837Y0019333D01*
X0097837Y0018599D01*
X0098204Y0018232D01*
X0100039Y0013070D02*
X0099305Y0012336D01*
X0108294Y0012703D02*
X0108661Y0013070D01*
X0109395Y0013070D01*
X0109762Y0012703D01*
X0109762Y0011602D01*
X0110496Y0011602D02*
X0108294Y0011602D01*
X0108294Y0012703D01*
X0109028Y0013812D02*
X0108294Y0014546D01*
X0110496Y0014546D01*
X0110496Y0013812D02*
X0110496Y0015280D01*
X0110496Y0016022D02*
X0110496Y0017490D01*
X0110496Y0016756D02*
X0108294Y0016756D01*
X0109028Y0016022D01*
X0108661Y0018232D02*
X0108294Y0018599D01*
X0108294Y0019333D01*
X0108661Y0019700D01*
X0109028Y0019700D01*
X0109395Y0019333D01*
X0109762Y0019700D01*
X0110129Y0019700D01*
X0110496Y0019333D01*
X0110496Y0018599D01*
X0110129Y0018232D01*
X0109395Y0018966D02*
X0109395Y0019333D01*
X0110496Y0013070D02*
X0109762Y0012336D01*
X0119289Y0012703D02*
X0119656Y0013070D01*
X0120390Y0013070D01*
X0120757Y0012703D01*
X0120757Y0011602D01*
X0120757Y0012336D02*
X0121491Y0013070D01*
X0121491Y0013812D02*
X0121491Y0015280D01*
X0121491Y0014546D02*
X0119289Y0014546D01*
X0120023Y0013812D01*
X0119289Y0012703D02*
X0119289Y0011602D01*
X0121491Y0011602D01*
X0121491Y0016022D02*
X0121491Y0017490D01*
X0121491Y0016756D02*
X0119289Y0016756D01*
X0120023Y0016022D01*
X0120023Y0018232D02*
X0119656Y0018232D01*
X0119289Y0018599D01*
X0119289Y0019333D01*
X0119656Y0019700D01*
X0120023Y0019700D01*
X0120390Y0019333D01*
X0120390Y0018599D01*
X0120023Y0018232D01*
X0120390Y0018599D02*
X0120757Y0018232D01*
X0121124Y0018232D01*
X0121491Y0018599D01*
X0121491Y0019333D01*
X0121124Y0019700D01*
X0120757Y0019700D01*
X0120390Y0019333D01*
X0130390Y0019333D02*
X0130757Y0019700D01*
X0131124Y0019700D01*
X0131491Y0019333D01*
X0131858Y0019700D01*
X0132225Y0019700D01*
X0132592Y0019333D01*
X0132592Y0018599D01*
X0132225Y0018232D01*
X0132592Y0017490D02*
X0132592Y0016022D01*
X0131124Y0017490D01*
X0130757Y0017490D01*
X0130390Y0017123D01*
X0130390Y0016389D01*
X0130757Y0016022D01*
X0130390Y0014546D02*
X0132592Y0014546D01*
X0132592Y0013812D02*
X0132592Y0015280D01*
X0131124Y0013812D02*
X0130390Y0014546D01*
X0130757Y0013070D02*
X0130390Y0012703D01*
X0130390Y0011602D01*
X0132592Y0011602D01*
X0131858Y0011602D02*
X0131858Y0012703D01*
X0131491Y0013070D01*
X0130757Y0013070D01*
X0131858Y0012336D02*
X0132592Y0013070D01*
X0130757Y0018232D02*
X0130390Y0018599D01*
X0130390Y0019333D01*
X0131491Y0019333D02*
X0131491Y0018966D01*
X0141674Y0019333D02*
X0142041Y0019700D01*
X0142408Y0019700D01*
X0142775Y0019333D01*
X0142775Y0018599D01*
X0142408Y0018232D01*
X0142041Y0018232D01*
X0141674Y0018599D01*
X0141674Y0019333D01*
X0142775Y0019333D02*
X0143142Y0019700D01*
X0143509Y0019700D01*
X0143876Y0019333D01*
X0143876Y0018599D01*
X0143509Y0018232D01*
X0143142Y0018232D01*
X0142775Y0018599D01*
X0142408Y0017490D02*
X0142041Y0017490D01*
X0141674Y0017123D01*
X0141674Y0016389D01*
X0142041Y0016022D01*
X0142408Y0017490D02*
X0143876Y0016022D01*
X0143876Y0017490D01*
X0143876Y0015280D02*
X0143876Y0013812D01*
X0143876Y0014546D02*
X0141674Y0014546D01*
X0142408Y0013812D01*
X0142775Y0013070D02*
X0143142Y0012703D01*
X0143142Y0011602D01*
X0143876Y0011602D02*
X0141674Y0011602D01*
X0141674Y0012703D01*
X0142041Y0013070D01*
X0142775Y0013070D01*
X0143142Y0012336D02*
X0143876Y0013070D01*
X0151882Y0012703D02*
X0152249Y0013070D01*
X0152983Y0013070D01*
X0153350Y0012703D01*
X0153350Y0011602D01*
X0154083Y0011602D02*
X0151882Y0011602D01*
X0151882Y0012703D01*
X0152616Y0013812D02*
X0151882Y0014546D01*
X0154083Y0014546D01*
X0154083Y0013812D02*
X0154083Y0015280D01*
X0153716Y0016022D02*
X0154083Y0016389D01*
X0154083Y0017123D01*
X0153716Y0017490D01*
X0153350Y0017490D01*
X0152983Y0017123D01*
X0152983Y0016756D01*
X0152983Y0017123D02*
X0152616Y0017490D01*
X0152249Y0017490D01*
X0151882Y0017123D01*
X0151882Y0016389D01*
X0152249Y0016022D01*
X0152249Y0018232D02*
X0151882Y0018599D01*
X0151882Y0019333D01*
X0152249Y0019700D01*
X0152616Y0019700D01*
X0152983Y0019333D01*
X0153350Y0019700D01*
X0153716Y0019700D01*
X0154083Y0019333D01*
X0154083Y0018599D01*
X0153716Y0018232D01*
X0152983Y0018966D02*
X0152983Y0019333D01*
X0163126Y0019582D02*
X0163493Y0019949D01*
X0163860Y0019949D01*
X0164227Y0019582D01*
X0164227Y0018848D01*
X0163860Y0018481D01*
X0163493Y0018481D01*
X0163126Y0018848D01*
X0163126Y0019582D01*
X0164227Y0019582D02*
X0164594Y0019949D01*
X0164961Y0019949D01*
X0165328Y0019582D01*
X0165328Y0018848D01*
X0164961Y0018481D01*
X0164594Y0018481D01*
X0164227Y0018848D01*
X0163860Y0017739D02*
X0164227Y0017372D01*
X0164594Y0017739D01*
X0164961Y0017739D01*
X0165328Y0017372D01*
X0165328Y0016639D01*
X0164961Y0016272D01*
X0165328Y0015530D02*
X0165328Y0014062D01*
X0165328Y0014796D02*
X0163126Y0014796D01*
X0163860Y0014062D01*
X0163493Y0013320D02*
X0164227Y0013320D01*
X0164594Y0012953D01*
X0164594Y0011852D01*
X0164594Y0012586D02*
X0165328Y0013320D01*
X0165328Y0011852D02*
X0163126Y0011852D01*
X0163126Y0012953D01*
X0163493Y0013320D01*
X0163493Y0016272D02*
X0163126Y0016639D01*
X0163126Y0017372D01*
X0163493Y0017739D01*
X0163860Y0017739D01*
X0164227Y0017372D02*
X0164227Y0017005D01*
X0173584Y0017372D02*
X0174685Y0016272D01*
X0174685Y0017739D01*
X0175419Y0018481D02*
X0175786Y0018848D01*
X0175786Y0019582D01*
X0175419Y0019949D01*
X0175052Y0019949D01*
X0174685Y0019582D01*
X0174685Y0019215D01*
X0174685Y0019582D02*
X0174318Y0019949D01*
X0173951Y0019949D01*
X0173584Y0019582D01*
X0173584Y0018848D01*
X0173951Y0018481D01*
X0173584Y0017372D02*
X0175786Y0017372D01*
X0175786Y0015530D02*
X0175786Y0014062D01*
X0175786Y0014796D02*
X0173584Y0014796D01*
X0174318Y0014062D01*
X0174685Y0013320D02*
X0175052Y0012953D01*
X0175052Y0011852D01*
X0175052Y0012586D02*
X0175786Y0013320D01*
X0174685Y0013320D02*
X0173951Y0013320D01*
X0173584Y0012953D01*
X0173584Y0011852D01*
X0175786Y0011852D01*
X0184685Y0011996D02*
X0184685Y0013097D01*
X0185052Y0013464D01*
X0185786Y0013464D01*
X0186153Y0013097D01*
X0186153Y0011996D01*
X0186887Y0011996D02*
X0184685Y0011996D01*
X0186153Y0012730D02*
X0186887Y0013464D01*
X0186887Y0014206D02*
X0186887Y0015674D01*
X0186887Y0014940D02*
X0184685Y0014940D01*
X0185419Y0014206D01*
X0185786Y0016416D02*
X0185786Y0017884D01*
X0185786Y0018626D02*
X0185786Y0019726D01*
X0186153Y0020093D01*
X0186520Y0020093D01*
X0186887Y0019726D01*
X0186887Y0018992D01*
X0186520Y0018626D01*
X0185786Y0018626D01*
X0185052Y0019359D01*
X0184685Y0020093D01*
X0184685Y0017517D02*
X0185786Y0016416D01*
X0186887Y0017517D02*
X0184685Y0017517D01*
X0195786Y0017884D02*
X0195786Y0016416D01*
X0196886Y0016416D01*
X0196519Y0017150D01*
X0196519Y0017517D01*
X0196886Y0017884D01*
X0197620Y0017884D01*
X0197987Y0017517D01*
X0197987Y0016783D01*
X0197620Y0016416D01*
X0197987Y0015674D02*
X0197987Y0014206D01*
X0197987Y0014940D02*
X0195786Y0014940D01*
X0196519Y0014206D01*
X0196153Y0013464D02*
X0196886Y0013464D01*
X0197253Y0013097D01*
X0197253Y0011996D01*
X0197253Y0012730D02*
X0197987Y0013464D01*
X0197987Y0011996D02*
X0195786Y0011996D01*
X0195786Y0013097D01*
X0196153Y0013464D01*
X0196153Y0018626D02*
X0195786Y0018992D01*
X0195786Y0019726D01*
X0196153Y0020093D01*
X0196519Y0020093D01*
X0196886Y0019726D01*
X0197253Y0020093D01*
X0197620Y0020093D01*
X0197987Y0019726D01*
X0197987Y0018992D01*
X0197620Y0018626D01*
X0196886Y0019359D02*
X0196886Y0019726D01*
X0206387Y0019976D02*
X0206754Y0020343D01*
X0207121Y0020343D01*
X0207488Y0019976D01*
X0207488Y0019242D01*
X0207121Y0018875D01*
X0206754Y0018875D01*
X0206387Y0019242D01*
X0206387Y0019976D01*
X0207488Y0019976D02*
X0207855Y0020343D01*
X0208222Y0020343D01*
X0208589Y0019976D01*
X0208589Y0019242D01*
X0208222Y0018875D01*
X0207855Y0018875D01*
X0207488Y0019242D01*
X0207488Y0018133D02*
X0208222Y0018133D01*
X0208589Y0017766D01*
X0208589Y0017032D01*
X0208222Y0016665D01*
X0207488Y0016665D02*
X0207121Y0017399D01*
X0207121Y0017766D01*
X0207488Y0018133D01*
X0206387Y0018133D02*
X0206387Y0016665D01*
X0207488Y0016665D01*
X0208589Y0015923D02*
X0208589Y0014455D01*
X0208589Y0015189D02*
X0206387Y0015189D01*
X0207121Y0014455D01*
X0206754Y0013713D02*
X0207488Y0013713D01*
X0207855Y0013346D01*
X0207855Y0012245D01*
X0208589Y0012245D02*
X0206387Y0012245D01*
X0206387Y0013346D01*
X0206754Y0013713D01*
X0207855Y0012979D02*
X0208589Y0013713D01*
X0208695Y0029535D02*
X0207962Y0030269D01*
X0208328Y0030269D02*
X0207228Y0030269D01*
X0207228Y0029535D02*
X0207228Y0031737D01*
X0208328Y0031737D01*
X0208695Y0031370D01*
X0208695Y0030636D01*
X0208328Y0030269D01*
X0209437Y0029535D02*
X0210905Y0029535D01*
X0210171Y0029535D02*
X0210171Y0031737D01*
X0209437Y0031003D01*
X0211647Y0030636D02*
X0212748Y0030636D01*
X0213115Y0030269D01*
X0213115Y0029902D01*
X0212748Y0029535D01*
X0212014Y0029535D01*
X0211647Y0029902D01*
X0211647Y0030636D01*
X0212381Y0031370D01*
X0213115Y0031737D01*
X0213857Y0031370D02*
X0214224Y0031737D01*
X0214958Y0031737D01*
X0215325Y0031370D01*
X0213857Y0029902D01*
X0214224Y0029535D01*
X0214958Y0029535D01*
X0215325Y0029902D01*
X0215325Y0031370D01*
X0213857Y0031370D02*
X0213857Y0029902D01*
X0208589Y0037952D02*
X0206387Y0037952D01*
X0154083Y0013070D02*
X0153350Y0012336D01*
X0151926Y0123055D02*
X0149724Y0123055D01*
X0149724Y0124156D01*
X0150091Y0124523D01*
X0150825Y0124523D01*
X0151192Y0124156D01*
X0151192Y0123055D01*
X0151192Y0123789D02*
X0151926Y0124523D01*
X0150825Y0125265D02*
X0150825Y0126733D01*
X0150458Y0127475D02*
X0149724Y0128209D01*
X0151926Y0128209D01*
X0151926Y0127475D02*
X0151926Y0128943D01*
X0151926Y0126366D02*
X0149724Y0126366D01*
X0150825Y0125265D01*
X0141363Y0125632D02*
X0140996Y0125265D01*
X0141363Y0125632D02*
X0141363Y0126366D01*
X0140996Y0126733D01*
X0140629Y0126733D01*
X0140262Y0126366D01*
X0140262Y0125999D01*
X0140262Y0126366D02*
X0139895Y0126733D01*
X0139528Y0126733D01*
X0139161Y0126366D01*
X0139161Y0125632D01*
X0139528Y0125265D01*
X0139528Y0124523D02*
X0140262Y0124523D01*
X0140629Y0124156D01*
X0140629Y0123055D01*
X0141363Y0123055D02*
X0139161Y0123055D01*
X0139161Y0124156D01*
X0139528Y0124523D01*
X0140629Y0123789D02*
X0141363Y0124523D01*
X0140996Y0127475D02*
X0141363Y0127842D01*
X0141363Y0128576D01*
X0140996Y0128943D01*
X0140629Y0128943D01*
X0140262Y0128576D01*
X0140262Y0127475D01*
X0140996Y0127475D01*
X0140262Y0127475D02*
X0139528Y0128209D01*
X0139161Y0128943D01*
X0130301Y0128943D02*
X0130301Y0127475D01*
X0130301Y0128209D02*
X0128099Y0128209D01*
X0128833Y0127475D01*
X0128833Y0126733D02*
X0129200Y0126366D01*
X0129567Y0126733D01*
X0129934Y0126733D01*
X0130301Y0126366D01*
X0130301Y0125632D01*
X0129934Y0125265D01*
X0130301Y0124523D02*
X0129567Y0123789D01*
X0129567Y0124156D02*
X0129567Y0123055D01*
X0130301Y0123055D02*
X0128099Y0123055D01*
X0128099Y0124156D01*
X0128466Y0124523D01*
X0129200Y0124523D01*
X0129567Y0124156D01*
X0128466Y0125265D02*
X0128099Y0125632D01*
X0128099Y0126366D01*
X0128466Y0126733D01*
X0128833Y0126733D01*
X0129200Y0126366D02*
X0129200Y0125999D01*
X0119094Y0125265D02*
X0117627Y0126733D01*
X0117260Y0126733D01*
X0116893Y0126366D01*
X0116893Y0125632D01*
X0117260Y0125265D01*
X0117260Y0124523D02*
X0117994Y0124523D01*
X0118361Y0124156D01*
X0118361Y0123055D01*
X0119094Y0123055D02*
X0116893Y0123055D01*
X0116893Y0124156D01*
X0117260Y0124523D01*
X0118361Y0123789D02*
X0119094Y0124523D01*
X0119094Y0125265D02*
X0119094Y0126733D01*
X0118728Y0127475D02*
X0119094Y0127842D01*
X0119094Y0128576D01*
X0118728Y0128943D01*
X0118361Y0128943D01*
X0117994Y0128576D01*
X0117994Y0127475D01*
X0118728Y0127475D01*
X0117994Y0127475D02*
X0117260Y0128209D01*
X0116893Y0128943D01*
X0108820Y0128943D02*
X0108820Y0127475D01*
X0108820Y0128209D02*
X0106618Y0128209D01*
X0107352Y0127475D01*
X0107352Y0126733D02*
X0106985Y0126733D01*
X0106618Y0126366D01*
X0106618Y0125632D01*
X0106985Y0125265D01*
X0106985Y0124523D02*
X0107719Y0124523D01*
X0108086Y0124156D01*
X0108086Y0123055D01*
X0108820Y0123055D02*
X0106618Y0123055D01*
X0106618Y0124156D01*
X0106985Y0124523D01*
X0108086Y0123789D02*
X0108820Y0124523D01*
X0108820Y0125265D02*
X0107352Y0126733D01*
X0108820Y0126733D02*
X0108820Y0125265D01*
X0097672Y0125324D02*
X0097672Y0126792D01*
X0097672Y0126058D02*
X0095471Y0126058D01*
X0096205Y0125324D01*
X0096572Y0124582D02*
X0096938Y0124215D01*
X0096938Y0123114D01*
X0096938Y0123848D02*
X0097672Y0124582D01*
X0096572Y0124582D02*
X0095838Y0124582D01*
X0095471Y0124215D01*
X0095471Y0123114D01*
X0097672Y0123114D01*
X0097305Y0127534D02*
X0096572Y0127534D01*
X0096572Y0128635D01*
X0096938Y0129002D01*
X0097305Y0129002D01*
X0097672Y0128635D01*
X0097672Y0127901D01*
X0097305Y0127534D01*
X0096572Y0127534D02*
X0095838Y0128268D01*
X0095471Y0129002D01*
X0086801Y0129002D02*
X0086801Y0127534D01*
X0086801Y0128268D02*
X0084599Y0128268D01*
X0085333Y0127534D01*
X0086801Y0126792D02*
X0086801Y0125324D01*
X0086801Y0126058D02*
X0084599Y0126058D01*
X0085333Y0125324D01*
X0085700Y0124582D02*
X0086067Y0124215D01*
X0086067Y0123114D01*
X0086801Y0123114D02*
X0084599Y0123114D01*
X0084599Y0124215D01*
X0084966Y0124582D01*
X0085700Y0124582D01*
X0086067Y0123848D02*
X0086801Y0124582D01*
X0076382Y0124582D02*
X0075648Y0123848D01*
X0075648Y0124215D02*
X0075648Y0123114D01*
X0076382Y0123114D02*
X0074180Y0123114D01*
X0074180Y0124215D01*
X0074547Y0124582D01*
X0075281Y0124582D01*
X0075648Y0124215D01*
X0076015Y0125324D02*
X0076382Y0125691D01*
X0076382Y0126425D01*
X0076015Y0126792D01*
X0075648Y0126792D01*
X0075281Y0126425D01*
X0075281Y0125324D01*
X0076015Y0125324D01*
X0075281Y0125324D02*
X0074547Y0126058D01*
X0074180Y0126792D01*
X0065320Y0126792D02*
X0065320Y0125324D01*
X0065320Y0126058D02*
X0063118Y0126058D01*
X0063852Y0125324D01*
X0064219Y0124582D02*
X0064586Y0124215D01*
X0064586Y0123114D01*
X0065320Y0123114D02*
X0063118Y0123114D01*
X0063118Y0124215D01*
X0063485Y0124582D01*
X0064219Y0124582D01*
X0064586Y0123848D02*
X0065320Y0124582D01*
X0071176Y0136755D02*
X0071176Y0138957D01*
X0072277Y0138957D01*
X0072644Y0138590D01*
X0072644Y0137856D01*
X0072277Y0137489D01*
X0071176Y0137489D01*
X0071910Y0137489D02*
X0072644Y0136755D01*
X0073385Y0137856D02*
X0074853Y0137856D01*
X0074486Y0136755D02*
X0074486Y0138957D01*
X0073385Y0137856D01*
X0081594Y0141480D02*
X0081594Y0143681D01*
X0082695Y0143681D01*
X0083062Y0143314D01*
X0083062Y0142580D01*
X0082695Y0142213D01*
X0081594Y0142213D01*
X0082328Y0142213D02*
X0083062Y0141480D01*
X0083804Y0141847D02*
X0084171Y0141480D01*
X0084905Y0141480D01*
X0085272Y0141847D01*
X0085272Y0143314D01*
X0084905Y0143681D01*
X0084171Y0143681D01*
X0083804Y0143314D01*
X0083804Y0142947D01*
X0084171Y0142580D01*
X0085272Y0142580D01*
X0084599Y0145573D02*
X0084599Y0146674D01*
X0084966Y0147041D01*
X0085700Y0147041D01*
X0086067Y0146674D01*
X0086067Y0145573D01*
X0086801Y0145573D02*
X0084599Y0145573D01*
X0086067Y0146307D02*
X0086801Y0147041D01*
X0086801Y0147783D02*
X0086801Y0149251D01*
X0086801Y0148517D02*
X0084599Y0148517D01*
X0085333Y0147783D01*
X0084966Y0149993D02*
X0084599Y0150360D01*
X0084599Y0151094D01*
X0084966Y0151461D01*
X0085333Y0151461D01*
X0086801Y0149993D01*
X0086801Y0151461D01*
X0095412Y0151461D02*
X0095778Y0151461D01*
X0097246Y0149993D01*
X0097613Y0149993D01*
X0097613Y0149251D02*
X0097613Y0147783D01*
X0097613Y0148517D02*
X0095412Y0148517D01*
X0096145Y0147783D01*
X0095778Y0147041D02*
X0096512Y0147041D01*
X0096879Y0146674D01*
X0096879Y0145573D01*
X0096879Y0146307D02*
X0097613Y0147041D01*
X0097613Y0145573D02*
X0095412Y0145573D01*
X0095412Y0146674D01*
X0095778Y0147041D01*
X0095412Y0149993D02*
X0095412Y0151461D01*
X0103076Y0143681D02*
X0104177Y0143681D01*
X0104544Y0143314D01*
X0104544Y0142580D01*
X0104177Y0142213D01*
X0103076Y0142213D01*
X0103076Y0141480D02*
X0103076Y0143681D01*
X0103810Y0142213D02*
X0104544Y0141480D01*
X0105285Y0141480D02*
X0106753Y0141480D01*
X0106019Y0141480D02*
X0106019Y0143681D01*
X0105285Y0142947D01*
X0107495Y0142947D02*
X0107862Y0142580D01*
X0108963Y0142580D01*
X0108963Y0141847D02*
X0108963Y0143314D01*
X0108596Y0143681D01*
X0107862Y0143681D01*
X0107495Y0143314D01*
X0107495Y0142947D01*
X0107495Y0141847D02*
X0107862Y0141480D01*
X0108596Y0141480D01*
X0108963Y0141847D01*
X0114426Y0138957D02*
X0115527Y0138957D01*
X0115894Y0138590D01*
X0115894Y0137856D01*
X0115527Y0137489D01*
X0114426Y0137489D01*
X0114426Y0136755D02*
X0114426Y0138957D01*
X0115160Y0137489D02*
X0115894Y0136755D01*
X0116636Y0136755D02*
X0118104Y0138223D01*
X0118104Y0138590D01*
X0117737Y0138957D01*
X0117003Y0138957D01*
X0116636Y0138590D01*
X0116636Y0136755D02*
X0118104Y0136755D01*
X0118846Y0137856D02*
X0120314Y0137856D01*
X0119947Y0136755D02*
X0119947Y0138957D01*
X0118846Y0137856D01*
X0124845Y0141480D02*
X0124845Y0143681D01*
X0125946Y0143681D01*
X0126313Y0143314D01*
X0126313Y0142580D01*
X0125946Y0142213D01*
X0124845Y0142213D01*
X0125579Y0142213D02*
X0126313Y0141480D01*
X0127055Y0141480D02*
X0128523Y0142947D01*
X0128523Y0143314D01*
X0128156Y0143681D01*
X0127422Y0143681D01*
X0127055Y0143314D01*
X0127055Y0141480D02*
X0128523Y0141480D01*
X0129265Y0141847D02*
X0129632Y0141480D01*
X0130366Y0141480D01*
X0130733Y0141847D01*
X0130733Y0143314D01*
X0130366Y0143681D01*
X0129632Y0143681D01*
X0129265Y0143314D01*
X0129265Y0142947D01*
X0129632Y0142580D01*
X0130733Y0142580D01*
X0135513Y0138957D02*
X0136614Y0138957D01*
X0136981Y0138590D01*
X0136981Y0137856D01*
X0136614Y0137489D01*
X0135513Y0137489D01*
X0135513Y0136755D02*
X0135513Y0138957D01*
X0136247Y0137489D02*
X0136981Y0136755D01*
X0137723Y0137122D02*
X0138090Y0136755D01*
X0138824Y0136755D01*
X0139191Y0137122D01*
X0139191Y0137489D01*
X0138824Y0137856D01*
X0138457Y0137856D01*
X0138824Y0137856D02*
X0139191Y0138223D01*
X0139191Y0138590D01*
X0138824Y0138957D01*
X0138090Y0138957D01*
X0137723Y0138590D01*
X0139933Y0137856D02*
X0141401Y0137856D01*
X0141034Y0136755D02*
X0141034Y0138957D01*
X0139933Y0137856D01*
X0146720Y0141480D02*
X0146720Y0143681D01*
X0147821Y0143681D01*
X0148188Y0143314D01*
X0148188Y0142580D01*
X0147821Y0142213D01*
X0146720Y0142213D01*
X0147454Y0142213D02*
X0148188Y0141480D01*
X0148930Y0141847D02*
X0149297Y0141480D01*
X0150030Y0141480D01*
X0150397Y0141847D01*
X0150397Y0142213D01*
X0150030Y0142580D01*
X0149664Y0142580D01*
X0150030Y0142580D02*
X0150397Y0142947D01*
X0150397Y0143314D01*
X0150030Y0143681D01*
X0149297Y0143681D01*
X0148930Y0143314D01*
X0151139Y0143314D02*
X0151139Y0142947D01*
X0151506Y0142580D01*
X0152607Y0142580D01*
X0152607Y0141847D02*
X0152607Y0143314D01*
X0152240Y0143681D01*
X0151506Y0143681D01*
X0151139Y0143314D01*
X0151139Y0141847D02*
X0151506Y0141480D01*
X0152240Y0141480D01*
X0152607Y0141847D01*
X0151926Y0145573D02*
X0149724Y0145573D01*
X0149724Y0146674D01*
X0150091Y0147041D01*
X0150825Y0147041D01*
X0151192Y0146674D01*
X0151192Y0145573D01*
X0151192Y0146307D02*
X0151926Y0147041D01*
X0150825Y0147783D02*
X0150825Y0149251D01*
X0150091Y0149993D02*
X0149724Y0150360D01*
X0149724Y0151094D01*
X0150091Y0151461D01*
X0150458Y0151461D01*
X0151926Y0149993D01*
X0151926Y0151461D01*
X0151926Y0148884D02*
X0149724Y0148884D01*
X0150825Y0147783D01*
X0141363Y0148150D02*
X0140996Y0147783D01*
X0141363Y0148150D02*
X0141363Y0148884D01*
X0140996Y0149251D01*
X0140629Y0149251D01*
X0140262Y0148884D01*
X0140262Y0148517D01*
X0140262Y0148884D02*
X0139895Y0149251D01*
X0139528Y0149251D01*
X0139161Y0148884D01*
X0139161Y0148150D01*
X0139528Y0147783D01*
X0139528Y0147041D02*
X0140262Y0147041D01*
X0140629Y0146674D01*
X0140629Y0145573D01*
X0141363Y0145573D02*
X0139161Y0145573D01*
X0139161Y0146674D01*
X0139528Y0147041D01*
X0140629Y0146307D02*
X0141363Y0147041D01*
X0141363Y0149993D02*
X0140996Y0149993D01*
X0139528Y0151461D01*
X0139161Y0151461D01*
X0139161Y0149993D01*
X0130301Y0149993D02*
X0128833Y0151461D01*
X0128466Y0151461D01*
X0128099Y0151094D01*
X0128099Y0150360D01*
X0128466Y0149993D01*
X0128466Y0149251D02*
X0128833Y0149251D01*
X0129200Y0148884D01*
X0129567Y0149251D01*
X0129934Y0149251D01*
X0130301Y0148884D01*
X0130301Y0148150D01*
X0129934Y0147783D01*
X0130301Y0147041D02*
X0129567Y0146307D01*
X0129567Y0146674D02*
X0129567Y0145573D01*
X0130301Y0145573D02*
X0128099Y0145573D01*
X0128099Y0146674D01*
X0128466Y0147041D01*
X0129200Y0147041D01*
X0129567Y0146674D01*
X0128466Y0147783D02*
X0128099Y0148150D01*
X0128099Y0148884D01*
X0128466Y0149251D01*
X0129200Y0148884D02*
X0129200Y0148517D01*
X0130301Y0149993D02*
X0130301Y0151461D01*
X0119094Y0149993D02*
X0118728Y0149993D01*
X0117260Y0151461D01*
X0116893Y0151461D01*
X0116893Y0149993D01*
X0117260Y0149251D02*
X0116893Y0148884D01*
X0116893Y0148150D01*
X0117260Y0147783D01*
X0117260Y0147041D02*
X0117994Y0147041D01*
X0118361Y0146674D01*
X0118361Y0145573D01*
X0119094Y0145573D02*
X0116893Y0145573D01*
X0116893Y0146674D01*
X0117260Y0147041D01*
X0118361Y0146307D02*
X0119094Y0147041D01*
X0119094Y0147783D02*
X0117627Y0149251D01*
X0117260Y0149251D01*
X0119094Y0149251D02*
X0119094Y0147783D01*
X0108820Y0147783D02*
X0107352Y0149251D01*
X0106985Y0149251D01*
X0106618Y0148884D01*
X0106618Y0148150D01*
X0106985Y0147783D01*
X0106985Y0147041D02*
X0107719Y0147041D01*
X0108086Y0146674D01*
X0108086Y0145573D01*
X0108820Y0145573D02*
X0106618Y0145573D01*
X0106618Y0146674D01*
X0106985Y0147041D01*
X0108086Y0146307D02*
X0108820Y0147041D01*
X0108820Y0147783D02*
X0108820Y0149251D01*
X0108820Y0149993D02*
X0107352Y0151461D01*
X0106985Y0151461D01*
X0106618Y0151094D01*
X0106618Y0150360D01*
X0106985Y0149993D01*
X0108820Y0149993D02*
X0108820Y0151461D01*
X0114282Y0159273D02*
X0114282Y0161475D01*
X0115383Y0161475D01*
X0115750Y0161108D01*
X0115750Y0160374D01*
X0115383Y0160007D01*
X0114282Y0160007D01*
X0115016Y0160007D02*
X0115750Y0159273D01*
X0116492Y0159273D02*
X0117960Y0160741D01*
X0117960Y0161108D01*
X0117593Y0161475D01*
X0116859Y0161475D01*
X0116492Y0161108D01*
X0116492Y0159273D02*
X0117960Y0159273D01*
X0118702Y0159640D02*
X0119069Y0159273D01*
X0119803Y0159273D01*
X0120170Y0159640D01*
X0120170Y0160374D01*
X0119803Y0160741D01*
X0119436Y0160741D01*
X0118702Y0160374D01*
X0118702Y0161475D01*
X0120170Y0161475D01*
X0124701Y0163998D02*
X0124701Y0166200D01*
X0125802Y0166200D01*
X0126169Y0165833D01*
X0126169Y0165099D01*
X0125802Y0164732D01*
X0124701Y0164732D01*
X0125435Y0164732D02*
X0126169Y0163998D01*
X0126911Y0164365D02*
X0127278Y0163998D01*
X0128012Y0163998D01*
X0128379Y0164365D01*
X0128379Y0164732D01*
X0128012Y0165099D01*
X0127645Y0165099D01*
X0128012Y0165099D02*
X0128379Y0165466D01*
X0128379Y0165833D01*
X0128012Y0166200D01*
X0127278Y0166200D01*
X0126911Y0165833D01*
X0129121Y0165833D02*
X0129488Y0166200D01*
X0130221Y0166200D01*
X0130588Y0165833D01*
X0129121Y0164365D01*
X0129488Y0163998D01*
X0130221Y0163998D01*
X0130588Y0164365D01*
X0130588Y0165833D01*
X0129121Y0165833D02*
X0129121Y0164365D01*
X0135369Y0161475D02*
X0135369Y0159273D01*
X0135369Y0160007D02*
X0136470Y0160007D01*
X0136837Y0160374D01*
X0136837Y0161108D01*
X0136470Y0161475D01*
X0135369Y0161475D01*
X0136103Y0160007D02*
X0136837Y0159273D01*
X0137579Y0159640D02*
X0137946Y0159273D01*
X0138680Y0159273D01*
X0139047Y0159640D01*
X0139047Y0160007D01*
X0138680Y0160374D01*
X0138313Y0160374D01*
X0138680Y0160374D02*
X0139047Y0160741D01*
X0139047Y0161108D01*
X0138680Y0161475D01*
X0137946Y0161475D01*
X0137579Y0161108D01*
X0139789Y0161475D02*
X0139789Y0160374D01*
X0140523Y0160741D01*
X0140890Y0160741D01*
X0141257Y0160374D01*
X0141257Y0159640D01*
X0140890Y0159273D01*
X0140156Y0159273D01*
X0139789Y0159640D01*
X0139789Y0161475D02*
X0141257Y0161475D01*
X0146720Y0163998D02*
X0146720Y0166200D01*
X0147821Y0166200D01*
X0148188Y0165833D01*
X0148188Y0165099D01*
X0147821Y0164732D01*
X0146720Y0164732D01*
X0147454Y0164732D02*
X0148188Y0163998D01*
X0148930Y0165099D02*
X0150397Y0165099D01*
X0151139Y0164365D02*
X0151139Y0165833D01*
X0151506Y0166200D01*
X0152240Y0166200D01*
X0152607Y0165833D01*
X0151139Y0164365D01*
X0151506Y0163998D01*
X0152240Y0163998D01*
X0152607Y0164365D01*
X0152607Y0165833D01*
X0150030Y0166200D02*
X0148930Y0165099D01*
X0150030Y0163998D02*
X0150030Y0166200D01*
X0157388Y0161475D02*
X0158489Y0161475D01*
X0158856Y0161108D01*
X0158856Y0160374D01*
X0158489Y0160007D01*
X0157388Y0160007D01*
X0157388Y0159273D02*
X0157388Y0161475D01*
X0158122Y0160007D02*
X0158856Y0159273D01*
X0159598Y0160374D02*
X0161066Y0160374D01*
X0161808Y0160374D02*
X0162542Y0160741D01*
X0162909Y0160741D01*
X0163276Y0160374D01*
X0163276Y0159640D01*
X0162909Y0159273D01*
X0162175Y0159273D01*
X0161808Y0159640D01*
X0161808Y0160374D02*
X0161808Y0161475D01*
X0163276Y0161475D01*
X0160699Y0161475D02*
X0159598Y0160374D01*
X0160699Y0159273D02*
X0160699Y0161475D01*
X0168201Y0163998D02*
X0168201Y0166200D01*
X0169302Y0166200D01*
X0169669Y0165833D01*
X0169669Y0165099D01*
X0169302Y0164732D01*
X0168201Y0164732D01*
X0168935Y0164732D02*
X0169669Y0163998D01*
X0170411Y0164365D02*
X0170778Y0163998D01*
X0171512Y0163998D01*
X0171879Y0164365D01*
X0171879Y0165099D01*
X0171512Y0165466D01*
X0171145Y0165466D01*
X0170411Y0165099D01*
X0170411Y0166200D01*
X0171879Y0166200D01*
X0172621Y0165833D02*
X0172988Y0166200D01*
X0173721Y0166200D01*
X0174088Y0165833D01*
X0172621Y0164365D01*
X0172988Y0163998D01*
X0173721Y0163998D01*
X0174088Y0164365D01*
X0174088Y0165833D01*
X0172621Y0165833D02*
X0172621Y0164365D01*
X0179013Y0161475D02*
X0179013Y0159273D01*
X0179013Y0160007D02*
X0180114Y0160007D01*
X0180481Y0160374D01*
X0180481Y0161108D01*
X0180114Y0161475D01*
X0179013Y0161475D01*
X0179747Y0160007D02*
X0180481Y0159273D01*
X0181223Y0159640D02*
X0181590Y0159273D01*
X0182324Y0159273D01*
X0182691Y0159640D01*
X0182691Y0160374D01*
X0182324Y0160741D01*
X0181957Y0160741D01*
X0181223Y0160374D01*
X0181223Y0161475D01*
X0182691Y0161475D01*
X0183433Y0161475D02*
X0183433Y0160374D01*
X0184167Y0160741D01*
X0184534Y0160741D01*
X0184901Y0160374D01*
X0184901Y0159640D01*
X0184534Y0159273D01*
X0183800Y0159273D01*
X0183433Y0159640D01*
X0183433Y0161475D02*
X0184901Y0161475D01*
X0190076Y0163998D02*
X0190076Y0166200D01*
X0191177Y0166200D01*
X0191544Y0165833D01*
X0191544Y0165099D01*
X0191177Y0164732D01*
X0190076Y0164732D01*
X0190810Y0164732D02*
X0191544Y0163998D01*
X0192285Y0164365D02*
X0192652Y0163998D01*
X0193386Y0163998D01*
X0193753Y0164365D01*
X0193753Y0164732D01*
X0193386Y0165099D01*
X0192285Y0165099D01*
X0192285Y0164365D01*
X0192285Y0165099D02*
X0193019Y0165833D01*
X0193753Y0166200D01*
X0194495Y0165833D02*
X0194495Y0164365D01*
X0195963Y0165833D01*
X0195963Y0164365D01*
X0195596Y0163998D01*
X0194862Y0163998D01*
X0194495Y0164365D01*
X0194495Y0165833D02*
X0194862Y0166200D01*
X0195596Y0166200D01*
X0195963Y0165833D01*
X0201032Y0161475D02*
X0202133Y0161475D01*
X0202500Y0161108D01*
X0202500Y0160374D01*
X0202133Y0160007D01*
X0201032Y0160007D01*
X0201032Y0159273D02*
X0201032Y0161475D01*
X0201766Y0160007D02*
X0202500Y0159273D01*
X0203242Y0159640D02*
X0203609Y0159273D01*
X0204343Y0159273D01*
X0204710Y0159640D01*
X0204710Y0160007D01*
X0204343Y0160374D01*
X0203242Y0160374D01*
X0203242Y0159640D01*
X0203242Y0160374D02*
X0203976Y0161108D01*
X0204710Y0161475D01*
X0205452Y0161475D02*
X0205452Y0160374D01*
X0206186Y0160741D01*
X0206553Y0160741D01*
X0206920Y0160374D01*
X0206920Y0159640D01*
X0206553Y0159273D01*
X0205819Y0159273D01*
X0205452Y0159640D01*
X0205452Y0161475D02*
X0206920Y0161475D01*
X0211701Y0163998D02*
X0211701Y0166200D01*
X0212802Y0166200D01*
X0213169Y0165833D01*
X0213169Y0165099D01*
X0212802Y0164732D01*
X0211701Y0164732D01*
X0212435Y0164732D02*
X0213169Y0163998D01*
X0213911Y0163998D02*
X0213911Y0164365D01*
X0215379Y0165833D01*
X0215379Y0166200D01*
X0213911Y0166200D01*
X0216121Y0165833D02*
X0216488Y0166200D01*
X0217221Y0166200D01*
X0217588Y0165833D01*
X0216121Y0164365D01*
X0216488Y0163998D01*
X0217221Y0163998D01*
X0217588Y0164365D01*
X0217588Y0165833D01*
X0216121Y0165833D02*
X0216121Y0164365D01*
X0222907Y0161475D02*
X0222907Y0159273D01*
X0222907Y0160007D02*
X0224008Y0160007D01*
X0224375Y0160374D01*
X0224375Y0161108D01*
X0224008Y0161475D01*
X0222907Y0161475D01*
X0223641Y0160007D02*
X0224375Y0159273D01*
X0225117Y0159273D02*
X0225117Y0159640D01*
X0226585Y0161108D01*
X0226585Y0161475D01*
X0225117Y0161475D01*
X0227327Y0161475D02*
X0227327Y0160374D01*
X0228061Y0160741D01*
X0228428Y0160741D01*
X0228795Y0160374D01*
X0228795Y0159640D01*
X0228428Y0159273D01*
X0227694Y0159273D01*
X0227327Y0159640D01*
X0227327Y0161475D02*
X0228795Y0161475D01*
X0233576Y0163998D02*
X0233576Y0166200D01*
X0234677Y0166200D01*
X0235044Y0165833D01*
X0235044Y0165099D01*
X0234677Y0164732D01*
X0233576Y0164732D01*
X0234310Y0164732D02*
X0235044Y0163998D01*
X0235785Y0164365D02*
X0235785Y0164732D01*
X0236152Y0165099D01*
X0236886Y0165099D01*
X0237253Y0164732D01*
X0237253Y0164365D01*
X0236886Y0163998D01*
X0236152Y0163998D01*
X0235785Y0164365D01*
X0236152Y0165099D02*
X0235785Y0165466D01*
X0235785Y0165833D01*
X0236152Y0166200D01*
X0236886Y0166200D01*
X0237253Y0165833D01*
X0237253Y0165466D01*
X0236886Y0165099D01*
X0237995Y0164365D02*
X0237995Y0165833D01*
X0238362Y0166200D01*
X0239096Y0166200D01*
X0239463Y0165833D01*
X0237995Y0164365D01*
X0238362Y0163998D01*
X0239096Y0163998D01*
X0239463Y0164365D01*
X0239463Y0165833D01*
X0244388Y0161475D02*
X0245489Y0161475D01*
X0245856Y0161108D01*
X0245856Y0160374D01*
X0245489Y0160007D01*
X0244388Y0160007D01*
X0244388Y0159273D02*
X0244388Y0161475D01*
X0245122Y0160007D02*
X0245856Y0159273D01*
X0246598Y0159640D02*
X0246598Y0160007D01*
X0246965Y0160374D01*
X0247699Y0160374D01*
X0248066Y0160007D01*
X0248066Y0159640D01*
X0247699Y0159273D01*
X0246965Y0159273D01*
X0246598Y0159640D01*
X0246965Y0160374D02*
X0246598Y0160741D01*
X0246598Y0161108D01*
X0246965Y0161475D01*
X0247699Y0161475D01*
X0248066Y0161108D01*
X0248066Y0160741D01*
X0247699Y0160374D01*
X0248808Y0160374D02*
X0249542Y0160741D01*
X0249909Y0160741D01*
X0250276Y0160374D01*
X0250276Y0159640D01*
X0249909Y0159273D01*
X0249175Y0159273D01*
X0248808Y0159640D01*
X0248808Y0160374D02*
X0248808Y0161475D01*
X0250276Y0161475D01*
X0254557Y0163998D02*
X0254557Y0166200D01*
X0255658Y0166200D01*
X0256025Y0165833D01*
X0256025Y0165099D01*
X0255658Y0164732D01*
X0254557Y0164732D01*
X0255291Y0164732D02*
X0256025Y0163998D01*
X0256767Y0164365D02*
X0257134Y0163998D01*
X0257868Y0163998D01*
X0258235Y0164365D01*
X0258235Y0165833D01*
X0257868Y0166200D01*
X0257134Y0166200D01*
X0256767Y0165833D01*
X0256767Y0165466D01*
X0257134Y0165099D01*
X0258235Y0165099D01*
X0258977Y0164365D02*
X0258977Y0165833D01*
X0259344Y0166200D01*
X0260078Y0166200D01*
X0260445Y0165833D01*
X0258977Y0164365D01*
X0259344Y0163998D01*
X0260078Y0163998D01*
X0260445Y0164365D01*
X0260445Y0165833D01*
X0260551Y0176109D02*
X0258349Y0176109D01*
X0258349Y0177210D01*
X0258716Y0177577D01*
X0259450Y0177577D01*
X0259817Y0177210D01*
X0259817Y0176109D01*
X0259817Y0176843D02*
X0260551Y0177577D01*
X0260184Y0178319D02*
X0260551Y0178686D01*
X0260551Y0179420D01*
X0260184Y0179787D01*
X0258716Y0179787D01*
X0258349Y0179420D01*
X0258349Y0178686D01*
X0258716Y0178319D01*
X0259083Y0178319D01*
X0259450Y0178686D01*
X0259450Y0179787D01*
X0258716Y0180529D02*
X0258349Y0180896D01*
X0258349Y0181630D01*
X0258716Y0181997D01*
X0259083Y0181997D01*
X0259450Y0181630D01*
X0259817Y0181997D01*
X0260184Y0181997D01*
X0260551Y0181630D01*
X0260551Y0180896D01*
X0260184Y0180529D01*
X0259450Y0181263D02*
X0259450Y0181630D01*
X0249988Y0181630D02*
X0249988Y0180896D01*
X0249621Y0180529D01*
X0249254Y0180529D01*
X0248887Y0180896D01*
X0248887Y0181630D01*
X0249254Y0181997D01*
X0249621Y0181997D01*
X0249988Y0181630D01*
X0248887Y0181630D02*
X0248520Y0181997D01*
X0248153Y0181997D01*
X0247786Y0181630D01*
X0247786Y0180896D01*
X0248153Y0180529D01*
X0248520Y0180529D01*
X0248887Y0180896D01*
X0248520Y0179787D02*
X0248887Y0179420D01*
X0248887Y0178686D01*
X0248520Y0178319D01*
X0248153Y0178319D01*
X0247786Y0178686D01*
X0247786Y0179420D01*
X0248153Y0179787D01*
X0248520Y0179787D01*
X0248887Y0179420D02*
X0249254Y0179787D01*
X0249621Y0179787D01*
X0249988Y0179420D01*
X0249988Y0178686D01*
X0249621Y0178319D01*
X0249254Y0178319D01*
X0248887Y0178686D01*
X0248887Y0177577D02*
X0249254Y0177210D01*
X0249254Y0176109D01*
X0249988Y0176109D02*
X0247786Y0176109D01*
X0247786Y0177210D01*
X0248153Y0177577D01*
X0248887Y0177577D01*
X0249254Y0176843D02*
X0249988Y0177577D01*
X0238926Y0177577D02*
X0238192Y0176843D01*
X0238192Y0177210D02*
X0238192Y0176109D01*
X0238926Y0176109D02*
X0236724Y0176109D01*
X0236724Y0177210D01*
X0237091Y0177577D01*
X0237825Y0177577D01*
X0238192Y0177210D01*
X0238192Y0178319D02*
X0237825Y0178686D01*
X0237825Y0179420D01*
X0238192Y0179787D01*
X0238559Y0179787D01*
X0238926Y0179420D01*
X0238926Y0178686D01*
X0238559Y0178319D01*
X0238192Y0178319D01*
X0237825Y0178686D02*
X0237458Y0178319D01*
X0237091Y0178319D01*
X0236724Y0178686D01*
X0236724Y0179420D01*
X0237091Y0179787D01*
X0237458Y0179787D01*
X0237825Y0179420D01*
X0237091Y0180529D02*
X0236724Y0180896D01*
X0236724Y0181630D01*
X0237091Y0181997D01*
X0237458Y0181997D01*
X0237825Y0181630D01*
X0238192Y0181997D01*
X0238559Y0181997D01*
X0238926Y0181630D01*
X0238926Y0180896D01*
X0238559Y0180529D01*
X0237825Y0181263D02*
X0237825Y0181630D01*
X0228363Y0181630D02*
X0228363Y0180896D01*
X0227996Y0180529D01*
X0227629Y0180529D01*
X0227262Y0180896D01*
X0227262Y0181630D01*
X0227629Y0181997D01*
X0227996Y0181997D01*
X0228363Y0181630D01*
X0227262Y0181630D02*
X0226895Y0181997D01*
X0226528Y0181997D01*
X0226161Y0181630D01*
X0226161Y0180896D01*
X0226528Y0180529D01*
X0226895Y0180529D01*
X0227262Y0180896D01*
X0226528Y0179787D02*
X0227996Y0178319D01*
X0228363Y0178319D01*
X0228363Y0177577D02*
X0227629Y0176843D01*
X0227629Y0177210D02*
X0227629Y0176109D01*
X0228363Y0176109D02*
X0226161Y0176109D01*
X0226161Y0177210D01*
X0226528Y0177577D01*
X0227262Y0177577D01*
X0227629Y0177210D01*
X0226161Y0178319D02*
X0226161Y0179787D01*
X0226528Y0179787D01*
X0217694Y0180896D02*
X0217328Y0180529D01*
X0217694Y0180896D02*
X0217694Y0181630D01*
X0217328Y0181997D01*
X0216961Y0181997D01*
X0216594Y0181630D01*
X0216594Y0181263D01*
X0216594Y0181630D02*
X0216227Y0181997D01*
X0215860Y0181997D01*
X0215493Y0181630D01*
X0215493Y0180896D01*
X0215860Y0180529D01*
X0215860Y0179787D02*
X0217328Y0178319D01*
X0217694Y0178319D01*
X0217694Y0177577D02*
X0216961Y0176843D01*
X0216961Y0177210D02*
X0216961Y0176109D01*
X0217694Y0176109D02*
X0215493Y0176109D01*
X0215493Y0177210D01*
X0215860Y0177577D01*
X0216594Y0177577D01*
X0216961Y0177210D01*
X0215493Y0178319D02*
X0215493Y0179787D01*
X0215860Y0179787D01*
X0206882Y0179420D02*
X0206882Y0178686D01*
X0206515Y0178319D01*
X0205781Y0178319D01*
X0205781Y0179420D01*
X0206148Y0179787D01*
X0206515Y0179787D01*
X0206882Y0179420D01*
X0206515Y0180529D02*
X0206148Y0180529D01*
X0205781Y0180896D01*
X0205781Y0181630D01*
X0206148Y0181997D01*
X0206515Y0181997D01*
X0206882Y0181630D01*
X0206882Y0180896D01*
X0206515Y0180529D01*
X0205781Y0180896D02*
X0205414Y0180529D01*
X0205047Y0180529D01*
X0204680Y0180896D01*
X0204680Y0181630D01*
X0205047Y0181997D01*
X0205414Y0181997D01*
X0205781Y0181630D01*
X0204680Y0179787D02*
X0205047Y0179053D01*
X0205781Y0178319D01*
X0205781Y0177577D02*
X0206148Y0177210D01*
X0206148Y0176109D01*
X0206882Y0176109D02*
X0204680Y0176109D01*
X0204680Y0177210D01*
X0205047Y0177577D01*
X0205781Y0177577D01*
X0206148Y0176843D02*
X0206882Y0177577D01*
X0194888Y0177577D02*
X0194154Y0176843D01*
X0194154Y0177210D02*
X0194154Y0176109D01*
X0194888Y0176109D02*
X0192686Y0176109D01*
X0192686Y0177210D01*
X0193053Y0177577D01*
X0193787Y0177577D01*
X0194154Y0177210D01*
X0193787Y0178319D02*
X0193787Y0179420D01*
X0194154Y0179787D01*
X0194521Y0179787D01*
X0194888Y0179420D01*
X0194888Y0178686D01*
X0194521Y0178319D01*
X0193787Y0178319D01*
X0193053Y0179053D01*
X0192686Y0179787D01*
X0193053Y0180529D02*
X0192686Y0180896D01*
X0192686Y0181630D01*
X0193053Y0181997D01*
X0193420Y0181997D01*
X0193787Y0181630D01*
X0194154Y0181997D01*
X0194521Y0181997D01*
X0194888Y0181630D01*
X0194888Y0180896D01*
X0194521Y0180529D01*
X0193787Y0181263D02*
X0193787Y0181630D01*
X0184613Y0181630D02*
X0184613Y0180896D01*
X0184246Y0180529D01*
X0183879Y0180529D01*
X0183512Y0180896D01*
X0183512Y0181630D01*
X0183879Y0181997D01*
X0184246Y0181997D01*
X0184613Y0181630D01*
X0183512Y0181630D02*
X0183145Y0181997D01*
X0182778Y0181997D01*
X0182412Y0181630D01*
X0182412Y0180896D01*
X0182778Y0180529D01*
X0183145Y0180529D01*
X0183512Y0180896D01*
X0183512Y0179787D02*
X0184246Y0179787D01*
X0184613Y0179420D01*
X0184613Y0178686D01*
X0184246Y0178319D01*
X0183512Y0178319D02*
X0183145Y0179053D01*
X0183145Y0179420D01*
X0183512Y0179787D01*
X0182412Y0179787D02*
X0182412Y0178319D01*
X0183512Y0178319D01*
X0183512Y0177577D02*
X0183879Y0177210D01*
X0183879Y0176109D01*
X0184613Y0176109D02*
X0182412Y0176109D01*
X0182412Y0177210D01*
X0182778Y0177577D01*
X0183512Y0177577D01*
X0183879Y0176843D02*
X0184613Y0177577D01*
X0173801Y0177577D02*
X0173067Y0176843D01*
X0173067Y0177210D02*
X0173067Y0176109D01*
X0173801Y0176109D02*
X0171599Y0176109D01*
X0171599Y0177210D01*
X0171966Y0177577D01*
X0172700Y0177577D01*
X0173067Y0177210D01*
X0173434Y0178319D02*
X0173801Y0178686D01*
X0173801Y0179420D01*
X0173434Y0179787D01*
X0172700Y0179787D01*
X0172333Y0179420D01*
X0172333Y0179053D01*
X0172700Y0178319D01*
X0171599Y0178319D01*
X0171599Y0179787D01*
X0171966Y0180529D02*
X0171599Y0180896D01*
X0171599Y0181630D01*
X0171966Y0181997D01*
X0172333Y0181997D01*
X0172700Y0181630D01*
X0173067Y0181997D01*
X0173434Y0181997D01*
X0173801Y0181630D01*
X0173801Y0180896D01*
X0173434Y0180529D01*
X0172700Y0181263D02*
X0172700Y0181630D01*
X0163526Y0181630D02*
X0163526Y0180896D01*
X0163159Y0180529D01*
X0162425Y0180529D01*
X0162425Y0181630D01*
X0162792Y0181997D01*
X0163159Y0181997D01*
X0163526Y0181630D01*
X0162425Y0180529D02*
X0161691Y0181263D01*
X0161324Y0181997D01*
X0162425Y0179787D02*
X0162425Y0178319D01*
X0161324Y0179420D01*
X0163526Y0179420D01*
X0163526Y0177577D02*
X0162792Y0176843D01*
X0162792Y0177210D02*
X0162792Y0176109D01*
X0163526Y0176109D02*
X0161324Y0176109D01*
X0161324Y0177210D01*
X0161691Y0177577D01*
X0162425Y0177577D01*
X0162792Y0177210D01*
X0151926Y0177577D02*
X0151192Y0176843D01*
X0151192Y0177210D02*
X0151192Y0176109D01*
X0151926Y0176109D02*
X0149724Y0176109D01*
X0149724Y0177210D01*
X0150091Y0177577D01*
X0150825Y0177577D01*
X0151192Y0177210D01*
X0150825Y0178319D02*
X0150825Y0179787D01*
X0150091Y0180529D02*
X0149724Y0180896D01*
X0149724Y0181630D01*
X0150091Y0181997D01*
X0150458Y0181997D01*
X0150825Y0181630D01*
X0151192Y0181997D01*
X0151559Y0181997D01*
X0151926Y0181630D01*
X0151926Y0180896D01*
X0151559Y0180529D01*
X0150825Y0181263D02*
X0150825Y0181630D01*
X0149724Y0179420D02*
X0150825Y0178319D01*
X0151926Y0179420D02*
X0149724Y0179420D01*
X0141363Y0179420D02*
X0141363Y0178686D01*
X0140996Y0178319D01*
X0141363Y0177577D02*
X0140629Y0176843D01*
X0140629Y0177210D02*
X0140629Y0176109D01*
X0141363Y0176109D02*
X0139161Y0176109D01*
X0139161Y0177210D01*
X0139528Y0177577D01*
X0140262Y0177577D01*
X0140629Y0177210D01*
X0139528Y0178319D02*
X0139161Y0178686D01*
X0139161Y0179420D01*
X0139528Y0179787D01*
X0139895Y0179787D01*
X0140262Y0179420D01*
X0140629Y0179787D01*
X0140996Y0179787D01*
X0141363Y0179420D01*
X0140262Y0179420D02*
X0140262Y0179053D01*
X0139895Y0180529D02*
X0139528Y0180529D01*
X0139161Y0180896D01*
X0139161Y0181630D01*
X0139528Y0181997D01*
X0139895Y0181997D01*
X0140262Y0181630D01*
X0140262Y0180896D01*
X0139895Y0180529D01*
X0140262Y0180896D02*
X0140629Y0180529D01*
X0140996Y0180529D01*
X0141363Y0180896D01*
X0141363Y0181630D01*
X0140996Y0181997D01*
X0140629Y0181997D01*
X0140262Y0181630D01*
X0130301Y0181236D02*
X0130301Y0180502D01*
X0129934Y0180136D01*
X0129934Y0179394D02*
X0130301Y0179027D01*
X0130301Y0178293D01*
X0129934Y0177926D01*
X0130301Y0177184D02*
X0129567Y0176450D01*
X0129567Y0176817D02*
X0129567Y0175716D01*
X0130301Y0175716D02*
X0128099Y0175716D01*
X0128099Y0176817D01*
X0128466Y0177184D01*
X0129200Y0177184D01*
X0129567Y0176817D01*
X0128466Y0177926D02*
X0128099Y0178293D01*
X0128099Y0179027D01*
X0128466Y0179394D01*
X0128833Y0179394D01*
X0129200Y0179027D01*
X0129567Y0179394D01*
X0129934Y0179394D01*
X0129200Y0179027D02*
X0129200Y0178660D01*
X0128466Y0180136D02*
X0128099Y0180502D01*
X0128099Y0181236D01*
X0128466Y0181603D01*
X0128833Y0181603D01*
X0129200Y0181236D01*
X0129567Y0181603D01*
X0129934Y0181603D01*
X0130301Y0181236D01*
X0129200Y0181236D02*
X0129200Y0180869D01*
X0119094Y0180502D02*
X0118728Y0180136D01*
X0118361Y0180136D01*
X0117994Y0180502D01*
X0117994Y0181236D01*
X0118361Y0181603D01*
X0118728Y0181603D01*
X0119094Y0181236D01*
X0119094Y0180502D01*
X0117994Y0180502D02*
X0117627Y0180136D01*
X0117260Y0180136D01*
X0116893Y0180502D01*
X0116893Y0181236D01*
X0117260Y0181603D01*
X0117627Y0181603D01*
X0117994Y0181236D01*
X0117627Y0179394D02*
X0117260Y0179394D01*
X0116893Y0179027D01*
X0116893Y0178293D01*
X0117260Y0177926D01*
X0117260Y0177184D02*
X0117994Y0177184D01*
X0118361Y0176817D01*
X0118361Y0175716D01*
X0119094Y0175716D02*
X0116893Y0175716D01*
X0116893Y0176817D01*
X0117260Y0177184D01*
X0118361Y0176450D02*
X0119094Y0177184D01*
X0119094Y0177926D02*
X0117627Y0179394D01*
X0119094Y0179394D02*
X0119094Y0177926D01*
X0108820Y0177926D02*
X0107352Y0179394D01*
X0106985Y0179394D01*
X0106618Y0179027D01*
X0106618Y0178293D01*
X0106985Y0177926D01*
X0106985Y0177184D02*
X0107719Y0177184D01*
X0108086Y0176817D01*
X0108086Y0175716D01*
X0108820Y0175716D02*
X0106618Y0175716D01*
X0106618Y0176817D01*
X0106985Y0177184D01*
X0108086Y0176450D02*
X0108820Y0177184D01*
X0108820Y0177926D02*
X0108820Y0179394D01*
X0108453Y0180136D02*
X0108820Y0180502D01*
X0108820Y0181236D01*
X0108453Y0181603D01*
X0108086Y0181603D01*
X0107719Y0181236D01*
X0107719Y0180869D01*
X0107719Y0181236D02*
X0107352Y0181603D01*
X0106985Y0181603D01*
X0106618Y0181236D01*
X0106618Y0180502D01*
X0106985Y0180136D01*
X0097613Y0180358D02*
X0097246Y0179991D01*
X0096879Y0179991D01*
X0096512Y0180358D01*
X0096512Y0181092D01*
X0096879Y0181459D01*
X0097246Y0181459D01*
X0097613Y0181092D01*
X0097613Y0180358D01*
X0096512Y0180358D02*
X0096145Y0179991D01*
X0095778Y0179991D01*
X0095412Y0180358D01*
X0095412Y0181092D01*
X0095778Y0181459D01*
X0096145Y0181459D01*
X0096512Y0181092D01*
X0097613Y0179249D02*
X0097613Y0177782D01*
X0097613Y0178515D02*
X0095412Y0178515D01*
X0096145Y0177782D01*
X0095778Y0177040D02*
X0096512Y0177040D01*
X0096879Y0176673D01*
X0096879Y0175572D01*
X0096879Y0176306D02*
X0097613Y0177040D01*
X0097613Y0175572D02*
X0095412Y0175572D01*
X0095412Y0176673D01*
X0095778Y0177040D01*
X0086801Y0177184D02*
X0086067Y0176450D01*
X0086067Y0176817D02*
X0086067Y0175716D01*
X0086801Y0175716D02*
X0084599Y0175716D01*
X0084599Y0176817D01*
X0084966Y0177184D01*
X0085700Y0177184D01*
X0086067Y0176817D01*
X0086801Y0177926D02*
X0086801Y0179394D01*
X0086801Y0178660D02*
X0084599Y0178660D01*
X0085333Y0177926D01*
X0084966Y0180136D02*
X0084599Y0180502D01*
X0084599Y0181236D01*
X0084966Y0181603D01*
X0085333Y0181603D01*
X0085700Y0181236D01*
X0086067Y0181603D01*
X0086434Y0181603D01*
X0086801Y0181236D01*
X0086801Y0180502D01*
X0086434Y0180136D01*
X0085700Y0180869D02*
X0085700Y0181236D01*
X0076382Y0178882D02*
X0076382Y0178149D01*
X0076015Y0177782D01*
X0075648Y0177782D01*
X0075281Y0178149D01*
X0075281Y0178882D01*
X0075648Y0179249D01*
X0076015Y0179249D01*
X0076382Y0178882D01*
X0075281Y0178882D02*
X0074914Y0179249D01*
X0074547Y0179249D01*
X0074180Y0178882D01*
X0074180Y0178149D01*
X0074547Y0177782D01*
X0074914Y0177782D01*
X0075281Y0178149D01*
X0075281Y0177040D02*
X0075648Y0176673D01*
X0075648Y0175572D01*
X0075648Y0176306D02*
X0076382Y0177040D01*
X0075281Y0177040D02*
X0074547Y0177040D01*
X0074180Y0176673D01*
X0074180Y0175572D01*
X0076382Y0175572D01*
X0065425Y0175716D02*
X0063223Y0175716D01*
X0063223Y0176817D01*
X0063590Y0177184D01*
X0064324Y0177184D01*
X0064691Y0176817D01*
X0064691Y0175716D01*
X0064691Y0176450D02*
X0065425Y0177184D01*
X0065058Y0177926D02*
X0065425Y0178293D01*
X0065425Y0179027D01*
X0065058Y0179394D01*
X0064691Y0179394D01*
X0064324Y0179027D01*
X0064324Y0178660D01*
X0064324Y0179027D02*
X0063957Y0179394D01*
X0063590Y0179394D01*
X0063223Y0179027D01*
X0063223Y0178293D01*
X0063590Y0177926D01*
X0081594Y0166200D02*
X0082695Y0166200D01*
X0083062Y0165833D01*
X0083062Y0165099D01*
X0082695Y0164732D01*
X0081594Y0164732D01*
X0081594Y0163998D02*
X0081594Y0166200D01*
X0082328Y0164732D02*
X0083062Y0163998D01*
X0083804Y0163998D02*
X0085272Y0163998D01*
X0084538Y0163998D02*
X0084538Y0166200D01*
X0083804Y0165466D01*
X0086014Y0165833D02*
X0086381Y0166200D01*
X0087115Y0166200D01*
X0087482Y0165833D01*
X0086014Y0164365D01*
X0086381Y0163998D01*
X0087115Y0163998D01*
X0087482Y0164365D01*
X0087482Y0165833D01*
X0086014Y0165833D02*
X0086014Y0164365D01*
X0092013Y0161475D02*
X0093114Y0161475D01*
X0093481Y0161108D01*
X0093481Y0160374D01*
X0093114Y0160007D01*
X0092013Y0160007D01*
X0092013Y0159273D02*
X0092013Y0161475D01*
X0092747Y0160007D02*
X0093481Y0159273D01*
X0094223Y0159273D02*
X0095691Y0159273D01*
X0094957Y0159273D02*
X0094957Y0161475D01*
X0094223Y0160741D01*
X0096433Y0160374D02*
X0097167Y0160741D01*
X0097534Y0160741D01*
X0097901Y0160374D01*
X0097901Y0159640D01*
X0097534Y0159273D01*
X0096800Y0159273D01*
X0096433Y0159640D01*
X0096433Y0160374D02*
X0096433Y0161475D01*
X0097901Y0161475D01*
X0103076Y0163998D02*
X0103076Y0166200D01*
X0104177Y0166200D01*
X0104544Y0165833D01*
X0104544Y0165099D01*
X0104177Y0164732D01*
X0103076Y0164732D01*
X0103810Y0164732D02*
X0104544Y0163998D01*
X0105285Y0163998D02*
X0106753Y0165466D01*
X0106753Y0165833D01*
X0106386Y0166200D01*
X0105652Y0166200D01*
X0105285Y0165833D01*
X0105285Y0163998D02*
X0106753Y0163998D01*
X0107495Y0164365D02*
X0108963Y0165833D01*
X0108963Y0164365D01*
X0108596Y0163998D01*
X0107862Y0163998D01*
X0107495Y0164365D01*
X0107495Y0165833D01*
X0107862Y0166200D01*
X0108596Y0166200D01*
X0108963Y0165833D01*
X0076382Y0147783D02*
X0076015Y0147783D01*
X0074547Y0149251D01*
X0074180Y0149251D01*
X0074180Y0147783D01*
X0074547Y0147041D02*
X0074180Y0146674D01*
X0074180Y0145573D01*
X0076382Y0145573D01*
X0075648Y0145573D02*
X0075648Y0146674D01*
X0075281Y0147041D01*
X0074547Y0147041D01*
X0075648Y0146307D02*
X0076382Y0147041D01*
X0065713Y0147041D02*
X0064979Y0146307D01*
X0064979Y0146674D02*
X0064979Y0145573D01*
X0065713Y0145573D02*
X0063512Y0145573D01*
X0063512Y0146674D01*
X0063878Y0147041D01*
X0064612Y0147041D01*
X0064979Y0146674D01*
X0065713Y0147783D02*
X0064245Y0149251D01*
X0063878Y0149251D01*
X0063512Y0148884D01*
X0063512Y0148150D01*
X0063878Y0147783D01*
X0065713Y0147783D02*
X0065713Y0149251D01*
X0070782Y0159273D02*
X0070782Y0161475D01*
X0071883Y0161475D01*
X0072250Y0161108D01*
X0072250Y0160374D01*
X0071883Y0160007D01*
X0070782Y0160007D01*
X0071516Y0160007D02*
X0072250Y0159273D01*
X0072992Y0159640D02*
X0073359Y0159273D01*
X0074093Y0159273D01*
X0074460Y0159640D01*
X0074460Y0160374D01*
X0074093Y0160741D01*
X0073726Y0160741D01*
X0072992Y0160374D01*
X0072992Y0161475D01*
X0074460Y0161475D01*
X0092013Y0138957D02*
X0093114Y0138957D01*
X0093481Y0138590D01*
X0093481Y0137856D01*
X0093114Y0137489D01*
X0092013Y0137489D01*
X0092013Y0136755D02*
X0092013Y0138957D01*
X0092747Y0137489D02*
X0093481Y0136755D01*
X0094223Y0136755D02*
X0095691Y0136755D01*
X0094957Y0136755D02*
X0094957Y0138957D01*
X0094223Y0138223D01*
X0096433Y0137856D02*
X0097901Y0137856D01*
X0097534Y0136755D02*
X0097534Y0138957D01*
X0096433Y0137856D01*
X0157388Y0137489D02*
X0158489Y0137489D01*
X0158856Y0137856D01*
X0158856Y0138590D01*
X0158489Y0138957D01*
X0157388Y0138957D01*
X0157388Y0136755D01*
X0158122Y0137489D02*
X0158856Y0136755D01*
X0159598Y0137856D02*
X0161066Y0137856D01*
X0161808Y0137856D02*
X0163276Y0137856D01*
X0162909Y0136755D02*
X0162909Y0138957D01*
X0161808Y0137856D01*
X0160699Y0136755D02*
X0160699Y0138957D01*
X0159598Y0137856D01*
X0168345Y0141480D02*
X0168345Y0143681D01*
X0169446Y0143681D01*
X0169813Y0143314D01*
X0169813Y0142580D01*
X0169446Y0142213D01*
X0168345Y0142213D01*
X0169079Y0142213D02*
X0169813Y0141480D01*
X0170555Y0142580D02*
X0172023Y0142580D01*
X0172765Y0142947D02*
X0173132Y0142580D01*
X0174233Y0142580D01*
X0174233Y0141847D02*
X0174233Y0143314D01*
X0173866Y0143681D01*
X0173132Y0143681D01*
X0172765Y0143314D01*
X0172765Y0142947D01*
X0172765Y0141847D02*
X0173132Y0141480D01*
X0173866Y0141480D01*
X0174233Y0141847D01*
X0171656Y0141480D02*
X0171656Y0143681D01*
X0170555Y0142580D01*
X0171599Y0145573D02*
X0171599Y0146674D01*
X0171966Y0147041D01*
X0172700Y0147041D01*
X0173067Y0146674D01*
X0173067Y0145573D01*
X0173801Y0145573D02*
X0171599Y0145573D01*
X0173067Y0146307D02*
X0173801Y0147041D01*
X0173434Y0147783D02*
X0173801Y0148150D01*
X0173801Y0148884D01*
X0173434Y0149251D01*
X0172700Y0149251D01*
X0172333Y0148884D01*
X0172333Y0148517D01*
X0172700Y0147783D01*
X0171599Y0147783D01*
X0171599Y0149251D01*
X0171966Y0149993D02*
X0171599Y0150360D01*
X0171599Y0151094D01*
X0171966Y0151461D01*
X0172333Y0151461D01*
X0173801Y0149993D01*
X0173801Y0151461D01*
X0182018Y0151461D02*
X0182385Y0151461D01*
X0183853Y0149993D01*
X0184220Y0149993D01*
X0183853Y0149251D02*
X0184220Y0148884D01*
X0184220Y0148150D01*
X0183853Y0147783D01*
X0183119Y0147783D02*
X0182752Y0148517D01*
X0182752Y0148884D01*
X0183119Y0149251D01*
X0183853Y0149251D01*
X0183119Y0147783D02*
X0182018Y0147783D01*
X0182018Y0149251D01*
X0182018Y0149993D02*
X0182018Y0151461D01*
X0182385Y0147041D02*
X0183119Y0147041D01*
X0183486Y0146674D01*
X0183486Y0145573D01*
X0184220Y0145573D02*
X0182018Y0145573D01*
X0182018Y0146674D01*
X0182385Y0147041D01*
X0183486Y0146307D02*
X0184220Y0147041D01*
X0190220Y0143681D02*
X0190220Y0141480D01*
X0190220Y0142213D02*
X0191321Y0142213D01*
X0191688Y0142580D01*
X0191688Y0143314D01*
X0191321Y0143681D01*
X0190220Y0143681D01*
X0190954Y0142213D02*
X0191688Y0141480D01*
X0192430Y0141847D02*
X0192797Y0141480D01*
X0193530Y0141480D01*
X0193897Y0141847D01*
X0193897Y0142580D01*
X0193530Y0142947D01*
X0193164Y0142947D01*
X0192430Y0142580D01*
X0192430Y0143681D01*
X0193897Y0143681D01*
X0194639Y0143314D02*
X0194639Y0142947D01*
X0195006Y0142580D01*
X0196107Y0142580D01*
X0196107Y0141847D02*
X0196107Y0143314D01*
X0195740Y0143681D01*
X0195006Y0143681D01*
X0194639Y0143314D01*
X0194639Y0141847D02*
X0195006Y0141480D01*
X0195740Y0141480D01*
X0196107Y0141847D01*
X0201032Y0138957D02*
X0202133Y0138957D01*
X0202500Y0138590D01*
X0202500Y0137856D01*
X0202133Y0137489D01*
X0201032Y0137489D01*
X0201032Y0136755D02*
X0201032Y0138957D01*
X0201766Y0137489D02*
X0202500Y0136755D01*
X0203242Y0137122D02*
X0203609Y0136755D01*
X0204343Y0136755D01*
X0204710Y0137122D01*
X0204710Y0137489D01*
X0204343Y0137856D01*
X0203242Y0137856D01*
X0203242Y0137122D01*
X0203242Y0137856D02*
X0203976Y0138590D01*
X0204710Y0138957D01*
X0205452Y0137856D02*
X0206920Y0137856D01*
X0206553Y0136755D02*
X0206553Y0138957D01*
X0205452Y0137856D01*
X0211701Y0141480D02*
X0211701Y0143681D01*
X0212802Y0143681D01*
X0213169Y0143314D01*
X0213169Y0142580D01*
X0212802Y0142213D01*
X0211701Y0142213D01*
X0212435Y0142213D02*
X0213169Y0141480D01*
X0213911Y0141847D02*
X0214278Y0141480D01*
X0215012Y0141480D01*
X0215379Y0141847D01*
X0215379Y0142213D01*
X0215012Y0142580D01*
X0213911Y0142580D01*
X0213911Y0141847D01*
X0213911Y0142580D02*
X0214645Y0143314D01*
X0215379Y0143681D01*
X0216121Y0143314D02*
X0216121Y0142947D01*
X0216488Y0142580D01*
X0217588Y0142580D01*
X0217588Y0141847D02*
X0217588Y0143314D01*
X0217221Y0143681D01*
X0216488Y0143681D01*
X0216121Y0143314D01*
X0216121Y0141847D02*
X0216488Y0141480D01*
X0217221Y0141480D01*
X0217588Y0141847D01*
X0222907Y0138957D02*
X0224008Y0138957D01*
X0224375Y0138590D01*
X0224375Y0137856D01*
X0224008Y0137489D01*
X0222907Y0137489D01*
X0222907Y0136755D02*
X0222907Y0138957D01*
X0223641Y0137489D02*
X0224375Y0136755D01*
X0225117Y0136755D02*
X0225117Y0137122D01*
X0226585Y0138590D01*
X0226585Y0138957D01*
X0225117Y0138957D01*
X0227327Y0137856D02*
X0228795Y0137856D01*
X0228428Y0136755D02*
X0228428Y0138957D01*
X0227327Y0137856D01*
X0233576Y0141480D02*
X0233576Y0143681D01*
X0234677Y0143681D01*
X0235044Y0143314D01*
X0235044Y0142580D01*
X0234677Y0142213D01*
X0233576Y0142213D01*
X0234310Y0142213D02*
X0235044Y0141480D01*
X0235785Y0141480D02*
X0235785Y0141847D01*
X0237253Y0143314D01*
X0237253Y0143681D01*
X0235785Y0143681D01*
X0236724Y0145573D02*
X0236724Y0146674D01*
X0237091Y0147041D01*
X0237825Y0147041D01*
X0238192Y0146674D01*
X0238192Y0145573D01*
X0238926Y0145573D02*
X0236724Y0145573D01*
X0238192Y0146307D02*
X0238926Y0147041D01*
X0238559Y0147783D02*
X0238192Y0147783D01*
X0237825Y0148150D01*
X0237825Y0148884D01*
X0238192Y0149251D01*
X0238559Y0149251D01*
X0238926Y0148884D01*
X0238926Y0148150D01*
X0238559Y0147783D01*
X0237825Y0148150D02*
X0237458Y0147783D01*
X0237091Y0147783D01*
X0236724Y0148150D01*
X0236724Y0148884D01*
X0237091Y0149251D01*
X0237458Y0149251D01*
X0237825Y0148884D01*
X0237091Y0149993D02*
X0236724Y0150360D01*
X0236724Y0151094D01*
X0237091Y0151461D01*
X0237458Y0151461D01*
X0238926Y0149993D01*
X0238926Y0151461D01*
X0247393Y0151461D02*
X0247760Y0151461D01*
X0249228Y0149993D01*
X0249594Y0149993D01*
X0249228Y0149251D02*
X0249594Y0148884D01*
X0249594Y0148150D01*
X0249228Y0147783D01*
X0248861Y0147783D01*
X0248494Y0148150D01*
X0248494Y0148884D01*
X0248861Y0149251D01*
X0249228Y0149251D01*
X0248494Y0148884D02*
X0248127Y0149251D01*
X0247760Y0149251D01*
X0247393Y0148884D01*
X0247393Y0148150D01*
X0247760Y0147783D01*
X0248127Y0147783D01*
X0248494Y0148150D01*
X0248494Y0147041D02*
X0248861Y0146674D01*
X0248861Y0145573D01*
X0249594Y0145573D02*
X0247393Y0145573D01*
X0247393Y0146674D01*
X0247760Y0147041D01*
X0248494Y0147041D01*
X0248861Y0146307D02*
X0249594Y0147041D01*
X0247393Y0149993D02*
X0247393Y0151461D01*
X0258349Y0151094D02*
X0258349Y0150360D01*
X0258716Y0149993D01*
X0258716Y0149251D02*
X0258349Y0148884D01*
X0258349Y0148150D01*
X0258716Y0147783D01*
X0259083Y0147783D01*
X0259450Y0148150D01*
X0259450Y0149251D01*
X0260184Y0149251D02*
X0258716Y0149251D01*
X0260184Y0149251D02*
X0260551Y0148884D01*
X0260551Y0148150D01*
X0260184Y0147783D01*
X0260551Y0147041D02*
X0259817Y0146307D01*
X0259817Y0146674D02*
X0259817Y0145573D01*
X0260551Y0145573D02*
X0258349Y0145573D01*
X0258349Y0146674D01*
X0258716Y0147041D01*
X0259450Y0147041D01*
X0259817Y0146674D01*
X0260132Y0143681D02*
X0259765Y0143314D01*
X0259765Y0142947D01*
X0260132Y0142580D01*
X0261233Y0142580D01*
X0261233Y0141847D02*
X0261233Y0143314D01*
X0260866Y0143681D01*
X0260132Y0143681D01*
X0259023Y0143314D02*
X0259023Y0142947D01*
X0258656Y0142580D01*
X0257922Y0142580D01*
X0257555Y0142947D01*
X0257555Y0143314D01*
X0257922Y0143681D01*
X0258656Y0143681D01*
X0259023Y0143314D01*
X0258656Y0142580D02*
X0259023Y0142213D01*
X0259023Y0141847D01*
X0258656Y0141480D01*
X0257922Y0141480D01*
X0257555Y0141847D01*
X0257555Y0142213D01*
X0257922Y0142580D01*
X0256813Y0142580D02*
X0256813Y0143314D01*
X0256446Y0143681D01*
X0255345Y0143681D01*
X0255345Y0141480D01*
X0255345Y0142213D02*
X0256446Y0142213D01*
X0256813Y0142580D01*
X0256079Y0142213D02*
X0256813Y0141480D01*
X0259765Y0141847D02*
X0260132Y0141480D01*
X0260866Y0141480D01*
X0261233Y0141847D01*
X0250276Y0137856D02*
X0248808Y0137856D01*
X0249909Y0138957D01*
X0249909Y0136755D01*
X0248066Y0137122D02*
X0247699Y0136755D01*
X0246965Y0136755D01*
X0246598Y0137122D01*
X0246598Y0137489D01*
X0246965Y0137856D01*
X0247699Y0137856D01*
X0248066Y0137489D01*
X0248066Y0137122D01*
X0247699Y0137856D02*
X0248066Y0138223D01*
X0248066Y0138590D01*
X0247699Y0138957D01*
X0246965Y0138957D01*
X0246598Y0138590D01*
X0246598Y0138223D01*
X0246965Y0137856D01*
X0245856Y0137856D02*
X0245856Y0138590D01*
X0245489Y0138957D01*
X0244388Y0138957D01*
X0244388Y0136755D01*
X0244388Y0137489D02*
X0245489Y0137489D01*
X0245856Y0137856D01*
X0245122Y0137489D02*
X0245856Y0136755D01*
X0239463Y0141847D02*
X0239463Y0143314D01*
X0239096Y0143681D01*
X0238362Y0143681D01*
X0237995Y0143314D01*
X0237995Y0142947D01*
X0238362Y0142580D01*
X0239463Y0142580D01*
X0239463Y0141847D02*
X0239096Y0141480D01*
X0238362Y0141480D01*
X0237995Y0141847D01*
X0228363Y0145573D02*
X0226161Y0145573D01*
X0226161Y0146674D01*
X0226528Y0147041D01*
X0227262Y0147041D01*
X0227629Y0146674D01*
X0227629Y0145573D01*
X0227629Y0146307D02*
X0228363Y0147041D01*
X0228363Y0147783D02*
X0227996Y0147783D01*
X0226528Y0149251D01*
X0226161Y0149251D01*
X0226161Y0147783D01*
X0226161Y0149993D02*
X0226161Y0151461D01*
X0226528Y0151461D01*
X0227996Y0149993D01*
X0228363Y0149993D01*
X0217301Y0149993D02*
X0215833Y0151461D01*
X0215466Y0151461D01*
X0215099Y0151094D01*
X0215099Y0150360D01*
X0215466Y0149993D01*
X0215466Y0149251D02*
X0216934Y0147783D01*
X0217301Y0147783D01*
X0217301Y0147041D02*
X0216567Y0146307D01*
X0216567Y0146674D02*
X0216567Y0145573D01*
X0217301Y0145573D02*
X0215099Y0145573D01*
X0215099Y0146674D01*
X0215466Y0147041D01*
X0216200Y0147041D01*
X0216567Y0146674D01*
X0215099Y0147783D02*
X0215099Y0149251D01*
X0215466Y0149251D01*
X0217301Y0149993D02*
X0217301Y0151461D01*
X0206488Y0149993D02*
X0206121Y0149993D01*
X0204653Y0151461D01*
X0204286Y0151461D01*
X0204286Y0149993D01*
X0204286Y0149251D02*
X0204653Y0148517D01*
X0205387Y0147783D01*
X0205387Y0148884D01*
X0205754Y0149251D01*
X0206121Y0149251D01*
X0206488Y0148884D01*
X0206488Y0148150D01*
X0206121Y0147783D01*
X0205387Y0147783D01*
X0205387Y0147041D02*
X0204653Y0147041D01*
X0204286Y0146674D01*
X0204286Y0145573D01*
X0206488Y0145573D01*
X0205754Y0145573D02*
X0205754Y0146674D01*
X0205387Y0147041D01*
X0205754Y0146307D02*
X0206488Y0147041D01*
X0195282Y0147041D02*
X0194548Y0146307D01*
X0194548Y0146674D02*
X0194548Y0145573D01*
X0195282Y0145573D02*
X0193080Y0145573D01*
X0193080Y0146674D01*
X0193447Y0147041D01*
X0194181Y0147041D01*
X0194548Y0146674D01*
X0194915Y0147783D02*
X0195282Y0148150D01*
X0195282Y0148884D01*
X0194915Y0149251D01*
X0194548Y0149251D01*
X0194181Y0148884D01*
X0194181Y0147783D01*
X0194915Y0147783D01*
X0194181Y0147783D02*
X0193447Y0148517D01*
X0193080Y0149251D01*
X0193447Y0149993D02*
X0193080Y0150360D01*
X0193080Y0151094D01*
X0193447Y0151461D01*
X0193814Y0151461D01*
X0195282Y0149993D01*
X0195282Y0151461D01*
X0184678Y0138957D02*
X0183577Y0137856D01*
X0185045Y0137856D01*
X0184678Y0136755D02*
X0184678Y0138957D01*
X0182835Y0138957D02*
X0181367Y0138957D01*
X0181367Y0137856D01*
X0182101Y0138223D01*
X0182468Y0138223D01*
X0182835Y0137856D01*
X0182835Y0137122D01*
X0182468Y0136755D01*
X0181734Y0136755D01*
X0181367Y0137122D01*
X0180625Y0136755D02*
X0179891Y0137489D01*
X0180258Y0137489D02*
X0179157Y0137489D01*
X0179157Y0136755D02*
X0179157Y0138957D01*
X0180258Y0138957D01*
X0180625Y0138590D01*
X0180625Y0137856D01*
X0180258Y0137489D01*
X0182412Y0128943D02*
X0182778Y0128209D01*
X0183512Y0127475D01*
X0183512Y0128576D01*
X0183879Y0128943D01*
X0184246Y0128943D01*
X0184613Y0128576D01*
X0184613Y0127842D01*
X0184246Y0127475D01*
X0183512Y0127475D01*
X0183512Y0126733D02*
X0184246Y0126733D01*
X0184613Y0126366D01*
X0184613Y0125632D01*
X0184246Y0125265D01*
X0183512Y0125265D02*
X0183145Y0125999D01*
X0183145Y0126366D01*
X0183512Y0126733D01*
X0182412Y0126733D02*
X0182412Y0125265D01*
X0183512Y0125265D01*
X0183512Y0124523D02*
X0183879Y0124156D01*
X0183879Y0123055D01*
X0183879Y0123789D02*
X0184613Y0124523D01*
X0183512Y0124523D02*
X0182778Y0124523D01*
X0182412Y0124156D01*
X0182412Y0123055D01*
X0184613Y0123055D01*
X0193080Y0123055D02*
X0193080Y0124156D01*
X0193447Y0124523D01*
X0194181Y0124523D01*
X0194548Y0124156D01*
X0194548Y0123055D01*
X0195282Y0123055D02*
X0193080Y0123055D01*
X0194548Y0123789D02*
X0195282Y0124523D01*
X0194915Y0125265D02*
X0195282Y0125632D01*
X0195282Y0126366D01*
X0194915Y0126733D01*
X0194548Y0126733D01*
X0194181Y0126366D01*
X0194181Y0125265D01*
X0194915Y0125265D01*
X0194181Y0125265D02*
X0193447Y0125999D01*
X0193080Y0126733D01*
X0193814Y0127475D02*
X0193080Y0128209D01*
X0195282Y0128209D01*
X0195282Y0127475D02*
X0195282Y0128943D01*
X0204286Y0128943D02*
X0204653Y0128209D01*
X0205387Y0127475D01*
X0205387Y0128576D01*
X0205754Y0128943D01*
X0206121Y0128943D01*
X0206488Y0128576D01*
X0206488Y0127842D01*
X0206121Y0127475D01*
X0205387Y0127475D01*
X0205754Y0126733D02*
X0205387Y0126366D01*
X0205387Y0125265D01*
X0206121Y0125265D01*
X0206488Y0125632D01*
X0206488Y0126366D01*
X0206121Y0126733D01*
X0205754Y0126733D01*
X0204653Y0125999D02*
X0205387Y0125265D01*
X0205387Y0124523D02*
X0204653Y0124523D01*
X0204286Y0124156D01*
X0204286Y0123055D01*
X0206488Y0123055D01*
X0205754Y0123055D02*
X0205754Y0124156D01*
X0205387Y0124523D01*
X0205754Y0123789D02*
X0206488Y0124523D01*
X0204653Y0125999D02*
X0204286Y0126733D01*
X0215099Y0126733D02*
X0215466Y0126733D01*
X0216934Y0125265D01*
X0217301Y0125265D01*
X0217301Y0124523D02*
X0216567Y0123789D01*
X0216567Y0124156D02*
X0216567Y0123055D01*
X0217301Y0123055D02*
X0215099Y0123055D01*
X0215099Y0124156D01*
X0215466Y0124523D01*
X0216200Y0124523D01*
X0216567Y0124156D01*
X0215099Y0125265D02*
X0215099Y0126733D01*
X0215833Y0127475D02*
X0215099Y0128209D01*
X0217301Y0128209D01*
X0217301Y0127475D02*
X0217301Y0128943D01*
X0226161Y0128943D02*
X0226528Y0128209D01*
X0227262Y0127475D01*
X0227262Y0128576D01*
X0227629Y0128943D01*
X0227996Y0128943D01*
X0228363Y0128576D01*
X0228363Y0127842D01*
X0227996Y0127475D01*
X0227262Y0127475D01*
X0226528Y0126733D02*
X0227996Y0125265D01*
X0228363Y0125265D01*
X0228363Y0124523D02*
X0227629Y0123789D01*
X0227629Y0124156D02*
X0227629Y0123055D01*
X0228363Y0123055D02*
X0226161Y0123055D01*
X0226161Y0124156D01*
X0226528Y0124523D01*
X0227262Y0124523D01*
X0227629Y0124156D01*
X0226161Y0125265D02*
X0226161Y0126733D01*
X0226528Y0126733D01*
X0236724Y0126366D02*
X0237091Y0126733D01*
X0237458Y0126733D01*
X0237825Y0126366D01*
X0237825Y0125632D01*
X0237458Y0125265D01*
X0237091Y0125265D01*
X0236724Y0125632D01*
X0236724Y0126366D01*
X0237825Y0126366D02*
X0238192Y0126733D01*
X0238559Y0126733D01*
X0238926Y0126366D01*
X0238926Y0125632D01*
X0238559Y0125265D01*
X0238192Y0125265D01*
X0237825Y0125632D01*
X0237825Y0124523D02*
X0238192Y0124156D01*
X0238192Y0123055D01*
X0238926Y0123055D02*
X0236724Y0123055D01*
X0236724Y0124156D01*
X0237091Y0124523D01*
X0237825Y0124523D01*
X0238192Y0123789D02*
X0238926Y0124523D01*
X0238926Y0127475D02*
X0238926Y0128943D01*
X0238926Y0128209D02*
X0236724Y0128209D01*
X0237458Y0127475D01*
X0247786Y0126366D02*
X0248153Y0126733D01*
X0248520Y0126733D01*
X0248887Y0126366D01*
X0248887Y0125632D01*
X0248520Y0125265D01*
X0248153Y0125265D01*
X0247786Y0125632D01*
X0247786Y0126366D01*
X0248887Y0126366D02*
X0249254Y0126733D01*
X0249621Y0126733D01*
X0249988Y0126366D01*
X0249988Y0125632D01*
X0249621Y0125265D01*
X0249254Y0125265D01*
X0248887Y0125632D01*
X0248887Y0124523D02*
X0249254Y0124156D01*
X0249254Y0123055D01*
X0249254Y0123789D02*
X0249988Y0124523D01*
X0248887Y0124523D02*
X0248153Y0124523D01*
X0247786Y0124156D01*
X0247786Y0123055D01*
X0249988Y0123055D01*
X0249621Y0127475D02*
X0249988Y0127842D01*
X0249988Y0128576D01*
X0249621Y0128943D01*
X0249254Y0128943D01*
X0248887Y0128576D01*
X0248887Y0127475D01*
X0249621Y0127475D01*
X0248887Y0127475D02*
X0248153Y0128209D01*
X0247786Y0128943D01*
X0258599Y0128209D02*
X0260801Y0128209D01*
X0260801Y0127475D02*
X0260801Y0128943D01*
X0259333Y0127475D02*
X0258599Y0128209D01*
X0258966Y0126733D02*
X0258599Y0126366D01*
X0258599Y0125632D01*
X0258966Y0125265D01*
X0259333Y0125265D01*
X0259700Y0125632D01*
X0259700Y0126733D01*
X0260434Y0126733D02*
X0258966Y0126733D01*
X0260434Y0126733D02*
X0260801Y0126366D01*
X0260801Y0125632D01*
X0260434Y0125265D01*
X0260801Y0124523D02*
X0260067Y0123789D01*
X0260067Y0124156D02*
X0260067Y0123055D01*
X0260801Y0123055D02*
X0258599Y0123055D01*
X0258599Y0124156D01*
X0258966Y0124523D01*
X0259700Y0124523D01*
X0260067Y0124156D01*
X0260551Y0149993D02*
X0259083Y0151461D01*
X0258716Y0151461D01*
X0258349Y0151094D01*
X0260551Y0151461D02*
X0260551Y0149993D01*
X0173801Y0128943D02*
X0173801Y0127475D01*
X0173801Y0128209D02*
X0171599Y0128209D01*
X0172333Y0127475D01*
X0172700Y0126733D02*
X0173434Y0126733D01*
X0173801Y0126366D01*
X0173801Y0125632D01*
X0173434Y0125265D01*
X0172700Y0125265D02*
X0172333Y0125999D01*
X0172333Y0126366D01*
X0172700Y0126733D01*
X0171599Y0126733D02*
X0171599Y0125265D01*
X0172700Y0125265D01*
X0172700Y0124523D02*
X0173067Y0124156D01*
X0173067Y0123055D01*
X0173801Y0123055D02*
X0171599Y0123055D01*
X0171599Y0124156D01*
X0171966Y0124523D01*
X0172700Y0124523D01*
X0173067Y0123789D02*
X0173801Y0124523D01*
X0162988Y0124523D02*
X0162254Y0123789D01*
X0162254Y0124156D02*
X0162254Y0123055D01*
X0162988Y0123055D02*
X0160786Y0123055D01*
X0160786Y0124156D01*
X0161153Y0124523D01*
X0161887Y0124523D01*
X0162254Y0124156D01*
X0161887Y0125265D02*
X0161887Y0126733D01*
X0162621Y0127475D02*
X0162988Y0127475D01*
X0162621Y0127475D02*
X0161153Y0128943D01*
X0160786Y0128943D01*
X0160786Y0127475D01*
X0160786Y0126366D02*
X0161887Y0125265D01*
X0162988Y0126366D02*
X0160786Y0126366D01*
X0160786Y0145573D02*
X0160786Y0146674D01*
X0161153Y0147041D01*
X0161887Y0147041D01*
X0162254Y0146674D01*
X0162254Y0145573D01*
X0162254Y0146307D02*
X0162988Y0147041D01*
X0161887Y0147783D02*
X0161887Y0149251D01*
X0161520Y0149993D02*
X0161153Y0149993D01*
X0160786Y0150360D01*
X0160786Y0151094D01*
X0161153Y0151461D01*
X0161520Y0151461D01*
X0161887Y0151094D01*
X0161887Y0150360D01*
X0161520Y0149993D01*
X0161887Y0150360D02*
X0162254Y0149993D01*
X0162621Y0149993D01*
X0162988Y0150360D01*
X0162988Y0151094D01*
X0162621Y0151461D01*
X0162254Y0151461D01*
X0161887Y0151094D01*
X0160786Y0148884D02*
X0161887Y0147783D01*
X0162988Y0148884D02*
X0160786Y0148884D01*
X0160786Y0145573D02*
X0162988Y0145573D01*
D11*
X0301909Y0030305D02*
X0303410Y0030305D01*
X0302659Y0030305D02*
X0302659Y0026552D01*
X0301909Y0025801D01*
X0301158Y0025801D01*
X0300407Y0026552D01*
X0305011Y0027302D02*
X0307263Y0027302D01*
X0308014Y0028053D01*
X0308014Y0029554D01*
X0307263Y0030305D01*
X0305011Y0030305D01*
X0305011Y0025801D01*
X0309615Y0025801D02*
X0312618Y0025801D01*
X0311117Y0025801D02*
X0311117Y0030305D01*
X0309615Y0028804D01*
M02*
