%
M48
M72
T01C0.0400
T02C0.1300
%
T01
X7530Y9100
X6530Y9640
X7530Y10190
X6530Y10730
X7530Y11270
X6530Y11820
X7530Y12360
X6530Y12900
X7530Y13450
X6530Y13990
X7530Y14530
X6530Y15080
X7530Y15620
X6530Y16160
X7530Y16710
X6530Y17250
X7530Y17790
X6530Y18340
X7530Y18880
X6530Y19420
X7530Y19970
X6530Y20510
X7530Y21050
X6530Y21600
X7530Y22140
X6530Y22680
X7530Y23230
X6530Y23770
X7530Y24320
X6530Y24860
X7530Y25400
X6530Y25950
X7530Y26490
X6530Y27030
X7530Y27580
X6530Y28120
X7530Y28660
X13856Y7530
X14936Y7530
X16026Y7530
X17116Y7530
X18196Y7530
X19286Y7530
X20376Y7530
X21466Y7530
X22546Y7530
X23636Y7530
X24726Y7530
X25806Y7530
X26896Y7530
X27986Y7530
X29066Y7530
X30156Y7530
X31246Y7530
X32326Y7530
X33416Y7530
X32876Y6530
X31786Y6530
X30696Y6530
X29616Y6530
X28526Y6530
X27436Y6530
X26356Y6530
X25266Y6530
X24176Y6530
X23096Y6530
X22006Y6530
X20916Y6530
X19836Y6530
X18746Y6530
X17656Y6530
X16566Y6530
X15486Y6530
X14396Y6530
X40136Y9100
X40136Y10180
X41136Y9640
X41136Y10730
X41136Y11810
X40136Y11270
X40136Y12360
X40136Y13440
X40136Y14530
X41136Y13990
X41136Y15070
X41136Y16160
X40136Y15620
X40136Y16710
X40136Y17790
X41136Y17250
X41136Y18340
X41136Y19420
X40136Y18880
X40136Y19970
X40136Y21050
X41136Y20510
X41136Y21600
X41136Y22680
X41136Y23770
X40136Y23230
X40136Y24310
X40136Y25400
X41136Y24860
X41136Y25940
X41136Y27030
X40136Y26490
X40136Y27570
X40136Y28660
X41136Y28120
X40136Y22140
X41136Y12900
T02
X7030Y6380
X11136Y7030
X36136Y7030
X40636Y6380
X40636Y31380
X7030Y31380
M30
