G75*
%MOIN*%
%OFA0B0*%
%FSLAX25Y25*%
%IPPOS*%
%LPD*%
%AMOC8*
5,1,8,0,0,1.08239X$1,22.5*
%
%ADD10OC8,0.06000*%
%ADD11C,0.20000*%
%ADD12C,0.01600*%
D10*
X0075300Y0091004D03*
X0065300Y0096404D03*
X0075300Y0101904D03*
X0065300Y0107304D03*
X0075300Y0112704D03*
X0065300Y0118204D03*
X0075300Y0123604D03*
X0065300Y0129004D03*
X0075300Y0134504D03*
X0065300Y0139904D03*
X0075300Y0145304D03*
X0065300Y0150804D03*
X0075300Y0156204D03*
X0065300Y0161604D03*
X0075300Y0167104D03*
X0065300Y0172504D03*
X0075300Y0177904D03*
X0065300Y0183404D03*
X0075300Y0188804D03*
X0065300Y0194204D03*
X0075300Y0199704D03*
X0065300Y0205104D03*
X0075300Y0210504D03*
X0065300Y0216004D03*
X0075300Y0221404D03*
X0065300Y0226804D03*
X0075300Y0232304D03*
X0065300Y0237704D03*
X0075300Y0243204D03*
X0065300Y0248604D03*
X0075300Y0254004D03*
X0065300Y0259504D03*
X0075300Y0264904D03*
X0065300Y0270304D03*
X0075300Y0275804D03*
X0065300Y0281204D03*
X0075300Y0286604D03*
X0138563Y0075300D03*
X0149363Y0075300D03*
X0160263Y0075300D03*
X0171163Y0075300D03*
X0181963Y0075300D03*
X0192863Y0075300D03*
X0203763Y0075300D03*
X0214663Y0075300D03*
X0225463Y0075300D03*
X0236363Y0075300D03*
X0247263Y0075300D03*
X0258063Y0075300D03*
X0268963Y0075300D03*
X0279863Y0075300D03*
X0290663Y0075300D03*
X0301563Y0075300D03*
X0312463Y0075300D03*
X0323263Y0075300D03*
X0334163Y0075300D03*
X0328763Y0065300D03*
X0317863Y0065300D03*
X0306963Y0065300D03*
X0296163Y0065300D03*
X0285263Y0065300D03*
X0274363Y0065300D03*
X0263563Y0065300D03*
X0252663Y0065300D03*
X0241763Y0065300D03*
X0230963Y0065300D03*
X0220063Y0065300D03*
X0209163Y0065300D03*
X0198363Y0065300D03*
X0187463Y0065300D03*
X0176563Y0065300D03*
X0165663Y0065300D03*
X0154863Y0065300D03*
X0143963Y0065300D03*
X0401363Y0091004D03*
X0401363Y0101804D03*
X0411363Y0096404D03*
X0411363Y0107304D03*
X0411363Y0118104D03*
X0401363Y0112704D03*
X0401363Y0123604D03*
X0401363Y0134404D03*
X0401363Y0145304D03*
X0411363Y0150704D03*
X0411363Y0139904D03*
X0411363Y0129004D03*
X0401363Y0156204D03*
X0401363Y0167104D03*
X0401363Y0177904D03*
X0411363Y0172504D03*
X0411363Y0183404D03*
X0411363Y0194204D03*
X0401363Y0188804D03*
X0401363Y0199704D03*
X0401363Y0210504D03*
X0411363Y0205104D03*
X0411363Y0216004D03*
X0411363Y0226804D03*
X0411363Y0237704D03*
X0401363Y0243104D03*
X0401363Y0232304D03*
X0401363Y0221404D03*
X0411363Y0248604D03*
X0411363Y0259404D03*
X0411363Y0270304D03*
X0401363Y0275704D03*
X0401363Y0264904D03*
X0401363Y0254004D03*
X0411363Y0281204D03*
X0401363Y0286604D03*
X0411363Y0161604D03*
D11*
X0361363Y0070300D03*
X0406363Y0063804D03*
X0111363Y0070300D03*
X0070300Y0063804D03*
X0070300Y0313804D03*
X0406363Y0313804D03*
D12*
X0030073Y0322850D02*
X0030073Y0028931D01*
X0448007Y0028931D01*
X0448007Y0322850D01*
X0413722Y0322850D01*
X0415645Y0320927D01*
X0417172Y0318281D01*
X0417963Y0315331D01*
X0417963Y0312277D01*
X0417172Y0309327D01*
X0415645Y0306681D01*
X0413486Y0304522D01*
X0410840Y0302994D01*
X0407890Y0302204D01*
X0404836Y0302204D01*
X0401886Y0302994D01*
X0399240Y0304522D01*
X0397081Y0306681D01*
X0395554Y0309327D01*
X0394763Y0312277D01*
X0394763Y0315331D01*
X0395554Y0318281D01*
X0397081Y0320927D01*
X0399004Y0322850D01*
X0077659Y0322850D01*
X0079582Y0320927D01*
X0081109Y0318281D01*
X0081900Y0315331D01*
X0081900Y0312277D01*
X0081109Y0309327D01*
X0079582Y0306681D01*
X0077423Y0304522D01*
X0074777Y0302994D01*
X0071827Y0302204D01*
X0068773Y0302204D01*
X0065823Y0302994D01*
X0063177Y0304522D01*
X0061018Y0306681D01*
X0059491Y0309327D01*
X0058700Y0312277D01*
X0058700Y0315331D01*
X0059491Y0318281D01*
X0061018Y0320927D01*
X0062941Y0322850D01*
X0030073Y0322850D01*
X0030073Y0321499D02*
X0061590Y0321499D01*
X0060425Y0319900D02*
X0030073Y0319900D01*
X0030073Y0318302D02*
X0059502Y0318302D01*
X0059068Y0316703D02*
X0030073Y0316703D01*
X0030073Y0315105D02*
X0058700Y0315105D01*
X0058700Y0313506D02*
X0030073Y0313506D01*
X0030073Y0311908D02*
X0058799Y0311908D01*
X0059227Y0310309D02*
X0030073Y0310309D01*
X0030073Y0308711D02*
X0059846Y0308711D01*
X0060769Y0307112D02*
X0030073Y0307112D01*
X0030073Y0305514D02*
X0062185Y0305514D01*
X0064228Y0303915D02*
X0030073Y0303915D01*
X0030073Y0302317D02*
X0068352Y0302317D01*
X0072248Y0302317D02*
X0404415Y0302317D01*
X0408311Y0302317D02*
X0448007Y0302317D01*
X0448007Y0303915D02*
X0412435Y0303915D01*
X0414478Y0305514D02*
X0448007Y0305514D01*
X0448007Y0307112D02*
X0415894Y0307112D01*
X0416817Y0308711D02*
X0448007Y0308711D01*
X0448007Y0310309D02*
X0417436Y0310309D01*
X0417864Y0311908D02*
X0448007Y0311908D01*
X0448007Y0313506D02*
X0417963Y0313506D01*
X0417963Y0315105D02*
X0448007Y0315105D01*
X0448007Y0316703D02*
X0417595Y0316703D01*
X0417161Y0318302D02*
X0448007Y0318302D01*
X0448007Y0319900D02*
X0416238Y0319900D01*
X0415073Y0321499D02*
X0448007Y0321499D01*
X0448007Y0300718D02*
X0030073Y0300718D01*
X0030073Y0299120D02*
X0448007Y0299120D01*
X0448007Y0297521D02*
X0030073Y0297521D01*
X0030073Y0295923D02*
X0448007Y0295923D01*
X0448007Y0294324D02*
X0030073Y0294324D01*
X0030073Y0292726D02*
X0448007Y0292726D01*
X0448007Y0291127D02*
X0403345Y0291127D01*
X0403268Y0291204D02*
X0399458Y0291204D01*
X0397258Y0289004D01*
X0079405Y0289004D01*
X0077205Y0291204D01*
X0073395Y0291204D01*
X0070700Y0288509D01*
X0070700Y0284699D01*
X0071795Y0283604D01*
X0069405Y0283604D01*
X0067205Y0285804D01*
X0063395Y0285804D01*
X0060700Y0283109D01*
X0060700Y0279299D01*
X0063395Y0276604D01*
X0067205Y0276604D01*
X0069405Y0278804D01*
X0071795Y0278804D01*
X0070700Y0277709D01*
X0070700Y0273899D01*
X0071895Y0272704D01*
X0069405Y0272704D01*
X0067205Y0274904D01*
X0063395Y0274904D01*
X0060700Y0272209D01*
X0060700Y0268399D01*
X0063395Y0265704D01*
X0067205Y0265704D01*
X0069405Y0267904D01*
X0071795Y0267904D01*
X0070700Y0266809D01*
X0070700Y0262999D01*
X0071795Y0261904D01*
X0069405Y0261904D01*
X0067205Y0264104D01*
X0063395Y0264104D01*
X0060700Y0261409D01*
X0060700Y0257599D01*
X0063395Y0254904D01*
X0067205Y0254904D01*
X0069405Y0257104D01*
X0071895Y0257104D01*
X0070700Y0255909D01*
X0070700Y0252099D01*
X0071795Y0251004D01*
X0069405Y0251004D01*
X0067205Y0253204D01*
X0063395Y0253204D01*
X0060700Y0250509D01*
X0060700Y0246699D01*
X0063395Y0244004D01*
X0067205Y0244004D01*
X0069405Y0246204D01*
X0071795Y0246204D01*
X0070700Y0245109D01*
X0070700Y0241299D01*
X0071895Y0240104D01*
X0069405Y0240104D01*
X0067205Y0242304D01*
X0063395Y0242304D01*
X0060700Y0239609D01*
X0060700Y0235799D01*
X0063395Y0233104D01*
X0067205Y0233104D01*
X0069405Y0235304D01*
X0071795Y0235304D01*
X0070700Y0234209D01*
X0070700Y0230399D01*
X0071895Y0229204D01*
X0069405Y0229204D01*
X0067205Y0231404D01*
X0063395Y0231404D01*
X0060700Y0228709D01*
X0060700Y0224899D01*
X0063395Y0222204D01*
X0067205Y0222204D01*
X0069405Y0224404D01*
X0071795Y0224404D01*
X0070700Y0223309D01*
X0070700Y0219499D01*
X0071795Y0218404D01*
X0069405Y0218404D01*
X0067205Y0220604D01*
X0063395Y0220604D01*
X0060700Y0217909D01*
X0060700Y0214099D01*
X0063395Y0211404D01*
X0067205Y0211404D01*
X0069405Y0213604D01*
X0071895Y0213604D01*
X0070700Y0212409D01*
X0070700Y0208599D01*
X0071795Y0207504D01*
X0069405Y0207504D01*
X0067205Y0209704D01*
X0063395Y0209704D01*
X0060700Y0207009D01*
X0060700Y0203199D01*
X0063395Y0200504D01*
X0067205Y0200504D01*
X0069405Y0202704D01*
X0071795Y0202704D01*
X0070700Y0201609D01*
X0070700Y0197799D01*
X0071895Y0196604D01*
X0069405Y0196604D01*
X0067205Y0198804D01*
X0063395Y0198804D01*
X0060700Y0196109D01*
X0060700Y0192299D01*
X0063395Y0189604D01*
X0067205Y0189604D01*
X0069405Y0191804D01*
X0071795Y0191804D01*
X0070700Y0190709D01*
X0070700Y0186899D01*
X0071795Y0185804D01*
X0069405Y0185804D01*
X0067205Y0188004D01*
X0063395Y0188004D01*
X0060700Y0185309D01*
X0060700Y0181499D01*
X0063395Y0178804D01*
X0067205Y0178804D01*
X0069405Y0181004D01*
X0071895Y0181004D01*
X0070700Y0179809D01*
X0070700Y0175999D01*
X0071795Y0174904D01*
X0069405Y0174904D01*
X0067205Y0177104D01*
X0063395Y0177104D01*
X0060700Y0174409D01*
X0060700Y0170599D01*
X0063395Y0167904D01*
X0067205Y0167904D01*
X0069405Y0170104D01*
X0071795Y0170104D01*
X0070700Y0169009D01*
X0070700Y0165199D01*
X0071895Y0164004D01*
X0069405Y0164004D01*
X0067205Y0166204D01*
X0063395Y0166204D01*
X0060700Y0163509D01*
X0060700Y0159699D01*
X0063395Y0157004D01*
X0067205Y0157004D01*
X0069405Y0159204D01*
X0071795Y0159204D01*
X0070700Y0158109D01*
X0070700Y0154299D01*
X0071895Y0153104D01*
X0069505Y0153104D01*
X0067205Y0155404D01*
X0063395Y0155404D01*
X0060700Y0152709D01*
X0060700Y0148899D01*
X0063395Y0146204D01*
X0067205Y0146204D01*
X0069305Y0148304D01*
X0071795Y0148304D01*
X0070700Y0147209D01*
X0070700Y0143399D01*
X0071795Y0142304D01*
X0069405Y0142304D01*
X0067205Y0144504D01*
X0063395Y0144504D01*
X0060700Y0141809D01*
X0060700Y0137999D01*
X0063395Y0135304D01*
X0067205Y0135304D01*
X0069405Y0137504D01*
X0071795Y0137504D01*
X0070700Y0136409D01*
X0070700Y0132599D01*
X0071895Y0131404D01*
X0069405Y0131404D01*
X0067205Y0133604D01*
X0063395Y0133604D01*
X0060700Y0130909D01*
X0060700Y0127099D01*
X0063395Y0124404D01*
X0067205Y0124404D01*
X0069405Y0126604D01*
X0071795Y0126604D01*
X0070700Y0125509D01*
X0070700Y0121699D01*
X0071895Y0120504D01*
X0069505Y0120504D01*
X0067205Y0122804D01*
X0063395Y0122804D01*
X0060700Y0120109D01*
X0060700Y0116299D01*
X0063395Y0113604D01*
X0067205Y0113604D01*
X0069305Y0115704D01*
X0071795Y0115704D01*
X0070700Y0114609D01*
X0070700Y0110799D01*
X0071795Y0109704D01*
X0069405Y0109704D01*
X0067205Y0111904D01*
X0063395Y0111904D01*
X0060700Y0109209D01*
X0060700Y0105399D01*
X0063395Y0102704D01*
X0067205Y0102704D01*
X0069405Y0104904D01*
X0071795Y0104904D01*
X0070700Y0103809D01*
X0070700Y0099999D01*
X0071895Y0098804D01*
X0069405Y0098804D01*
X0067205Y0101004D01*
X0063395Y0101004D01*
X0060700Y0098309D01*
X0060700Y0094499D01*
X0063395Y0091804D01*
X0067205Y0091804D01*
X0069405Y0094004D01*
X0071795Y0094004D01*
X0070700Y0092909D01*
X0070700Y0089099D01*
X0073395Y0086404D01*
X0077205Y0086404D01*
X0079405Y0088604D01*
X0397258Y0088604D01*
X0399458Y0086404D01*
X0403268Y0086404D01*
X0405963Y0089099D01*
X0405963Y0092909D01*
X0404868Y0094004D01*
X0407258Y0094004D01*
X0409458Y0091804D01*
X0413268Y0091804D01*
X0415963Y0094499D01*
X0415963Y0098309D01*
X0413268Y0101004D01*
X0409458Y0101004D01*
X0407258Y0098804D01*
X0404868Y0098804D01*
X0405963Y0099899D01*
X0405963Y0103709D01*
X0404768Y0104904D01*
X0407258Y0104904D01*
X0409458Y0102704D01*
X0413268Y0102704D01*
X0415963Y0105399D01*
X0415963Y0109209D01*
X0413268Y0111904D01*
X0409458Y0111904D01*
X0407258Y0109704D01*
X0404868Y0109704D01*
X0405963Y0110799D01*
X0405963Y0114609D01*
X0404868Y0115704D01*
X0407258Y0115704D01*
X0409458Y0113504D01*
X0413268Y0113504D01*
X0415963Y0116199D01*
X0415963Y0120009D01*
X0413268Y0122704D01*
X0409458Y0122704D01*
X0407258Y0120504D01*
X0404768Y0120504D01*
X0405963Y0121699D01*
X0405963Y0125509D01*
X0404868Y0126604D01*
X0407258Y0126604D01*
X0409458Y0124404D01*
X0413268Y0124404D01*
X0415963Y0127099D01*
X0415963Y0130909D01*
X0413268Y0133604D01*
X0409458Y0133604D01*
X0407258Y0131404D01*
X0404868Y0131404D01*
X0405963Y0132499D01*
X0405963Y0136309D01*
X0404768Y0137504D01*
X0407258Y0137504D01*
X0409458Y0135304D01*
X0413268Y0135304D01*
X0415963Y0137999D01*
X0415963Y0141809D01*
X0413268Y0144504D01*
X0409458Y0144504D01*
X0407258Y0142304D01*
X0404868Y0142304D01*
X0405963Y0143399D01*
X0405963Y0147209D01*
X0404868Y0148304D01*
X0407258Y0148304D01*
X0409458Y0146104D01*
X0413268Y0146104D01*
X0415963Y0148799D01*
X0415963Y0152609D01*
X0413268Y0155304D01*
X0409458Y0155304D01*
X0407258Y0153104D01*
X0404768Y0153104D01*
X0405963Y0154299D01*
X0405963Y0158109D01*
X0404868Y0159204D01*
X0407258Y0159204D01*
X0409458Y0157004D01*
X0413268Y0157004D01*
X0415963Y0159699D01*
X0415963Y0163509D01*
X0413268Y0166204D01*
X0409458Y0166204D01*
X0407258Y0164004D01*
X0404768Y0164004D01*
X0405963Y0165199D01*
X0405963Y0169009D01*
X0404868Y0170104D01*
X0407258Y0170104D01*
X0409458Y0167904D01*
X0413268Y0167904D01*
X0415963Y0170599D01*
X0415963Y0174409D01*
X0413268Y0177104D01*
X0409458Y0177104D01*
X0407258Y0174904D01*
X0404868Y0174904D01*
X0405963Y0175999D01*
X0405963Y0179809D01*
X0404768Y0181004D01*
X0407258Y0181004D01*
X0409458Y0178804D01*
X0413268Y0178804D01*
X0415963Y0181499D01*
X0415963Y0185309D01*
X0413268Y0188004D01*
X0409458Y0188004D01*
X0407258Y0185804D01*
X0404868Y0185804D01*
X0405963Y0186899D01*
X0405963Y0190709D01*
X0404868Y0191804D01*
X0407258Y0191804D01*
X0409458Y0189604D01*
X0413268Y0189604D01*
X0415963Y0192299D01*
X0415963Y0196109D01*
X0413268Y0198804D01*
X0409458Y0198804D01*
X0407258Y0196604D01*
X0404768Y0196604D01*
X0405963Y0197799D01*
X0405963Y0201609D01*
X0404868Y0202704D01*
X0407258Y0202704D01*
X0409458Y0200504D01*
X0413268Y0200504D01*
X0415963Y0203199D01*
X0415963Y0207009D01*
X0413268Y0209704D01*
X0409458Y0209704D01*
X0407258Y0207504D01*
X0404868Y0207504D01*
X0405963Y0208599D01*
X0405963Y0212409D01*
X0404768Y0213604D01*
X0407258Y0213604D01*
X0409458Y0211404D01*
X0413268Y0211404D01*
X0415963Y0214099D01*
X0415963Y0217909D01*
X0413268Y0220604D01*
X0409458Y0220604D01*
X0407258Y0218404D01*
X0404868Y0218404D01*
X0405963Y0219499D01*
X0405963Y0223309D01*
X0404868Y0224404D01*
X0407258Y0224404D01*
X0409458Y0222204D01*
X0413268Y0222204D01*
X0415963Y0224899D01*
X0415963Y0228709D01*
X0413268Y0231404D01*
X0409458Y0231404D01*
X0407258Y0229204D01*
X0404768Y0229204D01*
X0405963Y0230399D01*
X0405963Y0234209D01*
X0404868Y0235304D01*
X0407258Y0235304D01*
X0409458Y0233104D01*
X0413268Y0233104D01*
X0415963Y0235799D01*
X0415963Y0239609D01*
X0413268Y0242304D01*
X0409458Y0242304D01*
X0407258Y0240104D01*
X0404868Y0240104D01*
X0405963Y0241199D01*
X0405963Y0245009D01*
X0404768Y0246204D01*
X0407258Y0246204D01*
X0409458Y0244004D01*
X0413268Y0244004D01*
X0415963Y0246699D01*
X0415963Y0250509D01*
X0413268Y0253204D01*
X0409458Y0253204D01*
X0407258Y0251004D01*
X0404868Y0251004D01*
X0405963Y0252099D01*
X0405963Y0255909D01*
X0404768Y0257104D01*
X0407158Y0257104D01*
X0409458Y0254804D01*
X0413268Y0254804D01*
X0415963Y0257499D01*
X0415963Y0261309D01*
X0413268Y0264004D01*
X0409458Y0264004D01*
X0407358Y0261904D01*
X0404868Y0261904D01*
X0405963Y0262999D01*
X0405963Y0266809D01*
X0404868Y0267904D01*
X0407258Y0267904D01*
X0409458Y0265704D01*
X0413268Y0265704D01*
X0415963Y0268399D01*
X0415963Y0272209D01*
X0413268Y0274904D01*
X0409458Y0274904D01*
X0407258Y0272704D01*
X0404868Y0272704D01*
X0405963Y0273799D01*
X0405963Y0277609D01*
X0404768Y0278804D01*
X0407258Y0278804D01*
X0409458Y0276604D01*
X0413268Y0276604D01*
X0415963Y0279299D01*
X0415963Y0283109D01*
X0413268Y0285804D01*
X0409458Y0285804D01*
X0407258Y0283604D01*
X0404868Y0283604D01*
X0405963Y0284699D01*
X0405963Y0288509D01*
X0403268Y0291204D01*
X0404944Y0289529D02*
X0448007Y0289529D01*
X0448007Y0287930D02*
X0405963Y0287930D01*
X0405963Y0286332D02*
X0448007Y0286332D01*
X0448007Y0284733D02*
X0414339Y0284733D01*
X0415938Y0283134D02*
X0448007Y0283134D01*
X0448007Y0281536D02*
X0415963Y0281536D01*
X0415963Y0279937D02*
X0448007Y0279937D01*
X0448007Y0278339D02*
X0415003Y0278339D01*
X0413405Y0276740D02*
X0448007Y0276740D01*
X0448007Y0275142D02*
X0405963Y0275142D01*
X0405963Y0276740D02*
X0409321Y0276740D01*
X0407723Y0278339D02*
X0405233Y0278339D01*
X0401363Y0275804D02*
X0401363Y0275704D01*
X0401363Y0275804D02*
X0075300Y0275804D01*
X0078705Y0272704D02*
X0079405Y0273404D01*
X0397158Y0273404D01*
X0397858Y0272704D01*
X0078705Y0272704D01*
X0078805Y0267904D02*
X0397858Y0267904D01*
X0397258Y0267304D01*
X0079405Y0267304D01*
X0078805Y0267904D01*
X0075300Y0264904D02*
X0401363Y0264904D01*
X0397858Y0261904D02*
X0078805Y0261904D01*
X0079405Y0262504D01*
X0397258Y0262504D01*
X0397858Y0261904D01*
X0397408Y0262354D02*
X0079255Y0262354D01*
X0078705Y0257104D02*
X0397958Y0257104D01*
X0397258Y0256404D01*
X0079405Y0256404D01*
X0078705Y0257104D01*
X0075300Y0254004D02*
X0401363Y0254004D01*
X0405963Y0254361D02*
X0448007Y0254361D01*
X0448007Y0252763D02*
X0413710Y0252763D01*
X0415308Y0251164D02*
X0448007Y0251164D01*
X0448007Y0249566D02*
X0415963Y0249566D01*
X0415963Y0247967D02*
X0448007Y0247967D01*
X0448007Y0246369D02*
X0415633Y0246369D01*
X0414035Y0244770D02*
X0448007Y0244770D01*
X0448007Y0243172D02*
X0405963Y0243172D01*
X0405963Y0244770D02*
X0408691Y0244770D01*
X0408727Y0241573D02*
X0405963Y0241573D01*
X0401363Y0243104D02*
X0401363Y0243204D01*
X0075300Y0243204D01*
X0070700Y0243172D02*
X0030073Y0243172D01*
X0030073Y0244770D02*
X0062628Y0244770D01*
X0061030Y0246369D02*
X0030073Y0246369D01*
X0030073Y0247967D02*
X0060700Y0247967D01*
X0060700Y0249566D02*
X0030073Y0249566D01*
X0030073Y0251164D02*
X0061355Y0251164D01*
X0062953Y0252763D02*
X0030073Y0252763D01*
X0030073Y0254361D02*
X0070700Y0254361D01*
X0070700Y0252763D02*
X0067647Y0252763D01*
X0069245Y0251164D02*
X0071634Y0251164D01*
X0070750Y0255960D02*
X0068261Y0255960D01*
X0065300Y0259504D02*
X0411263Y0259504D01*
X0411363Y0259404D01*
X0415963Y0259157D02*
X0448007Y0259157D01*
X0448007Y0260755D02*
X0415963Y0260755D01*
X0414918Y0262354D02*
X0448007Y0262354D01*
X0448007Y0263952D02*
X0413320Y0263952D01*
X0414714Y0267149D02*
X0448007Y0267149D01*
X0448007Y0265551D02*
X0405963Y0265551D01*
X0405963Y0263952D02*
X0409406Y0263952D01*
X0407808Y0262354D02*
X0405318Y0262354D01*
X0405623Y0267149D02*
X0408012Y0267149D01*
X0411363Y0270304D02*
X0065300Y0270304D01*
X0068566Y0273543D02*
X0071055Y0273543D01*
X0070700Y0275142D02*
X0030073Y0275142D01*
X0030073Y0276740D02*
X0063258Y0276740D01*
X0061660Y0278339D02*
X0030073Y0278339D01*
X0030073Y0279937D02*
X0060700Y0279937D01*
X0060700Y0281536D02*
X0030073Y0281536D01*
X0030073Y0283134D02*
X0060725Y0283134D01*
X0062324Y0284733D02*
X0030073Y0284733D01*
X0030073Y0286332D02*
X0070700Y0286332D01*
X0070700Y0287930D02*
X0030073Y0287930D01*
X0030073Y0289529D02*
X0071719Y0289529D01*
X0073318Y0291127D02*
X0030073Y0291127D01*
X0030073Y0273543D02*
X0062034Y0273543D01*
X0060700Y0271945D02*
X0030073Y0271945D01*
X0030073Y0270346D02*
X0060700Y0270346D01*
X0060700Y0268748D02*
X0030073Y0268748D01*
X0030073Y0267149D02*
X0061949Y0267149D01*
X0063243Y0263952D02*
X0030073Y0263952D01*
X0030073Y0262354D02*
X0061645Y0262354D01*
X0060700Y0260755D02*
X0030073Y0260755D01*
X0030073Y0259157D02*
X0060700Y0259157D01*
X0060740Y0257558D02*
X0030073Y0257558D01*
X0030073Y0255960D02*
X0062339Y0255960D01*
X0065300Y0248604D02*
X0411363Y0248604D01*
X0407418Y0251164D02*
X0405029Y0251164D01*
X0405963Y0252763D02*
X0409016Y0252763D01*
X0408302Y0255960D02*
X0405912Y0255960D01*
X0397858Y0251004D02*
X0078805Y0251004D01*
X0079405Y0251604D01*
X0397258Y0251604D01*
X0397858Y0251004D01*
X0397697Y0251164D02*
X0078966Y0251164D01*
X0078805Y0246204D02*
X0397958Y0246204D01*
X0397358Y0245604D01*
X0079405Y0245604D01*
X0078805Y0246204D01*
X0079405Y0240804D02*
X0078705Y0240104D01*
X0397858Y0240104D01*
X0397158Y0240804D01*
X0079405Y0240804D01*
X0078805Y0235304D02*
X0397858Y0235304D01*
X0397258Y0234704D01*
X0079405Y0234704D01*
X0078805Y0235304D01*
X0078930Y0235179D02*
X0397733Y0235179D01*
X0401363Y0232304D02*
X0075300Y0232304D01*
X0078705Y0229204D02*
X0079405Y0229904D01*
X0397258Y0229904D01*
X0397958Y0229204D01*
X0078705Y0229204D01*
X0078805Y0224404D02*
X0397858Y0224404D01*
X0397258Y0223804D01*
X0079405Y0223804D01*
X0078805Y0224404D01*
X0079220Y0223990D02*
X0397443Y0223990D01*
X0401363Y0221404D02*
X0075300Y0221404D01*
X0078805Y0218404D02*
X0079405Y0219004D01*
X0397258Y0219004D01*
X0397858Y0218404D01*
X0078805Y0218404D01*
X0078705Y0213604D02*
X0397958Y0213604D01*
X0397258Y0212904D01*
X0079405Y0212904D01*
X0078705Y0213604D01*
X0075300Y0210504D02*
X0401363Y0210504D01*
X0397858Y0207504D02*
X0397258Y0208104D01*
X0079405Y0208104D01*
X0078805Y0207504D01*
X0397858Y0207504D01*
X0397357Y0208004D02*
X0079306Y0208004D01*
X0078805Y0202704D02*
X0397858Y0202704D01*
X0397258Y0202104D01*
X0079405Y0202104D01*
X0078805Y0202704D01*
X0075300Y0199704D02*
X0401363Y0199704D01*
X0397958Y0196604D02*
X0078705Y0196604D01*
X0079405Y0197304D01*
X0397258Y0197304D01*
X0397958Y0196604D01*
X0397747Y0196815D02*
X0078916Y0196815D01*
X0078805Y0191804D02*
X0397858Y0191804D01*
X0397258Y0191204D01*
X0079405Y0191204D01*
X0078805Y0191804D01*
X0075300Y0188804D02*
X0401363Y0188804D01*
X0405963Y0188822D02*
X0448007Y0188822D01*
X0448007Y0187224D02*
X0414048Y0187224D01*
X0415647Y0185625D02*
X0448007Y0185625D01*
X0448007Y0184027D02*
X0415963Y0184027D01*
X0415963Y0182428D02*
X0448007Y0182428D01*
X0448007Y0180830D02*
X0415294Y0180830D01*
X0413696Y0179231D02*
X0448007Y0179231D01*
X0448007Y0177633D02*
X0405963Y0177633D01*
X0405963Y0179231D02*
X0409030Y0179231D01*
X0407432Y0180830D02*
X0404943Y0180830D01*
X0401363Y0177904D02*
X0075300Y0177904D01*
X0078705Y0181004D02*
X0397958Y0181004D01*
X0397258Y0180304D01*
X0079405Y0180304D01*
X0078705Y0181004D01*
X0078880Y0180830D02*
X0397783Y0180830D01*
X0397258Y0175504D02*
X0397858Y0174904D01*
X0078805Y0174904D01*
X0079405Y0175504D01*
X0397258Y0175504D01*
X0405963Y0176034D02*
X0408388Y0176034D01*
X0411363Y0172504D02*
X0065300Y0172504D01*
X0060700Y0172837D02*
X0030073Y0172837D01*
X0030073Y0171239D02*
X0060700Y0171239D01*
X0061658Y0169640D02*
X0030073Y0169640D01*
X0030073Y0168042D02*
X0063257Y0168042D01*
X0062035Y0164845D02*
X0030073Y0164845D01*
X0030073Y0166443D02*
X0070700Y0166443D01*
X0070700Y0168042D02*
X0067343Y0168042D01*
X0068942Y0169640D02*
X0071331Y0169640D01*
X0075300Y0167104D02*
X0401363Y0167104D01*
X0397958Y0164004D02*
X0078705Y0164004D01*
X0079405Y0164704D01*
X0397258Y0164704D01*
X0397958Y0164004D01*
X0397858Y0159204D02*
X0397258Y0158604D01*
X0079405Y0158604D01*
X0078805Y0159204D01*
X0397858Y0159204D01*
X0401363Y0156204D02*
X0075300Y0156204D01*
X0078705Y0153104D02*
X0079405Y0153804D01*
X0397258Y0153804D01*
X0397958Y0153104D01*
X0078705Y0153104D01*
X0079256Y0153655D02*
X0397406Y0153655D01*
X0405319Y0153655D02*
X0407809Y0153655D01*
X0409407Y0155254D02*
X0405963Y0155254D01*
X0405963Y0156852D02*
X0448007Y0156852D01*
X0448007Y0155254D02*
X0413319Y0155254D01*
X0414917Y0153655D02*
X0448007Y0153655D01*
X0448007Y0152057D02*
X0415963Y0152057D01*
X0415963Y0150458D02*
X0448007Y0150458D01*
X0448007Y0148860D02*
X0415963Y0148860D01*
X0414425Y0147261D02*
X0448007Y0147261D01*
X0448007Y0145663D02*
X0405963Y0145663D01*
X0405911Y0147261D02*
X0408301Y0147261D01*
X0409018Y0144064D02*
X0405963Y0144064D01*
X0405030Y0142465D02*
X0407419Y0142465D01*
X0411363Y0139904D02*
X0065300Y0139904D01*
X0060700Y0139268D02*
X0030073Y0139268D01*
X0030073Y0137670D02*
X0061029Y0137670D01*
X0062627Y0136071D02*
X0030073Y0136071D01*
X0030073Y0134473D02*
X0070700Y0134473D01*
X0070700Y0136071D02*
X0067973Y0136071D01*
X0067935Y0132874D02*
X0070700Y0132874D01*
X0075300Y0134404D02*
X0075300Y0134504D01*
X0075300Y0134404D02*
X0401363Y0134404D01*
X0405963Y0134473D02*
X0448007Y0134473D01*
X0448007Y0136071D02*
X0414036Y0136071D01*
X0415634Y0137670D02*
X0448007Y0137670D01*
X0448007Y0139268D02*
X0415963Y0139268D01*
X0415963Y0140867D02*
X0448007Y0140867D01*
X0448007Y0142465D02*
X0415307Y0142465D01*
X0413708Y0144064D02*
X0448007Y0144064D01*
X0448007Y0132874D02*
X0413998Y0132874D01*
X0415596Y0131276D02*
X0448007Y0131276D01*
X0448007Y0129677D02*
X0415963Y0129677D01*
X0415963Y0128079D02*
X0448007Y0128079D01*
X0448007Y0126480D02*
X0415345Y0126480D01*
X0413746Y0124882D02*
X0448007Y0124882D01*
X0448007Y0123283D02*
X0405963Y0123283D01*
X0405949Y0121685D02*
X0408439Y0121685D01*
X0408980Y0124882D02*
X0405963Y0124882D01*
X0404992Y0126480D02*
X0407381Y0126480D01*
X0411363Y0129004D02*
X0065300Y0129004D01*
X0060700Y0129677D02*
X0030073Y0129677D01*
X0030073Y0128079D02*
X0060700Y0128079D01*
X0061318Y0126480D02*
X0030073Y0126480D01*
X0030073Y0124882D02*
X0062917Y0124882D01*
X0062276Y0121685D02*
X0030073Y0121685D01*
X0030073Y0123283D02*
X0070700Y0123283D01*
X0070714Y0121685D02*
X0068324Y0121685D01*
X0067683Y0124882D02*
X0070700Y0124882D01*
X0071671Y0126480D02*
X0069282Y0126480D01*
X0075300Y0123604D02*
X0401363Y0123604D01*
X0397958Y0120504D02*
X0078705Y0120504D01*
X0079405Y0121204D01*
X0397258Y0121204D01*
X0397958Y0120504D01*
X0397858Y0115704D02*
X0397258Y0115104D01*
X0079405Y0115104D01*
X0078805Y0115704D01*
X0397858Y0115704D01*
X0397444Y0115291D02*
X0079218Y0115291D01*
X0075300Y0112704D02*
X0401363Y0112704D01*
X0397858Y0109704D02*
X0078805Y0109704D01*
X0079405Y0110304D01*
X0397258Y0110304D01*
X0397858Y0109704D01*
X0405660Y0110495D02*
X0408049Y0110495D01*
X0405963Y0112094D02*
X0448007Y0112094D01*
X0448007Y0113692D02*
X0413457Y0113692D01*
X0415055Y0115291D02*
X0448007Y0115291D01*
X0448007Y0116889D02*
X0415963Y0116889D01*
X0415963Y0118488D02*
X0448007Y0118488D01*
X0448007Y0120086D02*
X0415886Y0120086D01*
X0414287Y0121685D02*
X0448007Y0121685D01*
X0448007Y0110495D02*
X0414677Y0110495D01*
X0415963Y0108897D02*
X0448007Y0108897D01*
X0448007Y0107298D02*
X0415963Y0107298D01*
X0415963Y0105700D02*
X0448007Y0105700D01*
X0448007Y0104101D02*
X0414666Y0104101D01*
X0413368Y0100904D02*
X0448007Y0100904D01*
X0448007Y0099306D02*
X0414967Y0099306D01*
X0415963Y0097707D02*
X0448007Y0097707D01*
X0448007Y0096109D02*
X0415963Y0096109D01*
X0415963Y0094510D02*
X0448007Y0094510D01*
X0448007Y0092912D02*
X0414376Y0092912D01*
X0411363Y0096404D02*
X0065300Y0096404D01*
X0060700Y0096109D02*
X0030073Y0096109D01*
X0030073Y0097707D02*
X0060700Y0097707D01*
X0061696Y0099306D02*
X0030073Y0099306D01*
X0030073Y0100904D02*
X0063295Y0100904D01*
X0061997Y0104101D02*
X0030073Y0104101D01*
X0030073Y0102503D02*
X0070700Y0102503D01*
X0070700Y0100904D02*
X0067305Y0100904D01*
X0068904Y0099306D02*
X0071393Y0099306D01*
X0075300Y0101804D02*
X0075300Y0101904D01*
X0075300Y0101804D02*
X0401363Y0101804D01*
X0397958Y0104904D02*
X0397258Y0104204D01*
X0079505Y0104204D01*
X0078805Y0104904D01*
X0397958Y0104904D01*
X0397258Y0099404D02*
X0397858Y0098804D01*
X0078705Y0098804D01*
X0079305Y0099404D01*
X0397258Y0099404D01*
X0397356Y0099306D02*
X0079207Y0099306D01*
X0078805Y0094004D02*
X0397858Y0094004D01*
X0397258Y0093404D01*
X0079405Y0093404D01*
X0078805Y0094004D01*
X0075300Y0091004D02*
X0401363Y0091004D01*
X0405963Y0091313D02*
X0448007Y0091313D01*
X0448007Y0089715D02*
X0405963Y0089715D01*
X0404981Y0088116D02*
X0448007Y0088116D01*
X0448007Y0086518D02*
X0403382Y0086518D01*
X0399344Y0086518D02*
X0077319Y0086518D01*
X0078918Y0088116D02*
X0397745Y0088116D01*
X0405961Y0092912D02*
X0408350Y0092912D01*
X0407759Y0099306D02*
X0405370Y0099306D01*
X0405963Y0100904D02*
X0409358Y0100904D01*
X0408060Y0104101D02*
X0405571Y0104101D01*
X0405963Y0102503D02*
X0448007Y0102503D01*
X0448007Y0084919D02*
X0030073Y0084919D01*
X0030073Y0083321D02*
X0448007Y0083321D01*
X0448007Y0081722D02*
X0363554Y0081722D01*
X0362890Y0081900D02*
X0365840Y0081109D01*
X0368486Y0079582D01*
X0370645Y0077423D01*
X0372172Y0074777D01*
X0372963Y0071827D01*
X0372963Y0068773D01*
X0372172Y0065823D01*
X0370645Y0063177D01*
X0368486Y0061018D01*
X0365840Y0059491D01*
X0362890Y0058700D01*
X0359836Y0058700D01*
X0356886Y0059491D01*
X0354240Y0061018D01*
X0352081Y0063177D01*
X0350554Y0065823D01*
X0349763Y0068773D01*
X0349763Y0071827D01*
X0350554Y0074777D01*
X0352081Y0077423D01*
X0354240Y0079582D01*
X0356886Y0081109D01*
X0359836Y0081900D01*
X0362890Y0081900D01*
X0359172Y0081722D02*
X0113554Y0081722D01*
X0112890Y0081900D02*
X0109836Y0081900D01*
X0106886Y0081109D01*
X0104240Y0079582D01*
X0102081Y0077423D01*
X0100554Y0074777D01*
X0099763Y0071827D01*
X0099763Y0068773D01*
X0100554Y0065823D01*
X0102081Y0063177D01*
X0104240Y0061018D01*
X0106886Y0059491D01*
X0109836Y0058700D01*
X0112890Y0058700D01*
X0115840Y0059491D01*
X0118486Y0061018D01*
X0120645Y0063177D01*
X0122172Y0065823D01*
X0122963Y0068773D01*
X0122963Y0071827D01*
X0122172Y0074777D01*
X0120645Y0077423D01*
X0118486Y0079582D01*
X0115840Y0081109D01*
X0112890Y0081900D01*
X0109172Y0081722D02*
X0030073Y0081722D01*
X0030073Y0080124D02*
X0105178Y0080124D01*
X0103183Y0078525D02*
X0030073Y0078525D01*
X0030073Y0076927D02*
X0101794Y0076927D01*
X0100871Y0075328D02*
X0072110Y0075328D01*
X0071827Y0075404D02*
X0068773Y0075404D01*
X0065823Y0074613D01*
X0063177Y0073086D01*
X0061018Y0070927D01*
X0059491Y0068281D01*
X0058700Y0065331D01*
X0058700Y0062277D01*
X0059491Y0059327D01*
X0061018Y0056681D01*
X0063177Y0054522D01*
X0065823Y0052994D01*
X0068773Y0052204D01*
X0071827Y0052204D01*
X0074777Y0052994D01*
X0077423Y0054522D01*
X0079582Y0056681D01*
X0081109Y0059327D01*
X0081900Y0062277D01*
X0081900Y0065331D01*
X0081109Y0068281D01*
X0079582Y0070927D01*
X0077423Y0073086D01*
X0074777Y0074613D01*
X0071827Y0075404D01*
X0068490Y0075328D02*
X0030073Y0075328D01*
X0030073Y0073730D02*
X0064292Y0073730D01*
X0062222Y0072131D02*
X0030073Y0072131D01*
X0030073Y0070532D02*
X0060790Y0070532D01*
X0059867Y0068934D02*
X0030073Y0068934D01*
X0030073Y0067335D02*
X0059237Y0067335D01*
X0058809Y0065737D02*
X0030073Y0065737D01*
X0030073Y0064138D02*
X0058700Y0064138D01*
X0058700Y0062540D02*
X0030073Y0062540D01*
X0030073Y0060941D02*
X0059058Y0060941D01*
X0059486Y0059343D02*
X0030073Y0059343D01*
X0030073Y0057744D02*
X0060404Y0057744D01*
X0061553Y0056146D02*
X0030073Y0056146D01*
X0030073Y0054547D02*
X0063152Y0054547D01*
X0065993Y0052949D02*
X0030073Y0052949D01*
X0030073Y0051350D02*
X0448007Y0051350D01*
X0448007Y0049752D02*
X0030073Y0049752D01*
X0030073Y0048153D02*
X0448007Y0048153D01*
X0448007Y0046555D02*
X0030073Y0046555D01*
X0030073Y0044956D02*
X0448007Y0044956D01*
X0448007Y0043358D02*
X0030073Y0043358D01*
X0030073Y0041759D02*
X0448007Y0041759D01*
X0448007Y0040161D02*
X0030073Y0040161D01*
X0030073Y0038562D02*
X0448007Y0038562D01*
X0448007Y0036964D02*
X0030073Y0036964D01*
X0030073Y0035365D02*
X0448007Y0035365D01*
X0448007Y0033767D02*
X0030073Y0033767D01*
X0030073Y0032168D02*
X0448007Y0032168D01*
X0448007Y0030570D02*
X0030073Y0030570D01*
X0030073Y0028971D02*
X0448007Y0028971D01*
X0448007Y0052949D02*
X0410670Y0052949D01*
X0410840Y0052994D02*
X0413486Y0054522D01*
X0415645Y0056681D01*
X0417172Y0059327D01*
X0417963Y0062277D01*
X0417963Y0065331D01*
X0417172Y0068281D01*
X0415645Y0070927D01*
X0413486Y0073086D01*
X0410840Y0074613D01*
X0407890Y0075404D01*
X0404836Y0075404D01*
X0401886Y0074613D01*
X0399240Y0073086D01*
X0397081Y0070927D01*
X0395554Y0068281D01*
X0394763Y0065331D01*
X0394763Y0062277D01*
X0395554Y0059327D01*
X0397081Y0056681D01*
X0399240Y0054522D01*
X0401886Y0052994D01*
X0404836Y0052204D01*
X0407890Y0052204D01*
X0410840Y0052994D01*
X0413511Y0054547D02*
X0448007Y0054547D01*
X0448007Y0056146D02*
X0415110Y0056146D01*
X0416259Y0057744D02*
X0448007Y0057744D01*
X0448007Y0059343D02*
X0417177Y0059343D01*
X0417605Y0060941D02*
X0448007Y0060941D01*
X0448007Y0062540D02*
X0417963Y0062540D01*
X0417963Y0064138D02*
X0448007Y0064138D01*
X0448007Y0065737D02*
X0417854Y0065737D01*
X0417426Y0067335D02*
X0448007Y0067335D01*
X0448007Y0068934D02*
X0416796Y0068934D01*
X0415873Y0070532D02*
X0448007Y0070532D01*
X0448007Y0072131D02*
X0414441Y0072131D01*
X0412371Y0073730D02*
X0448007Y0073730D01*
X0448007Y0075328D02*
X0408173Y0075328D01*
X0404553Y0075328D02*
X0371855Y0075328D01*
X0372453Y0073730D02*
X0400355Y0073730D01*
X0398285Y0072131D02*
X0372882Y0072131D01*
X0372963Y0070532D02*
X0396853Y0070532D01*
X0395930Y0068934D02*
X0372963Y0068934D01*
X0372578Y0067335D02*
X0395300Y0067335D01*
X0394872Y0065737D02*
X0372123Y0065737D01*
X0371200Y0064138D02*
X0394763Y0064138D01*
X0394763Y0062540D02*
X0370008Y0062540D01*
X0368353Y0060941D02*
X0395121Y0060941D01*
X0395549Y0059343D02*
X0365290Y0059343D01*
X0357436Y0059343D02*
X0115290Y0059343D01*
X0118353Y0060941D02*
X0141816Y0060941D01*
X0142058Y0060700D02*
X0145868Y0060700D01*
X0148563Y0063395D01*
X0148563Y0067205D01*
X0145868Y0069900D01*
X0142058Y0069900D01*
X0139363Y0067205D01*
X0139363Y0063395D01*
X0142058Y0060700D01*
X0140218Y0062540D02*
X0120008Y0062540D01*
X0121200Y0064138D02*
X0139363Y0064138D01*
X0139363Y0065737D02*
X0122123Y0065737D01*
X0122578Y0067335D02*
X0139493Y0067335D01*
X0141092Y0068934D02*
X0122963Y0068934D01*
X0122963Y0070532D02*
X0349763Y0070532D01*
X0349763Y0068934D02*
X0331634Y0068934D01*
X0330668Y0069900D02*
X0333363Y0067205D01*
X0333363Y0063395D01*
X0330668Y0060700D01*
X0326858Y0060700D01*
X0324163Y0063395D01*
X0324163Y0067205D01*
X0326858Y0069900D01*
X0330668Y0069900D01*
X0332258Y0070700D02*
X0336068Y0070700D01*
X0338763Y0073395D01*
X0338763Y0077205D01*
X0336068Y0079900D01*
X0332258Y0079900D01*
X0329563Y0077205D01*
X0329563Y0073395D01*
X0332258Y0070700D01*
X0330827Y0072131D02*
X0326599Y0072131D01*
X0327863Y0073395D02*
X0325168Y0070700D01*
X0321358Y0070700D01*
X0318663Y0073395D01*
X0318663Y0077205D01*
X0321358Y0079900D01*
X0325168Y0079900D01*
X0327863Y0077205D01*
X0327863Y0073395D01*
X0327863Y0073730D02*
X0329563Y0073730D01*
X0329563Y0075328D02*
X0327863Y0075328D01*
X0327863Y0076927D02*
X0329563Y0076927D01*
X0330883Y0078525D02*
X0326543Y0078525D01*
X0319983Y0078525D02*
X0315743Y0078525D01*
X0317063Y0077205D02*
X0314368Y0079900D01*
X0310558Y0079900D01*
X0307863Y0077205D01*
X0307863Y0073395D01*
X0310558Y0070700D01*
X0314368Y0070700D01*
X0317063Y0073395D01*
X0317063Y0077205D01*
X0317063Y0076927D02*
X0318663Y0076927D01*
X0318663Y0075328D02*
X0317063Y0075328D01*
X0317063Y0073730D02*
X0318663Y0073730D01*
X0319927Y0072131D02*
X0315799Y0072131D01*
X0315958Y0069900D02*
X0313263Y0067205D01*
X0313263Y0063395D01*
X0315958Y0060700D01*
X0319768Y0060700D01*
X0322463Y0063395D01*
X0322463Y0067205D01*
X0319768Y0069900D01*
X0315958Y0069900D01*
X0314992Y0068934D02*
X0309834Y0068934D01*
X0308868Y0069900D02*
X0305058Y0069900D01*
X0302363Y0067205D01*
X0302363Y0063395D01*
X0305058Y0060700D01*
X0308868Y0060700D01*
X0311563Y0063395D01*
X0311563Y0067205D01*
X0308868Y0069900D01*
X0309127Y0072131D02*
X0304899Y0072131D01*
X0306163Y0073395D02*
X0303468Y0070700D01*
X0299658Y0070700D01*
X0296963Y0073395D01*
X0296963Y0077205D01*
X0299658Y0079900D01*
X0303468Y0079900D01*
X0306163Y0077205D01*
X0306163Y0073395D01*
X0306163Y0073730D02*
X0307863Y0073730D01*
X0307863Y0075328D02*
X0306163Y0075328D01*
X0306163Y0076927D02*
X0307863Y0076927D01*
X0309183Y0078525D02*
X0304843Y0078525D01*
X0298283Y0078525D02*
X0293943Y0078525D01*
X0295263Y0077205D02*
X0292568Y0079900D01*
X0288758Y0079900D01*
X0286063Y0077205D01*
X0286063Y0073395D01*
X0288758Y0070700D01*
X0292568Y0070700D01*
X0295263Y0073395D01*
X0295263Y0077205D01*
X0295263Y0076927D02*
X0296963Y0076927D01*
X0296963Y0075328D02*
X0295263Y0075328D01*
X0295263Y0073730D02*
X0296963Y0073730D01*
X0298227Y0072131D02*
X0293999Y0072131D01*
X0294258Y0069900D02*
X0291563Y0067205D01*
X0291563Y0063395D01*
X0294258Y0060700D01*
X0298068Y0060700D01*
X0300763Y0063395D01*
X0300763Y0067205D01*
X0298068Y0069900D01*
X0294258Y0069900D01*
X0293292Y0068934D02*
X0288134Y0068934D01*
X0287168Y0069900D02*
X0289863Y0067205D01*
X0289863Y0063395D01*
X0287168Y0060700D01*
X0283358Y0060700D01*
X0280663Y0063395D01*
X0280663Y0067205D01*
X0283358Y0069900D01*
X0287168Y0069900D01*
X0287327Y0072131D02*
X0283199Y0072131D01*
X0284463Y0073395D02*
X0281768Y0070700D01*
X0277958Y0070700D01*
X0275263Y0073395D01*
X0275263Y0077205D01*
X0277958Y0079900D01*
X0281768Y0079900D01*
X0284463Y0077205D01*
X0284463Y0073395D01*
X0284463Y0073730D02*
X0286063Y0073730D01*
X0286063Y0075328D02*
X0284463Y0075328D01*
X0284463Y0076927D02*
X0286063Y0076927D01*
X0287383Y0078525D02*
X0283143Y0078525D01*
X0276583Y0078525D02*
X0272243Y0078525D01*
X0273563Y0077205D02*
X0270868Y0079900D01*
X0267058Y0079900D01*
X0264363Y0077205D01*
X0264363Y0073395D01*
X0267058Y0070700D01*
X0270868Y0070700D01*
X0273563Y0073395D01*
X0273563Y0077205D01*
X0273563Y0076927D02*
X0275263Y0076927D01*
X0275263Y0075328D02*
X0273563Y0075328D01*
X0273563Y0073730D02*
X0275263Y0073730D01*
X0276527Y0072131D02*
X0272299Y0072131D01*
X0272458Y0069900D02*
X0269763Y0067205D01*
X0269763Y0063395D01*
X0272458Y0060700D01*
X0276268Y0060700D01*
X0278963Y0063395D01*
X0278963Y0067205D01*
X0276268Y0069900D01*
X0272458Y0069900D01*
X0271492Y0068934D02*
X0266434Y0068934D01*
X0265468Y0069900D02*
X0261658Y0069900D01*
X0258963Y0067205D01*
X0258963Y0063395D01*
X0261658Y0060700D01*
X0265468Y0060700D01*
X0268163Y0063395D01*
X0268163Y0067205D01*
X0265468Y0069900D01*
X0265627Y0072131D02*
X0261399Y0072131D01*
X0262663Y0073395D02*
X0259968Y0070700D01*
X0256158Y0070700D01*
X0253463Y0073395D01*
X0253463Y0077205D01*
X0256158Y0079900D01*
X0259968Y0079900D01*
X0262663Y0077205D01*
X0262663Y0073395D01*
X0262663Y0073730D02*
X0264363Y0073730D01*
X0264363Y0075328D02*
X0262663Y0075328D01*
X0262663Y0076927D02*
X0264363Y0076927D01*
X0265683Y0078525D02*
X0261343Y0078525D01*
X0254783Y0078525D02*
X0250543Y0078525D01*
X0251863Y0077205D02*
X0249168Y0079900D01*
X0245358Y0079900D01*
X0242663Y0077205D01*
X0242663Y0073395D01*
X0245358Y0070700D01*
X0249168Y0070700D01*
X0251863Y0073395D01*
X0251863Y0077205D01*
X0251863Y0076927D02*
X0253463Y0076927D01*
X0253463Y0075328D02*
X0251863Y0075328D01*
X0251863Y0073730D02*
X0253463Y0073730D01*
X0254727Y0072131D02*
X0250599Y0072131D01*
X0250758Y0069900D02*
X0248063Y0067205D01*
X0248063Y0063395D01*
X0250758Y0060700D01*
X0254568Y0060700D01*
X0257263Y0063395D01*
X0257263Y0067205D01*
X0254568Y0069900D01*
X0250758Y0069900D01*
X0249792Y0068934D02*
X0244634Y0068934D01*
X0243668Y0069900D02*
X0246363Y0067205D01*
X0246363Y0063395D01*
X0243668Y0060700D01*
X0239858Y0060700D01*
X0237163Y0063395D01*
X0237163Y0067205D01*
X0239858Y0069900D01*
X0243668Y0069900D01*
X0243927Y0072131D02*
X0239699Y0072131D01*
X0240963Y0073395D02*
X0238268Y0070700D01*
X0234458Y0070700D01*
X0231763Y0073395D01*
X0231763Y0077205D01*
X0234458Y0079900D01*
X0238268Y0079900D01*
X0240963Y0077205D01*
X0240963Y0073395D01*
X0240963Y0073730D02*
X0242663Y0073730D01*
X0242663Y0075328D02*
X0240963Y0075328D01*
X0240963Y0076927D02*
X0242663Y0076927D01*
X0243983Y0078525D02*
X0239643Y0078525D01*
X0233083Y0078525D02*
X0228743Y0078525D01*
X0230063Y0077205D02*
X0227368Y0079900D01*
X0223558Y0079900D01*
X0220863Y0077205D01*
X0220863Y0073395D01*
X0223558Y0070700D01*
X0227368Y0070700D01*
X0230063Y0073395D01*
X0230063Y0077205D01*
X0230063Y0076927D02*
X0231763Y0076927D01*
X0231763Y0075328D02*
X0230063Y0075328D01*
X0230063Y0073730D02*
X0231763Y0073730D01*
X0233027Y0072131D02*
X0228799Y0072131D01*
X0229058Y0069900D02*
X0226363Y0067205D01*
X0226363Y0063395D01*
X0229058Y0060700D01*
X0232868Y0060700D01*
X0235563Y0063395D01*
X0235563Y0067205D01*
X0232868Y0069900D01*
X0229058Y0069900D01*
X0228092Y0068934D02*
X0222934Y0068934D01*
X0221968Y0069900D02*
X0224663Y0067205D01*
X0224663Y0063395D01*
X0221968Y0060700D01*
X0218158Y0060700D01*
X0215463Y0063395D01*
X0215463Y0067205D01*
X0218158Y0069900D01*
X0221968Y0069900D01*
X0222127Y0072131D02*
X0217999Y0072131D01*
X0219263Y0073395D02*
X0216568Y0070700D01*
X0212758Y0070700D01*
X0210063Y0073395D01*
X0210063Y0077205D01*
X0212758Y0079900D01*
X0216568Y0079900D01*
X0219263Y0077205D01*
X0219263Y0073395D01*
X0219263Y0073730D02*
X0220863Y0073730D01*
X0220863Y0075328D02*
X0219263Y0075328D01*
X0219263Y0076927D02*
X0220863Y0076927D01*
X0222183Y0078525D02*
X0217943Y0078525D01*
X0211383Y0078525D02*
X0207043Y0078525D01*
X0208363Y0077205D02*
X0205668Y0079900D01*
X0201858Y0079900D01*
X0199163Y0077205D01*
X0199163Y0073395D01*
X0201858Y0070700D01*
X0205668Y0070700D01*
X0208363Y0073395D01*
X0208363Y0077205D01*
X0208363Y0076927D02*
X0210063Y0076927D01*
X0210063Y0075328D02*
X0208363Y0075328D01*
X0208363Y0073730D02*
X0210063Y0073730D01*
X0211327Y0072131D02*
X0207099Y0072131D01*
X0207258Y0069900D02*
X0204563Y0067205D01*
X0204563Y0063395D01*
X0207258Y0060700D01*
X0211068Y0060700D01*
X0213763Y0063395D01*
X0213763Y0067205D01*
X0211068Y0069900D01*
X0207258Y0069900D01*
X0206292Y0068934D02*
X0201234Y0068934D01*
X0200268Y0069900D02*
X0202963Y0067205D01*
X0202963Y0063395D01*
X0200268Y0060700D01*
X0196458Y0060700D01*
X0193763Y0063395D01*
X0193763Y0067205D01*
X0196458Y0069900D01*
X0200268Y0069900D01*
X0200427Y0072131D02*
X0196199Y0072131D01*
X0197463Y0073395D02*
X0194768Y0070700D01*
X0190958Y0070700D01*
X0188263Y0073395D01*
X0188263Y0077205D01*
X0190958Y0079900D01*
X0194768Y0079900D01*
X0197463Y0077205D01*
X0197463Y0073395D01*
X0197463Y0073730D02*
X0199163Y0073730D01*
X0199163Y0075328D02*
X0197463Y0075328D01*
X0197463Y0076927D02*
X0199163Y0076927D01*
X0200483Y0078525D02*
X0196143Y0078525D01*
X0189583Y0078525D02*
X0185243Y0078525D01*
X0186563Y0077205D02*
X0183868Y0079900D01*
X0180058Y0079900D01*
X0177363Y0077205D01*
X0177363Y0073395D01*
X0180058Y0070700D01*
X0183868Y0070700D01*
X0186563Y0073395D01*
X0186563Y0077205D01*
X0186563Y0076927D02*
X0188263Y0076927D01*
X0188263Y0075328D02*
X0186563Y0075328D01*
X0186563Y0073730D02*
X0188263Y0073730D01*
X0189527Y0072131D02*
X0185299Y0072131D01*
X0185558Y0069900D02*
X0182863Y0067205D01*
X0182863Y0063395D01*
X0185558Y0060700D01*
X0189368Y0060700D01*
X0192063Y0063395D01*
X0192063Y0067205D01*
X0189368Y0069900D01*
X0185558Y0069900D01*
X0184592Y0068934D02*
X0179434Y0068934D01*
X0178468Y0069900D02*
X0181163Y0067205D01*
X0181163Y0063395D01*
X0178468Y0060700D01*
X0174658Y0060700D01*
X0171963Y0063395D01*
X0171963Y0067205D01*
X0174658Y0069900D01*
X0178468Y0069900D01*
X0178627Y0072131D02*
X0174499Y0072131D01*
X0175763Y0073395D02*
X0173068Y0070700D01*
X0169258Y0070700D01*
X0166563Y0073395D01*
X0166563Y0077205D01*
X0169258Y0079900D01*
X0173068Y0079900D01*
X0175763Y0077205D01*
X0175763Y0073395D01*
X0175763Y0073730D02*
X0177363Y0073730D01*
X0177363Y0075328D02*
X0175763Y0075328D01*
X0175763Y0076927D02*
X0177363Y0076927D01*
X0178683Y0078525D02*
X0174443Y0078525D01*
X0167883Y0078525D02*
X0163543Y0078525D01*
X0164863Y0077205D02*
X0162168Y0079900D01*
X0158358Y0079900D01*
X0155663Y0077205D01*
X0155663Y0073395D01*
X0158358Y0070700D01*
X0162168Y0070700D01*
X0164863Y0073395D01*
X0164863Y0077205D01*
X0164863Y0076927D02*
X0166563Y0076927D01*
X0166563Y0075328D02*
X0164863Y0075328D01*
X0164863Y0073730D02*
X0166563Y0073730D01*
X0167827Y0072131D02*
X0163599Y0072131D01*
X0163758Y0069900D02*
X0161063Y0067205D01*
X0161063Y0063395D01*
X0163758Y0060700D01*
X0167568Y0060700D01*
X0170263Y0063395D01*
X0170263Y0067205D01*
X0167568Y0069900D01*
X0163758Y0069900D01*
X0162792Y0068934D02*
X0157734Y0068934D01*
X0156768Y0069900D02*
X0152958Y0069900D01*
X0150263Y0067205D01*
X0150263Y0063395D01*
X0152958Y0060700D01*
X0156768Y0060700D01*
X0159463Y0063395D01*
X0159463Y0067205D01*
X0156768Y0069900D01*
X0156927Y0072131D02*
X0152699Y0072131D01*
X0153963Y0073395D02*
X0151268Y0070700D01*
X0147458Y0070700D01*
X0144763Y0073395D01*
X0144763Y0077205D01*
X0147458Y0079900D01*
X0151268Y0079900D01*
X0153963Y0077205D01*
X0153963Y0073395D01*
X0153963Y0073730D02*
X0155663Y0073730D01*
X0155663Y0075328D02*
X0153963Y0075328D01*
X0153963Y0076927D02*
X0155663Y0076927D01*
X0156983Y0078525D02*
X0152643Y0078525D01*
X0146083Y0078525D02*
X0141843Y0078525D01*
X0143163Y0077205D02*
X0140468Y0079900D01*
X0136658Y0079900D01*
X0133963Y0077205D01*
X0133963Y0073395D01*
X0136658Y0070700D01*
X0140468Y0070700D01*
X0143163Y0073395D01*
X0143163Y0077205D01*
X0143163Y0076927D02*
X0144763Y0076927D01*
X0144763Y0075328D02*
X0143163Y0075328D01*
X0143163Y0073730D02*
X0144763Y0073730D01*
X0146027Y0072131D02*
X0141899Y0072131D01*
X0146834Y0068934D02*
X0151992Y0068934D01*
X0150393Y0067335D02*
X0148433Y0067335D01*
X0148563Y0065737D02*
X0150263Y0065737D01*
X0150263Y0064138D02*
X0148563Y0064138D01*
X0147708Y0062540D02*
X0151118Y0062540D01*
X0152716Y0060941D02*
X0146110Y0060941D01*
X0157010Y0060941D02*
X0163516Y0060941D01*
X0161918Y0062540D02*
X0158608Y0062540D01*
X0159463Y0064138D02*
X0161063Y0064138D01*
X0161063Y0065737D02*
X0159463Y0065737D01*
X0159333Y0067335D02*
X0161193Y0067335D01*
X0168534Y0068934D02*
X0173692Y0068934D01*
X0172093Y0067335D02*
X0170133Y0067335D01*
X0170263Y0065737D02*
X0171963Y0065737D01*
X0171963Y0064138D02*
X0170263Y0064138D01*
X0169408Y0062540D02*
X0172818Y0062540D01*
X0174416Y0060941D02*
X0167810Y0060941D01*
X0178710Y0060941D02*
X0185316Y0060941D01*
X0183718Y0062540D02*
X0180308Y0062540D01*
X0181163Y0064138D02*
X0182863Y0064138D01*
X0182863Y0065737D02*
X0181163Y0065737D01*
X0181033Y0067335D02*
X0182993Y0067335D01*
X0190334Y0068934D02*
X0195492Y0068934D01*
X0193893Y0067335D02*
X0191933Y0067335D01*
X0192063Y0065737D02*
X0193763Y0065737D01*
X0193763Y0064138D02*
X0192063Y0064138D01*
X0191208Y0062540D02*
X0194618Y0062540D01*
X0196216Y0060941D02*
X0189610Y0060941D01*
X0200510Y0060941D02*
X0207016Y0060941D01*
X0205418Y0062540D02*
X0202108Y0062540D01*
X0202963Y0064138D02*
X0204563Y0064138D01*
X0204563Y0065737D02*
X0202963Y0065737D01*
X0202833Y0067335D02*
X0204693Y0067335D01*
X0212034Y0068934D02*
X0217192Y0068934D01*
X0215593Y0067335D02*
X0213633Y0067335D01*
X0213763Y0065737D02*
X0215463Y0065737D01*
X0215463Y0064138D02*
X0213763Y0064138D01*
X0212908Y0062540D02*
X0216318Y0062540D01*
X0217916Y0060941D02*
X0211310Y0060941D01*
X0222210Y0060941D02*
X0228816Y0060941D01*
X0227218Y0062540D02*
X0223808Y0062540D01*
X0224663Y0064138D02*
X0226363Y0064138D01*
X0226363Y0065737D02*
X0224663Y0065737D01*
X0224533Y0067335D02*
X0226493Y0067335D01*
X0233834Y0068934D02*
X0238892Y0068934D01*
X0237293Y0067335D02*
X0235433Y0067335D01*
X0235563Y0065737D02*
X0237163Y0065737D01*
X0237163Y0064138D02*
X0235563Y0064138D01*
X0234708Y0062540D02*
X0238018Y0062540D01*
X0239616Y0060941D02*
X0233110Y0060941D01*
X0243910Y0060941D02*
X0250516Y0060941D01*
X0248918Y0062540D02*
X0245508Y0062540D01*
X0246363Y0064138D02*
X0248063Y0064138D01*
X0248063Y0065737D02*
X0246363Y0065737D01*
X0246233Y0067335D02*
X0248193Y0067335D01*
X0255534Y0068934D02*
X0260692Y0068934D01*
X0259093Y0067335D02*
X0257133Y0067335D01*
X0257263Y0065737D02*
X0258963Y0065737D01*
X0258963Y0064138D02*
X0257263Y0064138D01*
X0256408Y0062540D02*
X0259818Y0062540D01*
X0261416Y0060941D02*
X0254810Y0060941D01*
X0265710Y0060941D02*
X0272216Y0060941D01*
X0270618Y0062540D02*
X0267308Y0062540D01*
X0268163Y0064138D02*
X0269763Y0064138D01*
X0269763Y0065737D02*
X0268163Y0065737D01*
X0268033Y0067335D02*
X0269893Y0067335D01*
X0277234Y0068934D02*
X0282392Y0068934D01*
X0280793Y0067335D02*
X0278833Y0067335D01*
X0278963Y0065737D02*
X0280663Y0065737D01*
X0280663Y0064138D02*
X0278963Y0064138D01*
X0278108Y0062540D02*
X0281518Y0062540D01*
X0283116Y0060941D02*
X0276510Y0060941D01*
X0287410Y0060941D02*
X0294016Y0060941D01*
X0292418Y0062540D02*
X0289008Y0062540D01*
X0289863Y0064138D02*
X0291563Y0064138D01*
X0291563Y0065737D02*
X0289863Y0065737D01*
X0289733Y0067335D02*
X0291693Y0067335D01*
X0299034Y0068934D02*
X0304092Y0068934D01*
X0302493Y0067335D02*
X0300633Y0067335D01*
X0300763Y0065737D02*
X0302363Y0065737D01*
X0302363Y0064138D02*
X0300763Y0064138D01*
X0299908Y0062540D02*
X0303218Y0062540D01*
X0304816Y0060941D02*
X0298310Y0060941D01*
X0309110Y0060941D02*
X0315716Y0060941D01*
X0314118Y0062540D02*
X0310708Y0062540D01*
X0311563Y0064138D02*
X0313263Y0064138D01*
X0313263Y0065737D02*
X0311563Y0065737D01*
X0311433Y0067335D02*
X0313393Y0067335D01*
X0320734Y0068934D02*
X0325892Y0068934D01*
X0324293Y0067335D02*
X0322333Y0067335D01*
X0322463Y0065737D02*
X0324163Y0065737D01*
X0324163Y0064138D02*
X0322463Y0064138D01*
X0321608Y0062540D02*
X0325018Y0062540D01*
X0326616Y0060941D02*
X0320010Y0060941D01*
X0330910Y0060941D02*
X0354373Y0060941D01*
X0352718Y0062540D02*
X0332508Y0062540D01*
X0333363Y0064138D02*
X0351526Y0064138D01*
X0350603Y0065737D02*
X0333363Y0065737D01*
X0333233Y0067335D02*
X0350148Y0067335D01*
X0349844Y0072131D02*
X0337499Y0072131D01*
X0338763Y0073730D02*
X0350273Y0073730D01*
X0350871Y0075328D02*
X0338763Y0075328D01*
X0338763Y0076927D02*
X0351794Y0076927D01*
X0353183Y0078525D02*
X0337443Y0078525D01*
X0355178Y0080124D02*
X0117548Y0080124D01*
X0119543Y0078525D02*
X0135283Y0078525D01*
X0133963Y0076927D02*
X0120932Y0076927D01*
X0121855Y0075328D02*
X0133963Y0075328D01*
X0133963Y0073730D02*
X0122453Y0073730D01*
X0122882Y0072131D02*
X0135227Y0072131D01*
X0107436Y0059343D02*
X0081114Y0059343D01*
X0081542Y0060941D02*
X0104373Y0060941D01*
X0102718Y0062540D02*
X0081900Y0062540D01*
X0081900Y0064138D02*
X0101526Y0064138D01*
X0100603Y0065737D02*
X0081791Y0065737D01*
X0081363Y0067335D02*
X0100148Y0067335D01*
X0099763Y0068934D02*
X0080733Y0068934D01*
X0079810Y0070532D02*
X0099763Y0070532D01*
X0099844Y0072131D02*
X0078378Y0072131D01*
X0076308Y0073730D02*
X0100273Y0073730D01*
X0080196Y0057744D02*
X0396467Y0057744D01*
X0397616Y0056146D02*
X0079047Y0056146D01*
X0077448Y0054547D02*
X0399215Y0054547D01*
X0402056Y0052949D02*
X0074607Y0052949D01*
X0073281Y0086518D02*
X0030073Y0086518D01*
X0030073Y0088116D02*
X0071682Y0088116D01*
X0070700Y0089715D02*
X0030073Y0089715D01*
X0030073Y0091313D02*
X0070700Y0091313D01*
X0070702Y0092912D02*
X0068313Y0092912D01*
X0062287Y0092912D02*
X0030073Y0092912D01*
X0030073Y0094510D02*
X0060700Y0094510D01*
X0068603Y0104101D02*
X0070992Y0104101D01*
X0065300Y0107304D02*
X0411363Y0107304D01*
X0409269Y0113692D02*
X0405963Y0113692D01*
X0405281Y0115291D02*
X0407671Y0115291D01*
X0411363Y0118104D02*
X0065300Y0118104D01*
X0065300Y0118204D01*
X0060700Y0118488D02*
X0030073Y0118488D01*
X0030073Y0120086D02*
X0060700Y0120086D01*
X0060700Y0116889D02*
X0030073Y0116889D01*
X0030073Y0115291D02*
X0061708Y0115291D01*
X0063306Y0113692D02*
X0030073Y0113692D01*
X0030073Y0112094D02*
X0070700Y0112094D01*
X0070700Y0113692D02*
X0067294Y0113692D01*
X0068892Y0115291D02*
X0071381Y0115291D01*
X0071003Y0110495D02*
X0068614Y0110495D01*
X0061986Y0110495D02*
X0030073Y0110495D01*
X0030073Y0108897D02*
X0060700Y0108897D01*
X0060700Y0107298D02*
X0030073Y0107298D01*
X0030073Y0105700D02*
X0060700Y0105700D01*
X0079405Y0126004D02*
X0078805Y0126604D01*
X0397858Y0126604D01*
X0397258Y0126004D01*
X0079405Y0126004D01*
X0078929Y0126480D02*
X0397734Y0126480D01*
X0397858Y0131404D02*
X0078705Y0131404D01*
X0079305Y0132004D01*
X0397258Y0132004D01*
X0397858Y0131404D01*
X0405963Y0132874D02*
X0408728Y0132874D01*
X0408690Y0136071D02*
X0405963Y0136071D01*
X0397958Y0137504D02*
X0397258Y0136804D01*
X0079505Y0136804D01*
X0078805Y0137504D01*
X0397958Y0137504D01*
X0397858Y0142304D02*
X0078805Y0142304D01*
X0079405Y0142904D01*
X0397258Y0142904D01*
X0397858Y0142304D01*
X0397696Y0142465D02*
X0078967Y0142465D01*
X0075300Y0145304D02*
X0401363Y0145304D01*
X0397858Y0148304D02*
X0397258Y0147704D01*
X0079405Y0147704D01*
X0078805Y0148304D01*
X0397858Y0148304D01*
X0405622Y0158451D02*
X0408011Y0158451D01*
X0411363Y0161604D02*
X0065300Y0161604D01*
X0068565Y0164845D02*
X0071054Y0164845D01*
X0071041Y0158451D02*
X0068652Y0158451D01*
X0070700Y0156852D02*
X0030073Y0156852D01*
X0030073Y0155254D02*
X0063244Y0155254D01*
X0061646Y0153655D02*
X0030073Y0153655D01*
X0030073Y0152057D02*
X0060700Y0152057D01*
X0060700Y0150458D02*
X0030073Y0150458D01*
X0030073Y0148860D02*
X0060739Y0148860D01*
X0062338Y0147261D02*
X0030073Y0147261D01*
X0030073Y0145663D02*
X0070700Y0145663D01*
X0070752Y0147261D02*
X0068262Y0147261D01*
X0067645Y0144064D02*
X0070700Y0144064D01*
X0071633Y0142465D02*
X0069244Y0142465D01*
X0062955Y0144064D02*
X0030073Y0144064D01*
X0030073Y0142465D02*
X0061356Y0142465D01*
X0060700Y0140867D02*
X0030073Y0140867D01*
X0030073Y0132874D02*
X0062665Y0132874D01*
X0061067Y0131276D02*
X0030073Y0131276D01*
X0065300Y0150704D02*
X0065300Y0150804D01*
X0065300Y0150704D02*
X0411363Y0150704D01*
X0414715Y0158451D02*
X0448007Y0158451D01*
X0448007Y0160049D02*
X0415963Y0160049D01*
X0415963Y0161648D02*
X0448007Y0161648D01*
X0448007Y0163246D02*
X0415963Y0163246D01*
X0414628Y0164845D02*
X0448007Y0164845D01*
X0448007Y0166443D02*
X0405963Y0166443D01*
X0405963Y0168042D02*
X0409320Y0168042D01*
X0407721Y0169640D02*
X0405332Y0169640D01*
X0397858Y0170104D02*
X0397258Y0169504D01*
X0079405Y0169504D01*
X0078805Y0170104D01*
X0397858Y0170104D01*
X0397394Y0169640D02*
X0079269Y0169640D01*
X0070700Y0176034D02*
X0068275Y0176034D01*
X0070700Y0177633D02*
X0030073Y0177633D01*
X0030073Y0179231D02*
X0062967Y0179231D01*
X0061369Y0180830D02*
X0030073Y0180830D01*
X0030073Y0182428D02*
X0060700Y0182428D01*
X0060700Y0184027D02*
X0030073Y0184027D01*
X0030073Y0185625D02*
X0061016Y0185625D01*
X0062614Y0187224D02*
X0030073Y0187224D01*
X0030073Y0188822D02*
X0070700Y0188822D01*
X0070700Y0187224D02*
X0067985Y0187224D01*
X0068022Y0190421D02*
X0070700Y0190421D01*
X0065300Y0194204D02*
X0411363Y0194204D01*
X0415963Y0193618D02*
X0448007Y0193618D01*
X0448007Y0195216D02*
X0415963Y0195216D01*
X0415257Y0196815D02*
X0448007Y0196815D01*
X0448007Y0198413D02*
X0413659Y0198413D01*
X0414375Y0201610D02*
X0448007Y0201610D01*
X0448007Y0200012D02*
X0405963Y0200012D01*
X0405962Y0201610D02*
X0408351Y0201610D01*
X0409067Y0198413D02*
X0405963Y0198413D01*
X0404979Y0196815D02*
X0407469Y0196815D01*
X0415684Y0192019D02*
X0448007Y0192019D01*
X0448007Y0190421D02*
X0414085Y0190421D01*
X0408641Y0190421D02*
X0405963Y0190421D01*
X0405963Y0187224D02*
X0408677Y0187224D01*
X0411363Y0183404D02*
X0065300Y0183404D01*
X0069231Y0180830D02*
X0071720Y0180830D01*
X0070700Y0179231D02*
X0067633Y0179231D01*
X0062325Y0176034D02*
X0030073Y0176034D01*
X0030073Y0174436D02*
X0060726Y0174436D01*
X0060700Y0163246D02*
X0030073Y0163246D01*
X0030073Y0161648D02*
X0060700Y0161648D01*
X0060700Y0160049D02*
X0030073Y0160049D01*
X0030073Y0158451D02*
X0061948Y0158451D01*
X0067356Y0155254D02*
X0070700Y0155254D01*
X0071343Y0153655D02*
X0068954Y0153655D01*
X0078805Y0185804D02*
X0079405Y0186404D01*
X0397258Y0186404D01*
X0397858Y0185804D01*
X0078805Y0185804D01*
X0071684Y0196815D02*
X0069194Y0196815D01*
X0070700Y0198413D02*
X0067596Y0198413D01*
X0068312Y0201610D02*
X0070701Y0201610D01*
X0070700Y0200012D02*
X0030073Y0200012D01*
X0030073Y0201610D02*
X0062288Y0201610D01*
X0060700Y0203209D02*
X0030073Y0203209D01*
X0030073Y0204807D02*
X0060700Y0204807D01*
X0060700Y0206406D02*
X0030073Y0206406D01*
X0030073Y0208004D02*
X0061695Y0208004D01*
X0063294Y0209603D02*
X0030073Y0209603D01*
X0030073Y0211201D02*
X0070700Y0211201D01*
X0070700Y0209603D02*
X0067306Y0209603D01*
X0068905Y0208004D02*
X0071294Y0208004D01*
X0065300Y0205104D02*
X0411363Y0205104D01*
X0415963Y0204807D02*
X0448007Y0204807D01*
X0448007Y0203209D02*
X0415963Y0203209D01*
X0415963Y0206406D02*
X0448007Y0206406D01*
X0448007Y0208004D02*
X0414968Y0208004D01*
X0413369Y0209603D02*
X0448007Y0209603D01*
X0448007Y0211201D02*
X0405963Y0211201D01*
X0405963Y0209603D02*
X0409357Y0209603D01*
X0407758Y0208004D02*
X0405369Y0208004D01*
X0405572Y0212800D02*
X0408062Y0212800D01*
X0411363Y0216004D02*
X0065300Y0216004D01*
X0060700Y0215997D02*
X0030073Y0215997D01*
X0030073Y0214398D02*
X0060700Y0214398D01*
X0061999Y0212800D02*
X0030073Y0212800D01*
X0030073Y0217596D02*
X0060700Y0217596D01*
X0061985Y0219194D02*
X0030073Y0219194D01*
X0030073Y0220793D02*
X0070700Y0220793D01*
X0070700Y0222391D02*
X0067392Y0222391D01*
X0068991Y0223990D02*
X0071380Y0223990D01*
X0071005Y0219194D02*
X0068615Y0219194D01*
X0063207Y0222391D02*
X0030073Y0222391D01*
X0030073Y0223990D02*
X0061609Y0223990D01*
X0060700Y0225588D02*
X0030073Y0225588D01*
X0030073Y0227187D02*
X0060700Y0227187D01*
X0060776Y0228785D02*
X0030073Y0228785D01*
X0030073Y0230384D02*
X0062374Y0230384D01*
X0062918Y0233581D02*
X0030073Y0233581D01*
X0030073Y0235179D02*
X0061319Y0235179D01*
X0060700Y0236778D02*
X0030073Y0236778D01*
X0030073Y0238376D02*
X0060700Y0238376D01*
X0061065Y0239975D02*
X0030073Y0239975D01*
X0030073Y0241573D02*
X0062664Y0241573D01*
X0067936Y0241573D02*
X0070700Y0241573D01*
X0070700Y0244770D02*
X0067972Y0244770D01*
X0065300Y0237704D02*
X0411363Y0237704D01*
X0415963Y0238376D02*
X0448007Y0238376D01*
X0448007Y0236778D02*
X0415963Y0236778D01*
X0415344Y0235179D02*
X0448007Y0235179D01*
X0448007Y0233581D02*
X0413745Y0233581D01*
X0414289Y0230384D02*
X0448007Y0230384D01*
X0448007Y0231982D02*
X0405963Y0231982D01*
X0405948Y0230384D02*
X0408437Y0230384D01*
X0408981Y0233581D02*
X0405963Y0233581D01*
X0404993Y0235179D02*
X0407382Y0235179D01*
X0415598Y0239975D02*
X0448007Y0239975D01*
X0448007Y0241573D02*
X0413999Y0241573D01*
X0415887Y0228785D02*
X0448007Y0228785D01*
X0448007Y0227187D02*
X0415963Y0227187D01*
X0415963Y0225588D02*
X0448007Y0225588D01*
X0448007Y0223990D02*
X0415054Y0223990D01*
X0413455Y0222391D02*
X0448007Y0222391D01*
X0448007Y0220793D02*
X0405963Y0220793D01*
X0405963Y0222391D02*
X0409270Y0222391D01*
X0407672Y0223990D02*
X0405283Y0223990D01*
X0405658Y0219194D02*
X0408048Y0219194D01*
X0414678Y0219194D02*
X0448007Y0219194D01*
X0448007Y0217596D02*
X0415963Y0217596D01*
X0415963Y0215997D02*
X0448007Y0215997D01*
X0448007Y0214398D02*
X0415963Y0214398D01*
X0414664Y0212800D02*
X0448007Y0212800D01*
X0411363Y0226804D02*
X0065300Y0226804D01*
X0068226Y0230384D02*
X0070715Y0230384D01*
X0070700Y0231982D02*
X0030073Y0231982D01*
X0067682Y0233581D02*
X0070700Y0233581D01*
X0071670Y0235179D02*
X0069281Y0235179D01*
X0068601Y0212800D02*
X0071091Y0212800D01*
X0063004Y0198413D02*
X0030073Y0198413D01*
X0030073Y0196815D02*
X0061406Y0196815D01*
X0060700Y0195216D02*
X0030073Y0195216D01*
X0030073Y0193618D02*
X0060700Y0193618D01*
X0060979Y0192019D02*
X0030073Y0192019D01*
X0030073Y0190421D02*
X0062578Y0190421D01*
X0068955Y0262354D02*
X0071345Y0262354D01*
X0070700Y0263952D02*
X0067357Y0263952D01*
X0068651Y0267149D02*
X0071040Y0267149D01*
X0070700Y0265551D02*
X0030073Y0265551D01*
X0065300Y0281204D02*
X0411363Y0281204D01*
X0408387Y0284733D02*
X0405963Y0284733D01*
X0401363Y0286604D02*
X0075300Y0286604D01*
X0078805Y0283604D02*
X0079405Y0284204D01*
X0397258Y0284204D01*
X0397858Y0283604D01*
X0078805Y0283604D01*
X0078805Y0278804D02*
X0397958Y0278804D01*
X0397358Y0278204D01*
X0079405Y0278204D01*
X0078805Y0278804D01*
X0079270Y0278339D02*
X0397493Y0278339D01*
X0405708Y0273543D02*
X0408097Y0273543D01*
X0414629Y0273543D02*
X0448007Y0273543D01*
X0448007Y0271945D02*
X0415963Y0271945D01*
X0415963Y0270346D02*
X0448007Y0270346D01*
X0448007Y0268748D02*
X0415963Y0268748D01*
X0415963Y0257558D02*
X0448007Y0257558D01*
X0448007Y0255960D02*
X0414424Y0255960D01*
X0397782Y0289529D02*
X0078881Y0289529D01*
X0077282Y0291127D02*
X0399381Y0291127D01*
X0400291Y0303915D02*
X0076372Y0303915D01*
X0078415Y0305514D02*
X0398248Y0305514D01*
X0396832Y0307112D02*
X0079831Y0307112D01*
X0080754Y0308711D02*
X0395909Y0308711D01*
X0395290Y0310309D02*
X0081373Y0310309D01*
X0081801Y0311908D02*
X0394862Y0311908D01*
X0394763Y0313506D02*
X0081900Y0313506D01*
X0081900Y0315105D02*
X0394763Y0315105D01*
X0395131Y0316703D02*
X0081532Y0316703D01*
X0081098Y0318302D02*
X0395565Y0318302D01*
X0396488Y0319900D02*
X0080175Y0319900D01*
X0079010Y0321499D02*
X0397653Y0321499D01*
X0414338Y0176034D02*
X0448007Y0176034D01*
X0448007Y0174436D02*
X0415937Y0174436D01*
X0415963Y0172837D02*
X0448007Y0172837D01*
X0448007Y0171239D02*
X0415963Y0171239D01*
X0415005Y0169640D02*
X0448007Y0169640D01*
X0448007Y0168042D02*
X0413406Y0168042D01*
X0408098Y0164845D02*
X0405609Y0164845D01*
X0367548Y0080124D02*
X0448007Y0080124D01*
X0448007Y0078525D02*
X0369543Y0078525D01*
X0370932Y0076927D02*
X0448007Y0076927D01*
X0070700Y0276740D02*
X0067342Y0276740D01*
X0068940Y0278339D02*
X0071330Y0278339D01*
X0070700Y0284733D02*
X0068276Y0284733D01*
M02*
