%
M48
M72
T01C0.0118
T02C0.0394
T03C0.0400
T04C0.1300
%
T01
X15525Y13520
X16017Y13471
X17001Y13461
X17494Y13461
X17986Y13471
X18507Y13481
X19905Y14504
X18498Y15243
X18005Y15243
X17494Y15243
X17001Y15243
X16509Y15252
X15998Y15243
X15525Y15252
X14994Y14997
X12001Y14967
X10259Y13569
X10505Y16817
X19009Y16857
T02
X19251Y15154
X25476Y15166
X25476Y14211
X25437Y16130
X10251Y15154
T03
X5502Y6530
X6592Y6530
X7672Y6530
X8762Y6530
X9852Y6530
X10942Y6530
X12022Y6530
X13112Y6530
X14202Y6530
X15282Y6530
X16372Y6530
X17462Y6530
X18542Y6530
X19632Y6530
X20722Y6530
X21802Y6530
X22892Y6530
X23982Y6530
X24522Y7530
X23432Y7530
X22352Y7530
X21262Y7530
X20172Y7530
X19092Y7530
X18002Y7530
X16912Y7530
X15832Y7530
X14742Y7530
X13652Y7530
X12572Y7530
X11482Y7530
X10392Y7530
X9302Y7530
X8222Y7530
X7132Y7530
X6042Y7530
X4962Y7530
T04
X2242Y7030
X27242Y7030
M30
