G75*
%MOIN*%
%OFA0B0*%
%FSLAX25Y25*%
%IPPOS*%
%LPD*%
%AMOC8*
5,1,8,0,0,1.08239X$1,22.5*
%
%ADD10R,0.03346X0.10827*%
%ADD11C,0.06921*%
%ADD12OC8,0.06984*%
%ADD13C,0.20984*%
%ADD14C,0.06921*%
%ADD15C,0.04165*%
D10*
X0100015Y0142583D03*
X0105015Y0142583D03*
X0110015Y0142583D03*
X0115015Y0142583D03*
X0120015Y0142583D03*
X0125015Y0142583D03*
X0130015Y0142583D03*
X0135015Y0142583D03*
X0140015Y0142583D03*
X0145015Y0142583D03*
X0150015Y0142583D03*
X0155015Y0142583D03*
X0160015Y0142583D03*
X0165015Y0142583D03*
X0170015Y0142583D03*
X0175015Y0142583D03*
X0180015Y0142583D03*
X0185015Y0142583D03*
X0190015Y0142583D03*
X0195015Y0142583D03*
X0195015Y0160497D03*
X0190015Y0160497D03*
X0185015Y0160497D03*
X0180015Y0160497D03*
X0175015Y0160497D03*
X0170015Y0160497D03*
X0165015Y0160497D03*
X0160015Y0160497D03*
X0155015Y0160497D03*
X0150015Y0160497D03*
X0145015Y0160497D03*
X0140015Y0160497D03*
X0135015Y0160497D03*
X0130015Y0160497D03*
X0125015Y0160497D03*
X0120015Y0160497D03*
X0115015Y0160497D03*
X0110015Y0160497D03*
X0105015Y0160497D03*
X0100015Y0160497D03*
D11*
X0102515Y0151540D03*
X0192515Y0151540D03*
D12*
X0055017Y0065300D03*
X0065917Y0065300D03*
X0076717Y0065300D03*
X0087617Y0065300D03*
X0098517Y0065300D03*
X0109417Y0065300D03*
X0120217Y0065300D03*
X0131117Y0065300D03*
X0142017Y0065300D03*
X0152817Y0065300D03*
X0163717Y0065300D03*
X0174617Y0065300D03*
X0185417Y0065300D03*
X0196317Y0065300D03*
X0207217Y0065300D03*
X0218017Y0065300D03*
X0228917Y0065300D03*
X0239817Y0065300D03*
X0245217Y0075300D03*
X0234317Y0075300D03*
X0223517Y0075300D03*
X0212617Y0075300D03*
X0201717Y0075300D03*
X0190917Y0075300D03*
X0180017Y0075300D03*
X0169117Y0075300D03*
X0158317Y0075300D03*
X0147417Y0075300D03*
X0136517Y0075300D03*
X0125717Y0075300D03*
X0114817Y0075300D03*
X0103917Y0075300D03*
X0093017Y0075300D03*
X0082217Y0075300D03*
X0071317Y0075300D03*
X0060417Y0075300D03*
X0049617Y0075300D03*
D13*
X0022417Y0070300D03*
X0272417Y0070300D03*
D14*
X0257728Y0142111D02*
X0251791Y0142111D01*
X0251791Y0151658D02*
X0257728Y0151658D01*
X0257334Y0161304D02*
X0251397Y0161304D01*
D15*
X0199050Y0145044D03*
X0184976Y0152426D03*
X0180054Y0152426D03*
X0174936Y0152426D03*
X0170015Y0152426D03*
X0165094Y0152524D03*
X0159976Y0152426D03*
X0155251Y0152524D03*
X0149936Y0149965D03*
X0155251Y0135202D03*
X0160172Y0134709D03*
X0170015Y0134611D03*
X0174936Y0134611D03*
X0179857Y0134709D03*
X0185074Y0134808D03*
X0190094Y0168568D03*
X0120015Y0149670D03*
X0102594Y0135694D03*
X0105054Y0168174D03*
M02*
