G75*
%MOIN*%
%OFA0B0*%
%FSLAX25Y25*%
%IPPOS*%
%LPD*%
%AMOC8*
5,1,8,0,0,1.08239X$1,22.5*
%
%ADD10C,0.05937*%
%ADD11OC8,0.06000*%
%ADD12C,0.20000*%
%ADD13C,0.05937*%
%ADD14C,0.03181*%
%ADD15C,0.00492*%
%ADD16C,0.02400*%
D10*
X0102515Y0151540D03*
X0192515Y0151540D03*
D11*
X0190917Y0075300D03*
X0201717Y0075300D03*
X0212617Y0075300D03*
X0223517Y0075300D03*
X0234317Y0075300D03*
X0245217Y0075300D03*
X0239817Y0065300D03*
X0228917Y0065300D03*
X0218017Y0065300D03*
X0207217Y0065300D03*
X0196317Y0065300D03*
X0185417Y0065300D03*
X0174617Y0065300D03*
X0163717Y0065300D03*
X0152817Y0065300D03*
X0142017Y0065300D03*
X0131117Y0065300D03*
X0120217Y0065300D03*
X0109417Y0065300D03*
X0098517Y0065300D03*
X0087617Y0065300D03*
X0076717Y0065300D03*
X0065917Y0065300D03*
X0055017Y0065300D03*
X0060417Y0075300D03*
X0049617Y0075300D03*
X0071317Y0075300D03*
X0082217Y0075300D03*
X0093017Y0075300D03*
X0103917Y0075300D03*
X0114817Y0075300D03*
X0125717Y0075300D03*
X0136517Y0075300D03*
X0147417Y0075300D03*
X0158317Y0075300D03*
X0169117Y0075300D03*
X0180017Y0075300D03*
D12*
X0272417Y0070300D03*
X0022417Y0070300D03*
D13*
X0251791Y0142111D02*
X0257728Y0142111D01*
X0257728Y0151658D02*
X0251791Y0151658D01*
X0251397Y0161304D02*
X0257334Y0161304D01*
D14*
X0199050Y0145044D03*
X0184976Y0152426D03*
X0180054Y0152426D03*
X0174936Y0152426D03*
X0170015Y0152426D03*
X0165094Y0152524D03*
X0159976Y0152426D03*
X0155251Y0152524D03*
X0149936Y0149965D03*
X0155251Y0135202D03*
X0160172Y0134709D03*
X0170015Y0134611D03*
X0174936Y0134611D03*
X0179857Y0134709D03*
X0185074Y0134808D03*
X0190094Y0168568D03*
X0120015Y0149670D03*
X0102594Y0135694D03*
X0105054Y0168174D03*
D15*
X0107515Y0165221D01*
X0107515Y0144552D01*
X0102594Y0139631D01*
X0102594Y0135694D01*
X0120015Y0149670D02*
X0121787Y0151442D01*
X0148165Y0151442D01*
X0149936Y0149965D01*
X0152298Y0149965D02*
X0155251Y0152524D01*
X0157712Y0150950D02*
X0159976Y0152426D01*
X0157712Y0150950D02*
X0157712Y0129690D01*
X0077082Y0102800D01*
X0076717Y0065300D01*
X0065917Y0065300D02*
X0066157Y0104080D01*
X0155251Y0132741D01*
X0155251Y0135202D01*
X0152298Y0135694D02*
X0152298Y0149965D01*
X0162633Y0149965D02*
X0165094Y0152524D01*
X0167456Y0150654D02*
X0170015Y0152426D01*
X0172377Y0150654D02*
X0174936Y0152426D01*
X0177397Y0150753D02*
X0180054Y0152426D01*
X0182318Y0150556D02*
X0184976Y0152426D01*
X0182318Y0150556D02*
X0182318Y0100654D01*
X0174617Y0087441D01*
X0174617Y0065300D01*
X0185417Y0065300D02*
X0185417Y0134957D01*
X0185074Y0134808D01*
X0185417Y0133580D01*
X0179857Y0134709D02*
X0179857Y0104296D01*
X0163913Y0089336D01*
X0163717Y0065300D01*
X0152817Y0065300D02*
X0152817Y0091330D01*
X0177594Y0107249D01*
X0177397Y0150753D01*
X0172377Y0150654D02*
X0172574Y0112662D01*
X0131117Y0094433D01*
X0131117Y0065300D01*
X0142017Y0065300D02*
X0142017Y0092735D01*
X0175133Y0110103D01*
X0174936Y0134611D01*
X0170015Y0134611D02*
X0170015Y0115615D01*
X0120118Y0096328D01*
X0120217Y0065300D01*
X0109417Y0065300D02*
X0109417Y0098127D01*
X0167357Y0118568D01*
X0167456Y0150654D01*
X0162633Y0149965D02*
X0162633Y0123883D01*
X0098735Y0099749D01*
X0098517Y0065300D01*
X0087617Y0065300D02*
X0087318Y0101225D01*
X0160172Y0126540D01*
X0160172Y0134709D01*
X0152298Y0135694D02*
X0055133Y0105753D01*
X0055017Y0065300D01*
X0199050Y0145044D02*
X0199050Y0166206D01*
X0196590Y0168666D01*
X0190192Y0168666D01*
X0190094Y0168568D01*
D16*
X0007522Y0174170D02*
X0007522Y0028319D01*
X0287232Y0028319D01*
X0287232Y0174170D01*
X0007522Y0174170D01*
X0007522Y0174136D02*
X0287232Y0174136D01*
X0287232Y0171738D02*
X0198957Y0171738D01*
X0198768Y0171927D02*
X0197355Y0172512D01*
X0193490Y0172512D01*
X0193034Y0172968D01*
X0191126Y0173758D01*
X0189061Y0173758D01*
X0187153Y0172968D01*
X0185693Y0171508D01*
X0184903Y0169600D01*
X0184903Y0167535D01*
X0185693Y0165627D01*
X0187153Y0164167D01*
X0189061Y0163377D01*
X0191126Y0163377D01*
X0193034Y0164167D01*
X0193687Y0164820D01*
X0194997Y0164820D01*
X0195204Y0164612D01*
X0195204Y0157536D01*
X0193822Y0158109D01*
X0191208Y0158109D01*
X0188794Y0157109D01*
X0188214Y0156528D01*
X0187916Y0156826D01*
X0186008Y0157617D01*
X0183943Y0157617D01*
X0182515Y0157025D01*
X0181087Y0157617D01*
X0179022Y0157617D01*
X0177495Y0156984D01*
X0175969Y0157617D01*
X0173904Y0157617D01*
X0172476Y0157025D01*
X0171047Y0157617D01*
X0168982Y0157617D01*
X0167673Y0157074D01*
X0166126Y0157715D01*
X0164061Y0157715D01*
X0162416Y0157033D01*
X0161008Y0157617D01*
X0158943Y0157617D01*
X0157732Y0157115D01*
X0156284Y0157715D01*
X0154219Y0157715D01*
X0152311Y0156925D01*
X0150851Y0155465D01*
X0150723Y0155156D01*
X0149248Y0155156D01*
X0148930Y0155288D01*
X0148750Y0155288D01*
X0148578Y0155341D01*
X0147990Y0155288D01*
X0121022Y0155288D01*
X0119990Y0154861D01*
X0118982Y0154861D01*
X0117075Y0154070D01*
X0115615Y0152610D01*
X0114824Y0150703D01*
X0114824Y0148638D01*
X0115615Y0146730D01*
X0117075Y0145270D01*
X0118982Y0144480D01*
X0121047Y0144480D01*
X0122955Y0145270D01*
X0124415Y0146730D01*
X0124774Y0147596D01*
X0145300Y0147596D01*
X0145536Y0147025D01*
X0146996Y0145565D01*
X0148452Y0144962D01*
X0148452Y0138533D01*
X0054559Y0109600D01*
X0054379Y0109601D01*
X0053833Y0109377D01*
X0053269Y0109203D01*
X0053131Y0109088D01*
X0052964Y0109020D01*
X0052545Y0108604D01*
X0052091Y0108227D01*
X0052007Y0108068D01*
X0051879Y0107941D01*
X0051651Y0107396D01*
X0051376Y0106875D01*
X0051359Y0106695D01*
X0051289Y0106529D01*
X0051288Y0105939D01*
X0051232Y0105351D01*
X0051285Y0105179D01*
X0051218Y0081900D01*
X0046883Y0081900D01*
X0043017Y0078034D01*
X0043017Y0072566D01*
X0046883Y0068700D01*
X0049083Y0068700D01*
X0048417Y0068034D01*
X0048417Y0062566D01*
X0052283Y0058700D01*
X0057750Y0058700D01*
X0060467Y0061416D01*
X0063183Y0058700D01*
X0068650Y0058700D01*
X0071317Y0061366D01*
X0073983Y0058700D01*
X0079450Y0058700D01*
X0082167Y0061416D01*
X0084883Y0058700D01*
X0090350Y0058700D01*
X0093067Y0061416D01*
X0095783Y0058700D01*
X0101250Y0058700D01*
X0103967Y0061416D01*
X0106683Y0058700D01*
X0112150Y0058700D01*
X0114817Y0061366D01*
X0117483Y0058700D01*
X0122950Y0058700D01*
X0125667Y0061416D01*
X0128383Y0058700D01*
X0133850Y0058700D01*
X0136567Y0061416D01*
X0139283Y0058700D01*
X0144750Y0058700D01*
X0147417Y0061366D01*
X0150083Y0058700D01*
X0155550Y0058700D01*
X0158267Y0061416D01*
X0160983Y0058700D01*
X0166450Y0058700D01*
X0169167Y0061416D01*
X0171883Y0058700D01*
X0177350Y0058700D01*
X0180017Y0061366D01*
X0182683Y0058700D01*
X0188150Y0058700D01*
X0190867Y0061416D01*
X0193583Y0058700D01*
X0199050Y0058700D01*
X0201767Y0061416D01*
X0204483Y0058700D01*
X0209950Y0058700D01*
X0212617Y0061366D01*
X0215283Y0058700D01*
X0220750Y0058700D01*
X0223467Y0061416D01*
X0226183Y0058700D01*
X0231650Y0058700D01*
X0234367Y0061416D01*
X0237083Y0058700D01*
X0242550Y0058700D01*
X0246417Y0062566D01*
X0246417Y0068034D01*
X0245750Y0068700D01*
X0247950Y0068700D01*
X0251817Y0072566D01*
X0251817Y0078034D01*
X0247950Y0081900D01*
X0242483Y0081900D01*
X0239767Y0079184D01*
X0237050Y0081900D01*
X0231583Y0081900D01*
X0228917Y0079234D01*
X0226250Y0081900D01*
X0220783Y0081900D01*
X0218067Y0079184D01*
X0215350Y0081900D01*
X0209883Y0081900D01*
X0207167Y0079184D01*
X0204450Y0081900D01*
X0198983Y0081900D01*
X0196317Y0079234D01*
X0193650Y0081900D01*
X0189263Y0081900D01*
X0189263Y0131656D01*
X0189474Y0131868D01*
X0190265Y0133775D01*
X0190265Y0135840D01*
X0189474Y0137748D01*
X0188014Y0139208D01*
X0186164Y0139975D01*
X0186164Y0147300D01*
X0187085Y0147681D01*
X0188794Y0145972D01*
X0191208Y0144972D01*
X0193822Y0144972D01*
X0193860Y0144988D01*
X0193860Y0144012D01*
X0194650Y0142104D01*
X0196110Y0140644D01*
X0198018Y0139854D01*
X0200083Y0139854D01*
X0201991Y0140644D01*
X0203451Y0142104D01*
X0204241Y0144012D01*
X0204241Y0146077D01*
X0203451Y0147984D01*
X0202896Y0148539D01*
X0202896Y0166971D01*
X0202311Y0168384D01*
X0199850Y0170845D01*
X0198768Y0171927D01*
X0201356Y0169339D02*
X0287232Y0169339D01*
X0287232Y0166941D02*
X0260890Y0166941D01*
X0261055Y0166872D02*
X0258640Y0167872D01*
X0250090Y0167872D01*
X0247676Y0166872D01*
X0245828Y0165025D01*
X0244828Y0162610D01*
X0244828Y0159997D01*
X0245828Y0157583D01*
X0247127Y0156284D01*
X0246222Y0155379D01*
X0245222Y0152965D01*
X0245222Y0150352D01*
X0246222Y0147938D01*
X0247275Y0146885D01*
X0246222Y0145832D01*
X0245222Y0143418D01*
X0245222Y0140804D01*
X0246222Y0138390D01*
X0248070Y0136543D01*
X0250484Y0135543D01*
X0259034Y0135543D01*
X0261448Y0136543D01*
X0263296Y0138390D01*
X0264296Y0140804D01*
X0264296Y0143418D01*
X0263296Y0145832D01*
X0262243Y0146885D01*
X0263296Y0147938D01*
X0264296Y0150352D01*
X0264296Y0152965D01*
X0263296Y0155379D01*
X0261997Y0156678D01*
X0262902Y0157583D01*
X0263902Y0159997D01*
X0263902Y0162610D01*
X0262902Y0165025D01*
X0261055Y0166872D01*
X0263102Y0164542D02*
X0287232Y0164542D01*
X0287232Y0162144D02*
X0263902Y0162144D01*
X0263798Y0159745D02*
X0287232Y0159745D01*
X0287232Y0157347D02*
X0262666Y0157347D01*
X0263475Y0154948D02*
X0287232Y0154948D01*
X0287232Y0152550D02*
X0264296Y0152550D01*
X0264213Y0150151D02*
X0287232Y0150151D01*
X0287232Y0147753D02*
X0263111Y0147753D01*
X0263494Y0145354D02*
X0287232Y0145354D01*
X0287232Y0142956D02*
X0264296Y0142956D01*
X0264194Y0140557D02*
X0287232Y0140557D01*
X0287232Y0138159D02*
X0263064Y0138159D01*
X0259559Y0135760D02*
X0287232Y0135760D01*
X0287232Y0133362D02*
X0190093Y0133362D01*
X0189263Y0130963D02*
X0287232Y0130963D01*
X0287232Y0128565D02*
X0189263Y0128565D01*
X0189263Y0126166D02*
X0287232Y0126166D01*
X0287232Y0123768D02*
X0189263Y0123768D01*
X0189263Y0121369D02*
X0287232Y0121369D01*
X0287232Y0118970D02*
X0189263Y0118970D01*
X0189263Y0116572D02*
X0287232Y0116572D01*
X0287232Y0114173D02*
X0189263Y0114173D01*
X0189263Y0111775D02*
X0287232Y0111775D01*
X0287232Y0109376D02*
X0189263Y0109376D01*
X0189263Y0106978D02*
X0287232Y0106978D01*
X0287232Y0104579D02*
X0189263Y0104579D01*
X0189263Y0102181D02*
X0287232Y0102181D01*
X0287232Y0099782D02*
X0189263Y0099782D01*
X0189263Y0097384D02*
X0287232Y0097384D01*
X0287232Y0094985D02*
X0189263Y0094985D01*
X0189263Y0092587D02*
X0287232Y0092587D01*
X0287232Y0090188D02*
X0189263Y0090188D01*
X0189263Y0087790D02*
X0287232Y0087790D01*
X0287232Y0085391D02*
X0189263Y0085391D01*
X0189263Y0082993D02*
X0267240Y0082993D01*
X0267167Y0082973D02*
X0264066Y0081183D01*
X0261534Y0078651D01*
X0259743Y0075549D01*
X0258817Y0072090D01*
X0258817Y0068510D01*
X0259743Y0065051D01*
X0261534Y0061949D01*
X0264066Y0059417D01*
X0267167Y0057627D01*
X0270626Y0056700D01*
X0274207Y0056700D01*
X0277666Y0057627D01*
X0280767Y0059417D01*
X0283299Y0061949D01*
X0285090Y0065051D01*
X0286017Y0068510D01*
X0286017Y0072090D01*
X0285090Y0075549D01*
X0283299Y0078651D01*
X0280767Y0081183D01*
X0277666Y0082973D01*
X0274207Y0083900D01*
X0270626Y0083900D01*
X0267167Y0082973D01*
X0263478Y0080594D02*
X0249256Y0080594D01*
X0251655Y0078196D02*
X0261271Y0078196D01*
X0259886Y0075797D02*
X0251817Y0075797D01*
X0251817Y0073399D02*
X0259167Y0073399D01*
X0258817Y0071000D02*
X0250251Y0071000D01*
X0245849Y0068602D02*
X0258817Y0068602D01*
X0259434Y0066203D02*
X0246417Y0066203D01*
X0246417Y0063805D02*
X0260463Y0063805D01*
X0262077Y0061406D02*
X0245257Y0061406D01*
X0242858Y0059008D02*
X0264775Y0059008D01*
X0280058Y0059008D02*
X0287232Y0059008D01*
X0287232Y0061406D02*
X0282756Y0061406D01*
X0284370Y0063805D02*
X0287232Y0063805D01*
X0287232Y0066203D02*
X0285399Y0066203D01*
X0286017Y0068602D02*
X0287232Y0068602D01*
X0287232Y0071000D02*
X0286017Y0071000D01*
X0285666Y0073399D02*
X0287232Y0073399D01*
X0287232Y0075797D02*
X0284947Y0075797D01*
X0283562Y0078196D02*
X0287232Y0078196D01*
X0287232Y0080594D02*
X0281356Y0080594D01*
X0277593Y0082993D02*
X0287232Y0082993D01*
X0287232Y0056609D02*
X0007522Y0056609D01*
X0007522Y0059008D02*
X0014775Y0059008D01*
X0014066Y0059417D02*
X0017167Y0057627D01*
X0020626Y0056700D01*
X0024207Y0056700D01*
X0027666Y0057627D01*
X0030767Y0059417D01*
X0033299Y0061949D01*
X0035090Y0065051D01*
X0036017Y0068510D01*
X0036017Y0072090D01*
X0035090Y0075549D01*
X0033299Y0078651D01*
X0030767Y0081183D01*
X0027666Y0082973D01*
X0024207Y0083900D01*
X0020626Y0083900D01*
X0017167Y0082973D01*
X0014066Y0081183D01*
X0011534Y0078651D01*
X0009743Y0075549D01*
X0008817Y0072090D01*
X0008817Y0068510D01*
X0009743Y0065051D01*
X0011534Y0061949D01*
X0014066Y0059417D01*
X0012077Y0061406D02*
X0007522Y0061406D01*
X0007522Y0063805D02*
X0010463Y0063805D01*
X0009434Y0066203D02*
X0007522Y0066203D01*
X0007522Y0068602D02*
X0008817Y0068602D01*
X0008817Y0071000D02*
X0007522Y0071000D01*
X0007522Y0073399D02*
X0009167Y0073399D01*
X0009886Y0075797D02*
X0007522Y0075797D01*
X0007522Y0078196D02*
X0011271Y0078196D01*
X0013478Y0080594D02*
X0007522Y0080594D01*
X0007522Y0082993D02*
X0017240Y0082993D01*
X0007522Y0085391D02*
X0051228Y0085391D01*
X0051235Y0087790D02*
X0007522Y0087790D01*
X0007522Y0090188D02*
X0051242Y0090188D01*
X0051249Y0092587D02*
X0007522Y0092587D01*
X0007522Y0094985D02*
X0051256Y0094985D01*
X0051263Y0097384D02*
X0007522Y0097384D01*
X0007522Y0099782D02*
X0051270Y0099782D01*
X0051277Y0102181D02*
X0007522Y0102181D01*
X0007522Y0104579D02*
X0051284Y0104579D01*
X0051430Y0106978D02*
X0007522Y0106978D01*
X0007522Y0109376D02*
X0053832Y0109376D01*
X0061616Y0111775D02*
X0007522Y0111775D01*
X0007522Y0114173D02*
X0069400Y0114173D01*
X0077183Y0116572D02*
X0007522Y0116572D01*
X0007522Y0118970D02*
X0084967Y0118970D01*
X0092751Y0121369D02*
X0007522Y0121369D01*
X0007522Y0123768D02*
X0100535Y0123768D01*
X0108318Y0126166D02*
X0007522Y0126166D01*
X0007522Y0128565D02*
X0116102Y0128565D01*
X0123886Y0130963D02*
X0104736Y0130963D01*
X0105534Y0131293D02*
X0106994Y0132753D01*
X0107784Y0134661D01*
X0107784Y0136726D01*
X0107006Y0138604D01*
X0109694Y0141291D01*
X0110775Y0142373D01*
X0111361Y0143787D01*
X0111361Y0165047D01*
X0111414Y0165635D01*
X0111361Y0165807D01*
X0111361Y0165986D01*
X0111135Y0166532D01*
X0110959Y0167096D01*
X0110844Y0167234D01*
X0110775Y0167400D01*
X0110358Y0167817D01*
X0110245Y0167953D01*
X0110245Y0169206D01*
X0109455Y0171114D01*
X0107995Y0172574D01*
X0106087Y0173365D01*
X0104022Y0173365D01*
X0102114Y0172574D01*
X0100654Y0171114D01*
X0099864Y0169206D01*
X0099864Y0167142D01*
X0100654Y0165234D01*
X0102114Y0163774D01*
X0103669Y0163130D01*
X0103669Y0158109D01*
X0101208Y0158109D01*
X0098794Y0157109D01*
X0096946Y0155261D01*
X0095946Y0152847D01*
X0095946Y0150234D01*
X0096946Y0147819D01*
X0098794Y0145972D01*
X0101208Y0144972D01*
X0102496Y0144972D01*
X0099333Y0141809D01*
X0098748Y0140396D01*
X0098748Y0139188D01*
X0098193Y0138634D01*
X0097403Y0136726D01*
X0097403Y0134661D01*
X0098193Y0132753D01*
X0099653Y0131293D01*
X0101561Y0130503D01*
X0103626Y0130503D01*
X0105534Y0131293D01*
X0107246Y0133362D02*
X0131670Y0133362D01*
X0139453Y0135760D02*
X0107784Y0135760D01*
X0107191Y0138159D02*
X0147237Y0138159D01*
X0148452Y0140557D02*
X0108959Y0140557D01*
X0111017Y0142956D02*
X0148452Y0142956D01*
X0147505Y0145354D02*
X0123040Y0145354D01*
X0116990Y0145354D02*
X0111361Y0145354D01*
X0111361Y0147753D02*
X0115191Y0147753D01*
X0114824Y0150151D02*
X0111361Y0150151D01*
X0111361Y0152550D02*
X0115590Y0152550D01*
X0111361Y0154948D02*
X0120202Y0154948D01*
X0111361Y0157347D02*
X0153330Y0157347D01*
X0157173Y0157347D02*
X0158292Y0157347D01*
X0161660Y0157347D02*
X0163172Y0157347D01*
X0167015Y0157347D02*
X0168331Y0157347D01*
X0171699Y0157347D02*
X0173252Y0157347D01*
X0176620Y0157347D02*
X0178370Y0157347D01*
X0181738Y0157347D02*
X0183292Y0157347D01*
X0186660Y0157347D02*
X0189369Y0157347D01*
X0195204Y0159745D02*
X0111361Y0159745D01*
X0111361Y0162144D02*
X0195204Y0162144D01*
X0195204Y0164542D02*
X0193409Y0164542D01*
X0186779Y0164542D02*
X0111361Y0164542D01*
X0111008Y0166941D02*
X0185149Y0166941D01*
X0184903Y0169339D02*
X0110190Y0169339D01*
X0108831Y0171738D02*
X0185923Y0171738D01*
X0202896Y0166941D02*
X0247841Y0166941D01*
X0245628Y0164542D02*
X0202896Y0164542D01*
X0202896Y0162144D02*
X0244828Y0162144D01*
X0244933Y0159745D02*
X0202896Y0159745D01*
X0202896Y0157347D02*
X0246065Y0157347D01*
X0246044Y0154948D02*
X0202896Y0154948D01*
X0202896Y0152550D02*
X0245222Y0152550D01*
X0245305Y0150151D02*
X0202896Y0150151D01*
X0203547Y0147753D02*
X0246407Y0147753D01*
X0246024Y0145354D02*
X0204241Y0145354D01*
X0203804Y0142956D02*
X0245222Y0142956D01*
X0245325Y0140557D02*
X0201781Y0140557D01*
X0196319Y0140557D02*
X0186164Y0140557D01*
X0189064Y0138159D02*
X0246454Y0138159D01*
X0249959Y0135760D02*
X0190265Y0135760D01*
X0194297Y0142956D02*
X0186164Y0142956D01*
X0186164Y0145354D02*
X0190285Y0145354D01*
X0116272Y0096467D02*
X0116272Y0096368D01*
X0116255Y0095655D01*
X0116274Y0095605D01*
X0116318Y0081900D01*
X0113263Y0081900D01*
X0113263Y0095405D01*
X0116272Y0096467D01*
X0116276Y0094985D02*
X0113263Y0094985D01*
X0113263Y0092587D02*
X0116284Y0092587D01*
X0116291Y0090188D02*
X0113263Y0090188D01*
X0113263Y0087790D02*
X0116299Y0087790D01*
X0116307Y0085391D02*
X0113263Y0085391D01*
X0113263Y0082993D02*
X0116314Y0082993D01*
X0124006Y0082993D02*
X0127270Y0082993D01*
X0127270Y0081900D02*
X0124010Y0081900D01*
X0123973Y0093695D01*
X0127258Y0094965D01*
X0127270Y0094391D01*
X0127270Y0081900D01*
X0127270Y0085391D02*
X0123999Y0085391D01*
X0123991Y0087790D02*
X0127270Y0087790D01*
X0127270Y0090188D02*
X0123984Y0090188D01*
X0123976Y0092587D02*
X0127270Y0092587D01*
X0134963Y0091923D02*
X0138170Y0093333D01*
X0138170Y0093321D01*
X0138117Y0093150D01*
X0138170Y0092561D01*
X0138170Y0081900D01*
X0134963Y0081900D01*
X0134963Y0091923D01*
X0136473Y0092587D02*
X0138168Y0092587D01*
X0138170Y0090188D02*
X0134963Y0090188D01*
X0134963Y0087790D02*
X0138170Y0087790D01*
X0138170Y0085391D02*
X0134963Y0085391D01*
X0134963Y0082993D02*
X0138170Y0082993D01*
X0145863Y0082993D02*
X0148970Y0082993D01*
X0148970Y0081900D02*
X0145863Y0081900D01*
X0145863Y0090409D01*
X0148970Y0092039D01*
X0148970Y0091744D01*
X0148896Y0091400D01*
X0148970Y0090986D01*
X0148970Y0081900D01*
X0148970Y0085391D02*
X0145863Y0085391D01*
X0145863Y0087790D02*
X0148970Y0087790D01*
X0148970Y0090188D02*
X0145863Y0090188D01*
X0156663Y0089230D02*
X0161442Y0092300D01*
X0161249Y0092110D01*
X0160724Y0091618D01*
X0160704Y0091575D01*
X0160671Y0091541D01*
X0160390Y0090879D01*
X0160094Y0090223D01*
X0160092Y0090176D01*
X0160074Y0090133D01*
X0160068Y0089413D01*
X0160045Y0088694D01*
X0160062Y0088650D01*
X0160006Y0081900D01*
X0156663Y0081900D01*
X0156663Y0089230D01*
X0156663Y0087790D02*
X0160055Y0087790D01*
X0160093Y0090188D02*
X0158155Y0090188D01*
X0156663Y0085391D02*
X0160035Y0085391D01*
X0160015Y0082993D02*
X0156663Y0082993D01*
X0167708Y0082993D02*
X0170770Y0082993D01*
X0170770Y0081900D02*
X0167699Y0081900D01*
X0167746Y0087658D01*
X0173364Y0092929D01*
X0171545Y0089808D01*
X0171356Y0089620D01*
X0171163Y0089153D01*
X0170908Y0088717D01*
X0170873Y0088452D01*
X0170770Y0088206D01*
X0170770Y0087701D01*
X0170702Y0087201D01*
X0170770Y0086943D01*
X0170770Y0081900D01*
X0170770Y0085391D02*
X0167727Y0085391D01*
X0167886Y0087790D02*
X0170770Y0087790D01*
X0170442Y0090188D02*
X0171766Y0090188D01*
X0172999Y0092587D02*
X0173164Y0092587D01*
X0179272Y0087790D02*
X0181570Y0087790D01*
X0181570Y0090188D02*
X0180670Y0090188D01*
X0181570Y0091734D02*
X0181570Y0081900D01*
X0178463Y0081900D01*
X0178463Y0086402D01*
X0181570Y0091734D01*
X0181570Y0085391D02*
X0178463Y0085391D01*
X0178463Y0082993D02*
X0181570Y0082993D01*
X0194956Y0080594D02*
X0197677Y0080594D01*
X0205756Y0080594D02*
X0208577Y0080594D01*
X0216656Y0080594D02*
X0219477Y0080594D01*
X0227556Y0080594D02*
X0230277Y0080594D01*
X0238356Y0080594D02*
X0241177Y0080594D01*
X0234377Y0061406D02*
X0234357Y0061406D01*
X0231958Y0059008D02*
X0236775Y0059008D01*
X0225875Y0059008D02*
X0221058Y0059008D01*
X0223457Y0061406D02*
X0223477Y0061406D01*
X0214975Y0059008D02*
X0210258Y0059008D01*
X0204175Y0059008D02*
X0199358Y0059008D01*
X0201757Y0061406D02*
X0201777Y0061406D01*
X0193275Y0059008D02*
X0188458Y0059008D01*
X0190857Y0061406D02*
X0190877Y0061406D01*
X0182375Y0059008D02*
X0177658Y0059008D01*
X0171575Y0059008D02*
X0166758Y0059008D01*
X0169157Y0061406D02*
X0169177Y0061406D01*
X0160675Y0059008D02*
X0155858Y0059008D01*
X0158257Y0061406D02*
X0158277Y0061406D01*
X0149775Y0059008D02*
X0145058Y0059008D01*
X0138975Y0059008D02*
X0134158Y0059008D01*
X0136557Y0061406D02*
X0136577Y0061406D01*
X0128075Y0059008D02*
X0123258Y0059008D01*
X0125657Y0061406D02*
X0125677Y0061406D01*
X0117175Y0059008D02*
X0112458Y0059008D01*
X0106375Y0059008D02*
X0101558Y0059008D01*
X0103957Y0061406D02*
X0103977Y0061406D01*
X0095475Y0059008D02*
X0090658Y0059008D01*
X0093057Y0061406D02*
X0093077Y0061406D01*
X0084575Y0059008D02*
X0079758Y0059008D01*
X0082157Y0061406D02*
X0082177Y0061406D01*
X0073675Y0059008D02*
X0068958Y0059008D01*
X0062875Y0059008D02*
X0058058Y0059008D01*
X0060457Y0061406D02*
X0060477Y0061406D01*
X0051975Y0059008D02*
X0030058Y0059008D01*
X0032756Y0061406D02*
X0049577Y0061406D01*
X0048417Y0063805D02*
X0034370Y0063805D01*
X0035399Y0066203D02*
X0048417Y0066203D01*
X0048984Y0068602D02*
X0036017Y0068602D01*
X0036017Y0071000D02*
X0044582Y0071000D01*
X0043017Y0073399D02*
X0035666Y0073399D01*
X0034947Y0075797D02*
X0043017Y0075797D01*
X0043179Y0078196D02*
X0033562Y0078196D01*
X0031356Y0080594D02*
X0045577Y0080594D01*
X0051221Y0082993D02*
X0027593Y0082993D01*
X0058914Y0082993D02*
X0062180Y0082993D01*
X0062173Y0081900D02*
X0058910Y0081900D01*
X0058971Y0102911D01*
X0062286Y0103932D01*
X0062261Y0103630D01*
X0062307Y0103488D01*
X0062173Y0081900D01*
X0062195Y0085391D02*
X0058920Y0085391D01*
X0058927Y0087790D02*
X0062210Y0087790D01*
X0062225Y0090188D02*
X0058934Y0090188D01*
X0058941Y0092587D02*
X0062239Y0092587D01*
X0062254Y0094985D02*
X0058948Y0094985D01*
X0058955Y0097384D02*
X0062269Y0097384D01*
X0062284Y0099782D02*
X0058962Y0099782D01*
X0058969Y0102181D02*
X0062299Y0102181D01*
X0069985Y0101271D02*
X0073193Y0102303D01*
X0073230Y0102194D01*
X0073032Y0081900D01*
X0069865Y0081900D01*
X0069985Y0101271D01*
X0069976Y0099782D02*
X0073206Y0099782D01*
X0073230Y0102181D02*
X0072814Y0102181D01*
X0073183Y0097384D02*
X0069961Y0097384D01*
X0069946Y0094985D02*
X0073160Y0094985D01*
X0073136Y0092587D02*
X0069932Y0092587D01*
X0069917Y0090188D02*
X0073113Y0090188D01*
X0073089Y0087790D02*
X0069902Y0087790D01*
X0069887Y0085391D02*
X0073066Y0085391D01*
X0073043Y0082993D02*
X0069872Y0082993D01*
X0080735Y0082993D02*
X0083623Y0082993D01*
X0083632Y0081900D02*
X0080724Y0081900D01*
X0080901Y0100019D01*
X0083445Y0100868D01*
X0083434Y0100685D01*
X0083477Y0100561D01*
X0083632Y0081900D01*
X0083603Y0085391D02*
X0080759Y0085391D01*
X0080782Y0087790D02*
X0083584Y0087790D01*
X0083564Y0090188D02*
X0080805Y0090188D01*
X0080829Y0092587D02*
X0083544Y0092587D01*
X0083524Y0094985D02*
X0080852Y0094985D01*
X0080875Y0097384D02*
X0083504Y0097384D01*
X0083484Y0099782D02*
X0080899Y0099782D01*
X0091187Y0098498D02*
X0094889Y0099784D01*
X0094867Y0099106D01*
X0094885Y0099059D01*
X0094776Y0081900D01*
X0091325Y0081900D01*
X0091187Y0098498D01*
X0091196Y0097384D02*
X0094874Y0097384D01*
X0094859Y0094985D02*
X0091216Y0094985D01*
X0091236Y0092587D02*
X0094844Y0092587D01*
X0094829Y0090188D02*
X0091256Y0090188D01*
X0091276Y0087790D02*
X0094813Y0087790D01*
X0094798Y0085391D02*
X0091296Y0085391D01*
X0091316Y0082993D02*
X0094783Y0082993D01*
X0102475Y0082993D02*
X0105570Y0082993D01*
X0105570Y0081900D02*
X0102468Y0081900D01*
X0102565Y0097084D01*
X0105570Y0098219D01*
X0105535Y0097569D01*
X0105570Y0097468D01*
X0105570Y0081900D01*
X0105570Y0085391D02*
X0102490Y0085391D01*
X0102506Y0087790D02*
X0105570Y0087790D01*
X0105570Y0090188D02*
X0102521Y0090188D01*
X0102536Y0092587D02*
X0105570Y0092587D01*
X0105570Y0094985D02*
X0102551Y0094985D01*
X0103359Y0097384D02*
X0105570Y0097384D01*
X0094889Y0099782D02*
X0094884Y0099782D01*
X0100451Y0130963D02*
X0007522Y0130963D01*
X0007522Y0133362D02*
X0097941Y0133362D01*
X0097403Y0135760D02*
X0007522Y0135760D01*
X0007522Y0138159D02*
X0097996Y0138159D01*
X0098814Y0140557D02*
X0007522Y0140557D01*
X0007522Y0142956D02*
X0100479Y0142956D01*
X0100285Y0145354D02*
X0007522Y0145354D01*
X0007522Y0147753D02*
X0097013Y0147753D01*
X0095981Y0150151D02*
X0007522Y0150151D01*
X0007522Y0152550D02*
X0095946Y0152550D01*
X0096817Y0154948D02*
X0007522Y0154948D01*
X0007522Y0157347D02*
X0099369Y0157347D01*
X0103669Y0159745D02*
X0007522Y0159745D01*
X0007522Y0162144D02*
X0103669Y0162144D01*
X0101346Y0164542D02*
X0007522Y0164542D01*
X0007522Y0166941D02*
X0099947Y0166941D01*
X0099919Y0169339D02*
X0007522Y0169339D01*
X0007522Y0171738D02*
X0101277Y0171738D01*
X0007522Y0054211D02*
X0287232Y0054211D01*
X0287232Y0051812D02*
X0007522Y0051812D01*
X0007522Y0049414D02*
X0287232Y0049414D01*
X0287232Y0047015D02*
X0007522Y0047015D01*
X0007522Y0044617D02*
X0287232Y0044617D01*
X0287232Y0042218D02*
X0007522Y0042218D01*
X0007522Y0039820D02*
X0287232Y0039820D01*
X0287232Y0037421D02*
X0007522Y0037421D01*
X0007522Y0035023D02*
X0287232Y0035023D01*
X0287232Y0032624D02*
X0007522Y0032624D01*
X0007522Y0030226D02*
X0287232Y0030226D01*
M02*
