G75*
%MOIN*%
%OFA0B0*%
%FSLAX25Y25*%
%IPPOS*%
%LPD*%
%AMOC8*
5,1,8,0,0,1.08239X$1,22.5*
%
%ADD10C,0.13583*%
%ADD11C,0.01600*%
%ADD12OC8,0.06984*%
%ADD13C,0.20984*%
%ADD14C,0.05346*%
D10*
X0016800Y0016800D03*
X0016800Y0141800D03*
X0296800Y0141800D03*
X0296800Y0016800D03*
D11*
X0287174Y0106800D02*
X0285942Y0106897D01*
X0284741Y0107185D01*
X0283599Y0107658D01*
X0282546Y0108304D01*
X0281606Y0109106D01*
X0280804Y0110046D01*
X0280158Y0111099D01*
X0279685Y0112241D01*
X0279397Y0113442D01*
X0279300Y0114674D01*
X0279300Y0121426D01*
X0279397Y0122658D01*
X0279685Y0123859D01*
X0280158Y0125001D01*
X0280804Y0126054D01*
X0281606Y0126994D01*
X0282546Y0127796D01*
X0283599Y0128442D01*
X0284741Y0128915D01*
X0285942Y0129203D01*
X0287174Y0129300D01*
X0306800Y0129300D01*
X0306800Y0106800D01*
X0287174Y0106800D01*
X0283832Y0107562D02*
X0306800Y0107562D01*
X0306800Y0109160D02*
X0281560Y0109160D01*
X0280367Y0110759D02*
X0306800Y0110759D01*
X0306800Y0112357D02*
X0279657Y0112357D01*
X0279357Y0113956D02*
X0306800Y0113956D01*
X0306800Y0115554D02*
X0279300Y0115554D01*
X0279300Y0117153D02*
X0306800Y0117153D01*
X0306800Y0118751D02*
X0279300Y0118751D01*
X0279300Y0120350D02*
X0306800Y0120350D01*
X0306800Y0121948D02*
X0279341Y0121948D01*
X0279610Y0123547D02*
X0306800Y0123547D01*
X0306800Y0125145D02*
X0280247Y0125145D01*
X0281393Y0126744D02*
X0306800Y0126744D01*
X0306800Y0128342D02*
X0283437Y0128342D01*
X0034300Y0121426D02*
X0034300Y0114674D01*
X0034203Y0113442D01*
X0033915Y0112241D01*
X0033442Y0111099D01*
X0032796Y0110046D01*
X0031994Y0109106D01*
X0031054Y0108304D01*
X0030001Y0107658D01*
X0028859Y0107185D01*
X0027658Y0106897D01*
X0026426Y0106800D01*
X0006800Y0106800D01*
X0006800Y0129300D01*
X0026426Y0129300D01*
X0027658Y0129203D01*
X0028859Y0128915D01*
X0030001Y0128442D01*
X0031054Y0127796D01*
X0031994Y0126994D01*
X0032796Y0126054D01*
X0033442Y0125001D01*
X0033915Y0123859D01*
X0034203Y0122658D01*
X0034300Y0121426D01*
X0034259Y0121948D02*
X0006800Y0121948D01*
X0006800Y0120350D02*
X0034300Y0120350D01*
X0034300Y0118751D02*
X0006800Y0118751D01*
X0006800Y0117153D02*
X0034300Y0117153D01*
X0034300Y0115554D02*
X0006800Y0115554D01*
X0006800Y0113956D02*
X0034243Y0113956D01*
X0033943Y0112357D02*
X0006800Y0112357D01*
X0006800Y0110759D02*
X0033233Y0110759D01*
X0032040Y0109160D02*
X0006800Y0109160D01*
X0006800Y0107562D02*
X0029768Y0107562D01*
X0033990Y0123547D02*
X0006800Y0123547D01*
X0006800Y0125145D02*
X0033353Y0125145D01*
X0032207Y0126744D02*
X0006800Y0126744D01*
X0006800Y0128342D02*
X0030163Y0128342D01*
D12*
X0059000Y0082400D03*
X0069800Y0082400D03*
X0080700Y0082400D03*
X0091600Y0082400D03*
X0102400Y0082400D03*
X0113300Y0082400D03*
X0124200Y0082400D03*
X0135100Y0082400D03*
X0145900Y0082400D03*
X0156800Y0082400D03*
X0167700Y0082400D03*
X0178500Y0082400D03*
X0189400Y0082400D03*
X0200300Y0082400D03*
X0211100Y0082400D03*
X0222000Y0082400D03*
X0232900Y0082400D03*
X0243700Y0082400D03*
X0254600Y0082400D03*
X0249200Y0071200D03*
X0238300Y0071200D03*
X0227400Y0071200D03*
X0216600Y0071200D03*
X0205700Y0071200D03*
X0194800Y0071200D03*
X0184000Y0071200D03*
X0173100Y0071200D03*
X0162200Y0071200D03*
X0151400Y0071200D03*
X0140500Y0071200D03*
X0129600Y0071200D03*
X0118700Y0071200D03*
X0107900Y0071200D03*
X0097000Y0071200D03*
X0086100Y0071200D03*
X0075300Y0071200D03*
X0064400Y0071200D03*
X0021800Y0035550D03*
D13*
X0031800Y0076800D03*
X0281800Y0076800D03*
D14*
X0244300Y0061800D03*
X0051800Y0093050D03*
M02*
