%
M48
M72
T01C0.02362
T02C0.04000
T03C0.12598
T04C0.13000
%
T01
X51800Y93050
X244300Y61800
T02
X249200Y71200
X238300Y71200
X227400Y71200
X216600Y71200
X205700Y71200
X194800Y71200
X184000Y71200
X173100Y71200
X162200Y71200
X151400Y71200
X140500Y71200
X129600Y71200
X118700Y71200
X107900Y71200
X97000Y71200
X86100Y71200
X75300Y71200
X64400Y71200
X59000Y82400
X69800Y82400
X80700Y82400
X91600Y82400
X102400Y82400
X113300Y82400
X124200Y82400
X135100Y82400
X145900Y82400
X156800Y82400
X167700Y82400
X178500Y82400
X189400Y82400
X200300Y82400
X211100Y82400
X222000Y82400
X232900Y82400
X243700Y82400
X254600Y82400
X21800Y35550
T03
X16800Y16800
X16800Y141800
X296800Y141800
X296800Y16800
T04
X281800Y76800
X31800Y76800
M30
