G75*
%MOIN*%
%OFA0B0*%
%FSLAX25Y25*%
%IPPOS*%
%LPD*%
%AMOC8*
5,1,8,0,0,1.08239X$1,22.5*
%
%ADD10C,0.00000*%
%ADD11OC8,0.06000*%
%ADD12C,0.20000*%
%ADD13R,0.03543X0.02756*%
%ADD14R,0.02756X0.03543*%
%ADD15C,0.01600*%
%ADD16C,0.04362*%
D10*
X0006800Y0006800D02*
X0006800Y0150501D01*
X0306721Y0150501D01*
X0306721Y0006800D01*
X0006800Y0006800D01*
X0010501Y0016800D02*
X0010503Y0016958D01*
X0010509Y0017116D01*
X0010519Y0017274D01*
X0010533Y0017432D01*
X0010551Y0017589D01*
X0010572Y0017746D01*
X0010598Y0017902D01*
X0010628Y0018058D01*
X0010661Y0018213D01*
X0010699Y0018366D01*
X0010740Y0018519D01*
X0010785Y0018671D01*
X0010834Y0018822D01*
X0010887Y0018971D01*
X0010943Y0019119D01*
X0011003Y0019265D01*
X0011067Y0019410D01*
X0011135Y0019553D01*
X0011206Y0019695D01*
X0011280Y0019835D01*
X0011358Y0019972D01*
X0011440Y0020108D01*
X0011524Y0020242D01*
X0011613Y0020373D01*
X0011704Y0020502D01*
X0011799Y0020629D01*
X0011896Y0020754D01*
X0011997Y0020876D01*
X0012101Y0020995D01*
X0012208Y0021112D01*
X0012318Y0021226D01*
X0012431Y0021337D01*
X0012546Y0021446D01*
X0012664Y0021551D01*
X0012785Y0021653D01*
X0012908Y0021753D01*
X0013034Y0021849D01*
X0013162Y0021942D01*
X0013292Y0022032D01*
X0013425Y0022118D01*
X0013560Y0022202D01*
X0013696Y0022281D01*
X0013835Y0022358D01*
X0013976Y0022430D01*
X0014118Y0022500D01*
X0014262Y0022565D01*
X0014408Y0022627D01*
X0014555Y0022685D01*
X0014704Y0022740D01*
X0014854Y0022791D01*
X0015005Y0022838D01*
X0015157Y0022881D01*
X0015310Y0022920D01*
X0015465Y0022956D01*
X0015620Y0022987D01*
X0015776Y0023015D01*
X0015932Y0023039D01*
X0016089Y0023059D01*
X0016247Y0023075D01*
X0016404Y0023087D01*
X0016563Y0023095D01*
X0016721Y0023099D01*
X0016879Y0023099D01*
X0017037Y0023095D01*
X0017196Y0023087D01*
X0017353Y0023075D01*
X0017511Y0023059D01*
X0017668Y0023039D01*
X0017824Y0023015D01*
X0017980Y0022987D01*
X0018135Y0022956D01*
X0018290Y0022920D01*
X0018443Y0022881D01*
X0018595Y0022838D01*
X0018746Y0022791D01*
X0018896Y0022740D01*
X0019045Y0022685D01*
X0019192Y0022627D01*
X0019338Y0022565D01*
X0019482Y0022500D01*
X0019624Y0022430D01*
X0019765Y0022358D01*
X0019904Y0022281D01*
X0020040Y0022202D01*
X0020175Y0022118D01*
X0020308Y0022032D01*
X0020438Y0021942D01*
X0020566Y0021849D01*
X0020692Y0021753D01*
X0020815Y0021653D01*
X0020936Y0021551D01*
X0021054Y0021446D01*
X0021169Y0021337D01*
X0021282Y0021226D01*
X0021392Y0021112D01*
X0021499Y0020995D01*
X0021603Y0020876D01*
X0021704Y0020754D01*
X0021801Y0020629D01*
X0021896Y0020502D01*
X0021987Y0020373D01*
X0022076Y0020242D01*
X0022160Y0020108D01*
X0022242Y0019972D01*
X0022320Y0019835D01*
X0022394Y0019695D01*
X0022465Y0019553D01*
X0022533Y0019410D01*
X0022597Y0019265D01*
X0022657Y0019119D01*
X0022713Y0018971D01*
X0022766Y0018822D01*
X0022815Y0018671D01*
X0022860Y0018519D01*
X0022901Y0018366D01*
X0022939Y0018213D01*
X0022972Y0018058D01*
X0023002Y0017902D01*
X0023028Y0017746D01*
X0023049Y0017589D01*
X0023067Y0017432D01*
X0023081Y0017274D01*
X0023091Y0017116D01*
X0023097Y0016958D01*
X0023099Y0016800D01*
X0023097Y0016642D01*
X0023091Y0016484D01*
X0023081Y0016326D01*
X0023067Y0016168D01*
X0023049Y0016011D01*
X0023028Y0015854D01*
X0023002Y0015698D01*
X0022972Y0015542D01*
X0022939Y0015387D01*
X0022901Y0015234D01*
X0022860Y0015081D01*
X0022815Y0014929D01*
X0022766Y0014778D01*
X0022713Y0014629D01*
X0022657Y0014481D01*
X0022597Y0014335D01*
X0022533Y0014190D01*
X0022465Y0014047D01*
X0022394Y0013905D01*
X0022320Y0013765D01*
X0022242Y0013628D01*
X0022160Y0013492D01*
X0022076Y0013358D01*
X0021987Y0013227D01*
X0021896Y0013098D01*
X0021801Y0012971D01*
X0021704Y0012846D01*
X0021603Y0012724D01*
X0021499Y0012605D01*
X0021392Y0012488D01*
X0021282Y0012374D01*
X0021169Y0012263D01*
X0021054Y0012154D01*
X0020936Y0012049D01*
X0020815Y0011947D01*
X0020692Y0011847D01*
X0020566Y0011751D01*
X0020438Y0011658D01*
X0020308Y0011568D01*
X0020175Y0011482D01*
X0020040Y0011398D01*
X0019904Y0011319D01*
X0019765Y0011242D01*
X0019624Y0011170D01*
X0019482Y0011100D01*
X0019338Y0011035D01*
X0019192Y0010973D01*
X0019045Y0010915D01*
X0018896Y0010860D01*
X0018746Y0010809D01*
X0018595Y0010762D01*
X0018443Y0010719D01*
X0018290Y0010680D01*
X0018135Y0010644D01*
X0017980Y0010613D01*
X0017824Y0010585D01*
X0017668Y0010561D01*
X0017511Y0010541D01*
X0017353Y0010525D01*
X0017196Y0010513D01*
X0017037Y0010505D01*
X0016879Y0010501D01*
X0016721Y0010501D01*
X0016563Y0010505D01*
X0016404Y0010513D01*
X0016247Y0010525D01*
X0016089Y0010541D01*
X0015932Y0010561D01*
X0015776Y0010585D01*
X0015620Y0010613D01*
X0015465Y0010644D01*
X0015310Y0010680D01*
X0015157Y0010719D01*
X0015005Y0010762D01*
X0014854Y0010809D01*
X0014704Y0010860D01*
X0014555Y0010915D01*
X0014408Y0010973D01*
X0014262Y0011035D01*
X0014118Y0011100D01*
X0013976Y0011170D01*
X0013835Y0011242D01*
X0013696Y0011319D01*
X0013560Y0011398D01*
X0013425Y0011482D01*
X0013292Y0011568D01*
X0013162Y0011658D01*
X0013034Y0011751D01*
X0012908Y0011847D01*
X0012785Y0011947D01*
X0012664Y0012049D01*
X0012546Y0012154D01*
X0012431Y0012263D01*
X0012318Y0012374D01*
X0012208Y0012488D01*
X0012101Y0012605D01*
X0011997Y0012724D01*
X0011896Y0012846D01*
X0011799Y0012971D01*
X0011704Y0013098D01*
X0011613Y0013227D01*
X0011524Y0013358D01*
X0011440Y0013492D01*
X0011358Y0013628D01*
X0011280Y0013765D01*
X0011206Y0013905D01*
X0011135Y0014047D01*
X0011067Y0014190D01*
X0011003Y0014335D01*
X0010943Y0014481D01*
X0010887Y0014629D01*
X0010834Y0014778D01*
X0010785Y0014929D01*
X0010740Y0015081D01*
X0010699Y0015234D01*
X0010661Y0015387D01*
X0010628Y0015542D01*
X0010598Y0015698D01*
X0010572Y0015854D01*
X0010551Y0016011D01*
X0010533Y0016168D01*
X0010519Y0016326D01*
X0010509Y0016484D01*
X0010503Y0016642D01*
X0010501Y0016800D01*
X0010501Y0141800D02*
X0010503Y0141958D01*
X0010509Y0142116D01*
X0010519Y0142274D01*
X0010533Y0142432D01*
X0010551Y0142589D01*
X0010572Y0142746D01*
X0010598Y0142902D01*
X0010628Y0143058D01*
X0010661Y0143213D01*
X0010699Y0143366D01*
X0010740Y0143519D01*
X0010785Y0143671D01*
X0010834Y0143822D01*
X0010887Y0143971D01*
X0010943Y0144119D01*
X0011003Y0144265D01*
X0011067Y0144410D01*
X0011135Y0144553D01*
X0011206Y0144695D01*
X0011280Y0144835D01*
X0011358Y0144972D01*
X0011440Y0145108D01*
X0011524Y0145242D01*
X0011613Y0145373D01*
X0011704Y0145502D01*
X0011799Y0145629D01*
X0011896Y0145754D01*
X0011997Y0145876D01*
X0012101Y0145995D01*
X0012208Y0146112D01*
X0012318Y0146226D01*
X0012431Y0146337D01*
X0012546Y0146446D01*
X0012664Y0146551D01*
X0012785Y0146653D01*
X0012908Y0146753D01*
X0013034Y0146849D01*
X0013162Y0146942D01*
X0013292Y0147032D01*
X0013425Y0147118D01*
X0013560Y0147202D01*
X0013696Y0147281D01*
X0013835Y0147358D01*
X0013976Y0147430D01*
X0014118Y0147500D01*
X0014262Y0147565D01*
X0014408Y0147627D01*
X0014555Y0147685D01*
X0014704Y0147740D01*
X0014854Y0147791D01*
X0015005Y0147838D01*
X0015157Y0147881D01*
X0015310Y0147920D01*
X0015465Y0147956D01*
X0015620Y0147987D01*
X0015776Y0148015D01*
X0015932Y0148039D01*
X0016089Y0148059D01*
X0016247Y0148075D01*
X0016404Y0148087D01*
X0016563Y0148095D01*
X0016721Y0148099D01*
X0016879Y0148099D01*
X0017037Y0148095D01*
X0017196Y0148087D01*
X0017353Y0148075D01*
X0017511Y0148059D01*
X0017668Y0148039D01*
X0017824Y0148015D01*
X0017980Y0147987D01*
X0018135Y0147956D01*
X0018290Y0147920D01*
X0018443Y0147881D01*
X0018595Y0147838D01*
X0018746Y0147791D01*
X0018896Y0147740D01*
X0019045Y0147685D01*
X0019192Y0147627D01*
X0019338Y0147565D01*
X0019482Y0147500D01*
X0019624Y0147430D01*
X0019765Y0147358D01*
X0019904Y0147281D01*
X0020040Y0147202D01*
X0020175Y0147118D01*
X0020308Y0147032D01*
X0020438Y0146942D01*
X0020566Y0146849D01*
X0020692Y0146753D01*
X0020815Y0146653D01*
X0020936Y0146551D01*
X0021054Y0146446D01*
X0021169Y0146337D01*
X0021282Y0146226D01*
X0021392Y0146112D01*
X0021499Y0145995D01*
X0021603Y0145876D01*
X0021704Y0145754D01*
X0021801Y0145629D01*
X0021896Y0145502D01*
X0021987Y0145373D01*
X0022076Y0145242D01*
X0022160Y0145108D01*
X0022242Y0144972D01*
X0022320Y0144835D01*
X0022394Y0144695D01*
X0022465Y0144553D01*
X0022533Y0144410D01*
X0022597Y0144265D01*
X0022657Y0144119D01*
X0022713Y0143971D01*
X0022766Y0143822D01*
X0022815Y0143671D01*
X0022860Y0143519D01*
X0022901Y0143366D01*
X0022939Y0143213D01*
X0022972Y0143058D01*
X0023002Y0142902D01*
X0023028Y0142746D01*
X0023049Y0142589D01*
X0023067Y0142432D01*
X0023081Y0142274D01*
X0023091Y0142116D01*
X0023097Y0141958D01*
X0023099Y0141800D01*
X0023097Y0141642D01*
X0023091Y0141484D01*
X0023081Y0141326D01*
X0023067Y0141168D01*
X0023049Y0141011D01*
X0023028Y0140854D01*
X0023002Y0140698D01*
X0022972Y0140542D01*
X0022939Y0140387D01*
X0022901Y0140234D01*
X0022860Y0140081D01*
X0022815Y0139929D01*
X0022766Y0139778D01*
X0022713Y0139629D01*
X0022657Y0139481D01*
X0022597Y0139335D01*
X0022533Y0139190D01*
X0022465Y0139047D01*
X0022394Y0138905D01*
X0022320Y0138765D01*
X0022242Y0138628D01*
X0022160Y0138492D01*
X0022076Y0138358D01*
X0021987Y0138227D01*
X0021896Y0138098D01*
X0021801Y0137971D01*
X0021704Y0137846D01*
X0021603Y0137724D01*
X0021499Y0137605D01*
X0021392Y0137488D01*
X0021282Y0137374D01*
X0021169Y0137263D01*
X0021054Y0137154D01*
X0020936Y0137049D01*
X0020815Y0136947D01*
X0020692Y0136847D01*
X0020566Y0136751D01*
X0020438Y0136658D01*
X0020308Y0136568D01*
X0020175Y0136482D01*
X0020040Y0136398D01*
X0019904Y0136319D01*
X0019765Y0136242D01*
X0019624Y0136170D01*
X0019482Y0136100D01*
X0019338Y0136035D01*
X0019192Y0135973D01*
X0019045Y0135915D01*
X0018896Y0135860D01*
X0018746Y0135809D01*
X0018595Y0135762D01*
X0018443Y0135719D01*
X0018290Y0135680D01*
X0018135Y0135644D01*
X0017980Y0135613D01*
X0017824Y0135585D01*
X0017668Y0135561D01*
X0017511Y0135541D01*
X0017353Y0135525D01*
X0017196Y0135513D01*
X0017037Y0135505D01*
X0016879Y0135501D01*
X0016721Y0135501D01*
X0016563Y0135505D01*
X0016404Y0135513D01*
X0016247Y0135525D01*
X0016089Y0135541D01*
X0015932Y0135561D01*
X0015776Y0135585D01*
X0015620Y0135613D01*
X0015465Y0135644D01*
X0015310Y0135680D01*
X0015157Y0135719D01*
X0015005Y0135762D01*
X0014854Y0135809D01*
X0014704Y0135860D01*
X0014555Y0135915D01*
X0014408Y0135973D01*
X0014262Y0136035D01*
X0014118Y0136100D01*
X0013976Y0136170D01*
X0013835Y0136242D01*
X0013696Y0136319D01*
X0013560Y0136398D01*
X0013425Y0136482D01*
X0013292Y0136568D01*
X0013162Y0136658D01*
X0013034Y0136751D01*
X0012908Y0136847D01*
X0012785Y0136947D01*
X0012664Y0137049D01*
X0012546Y0137154D01*
X0012431Y0137263D01*
X0012318Y0137374D01*
X0012208Y0137488D01*
X0012101Y0137605D01*
X0011997Y0137724D01*
X0011896Y0137846D01*
X0011799Y0137971D01*
X0011704Y0138098D01*
X0011613Y0138227D01*
X0011524Y0138358D01*
X0011440Y0138492D01*
X0011358Y0138628D01*
X0011280Y0138765D01*
X0011206Y0138905D01*
X0011135Y0139047D01*
X0011067Y0139190D01*
X0011003Y0139335D01*
X0010943Y0139481D01*
X0010887Y0139629D01*
X0010834Y0139778D01*
X0010785Y0139929D01*
X0010740Y0140081D01*
X0010699Y0140234D01*
X0010661Y0140387D01*
X0010628Y0140542D01*
X0010598Y0140698D01*
X0010572Y0140854D01*
X0010551Y0141011D01*
X0010533Y0141168D01*
X0010519Y0141326D01*
X0010509Y0141484D01*
X0010503Y0141642D01*
X0010501Y0141800D01*
X0290501Y0141800D02*
X0290503Y0141958D01*
X0290509Y0142116D01*
X0290519Y0142274D01*
X0290533Y0142432D01*
X0290551Y0142589D01*
X0290572Y0142746D01*
X0290598Y0142902D01*
X0290628Y0143058D01*
X0290661Y0143213D01*
X0290699Y0143366D01*
X0290740Y0143519D01*
X0290785Y0143671D01*
X0290834Y0143822D01*
X0290887Y0143971D01*
X0290943Y0144119D01*
X0291003Y0144265D01*
X0291067Y0144410D01*
X0291135Y0144553D01*
X0291206Y0144695D01*
X0291280Y0144835D01*
X0291358Y0144972D01*
X0291440Y0145108D01*
X0291524Y0145242D01*
X0291613Y0145373D01*
X0291704Y0145502D01*
X0291799Y0145629D01*
X0291896Y0145754D01*
X0291997Y0145876D01*
X0292101Y0145995D01*
X0292208Y0146112D01*
X0292318Y0146226D01*
X0292431Y0146337D01*
X0292546Y0146446D01*
X0292664Y0146551D01*
X0292785Y0146653D01*
X0292908Y0146753D01*
X0293034Y0146849D01*
X0293162Y0146942D01*
X0293292Y0147032D01*
X0293425Y0147118D01*
X0293560Y0147202D01*
X0293696Y0147281D01*
X0293835Y0147358D01*
X0293976Y0147430D01*
X0294118Y0147500D01*
X0294262Y0147565D01*
X0294408Y0147627D01*
X0294555Y0147685D01*
X0294704Y0147740D01*
X0294854Y0147791D01*
X0295005Y0147838D01*
X0295157Y0147881D01*
X0295310Y0147920D01*
X0295465Y0147956D01*
X0295620Y0147987D01*
X0295776Y0148015D01*
X0295932Y0148039D01*
X0296089Y0148059D01*
X0296247Y0148075D01*
X0296404Y0148087D01*
X0296563Y0148095D01*
X0296721Y0148099D01*
X0296879Y0148099D01*
X0297037Y0148095D01*
X0297196Y0148087D01*
X0297353Y0148075D01*
X0297511Y0148059D01*
X0297668Y0148039D01*
X0297824Y0148015D01*
X0297980Y0147987D01*
X0298135Y0147956D01*
X0298290Y0147920D01*
X0298443Y0147881D01*
X0298595Y0147838D01*
X0298746Y0147791D01*
X0298896Y0147740D01*
X0299045Y0147685D01*
X0299192Y0147627D01*
X0299338Y0147565D01*
X0299482Y0147500D01*
X0299624Y0147430D01*
X0299765Y0147358D01*
X0299904Y0147281D01*
X0300040Y0147202D01*
X0300175Y0147118D01*
X0300308Y0147032D01*
X0300438Y0146942D01*
X0300566Y0146849D01*
X0300692Y0146753D01*
X0300815Y0146653D01*
X0300936Y0146551D01*
X0301054Y0146446D01*
X0301169Y0146337D01*
X0301282Y0146226D01*
X0301392Y0146112D01*
X0301499Y0145995D01*
X0301603Y0145876D01*
X0301704Y0145754D01*
X0301801Y0145629D01*
X0301896Y0145502D01*
X0301987Y0145373D01*
X0302076Y0145242D01*
X0302160Y0145108D01*
X0302242Y0144972D01*
X0302320Y0144835D01*
X0302394Y0144695D01*
X0302465Y0144553D01*
X0302533Y0144410D01*
X0302597Y0144265D01*
X0302657Y0144119D01*
X0302713Y0143971D01*
X0302766Y0143822D01*
X0302815Y0143671D01*
X0302860Y0143519D01*
X0302901Y0143366D01*
X0302939Y0143213D01*
X0302972Y0143058D01*
X0303002Y0142902D01*
X0303028Y0142746D01*
X0303049Y0142589D01*
X0303067Y0142432D01*
X0303081Y0142274D01*
X0303091Y0142116D01*
X0303097Y0141958D01*
X0303099Y0141800D01*
X0303097Y0141642D01*
X0303091Y0141484D01*
X0303081Y0141326D01*
X0303067Y0141168D01*
X0303049Y0141011D01*
X0303028Y0140854D01*
X0303002Y0140698D01*
X0302972Y0140542D01*
X0302939Y0140387D01*
X0302901Y0140234D01*
X0302860Y0140081D01*
X0302815Y0139929D01*
X0302766Y0139778D01*
X0302713Y0139629D01*
X0302657Y0139481D01*
X0302597Y0139335D01*
X0302533Y0139190D01*
X0302465Y0139047D01*
X0302394Y0138905D01*
X0302320Y0138765D01*
X0302242Y0138628D01*
X0302160Y0138492D01*
X0302076Y0138358D01*
X0301987Y0138227D01*
X0301896Y0138098D01*
X0301801Y0137971D01*
X0301704Y0137846D01*
X0301603Y0137724D01*
X0301499Y0137605D01*
X0301392Y0137488D01*
X0301282Y0137374D01*
X0301169Y0137263D01*
X0301054Y0137154D01*
X0300936Y0137049D01*
X0300815Y0136947D01*
X0300692Y0136847D01*
X0300566Y0136751D01*
X0300438Y0136658D01*
X0300308Y0136568D01*
X0300175Y0136482D01*
X0300040Y0136398D01*
X0299904Y0136319D01*
X0299765Y0136242D01*
X0299624Y0136170D01*
X0299482Y0136100D01*
X0299338Y0136035D01*
X0299192Y0135973D01*
X0299045Y0135915D01*
X0298896Y0135860D01*
X0298746Y0135809D01*
X0298595Y0135762D01*
X0298443Y0135719D01*
X0298290Y0135680D01*
X0298135Y0135644D01*
X0297980Y0135613D01*
X0297824Y0135585D01*
X0297668Y0135561D01*
X0297511Y0135541D01*
X0297353Y0135525D01*
X0297196Y0135513D01*
X0297037Y0135505D01*
X0296879Y0135501D01*
X0296721Y0135501D01*
X0296563Y0135505D01*
X0296404Y0135513D01*
X0296247Y0135525D01*
X0296089Y0135541D01*
X0295932Y0135561D01*
X0295776Y0135585D01*
X0295620Y0135613D01*
X0295465Y0135644D01*
X0295310Y0135680D01*
X0295157Y0135719D01*
X0295005Y0135762D01*
X0294854Y0135809D01*
X0294704Y0135860D01*
X0294555Y0135915D01*
X0294408Y0135973D01*
X0294262Y0136035D01*
X0294118Y0136100D01*
X0293976Y0136170D01*
X0293835Y0136242D01*
X0293696Y0136319D01*
X0293560Y0136398D01*
X0293425Y0136482D01*
X0293292Y0136568D01*
X0293162Y0136658D01*
X0293034Y0136751D01*
X0292908Y0136847D01*
X0292785Y0136947D01*
X0292664Y0137049D01*
X0292546Y0137154D01*
X0292431Y0137263D01*
X0292318Y0137374D01*
X0292208Y0137488D01*
X0292101Y0137605D01*
X0291997Y0137724D01*
X0291896Y0137846D01*
X0291799Y0137971D01*
X0291704Y0138098D01*
X0291613Y0138227D01*
X0291524Y0138358D01*
X0291440Y0138492D01*
X0291358Y0138628D01*
X0291280Y0138765D01*
X0291206Y0138905D01*
X0291135Y0139047D01*
X0291067Y0139190D01*
X0291003Y0139335D01*
X0290943Y0139481D01*
X0290887Y0139629D01*
X0290834Y0139778D01*
X0290785Y0139929D01*
X0290740Y0140081D01*
X0290699Y0140234D01*
X0290661Y0140387D01*
X0290628Y0140542D01*
X0290598Y0140698D01*
X0290572Y0140854D01*
X0290551Y0141011D01*
X0290533Y0141168D01*
X0290519Y0141326D01*
X0290509Y0141484D01*
X0290503Y0141642D01*
X0290501Y0141800D01*
X0290501Y0016800D02*
X0290503Y0016958D01*
X0290509Y0017116D01*
X0290519Y0017274D01*
X0290533Y0017432D01*
X0290551Y0017589D01*
X0290572Y0017746D01*
X0290598Y0017902D01*
X0290628Y0018058D01*
X0290661Y0018213D01*
X0290699Y0018366D01*
X0290740Y0018519D01*
X0290785Y0018671D01*
X0290834Y0018822D01*
X0290887Y0018971D01*
X0290943Y0019119D01*
X0291003Y0019265D01*
X0291067Y0019410D01*
X0291135Y0019553D01*
X0291206Y0019695D01*
X0291280Y0019835D01*
X0291358Y0019972D01*
X0291440Y0020108D01*
X0291524Y0020242D01*
X0291613Y0020373D01*
X0291704Y0020502D01*
X0291799Y0020629D01*
X0291896Y0020754D01*
X0291997Y0020876D01*
X0292101Y0020995D01*
X0292208Y0021112D01*
X0292318Y0021226D01*
X0292431Y0021337D01*
X0292546Y0021446D01*
X0292664Y0021551D01*
X0292785Y0021653D01*
X0292908Y0021753D01*
X0293034Y0021849D01*
X0293162Y0021942D01*
X0293292Y0022032D01*
X0293425Y0022118D01*
X0293560Y0022202D01*
X0293696Y0022281D01*
X0293835Y0022358D01*
X0293976Y0022430D01*
X0294118Y0022500D01*
X0294262Y0022565D01*
X0294408Y0022627D01*
X0294555Y0022685D01*
X0294704Y0022740D01*
X0294854Y0022791D01*
X0295005Y0022838D01*
X0295157Y0022881D01*
X0295310Y0022920D01*
X0295465Y0022956D01*
X0295620Y0022987D01*
X0295776Y0023015D01*
X0295932Y0023039D01*
X0296089Y0023059D01*
X0296247Y0023075D01*
X0296404Y0023087D01*
X0296563Y0023095D01*
X0296721Y0023099D01*
X0296879Y0023099D01*
X0297037Y0023095D01*
X0297196Y0023087D01*
X0297353Y0023075D01*
X0297511Y0023059D01*
X0297668Y0023039D01*
X0297824Y0023015D01*
X0297980Y0022987D01*
X0298135Y0022956D01*
X0298290Y0022920D01*
X0298443Y0022881D01*
X0298595Y0022838D01*
X0298746Y0022791D01*
X0298896Y0022740D01*
X0299045Y0022685D01*
X0299192Y0022627D01*
X0299338Y0022565D01*
X0299482Y0022500D01*
X0299624Y0022430D01*
X0299765Y0022358D01*
X0299904Y0022281D01*
X0300040Y0022202D01*
X0300175Y0022118D01*
X0300308Y0022032D01*
X0300438Y0021942D01*
X0300566Y0021849D01*
X0300692Y0021753D01*
X0300815Y0021653D01*
X0300936Y0021551D01*
X0301054Y0021446D01*
X0301169Y0021337D01*
X0301282Y0021226D01*
X0301392Y0021112D01*
X0301499Y0020995D01*
X0301603Y0020876D01*
X0301704Y0020754D01*
X0301801Y0020629D01*
X0301896Y0020502D01*
X0301987Y0020373D01*
X0302076Y0020242D01*
X0302160Y0020108D01*
X0302242Y0019972D01*
X0302320Y0019835D01*
X0302394Y0019695D01*
X0302465Y0019553D01*
X0302533Y0019410D01*
X0302597Y0019265D01*
X0302657Y0019119D01*
X0302713Y0018971D01*
X0302766Y0018822D01*
X0302815Y0018671D01*
X0302860Y0018519D01*
X0302901Y0018366D01*
X0302939Y0018213D01*
X0302972Y0018058D01*
X0303002Y0017902D01*
X0303028Y0017746D01*
X0303049Y0017589D01*
X0303067Y0017432D01*
X0303081Y0017274D01*
X0303091Y0017116D01*
X0303097Y0016958D01*
X0303099Y0016800D01*
X0303097Y0016642D01*
X0303091Y0016484D01*
X0303081Y0016326D01*
X0303067Y0016168D01*
X0303049Y0016011D01*
X0303028Y0015854D01*
X0303002Y0015698D01*
X0302972Y0015542D01*
X0302939Y0015387D01*
X0302901Y0015234D01*
X0302860Y0015081D01*
X0302815Y0014929D01*
X0302766Y0014778D01*
X0302713Y0014629D01*
X0302657Y0014481D01*
X0302597Y0014335D01*
X0302533Y0014190D01*
X0302465Y0014047D01*
X0302394Y0013905D01*
X0302320Y0013765D01*
X0302242Y0013628D01*
X0302160Y0013492D01*
X0302076Y0013358D01*
X0301987Y0013227D01*
X0301896Y0013098D01*
X0301801Y0012971D01*
X0301704Y0012846D01*
X0301603Y0012724D01*
X0301499Y0012605D01*
X0301392Y0012488D01*
X0301282Y0012374D01*
X0301169Y0012263D01*
X0301054Y0012154D01*
X0300936Y0012049D01*
X0300815Y0011947D01*
X0300692Y0011847D01*
X0300566Y0011751D01*
X0300438Y0011658D01*
X0300308Y0011568D01*
X0300175Y0011482D01*
X0300040Y0011398D01*
X0299904Y0011319D01*
X0299765Y0011242D01*
X0299624Y0011170D01*
X0299482Y0011100D01*
X0299338Y0011035D01*
X0299192Y0010973D01*
X0299045Y0010915D01*
X0298896Y0010860D01*
X0298746Y0010809D01*
X0298595Y0010762D01*
X0298443Y0010719D01*
X0298290Y0010680D01*
X0298135Y0010644D01*
X0297980Y0010613D01*
X0297824Y0010585D01*
X0297668Y0010561D01*
X0297511Y0010541D01*
X0297353Y0010525D01*
X0297196Y0010513D01*
X0297037Y0010505D01*
X0296879Y0010501D01*
X0296721Y0010501D01*
X0296563Y0010505D01*
X0296404Y0010513D01*
X0296247Y0010525D01*
X0296089Y0010541D01*
X0295932Y0010561D01*
X0295776Y0010585D01*
X0295620Y0010613D01*
X0295465Y0010644D01*
X0295310Y0010680D01*
X0295157Y0010719D01*
X0295005Y0010762D01*
X0294854Y0010809D01*
X0294704Y0010860D01*
X0294555Y0010915D01*
X0294408Y0010973D01*
X0294262Y0011035D01*
X0294118Y0011100D01*
X0293976Y0011170D01*
X0293835Y0011242D01*
X0293696Y0011319D01*
X0293560Y0011398D01*
X0293425Y0011482D01*
X0293292Y0011568D01*
X0293162Y0011658D01*
X0293034Y0011751D01*
X0292908Y0011847D01*
X0292785Y0011947D01*
X0292664Y0012049D01*
X0292546Y0012154D01*
X0292431Y0012263D01*
X0292318Y0012374D01*
X0292208Y0012488D01*
X0292101Y0012605D01*
X0291997Y0012724D01*
X0291896Y0012846D01*
X0291799Y0012971D01*
X0291704Y0013098D01*
X0291613Y0013227D01*
X0291524Y0013358D01*
X0291440Y0013492D01*
X0291358Y0013628D01*
X0291280Y0013765D01*
X0291206Y0013905D01*
X0291135Y0014047D01*
X0291067Y0014190D01*
X0291003Y0014335D01*
X0290943Y0014481D01*
X0290887Y0014629D01*
X0290834Y0014778D01*
X0290785Y0014929D01*
X0290740Y0015081D01*
X0290699Y0015234D01*
X0290661Y0015387D01*
X0290628Y0015542D01*
X0290598Y0015698D01*
X0290572Y0015854D01*
X0290551Y0016011D01*
X0290533Y0016168D01*
X0290519Y0016326D01*
X0290509Y0016484D01*
X0290503Y0016642D01*
X0290501Y0016800D01*
D11*
X0249200Y0071200D03*
X0238300Y0071200D03*
X0227400Y0071200D03*
X0216600Y0071200D03*
X0205700Y0071200D03*
X0194800Y0071200D03*
X0184000Y0071200D03*
X0173100Y0071200D03*
X0162200Y0071200D03*
X0151400Y0071200D03*
X0140500Y0071200D03*
X0129600Y0071200D03*
X0118700Y0071200D03*
X0107900Y0071200D03*
X0097000Y0071200D03*
X0086100Y0071200D03*
X0075300Y0071200D03*
X0064400Y0071200D03*
X0059000Y0082400D03*
X0069800Y0082400D03*
X0080700Y0082400D03*
X0091600Y0082400D03*
X0102400Y0082400D03*
X0113300Y0082400D03*
X0124200Y0082400D03*
X0135100Y0082400D03*
X0145900Y0082400D03*
X0156800Y0082400D03*
X0167700Y0082400D03*
X0178500Y0082400D03*
X0189400Y0082400D03*
X0200300Y0082400D03*
X0211100Y0082400D03*
X0222000Y0082400D03*
X0232900Y0082400D03*
X0243700Y0082400D03*
X0254600Y0082400D03*
X0021800Y0035550D03*
D12*
X0031800Y0076800D03*
X0281800Y0076800D03*
D13*
X0249300Y0054359D03*
X0249300Y0049241D03*
X0238050Y0049241D03*
X0238050Y0054359D03*
X0228050Y0054359D03*
X0228050Y0049241D03*
X0216800Y0049241D03*
X0216800Y0054359D03*
X0205550Y0054359D03*
X0205550Y0049241D03*
X0195550Y0049241D03*
X0195550Y0054359D03*
X0184300Y0054359D03*
X0184300Y0049241D03*
X0173050Y0049241D03*
X0173050Y0054359D03*
X0161800Y0054359D03*
X0161800Y0049241D03*
X0151800Y0049241D03*
X0151800Y0054359D03*
X0140550Y0054359D03*
X0140550Y0049241D03*
X0129300Y0049241D03*
X0129300Y0054359D03*
X0119300Y0054359D03*
X0119300Y0049241D03*
X0108050Y0049241D03*
X0108050Y0054359D03*
X0096800Y0054359D03*
X0096800Y0049241D03*
X0085550Y0049241D03*
X0085550Y0054359D03*
X0075550Y0054359D03*
X0075550Y0049241D03*
X0064300Y0049241D03*
X0064300Y0054359D03*
X0066800Y0029359D03*
X0066800Y0024241D03*
X0079300Y0024241D03*
X0084300Y0024241D03*
X0084300Y0029359D03*
X0079300Y0029359D03*
X0099300Y0029359D03*
X0104300Y0029359D03*
X0104300Y0024241D03*
X0099300Y0024241D03*
X0119300Y0024241D03*
X0124300Y0024241D03*
X0124300Y0029359D03*
X0119300Y0029359D03*
X0139300Y0029359D03*
X0144300Y0029359D03*
X0144300Y0024241D03*
X0139300Y0024241D03*
X0164300Y0024241D03*
X0169300Y0024241D03*
X0169300Y0029359D03*
X0164300Y0029359D03*
X0186800Y0029359D03*
X0191800Y0029359D03*
X0191800Y0024241D03*
X0186800Y0024241D03*
X0209300Y0024241D03*
X0214300Y0024241D03*
X0214300Y0029359D03*
X0209300Y0029359D03*
X0229300Y0029359D03*
X0234300Y0029359D03*
X0234300Y0024241D03*
X0229300Y0024241D03*
X0249300Y0029241D03*
X0249300Y0034359D03*
X0244300Y0099241D03*
X0244300Y0104359D03*
X0254300Y0104359D03*
X0254300Y0099241D03*
X0233050Y0099241D03*
X0233050Y0104359D03*
X0221800Y0104359D03*
X0221800Y0099241D03*
X0210550Y0099241D03*
X0210550Y0104359D03*
X0200550Y0104359D03*
X0200550Y0099241D03*
X0189300Y0099241D03*
X0189300Y0104359D03*
X0178050Y0104359D03*
X0178050Y0099241D03*
X0168050Y0099241D03*
X0168050Y0104359D03*
X0156800Y0104359D03*
X0156800Y0099241D03*
X0145550Y0099241D03*
X0145550Y0104359D03*
X0135550Y0104359D03*
X0135550Y0099241D03*
X0124300Y0099241D03*
X0124300Y0104359D03*
X0114300Y0104359D03*
X0114300Y0099241D03*
X0101800Y0099241D03*
X0101800Y0104359D03*
X0091800Y0104359D03*
X0091800Y0099241D03*
X0081800Y0099241D03*
X0081800Y0104359D03*
X0069300Y0104359D03*
X0069300Y0099241D03*
X0059300Y0099241D03*
X0059300Y0104359D03*
X0061800Y0124241D03*
X0066800Y0124241D03*
X0066800Y0129359D03*
X0061800Y0129359D03*
X0086800Y0129359D03*
X0091800Y0129359D03*
X0091800Y0124241D03*
X0086800Y0124241D03*
X0106800Y0124241D03*
X0111800Y0124241D03*
X0111800Y0129359D03*
X0106800Y0129359D03*
X0129300Y0129359D03*
X0134300Y0129359D03*
X0134300Y0124241D03*
X0129300Y0124241D03*
X0149300Y0124241D03*
X0154300Y0124241D03*
X0154300Y0129359D03*
X0149300Y0129359D03*
X0166800Y0129359D03*
X0171800Y0129359D03*
X0171800Y0124241D03*
X0166800Y0124241D03*
X0189300Y0124241D03*
X0194300Y0124241D03*
X0194300Y0129359D03*
X0189300Y0129359D03*
X0214300Y0129359D03*
X0219300Y0129359D03*
X0219300Y0124241D03*
X0214300Y0124241D03*
X0234300Y0124241D03*
X0239300Y0124241D03*
X0239300Y0129359D03*
X0234300Y0129359D03*
X0251800Y0124359D03*
X0251800Y0119241D03*
D14*
X0251859Y0111800D03*
X0246741Y0111800D03*
X0239359Y0116800D03*
X0234241Y0116800D03*
X0229359Y0111800D03*
X0224241Y0111800D03*
X0219359Y0116800D03*
X0214241Y0116800D03*
X0208109Y0111800D03*
X0202991Y0111800D03*
X0194359Y0116800D03*
X0189241Y0116800D03*
X0184359Y0111800D03*
X0179241Y0111800D03*
X0171859Y0116800D03*
X0166741Y0116800D03*
X0164359Y0111800D03*
X0159241Y0111800D03*
X0154359Y0116800D03*
X0149241Y0116800D03*
X0144359Y0111800D03*
X0139241Y0111800D03*
X0134359Y0116800D03*
X0129241Y0116800D03*
X0121859Y0111800D03*
X0116741Y0111800D03*
X0111859Y0116800D03*
X0106741Y0116800D03*
X0099359Y0111800D03*
X0094241Y0111800D03*
X0091859Y0116800D03*
X0086741Y0116800D03*
X0079359Y0111800D03*
X0074241Y0111800D03*
X0066859Y0116800D03*
X0061741Y0116800D03*
X0059359Y0111800D03*
X0054241Y0111800D03*
X0066741Y0041800D03*
X0071859Y0041800D03*
X0066859Y0036800D03*
X0061741Y0036800D03*
X0079241Y0036800D03*
X0084359Y0036800D03*
X0089241Y0041800D03*
X0094359Y0041800D03*
X0099241Y0036800D03*
X0104359Y0036800D03*
X0109241Y0041800D03*
X0114359Y0041800D03*
X0119241Y0036800D03*
X0124359Y0036800D03*
X0129241Y0041800D03*
X0134359Y0041800D03*
X0139241Y0036800D03*
X0144359Y0036800D03*
X0151741Y0041800D03*
X0156859Y0041800D03*
X0164241Y0036800D03*
X0169359Y0036800D03*
X0174241Y0041800D03*
X0179359Y0041800D03*
X0186741Y0036800D03*
X0191859Y0036800D03*
X0199241Y0041800D03*
X0204359Y0041800D03*
X0209241Y0036800D03*
X0214359Y0036800D03*
X0219241Y0041800D03*
X0224359Y0041800D03*
X0229241Y0036800D03*
X0234359Y0036800D03*
X0241741Y0041800D03*
X0246859Y0041800D03*
D15*
X0246859Y0044359D01*
X0244300Y0046918D01*
X0244300Y0061800D01*
X0252768Y0061205D02*
X0303953Y0061205D01*
X0303953Y0062803D02*
X0252768Y0062803D01*
X0252768Y0064402D02*
X0303953Y0064402D01*
X0303953Y0066001D02*
X0286571Y0066001D01*
X0286323Y0065881D02*
X0287517Y0066456D01*
X0288639Y0067161D01*
X0289675Y0067988D01*
X0290612Y0068925D01*
X0291439Y0069961D01*
X0292144Y0071083D01*
X0292719Y0072277D01*
X0293157Y0073528D01*
X0293452Y0074820D01*
X0293585Y0076000D01*
X0282600Y0076000D01*
X0282600Y0077600D01*
X0293585Y0077600D01*
X0293452Y0078780D01*
X0293157Y0080072D01*
X0292719Y0081323D01*
X0292144Y0082517D01*
X0291439Y0083639D01*
X0290612Y0084675D01*
X0289675Y0085612D01*
X0288639Y0086439D01*
X0287517Y0087144D01*
X0286323Y0087719D01*
X0285072Y0088157D01*
X0283780Y0088452D01*
X0282600Y0088585D01*
X0282600Y0077600D01*
X0281000Y0077600D01*
X0281000Y0088585D01*
X0279820Y0088452D01*
X0278528Y0088157D01*
X0277277Y0087719D01*
X0276083Y0087144D01*
X0274961Y0086439D01*
X0273925Y0085612D01*
X0272988Y0084675D01*
X0272161Y0083639D01*
X0271456Y0082517D01*
X0270881Y0081323D01*
X0270443Y0080072D01*
X0270148Y0078780D01*
X0270015Y0077600D01*
X0281000Y0077600D01*
X0281000Y0076000D01*
X0282600Y0076000D01*
X0282600Y0065015D01*
X0283780Y0065148D01*
X0285072Y0065443D01*
X0286323Y0065881D01*
X0289188Y0067599D02*
X0303953Y0067599D01*
X0303953Y0069198D02*
X0290830Y0069198D01*
X0291964Y0070796D02*
X0303953Y0070796D01*
X0303953Y0072395D02*
X0292760Y0072395D01*
X0293263Y0073993D02*
X0303953Y0073993D01*
X0303953Y0075592D02*
X0293538Y0075592D01*
X0293450Y0078789D02*
X0303953Y0078789D01*
X0303953Y0080387D02*
X0293046Y0080387D01*
X0292400Y0081986D02*
X0303953Y0081986D01*
X0303953Y0083584D02*
X0291473Y0083584D01*
X0290105Y0085183D02*
X0303953Y0085183D01*
X0303953Y0086781D02*
X0288094Y0086781D01*
X0284095Y0088380D02*
X0303953Y0088380D01*
X0303953Y0089978D02*
X0264118Y0089978D01*
X0264118Y0088380D02*
X0279505Y0088380D01*
X0281000Y0088380D02*
X0282600Y0088380D01*
X0282600Y0086781D02*
X0281000Y0086781D01*
X0281000Y0085183D02*
X0282600Y0085183D01*
X0282600Y0083584D02*
X0281000Y0083584D01*
X0281000Y0081986D02*
X0282600Y0081986D01*
X0282600Y0080387D02*
X0281000Y0080387D01*
X0281000Y0078789D02*
X0282600Y0078789D01*
X0282600Y0077190D02*
X0303953Y0077190D01*
X0282600Y0075592D02*
X0281000Y0075592D01*
X0281000Y0076000D02*
X0281000Y0065015D01*
X0279820Y0065148D01*
X0278528Y0065443D01*
X0277277Y0065881D01*
X0276083Y0066456D01*
X0274961Y0067161D01*
X0273925Y0067988D01*
X0272988Y0068925D01*
X0272161Y0069961D01*
X0271456Y0071083D01*
X0270881Y0072277D01*
X0270443Y0073528D01*
X0270148Y0074820D01*
X0270015Y0076000D01*
X0281000Y0076000D01*
X0281000Y0077190D02*
X0262237Y0077190D01*
X0263575Y0078529D02*
X0264118Y0079840D01*
X0264118Y0107510D01*
X0263575Y0108821D01*
X0262571Y0109825D01*
X0258880Y0113516D01*
X0257569Y0114059D01*
X0256005Y0114059D01*
X0256005Y0114122D01*
X0255584Y0115140D01*
X0255368Y0115355D01*
X0255368Y0115745D01*
X0255919Y0116295D01*
X0256340Y0117312D01*
X0256340Y0121170D01*
X0255919Y0122187D01*
X0255370Y0122736D01*
X0255372Y0122744D01*
X0255372Y0124359D01*
X0251800Y0124359D01*
X0257991Y0124359D01*
X0258050Y0124300D01*
X0256800Y0124300D01*
X0255550Y0124300D01*
X0255372Y0124359D02*
X0251800Y0124359D01*
X0246800Y0129359D01*
X0239300Y0129359D01*
X0234300Y0129359D01*
X0219300Y0129359D01*
X0214300Y0129359D01*
X0194300Y0129359D01*
X0189300Y0129359D01*
X0171800Y0129359D01*
X0166800Y0129359D01*
X0154300Y0129359D01*
X0149300Y0129359D01*
X0134300Y0129359D01*
X0129300Y0129359D01*
X0111800Y0129359D01*
X0106800Y0129359D01*
X0091800Y0129359D01*
X0086800Y0129359D01*
X0066800Y0129359D01*
X0061800Y0129359D01*
X0054359Y0129359D01*
X0054300Y0129300D01*
X0046800Y0121800D01*
X0046800Y0029300D01*
X0028050Y0029300D01*
X0021800Y0035550D01*
X0022000Y0035629D02*
X0057594Y0035629D01*
X0057594Y0035900D02*
X0057594Y0034478D01*
X0058016Y0033460D01*
X0058795Y0032681D01*
X0059812Y0032260D01*
X0062663Y0032260D01*
X0062260Y0031288D01*
X0062260Y0027430D01*
X0062681Y0026413D01*
X0063230Y0025864D01*
X0063228Y0025856D01*
X0063228Y0024241D01*
X0066800Y0024241D01*
X0051859Y0024241D01*
X0046800Y0029300D01*
X0057780Y0034030D02*
X0026600Y0034030D01*
X0026600Y0033562D02*
X0026600Y0035350D01*
X0022000Y0035350D01*
X0022000Y0035750D01*
X0026600Y0035750D01*
X0026600Y0037538D01*
X0023788Y0040350D01*
X0022000Y0040350D01*
X0022000Y0035750D01*
X0021600Y0035750D01*
X0021600Y0040350D01*
X0019812Y0040350D01*
X0017000Y0037538D01*
X0017000Y0035750D01*
X0021600Y0035750D01*
X0021600Y0035350D01*
X0022000Y0035350D01*
X0022000Y0030750D01*
X0023788Y0030750D01*
X0026600Y0033562D01*
X0025470Y0032432D02*
X0059397Y0032432D01*
X0062260Y0030833D02*
X0023871Y0030833D01*
X0022000Y0030833D02*
X0021600Y0030833D01*
X0021600Y0030750D02*
X0021600Y0035350D01*
X0017000Y0035350D01*
X0017000Y0033562D01*
X0019812Y0030750D01*
X0021600Y0030750D01*
X0021600Y0032432D02*
X0022000Y0032432D01*
X0022000Y0034030D02*
X0021600Y0034030D01*
X0021600Y0035629D02*
X0009568Y0035629D01*
X0009568Y0037227D02*
X0017000Y0037227D01*
X0018288Y0038826D02*
X0009568Y0038826D01*
X0009568Y0040424D02*
X0055731Y0040424D01*
X0055731Y0038826D02*
X0025312Y0038826D01*
X0026600Y0037227D02*
X0056272Y0037227D01*
X0056275Y0037220D02*
X0057594Y0035900D01*
X0056275Y0037220D02*
X0055731Y0038531D01*
X0055731Y0075010D01*
X0056275Y0076321D01*
X0056598Y0076644D01*
X0053231Y0080011D01*
X0053231Y0084789D01*
X0055431Y0086989D01*
X0055431Y0089682D01*
X0054604Y0088854D01*
X0052785Y0088100D01*
X0050815Y0088100D01*
X0048996Y0088854D01*
X0047604Y0090246D01*
X0046850Y0092065D01*
X0046850Y0094035D01*
X0047604Y0095854D01*
X0048231Y0096481D01*
X0048231Y0111260D01*
X0048775Y0112571D01*
X0050025Y0113821D01*
X0050094Y0113891D01*
X0050094Y0114122D01*
X0050516Y0115140D01*
X0051295Y0115919D01*
X0052312Y0116340D01*
X0056170Y0116340D01*
X0056275Y0116297D01*
X0056334Y0116439D01*
X0057594Y0117700D01*
X0057594Y0119122D01*
X0058016Y0120140D01*
X0058172Y0120296D01*
X0058172Y0120804D01*
X0057681Y0121295D01*
X0057260Y0122312D01*
X0057260Y0126170D01*
X0057681Y0127187D01*
X0058230Y0127736D01*
X0058228Y0127744D01*
X0058228Y0129359D01*
X0061800Y0129359D01*
X0061800Y0129359D01*
X0066800Y0129359D01*
X0066800Y0129359D01*
X0070372Y0129359D01*
X0070372Y0127744D01*
X0070370Y0127736D01*
X0070919Y0127187D01*
X0071340Y0126170D01*
X0071340Y0122312D01*
X0070919Y0121295D01*
X0070428Y0120804D01*
X0070428Y0120368D01*
X0072510Y0120368D01*
X0073821Y0119825D01*
X0076321Y0117325D01*
X0076800Y0116847D01*
X0078775Y0118821D01*
X0079779Y0119825D01*
X0081090Y0120368D01*
X0083172Y0120368D01*
X0083172Y0120804D01*
X0082681Y0121295D01*
X0082260Y0122312D01*
X0082260Y0126170D01*
X0082681Y0127187D01*
X0083230Y0127736D01*
X0083228Y0127744D01*
X0083228Y0129359D01*
X0086800Y0129359D01*
X0086800Y0129359D01*
X0091800Y0129359D01*
X0091800Y0129359D01*
X0095372Y0129359D01*
X0095372Y0127744D01*
X0095370Y0127736D01*
X0095919Y0127187D01*
X0096340Y0126170D01*
X0096340Y0122312D01*
X0095919Y0121295D01*
X0095428Y0120804D01*
X0095428Y0120296D01*
X0095584Y0120140D01*
X0096005Y0119122D01*
X0096005Y0117700D01*
X0096258Y0117448D01*
X0096334Y0117630D01*
X0097525Y0118821D01*
X0098529Y0119825D01*
X0099840Y0120368D01*
X0103172Y0120368D01*
X0103172Y0120804D01*
X0102681Y0121295D01*
X0102260Y0122312D01*
X0102260Y0126170D01*
X0102681Y0127187D01*
X0103230Y0127736D01*
X0103228Y0127744D01*
X0103228Y0129359D01*
X0106800Y0129359D01*
X0106800Y0129359D01*
X0111800Y0129359D01*
X0111800Y0129359D01*
X0115372Y0129359D01*
X0115372Y0127744D01*
X0115370Y0127736D01*
X0115919Y0127187D01*
X0116340Y0126170D01*
X0116340Y0122312D01*
X0115919Y0121295D01*
X0115428Y0120804D01*
X0115428Y0120296D01*
X0115584Y0120140D01*
X0115589Y0120129D01*
X0116321Y0119825D01*
X0118821Y0117325D01*
X0119300Y0116847D01*
X0121275Y0118821D01*
X0122279Y0119825D01*
X0123590Y0120368D01*
X0125731Y0120368D01*
X0125731Y0120745D01*
X0125181Y0121295D01*
X0124760Y0122312D01*
X0124760Y0126170D01*
X0125181Y0127187D01*
X0125730Y0127736D01*
X0125728Y0127744D01*
X0125728Y0129359D01*
X0129300Y0129359D01*
X0129300Y0129359D01*
X0134300Y0129359D01*
X0134300Y0129359D01*
X0137872Y0129359D01*
X0137872Y0127744D01*
X0137870Y0127736D01*
X0138419Y0127187D01*
X0138840Y0126170D01*
X0138840Y0122312D01*
X0138419Y0121295D01*
X0137868Y0120745D01*
X0137868Y0120355D01*
X0138084Y0120140D01*
X0138089Y0120129D01*
X0138821Y0119825D01*
X0141241Y0117406D01*
X0141334Y0117630D01*
X0142525Y0118821D01*
X0143529Y0119825D01*
X0144840Y0120368D01*
X0145731Y0120368D01*
X0145731Y0120745D01*
X0145181Y0121295D01*
X0144760Y0122312D01*
X0144760Y0126170D01*
X0145181Y0127187D01*
X0145730Y0127736D01*
X0145728Y0127744D01*
X0145728Y0129359D01*
X0149300Y0129359D01*
X0149300Y0129359D01*
X0154300Y0129359D01*
X0154300Y0129359D01*
X0157872Y0129359D01*
X0157872Y0127744D01*
X0157870Y0127736D01*
X0158419Y0127187D01*
X0158840Y0126170D01*
X0158840Y0122312D01*
X0158419Y0121295D01*
X0157868Y0120745D01*
X0157868Y0120355D01*
X0158084Y0120140D01*
X0158089Y0120129D01*
X0158821Y0119825D01*
X0159825Y0118821D01*
X0161770Y0116876D01*
X0162594Y0117700D01*
X0162594Y0119122D01*
X0163016Y0120140D01*
X0163231Y0120355D01*
X0163231Y0120745D01*
X0162681Y0121295D01*
X0162260Y0122312D01*
X0162260Y0126170D01*
X0162681Y0127187D01*
X0163230Y0127736D01*
X0163228Y0127744D01*
X0163228Y0129359D01*
X0166800Y0129359D01*
X0166800Y0129359D01*
X0171800Y0129359D01*
X0171800Y0129359D01*
X0175372Y0129359D01*
X0175372Y0127744D01*
X0175370Y0127736D01*
X0175919Y0127187D01*
X0176340Y0126170D01*
X0176340Y0122312D01*
X0175919Y0121295D01*
X0175368Y0120745D01*
X0175368Y0120368D01*
X0178760Y0120368D01*
X0180071Y0119825D01*
X0181321Y0118575D01*
X0181800Y0118097D01*
X0182525Y0118821D01*
X0183529Y0119825D01*
X0184840Y0120368D01*
X0185672Y0120368D01*
X0185672Y0120804D01*
X0185181Y0121295D01*
X0184760Y0122312D01*
X0184760Y0126170D01*
X0185181Y0127187D01*
X0185730Y0127736D01*
X0185728Y0127744D01*
X0185728Y0129359D01*
X0189300Y0129359D01*
X0189300Y0129359D01*
X0194300Y0129359D01*
X0194300Y0129359D01*
X0197872Y0129359D01*
X0197872Y0127744D01*
X0197870Y0127736D01*
X0198419Y0127187D01*
X0198840Y0126170D01*
X0198840Y0122312D01*
X0198419Y0121295D01*
X0197928Y0120804D01*
X0197928Y0120368D01*
X0202510Y0120368D01*
X0203821Y0119825D01*
X0205071Y0118575D01*
X0206075Y0117571D01*
X0206134Y0117430D01*
X0207525Y0118821D01*
X0207525Y0118821D01*
X0208529Y0119825D01*
X0209840Y0120368D01*
X0210672Y0120368D01*
X0210672Y0120804D01*
X0210181Y0121295D01*
X0209760Y0122312D01*
X0209760Y0126170D01*
X0210181Y0127187D01*
X0210730Y0127736D01*
X0210728Y0127744D01*
X0210728Y0129359D01*
X0214300Y0129359D01*
X0214300Y0129359D01*
X0219300Y0129359D01*
X0219300Y0129359D01*
X0222872Y0129359D01*
X0222872Y0127744D01*
X0222870Y0127736D01*
X0223419Y0127187D01*
X0223840Y0126170D01*
X0223840Y0122312D01*
X0223419Y0121295D01*
X0222928Y0120804D01*
X0222928Y0120296D01*
X0223084Y0120140D01*
X0223089Y0120129D01*
X0223821Y0119825D01*
X0224825Y0118821D01*
X0226800Y0116847D01*
X0228775Y0118821D01*
X0229779Y0119825D01*
X0230511Y0120129D01*
X0230516Y0120140D01*
X0230672Y0120296D01*
X0230672Y0120804D01*
X0230181Y0121295D01*
X0229760Y0122312D01*
X0229760Y0126170D01*
X0230181Y0127187D01*
X0230730Y0127736D01*
X0230728Y0127744D01*
X0230728Y0129359D01*
X0234300Y0129359D01*
X0234300Y0129359D01*
X0239300Y0129359D01*
X0239300Y0129359D01*
X0242872Y0129359D01*
X0242872Y0127744D01*
X0242870Y0127736D01*
X0243419Y0127187D01*
X0243840Y0126170D01*
X0243840Y0122312D01*
X0243419Y0121295D01*
X0242928Y0120804D01*
X0242928Y0120368D01*
X0245010Y0120368D01*
X0246321Y0119825D01*
X0247260Y0118887D01*
X0247260Y0121170D01*
X0247681Y0122187D01*
X0248230Y0122736D01*
X0248228Y0122744D01*
X0248228Y0124359D01*
X0251800Y0124359D01*
X0251800Y0124359D01*
X0251800Y0124359D01*
X0248228Y0124359D01*
X0248228Y0125974D01*
X0248351Y0126432D01*
X0248588Y0126842D01*
X0248923Y0127177D01*
X0249334Y0127414D01*
X0249791Y0127537D01*
X0251800Y0127537D01*
X0251800Y0124359D01*
X0251800Y0124359D01*
X0251800Y0127537D01*
X0253809Y0127537D01*
X0254266Y0127414D01*
X0254677Y0127177D01*
X0255012Y0126842D01*
X0255249Y0126432D01*
X0255372Y0125974D01*
X0255372Y0124359D01*
X0255372Y0125145D02*
X0303953Y0125145D01*
X0303953Y0123547D02*
X0255372Y0123547D01*
X0256018Y0121948D02*
X0303953Y0121948D01*
X0303953Y0120350D02*
X0256340Y0120350D01*
X0256340Y0118751D02*
X0303953Y0118751D01*
X0303953Y0117153D02*
X0256274Y0117153D01*
X0255368Y0115554D02*
X0303953Y0115554D01*
X0303953Y0113956D02*
X0257819Y0113956D01*
X0260039Y0112357D02*
X0303953Y0112357D01*
X0303953Y0110759D02*
X0261638Y0110759D01*
X0263236Y0109160D02*
X0303953Y0109160D01*
X0303953Y0107562D02*
X0264097Y0107562D01*
X0264118Y0105963D02*
X0303953Y0105963D01*
X0303953Y0104365D02*
X0264118Y0104365D01*
X0264118Y0102766D02*
X0303953Y0102766D01*
X0303953Y0101168D02*
X0264118Y0101168D01*
X0264118Y0099569D02*
X0303953Y0099569D01*
X0303953Y0097971D02*
X0264118Y0097971D01*
X0264118Y0096372D02*
X0303953Y0096372D01*
X0303953Y0094774D02*
X0264118Y0094774D01*
X0264118Y0093175D02*
X0303953Y0093175D01*
X0303953Y0091577D02*
X0264118Y0091577D01*
X0264118Y0086781D02*
X0275506Y0086781D01*
X0273495Y0085183D02*
X0264118Y0085183D01*
X0264118Y0083584D02*
X0272127Y0083584D01*
X0271200Y0081986D02*
X0264118Y0081986D01*
X0264118Y0080387D02*
X0270554Y0080387D01*
X0270150Y0078789D02*
X0263683Y0078789D01*
X0263575Y0078529D02*
X0259825Y0074779D01*
X0258821Y0073775D01*
X0257510Y0073231D01*
X0254968Y0073231D01*
X0254968Y0068811D01*
X0252768Y0066611D01*
X0252768Y0057955D01*
X0253419Y0057305D01*
X0253840Y0056288D01*
X0253840Y0052430D01*
X0253579Y0051800D01*
X0253840Y0051170D01*
X0253840Y0047312D01*
X0253419Y0046295D01*
X0252640Y0045516D01*
X0252629Y0045511D01*
X0252325Y0044779D01*
X0251321Y0043775D01*
X0251005Y0043459D01*
X0251005Y0042700D01*
X0251750Y0041956D01*
X0252242Y0041475D01*
X0252251Y0041455D01*
X0252266Y0041439D01*
X0252530Y0040803D01*
X0252801Y0040170D01*
X0252801Y0040148D01*
X0252809Y0040128D01*
X0252809Y0039439D01*
X0252827Y0037896D01*
X0253419Y0037305D01*
X0253840Y0036288D01*
X0253840Y0032430D01*
X0253419Y0031413D01*
X0252870Y0030864D01*
X0252872Y0030856D01*
X0252872Y0029241D01*
X0249300Y0029241D01*
X0249300Y0026800D01*
X0246741Y0024241D01*
X0234300Y0024241D01*
X0229300Y0024241D01*
X0214300Y0024241D01*
X0209300Y0024241D01*
X0191800Y0024241D01*
X0186800Y0024241D01*
X0169300Y0024241D01*
X0164300Y0024241D01*
X0144300Y0024241D01*
X0139300Y0024241D01*
X0124300Y0024241D01*
X0119300Y0024241D01*
X0104300Y0024241D01*
X0099300Y0024241D01*
X0084300Y0024241D01*
X0079300Y0024241D01*
X0066800Y0024241D01*
X0070372Y0024241D01*
X0070372Y0025856D01*
X0070370Y0025864D01*
X0070919Y0026413D01*
X0071340Y0027430D01*
X0071340Y0031288D01*
X0070919Y0032305D01*
X0070368Y0032855D01*
X0070368Y0033245D01*
X0070584Y0033460D01*
X0071005Y0034478D01*
X0071005Y0035048D01*
X0071275Y0034779D01*
X0072279Y0033775D01*
X0073590Y0033231D01*
X0075731Y0033231D01*
X0075731Y0032855D01*
X0075181Y0032305D01*
X0074760Y0031288D01*
X0074760Y0027430D01*
X0075181Y0026413D01*
X0075730Y0025864D01*
X0075728Y0025856D01*
X0075728Y0024241D01*
X0079300Y0024241D01*
X0082872Y0024241D01*
X0084300Y0024241D01*
X0087872Y0024241D01*
X0087872Y0025856D01*
X0087870Y0025864D01*
X0088419Y0026413D01*
X0088840Y0027430D01*
X0088840Y0031288D01*
X0088419Y0032305D01*
X0087868Y0032855D01*
X0087868Y0033245D01*
X0088084Y0033460D01*
X0088089Y0033471D01*
X0088821Y0033775D01*
X0091800Y0036753D01*
X0093775Y0034779D01*
X0094779Y0033775D01*
X0095511Y0033471D01*
X0095516Y0033460D01*
X0095731Y0033245D01*
X0095731Y0032855D01*
X0095181Y0032305D01*
X0094760Y0031288D01*
X0094760Y0027430D01*
X0095181Y0026413D01*
X0095730Y0025864D01*
X0095728Y0025856D01*
X0095728Y0024241D01*
X0099300Y0024241D01*
X0102872Y0024241D01*
X0104300Y0024241D01*
X0107872Y0024241D01*
X0107872Y0025856D01*
X0107870Y0025864D01*
X0108419Y0026413D01*
X0108840Y0027430D01*
X0108840Y0031288D01*
X0108419Y0032305D01*
X0107868Y0032855D01*
X0107868Y0033245D01*
X0108084Y0033460D01*
X0108089Y0033471D01*
X0108821Y0033775D01*
X0109825Y0034779D01*
X0111241Y0036194D01*
X0111334Y0035970D01*
X0112525Y0034779D01*
X0113529Y0033775D01*
X0114840Y0033231D01*
X0115731Y0033231D01*
X0115731Y0032855D01*
X0115181Y0032305D01*
X0114760Y0031288D01*
X0114760Y0027430D01*
X0115181Y0026413D01*
X0115730Y0025864D01*
X0115728Y0025856D01*
X0115728Y0024241D01*
X0119300Y0024241D01*
X0122872Y0024241D01*
X0124300Y0024241D01*
X0127872Y0024241D01*
X0127872Y0025856D01*
X0127870Y0025864D01*
X0128419Y0026413D01*
X0128840Y0027430D01*
X0128840Y0031288D01*
X0128419Y0032305D01*
X0127868Y0032855D01*
X0127868Y0033245D01*
X0128084Y0033460D01*
X0128089Y0033471D01*
X0128821Y0033775D01*
X0129825Y0034779D01*
X0131800Y0036753D01*
X0132279Y0036275D01*
X0134779Y0033775D01*
X0135511Y0033471D01*
X0135516Y0033460D01*
X0135672Y0033304D01*
X0135672Y0032796D01*
X0135181Y0032305D01*
X0134760Y0031288D01*
X0134760Y0027430D01*
X0135181Y0026413D01*
X0135730Y0025864D01*
X0135728Y0025856D01*
X0135728Y0024241D01*
X0139300Y0024241D01*
X0142872Y0024241D01*
X0144300Y0024241D01*
X0147872Y0024241D01*
X0147872Y0025856D01*
X0147870Y0025864D01*
X0148419Y0026413D01*
X0148840Y0027430D01*
X0148840Y0031288D01*
X0148419Y0032305D01*
X0147928Y0032796D01*
X0147928Y0033231D01*
X0151260Y0033231D01*
X0152571Y0033775D01*
X0153821Y0035025D01*
X0154825Y0036029D01*
X0154884Y0036170D01*
X0156275Y0034779D01*
X0157279Y0033775D01*
X0158590Y0033231D01*
X0160672Y0033231D01*
X0160672Y0032796D01*
X0160181Y0032305D01*
X0159760Y0031288D01*
X0159760Y0027430D01*
X0160181Y0026413D01*
X0160730Y0025864D01*
X0160728Y0025856D01*
X0160728Y0024241D01*
X0164300Y0024241D01*
X0167872Y0024241D01*
X0169300Y0024241D01*
X0172872Y0024241D01*
X0172872Y0025856D01*
X0172870Y0025864D01*
X0173419Y0026413D01*
X0173840Y0027430D01*
X0173840Y0031288D01*
X0173419Y0032305D01*
X0172928Y0032796D01*
X0172928Y0033304D01*
X0173084Y0033460D01*
X0173089Y0033471D01*
X0173821Y0033775D01*
X0174825Y0034779D01*
X0176216Y0036170D01*
X0176275Y0036029D01*
X0177279Y0035025D01*
X0178529Y0033775D01*
X0179840Y0033231D01*
X0183172Y0033231D01*
X0183172Y0032796D01*
X0182681Y0032305D01*
X0182260Y0031288D01*
X0182260Y0027430D01*
X0182681Y0026413D01*
X0183230Y0025864D01*
X0183228Y0025856D01*
X0183228Y0024241D01*
X0186800Y0024241D01*
X0190372Y0024241D01*
X0191800Y0024241D01*
X0195372Y0024241D01*
X0195372Y0025856D01*
X0195370Y0025864D01*
X0195919Y0026413D01*
X0196340Y0027430D01*
X0196340Y0031288D01*
X0195919Y0032305D01*
X0195428Y0032796D01*
X0195428Y0033231D01*
X0197510Y0033231D01*
X0198821Y0033775D01*
X0200071Y0035025D01*
X0201321Y0036275D01*
X0202325Y0037279D01*
X0202334Y0037300D01*
X0202430Y0037260D01*
X0203734Y0037260D01*
X0205094Y0035900D01*
X0205094Y0034478D01*
X0205516Y0033460D01*
X0205731Y0033245D01*
X0205731Y0032855D01*
X0205181Y0032305D01*
X0204760Y0031288D01*
X0204760Y0027430D01*
X0205181Y0026413D01*
X0205730Y0025864D01*
X0205728Y0025856D01*
X0205728Y0024241D01*
X0209300Y0024241D01*
X0212872Y0024241D01*
X0214300Y0024241D01*
X0217872Y0024241D01*
X0217872Y0025856D01*
X0217870Y0025864D01*
X0218419Y0026413D01*
X0218840Y0027430D01*
X0218840Y0031288D01*
X0218419Y0032305D01*
X0217868Y0032855D01*
X0217868Y0033231D01*
X0218760Y0033231D01*
X0220071Y0033775D01*
X0221321Y0035025D01*
X0222325Y0036029D01*
X0222384Y0036170D01*
X0223775Y0034779D01*
X0224779Y0033775D01*
X0225511Y0033471D01*
X0225516Y0033460D01*
X0225731Y0033245D01*
X0225731Y0032855D01*
X0225181Y0032305D01*
X0224760Y0031288D01*
X0224760Y0027430D01*
X0225181Y0026413D01*
X0225730Y0025864D01*
X0225728Y0025856D01*
X0225728Y0024241D01*
X0229300Y0024241D01*
X0232872Y0024241D01*
X0234300Y0024241D01*
X0237872Y0024241D01*
X0237872Y0025856D01*
X0237870Y0025864D01*
X0238419Y0026413D01*
X0238840Y0027430D01*
X0238840Y0031288D01*
X0238419Y0032305D01*
X0237868Y0032855D01*
X0237868Y0033231D01*
X0240010Y0033231D01*
X0241321Y0033775D01*
X0243821Y0036275D01*
X0244825Y0037279D01*
X0244834Y0037300D01*
X0244930Y0037260D01*
X0245163Y0037260D01*
X0244760Y0036288D01*
X0244760Y0032430D01*
X0245181Y0031413D01*
X0245730Y0030864D01*
X0245728Y0030856D01*
X0245728Y0029241D01*
X0249300Y0029241D01*
X0249359Y0029300D01*
X0253050Y0029300D01*
X0260550Y0036800D01*
X0264300Y0040550D01*
X0264300Y0118050D01*
X0259300Y0123050D01*
X0258050Y0124300D01*
X0259300Y0123050D01*
X0260550Y0121800D01*
X0251800Y0119241D02*
X0251800Y0111859D01*
X0251859Y0111800D01*
X0251859Y0110491D01*
X0256859Y0110491D01*
X0260550Y0106800D01*
X0260550Y0080550D01*
X0256800Y0076800D01*
X0061800Y0076800D01*
X0059300Y0074300D01*
X0059300Y0039241D01*
X0061741Y0036800D01*
X0066741Y0036918D02*
X0066859Y0036800D01*
X0066800Y0036741D01*
X0066800Y0029359D01*
X0062260Y0029235D02*
X0009568Y0029235D01*
X0009568Y0030833D02*
X0019729Y0030833D01*
X0018130Y0032432D02*
X0009568Y0032432D01*
X0009568Y0034030D02*
X0017000Y0034030D01*
X0021600Y0037227D02*
X0022000Y0037227D01*
X0022000Y0038826D02*
X0021600Y0038826D01*
X0009568Y0042023D02*
X0055731Y0042023D01*
X0055731Y0043621D02*
X0009568Y0043621D01*
X0009568Y0045220D02*
X0055731Y0045220D01*
X0055731Y0046818D02*
X0009568Y0046818D01*
X0009568Y0048417D02*
X0055731Y0048417D01*
X0055731Y0050015D02*
X0009568Y0050015D01*
X0009568Y0051614D02*
X0055731Y0051614D01*
X0055731Y0053212D02*
X0009568Y0053212D01*
X0009568Y0054811D02*
X0055731Y0054811D01*
X0055731Y0056409D02*
X0009568Y0056409D01*
X0009568Y0058008D02*
X0055731Y0058008D01*
X0055731Y0059606D02*
X0009568Y0059606D01*
X0009568Y0061205D02*
X0055731Y0061205D01*
X0055731Y0062803D02*
X0009568Y0062803D01*
X0009568Y0064402D02*
X0055731Y0064402D01*
X0055731Y0066001D02*
X0036571Y0066001D01*
X0036323Y0065881D02*
X0037517Y0066456D01*
X0038639Y0067161D01*
X0039675Y0067988D01*
X0040612Y0068925D01*
X0041439Y0069961D01*
X0042144Y0071083D01*
X0042719Y0072277D01*
X0043157Y0073528D01*
X0043452Y0074820D01*
X0043585Y0076000D01*
X0032600Y0076000D01*
X0032600Y0077600D01*
X0043585Y0077600D01*
X0043452Y0078780D01*
X0043157Y0080072D01*
X0042719Y0081323D01*
X0042144Y0082517D01*
X0041439Y0083639D01*
X0040612Y0084675D01*
X0039675Y0085612D01*
X0038639Y0086439D01*
X0037517Y0087144D01*
X0036323Y0087719D01*
X0035072Y0088157D01*
X0033780Y0088452D01*
X0032600Y0088585D01*
X0032600Y0077600D01*
X0031000Y0077600D01*
X0031000Y0088585D01*
X0029820Y0088452D01*
X0028528Y0088157D01*
X0027277Y0087719D01*
X0026083Y0087144D01*
X0024961Y0086439D01*
X0023925Y0085612D01*
X0022988Y0084675D01*
X0022161Y0083639D01*
X0021456Y0082517D01*
X0020881Y0081323D01*
X0020443Y0080072D01*
X0020148Y0078780D01*
X0020015Y0077600D01*
X0031000Y0077600D01*
X0031000Y0076000D01*
X0032600Y0076000D01*
X0032600Y0065015D01*
X0033780Y0065148D01*
X0035072Y0065443D01*
X0036323Y0065881D01*
X0039188Y0067599D02*
X0055731Y0067599D01*
X0055731Y0069198D02*
X0040830Y0069198D01*
X0041964Y0070796D02*
X0055731Y0070796D01*
X0055731Y0072395D02*
X0042760Y0072395D01*
X0043263Y0073993D02*
X0055731Y0073993D01*
X0055972Y0075592D02*
X0043538Y0075592D01*
X0043450Y0078789D02*
X0054453Y0078789D01*
X0053231Y0080387D02*
X0043046Y0080387D01*
X0042400Y0081986D02*
X0053231Y0081986D01*
X0053231Y0083584D02*
X0041473Y0083584D01*
X0040105Y0085183D02*
X0053625Y0085183D01*
X0055223Y0086781D02*
X0038094Y0086781D01*
X0034095Y0088380D02*
X0050141Y0088380D01*
X0047872Y0089978D02*
X0009568Y0089978D01*
X0009568Y0088380D02*
X0029505Y0088380D01*
X0031000Y0088380D02*
X0032600Y0088380D01*
X0032600Y0086781D02*
X0031000Y0086781D01*
X0031000Y0085183D02*
X0032600Y0085183D01*
X0032600Y0083584D02*
X0031000Y0083584D01*
X0031000Y0081986D02*
X0032600Y0081986D01*
X0032600Y0080387D02*
X0031000Y0080387D01*
X0031000Y0078789D02*
X0032600Y0078789D01*
X0032600Y0077190D02*
X0056052Y0077190D01*
X0059000Y0082400D02*
X0059000Y0098941D01*
X0059300Y0099241D01*
X0059300Y0104359D02*
X0059300Y0111741D01*
X0059359Y0111800D01*
X0059359Y0114418D01*
X0061741Y0116800D01*
X0061741Y0124241D01*
X0061800Y0124241D01*
X0057411Y0121948D02*
X0009568Y0121948D01*
X0009568Y0120350D02*
X0058172Y0120350D01*
X0057594Y0118751D02*
X0009568Y0118751D01*
X0009568Y0117153D02*
X0057047Y0117153D01*
X0050930Y0115554D02*
X0009568Y0115554D01*
X0009568Y0113956D02*
X0050094Y0113956D01*
X0048686Y0112357D02*
X0009568Y0112357D01*
X0009568Y0110759D02*
X0048231Y0110759D01*
X0048231Y0109160D02*
X0009568Y0109160D01*
X0009568Y0107562D02*
X0048231Y0107562D01*
X0048231Y0105963D02*
X0009568Y0105963D01*
X0009568Y0104365D02*
X0048231Y0104365D01*
X0048231Y0102766D02*
X0009568Y0102766D01*
X0009568Y0101168D02*
X0048231Y0101168D01*
X0048231Y0099569D02*
X0009568Y0099569D01*
X0009568Y0097971D02*
X0048231Y0097971D01*
X0048122Y0096372D02*
X0009568Y0096372D01*
X0009568Y0094774D02*
X0047157Y0094774D01*
X0046850Y0093175D02*
X0009568Y0093175D01*
X0009568Y0091577D02*
X0047053Y0091577D01*
X0051800Y0093050D02*
X0051800Y0110550D01*
X0053050Y0111800D01*
X0054241Y0111800D01*
X0066859Y0116800D02*
X0071800Y0116800D01*
X0074300Y0114300D01*
X0074300Y0111859D01*
X0074241Y0111800D01*
X0071800Y0111800D01*
X0069300Y0109300D01*
X0069300Y0104359D01*
X0069300Y0099241D02*
X0069800Y0098741D01*
X0069800Y0082400D01*
X0080700Y0082400D02*
X0080700Y0098141D01*
X0081800Y0099241D01*
X0081800Y0104359D02*
X0081800Y0109359D01*
X0079359Y0111800D01*
X0079359Y0114359D01*
X0081800Y0116800D01*
X0086741Y0116800D01*
X0086741Y0124241D01*
X0086800Y0124241D01*
X0091800Y0124241D02*
X0091859Y0124241D01*
X0091859Y0116800D01*
X0094241Y0114418D01*
X0094241Y0111800D01*
X0091800Y0109359D01*
X0091800Y0104359D01*
X0091800Y0099241D02*
X0091800Y0082600D01*
X0091600Y0082400D01*
X0102400Y0082400D02*
X0102400Y0098641D01*
X0101800Y0099241D01*
X0101800Y0104359D02*
X0101800Y0105550D01*
X0099300Y0108050D01*
X0099300Y0111741D01*
X0099359Y0111800D01*
X0099359Y0115609D01*
X0100550Y0116800D01*
X0106741Y0116800D01*
X0106741Y0124241D01*
X0106800Y0124241D01*
X0102260Y0123547D02*
X0096340Y0123547D01*
X0096340Y0125145D02*
X0102260Y0125145D01*
X0102498Y0126744D02*
X0096102Y0126744D01*
X0095372Y0128342D02*
X0103228Y0128342D01*
X0103228Y0129359D02*
X0106800Y0129359D01*
X0106800Y0129359D01*
X0110372Y0129359D01*
X0111800Y0129359D01*
X0111800Y0129359D01*
X0115372Y0129359D01*
X0115372Y0130974D01*
X0115249Y0131432D01*
X0115012Y0131842D01*
X0114677Y0132177D01*
X0114266Y0132414D01*
X0113809Y0132537D01*
X0111800Y0132537D01*
X0111800Y0129359D01*
X0111800Y0129359D01*
X0111800Y0132537D01*
X0109791Y0132537D01*
X0109334Y0132414D01*
X0109300Y0132395D01*
X0109266Y0132414D01*
X0108809Y0132537D01*
X0106800Y0132537D01*
X0106800Y0129359D01*
X0106800Y0129359D01*
X0106800Y0132537D01*
X0104791Y0132537D01*
X0104334Y0132414D01*
X0103923Y0132177D01*
X0103588Y0131842D01*
X0103351Y0131432D01*
X0103228Y0130974D01*
X0103228Y0129359D01*
X0103228Y0129941D02*
X0095372Y0129941D01*
X0095372Y0129359D02*
X0095372Y0130974D01*
X0095249Y0131432D01*
X0095012Y0131842D01*
X0094677Y0132177D01*
X0094266Y0132414D01*
X0093809Y0132537D01*
X0091800Y0132537D01*
X0091800Y0129359D01*
X0091800Y0129359D01*
X0095372Y0129359D01*
X0095187Y0131539D02*
X0103413Y0131539D01*
X0106800Y0131539D02*
X0106800Y0131539D01*
X0106800Y0129941D02*
X0106800Y0129941D01*
X0111800Y0129941D02*
X0111800Y0129941D01*
X0111800Y0131539D02*
X0111800Y0131539D01*
X0115187Y0131539D02*
X0125913Y0131539D01*
X0125851Y0131432D02*
X0125728Y0130974D01*
X0125728Y0129359D01*
X0129300Y0129359D01*
X0129300Y0129359D01*
X0132872Y0129359D01*
X0134300Y0129359D01*
X0134300Y0129359D01*
X0137872Y0129359D01*
X0137872Y0130974D01*
X0137749Y0131432D01*
X0137512Y0131842D01*
X0137177Y0132177D01*
X0136766Y0132414D01*
X0136309Y0132537D01*
X0134300Y0132537D01*
X0134300Y0129359D01*
X0134300Y0129359D01*
X0134300Y0132537D01*
X0132291Y0132537D01*
X0131834Y0132414D01*
X0131800Y0132395D01*
X0131766Y0132414D01*
X0131309Y0132537D01*
X0129300Y0132537D01*
X0129300Y0129359D01*
X0129300Y0129359D01*
X0129300Y0132537D01*
X0127291Y0132537D01*
X0126834Y0132414D01*
X0126423Y0132177D01*
X0126088Y0131842D01*
X0125851Y0131432D01*
X0125728Y0129941D02*
X0115372Y0129941D01*
X0115372Y0128342D02*
X0125728Y0128342D01*
X0124998Y0126744D02*
X0116102Y0126744D01*
X0116340Y0125145D02*
X0124760Y0125145D01*
X0124760Y0123547D02*
X0116340Y0123547D01*
X0116189Y0121948D02*
X0124911Y0121948D01*
X0123545Y0120350D02*
X0115428Y0120350D01*
X0117395Y0118751D02*
X0121205Y0118751D01*
X0119606Y0117153D02*
X0118994Y0117153D01*
X0116800Y0114300D02*
X0116800Y0111859D01*
X0116741Y0111800D01*
X0116741Y0106800D01*
X0114300Y0104359D01*
X0114300Y0099241D02*
X0113300Y0098241D01*
X0113300Y0082400D01*
X0124200Y0082400D02*
X0124200Y0099141D01*
X0124300Y0099241D01*
X0124300Y0104359D02*
X0121859Y0106800D01*
X0121859Y0111800D01*
X0121859Y0114359D01*
X0124300Y0116800D01*
X0129241Y0116800D01*
X0129300Y0116859D01*
X0129300Y0124241D01*
X0134300Y0124241D02*
X0134300Y0116859D01*
X0134359Y0116800D01*
X0136800Y0116800D01*
X0139300Y0114300D01*
X0139300Y0111859D01*
X0139241Y0111800D01*
X0139241Y0108050D01*
X0135550Y0104359D01*
X0135550Y0099241D02*
X0135100Y0098791D01*
X0135100Y0082400D01*
X0145900Y0082400D02*
X0145900Y0098891D01*
X0145550Y0099241D01*
X0145550Y0104359D02*
X0144359Y0105550D01*
X0144359Y0111800D01*
X0144359Y0115609D01*
X0145550Y0116800D01*
X0149241Y0116800D01*
X0149300Y0116859D01*
X0149300Y0124241D01*
X0144760Y0123547D02*
X0138840Y0123547D01*
X0138840Y0125145D02*
X0144760Y0125145D01*
X0144998Y0126744D02*
X0138602Y0126744D01*
X0137872Y0128342D02*
X0145728Y0128342D01*
X0145728Y0129359D02*
X0149300Y0129359D01*
X0149300Y0129359D01*
X0152872Y0129359D01*
X0154300Y0129359D01*
X0154300Y0129359D01*
X0157872Y0129359D01*
X0157872Y0130974D01*
X0157749Y0131432D01*
X0157512Y0131842D01*
X0157177Y0132177D01*
X0156766Y0132414D01*
X0156309Y0132537D01*
X0154300Y0132537D01*
X0154300Y0129359D01*
X0154300Y0129359D01*
X0154300Y0132537D01*
X0152291Y0132537D01*
X0151834Y0132414D01*
X0151800Y0132395D01*
X0151766Y0132414D01*
X0151309Y0132537D01*
X0149300Y0132537D01*
X0149300Y0129359D01*
X0149300Y0129359D01*
X0149300Y0132537D01*
X0147291Y0132537D01*
X0146834Y0132414D01*
X0146423Y0132177D01*
X0146088Y0131842D01*
X0145851Y0131432D01*
X0145728Y0130974D01*
X0145728Y0129359D01*
X0145728Y0129941D02*
X0137872Y0129941D01*
X0137687Y0131539D02*
X0145913Y0131539D01*
X0149300Y0131539D02*
X0149300Y0131539D01*
X0149300Y0129941D02*
X0149300Y0129941D01*
X0154300Y0129941D02*
X0154300Y0129941D01*
X0154300Y0131539D02*
X0154300Y0131539D01*
X0157687Y0131539D02*
X0163413Y0131539D01*
X0163351Y0131432D02*
X0163228Y0130974D01*
X0163228Y0129359D01*
X0166800Y0129359D01*
X0166800Y0129359D01*
X0170372Y0129359D01*
X0171800Y0129359D01*
X0171800Y0129359D01*
X0175372Y0129359D01*
X0175372Y0130974D01*
X0175249Y0131432D01*
X0175012Y0131842D01*
X0174677Y0132177D01*
X0174266Y0132414D01*
X0173809Y0132537D01*
X0171800Y0132537D01*
X0171800Y0129359D01*
X0171800Y0129359D01*
X0171800Y0132537D01*
X0169791Y0132537D01*
X0169334Y0132414D01*
X0169300Y0132395D01*
X0169266Y0132414D01*
X0168809Y0132537D01*
X0166800Y0132537D01*
X0166800Y0129359D01*
X0166800Y0129359D01*
X0166800Y0132537D01*
X0164791Y0132537D01*
X0164334Y0132414D01*
X0163923Y0132177D01*
X0163588Y0131842D01*
X0163351Y0131432D01*
X0163228Y0129941D02*
X0157872Y0129941D01*
X0157872Y0128342D02*
X0163228Y0128342D01*
X0162498Y0126744D02*
X0158602Y0126744D01*
X0158840Y0125145D02*
X0162260Y0125145D01*
X0162260Y0123547D02*
X0158840Y0123547D01*
X0158689Y0121948D02*
X0162411Y0121948D01*
X0163226Y0120350D02*
X0157874Y0120350D01*
X0159895Y0118751D02*
X0162594Y0118751D01*
X0162047Y0117153D02*
X0161494Y0117153D01*
X0159241Y0114359D02*
X0156800Y0116800D01*
X0154359Y0116800D01*
X0154300Y0116859D01*
X0154300Y0124241D01*
X0144911Y0121948D02*
X0138689Y0121948D01*
X0137874Y0120350D02*
X0144795Y0120350D01*
X0142455Y0118751D02*
X0139895Y0118751D01*
X0159241Y0114359D02*
X0159241Y0111800D01*
X0159241Y0106800D01*
X0156800Y0104359D01*
X0156800Y0099241D02*
X0156800Y0082400D01*
X0167700Y0082400D02*
X0167700Y0098891D01*
X0168050Y0099241D01*
X0168050Y0104359D02*
X0164359Y0108050D01*
X0164359Y0111800D01*
X0164359Y0114418D01*
X0166741Y0116800D01*
X0166800Y0116859D01*
X0166800Y0124241D01*
X0171800Y0124241D02*
X0171800Y0116859D01*
X0171859Y0116800D01*
X0178050Y0116800D01*
X0179300Y0115550D01*
X0179300Y0111859D01*
X0179241Y0111800D01*
X0179241Y0105550D01*
X0178050Y0104359D01*
X0178050Y0099241D02*
X0178500Y0098791D01*
X0178500Y0082400D01*
X0189400Y0082400D02*
X0189400Y0099141D01*
X0189300Y0099241D01*
X0189300Y0104359D02*
X0184359Y0109300D01*
X0184359Y0111800D01*
X0184359Y0115609D01*
X0185550Y0116800D01*
X0189241Y0116800D01*
X0189241Y0124241D01*
X0189300Y0124241D01*
X0184911Y0121948D02*
X0176189Y0121948D01*
X0176340Y0123547D02*
X0184760Y0123547D01*
X0184760Y0125145D02*
X0176340Y0125145D01*
X0176102Y0126744D02*
X0184998Y0126744D01*
X0185728Y0128342D02*
X0175372Y0128342D01*
X0175372Y0129941D02*
X0185728Y0129941D01*
X0185728Y0129359D02*
X0189300Y0129359D01*
X0189300Y0129359D01*
X0192872Y0129359D01*
X0194300Y0129359D01*
X0194300Y0129359D01*
X0197872Y0129359D01*
X0197872Y0130974D01*
X0197749Y0131432D01*
X0197512Y0131842D01*
X0197177Y0132177D01*
X0196766Y0132414D01*
X0196309Y0132537D01*
X0194300Y0132537D01*
X0194300Y0129359D01*
X0194300Y0129359D01*
X0194300Y0132537D01*
X0192291Y0132537D01*
X0191834Y0132414D01*
X0191800Y0132395D01*
X0191766Y0132414D01*
X0191309Y0132537D01*
X0189300Y0132537D01*
X0189300Y0129359D01*
X0189300Y0129359D01*
X0189300Y0132537D01*
X0187291Y0132537D01*
X0186834Y0132414D01*
X0186423Y0132177D01*
X0186088Y0131842D01*
X0185851Y0131432D01*
X0185728Y0130974D01*
X0185728Y0129359D01*
X0185913Y0131539D02*
X0175187Y0131539D01*
X0171800Y0131539D02*
X0171800Y0131539D01*
X0171800Y0129941D02*
X0171800Y0129941D01*
X0166800Y0129941D02*
X0166800Y0129941D01*
X0166800Y0131539D02*
X0166800Y0131539D01*
X0178805Y0120350D02*
X0184795Y0120350D01*
X0182455Y0118751D02*
X0181145Y0118751D01*
X0194300Y0124241D02*
X0194359Y0124241D01*
X0194359Y0116800D01*
X0201800Y0116800D01*
X0203050Y0115550D01*
X0203050Y0111859D01*
X0202991Y0111800D01*
X0202991Y0106800D01*
X0200550Y0104359D01*
X0200550Y0099241D02*
X0200300Y0098991D01*
X0200300Y0082400D01*
X0211100Y0082400D02*
X0211100Y0098691D01*
X0210550Y0099241D01*
X0210550Y0104359D02*
X0208109Y0106800D01*
X0208109Y0111800D01*
X0208050Y0111859D01*
X0208050Y0114300D01*
X0210550Y0116800D01*
X0214241Y0116800D01*
X0214241Y0124241D01*
X0214300Y0124241D01*
X0219300Y0124241D02*
X0219359Y0124241D01*
X0219359Y0116800D01*
X0221800Y0116800D01*
X0224241Y0114359D01*
X0224241Y0111800D01*
X0224241Y0106800D01*
X0221800Y0104359D01*
X0221800Y0099241D02*
X0222000Y0099041D01*
X0222000Y0082400D01*
X0232900Y0082400D02*
X0232900Y0099091D01*
X0233050Y0099241D01*
X0233050Y0104359D02*
X0229359Y0108050D01*
X0229359Y0111800D01*
X0229359Y0114359D01*
X0231800Y0116800D01*
X0234241Y0116800D01*
X0234241Y0124241D01*
X0234300Y0124241D01*
X0229760Y0123547D02*
X0223840Y0123547D01*
X0223840Y0125145D02*
X0229760Y0125145D01*
X0229998Y0126744D02*
X0223602Y0126744D01*
X0222872Y0128342D02*
X0230728Y0128342D01*
X0230728Y0129359D02*
X0234300Y0129359D01*
X0234300Y0129359D01*
X0237872Y0129359D01*
X0239300Y0129359D01*
X0239300Y0129359D01*
X0242872Y0129359D01*
X0242872Y0130974D01*
X0242749Y0131432D01*
X0242512Y0131842D01*
X0242177Y0132177D01*
X0241766Y0132414D01*
X0241309Y0132537D01*
X0239300Y0132537D01*
X0239300Y0129359D01*
X0239300Y0129359D01*
X0239300Y0132537D01*
X0237291Y0132537D01*
X0236834Y0132414D01*
X0236800Y0132395D01*
X0236766Y0132414D01*
X0236309Y0132537D01*
X0234300Y0132537D01*
X0234300Y0129359D01*
X0234300Y0129359D01*
X0234300Y0132537D01*
X0232291Y0132537D01*
X0231834Y0132414D01*
X0231423Y0132177D01*
X0231088Y0131842D01*
X0230851Y0131432D01*
X0230728Y0130974D01*
X0230728Y0129359D01*
X0230728Y0129941D02*
X0222872Y0129941D01*
X0222872Y0129359D02*
X0222872Y0130974D01*
X0222749Y0131432D01*
X0222512Y0131842D01*
X0222177Y0132177D01*
X0221766Y0132414D01*
X0221309Y0132537D01*
X0219300Y0132537D01*
X0219300Y0129359D01*
X0219300Y0129359D01*
X0222872Y0129359D01*
X0222687Y0131539D02*
X0230913Y0131539D01*
X0234300Y0131539D02*
X0234300Y0131539D01*
X0234300Y0129941D02*
X0234300Y0129941D01*
X0239300Y0129941D02*
X0239300Y0129941D01*
X0239300Y0131539D02*
X0239300Y0131539D01*
X0242687Y0131539D02*
X0303953Y0131539D01*
X0303953Y0129941D02*
X0242872Y0129941D01*
X0242872Y0128342D02*
X0303953Y0128342D01*
X0303953Y0126744D02*
X0255069Y0126744D01*
X0251800Y0126744D02*
X0251800Y0126744D01*
X0251800Y0125145D02*
X0251800Y0125145D01*
X0248531Y0126744D02*
X0243602Y0126744D01*
X0243840Y0125145D02*
X0248228Y0125145D01*
X0248228Y0123547D02*
X0243840Y0123547D01*
X0243689Y0121948D02*
X0247582Y0121948D01*
X0247260Y0120350D02*
X0245055Y0120350D01*
X0244300Y0116800D02*
X0239359Y0116800D01*
X0239359Y0124241D01*
X0239300Y0124241D01*
X0230672Y0120350D02*
X0222928Y0120350D01*
X0223689Y0121948D02*
X0229911Y0121948D01*
X0228705Y0118751D02*
X0224895Y0118751D01*
X0226494Y0117153D02*
X0227106Y0117153D01*
X0244300Y0116800D02*
X0246800Y0114300D01*
X0246800Y0111859D01*
X0246741Y0111800D01*
X0246741Y0106800D01*
X0244300Y0104359D01*
X0244300Y0099241D02*
X0243700Y0098641D01*
X0243700Y0082400D01*
X0254600Y0082400D02*
X0254600Y0098941D01*
X0254300Y0099241D01*
X0254300Y0104359D02*
X0254300Y0108050D01*
X0251859Y0110491D01*
X0219300Y0129359D02*
X0219300Y0129359D01*
X0217872Y0129359D01*
X0214300Y0129359D01*
X0214300Y0129359D01*
X0210728Y0129359D01*
X0210728Y0130974D01*
X0210851Y0131432D01*
X0211088Y0131842D01*
X0211423Y0132177D01*
X0211834Y0132414D01*
X0212291Y0132537D01*
X0214300Y0132537D01*
X0214300Y0129359D01*
X0214300Y0129359D01*
X0214300Y0132537D01*
X0216309Y0132537D01*
X0216766Y0132414D01*
X0216800Y0132395D01*
X0216834Y0132414D01*
X0217291Y0132537D01*
X0219300Y0132537D01*
X0219300Y0129359D01*
X0219300Y0129941D02*
X0219300Y0129941D01*
X0219300Y0131539D02*
X0219300Y0131539D01*
X0214300Y0131539D02*
X0214300Y0131539D01*
X0214300Y0129941D02*
X0214300Y0129941D01*
X0210728Y0129941D02*
X0197872Y0129941D01*
X0197872Y0128342D02*
X0210728Y0128342D01*
X0209998Y0126744D02*
X0198602Y0126744D01*
X0198840Y0125145D02*
X0209760Y0125145D01*
X0209760Y0123547D02*
X0198840Y0123547D01*
X0198689Y0121948D02*
X0209911Y0121948D01*
X0209795Y0120350D02*
X0202555Y0120350D01*
X0204895Y0118751D02*
X0207455Y0118751D01*
X0194300Y0129941D02*
X0194300Y0129941D01*
X0194300Y0131539D02*
X0194300Y0131539D01*
X0189300Y0131539D02*
X0189300Y0131539D01*
X0189300Y0129941D02*
X0189300Y0129941D01*
X0197687Y0131539D02*
X0210913Y0131539D01*
X0134300Y0131539D02*
X0134300Y0131539D01*
X0134300Y0129941D02*
X0134300Y0129941D01*
X0129300Y0129941D02*
X0129300Y0129941D01*
X0129300Y0131539D02*
X0129300Y0131539D01*
X0111859Y0124241D02*
X0111859Y0116800D01*
X0114300Y0116800D01*
X0116800Y0114300D01*
X0102411Y0121948D02*
X0096189Y0121948D01*
X0095428Y0120350D02*
X0099795Y0120350D01*
X0097455Y0118751D02*
X0096005Y0118751D01*
X0082411Y0121948D02*
X0071189Y0121948D01*
X0071340Y0123547D02*
X0082260Y0123547D01*
X0082260Y0125145D02*
X0071340Y0125145D01*
X0071102Y0126744D02*
X0082498Y0126744D01*
X0083228Y0128342D02*
X0070372Y0128342D01*
X0070372Y0129359D02*
X0070372Y0130974D01*
X0070249Y0131432D01*
X0070012Y0131842D01*
X0069677Y0132177D01*
X0069266Y0132414D01*
X0068809Y0132537D01*
X0066800Y0132537D01*
X0066800Y0129359D01*
X0066800Y0129359D01*
X0070372Y0129359D01*
X0070372Y0129941D02*
X0083228Y0129941D01*
X0083228Y0129359D02*
X0086800Y0129359D01*
X0086800Y0129359D01*
X0090372Y0129359D01*
X0091800Y0129359D01*
X0091800Y0129359D01*
X0091800Y0132537D01*
X0089791Y0132537D01*
X0089334Y0132414D01*
X0089300Y0132395D01*
X0089266Y0132414D01*
X0088809Y0132537D01*
X0086800Y0132537D01*
X0086800Y0129359D01*
X0086800Y0129359D01*
X0086800Y0132537D01*
X0084791Y0132537D01*
X0084334Y0132414D01*
X0083923Y0132177D01*
X0083588Y0131842D01*
X0083351Y0131432D01*
X0083228Y0130974D01*
X0083228Y0129359D01*
X0083413Y0131539D02*
X0070187Y0131539D01*
X0066800Y0131539D02*
X0066800Y0131539D01*
X0066800Y0132537D02*
X0066800Y0129359D01*
X0065372Y0129359D01*
X0061800Y0129359D01*
X0061800Y0129359D01*
X0058228Y0129359D01*
X0058228Y0130974D01*
X0058351Y0131432D01*
X0058588Y0131842D01*
X0058923Y0132177D01*
X0059334Y0132414D01*
X0059791Y0132537D01*
X0061800Y0132537D01*
X0061800Y0129359D01*
X0061800Y0129359D01*
X0061800Y0132537D01*
X0063809Y0132537D01*
X0064266Y0132414D01*
X0064300Y0132395D01*
X0064334Y0132414D01*
X0064791Y0132537D01*
X0066800Y0132537D01*
X0061800Y0131539D02*
X0061800Y0131539D01*
X0061800Y0129941D02*
X0061800Y0129941D01*
X0058228Y0129941D02*
X0009568Y0129941D01*
X0009568Y0131539D02*
X0058413Y0131539D01*
X0058228Y0128342D02*
X0009568Y0128342D01*
X0009568Y0126744D02*
X0057498Y0126744D01*
X0057260Y0125145D02*
X0009568Y0125145D01*
X0009568Y0123547D02*
X0057260Y0123547D01*
X0066800Y0124241D02*
X0066859Y0124241D01*
X0066859Y0116800D01*
X0072555Y0120350D02*
X0081045Y0120350D01*
X0078705Y0118751D02*
X0074895Y0118751D01*
X0076494Y0117153D02*
X0077106Y0117153D01*
X0066800Y0129359D02*
X0066800Y0129359D01*
X0066800Y0129941D02*
X0066800Y0129941D01*
X0086800Y0129941D02*
X0086800Y0129941D01*
X0086800Y0131539D02*
X0086800Y0131539D01*
X0091800Y0131539D02*
X0091800Y0131539D01*
X0091800Y0129941D02*
X0091800Y0129941D01*
X0111800Y0124241D02*
X0111859Y0124241D01*
X0055431Y0088380D02*
X0053459Y0088380D01*
X0031000Y0077190D02*
X0009568Y0077190D01*
X0009568Y0075592D02*
X0020061Y0075592D01*
X0020015Y0076000D02*
X0020148Y0074820D01*
X0020443Y0073528D01*
X0020881Y0072277D01*
X0021456Y0071083D01*
X0022161Y0069961D01*
X0022988Y0068925D01*
X0023925Y0067988D01*
X0024961Y0067161D01*
X0026083Y0066456D01*
X0027277Y0065881D01*
X0028528Y0065443D01*
X0029820Y0065148D01*
X0031000Y0065015D01*
X0031000Y0076000D01*
X0020015Y0076000D01*
X0020337Y0073993D02*
X0009568Y0073993D01*
X0009568Y0072395D02*
X0020840Y0072395D01*
X0021636Y0070796D02*
X0009568Y0070796D01*
X0009568Y0069198D02*
X0022770Y0069198D01*
X0024412Y0067599D02*
X0009568Y0067599D01*
X0009568Y0066001D02*
X0027029Y0066001D01*
X0031000Y0066001D02*
X0032600Y0066001D01*
X0032600Y0067599D02*
X0031000Y0067599D01*
X0031000Y0069198D02*
X0032600Y0069198D01*
X0032600Y0070796D02*
X0031000Y0070796D01*
X0031000Y0072395D02*
X0032600Y0072395D01*
X0032600Y0073993D02*
X0031000Y0073993D01*
X0031000Y0075592D02*
X0032600Y0075592D01*
X0020150Y0078789D02*
X0009568Y0078789D01*
X0009568Y0080387D02*
X0020554Y0080387D01*
X0021200Y0081986D02*
X0009568Y0081986D01*
X0009568Y0083584D02*
X0022127Y0083584D01*
X0023495Y0085183D02*
X0009568Y0085183D01*
X0009568Y0086781D02*
X0025506Y0086781D01*
X0064400Y0071200D02*
X0064400Y0054459D01*
X0064300Y0054359D01*
X0064300Y0049241D02*
X0064300Y0048050D01*
X0066800Y0045550D01*
X0066800Y0041859D01*
X0066741Y0041800D01*
X0066741Y0036918D01*
X0070820Y0034030D02*
X0072023Y0034030D01*
X0070792Y0032432D02*
X0075308Y0032432D01*
X0074760Y0030833D02*
X0071340Y0030833D01*
X0071340Y0029235D02*
X0074760Y0029235D01*
X0074760Y0027636D02*
X0071340Y0027636D01*
X0070544Y0026038D02*
X0075556Y0026038D01*
X0075728Y0024439D02*
X0070372Y0024439D01*
X0070372Y0024241D02*
X0070372Y0022626D01*
X0070249Y0022168D01*
X0070012Y0021758D01*
X0069677Y0021423D01*
X0069266Y0021186D01*
X0068809Y0021063D01*
X0066800Y0021063D01*
X0066800Y0024241D01*
X0066800Y0024241D01*
X0066800Y0024241D01*
X0063228Y0024241D01*
X0063228Y0022626D01*
X0063351Y0022168D01*
X0063588Y0021758D01*
X0063923Y0021423D01*
X0064334Y0021186D01*
X0064791Y0021063D01*
X0066800Y0021063D01*
X0066800Y0024241D01*
X0070372Y0024241D01*
X0070372Y0022841D02*
X0075728Y0022841D01*
X0075728Y0022626D02*
X0075851Y0022168D01*
X0076088Y0021758D01*
X0076423Y0021423D01*
X0076834Y0021186D01*
X0077291Y0021063D01*
X0079300Y0021063D01*
X0081309Y0021063D01*
X0081766Y0021186D01*
X0081800Y0021205D01*
X0081834Y0021186D01*
X0082291Y0021063D01*
X0084300Y0021063D01*
X0086309Y0021063D01*
X0086766Y0021186D01*
X0087177Y0021423D01*
X0087512Y0021758D01*
X0087749Y0022168D01*
X0087872Y0022626D01*
X0087872Y0024241D01*
X0084300Y0024241D01*
X0084300Y0024241D01*
X0084300Y0024241D01*
X0079300Y0024241D01*
X0079300Y0024241D01*
X0079300Y0024241D01*
X0075728Y0024241D01*
X0075728Y0022626D01*
X0076736Y0021242D02*
X0069364Y0021242D01*
X0066800Y0021242D02*
X0066800Y0021242D01*
X0066800Y0022841D02*
X0066800Y0022841D01*
X0066800Y0024241D02*
X0066800Y0024241D01*
X0063228Y0024439D02*
X0021984Y0024439D01*
X0021936Y0024487D02*
X0018604Y0025868D01*
X0014996Y0025868D01*
X0011664Y0024487D01*
X0009568Y0022392D01*
X0009568Y0136208D01*
X0011664Y0134113D01*
X0014996Y0132732D01*
X0018604Y0132732D01*
X0021936Y0134113D01*
X0024487Y0136664D01*
X0025868Y0139996D01*
X0025868Y0143604D01*
X0024487Y0146936D01*
X0023691Y0147732D01*
X0289909Y0147732D01*
X0289113Y0146936D01*
X0287732Y0143604D01*
X0287732Y0139996D01*
X0289113Y0136664D01*
X0291664Y0134113D01*
X0294996Y0132732D01*
X0298604Y0132732D01*
X0301936Y0134113D01*
X0303953Y0136129D01*
X0303953Y0022471D01*
X0301936Y0024487D01*
X0298604Y0025868D01*
X0294996Y0025868D01*
X0291664Y0024487D01*
X0289113Y0021936D01*
X0287732Y0018604D01*
X0287732Y0014996D01*
X0289113Y0011664D01*
X0291208Y0009568D01*
X0022392Y0009568D01*
X0024487Y0011664D01*
X0025868Y0014996D01*
X0025868Y0018604D01*
X0024487Y0021936D01*
X0021936Y0024487D01*
X0023583Y0022841D02*
X0063228Y0022841D01*
X0064236Y0021242D02*
X0024775Y0021242D01*
X0025437Y0019644D02*
X0288163Y0019644D01*
X0287732Y0018045D02*
X0025868Y0018045D01*
X0025868Y0016447D02*
X0287732Y0016447D01*
X0287794Y0014848D02*
X0025806Y0014848D01*
X0025144Y0013250D02*
X0288456Y0013250D01*
X0289125Y0011651D02*
X0024475Y0011651D01*
X0022876Y0010053D02*
X0290724Y0010053D01*
X0288825Y0021242D02*
X0236864Y0021242D01*
X0236766Y0021186D02*
X0237177Y0021423D01*
X0237512Y0021758D01*
X0237749Y0022168D01*
X0237872Y0022626D01*
X0237872Y0024241D01*
X0234300Y0024241D01*
X0234300Y0024241D01*
X0234300Y0024241D01*
X0229300Y0024241D01*
X0229300Y0024241D01*
X0229300Y0024241D01*
X0225728Y0024241D01*
X0225728Y0022626D01*
X0225851Y0022168D01*
X0226088Y0021758D01*
X0226423Y0021423D01*
X0226834Y0021186D01*
X0227291Y0021063D01*
X0229300Y0021063D01*
X0231309Y0021063D01*
X0231766Y0021186D01*
X0231800Y0021205D01*
X0231834Y0021186D01*
X0232291Y0021063D01*
X0234300Y0021063D01*
X0236309Y0021063D01*
X0236766Y0021186D01*
X0237872Y0022841D02*
X0290017Y0022841D01*
X0291616Y0024439D02*
X0237872Y0024439D01*
X0238044Y0026038D02*
X0303953Y0026038D01*
X0303953Y0027636D02*
X0252872Y0027636D01*
X0252872Y0027626D02*
X0252872Y0029241D01*
X0249300Y0029241D01*
X0249300Y0029241D01*
X0249300Y0029241D01*
X0245728Y0029241D01*
X0245728Y0027626D01*
X0245851Y0027168D01*
X0246088Y0026758D01*
X0246423Y0026423D01*
X0246834Y0026186D01*
X0247291Y0026063D01*
X0249300Y0026063D01*
X0251309Y0026063D01*
X0251766Y0026186D01*
X0252177Y0026423D01*
X0252512Y0026758D01*
X0252749Y0027168D01*
X0252872Y0027626D01*
X0252872Y0029235D02*
X0303953Y0029235D01*
X0303953Y0030833D02*
X0252872Y0030833D01*
X0253840Y0032432D02*
X0303953Y0032432D01*
X0303953Y0034030D02*
X0253840Y0034030D01*
X0253840Y0035629D02*
X0303953Y0035629D01*
X0303953Y0037227D02*
X0253451Y0037227D01*
X0252817Y0038826D02*
X0303953Y0038826D01*
X0303953Y0040424D02*
X0252692Y0040424D01*
X0251683Y0042023D02*
X0303953Y0042023D01*
X0303953Y0043621D02*
X0251168Y0043621D01*
X0252508Y0045220D02*
X0303953Y0045220D01*
X0303953Y0046818D02*
X0253636Y0046818D01*
X0253840Y0048417D02*
X0303953Y0048417D01*
X0303953Y0050015D02*
X0253840Y0050015D01*
X0253656Y0051614D02*
X0303953Y0051614D01*
X0303953Y0053212D02*
X0253840Y0053212D01*
X0253840Y0054811D02*
X0303953Y0054811D01*
X0303953Y0056409D02*
X0253790Y0056409D01*
X0252768Y0058008D02*
X0303953Y0058008D01*
X0303953Y0059606D02*
X0252768Y0059606D01*
X0249200Y0054459D02*
X0249300Y0054359D01*
X0249200Y0054459D02*
X0249200Y0071200D01*
X0254968Y0070796D02*
X0271636Y0070796D01*
X0270840Y0072395D02*
X0254968Y0072395D01*
X0259040Y0073993D02*
X0270337Y0073993D01*
X0270061Y0075592D02*
X0260638Y0075592D01*
X0254968Y0069198D02*
X0272770Y0069198D01*
X0274412Y0067599D02*
X0253757Y0067599D01*
X0252768Y0066001D02*
X0277029Y0066001D01*
X0281000Y0066001D02*
X0282600Y0066001D01*
X0282600Y0067599D02*
X0281000Y0067599D01*
X0281000Y0069198D02*
X0282600Y0069198D01*
X0282600Y0070796D02*
X0281000Y0070796D01*
X0281000Y0072395D02*
X0282600Y0072395D01*
X0282600Y0073993D02*
X0281000Y0073993D01*
X0238300Y0071200D02*
X0238300Y0054609D01*
X0238050Y0054359D01*
X0238050Y0049241D02*
X0238050Y0045491D01*
X0241741Y0041800D01*
X0241800Y0041741D01*
X0241800Y0039300D01*
X0239300Y0036800D01*
X0234359Y0036800D01*
X0234300Y0036741D01*
X0234300Y0029359D01*
X0238840Y0029235D02*
X0245728Y0029235D01*
X0245728Y0030833D02*
X0238840Y0030833D01*
X0238292Y0032432D02*
X0244760Y0032432D01*
X0244760Y0034030D02*
X0241577Y0034030D01*
X0243175Y0035629D02*
X0244760Y0035629D01*
X0244774Y0037227D02*
X0245149Y0037227D01*
X0249241Y0039418D02*
X0246859Y0041800D01*
X0249241Y0039418D02*
X0249300Y0034359D01*
X0249300Y0029241D02*
X0249300Y0026063D01*
X0249300Y0029241D01*
X0249300Y0029241D01*
X0249300Y0029235D02*
X0249300Y0029235D01*
X0249300Y0027636D02*
X0249300Y0027636D01*
X0245728Y0027636D02*
X0238840Y0027636D01*
X0234300Y0024241D02*
X0234300Y0021063D01*
X0234300Y0024241D01*
X0234300Y0024241D01*
X0234300Y0022841D02*
X0234300Y0022841D01*
X0234300Y0021242D02*
X0234300Y0021242D01*
X0229300Y0021242D02*
X0229300Y0021242D01*
X0229300Y0021063D02*
X0229300Y0024241D01*
X0229300Y0024241D01*
X0229300Y0021063D01*
X0229300Y0022841D02*
X0229300Y0022841D01*
X0226736Y0021242D02*
X0216864Y0021242D01*
X0216766Y0021186D02*
X0217177Y0021423D01*
X0217512Y0021758D01*
X0217749Y0022168D01*
X0217872Y0022626D01*
X0217872Y0024241D01*
X0214300Y0024241D01*
X0214300Y0024241D01*
X0214300Y0024241D01*
X0209300Y0024241D01*
X0209300Y0024241D01*
X0209300Y0024241D01*
X0205728Y0024241D01*
X0205728Y0022626D01*
X0205851Y0022168D01*
X0206088Y0021758D01*
X0206423Y0021423D01*
X0206834Y0021186D01*
X0207291Y0021063D01*
X0209300Y0021063D01*
X0211309Y0021063D01*
X0211766Y0021186D01*
X0211800Y0021205D01*
X0211834Y0021186D01*
X0212291Y0021063D01*
X0214300Y0021063D01*
X0216309Y0021063D01*
X0216766Y0021186D01*
X0217872Y0022841D02*
X0225728Y0022841D01*
X0225728Y0024439D02*
X0217872Y0024439D01*
X0218044Y0026038D02*
X0225556Y0026038D01*
X0224760Y0027636D02*
X0218840Y0027636D01*
X0218840Y0029235D02*
X0224760Y0029235D01*
X0224760Y0030833D02*
X0218840Y0030833D01*
X0218292Y0032432D02*
X0225308Y0032432D01*
X0224523Y0034030D02*
X0220327Y0034030D01*
X0221925Y0035629D02*
X0222925Y0035629D01*
X0219300Y0038050D02*
X0218050Y0036800D01*
X0214359Y0036800D01*
X0214300Y0036741D01*
X0214300Y0029359D01*
X0209300Y0029359D02*
X0209300Y0036741D01*
X0209241Y0036800D01*
X0204359Y0041682D01*
X0204359Y0041800D01*
X0205550Y0042991D01*
X0205550Y0049241D01*
X0205550Y0054359D02*
X0205700Y0054509D01*
X0205700Y0071200D01*
X0194800Y0071200D02*
X0194800Y0055109D01*
X0195550Y0054359D01*
X0195550Y0049241D02*
X0199241Y0045550D01*
X0199241Y0041800D01*
X0199300Y0041741D01*
X0199300Y0039300D01*
X0198050Y0038050D01*
X0196800Y0036800D01*
X0191859Y0036800D01*
X0191859Y0029359D01*
X0191800Y0029359D01*
X0196340Y0029235D02*
X0204760Y0029235D01*
X0204760Y0030833D02*
X0196340Y0030833D01*
X0195792Y0032432D02*
X0205308Y0032432D01*
X0205280Y0034030D02*
X0199077Y0034030D01*
X0200675Y0035629D02*
X0205094Y0035629D01*
X0203767Y0037227D02*
X0202274Y0037227D01*
X0186741Y0036800D02*
X0186741Y0029359D01*
X0186800Y0029359D01*
X0182260Y0029235D02*
X0173840Y0029235D01*
X0173840Y0030833D02*
X0182260Y0030833D01*
X0182808Y0032432D02*
X0173292Y0032432D01*
X0174077Y0034030D02*
X0178273Y0034030D01*
X0176675Y0035629D02*
X0175675Y0035629D01*
X0179300Y0038050D02*
X0180550Y0036800D01*
X0186741Y0036800D01*
X0179300Y0038050D02*
X0179300Y0041741D01*
X0179359Y0041800D01*
X0179359Y0044300D01*
X0184300Y0049241D01*
X0184300Y0054359D02*
X0184000Y0054659D01*
X0184000Y0071200D01*
X0173100Y0071200D02*
X0173100Y0054409D01*
X0173050Y0054359D01*
X0173050Y0049241D02*
X0173050Y0042991D01*
X0174241Y0041800D01*
X0174241Y0039241D01*
X0171800Y0036800D01*
X0169359Y0036800D01*
X0169359Y0029359D01*
X0169300Y0029359D01*
X0173840Y0027636D02*
X0182260Y0027636D01*
X0183056Y0026038D02*
X0173044Y0026038D01*
X0172872Y0024439D02*
X0183228Y0024439D01*
X0183228Y0024241D02*
X0183228Y0022626D01*
X0183351Y0022168D01*
X0183588Y0021758D01*
X0183923Y0021423D01*
X0184334Y0021186D01*
X0184791Y0021063D01*
X0186800Y0021063D01*
X0188809Y0021063D01*
X0189266Y0021186D01*
X0189300Y0021205D01*
X0189334Y0021186D01*
X0189791Y0021063D01*
X0191800Y0021063D01*
X0193809Y0021063D01*
X0194266Y0021186D01*
X0194677Y0021423D01*
X0195012Y0021758D01*
X0195249Y0022168D01*
X0195372Y0022626D01*
X0195372Y0024241D01*
X0191800Y0024241D01*
X0191800Y0024241D01*
X0191800Y0024241D01*
X0186800Y0024241D01*
X0186800Y0024241D01*
X0186800Y0024241D01*
X0183228Y0024241D01*
X0183228Y0022841D02*
X0172872Y0022841D01*
X0172872Y0022626D02*
X0172872Y0024241D01*
X0169300Y0024241D01*
X0169300Y0024241D01*
X0169300Y0024241D01*
X0164300Y0024241D01*
X0164300Y0024241D01*
X0164300Y0024241D01*
X0160728Y0024241D01*
X0160728Y0022626D01*
X0160851Y0022168D01*
X0161088Y0021758D01*
X0161423Y0021423D01*
X0161834Y0021186D01*
X0162291Y0021063D01*
X0164300Y0021063D01*
X0166309Y0021063D01*
X0166766Y0021186D01*
X0166800Y0021205D01*
X0166834Y0021186D01*
X0167291Y0021063D01*
X0169300Y0021063D01*
X0171309Y0021063D01*
X0171766Y0021186D01*
X0172177Y0021423D01*
X0172512Y0021758D01*
X0172749Y0022168D01*
X0172872Y0022626D01*
X0171864Y0021242D02*
X0184236Y0021242D01*
X0186800Y0021242D02*
X0186800Y0021242D01*
X0186800Y0021063D02*
X0186800Y0024241D01*
X0186800Y0024241D01*
X0186800Y0021063D01*
X0186800Y0022841D02*
X0186800Y0022841D01*
X0191800Y0022841D02*
X0191800Y0022841D01*
X0191800Y0024241D02*
X0191800Y0021063D01*
X0191800Y0024241D01*
X0191800Y0024241D01*
X0195372Y0024439D02*
X0205728Y0024439D01*
X0205728Y0022841D02*
X0195372Y0022841D01*
X0194364Y0021242D02*
X0206736Y0021242D01*
X0209300Y0021242D02*
X0209300Y0021242D01*
X0209300Y0021063D02*
X0209300Y0024241D01*
X0209300Y0024241D01*
X0209300Y0021063D01*
X0209300Y0022841D02*
X0209300Y0022841D01*
X0205556Y0026038D02*
X0195544Y0026038D01*
X0196340Y0027636D02*
X0204760Y0027636D01*
X0214300Y0024241D02*
X0214300Y0024241D01*
X0214300Y0021063D01*
X0214300Y0024241D01*
X0214300Y0022841D02*
X0214300Y0022841D01*
X0214300Y0021242D02*
X0214300Y0021242D01*
X0229300Y0029359D02*
X0229300Y0036741D01*
X0229241Y0036800D01*
X0226800Y0036800D01*
X0224359Y0039241D01*
X0224359Y0041800D01*
X0226800Y0041800D01*
X0228050Y0043050D01*
X0228050Y0049241D01*
X0228050Y0054359D02*
X0227400Y0055009D01*
X0227400Y0071200D01*
X0216600Y0071200D02*
X0216600Y0054559D01*
X0216800Y0054359D01*
X0216800Y0049241D02*
X0216800Y0044241D01*
X0219241Y0041800D01*
X0219300Y0041741D01*
X0219300Y0038050D01*
X0246859Y0044359D02*
X0249300Y0046800D01*
X0249300Y0049241D01*
X0301984Y0024439D02*
X0303953Y0024439D01*
X0303953Y0022841D02*
X0303583Y0022841D01*
X0191800Y0021242D02*
X0191800Y0021242D01*
X0169300Y0021242D02*
X0169300Y0021242D01*
X0169300Y0021063D02*
X0169300Y0024241D01*
X0169300Y0024241D01*
X0169300Y0021063D01*
X0169300Y0022841D02*
X0169300Y0022841D01*
X0164300Y0022841D02*
X0164300Y0022841D01*
X0164300Y0024241D02*
X0164300Y0021063D01*
X0164300Y0024241D01*
X0164300Y0024241D01*
X0160728Y0024439D02*
X0147872Y0024439D01*
X0147872Y0024241D02*
X0144300Y0024241D01*
X0144300Y0024241D01*
X0144300Y0024241D01*
X0139300Y0024241D01*
X0139300Y0024241D01*
X0139300Y0024241D01*
X0135728Y0024241D01*
X0135728Y0022626D01*
X0135851Y0022168D01*
X0136088Y0021758D01*
X0136423Y0021423D01*
X0136834Y0021186D01*
X0137291Y0021063D01*
X0139300Y0021063D01*
X0141309Y0021063D01*
X0141766Y0021186D01*
X0141800Y0021205D01*
X0141834Y0021186D01*
X0142291Y0021063D01*
X0144300Y0021063D01*
X0146309Y0021063D01*
X0146766Y0021186D01*
X0147177Y0021423D01*
X0147512Y0021758D01*
X0147749Y0022168D01*
X0147872Y0022626D01*
X0147872Y0024241D01*
X0147872Y0022841D02*
X0160728Y0022841D01*
X0161736Y0021242D02*
X0146864Y0021242D01*
X0144300Y0021242D02*
X0144300Y0021242D01*
X0144300Y0021063D02*
X0144300Y0024241D01*
X0144300Y0024241D01*
X0144300Y0021063D01*
X0144300Y0022841D02*
X0144300Y0022841D01*
X0148044Y0026038D02*
X0160556Y0026038D01*
X0159760Y0027636D02*
X0148840Y0027636D01*
X0148840Y0029235D02*
X0159760Y0029235D01*
X0159760Y0030833D02*
X0148840Y0030833D01*
X0148292Y0032432D02*
X0160308Y0032432D01*
X0157023Y0034030D02*
X0152827Y0034030D01*
X0154425Y0035629D02*
X0155425Y0035629D01*
X0151800Y0038050D02*
X0150550Y0036800D01*
X0144359Y0036800D01*
X0144359Y0029359D01*
X0144300Y0029359D01*
X0139300Y0029359D02*
X0139241Y0029359D01*
X0139241Y0036800D01*
X0136800Y0036800D01*
X0134300Y0039300D01*
X0134300Y0041741D01*
X0134359Y0041800D01*
X0138050Y0041800D01*
X0140550Y0044300D01*
X0140550Y0049241D01*
X0140550Y0054359D02*
X0140500Y0054409D01*
X0140500Y0071200D01*
X0151400Y0071200D02*
X0151400Y0054759D01*
X0151800Y0054359D01*
X0151800Y0049241D02*
X0151741Y0049182D01*
X0151741Y0041800D01*
X0151800Y0041741D01*
X0151800Y0038050D01*
X0156859Y0039241D02*
X0156859Y0041800D01*
X0156859Y0041859D01*
X0161800Y0046800D01*
X0161800Y0049241D01*
X0161800Y0054359D02*
X0162200Y0054759D01*
X0162200Y0071200D01*
X0129600Y0071200D02*
X0129600Y0054659D01*
X0129300Y0054359D01*
X0129300Y0049241D02*
X0129300Y0041859D01*
X0129241Y0041800D01*
X0129241Y0039241D01*
X0126800Y0036800D01*
X0124359Y0036800D01*
X0124300Y0036741D01*
X0124300Y0029359D01*
X0128840Y0029235D02*
X0134760Y0029235D01*
X0134760Y0030833D02*
X0128840Y0030833D01*
X0128292Y0032432D02*
X0135308Y0032432D01*
X0134523Y0034030D02*
X0129077Y0034030D01*
X0130675Y0035629D02*
X0132925Y0035629D01*
X0119300Y0036741D02*
X0119300Y0029359D01*
X0114760Y0029235D02*
X0108840Y0029235D01*
X0108840Y0030833D02*
X0114760Y0030833D01*
X0115308Y0032432D02*
X0108292Y0032432D01*
X0109077Y0034030D02*
X0113273Y0034030D01*
X0111675Y0035629D02*
X0110675Y0035629D01*
X0109241Y0039241D02*
X0106800Y0036800D01*
X0104359Y0036800D01*
X0104300Y0036741D01*
X0104300Y0029359D01*
X0099300Y0029359D02*
X0099300Y0036741D01*
X0099241Y0036800D01*
X0096800Y0036800D01*
X0094359Y0039241D01*
X0094359Y0041800D01*
X0094359Y0046800D01*
X0096800Y0049241D01*
X0096800Y0054359D02*
X0097000Y0054559D01*
X0097000Y0071200D01*
X0086100Y0071200D02*
X0086100Y0054909D01*
X0085550Y0054359D01*
X0085550Y0049241D02*
X0089241Y0045550D01*
X0089241Y0041800D01*
X0089300Y0041741D01*
X0089300Y0039300D01*
X0086800Y0036800D01*
X0084359Y0036800D01*
X0084300Y0036741D01*
X0084300Y0029359D01*
X0088840Y0029235D02*
X0094760Y0029235D01*
X0094760Y0030833D02*
X0088840Y0030833D01*
X0088292Y0032432D02*
X0095308Y0032432D01*
X0094523Y0034030D02*
X0089077Y0034030D01*
X0090675Y0035629D02*
X0092925Y0035629D01*
X0094760Y0027636D02*
X0088840Y0027636D01*
X0088044Y0026038D02*
X0095556Y0026038D01*
X0095728Y0024439D02*
X0087872Y0024439D01*
X0087872Y0022841D02*
X0095728Y0022841D01*
X0095728Y0022626D02*
X0095851Y0022168D01*
X0096088Y0021758D01*
X0096423Y0021423D01*
X0096834Y0021186D01*
X0097291Y0021063D01*
X0099300Y0021063D01*
X0101309Y0021063D01*
X0101766Y0021186D01*
X0101800Y0021205D01*
X0101834Y0021186D01*
X0102291Y0021063D01*
X0104300Y0021063D01*
X0106309Y0021063D01*
X0106766Y0021186D01*
X0107177Y0021423D01*
X0107512Y0021758D01*
X0107749Y0022168D01*
X0107872Y0022626D01*
X0107872Y0024241D01*
X0104300Y0024241D01*
X0104300Y0024241D01*
X0104300Y0024241D01*
X0099300Y0024241D01*
X0099300Y0024241D01*
X0099300Y0024241D01*
X0095728Y0024241D01*
X0095728Y0022626D01*
X0096736Y0021242D02*
X0086864Y0021242D01*
X0084300Y0021242D02*
X0084300Y0021242D01*
X0084300Y0021063D02*
X0084300Y0024241D01*
X0084300Y0024241D01*
X0084300Y0021063D01*
X0084300Y0022841D02*
X0084300Y0022841D01*
X0079300Y0022841D02*
X0079300Y0022841D01*
X0079300Y0024241D02*
X0079300Y0021063D01*
X0079300Y0024241D01*
X0079300Y0024241D01*
X0079300Y0021242D02*
X0079300Y0021242D01*
X0079300Y0029359D02*
X0079300Y0036741D01*
X0079241Y0036800D01*
X0074300Y0036800D01*
X0071859Y0039241D01*
X0071859Y0041800D01*
X0071859Y0043109D01*
X0075550Y0046800D01*
X0075550Y0049241D01*
X0075550Y0054359D02*
X0075550Y0070950D01*
X0075300Y0071200D01*
X0107900Y0071200D02*
X0107900Y0054509D01*
X0108050Y0054359D01*
X0108050Y0049241D02*
X0108050Y0042991D01*
X0109241Y0041800D01*
X0109241Y0039241D01*
X0114359Y0037991D02*
X0115550Y0036800D01*
X0119241Y0036800D01*
X0119300Y0036741D01*
X0114359Y0037991D02*
X0114359Y0041800D01*
X0115550Y0041800D01*
X0119300Y0045550D01*
X0119300Y0049241D01*
X0119300Y0054359D02*
X0118700Y0054959D01*
X0118700Y0071200D01*
X0156859Y0039241D02*
X0159300Y0036800D01*
X0164241Y0036800D01*
X0164241Y0029359D01*
X0164300Y0029359D01*
X0164300Y0021242D02*
X0164300Y0021242D01*
X0139300Y0021242D02*
X0139300Y0021242D01*
X0139300Y0021063D02*
X0139300Y0024241D01*
X0139300Y0024241D01*
X0139300Y0021063D01*
X0139300Y0022841D02*
X0139300Y0022841D01*
X0136736Y0021242D02*
X0126864Y0021242D01*
X0126766Y0021186D02*
X0127177Y0021423D01*
X0127512Y0021758D01*
X0127749Y0022168D01*
X0127872Y0022626D01*
X0127872Y0024241D01*
X0124300Y0024241D01*
X0124300Y0024241D01*
X0124300Y0024241D01*
X0119300Y0024241D01*
X0119300Y0024241D01*
X0119300Y0024241D01*
X0115728Y0024241D01*
X0115728Y0022626D01*
X0115851Y0022168D01*
X0116088Y0021758D01*
X0116423Y0021423D01*
X0116834Y0021186D01*
X0117291Y0021063D01*
X0119300Y0021063D01*
X0121309Y0021063D01*
X0121766Y0021186D01*
X0121800Y0021205D01*
X0121834Y0021186D01*
X0122291Y0021063D01*
X0124300Y0021063D01*
X0126309Y0021063D01*
X0126766Y0021186D01*
X0127872Y0022841D02*
X0135728Y0022841D01*
X0135728Y0024439D02*
X0127872Y0024439D01*
X0128044Y0026038D02*
X0135556Y0026038D01*
X0134760Y0027636D02*
X0128840Y0027636D01*
X0124300Y0024241D02*
X0124300Y0021063D01*
X0124300Y0024241D01*
X0124300Y0024241D01*
X0124300Y0022841D02*
X0124300Y0022841D01*
X0124300Y0021242D02*
X0124300Y0021242D01*
X0119300Y0021242D02*
X0119300Y0021242D01*
X0119300Y0021063D02*
X0119300Y0024241D01*
X0119300Y0024241D01*
X0119300Y0021063D01*
X0119300Y0022841D02*
X0119300Y0022841D01*
X0116736Y0021242D02*
X0106864Y0021242D01*
X0107872Y0022841D02*
X0115728Y0022841D01*
X0115728Y0024439D02*
X0107872Y0024439D01*
X0108044Y0026038D02*
X0115556Y0026038D01*
X0114760Y0027636D02*
X0108840Y0027636D01*
X0104300Y0024241D02*
X0104300Y0021063D01*
X0104300Y0024241D01*
X0104300Y0024241D01*
X0104300Y0022841D02*
X0104300Y0022841D01*
X0104300Y0021242D02*
X0104300Y0021242D01*
X0099300Y0021242D02*
X0099300Y0021242D01*
X0099300Y0021063D02*
X0099300Y0024241D01*
X0099300Y0024241D01*
X0099300Y0021063D01*
X0099300Y0022841D02*
X0099300Y0022841D01*
X0063056Y0026038D02*
X0009568Y0026038D01*
X0009568Y0027636D02*
X0062260Y0027636D01*
X0011616Y0024439D02*
X0009568Y0024439D01*
X0009568Y0022841D02*
X0010017Y0022841D01*
X0009568Y0133138D02*
X0014017Y0133138D01*
X0011040Y0134737D02*
X0009568Y0134737D01*
X0019583Y0133138D02*
X0294017Y0133138D01*
X0291040Y0134737D02*
X0022560Y0134737D01*
X0024159Y0136335D02*
X0289441Y0136335D01*
X0288587Y0137934D02*
X0025013Y0137934D01*
X0025675Y0139532D02*
X0287925Y0139532D01*
X0287732Y0141131D02*
X0025868Y0141131D01*
X0025868Y0142729D02*
X0287732Y0142729D01*
X0288032Y0144328D02*
X0025568Y0144328D01*
X0024906Y0145926D02*
X0288694Y0145926D01*
X0289701Y0147525D02*
X0023899Y0147525D01*
X0299583Y0133138D02*
X0303953Y0133138D01*
X0303953Y0134737D02*
X0302560Y0134737D01*
D16*
X0244300Y0061800D03*
X0051800Y0093050D03*
M02*
