G75*
%MOIN*%
%OFA0B0*%
%FSLAX25Y25*%
%IPPOS*%
%LPD*%
%AMOC8*
5,1,8,0,0,1.08239X$1,22.5*
%
%ADD10R,0.03543X0.02756*%
%ADD11R,0.02756X0.03543*%
D10*
X0066800Y0024241D03*
X0066800Y0029359D03*
X0079300Y0029359D03*
X0084300Y0029359D03*
X0084300Y0024241D03*
X0079300Y0024241D03*
X0099300Y0024241D03*
X0104300Y0024241D03*
X0104300Y0029359D03*
X0099300Y0029359D03*
X0119300Y0029359D03*
X0124300Y0029359D03*
X0124300Y0024241D03*
X0119300Y0024241D03*
X0139300Y0024241D03*
X0144300Y0024241D03*
X0144300Y0029359D03*
X0139300Y0029359D03*
X0164300Y0029359D03*
X0169300Y0029359D03*
X0169300Y0024241D03*
X0164300Y0024241D03*
X0186800Y0024241D03*
X0191800Y0024241D03*
X0191800Y0029359D03*
X0186800Y0029359D03*
X0209300Y0029359D03*
X0214300Y0029359D03*
X0214300Y0024241D03*
X0209300Y0024241D03*
X0229300Y0024241D03*
X0234300Y0024241D03*
X0234300Y0029359D03*
X0229300Y0029359D03*
X0249300Y0029241D03*
X0249300Y0034359D03*
X0249300Y0049241D03*
X0249300Y0054359D03*
X0238050Y0054359D03*
X0238050Y0049241D03*
X0228050Y0049241D03*
X0228050Y0054359D03*
X0216800Y0054359D03*
X0216800Y0049241D03*
X0205550Y0049241D03*
X0205550Y0054359D03*
X0195550Y0054359D03*
X0195550Y0049241D03*
X0184300Y0049241D03*
X0184300Y0054359D03*
X0173050Y0054359D03*
X0173050Y0049241D03*
X0161800Y0049241D03*
X0161800Y0054359D03*
X0151800Y0054359D03*
X0151800Y0049241D03*
X0140550Y0049241D03*
X0140550Y0054359D03*
X0129300Y0054359D03*
X0129300Y0049241D03*
X0119300Y0049241D03*
X0119300Y0054359D03*
X0108050Y0054359D03*
X0108050Y0049241D03*
X0096800Y0049241D03*
X0096800Y0054359D03*
X0085550Y0054359D03*
X0085550Y0049241D03*
X0075550Y0049241D03*
X0075550Y0054359D03*
X0064300Y0054359D03*
X0064300Y0049241D03*
X0059300Y0099241D03*
X0059300Y0104359D03*
X0069300Y0104359D03*
X0069300Y0099241D03*
X0081800Y0099241D03*
X0081800Y0104359D03*
X0091800Y0104359D03*
X0091800Y0099241D03*
X0101800Y0099241D03*
X0101800Y0104359D03*
X0114300Y0104359D03*
X0114300Y0099241D03*
X0124300Y0099241D03*
X0124300Y0104359D03*
X0135550Y0104359D03*
X0135550Y0099241D03*
X0145550Y0099241D03*
X0145550Y0104359D03*
X0156800Y0104359D03*
X0156800Y0099241D03*
X0168050Y0099241D03*
X0168050Y0104359D03*
X0178050Y0104359D03*
X0178050Y0099241D03*
X0189300Y0099241D03*
X0189300Y0104359D03*
X0200550Y0104359D03*
X0200550Y0099241D03*
X0210550Y0099241D03*
X0210550Y0104359D03*
X0221800Y0104359D03*
X0221800Y0099241D03*
X0233050Y0099241D03*
X0233050Y0104359D03*
X0244300Y0104359D03*
X0244300Y0099241D03*
X0254300Y0099241D03*
X0254300Y0104359D03*
X0251800Y0119241D03*
X0251800Y0124359D03*
X0239300Y0124241D03*
X0234300Y0124241D03*
X0234300Y0129359D03*
X0239300Y0129359D03*
X0219300Y0129359D03*
X0214300Y0129359D03*
X0214300Y0124241D03*
X0219300Y0124241D03*
X0194300Y0124241D03*
X0189300Y0124241D03*
X0189300Y0129359D03*
X0194300Y0129359D03*
X0171800Y0129359D03*
X0166800Y0129359D03*
X0166800Y0124241D03*
X0171800Y0124241D03*
X0154300Y0124241D03*
X0149300Y0124241D03*
X0149300Y0129359D03*
X0154300Y0129359D03*
X0134300Y0129359D03*
X0129300Y0129359D03*
X0129300Y0124241D03*
X0134300Y0124241D03*
X0111800Y0124241D03*
X0106800Y0124241D03*
X0106800Y0129359D03*
X0111800Y0129359D03*
X0091800Y0129359D03*
X0086800Y0129359D03*
X0086800Y0124241D03*
X0091800Y0124241D03*
X0066800Y0124241D03*
X0061800Y0124241D03*
X0061800Y0129359D03*
X0066800Y0129359D03*
D11*
X0066859Y0116800D03*
X0061741Y0116800D03*
X0059359Y0111800D03*
X0054241Y0111800D03*
X0074241Y0111800D03*
X0079359Y0111800D03*
X0086741Y0116800D03*
X0091859Y0116800D03*
X0094241Y0111800D03*
X0099359Y0111800D03*
X0106741Y0116800D03*
X0111859Y0116800D03*
X0116741Y0111800D03*
X0121859Y0111800D03*
X0129241Y0116800D03*
X0134359Y0116800D03*
X0139241Y0111800D03*
X0144359Y0111800D03*
X0149241Y0116800D03*
X0154359Y0116800D03*
X0159241Y0111800D03*
X0164359Y0111800D03*
X0166741Y0116800D03*
X0171859Y0116800D03*
X0179241Y0111800D03*
X0184359Y0111800D03*
X0189241Y0116800D03*
X0194359Y0116800D03*
X0202991Y0111800D03*
X0208109Y0111800D03*
X0214241Y0116800D03*
X0219359Y0116800D03*
X0224241Y0111800D03*
X0229359Y0111800D03*
X0234241Y0116800D03*
X0239359Y0116800D03*
X0246741Y0111800D03*
X0251859Y0111800D03*
X0246859Y0041800D03*
X0241741Y0041800D03*
X0234359Y0036800D03*
X0229241Y0036800D03*
X0224359Y0041800D03*
X0219241Y0041800D03*
X0214359Y0036800D03*
X0209241Y0036800D03*
X0204359Y0041800D03*
X0199241Y0041800D03*
X0191859Y0036800D03*
X0186741Y0036800D03*
X0179359Y0041800D03*
X0174241Y0041800D03*
X0169359Y0036800D03*
X0164241Y0036800D03*
X0156859Y0041800D03*
X0151741Y0041800D03*
X0144359Y0036800D03*
X0139241Y0036800D03*
X0134359Y0041800D03*
X0129241Y0041800D03*
X0124359Y0036800D03*
X0119241Y0036800D03*
X0114359Y0041800D03*
X0109241Y0041800D03*
X0104359Y0036800D03*
X0099241Y0036800D03*
X0094359Y0041800D03*
X0089241Y0041800D03*
X0084359Y0036800D03*
X0079241Y0036800D03*
X0071859Y0041800D03*
X0066741Y0041800D03*
X0066859Y0036800D03*
X0061741Y0036800D03*
M02*
