*
G04 Mass Parameters ***
*
G04 Image ***
*
%IND:\DOCUMENTS\CIRCUIT LAYOUTS, SCHEMATICS AND MISC TECHNICAL\SWTICH NETWORK\NEW DESIGN MARCH 2015\SWITCH-NETWORK-ROUTED.AST*%
%ICAS*%
%MOIN*%
%IPPOS*%
%ASAXBY*%
G74*%FSLAN2X34Y34*%
*
G04 Aperture Definitions ***
*
%ADD10C,0.1200*%
%ADD11C,0.0630*%
%ADD12R,0.0630X0.0630*%
%ADD13R,0.0580X0.0580*%
%ADD14O,0.0160X0.0900*%
%ADD15R,0.0160X0.0900*%
%ADD16R,0.0500X0.0500*%
%ADD17C,0.0300*%
%ADD18C,0.0300*%
%ADD19C,0.0120*%
%ADD20C,0.0300*%
%ADD21C,0.0300*%
%ADD22C,0.1400*%
%ADD23C,0.0830*%
%ADD24R,0.0830X0.0830*%
%ADD25R,0.0780X0.0780*%
%ADD26C,0.0100*%
%ADD27C,0.0080*%
%ADD28C,0.0060*%
%ADD29C,0.0010*%
*
G04 Plot Data ***
*
G54D26*
G01X-0063984Y0035952D02*
X-0016872D01*
X0009312Y0035928D01*
X0009336Y0035904D01*
Y-0012264D01*
X-0064128D01*
Y0035952D01*
X-0063984D01*
G54D27*
G01X-0044881Y-0006736D02*
Y-0007014D01*
X-0044909Y-0007069D01*
X-0045075D01*
X-0045103Y-0007014D01*
Y-0006736D01*
X-0045374Y-0006902D02*
X-0045291Y-0007069D01*
X-0045513Y-0006902D02*
X-0045347D01*
X-0045291Y-0006847D01*
Y-0006791D01*
X-0045347Y-0006736D01*
X-0045513D01*
Y-0007069D01*
X-0045895D02*
Y-0006736D01*
X-0045923Y-0007069D02*
X-0045757D01*
X-0045701Y-0007014D01*
Y-0006958D01*
X-0045729Y-0006902D01*
X-0045895D02*
X-0045729D01*
X-0045701Y-0006847D01*
Y-0006791D01*
X-0045757Y-0006736D01*
X-0045923D01*
X-0046111Y-0006958D02*
X-0046333D01*
X-0046222Y-0006736D01*
X-0046167D01*
Y-0007069D01*
X-0046521D02*
X-0046632D01*
X-0046576D02*
Y-0006736D01*
X-0046632Y-0006791D01*
X-0047042Y-0007069D02*
X-0046875Y-0006736D01*
X-0047098D01*
X-0047396Y-0006902D02*
X-0047285D01*
Y-0007014D01*
X-0047313Y-0007069D01*
X-0047480D01*
X-0047508Y-0007014D01*
Y-0006791D01*
X-0047480Y-0006736D01*
X-0047313D01*
X-0047285Y-0006791D01*
X-0047890Y-0007069D02*
Y-0006736D01*
X-0047918Y-0007069D02*
X-0047751D01*
X-0047695Y-0006958D01*
Y-0006847D01*
X-0047751Y-0006736D01*
X-0047918D01*
X-0048105Y-0006958D02*
X-0048328D01*
X-0048105Y-0007069D02*
Y-0006902D01*
X-0048189Y-0006736D01*
X-0048244D01*
X-0048328Y-0006902D01*
Y-0007069D01*
X-0008764Y0013289D02*
X-0008820Y0013344D01*
X-0008931D01*
X-0008986Y0013289D01*
Y0013233D01*
X-0008875Y0013122D01*
X-0008986Y0013011D01*
X-0008764D01*
X-0008354Y0013178D02*
X-0008521D01*
X-0008576Y0013122D01*
Y0013066D01*
X-0008521Y0013011D01*
X-0008354D01*
Y0013344D01*
X-0011619Y0012420D02*
Y0012698D01*
X-0011591Y0012753D01*
X-0011424D01*
X-0011397Y0012698D01*
Y0012420D01*
X-0011126Y0012586D02*
X-0011209Y0012753D01*
X-0010987Y0012586D02*
X-0011153D01*
X-0011209Y0012531D01*
Y0012475D01*
X-0011153Y0012420D01*
X-0010987D01*
Y0012753D01*
X-0010604D02*
Y0012420D01*
X-0010577Y0012753D02*
X-0010743D01*
X-0010799Y0012698D01*
Y0012642D01*
X-0010771Y0012586D01*
X-0010604D02*
X-0010771D01*
X-0010799Y0012531D01*
Y0012475D01*
X-0010743Y0012420D01*
X-0010577D01*
X-0010389Y0012642D02*
X-0010167D01*
X-0010278Y0012420D01*
X-0010333D01*
Y0012753D01*
X-0009979D02*
X-0009868D01*
X-0009923D02*
Y0012420D01*
X-0009868Y0012475D01*
X-0009458Y0012753D02*
X-0009625Y0012420D01*
X-0009402D01*
X-0009103Y0012586D02*
X-0009215D01*
Y0012698D01*
X-0009187Y0012753D01*
X-0009020D01*
X-0008992Y0012698D01*
Y0012475D01*
X-0009020Y0012420D01*
X-0009187D01*
X-0009215Y0012475D01*
X-0008610Y0012753D02*
Y0012420D01*
X-0008582Y0012753D02*
X-0008749D01*
X-0008805Y0012642D01*
Y0012531D01*
X-0008749Y0012420D01*
X-0008582D01*
X-0008395Y0012642D02*
X-0008172D01*
X-0008395Y0012753D02*
Y0012586D01*
X-0008311Y0012420D01*
X-0008256D01*
X-0008172Y0012586D01*
Y0012753D01*
X-0009184Y0028431D02*
X-0008962D01*
X-0009073Y0028209D01*
X-0009129D01*
Y0028542D01*
X-0008552Y0028376D02*
X-0008719D01*
X-0008774Y0028320D01*
Y0028264D01*
X-0008719Y0028209D01*
X-0008552D01*
Y0028542D01*
X-0011817Y0027618D02*
Y0027896D01*
X-0011789Y0027951D01*
X-0011622D01*
X-0011595Y0027896D01*
Y0027618D01*
X-0011324Y0027784D02*
X-0011407Y0027951D01*
X-0011185Y0027784D02*
X-0011351D01*
X-0011407Y0027729D01*
Y0027673D01*
X-0011351Y0027618D01*
X-0011185D01*
Y0027951D01*
X-0010802D02*
Y0027618D01*
X-0010775Y0027951D02*
X-0010941D01*
X-0010997Y0027896D01*
Y0027840D01*
X-0010969Y0027784D01*
X-0010802D02*
X-0010969D01*
X-0010997Y0027729D01*
Y0027673D01*
X-0010941Y0027618D01*
X-0010775D01*
X-0010587Y0027840D02*
X-0010365D01*
X-0010476Y0027618D01*
X-0010531D01*
Y0027951D01*
X-0010177D02*
X-0010066D01*
X-0010121D02*
Y0027618D01*
X-0010066Y0027673D01*
X-0009656Y0027951D02*
X-0009823Y0027618D01*
X-0009600D01*
X-0009301Y0027784D02*
X-0009413D01*
Y0027896D01*
X-0009385Y0027951D01*
X-0009218D01*
X-0009190Y0027896D01*
Y0027673D01*
X-0009218Y0027618D01*
X-0009385D01*
X-0009413Y0027673D01*
X-0008808Y0027951D02*
Y0027618D01*
X-0008780Y0027951D02*
X-0008947D01*
X-0009003Y0027840D01*
Y0027729D01*
X-0008947Y0027618D01*
X-0008780D01*
X-0008593Y0027840D02*
X-0008370D01*
X-0008593Y0027951D02*
Y0027784D01*
X-0008509Y0027618D01*
X-0008454D01*
X-0008370Y0027784D01*
Y0027951D01*
X-0046316Y0023395D02*
X-0046288Y0023340D01*
X-0046121D01*
X-0046093Y0023395D01*
Y0023506D01*
X-0046149Y0023562D01*
X-0046316D01*
Y0023673D01*
X-0046093D01*
X-0046726Y0023506D02*
X-0046559D01*
X-0046503Y0023562D01*
Y0023617D01*
X-0046559Y0023673D01*
X-0046726D01*
Y0023340D01*
X-0043461Y0024264D02*
Y0023986D01*
X-0043489Y0023931D01*
X-0043655D01*
X-0043683Y0023986D01*
Y0024264D01*
X-0043954Y0024097D02*
X-0043871Y0023931D01*
X-0044093Y0024097D02*
X-0043927D01*
X-0043871Y0024153D01*
Y0024209D01*
X-0043927Y0024264D01*
X-0044093D01*
Y0023931D01*
X-0044475D02*
Y0024264D01*
X-0044503Y0023931D02*
X-0044337D01*
X-0044281Y0023986D01*
Y0024042D01*
X-0044309Y0024097D01*
X-0044475D02*
X-0044309D01*
X-0044281Y0024153D01*
Y0024209D01*
X-0044337Y0024264D01*
X-0044503D01*
X-0044691Y0024042D02*
X-0044913D01*
X-0044802Y0024264D01*
X-0044747D01*
Y0023931D01*
X-0045101D02*
X-0045212D01*
X-0045156D02*
Y0024264D01*
X-0045212Y0024209D01*
X-0045622Y0023931D02*
X-0045455Y0024264D01*
X-0045678D01*
X-0045976Y0024097D02*
X-0045865D01*
Y0023986D01*
X-0045893Y0023931D01*
X-0046060D01*
X-0046088Y0023986D01*
Y0024209D01*
X-0046060Y0024264D01*
X-0045893D01*
X-0045865Y0024209D01*
X-0046470Y0023931D02*
Y0024264D01*
X-0046498Y0023931D02*
X-0046331D01*
X-0046275Y0024042D01*
Y0024153D01*
X-0046331Y0024264D01*
X-0046498D01*
X-0046685Y0024042D02*
X-0046908D01*
X-0046685Y0023931D02*
Y0024097D01*
X-0046769Y0024264D01*
X-0046824D01*
X-0046908Y0024097D01*
Y0023931D01*
X-0060879Y0008597D02*
Y0008763D01*
X-0060824Y0008791D01*
X-0060768D01*
X-0060712Y0008763D01*
Y0008597D01*
X-0060768Y0008569D01*
X-0060824D01*
X-0061046Y0008680D01*
X-0060879Y0013763D02*
Y0013597D01*
X-0060935Y0013569D01*
X-0060990D01*
X-0061046Y0013597D01*
Y0013763D01*
X-0060990Y0013791D01*
X-0060935D01*
X-0060712Y0013680D01*
X0007962Y0012764D02*
Y0012875D01*
Y0012820D02*
X0008296D01*
X0008240Y0012875D01*
X0008018Y0006931D02*
X0007962Y0006903D01*
Y0006737D01*
X0008018Y0006709D01*
X0008129D01*
X0008185Y0006764D01*
Y0006931D01*
X0008296D01*
Y0006709D01*
X0006879Y0012403D02*
Y0012237D01*
X0006824Y0012209D01*
X0006768D01*
X0006712Y0012237D01*
Y0012403D01*
X0006768Y0012431D01*
X0006824D01*
X0007046Y0012320D01*
X0006879Y0007237D02*
Y0007403D01*
X0006935Y0007431D01*
X0006990D01*
X0007046Y0007403D01*
Y0007237D01*
X0006990Y0007209D01*
X0006935D01*
X0006712Y0007320D01*
X-0054610Y0002209D02*
X-0054388D01*
X-0054499Y0002320D02*
Y0002097D01*
X-0054666Y0001910D02*
X-0054333D01*
X-0054388Y0001854D01*
X-0054610Y0001743D01*
X-0054666Y0001687D01*
X-0054333D01*
Y0001500D02*
Y0001389D01*
Y0001444D02*
X-0054666D01*
Y0001500D02*
Y0001389D01*
X-0054832Y0002591D02*
Y0002480D01*
Y0002535D02*
X-0055166D01*
X-0055110Y0002480D01*
X-0055166Y0002237D02*
X-0054832D01*
X-0054888Y0002181D01*
X-0055110Y0002070D01*
X-0055166Y0002014D01*
X-0054832D01*
Y0001632D02*
X-0054888Y0001604D01*
X-0055110D01*
X-0055166Y0001632D01*
Y0001799D01*
X-0055110Y0001827D01*
X-0054888D01*
X-0054832Y0001799D01*
Y0001632D01*
X-0054888Y0001417D02*
X-0054832Y0001389D01*
Y0001222D01*
X-0054888Y0001194D01*
X-0055110D01*
X-0055166Y0001222D01*
Y0001389D01*
X-0055110Y0001417D01*
X-0008523Y-0001340D02*
X-0008412D01*
X-0008467D02*
Y-0001673D01*
X-0008412Y-0001617D01*
X-0007946Y-0001506D02*
X-0008113D01*
X-0008168Y-0001562D01*
Y-0001617D01*
X-0008113Y-0001673D01*
X-0007946D01*
Y-0001340D01*
X-0011211Y-0002264D02*
Y-0001986D01*
X-0011183Y-0001931D01*
X-0011016D01*
X-0010989Y-0001986D01*
Y-0002264D01*
X-0010718Y-0002097D02*
X-0010801Y-0001931D01*
X-0010579Y-0002097D02*
X-0010745D01*
X-0010801Y-0002153D01*
Y-0002209D01*
X-0010745Y-0002264D01*
X-0010579D01*
Y-0001931D01*
X-0010196D02*
Y-0002264D01*
X-0010169Y-0001931D02*
X-0010335D01*
X-0010391Y-0001986D01*
Y-0002042D01*
X-0010363Y-0002097D01*
X-0010196D02*
X-0010363D01*
X-0010391Y-0002153D01*
Y-0002209D01*
X-0010335Y-0002264D01*
X-0010169D01*
X-0009981Y-0002042D02*
X-0009759D01*
X-0009870Y-0002264D01*
X-0009925D01*
Y-0001931D01*
X-0009571D02*
X-0009460D01*
X-0009515D02*
Y-0002264D01*
X-0009460Y-0002209D01*
X-0009050Y-0001931D02*
X-0009217Y-0002264D01*
X-0008994D01*
X-0008695Y-0002097D02*
X-0008807D01*
Y-0001986D01*
X-0008779Y-0001931D01*
X-0008612D01*
X-0008584Y-0001986D01*
Y-0002209D01*
X-0008612Y-0002264D01*
X-0008779D01*
X-0008807Y-0002209D01*
X-0008202Y-0001931D02*
Y-0002264D01*
X-0008174Y-0001931D02*
X-0008341D01*
X-0008397Y-0002042D01*
Y-0002153D01*
X-0008341Y-0002264D01*
X-0008174D01*
X-0007987Y-0002042D02*
X-0007764D01*
X-0007987Y-0001931D02*
Y-0002097D01*
X-0007903Y-0002264D01*
X-0007848D01*
X-0007764Y-0002097D01*
Y-0001931D01*
X-0053499Y0021320D02*
Y0021097D01*
X-0053666Y0020910D02*
X-0053333D01*
X-0053388Y0020854D01*
X-0053610Y0020743D01*
X-0053666Y0020687D01*
X-0053333D01*
Y0020500D02*
Y0020389D01*
Y0020444D02*
X-0053666D01*
Y0020500D02*
Y0020389D01*
X-0053832Y0021591D02*
Y0021480D01*
Y0021535D02*
X-0054166D01*
X-0054110Y0021480D01*
X-0054166Y0021237D02*
X-0053832D01*
X-0053888Y0021181D01*
X-0054110Y0021070D01*
X-0054166Y0021014D01*
X-0053832D01*
Y0020632D02*
X-0053888Y0020604D01*
X-0054110D01*
X-0054166Y0020632D01*
Y0020799D01*
X-0054110Y0020827D01*
X-0053888D01*
X-0053832Y0020799D01*
Y0020632D01*
X-0053888Y0020417D02*
X-0053832Y0020389D01*
Y0020222D01*
X-0053888Y0020194D01*
X-0054110D01*
X-0054166Y0020222D01*
Y0020389D01*
X-0054110Y0020417D01*
X-0057544Y0014572D02*
X-0057210D01*
X-0057266Y0014516D01*
X-0057488Y0014405D01*
X-0057544Y0014350D01*
X-0057210D01*
Y0014162D02*
Y0014051D01*
Y0014107D02*
X-0057544D01*
Y0014162D02*
Y0014051D01*
X-0057099Y0013808D02*
Y0013585D01*
X-0057210Y0013203D02*
X-0057266Y0013175D01*
X-0057488D01*
X-0057544Y0013203D01*
Y0013370D01*
X-0057488Y0013398D01*
X-0057266D01*
X-0057210Y0013370D01*
Y0013203D01*
X-0057544Y0012988D02*
X-0057210D01*
X-0057266Y0012932D01*
X-0057488Y0012821D01*
X-0057544Y0012765D01*
X-0057210D01*
Y0012578D02*
Y0012467D01*
Y0012522D02*
X-0057544D01*
Y0012578D02*
Y0012467D01*
Y0012223D02*
X-0057266D01*
X-0057210Y0012196D01*
Y0012029D01*
X-0057266Y0012001D01*
X-0057544D01*
X-0057210Y0011619D02*
X-0057544D01*
X-0057210Y0011591D02*
Y0011758D01*
X-0057322Y0011813D01*
X-0057433D01*
X-0057544Y0011758D01*
Y0011591D01*
X-0057377Y0011320D02*
X-0057210Y0011403D01*
X-0057377Y0011181D02*
Y0011348D01*
X-0057433Y0011403D01*
X-0057488D01*
X-0057544Y0011348D01*
Y0011181D01*
X-0057210D01*
X-0057322Y0010993D02*
Y0010771D01*
X-0057210Y0010993D02*
X-0057377D01*
X-0057544Y0010910D01*
Y0010854D01*
X-0057377Y0010771D01*
X-0057210D01*
X-0055752Y0013766D02*
X-0055585Y0013850D01*
X-0055752Y0013627D02*
Y0013794D01*
X-0055808Y0013850D01*
X-0055863D01*
X-0055919Y0013794D01*
Y0013627D01*
X-0055585D01*
X-0055752Y0013384D02*
Y0013217D01*
X-0055585Y0013440D02*
Y0013217D01*
X-0055919D01*
Y0013440D01*
X-0055585Y0012835D02*
X-0055919D01*
X-0055585Y0012807D02*
Y0012974D01*
X-0055697Y0013030D01*
X-0055808D01*
X-0055919Y0012974D01*
Y0012807D01*
X-0055697Y0012620D02*
Y0012397D01*
X-0055585Y0012620D02*
X-0055752D01*
X-0055919Y0012536D01*
Y0012481D01*
X-0055752Y0012397D01*
X-0055585D01*
X-0055752Y0012154D02*
Y0011987D01*
X-0055585Y0012210D02*
Y0011987D01*
X-0055919D01*
Y0012210D01*
X-0055752Y0011800D02*
Y0011577D01*
X-0055585Y0011800D02*
X-0055919D01*
X-0055585Y0011577D02*
X-0055919D01*
X-0055752Y0010827D02*
X-0055808Y0010855D01*
X-0055863D01*
X-0055919Y0010827D01*
Y0010660D01*
X-0055863Y0010632D01*
X-0055808D01*
X-0055752Y0010660D01*
Y0010827D01*
X-0055697Y0010855D01*
X-0055641D01*
X-0055585Y0010827D01*
Y0010660D01*
X-0055641Y0010632D01*
X-0055697D01*
X-0055752Y0010660D01*
X-0058189Y0007215D02*
Y0007327D01*
X-0058078D01*
X-0058022Y0007299D01*
Y0007132D01*
X-0058078Y0007104D01*
X-0058300D01*
X-0058356Y0007132D01*
Y0007299D01*
X-0058300Y0007327D01*
X-0058356Y0006917D02*
X-0058078D01*
X-0058022Y0006889D01*
Y0006722D01*
X-0058078Y0006694D01*
X-0058356D01*
X-0058022Y0006507D02*
Y0006312D01*
X-0058356D01*
X-0058189Y0005902D02*
Y0006069D01*
X-0058245Y0006124D01*
X-0058300D01*
X-0058356Y0006069D01*
Y0005902D01*
X-0058022D01*
X-0061962Y0008235D02*
Y0008124D01*
Y0008180D02*
X-0062296D01*
X-0062240Y0008124D01*
X-0047513Y-0007660D02*
X-0047736D01*
X-0047513Y-0007438D01*
Y-0007382D01*
X-0047541Y-0007327D01*
X-0047708D01*
X-0047736Y-0007382D01*
X-0048146Y-0007494D02*
X-0047979D01*
X-0047923Y-0007438D01*
Y-0007382D01*
X-0047979Y-0007327D01*
X-0048146D01*
Y-0007660D01*
X0003210Y0006893D02*
X0003544D01*
Y0006782D02*
Y0007004D01*
Y0007192D02*
X0003266D01*
X0003210Y0007220D01*
Y0007387D01*
X0003266Y0007414D01*
X0003544D01*
X0003210Y0007797D02*
X0003266Y0007824D01*
X0003488D01*
X0003544Y0007797D01*
Y0007630D01*
X0003488Y0007602D01*
X0003266D01*
X0003210Y0007630D01*
Y0007797D01*
X0003099Y0008012D02*
Y0008234D01*
X0003210Y0008533D02*
X0003377D01*
X0003544Y0008422D02*
X0003377Y0008505D01*
Y0008561D01*
X0003544Y0008644D01*
X0003488Y0008832D02*
X0003544Y0008860D01*
Y0009027D01*
X0003488Y0009054D01*
X0003433D01*
X0003377Y0009027D01*
Y0008860D01*
X0003322Y0008832D01*
X0003266D01*
X0003210Y0008860D01*
Y0009027D01*
X0003266Y0009054D01*
X0003210Y0009242D02*
Y0009353D01*
Y0009298D02*
X0003544D01*
Y0009242D02*
Y0009353D01*
X0003322Y0009596D02*
Y0009819D01*
X0003210Y0009596D02*
X0003377D01*
X0003544Y0009680D01*
Y0009735D01*
X0003377Y0009819D01*
X0003210D01*
Y0010201D02*
X0003544D01*
X0003210Y0010229D02*
Y0010062D01*
X0003322Y0010006D01*
X0003433D01*
X0003544Y0010062D01*
Y0010229D01*
X0001752Y0007234D02*
X0001585Y0007150D01*
X0001752Y0007373D02*
Y0007206D01*
X0001808Y0007150D01*
X0001863D01*
X0001919Y0007206D01*
Y0007373D01*
X0001585D01*
X0001752Y0007616D02*
Y0007783D01*
X0001585Y0007560D02*
Y0007783D01*
X0001919D01*
Y0007560D01*
X0001585Y0008165D02*
X0001919D01*
X0001585Y0008193D02*
Y0008026D01*
X0001697Y0007970D01*
X0001808D01*
X0001919Y0008026D01*
Y0008193D01*
X0001697Y0008380D02*
Y0008603D01*
X0001585Y0008380D02*
X0001752D01*
X0001919Y0008464D01*
Y0008519D01*
X0001752Y0008603D01*
X0001585D01*
X0001752Y0008846D02*
Y0009013D01*
X0001585Y0008790D02*
Y0009013D01*
X0001919D01*
Y0008790D01*
X0001752Y0009200D02*
Y0009423D01*
X0001585Y0009200D02*
X0001919D01*
X0001585Y0009423D02*
X0001919D01*
X0001752Y0010173D02*
X0001808Y0010145D01*
X0001863D01*
X0001919Y0010173D01*
Y0010340D01*
X0001863Y0010368D01*
X0001808D01*
X0001752Y0010340D01*
Y0010173D01*
X0001697Y0010145D01*
X0001641D01*
X0001585Y0010173D01*
Y0010340D01*
X0001641Y0010368D01*
X0001697D01*
X0001752Y0010340D01*
X-0027450Y0025299D02*
X-0027339D01*
X-0027394D02*
Y0024966D01*
X-0027339Y0025021D01*
X-0026901Y0025188D02*
Y0025244D01*
X-0026929Y0025299D01*
X-0027040D01*
X-0027068Y0025244D01*
Y0024966D01*
X-0027096D02*
X-0026984D01*
X-0032481Y0026383D02*
X-0032565Y0026549D01*
X-0032342Y0026383D02*
X-0032509D01*
X-0032565Y0026327D01*
Y0026271D01*
X-0032509Y0026216D01*
X-0032342D01*
Y0026549D01*
X-0032155Y0026383D02*
X-0031932D01*
X-0031578Y0026549D02*
X-0031745Y0026216D01*
X-0031522D01*
X-0031112Y0026494D02*
X-0031168Y0026549D01*
X-0031279D01*
X-0031335Y0026494D01*
Y0026438D01*
X-0031223Y0026327D01*
X-0031335Y0026216D01*
X-0031112D01*
X-0030195Y0026549D02*
Y0026216D01*
X-0030167Y0026549D02*
X-0030334D01*
X-0030390Y0026494D01*
Y0026438D01*
X-0030362Y0026383D01*
X-0030195D02*
X-0030362D01*
X-0030390Y0026327D01*
Y0026271D01*
X-0030334Y0026216D01*
X-0030167D01*
X-0029980D02*
Y0026494D01*
X-0029952Y0026549D01*
X-0029785D01*
X-0029757Y0026494D01*
Y0026216D01*
X-0029570Y0026271D02*
X-0029542Y0026216D01*
X-0029375D01*
X-0029347Y0026271D01*
Y0026327D01*
X-0029375Y0026383D01*
X-0029542D01*
X-0029570Y0026438D01*
Y0026494D01*
X-0029542Y0026549D01*
X-0029375D01*
X-0029347Y0026494D01*
X-0028965Y0026549D02*
Y0026216D01*
X-0028937Y0026549D02*
X-0029104D01*
X-0029160Y0026438D01*
Y0026327D01*
X-0029104Y0026216D01*
X-0028937D01*
X-0028215D02*
Y0026549D01*
X-0028159Y0026494D01*
X-0028048Y0026271D01*
X-0027992Y0026216D01*
Y0026549D01*
X-0027805Y0026216D02*
Y0026549D01*
X-0027749Y0026494D01*
X-0027638Y0026271D01*
X-0027582Y0026216D01*
Y0026549D01*
X-0027200D02*
X-0027172Y0026494D01*
Y0026271D01*
X-0027200Y0026216D01*
X-0027367D01*
X-0027395Y0026271D01*
Y0026494D01*
X-0027367Y0026549D01*
X-0027200D01*
X-0026985Y0026494D02*
X-0026957Y0026549D01*
X-0026790D01*
X-0026762Y0026494D01*
Y0026271D01*
X-0026790Y0026216D01*
X-0026957D01*
X-0026985Y0026271D01*
X-0015602Y0027737D02*
Y0027404D01*
X-0015713D02*
X-0015491D01*
X-0015303Y0027737D02*
X-0015137Y0027571D01*
X-0015303Y0027404D01*
X-0015081D02*
Y0027737D01*
X-0014893Y0027459D02*
X-0014865Y0027404D01*
X-0014699D01*
X-0014671Y0027459D01*
Y0027515D01*
X-0014699Y0027571D01*
X-0014865D01*
X-0014893Y0027626D01*
Y0027682D01*
X-0014865Y0027737D01*
X-0014699D01*
X-0014671Y0027682D01*
X-0017115Y0034297D02*
X-0017004D01*
X-0017060D02*
Y0033964D01*
X-0017004Y0034020D01*
X-0017553Y0033047D02*
X-0017498Y0032992D01*
X-0017470Y0032936D01*
Y0032825D01*
X-0017498Y0032769D01*
X-0017553Y0032714D01*
X-0017609D01*
X-0017664Y0032769D01*
X-0017692Y0032825D01*
Y0032936D01*
X-0017664Y0032992D01*
X-0017609Y0033047D01*
X-0017553D01*
X-0017282D02*
X-0017060D01*
X-0017282Y0032825D01*
Y0032769D01*
X-0017254Y0032714D01*
X-0017088D01*
X-0017060Y0032769D01*
X-0039109Y0034006D02*
X-0038942D01*
X-0038914Y0033950D01*
Y0033895D01*
X-0038942Y0033839D01*
X-0039109D01*
X-0039136Y0033895D01*
Y0033950D01*
X-0039025Y0034172D01*
X-0038726D02*
X-0038615D01*
X-0038671D02*
Y0033839D01*
X-0038615Y0033895D01*
X-0038525Y0033047D02*
X-0038692Y0032714D01*
X-0038470D01*
X-0038060Y0032992D02*
X-0038115Y0033047D01*
X-0038226D01*
X-0038282Y0032992D01*
Y0032936D01*
X-0038171Y0032825D01*
X-0038282Y0032714D01*
X-0038060D01*
X0004189Y0013784D02*
Y0013673D01*
X0004078D01*
X0004022Y0013701D01*
Y0013868D01*
X0004078Y0013896D01*
X0004300D01*
X0004356Y0013868D01*
Y0013701D01*
X0004300Y0013673D01*
X0004356Y0014083D02*
X0004078D01*
X0004022Y0014111D01*
Y0014278D01*
X0004078Y0014306D01*
X0004356D01*
X0004022Y0014493D02*
Y0014688D01*
X0004356D01*
X0004189Y0015098D02*
Y0014931D01*
X0004245Y0014875D01*
X0004300D01*
X0004356Y0014931D01*
Y0015098D01*
X0004022D01*
X-0062018Y0014069D02*
X-0061962Y0014097D01*
Y0014263D01*
X-0062018Y0014291D01*
X-0062129D01*
X-0062185Y0014235D01*
Y0014069D01*
X-0062296D01*
Y0014291D01*
X-0056500Y0002500D02*
X-0055500D01*
Y0001500D01*
X-0056500D01*
Y0002500D01*
X-0055500Y0021500D02*
X-0054500D01*
Y0020500D01*
X-0055500D01*
Y0021500D01*
X-0014060Y0034755D02*
Y0027005D01*
X-0016935D01*
Y0024755D01*
X-0038685D01*
Y0027005D01*
X-0041560D01*
Y0034755D01*
X-0014060D01*
X-0010217Y-0000692D02*
X-0006967D01*
Y-0002192D01*
X-0010217D01*
Y-0000692D01*
X-0007217Y-0002192D02*
Y-0000692D01*
X-0045875Y-0008308D02*
X-0049125D01*
Y-0006808D01*
X-0045875D01*
Y-0008308D01*
X-0048875Y-0006808D02*
Y-0008308D01*
X-0010625Y0013992D02*
X-0007375D01*
Y0012492D01*
X-0010625D01*
Y0013992D01*
X-0007625Y0012492D02*
Y0013992D01*
X-0010823Y0029190D02*
X-0007573D01*
Y0027690D01*
X-0010823D01*
Y0029190D01*
X-0007823Y0027690D02*
Y0029190D01*
X-0044455Y0022692D02*
X-0047705D01*
Y0024192D01*
X-0044455D01*
Y0022692D01*
X-0047455Y0024192D02*
Y0022692D01*
X0003630Y0015945D02*
X0008755D01*
Y0003695D01*
X0003630D01*
Y0006320D01*
X0001380D01*
Y0013320D01*
X0003630D01*
Y0015945D01*
X-0057630Y0005055D02*
X-0062755D01*
Y0017305D01*
X-0057630D01*
Y0014680D01*
X-0055380D01*
Y0007680D01*
X-0057630D01*
Y0005055D01*
G54D28*
G01X-0052654Y-0008667D02*
X-0052877D01*
X-0052654Y-0008445D01*
Y-0008389D01*
X-0052682Y-0008334D01*
X-0052849D01*
X-0052877Y-0008389D01*
X-0053108Y-0008501D02*
X-0053024Y-0008667D01*
X-0053247Y-0008501D02*
X-0053080D01*
X-0053024Y-0008445D01*
Y-0008389D01*
X-0053080Y-0008334D01*
X-0053247D01*
Y-0008667D01*
X-0052618Y-0009556D02*
X-0052673D01*
X-0052507Y-0009667D02*
X-0052618Y-0009556D01*
X-0052507Y-0009445D01*
X-0052673Y-0009667D02*
Y-0009334D01*
X-0052988Y-0009667D02*
X-0053043Y-0009612D01*
X-0053071Y-0009556D01*
Y-0009445D01*
X-0053043Y-0009390D01*
X-0052988Y-0009334D01*
X-0052932D01*
X-0052877Y-0009390D01*
X-0052849Y-0009445D01*
Y-0009556D01*
X-0052877Y-0009612D01*
X-0052932Y-0009667D01*
X-0052988D01*
X-0053219D02*
X-0053330D01*
X-0053274D02*
Y-0009334D01*
X-0053330Y-0009390D01*
X-0003877Y0016388D02*
X-0003821Y0016333D01*
X-0003710D01*
X-0003654Y0016388D01*
Y0016444D01*
X-0003766Y0016555D01*
X-0003654Y0016666D01*
X-0003877D01*
X-0004108Y0016499D02*
X-0004024Y0016333D01*
X-0004247Y0016499D02*
X-0004080D01*
X-0004024Y0016555D01*
Y0016610D01*
X-0004080Y0016666D01*
X-0004247D01*
Y0016333D01*
X-0003618Y0015444D02*
X-0003673D01*
X-0003507Y0015332D02*
X-0003618Y0015444D01*
X-0003507Y0015555D01*
X-0003673Y0015332D02*
Y0015666D01*
X-0003988Y0015332D02*
X-0004043Y0015388D01*
X-0004071Y0015444D01*
Y0015555D01*
X-0004043Y0015610D01*
X-0003988Y0015666D01*
X-0003932D01*
X-0003877Y0015610D01*
X-0003849Y0015555D01*
Y0015444D01*
X-0003877Y0015388D01*
X-0003932Y0015332D01*
X-0003988D01*
X-0004219D02*
X-0004330D01*
X-0004274D02*
Y0015666D01*
X-0004330Y0015610D01*
X-0005345Y0028556D02*
X-0005123D01*
X-0005234Y0028334D01*
X-0005290D01*
Y0028667D01*
X-0004892Y0028501D02*
X-0004975Y0028667D01*
X-0004753Y0028501D02*
X-0004920D01*
X-0004975Y0028445D01*
Y0028389D01*
X-0004920Y0028334D01*
X-0004753D01*
Y0028667D01*
X-0005382Y0029556D02*
X-0005326D01*
X-0005493Y0029667D02*
X-0005382Y0029556D01*
X-0005493Y0029445D01*
X-0005326Y0029667D02*
Y0029334D01*
X-0005012Y0029667D02*
X-0004956Y0029612D01*
X-0004929Y0029556D01*
Y0029445D01*
X-0004956Y0029390D01*
X-0005012Y0029334D01*
X-0005068D01*
X-0005123Y0029390D01*
X-0005151Y0029445D01*
Y0029556D01*
X-0005123Y0029612D01*
X-0005068Y0029667D01*
X-0005012D01*
X-0004781D02*
X-0004670D01*
X-0004725D02*
Y0029334D01*
X-0004670Y0029390D01*
X-0049877Y0022388D02*
X-0049849Y0022333D01*
X-0049682D01*
X-0049654Y0022388D01*
Y0022499D01*
X-0049710Y0022555D01*
X-0049877D01*
Y0022666D01*
X-0049654D01*
X-0050108Y0022499D02*
X-0050024Y0022333D01*
X-0050247Y0022499D02*
X-0050080D01*
X-0050024Y0022555D01*
Y0022610D01*
X-0050080Y0022666D01*
X-0050247D01*
Y0022333D01*
X-0049618Y0021444D02*
X-0049673D01*
X-0049507Y0021332D02*
X-0049618Y0021444D01*
X-0049507Y0021555D01*
X-0049673Y0021332D02*
Y0021666D01*
X-0049988Y0021332D02*
X-0050043Y0021388D01*
X-0050071Y0021444D01*
Y0021555D01*
X-0050043Y0021610D01*
X-0049988Y0021666D01*
X-0049932D01*
X-0049877Y0021610D01*
X-0049849Y0021555D01*
Y0021444D01*
X-0049877Y0021388D01*
X-0049932Y0021332D01*
X-0049988D01*
X-0050219D02*
X-0050330D01*
X-0050274D02*
Y0021666D01*
X-0050330Y0021610D01*
X-0004220Y0000375D02*
Y-0000375D01*
X-0002620D01*
Y0000375D01*
X-0004220D01*
X-0006220Y0029375D02*
Y0028625D01*
X-0004620D01*
Y0029375D01*
X-0006220D01*
X-0048780Y0021625D02*
Y0022375D01*
X-0050380D01*
Y0021625D01*
X-0048780D01*
X-0051780Y-0009375D02*
Y-0008625D01*
X-0053380D01*
Y-0009375D01*
X-0051780D01*
X-0002780Y0015625D02*
Y0016375D01*
X-0004380D01*
Y0015625D01*
X-0002780D01*
G54D29*
G01X0000432Y0010128D02*
X-0002040Y0012600D01*
G54D10*
X-0040310Y-0010440D03*
X-0015310D03*
X-0040310Y0033440D03*
X-0015310D03*
X0007440Y0014740D03*
Y0004900D03*
X-0061440Y0006260D03*
Y0016100D03*
G54D11*
X-0019090Y-0011000D03*
X-0020180D03*
X-0021270D03*
X-0022360D03*
X-0023450D03*
X-0024540D03*
X-0025630D03*
X-0026720D03*
X-0028900D03*
X-0029990D03*
X-0031080D03*
X-0032170D03*
X-0033260D03*
X-0034350D03*
X-0035440D03*
X-0036530D03*
X-0037620D03*
X-0019635Y-0009880D03*
X-0020725D03*
X-0021815D03*
X-0022905D03*
X-0023995D03*
X-0025085D03*
X-0026175D03*
X-0027265D03*
X-0028355D03*
X-0030535D03*
X-0031625D03*
X-0032715D03*
X-0033805D03*
X-0034895D03*
X-0035985D03*
X-0037075D03*
X-0019090Y0034000D03*
X-0020180D03*
X-0021270D03*
X-0022360D03*
X-0023450D03*
X-0024540D03*
X-0025630D03*
X-0026720D03*
X-0028900D03*
X-0029990D03*
X-0031080D03*
X-0032170D03*
X-0033260D03*
X-0034350D03*
X-0035440D03*
X-0036530D03*
X-0037620D03*
X-0019635Y0032880D03*
X-0020725D03*
X-0021815D03*
X-0022905D03*
X-0023995D03*
X-0025085D03*
X-0026175D03*
X-0027265D03*
X-0028355D03*
X-0030535D03*
X-0031625D03*
X-0032715D03*
X-0033805D03*
X-0034895D03*
X-0035985D03*
X-0037075D03*
X0008000Y0010910D03*
Y0009820D03*
Y0008730D03*
Y0007640D03*
X0006880Y0011455D03*
Y0010365D03*
Y0009275D03*
Y0008185D03*
X-0062000Y0010090D03*
Y0011180D03*
Y0012270D03*
Y0013360D03*
X-0060880Y0009545D03*
Y0010635D03*
Y0011725D03*
Y0012815D03*
G54D12*
X-0018000Y-0011000D03*
X-0027810D03*
X-0018545Y-0009880D03*
X-0029445D03*
X-0018000Y0034000D03*
X-0027810D03*
X-0018545Y0032880D03*
X-0029445D03*
X0008000Y0012000D03*
X-0062000Y0009000D03*
G54D13*
X-0055000Y0021000D03*
X-0056000Y0002000D03*
G54D14*
X-0047232Y0022092D03*
X-0046976D03*
X-0046720D03*
X-0046464D03*
X-0046208D03*
X-0045952D03*
X-0045696D03*
X-0045440D03*
X-0045184D03*
X-0044928D03*
X-0044672D03*
Y0024792D03*
X-0044928D03*
X-0045184D03*
X-0045440D03*
X-0045696D03*
X-0045952D03*
X-0046208D03*
X-0046464D03*
X-0046720D03*
X-0046976D03*
X-0047232D03*
X-0047488D03*
X-0008046Y0029790D03*
X-0008302D03*
X-0008558D03*
X-0008814D03*
X-0009070D03*
X-0009326D03*
X-0009582D03*
X-0009838D03*
X-0010094D03*
X-0010350D03*
X-0010606D03*
Y0027090D03*
X-0010350D03*
X-0010094D03*
X-0009838D03*
X-0009582D03*
X-0009326D03*
X-0009070D03*
X-0008814D03*
X-0008558D03*
X-0008302D03*
X-0008046D03*
X-0007790D03*
X-0007848Y0014592D03*
X-0008104D03*
X-0008360D03*
X-0008616D03*
X-0008872D03*
X-0009128D03*
X-0009384D03*
X-0009640D03*
X-0009896D03*
X-0010152D03*
X-0010408D03*
Y0011892D03*
X-0010152D03*
X-0009896D03*
X-0009640D03*
X-0009384D03*
X-0009128D03*
X-0008872D03*
X-0008616D03*
X-0008360D03*
X-0008104D03*
X-0007848D03*
X-0007592D03*
X-0048652Y-0008908D03*
X-0048396D03*
X-0048140D03*
X-0047884D03*
X-0047628D03*
X-0047372D03*
X-0047116D03*
X-0046860D03*
X-0046604D03*
X-0046348D03*
X-0046092D03*
Y-0006208D03*
X-0046348D03*
X-0046604D03*
X-0046860D03*
X-0047116D03*
X-0047372D03*
X-0047628D03*
X-0047884D03*
X-0048140D03*
X-0048396D03*
X-0048652D03*
X-0048908D03*
X-0007440Y-0000092D03*
X-0007696D03*
X-0007952D03*
X-0008208D03*
X-0008464D03*
X-0008720D03*
X-0008976D03*
X-0009232D03*
X-0009488D03*
X-0009744D03*
X-0010000D03*
Y-0002792D03*
X-0009744D03*
X-0009488D03*
X-0009232D03*
X-0008976D03*
X-0008720D03*
X-0008464D03*
X-0008208D03*
X-0007952D03*
X-0007696D03*
X-0007440D03*
X-0007184D03*
G54D15*
X-0047488Y0022092D03*
X-0007790Y0029790D03*
X-0007592Y0014592D03*
X-0048908Y-0008908D03*
X-0007184Y-0000092D03*
G54D16*
X-0050000Y0022000D03*
X-0049160D03*
X-0005000Y0029000D03*
X-0005840D03*
X-0004000Y0016000D03*
X-0003160D03*
X-0053000Y-0009000D03*
X-0052160D03*
X-0003000Y0000000D03*
X-0003840D03*
M02*
