%
M48
M72
T01C0.0157
T02C0.0197
T03C0.0236
T04C0.0400
T05C0.0790
T06C0.1181
T07C0.1300
%
T01
X5180Y5633
X9580Y11583
X9330Y13483
X5180Y17133
X5030Y19233
X9680Y22383
X8930Y23333
X9430Y24633
X12080Y25183
X12830Y25183
X15630Y25483
X16330Y25183
X15630Y24783
X17730Y25283
X17680Y26683
X16680Y26683
X10180Y26533
X9330Y27783
X8630Y28483
X5030Y31033
X6680Y33033
X7430Y32883
X12380Y30983
X16130Y35833
X16430Y36133
X16730Y35833
X16730Y36433
X16130Y36433
X15430Y36633
X14980Y37133
X14930Y36133
X12680Y37883
X12180Y37383
X12680Y38633
X12180Y40383
X12180Y41133
X12180Y41883
X12180Y42633
X17180Y42633
X17180Y41883
X17180Y41133
X17180Y40383
X17930Y40383
X20930Y40383
X20930Y38383
X18730Y37333
X19180Y37133
X19680Y37133
X18330Y37833
X21930Y36533
X23080Y36533
X23930Y36533
X23930Y35883
X25405Y37008
X25380Y37883
X24680Y37883
X23930Y38133
X23930Y38933
X23180Y39383
X30930Y36383
X31680Y36383
X32680Y36383
X32680Y37133
X32680Y37883
X32680Y38633
X32680Y41883
X32680Y43133
X26430Y32383
X24430Y30883
X29930Y24633
X29930Y23633
X31180Y23633
X32680Y23633
X32680Y24633
X31180Y24633
X19930Y21733
X15980Y20133
X15530Y19333
X15080Y18633
X11980Y19283
X11180Y22633
X29180Y12133
X27930Y11383
X30430Y12133
X31680Y12133
X32680Y12133
X32680Y11133
X32680Y10133
X32680Y7133
X56180Y7133
X58430Y9133
X59180Y9133
X60930Y9133
X64930Y23133
X66430Y23133
X65930Y24383
X64180Y25883
X64180Y27133
X57180Y31633
X56180Y31633
X56180Y32883
X57180Y32883
X57180Y34133
X56180Y34133
X56180Y37133
X57180Y37133
X57180Y38133
X56180Y38133
X56180Y42883
X5180Y40133
T02
X24930Y33133
X27180Y33133
X27180Y31133
X27930Y30383
X28430Y31133
X28930Y30633
X29430Y30133
X29930Y29633
X30930Y29133
X31430Y28633
X31930Y28133
X32430Y27633
X29180Y27633
X27680Y28133
X26930Y27383
X25430Y27633
X26930Y29383
X26930Y25383
X25930Y24633
X27180Y23383
X26680Y22383
X26480Y21883
X27930Y20883
X29180Y20633
X28430Y18883
X28930Y18383
X29430Y17883
X29930Y17383
X30930Y16883
X31430Y16383
X31930Y15883
X32430Y15383
X29180Y15133
X28430Y15133
X27180Y15133
X26680Y16633
X26230Y17833
X26930Y18633
X27430Y18383
X27930Y17883
X25530Y19633
X28680Y24383
X25680Y35133
X26930Y35633
X28930Y36383
X29930Y36383
X56180Y23133
X56680Y23633
X57180Y24133
X57680Y24633
X58680Y25133
X59180Y25633
X59680Y26133
X60180Y26633
X61930Y27883
X62180Y25883
X62680Y25383
X60680Y25133
X59680Y23133
X62430Y22383
X63680Y21383
X64930Y22133
X64680Y20133
X61930Y19383
X61430Y19383
X60570Y20243
X60930Y20883
X61680Y17383
X59430Y17383
X60180Y15633
X59680Y15133
X59180Y14633
X58680Y14133
X57680Y13633
X57180Y13133
X56680Y12633
X56180Y12133
X60430Y11633
X60680Y12633
X62180Y12633
X61680Y13883
X60680Y14133
X62180Y14883
X63180Y11383
X63180Y10633
X64180Y10133
X63680Y9133
X62180Y7633
X54930Y17383
X61180Y30883
X61930Y31383
X63930Y32883
X63430Y33383
X62680Y35383
X62180Y35883
X60680Y35133
X59680Y36133
X59180Y35633
X58680Y35133
X57930Y34633
X59430Y33383
X59180Y31383
X60180Y36633
X27430Y10633
T03
X25730Y10133
X35190Y14133
X36280Y13633
X37360Y13133
X38448Y12631
X39543Y12133
X43340Y15383
X44430Y15883
X45520Y16383
X46600Y16883
X47690Y17383
X48780Y17883
X49865Y18383
X50948Y18881
X52040Y15633
X53120Y15133
X54210Y14633
X58180Y12133
X61680Y10383
X64680Y11633
X63430Y8133
X48238Y23133
X47150Y23633
X46060Y24133
X44970Y24633
X43890Y25131
X42800Y25633
X41710Y26133
X40630Y26633
X36820Y28633
X35740Y28131
X34648Y27633
X37910Y29133
X39000Y29633
X40083Y30133
X41170Y30633
X42260Y31133
X33930Y33383
X30180Y33383
X24930Y35883
X17180Y34883
X16430Y34883
X15430Y34883
X16930Y33133
X11430Y33633
X10180Y33383
X10430Y34883
X7630Y37633
X6880Y37633
X23930Y29133
X24430Y28633
X26180Y26633
X29180Y24633
X27680Y23883
X33930Y20633
X19930Y22483
X16680Y20883
X18430Y25983
X49320Y36631
X50408Y36133
X51500Y35633
X52578Y35131
X53670Y34633
X54930Y38633
X58430Y38633
X60430Y40383
X59680Y40883
X61930Y34383
X60430Y33633
X60430Y32883
X65430Y30383
X63180Y29383
X64180Y28383
X66430Y27633
X66680Y25383
X58430Y28383
X54930Y28383
T04
X65230Y34633
X65280Y40583
X54210Y39884
X53130Y39884
X53670Y40884
X52580Y40884
X51500Y40884
X50410Y40884
X49320Y40884
X48780Y39884
X49870Y39884
X50950Y39884
X52040Y39884
X48240Y40884
X47150Y40884
X46060Y40884
X44970Y40884
X43890Y40884
X44430Y39884
X45520Y39884
X46600Y39884
X47690Y39884
X43340Y39884
X42260Y39884
X41170Y39884
X41710Y40884
X40630Y40884
X39540Y40884
X38450Y40884
X37910Y39884
X39000Y39884
X40080Y39884
X37370Y40884
X36280Y40884
X35190Y40884
X34650Y39884
X35740Y39884
X36820Y39884
X42800Y40884
X22780Y27233
X21780Y27233
X20780Y27233
X20780Y26233
X21780Y26233
X22780Y26233
X22780Y25233
X21780Y25233
X20780Y25233
X20780Y24233
X20780Y23233
X21780Y23233
X22780Y23233
X22780Y24233
X21780Y24233
X21780Y22233
X20780Y22233
X20780Y21233
X21780Y21233
X22780Y21233
X22780Y22233
X10930Y16383
X9930Y16383
X8180Y13543
X7180Y13003
X8180Y12463
X7180Y11923
X8180Y11383
X7180Y10843
X8180Y10303
X7180Y9763
X8180Y9223
X8180Y22974
X7180Y23514
X8180Y24054
X7180Y24594
X8180Y25134
X7180Y25674
X8180Y26214
X7180Y26754
X8180Y27294
X7180Y35133
X7180Y36133
X11430Y36383
X12430Y36383
X10180Y40483
X9180Y40483
X34650Y8883
X35730Y8883
X36820Y8883
X37910Y8883
X38990Y8883
X40080Y8883
X41170Y8883
X42260Y8883
X43340Y8883
X44430Y8883
X45520Y8883
X46600Y8883
X47690Y8883
X48780Y8883
X49860Y8883
X50950Y8883
X52040Y8883
X53120Y8883
X54210Y8883
X53670Y7883
X52580Y7883
X51490Y7883
X50410Y7883
X49320Y7883
X48230Y7883
X47150Y7883
X46060Y7883
X44970Y7883
X43890Y7883
X42800Y7883
X41710Y7883
X40630Y7883
X39540Y7883
X38450Y7883
X37360Y7883
X36280Y7883
X35190Y7883
X67930Y18134
X68930Y18134
X67930Y23224
X68930Y23764
X67930Y24304
X68930Y24844
X67930Y25384
X68930Y25924
X67930Y26464
X68930Y27004
X67930Y27544
T05
X66730Y34633
X66730Y40583
T06
X70430Y42383
X70430Y6133
X10680Y6383
X5680Y42383
T07
X7680Y30064
X7680Y20204
X7680Y16313
X7680Y6453
X31930Y8383
X56930Y8383
X68430Y20454
X68430Y30314
X56930Y40384
X31930Y40384
M30
