G75*
%MOIN*%
%OFA0B0*%
%FSLAX25Y25*%
%IPPOS*%
%LPD*%
%AMOC8*
5,1,8,0,0,1.08239X$1,22.5*
%
%ADD10R,0.01400X0.05800*%
%ADD11R,0.06299X0.05118*%
%ADD12R,0.07800X0.02200*%
%ADD13R,0.05906X0.05118*%
%ADD14R,0.04724X0.02165*%
%ADD15R,0.05118X0.05906*%
%ADD16R,0.02559X0.00787*%
%ADD17C,0.00800*%
%ADD18R,0.05118X0.06299*%
%ADD19R,0.04724X0.04724*%
%ADD20R,0.01378X0.03150*%
%ADD21R,0.03150X0.01378*%
%ADD22R,0.03150X0.03150*%
%ADD23R,0.07874X0.06693*%
%ADD24R,0.10236X0.08661*%
%ADD25R,0.05512X0.03937*%
%ADD26R,0.05433X0.01772*%
%ADD27R,0.08268X0.05807*%
%ADD28R,0.07480X0.09350*%
%ADD29R,0.07480X0.04626*%
%ADD30R,0.03543X0.02756*%
%ADD31R,0.02756X0.03543*%
D10*
X0272698Y0140236D03*
X0275298Y0140236D03*
X0277798Y0140236D03*
X0280398Y0140236D03*
X0282998Y0140236D03*
X0285498Y0140236D03*
X0288098Y0140236D03*
X0290598Y0140236D03*
X0293198Y0140236D03*
X0295798Y0140236D03*
X0298298Y0140236D03*
X0300898Y0140236D03*
X0300898Y0162436D03*
X0298298Y0162436D03*
X0295798Y0162436D03*
X0293198Y0162436D03*
X0290598Y0162436D03*
X0288098Y0162436D03*
X0285498Y0162436D03*
X0282998Y0162436D03*
X0280398Y0162436D03*
X0277798Y0162436D03*
X0275298Y0162436D03*
X0272698Y0162436D03*
X0272702Y0265235D03*
X0275302Y0265235D03*
X0277802Y0265235D03*
X0280402Y0265235D03*
X0283002Y0265235D03*
X0285502Y0265235D03*
X0288102Y0265235D03*
X0290602Y0265235D03*
X0293202Y0265235D03*
X0295802Y0265235D03*
X0298302Y0265235D03*
X0300902Y0265235D03*
X0300902Y0287435D03*
X0298302Y0287435D03*
X0295802Y0287435D03*
X0293202Y0287435D03*
X0290602Y0287435D03*
X0288102Y0287435D03*
X0285502Y0287435D03*
X0283002Y0287435D03*
X0280402Y0287435D03*
X0277802Y0287435D03*
X0275302Y0287435D03*
X0272702Y0287435D03*
X0585202Y0322732D03*
X0587802Y0322732D03*
X0590302Y0322732D03*
X0592902Y0322732D03*
X0595502Y0322732D03*
X0598002Y0322732D03*
X0600602Y0322732D03*
X0603102Y0322732D03*
X0605702Y0322732D03*
X0608302Y0322732D03*
X0610802Y0322732D03*
X0613402Y0322732D03*
X0613402Y0344932D03*
X0610802Y0344932D03*
X0608302Y0344932D03*
X0605702Y0344932D03*
X0603102Y0344932D03*
X0600602Y0344932D03*
X0598002Y0344932D03*
X0595502Y0344932D03*
X0592902Y0344932D03*
X0590302Y0344932D03*
X0587802Y0344932D03*
X0585202Y0344932D03*
X0585202Y0242436D03*
X0587802Y0242436D03*
X0590302Y0242436D03*
X0592902Y0242436D03*
X0595502Y0242436D03*
X0598002Y0242436D03*
X0600602Y0242436D03*
X0603102Y0242436D03*
X0605702Y0242436D03*
X0608302Y0242436D03*
X0610802Y0242436D03*
X0613402Y0242436D03*
X0613402Y0220236D03*
X0610802Y0220236D03*
X0608302Y0220236D03*
X0605702Y0220236D03*
X0603102Y0220236D03*
X0600602Y0220236D03*
X0598002Y0220236D03*
X0595502Y0220236D03*
X0592902Y0220236D03*
X0590302Y0220236D03*
X0587802Y0220236D03*
X0585202Y0220236D03*
X0585201Y0132436D03*
X0587801Y0132436D03*
X0590301Y0132436D03*
X0592901Y0132436D03*
X0595501Y0132436D03*
X0598001Y0132436D03*
X0600601Y0132436D03*
X0603101Y0132436D03*
X0605701Y0132436D03*
X0608301Y0132436D03*
X0610801Y0132436D03*
X0613401Y0132436D03*
X0613401Y0110236D03*
X0610801Y0110236D03*
X0608301Y0110236D03*
X0605701Y0110236D03*
X0603101Y0110236D03*
X0600601Y0110236D03*
X0598001Y0110236D03*
X0595501Y0110236D03*
X0592901Y0110236D03*
X0590301Y0110236D03*
X0587801Y0110236D03*
X0585201Y0110236D03*
D11*
X0629301Y0097576D03*
X0629301Y0090096D03*
X0629298Y0207597D03*
X0629298Y0215077D03*
X0629300Y0315093D03*
X0629300Y0322573D03*
X0195550Y0357345D03*
X0195550Y0364825D03*
X0181800Y0357575D03*
X0181800Y0350095D03*
X0141800Y0340075D03*
X0141800Y0332595D03*
X0069300Y0397595D03*
X0069300Y0405075D03*
X0191800Y0225073D03*
X0191800Y0217593D03*
X0179300Y0215076D03*
X0179300Y0207596D03*
D12*
X0160301Y0206334D03*
X0160301Y0211334D03*
X0160301Y0216334D03*
X0160301Y0221334D03*
X0160301Y0226334D03*
X0160301Y0231334D03*
X0160301Y0236334D03*
X0160301Y0241334D03*
X0160301Y0261333D03*
X0160301Y0266333D03*
X0160301Y0271333D03*
X0160301Y0276333D03*
X0160301Y0281333D03*
X0160301Y0286333D03*
X0160301Y0291333D03*
X0160301Y0296333D03*
X0123301Y0296333D03*
X0123301Y0291333D03*
X0123301Y0286333D03*
X0123301Y0281333D03*
X0123301Y0276333D03*
X0123301Y0271333D03*
X0123301Y0266333D03*
X0123301Y0261333D03*
X0123301Y0241334D03*
X0123301Y0236334D03*
X0123301Y0231334D03*
X0123301Y0226334D03*
X0123301Y0221334D03*
X0123301Y0216334D03*
X0123301Y0211334D03*
X0123301Y0206334D03*
D13*
X0111799Y0237595D03*
X0111799Y0245075D03*
X0101798Y0245075D03*
X0101798Y0237595D03*
X0171798Y0237595D03*
X0171798Y0245075D03*
X0181799Y0245075D03*
X0181799Y0237595D03*
X0181799Y0292594D03*
X0181799Y0300074D03*
X0171798Y0300074D03*
X0171798Y0292594D03*
X0111800Y0292595D03*
X0111800Y0300075D03*
X0101798Y0300074D03*
X0101798Y0292594D03*
X0081800Y0352595D03*
X0081800Y0360075D03*
X0106800Y0357595D03*
X0106800Y0365075D03*
X0133300Y0362595D03*
X0133300Y0370075D03*
X0141800Y0370075D03*
X0141800Y0362595D03*
X0184300Y0385095D03*
X0184300Y0392575D03*
X0194300Y0392575D03*
X0194300Y0385095D03*
X0224300Y0397595D03*
X0224300Y0405075D03*
D14*
X0099418Y0360075D03*
X0099418Y0356335D03*
X0099418Y0352595D03*
X0089180Y0352595D03*
X0089180Y0360075D03*
D15*
X0273061Y0246336D03*
X0280542Y0246336D03*
X0280543Y0121334D03*
X0273062Y0121334D03*
X0608058Y0148832D03*
X0615539Y0148832D03*
X0615542Y0258833D03*
X0608062Y0258833D03*
X0608062Y0358834D03*
X0615542Y0358834D03*
D16*
X0215009Y0388913D03*
X0215009Y0390882D03*
X0215009Y0392850D03*
X0215009Y0394819D03*
X0215009Y0396787D03*
X0215009Y0398756D03*
X0203591Y0398756D03*
X0203591Y0396787D03*
X0203591Y0394819D03*
X0203591Y0392850D03*
X0203591Y0390882D03*
X0203591Y0388913D03*
D17*
X0206544Y0389172D02*
X0212056Y0389172D01*
X0212056Y0388618D02*
X0211367Y0387929D01*
X0207135Y0387929D01*
X0206965Y0387941D01*
X0206807Y0388004D01*
X0206676Y0388113D01*
X0206586Y0388256D01*
X0206544Y0388421D01*
X0206544Y0399248D01*
X0206568Y0399400D01*
X0206638Y0399537D01*
X0206747Y0399646D01*
X0206884Y0399716D01*
X0207036Y0399740D01*
X0211564Y0399740D01*
X0211716Y0399716D01*
X0211853Y0399646D01*
X0211962Y0399537D01*
X0212032Y0399400D01*
X0212056Y0399248D01*
X0212056Y0388618D01*
X0211811Y0388374D02*
X0206556Y0388374D01*
X0206544Y0389971D02*
X0212056Y0389971D01*
X0212056Y0390769D02*
X0206544Y0390769D01*
X0206544Y0391568D02*
X0212056Y0391568D01*
X0212056Y0392366D02*
X0206544Y0392366D01*
X0206544Y0393165D02*
X0212056Y0393165D01*
X0212056Y0393963D02*
X0206544Y0393963D01*
X0206544Y0394762D02*
X0212056Y0394762D01*
X0212056Y0395560D02*
X0206544Y0395560D01*
X0206544Y0396359D02*
X0212056Y0396359D01*
X0212056Y0397157D02*
X0206544Y0397157D01*
X0206544Y0397956D02*
X0212056Y0397956D01*
X0212056Y0398754D02*
X0206544Y0398754D01*
X0206654Y0399553D02*
X0211946Y0399553D01*
D18*
X0185540Y0366335D03*
X0178060Y0366335D03*
X0180540Y0341335D03*
X0173060Y0341335D03*
X0160540Y0341335D03*
X0153060Y0341335D03*
X0150560Y0331335D03*
X0158040Y0331335D03*
X0098040Y0343835D03*
X0090560Y0343835D03*
X0088060Y0333835D03*
X0095540Y0333835D03*
X0095540Y0325585D03*
X0088060Y0325585D03*
X0073040Y0383835D03*
X0065560Y0383835D03*
D19*
X0058434Y0383835D03*
X0050166Y0383835D03*
X0050166Y0406335D03*
X0058434Y0406335D03*
X0058434Y0333835D03*
X0050166Y0333835D03*
X0050166Y0323835D03*
X0058434Y0323835D03*
D20*
X0160461Y0353461D03*
X0163020Y0353461D03*
X0165580Y0353461D03*
X0168139Y0353461D03*
X0168139Y0369209D03*
X0165580Y0369209D03*
X0163020Y0369209D03*
X0160461Y0369209D03*
D21*
X0156426Y0365173D03*
X0156426Y0362614D03*
X0156426Y0360055D03*
X0156426Y0357496D03*
X0172174Y0357496D03*
X0172174Y0360055D03*
X0172174Y0362614D03*
X0172174Y0365173D03*
D22*
X0166662Y0363697D03*
X0161938Y0363697D03*
X0161938Y0358973D03*
X0166662Y0358973D03*
D23*
X0158611Y0411335D03*
X0134989Y0411335D03*
D24*
X0149457Y0383835D03*
X0169143Y0383835D03*
X0209457Y0376335D03*
X0229143Y0376335D03*
D25*
X0133631Y0340075D03*
X0124969Y0336335D03*
X0133631Y0332595D03*
D26*
X0062300Y0351217D03*
X0062300Y0353776D03*
X0062300Y0356335D03*
X0062300Y0358894D03*
X0062300Y0361453D03*
D27*
X0060883Y0366030D03*
X0060883Y0346640D03*
D28*
X0051828Y0344868D03*
X0051828Y0367801D03*
D29*
X0051828Y0359563D03*
X0051828Y0352988D03*
D30*
X0094800Y0291394D03*
X0094800Y0286276D03*
X0094300Y0238894D03*
X0094300Y0233776D03*
X0097800Y0216394D03*
X0097800Y0211276D03*
D31*
X0092741Y0092335D03*
X0097859Y0092335D03*
X0097859Y0100335D03*
X0092741Y0100335D03*
X0092741Y0106335D03*
X0097859Y0106335D03*
X0098359Y0120335D03*
X0093241Y0120335D03*
X0093241Y0129835D03*
X0098359Y0129835D03*
X0097241Y0139835D03*
X0102359Y0139835D03*
X0102359Y0145335D03*
X0097241Y0145335D03*
X0108741Y0221335D03*
X0113859Y0221335D03*
X0112359Y0254335D03*
X0107241Y0254335D03*
X0101859Y0259335D03*
X0096741Y0259335D03*
X0101741Y0281835D03*
X0106859Y0281835D03*
M02*
