G75*
%MOIN*%
%OFA0B0*%
%FSLAX25Y25*%
%IPPOS*%
%LPD*%
%AMOC8*
5,1,8,0,0,1.08239X$1,22.5*
%
%ADD10C,0.00400*%
%ADD11C,0.00700*%
%ADD12C,0.01200*%
%ADD13C,0.02000*%
%ADD14C,0.00800*%
%ADD15C,0.00900*%
%ADD16C,0.01100*%
%ADD17C,0.00600*%
%ADD18C,0.00500*%
%ADD19R,0.03000X0.73000*%
%ADD20R,0.02000X1.22000*%
%ADD21R,0.28500X0.03200*%
%ADD22R,0.18500X0.03200*%
%ADD23C,0.00300*%
%ADD24R,2.25000X0.03000*%
%ADD25R,2.74000X0.02000*%
%ADD26R,0.03200X0.28500*%
%ADD27R,0.03200X0.18500*%
%ADD28R,0.01000X0.09500*%
%ADD29R,0.04000X0.06500*%
%ADD30C,0.00000*%
%ADD31C,0.01000*%
%ADD32C,0.00200*%
%ADD33C,0.00250*%
%ADD34C,0.00984*%
%ADD35R,0.01772X0.01673*%
D10*
X0267795Y0127801D02*
X0268562Y0127034D01*
X0270096Y0127034D01*
X0270864Y0127801D01*
X0272398Y0127801D02*
X0272398Y0127034D01*
X0272398Y0127801D02*
X0275468Y0130871D01*
X0275468Y0131638D01*
X0272398Y0131638D01*
X0270864Y0130871D02*
X0270096Y0131638D01*
X0268562Y0131638D01*
X0267795Y0130871D01*
X0267795Y0127801D01*
X0181300Y0190696D02*
X0176696Y0190696D01*
X0176696Y0192998D01*
X0177463Y0193765D01*
X0178998Y0193765D01*
X0179765Y0192998D01*
X0179765Y0190696D01*
X0179765Y0192231D02*
X0181300Y0193765D01*
X0181300Y0195300D02*
X0178231Y0198369D01*
X0177463Y0198369D01*
X0176696Y0197602D01*
X0176696Y0196067D01*
X0177463Y0195300D01*
X0181300Y0195300D02*
X0181300Y0198369D01*
X0178998Y0199904D02*
X0178998Y0202973D01*
X0176696Y0202206D02*
X0178998Y0199904D01*
X0181300Y0202206D02*
X0176696Y0202206D01*
X0189556Y0202635D02*
X0190323Y0203402D01*
X0191858Y0203402D01*
X0192625Y0202635D01*
X0192625Y0200333D01*
X0192625Y0201868D02*
X0194160Y0203402D01*
X0194160Y0204937D02*
X0191091Y0208006D01*
X0190323Y0208006D01*
X0189556Y0207239D01*
X0189556Y0205704D01*
X0190323Y0204937D01*
X0189556Y0202635D02*
X0189556Y0200333D01*
X0194160Y0200333D01*
X0194160Y0204937D02*
X0194160Y0208006D01*
X0193393Y0209541D02*
X0194160Y0210308D01*
X0194160Y0211843D01*
X0193393Y0212610D01*
X0192625Y0212610D01*
X0191858Y0211843D01*
X0191858Y0211075D01*
X0191858Y0211843D02*
X0191091Y0212610D01*
X0190323Y0212610D01*
X0189556Y0211843D01*
X0189556Y0210308D01*
X0190323Y0209541D01*
X0235000Y0213638D02*
X0237402Y0213638D01*
X0236201Y0213638D02*
X0236201Y0210035D01*
X0238683Y0210635D02*
X0239284Y0210035D01*
X0240485Y0210035D01*
X0241085Y0210635D01*
X0241085Y0211236D01*
X0240485Y0211836D01*
X0239284Y0211836D01*
X0238683Y0212437D01*
X0238683Y0213037D01*
X0239284Y0213638D01*
X0240485Y0213638D01*
X0241085Y0213037D01*
X0242366Y0213638D02*
X0244768Y0213638D01*
X0243567Y0213638D02*
X0243567Y0210035D01*
X0246049Y0210035D02*
X0248451Y0212437D01*
X0248451Y0213037D01*
X0247851Y0213638D01*
X0246650Y0213638D01*
X0246049Y0213037D01*
X0246049Y0210035D02*
X0248451Y0210035D01*
X0243567Y0220035D02*
X0243567Y0223638D01*
X0242366Y0223638D02*
X0244768Y0223638D01*
X0241085Y0223037D02*
X0240485Y0223638D01*
X0239284Y0223638D01*
X0238683Y0223037D01*
X0238683Y0222437D01*
X0239284Y0221836D01*
X0240485Y0221836D01*
X0241085Y0221236D01*
X0241085Y0220635D01*
X0240485Y0220035D01*
X0239284Y0220035D01*
X0238683Y0220635D01*
X0237402Y0220035D02*
X0236201Y0221236D01*
X0236802Y0221236D02*
X0235000Y0221236D01*
X0235000Y0220035D02*
X0235000Y0223638D01*
X0236802Y0223638D01*
X0237402Y0223037D01*
X0237402Y0221836D01*
X0236802Y0221236D01*
X0236802Y0230535D02*
X0235601Y0230535D01*
X0235000Y0231135D01*
X0235601Y0232336D02*
X0236802Y0232336D01*
X0237402Y0231736D01*
X0237402Y0231135D01*
X0236802Y0230535D01*
X0238683Y0231135D02*
X0238683Y0233537D01*
X0239284Y0234138D01*
X0240485Y0234138D01*
X0241085Y0233537D01*
X0242366Y0234138D02*
X0242366Y0230535D01*
X0244768Y0230535D01*
X0246049Y0230535D02*
X0246049Y0234138D01*
X0246650Y0232336D02*
X0248451Y0230535D01*
X0246049Y0231736D02*
X0248451Y0234138D01*
X0241085Y0231135D02*
X0240485Y0230535D01*
X0239284Y0230535D01*
X0238683Y0231135D01*
X0237402Y0233537D02*
X0236802Y0234138D01*
X0235601Y0234138D01*
X0235000Y0233537D01*
X0235000Y0232937D01*
X0235601Y0232336D01*
X0235500Y0241035D02*
X0237302Y0241035D01*
X0237902Y0241635D01*
X0237902Y0244037D01*
X0237302Y0244638D01*
X0235500Y0244638D01*
X0235500Y0241035D01*
X0239183Y0241035D02*
X0240384Y0241035D01*
X0239784Y0241035D02*
X0239784Y0244638D01*
X0240384Y0244638D02*
X0239183Y0244638D01*
X0241639Y0244638D02*
X0244041Y0241035D01*
X0244041Y0244638D01*
X0245322Y0242836D02*
X0247724Y0242836D01*
X0241639Y0241035D02*
X0241639Y0244638D01*
X0241139Y0251035D02*
X0241139Y0254638D01*
X0243541Y0251035D01*
X0243541Y0254638D01*
X0244822Y0252836D02*
X0247224Y0252836D01*
X0246023Y0254037D02*
X0246023Y0251635D01*
X0239884Y0251035D02*
X0238683Y0251035D01*
X0239284Y0251035D02*
X0239284Y0254638D01*
X0239884Y0254638D02*
X0238683Y0254638D01*
X0237402Y0254037D02*
X0237402Y0251635D01*
X0236802Y0251035D01*
X0235000Y0251035D01*
X0235000Y0254638D01*
X0236802Y0254638D01*
X0237402Y0254037D01*
X0236802Y0260535D02*
X0235601Y0260535D01*
X0235000Y0261135D01*
X0235601Y0262336D02*
X0236802Y0262336D01*
X0237402Y0261736D01*
X0237402Y0261135D01*
X0236802Y0260535D01*
X0235601Y0262336D02*
X0235000Y0262937D01*
X0235000Y0263537D01*
X0235601Y0264138D01*
X0236802Y0264138D01*
X0237402Y0263537D01*
X0238683Y0263537D02*
X0238683Y0264138D01*
X0238683Y0263537D02*
X0239884Y0262336D01*
X0239884Y0260535D01*
X0239884Y0262336D02*
X0241085Y0263537D01*
X0241085Y0264138D01*
X0242366Y0264138D02*
X0244768Y0260535D01*
X0244768Y0264138D01*
X0246049Y0263537D02*
X0246049Y0261135D01*
X0246650Y0260535D01*
X0247851Y0260535D01*
X0248451Y0261135D01*
X0248451Y0263537D02*
X0247851Y0264138D01*
X0246650Y0264138D01*
X0246049Y0263537D01*
X0242366Y0264138D02*
X0242366Y0260535D01*
X0243567Y0270535D02*
X0244768Y0271736D01*
X0244768Y0274138D01*
X0242366Y0274138D02*
X0242366Y0271736D01*
X0243567Y0270535D01*
X0241085Y0271135D02*
X0240485Y0270535D01*
X0239284Y0270535D01*
X0238683Y0271135D01*
X0238683Y0272336D02*
X0239884Y0272937D01*
X0240485Y0272937D01*
X0241085Y0272336D01*
X0241085Y0271135D01*
X0238683Y0272336D02*
X0238683Y0274138D01*
X0241085Y0274138D01*
X0237402Y0272336D02*
X0235000Y0272336D01*
X0236201Y0273537D02*
X0236201Y0271135D01*
X0229600Y0282035D02*
X0225997Y0282035D01*
X0225997Y0283836D01*
X0226597Y0284437D01*
X0228999Y0284437D01*
X0229600Y0283836D01*
X0229600Y0282035D01*
X0229600Y0285718D02*
X0227198Y0285718D01*
X0225997Y0286919D01*
X0227198Y0288120D01*
X0229600Y0288120D01*
X0229600Y0289401D02*
X0229600Y0290602D01*
X0229600Y0290002D02*
X0225997Y0290002D01*
X0225997Y0290602D02*
X0225997Y0289401D01*
X0227798Y0288120D02*
X0227798Y0285718D01*
X0227198Y0291856D02*
X0227798Y0292457D01*
X0227798Y0293658D01*
X0228399Y0294258D01*
X0228999Y0294258D01*
X0229600Y0293658D01*
X0229600Y0292457D01*
X0228999Y0291856D01*
X0227198Y0291856D02*
X0226597Y0291856D01*
X0225997Y0292457D01*
X0225997Y0293658D01*
X0226597Y0294258D01*
X0226597Y0295540D02*
X0227798Y0296741D01*
X0229600Y0296741D01*
X0227798Y0296741D02*
X0226597Y0297942D01*
X0225997Y0297942D01*
X0225997Y0295540D02*
X0226597Y0295540D01*
X0209600Y0295486D02*
X0208399Y0294285D01*
X0208399Y0294886D02*
X0208399Y0293084D01*
X0209600Y0293084D02*
X0205997Y0293084D01*
X0205997Y0294886D01*
X0206597Y0295486D01*
X0207798Y0295486D01*
X0208399Y0294886D01*
X0209600Y0296767D02*
X0209600Y0298569D01*
X0208999Y0299169D01*
X0206597Y0299169D01*
X0205997Y0298569D01*
X0205997Y0296767D01*
X0209600Y0296767D01*
X0209600Y0291803D02*
X0207198Y0291803D01*
X0205997Y0290602D01*
X0207198Y0289401D01*
X0209600Y0289401D01*
X0208999Y0288120D02*
X0206597Y0288120D01*
X0205997Y0287519D01*
X0205997Y0286318D01*
X0206597Y0285718D01*
X0208999Y0285718D01*
X0209600Y0286318D01*
X0209600Y0287519D01*
X0208999Y0288120D01*
X0207798Y0289401D02*
X0207798Y0291803D01*
X0207198Y0284437D02*
X0207798Y0283836D01*
X0207798Y0282035D01*
X0205997Y0282035D02*
X0205997Y0283836D01*
X0206597Y0284437D01*
X0207198Y0284437D01*
X0207798Y0283836D02*
X0208399Y0284437D01*
X0208999Y0284437D01*
X0209600Y0283836D01*
X0209600Y0282035D01*
X0205997Y0282035D01*
X0184279Y0260193D02*
X0184279Y0258658D01*
X0183512Y0257891D01*
X0181977Y0257891D02*
X0181210Y0259426D01*
X0181210Y0260193D01*
X0181977Y0260960D01*
X0183512Y0260960D01*
X0184279Y0260193D01*
X0181977Y0257891D02*
X0179675Y0257891D01*
X0179675Y0260960D01*
X0180443Y0256356D02*
X0179675Y0255589D01*
X0179675Y0254054D01*
X0180443Y0253287D01*
X0180443Y0251752D02*
X0179675Y0250985D01*
X0179675Y0249450D01*
X0180443Y0248683D01*
X0183512Y0248683D01*
X0184279Y0249450D01*
X0184279Y0250985D01*
X0183512Y0251752D01*
X0184279Y0253287D02*
X0181210Y0256356D01*
X0180443Y0256356D01*
X0184279Y0256356D02*
X0184279Y0253287D01*
X0174398Y0253287D02*
X0174398Y0256356D01*
X0172096Y0257891D02*
X0172096Y0260960D01*
X0169794Y0260193D02*
X0172096Y0257891D01*
X0171329Y0256356D02*
X0170562Y0256356D01*
X0169794Y0255589D01*
X0169794Y0254054D01*
X0170562Y0253287D01*
X0170562Y0251752D02*
X0169794Y0250985D01*
X0169794Y0249450D01*
X0170562Y0248683D01*
X0173631Y0248683D01*
X0174398Y0249450D01*
X0174398Y0250985D01*
X0173631Y0251752D01*
X0174398Y0253287D02*
X0171329Y0256356D01*
X0169794Y0260193D02*
X0174398Y0260193D01*
X0113799Y0260433D02*
X0113032Y0261200D01*
X0112264Y0261200D01*
X0111497Y0260433D01*
X0111497Y0258131D01*
X0113032Y0258131D01*
X0113799Y0258898D01*
X0113799Y0260433D01*
X0111497Y0258131D02*
X0109962Y0259666D01*
X0109195Y0261200D01*
X0109962Y0256596D02*
X0109195Y0255829D01*
X0109195Y0254294D01*
X0109962Y0253527D01*
X0109962Y0251992D02*
X0109195Y0251225D01*
X0109195Y0249690D01*
X0109962Y0248923D01*
X0113032Y0248923D01*
X0113799Y0249690D01*
X0113799Y0251225D01*
X0113032Y0251992D01*
X0113799Y0253527D02*
X0110730Y0256596D01*
X0109962Y0256596D01*
X0113799Y0256596D02*
X0113799Y0253527D01*
X0104158Y0253647D02*
X0101089Y0256716D01*
X0100322Y0256716D01*
X0099554Y0255949D01*
X0099554Y0254414D01*
X0100322Y0253647D01*
X0100322Y0252112D02*
X0099554Y0251345D01*
X0099554Y0249810D01*
X0100322Y0249043D01*
X0103391Y0249043D01*
X0104158Y0249810D01*
X0104158Y0251345D01*
X0103391Y0252112D01*
X0104158Y0253647D02*
X0104158Y0256716D01*
X0104158Y0258251D02*
X0103391Y0258251D01*
X0100322Y0261320D01*
X0099554Y0261320D01*
X0099554Y0258251D01*
X0100202Y0274642D02*
X0103271Y0274642D01*
X0104038Y0275409D01*
X0104038Y0276944D01*
X0103271Y0277711D01*
X0104038Y0279246D02*
X0100969Y0282315D01*
X0100202Y0282315D01*
X0099434Y0281548D01*
X0099434Y0280013D01*
X0100202Y0279246D01*
X0100202Y0277711D02*
X0099434Y0276944D01*
X0099434Y0275409D01*
X0100202Y0274642D01*
X0104038Y0279246D02*
X0104038Y0282315D01*
X0103271Y0283850D02*
X0100202Y0286919D01*
X0103271Y0286919D01*
X0104038Y0286152D01*
X0104038Y0284617D01*
X0103271Y0283850D01*
X0100202Y0283850D01*
X0099434Y0284617D01*
X0099434Y0286152D01*
X0100202Y0286919D01*
X0109796Y0285985D02*
X0111331Y0284451D01*
X0111331Y0282916D02*
X0110563Y0282916D01*
X0109796Y0282149D01*
X0109796Y0280614D01*
X0110563Y0279847D01*
X0110563Y0278312D02*
X0109796Y0277545D01*
X0109796Y0276010D01*
X0110563Y0275243D01*
X0113633Y0275243D01*
X0114400Y0276010D01*
X0114400Y0277545D01*
X0113633Y0278312D01*
X0114400Y0279847D02*
X0111331Y0282916D01*
X0114400Y0282916D02*
X0114400Y0279847D01*
X0114400Y0284451D02*
X0114400Y0287520D01*
X0114400Y0285985D02*
X0109796Y0285985D01*
X0139996Y0314223D02*
X0139996Y0316525D01*
X0140763Y0317292D01*
X0142298Y0317292D01*
X0143065Y0316525D01*
X0143065Y0314223D01*
X0143065Y0315758D02*
X0144600Y0317292D01*
X0144600Y0318827D02*
X0144600Y0321896D01*
X0144600Y0320361D02*
X0139996Y0320361D01*
X0141531Y0318827D01*
X0142298Y0323431D02*
X0141531Y0324965D01*
X0141531Y0325733D01*
X0142298Y0326500D01*
X0143833Y0326500D01*
X0144600Y0325733D01*
X0144600Y0324198D01*
X0143833Y0323431D01*
X0142298Y0323431D02*
X0139996Y0323431D01*
X0139996Y0326500D01*
X0146688Y0326139D02*
X0146688Y0321535D01*
X0146688Y0323069D02*
X0148990Y0323069D01*
X0149757Y0323837D01*
X0149757Y0325371D01*
X0148990Y0326139D01*
X0146688Y0326139D01*
X0148223Y0323069D02*
X0149757Y0321535D01*
X0151292Y0321535D02*
X0154361Y0321535D01*
X0152827Y0321535D02*
X0152827Y0326139D01*
X0151292Y0324604D01*
X0155896Y0323837D02*
X0158965Y0323837D01*
X0158198Y0326139D02*
X0155896Y0323837D01*
X0158198Y0321535D02*
X0158198Y0326139D01*
X0172792Y0331535D02*
X0172792Y0336139D01*
X0175094Y0336139D01*
X0175861Y0335371D01*
X0175861Y0333837D01*
X0175094Y0333069D01*
X0172792Y0333069D01*
X0174327Y0333069D02*
X0175861Y0331535D01*
X0177396Y0332302D02*
X0178163Y0331535D01*
X0179698Y0331535D01*
X0180465Y0332302D01*
X0180465Y0333837D01*
X0179698Y0334604D01*
X0178931Y0334604D01*
X0177396Y0333837D01*
X0177396Y0336139D01*
X0180465Y0336139D01*
X0186496Y0348035D02*
X0186496Y0350337D01*
X0187263Y0351104D01*
X0188798Y0351104D01*
X0189565Y0350337D01*
X0189565Y0348035D01*
X0189565Y0349569D02*
X0191100Y0351104D01*
X0191100Y0352639D02*
X0191100Y0355708D01*
X0191100Y0354173D02*
X0186496Y0354173D01*
X0188031Y0352639D01*
X0187263Y0357243D02*
X0186496Y0358010D01*
X0186496Y0359545D01*
X0187263Y0360312D01*
X0190333Y0357243D01*
X0191100Y0358010D01*
X0191100Y0359545D01*
X0190333Y0360312D01*
X0187263Y0360312D01*
X0187263Y0357243D02*
X0190333Y0357243D01*
X0200746Y0356785D02*
X0200746Y0359087D01*
X0201513Y0359854D01*
X0203048Y0359854D01*
X0203815Y0359087D01*
X0203815Y0356785D01*
X0203815Y0358319D02*
X0205350Y0359854D01*
X0204583Y0361389D02*
X0205350Y0362156D01*
X0205350Y0363691D01*
X0204583Y0364458D01*
X0201513Y0364458D01*
X0200746Y0363691D01*
X0200746Y0362156D01*
X0201513Y0361389D01*
X0202281Y0361389D01*
X0203048Y0362156D01*
X0203048Y0364458D01*
X0207188Y0363302D02*
X0207956Y0362535D01*
X0209490Y0362535D01*
X0210257Y0363302D01*
X0211792Y0362535D02*
X0214861Y0362535D01*
X0213327Y0362535D02*
X0213327Y0367139D01*
X0211792Y0365604D01*
X0210257Y0366371D02*
X0209490Y0367139D01*
X0207956Y0367139D01*
X0207188Y0366371D01*
X0207188Y0363302D01*
X0205350Y0356785D02*
X0200746Y0356785D01*
X0191100Y0348035D02*
X0186496Y0348035D01*
X0216396Y0363302D02*
X0217163Y0362535D01*
X0218698Y0362535D01*
X0219465Y0363302D01*
X0219465Y0364837D01*
X0218698Y0365604D01*
X0217931Y0365604D01*
X0216396Y0364837D01*
X0216396Y0367139D01*
X0219465Y0367139D01*
X0230263Y0397535D02*
X0233333Y0397535D01*
X0234100Y0398302D01*
X0234100Y0399837D01*
X0233333Y0400604D01*
X0234100Y0402139D02*
X0234100Y0405208D01*
X0234100Y0403673D02*
X0229496Y0403673D01*
X0231031Y0402139D01*
X0230263Y0400604D02*
X0229496Y0399837D01*
X0229496Y0398302D01*
X0230263Y0397535D01*
X0231798Y0406743D02*
X0231798Y0409812D01*
X0229496Y0409045D02*
X0231798Y0406743D01*
X0234100Y0409045D02*
X0229496Y0409045D01*
X0206871Y0406513D02*
X0206871Y0405746D01*
X0206104Y0404978D01*
X0204569Y0404978D01*
X0203802Y0405746D01*
X0203802Y0406513D01*
X0204569Y0407280D01*
X0206104Y0407280D01*
X0206871Y0406513D01*
X0206104Y0404978D02*
X0206871Y0404211D01*
X0206871Y0403444D01*
X0206104Y0402676D01*
X0204569Y0402676D01*
X0203802Y0403444D01*
X0203802Y0404211D01*
X0204569Y0404978D01*
X0202267Y0403444D02*
X0202267Y0407280D01*
X0199198Y0407280D02*
X0199198Y0403444D01*
X0199965Y0402676D01*
X0201500Y0402676D01*
X0202267Y0403444D01*
X0196600Y0403396D02*
X0196600Y0400327D01*
X0196600Y0401861D02*
X0191996Y0401861D01*
X0193531Y0400327D01*
X0192763Y0398792D02*
X0191996Y0398025D01*
X0191996Y0396490D01*
X0192763Y0395723D01*
X0195833Y0395723D01*
X0196600Y0396490D01*
X0196600Y0398025D01*
X0195833Y0398792D01*
X0187100Y0398094D02*
X0187100Y0399629D01*
X0186333Y0400396D01*
X0186333Y0401931D02*
X0187100Y0402698D01*
X0187100Y0404233D01*
X0186333Y0405000D01*
X0183263Y0405000D01*
X0182496Y0404233D01*
X0182496Y0402698D01*
X0183263Y0401931D01*
X0184031Y0401931D01*
X0184798Y0402698D01*
X0184798Y0405000D01*
X0183263Y0400396D02*
X0182496Y0399629D01*
X0182496Y0398094D01*
X0183263Y0397327D01*
X0186333Y0397327D01*
X0187100Y0398094D01*
X0193531Y0404931D02*
X0191996Y0406465D01*
X0196600Y0406465D01*
X0196600Y0404931D02*
X0196600Y0408000D01*
X0180906Y0375639D02*
X0181673Y0374871D01*
X0181673Y0374104D01*
X0180906Y0373337D01*
X0179371Y0373337D01*
X0178604Y0374104D01*
X0178604Y0374871D01*
X0179371Y0375639D01*
X0180906Y0375639D01*
X0180906Y0373337D02*
X0181673Y0372569D01*
X0181673Y0371802D01*
X0180906Y0371035D01*
X0179371Y0371035D01*
X0178604Y0371802D01*
X0178604Y0372569D01*
X0179371Y0373337D01*
X0177069Y0373337D02*
X0176302Y0372569D01*
X0174000Y0372569D01*
X0174000Y0371035D02*
X0174000Y0375639D01*
X0176302Y0375639D01*
X0177069Y0374871D01*
X0177069Y0373337D01*
X0175535Y0372569D02*
X0177069Y0371035D01*
X0149698Y0351139D02*
X0147396Y0348837D01*
X0150465Y0348837D01*
X0149698Y0346535D02*
X0149698Y0351139D01*
X0145861Y0350371D02*
X0145861Y0348837D01*
X0145094Y0348069D01*
X0142792Y0348069D01*
X0142792Y0346535D02*
X0142792Y0351139D01*
X0145094Y0351139D01*
X0145861Y0350371D01*
X0144327Y0348069D02*
X0145861Y0346535D01*
X0131600Y0330208D02*
X0131600Y0327139D01*
X0131600Y0328673D02*
X0126996Y0328673D01*
X0128531Y0327139D01*
X0126996Y0325604D02*
X0126996Y0322535D01*
X0126996Y0324069D02*
X0131600Y0324069D01*
X0139996Y0314223D02*
X0144600Y0314223D01*
X0169494Y0313697D02*
X0170262Y0312930D01*
X0171029Y0312930D01*
X0171796Y0313697D01*
X0171796Y0315999D01*
X0170262Y0315999D02*
X0169494Y0315232D01*
X0169494Y0313697D01*
X0170262Y0315999D02*
X0173331Y0315999D01*
X0174098Y0315232D01*
X0174098Y0313697D01*
X0173331Y0312930D01*
X0174098Y0311395D02*
X0174098Y0308326D01*
X0174098Y0309861D02*
X0169494Y0309861D01*
X0171029Y0308326D01*
X0170262Y0306791D02*
X0169494Y0306024D01*
X0169494Y0304489D01*
X0170262Y0303722D01*
X0173331Y0303722D01*
X0174098Y0304489D01*
X0174098Y0306024D01*
X0173331Y0306791D01*
X0179495Y0306024D02*
X0179495Y0304489D01*
X0180263Y0303722D01*
X0183332Y0303722D01*
X0184099Y0304489D01*
X0184099Y0306024D01*
X0183332Y0306791D01*
X0184099Y0308326D02*
X0184099Y0311395D01*
X0184099Y0309861D02*
X0179495Y0309861D01*
X0181030Y0308326D01*
X0180263Y0306791D02*
X0179495Y0306024D01*
X0180263Y0312930D02*
X0181030Y0312930D01*
X0181797Y0313697D01*
X0181797Y0315232D01*
X0182565Y0315999D01*
X0183332Y0315999D01*
X0184099Y0315232D01*
X0184099Y0313697D01*
X0183332Y0312930D01*
X0182565Y0312930D01*
X0181797Y0313697D01*
X0181797Y0315232D02*
X0181030Y0315999D01*
X0180263Y0315999D01*
X0179495Y0315232D01*
X0179495Y0313697D01*
X0180263Y0312930D01*
X0114600Y0351302D02*
X0114600Y0352837D01*
X0113833Y0353604D01*
X0114600Y0355139D02*
X0111531Y0358208D01*
X0110763Y0358208D01*
X0109996Y0357441D01*
X0109996Y0355906D01*
X0110763Y0355139D01*
X0110763Y0353604D02*
X0109996Y0352837D01*
X0109996Y0351302D01*
X0110763Y0350535D01*
X0113833Y0350535D01*
X0114600Y0351302D01*
X0114600Y0355139D02*
X0114600Y0358208D01*
X0108698Y0344639D02*
X0109465Y0343871D01*
X0109465Y0343104D01*
X0108698Y0342337D01*
X0109465Y0341569D01*
X0109465Y0340802D01*
X0108698Y0340035D01*
X0107163Y0340035D01*
X0106396Y0340802D01*
X0104861Y0340035D02*
X0103327Y0341569D01*
X0104094Y0341569D02*
X0101792Y0341569D01*
X0101792Y0340035D02*
X0101792Y0344639D01*
X0104094Y0344639D01*
X0104861Y0343871D01*
X0104861Y0342337D01*
X0104094Y0341569D01*
X0106396Y0343871D02*
X0107163Y0344639D01*
X0108698Y0344639D01*
X0108698Y0342337D02*
X0107931Y0342337D01*
X0084100Y0342629D02*
X0083333Y0343396D01*
X0084100Y0342629D02*
X0084100Y0341094D01*
X0083333Y0340327D01*
X0080263Y0340327D01*
X0079496Y0341094D01*
X0079496Y0342629D01*
X0080263Y0343396D01*
X0081031Y0344931D02*
X0079496Y0346465D01*
X0084100Y0346465D01*
X0084100Y0344931D02*
X0084100Y0348000D01*
X0081431Y0337139D02*
X0081431Y0332535D01*
X0082965Y0332535D02*
X0079896Y0332535D01*
X0078361Y0332535D02*
X0076827Y0334069D01*
X0077594Y0334069D02*
X0075292Y0334069D01*
X0075292Y0332535D02*
X0075292Y0337139D01*
X0077594Y0337139D01*
X0078361Y0336371D01*
X0078361Y0334837D01*
X0077594Y0334069D01*
X0079896Y0335604D02*
X0081431Y0337139D01*
X0081698Y0326389D02*
X0080163Y0326389D01*
X0079396Y0325621D01*
X0077861Y0325621D02*
X0077861Y0324087D01*
X0077094Y0323319D01*
X0074792Y0323319D01*
X0074792Y0321785D02*
X0074792Y0326389D01*
X0077094Y0326389D01*
X0077861Y0325621D01*
X0076327Y0323319D02*
X0077861Y0321785D01*
X0079396Y0321785D02*
X0082465Y0324854D01*
X0082465Y0325621D01*
X0081698Y0326389D01*
X0082465Y0321785D02*
X0079396Y0321785D01*
X0072698Y0375035D02*
X0073465Y0375802D01*
X0073465Y0376569D01*
X0072698Y0377337D01*
X0070396Y0377337D01*
X0070396Y0375802D01*
X0071163Y0375035D01*
X0072698Y0375035D01*
X0070396Y0377337D02*
X0071931Y0378871D01*
X0073465Y0379639D01*
X0067327Y0379639D02*
X0067327Y0375035D01*
X0068861Y0375035D02*
X0065792Y0375035D01*
X0064257Y0375035D02*
X0062723Y0376569D01*
X0063490Y0376569D02*
X0061188Y0376569D01*
X0061188Y0375035D02*
X0061188Y0379639D01*
X0063490Y0379639D01*
X0064257Y0378871D01*
X0064257Y0377337D01*
X0063490Y0376569D01*
X0065792Y0378104D02*
X0067327Y0379639D01*
X0069996Y0408223D02*
X0069996Y0410525D01*
X0070763Y0411292D01*
X0072298Y0411292D01*
X0073065Y0410525D01*
X0073065Y0408223D01*
X0073065Y0409758D02*
X0074600Y0411292D01*
X0074600Y0412827D02*
X0074600Y0415896D01*
X0074600Y0414361D02*
X0069996Y0414361D01*
X0071531Y0412827D01*
X0071531Y0417431D02*
X0069996Y0418965D01*
X0074600Y0418965D01*
X0074600Y0417431D02*
X0074600Y0420500D01*
X0074600Y0408223D02*
X0069996Y0408223D01*
X0119355Y0399717D02*
X0119355Y0395113D01*
X0122424Y0395113D01*
X0123959Y0395113D02*
X0127028Y0395113D01*
X0125494Y0395113D02*
X0125494Y0399717D01*
X0123959Y0398183D01*
X0128456Y0392639D02*
X0127688Y0391871D01*
X0127688Y0388802D01*
X0128456Y0388035D01*
X0129990Y0388035D01*
X0130757Y0388802D01*
X0132292Y0388035D02*
X0135361Y0388035D01*
X0133827Y0388035D02*
X0133827Y0392639D01*
X0132292Y0391104D01*
X0130757Y0391871D02*
X0129990Y0392639D01*
X0128456Y0392639D01*
X0136896Y0391871D02*
X0137663Y0392639D01*
X0139198Y0392639D01*
X0139965Y0391871D01*
X0136896Y0388802D01*
X0137663Y0388035D01*
X0139198Y0388035D01*
X0139965Y0388802D01*
X0139965Y0391871D01*
X0136896Y0391871D02*
X0136896Y0388802D01*
X0138798Y0382000D02*
X0138798Y0378931D01*
X0136496Y0381233D01*
X0141100Y0381233D01*
X0140333Y0377396D02*
X0141100Y0376629D01*
X0141100Y0375094D01*
X0140333Y0374327D01*
X0137263Y0374327D01*
X0136496Y0375094D01*
X0136496Y0376629D01*
X0137263Y0377396D01*
X0135600Y0376629D02*
X0134833Y0377396D01*
X0135600Y0376629D02*
X0135600Y0375094D01*
X0134833Y0374327D01*
X0131763Y0374327D01*
X0130996Y0375094D01*
X0130996Y0376629D01*
X0131763Y0377396D01*
X0131763Y0378931D02*
X0130996Y0379698D01*
X0130996Y0381233D01*
X0131763Y0382000D01*
X0132531Y0382000D01*
X0133298Y0381233D01*
X0134065Y0382000D01*
X0134833Y0382000D01*
X0135600Y0381233D01*
X0135600Y0379698D01*
X0134833Y0378931D01*
X0133298Y0380465D02*
X0133298Y0381233D01*
X0272794Y0255373D02*
X0272794Y0252304D01*
X0273561Y0251536D01*
X0275096Y0251536D01*
X0275863Y0252304D01*
X0277398Y0252304D02*
X0278165Y0251536D01*
X0279700Y0251536D01*
X0280467Y0252304D01*
X0280467Y0253838D01*
X0279700Y0254606D01*
X0278932Y0254606D01*
X0277398Y0253838D01*
X0277398Y0256140D01*
X0280467Y0256140D01*
X0275863Y0255373D02*
X0275096Y0256140D01*
X0273561Y0256140D01*
X0272794Y0255373D01*
X0607002Y0264800D02*
X0607770Y0264033D01*
X0609304Y0264033D01*
X0610071Y0264800D01*
X0611606Y0264033D02*
X0614675Y0264033D01*
X0613141Y0264033D02*
X0613141Y0268637D01*
X0611606Y0267102D01*
X0610071Y0267870D02*
X0609304Y0268637D01*
X0607770Y0268637D01*
X0607002Y0267870D01*
X0607002Y0264800D01*
X0616210Y0264800D02*
X0616977Y0264033D01*
X0618512Y0264033D01*
X0619279Y0264800D01*
X0619279Y0265568D01*
X0618512Y0266335D01*
X0616210Y0266335D01*
X0616210Y0264800D01*
X0616210Y0266335D02*
X0617745Y0267870D01*
X0619279Y0268637D01*
X0634496Y0312533D02*
X0634496Y0314835D01*
X0635264Y0315602D01*
X0636798Y0315602D01*
X0637566Y0314835D01*
X0637566Y0312533D01*
X0639100Y0312533D02*
X0634496Y0312533D01*
X0637566Y0314067D02*
X0639100Y0315602D01*
X0639100Y0317137D02*
X0636031Y0320206D01*
X0635264Y0320206D01*
X0634496Y0319439D01*
X0634496Y0317904D01*
X0635264Y0317137D01*
X0639100Y0317137D02*
X0639100Y0320206D01*
X0639100Y0321741D02*
X0639100Y0324810D01*
X0639100Y0323275D02*
X0634496Y0323275D01*
X0636031Y0321741D01*
X0619279Y0364034D02*
X0616210Y0364034D01*
X0619279Y0367103D01*
X0619279Y0367870D01*
X0618512Y0368638D01*
X0616977Y0368638D01*
X0616210Y0367870D01*
X0614675Y0367870D02*
X0613908Y0368638D01*
X0612373Y0368638D01*
X0611606Y0367870D01*
X0610071Y0367870D02*
X0609304Y0368638D01*
X0607769Y0368638D01*
X0607002Y0367870D01*
X0607002Y0364801D01*
X0607769Y0364034D01*
X0609304Y0364034D01*
X0610071Y0364801D01*
X0611606Y0364034D02*
X0614675Y0367103D01*
X0614675Y0367870D01*
X0614675Y0364034D02*
X0611606Y0364034D01*
X0620765Y0216498D02*
X0619998Y0215731D01*
X0619998Y0214196D01*
X0620765Y0213429D01*
X0621533Y0213429D01*
X0622300Y0214196D01*
X0622300Y0216498D01*
X0623835Y0216498D02*
X0620765Y0216498D01*
X0623835Y0216498D02*
X0624602Y0215731D01*
X0624602Y0214196D01*
X0623835Y0213429D01*
X0624602Y0211894D02*
X0624602Y0208825D01*
X0624602Y0210359D02*
X0619998Y0210359D01*
X0621533Y0208825D01*
X0622300Y0207290D02*
X0623067Y0206523D01*
X0623067Y0204221D01*
X0623067Y0205756D02*
X0624602Y0207290D01*
X0622300Y0207290D02*
X0620765Y0207290D01*
X0619998Y0206523D01*
X0619998Y0204221D01*
X0624602Y0204221D01*
X0618508Y0158636D02*
X0616974Y0158636D01*
X0616206Y0157869D01*
X0618508Y0158636D02*
X0619276Y0157869D01*
X0619276Y0157101D01*
X0616206Y0154032D01*
X0619276Y0154032D01*
X0614672Y0154032D02*
X0611602Y0154032D01*
X0613137Y0154032D02*
X0613137Y0158636D01*
X0611602Y0157101D01*
X0610068Y0157869D02*
X0609300Y0158636D01*
X0607766Y0158636D01*
X0606998Y0157869D01*
X0606998Y0154799D01*
X0607766Y0154032D01*
X0609300Y0154032D01*
X0610068Y0154799D01*
X0619497Y0099002D02*
X0620265Y0099002D01*
X0623334Y0095932D01*
X0624101Y0095932D01*
X0624101Y0094398D02*
X0624101Y0091328D01*
X0624101Y0089794D02*
X0622567Y0088259D01*
X0622567Y0089026D02*
X0622567Y0086725D01*
X0624101Y0086725D02*
X0619497Y0086725D01*
X0619497Y0089026D01*
X0620265Y0089794D01*
X0621799Y0089794D01*
X0622567Y0089026D01*
X0621032Y0091328D02*
X0619497Y0092863D01*
X0624101Y0092863D01*
X0619497Y0095932D02*
X0619497Y0099002D01*
D11*
X0546419Y0151202D02*
X0545602Y0150385D01*
X0543967Y0150385D01*
X0543150Y0151202D01*
X0543967Y0152837D02*
X0546419Y0152837D01*
X0546419Y0154472D02*
X0545602Y0155289D01*
X0543967Y0155289D01*
X0543150Y0154472D01*
X0543150Y0153654D01*
X0543967Y0152837D01*
X0546419Y0151202D02*
X0546419Y0154472D01*
X0541263Y0150385D02*
X0537994Y0150385D01*
X0539628Y0150385D02*
X0539628Y0155289D01*
X0537994Y0153654D01*
X0535419Y0156702D02*
X0534602Y0155885D01*
X0532967Y0155885D01*
X0532150Y0156702D01*
X0532150Y0157519D01*
X0532967Y0158337D01*
X0534602Y0158337D01*
X0535419Y0157519D01*
X0535419Y0156702D01*
X0534602Y0158337D02*
X0535419Y0159154D01*
X0535419Y0159972D01*
X0534602Y0160789D01*
X0532967Y0160789D01*
X0532150Y0159972D01*
X0532150Y0159154D01*
X0532967Y0158337D01*
X0530263Y0155885D02*
X0526994Y0155885D01*
X0528628Y0155885D02*
X0528628Y0160789D01*
X0526994Y0159154D01*
X0521650Y0161385D02*
X0521650Y0162202D01*
X0524919Y0165472D01*
X0524919Y0166289D01*
X0521650Y0166289D01*
X0518128Y0166289D02*
X0518128Y0161385D01*
X0516494Y0161385D02*
X0519763Y0161385D01*
X0516494Y0164654D02*
X0518128Y0166289D01*
X0490602Y0182885D02*
X0490602Y0187789D01*
X0488150Y0185337D01*
X0491419Y0185337D01*
X0493494Y0188385D02*
X0496763Y0188385D01*
X0495128Y0188385D02*
X0495128Y0193289D01*
X0493494Y0191654D01*
X0498650Y0190837D02*
X0500285Y0191654D01*
X0501102Y0191654D01*
X0501919Y0190837D01*
X0501919Y0189202D01*
X0501102Y0188385D01*
X0499467Y0188385D01*
X0498650Y0189202D01*
X0498650Y0190837D02*
X0498650Y0193289D01*
X0501919Y0193289D01*
X0505494Y0192885D02*
X0508763Y0192885D01*
X0507128Y0192885D02*
X0507128Y0197789D01*
X0505494Y0196154D01*
X0510650Y0195337D02*
X0513102Y0195337D01*
X0513919Y0194519D01*
X0513919Y0193702D01*
X0513102Y0192885D01*
X0511467Y0192885D01*
X0510650Y0193702D01*
X0510650Y0195337D01*
X0512285Y0196972D01*
X0513919Y0197789D01*
X0484628Y0187789D02*
X0484628Y0182885D01*
X0482994Y0182885D02*
X0486263Y0182885D01*
X0482994Y0186154D02*
X0484628Y0187789D01*
X0480102Y0182789D02*
X0480919Y0181972D01*
X0480919Y0181154D01*
X0480102Y0180337D01*
X0480919Y0179519D01*
X0480919Y0178702D01*
X0480102Y0177885D01*
X0478467Y0177885D01*
X0477650Y0178702D01*
X0475763Y0177885D02*
X0472494Y0177885D01*
X0474128Y0177885D02*
X0474128Y0182789D01*
X0472494Y0181154D01*
X0469102Y0178289D02*
X0467467Y0178289D01*
X0466650Y0177472D01*
X0469102Y0178289D02*
X0469919Y0177472D01*
X0469919Y0176654D01*
X0466650Y0173385D01*
X0469919Y0173385D01*
X0464763Y0173385D02*
X0461494Y0173385D01*
X0463128Y0173385D02*
X0463128Y0178289D01*
X0461494Y0176654D01*
X0457785Y0173289D02*
X0457785Y0168385D01*
X0459419Y0168385D02*
X0456150Y0168385D01*
X0454263Y0168385D02*
X0450994Y0168385D01*
X0452628Y0168385D02*
X0452628Y0173289D01*
X0450994Y0171654D01*
X0447102Y0168289D02*
X0447919Y0167472D01*
X0444650Y0164202D01*
X0445467Y0163385D01*
X0447102Y0163385D01*
X0447919Y0164202D01*
X0447919Y0167472D01*
X0447102Y0168289D02*
X0445467Y0168289D01*
X0444650Y0167472D01*
X0444650Y0164202D01*
X0442763Y0163385D02*
X0439494Y0163385D01*
X0441128Y0163385D02*
X0441128Y0168289D01*
X0439494Y0166654D01*
X0434841Y0162972D02*
X0434841Y0159702D01*
X0434024Y0158885D01*
X0432389Y0158885D01*
X0431572Y0159702D01*
X0432389Y0161337D02*
X0434841Y0161337D01*
X0434841Y0162972D02*
X0434024Y0163789D01*
X0432389Y0163789D01*
X0431572Y0162972D01*
X0431572Y0162154D01*
X0432389Y0161337D01*
X0456150Y0171654D02*
X0457785Y0173289D01*
X0477650Y0181972D02*
X0478467Y0182789D01*
X0480102Y0182789D01*
X0480102Y0180337D02*
X0479285Y0180337D01*
X0399102Y0130289D02*
X0396650Y0127837D01*
X0399919Y0127837D01*
X0399102Y0125385D02*
X0399102Y0130289D01*
X0394763Y0129472D02*
X0393946Y0130289D01*
X0392311Y0130289D01*
X0391494Y0129472D01*
X0388919Y0131202D02*
X0388102Y0130385D01*
X0386467Y0130385D01*
X0385650Y0131202D01*
X0383763Y0130385D02*
X0380494Y0130385D01*
X0383763Y0133654D01*
X0383763Y0134472D01*
X0382946Y0135289D01*
X0381311Y0135289D01*
X0380494Y0134472D01*
X0377919Y0135385D02*
X0374650Y0135385D01*
X0377919Y0138654D01*
X0377919Y0139472D01*
X0377102Y0140289D01*
X0375467Y0140289D01*
X0374650Y0139472D01*
X0372763Y0139472D02*
X0371946Y0140289D01*
X0370311Y0140289D01*
X0369494Y0139472D01*
X0367919Y0140885D02*
X0364650Y0140885D01*
X0366285Y0140885D02*
X0366285Y0145789D01*
X0364650Y0144154D01*
X0362763Y0144154D02*
X0362763Y0144972D01*
X0361946Y0145789D01*
X0360311Y0145789D01*
X0359494Y0144972D01*
X0356419Y0146202D02*
X0355602Y0145385D01*
X0353967Y0145385D01*
X0353150Y0146202D01*
X0356419Y0149472D01*
X0356419Y0146202D01*
X0353150Y0146202D02*
X0353150Y0149472D01*
X0353967Y0150289D01*
X0355602Y0150289D01*
X0356419Y0149472D01*
X0351263Y0149472D02*
X0350446Y0150289D01*
X0348811Y0150289D01*
X0347994Y0149472D01*
X0351263Y0149472D02*
X0351263Y0148654D01*
X0347994Y0145385D01*
X0351263Y0145385D01*
X0359494Y0140885D02*
X0362763Y0144154D01*
X0362763Y0140885D02*
X0359494Y0140885D01*
X0369494Y0135385D02*
X0372763Y0138654D01*
X0372763Y0139472D01*
X0372763Y0135385D02*
X0369494Y0135385D01*
X0385650Y0134472D02*
X0386467Y0135289D01*
X0388102Y0135289D01*
X0388919Y0134472D01*
X0388919Y0133654D01*
X0388102Y0132837D01*
X0388919Y0132019D01*
X0388919Y0131202D01*
X0388102Y0132837D02*
X0387285Y0132837D01*
X0394763Y0129472D02*
X0394763Y0128654D01*
X0391494Y0125385D01*
X0394763Y0125385D01*
X0318798Y0107989D02*
X0314595Y0107989D01*
X0314595Y0104836D01*
X0316697Y0105887D01*
X0317748Y0105887D01*
X0318798Y0104836D01*
X0318798Y0102734D01*
X0317748Y0101683D01*
X0315646Y0101683D01*
X0314595Y0102734D01*
X0312353Y0101683D02*
X0308149Y0107989D01*
X0312353Y0107989D02*
X0308149Y0101683D01*
X0101450Y0191687D02*
X0095145Y0195890D01*
X0096196Y0198132D02*
X0095145Y0199183D01*
X0095145Y0201285D01*
X0096196Y0202336D01*
X0097247Y0202336D01*
X0101450Y0198132D01*
X0101450Y0202336D01*
X0101450Y0195890D02*
X0095145Y0191687D01*
X0095349Y0088834D02*
X0094298Y0087783D01*
X0094298Y0084630D01*
X0096400Y0084630D01*
X0097450Y0085681D01*
X0097450Y0087783D01*
X0096400Y0088834D01*
X0095349Y0088834D01*
X0092196Y0086732D02*
X0094298Y0084630D01*
X0092196Y0086732D02*
X0091145Y0088834D01*
X0091145Y0082389D02*
X0097450Y0078185D01*
X0097450Y0082389D02*
X0091145Y0078185D01*
X0402494Y0270385D02*
X0405763Y0273654D01*
X0405763Y0274472D01*
X0404946Y0275289D01*
X0403311Y0275289D01*
X0402494Y0274472D01*
X0402494Y0270385D02*
X0405763Y0270385D01*
X0407650Y0271202D02*
X0408467Y0270385D01*
X0410102Y0270385D01*
X0410919Y0271202D01*
X0410919Y0272837D01*
X0410102Y0273654D01*
X0409285Y0273654D01*
X0407650Y0272837D01*
X0407650Y0275289D01*
X0410919Y0275289D01*
X0413811Y0270289D02*
X0412994Y0269472D01*
X0413811Y0270289D02*
X0415446Y0270289D01*
X0416263Y0269472D01*
X0416263Y0268654D01*
X0412994Y0265385D01*
X0416263Y0265385D01*
X0418150Y0266202D02*
X0418967Y0265385D01*
X0420602Y0265385D01*
X0421419Y0266202D01*
X0421419Y0267019D01*
X0420602Y0267837D01*
X0418150Y0267837D01*
X0418150Y0266202D01*
X0418150Y0267837D02*
X0419785Y0269472D01*
X0421419Y0270289D01*
X0425311Y0265289D02*
X0424494Y0264472D01*
X0425311Y0265289D02*
X0426946Y0265289D01*
X0427763Y0264472D01*
X0427763Y0263654D01*
X0424494Y0260385D01*
X0427763Y0260385D01*
X0429650Y0260385D02*
X0429650Y0261202D01*
X0432919Y0264472D01*
X0432919Y0265289D01*
X0429650Y0265289D01*
X0435311Y0260289D02*
X0434494Y0259472D01*
X0435311Y0260289D02*
X0436946Y0260289D01*
X0437763Y0259472D01*
X0437763Y0258654D01*
X0434494Y0255385D01*
X0437763Y0255385D01*
X0439650Y0256202D02*
X0439650Y0257019D01*
X0440467Y0257837D01*
X0442102Y0257837D01*
X0442919Y0257019D01*
X0442919Y0256202D01*
X0442102Y0255385D01*
X0440467Y0255385D01*
X0439650Y0256202D01*
X0440467Y0257837D02*
X0439650Y0258654D01*
X0439650Y0259472D01*
X0440467Y0260289D01*
X0442102Y0260289D01*
X0442919Y0259472D01*
X0442919Y0258654D01*
X0442102Y0257837D01*
X0445494Y0254472D02*
X0446311Y0255289D01*
X0447946Y0255289D01*
X0448763Y0254472D01*
X0448763Y0253654D01*
X0445494Y0250385D01*
X0448763Y0250385D01*
X0450650Y0251202D02*
X0451467Y0250385D01*
X0453102Y0250385D01*
X0453919Y0251202D01*
X0453919Y0254472D01*
X0453102Y0255289D01*
X0451467Y0255289D01*
X0450650Y0254472D01*
X0450650Y0253654D01*
X0451467Y0252837D01*
X0453919Y0252837D01*
X0457311Y0249789D02*
X0456494Y0248972D01*
X0457311Y0249789D02*
X0458946Y0249789D01*
X0459763Y0248972D01*
X0459763Y0248154D01*
X0458946Y0247337D01*
X0459763Y0246519D01*
X0459763Y0245702D01*
X0458946Y0244885D01*
X0457311Y0244885D01*
X0456494Y0245702D01*
X0458128Y0247337D02*
X0458946Y0247337D01*
X0461650Y0245702D02*
X0461650Y0248972D01*
X0462467Y0249789D01*
X0464102Y0249789D01*
X0464919Y0248972D01*
X0461650Y0245702D01*
X0462467Y0244885D01*
X0464102Y0244885D01*
X0464919Y0245702D01*
X0464919Y0248972D01*
X0468311Y0245289D02*
X0469946Y0245289D01*
X0470763Y0244472D01*
X0470763Y0243654D01*
X0469946Y0242837D01*
X0470763Y0242019D01*
X0470763Y0241202D01*
X0469946Y0240385D01*
X0468311Y0240385D01*
X0467494Y0241202D01*
X0469128Y0242837D02*
X0469946Y0242837D01*
X0472650Y0243654D02*
X0474285Y0245289D01*
X0474285Y0240385D01*
X0475919Y0240385D02*
X0472650Y0240385D01*
X0478494Y0238972D02*
X0479311Y0239789D01*
X0480946Y0239789D01*
X0481763Y0238972D01*
X0481763Y0238154D01*
X0480946Y0237337D01*
X0481763Y0236519D01*
X0481763Y0235702D01*
X0480946Y0234885D01*
X0479311Y0234885D01*
X0478494Y0235702D01*
X0480128Y0237337D02*
X0480946Y0237337D01*
X0483650Y0238972D02*
X0484467Y0239789D01*
X0486102Y0239789D01*
X0486919Y0238972D01*
X0486919Y0238154D01*
X0483650Y0234885D01*
X0486919Y0234885D01*
X0468311Y0245289D02*
X0467494Y0244472D01*
X0390841Y0301202D02*
X0390024Y0300385D01*
X0388389Y0300385D01*
X0387572Y0301202D01*
X0387572Y0302837D02*
X0389207Y0303654D01*
X0390024Y0303654D01*
X0390841Y0302837D01*
X0390841Y0301202D01*
X0387572Y0302837D02*
X0387572Y0305289D01*
X0390841Y0305289D01*
X0399072Y0306202D02*
X0399072Y0307837D01*
X0401524Y0307837D01*
X0402341Y0307019D01*
X0402341Y0306202D01*
X0401524Y0305385D01*
X0399889Y0305385D01*
X0399072Y0306202D01*
X0399072Y0307837D02*
X0400707Y0309472D01*
X0402341Y0310289D01*
X0409572Y0310202D02*
X0409572Y0309385D01*
X0409572Y0310202D02*
X0412841Y0313472D01*
X0412841Y0314289D01*
X0409572Y0314289D01*
X0420572Y0315702D02*
X0420572Y0316519D01*
X0421389Y0317337D01*
X0423024Y0317337D01*
X0423841Y0316519D01*
X0423841Y0315702D01*
X0423024Y0314885D01*
X0421389Y0314885D01*
X0420572Y0315702D01*
X0421389Y0317337D02*
X0420572Y0318154D01*
X0420572Y0318972D01*
X0421389Y0319789D01*
X0423024Y0319789D01*
X0423841Y0318972D01*
X0423841Y0318154D01*
X0423024Y0317337D01*
X0379524Y0300289D02*
X0379524Y0295385D01*
X0380341Y0297837D02*
X0377072Y0297837D01*
X0379524Y0300289D01*
X0369841Y0294472D02*
X0369841Y0293654D01*
X0369024Y0292837D01*
X0369841Y0292019D01*
X0369841Y0291202D01*
X0369024Y0290385D01*
X0367389Y0290385D01*
X0366572Y0291202D01*
X0368207Y0292837D02*
X0369024Y0292837D01*
X0369841Y0294472D02*
X0369024Y0295289D01*
X0367389Y0295289D01*
X0366572Y0294472D01*
X0358841Y0289472D02*
X0358024Y0290289D01*
X0356389Y0290289D01*
X0355572Y0289472D01*
X0358841Y0289472D02*
X0358841Y0288654D01*
X0355572Y0285385D01*
X0358841Y0285385D01*
X0347841Y0280885D02*
X0344572Y0280885D01*
X0346207Y0280885D02*
X0346207Y0285789D01*
X0344572Y0284154D01*
X0488994Y0370702D02*
X0489811Y0369885D01*
X0491446Y0369885D01*
X0492263Y0370702D01*
X0492263Y0371519D01*
X0491446Y0372337D01*
X0490628Y0372337D01*
X0491446Y0372337D02*
X0492263Y0373154D01*
X0492263Y0373972D01*
X0491446Y0374789D01*
X0489811Y0374789D01*
X0488994Y0373972D01*
X0494150Y0373972D02*
X0494967Y0374789D01*
X0496602Y0374789D01*
X0497419Y0373972D01*
X0497419Y0373154D01*
X0496602Y0372337D01*
X0497419Y0371519D01*
X0497419Y0370702D01*
X0496602Y0369885D01*
X0494967Y0369885D01*
X0494150Y0370702D01*
X0495785Y0372337D02*
X0496602Y0372337D01*
X0499494Y0368972D02*
X0500311Y0369789D01*
X0501946Y0369789D01*
X0502763Y0368972D01*
X0502763Y0368154D01*
X0501946Y0367337D01*
X0502763Y0366519D01*
X0502763Y0365702D01*
X0501946Y0364885D01*
X0500311Y0364885D01*
X0499494Y0365702D01*
X0501128Y0367337D02*
X0501946Y0367337D01*
X0504650Y0367337D02*
X0507919Y0367337D01*
X0507102Y0369789D02*
X0504650Y0367337D01*
X0507102Y0364885D02*
X0507102Y0369789D01*
X0511311Y0364789D02*
X0512946Y0364789D01*
X0513763Y0363972D01*
X0513763Y0363154D01*
X0512946Y0362337D01*
X0513763Y0361519D01*
X0513763Y0360702D01*
X0512946Y0359885D01*
X0511311Y0359885D01*
X0510494Y0360702D01*
X0512128Y0362337D02*
X0512946Y0362337D01*
X0515650Y0362337D02*
X0517285Y0363154D01*
X0518102Y0363154D01*
X0518919Y0362337D01*
X0518919Y0360702D01*
X0518102Y0359885D01*
X0516467Y0359885D01*
X0515650Y0360702D01*
X0515650Y0362337D02*
X0515650Y0364789D01*
X0518919Y0364789D01*
X0522311Y0359789D02*
X0523946Y0359789D01*
X0524763Y0358972D01*
X0524763Y0358154D01*
X0523946Y0357337D01*
X0524763Y0356519D01*
X0524763Y0355702D01*
X0523946Y0354885D01*
X0522311Y0354885D01*
X0521494Y0355702D01*
X0523128Y0357337D02*
X0523946Y0357337D01*
X0526650Y0357337D02*
X0529102Y0357337D01*
X0529919Y0356519D01*
X0529919Y0355702D01*
X0529102Y0354885D01*
X0527467Y0354885D01*
X0526650Y0355702D01*
X0526650Y0357337D01*
X0528285Y0358972D01*
X0529919Y0359789D01*
X0533811Y0355289D02*
X0535446Y0355289D01*
X0536263Y0354472D01*
X0536263Y0353654D01*
X0535446Y0352837D01*
X0536263Y0352019D01*
X0536263Y0351202D01*
X0535446Y0350385D01*
X0533811Y0350385D01*
X0532994Y0351202D01*
X0534628Y0352837D02*
X0535446Y0352837D01*
X0532994Y0354472D02*
X0533811Y0355289D01*
X0538150Y0355289D02*
X0541419Y0355289D01*
X0541419Y0354472D01*
X0538150Y0351202D01*
X0538150Y0350385D01*
X0522311Y0359789D02*
X0521494Y0358972D01*
X0511311Y0364789D02*
X0510494Y0363972D01*
X0319298Y0382338D02*
X0315095Y0382338D01*
X0318248Y0385491D01*
X0318248Y0379185D01*
X0312853Y0379185D02*
X0308649Y0385491D01*
X0312853Y0385491D02*
X0308649Y0379185D01*
X0660145Y0203784D02*
X0661196Y0204835D01*
X0662247Y0204835D01*
X0663298Y0203784D01*
X0664349Y0204835D01*
X0665400Y0204835D01*
X0666451Y0203784D01*
X0666451Y0201683D01*
X0665400Y0200632D01*
X0666451Y0198390D02*
X0660145Y0194186D01*
X0660145Y0198390D02*
X0666451Y0194186D01*
X0661196Y0200632D02*
X0660145Y0201683D01*
X0660145Y0203784D01*
X0663298Y0203784D02*
X0663298Y0202733D01*
D12*
X0665296Y0345838D02*
X0671168Y0345838D01*
X0678039Y0370935D02*
X0680974Y0370935D01*
X0679506Y0370935D02*
X0679506Y0379742D01*
X0678039Y0379742D02*
X0680974Y0379742D01*
X0684177Y0379742D02*
X0690049Y0370935D01*
X0690049Y0379742D01*
X0684177Y0379742D02*
X0684177Y0370935D01*
X0665495Y0372403D02*
X0664027Y0370935D01*
X0661091Y0370935D01*
X0659623Y0372403D01*
X0661091Y0375338D02*
X0664027Y0375338D01*
X0665495Y0373871D01*
X0665495Y0372403D01*
X0661091Y0375338D02*
X0659623Y0376806D01*
X0659623Y0378274D01*
X0661091Y0379742D01*
X0664027Y0379742D01*
X0665495Y0378274D01*
X0656287Y0378274D02*
X0654819Y0379742D01*
X0651883Y0379742D01*
X0650415Y0378274D01*
X0650415Y0372403D01*
X0651883Y0370935D01*
X0654819Y0370935D01*
X0656287Y0372403D01*
X0668232Y0402403D02*
X0668232Y0408274D01*
X0665296Y0405338D02*
X0671168Y0405338D01*
D13*
X0506468Y0354094D02*
X0499129Y0354094D01*
X0499129Y0348589D01*
X0502799Y0350424D01*
X0504633Y0350424D01*
X0506468Y0348589D01*
X0506468Y0344920D01*
X0504633Y0343085D01*
X0500964Y0343085D01*
X0499129Y0344920D01*
X0494979Y0344920D02*
X0494979Y0343085D01*
X0493144Y0343085D01*
X0493144Y0344920D01*
X0494979Y0344920D01*
X0488513Y0343085D02*
X0481173Y0343085D01*
X0488513Y0350424D01*
X0488513Y0352259D01*
X0486678Y0354094D01*
X0483008Y0354094D01*
X0481173Y0352259D01*
X0476543Y0354094D02*
X0476543Y0346755D01*
X0472873Y0343085D01*
X0469203Y0346755D01*
X0469203Y0354094D01*
X0452602Y0354094D02*
X0452602Y0343085D01*
X0445263Y0343085D02*
X0445263Y0354094D01*
X0448933Y0350424D01*
X0452602Y0354094D01*
X0440632Y0352259D02*
X0440632Y0344920D01*
X0438797Y0343085D01*
X0435127Y0343085D01*
X0433293Y0344920D01*
X0433293Y0352259D01*
X0435127Y0354094D01*
X0438797Y0354094D01*
X0440632Y0352259D01*
X0428662Y0354094D02*
X0421322Y0354094D01*
X0424992Y0354094D02*
X0424992Y0343085D01*
X0416692Y0343085D02*
X0409352Y0343085D01*
X0409352Y0354094D01*
X0416692Y0354094D01*
X0413022Y0348589D02*
X0409352Y0348589D01*
X0404721Y0346755D02*
X0404721Y0344920D01*
X0402887Y0343085D01*
X0399217Y0343085D01*
X0397382Y0344920D01*
X0399217Y0348589D02*
X0402887Y0348589D01*
X0404721Y0346755D01*
X0404721Y0352259D02*
X0402887Y0354094D01*
X0399217Y0354094D01*
X0397382Y0352259D01*
X0397382Y0350424D01*
X0399217Y0348589D01*
X0392751Y0344920D02*
X0392751Y0354094D01*
X0385412Y0354094D02*
X0385412Y0344920D01*
X0387247Y0343085D01*
X0390916Y0343085D01*
X0392751Y0344920D01*
X0394229Y0334594D02*
X0392394Y0332759D01*
X0392394Y0325420D01*
X0394229Y0323585D01*
X0397899Y0323585D01*
X0399734Y0325420D01*
X0404364Y0323585D02*
X0404364Y0334594D01*
X0399734Y0332759D02*
X0397899Y0334594D01*
X0394229Y0334594D01*
X0387764Y0334594D02*
X0380424Y0334594D01*
X0384094Y0334594D02*
X0384094Y0323585D01*
X0376114Y0323585D02*
X0372444Y0323585D01*
X0374279Y0323585D02*
X0374279Y0334594D01*
X0372444Y0334594D02*
X0376114Y0334594D01*
X0367813Y0334594D02*
X0367813Y0323585D01*
X0364143Y0327255D01*
X0360474Y0323585D01*
X0360474Y0334594D01*
X0355843Y0332759D02*
X0354008Y0334594D01*
X0350338Y0334594D01*
X0348503Y0332759D01*
X0348503Y0330924D01*
X0350338Y0329089D01*
X0354008Y0329089D01*
X0355843Y0327255D01*
X0355843Y0325420D01*
X0354008Y0323585D01*
X0350338Y0323585D01*
X0348503Y0325420D01*
X0351336Y0343085D02*
X0349501Y0344920D01*
X0351336Y0343085D02*
X0355006Y0343085D01*
X0356841Y0344920D01*
X0356841Y0346755D01*
X0355006Y0348589D01*
X0351336Y0348589D01*
X0349501Y0350424D01*
X0349501Y0352259D01*
X0351336Y0354094D01*
X0355006Y0354094D01*
X0356841Y0352259D01*
X0361471Y0352259D02*
X0361471Y0344920D01*
X0363306Y0343085D01*
X0366976Y0343085D01*
X0368811Y0344920D01*
X0373441Y0344920D02*
X0375276Y0343085D01*
X0378946Y0343085D01*
X0380781Y0344920D01*
X0380781Y0352259D01*
X0378946Y0354094D01*
X0375276Y0354094D01*
X0373441Y0352259D01*
X0373441Y0344920D01*
X0368811Y0352259D02*
X0366976Y0354094D01*
X0363306Y0354094D01*
X0361471Y0352259D01*
X0404364Y0329089D02*
X0411704Y0329089D01*
X0411704Y0323585D02*
X0411704Y0334594D01*
X0428305Y0334594D02*
X0435645Y0323585D01*
X0435645Y0334594D01*
X0440275Y0334594D02*
X0440275Y0323585D01*
X0447615Y0323585D01*
X0443945Y0329089D02*
X0440275Y0329089D01*
X0440275Y0334594D02*
X0447615Y0334594D01*
X0452245Y0334594D02*
X0459585Y0334594D01*
X0455915Y0334594D02*
X0455915Y0323585D01*
X0464216Y0323585D02*
X0467885Y0327255D01*
X0471555Y0323585D01*
X0471555Y0334594D01*
X0476186Y0332759D02*
X0476186Y0325420D01*
X0478021Y0323585D01*
X0481691Y0323585D01*
X0483525Y0325420D01*
X0483525Y0332759D01*
X0481691Y0334594D01*
X0478021Y0334594D01*
X0476186Y0332759D01*
X0488156Y0334594D02*
X0488156Y0323585D01*
X0488156Y0327255D02*
X0493661Y0327255D01*
X0495496Y0329089D01*
X0495496Y0332759D01*
X0493661Y0334594D01*
X0488156Y0334594D01*
X0500126Y0334594D02*
X0500126Y0323585D01*
X0500126Y0327255D02*
X0507466Y0334594D01*
X0501961Y0329089D02*
X0507466Y0323585D01*
X0495496Y0323585D02*
X0491826Y0327255D01*
X0464216Y0323585D02*
X0464216Y0334594D01*
X0428305Y0334594D02*
X0428305Y0323585D01*
D14*
X0313902Y0281123D02*
X0313902Y0276185D01*
X0308965Y0281123D01*
X0307730Y0281123D01*
X0306496Y0279888D01*
X0306496Y0277420D01*
X0307730Y0276185D01*
X0306496Y0273572D02*
X0312668Y0273572D01*
X0313902Y0272338D01*
X0313902Y0269869D01*
X0312668Y0268635D01*
X0306496Y0268635D01*
X0231673Y0201140D02*
X0231673Y0200172D01*
X0229738Y0198237D01*
X0229738Y0195335D01*
X0229738Y0198237D02*
X0227803Y0200172D01*
X0227803Y0201140D01*
X0225596Y0200172D02*
X0224628Y0201140D01*
X0222693Y0201140D01*
X0221726Y0200172D01*
X0221726Y0199205D01*
X0222693Y0198237D01*
X0224628Y0198237D01*
X0225596Y0197270D01*
X0225596Y0196302D01*
X0224628Y0195335D01*
X0222693Y0195335D01*
X0221726Y0196302D01*
X0219609Y0195335D02*
X0217674Y0195335D01*
X0218642Y0195335D02*
X0218642Y0201140D01*
X0219609Y0201140D02*
X0217674Y0201140D01*
X0215467Y0199205D02*
X0213532Y0201140D01*
X0211597Y0199205D01*
X0211597Y0195335D01*
X0209390Y0196302D02*
X0209390Y0200172D01*
X0208422Y0201140D01*
X0205520Y0201140D01*
X0205520Y0195335D01*
X0208422Y0195335D01*
X0209390Y0196302D01*
X0211597Y0198237D02*
X0215467Y0198237D01*
X0215467Y0199205D02*
X0215467Y0195335D01*
X0215467Y0191240D02*
X0215467Y0185435D01*
X0217674Y0185435D02*
X0217674Y0189305D01*
X0219609Y0191240D01*
X0221544Y0189305D01*
X0221544Y0185435D01*
X0223751Y0185435D02*
X0225686Y0185435D01*
X0224719Y0185435D02*
X0224719Y0191240D01*
X0225686Y0191240D02*
X0223751Y0191240D01*
X0221544Y0188337D02*
X0217674Y0188337D01*
X0215467Y0188337D02*
X0211597Y0188337D01*
X0211597Y0185435D02*
X0211597Y0191240D01*
X0209390Y0190272D02*
X0208422Y0191240D01*
X0206487Y0191240D01*
X0205520Y0190272D01*
X0205520Y0186402D01*
X0206487Y0185435D01*
X0208422Y0185435D01*
X0209390Y0186402D01*
X0207546Y0181340D02*
X0211416Y0175535D01*
X0211416Y0181340D01*
X0207546Y0181340D02*
X0207546Y0175535D01*
X0205338Y0176502D02*
X0205338Y0180372D01*
X0204371Y0181340D01*
X0202436Y0181340D01*
X0201468Y0180372D01*
X0201468Y0176502D01*
X0202436Y0175535D01*
X0204371Y0175535D01*
X0205338Y0176502D01*
X0213623Y0175535D02*
X0217493Y0181340D01*
X0219700Y0180372D02*
X0219700Y0176502D01*
X0220667Y0175535D01*
X0222602Y0175535D01*
X0223570Y0176502D01*
X0223570Y0180372D01*
X0222602Y0181340D01*
X0220667Y0181340D01*
X0219700Y0180372D01*
X0225777Y0181340D02*
X0229647Y0181340D01*
X0231854Y0181340D02*
X0235724Y0181340D01*
X0233789Y0178437D02*
X0231854Y0178437D01*
X0231854Y0175535D02*
X0231854Y0181340D01*
X0231673Y0185435D02*
X0231673Y0191240D01*
X0227803Y0191240D02*
X0227803Y0185435D01*
X0231673Y0185435D02*
X0227803Y0191240D01*
X0225777Y0181340D02*
X0225777Y0175535D01*
X0225777Y0178437D02*
X0227712Y0178437D01*
X0306992Y0157124D02*
X0306992Y0152186D01*
X0310695Y0152186D01*
X0309461Y0154655D01*
X0309461Y0155890D01*
X0310695Y0157124D01*
X0313164Y0157124D01*
X0314398Y0155890D01*
X0314398Y0153421D01*
X0313164Y0152186D01*
X0313164Y0149573D02*
X0306992Y0149573D01*
X0306992Y0144636D02*
X0313164Y0144636D01*
X0314398Y0145870D01*
X0314398Y0148339D01*
X0313164Y0149573D01*
X0150640Y0248968D02*
X0149405Y0247734D01*
X0146937Y0247734D01*
X0145702Y0248968D01*
X0145702Y0251437D02*
X0148171Y0252671D01*
X0149405Y0252671D01*
X0150640Y0251437D01*
X0150640Y0248968D01*
X0145702Y0251437D02*
X0145702Y0255140D01*
X0150640Y0255140D01*
X0140621Y0255140D02*
X0138152Y0252671D01*
X0140621Y0255140D02*
X0140621Y0247734D01*
X0143089Y0247734D02*
X0138152Y0247734D01*
X0135539Y0248968D02*
X0135539Y0255140D01*
X0130601Y0255140D02*
X0130601Y0248968D01*
X0131836Y0247734D01*
X0134305Y0247734D01*
X0135539Y0248968D01*
X0109283Y0219785D02*
X0105413Y0219785D01*
X0104445Y0218817D01*
X0104445Y0216882D01*
X0105413Y0215915D01*
X0109283Y0215915D01*
X0110250Y0216882D01*
X0110250Y0218817D01*
X0109283Y0219785D01*
X0110250Y0213708D02*
X0104445Y0213708D01*
X0104445Y0209838D02*
X0110250Y0213708D01*
X0110250Y0209838D02*
X0104445Y0209838D01*
X0104445Y0207721D02*
X0104445Y0205786D01*
X0104445Y0206754D02*
X0110250Y0206754D01*
X0110250Y0207721D02*
X0110250Y0205786D01*
X0109283Y0203579D02*
X0104445Y0203579D01*
X0104445Y0199709D02*
X0109283Y0199709D01*
X0110250Y0200676D01*
X0110250Y0202611D01*
X0109283Y0203579D01*
X0114345Y0204592D02*
X0120150Y0204592D01*
X0114345Y0200722D01*
X0120150Y0200722D01*
X0120150Y0198605D02*
X0120150Y0196670D01*
X0120150Y0197638D02*
X0114345Y0197638D01*
X0114345Y0198605D02*
X0114345Y0196670D01*
X0110250Y0196534D02*
X0109283Y0197502D01*
X0105413Y0197502D01*
X0104445Y0196534D01*
X0104445Y0193632D01*
X0110250Y0193632D01*
X0110250Y0196534D01*
X0110250Y0191425D02*
X0108315Y0189490D01*
X0108315Y0190457D02*
X0108315Y0187555D01*
X0110250Y0187555D02*
X0104445Y0187555D01*
X0104445Y0190457D01*
X0105413Y0191425D01*
X0107348Y0191425D01*
X0108315Y0190457D01*
X0107348Y0185347D02*
X0107348Y0181477D01*
X0106380Y0181477D02*
X0104445Y0183412D01*
X0106380Y0185347D01*
X0110250Y0185347D01*
X0110250Y0181477D02*
X0106380Y0181477D01*
X0117845Y0137811D02*
X0123650Y0137811D01*
X0117845Y0133941D01*
X0123650Y0133941D01*
X0123650Y0131824D02*
X0123650Y0129889D01*
X0123650Y0130857D02*
X0117845Y0130857D01*
X0117845Y0131824D02*
X0117845Y0129889D01*
X0113750Y0127773D02*
X0110848Y0127773D01*
X0108913Y0129708D01*
X0107945Y0129708D01*
X0110848Y0127773D02*
X0108913Y0125838D01*
X0107945Y0125838D01*
X0108913Y0123630D02*
X0107945Y0122663D01*
X0107945Y0120728D01*
X0108913Y0119760D01*
X0109880Y0119760D01*
X0110848Y0120728D01*
X0110848Y0122663D01*
X0111815Y0123630D01*
X0112783Y0123630D01*
X0113750Y0122663D01*
X0113750Y0120728D01*
X0112783Y0119760D01*
X0113750Y0117644D02*
X0113750Y0115709D01*
X0113750Y0116676D02*
X0107945Y0116676D01*
X0107945Y0115709D02*
X0107945Y0117644D01*
X0109880Y0113502D02*
X0107945Y0111567D01*
X0109880Y0109632D01*
X0113750Y0109632D01*
X0112783Y0107425D02*
X0108913Y0107425D01*
X0107945Y0106457D01*
X0107945Y0103555D01*
X0113750Y0103555D01*
X0113750Y0106457D01*
X0112783Y0107425D01*
X0110848Y0109632D02*
X0110848Y0113502D01*
X0109880Y0113502D02*
X0113750Y0113502D01*
X0117845Y0113683D02*
X0117845Y0115618D01*
X0117845Y0114651D02*
X0123650Y0114651D01*
X0123650Y0115618D02*
X0123650Y0113683D01*
X0123650Y0111476D02*
X0119780Y0111476D01*
X0117845Y0109541D01*
X0119780Y0107606D01*
X0123650Y0107606D01*
X0123650Y0105399D02*
X0117845Y0105399D01*
X0120748Y0105399D02*
X0120748Y0101529D01*
X0123650Y0101529D02*
X0117845Y0101529D01*
X0118813Y0099322D02*
X0117845Y0098354D01*
X0117845Y0096419D01*
X0118813Y0095452D01*
X0122683Y0095452D01*
X0123650Y0096419D01*
X0123650Y0098354D01*
X0122683Y0099322D01*
X0120748Y0107606D02*
X0120748Y0111476D01*
X0123650Y0117735D02*
X0117845Y0117735D01*
X0123650Y0121605D01*
X0117845Y0121605D01*
X0134336Y0303233D02*
X0136805Y0303233D01*
X0138039Y0304467D01*
X0138039Y0310639D01*
X0140652Y0308170D02*
X0143121Y0310639D01*
X0143121Y0303233D01*
X0145589Y0303233D02*
X0140652Y0303233D01*
X0134336Y0303233D02*
X0133101Y0304467D01*
X0133101Y0310639D01*
X0148202Y0309405D02*
X0149437Y0310639D01*
X0151905Y0310639D01*
X0153140Y0309405D01*
X0153140Y0308170D01*
X0148202Y0303233D01*
X0153140Y0303233D01*
X0076799Y0348834D02*
X0074299Y0346334D01*
X0069299Y0346334D01*
X0066799Y0348834D01*
X0066799Y0353834D01*
X0069299Y0356334D01*
X0066799Y0358834D01*
X0066799Y0363834D01*
X0069299Y0366334D01*
X0074299Y0366334D01*
X0076799Y0363834D01*
X0076799Y0358834D01*
X0074299Y0356334D01*
X0076799Y0353834D01*
X0076799Y0348834D01*
X0063023Y0347672D02*
X0063023Y0342948D01*
X0056724Y0342948D01*
X0057511Y0347672D02*
X0063023Y0347672D01*
X0057511Y0347672D02*
X0057511Y0364995D01*
X0063023Y0364995D01*
X0063023Y0369720D01*
X0056724Y0369720D01*
X0046094Y0369720D02*
X0046094Y0342948D01*
X0091508Y0355278D02*
X0091508Y0357391D01*
X0092608Y0361335D02*
X0095990Y0361335D01*
X0095990Y0351335D02*
X0092608Y0351335D01*
X0091801Y0373833D02*
X0086801Y0373833D01*
X0084301Y0376333D01*
X0084301Y0381333D01*
X0086801Y0383833D01*
X0091801Y0383833D01*
X0094301Y0381333D01*
X0096801Y0383833D01*
X0101801Y0383833D01*
X0104301Y0381333D01*
X0104301Y0376333D01*
X0101801Y0373833D01*
X0096801Y0373833D01*
X0094301Y0376333D01*
X0091801Y0373833D01*
X0106899Y0381118D02*
X0110048Y0381118D01*
X0110048Y0394897D01*
X0106899Y0390960D02*
X0106899Y0381118D01*
X0106899Y0390960D02*
X0102174Y0390960D01*
X0086426Y0390960D02*
X0081702Y0390960D01*
X0081702Y0381118D01*
X0078552Y0381118D01*
X0078552Y0394897D01*
X0086426Y0410645D02*
X0102174Y0410645D01*
X0156300Y0369435D02*
X0158900Y0369435D01*
X0156300Y0369435D02*
X0156300Y0367335D01*
X0169600Y0369335D02*
X0172200Y0369335D01*
X0172200Y0367235D01*
X0172200Y0355435D02*
X0172200Y0353335D01*
X0169600Y0353335D01*
X0158900Y0353235D02*
X0156300Y0353235D01*
X0156300Y0355335D01*
X0203788Y0386354D02*
X0214812Y0386354D01*
X0214812Y0401315D02*
X0203788Y0401315D01*
X0574702Y0341298D02*
X0574702Y0338829D01*
X0575936Y0337595D01*
X0582108Y0337595D01*
X0579639Y0334982D02*
X0582108Y0332513D01*
X0574702Y0332513D01*
X0574702Y0334982D02*
X0574702Y0330044D01*
X0575936Y0327431D02*
X0574702Y0326197D01*
X0574702Y0323728D01*
X0575936Y0322494D01*
X0577171Y0322494D01*
X0578405Y0323728D01*
X0578405Y0324962D01*
X0578405Y0323728D02*
X0579639Y0322494D01*
X0580874Y0322494D01*
X0582108Y0323728D01*
X0582108Y0326197D01*
X0580874Y0327431D01*
X0582108Y0342532D02*
X0575936Y0342532D01*
X0574702Y0341298D01*
X0661365Y0321322D02*
X0661365Y0317452D01*
X0662333Y0316485D01*
X0664268Y0316485D01*
X0665235Y0317452D01*
X0667443Y0316485D02*
X0667443Y0322290D01*
X0665235Y0321322D02*
X0664268Y0322290D01*
X0662333Y0322290D01*
X0661365Y0321322D01*
X0667443Y0319387D02*
X0671313Y0319387D01*
X0673520Y0319387D02*
X0677390Y0319387D01*
X0677390Y0320355D02*
X0677390Y0316485D01*
X0679597Y0316485D02*
X0681532Y0316485D01*
X0680565Y0316485D02*
X0680565Y0322290D01*
X0681532Y0322290D02*
X0679597Y0322290D01*
X0677390Y0320355D02*
X0675455Y0322290D01*
X0673520Y0320355D01*
X0673520Y0316485D01*
X0671313Y0316485D02*
X0671313Y0322290D01*
X0673520Y0326385D02*
X0676422Y0326385D01*
X0677390Y0327352D01*
X0677390Y0331222D01*
X0676422Y0332190D01*
X0673520Y0332190D01*
X0673520Y0326385D01*
X0679597Y0326385D02*
X0679597Y0330255D01*
X0681532Y0332190D01*
X0683467Y0330255D01*
X0683467Y0326385D01*
X0685674Y0326385D02*
X0687609Y0326385D01*
X0686642Y0326385D02*
X0686642Y0332190D01*
X0687609Y0332190D02*
X0685674Y0332190D01*
X0683467Y0329287D02*
X0679597Y0329287D01*
X0689726Y0330255D02*
X0690693Y0329287D01*
X0692628Y0329287D01*
X0693596Y0328320D01*
X0693596Y0327352D01*
X0692628Y0326385D01*
X0690693Y0326385D01*
X0689726Y0327352D01*
X0689726Y0330255D02*
X0689726Y0331222D01*
X0690693Y0332190D01*
X0692628Y0332190D01*
X0693596Y0331222D01*
X0695803Y0331222D02*
X0697738Y0329287D01*
X0697738Y0326385D01*
X0697738Y0329287D02*
X0699673Y0331222D01*
X0699673Y0332190D01*
X0695803Y0332190D02*
X0695803Y0331222D01*
X0696770Y0322290D02*
X0695803Y0321322D01*
X0695803Y0317452D01*
X0696770Y0316485D01*
X0698705Y0316485D01*
X0699673Y0317452D01*
X0699673Y0321322D01*
X0698705Y0322290D01*
X0696770Y0322290D01*
X0701880Y0322290D02*
X0701880Y0317452D01*
X0702848Y0316485D01*
X0704783Y0316485D01*
X0705750Y0317452D01*
X0705750Y0322290D01*
X0707957Y0322290D02*
X0711827Y0322290D01*
X0709892Y0322290D02*
X0709892Y0316485D01*
X0687518Y0316485D02*
X0687518Y0322290D01*
X0683649Y0322290D02*
X0683649Y0316485D01*
X0687518Y0316485D02*
X0683649Y0322290D01*
X0581608Y0237536D02*
X0575436Y0237536D01*
X0574202Y0236301D01*
X0574202Y0233833D01*
X0575436Y0232598D01*
X0581608Y0232598D01*
X0579139Y0229985D02*
X0581608Y0227517D01*
X0574202Y0227517D01*
X0574202Y0229985D02*
X0574202Y0225048D01*
X0575436Y0222435D02*
X0574202Y0221200D01*
X0574202Y0218732D01*
X0575436Y0217497D01*
X0580374Y0217497D01*
X0575436Y0222435D01*
X0580374Y0222435D01*
X0581608Y0221200D01*
X0581608Y0218732D01*
X0580374Y0217497D01*
X0578108Y0127036D02*
X0571936Y0127036D01*
X0570701Y0125802D01*
X0570701Y0123333D01*
X0571936Y0122099D01*
X0578108Y0122099D01*
X0578108Y0119486D02*
X0578108Y0114548D01*
X0576873Y0114548D01*
X0571936Y0119486D01*
X0570701Y0119486D01*
D15*
X0076542Y0337769D02*
X0076542Y0339337D01*
X0074974Y0339337D01*
X0073406Y0340905D02*
X0073406Y0337769D01*
X0074190Y0336985D01*
X0075758Y0336985D01*
X0076542Y0337769D01*
X0076542Y0340905D02*
X0075758Y0341689D01*
X0074190Y0341689D01*
X0073406Y0340905D01*
X0071386Y0340905D02*
X0071386Y0339337D01*
X0070602Y0338553D01*
X0068250Y0338553D01*
X0069818Y0338553D02*
X0071386Y0336985D01*
X0068250Y0336985D02*
X0068250Y0341689D01*
X0070602Y0341689D01*
X0071386Y0340905D01*
X0066230Y0341689D02*
X0066230Y0336985D01*
X0066230Y0339337D02*
X0063094Y0339337D01*
X0063094Y0336985D02*
X0063094Y0341689D01*
X0061073Y0340905D02*
X0060289Y0341689D01*
X0058721Y0341689D01*
X0057937Y0340905D01*
X0057937Y0337769D01*
X0058721Y0336985D01*
X0060289Y0336985D01*
X0061073Y0337769D01*
X0059250Y0319689D02*
X0059250Y0314985D01*
X0062386Y0314985D01*
X0064406Y0314985D02*
X0064406Y0319689D01*
X0064406Y0314985D02*
X0067542Y0314985D01*
X0057230Y0315769D02*
X0057230Y0319689D01*
X0054094Y0319689D02*
X0054094Y0315769D01*
X0054878Y0314985D01*
X0056446Y0314985D01*
X0057230Y0315769D01*
X0052073Y0319689D02*
X0048937Y0319689D01*
X0048937Y0314985D01*
X0048937Y0317337D02*
X0050505Y0317337D01*
X0051651Y0388985D02*
X0048515Y0388985D01*
X0048515Y0393689D01*
X0053672Y0392905D02*
X0054456Y0393689D01*
X0056024Y0393689D01*
X0056808Y0392905D01*
X0056808Y0389769D01*
X0056024Y0388985D01*
X0054456Y0388985D01*
X0053672Y0389769D01*
X0053672Y0392905D01*
X0058828Y0393689D02*
X0058828Y0388985D01*
X0060396Y0390553D01*
X0061964Y0388985D01*
X0061964Y0393689D01*
X0062464Y0409985D02*
X0060896Y0411553D01*
X0061680Y0411553D02*
X0059328Y0411553D01*
X0059328Y0409985D02*
X0059328Y0414689D01*
X0061680Y0414689D01*
X0062464Y0413905D01*
X0062464Y0412337D01*
X0061680Y0411553D01*
X0057308Y0409985D02*
X0057308Y0414689D01*
X0054172Y0414689D02*
X0054172Y0409985D01*
X0055740Y0411553D01*
X0057308Y0409985D01*
X0052151Y0412337D02*
X0051367Y0411553D01*
X0049015Y0411553D01*
X0049015Y0409985D02*
X0049015Y0414689D01*
X0051367Y0414689D01*
X0052151Y0413905D01*
X0052151Y0412337D01*
D16*
X0129845Y0067007D02*
X0129845Y0066089D01*
X0129845Y0064255D02*
X0129845Y0060585D01*
X0130762Y0060585D02*
X0128927Y0060585D01*
X0126520Y0060585D02*
X0123767Y0060585D01*
X0122850Y0061502D01*
X0122850Y0063337D01*
X0123767Y0064255D01*
X0126520Y0064255D01*
X0126520Y0059667D01*
X0125602Y0058750D01*
X0124685Y0058750D01*
X0128927Y0064255D02*
X0129845Y0064255D01*
X0132979Y0064255D02*
X0134814Y0064255D01*
X0133896Y0065172D02*
X0133896Y0061502D01*
X0134814Y0060585D01*
X0137030Y0060585D02*
X0137030Y0066089D01*
X0137948Y0064255D02*
X0139782Y0064255D01*
X0140700Y0063337D01*
X0140700Y0060585D01*
X0143107Y0061502D02*
X0144025Y0060585D01*
X0146777Y0060585D01*
X0146777Y0064255D01*
X0149184Y0064255D02*
X0151937Y0064255D01*
X0152854Y0063337D01*
X0152854Y0061502D01*
X0151937Y0060585D01*
X0149184Y0060585D01*
X0149184Y0066089D01*
X0143107Y0064255D02*
X0143107Y0061502D01*
X0137948Y0064255D02*
X0137030Y0063337D01*
X0155262Y0061502D02*
X0156179Y0061502D01*
X0156179Y0060585D01*
X0155262Y0060585D01*
X0155262Y0061502D01*
X0158300Y0061502D02*
X0159218Y0060585D01*
X0161970Y0060585D01*
X0164377Y0061502D02*
X0165295Y0060585D01*
X0167130Y0060585D01*
X0168047Y0061502D01*
X0168047Y0063337D01*
X0167130Y0064255D01*
X0165295Y0064255D01*
X0164377Y0063337D01*
X0164377Y0061502D01*
X0161970Y0064255D02*
X0159218Y0064255D01*
X0158300Y0063337D01*
X0158300Y0061502D01*
X0170455Y0060585D02*
X0170455Y0064255D01*
X0171372Y0064255D01*
X0172290Y0063337D01*
X0173207Y0064255D01*
X0174124Y0063337D01*
X0174124Y0060585D01*
X0172290Y0060585D02*
X0172290Y0063337D01*
X0176532Y0060585D02*
X0180202Y0066089D01*
X0182609Y0066089D02*
X0182609Y0060585D01*
X0186279Y0060585D01*
X0188686Y0060585D02*
X0190521Y0060585D01*
X0189604Y0060585D02*
X0189604Y0066089D01*
X0190521Y0066089D02*
X0188686Y0066089D01*
X0186279Y0066089D02*
X0182609Y0066089D01*
X0182609Y0063337D02*
X0184444Y0063337D01*
X0192738Y0066089D02*
X0196407Y0066089D01*
X0194573Y0066089D02*
X0194573Y0060585D01*
X0198815Y0063337D02*
X0202485Y0063337D01*
X0204892Y0064255D02*
X0206727Y0064255D01*
X0205809Y0065172D02*
X0205809Y0061502D01*
X0206727Y0060585D01*
X0208943Y0061502D02*
X0208943Y0063337D01*
X0209861Y0064255D01*
X0211696Y0064255D01*
X0212613Y0063337D01*
X0212613Y0062420D01*
X0208943Y0062420D01*
X0208943Y0061502D02*
X0209861Y0060585D01*
X0211696Y0060585D01*
X0215021Y0061502D02*
X0215938Y0062420D01*
X0218690Y0062420D01*
X0218690Y0063337D02*
X0218690Y0060585D01*
X0215938Y0060585D01*
X0215021Y0061502D01*
X0215938Y0064255D02*
X0217773Y0064255D01*
X0218690Y0063337D01*
X0221098Y0064255D02*
X0222015Y0064255D01*
X0222933Y0063337D01*
X0223850Y0064255D01*
X0224768Y0063337D01*
X0224768Y0060585D01*
X0222933Y0060585D02*
X0222933Y0063337D01*
X0221098Y0064255D02*
X0221098Y0060585D01*
X0227175Y0060585D02*
X0230845Y0066089D01*
X0233252Y0065172D02*
X0233252Y0064255D01*
X0234170Y0063337D01*
X0236005Y0063337D01*
X0236922Y0062420D01*
X0236922Y0061502D01*
X0236005Y0060585D01*
X0234170Y0060585D01*
X0233252Y0061502D01*
X0233252Y0065172D02*
X0234170Y0066089D01*
X0236005Y0066089D01*
X0236922Y0065172D01*
X0239329Y0063337D02*
X0239329Y0061502D01*
X0240247Y0060585D01*
X0242999Y0060585D01*
X0245407Y0061502D02*
X0246324Y0060585D01*
X0248159Y0060585D01*
X0249076Y0061502D01*
X0249076Y0063337D01*
X0248159Y0064255D01*
X0246324Y0064255D01*
X0245407Y0063337D01*
X0245407Y0061502D01*
X0242999Y0064255D02*
X0240247Y0064255D01*
X0239329Y0063337D01*
X0251484Y0064255D02*
X0251484Y0061502D01*
X0252401Y0060585D01*
X0255154Y0060585D01*
X0255154Y0064255D01*
X0257561Y0063337D02*
X0258478Y0064255D01*
X0261231Y0064255D01*
X0260313Y0062420D02*
X0258478Y0062420D01*
X0257561Y0063337D01*
X0257561Y0060585D02*
X0260313Y0060585D01*
X0261231Y0061502D01*
X0260313Y0062420D01*
X0263638Y0062420D02*
X0267308Y0062420D01*
X0267308Y0063337D01*
X0266391Y0064255D01*
X0264556Y0064255D01*
X0263638Y0063337D01*
X0263638Y0061502D01*
X0264556Y0060585D01*
X0266391Y0060585D01*
X0271550Y0060585D02*
X0271550Y0066089D01*
X0269715Y0066089D02*
X0273385Y0066089D01*
X0275793Y0063337D02*
X0275793Y0061502D01*
X0276710Y0060585D01*
X0278545Y0060585D01*
X0279462Y0061502D01*
X0279462Y0063337D01*
X0278545Y0064255D01*
X0276710Y0064255D01*
X0275793Y0063337D01*
X0281870Y0064255D02*
X0282787Y0064255D01*
X0283705Y0063337D01*
X0284622Y0064255D01*
X0285540Y0063337D01*
X0285540Y0060585D01*
X0283705Y0060585D02*
X0283705Y0063337D01*
X0281870Y0064255D02*
X0281870Y0060585D01*
D17*
X0030800Y0052835D02*
X0030800Y0083335D01*
X0030800Y0144335D01*
X0030800Y0174835D01*
X0032800Y0174835D01*
X0032800Y0164835D01*
X0032800Y0154835D01*
X0034800Y0154835D01*
X0034800Y0154335D01*
X0044300Y0154335D01*
X0044398Y0154333D01*
X0044496Y0154327D01*
X0044594Y0154318D01*
X0044691Y0154304D01*
X0044788Y0154287D01*
X0044884Y0154266D01*
X0044979Y0154241D01*
X0045073Y0154213D01*
X0045165Y0154180D01*
X0045257Y0154145D01*
X0045347Y0154105D01*
X0045435Y0154063D01*
X0045522Y0154016D01*
X0045606Y0153967D01*
X0045689Y0153914D01*
X0045769Y0153858D01*
X0045848Y0153798D01*
X0045924Y0153736D01*
X0045997Y0153671D01*
X0046068Y0153603D01*
X0046136Y0153532D01*
X0046201Y0153459D01*
X0046263Y0153383D01*
X0046323Y0153304D01*
X0046379Y0153224D01*
X0046432Y0153141D01*
X0046481Y0153057D01*
X0046528Y0152970D01*
X0046570Y0152882D01*
X0046610Y0152792D01*
X0046645Y0152700D01*
X0046678Y0152608D01*
X0046706Y0152514D01*
X0046731Y0152419D01*
X0046752Y0152323D01*
X0046769Y0152226D01*
X0046783Y0152129D01*
X0046792Y0152031D01*
X0046798Y0151933D01*
X0046800Y0151835D01*
X0046800Y0151335D02*
X0087300Y0151335D01*
X0089300Y0153335D01*
X0089300Y0172835D01*
X0087300Y0174835D01*
X0047300Y0174835D01*
X0046800Y0174835D01*
X0046800Y0154835D01*
X0046800Y0151335D01*
X0046800Y0150335D01*
X0049800Y0150335D01*
X0049800Y0077335D01*
X0046800Y0077335D01*
X0046800Y0150335D01*
X0032800Y0154835D02*
X0032800Y0072835D01*
X0034800Y0072835D01*
X0034800Y0073335D01*
X0044300Y0073335D01*
X0044398Y0073337D01*
X0044496Y0073343D01*
X0044594Y0073352D01*
X0044691Y0073366D01*
X0044788Y0073383D01*
X0044884Y0073404D01*
X0044979Y0073429D01*
X0045073Y0073457D01*
X0045165Y0073490D01*
X0045257Y0073525D01*
X0045347Y0073565D01*
X0045435Y0073607D01*
X0045522Y0073654D01*
X0045606Y0073703D01*
X0045689Y0073756D01*
X0045769Y0073812D01*
X0045848Y0073872D01*
X0045924Y0073934D01*
X0045997Y0073999D01*
X0046068Y0074067D01*
X0046136Y0074138D01*
X0046201Y0074211D01*
X0046263Y0074287D01*
X0046323Y0074366D01*
X0046379Y0074446D01*
X0046432Y0074529D01*
X0046481Y0074613D01*
X0046528Y0074700D01*
X0046570Y0074788D01*
X0046610Y0074878D01*
X0046645Y0074970D01*
X0046678Y0075062D01*
X0046706Y0075156D01*
X0046731Y0075251D01*
X0046752Y0075347D01*
X0046769Y0075444D01*
X0046783Y0075541D01*
X0046792Y0075639D01*
X0046798Y0075737D01*
X0046800Y0075835D01*
X0046800Y0076335D02*
X0087300Y0076335D01*
X0089300Y0074335D01*
X0089300Y0055335D01*
X0086800Y0052835D01*
X0047300Y0052835D01*
X0046800Y0052835D01*
X0034800Y0052835D01*
X0032800Y0052835D01*
X0032800Y0062835D01*
X0032800Y0072835D01*
X0030800Y0079335D02*
X0030798Y0079433D01*
X0030792Y0079531D01*
X0030783Y0079629D01*
X0030769Y0079726D01*
X0030752Y0079823D01*
X0030731Y0079919D01*
X0030706Y0080014D01*
X0030678Y0080108D01*
X0030645Y0080200D01*
X0030610Y0080292D01*
X0030570Y0080382D01*
X0030528Y0080470D01*
X0030481Y0080557D01*
X0030432Y0080641D01*
X0030379Y0080724D01*
X0030323Y0080804D01*
X0030263Y0080883D01*
X0030201Y0080959D01*
X0030136Y0081032D01*
X0030068Y0081103D01*
X0029997Y0081171D01*
X0029924Y0081236D01*
X0029848Y0081298D01*
X0029769Y0081358D01*
X0029689Y0081414D01*
X0029606Y0081467D01*
X0029522Y0081516D01*
X0029435Y0081563D01*
X0029347Y0081605D01*
X0029257Y0081645D01*
X0029165Y0081680D01*
X0029073Y0081713D01*
X0028979Y0081741D01*
X0028884Y0081766D01*
X0028788Y0081787D01*
X0028691Y0081804D01*
X0028594Y0081818D01*
X0028496Y0081827D01*
X0028398Y0081833D01*
X0028300Y0081835D01*
X0008300Y0081835D01*
X0008213Y0081837D01*
X0008126Y0081843D01*
X0008039Y0081852D01*
X0007953Y0081865D01*
X0007867Y0081882D01*
X0007782Y0081903D01*
X0007699Y0081928D01*
X0007616Y0081956D01*
X0007535Y0081987D01*
X0007455Y0082022D01*
X0007377Y0082061D01*
X0007300Y0082103D01*
X0007225Y0082148D01*
X0007153Y0082197D01*
X0007082Y0082248D01*
X0007014Y0082303D01*
X0006949Y0082360D01*
X0006886Y0082421D01*
X0006825Y0082484D01*
X0006768Y0082549D01*
X0006713Y0082617D01*
X0006662Y0082688D01*
X0006613Y0082760D01*
X0006568Y0082835D01*
X0006526Y0082912D01*
X0006487Y0082990D01*
X0006452Y0083070D01*
X0006421Y0083151D01*
X0006393Y0083234D01*
X0006368Y0083317D01*
X0006347Y0083402D01*
X0006330Y0083488D01*
X0006317Y0083574D01*
X0006308Y0083661D01*
X0006302Y0083748D01*
X0006300Y0083835D01*
X0006300Y0084835D01*
X0006300Y0142835D01*
X0006300Y0143835D01*
X0006302Y0143922D01*
X0006308Y0144009D01*
X0006317Y0144096D01*
X0006330Y0144182D01*
X0006347Y0144268D01*
X0006368Y0144353D01*
X0006393Y0144436D01*
X0006421Y0144519D01*
X0006452Y0144600D01*
X0006487Y0144680D01*
X0006526Y0144758D01*
X0006568Y0144835D01*
X0006613Y0144910D01*
X0006662Y0144982D01*
X0006713Y0145053D01*
X0006768Y0145121D01*
X0006825Y0145186D01*
X0006886Y0145249D01*
X0006949Y0145310D01*
X0007014Y0145367D01*
X0007082Y0145422D01*
X0007153Y0145473D01*
X0007225Y0145522D01*
X0007300Y0145567D01*
X0007377Y0145609D01*
X0007455Y0145648D01*
X0007535Y0145683D01*
X0007616Y0145714D01*
X0007699Y0145742D01*
X0007782Y0145767D01*
X0007867Y0145788D01*
X0007953Y0145805D01*
X0008039Y0145818D01*
X0008126Y0145827D01*
X0008213Y0145833D01*
X0008300Y0145835D01*
X0028300Y0145835D01*
X0028398Y0145837D01*
X0028496Y0145843D01*
X0028594Y0145852D01*
X0028691Y0145866D01*
X0028788Y0145883D01*
X0028884Y0145904D01*
X0028979Y0145929D01*
X0029073Y0145957D01*
X0029165Y0145990D01*
X0029257Y0146025D01*
X0029347Y0146065D01*
X0029435Y0146107D01*
X0029522Y0146154D01*
X0029606Y0146203D01*
X0029689Y0146256D01*
X0029769Y0146312D01*
X0029848Y0146372D01*
X0029924Y0146434D01*
X0029997Y0146499D01*
X0030068Y0146567D01*
X0030136Y0146638D01*
X0030201Y0146711D01*
X0030263Y0146787D01*
X0030323Y0146866D01*
X0030379Y0146946D01*
X0030432Y0147029D01*
X0030481Y0147113D01*
X0030528Y0147200D01*
X0030570Y0147288D01*
X0030610Y0147378D01*
X0030645Y0147470D01*
X0030678Y0147562D01*
X0030706Y0147656D01*
X0030731Y0147751D01*
X0030752Y0147847D01*
X0030769Y0147944D01*
X0030783Y0148041D01*
X0030792Y0148139D01*
X0030798Y0148237D01*
X0030800Y0148335D01*
X0032800Y0174835D02*
X0034800Y0174835D01*
X0046800Y0174835D01*
X0046800Y0190337D02*
X0034800Y0190337D01*
X0032800Y0190337D01*
X0032800Y0200337D01*
X0032800Y0210337D01*
X0032800Y0292337D01*
X0034800Y0292337D01*
X0034800Y0291837D01*
X0044300Y0291837D01*
X0044398Y0291835D01*
X0044496Y0291829D01*
X0044594Y0291820D01*
X0044691Y0291806D01*
X0044788Y0291789D01*
X0044884Y0291768D01*
X0044979Y0291743D01*
X0045073Y0291715D01*
X0045165Y0291682D01*
X0045257Y0291647D01*
X0045347Y0291607D01*
X0045435Y0291565D01*
X0045522Y0291518D01*
X0045606Y0291469D01*
X0045689Y0291416D01*
X0045769Y0291360D01*
X0045848Y0291300D01*
X0045924Y0291238D01*
X0045997Y0291173D01*
X0046068Y0291105D01*
X0046136Y0291034D01*
X0046201Y0290961D01*
X0046263Y0290885D01*
X0046323Y0290806D01*
X0046379Y0290726D01*
X0046432Y0290643D01*
X0046481Y0290559D01*
X0046528Y0290472D01*
X0046570Y0290384D01*
X0046610Y0290294D01*
X0046645Y0290202D01*
X0046678Y0290110D01*
X0046706Y0290016D01*
X0046731Y0289921D01*
X0046752Y0289825D01*
X0046769Y0289728D01*
X0046783Y0289631D01*
X0046792Y0289533D01*
X0046798Y0289435D01*
X0046800Y0289337D01*
X0046800Y0288837D02*
X0087300Y0288837D01*
X0089300Y0290837D01*
X0089300Y0310337D01*
X0087300Y0312337D01*
X0047300Y0312337D01*
X0046800Y0312337D01*
X0046800Y0292337D01*
X0046800Y0288837D01*
X0046800Y0287837D01*
X0049800Y0287837D01*
X0049800Y0214837D01*
X0046800Y0214837D01*
X0046800Y0287837D01*
X0032800Y0292337D02*
X0032800Y0302337D01*
X0032800Y0312337D01*
X0034800Y0312337D01*
X0046800Y0312337D01*
X0032800Y0312337D02*
X0030800Y0312337D01*
X0030800Y0281837D01*
X0030800Y0220837D01*
X0030800Y0190337D01*
X0032800Y0190337D01*
X0046800Y0190337D02*
X0047300Y0190337D01*
X0086800Y0190337D01*
X0089300Y0192837D01*
X0089300Y0211837D01*
X0087300Y0213837D01*
X0046800Y0213837D01*
X0046800Y0214837D01*
X0046800Y0213837D02*
X0046800Y0210337D01*
X0046800Y0190337D01*
X0070300Y0202037D02*
X0070302Y0202198D01*
X0070308Y0202358D01*
X0070318Y0202519D01*
X0070332Y0202679D01*
X0070350Y0202839D01*
X0070371Y0202998D01*
X0070397Y0203157D01*
X0070427Y0203315D01*
X0070460Y0203472D01*
X0070498Y0203629D01*
X0070539Y0203784D01*
X0070584Y0203938D01*
X0070633Y0204091D01*
X0070686Y0204243D01*
X0070742Y0204394D01*
X0070803Y0204543D01*
X0070866Y0204691D01*
X0070934Y0204837D01*
X0071005Y0204981D01*
X0071079Y0205123D01*
X0071157Y0205264D01*
X0071239Y0205402D01*
X0071324Y0205539D01*
X0071412Y0205673D01*
X0071504Y0205805D01*
X0071599Y0205935D01*
X0071697Y0206063D01*
X0071798Y0206188D01*
X0071902Y0206310D01*
X0072009Y0206430D01*
X0072119Y0206547D01*
X0072232Y0206662D01*
X0072348Y0206773D01*
X0072467Y0206882D01*
X0072588Y0206987D01*
X0072712Y0207090D01*
X0072838Y0207190D01*
X0072966Y0207286D01*
X0073097Y0207379D01*
X0073231Y0207469D01*
X0073366Y0207556D01*
X0073504Y0207639D01*
X0073643Y0207719D01*
X0073785Y0207795D01*
X0073928Y0207868D01*
X0074073Y0207937D01*
X0074220Y0208003D01*
X0074368Y0208065D01*
X0074518Y0208123D01*
X0074669Y0208178D01*
X0074822Y0208229D01*
X0074976Y0208276D01*
X0075131Y0208319D01*
X0075287Y0208358D01*
X0075443Y0208394D01*
X0075601Y0208425D01*
X0075759Y0208453D01*
X0075918Y0208477D01*
X0076078Y0208497D01*
X0076238Y0208513D01*
X0076398Y0208525D01*
X0076559Y0208533D01*
X0076720Y0208537D01*
X0076880Y0208537D01*
X0077041Y0208533D01*
X0077202Y0208525D01*
X0077362Y0208513D01*
X0077522Y0208497D01*
X0077682Y0208477D01*
X0077841Y0208453D01*
X0077999Y0208425D01*
X0078157Y0208394D01*
X0078313Y0208358D01*
X0078469Y0208319D01*
X0078624Y0208276D01*
X0078778Y0208229D01*
X0078931Y0208178D01*
X0079082Y0208123D01*
X0079232Y0208065D01*
X0079380Y0208003D01*
X0079527Y0207937D01*
X0079672Y0207868D01*
X0079815Y0207795D01*
X0079957Y0207719D01*
X0080096Y0207639D01*
X0080234Y0207556D01*
X0080369Y0207469D01*
X0080503Y0207379D01*
X0080634Y0207286D01*
X0080762Y0207190D01*
X0080888Y0207090D01*
X0081012Y0206987D01*
X0081133Y0206882D01*
X0081252Y0206773D01*
X0081368Y0206662D01*
X0081481Y0206547D01*
X0081591Y0206430D01*
X0081698Y0206310D01*
X0081802Y0206188D01*
X0081903Y0206063D01*
X0082001Y0205935D01*
X0082096Y0205805D01*
X0082188Y0205673D01*
X0082276Y0205539D01*
X0082361Y0205402D01*
X0082443Y0205264D01*
X0082521Y0205123D01*
X0082595Y0204981D01*
X0082666Y0204837D01*
X0082734Y0204691D01*
X0082797Y0204543D01*
X0082858Y0204394D01*
X0082914Y0204243D01*
X0082967Y0204091D01*
X0083016Y0203938D01*
X0083061Y0203784D01*
X0083102Y0203629D01*
X0083140Y0203472D01*
X0083173Y0203315D01*
X0083203Y0203157D01*
X0083229Y0202998D01*
X0083250Y0202839D01*
X0083268Y0202679D01*
X0083282Y0202519D01*
X0083292Y0202358D01*
X0083298Y0202198D01*
X0083300Y0202037D01*
X0083298Y0201876D01*
X0083292Y0201716D01*
X0083282Y0201555D01*
X0083268Y0201395D01*
X0083250Y0201235D01*
X0083229Y0201076D01*
X0083203Y0200917D01*
X0083173Y0200759D01*
X0083140Y0200602D01*
X0083102Y0200445D01*
X0083061Y0200290D01*
X0083016Y0200136D01*
X0082967Y0199983D01*
X0082914Y0199831D01*
X0082858Y0199680D01*
X0082797Y0199531D01*
X0082734Y0199383D01*
X0082666Y0199237D01*
X0082595Y0199093D01*
X0082521Y0198951D01*
X0082443Y0198810D01*
X0082361Y0198672D01*
X0082276Y0198535D01*
X0082188Y0198401D01*
X0082096Y0198269D01*
X0082001Y0198139D01*
X0081903Y0198011D01*
X0081802Y0197886D01*
X0081698Y0197764D01*
X0081591Y0197644D01*
X0081481Y0197527D01*
X0081368Y0197412D01*
X0081252Y0197301D01*
X0081133Y0197192D01*
X0081012Y0197087D01*
X0080888Y0196984D01*
X0080762Y0196884D01*
X0080634Y0196788D01*
X0080503Y0196695D01*
X0080369Y0196605D01*
X0080234Y0196518D01*
X0080096Y0196435D01*
X0079957Y0196355D01*
X0079815Y0196279D01*
X0079672Y0196206D01*
X0079527Y0196137D01*
X0079380Y0196071D01*
X0079232Y0196009D01*
X0079082Y0195951D01*
X0078931Y0195896D01*
X0078778Y0195845D01*
X0078624Y0195798D01*
X0078469Y0195755D01*
X0078313Y0195716D01*
X0078157Y0195680D01*
X0077999Y0195649D01*
X0077841Y0195621D01*
X0077682Y0195597D01*
X0077522Y0195577D01*
X0077362Y0195561D01*
X0077202Y0195549D01*
X0077041Y0195541D01*
X0076880Y0195537D01*
X0076720Y0195537D01*
X0076559Y0195541D01*
X0076398Y0195549D01*
X0076238Y0195561D01*
X0076078Y0195577D01*
X0075918Y0195597D01*
X0075759Y0195621D01*
X0075601Y0195649D01*
X0075443Y0195680D01*
X0075287Y0195716D01*
X0075131Y0195755D01*
X0074976Y0195798D01*
X0074822Y0195845D01*
X0074669Y0195896D01*
X0074518Y0195951D01*
X0074368Y0196009D01*
X0074220Y0196071D01*
X0074073Y0196137D01*
X0073928Y0196206D01*
X0073785Y0196279D01*
X0073643Y0196355D01*
X0073504Y0196435D01*
X0073366Y0196518D01*
X0073231Y0196605D01*
X0073097Y0196695D01*
X0072966Y0196788D01*
X0072838Y0196884D01*
X0072712Y0196984D01*
X0072588Y0197087D01*
X0072467Y0197192D01*
X0072348Y0197301D01*
X0072232Y0197412D01*
X0072119Y0197527D01*
X0072009Y0197644D01*
X0071902Y0197764D01*
X0071798Y0197886D01*
X0071697Y0198011D01*
X0071599Y0198139D01*
X0071504Y0198269D01*
X0071412Y0198401D01*
X0071324Y0198535D01*
X0071239Y0198672D01*
X0071157Y0198810D01*
X0071079Y0198951D01*
X0071005Y0199093D01*
X0070934Y0199237D01*
X0070866Y0199383D01*
X0070803Y0199531D01*
X0070742Y0199680D01*
X0070686Y0199831D01*
X0070633Y0199983D01*
X0070584Y0200136D01*
X0070539Y0200290D01*
X0070498Y0200445D01*
X0070460Y0200602D01*
X0070427Y0200759D01*
X0070397Y0200917D01*
X0070371Y0201076D01*
X0070350Y0201235D01*
X0070332Y0201395D01*
X0070318Y0201555D01*
X0070308Y0201716D01*
X0070302Y0201876D01*
X0070300Y0202037D01*
X0044300Y0210837D02*
X0034800Y0210837D01*
X0034800Y0210337D01*
X0032800Y0210337D01*
X0030800Y0216837D02*
X0030798Y0216935D01*
X0030792Y0217033D01*
X0030783Y0217131D01*
X0030769Y0217228D01*
X0030752Y0217325D01*
X0030731Y0217421D01*
X0030706Y0217516D01*
X0030678Y0217610D01*
X0030645Y0217702D01*
X0030610Y0217794D01*
X0030570Y0217884D01*
X0030528Y0217972D01*
X0030481Y0218059D01*
X0030432Y0218143D01*
X0030379Y0218226D01*
X0030323Y0218306D01*
X0030263Y0218385D01*
X0030201Y0218461D01*
X0030136Y0218534D01*
X0030068Y0218605D01*
X0029997Y0218673D01*
X0029924Y0218738D01*
X0029848Y0218800D01*
X0029769Y0218860D01*
X0029689Y0218916D01*
X0029606Y0218969D01*
X0029522Y0219018D01*
X0029435Y0219065D01*
X0029347Y0219107D01*
X0029257Y0219147D01*
X0029165Y0219182D01*
X0029073Y0219215D01*
X0028979Y0219243D01*
X0028884Y0219268D01*
X0028788Y0219289D01*
X0028691Y0219306D01*
X0028594Y0219320D01*
X0028496Y0219329D01*
X0028398Y0219335D01*
X0028300Y0219337D01*
X0008300Y0219337D01*
X0008213Y0219339D01*
X0008126Y0219345D01*
X0008039Y0219354D01*
X0007953Y0219367D01*
X0007867Y0219384D01*
X0007782Y0219405D01*
X0007699Y0219430D01*
X0007616Y0219458D01*
X0007535Y0219489D01*
X0007455Y0219524D01*
X0007377Y0219563D01*
X0007300Y0219605D01*
X0007225Y0219650D01*
X0007153Y0219699D01*
X0007082Y0219750D01*
X0007014Y0219805D01*
X0006949Y0219862D01*
X0006886Y0219923D01*
X0006825Y0219986D01*
X0006768Y0220051D01*
X0006713Y0220119D01*
X0006662Y0220190D01*
X0006613Y0220262D01*
X0006568Y0220337D01*
X0006526Y0220414D01*
X0006487Y0220492D01*
X0006452Y0220572D01*
X0006421Y0220653D01*
X0006393Y0220736D01*
X0006368Y0220819D01*
X0006347Y0220904D01*
X0006330Y0220990D01*
X0006317Y0221076D01*
X0006308Y0221163D01*
X0006302Y0221250D01*
X0006300Y0221337D01*
X0006300Y0222337D01*
X0006300Y0280337D01*
X0006300Y0281337D01*
X0006302Y0281424D01*
X0006308Y0281511D01*
X0006317Y0281598D01*
X0006330Y0281684D01*
X0006347Y0281770D01*
X0006368Y0281855D01*
X0006393Y0281938D01*
X0006421Y0282021D01*
X0006452Y0282102D01*
X0006487Y0282182D01*
X0006526Y0282260D01*
X0006568Y0282337D01*
X0006613Y0282412D01*
X0006662Y0282484D01*
X0006713Y0282555D01*
X0006768Y0282623D01*
X0006825Y0282688D01*
X0006886Y0282751D01*
X0006949Y0282812D01*
X0007014Y0282869D01*
X0007082Y0282924D01*
X0007153Y0282975D01*
X0007225Y0283024D01*
X0007300Y0283069D01*
X0007377Y0283111D01*
X0007455Y0283150D01*
X0007535Y0283185D01*
X0007616Y0283216D01*
X0007699Y0283244D01*
X0007782Y0283269D01*
X0007867Y0283290D01*
X0007953Y0283307D01*
X0008039Y0283320D01*
X0008126Y0283329D01*
X0008213Y0283335D01*
X0008300Y0283337D01*
X0028300Y0283337D01*
X0028398Y0283339D01*
X0028496Y0283345D01*
X0028594Y0283354D01*
X0028691Y0283368D01*
X0028788Y0283385D01*
X0028884Y0283406D01*
X0028979Y0283431D01*
X0029073Y0283459D01*
X0029165Y0283492D01*
X0029257Y0283527D01*
X0029347Y0283567D01*
X0029435Y0283609D01*
X0029522Y0283656D01*
X0029606Y0283705D01*
X0029689Y0283758D01*
X0029769Y0283814D01*
X0029848Y0283874D01*
X0029924Y0283936D01*
X0029997Y0284001D01*
X0030068Y0284069D01*
X0030136Y0284140D01*
X0030201Y0284213D01*
X0030263Y0284289D01*
X0030323Y0284368D01*
X0030379Y0284448D01*
X0030432Y0284531D01*
X0030481Y0284615D01*
X0030528Y0284702D01*
X0030570Y0284790D01*
X0030610Y0284880D01*
X0030645Y0284972D01*
X0030678Y0285064D01*
X0030706Y0285158D01*
X0030731Y0285253D01*
X0030752Y0285349D01*
X0030769Y0285446D01*
X0030783Y0285543D01*
X0030792Y0285641D01*
X0030798Y0285739D01*
X0030800Y0285837D01*
X0070300Y0300637D02*
X0070302Y0300798D01*
X0070308Y0300958D01*
X0070318Y0301119D01*
X0070332Y0301279D01*
X0070350Y0301439D01*
X0070371Y0301598D01*
X0070397Y0301757D01*
X0070427Y0301915D01*
X0070460Y0302072D01*
X0070498Y0302229D01*
X0070539Y0302384D01*
X0070584Y0302538D01*
X0070633Y0302691D01*
X0070686Y0302843D01*
X0070742Y0302994D01*
X0070803Y0303143D01*
X0070866Y0303291D01*
X0070934Y0303437D01*
X0071005Y0303581D01*
X0071079Y0303723D01*
X0071157Y0303864D01*
X0071239Y0304002D01*
X0071324Y0304139D01*
X0071412Y0304273D01*
X0071504Y0304405D01*
X0071599Y0304535D01*
X0071697Y0304663D01*
X0071798Y0304788D01*
X0071902Y0304910D01*
X0072009Y0305030D01*
X0072119Y0305147D01*
X0072232Y0305262D01*
X0072348Y0305373D01*
X0072467Y0305482D01*
X0072588Y0305587D01*
X0072712Y0305690D01*
X0072838Y0305790D01*
X0072966Y0305886D01*
X0073097Y0305979D01*
X0073231Y0306069D01*
X0073366Y0306156D01*
X0073504Y0306239D01*
X0073643Y0306319D01*
X0073785Y0306395D01*
X0073928Y0306468D01*
X0074073Y0306537D01*
X0074220Y0306603D01*
X0074368Y0306665D01*
X0074518Y0306723D01*
X0074669Y0306778D01*
X0074822Y0306829D01*
X0074976Y0306876D01*
X0075131Y0306919D01*
X0075287Y0306958D01*
X0075443Y0306994D01*
X0075601Y0307025D01*
X0075759Y0307053D01*
X0075918Y0307077D01*
X0076078Y0307097D01*
X0076238Y0307113D01*
X0076398Y0307125D01*
X0076559Y0307133D01*
X0076720Y0307137D01*
X0076880Y0307137D01*
X0077041Y0307133D01*
X0077202Y0307125D01*
X0077362Y0307113D01*
X0077522Y0307097D01*
X0077682Y0307077D01*
X0077841Y0307053D01*
X0077999Y0307025D01*
X0078157Y0306994D01*
X0078313Y0306958D01*
X0078469Y0306919D01*
X0078624Y0306876D01*
X0078778Y0306829D01*
X0078931Y0306778D01*
X0079082Y0306723D01*
X0079232Y0306665D01*
X0079380Y0306603D01*
X0079527Y0306537D01*
X0079672Y0306468D01*
X0079815Y0306395D01*
X0079957Y0306319D01*
X0080096Y0306239D01*
X0080234Y0306156D01*
X0080369Y0306069D01*
X0080503Y0305979D01*
X0080634Y0305886D01*
X0080762Y0305790D01*
X0080888Y0305690D01*
X0081012Y0305587D01*
X0081133Y0305482D01*
X0081252Y0305373D01*
X0081368Y0305262D01*
X0081481Y0305147D01*
X0081591Y0305030D01*
X0081698Y0304910D01*
X0081802Y0304788D01*
X0081903Y0304663D01*
X0082001Y0304535D01*
X0082096Y0304405D01*
X0082188Y0304273D01*
X0082276Y0304139D01*
X0082361Y0304002D01*
X0082443Y0303864D01*
X0082521Y0303723D01*
X0082595Y0303581D01*
X0082666Y0303437D01*
X0082734Y0303291D01*
X0082797Y0303143D01*
X0082858Y0302994D01*
X0082914Y0302843D01*
X0082967Y0302691D01*
X0083016Y0302538D01*
X0083061Y0302384D01*
X0083102Y0302229D01*
X0083140Y0302072D01*
X0083173Y0301915D01*
X0083203Y0301757D01*
X0083229Y0301598D01*
X0083250Y0301439D01*
X0083268Y0301279D01*
X0083282Y0301119D01*
X0083292Y0300958D01*
X0083298Y0300798D01*
X0083300Y0300637D01*
X0083298Y0300476D01*
X0083292Y0300316D01*
X0083282Y0300155D01*
X0083268Y0299995D01*
X0083250Y0299835D01*
X0083229Y0299676D01*
X0083203Y0299517D01*
X0083173Y0299359D01*
X0083140Y0299202D01*
X0083102Y0299045D01*
X0083061Y0298890D01*
X0083016Y0298736D01*
X0082967Y0298583D01*
X0082914Y0298431D01*
X0082858Y0298280D01*
X0082797Y0298131D01*
X0082734Y0297983D01*
X0082666Y0297837D01*
X0082595Y0297693D01*
X0082521Y0297551D01*
X0082443Y0297410D01*
X0082361Y0297272D01*
X0082276Y0297135D01*
X0082188Y0297001D01*
X0082096Y0296869D01*
X0082001Y0296739D01*
X0081903Y0296611D01*
X0081802Y0296486D01*
X0081698Y0296364D01*
X0081591Y0296244D01*
X0081481Y0296127D01*
X0081368Y0296012D01*
X0081252Y0295901D01*
X0081133Y0295792D01*
X0081012Y0295687D01*
X0080888Y0295584D01*
X0080762Y0295484D01*
X0080634Y0295388D01*
X0080503Y0295295D01*
X0080369Y0295205D01*
X0080234Y0295118D01*
X0080096Y0295035D01*
X0079957Y0294955D01*
X0079815Y0294879D01*
X0079672Y0294806D01*
X0079527Y0294737D01*
X0079380Y0294671D01*
X0079232Y0294609D01*
X0079082Y0294551D01*
X0078931Y0294496D01*
X0078778Y0294445D01*
X0078624Y0294398D01*
X0078469Y0294355D01*
X0078313Y0294316D01*
X0078157Y0294280D01*
X0077999Y0294249D01*
X0077841Y0294221D01*
X0077682Y0294197D01*
X0077522Y0294177D01*
X0077362Y0294161D01*
X0077202Y0294149D01*
X0077041Y0294141D01*
X0076880Y0294137D01*
X0076720Y0294137D01*
X0076559Y0294141D01*
X0076398Y0294149D01*
X0076238Y0294161D01*
X0076078Y0294177D01*
X0075918Y0294197D01*
X0075759Y0294221D01*
X0075601Y0294249D01*
X0075443Y0294280D01*
X0075287Y0294316D01*
X0075131Y0294355D01*
X0074976Y0294398D01*
X0074822Y0294445D01*
X0074669Y0294496D01*
X0074518Y0294551D01*
X0074368Y0294609D01*
X0074220Y0294671D01*
X0074073Y0294737D01*
X0073928Y0294806D01*
X0073785Y0294879D01*
X0073643Y0294955D01*
X0073504Y0295035D01*
X0073366Y0295118D01*
X0073231Y0295205D01*
X0073097Y0295295D01*
X0072966Y0295388D01*
X0072838Y0295484D01*
X0072712Y0295584D01*
X0072588Y0295687D01*
X0072467Y0295792D01*
X0072348Y0295901D01*
X0072232Y0296012D01*
X0072119Y0296127D01*
X0072009Y0296244D01*
X0071902Y0296364D01*
X0071798Y0296486D01*
X0071697Y0296611D01*
X0071599Y0296739D01*
X0071504Y0296869D01*
X0071412Y0297001D01*
X0071324Y0297135D01*
X0071239Y0297272D01*
X0071157Y0297410D01*
X0071079Y0297551D01*
X0071005Y0297693D01*
X0070934Y0297837D01*
X0070866Y0297983D01*
X0070803Y0298131D01*
X0070742Y0298280D01*
X0070686Y0298431D01*
X0070633Y0298583D01*
X0070584Y0298736D01*
X0070539Y0298890D01*
X0070498Y0299045D01*
X0070460Y0299202D01*
X0070427Y0299359D01*
X0070397Y0299517D01*
X0070371Y0299676D01*
X0070350Y0299835D01*
X0070332Y0299995D01*
X0070318Y0300155D01*
X0070308Y0300316D01*
X0070302Y0300476D01*
X0070300Y0300637D01*
X0126801Y0299533D02*
X0126801Y0298733D01*
X0126801Y0299533D02*
X0140601Y0299533D01*
X0143001Y0299533D01*
X0156801Y0299533D01*
X0156801Y0298733D01*
X0202800Y0274835D02*
X0202800Y0269835D01*
X0205300Y0267335D01*
X0230300Y0267335D01*
X0232800Y0264835D01*
X0232800Y0259835D01*
X0230300Y0257335D01*
X0205300Y0257335D01*
X0202800Y0254835D01*
X0202800Y0249835D01*
X0205300Y0247335D01*
X0230300Y0247335D01*
X0232800Y0244835D01*
X0232800Y0239835D01*
X0230300Y0237335D01*
X0205300Y0237335D01*
X0202800Y0234835D01*
X0202800Y0229835D01*
X0205300Y0227335D01*
X0230300Y0227335D01*
X0232800Y0224835D01*
X0232800Y0219835D01*
X0230300Y0217335D01*
X0232800Y0214835D01*
X0232800Y0209835D01*
X0230300Y0207335D01*
X0205300Y0207335D01*
X0202800Y0209835D01*
X0202800Y0214835D01*
X0205300Y0217335D01*
X0230300Y0217335D01*
X0230300Y0227335D02*
X0232800Y0229835D01*
X0232800Y0234835D01*
X0230300Y0237335D01*
X0230300Y0247335D02*
X0232800Y0249835D01*
X0232800Y0254835D01*
X0230300Y0257335D01*
X0230300Y0267335D02*
X0232800Y0269835D01*
X0232800Y0274835D01*
X0230300Y0277335D01*
X0205300Y0277335D01*
X0202800Y0274835D01*
X0205300Y0267335D02*
X0202800Y0264835D01*
X0202800Y0259835D01*
X0205300Y0257335D01*
X0205300Y0247335D02*
X0202800Y0244835D01*
X0202800Y0239835D01*
X0205300Y0237335D01*
X0205300Y0227335D02*
X0202800Y0224835D01*
X0202800Y0219835D01*
X0205300Y0217335D01*
X0156801Y0203934D02*
X0156801Y0203134D01*
X0126801Y0203134D01*
X0126801Y0203934D01*
X0111801Y0168834D02*
X0106801Y0168834D01*
X0104301Y0166334D01*
X0104301Y0161334D01*
X0106801Y0158834D01*
X0111801Y0158834D01*
X0114301Y0161334D01*
X0114301Y0166334D01*
X0111801Y0168834D01*
X0104301Y0166334D02*
X0101801Y0168834D01*
X0096801Y0168834D01*
X0094301Y0166334D01*
X0094301Y0161334D01*
X0096801Y0158834D01*
X0101801Y0158834D01*
X0104301Y0161334D01*
X0070300Y0163135D02*
X0070302Y0163296D01*
X0070308Y0163456D01*
X0070318Y0163617D01*
X0070332Y0163777D01*
X0070350Y0163937D01*
X0070371Y0164096D01*
X0070397Y0164255D01*
X0070427Y0164413D01*
X0070460Y0164570D01*
X0070498Y0164727D01*
X0070539Y0164882D01*
X0070584Y0165036D01*
X0070633Y0165189D01*
X0070686Y0165341D01*
X0070742Y0165492D01*
X0070803Y0165641D01*
X0070866Y0165789D01*
X0070934Y0165935D01*
X0071005Y0166079D01*
X0071079Y0166221D01*
X0071157Y0166362D01*
X0071239Y0166500D01*
X0071324Y0166637D01*
X0071412Y0166771D01*
X0071504Y0166903D01*
X0071599Y0167033D01*
X0071697Y0167161D01*
X0071798Y0167286D01*
X0071902Y0167408D01*
X0072009Y0167528D01*
X0072119Y0167645D01*
X0072232Y0167760D01*
X0072348Y0167871D01*
X0072467Y0167980D01*
X0072588Y0168085D01*
X0072712Y0168188D01*
X0072838Y0168288D01*
X0072966Y0168384D01*
X0073097Y0168477D01*
X0073231Y0168567D01*
X0073366Y0168654D01*
X0073504Y0168737D01*
X0073643Y0168817D01*
X0073785Y0168893D01*
X0073928Y0168966D01*
X0074073Y0169035D01*
X0074220Y0169101D01*
X0074368Y0169163D01*
X0074518Y0169221D01*
X0074669Y0169276D01*
X0074822Y0169327D01*
X0074976Y0169374D01*
X0075131Y0169417D01*
X0075287Y0169456D01*
X0075443Y0169492D01*
X0075601Y0169523D01*
X0075759Y0169551D01*
X0075918Y0169575D01*
X0076078Y0169595D01*
X0076238Y0169611D01*
X0076398Y0169623D01*
X0076559Y0169631D01*
X0076720Y0169635D01*
X0076880Y0169635D01*
X0077041Y0169631D01*
X0077202Y0169623D01*
X0077362Y0169611D01*
X0077522Y0169595D01*
X0077682Y0169575D01*
X0077841Y0169551D01*
X0077999Y0169523D01*
X0078157Y0169492D01*
X0078313Y0169456D01*
X0078469Y0169417D01*
X0078624Y0169374D01*
X0078778Y0169327D01*
X0078931Y0169276D01*
X0079082Y0169221D01*
X0079232Y0169163D01*
X0079380Y0169101D01*
X0079527Y0169035D01*
X0079672Y0168966D01*
X0079815Y0168893D01*
X0079957Y0168817D01*
X0080096Y0168737D01*
X0080234Y0168654D01*
X0080369Y0168567D01*
X0080503Y0168477D01*
X0080634Y0168384D01*
X0080762Y0168288D01*
X0080888Y0168188D01*
X0081012Y0168085D01*
X0081133Y0167980D01*
X0081252Y0167871D01*
X0081368Y0167760D01*
X0081481Y0167645D01*
X0081591Y0167528D01*
X0081698Y0167408D01*
X0081802Y0167286D01*
X0081903Y0167161D01*
X0082001Y0167033D01*
X0082096Y0166903D01*
X0082188Y0166771D01*
X0082276Y0166637D01*
X0082361Y0166500D01*
X0082443Y0166362D01*
X0082521Y0166221D01*
X0082595Y0166079D01*
X0082666Y0165935D01*
X0082734Y0165789D01*
X0082797Y0165641D01*
X0082858Y0165492D01*
X0082914Y0165341D01*
X0082967Y0165189D01*
X0083016Y0165036D01*
X0083061Y0164882D01*
X0083102Y0164727D01*
X0083140Y0164570D01*
X0083173Y0164413D01*
X0083203Y0164255D01*
X0083229Y0164096D01*
X0083250Y0163937D01*
X0083268Y0163777D01*
X0083282Y0163617D01*
X0083292Y0163456D01*
X0083298Y0163296D01*
X0083300Y0163135D01*
X0083298Y0162974D01*
X0083292Y0162814D01*
X0083282Y0162653D01*
X0083268Y0162493D01*
X0083250Y0162333D01*
X0083229Y0162174D01*
X0083203Y0162015D01*
X0083173Y0161857D01*
X0083140Y0161700D01*
X0083102Y0161543D01*
X0083061Y0161388D01*
X0083016Y0161234D01*
X0082967Y0161081D01*
X0082914Y0160929D01*
X0082858Y0160778D01*
X0082797Y0160629D01*
X0082734Y0160481D01*
X0082666Y0160335D01*
X0082595Y0160191D01*
X0082521Y0160049D01*
X0082443Y0159908D01*
X0082361Y0159770D01*
X0082276Y0159633D01*
X0082188Y0159499D01*
X0082096Y0159367D01*
X0082001Y0159237D01*
X0081903Y0159109D01*
X0081802Y0158984D01*
X0081698Y0158862D01*
X0081591Y0158742D01*
X0081481Y0158625D01*
X0081368Y0158510D01*
X0081252Y0158399D01*
X0081133Y0158290D01*
X0081012Y0158185D01*
X0080888Y0158082D01*
X0080762Y0157982D01*
X0080634Y0157886D01*
X0080503Y0157793D01*
X0080369Y0157703D01*
X0080234Y0157616D01*
X0080096Y0157533D01*
X0079957Y0157453D01*
X0079815Y0157377D01*
X0079672Y0157304D01*
X0079527Y0157235D01*
X0079380Y0157169D01*
X0079232Y0157107D01*
X0079082Y0157049D01*
X0078931Y0156994D01*
X0078778Y0156943D01*
X0078624Y0156896D01*
X0078469Y0156853D01*
X0078313Y0156814D01*
X0078157Y0156778D01*
X0077999Y0156747D01*
X0077841Y0156719D01*
X0077682Y0156695D01*
X0077522Y0156675D01*
X0077362Y0156659D01*
X0077202Y0156647D01*
X0077041Y0156639D01*
X0076880Y0156635D01*
X0076720Y0156635D01*
X0076559Y0156639D01*
X0076398Y0156647D01*
X0076238Y0156659D01*
X0076078Y0156675D01*
X0075918Y0156695D01*
X0075759Y0156719D01*
X0075601Y0156747D01*
X0075443Y0156778D01*
X0075287Y0156814D01*
X0075131Y0156853D01*
X0074976Y0156896D01*
X0074822Y0156943D01*
X0074669Y0156994D01*
X0074518Y0157049D01*
X0074368Y0157107D01*
X0074220Y0157169D01*
X0074073Y0157235D01*
X0073928Y0157304D01*
X0073785Y0157377D01*
X0073643Y0157453D01*
X0073504Y0157533D01*
X0073366Y0157616D01*
X0073231Y0157703D01*
X0073097Y0157793D01*
X0072966Y0157886D01*
X0072838Y0157982D01*
X0072712Y0158082D01*
X0072588Y0158185D01*
X0072467Y0158290D01*
X0072348Y0158399D01*
X0072232Y0158510D01*
X0072119Y0158625D01*
X0072009Y0158742D01*
X0071902Y0158862D01*
X0071798Y0158984D01*
X0071697Y0159109D01*
X0071599Y0159237D01*
X0071504Y0159367D01*
X0071412Y0159499D01*
X0071324Y0159633D01*
X0071239Y0159770D01*
X0071157Y0159908D01*
X0071079Y0160049D01*
X0071005Y0160191D01*
X0070934Y0160335D01*
X0070866Y0160481D01*
X0070803Y0160629D01*
X0070742Y0160778D01*
X0070686Y0160929D01*
X0070633Y0161081D01*
X0070584Y0161234D01*
X0070539Y0161388D01*
X0070498Y0161543D01*
X0070460Y0161700D01*
X0070427Y0161857D01*
X0070397Y0162015D01*
X0070371Y0162174D01*
X0070350Y0162333D01*
X0070332Y0162493D01*
X0070318Y0162653D01*
X0070308Y0162814D01*
X0070302Y0162974D01*
X0070300Y0163135D01*
X0044300Y0210837D02*
X0044398Y0210839D01*
X0044496Y0210845D01*
X0044594Y0210854D01*
X0044691Y0210868D01*
X0044788Y0210885D01*
X0044884Y0210906D01*
X0044979Y0210931D01*
X0045073Y0210959D01*
X0045165Y0210992D01*
X0045257Y0211027D01*
X0045347Y0211067D01*
X0045435Y0211109D01*
X0045522Y0211156D01*
X0045606Y0211205D01*
X0045689Y0211258D01*
X0045769Y0211314D01*
X0045848Y0211374D01*
X0045924Y0211436D01*
X0045997Y0211501D01*
X0046068Y0211569D01*
X0046136Y0211640D01*
X0046201Y0211713D01*
X0046263Y0211789D01*
X0046323Y0211868D01*
X0046379Y0211948D01*
X0046432Y0212031D01*
X0046481Y0212115D01*
X0046528Y0212202D01*
X0046570Y0212290D01*
X0046610Y0212380D01*
X0046645Y0212472D01*
X0046678Y0212564D01*
X0046706Y0212658D01*
X0046731Y0212753D01*
X0046752Y0212849D01*
X0046769Y0212946D01*
X0046783Y0213043D01*
X0046792Y0213141D01*
X0046798Y0213239D01*
X0046800Y0213337D01*
X0126801Y0243734D02*
X0126801Y0244534D01*
X0140601Y0244534D01*
X0143001Y0244534D01*
X0156801Y0244534D01*
X0156801Y0243734D01*
X0156801Y0258133D02*
X0156801Y0258933D01*
X0156801Y0258133D02*
X0126801Y0258133D01*
X0126801Y0258933D01*
X0271202Y0269135D02*
X0271202Y0275135D01*
X0271202Y0277535D01*
X0271202Y0283535D01*
X0271202Y0277535D02*
X0271271Y0277533D01*
X0271339Y0277527D01*
X0271407Y0277517D01*
X0271474Y0277504D01*
X0271540Y0277486D01*
X0271605Y0277465D01*
X0271669Y0277440D01*
X0271731Y0277412D01*
X0271792Y0277380D01*
X0271851Y0277345D01*
X0271907Y0277306D01*
X0271962Y0277264D01*
X0272013Y0277219D01*
X0272063Y0277171D01*
X0272109Y0277121D01*
X0272152Y0277068D01*
X0272193Y0277012D01*
X0272230Y0276955D01*
X0272263Y0276895D01*
X0272294Y0276833D01*
X0272320Y0276770D01*
X0272343Y0276706D01*
X0272363Y0276640D01*
X0272378Y0276573D01*
X0272390Y0276506D01*
X0272398Y0276438D01*
X0272402Y0276369D01*
X0272402Y0276301D01*
X0272398Y0276232D01*
X0272390Y0276164D01*
X0272378Y0276097D01*
X0272363Y0276030D01*
X0272343Y0275964D01*
X0272320Y0275900D01*
X0272294Y0275837D01*
X0272263Y0275775D01*
X0272230Y0275715D01*
X0272193Y0275658D01*
X0272152Y0275602D01*
X0272109Y0275549D01*
X0272063Y0275499D01*
X0272013Y0275451D01*
X0271962Y0275406D01*
X0271907Y0275364D01*
X0271851Y0275325D01*
X0271792Y0275290D01*
X0271731Y0275258D01*
X0271669Y0275230D01*
X0271605Y0275205D01*
X0271540Y0275184D01*
X0271474Y0275166D01*
X0271407Y0275153D01*
X0271339Y0275143D01*
X0271271Y0275137D01*
X0271202Y0275135D01*
X0282902Y0291535D02*
X0282902Y0295635D01*
X0302402Y0283535D02*
X0302402Y0269135D01*
X0295702Y0261135D02*
X0295702Y0257035D01*
X0282898Y0170636D02*
X0282898Y0166536D01*
X0271198Y0158536D02*
X0271198Y0152536D01*
X0271198Y0150136D01*
X0271198Y0144136D01*
X0271198Y0150136D02*
X0271267Y0150138D01*
X0271335Y0150144D01*
X0271403Y0150154D01*
X0271470Y0150167D01*
X0271536Y0150185D01*
X0271601Y0150206D01*
X0271665Y0150231D01*
X0271727Y0150259D01*
X0271788Y0150291D01*
X0271847Y0150326D01*
X0271903Y0150365D01*
X0271958Y0150407D01*
X0272009Y0150452D01*
X0272059Y0150500D01*
X0272105Y0150550D01*
X0272148Y0150603D01*
X0272189Y0150659D01*
X0272226Y0150716D01*
X0272259Y0150776D01*
X0272290Y0150838D01*
X0272316Y0150901D01*
X0272339Y0150965D01*
X0272359Y0151031D01*
X0272374Y0151098D01*
X0272386Y0151165D01*
X0272394Y0151233D01*
X0272398Y0151302D01*
X0272398Y0151370D01*
X0272394Y0151439D01*
X0272386Y0151507D01*
X0272374Y0151574D01*
X0272359Y0151641D01*
X0272339Y0151707D01*
X0272316Y0151771D01*
X0272290Y0151834D01*
X0272259Y0151896D01*
X0272226Y0151956D01*
X0272189Y0152013D01*
X0272148Y0152069D01*
X0272105Y0152122D01*
X0272059Y0152172D01*
X0272009Y0152220D01*
X0271958Y0152265D01*
X0271903Y0152307D01*
X0271847Y0152346D01*
X0271788Y0152381D01*
X0271727Y0152413D01*
X0271665Y0152441D01*
X0271601Y0152466D01*
X0271536Y0152487D01*
X0271470Y0152505D01*
X0271403Y0152518D01*
X0271335Y0152528D01*
X0271267Y0152534D01*
X0271198Y0152536D01*
X0295698Y0136136D02*
X0295698Y0132036D01*
X0302398Y0144136D02*
X0302398Y0158536D01*
X0309299Y0096333D02*
X0307299Y0094333D01*
X0307299Y0054333D01*
X0327299Y0054333D01*
X0327299Y0053833D01*
X0307299Y0053833D01*
X0307299Y0054333D01*
X0307299Y0053833D02*
X0307299Y0041833D01*
X0317299Y0041833D01*
X0317299Y0042833D01*
X0327299Y0042833D01*
X0327299Y0041833D01*
X0327799Y0041833D01*
X0327799Y0051333D01*
X0327801Y0051431D01*
X0327807Y0051529D01*
X0327816Y0051627D01*
X0327830Y0051724D01*
X0327847Y0051821D01*
X0327868Y0051917D01*
X0327893Y0052012D01*
X0327921Y0052106D01*
X0327954Y0052198D01*
X0327989Y0052290D01*
X0328029Y0052380D01*
X0328071Y0052468D01*
X0328118Y0052555D01*
X0328167Y0052639D01*
X0328220Y0052722D01*
X0328276Y0052802D01*
X0328336Y0052881D01*
X0328398Y0052957D01*
X0328463Y0053030D01*
X0328531Y0053101D01*
X0328602Y0053169D01*
X0328675Y0053234D01*
X0328751Y0053296D01*
X0328830Y0053356D01*
X0328910Y0053412D01*
X0328993Y0053465D01*
X0329077Y0053514D01*
X0329164Y0053561D01*
X0329252Y0053603D01*
X0329342Y0053643D01*
X0329434Y0053678D01*
X0329526Y0053711D01*
X0329620Y0053739D01*
X0329715Y0053764D01*
X0329811Y0053785D01*
X0329908Y0053802D01*
X0330005Y0053816D01*
X0330103Y0053825D01*
X0330201Y0053831D01*
X0330299Y0053833D01*
X0330799Y0053833D02*
X0330799Y0094333D01*
X0328799Y0096333D01*
X0309299Y0096333D01*
X0312799Y0083833D02*
X0312801Y0083994D01*
X0312807Y0084154D01*
X0312817Y0084315D01*
X0312831Y0084475D01*
X0312849Y0084635D01*
X0312870Y0084794D01*
X0312896Y0084953D01*
X0312926Y0085111D01*
X0312959Y0085268D01*
X0312997Y0085425D01*
X0313038Y0085580D01*
X0313083Y0085734D01*
X0313132Y0085887D01*
X0313185Y0086039D01*
X0313241Y0086190D01*
X0313302Y0086339D01*
X0313365Y0086487D01*
X0313433Y0086633D01*
X0313504Y0086777D01*
X0313578Y0086919D01*
X0313656Y0087060D01*
X0313738Y0087198D01*
X0313823Y0087335D01*
X0313911Y0087469D01*
X0314003Y0087601D01*
X0314098Y0087731D01*
X0314196Y0087859D01*
X0314297Y0087984D01*
X0314401Y0088106D01*
X0314508Y0088226D01*
X0314618Y0088343D01*
X0314731Y0088458D01*
X0314847Y0088569D01*
X0314966Y0088678D01*
X0315087Y0088783D01*
X0315211Y0088886D01*
X0315337Y0088986D01*
X0315465Y0089082D01*
X0315596Y0089175D01*
X0315730Y0089265D01*
X0315865Y0089352D01*
X0316003Y0089435D01*
X0316142Y0089515D01*
X0316284Y0089591D01*
X0316427Y0089664D01*
X0316572Y0089733D01*
X0316719Y0089799D01*
X0316867Y0089861D01*
X0317017Y0089919D01*
X0317168Y0089974D01*
X0317321Y0090025D01*
X0317475Y0090072D01*
X0317630Y0090115D01*
X0317786Y0090154D01*
X0317942Y0090190D01*
X0318100Y0090221D01*
X0318258Y0090249D01*
X0318417Y0090273D01*
X0318577Y0090293D01*
X0318737Y0090309D01*
X0318897Y0090321D01*
X0319058Y0090329D01*
X0319219Y0090333D01*
X0319379Y0090333D01*
X0319540Y0090329D01*
X0319701Y0090321D01*
X0319861Y0090309D01*
X0320021Y0090293D01*
X0320181Y0090273D01*
X0320340Y0090249D01*
X0320498Y0090221D01*
X0320656Y0090190D01*
X0320812Y0090154D01*
X0320968Y0090115D01*
X0321123Y0090072D01*
X0321277Y0090025D01*
X0321430Y0089974D01*
X0321581Y0089919D01*
X0321731Y0089861D01*
X0321879Y0089799D01*
X0322026Y0089733D01*
X0322171Y0089664D01*
X0322314Y0089591D01*
X0322456Y0089515D01*
X0322595Y0089435D01*
X0322733Y0089352D01*
X0322868Y0089265D01*
X0323002Y0089175D01*
X0323133Y0089082D01*
X0323261Y0088986D01*
X0323387Y0088886D01*
X0323511Y0088783D01*
X0323632Y0088678D01*
X0323751Y0088569D01*
X0323867Y0088458D01*
X0323980Y0088343D01*
X0324090Y0088226D01*
X0324197Y0088106D01*
X0324301Y0087984D01*
X0324402Y0087859D01*
X0324500Y0087731D01*
X0324595Y0087601D01*
X0324687Y0087469D01*
X0324775Y0087335D01*
X0324860Y0087198D01*
X0324942Y0087060D01*
X0325020Y0086919D01*
X0325094Y0086777D01*
X0325165Y0086633D01*
X0325233Y0086487D01*
X0325296Y0086339D01*
X0325357Y0086190D01*
X0325413Y0086039D01*
X0325466Y0085887D01*
X0325515Y0085734D01*
X0325560Y0085580D01*
X0325601Y0085425D01*
X0325639Y0085268D01*
X0325672Y0085111D01*
X0325702Y0084953D01*
X0325728Y0084794D01*
X0325749Y0084635D01*
X0325767Y0084475D01*
X0325781Y0084315D01*
X0325791Y0084154D01*
X0325797Y0083994D01*
X0325799Y0083833D01*
X0325797Y0083672D01*
X0325791Y0083512D01*
X0325781Y0083351D01*
X0325767Y0083191D01*
X0325749Y0083031D01*
X0325728Y0082872D01*
X0325702Y0082713D01*
X0325672Y0082555D01*
X0325639Y0082398D01*
X0325601Y0082241D01*
X0325560Y0082086D01*
X0325515Y0081932D01*
X0325466Y0081779D01*
X0325413Y0081627D01*
X0325357Y0081476D01*
X0325296Y0081327D01*
X0325233Y0081179D01*
X0325165Y0081033D01*
X0325094Y0080889D01*
X0325020Y0080747D01*
X0324942Y0080606D01*
X0324860Y0080468D01*
X0324775Y0080331D01*
X0324687Y0080197D01*
X0324595Y0080065D01*
X0324500Y0079935D01*
X0324402Y0079807D01*
X0324301Y0079682D01*
X0324197Y0079560D01*
X0324090Y0079440D01*
X0323980Y0079323D01*
X0323867Y0079208D01*
X0323751Y0079097D01*
X0323632Y0078988D01*
X0323511Y0078883D01*
X0323387Y0078780D01*
X0323261Y0078680D01*
X0323133Y0078584D01*
X0323002Y0078491D01*
X0322868Y0078401D01*
X0322733Y0078314D01*
X0322595Y0078231D01*
X0322456Y0078151D01*
X0322314Y0078075D01*
X0322171Y0078002D01*
X0322026Y0077933D01*
X0321879Y0077867D01*
X0321731Y0077805D01*
X0321581Y0077747D01*
X0321430Y0077692D01*
X0321277Y0077641D01*
X0321123Y0077594D01*
X0320968Y0077551D01*
X0320812Y0077512D01*
X0320656Y0077476D01*
X0320498Y0077445D01*
X0320340Y0077417D01*
X0320181Y0077393D01*
X0320021Y0077373D01*
X0319861Y0077357D01*
X0319701Y0077345D01*
X0319540Y0077337D01*
X0319379Y0077333D01*
X0319219Y0077333D01*
X0319058Y0077337D01*
X0318897Y0077345D01*
X0318737Y0077357D01*
X0318577Y0077373D01*
X0318417Y0077393D01*
X0318258Y0077417D01*
X0318100Y0077445D01*
X0317942Y0077476D01*
X0317786Y0077512D01*
X0317630Y0077551D01*
X0317475Y0077594D01*
X0317321Y0077641D01*
X0317168Y0077692D01*
X0317017Y0077747D01*
X0316867Y0077805D01*
X0316719Y0077867D01*
X0316572Y0077933D01*
X0316427Y0078002D01*
X0316284Y0078075D01*
X0316142Y0078151D01*
X0316003Y0078231D01*
X0315865Y0078314D01*
X0315730Y0078401D01*
X0315596Y0078491D01*
X0315465Y0078584D01*
X0315337Y0078680D01*
X0315211Y0078780D01*
X0315087Y0078883D01*
X0314966Y0078988D01*
X0314847Y0079097D01*
X0314731Y0079208D01*
X0314618Y0079323D01*
X0314508Y0079440D01*
X0314401Y0079560D01*
X0314297Y0079682D01*
X0314196Y0079807D01*
X0314098Y0079935D01*
X0314003Y0080065D01*
X0313911Y0080197D01*
X0313823Y0080331D01*
X0313738Y0080468D01*
X0313656Y0080606D01*
X0313578Y0080747D01*
X0313504Y0080889D01*
X0313433Y0081033D01*
X0313365Y0081179D01*
X0313302Y0081327D01*
X0313241Y0081476D01*
X0313185Y0081627D01*
X0313132Y0081779D01*
X0313083Y0081932D01*
X0313038Y0082086D01*
X0312997Y0082241D01*
X0312959Y0082398D01*
X0312926Y0082555D01*
X0312896Y0082713D01*
X0312870Y0082872D01*
X0312849Y0083031D01*
X0312831Y0083191D01*
X0312817Y0083351D01*
X0312807Y0083512D01*
X0312801Y0083672D01*
X0312799Y0083833D01*
X0331799Y0056833D02*
X0331799Y0053833D01*
X0330799Y0053833D01*
X0327299Y0053833D01*
X0331799Y0053833D02*
X0556799Y0053833D01*
X0556799Y0056833D01*
X0331799Y0056833D01*
X0327799Y0041833D02*
X0560799Y0041833D01*
X0560799Y0051333D01*
X0560797Y0051431D01*
X0560791Y0051529D01*
X0560782Y0051627D01*
X0560768Y0051724D01*
X0560751Y0051821D01*
X0560730Y0051917D01*
X0560705Y0052012D01*
X0560677Y0052106D01*
X0560644Y0052198D01*
X0560609Y0052290D01*
X0560569Y0052380D01*
X0560527Y0052468D01*
X0560480Y0052555D01*
X0560431Y0052639D01*
X0560378Y0052722D01*
X0560322Y0052802D01*
X0560262Y0052881D01*
X0560200Y0052957D01*
X0560135Y0053030D01*
X0560067Y0053101D01*
X0559996Y0053169D01*
X0559923Y0053234D01*
X0559847Y0053296D01*
X0559768Y0053356D01*
X0559688Y0053412D01*
X0559605Y0053465D01*
X0559521Y0053514D01*
X0559434Y0053561D01*
X0559346Y0053603D01*
X0559256Y0053643D01*
X0559164Y0053678D01*
X0559072Y0053711D01*
X0558978Y0053739D01*
X0558883Y0053764D01*
X0558787Y0053785D01*
X0558690Y0053802D01*
X0558593Y0053816D01*
X0558495Y0053825D01*
X0558397Y0053831D01*
X0558299Y0053833D01*
X0557799Y0053833D02*
X0557799Y0094333D01*
X0559799Y0096333D01*
X0578799Y0096333D01*
X0581299Y0093833D01*
X0581299Y0054333D01*
X0561299Y0054333D01*
X0561299Y0053833D01*
X0557799Y0053833D01*
X0556799Y0053833D01*
X0561299Y0053833D02*
X0581299Y0053833D01*
X0581299Y0054333D01*
X0581299Y0053833D02*
X0581299Y0041833D01*
X0581299Y0039833D01*
X0571299Y0039833D01*
X0571299Y0041833D01*
X0571299Y0042833D01*
X0561299Y0042833D01*
X0561299Y0041833D01*
X0560799Y0041833D01*
X0561299Y0041833D02*
X0561299Y0039833D01*
X0327299Y0039833D01*
X0327299Y0041833D01*
X0327299Y0039833D02*
X0317299Y0039833D01*
X0307299Y0039833D01*
X0307299Y0041833D01*
X0307299Y0039833D02*
X0307299Y0037833D01*
X0335299Y0037833D01*
X0335299Y0016833D01*
X0333799Y0016833D02*
X0333801Y0016746D01*
X0333807Y0016659D01*
X0333816Y0016572D01*
X0333829Y0016486D01*
X0333846Y0016400D01*
X0333867Y0016315D01*
X0333892Y0016232D01*
X0333920Y0016149D01*
X0333951Y0016068D01*
X0333986Y0015988D01*
X0334025Y0015910D01*
X0334067Y0015833D01*
X0334112Y0015758D01*
X0334161Y0015686D01*
X0334212Y0015615D01*
X0334267Y0015547D01*
X0334324Y0015482D01*
X0334385Y0015419D01*
X0334448Y0015358D01*
X0334513Y0015301D01*
X0334581Y0015246D01*
X0334652Y0015195D01*
X0334724Y0015146D01*
X0334799Y0015101D01*
X0334876Y0015059D01*
X0334954Y0015020D01*
X0335034Y0014985D01*
X0335115Y0014954D01*
X0335198Y0014926D01*
X0335281Y0014901D01*
X0335366Y0014880D01*
X0335452Y0014863D01*
X0335538Y0014850D01*
X0335625Y0014841D01*
X0335712Y0014835D01*
X0335799Y0014833D01*
X0336799Y0014833D01*
X0551799Y0014833D01*
X0551799Y0035833D01*
X0553299Y0037833D02*
X0581299Y0037833D01*
X0581299Y0039833D01*
X0581299Y0041833D02*
X0571299Y0041833D01*
X0571299Y0039833D02*
X0561299Y0039833D01*
X0557299Y0037833D02*
X0557201Y0037831D01*
X0557103Y0037825D01*
X0557005Y0037816D01*
X0556908Y0037802D01*
X0556811Y0037785D01*
X0556715Y0037764D01*
X0556620Y0037739D01*
X0556526Y0037711D01*
X0556434Y0037678D01*
X0556342Y0037643D01*
X0556252Y0037603D01*
X0556164Y0037561D01*
X0556077Y0037514D01*
X0555993Y0037465D01*
X0555910Y0037412D01*
X0555830Y0037356D01*
X0555751Y0037296D01*
X0555675Y0037234D01*
X0555602Y0037169D01*
X0555531Y0037101D01*
X0555463Y0037030D01*
X0555398Y0036957D01*
X0555336Y0036881D01*
X0555276Y0036802D01*
X0555220Y0036722D01*
X0555167Y0036639D01*
X0555118Y0036555D01*
X0555071Y0036468D01*
X0555029Y0036380D01*
X0554989Y0036290D01*
X0554954Y0036198D01*
X0554921Y0036106D01*
X0554893Y0036012D01*
X0554868Y0035917D01*
X0554847Y0035821D01*
X0554830Y0035724D01*
X0554816Y0035627D01*
X0554807Y0035529D01*
X0554801Y0035431D01*
X0554799Y0035333D01*
X0554799Y0016833D01*
X0553299Y0016833D02*
X0553299Y0037833D01*
X0335299Y0037833D01*
X0336799Y0035833D02*
X0336799Y0014833D01*
X0333799Y0016833D02*
X0333799Y0035333D01*
X0333797Y0035431D01*
X0333791Y0035529D01*
X0333782Y0035627D01*
X0333768Y0035724D01*
X0333751Y0035821D01*
X0333730Y0035917D01*
X0333705Y0036012D01*
X0333677Y0036106D01*
X0333644Y0036198D01*
X0333609Y0036290D01*
X0333569Y0036380D01*
X0333527Y0036468D01*
X0333480Y0036555D01*
X0333431Y0036639D01*
X0333378Y0036722D01*
X0333322Y0036802D01*
X0333262Y0036881D01*
X0333200Y0036957D01*
X0333135Y0037030D01*
X0333067Y0037101D01*
X0332996Y0037169D01*
X0332923Y0037234D01*
X0332847Y0037296D01*
X0332768Y0037356D01*
X0332688Y0037412D01*
X0332605Y0037465D01*
X0332521Y0037514D01*
X0332434Y0037561D01*
X0332346Y0037603D01*
X0332256Y0037643D01*
X0332164Y0037678D01*
X0332072Y0037711D01*
X0331978Y0037739D01*
X0331883Y0037764D01*
X0331787Y0037785D01*
X0331690Y0037802D01*
X0331593Y0037816D01*
X0331495Y0037825D01*
X0331397Y0037831D01*
X0331299Y0037833D01*
X0317299Y0039833D02*
X0317299Y0041833D01*
X0360799Y0028833D02*
X0360799Y0019833D01*
X0362299Y0019833D01*
X0362299Y0027333D01*
X0368299Y0027333D01*
X0368299Y0019833D01*
X0369799Y0019833D01*
X0369799Y0028833D01*
X0360799Y0028833D01*
X0376299Y0028833D02*
X0376299Y0019833D01*
X0377799Y0019833D01*
X0377799Y0027333D01*
X0383799Y0027333D01*
X0383799Y0019833D01*
X0385299Y0019833D01*
X0385299Y0028833D01*
X0376299Y0028833D01*
X0391799Y0028833D02*
X0391799Y0019833D01*
X0393299Y0019833D01*
X0393299Y0027333D01*
X0399299Y0027333D01*
X0399299Y0019833D01*
X0400799Y0019833D01*
X0400799Y0028833D01*
X0391799Y0028833D01*
X0407799Y0028833D02*
X0407799Y0019833D01*
X0409299Y0019833D01*
X0409299Y0027333D01*
X0415299Y0027333D01*
X0415299Y0019833D01*
X0416799Y0019833D01*
X0416799Y0028833D01*
X0407799Y0028833D01*
X0424299Y0028833D02*
X0424299Y0019833D01*
X0425799Y0019833D01*
X0425799Y0027333D01*
X0431799Y0027333D01*
X0431799Y0019833D01*
X0433299Y0019833D01*
X0433299Y0028833D01*
X0424299Y0028833D01*
X0439799Y0028833D02*
X0439799Y0019833D01*
X0441299Y0019833D01*
X0441299Y0027333D01*
X0447299Y0027333D01*
X0447299Y0019833D01*
X0448799Y0019833D01*
X0448799Y0028833D01*
X0439799Y0028833D01*
X0455299Y0028833D02*
X0455299Y0019833D01*
X0456799Y0019833D01*
X0456799Y0027333D01*
X0462799Y0027333D01*
X0462799Y0019833D01*
X0464299Y0019833D01*
X0464299Y0028833D01*
X0455299Y0028833D01*
X0471799Y0028833D02*
X0471799Y0019833D01*
X0473299Y0019833D01*
X0473299Y0027333D01*
X0479299Y0027333D01*
X0479299Y0019833D01*
X0480799Y0019833D01*
X0480799Y0028833D01*
X0471799Y0028833D01*
X0487799Y0028833D02*
X0487799Y0019833D01*
X0489299Y0019833D01*
X0489299Y0027333D01*
X0495299Y0027333D01*
X0495299Y0019833D01*
X0496799Y0019833D01*
X0496799Y0028833D01*
X0487799Y0028833D01*
X0503299Y0028833D02*
X0503299Y0019833D01*
X0504799Y0019833D01*
X0504799Y0027333D01*
X0510799Y0027333D01*
X0510799Y0019833D01*
X0512299Y0019833D01*
X0512299Y0028833D01*
X0503299Y0028833D01*
X0518799Y0028833D02*
X0518799Y0019833D01*
X0520299Y0019833D01*
X0520299Y0027333D01*
X0526299Y0027333D01*
X0526299Y0019833D01*
X0527799Y0019833D01*
X0527799Y0028833D01*
X0518799Y0028833D01*
X0551799Y0014833D02*
X0552799Y0014833D01*
X0552886Y0014835D01*
X0552973Y0014841D01*
X0553060Y0014850D01*
X0553146Y0014863D01*
X0553232Y0014880D01*
X0553317Y0014901D01*
X0553400Y0014926D01*
X0553483Y0014954D01*
X0553564Y0014985D01*
X0553644Y0015020D01*
X0553722Y0015059D01*
X0553799Y0015101D01*
X0553874Y0015146D01*
X0553946Y0015195D01*
X0554017Y0015246D01*
X0554085Y0015301D01*
X0554150Y0015358D01*
X0554213Y0015419D01*
X0554274Y0015482D01*
X0554331Y0015547D01*
X0554386Y0015615D01*
X0554437Y0015686D01*
X0554486Y0015758D01*
X0554531Y0015833D01*
X0554573Y0015910D01*
X0554612Y0015988D01*
X0554647Y0016068D01*
X0554678Y0016149D01*
X0554706Y0016232D01*
X0554731Y0016315D01*
X0554752Y0016400D01*
X0554769Y0016486D01*
X0554782Y0016572D01*
X0554791Y0016659D01*
X0554797Y0016746D01*
X0554799Y0016833D01*
X0562799Y0083833D02*
X0562801Y0083994D01*
X0562807Y0084154D01*
X0562817Y0084315D01*
X0562831Y0084475D01*
X0562849Y0084635D01*
X0562870Y0084794D01*
X0562896Y0084953D01*
X0562926Y0085111D01*
X0562959Y0085268D01*
X0562997Y0085425D01*
X0563038Y0085580D01*
X0563083Y0085734D01*
X0563132Y0085887D01*
X0563185Y0086039D01*
X0563241Y0086190D01*
X0563302Y0086339D01*
X0563365Y0086487D01*
X0563433Y0086633D01*
X0563504Y0086777D01*
X0563578Y0086919D01*
X0563656Y0087060D01*
X0563738Y0087198D01*
X0563823Y0087335D01*
X0563911Y0087469D01*
X0564003Y0087601D01*
X0564098Y0087731D01*
X0564196Y0087859D01*
X0564297Y0087984D01*
X0564401Y0088106D01*
X0564508Y0088226D01*
X0564618Y0088343D01*
X0564731Y0088458D01*
X0564847Y0088569D01*
X0564966Y0088678D01*
X0565087Y0088783D01*
X0565211Y0088886D01*
X0565337Y0088986D01*
X0565465Y0089082D01*
X0565596Y0089175D01*
X0565730Y0089265D01*
X0565865Y0089352D01*
X0566003Y0089435D01*
X0566142Y0089515D01*
X0566284Y0089591D01*
X0566427Y0089664D01*
X0566572Y0089733D01*
X0566719Y0089799D01*
X0566867Y0089861D01*
X0567017Y0089919D01*
X0567168Y0089974D01*
X0567321Y0090025D01*
X0567475Y0090072D01*
X0567630Y0090115D01*
X0567786Y0090154D01*
X0567942Y0090190D01*
X0568100Y0090221D01*
X0568258Y0090249D01*
X0568417Y0090273D01*
X0568577Y0090293D01*
X0568737Y0090309D01*
X0568897Y0090321D01*
X0569058Y0090329D01*
X0569219Y0090333D01*
X0569379Y0090333D01*
X0569540Y0090329D01*
X0569701Y0090321D01*
X0569861Y0090309D01*
X0570021Y0090293D01*
X0570181Y0090273D01*
X0570340Y0090249D01*
X0570498Y0090221D01*
X0570656Y0090190D01*
X0570812Y0090154D01*
X0570968Y0090115D01*
X0571123Y0090072D01*
X0571277Y0090025D01*
X0571430Y0089974D01*
X0571581Y0089919D01*
X0571731Y0089861D01*
X0571879Y0089799D01*
X0572026Y0089733D01*
X0572171Y0089664D01*
X0572314Y0089591D01*
X0572456Y0089515D01*
X0572595Y0089435D01*
X0572733Y0089352D01*
X0572868Y0089265D01*
X0573002Y0089175D01*
X0573133Y0089082D01*
X0573261Y0088986D01*
X0573387Y0088886D01*
X0573511Y0088783D01*
X0573632Y0088678D01*
X0573751Y0088569D01*
X0573867Y0088458D01*
X0573980Y0088343D01*
X0574090Y0088226D01*
X0574197Y0088106D01*
X0574301Y0087984D01*
X0574402Y0087859D01*
X0574500Y0087731D01*
X0574595Y0087601D01*
X0574687Y0087469D01*
X0574775Y0087335D01*
X0574860Y0087198D01*
X0574942Y0087060D01*
X0575020Y0086919D01*
X0575094Y0086777D01*
X0575165Y0086633D01*
X0575233Y0086487D01*
X0575296Y0086339D01*
X0575357Y0086190D01*
X0575413Y0086039D01*
X0575466Y0085887D01*
X0575515Y0085734D01*
X0575560Y0085580D01*
X0575601Y0085425D01*
X0575639Y0085268D01*
X0575672Y0085111D01*
X0575702Y0084953D01*
X0575728Y0084794D01*
X0575749Y0084635D01*
X0575767Y0084475D01*
X0575781Y0084315D01*
X0575791Y0084154D01*
X0575797Y0083994D01*
X0575799Y0083833D01*
X0575797Y0083672D01*
X0575791Y0083512D01*
X0575781Y0083351D01*
X0575767Y0083191D01*
X0575749Y0083031D01*
X0575728Y0082872D01*
X0575702Y0082713D01*
X0575672Y0082555D01*
X0575639Y0082398D01*
X0575601Y0082241D01*
X0575560Y0082086D01*
X0575515Y0081932D01*
X0575466Y0081779D01*
X0575413Y0081627D01*
X0575357Y0081476D01*
X0575296Y0081327D01*
X0575233Y0081179D01*
X0575165Y0081033D01*
X0575094Y0080889D01*
X0575020Y0080747D01*
X0574942Y0080606D01*
X0574860Y0080468D01*
X0574775Y0080331D01*
X0574687Y0080197D01*
X0574595Y0080065D01*
X0574500Y0079935D01*
X0574402Y0079807D01*
X0574301Y0079682D01*
X0574197Y0079560D01*
X0574090Y0079440D01*
X0573980Y0079323D01*
X0573867Y0079208D01*
X0573751Y0079097D01*
X0573632Y0078988D01*
X0573511Y0078883D01*
X0573387Y0078780D01*
X0573261Y0078680D01*
X0573133Y0078584D01*
X0573002Y0078491D01*
X0572868Y0078401D01*
X0572733Y0078314D01*
X0572595Y0078231D01*
X0572456Y0078151D01*
X0572314Y0078075D01*
X0572171Y0078002D01*
X0572026Y0077933D01*
X0571879Y0077867D01*
X0571731Y0077805D01*
X0571581Y0077747D01*
X0571430Y0077692D01*
X0571277Y0077641D01*
X0571123Y0077594D01*
X0570968Y0077551D01*
X0570812Y0077512D01*
X0570656Y0077476D01*
X0570498Y0077445D01*
X0570340Y0077417D01*
X0570181Y0077393D01*
X0570021Y0077373D01*
X0569861Y0077357D01*
X0569701Y0077345D01*
X0569540Y0077337D01*
X0569379Y0077333D01*
X0569219Y0077333D01*
X0569058Y0077337D01*
X0568897Y0077345D01*
X0568737Y0077357D01*
X0568577Y0077373D01*
X0568417Y0077393D01*
X0568258Y0077417D01*
X0568100Y0077445D01*
X0567942Y0077476D01*
X0567786Y0077512D01*
X0567630Y0077551D01*
X0567475Y0077594D01*
X0567321Y0077641D01*
X0567168Y0077692D01*
X0567017Y0077747D01*
X0566867Y0077805D01*
X0566719Y0077867D01*
X0566572Y0077933D01*
X0566427Y0078002D01*
X0566284Y0078075D01*
X0566142Y0078151D01*
X0566003Y0078231D01*
X0565865Y0078314D01*
X0565730Y0078401D01*
X0565596Y0078491D01*
X0565465Y0078584D01*
X0565337Y0078680D01*
X0565211Y0078780D01*
X0565087Y0078883D01*
X0564966Y0078988D01*
X0564847Y0079097D01*
X0564731Y0079208D01*
X0564618Y0079323D01*
X0564508Y0079440D01*
X0564401Y0079560D01*
X0564297Y0079682D01*
X0564196Y0079807D01*
X0564098Y0079935D01*
X0564003Y0080065D01*
X0563911Y0080197D01*
X0563823Y0080331D01*
X0563738Y0080468D01*
X0563656Y0080606D01*
X0563578Y0080747D01*
X0563504Y0080889D01*
X0563433Y0081033D01*
X0563365Y0081179D01*
X0563302Y0081327D01*
X0563241Y0081476D01*
X0563185Y0081627D01*
X0563132Y0081779D01*
X0563083Y0081932D01*
X0563038Y0082086D01*
X0562997Y0082241D01*
X0562959Y0082398D01*
X0562926Y0082555D01*
X0562896Y0082713D01*
X0562870Y0082872D01*
X0562849Y0083031D01*
X0562831Y0083191D01*
X0562817Y0083351D01*
X0562807Y0083512D01*
X0562801Y0083672D01*
X0562799Y0083833D01*
X0603201Y0102036D02*
X0603201Y0106136D01*
X0614901Y0114136D02*
X0614901Y0120136D01*
X0614901Y0122536D01*
X0614901Y0128536D01*
X0614901Y0122536D02*
X0614832Y0122534D01*
X0614764Y0122528D01*
X0614696Y0122518D01*
X0614629Y0122505D01*
X0614563Y0122487D01*
X0614498Y0122466D01*
X0614434Y0122441D01*
X0614372Y0122413D01*
X0614311Y0122381D01*
X0614252Y0122346D01*
X0614196Y0122307D01*
X0614141Y0122265D01*
X0614090Y0122220D01*
X0614040Y0122172D01*
X0613994Y0122122D01*
X0613951Y0122069D01*
X0613910Y0122013D01*
X0613873Y0121956D01*
X0613840Y0121896D01*
X0613809Y0121834D01*
X0613783Y0121771D01*
X0613760Y0121707D01*
X0613740Y0121641D01*
X0613725Y0121574D01*
X0613713Y0121507D01*
X0613705Y0121439D01*
X0613701Y0121370D01*
X0613701Y0121302D01*
X0613705Y0121233D01*
X0613713Y0121165D01*
X0613725Y0121098D01*
X0613740Y0121031D01*
X0613760Y0120965D01*
X0613783Y0120901D01*
X0613809Y0120838D01*
X0613840Y0120776D01*
X0613873Y0120716D01*
X0613910Y0120659D01*
X0613951Y0120603D01*
X0613994Y0120550D01*
X0614040Y0120500D01*
X0614090Y0120452D01*
X0614141Y0120407D01*
X0614196Y0120365D01*
X0614252Y0120326D01*
X0614311Y0120291D01*
X0614372Y0120259D01*
X0614434Y0120231D01*
X0614498Y0120206D01*
X0614563Y0120185D01*
X0614629Y0120167D01*
X0614696Y0120154D01*
X0614764Y0120144D01*
X0614832Y0120138D01*
X0614901Y0120136D01*
X0590401Y0136536D02*
X0590401Y0140636D01*
X0583701Y0128536D02*
X0583701Y0114136D01*
X0674301Y0178836D02*
X0676801Y0176336D01*
X0681801Y0176336D01*
X0684301Y0178836D01*
X0684301Y0183836D01*
X0681801Y0186336D01*
X0676801Y0186336D01*
X0674301Y0183836D01*
X0674301Y0178836D01*
X0684301Y0178836D02*
X0686801Y0176336D01*
X0691801Y0176336D01*
X0694301Y0178836D01*
X0694301Y0183836D01*
X0691801Y0186336D01*
X0686801Y0186336D01*
X0684301Y0183836D01*
X0673801Y0192836D02*
X0714301Y0192836D01*
X0714301Y0216336D01*
X0673801Y0216336D01*
X0671801Y0214336D01*
X0671801Y0194836D01*
X0673801Y0192836D01*
X0677801Y0204536D02*
X0677803Y0204697D01*
X0677809Y0204857D01*
X0677819Y0205018D01*
X0677833Y0205178D01*
X0677851Y0205338D01*
X0677872Y0205497D01*
X0677898Y0205656D01*
X0677928Y0205814D01*
X0677961Y0205971D01*
X0677999Y0206128D01*
X0678040Y0206283D01*
X0678085Y0206437D01*
X0678134Y0206590D01*
X0678187Y0206742D01*
X0678243Y0206893D01*
X0678304Y0207042D01*
X0678367Y0207190D01*
X0678435Y0207336D01*
X0678506Y0207480D01*
X0678580Y0207622D01*
X0678658Y0207763D01*
X0678740Y0207901D01*
X0678825Y0208038D01*
X0678913Y0208172D01*
X0679005Y0208304D01*
X0679100Y0208434D01*
X0679198Y0208562D01*
X0679299Y0208687D01*
X0679403Y0208809D01*
X0679510Y0208929D01*
X0679620Y0209046D01*
X0679733Y0209161D01*
X0679849Y0209272D01*
X0679968Y0209381D01*
X0680089Y0209486D01*
X0680213Y0209589D01*
X0680339Y0209689D01*
X0680467Y0209785D01*
X0680598Y0209878D01*
X0680732Y0209968D01*
X0680867Y0210055D01*
X0681005Y0210138D01*
X0681144Y0210218D01*
X0681286Y0210294D01*
X0681429Y0210367D01*
X0681574Y0210436D01*
X0681721Y0210502D01*
X0681869Y0210564D01*
X0682019Y0210622D01*
X0682170Y0210677D01*
X0682323Y0210728D01*
X0682477Y0210775D01*
X0682632Y0210818D01*
X0682788Y0210857D01*
X0682944Y0210893D01*
X0683102Y0210924D01*
X0683260Y0210952D01*
X0683419Y0210976D01*
X0683579Y0210996D01*
X0683739Y0211012D01*
X0683899Y0211024D01*
X0684060Y0211032D01*
X0684221Y0211036D01*
X0684381Y0211036D01*
X0684542Y0211032D01*
X0684703Y0211024D01*
X0684863Y0211012D01*
X0685023Y0210996D01*
X0685183Y0210976D01*
X0685342Y0210952D01*
X0685500Y0210924D01*
X0685658Y0210893D01*
X0685814Y0210857D01*
X0685970Y0210818D01*
X0686125Y0210775D01*
X0686279Y0210728D01*
X0686432Y0210677D01*
X0686583Y0210622D01*
X0686733Y0210564D01*
X0686881Y0210502D01*
X0687028Y0210436D01*
X0687173Y0210367D01*
X0687316Y0210294D01*
X0687458Y0210218D01*
X0687597Y0210138D01*
X0687735Y0210055D01*
X0687870Y0209968D01*
X0688004Y0209878D01*
X0688135Y0209785D01*
X0688263Y0209689D01*
X0688389Y0209589D01*
X0688513Y0209486D01*
X0688634Y0209381D01*
X0688753Y0209272D01*
X0688869Y0209161D01*
X0688982Y0209046D01*
X0689092Y0208929D01*
X0689199Y0208809D01*
X0689303Y0208687D01*
X0689404Y0208562D01*
X0689502Y0208434D01*
X0689597Y0208304D01*
X0689689Y0208172D01*
X0689777Y0208038D01*
X0689862Y0207901D01*
X0689944Y0207763D01*
X0690022Y0207622D01*
X0690096Y0207480D01*
X0690167Y0207336D01*
X0690235Y0207190D01*
X0690298Y0207042D01*
X0690359Y0206893D01*
X0690415Y0206742D01*
X0690468Y0206590D01*
X0690517Y0206437D01*
X0690562Y0206283D01*
X0690603Y0206128D01*
X0690641Y0205971D01*
X0690674Y0205814D01*
X0690704Y0205656D01*
X0690730Y0205497D01*
X0690751Y0205338D01*
X0690769Y0205178D01*
X0690783Y0205018D01*
X0690793Y0204857D01*
X0690799Y0204697D01*
X0690801Y0204536D01*
X0690799Y0204375D01*
X0690793Y0204215D01*
X0690783Y0204054D01*
X0690769Y0203894D01*
X0690751Y0203734D01*
X0690730Y0203575D01*
X0690704Y0203416D01*
X0690674Y0203258D01*
X0690641Y0203101D01*
X0690603Y0202944D01*
X0690562Y0202789D01*
X0690517Y0202635D01*
X0690468Y0202482D01*
X0690415Y0202330D01*
X0690359Y0202179D01*
X0690298Y0202030D01*
X0690235Y0201882D01*
X0690167Y0201736D01*
X0690096Y0201592D01*
X0690022Y0201450D01*
X0689944Y0201309D01*
X0689862Y0201171D01*
X0689777Y0201034D01*
X0689689Y0200900D01*
X0689597Y0200768D01*
X0689502Y0200638D01*
X0689404Y0200510D01*
X0689303Y0200385D01*
X0689199Y0200263D01*
X0689092Y0200143D01*
X0688982Y0200026D01*
X0688869Y0199911D01*
X0688753Y0199800D01*
X0688634Y0199691D01*
X0688513Y0199586D01*
X0688389Y0199483D01*
X0688263Y0199383D01*
X0688135Y0199287D01*
X0688004Y0199194D01*
X0687870Y0199104D01*
X0687735Y0199017D01*
X0687597Y0198934D01*
X0687458Y0198854D01*
X0687316Y0198778D01*
X0687173Y0198705D01*
X0687028Y0198636D01*
X0686881Y0198570D01*
X0686733Y0198508D01*
X0686583Y0198450D01*
X0686432Y0198395D01*
X0686279Y0198344D01*
X0686125Y0198297D01*
X0685970Y0198254D01*
X0685814Y0198215D01*
X0685658Y0198179D01*
X0685500Y0198148D01*
X0685342Y0198120D01*
X0685183Y0198096D01*
X0685023Y0198076D01*
X0684863Y0198060D01*
X0684703Y0198048D01*
X0684542Y0198040D01*
X0684381Y0198036D01*
X0684221Y0198036D01*
X0684060Y0198040D01*
X0683899Y0198048D01*
X0683739Y0198060D01*
X0683579Y0198076D01*
X0683419Y0198096D01*
X0683260Y0198120D01*
X0683102Y0198148D01*
X0682944Y0198179D01*
X0682788Y0198215D01*
X0682632Y0198254D01*
X0682477Y0198297D01*
X0682323Y0198344D01*
X0682170Y0198395D01*
X0682019Y0198450D01*
X0681869Y0198508D01*
X0681721Y0198570D01*
X0681574Y0198636D01*
X0681429Y0198705D01*
X0681286Y0198778D01*
X0681144Y0198854D01*
X0681005Y0198934D01*
X0680867Y0199017D01*
X0680732Y0199104D01*
X0680598Y0199194D01*
X0680467Y0199287D01*
X0680339Y0199383D01*
X0680213Y0199483D01*
X0680089Y0199586D01*
X0679968Y0199691D01*
X0679849Y0199800D01*
X0679733Y0199911D01*
X0679620Y0200026D01*
X0679510Y0200143D01*
X0679403Y0200263D01*
X0679299Y0200385D01*
X0679198Y0200510D01*
X0679100Y0200638D01*
X0679005Y0200768D01*
X0678913Y0200900D01*
X0678825Y0201034D01*
X0678740Y0201171D01*
X0678658Y0201309D01*
X0678580Y0201450D01*
X0678506Y0201592D01*
X0678435Y0201736D01*
X0678367Y0201882D01*
X0678304Y0202030D01*
X0678243Y0202179D01*
X0678187Y0202330D01*
X0678134Y0202482D01*
X0678085Y0202635D01*
X0678040Y0202789D01*
X0677999Y0202944D01*
X0677961Y0203101D01*
X0677928Y0203258D01*
X0677898Y0203416D01*
X0677872Y0203575D01*
X0677851Y0203734D01*
X0677833Y0203894D01*
X0677819Y0204054D01*
X0677809Y0204215D01*
X0677803Y0204375D01*
X0677801Y0204536D01*
X0677803Y0204697D01*
X0677809Y0204857D01*
X0677819Y0205018D01*
X0677833Y0205178D01*
X0677851Y0205338D01*
X0677872Y0205497D01*
X0677898Y0205656D01*
X0677928Y0205814D01*
X0677961Y0205971D01*
X0677999Y0206128D01*
X0678040Y0206283D01*
X0678085Y0206437D01*
X0678134Y0206590D01*
X0678187Y0206742D01*
X0678243Y0206893D01*
X0678304Y0207042D01*
X0678367Y0207190D01*
X0678435Y0207336D01*
X0678506Y0207480D01*
X0678580Y0207622D01*
X0678658Y0207763D01*
X0678740Y0207901D01*
X0678825Y0208038D01*
X0678913Y0208172D01*
X0679005Y0208304D01*
X0679100Y0208434D01*
X0679198Y0208562D01*
X0679299Y0208687D01*
X0679403Y0208809D01*
X0679510Y0208929D01*
X0679620Y0209046D01*
X0679733Y0209161D01*
X0679849Y0209272D01*
X0679968Y0209381D01*
X0680089Y0209486D01*
X0680213Y0209589D01*
X0680339Y0209689D01*
X0680467Y0209785D01*
X0680598Y0209878D01*
X0680732Y0209968D01*
X0680867Y0210055D01*
X0681005Y0210138D01*
X0681144Y0210218D01*
X0681286Y0210294D01*
X0681429Y0210367D01*
X0681574Y0210436D01*
X0681721Y0210502D01*
X0681869Y0210564D01*
X0682019Y0210622D01*
X0682170Y0210677D01*
X0682323Y0210728D01*
X0682477Y0210775D01*
X0682632Y0210818D01*
X0682788Y0210857D01*
X0682944Y0210893D01*
X0683102Y0210924D01*
X0683260Y0210952D01*
X0683419Y0210976D01*
X0683579Y0210996D01*
X0683739Y0211012D01*
X0683899Y0211024D01*
X0684060Y0211032D01*
X0684221Y0211036D01*
X0684381Y0211036D01*
X0684542Y0211032D01*
X0684703Y0211024D01*
X0684863Y0211012D01*
X0685023Y0210996D01*
X0685183Y0210976D01*
X0685342Y0210952D01*
X0685500Y0210924D01*
X0685658Y0210893D01*
X0685814Y0210857D01*
X0685970Y0210818D01*
X0686125Y0210775D01*
X0686279Y0210728D01*
X0686432Y0210677D01*
X0686583Y0210622D01*
X0686733Y0210564D01*
X0686881Y0210502D01*
X0687028Y0210436D01*
X0687173Y0210367D01*
X0687316Y0210294D01*
X0687458Y0210218D01*
X0687597Y0210138D01*
X0687735Y0210055D01*
X0687870Y0209968D01*
X0688004Y0209878D01*
X0688135Y0209785D01*
X0688263Y0209689D01*
X0688389Y0209589D01*
X0688513Y0209486D01*
X0688634Y0209381D01*
X0688753Y0209272D01*
X0688869Y0209161D01*
X0688982Y0209046D01*
X0689092Y0208929D01*
X0689199Y0208809D01*
X0689303Y0208687D01*
X0689404Y0208562D01*
X0689502Y0208434D01*
X0689597Y0208304D01*
X0689689Y0208172D01*
X0689777Y0208038D01*
X0689862Y0207901D01*
X0689944Y0207763D01*
X0690022Y0207622D01*
X0690096Y0207480D01*
X0690167Y0207336D01*
X0690235Y0207190D01*
X0690298Y0207042D01*
X0690359Y0206893D01*
X0690415Y0206742D01*
X0690468Y0206590D01*
X0690517Y0206437D01*
X0690562Y0206283D01*
X0690603Y0206128D01*
X0690641Y0205971D01*
X0690674Y0205814D01*
X0690704Y0205656D01*
X0690730Y0205497D01*
X0690751Y0205338D01*
X0690769Y0205178D01*
X0690783Y0205018D01*
X0690793Y0204857D01*
X0690799Y0204697D01*
X0690801Y0204536D01*
X0690799Y0204375D01*
X0690793Y0204215D01*
X0690783Y0204054D01*
X0690769Y0203894D01*
X0690751Y0203734D01*
X0690730Y0203575D01*
X0690704Y0203416D01*
X0690674Y0203258D01*
X0690641Y0203101D01*
X0690603Y0202944D01*
X0690562Y0202789D01*
X0690517Y0202635D01*
X0690468Y0202482D01*
X0690415Y0202330D01*
X0690359Y0202179D01*
X0690298Y0202030D01*
X0690235Y0201882D01*
X0690167Y0201736D01*
X0690096Y0201592D01*
X0690022Y0201450D01*
X0689944Y0201309D01*
X0689862Y0201171D01*
X0689777Y0201034D01*
X0689689Y0200900D01*
X0689597Y0200768D01*
X0689502Y0200638D01*
X0689404Y0200510D01*
X0689303Y0200385D01*
X0689199Y0200263D01*
X0689092Y0200143D01*
X0688982Y0200026D01*
X0688869Y0199911D01*
X0688753Y0199800D01*
X0688634Y0199691D01*
X0688513Y0199586D01*
X0688389Y0199483D01*
X0688263Y0199383D01*
X0688135Y0199287D01*
X0688004Y0199194D01*
X0687870Y0199104D01*
X0687735Y0199017D01*
X0687597Y0198934D01*
X0687458Y0198854D01*
X0687316Y0198778D01*
X0687173Y0198705D01*
X0687028Y0198636D01*
X0686881Y0198570D01*
X0686733Y0198508D01*
X0686583Y0198450D01*
X0686432Y0198395D01*
X0686279Y0198344D01*
X0686125Y0198297D01*
X0685970Y0198254D01*
X0685814Y0198215D01*
X0685658Y0198179D01*
X0685500Y0198148D01*
X0685342Y0198120D01*
X0685183Y0198096D01*
X0685023Y0198076D01*
X0684863Y0198060D01*
X0684703Y0198048D01*
X0684542Y0198040D01*
X0684381Y0198036D01*
X0684221Y0198036D01*
X0684060Y0198040D01*
X0683899Y0198048D01*
X0683739Y0198060D01*
X0683579Y0198076D01*
X0683419Y0198096D01*
X0683260Y0198120D01*
X0683102Y0198148D01*
X0682944Y0198179D01*
X0682788Y0198215D01*
X0682632Y0198254D01*
X0682477Y0198297D01*
X0682323Y0198344D01*
X0682170Y0198395D01*
X0682019Y0198450D01*
X0681869Y0198508D01*
X0681721Y0198570D01*
X0681574Y0198636D01*
X0681429Y0198705D01*
X0681286Y0198778D01*
X0681144Y0198854D01*
X0681005Y0198934D01*
X0680867Y0199017D01*
X0680732Y0199104D01*
X0680598Y0199194D01*
X0680467Y0199287D01*
X0680339Y0199383D01*
X0680213Y0199483D01*
X0680089Y0199586D01*
X0679968Y0199691D01*
X0679849Y0199800D01*
X0679733Y0199911D01*
X0679620Y0200026D01*
X0679510Y0200143D01*
X0679403Y0200263D01*
X0679299Y0200385D01*
X0679198Y0200510D01*
X0679100Y0200638D01*
X0679005Y0200768D01*
X0678913Y0200900D01*
X0678825Y0201034D01*
X0678740Y0201171D01*
X0678658Y0201309D01*
X0678580Y0201450D01*
X0678506Y0201592D01*
X0678435Y0201736D01*
X0678367Y0201882D01*
X0678304Y0202030D01*
X0678243Y0202179D01*
X0678187Y0202330D01*
X0678134Y0202482D01*
X0678085Y0202635D01*
X0678040Y0202789D01*
X0677999Y0202944D01*
X0677961Y0203101D01*
X0677928Y0203258D01*
X0677898Y0203416D01*
X0677872Y0203575D01*
X0677851Y0203734D01*
X0677833Y0203894D01*
X0677819Y0204054D01*
X0677809Y0204215D01*
X0677803Y0204375D01*
X0677801Y0204536D01*
X0711301Y0217336D02*
X0714301Y0217336D01*
X0714301Y0216336D01*
X0714301Y0217336D02*
X0714301Y0290336D01*
X0711301Y0290336D01*
X0711301Y0217336D01*
X0714301Y0215836D02*
X0714303Y0215738D01*
X0714309Y0215640D01*
X0714318Y0215542D01*
X0714332Y0215445D01*
X0714349Y0215348D01*
X0714370Y0215252D01*
X0714395Y0215157D01*
X0714423Y0215063D01*
X0714456Y0214971D01*
X0714491Y0214879D01*
X0714531Y0214789D01*
X0714573Y0214701D01*
X0714620Y0214614D01*
X0714669Y0214530D01*
X0714722Y0214447D01*
X0714778Y0214367D01*
X0714838Y0214288D01*
X0714900Y0214212D01*
X0714965Y0214139D01*
X0715033Y0214068D01*
X0715104Y0214000D01*
X0715177Y0213935D01*
X0715253Y0213873D01*
X0715332Y0213813D01*
X0715412Y0213757D01*
X0715495Y0213704D01*
X0715579Y0213655D01*
X0715666Y0213608D01*
X0715754Y0213566D01*
X0715844Y0213526D01*
X0715936Y0213491D01*
X0716028Y0213458D01*
X0716122Y0213430D01*
X0716217Y0213405D01*
X0716313Y0213384D01*
X0716410Y0213367D01*
X0716507Y0213353D01*
X0716605Y0213344D01*
X0716703Y0213338D01*
X0716801Y0213336D01*
X0726301Y0213336D01*
X0726301Y0212836D01*
X0728301Y0212836D01*
X0728301Y0192836D01*
X0714301Y0192836D01*
X0728301Y0192836D02*
X0730301Y0192836D01*
X0730301Y0314836D01*
X0728301Y0314836D01*
X0728301Y0294836D01*
X0728301Y0212836D01*
X0730301Y0219336D02*
X0730303Y0219434D01*
X0730309Y0219532D01*
X0730318Y0219630D01*
X0730332Y0219727D01*
X0730349Y0219824D01*
X0730370Y0219920D01*
X0730395Y0220015D01*
X0730423Y0220109D01*
X0730456Y0220201D01*
X0730491Y0220293D01*
X0730531Y0220383D01*
X0730573Y0220471D01*
X0730620Y0220558D01*
X0730669Y0220642D01*
X0730722Y0220725D01*
X0730778Y0220805D01*
X0730838Y0220884D01*
X0730900Y0220960D01*
X0730965Y0221033D01*
X0731033Y0221104D01*
X0731104Y0221172D01*
X0731177Y0221237D01*
X0731253Y0221299D01*
X0731332Y0221359D01*
X0731412Y0221415D01*
X0731495Y0221468D01*
X0731579Y0221517D01*
X0731666Y0221564D01*
X0731754Y0221606D01*
X0731844Y0221646D01*
X0731936Y0221681D01*
X0732028Y0221714D01*
X0732122Y0221742D01*
X0732217Y0221767D01*
X0732313Y0221788D01*
X0732410Y0221805D01*
X0732507Y0221819D01*
X0732605Y0221828D01*
X0732703Y0221834D01*
X0732801Y0221836D01*
X0752801Y0221836D01*
X0752888Y0221838D01*
X0752975Y0221844D01*
X0753062Y0221853D01*
X0753148Y0221866D01*
X0753234Y0221883D01*
X0753319Y0221904D01*
X0753402Y0221929D01*
X0753485Y0221957D01*
X0753566Y0221988D01*
X0753646Y0222023D01*
X0753724Y0222062D01*
X0753801Y0222104D01*
X0753876Y0222149D01*
X0753948Y0222198D01*
X0754019Y0222249D01*
X0754087Y0222304D01*
X0754152Y0222361D01*
X0754215Y0222422D01*
X0754276Y0222485D01*
X0754333Y0222550D01*
X0754388Y0222618D01*
X0754439Y0222689D01*
X0754488Y0222761D01*
X0754533Y0222836D01*
X0754575Y0222913D01*
X0754614Y0222991D01*
X0754649Y0223071D01*
X0754680Y0223152D01*
X0754708Y0223235D01*
X0754733Y0223318D01*
X0754754Y0223403D01*
X0754771Y0223489D01*
X0754784Y0223575D01*
X0754793Y0223662D01*
X0754799Y0223749D01*
X0754801Y0223836D01*
X0754801Y0283836D01*
X0754799Y0283923D01*
X0754793Y0284010D01*
X0754784Y0284097D01*
X0754771Y0284183D01*
X0754754Y0284269D01*
X0754733Y0284354D01*
X0754708Y0284437D01*
X0754680Y0284520D01*
X0754649Y0284601D01*
X0754614Y0284681D01*
X0754575Y0284759D01*
X0754533Y0284836D01*
X0754488Y0284911D01*
X0754439Y0284983D01*
X0754388Y0285054D01*
X0754333Y0285122D01*
X0754276Y0285187D01*
X0754215Y0285250D01*
X0754152Y0285311D01*
X0754087Y0285368D01*
X0754019Y0285423D01*
X0753948Y0285474D01*
X0753876Y0285523D01*
X0753801Y0285568D01*
X0753724Y0285610D01*
X0753646Y0285649D01*
X0753566Y0285684D01*
X0753485Y0285715D01*
X0753402Y0285743D01*
X0753319Y0285768D01*
X0753234Y0285789D01*
X0753148Y0285806D01*
X0753062Y0285819D01*
X0752975Y0285828D01*
X0752888Y0285834D01*
X0752801Y0285836D01*
X0732801Y0285836D01*
X0732703Y0285838D01*
X0732605Y0285844D01*
X0732507Y0285853D01*
X0732410Y0285867D01*
X0732313Y0285884D01*
X0732217Y0285905D01*
X0732122Y0285930D01*
X0732028Y0285958D01*
X0731936Y0285991D01*
X0731844Y0286026D01*
X0731754Y0286066D01*
X0731666Y0286108D01*
X0731579Y0286155D01*
X0731495Y0286204D01*
X0731412Y0286257D01*
X0731332Y0286313D01*
X0731253Y0286373D01*
X0731177Y0286435D01*
X0731104Y0286500D01*
X0731033Y0286568D01*
X0730965Y0286639D01*
X0730900Y0286712D01*
X0730838Y0286788D01*
X0730778Y0286867D01*
X0730722Y0286947D01*
X0730669Y0287030D01*
X0730620Y0287114D01*
X0730573Y0287201D01*
X0730531Y0287289D01*
X0730491Y0287379D01*
X0730456Y0287471D01*
X0730423Y0287563D01*
X0730395Y0287657D01*
X0730370Y0287752D01*
X0730349Y0287848D01*
X0730332Y0287945D01*
X0730318Y0288042D01*
X0730309Y0288140D01*
X0730303Y0288238D01*
X0730301Y0288336D01*
X0728301Y0294836D02*
X0726301Y0294836D01*
X0726301Y0294336D01*
X0716801Y0294336D01*
X0716703Y0294334D01*
X0716605Y0294328D01*
X0716507Y0294319D01*
X0716410Y0294305D01*
X0716313Y0294288D01*
X0716217Y0294267D01*
X0716122Y0294242D01*
X0716028Y0294214D01*
X0715936Y0294181D01*
X0715844Y0294146D01*
X0715754Y0294106D01*
X0715666Y0294064D01*
X0715579Y0294017D01*
X0715495Y0293968D01*
X0715412Y0293915D01*
X0715332Y0293859D01*
X0715253Y0293799D01*
X0715177Y0293737D01*
X0715104Y0293672D01*
X0715033Y0293604D01*
X0714965Y0293533D01*
X0714900Y0293460D01*
X0714838Y0293384D01*
X0714778Y0293305D01*
X0714722Y0293225D01*
X0714669Y0293142D01*
X0714620Y0293058D01*
X0714573Y0292971D01*
X0714531Y0292883D01*
X0714491Y0292793D01*
X0714456Y0292701D01*
X0714423Y0292609D01*
X0714395Y0292515D01*
X0714370Y0292420D01*
X0714349Y0292324D01*
X0714332Y0292227D01*
X0714318Y0292130D01*
X0714309Y0292032D01*
X0714303Y0291934D01*
X0714301Y0291836D01*
X0714301Y0291336D02*
X0673801Y0291336D01*
X0671801Y0293336D01*
X0671801Y0312336D01*
X0674301Y0314836D01*
X0714301Y0314836D01*
X0728301Y0314836D01*
X0714301Y0314836D02*
X0714301Y0291336D01*
X0714301Y0290336D01*
X0677801Y0303136D02*
X0677803Y0303297D01*
X0677809Y0303457D01*
X0677819Y0303618D01*
X0677833Y0303778D01*
X0677851Y0303938D01*
X0677872Y0304097D01*
X0677898Y0304256D01*
X0677928Y0304414D01*
X0677961Y0304571D01*
X0677999Y0304728D01*
X0678040Y0304883D01*
X0678085Y0305037D01*
X0678134Y0305190D01*
X0678187Y0305342D01*
X0678243Y0305493D01*
X0678304Y0305642D01*
X0678367Y0305790D01*
X0678435Y0305936D01*
X0678506Y0306080D01*
X0678580Y0306222D01*
X0678658Y0306363D01*
X0678740Y0306501D01*
X0678825Y0306638D01*
X0678913Y0306772D01*
X0679005Y0306904D01*
X0679100Y0307034D01*
X0679198Y0307162D01*
X0679299Y0307287D01*
X0679403Y0307409D01*
X0679510Y0307529D01*
X0679620Y0307646D01*
X0679733Y0307761D01*
X0679849Y0307872D01*
X0679968Y0307981D01*
X0680089Y0308086D01*
X0680213Y0308189D01*
X0680339Y0308289D01*
X0680467Y0308385D01*
X0680598Y0308478D01*
X0680732Y0308568D01*
X0680867Y0308655D01*
X0681005Y0308738D01*
X0681144Y0308818D01*
X0681286Y0308894D01*
X0681429Y0308967D01*
X0681574Y0309036D01*
X0681721Y0309102D01*
X0681869Y0309164D01*
X0682019Y0309222D01*
X0682170Y0309277D01*
X0682323Y0309328D01*
X0682477Y0309375D01*
X0682632Y0309418D01*
X0682788Y0309457D01*
X0682944Y0309493D01*
X0683102Y0309524D01*
X0683260Y0309552D01*
X0683419Y0309576D01*
X0683579Y0309596D01*
X0683739Y0309612D01*
X0683899Y0309624D01*
X0684060Y0309632D01*
X0684221Y0309636D01*
X0684381Y0309636D01*
X0684542Y0309632D01*
X0684703Y0309624D01*
X0684863Y0309612D01*
X0685023Y0309596D01*
X0685183Y0309576D01*
X0685342Y0309552D01*
X0685500Y0309524D01*
X0685658Y0309493D01*
X0685814Y0309457D01*
X0685970Y0309418D01*
X0686125Y0309375D01*
X0686279Y0309328D01*
X0686432Y0309277D01*
X0686583Y0309222D01*
X0686733Y0309164D01*
X0686881Y0309102D01*
X0687028Y0309036D01*
X0687173Y0308967D01*
X0687316Y0308894D01*
X0687458Y0308818D01*
X0687597Y0308738D01*
X0687735Y0308655D01*
X0687870Y0308568D01*
X0688004Y0308478D01*
X0688135Y0308385D01*
X0688263Y0308289D01*
X0688389Y0308189D01*
X0688513Y0308086D01*
X0688634Y0307981D01*
X0688753Y0307872D01*
X0688869Y0307761D01*
X0688982Y0307646D01*
X0689092Y0307529D01*
X0689199Y0307409D01*
X0689303Y0307287D01*
X0689404Y0307162D01*
X0689502Y0307034D01*
X0689597Y0306904D01*
X0689689Y0306772D01*
X0689777Y0306638D01*
X0689862Y0306501D01*
X0689944Y0306363D01*
X0690022Y0306222D01*
X0690096Y0306080D01*
X0690167Y0305936D01*
X0690235Y0305790D01*
X0690298Y0305642D01*
X0690359Y0305493D01*
X0690415Y0305342D01*
X0690468Y0305190D01*
X0690517Y0305037D01*
X0690562Y0304883D01*
X0690603Y0304728D01*
X0690641Y0304571D01*
X0690674Y0304414D01*
X0690704Y0304256D01*
X0690730Y0304097D01*
X0690751Y0303938D01*
X0690769Y0303778D01*
X0690783Y0303618D01*
X0690793Y0303457D01*
X0690799Y0303297D01*
X0690801Y0303136D01*
X0690799Y0302975D01*
X0690793Y0302815D01*
X0690783Y0302654D01*
X0690769Y0302494D01*
X0690751Y0302334D01*
X0690730Y0302175D01*
X0690704Y0302016D01*
X0690674Y0301858D01*
X0690641Y0301701D01*
X0690603Y0301544D01*
X0690562Y0301389D01*
X0690517Y0301235D01*
X0690468Y0301082D01*
X0690415Y0300930D01*
X0690359Y0300779D01*
X0690298Y0300630D01*
X0690235Y0300482D01*
X0690167Y0300336D01*
X0690096Y0300192D01*
X0690022Y0300050D01*
X0689944Y0299909D01*
X0689862Y0299771D01*
X0689777Y0299634D01*
X0689689Y0299500D01*
X0689597Y0299368D01*
X0689502Y0299238D01*
X0689404Y0299110D01*
X0689303Y0298985D01*
X0689199Y0298863D01*
X0689092Y0298743D01*
X0688982Y0298626D01*
X0688869Y0298511D01*
X0688753Y0298400D01*
X0688634Y0298291D01*
X0688513Y0298186D01*
X0688389Y0298083D01*
X0688263Y0297983D01*
X0688135Y0297887D01*
X0688004Y0297794D01*
X0687870Y0297704D01*
X0687735Y0297617D01*
X0687597Y0297534D01*
X0687458Y0297454D01*
X0687316Y0297378D01*
X0687173Y0297305D01*
X0687028Y0297236D01*
X0686881Y0297170D01*
X0686733Y0297108D01*
X0686583Y0297050D01*
X0686432Y0296995D01*
X0686279Y0296944D01*
X0686125Y0296897D01*
X0685970Y0296854D01*
X0685814Y0296815D01*
X0685658Y0296779D01*
X0685500Y0296748D01*
X0685342Y0296720D01*
X0685183Y0296696D01*
X0685023Y0296676D01*
X0684863Y0296660D01*
X0684703Y0296648D01*
X0684542Y0296640D01*
X0684381Y0296636D01*
X0684221Y0296636D01*
X0684060Y0296640D01*
X0683899Y0296648D01*
X0683739Y0296660D01*
X0683579Y0296676D01*
X0683419Y0296696D01*
X0683260Y0296720D01*
X0683102Y0296748D01*
X0682944Y0296779D01*
X0682788Y0296815D01*
X0682632Y0296854D01*
X0682477Y0296897D01*
X0682323Y0296944D01*
X0682170Y0296995D01*
X0682019Y0297050D01*
X0681869Y0297108D01*
X0681721Y0297170D01*
X0681574Y0297236D01*
X0681429Y0297305D01*
X0681286Y0297378D01*
X0681144Y0297454D01*
X0681005Y0297534D01*
X0680867Y0297617D01*
X0680732Y0297704D01*
X0680598Y0297794D01*
X0680467Y0297887D01*
X0680339Y0297983D01*
X0680213Y0298083D01*
X0680089Y0298186D01*
X0679968Y0298291D01*
X0679849Y0298400D01*
X0679733Y0298511D01*
X0679620Y0298626D01*
X0679510Y0298743D01*
X0679403Y0298863D01*
X0679299Y0298985D01*
X0679198Y0299110D01*
X0679100Y0299238D01*
X0679005Y0299368D01*
X0678913Y0299500D01*
X0678825Y0299634D01*
X0678740Y0299771D01*
X0678658Y0299909D01*
X0678580Y0300050D01*
X0678506Y0300192D01*
X0678435Y0300336D01*
X0678367Y0300482D01*
X0678304Y0300630D01*
X0678243Y0300779D01*
X0678187Y0300930D01*
X0678134Y0301082D01*
X0678085Y0301235D01*
X0678040Y0301389D01*
X0677999Y0301544D01*
X0677961Y0301701D01*
X0677928Y0301858D01*
X0677898Y0302016D01*
X0677872Y0302175D01*
X0677851Y0302334D01*
X0677833Y0302494D01*
X0677819Y0302654D01*
X0677809Y0302815D01*
X0677803Y0302975D01*
X0677801Y0303136D01*
X0677803Y0303297D01*
X0677809Y0303457D01*
X0677819Y0303618D01*
X0677833Y0303778D01*
X0677851Y0303938D01*
X0677872Y0304097D01*
X0677898Y0304256D01*
X0677928Y0304414D01*
X0677961Y0304571D01*
X0677999Y0304728D01*
X0678040Y0304883D01*
X0678085Y0305037D01*
X0678134Y0305190D01*
X0678187Y0305342D01*
X0678243Y0305493D01*
X0678304Y0305642D01*
X0678367Y0305790D01*
X0678435Y0305936D01*
X0678506Y0306080D01*
X0678580Y0306222D01*
X0678658Y0306363D01*
X0678740Y0306501D01*
X0678825Y0306638D01*
X0678913Y0306772D01*
X0679005Y0306904D01*
X0679100Y0307034D01*
X0679198Y0307162D01*
X0679299Y0307287D01*
X0679403Y0307409D01*
X0679510Y0307529D01*
X0679620Y0307646D01*
X0679733Y0307761D01*
X0679849Y0307872D01*
X0679968Y0307981D01*
X0680089Y0308086D01*
X0680213Y0308189D01*
X0680339Y0308289D01*
X0680467Y0308385D01*
X0680598Y0308478D01*
X0680732Y0308568D01*
X0680867Y0308655D01*
X0681005Y0308738D01*
X0681144Y0308818D01*
X0681286Y0308894D01*
X0681429Y0308967D01*
X0681574Y0309036D01*
X0681721Y0309102D01*
X0681869Y0309164D01*
X0682019Y0309222D01*
X0682170Y0309277D01*
X0682323Y0309328D01*
X0682477Y0309375D01*
X0682632Y0309418D01*
X0682788Y0309457D01*
X0682944Y0309493D01*
X0683102Y0309524D01*
X0683260Y0309552D01*
X0683419Y0309576D01*
X0683579Y0309596D01*
X0683739Y0309612D01*
X0683899Y0309624D01*
X0684060Y0309632D01*
X0684221Y0309636D01*
X0684381Y0309636D01*
X0684542Y0309632D01*
X0684703Y0309624D01*
X0684863Y0309612D01*
X0685023Y0309596D01*
X0685183Y0309576D01*
X0685342Y0309552D01*
X0685500Y0309524D01*
X0685658Y0309493D01*
X0685814Y0309457D01*
X0685970Y0309418D01*
X0686125Y0309375D01*
X0686279Y0309328D01*
X0686432Y0309277D01*
X0686583Y0309222D01*
X0686733Y0309164D01*
X0686881Y0309102D01*
X0687028Y0309036D01*
X0687173Y0308967D01*
X0687316Y0308894D01*
X0687458Y0308818D01*
X0687597Y0308738D01*
X0687735Y0308655D01*
X0687870Y0308568D01*
X0688004Y0308478D01*
X0688135Y0308385D01*
X0688263Y0308289D01*
X0688389Y0308189D01*
X0688513Y0308086D01*
X0688634Y0307981D01*
X0688753Y0307872D01*
X0688869Y0307761D01*
X0688982Y0307646D01*
X0689092Y0307529D01*
X0689199Y0307409D01*
X0689303Y0307287D01*
X0689404Y0307162D01*
X0689502Y0307034D01*
X0689597Y0306904D01*
X0689689Y0306772D01*
X0689777Y0306638D01*
X0689862Y0306501D01*
X0689944Y0306363D01*
X0690022Y0306222D01*
X0690096Y0306080D01*
X0690167Y0305936D01*
X0690235Y0305790D01*
X0690298Y0305642D01*
X0690359Y0305493D01*
X0690415Y0305342D01*
X0690468Y0305190D01*
X0690517Y0305037D01*
X0690562Y0304883D01*
X0690603Y0304728D01*
X0690641Y0304571D01*
X0690674Y0304414D01*
X0690704Y0304256D01*
X0690730Y0304097D01*
X0690751Y0303938D01*
X0690769Y0303778D01*
X0690783Y0303618D01*
X0690793Y0303457D01*
X0690799Y0303297D01*
X0690801Y0303136D01*
X0690799Y0302975D01*
X0690793Y0302815D01*
X0690783Y0302654D01*
X0690769Y0302494D01*
X0690751Y0302334D01*
X0690730Y0302175D01*
X0690704Y0302016D01*
X0690674Y0301858D01*
X0690641Y0301701D01*
X0690603Y0301544D01*
X0690562Y0301389D01*
X0690517Y0301235D01*
X0690468Y0301082D01*
X0690415Y0300930D01*
X0690359Y0300779D01*
X0690298Y0300630D01*
X0690235Y0300482D01*
X0690167Y0300336D01*
X0690096Y0300192D01*
X0690022Y0300050D01*
X0689944Y0299909D01*
X0689862Y0299771D01*
X0689777Y0299634D01*
X0689689Y0299500D01*
X0689597Y0299368D01*
X0689502Y0299238D01*
X0689404Y0299110D01*
X0689303Y0298985D01*
X0689199Y0298863D01*
X0689092Y0298743D01*
X0688982Y0298626D01*
X0688869Y0298511D01*
X0688753Y0298400D01*
X0688634Y0298291D01*
X0688513Y0298186D01*
X0688389Y0298083D01*
X0688263Y0297983D01*
X0688135Y0297887D01*
X0688004Y0297794D01*
X0687870Y0297704D01*
X0687735Y0297617D01*
X0687597Y0297534D01*
X0687458Y0297454D01*
X0687316Y0297378D01*
X0687173Y0297305D01*
X0687028Y0297236D01*
X0686881Y0297170D01*
X0686733Y0297108D01*
X0686583Y0297050D01*
X0686432Y0296995D01*
X0686279Y0296944D01*
X0686125Y0296897D01*
X0685970Y0296854D01*
X0685814Y0296815D01*
X0685658Y0296779D01*
X0685500Y0296748D01*
X0685342Y0296720D01*
X0685183Y0296696D01*
X0685023Y0296676D01*
X0684863Y0296660D01*
X0684703Y0296648D01*
X0684542Y0296640D01*
X0684381Y0296636D01*
X0684221Y0296636D01*
X0684060Y0296640D01*
X0683899Y0296648D01*
X0683739Y0296660D01*
X0683579Y0296676D01*
X0683419Y0296696D01*
X0683260Y0296720D01*
X0683102Y0296748D01*
X0682944Y0296779D01*
X0682788Y0296815D01*
X0682632Y0296854D01*
X0682477Y0296897D01*
X0682323Y0296944D01*
X0682170Y0296995D01*
X0682019Y0297050D01*
X0681869Y0297108D01*
X0681721Y0297170D01*
X0681574Y0297236D01*
X0681429Y0297305D01*
X0681286Y0297378D01*
X0681144Y0297454D01*
X0681005Y0297534D01*
X0680867Y0297617D01*
X0680732Y0297704D01*
X0680598Y0297794D01*
X0680467Y0297887D01*
X0680339Y0297983D01*
X0680213Y0298083D01*
X0680089Y0298186D01*
X0679968Y0298291D01*
X0679849Y0298400D01*
X0679733Y0298511D01*
X0679620Y0298626D01*
X0679510Y0298743D01*
X0679403Y0298863D01*
X0679299Y0298985D01*
X0679198Y0299110D01*
X0679100Y0299238D01*
X0679005Y0299368D01*
X0678913Y0299500D01*
X0678825Y0299634D01*
X0678740Y0299771D01*
X0678658Y0299909D01*
X0678580Y0300050D01*
X0678506Y0300192D01*
X0678435Y0300336D01*
X0678367Y0300482D01*
X0678304Y0300630D01*
X0678243Y0300779D01*
X0678187Y0300930D01*
X0678134Y0301082D01*
X0678085Y0301235D01*
X0678040Y0301389D01*
X0677999Y0301544D01*
X0677961Y0301701D01*
X0677928Y0301858D01*
X0677898Y0302016D01*
X0677872Y0302175D01*
X0677851Y0302334D01*
X0677833Y0302494D01*
X0677819Y0302654D01*
X0677809Y0302815D01*
X0677803Y0302975D01*
X0677801Y0303136D01*
X0659300Y0341335D02*
X0654300Y0341335D01*
X0651800Y0343835D01*
X0651800Y0348835D01*
X0654300Y0351335D01*
X0659300Y0351335D01*
X0661800Y0348835D01*
X0661800Y0343835D01*
X0659300Y0341335D01*
X0614902Y0341032D02*
X0614902Y0335032D01*
X0614902Y0332632D01*
X0614902Y0326632D01*
X0614902Y0332632D02*
X0614833Y0332634D01*
X0614765Y0332640D01*
X0614697Y0332650D01*
X0614630Y0332663D01*
X0614564Y0332681D01*
X0614499Y0332702D01*
X0614435Y0332727D01*
X0614373Y0332755D01*
X0614312Y0332787D01*
X0614253Y0332822D01*
X0614197Y0332861D01*
X0614142Y0332903D01*
X0614091Y0332948D01*
X0614041Y0332996D01*
X0613995Y0333046D01*
X0613952Y0333099D01*
X0613911Y0333155D01*
X0613874Y0333212D01*
X0613841Y0333272D01*
X0613810Y0333334D01*
X0613784Y0333397D01*
X0613761Y0333461D01*
X0613741Y0333527D01*
X0613726Y0333594D01*
X0613714Y0333661D01*
X0613706Y0333729D01*
X0613702Y0333798D01*
X0613702Y0333866D01*
X0613706Y0333935D01*
X0613714Y0334003D01*
X0613726Y0334070D01*
X0613741Y0334137D01*
X0613761Y0334203D01*
X0613784Y0334267D01*
X0613810Y0334330D01*
X0613841Y0334392D01*
X0613874Y0334452D01*
X0613911Y0334509D01*
X0613952Y0334565D01*
X0613995Y0334618D01*
X0614041Y0334668D01*
X0614091Y0334716D01*
X0614142Y0334761D01*
X0614197Y0334803D01*
X0614253Y0334842D01*
X0614312Y0334877D01*
X0614373Y0334909D01*
X0614435Y0334937D01*
X0614499Y0334962D01*
X0614564Y0334983D01*
X0614630Y0335001D01*
X0614697Y0335014D01*
X0614765Y0335024D01*
X0614833Y0335030D01*
X0614902Y0335032D01*
X0603202Y0318632D02*
X0603202Y0314532D01*
X0583702Y0326632D02*
X0583702Y0341032D01*
X0590402Y0349032D02*
X0590402Y0353132D01*
X0579299Y0391335D02*
X0559799Y0391335D01*
X0557799Y0393335D01*
X0557799Y0433835D01*
X0561299Y0433835D01*
X0581299Y0433835D01*
X0581299Y0433335D01*
X0581299Y0393335D01*
X0579299Y0391335D01*
X0562799Y0403835D02*
X0562801Y0403996D01*
X0562807Y0404156D01*
X0562817Y0404317D01*
X0562831Y0404477D01*
X0562849Y0404637D01*
X0562870Y0404796D01*
X0562896Y0404955D01*
X0562926Y0405113D01*
X0562959Y0405270D01*
X0562997Y0405427D01*
X0563038Y0405582D01*
X0563083Y0405736D01*
X0563132Y0405889D01*
X0563185Y0406041D01*
X0563241Y0406192D01*
X0563302Y0406341D01*
X0563365Y0406489D01*
X0563433Y0406635D01*
X0563504Y0406779D01*
X0563578Y0406921D01*
X0563656Y0407062D01*
X0563738Y0407200D01*
X0563823Y0407337D01*
X0563911Y0407471D01*
X0564003Y0407603D01*
X0564098Y0407733D01*
X0564196Y0407861D01*
X0564297Y0407986D01*
X0564401Y0408108D01*
X0564508Y0408228D01*
X0564618Y0408345D01*
X0564731Y0408460D01*
X0564847Y0408571D01*
X0564966Y0408680D01*
X0565087Y0408785D01*
X0565211Y0408888D01*
X0565337Y0408988D01*
X0565465Y0409084D01*
X0565596Y0409177D01*
X0565730Y0409267D01*
X0565865Y0409354D01*
X0566003Y0409437D01*
X0566142Y0409517D01*
X0566284Y0409593D01*
X0566427Y0409666D01*
X0566572Y0409735D01*
X0566719Y0409801D01*
X0566867Y0409863D01*
X0567017Y0409921D01*
X0567168Y0409976D01*
X0567321Y0410027D01*
X0567475Y0410074D01*
X0567630Y0410117D01*
X0567786Y0410156D01*
X0567942Y0410192D01*
X0568100Y0410223D01*
X0568258Y0410251D01*
X0568417Y0410275D01*
X0568577Y0410295D01*
X0568737Y0410311D01*
X0568897Y0410323D01*
X0569058Y0410331D01*
X0569219Y0410335D01*
X0569379Y0410335D01*
X0569540Y0410331D01*
X0569701Y0410323D01*
X0569861Y0410311D01*
X0570021Y0410295D01*
X0570181Y0410275D01*
X0570340Y0410251D01*
X0570498Y0410223D01*
X0570656Y0410192D01*
X0570812Y0410156D01*
X0570968Y0410117D01*
X0571123Y0410074D01*
X0571277Y0410027D01*
X0571430Y0409976D01*
X0571581Y0409921D01*
X0571731Y0409863D01*
X0571879Y0409801D01*
X0572026Y0409735D01*
X0572171Y0409666D01*
X0572314Y0409593D01*
X0572456Y0409517D01*
X0572595Y0409437D01*
X0572733Y0409354D01*
X0572868Y0409267D01*
X0573002Y0409177D01*
X0573133Y0409084D01*
X0573261Y0408988D01*
X0573387Y0408888D01*
X0573511Y0408785D01*
X0573632Y0408680D01*
X0573751Y0408571D01*
X0573867Y0408460D01*
X0573980Y0408345D01*
X0574090Y0408228D01*
X0574197Y0408108D01*
X0574301Y0407986D01*
X0574402Y0407861D01*
X0574500Y0407733D01*
X0574595Y0407603D01*
X0574687Y0407471D01*
X0574775Y0407337D01*
X0574860Y0407200D01*
X0574942Y0407062D01*
X0575020Y0406921D01*
X0575094Y0406779D01*
X0575165Y0406635D01*
X0575233Y0406489D01*
X0575296Y0406341D01*
X0575357Y0406192D01*
X0575413Y0406041D01*
X0575466Y0405889D01*
X0575515Y0405736D01*
X0575560Y0405582D01*
X0575601Y0405427D01*
X0575639Y0405270D01*
X0575672Y0405113D01*
X0575702Y0404955D01*
X0575728Y0404796D01*
X0575749Y0404637D01*
X0575767Y0404477D01*
X0575781Y0404317D01*
X0575791Y0404156D01*
X0575797Y0403996D01*
X0575799Y0403835D01*
X0575797Y0403674D01*
X0575791Y0403514D01*
X0575781Y0403353D01*
X0575767Y0403193D01*
X0575749Y0403033D01*
X0575728Y0402874D01*
X0575702Y0402715D01*
X0575672Y0402557D01*
X0575639Y0402400D01*
X0575601Y0402243D01*
X0575560Y0402088D01*
X0575515Y0401934D01*
X0575466Y0401781D01*
X0575413Y0401629D01*
X0575357Y0401478D01*
X0575296Y0401329D01*
X0575233Y0401181D01*
X0575165Y0401035D01*
X0575094Y0400891D01*
X0575020Y0400749D01*
X0574942Y0400608D01*
X0574860Y0400470D01*
X0574775Y0400333D01*
X0574687Y0400199D01*
X0574595Y0400067D01*
X0574500Y0399937D01*
X0574402Y0399809D01*
X0574301Y0399684D01*
X0574197Y0399562D01*
X0574090Y0399442D01*
X0573980Y0399325D01*
X0573867Y0399210D01*
X0573751Y0399099D01*
X0573632Y0398990D01*
X0573511Y0398885D01*
X0573387Y0398782D01*
X0573261Y0398682D01*
X0573133Y0398586D01*
X0573002Y0398493D01*
X0572868Y0398403D01*
X0572733Y0398316D01*
X0572595Y0398233D01*
X0572456Y0398153D01*
X0572314Y0398077D01*
X0572171Y0398004D01*
X0572026Y0397935D01*
X0571879Y0397869D01*
X0571731Y0397807D01*
X0571581Y0397749D01*
X0571430Y0397694D01*
X0571277Y0397643D01*
X0571123Y0397596D01*
X0570968Y0397553D01*
X0570812Y0397514D01*
X0570656Y0397478D01*
X0570498Y0397447D01*
X0570340Y0397419D01*
X0570181Y0397395D01*
X0570021Y0397375D01*
X0569861Y0397359D01*
X0569701Y0397347D01*
X0569540Y0397339D01*
X0569379Y0397335D01*
X0569219Y0397335D01*
X0569058Y0397339D01*
X0568897Y0397347D01*
X0568737Y0397359D01*
X0568577Y0397375D01*
X0568417Y0397395D01*
X0568258Y0397419D01*
X0568100Y0397447D01*
X0567942Y0397478D01*
X0567786Y0397514D01*
X0567630Y0397553D01*
X0567475Y0397596D01*
X0567321Y0397643D01*
X0567168Y0397694D01*
X0567017Y0397749D01*
X0566867Y0397807D01*
X0566719Y0397869D01*
X0566572Y0397935D01*
X0566427Y0398004D01*
X0566284Y0398077D01*
X0566142Y0398153D01*
X0566003Y0398233D01*
X0565865Y0398316D01*
X0565730Y0398403D01*
X0565596Y0398493D01*
X0565465Y0398586D01*
X0565337Y0398682D01*
X0565211Y0398782D01*
X0565087Y0398885D01*
X0564966Y0398990D01*
X0564847Y0399099D01*
X0564731Y0399210D01*
X0564618Y0399325D01*
X0564508Y0399442D01*
X0564401Y0399562D01*
X0564297Y0399684D01*
X0564196Y0399809D01*
X0564098Y0399937D01*
X0564003Y0400067D01*
X0563911Y0400199D01*
X0563823Y0400333D01*
X0563738Y0400470D01*
X0563656Y0400608D01*
X0563578Y0400749D01*
X0563504Y0400891D01*
X0563433Y0401035D01*
X0563365Y0401181D01*
X0563302Y0401329D01*
X0563241Y0401478D01*
X0563185Y0401629D01*
X0563132Y0401781D01*
X0563083Y0401934D01*
X0563038Y0402088D01*
X0562997Y0402243D01*
X0562959Y0402400D01*
X0562926Y0402557D01*
X0562896Y0402715D01*
X0562870Y0402874D01*
X0562849Y0403033D01*
X0562831Y0403193D01*
X0562817Y0403353D01*
X0562807Y0403514D01*
X0562801Y0403674D01*
X0562799Y0403835D01*
X0556799Y0430835D02*
X0556799Y0433835D01*
X0557799Y0433835D01*
X0556799Y0433835D02*
X0331799Y0433835D01*
X0331799Y0430835D01*
X0556799Y0430835D01*
X0558299Y0433835D02*
X0558397Y0433837D01*
X0558495Y0433843D01*
X0558593Y0433852D01*
X0558690Y0433866D01*
X0558787Y0433883D01*
X0558883Y0433904D01*
X0558978Y0433929D01*
X0559072Y0433957D01*
X0559164Y0433990D01*
X0559256Y0434025D01*
X0559346Y0434065D01*
X0559434Y0434107D01*
X0559521Y0434154D01*
X0559605Y0434203D01*
X0559688Y0434256D01*
X0559768Y0434312D01*
X0559847Y0434372D01*
X0559923Y0434434D01*
X0559996Y0434499D01*
X0560067Y0434567D01*
X0560135Y0434638D01*
X0560200Y0434711D01*
X0560262Y0434787D01*
X0560322Y0434866D01*
X0560378Y0434946D01*
X0560431Y0435029D01*
X0560480Y0435113D01*
X0560527Y0435200D01*
X0560569Y0435288D01*
X0560609Y0435378D01*
X0560644Y0435470D01*
X0560677Y0435562D01*
X0560705Y0435656D01*
X0560730Y0435751D01*
X0560751Y0435847D01*
X0560768Y0435944D01*
X0560782Y0436041D01*
X0560791Y0436139D01*
X0560797Y0436237D01*
X0560799Y0436335D01*
X0560799Y0445835D01*
X0561299Y0445835D01*
X0561299Y0447835D01*
X0571299Y0447835D01*
X0581299Y0447835D01*
X0581299Y0445835D01*
X0581299Y0433835D01*
X0581299Y0447835D02*
X0581299Y0449835D01*
X0550799Y0449835D01*
X0337799Y0449835D01*
X0307299Y0449835D01*
X0307299Y0447835D01*
X0317299Y0447835D01*
X0327299Y0447835D01*
X0561299Y0447835D01*
X0554799Y0449835D02*
X0554701Y0449837D01*
X0554603Y0449843D01*
X0554505Y0449852D01*
X0554408Y0449866D01*
X0554311Y0449883D01*
X0554215Y0449904D01*
X0554120Y0449929D01*
X0554026Y0449957D01*
X0553934Y0449990D01*
X0553842Y0450025D01*
X0553752Y0450065D01*
X0553664Y0450107D01*
X0553577Y0450154D01*
X0553493Y0450203D01*
X0553410Y0450256D01*
X0553330Y0450312D01*
X0553251Y0450372D01*
X0553175Y0450434D01*
X0553102Y0450499D01*
X0553031Y0450567D01*
X0552963Y0450638D01*
X0552898Y0450711D01*
X0552836Y0450787D01*
X0552776Y0450866D01*
X0552720Y0450946D01*
X0552667Y0451029D01*
X0552618Y0451113D01*
X0552571Y0451200D01*
X0552529Y0451288D01*
X0552489Y0451378D01*
X0552454Y0451470D01*
X0552421Y0451562D01*
X0552393Y0451656D01*
X0552368Y0451751D01*
X0552347Y0451847D01*
X0552330Y0451944D01*
X0552316Y0452041D01*
X0552307Y0452139D01*
X0552301Y0452237D01*
X0552299Y0452335D01*
X0552299Y0472335D01*
X0552297Y0472422D01*
X0552291Y0472509D01*
X0552282Y0472596D01*
X0552269Y0472682D01*
X0552252Y0472768D01*
X0552231Y0472853D01*
X0552206Y0472936D01*
X0552178Y0473019D01*
X0552147Y0473100D01*
X0552112Y0473180D01*
X0552073Y0473258D01*
X0552031Y0473335D01*
X0551986Y0473410D01*
X0551937Y0473482D01*
X0551886Y0473553D01*
X0551831Y0473621D01*
X0551774Y0473686D01*
X0551713Y0473749D01*
X0551650Y0473810D01*
X0551585Y0473867D01*
X0551517Y0473922D01*
X0551446Y0473973D01*
X0551374Y0474022D01*
X0551299Y0474067D01*
X0551222Y0474109D01*
X0551144Y0474148D01*
X0551064Y0474183D01*
X0550983Y0474214D01*
X0550900Y0474242D01*
X0550817Y0474267D01*
X0550732Y0474288D01*
X0550646Y0474305D01*
X0550560Y0474318D01*
X0550473Y0474327D01*
X0550386Y0474333D01*
X0550299Y0474335D01*
X0549299Y0474335D01*
X0339299Y0474335D01*
X0338299Y0474335D01*
X0338212Y0474333D01*
X0338125Y0474327D01*
X0338038Y0474318D01*
X0337952Y0474305D01*
X0337866Y0474288D01*
X0337781Y0474267D01*
X0337698Y0474242D01*
X0337615Y0474214D01*
X0337534Y0474183D01*
X0337454Y0474148D01*
X0337376Y0474109D01*
X0337299Y0474067D01*
X0337224Y0474022D01*
X0337152Y0473973D01*
X0337081Y0473922D01*
X0337013Y0473867D01*
X0336948Y0473810D01*
X0336885Y0473749D01*
X0336824Y0473686D01*
X0336767Y0473621D01*
X0336712Y0473553D01*
X0336661Y0473482D01*
X0336612Y0473410D01*
X0336567Y0473335D01*
X0336525Y0473258D01*
X0336486Y0473180D01*
X0336451Y0473100D01*
X0336420Y0473019D01*
X0336392Y0472936D01*
X0336367Y0472853D01*
X0336346Y0472768D01*
X0336329Y0472682D01*
X0336316Y0472596D01*
X0336307Y0472509D01*
X0336301Y0472422D01*
X0336299Y0472335D01*
X0336299Y0452335D01*
X0336297Y0452237D01*
X0336291Y0452139D01*
X0336282Y0452041D01*
X0336268Y0451944D01*
X0336251Y0451847D01*
X0336230Y0451751D01*
X0336205Y0451656D01*
X0336177Y0451562D01*
X0336144Y0451470D01*
X0336109Y0451378D01*
X0336069Y0451288D01*
X0336027Y0451200D01*
X0335980Y0451113D01*
X0335931Y0451029D01*
X0335878Y0450946D01*
X0335822Y0450866D01*
X0335762Y0450787D01*
X0335700Y0450711D01*
X0335635Y0450638D01*
X0335567Y0450567D01*
X0335496Y0450499D01*
X0335423Y0450434D01*
X0335347Y0450372D01*
X0335268Y0450312D01*
X0335188Y0450256D01*
X0335105Y0450203D01*
X0335021Y0450154D01*
X0334934Y0450107D01*
X0334846Y0450065D01*
X0334756Y0450025D01*
X0334664Y0449990D01*
X0334572Y0449957D01*
X0334478Y0449929D01*
X0334383Y0449904D01*
X0334287Y0449883D01*
X0334190Y0449866D01*
X0334093Y0449852D01*
X0333995Y0449843D01*
X0333897Y0449837D01*
X0333799Y0449835D01*
X0327299Y0447835D02*
X0327299Y0445835D01*
X0327799Y0445835D01*
X0327799Y0436335D01*
X0327801Y0436237D01*
X0327807Y0436139D01*
X0327816Y0436041D01*
X0327830Y0435944D01*
X0327847Y0435847D01*
X0327868Y0435751D01*
X0327893Y0435656D01*
X0327921Y0435562D01*
X0327954Y0435470D01*
X0327989Y0435378D01*
X0328029Y0435288D01*
X0328071Y0435200D01*
X0328118Y0435113D01*
X0328167Y0435029D01*
X0328220Y0434946D01*
X0328276Y0434866D01*
X0328336Y0434787D01*
X0328398Y0434711D01*
X0328463Y0434638D01*
X0328531Y0434567D01*
X0328602Y0434499D01*
X0328675Y0434434D01*
X0328751Y0434372D01*
X0328830Y0434312D01*
X0328910Y0434256D01*
X0328993Y0434203D01*
X0329077Y0434154D01*
X0329164Y0434107D01*
X0329252Y0434065D01*
X0329342Y0434025D01*
X0329434Y0433990D01*
X0329526Y0433957D01*
X0329620Y0433929D01*
X0329715Y0433904D01*
X0329811Y0433883D01*
X0329908Y0433866D01*
X0330005Y0433852D01*
X0330103Y0433843D01*
X0330201Y0433837D01*
X0330299Y0433835D01*
X0330799Y0433835D02*
X0330799Y0393335D01*
X0328799Y0391335D01*
X0309799Y0391335D01*
X0307299Y0393835D01*
X0307299Y0433335D01*
X0307299Y0433835D01*
X0307299Y0445835D01*
X0307299Y0447835D01*
X0307299Y0433835D02*
X0327299Y0433835D01*
X0330799Y0433835D01*
X0331799Y0433835D01*
X0312799Y0403835D02*
X0312801Y0403996D01*
X0312807Y0404156D01*
X0312817Y0404317D01*
X0312831Y0404477D01*
X0312849Y0404637D01*
X0312870Y0404796D01*
X0312896Y0404955D01*
X0312926Y0405113D01*
X0312959Y0405270D01*
X0312997Y0405427D01*
X0313038Y0405582D01*
X0313083Y0405736D01*
X0313132Y0405889D01*
X0313185Y0406041D01*
X0313241Y0406192D01*
X0313302Y0406341D01*
X0313365Y0406489D01*
X0313433Y0406635D01*
X0313504Y0406779D01*
X0313578Y0406921D01*
X0313656Y0407062D01*
X0313738Y0407200D01*
X0313823Y0407337D01*
X0313911Y0407471D01*
X0314003Y0407603D01*
X0314098Y0407733D01*
X0314196Y0407861D01*
X0314297Y0407986D01*
X0314401Y0408108D01*
X0314508Y0408228D01*
X0314618Y0408345D01*
X0314731Y0408460D01*
X0314847Y0408571D01*
X0314966Y0408680D01*
X0315087Y0408785D01*
X0315211Y0408888D01*
X0315337Y0408988D01*
X0315465Y0409084D01*
X0315596Y0409177D01*
X0315730Y0409267D01*
X0315865Y0409354D01*
X0316003Y0409437D01*
X0316142Y0409517D01*
X0316284Y0409593D01*
X0316427Y0409666D01*
X0316572Y0409735D01*
X0316719Y0409801D01*
X0316867Y0409863D01*
X0317017Y0409921D01*
X0317168Y0409976D01*
X0317321Y0410027D01*
X0317475Y0410074D01*
X0317630Y0410117D01*
X0317786Y0410156D01*
X0317942Y0410192D01*
X0318100Y0410223D01*
X0318258Y0410251D01*
X0318417Y0410275D01*
X0318577Y0410295D01*
X0318737Y0410311D01*
X0318897Y0410323D01*
X0319058Y0410331D01*
X0319219Y0410335D01*
X0319379Y0410335D01*
X0319540Y0410331D01*
X0319701Y0410323D01*
X0319861Y0410311D01*
X0320021Y0410295D01*
X0320181Y0410275D01*
X0320340Y0410251D01*
X0320498Y0410223D01*
X0320656Y0410192D01*
X0320812Y0410156D01*
X0320968Y0410117D01*
X0321123Y0410074D01*
X0321277Y0410027D01*
X0321430Y0409976D01*
X0321581Y0409921D01*
X0321731Y0409863D01*
X0321879Y0409801D01*
X0322026Y0409735D01*
X0322171Y0409666D01*
X0322314Y0409593D01*
X0322456Y0409517D01*
X0322595Y0409437D01*
X0322733Y0409354D01*
X0322868Y0409267D01*
X0323002Y0409177D01*
X0323133Y0409084D01*
X0323261Y0408988D01*
X0323387Y0408888D01*
X0323511Y0408785D01*
X0323632Y0408680D01*
X0323751Y0408571D01*
X0323867Y0408460D01*
X0323980Y0408345D01*
X0324090Y0408228D01*
X0324197Y0408108D01*
X0324301Y0407986D01*
X0324402Y0407861D01*
X0324500Y0407733D01*
X0324595Y0407603D01*
X0324687Y0407471D01*
X0324775Y0407337D01*
X0324860Y0407200D01*
X0324942Y0407062D01*
X0325020Y0406921D01*
X0325094Y0406779D01*
X0325165Y0406635D01*
X0325233Y0406489D01*
X0325296Y0406341D01*
X0325357Y0406192D01*
X0325413Y0406041D01*
X0325466Y0405889D01*
X0325515Y0405736D01*
X0325560Y0405582D01*
X0325601Y0405427D01*
X0325639Y0405270D01*
X0325672Y0405113D01*
X0325702Y0404955D01*
X0325728Y0404796D01*
X0325749Y0404637D01*
X0325767Y0404477D01*
X0325781Y0404317D01*
X0325791Y0404156D01*
X0325797Y0403996D01*
X0325799Y0403835D01*
X0325797Y0403674D01*
X0325791Y0403514D01*
X0325781Y0403353D01*
X0325767Y0403193D01*
X0325749Y0403033D01*
X0325728Y0402874D01*
X0325702Y0402715D01*
X0325672Y0402557D01*
X0325639Y0402400D01*
X0325601Y0402243D01*
X0325560Y0402088D01*
X0325515Y0401934D01*
X0325466Y0401781D01*
X0325413Y0401629D01*
X0325357Y0401478D01*
X0325296Y0401329D01*
X0325233Y0401181D01*
X0325165Y0401035D01*
X0325094Y0400891D01*
X0325020Y0400749D01*
X0324942Y0400608D01*
X0324860Y0400470D01*
X0324775Y0400333D01*
X0324687Y0400199D01*
X0324595Y0400067D01*
X0324500Y0399937D01*
X0324402Y0399809D01*
X0324301Y0399684D01*
X0324197Y0399562D01*
X0324090Y0399442D01*
X0323980Y0399325D01*
X0323867Y0399210D01*
X0323751Y0399099D01*
X0323632Y0398990D01*
X0323511Y0398885D01*
X0323387Y0398782D01*
X0323261Y0398682D01*
X0323133Y0398586D01*
X0323002Y0398493D01*
X0322868Y0398403D01*
X0322733Y0398316D01*
X0322595Y0398233D01*
X0322456Y0398153D01*
X0322314Y0398077D01*
X0322171Y0398004D01*
X0322026Y0397935D01*
X0321879Y0397869D01*
X0321731Y0397807D01*
X0321581Y0397749D01*
X0321430Y0397694D01*
X0321277Y0397643D01*
X0321123Y0397596D01*
X0320968Y0397553D01*
X0320812Y0397514D01*
X0320656Y0397478D01*
X0320498Y0397447D01*
X0320340Y0397419D01*
X0320181Y0397395D01*
X0320021Y0397375D01*
X0319861Y0397359D01*
X0319701Y0397347D01*
X0319540Y0397339D01*
X0319379Y0397335D01*
X0319219Y0397335D01*
X0319058Y0397339D01*
X0318897Y0397347D01*
X0318737Y0397359D01*
X0318577Y0397375D01*
X0318417Y0397395D01*
X0318258Y0397419D01*
X0318100Y0397447D01*
X0317942Y0397478D01*
X0317786Y0397514D01*
X0317630Y0397553D01*
X0317475Y0397596D01*
X0317321Y0397643D01*
X0317168Y0397694D01*
X0317017Y0397749D01*
X0316867Y0397807D01*
X0316719Y0397869D01*
X0316572Y0397935D01*
X0316427Y0398004D01*
X0316284Y0398077D01*
X0316142Y0398153D01*
X0316003Y0398233D01*
X0315865Y0398316D01*
X0315730Y0398403D01*
X0315596Y0398493D01*
X0315465Y0398586D01*
X0315337Y0398682D01*
X0315211Y0398782D01*
X0315087Y0398885D01*
X0314966Y0398990D01*
X0314847Y0399099D01*
X0314731Y0399210D01*
X0314618Y0399325D01*
X0314508Y0399442D01*
X0314401Y0399562D01*
X0314297Y0399684D01*
X0314196Y0399809D01*
X0314098Y0399937D01*
X0314003Y0400067D01*
X0313911Y0400199D01*
X0313823Y0400333D01*
X0313738Y0400470D01*
X0313656Y0400608D01*
X0313578Y0400749D01*
X0313504Y0400891D01*
X0313433Y0401035D01*
X0313365Y0401181D01*
X0313302Y0401329D01*
X0313241Y0401478D01*
X0313185Y0401629D01*
X0313132Y0401781D01*
X0313083Y0401934D01*
X0313038Y0402088D01*
X0312997Y0402243D01*
X0312959Y0402400D01*
X0312926Y0402557D01*
X0312896Y0402715D01*
X0312870Y0402874D01*
X0312849Y0403033D01*
X0312831Y0403193D01*
X0312817Y0403353D01*
X0312807Y0403514D01*
X0312801Y0403674D01*
X0312799Y0403835D01*
X0129300Y0366335D02*
X0129300Y0361335D01*
X0126800Y0358835D01*
X0121800Y0358835D01*
X0119300Y0361335D01*
X0116800Y0358835D01*
X0111800Y0358835D01*
X0109300Y0361335D01*
X0109300Y0366335D01*
X0111800Y0368835D01*
X0116800Y0368835D01*
X0119300Y0366335D01*
X0121800Y0368835D01*
X0126800Y0368835D01*
X0129300Y0366335D01*
X0119300Y0366335D02*
X0119300Y0361335D01*
X0583702Y0238536D02*
X0583702Y0224136D01*
X0603202Y0216136D02*
X0603202Y0212036D01*
X0614902Y0224136D02*
X0614902Y0230136D01*
X0614902Y0232536D01*
X0614902Y0238536D01*
X0614902Y0232536D02*
X0614833Y0232534D01*
X0614765Y0232528D01*
X0614697Y0232518D01*
X0614630Y0232505D01*
X0614564Y0232487D01*
X0614499Y0232466D01*
X0614435Y0232441D01*
X0614373Y0232413D01*
X0614312Y0232381D01*
X0614253Y0232346D01*
X0614197Y0232307D01*
X0614142Y0232265D01*
X0614091Y0232220D01*
X0614041Y0232172D01*
X0613995Y0232122D01*
X0613952Y0232069D01*
X0613911Y0232013D01*
X0613874Y0231956D01*
X0613841Y0231896D01*
X0613810Y0231834D01*
X0613784Y0231771D01*
X0613761Y0231707D01*
X0613741Y0231641D01*
X0613726Y0231574D01*
X0613714Y0231507D01*
X0613706Y0231439D01*
X0613702Y0231370D01*
X0613702Y0231302D01*
X0613706Y0231233D01*
X0613714Y0231165D01*
X0613726Y0231098D01*
X0613741Y0231031D01*
X0613761Y0230965D01*
X0613784Y0230901D01*
X0613810Y0230838D01*
X0613841Y0230776D01*
X0613874Y0230716D01*
X0613911Y0230659D01*
X0613952Y0230603D01*
X0613995Y0230550D01*
X0614041Y0230500D01*
X0614091Y0230452D01*
X0614142Y0230407D01*
X0614197Y0230365D01*
X0614253Y0230326D01*
X0614312Y0230291D01*
X0614373Y0230259D01*
X0614435Y0230231D01*
X0614499Y0230206D01*
X0614564Y0230185D01*
X0614630Y0230167D01*
X0614697Y0230154D01*
X0614765Y0230144D01*
X0614833Y0230138D01*
X0614902Y0230136D01*
X0590402Y0246536D02*
X0590402Y0250636D01*
X0654800Y0400835D02*
X0659800Y0400835D01*
X0662300Y0403335D01*
X0662300Y0408335D01*
X0659800Y0410835D01*
X0654800Y0410835D01*
X0652300Y0408335D01*
X0652300Y0403335D01*
X0654800Y0400835D01*
X0070300Y0064535D02*
X0070302Y0064696D01*
X0070308Y0064856D01*
X0070318Y0065017D01*
X0070332Y0065177D01*
X0070350Y0065337D01*
X0070371Y0065496D01*
X0070397Y0065655D01*
X0070427Y0065813D01*
X0070460Y0065970D01*
X0070498Y0066127D01*
X0070539Y0066282D01*
X0070584Y0066436D01*
X0070633Y0066589D01*
X0070686Y0066741D01*
X0070742Y0066892D01*
X0070803Y0067041D01*
X0070866Y0067189D01*
X0070934Y0067335D01*
X0071005Y0067479D01*
X0071079Y0067621D01*
X0071157Y0067762D01*
X0071239Y0067900D01*
X0071324Y0068037D01*
X0071412Y0068171D01*
X0071504Y0068303D01*
X0071599Y0068433D01*
X0071697Y0068561D01*
X0071798Y0068686D01*
X0071902Y0068808D01*
X0072009Y0068928D01*
X0072119Y0069045D01*
X0072232Y0069160D01*
X0072348Y0069271D01*
X0072467Y0069380D01*
X0072588Y0069485D01*
X0072712Y0069588D01*
X0072838Y0069688D01*
X0072966Y0069784D01*
X0073097Y0069877D01*
X0073231Y0069967D01*
X0073366Y0070054D01*
X0073504Y0070137D01*
X0073643Y0070217D01*
X0073785Y0070293D01*
X0073928Y0070366D01*
X0074073Y0070435D01*
X0074220Y0070501D01*
X0074368Y0070563D01*
X0074518Y0070621D01*
X0074669Y0070676D01*
X0074822Y0070727D01*
X0074976Y0070774D01*
X0075131Y0070817D01*
X0075287Y0070856D01*
X0075443Y0070892D01*
X0075601Y0070923D01*
X0075759Y0070951D01*
X0075918Y0070975D01*
X0076078Y0070995D01*
X0076238Y0071011D01*
X0076398Y0071023D01*
X0076559Y0071031D01*
X0076720Y0071035D01*
X0076880Y0071035D01*
X0077041Y0071031D01*
X0077202Y0071023D01*
X0077362Y0071011D01*
X0077522Y0070995D01*
X0077682Y0070975D01*
X0077841Y0070951D01*
X0077999Y0070923D01*
X0078157Y0070892D01*
X0078313Y0070856D01*
X0078469Y0070817D01*
X0078624Y0070774D01*
X0078778Y0070727D01*
X0078931Y0070676D01*
X0079082Y0070621D01*
X0079232Y0070563D01*
X0079380Y0070501D01*
X0079527Y0070435D01*
X0079672Y0070366D01*
X0079815Y0070293D01*
X0079957Y0070217D01*
X0080096Y0070137D01*
X0080234Y0070054D01*
X0080369Y0069967D01*
X0080503Y0069877D01*
X0080634Y0069784D01*
X0080762Y0069688D01*
X0080888Y0069588D01*
X0081012Y0069485D01*
X0081133Y0069380D01*
X0081252Y0069271D01*
X0081368Y0069160D01*
X0081481Y0069045D01*
X0081591Y0068928D01*
X0081698Y0068808D01*
X0081802Y0068686D01*
X0081903Y0068561D01*
X0082001Y0068433D01*
X0082096Y0068303D01*
X0082188Y0068171D01*
X0082276Y0068037D01*
X0082361Y0067900D01*
X0082443Y0067762D01*
X0082521Y0067621D01*
X0082595Y0067479D01*
X0082666Y0067335D01*
X0082734Y0067189D01*
X0082797Y0067041D01*
X0082858Y0066892D01*
X0082914Y0066741D01*
X0082967Y0066589D01*
X0083016Y0066436D01*
X0083061Y0066282D01*
X0083102Y0066127D01*
X0083140Y0065970D01*
X0083173Y0065813D01*
X0083203Y0065655D01*
X0083229Y0065496D01*
X0083250Y0065337D01*
X0083268Y0065177D01*
X0083282Y0065017D01*
X0083292Y0064856D01*
X0083298Y0064696D01*
X0083300Y0064535D01*
X0083298Y0064374D01*
X0083292Y0064214D01*
X0083282Y0064053D01*
X0083268Y0063893D01*
X0083250Y0063733D01*
X0083229Y0063574D01*
X0083203Y0063415D01*
X0083173Y0063257D01*
X0083140Y0063100D01*
X0083102Y0062943D01*
X0083061Y0062788D01*
X0083016Y0062634D01*
X0082967Y0062481D01*
X0082914Y0062329D01*
X0082858Y0062178D01*
X0082797Y0062029D01*
X0082734Y0061881D01*
X0082666Y0061735D01*
X0082595Y0061591D01*
X0082521Y0061449D01*
X0082443Y0061308D01*
X0082361Y0061170D01*
X0082276Y0061033D01*
X0082188Y0060899D01*
X0082096Y0060767D01*
X0082001Y0060637D01*
X0081903Y0060509D01*
X0081802Y0060384D01*
X0081698Y0060262D01*
X0081591Y0060142D01*
X0081481Y0060025D01*
X0081368Y0059910D01*
X0081252Y0059799D01*
X0081133Y0059690D01*
X0081012Y0059585D01*
X0080888Y0059482D01*
X0080762Y0059382D01*
X0080634Y0059286D01*
X0080503Y0059193D01*
X0080369Y0059103D01*
X0080234Y0059016D01*
X0080096Y0058933D01*
X0079957Y0058853D01*
X0079815Y0058777D01*
X0079672Y0058704D01*
X0079527Y0058635D01*
X0079380Y0058569D01*
X0079232Y0058507D01*
X0079082Y0058449D01*
X0078931Y0058394D01*
X0078778Y0058343D01*
X0078624Y0058296D01*
X0078469Y0058253D01*
X0078313Y0058214D01*
X0078157Y0058178D01*
X0077999Y0058147D01*
X0077841Y0058119D01*
X0077682Y0058095D01*
X0077522Y0058075D01*
X0077362Y0058059D01*
X0077202Y0058047D01*
X0077041Y0058039D01*
X0076880Y0058035D01*
X0076720Y0058035D01*
X0076559Y0058039D01*
X0076398Y0058047D01*
X0076238Y0058059D01*
X0076078Y0058075D01*
X0075918Y0058095D01*
X0075759Y0058119D01*
X0075601Y0058147D01*
X0075443Y0058178D01*
X0075287Y0058214D01*
X0075131Y0058253D01*
X0074976Y0058296D01*
X0074822Y0058343D01*
X0074669Y0058394D01*
X0074518Y0058449D01*
X0074368Y0058507D01*
X0074220Y0058569D01*
X0074073Y0058635D01*
X0073928Y0058704D01*
X0073785Y0058777D01*
X0073643Y0058853D01*
X0073504Y0058933D01*
X0073366Y0059016D01*
X0073231Y0059103D01*
X0073097Y0059193D01*
X0072966Y0059286D01*
X0072838Y0059382D01*
X0072712Y0059482D01*
X0072588Y0059585D01*
X0072467Y0059690D01*
X0072348Y0059799D01*
X0072232Y0059910D01*
X0072119Y0060025D01*
X0072009Y0060142D01*
X0071902Y0060262D01*
X0071798Y0060384D01*
X0071697Y0060509D01*
X0071599Y0060637D01*
X0071504Y0060767D01*
X0071412Y0060899D01*
X0071324Y0061033D01*
X0071239Y0061170D01*
X0071157Y0061308D01*
X0071079Y0061449D01*
X0071005Y0061591D01*
X0070934Y0061735D01*
X0070866Y0061881D01*
X0070803Y0062029D01*
X0070742Y0062178D01*
X0070686Y0062329D01*
X0070633Y0062481D01*
X0070584Y0062634D01*
X0070539Y0062788D01*
X0070498Y0062943D01*
X0070460Y0063100D01*
X0070427Y0063257D01*
X0070397Y0063415D01*
X0070371Y0063574D01*
X0070350Y0063733D01*
X0070332Y0063893D01*
X0070318Y0064053D01*
X0070308Y0064214D01*
X0070302Y0064374D01*
X0070300Y0064535D01*
X0046800Y0072835D02*
X0046800Y0052835D01*
X0032800Y0052835D02*
X0030800Y0052835D01*
X0046800Y0072835D02*
X0046800Y0076335D01*
X0046800Y0077335D01*
D18*
X0069547Y0087087D02*
X0070297Y0085586D01*
X0071798Y0084085D01*
X0071798Y0086337D01*
X0072549Y0087087D01*
X0073300Y0087087D01*
X0074050Y0086337D01*
X0074050Y0084836D01*
X0073300Y0084085D01*
X0071798Y0084085D01*
X0079547Y0085586D02*
X0084050Y0085586D01*
X0084050Y0084085D02*
X0084050Y0087087D01*
X0081048Y0084085D02*
X0079547Y0085586D01*
X0079547Y0141585D02*
X0081798Y0141585D01*
X0081048Y0143086D01*
X0081048Y0143837D01*
X0081798Y0144587D01*
X0083300Y0144587D01*
X0084050Y0143837D01*
X0084050Y0142336D01*
X0083300Y0141585D01*
X0079547Y0141585D02*
X0079547Y0144587D01*
X0074050Y0143837D02*
X0073300Y0144587D01*
X0070297Y0144587D01*
X0069547Y0143837D01*
X0069547Y0142336D01*
X0070297Y0141585D01*
X0071048Y0141585D01*
X0071798Y0142336D01*
X0071798Y0144587D01*
X0074050Y0143837D02*
X0074050Y0142336D01*
X0073300Y0141585D01*
X0116347Y0160287D02*
X0116347Y0161788D01*
X0116347Y0161037D02*
X0120101Y0161037D01*
X0120851Y0160287D01*
X0120851Y0159536D01*
X0120101Y0158786D01*
X0120851Y0163389D02*
X0116347Y0163389D01*
X0116347Y0165641D01*
X0117098Y0166392D01*
X0118599Y0166392D01*
X0119350Y0165641D01*
X0119350Y0163389D01*
X0118599Y0167993D02*
X0120101Y0167993D01*
X0120851Y0168744D01*
X0120851Y0170245D01*
X0120101Y0170996D01*
X0119350Y0170996D01*
X0118599Y0170245D01*
X0118599Y0167993D01*
X0117098Y0169495D01*
X0116347Y0170996D01*
X0084050Y0221587D02*
X0084050Y0224589D01*
X0084050Y0223088D02*
X0079547Y0223088D01*
X0081048Y0221587D01*
X0074050Y0222337D02*
X0074050Y0223838D01*
X0073300Y0224589D01*
X0072549Y0224589D01*
X0071798Y0223838D01*
X0071798Y0221587D01*
X0073300Y0221587D01*
X0074050Y0222337D01*
X0071798Y0221587D02*
X0070297Y0223088D01*
X0069547Y0224589D01*
X0070297Y0279087D02*
X0071048Y0279087D01*
X0071798Y0279837D01*
X0071798Y0282089D01*
X0070297Y0282089D02*
X0069547Y0281338D01*
X0069547Y0279837D01*
X0070297Y0279087D01*
X0070297Y0282089D02*
X0073300Y0282089D01*
X0074050Y0281338D01*
X0074050Y0279837D01*
X0073300Y0279087D01*
X0079547Y0279087D02*
X0081798Y0279087D01*
X0081048Y0280588D01*
X0081048Y0281338D01*
X0081798Y0282089D01*
X0083300Y0282089D01*
X0084050Y0281338D01*
X0084050Y0279837D01*
X0083300Y0279087D01*
X0079547Y0279087D02*
X0079547Y0282089D01*
X0120501Y0351285D02*
X0121251Y0351285D01*
X0122002Y0352035D01*
X0122002Y0355789D01*
X0121251Y0355789D02*
X0122753Y0355789D01*
X0124354Y0355789D02*
X0126606Y0355789D01*
X0127356Y0355038D01*
X0127356Y0353537D01*
X0126606Y0352786D01*
X0124354Y0352786D01*
X0124354Y0351285D02*
X0124354Y0355789D01*
X0128958Y0353537D02*
X0131960Y0353537D01*
X0131210Y0355789D02*
X0128958Y0353537D01*
X0131210Y0351285D02*
X0131210Y0355789D01*
X0120501Y0351285D02*
X0119750Y0352035D01*
X0117960Y0374787D02*
X0114957Y0374787D01*
X0117960Y0377789D01*
X0117960Y0378540D01*
X0117209Y0379291D01*
X0115708Y0379291D01*
X0114957Y0378540D01*
X0113356Y0378540D02*
X0113356Y0377039D01*
X0112605Y0376288D01*
X0110353Y0376288D01*
X0110353Y0374787D02*
X0110353Y0379291D01*
X0112605Y0379291D01*
X0113356Y0378540D01*
X0108752Y0379291D02*
X0107251Y0379291D01*
X0108001Y0379291D02*
X0108001Y0375538D01*
X0107251Y0374787D01*
X0106500Y0374787D01*
X0105749Y0375538D01*
X0131643Y0396374D02*
X0161761Y0396374D01*
X0133846Y0400508D02*
X0133848Y0400567D01*
X0133854Y0400625D01*
X0133864Y0400683D01*
X0133877Y0400739D01*
X0133895Y0400795D01*
X0133916Y0400850D01*
X0133941Y0400903D01*
X0133970Y0400954D01*
X0134001Y0401003D01*
X0134036Y0401050D01*
X0134075Y0401095D01*
X0134116Y0401136D01*
X0134159Y0401175D01*
X0134206Y0401211D01*
X0134254Y0401244D01*
X0134305Y0401273D01*
X0134358Y0401299D01*
X0134412Y0401321D01*
X0134467Y0401340D01*
X0134524Y0401354D01*
X0134582Y0401365D01*
X0134640Y0401372D01*
X0134698Y0401375D01*
X0134757Y0401374D01*
X0134815Y0401369D01*
X0134873Y0401360D01*
X0134930Y0401347D01*
X0134986Y0401331D01*
X0135041Y0401310D01*
X0135095Y0401286D01*
X0135146Y0401259D01*
X0135196Y0401228D01*
X0135244Y0401194D01*
X0135289Y0401156D01*
X0135331Y0401116D01*
X0135371Y0401073D01*
X0135407Y0401027D01*
X0135441Y0400979D01*
X0135471Y0400929D01*
X0135498Y0400877D01*
X0135521Y0400823D01*
X0135540Y0400768D01*
X0135556Y0400711D01*
X0135568Y0400654D01*
X0135576Y0400596D01*
X0135580Y0400537D01*
X0135580Y0400479D01*
X0135576Y0400420D01*
X0135568Y0400362D01*
X0135556Y0400305D01*
X0135540Y0400248D01*
X0135521Y0400193D01*
X0135498Y0400139D01*
X0135471Y0400087D01*
X0135441Y0400037D01*
X0135407Y0399989D01*
X0135371Y0399943D01*
X0135331Y0399900D01*
X0135289Y0399860D01*
X0135244Y0399822D01*
X0135196Y0399788D01*
X0135147Y0399757D01*
X0135095Y0399730D01*
X0135041Y0399706D01*
X0134986Y0399685D01*
X0134930Y0399669D01*
X0134873Y0399656D01*
X0134815Y0399647D01*
X0134757Y0399642D01*
X0134698Y0399641D01*
X0134640Y0399644D01*
X0134582Y0399651D01*
X0134524Y0399662D01*
X0134467Y0399676D01*
X0134412Y0399695D01*
X0134358Y0399717D01*
X0134305Y0399743D01*
X0134254Y0399772D01*
X0134206Y0399805D01*
X0134159Y0399841D01*
X0134116Y0399880D01*
X0134075Y0399921D01*
X0134036Y0399966D01*
X0134001Y0400013D01*
X0133970Y0400062D01*
X0133941Y0400113D01*
X0133916Y0400166D01*
X0133895Y0400221D01*
X0133877Y0400277D01*
X0133864Y0400333D01*
X0133854Y0400391D01*
X0133848Y0400449D01*
X0133846Y0400508D01*
X0131603Y0426295D02*
X0161997Y0426295D01*
X0334049Y0410339D02*
X0334800Y0411089D01*
X0336301Y0411089D01*
X0337052Y0410339D01*
X0337052Y0409588D01*
X0334049Y0406585D01*
X0337052Y0406585D01*
X0338653Y0407336D02*
X0341656Y0410339D01*
X0341656Y0407336D01*
X0340905Y0406585D01*
X0339404Y0406585D01*
X0338653Y0407336D01*
X0338653Y0410339D01*
X0339404Y0411089D01*
X0340905Y0411089D01*
X0341656Y0410339D01*
X0340051Y0401089D02*
X0340051Y0396585D01*
X0341552Y0396585D02*
X0338549Y0396585D01*
X0338549Y0399588D02*
X0340051Y0401089D01*
X0547049Y0399588D02*
X0548551Y0401089D01*
X0548551Y0396585D01*
X0550052Y0396585D02*
X0547049Y0396585D01*
X0551653Y0397336D02*
X0552404Y0396585D01*
X0553905Y0396585D01*
X0554656Y0397336D01*
X0554656Y0400339D01*
X0553905Y0401089D01*
X0552404Y0401089D01*
X0551653Y0400339D01*
X0551653Y0399588D01*
X0552404Y0398837D01*
X0554656Y0398837D01*
X0551653Y0406585D02*
X0551653Y0407336D01*
X0554656Y0410339D01*
X0554656Y0411089D01*
X0551653Y0411089D01*
X0550052Y0410339D02*
X0550052Y0409588D01*
X0549301Y0408837D01*
X0550052Y0408087D01*
X0550052Y0407336D01*
X0549301Y0406585D01*
X0547800Y0406585D01*
X0547049Y0407336D01*
X0548551Y0408837D02*
X0549301Y0408837D01*
X0550052Y0410339D02*
X0549301Y0411089D01*
X0547800Y0411089D01*
X0547049Y0410339D01*
X0677047Y0285589D02*
X0677047Y0282586D01*
X0679299Y0282586D01*
X0678548Y0284087D01*
X0678548Y0284838D01*
X0679299Y0285589D01*
X0680800Y0285589D01*
X0681551Y0284838D01*
X0681551Y0283337D01*
X0680800Y0282586D01*
X0687047Y0283337D02*
X0687797Y0282586D01*
X0688548Y0282586D01*
X0689299Y0283337D01*
X0689299Y0285589D01*
X0690800Y0285589D02*
X0687797Y0285589D01*
X0687047Y0284838D01*
X0687047Y0283337D01*
X0690800Y0282586D02*
X0691551Y0283337D01*
X0691551Y0284838D01*
X0690800Y0285589D01*
X0690549Y0227089D02*
X0689799Y0226338D01*
X0689799Y0224086D01*
X0691300Y0224086D01*
X0692051Y0224837D01*
X0692051Y0226338D01*
X0691300Y0227089D01*
X0690549Y0227089D01*
X0688297Y0225587D02*
X0687547Y0227089D01*
X0688297Y0225587D02*
X0689799Y0224086D01*
X0681551Y0224086D02*
X0681551Y0227089D01*
X0681551Y0225587D02*
X0677047Y0225587D01*
X0678548Y0224086D01*
X0697745Y0184784D02*
X0697745Y0181781D01*
X0699997Y0181781D01*
X0699247Y0183283D01*
X0699247Y0184033D01*
X0699997Y0184784D01*
X0701499Y0184784D01*
X0702249Y0184033D01*
X0702249Y0182532D01*
X0701499Y0181781D01*
X0699997Y0180180D02*
X0700748Y0179429D01*
X0700748Y0177177D01*
X0702249Y0177177D02*
X0697745Y0177177D01*
X0697745Y0179429D01*
X0698496Y0180180D01*
X0699997Y0180180D01*
X0697745Y0175576D02*
X0697745Y0174075D01*
X0697745Y0174825D02*
X0701499Y0174825D01*
X0702249Y0174075D01*
X0702249Y0173324D01*
X0701499Y0172574D01*
X0555156Y0090337D02*
X0554405Y0091087D01*
X0552904Y0091087D01*
X0552153Y0090337D01*
X0552153Y0089586D01*
X0552904Y0088835D01*
X0555156Y0088835D01*
X0555156Y0087334D02*
X0555156Y0090337D01*
X0555156Y0087334D02*
X0554405Y0086583D01*
X0552904Y0086583D01*
X0552153Y0087334D01*
X0550552Y0086583D02*
X0547549Y0086583D01*
X0549051Y0086583D02*
X0549051Y0091087D01*
X0547549Y0089586D01*
X0547300Y0081087D02*
X0548801Y0081087D01*
X0549552Y0080337D01*
X0549552Y0079586D01*
X0548801Y0078835D01*
X0549552Y0078085D01*
X0549552Y0077334D01*
X0548801Y0076583D01*
X0547300Y0076583D01*
X0546549Y0077334D01*
X0548051Y0078835D02*
X0548801Y0078835D01*
X0546549Y0080337D02*
X0547300Y0081087D01*
X0551153Y0081087D02*
X0554156Y0081087D01*
X0554156Y0080337D01*
X0551153Y0077334D01*
X0551153Y0076583D01*
X0341656Y0076834D02*
X0340905Y0076083D01*
X0339404Y0076083D01*
X0338653Y0076834D01*
X0341656Y0079837D01*
X0341656Y0076834D01*
X0341656Y0079837D02*
X0340905Y0080587D01*
X0339404Y0080587D01*
X0338653Y0079837D01*
X0338653Y0076834D01*
X0337052Y0076083D02*
X0334049Y0076083D01*
X0337052Y0079086D01*
X0337052Y0079837D01*
X0336301Y0080587D01*
X0334800Y0080587D01*
X0334049Y0079837D01*
X0338549Y0086583D02*
X0341552Y0086583D01*
X0340051Y0086583D02*
X0340051Y0091087D01*
X0338549Y0089586D01*
X0239299Y0263773D02*
X0235546Y0263773D01*
X0235546Y0266775D02*
X0239299Y0266775D01*
X0240050Y0266025D01*
X0240050Y0264524D01*
X0239299Y0263773D01*
X0239299Y0268377D02*
X0240050Y0269127D01*
X0240050Y0270629D01*
X0239299Y0271379D01*
X0238549Y0271379D01*
X0237798Y0270629D01*
X0237798Y0269127D01*
X0237047Y0268377D01*
X0236297Y0268377D01*
X0235546Y0269127D01*
X0235546Y0270629D01*
X0236297Y0271379D01*
X0237047Y0272981D02*
X0235546Y0274482D01*
X0240050Y0274482D01*
X0240050Y0272981D02*
X0240050Y0275983D01*
X0240801Y0269878D02*
X0234796Y0269878D01*
D19*
X0048300Y0251337D03*
X0048300Y0113835D03*
X0712801Y0253836D03*
D20*
X0729301Y0253836D03*
X0031800Y0251337D03*
X0031800Y0113835D03*
D21*
X0064050Y0113735D03*
X0064050Y0103035D03*
X0064050Y0092235D03*
X0064050Y0124635D03*
X0064050Y0135435D03*
X0064050Y0229737D03*
X0064050Y0240537D03*
X0064050Y0251237D03*
X0064050Y0262137D03*
X0064050Y0272937D03*
X0697051Y0275436D03*
X0697051Y0264636D03*
X0697051Y0253936D03*
X0697051Y0243036D03*
X0697051Y0232236D03*
D22*
X0702051Y0237636D03*
X0702051Y0248536D03*
X0702051Y0259236D03*
X0702051Y0270036D03*
X0059050Y0267537D03*
X0059050Y0256637D03*
X0059050Y0245937D03*
X0059050Y0235137D03*
X0059050Y0130035D03*
X0059050Y0119135D03*
X0059050Y0108435D03*
X0059050Y0097635D03*
D23*
X0267728Y0137086D02*
X0270864Y0140222D01*
X0269296Y0140222D02*
X0269296Y0137086D01*
X0270864Y0137086D02*
X0267728Y0140222D01*
X0267728Y0138654D02*
X0270864Y0138654D01*
X0270868Y0262085D02*
X0267732Y0265221D01*
X0269300Y0265221D02*
X0269300Y0262085D01*
X0267732Y0262085D02*
X0270868Y0265221D01*
X0270868Y0263653D02*
X0267732Y0263653D01*
X0096736Y0363984D02*
X0094267Y0363984D01*
X0095501Y0363984D02*
X0095501Y0367687D01*
X0094267Y0366453D01*
X0093052Y0367687D02*
X0093052Y0364601D01*
X0092435Y0363984D01*
X0091201Y0363984D01*
X0090584Y0364601D01*
X0090584Y0367687D01*
X0074979Y0367184D02*
X0073044Y0367184D01*
X0074011Y0367184D02*
X0074011Y0370086D01*
X0073044Y0369119D01*
X0072032Y0369602D02*
X0072032Y0368635D01*
X0071548Y0368151D01*
X0070097Y0368151D01*
X0070097Y0367184D02*
X0070097Y0370086D01*
X0071548Y0370086D01*
X0072032Y0369602D01*
X0069086Y0370086D02*
X0068118Y0370086D01*
X0068602Y0370086D02*
X0068602Y0367667D01*
X0068118Y0367184D01*
X0067634Y0367184D01*
X0067151Y0367667D01*
X0089567Y0414484D02*
X0090185Y0414484D01*
X0090802Y0415101D01*
X0090802Y0418187D01*
X0090185Y0418187D02*
X0091419Y0418187D01*
X0092633Y0418187D02*
X0094485Y0418187D01*
X0095102Y0417570D01*
X0095102Y0416336D01*
X0094485Y0415719D01*
X0092633Y0415719D01*
X0092633Y0414484D02*
X0092633Y0418187D01*
X0096316Y0417570D02*
X0096934Y0418187D01*
X0098168Y0418187D01*
X0098785Y0417570D01*
X0098785Y0416953D01*
X0098168Y0416336D01*
X0098785Y0415719D01*
X0098785Y0415101D01*
X0098168Y0414484D01*
X0096934Y0414484D01*
X0096316Y0415101D01*
X0097551Y0416336D02*
X0098168Y0416336D01*
X0089567Y0414484D02*
X0088950Y0415101D01*
X0153273Y0374924D02*
X0153273Y0371838D01*
X0153890Y0371221D01*
X0155124Y0371221D01*
X0155742Y0371838D01*
X0155742Y0374924D01*
X0156956Y0373073D02*
X0159425Y0373073D01*
X0158808Y0374924D02*
X0156956Y0373073D01*
X0158808Y0374924D02*
X0158808Y0371221D01*
X0615236Y0348082D02*
X0618372Y0344946D01*
X0618372Y0346514D02*
X0615236Y0346514D01*
X0615236Y0344946D02*
X0618372Y0348082D01*
X0616804Y0348082D02*
X0616804Y0344946D01*
X0616804Y0245586D02*
X0616804Y0242450D01*
X0618372Y0242450D02*
X0615236Y0245586D01*
X0615236Y0244018D02*
X0618372Y0244018D01*
X0618372Y0245586D02*
X0615236Y0242450D01*
X0615235Y0135586D02*
X0618371Y0132450D01*
X0616803Y0132450D02*
X0616803Y0135586D01*
X0618371Y0135586D02*
X0615235Y0132450D01*
X0615235Y0134018D02*
X0618371Y0134018D01*
D24*
X0444299Y0055333D03*
X0444299Y0432335D03*
D25*
X0444299Y0448835D03*
X0444299Y0038833D03*
D26*
X0444299Y0071083D03*
X0433399Y0071083D03*
X0422599Y0071083D03*
X0411699Y0071083D03*
X0400799Y0071083D03*
X0389899Y0071083D03*
X0379099Y0071083D03*
X0379099Y0071083D03*
X0368199Y0071083D03*
X0357299Y0071083D03*
X0346499Y0071083D03*
X0455199Y0071083D03*
X0465999Y0071083D03*
X0476899Y0071083D03*
X0487799Y0071183D03*
X0498599Y0071083D03*
X0509499Y0071083D03*
X0520399Y0071083D03*
X0531199Y0071083D03*
X0542099Y0071083D03*
X0542099Y0416585D03*
X0531199Y0416585D03*
X0520499Y0416585D03*
X0509499Y0416585D03*
X0498699Y0416585D03*
X0487799Y0416585D03*
X0476899Y0416585D03*
X0465999Y0416585D03*
X0455199Y0416585D03*
X0444299Y0416585D03*
X0433499Y0416585D03*
X0422599Y0416585D03*
X0411699Y0416585D03*
X0400799Y0416585D03*
X0389999Y0416585D03*
X0379099Y0416585D03*
X0368199Y0416585D03*
X0357399Y0416585D03*
X0346499Y0416585D03*
D27*
X0351899Y0421585D03*
X0362799Y0421585D03*
X0373699Y0421585D03*
X0384499Y0421585D03*
X0395399Y0421585D03*
X0406299Y0421585D03*
X0417099Y0421585D03*
X0427999Y0421585D03*
X0438899Y0421585D03*
X0449699Y0421585D03*
X0460599Y0421585D03*
X0471499Y0421585D03*
X0482299Y0421585D03*
X0493199Y0421585D03*
X0504099Y0421585D03*
X0514999Y0421585D03*
X0525799Y0421585D03*
X0536699Y0421585D03*
X0536699Y0066083D03*
X0525799Y0066083D03*
X0514899Y0066083D03*
X0504099Y0066083D03*
X0493199Y0066083D03*
X0482299Y0066083D03*
X0471499Y0066083D03*
X0460599Y0066083D03*
X0449699Y0066083D03*
X0438899Y0066083D03*
X0427999Y0066083D03*
X0417099Y0066083D03*
X0406299Y0066083D03*
X0395399Y0066083D03*
X0384499Y0066083D03*
X0384499Y0066083D03*
X0373599Y0066083D03*
X0362799Y0066083D03*
X0351899Y0066083D03*
D28*
X0329799Y0046583D03*
X0558799Y0046583D03*
D29*
X0569599Y0057083D03*
X0318999Y0057083D03*
D30*
X0143001Y0244534D02*
X0142999Y0244465D01*
X0142993Y0244397D01*
X0142983Y0244329D01*
X0142970Y0244262D01*
X0142952Y0244196D01*
X0142931Y0244131D01*
X0142906Y0244067D01*
X0142878Y0244005D01*
X0142846Y0243944D01*
X0142811Y0243885D01*
X0142772Y0243829D01*
X0142730Y0243774D01*
X0142685Y0243723D01*
X0142637Y0243673D01*
X0142587Y0243627D01*
X0142534Y0243584D01*
X0142478Y0243543D01*
X0142421Y0243506D01*
X0142361Y0243473D01*
X0142299Y0243442D01*
X0142236Y0243416D01*
X0142172Y0243393D01*
X0142106Y0243373D01*
X0142039Y0243358D01*
X0141972Y0243346D01*
X0141904Y0243338D01*
X0141835Y0243334D01*
X0141767Y0243334D01*
X0141698Y0243338D01*
X0141630Y0243346D01*
X0141563Y0243358D01*
X0141496Y0243373D01*
X0141430Y0243393D01*
X0141366Y0243416D01*
X0141303Y0243442D01*
X0141241Y0243473D01*
X0141181Y0243506D01*
X0141124Y0243543D01*
X0141068Y0243584D01*
X0141015Y0243627D01*
X0140965Y0243673D01*
X0140917Y0243723D01*
X0140872Y0243774D01*
X0140830Y0243829D01*
X0140791Y0243885D01*
X0140756Y0243944D01*
X0140724Y0244005D01*
X0140696Y0244067D01*
X0140671Y0244131D01*
X0140650Y0244196D01*
X0140632Y0244262D01*
X0140619Y0244329D01*
X0140609Y0244397D01*
X0140603Y0244465D01*
X0140601Y0244534D01*
X0140601Y0299533D02*
X0140603Y0299464D01*
X0140609Y0299396D01*
X0140619Y0299328D01*
X0140632Y0299261D01*
X0140650Y0299195D01*
X0140671Y0299130D01*
X0140696Y0299066D01*
X0140724Y0299004D01*
X0140756Y0298943D01*
X0140791Y0298884D01*
X0140830Y0298828D01*
X0140872Y0298773D01*
X0140917Y0298722D01*
X0140965Y0298672D01*
X0141015Y0298626D01*
X0141068Y0298583D01*
X0141124Y0298542D01*
X0141181Y0298505D01*
X0141241Y0298472D01*
X0141303Y0298441D01*
X0141366Y0298415D01*
X0141430Y0298392D01*
X0141496Y0298372D01*
X0141563Y0298357D01*
X0141630Y0298345D01*
X0141698Y0298337D01*
X0141767Y0298333D01*
X0141835Y0298333D01*
X0141904Y0298337D01*
X0141972Y0298345D01*
X0142039Y0298357D01*
X0142106Y0298372D01*
X0142172Y0298392D01*
X0142236Y0298415D01*
X0142299Y0298441D01*
X0142361Y0298472D01*
X0142421Y0298505D01*
X0142478Y0298542D01*
X0142534Y0298583D01*
X0142587Y0298626D01*
X0142637Y0298672D01*
X0142685Y0298722D01*
X0142730Y0298773D01*
X0142772Y0298828D01*
X0142811Y0298884D01*
X0142846Y0298943D01*
X0142878Y0299004D01*
X0142906Y0299066D01*
X0142931Y0299130D01*
X0142952Y0299195D01*
X0142970Y0299261D01*
X0142983Y0299328D01*
X0142993Y0299396D01*
X0142999Y0299464D01*
X0143001Y0299533D01*
D31*
X0098299Y0350035D03*
D32*
X0061732Y0371059D02*
X0059864Y0371059D01*
X0058970Y0371059D02*
X0057102Y0373862D01*
X0058970Y0373862D02*
X0057102Y0371059D01*
X0059864Y0372928D02*
X0060798Y0373862D01*
X0060798Y0371059D01*
X0648298Y0349155D02*
X0648298Y0348421D01*
X0648665Y0348054D01*
X0649032Y0348054D01*
X0649399Y0348421D01*
X0649399Y0349522D01*
X0648665Y0349522D02*
X0648298Y0349155D01*
X0648665Y0349522D02*
X0650133Y0349522D01*
X0650500Y0349155D01*
X0650500Y0348421D01*
X0650133Y0348054D01*
X0649399Y0347313D02*
X0649766Y0346946D01*
X0649766Y0345845D01*
X0650500Y0345845D02*
X0648298Y0345845D01*
X0648298Y0346946D01*
X0648665Y0347313D01*
X0649399Y0347313D01*
X0648298Y0345103D02*
X0648298Y0344369D01*
X0648298Y0344736D02*
X0650133Y0344736D01*
X0650500Y0344369D01*
X0650500Y0344002D01*
X0650133Y0343635D01*
X0650133Y0403135D02*
X0650500Y0403502D01*
X0650500Y0403869D01*
X0650133Y0404236D01*
X0648298Y0404236D01*
X0648298Y0403869D02*
X0648298Y0404603D01*
X0648298Y0405345D02*
X0648298Y0406446D01*
X0648665Y0406813D01*
X0649399Y0406813D01*
X0649766Y0406446D01*
X0649766Y0405345D01*
X0650500Y0405345D02*
X0648298Y0405345D01*
X0648665Y0407554D02*
X0648298Y0407921D01*
X0648298Y0408655D01*
X0648665Y0409022D01*
X0649032Y0409022D01*
X0649399Y0408655D01*
X0649399Y0407921D01*
X0649032Y0407554D01*
X0648665Y0407554D01*
X0649399Y0407921D02*
X0649766Y0407554D01*
X0650133Y0407554D01*
X0650500Y0407921D01*
X0650500Y0408655D01*
X0650133Y0409022D01*
X0649766Y0409022D01*
X0649399Y0408655D01*
D33*
X0054989Y0406433D02*
X0054398Y0407024D01*
X0053709Y0406335D01*
X0054300Y0405744D01*
X0054989Y0406433D01*
X0054300Y0384425D02*
X0054891Y0383835D01*
X0054202Y0383146D01*
X0053611Y0383736D01*
X0054300Y0384425D01*
X0054398Y0334524D02*
X0054989Y0333933D01*
X0054300Y0333244D01*
X0053709Y0333835D01*
X0054398Y0334524D01*
X0054300Y0324425D02*
X0054891Y0323835D01*
X0054202Y0323146D01*
X0053611Y0323736D01*
X0054300Y0324425D01*
D34*
X0053217Y0325410D03*
X0055383Y0332260D03*
X0053217Y0385410D03*
X0055383Y0404760D03*
D35*
X0170993Y0368175D03*
M02*
