%
M48
M72
T01C0.01575
T02C0.01969
T03C0.02362
T04C0.04000
T05C0.11811
T06C0.13000
%
T01
X51800Y56335
X51800Y171335
X50300Y192335
X119800Y192835
X150800Y186335
X155300Y193335
X159800Y201335
X199300Y217335
X156300Y247835
X163300Y251835
X156300Y254835
X166800Y266835
X176800Y266835
X177300Y252835
X128300Y251835
X120800Y251835
X123800Y309835
X66800Y330335
X50300Y310335
X149300Y361335
X154300Y366335
X161300Y364335
X164300Y361335
X167300Y364335
X167300Y358335
X161300Y358335
X149300Y373835
X126800Y378835
X121800Y373835
X126800Y386335
X121800Y403835
X121800Y411335
X121800Y418835
X121800Y426335
X171800Y426335
X171800Y418835
X171800Y411335
X171800Y403835
X179300Y403835
X171800Y396335
X184300Y376335
X191800Y371335
X196800Y371335
X209300Y383835
X209300Y403835
X231800Y393835
X236800Y388835
X239300Y381335
X246800Y378835
X254300Y378835
X253050Y370085
X239300Y366335
X231800Y366335
X224300Y366335
X239300Y358835
X264300Y323835
X244300Y308835
X309300Y363835
X316800Y363835
X326800Y363835
X326800Y371335
X326800Y378835
X326800Y386335
X326800Y418835
X326800Y431335
X561800Y428835
X561800Y381335
X571800Y381335
X571800Y371335
X561800Y371335
X561800Y341335
X571800Y341335
X571800Y328835
X561800Y328835
X561800Y316335
X571800Y316335
X641800Y271335
X641800Y258835
X659300Y243835
X664300Y231335
X649300Y231335
X609300Y91335
X591800Y91335
X584300Y91335
X561800Y71335
X326800Y71335
X326800Y101335
X326800Y111335
X326800Y121335
X316800Y121335
X304300Y121335
X291800Y121335
X279300Y113835
X299300Y236335
X299300Y246335
X311800Y246335
X326800Y246335
X326800Y236335
X311800Y236335
X51800Y401335
T02
X249300Y331335
X271800Y331335
X271800Y311335
X279300Y303835
X284300Y311335
X289300Y306335
X294300Y301335
X299300Y296335
X309300Y291335
X314300Y286335
X319300Y281335
X324300Y276335
X291800Y276335
X276800Y281335
X269300Y273835
X254300Y276335
X269300Y293835
X269300Y253835
X259300Y246335
X271800Y233835
X266800Y223835
X264800Y218835
X279300Y208835
X291800Y206335
X284300Y188835
X289300Y183835
X294300Y178835
X299300Y173835
X309300Y168835
X314300Y163835
X319300Y158835
X324300Y153835
X291800Y151335
X284300Y151335
X271800Y151335
X266800Y166335
X262300Y178335
X269300Y186335
X274300Y183835
X279300Y178835
X255300Y196335
X286800Y243835
X449700Y246335
X561800Y231335
X566800Y236335
X571800Y241335
X576800Y246335
X586800Y251335
X591800Y256335
X596800Y261335
X601800Y266335
X619300Y278835
X621800Y258835
X626800Y253835
X606800Y251335
X596800Y231335
X624300Y223835
X636800Y213835
X649300Y221335
X646800Y201335
X619300Y193835
X614300Y193835
X605702Y202433
X609300Y208835
X616800Y173835
X594300Y173835
X601800Y156335
X596800Y151335
X591800Y146335
X586800Y141335
X576800Y136335
X571800Y131335
X566800Y126335
X561800Y121335
X604300Y116335
X606800Y126335
X621800Y126335
X616800Y138835
X606800Y141335
X621800Y148835
X631800Y113835
X631800Y106335
X641800Y101335
X636800Y91335
X621800Y76335
X549300Y173835
X611800Y308835
X619300Y313835
X634300Y333835
X639300Y328835
X626800Y353835
X621800Y358835
X606800Y351335
X596800Y361335
X601800Y366335
X591800Y356335
X586800Y351335
X579300Y346335
X594300Y333835
X591800Y313835
X299300Y363835
X289300Y363835
X269300Y356335
X256800Y351335
X274300Y106335
T03
X257300Y101335
X351900Y141335
X362800Y136335
X373600Y131335
X384475Y126310
X395425Y121335
X433400Y153835
X444300Y158835
X455200Y163835
X466000Y168835
X476900Y173835
X487800Y178835
X498650Y183835
X509475Y188810
X520400Y156335
X531200Y151335
X542100Y146335
X581800Y121335
X616800Y103835
X646800Y116335
X634300Y81335
X482375Y231335
X471500Y236335
X460600Y241335
X438900Y251310
X428000Y256335
X417100Y261335
X406300Y266335
X368200Y286335
X357400Y281310
X346475Y276335
X379100Y291335
X390000Y296335
X400825Y301335
X411700Y306335
X422600Y311335
X339300Y333835
X301800Y333835
X249300Y358835
X171800Y348835
X164300Y348835
X154300Y348835
X169300Y331335
X114300Y336335
X101800Y333835
X104300Y348835
X74300Y328835
X64300Y371335
X79300Y376335
X239300Y291335
X244300Y286335
X261800Y266335
X291800Y246335
X276800Y238835
X339300Y206335
X199300Y224835
X166800Y208835
X104300Y223835
X94300Y231335
X94300Y246335
X184300Y259835
X104300Y136335
X102300Y115335
X515000Y356335
X525775Y351310
X536700Y346335
X504075Y361335
X493200Y366310
X549300Y386335
X584300Y386335
X604300Y403835
X596800Y408835
X619300Y343835
X604300Y336335
X604300Y328835
X654300Y303835
X631800Y293835
X641800Y283835
X664300Y276335
X666800Y253835
X584300Y283835
X549300Y283835
T04
X656800Y346335
X657300Y405835
X542099Y398835
X531299Y398835
X536699Y408835
X525799Y408835
X514999Y408835
X504099Y408835
X493199Y408835
X487799Y398835
X476899Y398835
X465999Y398835
X460599Y408835
X449699Y408835
X438899Y408835
X444299Y398835
X433399Y398835
X422599Y398835
X411699Y398835
X406299Y408835
X417099Y408835
X427999Y408835
X400799Y398835
X389999Y398835
X379099Y398835
X368199Y398835
X357399Y398835
X362799Y408835
X351899Y408835
X346499Y398835
X373699Y408835
X384499Y408835
X395399Y408835
X455199Y398835
X471499Y408835
X482399Y408835
X498699Y398835
X509499Y398835
X520399Y398835
X679301Y275436
X689301Y270036
X679301Y264636
X689301Y259236
X679301Y253836
X689301Y248436
X679301Y243036
X689301Y237636
X679301Y232236
X679301Y181336
X689301Y181336
X542099Y88833
X531199Y88833
X520399Y88833
X509499Y88833
X498599Y88833
X487799Y88833
X476899Y88833
X465999Y88833
X455199Y88833
X444299Y88833
X433399Y88833
X422599Y88833
X411699Y88833
X400799Y88833
X389899Y88833
X379099Y88833
X368199Y88833
X357299Y88833
X346499Y88833
X351899Y78833
X362799Y78833
X373599Y78833
X384499Y78833
X395399Y78833
X406299Y78833
X417099Y78833
X427999Y78833
X438899Y78833
X449699Y78833
X460599Y78833
X471499Y78833
X482299Y78833
X493199Y78833
X504099Y78833
X514899Y78833
X525799Y78833
X536699Y78833
X227800Y212335
X217800Y212335
X207800Y212335
X207800Y222335
X217800Y222335
X227800Y222335
X227800Y232335
X227800Y242335
X217800Y242335
X207800Y242335
X207800Y232335
X217800Y232335
X217800Y252335
X207800Y252335
X207800Y262335
X217800Y262335
X227800Y262335
X227800Y272335
X217800Y272335
X207800Y272335
X227800Y252335
X81800Y251337
X71800Y256737
X81800Y262137
X71800Y267537
X81800Y272937
X71800Y245937
X81800Y240537
X71800Y235137
X81800Y229737
X99301Y163834
X109301Y163834
X81800Y135435
X71800Y130035
X81800Y124635
X71800Y119235
X81800Y113835
X71800Y108435
X81800Y103035
X71800Y97635
X81800Y92235
X71799Y351334
X71799Y361334
X89301Y378833
X99301Y378833
X114300Y363835
X124300Y363835
T05
X56800Y423835
X106800Y63835
X704300Y61335
X704300Y423835
T06
X569299Y403835
X684301Y303136
X684301Y204536
X569299Y83833
X319299Y83833
X76800Y64535
X76800Y163135
X76800Y202037
X76800Y300637
X319299Y403835
M30
