G75*
%MOIN*%
%OFA0B0*%
%FSLAX25Y25*%
%IPPOS*%
%LPD*%
%AMOC8*
5,1,8,0,0,1.08239X$1,22.5*
%
%ADD10OC8,0.07200*%
%ADD11C,0.20800*%
%ADD12R,0.02200X0.06600*%
%ADD13R,0.07099X0.05918*%
%ADD14R,0.08600X0.03000*%
%ADD15R,0.06706X0.05918*%
%ADD16R,0.05524X0.02965*%
%ADD17C,0.08200*%
%ADD18R,0.05918X0.06706*%
%ADD19C,0.07200*%
%ADD20R,0.02953X0.01181*%
%ADD21C,0.00800*%
%ADD22R,0.05918X0.07099*%
%ADD23R,0.05524X0.05524*%
%ADD24R,0.02178X0.03950*%
%ADD25R,0.03950X0.02178*%
%ADD26R,0.10236X0.10236*%
%ADD27R,0.08674X0.07493*%
%ADD28R,0.11036X0.09461*%
%ADD29R,0.06312X0.04737*%
%ADD30R,0.06233X0.02572*%
%ADD31R,0.09068X0.06607*%
%ADD32R,0.08280X0.10150*%
%ADD33R,0.08280X0.05426*%
%ADD34R,0.04343X0.03556*%
%ADD35R,0.03556X0.04343*%
%ADD36OC8,0.13200*%
%ADD37C,0.05162*%
%ADD38C,0.16611*%
D10*
X0081800Y0092235D03*
X0071800Y0097635D03*
X0081800Y0103035D03*
X0071800Y0108435D03*
X0081800Y0113835D03*
X0071800Y0119235D03*
X0081800Y0124635D03*
X0071800Y0130035D03*
X0081800Y0135435D03*
X0207800Y0212335D03*
X0217800Y0212335D03*
X0227800Y0212335D03*
X0227800Y0222335D03*
X0217800Y0222335D03*
X0207800Y0222335D03*
X0207800Y0232335D03*
X0207800Y0242335D03*
X0217800Y0242335D03*
X0227800Y0242335D03*
X0227800Y0232335D03*
X0217800Y0232335D03*
X0217800Y0252335D03*
X0207800Y0252335D03*
X0207800Y0262335D03*
X0217800Y0262335D03*
X0227800Y0262335D03*
X0227800Y0272335D03*
X0217800Y0272335D03*
X0207800Y0272335D03*
X0227800Y0252335D03*
X0081800Y0251337D03*
X0071800Y0256737D03*
X0081800Y0262137D03*
X0071800Y0267537D03*
X0081800Y0272937D03*
X0071800Y0245937D03*
X0081800Y0240537D03*
X0071800Y0235137D03*
X0081800Y0229737D03*
X0346499Y0088833D03*
X0357299Y0088833D03*
X0368199Y0088833D03*
X0379099Y0088833D03*
X0389899Y0088833D03*
X0400799Y0088833D03*
X0411699Y0088833D03*
X0422599Y0088833D03*
X0433399Y0088833D03*
X0444299Y0088833D03*
X0455199Y0088833D03*
X0465999Y0088833D03*
X0476899Y0088833D03*
X0487799Y0088833D03*
X0498599Y0088833D03*
X0509499Y0088833D03*
X0520399Y0088833D03*
X0531199Y0088833D03*
X0542099Y0088833D03*
X0536699Y0078833D03*
X0525799Y0078833D03*
X0514899Y0078833D03*
X0504099Y0078833D03*
X0493199Y0078833D03*
X0482299Y0078833D03*
X0471499Y0078833D03*
X0460599Y0078833D03*
X0449699Y0078833D03*
X0438899Y0078833D03*
X0427999Y0078833D03*
X0417099Y0078833D03*
X0406299Y0078833D03*
X0395399Y0078833D03*
X0384499Y0078833D03*
X0373599Y0078833D03*
X0362799Y0078833D03*
X0351899Y0078833D03*
X0679301Y0232236D03*
X0689301Y0237636D03*
X0679301Y0243036D03*
X0689301Y0248436D03*
X0679301Y0253836D03*
X0689301Y0259236D03*
X0679301Y0264636D03*
X0689301Y0270036D03*
X0679301Y0275436D03*
X0652300Y0346335D03*
X0652800Y0405835D03*
X0542099Y0398835D03*
X0531299Y0398835D03*
X0536699Y0408835D03*
X0525799Y0408835D03*
X0514999Y0408835D03*
X0504099Y0408835D03*
X0493199Y0408835D03*
X0487799Y0398835D03*
X0476899Y0398835D03*
X0465999Y0398835D03*
X0460599Y0408835D03*
X0449699Y0408835D03*
X0438899Y0408835D03*
X0444299Y0398835D03*
X0433399Y0398835D03*
X0422599Y0398835D03*
X0411699Y0398835D03*
X0406299Y0408835D03*
X0417099Y0408835D03*
X0427999Y0408835D03*
X0400799Y0398835D03*
X0389999Y0398835D03*
X0379099Y0398835D03*
X0368199Y0398835D03*
X0357399Y0398835D03*
X0362799Y0408835D03*
X0351899Y0408835D03*
X0346499Y0398835D03*
X0373699Y0408835D03*
X0384499Y0408835D03*
X0395399Y0408835D03*
X0455199Y0398835D03*
X0471499Y0408835D03*
X0482399Y0408835D03*
X0498699Y0398835D03*
X0509499Y0398835D03*
X0520399Y0398835D03*
D11*
X0076800Y0064535D03*
X0076800Y0163135D03*
X0076800Y0202037D03*
X0076800Y0300637D03*
X0319299Y0403835D03*
X0569299Y0403835D03*
X0684301Y0303136D03*
X0684301Y0204536D03*
X0569299Y0083833D03*
X0319299Y0083833D03*
D12*
X0300898Y0140236D03*
X0298298Y0140236D03*
X0295798Y0140236D03*
X0293198Y0140236D03*
X0290598Y0140236D03*
X0288098Y0140236D03*
X0285498Y0140236D03*
X0282998Y0140236D03*
X0280398Y0140236D03*
X0277798Y0140236D03*
X0275298Y0140236D03*
X0272698Y0140236D03*
X0272698Y0162436D03*
X0275298Y0162436D03*
X0277798Y0162436D03*
X0280398Y0162436D03*
X0282998Y0162436D03*
X0285498Y0162436D03*
X0288098Y0162436D03*
X0290598Y0162436D03*
X0293198Y0162436D03*
X0295798Y0162436D03*
X0298298Y0162436D03*
X0300898Y0162436D03*
X0300902Y0265235D03*
X0298302Y0265235D03*
X0295802Y0265235D03*
X0293202Y0265235D03*
X0290602Y0265235D03*
X0288102Y0265235D03*
X0285502Y0265235D03*
X0283002Y0265235D03*
X0280402Y0265235D03*
X0277802Y0265235D03*
X0275302Y0265235D03*
X0272702Y0265235D03*
X0272702Y0287435D03*
X0275302Y0287435D03*
X0277802Y0287435D03*
X0280402Y0287435D03*
X0283002Y0287435D03*
X0285502Y0287435D03*
X0288102Y0287435D03*
X0290602Y0287435D03*
X0293202Y0287435D03*
X0295802Y0287435D03*
X0298302Y0287435D03*
X0300902Y0287435D03*
X0585202Y0322732D03*
X0587802Y0322732D03*
X0590302Y0322732D03*
X0592902Y0322732D03*
X0595502Y0322732D03*
X0598002Y0322732D03*
X0600602Y0322732D03*
X0603102Y0322732D03*
X0605702Y0322732D03*
X0608302Y0322732D03*
X0610802Y0322732D03*
X0613402Y0322732D03*
X0613402Y0344932D03*
X0610802Y0344932D03*
X0608302Y0344932D03*
X0605702Y0344932D03*
X0603102Y0344932D03*
X0600602Y0344932D03*
X0598002Y0344932D03*
X0595502Y0344932D03*
X0592902Y0344932D03*
X0590302Y0344932D03*
X0587802Y0344932D03*
X0585202Y0344932D03*
X0585202Y0242436D03*
X0587802Y0242436D03*
X0590302Y0242436D03*
X0592902Y0242436D03*
X0595502Y0242436D03*
X0598002Y0242436D03*
X0600602Y0242436D03*
X0603102Y0242436D03*
X0605702Y0242436D03*
X0608302Y0242436D03*
X0610802Y0242436D03*
X0613402Y0242436D03*
X0613402Y0220236D03*
X0610802Y0220236D03*
X0608302Y0220236D03*
X0605702Y0220236D03*
X0603102Y0220236D03*
X0600602Y0220236D03*
X0598002Y0220236D03*
X0595502Y0220236D03*
X0592902Y0220236D03*
X0590302Y0220236D03*
X0587802Y0220236D03*
X0585202Y0220236D03*
X0585201Y0132436D03*
X0587801Y0132436D03*
X0590301Y0132436D03*
X0592901Y0132436D03*
X0595501Y0132436D03*
X0598001Y0132436D03*
X0600601Y0132436D03*
X0603101Y0132436D03*
X0605701Y0132436D03*
X0608301Y0132436D03*
X0610801Y0132436D03*
X0613401Y0132436D03*
X0613401Y0110236D03*
X0610801Y0110236D03*
X0608301Y0110236D03*
X0605701Y0110236D03*
X0603101Y0110236D03*
X0600601Y0110236D03*
X0598001Y0110236D03*
X0595501Y0110236D03*
X0592901Y0110236D03*
X0590301Y0110236D03*
X0587801Y0110236D03*
X0585201Y0110236D03*
D13*
X0629301Y0097576D03*
X0629301Y0090096D03*
X0629298Y0207597D03*
X0629298Y0215077D03*
X0629300Y0315093D03*
X0629300Y0322573D03*
X0195550Y0357345D03*
X0195550Y0364825D03*
X0181800Y0357575D03*
X0181800Y0350095D03*
X0141800Y0340075D03*
X0141800Y0332595D03*
X0069300Y0397595D03*
X0069300Y0405075D03*
X0191800Y0225073D03*
X0191800Y0217593D03*
X0179300Y0215076D03*
X0179300Y0207596D03*
D14*
X0160301Y0206334D03*
X0160301Y0211334D03*
X0160301Y0216334D03*
X0160301Y0221334D03*
X0160301Y0226334D03*
X0160301Y0231334D03*
X0160301Y0236334D03*
X0160301Y0241334D03*
X0160301Y0261333D03*
X0160301Y0266333D03*
X0160301Y0271333D03*
X0160301Y0276333D03*
X0160301Y0281333D03*
X0160301Y0286333D03*
X0160301Y0291333D03*
X0160301Y0296333D03*
X0123301Y0296333D03*
X0123301Y0291333D03*
X0123301Y0286333D03*
X0123301Y0281333D03*
X0123301Y0276333D03*
X0123301Y0271333D03*
X0123301Y0266333D03*
X0123301Y0261333D03*
X0123301Y0241334D03*
X0123301Y0236334D03*
X0123301Y0231334D03*
X0123301Y0226334D03*
X0123301Y0221334D03*
X0123301Y0216334D03*
X0123301Y0211334D03*
X0123301Y0206334D03*
D15*
X0111799Y0237595D03*
X0111799Y0245075D03*
X0101798Y0245075D03*
X0101798Y0237595D03*
X0171798Y0237595D03*
X0171798Y0245075D03*
X0181799Y0245075D03*
X0181799Y0237595D03*
X0181799Y0292594D03*
X0181799Y0300074D03*
X0171798Y0300074D03*
X0171798Y0292594D03*
X0111800Y0292595D03*
X0111800Y0300075D03*
X0101798Y0300074D03*
X0101798Y0292594D03*
X0081800Y0352595D03*
X0081800Y0360075D03*
X0106800Y0357595D03*
X0106800Y0365075D03*
X0133300Y0362595D03*
X0133300Y0370075D03*
X0141800Y0370075D03*
X0141800Y0362595D03*
X0184300Y0385095D03*
X0184300Y0392575D03*
X0194300Y0392575D03*
X0194300Y0385095D03*
X0224300Y0397595D03*
X0224300Y0405075D03*
D16*
X0099418Y0360075D03*
X0099418Y0356335D03*
X0099418Y0352595D03*
X0089180Y0352595D03*
X0089180Y0360075D03*
D17*
X0071799Y0361334D03*
X0071799Y0351334D03*
D18*
X0273061Y0246336D03*
X0280542Y0246336D03*
X0280543Y0121334D03*
X0273062Y0121334D03*
X0608058Y0148832D03*
X0615539Y0148832D03*
X0615542Y0258833D03*
X0608062Y0258833D03*
X0608062Y0358834D03*
X0615542Y0358834D03*
D19*
X0679301Y0184536D02*
X0679301Y0178136D01*
X0689301Y0178136D02*
X0689301Y0184536D01*
X0124300Y0360635D02*
X0124300Y0367035D01*
X0114300Y0367035D02*
X0114300Y0360635D01*
X0101800Y0401635D02*
X0101800Y0408035D01*
X0091800Y0408035D02*
X0091800Y0401635D01*
X0099301Y0167034D02*
X0099301Y0160634D01*
X0109301Y0160634D02*
X0109301Y0167034D01*
D20*
X0203591Y0388913D03*
X0203591Y0390882D03*
X0203591Y0392850D03*
X0203591Y0394819D03*
X0203591Y0396787D03*
X0203591Y0398756D03*
X0215009Y0398756D03*
X0215009Y0396787D03*
X0215009Y0394819D03*
X0215009Y0392850D03*
X0215009Y0390882D03*
X0215009Y0388913D03*
D21*
X0212351Y0389172D02*
X0206249Y0389172D01*
X0206249Y0388374D02*
X0212351Y0388374D01*
X0212351Y0388323D02*
X0211662Y0387634D01*
X0206839Y0387634D01*
X0206670Y0387645D01*
X0206512Y0387708D01*
X0206381Y0387817D01*
X0206291Y0387961D01*
X0206249Y0388126D01*
X0206249Y0399543D01*
X0206273Y0399695D01*
X0206343Y0399833D01*
X0206452Y0399942D01*
X0206589Y0400011D01*
X0206741Y0400036D01*
X0211859Y0400036D01*
X0212011Y0400011D01*
X0212148Y0399942D01*
X0212257Y0399833D01*
X0212327Y0399695D01*
X0212351Y0399543D01*
X0212351Y0388323D01*
X0212351Y0389971D02*
X0206249Y0389971D01*
X0206249Y0390769D02*
X0212351Y0390769D01*
X0212351Y0391568D02*
X0206249Y0391568D01*
X0206249Y0392366D02*
X0212351Y0392366D01*
X0212351Y0393165D02*
X0206249Y0393165D01*
X0206249Y0393963D02*
X0212351Y0393963D01*
X0212351Y0394762D02*
X0206249Y0394762D01*
X0206249Y0395560D02*
X0212351Y0395560D01*
X0212351Y0396359D02*
X0206249Y0396359D01*
X0206249Y0397157D02*
X0212351Y0397157D01*
X0212351Y0397956D02*
X0206249Y0397956D01*
X0206249Y0398754D02*
X0212351Y0398754D01*
X0212350Y0399553D02*
X0206250Y0399553D01*
D22*
X0185540Y0366335D03*
X0178060Y0366335D03*
X0180540Y0341335D03*
X0173060Y0341335D03*
X0160540Y0341335D03*
X0153060Y0341335D03*
X0150560Y0331335D03*
X0158040Y0331335D03*
X0098040Y0343835D03*
X0090560Y0343835D03*
X0088060Y0333835D03*
X0095540Y0333835D03*
X0095540Y0325585D03*
X0088060Y0325585D03*
X0073040Y0383835D03*
X0065560Y0383835D03*
D23*
X0058434Y0383835D03*
X0050166Y0383835D03*
X0050166Y0406335D03*
X0058434Y0406335D03*
X0058434Y0333835D03*
X0050166Y0333835D03*
X0050166Y0323835D03*
X0058434Y0323835D03*
D24*
X0160461Y0353461D03*
X0163020Y0353461D03*
X0165580Y0353461D03*
X0168139Y0353461D03*
X0168139Y0369209D03*
X0165580Y0369209D03*
X0163020Y0369209D03*
X0160461Y0369209D03*
D25*
X0156426Y0365173D03*
X0156426Y0362614D03*
X0156426Y0360055D03*
X0156426Y0357496D03*
X0172174Y0357496D03*
X0172174Y0360055D03*
X0172174Y0362614D03*
X0172174Y0365173D03*
D26*
X0164300Y0361335D03*
D27*
X0158611Y0411335D03*
X0134989Y0411335D03*
D28*
X0149457Y0383835D03*
X0169143Y0383835D03*
X0209457Y0376335D03*
X0229143Y0376335D03*
D29*
X0133631Y0340075D03*
X0124969Y0336335D03*
X0133631Y0332595D03*
D30*
X0062300Y0351217D03*
X0062300Y0353776D03*
X0062300Y0356335D03*
X0062300Y0358894D03*
X0062300Y0361453D03*
D31*
X0060883Y0366030D03*
X0060883Y0346640D03*
D32*
X0051828Y0344868D03*
X0051828Y0367801D03*
D33*
X0051828Y0359563D03*
X0051828Y0352988D03*
D34*
X0094800Y0291394D03*
X0094800Y0286276D03*
X0094300Y0238894D03*
X0094300Y0233776D03*
X0097800Y0216394D03*
X0097800Y0211276D03*
D35*
X0108741Y0221335D03*
X0113859Y0221335D03*
X0112359Y0254335D03*
X0107241Y0254335D03*
X0101859Y0259335D03*
X0096741Y0259335D03*
X0101741Y0281835D03*
X0106859Y0281835D03*
X0102359Y0145335D03*
X0097241Y0145335D03*
X0097241Y0139835D03*
X0102359Y0139835D03*
X0098359Y0129835D03*
X0093241Y0129835D03*
X0093241Y0120335D03*
X0098359Y0120335D03*
X0097859Y0106335D03*
X0092741Y0106335D03*
X0092741Y0100335D03*
X0097859Y0100335D03*
X0097859Y0092335D03*
X0092741Y0092335D03*
D36*
X0667300Y0346335D03*
X0667300Y0405835D03*
D37*
X0604300Y0403835D03*
X0596800Y0408835D03*
X0584300Y0386335D03*
X0549300Y0386335D03*
X0515000Y0356335D03*
X0525775Y0351310D03*
X0536700Y0346335D03*
X0504075Y0361335D03*
X0493200Y0366310D03*
X0422600Y0311335D03*
X0411700Y0306335D03*
X0400825Y0301335D03*
X0390000Y0296335D03*
X0379100Y0291335D03*
X0368200Y0286335D03*
X0357400Y0281310D03*
X0346475Y0276335D03*
X0291800Y0246335D03*
X0276800Y0238835D03*
X0261800Y0266335D03*
X0244300Y0286335D03*
X0239300Y0291335D03*
X0184300Y0259835D03*
X0199300Y0224835D03*
X0166800Y0208835D03*
X0339300Y0206335D03*
X0428000Y0256335D03*
X0417100Y0261335D03*
X0406300Y0266335D03*
X0438900Y0251310D03*
X0449700Y0246335D03*
X0460600Y0241335D03*
X0471500Y0236335D03*
X0482375Y0231335D03*
X0509475Y0188810D03*
X0498650Y0183835D03*
X0487800Y0178835D03*
X0476900Y0173835D03*
X0466000Y0168835D03*
X0455200Y0163835D03*
X0444300Y0158835D03*
X0433400Y0153835D03*
X0384475Y0126310D03*
X0395425Y0121335D03*
X0373600Y0131335D03*
X0362800Y0136335D03*
X0351900Y0141335D03*
X0257300Y0101335D03*
X0520400Y0156335D03*
X0531200Y0151335D03*
X0542100Y0146335D03*
X0581800Y0121335D03*
X0616800Y0103835D03*
X0646800Y0116335D03*
X0634300Y0081335D03*
X0666800Y0253835D03*
X0664300Y0276335D03*
X0641800Y0283835D03*
X0631800Y0293835D03*
X0654300Y0303835D03*
X0604300Y0328835D03*
X0604300Y0336335D03*
X0619300Y0343835D03*
X0584300Y0283835D03*
X0549300Y0283835D03*
X0339300Y0333835D03*
X0301800Y0333835D03*
X0249300Y0358835D03*
X0171800Y0348835D03*
X0164300Y0348835D03*
X0154300Y0348835D03*
X0169300Y0331335D03*
X0114300Y0336335D03*
X0101800Y0333835D03*
X0104300Y0348835D03*
X0076300Y0376335D03*
X0068800Y0376335D03*
D38*
X0056800Y0423835D03*
X0106800Y0063835D03*
X0704300Y0061335D03*
X0704300Y0423835D03*
M02*
