G75*
%MOIN*%
%OFA0B0*%
%FSLAX25Y25*%
%IPPOS*%
%LPD*%
%AMOC8*
5,1,8,0,0,1.08239X$1,22.5*
%
%ADD10OC8,0.07200*%
%ADD11C,0.20800*%
%ADD12R,0.07099X0.05918*%
%ADD13R,0.02200X0.06600*%
%ADD14C,0.08200*%
%ADD15R,0.05918X0.06706*%
%ADD16C,0.07200*%
%ADD17R,0.06312X0.06312*%
%ADD18OC8,0.13200*%
%ADD19C,0.05162*%
%ADD20C,0.16611*%
D10*
X0081800Y0092235D03*
X0071800Y0097635D03*
X0081800Y0103035D03*
X0071800Y0108435D03*
X0081800Y0113835D03*
X0071800Y0119235D03*
X0081800Y0124635D03*
X0071800Y0130035D03*
X0081800Y0135435D03*
X0207800Y0212335D03*
X0217800Y0212335D03*
X0227800Y0212335D03*
X0227800Y0222335D03*
X0217800Y0222335D03*
X0207800Y0222335D03*
X0207800Y0232335D03*
X0207800Y0242335D03*
X0217800Y0242335D03*
X0227800Y0242335D03*
X0227800Y0232335D03*
X0217800Y0232335D03*
X0217800Y0252335D03*
X0207800Y0252335D03*
X0207800Y0262335D03*
X0217800Y0262335D03*
X0227800Y0262335D03*
X0227800Y0272335D03*
X0217800Y0272335D03*
X0207800Y0272335D03*
X0227800Y0252335D03*
X0081800Y0251337D03*
X0071800Y0256737D03*
X0081800Y0262137D03*
X0071800Y0267537D03*
X0081800Y0272937D03*
X0071800Y0245937D03*
X0081800Y0240537D03*
X0071800Y0235137D03*
X0081800Y0229737D03*
X0346499Y0088833D03*
X0357299Y0088833D03*
X0368199Y0088833D03*
X0379099Y0088833D03*
X0389899Y0088833D03*
X0400799Y0088833D03*
X0411699Y0088833D03*
X0422599Y0088833D03*
X0433399Y0088833D03*
X0444299Y0088833D03*
X0455199Y0088833D03*
X0465999Y0088833D03*
X0476899Y0088833D03*
X0487799Y0088833D03*
X0498599Y0088833D03*
X0509499Y0088833D03*
X0520399Y0088833D03*
X0531199Y0088833D03*
X0542099Y0088833D03*
X0536699Y0078833D03*
X0525799Y0078833D03*
X0514899Y0078833D03*
X0504099Y0078833D03*
X0493199Y0078833D03*
X0482299Y0078833D03*
X0471499Y0078833D03*
X0460599Y0078833D03*
X0449699Y0078833D03*
X0438899Y0078833D03*
X0427999Y0078833D03*
X0417099Y0078833D03*
X0406299Y0078833D03*
X0395399Y0078833D03*
X0384499Y0078833D03*
X0373599Y0078833D03*
X0362799Y0078833D03*
X0351899Y0078833D03*
X0679301Y0232236D03*
X0689301Y0237636D03*
X0679301Y0243036D03*
X0689301Y0248436D03*
X0679301Y0253836D03*
X0689301Y0259236D03*
X0679301Y0264636D03*
X0689301Y0270036D03*
X0679301Y0275436D03*
X0652300Y0346335D03*
X0652800Y0405835D03*
X0542099Y0398835D03*
X0531299Y0398835D03*
X0536699Y0408835D03*
X0525799Y0408835D03*
X0514999Y0408835D03*
X0504099Y0408835D03*
X0493199Y0408835D03*
X0487799Y0398835D03*
X0476899Y0398835D03*
X0465999Y0398835D03*
X0460599Y0408835D03*
X0449699Y0408835D03*
X0438899Y0408835D03*
X0444299Y0398835D03*
X0433399Y0398835D03*
X0422599Y0398835D03*
X0411699Y0398835D03*
X0406299Y0408835D03*
X0417099Y0408835D03*
X0427999Y0408835D03*
X0400799Y0398835D03*
X0389999Y0398835D03*
X0379099Y0398835D03*
X0368199Y0398835D03*
X0357399Y0398835D03*
X0362799Y0408835D03*
X0351899Y0408835D03*
X0346499Y0398835D03*
X0373699Y0408835D03*
X0384499Y0408835D03*
X0395399Y0408835D03*
X0455199Y0398835D03*
X0471499Y0408835D03*
X0482399Y0408835D03*
X0498699Y0398835D03*
X0509499Y0398835D03*
X0520399Y0398835D03*
D11*
X0076800Y0064535D03*
X0076800Y0163135D03*
X0076800Y0202037D03*
X0076800Y0300637D03*
X0319299Y0403835D03*
X0569299Y0403835D03*
X0684301Y0303136D03*
X0684301Y0204536D03*
X0569299Y0083833D03*
X0319299Y0083833D03*
D12*
X0264302Y0140096D03*
X0264302Y0147576D03*
X0260799Y0204093D03*
X0260799Y0211573D03*
X0261801Y0285096D03*
X0261801Y0292576D03*
X0261800Y0337593D03*
X0261800Y0345074D03*
X0621801Y0400094D03*
X0621801Y0407574D03*
X0629299Y0315073D03*
X0629299Y0307593D03*
X0629301Y0197576D03*
X0629301Y0190096D03*
D13*
X0613398Y0184937D03*
X0610798Y0184937D03*
X0608298Y0184937D03*
X0605698Y0184937D03*
X0603098Y0184937D03*
X0600598Y0184937D03*
X0597998Y0184937D03*
X0595498Y0184937D03*
X0592898Y0184937D03*
X0590298Y0184937D03*
X0587798Y0184937D03*
X0585198Y0184937D03*
X0585198Y0162737D03*
X0587798Y0162737D03*
X0590298Y0162737D03*
X0592898Y0162737D03*
X0595498Y0162737D03*
X0597998Y0162737D03*
X0600598Y0162737D03*
X0603098Y0162737D03*
X0605698Y0162737D03*
X0608298Y0162737D03*
X0610798Y0162737D03*
X0613398Y0162737D03*
X0613398Y0272737D03*
X0610798Y0272737D03*
X0608298Y0272737D03*
X0605698Y0272737D03*
X0603098Y0272737D03*
X0600598Y0272737D03*
X0597998Y0272737D03*
X0595498Y0272737D03*
X0592898Y0272737D03*
X0590298Y0272737D03*
X0587798Y0272737D03*
X0585198Y0272737D03*
X0585198Y0294937D03*
X0587798Y0294937D03*
X0590298Y0294937D03*
X0592898Y0294937D03*
X0595498Y0294937D03*
X0597998Y0294937D03*
X0600598Y0294937D03*
X0603098Y0294937D03*
X0605698Y0294937D03*
X0608298Y0294937D03*
X0610798Y0294937D03*
X0613398Y0294937D03*
X0613399Y0375237D03*
X0610799Y0375237D03*
X0608299Y0375237D03*
X0605699Y0375237D03*
X0603099Y0375237D03*
X0600599Y0375237D03*
X0597999Y0375237D03*
X0595499Y0375237D03*
X0592899Y0375237D03*
X0590299Y0375237D03*
X0587799Y0375237D03*
X0585199Y0375237D03*
X0585199Y0397437D03*
X0587799Y0397437D03*
X0590299Y0397437D03*
X0592899Y0397437D03*
X0595499Y0397437D03*
X0597999Y0397437D03*
X0600599Y0397437D03*
X0603099Y0397437D03*
X0605699Y0397437D03*
X0608299Y0397437D03*
X0610799Y0397437D03*
X0613399Y0397437D03*
X0300902Y0344936D03*
X0298302Y0344936D03*
X0295802Y0344936D03*
X0293202Y0344936D03*
X0290602Y0344936D03*
X0288102Y0344936D03*
X0285502Y0344936D03*
X0283002Y0344936D03*
X0280402Y0344936D03*
X0277802Y0344936D03*
X0275302Y0344936D03*
X0272702Y0344936D03*
X0272702Y0322736D03*
X0275302Y0322736D03*
X0277802Y0322736D03*
X0280402Y0322736D03*
X0283002Y0322736D03*
X0285502Y0322736D03*
X0288102Y0322736D03*
X0290602Y0322736D03*
X0293202Y0322736D03*
X0295802Y0322736D03*
X0298302Y0322736D03*
X0300902Y0322736D03*
X0300902Y0217433D03*
X0298302Y0217433D03*
X0295802Y0217433D03*
X0293202Y0217433D03*
X0290602Y0217433D03*
X0288102Y0217433D03*
X0285502Y0217433D03*
X0283002Y0217433D03*
X0280402Y0217433D03*
X0277802Y0217433D03*
X0275302Y0217433D03*
X0272702Y0217433D03*
X0272702Y0195233D03*
X0275302Y0195233D03*
X0277802Y0195233D03*
X0280402Y0195233D03*
X0283002Y0195233D03*
X0285502Y0195233D03*
X0288102Y0195233D03*
X0290602Y0195233D03*
X0293202Y0195233D03*
X0295802Y0195233D03*
X0298302Y0195233D03*
X0300902Y0195233D03*
D14*
X0071799Y0351334D03*
X0071799Y0361334D03*
D15*
X0273061Y0366335D03*
X0280541Y0366335D03*
X0280541Y0246336D03*
X0273060Y0246336D03*
X0608062Y0258836D03*
X0615542Y0258836D03*
X0615542Y0358835D03*
X0608062Y0358835D03*
X0608062Y0148835D03*
X0615542Y0148835D03*
D16*
X0679301Y0178136D02*
X0679301Y0184536D01*
X0689301Y0184536D02*
X0689301Y0178136D01*
X0124300Y0360635D02*
X0124300Y0367035D01*
X0114300Y0367035D02*
X0114300Y0360635D01*
X0101800Y0401635D02*
X0101800Y0408035D01*
X0091800Y0408035D02*
X0091800Y0401635D01*
X0099301Y0167034D02*
X0099301Y0160634D01*
X0109301Y0160634D02*
X0109301Y0167034D01*
D17*
X0089800Y0346354D03*
X0089800Y0361315D03*
X0088820Y0390335D03*
X0103780Y0390335D03*
D18*
X0667300Y0405835D03*
X0667300Y0346335D03*
D19*
X0619300Y0343835D03*
X0604300Y0336335D03*
X0604300Y0328835D03*
X0654300Y0303835D03*
X0631800Y0293835D03*
X0641800Y0283835D03*
X0664300Y0276335D03*
X0666800Y0253835D03*
X0584300Y0283835D03*
X0549300Y0283835D03*
X0471500Y0236335D03*
X0482375Y0231335D03*
X0460600Y0241335D03*
X0449700Y0246335D03*
X0438900Y0251310D03*
X0428000Y0256335D03*
X0417100Y0261335D03*
X0406300Y0266335D03*
X0368200Y0286335D03*
X0357400Y0281310D03*
X0346475Y0276335D03*
X0379100Y0291335D03*
X0390000Y0296335D03*
X0400825Y0301335D03*
X0411700Y0306335D03*
X0422600Y0311335D03*
X0339300Y0333835D03*
X0301800Y0333835D03*
X0249300Y0358835D03*
X0171800Y0348835D03*
X0164300Y0348835D03*
X0154300Y0348835D03*
X0169300Y0331335D03*
X0114300Y0336335D03*
X0101800Y0333835D03*
X0104300Y0348835D03*
X0076300Y0376335D03*
X0068800Y0376335D03*
X0239300Y0291335D03*
X0244300Y0286335D03*
X0261800Y0266335D03*
X0291800Y0246335D03*
X0276800Y0238835D03*
X0339300Y0206335D03*
X0433400Y0153835D03*
X0444300Y0158835D03*
X0455200Y0163835D03*
X0466000Y0168835D03*
X0476900Y0173835D03*
X0487800Y0178835D03*
X0498650Y0183835D03*
X0509475Y0188810D03*
X0520400Y0156335D03*
X0531200Y0151335D03*
X0542100Y0146335D03*
X0581800Y0121335D03*
X0616800Y0103835D03*
X0646800Y0116335D03*
X0634300Y0081335D03*
X0395425Y0121335D03*
X0384475Y0126310D03*
X0373600Y0131335D03*
X0362800Y0136335D03*
X0351900Y0141335D03*
X0257300Y0101335D03*
X0166800Y0208835D03*
X0199300Y0224835D03*
X0184300Y0259835D03*
X0493200Y0366310D03*
X0504075Y0361335D03*
X0515000Y0356335D03*
X0525775Y0351310D03*
X0536700Y0346335D03*
X0549300Y0386335D03*
X0584300Y0386335D03*
X0604300Y0403835D03*
X0596800Y0408835D03*
D20*
X0704300Y0423835D03*
X0704300Y0061335D03*
X0106800Y0063835D03*
X0056800Y0423835D03*
M02*
