G75*
%MOIN*%
%OFA0B0*%
%FSLAX25Y25*%
%IPPOS*%
%LPD*%
%AMOC8*
5,1,8,0,0,1.08239X$1,22.5*
%
%ADD10OC8,0.06000*%
%ADD11C,0.20000*%
%ADD12C,0.07400*%
%ADD13C,0.06000*%
%ADD14OC8,0.12400*%
%ADD15C,0.03969*%
%ADD16C,0.04362*%
%ADD17C,0.03575*%
%ADD18C,0.15811*%
D10*
X0081800Y0092235D03*
X0071800Y0097635D03*
X0081800Y0103035D03*
X0071800Y0108435D03*
X0081800Y0113835D03*
X0071800Y0119235D03*
X0081800Y0124635D03*
X0071800Y0130035D03*
X0081800Y0135435D03*
X0207800Y0212335D03*
X0217800Y0212335D03*
X0227800Y0212335D03*
X0227800Y0222335D03*
X0217800Y0222335D03*
X0207800Y0222335D03*
X0207800Y0232335D03*
X0207800Y0242335D03*
X0217800Y0242335D03*
X0227800Y0242335D03*
X0227800Y0232335D03*
X0217800Y0232335D03*
X0217800Y0252335D03*
X0207800Y0252335D03*
X0207800Y0262335D03*
X0217800Y0262335D03*
X0227800Y0262335D03*
X0227800Y0272335D03*
X0217800Y0272335D03*
X0207800Y0272335D03*
X0227800Y0252335D03*
X0081800Y0251337D03*
X0071800Y0256737D03*
X0081800Y0262137D03*
X0071800Y0267537D03*
X0081800Y0272937D03*
X0071800Y0245937D03*
X0081800Y0240537D03*
X0071800Y0235137D03*
X0081800Y0229737D03*
X0346499Y0088833D03*
X0357299Y0088833D03*
X0368199Y0088833D03*
X0379099Y0088833D03*
X0389899Y0088833D03*
X0400799Y0088833D03*
X0411699Y0088833D03*
X0422599Y0088833D03*
X0433399Y0088833D03*
X0444299Y0088833D03*
X0455199Y0088833D03*
X0465999Y0088833D03*
X0476899Y0088833D03*
X0487799Y0088833D03*
X0498599Y0088833D03*
X0509499Y0088833D03*
X0520399Y0088833D03*
X0531199Y0088833D03*
X0542099Y0088833D03*
X0536699Y0078833D03*
X0525799Y0078833D03*
X0514899Y0078833D03*
X0504099Y0078833D03*
X0493199Y0078833D03*
X0482299Y0078833D03*
X0471499Y0078833D03*
X0460599Y0078833D03*
X0449699Y0078833D03*
X0438899Y0078833D03*
X0427999Y0078833D03*
X0417099Y0078833D03*
X0406299Y0078833D03*
X0395399Y0078833D03*
X0384499Y0078833D03*
X0373599Y0078833D03*
X0362799Y0078833D03*
X0351899Y0078833D03*
X0679301Y0232236D03*
X0689301Y0237636D03*
X0679301Y0243036D03*
X0689301Y0248436D03*
X0679301Y0253836D03*
X0689301Y0259236D03*
X0679301Y0264636D03*
X0689301Y0270036D03*
X0679301Y0275436D03*
X0652300Y0346335D03*
X0652800Y0405835D03*
X0542099Y0398835D03*
X0531299Y0398835D03*
X0536699Y0408835D03*
X0525799Y0408835D03*
X0514999Y0408835D03*
X0504099Y0408835D03*
X0493199Y0408835D03*
X0487799Y0398835D03*
X0476899Y0398835D03*
X0465999Y0398835D03*
X0460599Y0408835D03*
X0449699Y0408835D03*
X0438899Y0408835D03*
X0444299Y0398835D03*
X0433399Y0398835D03*
X0422599Y0398835D03*
X0411699Y0398835D03*
X0406299Y0408835D03*
X0417099Y0408835D03*
X0427999Y0408835D03*
X0400799Y0398835D03*
X0389999Y0398835D03*
X0379099Y0398835D03*
X0368199Y0398835D03*
X0357399Y0398835D03*
X0362799Y0408835D03*
X0351899Y0408835D03*
X0346499Y0398835D03*
X0373699Y0408835D03*
X0384499Y0408835D03*
X0395399Y0408835D03*
X0455199Y0398835D03*
X0471499Y0408835D03*
X0482399Y0408835D03*
X0498699Y0398835D03*
X0509499Y0398835D03*
X0520399Y0398835D03*
D11*
X0569299Y0403835D03*
X0684301Y0303136D03*
X0684301Y0204536D03*
X0569299Y0083833D03*
X0319299Y0083833D03*
X0076800Y0064535D03*
X0076800Y0163135D03*
X0076800Y0202037D03*
X0076800Y0300637D03*
X0319299Y0403835D03*
D12*
X0071799Y0361334D03*
X0071799Y0351334D03*
D13*
X0114300Y0360835D02*
X0114300Y0366835D01*
X0124300Y0366835D02*
X0124300Y0360835D01*
X0101800Y0401835D02*
X0101800Y0407835D01*
X0091800Y0407835D02*
X0091800Y0401835D01*
X0099301Y0166834D02*
X0099301Y0160834D01*
X0109301Y0160834D02*
X0109301Y0166834D01*
X0679301Y0178336D02*
X0679301Y0184336D01*
X0689301Y0184336D02*
X0689301Y0178336D01*
D14*
X0667300Y0346335D03*
X0667300Y0405835D03*
D15*
X0601800Y0366335D03*
X0596800Y0361335D03*
X0591800Y0356335D03*
X0586800Y0351335D03*
X0579300Y0346335D03*
X0594300Y0333835D03*
X0591800Y0313835D03*
X0611800Y0308835D03*
X0619300Y0313835D03*
X0634300Y0333835D03*
X0639300Y0328835D03*
X0626800Y0353835D03*
X0621800Y0358835D03*
X0606800Y0351335D03*
X0619300Y0278835D03*
X0601800Y0266335D03*
X0596800Y0261335D03*
X0591800Y0256335D03*
X0586800Y0251335D03*
X0576800Y0246335D03*
X0571800Y0241335D03*
X0566800Y0236335D03*
X0561800Y0231335D03*
X0596800Y0231335D03*
X0624300Y0223835D03*
X0636800Y0213835D03*
X0649300Y0221335D03*
X0646800Y0201335D03*
X0619300Y0193835D03*
X0614300Y0193835D03*
X0605702Y0202433D03*
X0609300Y0208835D03*
X0616800Y0173835D03*
X0594300Y0173835D03*
X0601800Y0156335D03*
X0596800Y0151335D03*
X0591800Y0146335D03*
X0586800Y0141335D03*
X0576800Y0136335D03*
X0571800Y0131335D03*
X0566800Y0126335D03*
X0561800Y0121335D03*
X0604300Y0116335D03*
X0606800Y0126335D03*
X0621800Y0126335D03*
X0616800Y0138835D03*
X0606800Y0141335D03*
X0621800Y0148835D03*
X0631800Y0113835D03*
X0631800Y0106335D03*
X0641800Y0101335D03*
X0636800Y0091335D03*
X0621800Y0076335D03*
X0549300Y0173835D03*
X0606800Y0251335D03*
X0621800Y0258835D03*
X0626800Y0253835D03*
X0324300Y0276335D03*
X0319300Y0281335D03*
X0314300Y0286335D03*
X0309300Y0291335D03*
X0299300Y0296335D03*
X0294300Y0301335D03*
X0289300Y0306335D03*
X0284300Y0311335D03*
X0279300Y0303835D03*
X0271800Y0311335D03*
X0269300Y0293835D03*
X0276800Y0281335D03*
X0291800Y0276335D03*
X0269300Y0273835D03*
X0254300Y0276335D03*
X0269300Y0253835D03*
X0259300Y0246335D03*
X0271800Y0233835D03*
X0266800Y0223835D03*
X0264800Y0218835D03*
X0279300Y0208835D03*
X0291800Y0206335D03*
X0284300Y0188835D03*
X0289300Y0183835D03*
X0294300Y0178835D03*
X0299300Y0173835D03*
X0309300Y0168835D03*
X0314300Y0163835D03*
X0319300Y0158835D03*
X0324300Y0153835D03*
X0291800Y0151335D03*
X0284300Y0151335D03*
X0271800Y0151335D03*
X0266800Y0166335D03*
X0262300Y0178335D03*
X0269300Y0186335D03*
X0274300Y0183835D03*
X0279300Y0178835D03*
X0255300Y0196335D03*
X0286800Y0243835D03*
X0271800Y0331335D03*
X0249300Y0331335D03*
X0256800Y0351335D03*
X0269300Y0356335D03*
X0289300Y0363835D03*
X0299300Y0363835D03*
X0274300Y0106335D03*
D16*
X0257300Y0101335D03*
X0351900Y0141335D03*
X0362800Y0136335D03*
X0373600Y0131335D03*
X0384475Y0126310D03*
X0395425Y0121335D03*
X0433400Y0153835D03*
X0444300Y0158835D03*
X0455200Y0163835D03*
X0466000Y0168835D03*
X0476900Y0173835D03*
X0487800Y0178835D03*
X0498650Y0183835D03*
X0509475Y0188810D03*
X0520400Y0156335D03*
X0531200Y0151335D03*
X0542100Y0146335D03*
X0581800Y0121335D03*
X0616800Y0103835D03*
X0646800Y0116335D03*
X0634300Y0081335D03*
X0482375Y0231335D03*
X0471500Y0236335D03*
X0460600Y0241335D03*
X0449700Y0246335D03*
X0438900Y0251310D03*
X0428000Y0256335D03*
X0417100Y0261335D03*
X0406300Y0266335D03*
X0368200Y0286335D03*
X0357400Y0281310D03*
X0346475Y0276335D03*
X0379100Y0291335D03*
X0390000Y0296335D03*
X0400825Y0301335D03*
X0411700Y0306335D03*
X0422600Y0311335D03*
X0339300Y0333835D03*
X0301800Y0333835D03*
X0249300Y0358835D03*
X0171800Y0348835D03*
X0164300Y0348835D03*
X0154300Y0348835D03*
X0169300Y0331335D03*
X0114300Y0336335D03*
X0101800Y0333835D03*
X0104300Y0348835D03*
X0076300Y0376335D03*
X0068800Y0376335D03*
X0239300Y0291335D03*
X0244300Y0286335D03*
X0261800Y0266335D03*
X0291800Y0246335D03*
X0276800Y0238835D03*
X0339300Y0206335D03*
X0199300Y0224835D03*
X0166800Y0208835D03*
X0184300Y0259835D03*
X0493200Y0366310D03*
X0504075Y0361335D03*
X0515000Y0356335D03*
X0525775Y0351310D03*
X0536700Y0346335D03*
X0549300Y0386335D03*
X0584300Y0386335D03*
X0604300Y0403835D03*
X0596800Y0408835D03*
X0619300Y0343835D03*
X0604300Y0336335D03*
X0604300Y0328835D03*
X0654300Y0303835D03*
X0631800Y0293835D03*
X0641800Y0283835D03*
X0664300Y0276335D03*
X0666800Y0253835D03*
X0584300Y0283835D03*
X0549300Y0283835D03*
D17*
X0051800Y0056335D03*
X0095800Y0115835D03*
X0093300Y0134835D03*
X0051800Y0171335D03*
X0050300Y0192335D03*
X0096800Y0223835D03*
X0089300Y0233335D03*
X0094300Y0246335D03*
X0120800Y0251835D03*
X0128300Y0251835D03*
X0156300Y0254835D03*
X0163300Y0251835D03*
X0156300Y0247835D03*
X0177300Y0252835D03*
X0176800Y0266835D03*
X0166800Y0266835D03*
X0101800Y0265335D03*
X0093300Y0277835D03*
X0086300Y0284835D03*
X0050300Y0310335D03*
X0066800Y0330335D03*
X0074300Y0328835D03*
X0123800Y0309835D03*
X0161300Y0358335D03*
X0164300Y0361335D03*
X0161300Y0364335D03*
X0167300Y0364335D03*
X0167300Y0358335D03*
X0154300Y0366335D03*
X0149800Y0371335D03*
X0149300Y0361335D03*
X0126800Y0378835D03*
X0121800Y0373835D03*
X0126800Y0386335D03*
X0121800Y0403835D03*
X0121800Y0411335D03*
X0121800Y0418835D03*
X0121800Y0426335D03*
X0171800Y0426335D03*
X0171800Y0418835D03*
X0171800Y0411335D03*
X0171800Y0403835D03*
X0179300Y0403835D03*
X0209300Y0403835D03*
X0209300Y0383835D03*
X0187300Y0373335D03*
X0191800Y0371335D03*
X0196800Y0371335D03*
X0183300Y0378335D03*
X0219300Y0365335D03*
X0230800Y0365335D03*
X0239300Y0365335D03*
X0239300Y0358835D03*
X0254050Y0370085D03*
X0253800Y0378835D03*
X0246800Y0378835D03*
X0239300Y0381335D03*
X0239300Y0389335D03*
X0231800Y0393835D03*
X0309300Y0363835D03*
X0316800Y0363835D03*
X0326800Y0363835D03*
X0326800Y0371335D03*
X0326800Y0378835D03*
X0326800Y0386335D03*
X0326800Y0418835D03*
X0326800Y0431335D03*
X0264300Y0323835D03*
X0244300Y0308835D03*
X0299300Y0246335D03*
X0299300Y0236335D03*
X0311800Y0236335D03*
X0326800Y0236335D03*
X0326800Y0246335D03*
X0311800Y0246335D03*
X0199300Y0217335D03*
X0159800Y0201335D03*
X0155300Y0193335D03*
X0150800Y0186335D03*
X0119800Y0192835D03*
X0111800Y0226335D03*
X0291800Y0121335D03*
X0279300Y0113835D03*
X0304300Y0121335D03*
X0316800Y0121335D03*
X0326800Y0121335D03*
X0326800Y0111335D03*
X0326800Y0101335D03*
X0326800Y0071335D03*
X0561800Y0071335D03*
X0584300Y0091335D03*
X0591800Y0091335D03*
X0609300Y0091335D03*
X0649300Y0231335D03*
X0664300Y0231335D03*
X0659300Y0243835D03*
X0641800Y0258835D03*
X0641800Y0271335D03*
X0571800Y0316335D03*
X0561800Y0316335D03*
X0561800Y0328835D03*
X0571800Y0328835D03*
X0571800Y0341335D03*
X0561800Y0341335D03*
X0561800Y0371335D03*
X0571800Y0371335D03*
X0571800Y0381335D03*
X0561800Y0381335D03*
X0561800Y0428835D03*
X0051800Y0401335D03*
D18*
X0056800Y0423835D03*
X0106800Y0063835D03*
X0704300Y0061335D03*
X0704300Y0423835D03*
M02*
