G75*
%MOIN*%
%OFA0B0*%
%FSLAX25Y25*%
%IPPOS*%
%LPD*%
%AMOC8*
5,1,8,0,0,1.08239X$1,22.5*
%
%ADD10C,0.00400*%
%ADD11C,0.00700*%
%ADD12C,0.00900*%
%ADD13C,0.00600*%
%ADD14C,0.00300*%
%ADD15C,0.00800*%
D10*
X0088381Y0090035D02*
X0090783Y0090035D01*
X0088381Y0092437D01*
X0088381Y0093037D01*
X0088982Y0093638D01*
X0090183Y0093638D01*
X0090783Y0093037D01*
X0092064Y0093638D02*
X0094466Y0093638D01*
X0093265Y0093638D02*
X0093265Y0090035D01*
X0095747Y0090635D02*
X0096348Y0090035D01*
X0097549Y0090035D01*
X0098149Y0090635D01*
X0097549Y0091836D02*
X0096348Y0091836D01*
X0095747Y0091236D01*
X0095747Y0090635D01*
X0097549Y0091836D02*
X0098149Y0092437D01*
X0098149Y0093037D01*
X0097549Y0093638D01*
X0096348Y0093638D01*
X0095747Y0093037D01*
X0099431Y0093638D02*
X0101833Y0093638D01*
X0100632Y0093638D02*
X0100632Y0090035D01*
X0100031Y0101035D02*
X0101232Y0101035D01*
X0101833Y0101635D01*
X0101232Y0102836D02*
X0100031Y0102836D01*
X0099431Y0102236D01*
X0099431Y0101635D01*
X0100031Y0101035D01*
X0098149Y0101635D02*
X0097549Y0101035D01*
X0096348Y0101035D01*
X0095747Y0101635D01*
X0094466Y0101035D02*
X0092064Y0101035D01*
X0090783Y0101035D02*
X0090783Y0104638D01*
X0090183Y0102836D02*
X0088381Y0101035D01*
X0090783Y0102236D02*
X0088381Y0104638D01*
X0094466Y0104638D02*
X0094466Y0101035D01*
X0095747Y0104037D02*
X0096348Y0104638D01*
X0097549Y0104638D01*
X0098149Y0104037D01*
X0098149Y0101635D01*
X0099431Y0104037D02*
X0100031Y0104638D01*
X0101232Y0104638D01*
X0101833Y0104037D01*
X0101833Y0103437D01*
X0101232Y0102836D01*
X0100605Y0112035D02*
X0098803Y0112035D01*
X0098203Y0112635D01*
X0098203Y0115037D01*
X0098803Y0115638D01*
X0100605Y0115638D01*
X0100605Y0112035D01*
X0096922Y0112035D02*
X0095721Y0112035D01*
X0096321Y0112035D02*
X0096321Y0115638D01*
X0095721Y0115638D02*
X0096922Y0115638D01*
X0094466Y0115638D02*
X0092064Y0112035D01*
X0092064Y0115638D01*
X0090783Y0113836D02*
X0088381Y0113836D01*
X0089582Y0115037D02*
X0089582Y0112635D01*
X0094466Y0112035D02*
X0094466Y0115638D01*
X0094466Y0123035D02*
X0094466Y0126638D01*
X0092064Y0123035D01*
X0092064Y0126638D01*
X0090783Y0126037D02*
X0090783Y0123635D01*
X0090183Y0123035D01*
X0088982Y0123035D01*
X0088381Y0123635D01*
X0088381Y0126037D02*
X0088982Y0126638D01*
X0090183Y0126638D01*
X0090783Y0126037D01*
X0095747Y0126037D02*
X0095747Y0126638D01*
X0095747Y0126037D02*
X0096948Y0124836D01*
X0096948Y0123035D01*
X0096948Y0124836D02*
X0098149Y0126037D01*
X0098149Y0126638D01*
X0099431Y0126037D02*
X0100031Y0126638D01*
X0101232Y0126638D01*
X0101833Y0126037D01*
X0101833Y0125437D01*
X0101232Y0124836D01*
X0100031Y0124836D01*
X0099431Y0124236D01*
X0099431Y0123635D01*
X0100031Y0123035D01*
X0101232Y0123035D01*
X0101833Y0123635D01*
X0100632Y0137535D02*
X0100632Y0141138D01*
X0101833Y0141138D02*
X0099431Y0141138D01*
X0098149Y0140537D02*
X0098149Y0139937D01*
X0097549Y0139336D01*
X0096348Y0139336D01*
X0095747Y0138736D01*
X0095747Y0138135D01*
X0096348Y0137535D01*
X0097549Y0137535D01*
X0098149Y0138135D01*
X0098149Y0140537D02*
X0097549Y0141138D01*
X0096348Y0141138D01*
X0095747Y0140537D01*
X0094466Y0141138D02*
X0092064Y0141138D01*
X0093265Y0141138D02*
X0093265Y0137535D01*
X0090783Y0137535D02*
X0088381Y0137535D01*
X0089582Y0137535D02*
X0089582Y0141138D01*
X0090783Y0139937D01*
X0066100Y0130336D02*
X0063698Y0130336D01*
X0062417Y0130336D02*
X0061216Y0130937D01*
X0060615Y0130937D01*
X0060015Y0130336D01*
X0060015Y0129135D01*
X0060615Y0128535D01*
X0061816Y0128535D01*
X0062417Y0129135D01*
X0062417Y0130336D02*
X0062417Y0132138D01*
X0060015Y0132138D01*
X0058734Y0132138D02*
X0058734Y0129736D01*
X0057533Y0128535D01*
X0056332Y0129736D01*
X0056332Y0132138D01*
X0064899Y0131537D02*
X0064899Y0129135D01*
X0064298Y0121638D02*
X0063698Y0121037D01*
X0063698Y0119836D01*
X0064298Y0119236D01*
X0066100Y0119236D01*
X0064899Y0119236D02*
X0063698Y0118035D01*
X0062417Y0118635D02*
X0061816Y0118035D01*
X0060615Y0118035D01*
X0060015Y0118635D01*
X0060015Y0119236D01*
X0060615Y0119836D01*
X0061816Y0119836D01*
X0062417Y0120437D01*
X0062417Y0121037D01*
X0061816Y0121638D01*
X0060615Y0121638D01*
X0060015Y0121037D01*
X0058734Y0121638D02*
X0056332Y0121638D01*
X0057533Y0121638D02*
X0057533Y0118035D01*
X0057559Y0110638D02*
X0057559Y0107035D01*
X0059961Y0110638D01*
X0059961Y0107035D01*
X0061216Y0107035D02*
X0062417Y0107035D01*
X0061816Y0107035D02*
X0061816Y0110638D01*
X0061216Y0110638D02*
X0062417Y0110638D01*
X0063698Y0110037D02*
X0064298Y0110638D01*
X0066100Y0110638D01*
X0066100Y0107035D01*
X0064298Y0107035D01*
X0063698Y0107635D01*
X0063698Y0110037D01*
X0056278Y0108836D02*
X0053876Y0108836D01*
X0056932Y0099638D02*
X0058734Y0099638D01*
X0058734Y0096035D01*
X0056932Y0096035D01*
X0056332Y0096635D01*
X0056332Y0099037D01*
X0056932Y0099638D01*
X0060015Y0099638D02*
X0060015Y0096035D01*
X0062417Y0099638D01*
X0062417Y0096035D01*
X0063698Y0096635D02*
X0063698Y0097836D01*
X0064899Y0097836D01*
X0066100Y0099037D02*
X0066100Y0096635D01*
X0065499Y0096035D01*
X0064298Y0096035D01*
X0063698Y0096635D01*
X0063698Y0099037D02*
X0064298Y0099638D01*
X0065499Y0099638D01*
X0066100Y0099037D01*
X0066100Y0118035D02*
X0066100Y0121638D01*
X0064298Y0121638D01*
X0216000Y0185635D02*
X0216601Y0185035D01*
X0216000Y0185635D02*
X0216000Y0186836D01*
X0216601Y0187437D01*
X0217201Y0187437D01*
X0217802Y0186836D01*
X0217802Y0185635D01*
X0218402Y0185035D01*
X0219003Y0185035D01*
X0219603Y0185635D01*
X0219603Y0186836D01*
X0219003Y0187437D01*
X0219603Y0188718D02*
X0216000Y0188718D01*
X0216000Y0191120D01*
X0216000Y0192401D02*
X0216000Y0194803D01*
X0216000Y0196084D02*
X0216000Y0198486D01*
X0216601Y0199767D02*
X0216000Y0200368D01*
X0216000Y0201569D01*
X0216601Y0202169D01*
X0219003Y0202169D02*
X0219603Y0201569D01*
X0219603Y0200368D01*
X0219003Y0199767D01*
X0216601Y0199767D01*
X0217802Y0197285D02*
X0217802Y0196084D01*
X0219603Y0196084D02*
X0216000Y0196084D01*
X0219603Y0196084D02*
X0219603Y0198486D01*
X0219603Y0203450D02*
X0219603Y0205852D01*
X0219603Y0204651D02*
X0216000Y0204651D01*
X0216000Y0192401D02*
X0219603Y0192401D01*
X0219603Y0191120D02*
X0219603Y0188718D01*
X0217802Y0188718D02*
X0217802Y0189919D01*
X0233149Y0210535D02*
X0235551Y0210535D01*
X0233149Y0212937D01*
X0233149Y0213537D01*
X0233749Y0214138D01*
X0234950Y0214138D01*
X0235551Y0213537D01*
X0236832Y0214138D02*
X0239234Y0214138D01*
X0238033Y0214138D02*
X0238033Y0210535D01*
X0240515Y0211135D02*
X0241115Y0210535D01*
X0242316Y0210535D01*
X0242917Y0211135D01*
X0242316Y0212336D02*
X0241115Y0212336D01*
X0240515Y0211736D01*
X0240515Y0211135D01*
X0242316Y0212336D02*
X0242917Y0212937D01*
X0242917Y0213537D01*
X0242316Y0214138D01*
X0241115Y0214138D01*
X0240515Y0213537D01*
X0244198Y0214138D02*
X0246600Y0214138D01*
X0245399Y0214138D02*
X0245399Y0210535D01*
X0250499Y0211172D02*
X0255103Y0211172D01*
X0253568Y0209637D01*
X0252801Y0208102D02*
X0252034Y0207335D01*
X0252034Y0205033D01*
X0252034Y0206568D02*
X0250499Y0208102D01*
X0250499Y0209637D02*
X0250499Y0212706D01*
X0251266Y0214241D02*
X0250499Y0215008D01*
X0250499Y0216543D01*
X0251266Y0217310D01*
X0252034Y0217310D01*
X0252801Y0216543D01*
X0252801Y0215776D01*
X0252801Y0216543D02*
X0253568Y0217310D01*
X0254336Y0217310D01*
X0255103Y0216543D01*
X0255103Y0215008D01*
X0254336Y0214241D01*
X0254336Y0208102D02*
X0252801Y0208102D01*
X0254336Y0208102D02*
X0255103Y0207335D01*
X0255103Y0205033D01*
X0250499Y0205033D01*
X0244100Y0220535D02*
X0244100Y0224138D01*
X0242298Y0224138D01*
X0241698Y0223537D01*
X0241698Y0222336D01*
X0242298Y0221736D01*
X0244100Y0221736D01*
X0242899Y0221736D02*
X0241698Y0220535D01*
X0240417Y0221135D02*
X0239816Y0220535D01*
X0238615Y0220535D01*
X0238015Y0221135D01*
X0238015Y0221736D01*
X0238615Y0222336D01*
X0239816Y0222336D01*
X0240417Y0222937D01*
X0240417Y0223537D01*
X0239816Y0224138D01*
X0238615Y0224138D01*
X0238015Y0223537D01*
X0236734Y0224138D02*
X0234332Y0224138D01*
X0235533Y0224138D02*
X0235533Y0220535D01*
X0235051Y0230535D02*
X0235051Y0234138D01*
X0234450Y0232336D02*
X0232649Y0230535D01*
X0235051Y0231736D02*
X0232649Y0234138D01*
X0236332Y0230535D02*
X0238734Y0230535D01*
X0238734Y0234138D01*
X0240015Y0233537D02*
X0240615Y0234138D01*
X0241816Y0234138D01*
X0242417Y0233537D01*
X0242417Y0231135D01*
X0241816Y0230535D01*
X0240615Y0230535D01*
X0240015Y0231135D01*
X0243698Y0231135D02*
X0244298Y0230535D01*
X0245499Y0230535D01*
X0246100Y0231135D01*
X0245499Y0232336D02*
X0244298Y0232336D01*
X0243698Y0231736D01*
X0243698Y0231135D01*
X0245499Y0232336D02*
X0246100Y0232937D01*
X0246100Y0233537D01*
X0245499Y0234138D01*
X0244298Y0234138D01*
X0243698Y0233537D01*
X0242798Y0240535D02*
X0242198Y0241135D01*
X0242198Y0243537D01*
X0242798Y0244138D01*
X0244600Y0244138D01*
X0244600Y0240535D01*
X0242798Y0240535D01*
X0240917Y0240535D02*
X0239716Y0240535D01*
X0240316Y0240535D02*
X0240316Y0244138D01*
X0239716Y0244138D02*
X0240917Y0244138D01*
X0238461Y0244138D02*
X0236059Y0240535D01*
X0236059Y0244138D01*
X0234778Y0242336D02*
X0232376Y0242336D01*
X0238461Y0240535D02*
X0238461Y0244138D01*
X0238461Y0250535D02*
X0238461Y0254138D01*
X0236059Y0250535D01*
X0236059Y0254138D01*
X0234778Y0252336D02*
X0232376Y0252336D01*
X0233577Y0253537D02*
X0233577Y0251135D01*
X0239716Y0250535D02*
X0240917Y0250535D01*
X0240316Y0250535D02*
X0240316Y0254138D01*
X0239716Y0254138D02*
X0240917Y0254138D01*
X0242198Y0253537D02*
X0242798Y0254138D01*
X0244600Y0254138D01*
X0244600Y0250535D01*
X0242798Y0250535D01*
X0242198Y0251135D01*
X0242198Y0253537D01*
X0241216Y0260035D02*
X0241216Y0261836D01*
X0240015Y0263037D01*
X0240015Y0263638D01*
X0238734Y0263638D02*
X0236332Y0260035D01*
X0236332Y0263638D01*
X0235051Y0263037D02*
X0235051Y0260635D01*
X0234450Y0260035D01*
X0233249Y0260035D01*
X0232649Y0260635D01*
X0232649Y0263037D02*
X0233249Y0263638D01*
X0234450Y0263638D01*
X0235051Y0263037D01*
X0238734Y0263638D02*
X0238734Y0260035D01*
X0241216Y0261836D02*
X0242417Y0263037D01*
X0242417Y0263638D01*
X0243698Y0263037D02*
X0244298Y0263638D01*
X0245499Y0263638D01*
X0246100Y0263037D01*
X0246100Y0262437D01*
X0245499Y0261836D01*
X0244298Y0261836D01*
X0243698Y0261236D01*
X0243698Y0260635D01*
X0244298Y0260035D01*
X0245499Y0260035D01*
X0246100Y0260635D01*
X0242899Y0270635D02*
X0242899Y0273037D01*
X0244100Y0271836D02*
X0241698Y0271836D01*
X0240417Y0271836D02*
X0239216Y0272437D01*
X0238615Y0272437D01*
X0238015Y0271836D01*
X0238015Y0270635D01*
X0238615Y0270035D01*
X0239816Y0270035D01*
X0240417Y0270635D01*
X0240417Y0271836D02*
X0240417Y0273638D01*
X0238015Y0273638D01*
X0236734Y0273638D02*
X0236734Y0271236D01*
X0235533Y0270035D01*
X0234332Y0271236D01*
X0234332Y0273638D01*
X0229603Y0282035D02*
X0226000Y0282035D01*
X0226000Y0283836D01*
X0226601Y0284437D01*
X0229003Y0284437D01*
X0229603Y0283836D01*
X0229603Y0282035D01*
X0228402Y0285718D02*
X0226000Y0285718D01*
X0227802Y0285718D02*
X0227802Y0288120D01*
X0228402Y0288120D02*
X0226000Y0288120D01*
X0226000Y0289401D02*
X0226000Y0290602D01*
X0226000Y0290002D02*
X0229603Y0290002D01*
X0229603Y0290602D02*
X0229603Y0289401D01*
X0228402Y0288120D02*
X0229603Y0286919D01*
X0228402Y0285718D01*
X0228402Y0291856D02*
X0227802Y0292457D01*
X0227802Y0293658D01*
X0227201Y0294258D01*
X0226601Y0294258D01*
X0226000Y0293658D01*
X0226000Y0292457D01*
X0226601Y0291856D01*
X0228402Y0291856D02*
X0229003Y0291856D01*
X0229603Y0292457D01*
X0229603Y0293658D01*
X0229003Y0294258D01*
X0229003Y0295540D02*
X0227802Y0296741D01*
X0226000Y0296741D01*
X0227802Y0296741D02*
X0229003Y0297942D01*
X0229603Y0297942D01*
X0229603Y0295540D02*
X0229003Y0295540D01*
X0251999Y0291232D02*
X0251999Y0289697D01*
X0252766Y0288930D01*
X0254301Y0288930D01*
X0254301Y0291232D01*
X0253533Y0291999D01*
X0252766Y0291999D01*
X0251999Y0291232D01*
X0254301Y0288930D02*
X0255835Y0290464D01*
X0256603Y0291999D01*
X0255835Y0287395D02*
X0254301Y0287395D01*
X0253533Y0286628D01*
X0253533Y0284326D01*
X0251999Y0284326D02*
X0256603Y0284326D01*
X0256603Y0286628D01*
X0255835Y0287395D01*
X0253533Y0285860D02*
X0251999Y0287395D01*
X0209603Y0287519D02*
X0209003Y0288120D01*
X0206601Y0288120D01*
X0206000Y0287519D01*
X0206000Y0286318D01*
X0206601Y0285718D01*
X0209003Y0285718D01*
X0209603Y0286318D01*
X0209603Y0287519D01*
X0208402Y0289401D02*
X0209603Y0290602D01*
X0208402Y0291803D01*
X0206000Y0291803D01*
X0206000Y0293084D02*
X0209603Y0293084D01*
X0209603Y0294886D01*
X0209003Y0295486D01*
X0207802Y0295486D01*
X0207201Y0294886D01*
X0207201Y0293084D01*
X0207201Y0294285D02*
X0206000Y0295486D01*
X0206000Y0296767D02*
X0206000Y0298569D01*
X0206601Y0299169D01*
X0209003Y0299169D01*
X0209603Y0298569D01*
X0209603Y0296767D01*
X0206000Y0296767D01*
X0207802Y0291803D02*
X0207802Y0289401D01*
X0208402Y0289401D02*
X0206000Y0289401D01*
X0206601Y0284437D02*
X0206000Y0283836D01*
X0206000Y0282035D01*
X0209603Y0282035D01*
X0209603Y0283836D01*
X0209003Y0284437D01*
X0208402Y0284437D01*
X0207802Y0283836D01*
X0207802Y0282035D01*
X0207802Y0283836D02*
X0207201Y0284437D01*
X0206601Y0284437D01*
X0273927Y0255372D02*
X0273927Y0254605D01*
X0274695Y0253837D01*
X0276229Y0253837D01*
X0276996Y0254605D01*
X0276996Y0255372D01*
X0276229Y0256139D01*
X0274695Y0256139D01*
X0273927Y0255372D01*
X0274695Y0253837D02*
X0273927Y0253070D01*
X0273927Y0252303D01*
X0274695Y0251536D01*
X0276229Y0251536D01*
X0276996Y0252303D01*
X0276996Y0253070D01*
X0276229Y0253837D01*
X0278531Y0252303D02*
X0279298Y0251536D01*
X0280833Y0251536D01*
X0281600Y0252303D01*
X0281600Y0255372D01*
X0280833Y0256139D01*
X0279298Y0256139D01*
X0278531Y0255372D01*
X0256604Y0337034D02*
X0252000Y0337034D01*
X0253535Y0337034D02*
X0253535Y0339335D01*
X0254302Y0340103D01*
X0255837Y0340103D01*
X0256604Y0339335D01*
X0256604Y0337034D01*
X0253535Y0338568D02*
X0252000Y0340103D01*
X0252000Y0341637D02*
X0252767Y0341637D01*
X0255837Y0344707D01*
X0256604Y0344707D01*
X0256604Y0341637D01*
X0274195Y0371535D02*
X0273428Y0372302D01*
X0273428Y0373069D01*
X0274195Y0373836D01*
X0276497Y0373836D01*
X0276497Y0372302D01*
X0275730Y0371535D01*
X0274195Y0371535D01*
X0276497Y0373836D02*
X0274962Y0375371D01*
X0273428Y0376138D01*
X0278032Y0375371D02*
X0278799Y0376138D01*
X0280333Y0376138D01*
X0281101Y0375371D01*
X0281101Y0372302D01*
X0280333Y0371535D01*
X0278799Y0371535D01*
X0278032Y0372302D01*
X0100333Y0278138D02*
X0097931Y0278138D01*
X0099132Y0278138D02*
X0099132Y0274535D01*
X0096649Y0275135D02*
X0096049Y0274535D01*
X0094848Y0274535D01*
X0094247Y0275135D01*
X0094247Y0275736D01*
X0094848Y0276336D01*
X0096049Y0276336D01*
X0096649Y0276937D01*
X0096649Y0277537D01*
X0096049Y0278138D01*
X0094848Y0278138D01*
X0094247Y0277537D01*
X0092966Y0278138D02*
X0090564Y0278138D01*
X0091765Y0278138D02*
X0091765Y0274535D01*
X0089283Y0274535D02*
X0086881Y0274535D01*
X0088082Y0274535D02*
X0088082Y0278138D01*
X0089283Y0276937D01*
X0064600Y0267336D02*
X0062198Y0267336D01*
X0060917Y0267336D02*
X0059716Y0267937D01*
X0059115Y0267937D01*
X0058515Y0267336D01*
X0058515Y0266135D01*
X0059115Y0265535D01*
X0060316Y0265535D01*
X0060917Y0266135D01*
X0060917Y0267336D02*
X0060917Y0269138D01*
X0058515Y0269138D01*
X0057234Y0269138D02*
X0057234Y0266736D01*
X0056033Y0265535D01*
X0054832Y0266736D01*
X0054832Y0269138D01*
X0063399Y0268537D02*
X0063399Y0266135D01*
X0062798Y0258638D02*
X0062198Y0258037D01*
X0062198Y0256836D01*
X0062798Y0256236D01*
X0064600Y0256236D01*
X0063399Y0256236D02*
X0062198Y0255035D01*
X0060917Y0255635D02*
X0060316Y0255035D01*
X0059115Y0255035D01*
X0058515Y0255635D01*
X0058515Y0256236D01*
X0059115Y0256836D01*
X0060316Y0256836D01*
X0060917Y0257437D01*
X0060917Y0258037D01*
X0060316Y0258638D01*
X0059115Y0258638D01*
X0058515Y0258037D01*
X0057234Y0258638D02*
X0054832Y0258638D01*
X0056033Y0258638D02*
X0056033Y0255035D01*
X0062798Y0258638D02*
X0064600Y0258638D01*
X0064600Y0255035D01*
X0064600Y0247638D02*
X0062798Y0247638D01*
X0062198Y0247037D01*
X0062198Y0244635D01*
X0062798Y0244035D01*
X0064600Y0244035D01*
X0064600Y0247638D01*
X0060917Y0247638D02*
X0059716Y0247638D01*
X0060316Y0247638D02*
X0060316Y0244035D01*
X0059716Y0244035D02*
X0060917Y0244035D01*
X0058461Y0244035D02*
X0058461Y0247638D01*
X0056059Y0244035D01*
X0056059Y0247638D01*
X0054778Y0245836D02*
X0052376Y0245836D01*
X0055432Y0236638D02*
X0057234Y0236638D01*
X0057234Y0233035D01*
X0055432Y0233035D01*
X0054832Y0233635D01*
X0054832Y0236037D01*
X0055432Y0236638D01*
X0058515Y0236638D02*
X0058515Y0233035D01*
X0060917Y0236638D01*
X0060917Y0233035D01*
X0062198Y0233635D02*
X0062198Y0234836D01*
X0063399Y0234836D01*
X0064600Y0233635D02*
X0063999Y0233035D01*
X0062798Y0233035D01*
X0062198Y0233635D01*
X0064600Y0233635D02*
X0064600Y0236037D01*
X0063999Y0236638D01*
X0062798Y0236638D01*
X0062198Y0236037D01*
X0086881Y0237535D02*
X0088683Y0239336D01*
X0089283Y0238736D02*
X0086881Y0241138D01*
X0089283Y0241138D02*
X0089283Y0237535D01*
X0090564Y0237535D02*
X0092966Y0237535D01*
X0092966Y0241138D01*
X0094247Y0240537D02*
X0094848Y0241138D01*
X0096049Y0241138D01*
X0096649Y0240537D01*
X0096649Y0238135D01*
X0096049Y0237535D01*
X0094848Y0237535D01*
X0094247Y0238135D01*
X0097931Y0238135D02*
X0098531Y0237535D01*
X0099732Y0237535D01*
X0100333Y0238135D01*
X0099732Y0239336D02*
X0098531Y0239336D01*
X0097931Y0238736D01*
X0097931Y0238135D01*
X0099732Y0239336D02*
X0100333Y0239937D01*
X0100333Y0240537D01*
X0099732Y0241138D01*
X0098531Y0241138D01*
X0097931Y0240537D01*
X0097303Y0251035D02*
X0096703Y0251635D01*
X0096703Y0254037D01*
X0097303Y0254638D01*
X0099105Y0254638D01*
X0099105Y0251035D01*
X0097303Y0251035D01*
X0095422Y0251035D02*
X0094221Y0251035D01*
X0094821Y0251035D02*
X0094821Y0254638D01*
X0094221Y0254638D02*
X0095422Y0254638D01*
X0092966Y0254638D02*
X0090564Y0251035D01*
X0090564Y0254638D01*
X0089283Y0252836D02*
X0086881Y0252836D01*
X0088082Y0254037D02*
X0088082Y0251635D01*
X0092966Y0251035D02*
X0092966Y0254638D01*
X0092966Y0260035D02*
X0092966Y0263638D01*
X0090564Y0260035D01*
X0090564Y0263638D01*
X0089283Y0263037D02*
X0089283Y0260635D01*
X0088683Y0260035D01*
X0087482Y0260035D01*
X0086881Y0260635D01*
X0086881Y0263037D02*
X0087482Y0263638D01*
X0088683Y0263638D01*
X0089283Y0263037D01*
X0094247Y0263037D02*
X0094247Y0263638D01*
X0094247Y0263037D02*
X0095448Y0261836D01*
X0095448Y0260035D01*
X0095448Y0261836D02*
X0096649Y0263037D01*
X0096649Y0263638D01*
X0097931Y0263037D02*
X0098531Y0263638D01*
X0099732Y0263638D01*
X0100333Y0263037D01*
X0100333Y0262437D01*
X0099732Y0261836D01*
X0098531Y0261836D01*
X0097931Y0261236D01*
X0097931Y0260635D01*
X0098531Y0260035D01*
X0099732Y0260035D01*
X0100333Y0260635D01*
X0100333Y0226638D02*
X0097931Y0226638D01*
X0099132Y0226638D02*
X0099132Y0223035D01*
X0096649Y0223635D02*
X0096049Y0223035D01*
X0094848Y0223035D01*
X0094247Y0223635D01*
X0094247Y0224236D01*
X0094848Y0224836D01*
X0096049Y0224836D01*
X0096649Y0225437D01*
X0096649Y0226037D01*
X0096049Y0226638D01*
X0094848Y0226638D01*
X0094247Y0226037D01*
X0092966Y0226638D02*
X0090564Y0226638D01*
X0091765Y0226638D02*
X0091765Y0223035D01*
X0089283Y0223035D02*
X0086881Y0225437D01*
X0086881Y0226037D01*
X0087482Y0226638D01*
X0088683Y0226638D01*
X0089283Y0226037D01*
X0089283Y0223035D02*
X0086881Y0223035D01*
X0255002Y0150813D02*
X0255002Y0147744D01*
X0258072Y0150813D01*
X0258839Y0150813D01*
X0259606Y0150046D01*
X0259606Y0148511D01*
X0258839Y0147744D01*
X0259606Y0144675D02*
X0255002Y0144675D01*
X0255002Y0143140D02*
X0255002Y0146210D01*
X0258072Y0143140D02*
X0259606Y0144675D01*
X0258839Y0141606D02*
X0257304Y0141606D01*
X0256537Y0140838D01*
X0256537Y0138536D01*
X0255002Y0138536D02*
X0259606Y0138536D01*
X0259606Y0140838D01*
X0258839Y0141606D01*
X0256537Y0140071D02*
X0255002Y0141606D01*
X0607637Y0154303D02*
X0608404Y0153535D01*
X0609939Y0153535D01*
X0610706Y0154303D01*
X0612241Y0153535D02*
X0615310Y0153535D01*
X0613775Y0153535D02*
X0613775Y0158139D01*
X0615310Y0156605D01*
X0616845Y0157372D02*
X0617612Y0158139D01*
X0619147Y0158139D01*
X0619914Y0157372D01*
X0619914Y0154303D01*
X0619147Y0153535D01*
X0617612Y0153535D01*
X0616845Y0154303D01*
X0610706Y0157372D02*
X0609939Y0158139D01*
X0608404Y0158139D01*
X0607637Y0157372D01*
X0607637Y0156605D01*
X0608404Y0155837D01*
X0607637Y0155070D01*
X0607637Y0154303D01*
X0608404Y0155837D02*
X0609172Y0155837D01*
X0634501Y0187225D02*
X0639105Y0187225D01*
X0639105Y0189526D01*
X0638337Y0190294D01*
X0636803Y0190294D01*
X0636035Y0189526D01*
X0636035Y0187225D01*
X0636035Y0188759D02*
X0634501Y0190294D01*
X0634501Y0191828D02*
X0634501Y0194898D01*
X0634501Y0193363D02*
X0639105Y0193363D01*
X0637570Y0191828D01*
X0637570Y0196432D02*
X0638337Y0196432D01*
X0639105Y0197200D01*
X0639105Y0198734D01*
X0638337Y0199502D01*
X0637570Y0199502D01*
X0636803Y0198734D01*
X0636803Y0197200D01*
X0637570Y0196432D01*
X0636803Y0197200D02*
X0636035Y0196432D01*
X0635268Y0196432D01*
X0634501Y0197200D01*
X0634501Y0198734D01*
X0635268Y0199502D01*
X0636035Y0199502D01*
X0636803Y0198734D01*
X0660149Y0224535D02*
X0662551Y0224535D01*
X0660149Y0226937D01*
X0660149Y0227537D01*
X0660749Y0228138D01*
X0661950Y0228138D01*
X0662551Y0227537D01*
X0663832Y0228138D02*
X0666234Y0228138D01*
X0665033Y0228138D02*
X0665033Y0224535D01*
X0667515Y0225135D02*
X0668115Y0224535D01*
X0669316Y0224535D01*
X0669917Y0225135D01*
X0669316Y0226336D02*
X0668115Y0226336D01*
X0667515Y0225736D01*
X0667515Y0225135D01*
X0669316Y0226336D02*
X0669917Y0226937D01*
X0669917Y0227537D01*
X0669316Y0228138D01*
X0668115Y0228138D01*
X0667515Y0227537D01*
X0671198Y0228138D02*
X0673600Y0228138D01*
X0672399Y0228138D02*
X0672399Y0224535D01*
X0672298Y0237535D02*
X0673499Y0237535D01*
X0674100Y0238135D01*
X0673499Y0239336D02*
X0672298Y0239336D01*
X0671698Y0238736D01*
X0671698Y0238135D01*
X0672298Y0237535D01*
X0670417Y0238135D02*
X0669816Y0237535D01*
X0668615Y0237535D01*
X0668015Y0238135D01*
X0666734Y0237535D02*
X0664332Y0237535D01*
X0663051Y0237535D02*
X0663051Y0241138D01*
X0662450Y0239336D02*
X0660649Y0237535D01*
X0663051Y0238736D02*
X0660649Y0241138D01*
X0666734Y0241138D02*
X0666734Y0237535D01*
X0668015Y0240537D02*
X0668615Y0241138D01*
X0669816Y0241138D01*
X0670417Y0240537D01*
X0670417Y0238135D01*
X0671698Y0240537D02*
X0672298Y0241138D01*
X0673499Y0241138D01*
X0674100Y0240537D01*
X0674100Y0239937D01*
X0673499Y0239336D01*
X0673600Y0247035D02*
X0671798Y0247035D01*
X0671198Y0247635D01*
X0671198Y0250037D01*
X0671798Y0250638D01*
X0673600Y0250638D01*
X0673600Y0247035D01*
X0669917Y0247035D02*
X0668716Y0247035D01*
X0669316Y0247035D02*
X0669316Y0250638D01*
X0668716Y0250638D02*
X0669917Y0250638D01*
X0667461Y0250638D02*
X0665059Y0247035D01*
X0665059Y0250638D01*
X0663778Y0248836D02*
X0661376Y0248836D01*
X0662577Y0250037D02*
X0662577Y0247635D01*
X0667461Y0247035D02*
X0667461Y0250638D01*
X0666234Y0261035D02*
X0666234Y0264638D01*
X0663832Y0261035D01*
X0663832Y0264638D01*
X0662551Y0264037D02*
X0661950Y0264638D01*
X0660749Y0264638D01*
X0660149Y0264037D01*
X0662551Y0264037D02*
X0662551Y0261635D01*
X0661950Y0261035D01*
X0660749Y0261035D01*
X0660149Y0261635D01*
X0667515Y0264037D02*
X0667515Y0264638D01*
X0667515Y0264037D02*
X0668716Y0262836D01*
X0668716Y0261035D01*
X0668716Y0262836D02*
X0669917Y0264037D01*
X0669917Y0264638D01*
X0671198Y0264037D02*
X0671798Y0264638D01*
X0672999Y0264638D01*
X0673600Y0264037D01*
X0673600Y0263437D01*
X0672999Y0262836D01*
X0671798Y0262836D01*
X0671198Y0262236D01*
X0671198Y0261635D01*
X0671798Y0261035D01*
X0672999Y0261035D01*
X0673600Y0261635D01*
X0672399Y0269535D02*
X0672399Y0273138D01*
X0673600Y0273138D02*
X0671198Y0273138D01*
X0669917Y0272537D02*
X0669917Y0271937D01*
X0669316Y0271336D01*
X0668115Y0271336D01*
X0667515Y0270736D01*
X0667515Y0270135D01*
X0668115Y0269535D01*
X0669316Y0269535D01*
X0669917Y0270135D01*
X0669917Y0272537D02*
X0669316Y0273138D01*
X0668115Y0273138D01*
X0667515Y0272537D01*
X0666234Y0273138D02*
X0663832Y0273138D01*
X0665033Y0273138D02*
X0665033Y0269535D01*
X0662551Y0269535D02*
X0660149Y0269535D01*
X0661350Y0269535D02*
X0661350Y0273138D01*
X0662551Y0271937D01*
X0695881Y0271638D02*
X0695881Y0269236D01*
X0697082Y0268035D01*
X0698283Y0269236D01*
X0698283Y0271638D01*
X0699564Y0271638D02*
X0701966Y0271638D01*
X0701966Y0269836D01*
X0700765Y0270437D01*
X0700165Y0270437D01*
X0699564Y0269836D01*
X0699564Y0268635D01*
X0700165Y0268035D01*
X0701366Y0268035D01*
X0701966Y0268635D01*
X0703247Y0269836D02*
X0705649Y0269836D01*
X0704448Y0271037D02*
X0704448Y0268635D01*
X0703848Y0261138D02*
X0703247Y0260537D01*
X0703247Y0259336D01*
X0703848Y0258736D01*
X0705649Y0258736D01*
X0704448Y0258736D02*
X0703247Y0257535D01*
X0701966Y0258135D02*
X0701366Y0257535D01*
X0700165Y0257535D01*
X0699564Y0258135D01*
X0699564Y0258736D01*
X0700165Y0259336D01*
X0701366Y0259336D01*
X0701966Y0259937D01*
X0701966Y0260537D01*
X0701366Y0261138D01*
X0700165Y0261138D01*
X0699564Y0260537D01*
X0698283Y0261138D02*
X0695881Y0261138D01*
X0697082Y0261138D02*
X0697082Y0257535D01*
X0703848Y0261138D02*
X0705649Y0261138D01*
X0705649Y0257535D01*
X0706303Y0250138D02*
X0708105Y0250138D01*
X0708105Y0246535D01*
X0706303Y0246535D01*
X0705703Y0247135D01*
X0705703Y0249537D01*
X0706303Y0250138D01*
X0704422Y0250138D02*
X0703221Y0250138D01*
X0703821Y0250138D02*
X0703821Y0246535D01*
X0703221Y0246535D02*
X0704422Y0246535D01*
X0701966Y0246535D02*
X0701966Y0250138D01*
X0699564Y0246535D01*
X0699564Y0250138D01*
X0698283Y0248336D02*
X0695881Y0248336D01*
X0696482Y0239138D02*
X0698283Y0239138D01*
X0698283Y0235535D01*
X0696482Y0235535D01*
X0695881Y0236135D01*
X0695881Y0238537D01*
X0696482Y0239138D01*
X0699564Y0239138D02*
X0699564Y0235535D01*
X0701966Y0239138D01*
X0701966Y0235535D01*
X0703247Y0236135D02*
X0703247Y0237336D01*
X0704448Y0237336D01*
X0703247Y0236135D02*
X0703848Y0235535D01*
X0705049Y0235535D01*
X0705649Y0236135D01*
X0705649Y0238537D01*
X0705049Y0239138D01*
X0703848Y0239138D01*
X0703247Y0238537D01*
X0624414Y0249803D02*
X0623647Y0249036D01*
X0622112Y0249036D01*
X0621345Y0249803D01*
X0619810Y0249036D02*
X0616741Y0249036D01*
X0618275Y0249036D02*
X0618275Y0253639D01*
X0619810Y0252105D01*
X0621345Y0252872D02*
X0622112Y0253639D01*
X0623647Y0253639D01*
X0624414Y0252872D01*
X0624414Y0249803D01*
X0615206Y0249803D02*
X0615206Y0249036D01*
X0615206Y0249803D02*
X0612137Y0252872D01*
X0612137Y0253639D01*
X0615206Y0253639D01*
X0634499Y0305533D02*
X0639103Y0305533D01*
X0639103Y0307835D01*
X0638336Y0308602D01*
X0636801Y0308602D01*
X0636034Y0307835D01*
X0636034Y0305533D01*
X0636034Y0307068D02*
X0634499Y0308602D01*
X0634499Y0310137D02*
X0637569Y0313206D01*
X0638336Y0313206D01*
X0639103Y0312439D01*
X0639103Y0310904D01*
X0638336Y0310137D01*
X0634499Y0310137D02*
X0634499Y0313206D01*
X0635267Y0314741D02*
X0638336Y0317810D01*
X0635267Y0317810D01*
X0634499Y0317043D01*
X0634499Y0315508D01*
X0635267Y0314741D01*
X0638336Y0314741D01*
X0639103Y0315508D01*
X0639103Y0317043D01*
X0638336Y0317810D01*
X0619146Y0364035D02*
X0617612Y0364035D01*
X0616844Y0364802D01*
X0615310Y0364035D02*
X0612240Y0367104D01*
X0612240Y0367872D01*
X0613008Y0368639D01*
X0614542Y0368639D01*
X0615310Y0367872D01*
X0616844Y0367872D02*
X0617612Y0368639D01*
X0619146Y0368639D01*
X0619914Y0367872D01*
X0619914Y0364802D01*
X0619146Y0364035D01*
X0615310Y0364035D02*
X0612240Y0364035D01*
X0610706Y0364802D02*
X0609938Y0364035D01*
X0608404Y0364035D01*
X0607636Y0364802D01*
X0607636Y0365570D01*
X0608404Y0366337D01*
X0609171Y0366337D01*
X0608404Y0366337D02*
X0607636Y0367104D01*
X0607636Y0367872D01*
X0608404Y0368639D01*
X0609938Y0368639D01*
X0610706Y0367872D01*
X0627001Y0400034D02*
X0631605Y0400034D01*
X0631605Y0402336D01*
X0630838Y0403103D01*
X0629303Y0403103D01*
X0628536Y0402336D01*
X0628536Y0400034D01*
X0628536Y0401569D02*
X0627001Y0403103D01*
X0627001Y0404638D02*
X0630070Y0407707D01*
X0630838Y0407707D01*
X0631605Y0406940D01*
X0631605Y0405405D01*
X0630838Y0404638D01*
X0627001Y0404638D02*
X0627001Y0407707D01*
X0627001Y0409242D02*
X0630070Y0412311D01*
X0630838Y0412311D01*
X0631605Y0411544D01*
X0631605Y0410009D01*
X0630838Y0409242D01*
X0627001Y0409242D02*
X0627001Y0412311D01*
D11*
X0086040Y0078089D02*
X0086040Y0073185D01*
X0089309Y0078089D01*
X0089309Y0073185D01*
X0091112Y0073185D02*
X0092747Y0073185D01*
X0091930Y0073185D02*
X0091930Y0078089D01*
X0092747Y0078089D02*
X0091112Y0078089D01*
X0094550Y0081585D02*
X0094550Y0084037D01*
X0092915Y0085672D01*
X0092915Y0086489D01*
X0094550Y0084037D02*
X0096185Y0085672D01*
X0096185Y0086489D01*
X0098072Y0085672D02*
X0098889Y0086489D01*
X0100524Y0086489D01*
X0101341Y0085672D01*
X0101341Y0084854D01*
X0100524Y0084037D01*
X0098889Y0084037D01*
X0098072Y0083219D01*
X0098072Y0082402D01*
X0098889Y0081585D01*
X0100524Y0081585D01*
X0101341Y0082402D01*
X0103144Y0081585D02*
X0104779Y0081585D01*
X0103961Y0081585D02*
X0103961Y0086489D01*
X0103144Y0086489D02*
X0104779Y0086489D01*
X0106666Y0084854D02*
X0108300Y0086489D01*
X0109935Y0084854D01*
X0109935Y0081585D01*
X0111822Y0082402D02*
X0111822Y0085672D01*
X0112639Y0086489D01*
X0115091Y0086489D01*
X0115091Y0081585D01*
X0112639Y0081585D01*
X0111822Y0082402D01*
X0109935Y0084037D02*
X0106666Y0084037D01*
X0106666Y0084854D02*
X0106666Y0081585D01*
X0085872Y0082402D02*
X0085054Y0081585D01*
X0083420Y0081585D01*
X0082602Y0082402D01*
X0080715Y0081585D02*
X0080715Y0086489D01*
X0082602Y0085672D02*
X0083420Y0086489D01*
X0085054Y0086489D01*
X0085872Y0085672D01*
X0085872Y0082402D01*
X0080715Y0084037D02*
X0077446Y0084037D01*
X0075559Y0084037D02*
X0072290Y0084037D01*
X0072290Y0084854D02*
X0072290Y0081585D01*
X0070403Y0081585D02*
X0068768Y0081585D01*
X0069585Y0081585D02*
X0069585Y0086489D01*
X0068768Y0086489D02*
X0070403Y0086489D01*
X0072290Y0084854D02*
X0073924Y0086489D01*
X0075559Y0084854D01*
X0075559Y0081585D01*
X0077446Y0081585D02*
X0077446Y0086489D01*
X0066965Y0086489D02*
X0066965Y0081585D01*
X0063696Y0081585D02*
X0063696Y0086489D01*
X0066965Y0086489D02*
X0063696Y0081585D01*
X0344759Y0094885D02*
X0348028Y0094885D01*
X0346393Y0094885D02*
X0346393Y0099789D01*
X0348028Y0098154D01*
X0355759Y0098154D02*
X0355759Y0098972D01*
X0356576Y0099789D01*
X0358211Y0099789D01*
X0359028Y0098972D01*
X0355759Y0098154D02*
X0359028Y0094885D01*
X0355759Y0094885D01*
X0366759Y0095702D02*
X0367576Y0094885D01*
X0369211Y0094885D01*
X0370028Y0095702D01*
X0368393Y0097337D02*
X0367576Y0097337D01*
X0366759Y0096519D01*
X0366759Y0095702D01*
X0367576Y0097337D02*
X0366759Y0098154D01*
X0366759Y0098972D01*
X0367576Y0099789D01*
X0369211Y0099789D01*
X0370028Y0098972D01*
X0377759Y0097337D02*
X0381028Y0097337D01*
X0378576Y0099789D01*
X0378576Y0094885D01*
X0388259Y0095702D02*
X0388259Y0097337D01*
X0389076Y0098154D01*
X0389893Y0098154D01*
X0391528Y0097337D01*
X0391528Y0099789D01*
X0388259Y0099789D01*
X0388259Y0095702D02*
X0389076Y0094885D01*
X0390711Y0094885D01*
X0391528Y0095702D01*
X0399259Y0095702D02*
X0399259Y0096519D01*
X0400076Y0097337D01*
X0402528Y0097337D01*
X0402528Y0095702D01*
X0401711Y0094885D01*
X0400076Y0094885D01*
X0399259Y0095702D01*
X0400893Y0098972D02*
X0402528Y0097337D01*
X0400893Y0098972D02*
X0399259Y0099789D01*
X0409759Y0099289D02*
X0409759Y0098472D01*
X0413028Y0095202D01*
X0413028Y0094385D01*
X0413028Y0099289D02*
X0409759Y0099289D01*
X0420759Y0098972D02*
X0420759Y0098154D01*
X0421576Y0097337D01*
X0423211Y0097337D01*
X0424028Y0098154D01*
X0424028Y0098972D01*
X0423211Y0099789D01*
X0421576Y0099789D01*
X0420759Y0098972D01*
X0421576Y0097337D02*
X0420759Y0096519D01*
X0420759Y0095702D01*
X0421576Y0094885D01*
X0423211Y0094885D01*
X0424028Y0095702D01*
X0424028Y0096519D01*
X0423211Y0097337D01*
X0431759Y0097337D02*
X0434211Y0097337D01*
X0435028Y0098154D01*
X0435028Y0098972D01*
X0434211Y0099789D01*
X0432576Y0099789D01*
X0431759Y0098972D01*
X0431759Y0095702D01*
X0432576Y0094885D01*
X0434211Y0094885D01*
X0435028Y0095702D01*
X0442350Y0095663D02*
X0447254Y0095663D01*
X0445619Y0094028D01*
X0442350Y0094028D02*
X0442350Y0097298D01*
X0443167Y0099185D02*
X0446437Y0102454D01*
X0443167Y0102454D01*
X0442350Y0101637D01*
X0442350Y0100002D01*
X0443167Y0099185D01*
X0446437Y0099185D01*
X0447254Y0100002D01*
X0447254Y0101637D01*
X0446437Y0102454D01*
X0453350Y0102454D02*
X0453350Y0099185D01*
X0453350Y0100819D02*
X0458254Y0100819D01*
X0456619Y0099185D01*
X0453350Y0097298D02*
X0453350Y0094028D01*
X0453350Y0095663D02*
X0458254Y0095663D01*
X0456619Y0094028D01*
X0463850Y0094028D02*
X0463850Y0097298D01*
X0463850Y0095663D02*
X0468754Y0095663D01*
X0467119Y0094028D01*
X0467937Y0099185D02*
X0468754Y0100002D01*
X0468754Y0101637D01*
X0467937Y0102454D01*
X0467119Y0102454D01*
X0463850Y0099185D01*
X0463850Y0102454D01*
X0474850Y0101637D02*
X0474850Y0100002D01*
X0475667Y0099185D01*
X0474850Y0097298D02*
X0474850Y0094028D01*
X0474850Y0095663D02*
X0479754Y0095663D01*
X0478119Y0094028D01*
X0478937Y0099185D02*
X0479754Y0100002D01*
X0479754Y0101637D01*
X0478937Y0102454D01*
X0478119Y0102454D01*
X0477302Y0101637D01*
X0476485Y0102454D01*
X0475667Y0102454D01*
X0474850Y0101637D01*
X0477302Y0101637D02*
X0477302Y0100819D01*
X0485350Y0101637D02*
X0490254Y0101637D01*
X0487802Y0099185D01*
X0487802Y0102454D01*
X0485350Y0097298D02*
X0485350Y0094028D01*
X0485350Y0095663D02*
X0490254Y0095663D01*
X0488619Y0094028D01*
X0496350Y0094028D02*
X0496350Y0097298D01*
X0496350Y0095663D02*
X0501254Y0095663D01*
X0499619Y0094028D01*
X0498802Y0099185D02*
X0499619Y0100819D01*
X0499619Y0101637D01*
X0498802Y0102454D01*
X0497167Y0102454D01*
X0496350Y0101637D01*
X0496350Y0100002D01*
X0497167Y0099185D01*
X0498802Y0099185D02*
X0501254Y0099185D01*
X0501254Y0102454D01*
X0507350Y0101637D02*
X0508167Y0102454D01*
X0508985Y0102454D01*
X0509802Y0101637D01*
X0509802Y0099185D01*
X0508167Y0099185D01*
X0507350Y0100002D01*
X0507350Y0101637D01*
X0509802Y0099185D02*
X0511437Y0100819D01*
X0512254Y0102454D01*
X0517850Y0099185D02*
X0518667Y0099185D01*
X0521937Y0102454D01*
X0522754Y0102454D01*
X0522754Y0099185D01*
X0522754Y0095663D02*
X0517850Y0095663D01*
X0517850Y0094028D02*
X0517850Y0097298D01*
X0521119Y0094028D02*
X0522754Y0095663D01*
X0528850Y0095663D02*
X0533754Y0095663D01*
X0532119Y0094028D01*
X0528850Y0094028D02*
X0528850Y0097298D01*
X0529667Y0099185D02*
X0530485Y0099185D01*
X0531302Y0100002D01*
X0531302Y0101637D01*
X0530485Y0102454D01*
X0529667Y0102454D01*
X0528850Y0101637D01*
X0528850Y0100002D01*
X0529667Y0099185D01*
X0531302Y0100002D02*
X0532119Y0099185D01*
X0532937Y0099185D01*
X0533754Y0100002D01*
X0533754Y0101637D01*
X0532937Y0102454D01*
X0532119Y0102454D01*
X0531302Y0101637D01*
X0540350Y0101637D02*
X0541167Y0102454D01*
X0544437Y0102454D01*
X0545254Y0101637D01*
X0545254Y0100002D01*
X0544437Y0099185D01*
X0543619Y0099185D01*
X0542802Y0100002D01*
X0542802Y0102454D01*
X0540350Y0101637D02*
X0540350Y0100002D01*
X0541167Y0099185D01*
X0540350Y0097298D02*
X0540350Y0094028D01*
X0540350Y0095663D02*
X0545254Y0095663D01*
X0543619Y0094028D01*
X0512254Y0095663D02*
X0507350Y0095663D01*
X0507350Y0094028D02*
X0507350Y0097298D01*
X0510619Y0094028D02*
X0512254Y0095663D01*
X0513167Y0073454D02*
X0512350Y0072637D01*
X0512350Y0071002D01*
X0513167Y0070185D01*
X0514802Y0070185D02*
X0515619Y0071819D01*
X0515619Y0072637D01*
X0514802Y0073454D01*
X0513167Y0073454D01*
X0514802Y0070185D02*
X0517254Y0070185D01*
X0517254Y0073454D01*
X0516437Y0068298D02*
X0515619Y0068298D01*
X0514802Y0067480D01*
X0513985Y0068298D01*
X0513167Y0068298D01*
X0512350Y0067480D01*
X0512350Y0065846D01*
X0513167Y0065028D01*
X0514802Y0066663D02*
X0514802Y0067480D01*
X0516437Y0068298D02*
X0517254Y0067480D01*
X0517254Y0065846D01*
X0516437Y0065028D01*
X0524350Y0065846D02*
X0525167Y0065028D01*
X0524350Y0065846D02*
X0524350Y0067480D01*
X0525167Y0068298D01*
X0525985Y0068298D01*
X0526802Y0067480D01*
X0526802Y0066663D01*
X0526802Y0067480D02*
X0527619Y0068298D01*
X0528437Y0068298D01*
X0529254Y0067480D01*
X0529254Y0065846D01*
X0528437Y0065028D01*
X0526802Y0070185D02*
X0526802Y0072637D01*
X0525985Y0073454D01*
X0525167Y0073454D01*
X0524350Y0072637D01*
X0524350Y0071002D01*
X0525167Y0070185D01*
X0526802Y0070185D01*
X0528437Y0071819D01*
X0529254Y0073454D01*
X0533850Y0070185D02*
X0534667Y0070185D01*
X0537937Y0073454D01*
X0538754Y0073454D01*
X0538754Y0070185D01*
X0537937Y0068298D02*
X0537119Y0068298D01*
X0536302Y0067480D01*
X0535485Y0068298D01*
X0534667Y0068298D01*
X0533850Y0067480D01*
X0533850Y0065846D01*
X0534667Y0065028D01*
X0536302Y0066663D02*
X0536302Y0067480D01*
X0537937Y0068298D02*
X0538754Y0067480D01*
X0538754Y0065846D01*
X0537937Y0065028D01*
X0506254Y0065846D02*
X0506254Y0067480D01*
X0505437Y0068298D01*
X0504619Y0068298D01*
X0503802Y0067480D01*
X0502985Y0068298D01*
X0502167Y0068298D01*
X0501350Y0067480D01*
X0501350Y0065846D01*
X0502167Y0065028D01*
X0503802Y0066663D02*
X0503802Y0067480D01*
X0503802Y0070185D02*
X0503802Y0073454D01*
X0501350Y0072637D02*
X0506254Y0072637D01*
X0503802Y0070185D01*
X0506254Y0065846D02*
X0505437Y0065028D01*
X0495754Y0065846D02*
X0495754Y0067480D01*
X0494937Y0068298D01*
X0494119Y0068298D01*
X0493302Y0067480D01*
X0492485Y0068298D01*
X0491667Y0068298D01*
X0490850Y0067480D01*
X0490850Y0065846D01*
X0491667Y0065028D01*
X0493302Y0066663D02*
X0493302Y0067480D01*
X0495754Y0065846D02*
X0494937Y0065028D01*
X0494937Y0070185D02*
X0495754Y0071002D01*
X0495754Y0072637D01*
X0494937Y0073454D01*
X0494119Y0073454D01*
X0493302Y0072637D01*
X0492485Y0073454D01*
X0491667Y0073454D01*
X0490850Y0072637D01*
X0490850Y0071002D01*
X0491667Y0070185D01*
X0493302Y0071819D02*
X0493302Y0072637D01*
X0474754Y0071819D02*
X0469850Y0071819D01*
X0469850Y0070185D02*
X0469850Y0073454D01*
X0473119Y0070185D02*
X0474754Y0071819D01*
X0473937Y0068298D02*
X0473119Y0068298D01*
X0472302Y0067480D01*
X0471485Y0068298D01*
X0470667Y0068298D01*
X0469850Y0067480D01*
X0469850Y0065846D01*
X0470667Y0065028D01*
X0472302Y0066663D02*
X0472302Y0067480D01*
X0473937Y0068298D02*
X0474754Y0067480D01*
X0474754Y0065846D01*
X0473937Y0065028D01*
X0463254Y0065846D02*
X0463254Y0067480D01*
X0462437Y0068298D01*
X0461619Y0068298D01*
X0460802Y0067480D01*
X0459985Y0068298D01*
X0459167Y0068298D01*
X0458350Y0067480D01*
X0458350Y0065846D01*
X0459167Y0065028D01*
X0460802Y0066663D02*
X0460802Y0067480D01*
X0463254Y0065846D02*
X0462437Y0065028D01*
X0462437Y0070185D02*
X0463254Y0071002D01*
X0463254Y0072637D01*
X0462437Y0073454D01*
X0459167Y0070185D01*
X0458350Y0071002D01*
X0458350Y0072637D01*
X0459167Y0073454D01*
X0462437Y0073454D01*
X0462437Y0070185D02*
X0459167Y0070185D01*
X0452254Y0071002D02*
X0451437Y0070185D01*
X0450619Y0070185D01*
X0449802Y0071002D01*
X0449802Y0073454D01*
X0448167Y0073454D02*
X0451437Y0073454D01*
X0452254Y0072637D01*
X0452254Y0071002D01*
X0451437Y0068298D02*
X0452254Y0067480D01*
X0452254Y0065846D01*
X0451437Y0065028D01*
X0451437Y0068298D02*
X0450619Y0068298D01*
X0447350Y0065028D01*
X0447350Y0068298D01*
X0448167Y0070185D02*
X0447350Y0071002D01*
X0447350Y0072637D01*
X0448167Y0073454D01*
X0441754Y0073137D02*
X0440937Y0073954D01*
X0440119Y0073954D01*
X0439302Y0073137D01*
X0439302Y0071502D01*
X0440119Y0070685D01*
X0440937Y0070685D01*
X0441754Y0071502D01*
X0441754Y0073137D01*
X0439302Y0073137D02*
X0438485Y0073954D01*
X0437667Y0073954D01*
X0436850Y0073137D01*
X0436850Y0071502D01*
X0437667Y0070685D01*
X0438485Y0070685D01*
X0439302Y0071502D01*
X0440119Y0068798D02*
X0436850Y0065528D01*
X0436850Y0068798D01*
X0440119Y0068798D02*
X0440937Y0068798D01*
X0441754Y0067980D01*
X0441754Y0066346D01*
X0440937Y0065528D01*
X0440181Y0060289D02*
X0443450Y0060289D01*
X0443450Y0055385D01*
X0440181Y0055385D01*
X0438294Y0055385D02*
X0438294Y0060289D01*
X0435024Y0060289D01*
X0433137Y0059472D02*
X0433137Y0056202D01*
X0432320Y0055385D01*
X0430685Y0055385D01*
X0429868Y0056202D01*
X0429868Y0057837D01*
X0431503Y0057837D01*
X0433137Y0059472D02*
X0432320Y0060289D01*
X0430685Y0060289D01*
X0429868Y0059472D01*
X0429437Y0065528D02*
X0430254Y0066346D01*
X0430254Y0067980D01*
X0429437Y0068798D01*
X0428619Y0068798D01*
X0425350Y0065528D01*
X0425350Y0068798D01*
X0425350Y0070685D02*
X0426167Y0070685D01*
X0429437Y0073954D01*
X0430254Y0073954D01*
X0430254Y0070685D01*
X0419754Y0067980D02*
X0419754Y0066346D01*
X0418937Y0065528D01*
X0419754Y0067980D02*
X0418937Y0068798D01*
X0418119Y0068798D01*
X0414850Y0065528D01*
X0414850Y0068798D01*
X0415667Y0070685D02*
X0414850Y0071502D01*
X0414850Y0073137D01*
X0415667Y0073954D01*
X0416485Y0073954D01*
X0417302Y0073137D01*
X0417302Y0070685D01*
X0415667Y0070685D01*
X0417302Y0070685D02*
X0418937Y0072319D01*
X0419754Y0073954D01*
X0408754Y0073954D02*
X0408754Y0070685D01*
X0406302Y0070685D01*
X0407119Y0072319D01*
X0407119Y0073137D01*
X0406302Y0073954D01*
X0404667Y0073954D01*
X0403850Y0073137D01*
X0403850Y0071502D01*
X0404667Y0070685D01*
X0403850Y0068798D02*
X0403850Y0065528D01*
X0407119Y0068798D01*
X0407937Y0068798D01*
X0408754Y0067980D01*
X0408754Y0066346D01*
X0407937Y0065528D01*
X0397754Y0066346D02*
X0396937Y0065528D01*
X0397754Y0066346D02*
X0397754Y0067980D01*
X0396937Y0068798D01*
X0396119Y0068798D01*
X0392850Y0065528D01*
X0392850Y0068798D01*
X0395302Y0070685D02*
X0395302Y0073954D01*
X0392850Y0073137D02*
X0397754Y0073137D01*
X0395302Y0070685D01*
X0386754Y0071502D02*
X0386754Y0073137D01*
X0385937Y0073954D01*
X0385119Y0073954D01*
X0384302Y0073137D01*
X0383485Y0073954D01*
X0382667Y0073954D01*
X0381850Y0073137D01*
X0381850Y0071502D01*
X0382667Y0070685D01*
X0381850Y0068798D02*
X0381850Y0065528D01*
X0385119Y0068798D01*
X0385937Y0068798D01*
X0386754Y0067980D01*
X0386754Y0066346D01*
X0385937Y0065528D01*
X0385937Y0070685D02*
X0386754Y0071502D01*
X0384302Y0072319D02*
X0384302Y0073137D01*
X0376254Y0073137D02*
X0376254Y0071502D01*
X0375437Y0070685D01*
X0375437Y0068798D02*
X0376254Y0067980D01*
X0376254Y0066346D01*
X0375437Y0065528D01*
X0375437Y0068798D02*
X0374619Y0068798D01*
X0371350Y0065528D01*
X0371350Y0068798D01*
X0371350Y0070685D02*
X0374619Y0073954D01*
X0375437Y0073954D01*
X0376254Y0073137D01*
X0371350Y0073954D02*
X0371350Y0070685D01*
X0365754Y0072319D02*
X0360850Y0072319D01*
X0360850Y0070685D02*
X0360850Y0073954D01*
X0364119Y0070685D02*
X0365754Y0072319D01*
X0364937Y0068798D02*
X0365754Y0067980D01*
X0365754Y0066346D01*
X0364937Y0065528D01*
X0364937Y0068798D02*
X0364119Y0068798D01*
X0360850Y0065528D01*
X0360850Y0068798D01*
X0354254Y0067980D02*
X0354254Y0066346D01*
X0353437Y0065528D01*
X0354254Y0067980D02*
X0353437Y0068798D01*
X0352619Y0068798D01*
X0349350Y0065528D01*
X0349350Y0068798D01*
X0350167Y0070685D02*
X0353437Y0073954D01*
X0350167Y0073954D01*
X0349350Y0073137D01*
X0349350Y0071502D01*
X0350167Y0070685D01*
X0353437Y0070685D01*
X0354254Y0071502D01*
X0354254Y0073137D01*
X0353437Y0073954D01*
X0435024Y0055385D02*
X0438294Y0055385D01*
X0438294Y0057837D02*
X0436659Y0057837D01*
X0441815Y0057837D02*
X0443450Y0057837D01*
X0450493Y0059472D02*
X0451311Y0060289D01*
X0452945Y0060289D01*
X0453763Y0059472D01*
X0453763Y0056202D01*
X0452945Y0055385D01*
X0451311Y0055385D01*
X0450493Y0056202D01*
X0450493Y0059472D01*
X0455650Y0060289D02*
X0458919Y0060289D01*
X0457284Y0060289D02*
X0457284Y0055385D01*
X0677737Y0279185D02*
X0677737Y0284089D01*
X0679372Y0284089D02*
X0676102Y0284089D01*
X0676794Y0287585D02*
X0676794Y0292489D01*
X0678681Y0291672D02*
X0679498Y0292489D01*
X0681133Y0292489D01*
X0681950Y0291672D01*
X0681950Y0288402D01*
X0681133Y0287585D01*
X0679498Y0287585D01*
X0678681Y0288402D01*
X0676794Y0290037D02*
X0673524Y0290037D01*
X0671637Y0290037D02*
X0668368Y0290037D01*
X0668368Y0290854D02*
X0668368Y0287585D01*
X0666481Y0287585D02*
X0664846Y0287585D01*
X0665663Y0287585D02*
X0665663Y0292489D01*
X0664846Y0292489D02*
X0666481Y0292489D01*
X0668368Y0290854D02*
X0670003Y0292489D01*
X0671637Y0290854D01*
X0671637Y0287585D01*
X0673524Y0287585D02*
X0673524Y0292489D01*
X0663043Y0292489D02*
X0659774Y0287585D01*
X0659774Y0292489D01*
X0663043Y0292489D02*
X0663043Y0287585D01*
X0681259Y0284089D02*
X0681259Y0280002D01*
X0682076Y0279185D01*
X0683711Y0279185D01*
X0684528Y0280002D01*
X0684528Y0284089D01*
X0686415Y0283272D02*
X0686415Y0280002D01*
X0687233Y0279185D01*
X0688867Y0279185D01*
X0689685Y0280002D01*
X0689685Y0283272D01*
X0688867Y0284089D01*
X0687233Y0284089D01*
X0686415Y0283272D01*
X0690628Y0287585D02*
X0690628Y0290037D01*
X0688993Y0291672D01*
X0688993Y0292489D01*
X0690628Y0290037D02*
X0692263Y0291672D01*
X0692263Y0292489D01*
X0694150Y0291672D02*
X0694967Y0292489D01*
X0696602Y0292489D01*
X0697419Y0291672D01*
X0697419Y0290854D01*
X0696602Y0290037D01*
X0694967Y0290037D01*
X0694150Y0289219D01*
X0694150Y0288402D01*
X0694967Y0287585D01*
X0696602Y0287585D01*
X0697419Y0288402D01*
X0699222Y0287585D02*
X0700857Y0287585D01*
X0700039Y0287585D02*
X0700039Y0292489D01*
X0699222Y0292489D02*
X0700857Y0292489D01*
X0702744Y0290854D02*
X0702744Y0287585D01*
X0702744Y0290037D02*
X0706013Y0290037D01*
X0706013Y0290854D02*
X0704379Y0292489D01*
X0702744Y0290854D01*
X0706013Y0290854D02*
X0706013Y0287585D01*
X0707900Y0288402D02*
X0707900Y0291672D01*
X0708718Y0292489D01*
X0711170Y0292489D01*
X0711170Y0287585D01*
X0708718Y0287585D01*
X0707900Y0288402D01*
X0544754Y0387663D02*
X0539850Y0387663D01*
X0539850Y0386028D02*
X0539850Y0389298D01*
X0540667Y0391185D02*
X0539850Y0392002D01*
X0539850Y0393637D01*
X0540667Y0394454D01*
X0543937Y0394454D01*
X0544754Y0393637D01*
X0544754Y0392002D01*
X0543937Y0391185D01*
X0543119Y0391185D01*
X0542302Y0392002D01*
X0542302Y0394454D01*
X0533254Y0393637D02*
X0533254Y0392002D01*
X0532437Y0391185D01*
X0531619Y0391185D01*
X0530802Y0392002D01*
X0530802Y0393637D01*
X0529985Y0394454D01*
X0529167Y0394454D01*
X0528350Y0393637D01*
X0528350Y0392002D01*
X0529167Y0391185D01*
X0529985Y0391185D01*
X0530802Y0392002D01*
X0530802Y0393637D02*
X0531619Y0394454D01*
X0532437Y0394454D01*
X0533254Y0393637D01*
X0528350Y0389298D02*
X0528350Y0386028D01*
X0528350Y0387663D02*
X0533254Y0387663D01*
X0531619Y0386028D01*
X0522254Y0387663D02*
X0517350Y0387663D01*
X0517350Y0386028D02*
X0517350Y0389298D01*
X0517350Y0391185D02*
X0518167Y0391185D01*
X0521437Y0394454D01*
X0522254Y0394454D01*
X0522254Y0391185D01*
X0522254Y0387663D02*
X0520619Y0386028D01*
X0511754Y0387663D02*
X0506850Y0387663D01*
X0506850Y0386028D02*
X0506850Y0389298D01*
X0507667Y0391185D02*
X0506850Y0392002D01*
X0506850Y0393637D01*
X0507667Y0394454D01*
X0508485Y0394454D01*
X0509302Y0393637D01*
X0509302Y0391185D01*
X0507667Y0391185D01*
X0509302Y0391185D02*
X0510937Y0392819D01*
X0511754Y0394454D01*
X0511754Y0387663D02*
X0510119Y0386028D01*
X0500754Y0387663D02*
X0495850Y0387663D01*
X0495850Y0386028D02*
X0495850Y0389298D01*
X0496667Y0391185D02*
X0495850Y0392002D01*
X0495850Y0393637D01*
X0496667Y0394454D01*
X0498302Y0394454D01*
X0499119Y0393637D01*
X0499119Y0392819D01*
X0498302Y0391185D01*
X0500754Y0391185D01*
X0500754Y0394454D01*
X0489754Y0393637D02*
X0487302Y0391185D01*
X0487302Y0394454D01*
X0484850Y0393637D02*
X0489754Y0393637D01*
X0484850Y0389298D02*
X0484850Y0386028D01*
X0484850Y0387663D02*
X0489754Y0387663D01*
X0488119Y0386028D01*
X0479254Y0387663D02*
X0474350Y0387663D01*
X0474350Y0386028D02*
X0474350Y0389298D01*
X0475167Y0391185D02*
X0474350Y0392002D01*
X0474350Y0393637D01*
X0475167Y0394454D01*
X0475985Y0394454D01*
X0476802Y0393637D01*
X0476802Y0392819D01*
X0476802Y0393637D02*
X0477619Y0394454D01*
X0478437Y0394454D01*
X0479254Y0393637D01*
X0479254Y0392002D01*
X0478437Y0391185D01*
X0479254Y0387663D02*
X0477619Y0386028D01*
X0468254Y0387663D02*
X0463350Y0387663D01*
X0463350Y0386028D02*
X0463350Y0389298D01*
X0463350Y0391185D02*
X0466619Y0394454D01*
X0467437Y0394454D01*
X0468254Y0393637D01*
X0468254Y0392002D01*
X0467437Y0391185D01*
X0468254Y0387663D02*
X0466619Y0386028D01*
X0463350Y0391185D02*
X0463350Y0394454D01*
X0457754Y0392819D02*
X0452850Y0392819D01*
X0452850Y0391185D02*
X0452850Y0394454D01*
X0456119Y0391185D02*
X0457754Y0392819D01*
X0457754Y0387663D02*
X0452850Y0387663D01*
X0452850Y0386028D02*
X0452850Y0389298D01*
X0456119Y0386028D02*
X0457754Y0387663D01*
X0446754Y0387663D02*
X0441850Y0387663D01*
X0441850Y0386028D02*
X0441850Y0389298D01*
X0442667Y0391185D02*
X0445937Y0394454D01*
X0442667Y0394454D01*
X0441850Y0393637D01*
X0441850Y0392002D01*
X0442667Y0391185D01*
X0445937Y0391185D01*
X0446754Y0392002D01*
X0446754Y0393637D01*
X0445937Y0394454D01*
X0434528Y0390972D02*
X0434528Y0390154D01*
X0433711Y0389337D01*
X0431259Y0389337D01*
X0431259Y0390972D02*
X0432076Y0391789D01*
X0433711Y0391789D01*
X0434528Y0390972D01*
X0431259Y0390972D02*
X0431259Y0387702D01*
X0432076Y0386885D01*
X0433711Y0386885D01*
X0434528Y0387702D01*
X0445119Y0386028D02*
X0446754Y0387663D01*
X0423528Y0387702D02*
X0423528Y0388519D01*
X0422711Y0389337D01*
X0421076Y0389337D01*
X0420259Y0388519D01*
X0420259Y0387702D01*
X0421076Y0386885D01*
X0422711Y0386885D01*
X0423528Y0387702D01*
X0422711Y0389337D02*
X0423528Y0390154D01*
X0423528Y0390972D01*
X0422711Y0391789D01*
X0421076Y0391789D01*
X0420259Y0390972D01*
X0420259Y0390154D01*
X0421076Y0389337D01*
X0412528Y0391289D02*
X0409259Y0391289D01*
X0409259Y0390472D01*
X0412528Y0387202D01*
X0412528Y0386385D01*
X0402028Y0387702D02*
X0402028Y0389337D01*
X0399576Y0389337D01*
X0398759Y0388519D01*
X0398759Y0387702D01*
X0399576Y0386885D01*
X0401211Y0386885D01*
X0402028Y0387702D01*
X0402028Y0389337D02*
X0400393Y0390972D01*
X0398759Y0391789D01*
X0391028Y0391789D02*
X0391028Y0389337D01*
X0389393Y0390154D01*
X0388576Y0390154D01*
X0387759Y0389337D01*
X0387759Y0387702D01*
X0388576Y0386885D01*
X0390211Y0386885D01*
X0391028Y0387702D01*
X0391028Y0391789D02*
X0387759Y0391789D01*
X0380528Y0389337D02*
X0377259Y0389337D01*
X0378076Y0391789D02*
X0380528Y0389337D01*
X0378076Y0386885D02*
X0378076Y0391789D01*
X0369528Y0390972D02*
X0368711Y0391789D01*
X0367076Y0391789D01*
X0366259Y0390972D01*
X0366259Y0390154D01*
X0367076Y0389337D01*
X0366259Y0388519D01*
X0366259Y0387702D01*
X0367076Y0386885D01*
X0368711Y0386885D01*
X0369528Y0387702D01*
X0367893Y0389337D02*
X0367076Y0389337D01*
X0358528Y0390972D02*
X0357711Y0391789D01*
X0356076Y0391789D01*
X0355259Y0390972D01*
X0355259Y0390154D01*
X0358528Y0386885D01*
X0355259Y0386885D01*
X0347528Y0386885D02*
X0344259Y0386885D01*
X0345893Y0386885D02*
X0345893Y0391789D01*
X0347528Y0390154D01*
X0349850Y0413528D02*
X0353119Y0416798D01*
X0353937Y0416798D01*
X0354754Y0415980D01*
X0354754Y0414346D01*
X0353937Y0413528D01*
X0349850Y0413528D02*
X0349850Y0416798D01*
X0350667Y0418685D02*
X0353937Y0421954D01*
X0350667Y0421954D01*
X0349850Y0421137D01*
X0349850Y0419502D01*
X0350667Y0418685D01*
X0353937Y0418685D01*
X0354754Y0419502D01*
X0354754Y0421137D01*
X0353937Y0421954D01*
X0361350Y0421954D02*
X0361350Y0418685D01*
X0361350Y0420319D02*
X0366254Y0420319D01*
X0364619Y0418685D01*
X0364619Y0416798D02*
X0365437Y0416798D01*
X0366254Y0415980D01*
X0366254Y0414346D01*
X0365437Y0413528D01*
X0364619Y0416798D02*
X0361350Y0413528D01*
X0361350Y0416798D01*
X0371850Y0416798D02*
X0371850Y0413528D01*
X0375119Y0416798D01*
X0375937Y0416798D01*
X0376754Y0415980D01*
X0376754Y0414346D01*
X0375937Y0413528D01*
X0375937Y0418685D02*
X0376754Y0419502D01*
X0376754Y0421137D01*
X0375937Y0421954D01*
X0375119Y0421954D01*
X0371850Y0418685D01*
X0371850Y0421954D01*
X0382350Y0421137D02*
X0382350Y0419502D01*
X0383167Y0418685D01*
X0382350Y0416798D02*
X0382350Y0413528D01*
X0385619Y0416798D01*
X0386437Y0416798D01*
X0387254Y0415980D01*
X0387254Y0414346D01*
X0386437Y0413528D01*
X0386437Y0418685D02*
X0387254Y0419502D01*
X0387254Y0421137D01*
X0386437Y0421954D01*
X0385619Y0421954D01*
X0384802Y0421137D01*
X0383985Y0421954D01*
X0383167Y0421954D01*
X0382350Y0421137D01*
X0384802Y0421137D02*
X0384802Y0420319D01*
X0393350Y0421137D02*
X0398254Y0421137D01*
X0395802Y0418685D01*
X0395802Y0421954D01*
X0396619Y0416798D02*
X0397437Y0416798D01*
X0398254Y0415980D01*
X0398254Y0414346D01*
X0397437Y0413528D01*
X0396619Y0416798D02*
X0393350Y0413528D01*
X0393350Y0416798D01*
X0404350Y0416798D02*
X0404350Y0413528D01*
X0407619Y0416798D01*
X0408437Y0416798D01*
X0409254Y0415980D01*
X0409254Y0414346D01*
X0408437Y0413528D01*
X0409254Y0418685D02*
X0406802Y0418685D01*
X0407619Y0420319D01*
X0407619Y0421137D01*
X0406802Y0421954D01*
X0405167Y0421954D01*
X0404350Y0421137D01*
X0404350Y0419502D01*
X0405167Y0418685D01*
X0409254Y0418685D02*
X0409254Y0421954D01*
X0410638Y0426885D02*
X0412273Y0426885D01*
X0413090Y0427702D01*
X0412273Y0429337D02*
X0410638Y0429337D01*
X0409820Y0428519D01*
X0409820Y0427702D01*
X0410638Y0426885D01*
X0412273Y0429337D02*
X0413090Y0430154D01*
X0413090Y0430972D01*
X0412273Y0431789D01*
X0410638Y0431789D01*
X0409820Y0430972D01*
X0414977Y0431789D02*
X0418246Y0431789D01*
X0418246Y0426885D01*
X0414977Y0426885D01*
X0416612Y0429337D02*
X0418246Y0429337D01*
X0420133Y0430972D02*
X0420951Y0431789D01*
X0423403Y0431789D01*
X0423403Y0426885D01*
X0420951Y0426885D01*
X0420133Y0427702D01*
X0420133Y0430972D01*
X0425290Y0430972D02*
X0426107Y0431789D01*
X0427742Y0431789D01*
X0428559Y0430972D01*
X0428559Y0427702D01*
X0427742Y0426885D01*
X0426107Y0426885D01*
X0425290Y0427702D01*
X0425290Y0430972D01*
X0430446Y0430972D02*
X0431263Y0431789D01*
X0433715Y0431789D01*
X0433715Y0426885D01*
X0433715Y0428519D02*
X0431263Y0428519D01*
X0430446Y0429337D01*
X0430446Y0430972D01*
X0432081Y0428519D02*
X0430446Y0426885D01*
X0430754Y0421954D02*
X0429937Y0421954D01*
X0426667Y0418685D01*
X0425850Y0418685D01*
X0425850Y0416798D02*
X0425850Y0413528D01*
X0429119Y0416798D01*
X0429937Y0416798D01*
X0430754Y0415980D01*
X0430754Y0414346D01*
X0429937Y0413528D01*
X0430754Y0418685D02*
X0430754Y0421954D01*
X0437350Y0421137D02*
X0437350Y0419502D01*
X0438167Y0418685D01*
X0438985Y0418685D01*
X0439802Y0419502D01*
X0439802Y0421137D01*
X0438985Y0421954D01*
X0438167Y0421954D01*
X0437350Y0421137D01*
X0439802Y0421137D02*
X0440619Y0421954D01*
X0441437Y0421954D01*
X0442254Y0421137D01*
X0442254Y0419502D01*
X0441437Y0418685D01*
X0440619Y0418685D01*
X0439802Y0419502D01*
X0440619Y0416798D02*
X0441437Y0416798D01*
X0442254Y0415980D01*
X0442254Y0414346D01*
X0441437Y0413528D01*
X0440619Y0416798D02*
X0437350Y0413528D01*
X0437350Y0416798D01*
X0420254Y0415980D02*
X0420254Y0414346D01*
X0419437Y0413528D01*
X0420254Y0415980D02*
X0419437Y0416798D01*
X0418619Y0416798D01*
X0415350Y0413528D01*
X0415350Y0416798D01*
X0416167Y0418685D02*
X0415350Y0419502D01*
X0415350Y0421137D01*
X0416167Y0421954D01*
X0416985Y0421954D01*
X0417802Y0421137D01*
X0417802Y0418685D01*
X0416167Y0418685D01*
X0417802Y0418685D02*
X0419437Y0420319D01*
X0420254Y0421954D01*
X0437237Y0426885D02*
X0437237Y0431789D01*
X0438872Y0431789D02*
X0435602Y0431789D01*
X0440759Y0430972D02*
X0441576Y0431789D01*
X0443211Y0431789D01*
X0444028Y0430972D01*
X0444028Y0427702D01*
X0443211Y0426885D01*
X0441576Y0426885D01*
X0440759Y0427702D01*
X0445915Y0426885D02*
X0449185Y0426885D01*
X0449185Y0431789D01*
X0445915Y0431789D01*
X0447550Y0429337D02*
X0449185Y0429337D01*
X0451072Y0426885D02*
X0454341Y0426885D01*
X0454341Y0431789D01*
X0456228Y0431789D02*
X0459497Y0431789D01*
X0459497Y0426885D01*
X0456228Y0426885D01*
X0457863Y0429337D02*
X0459497Y0429337D01*
X0466541Y0430972D02*
X0467358Y0431789D01*
X0468993Y0431789D01*
X0469810Y0430972D01*
X0469810Y0427702D01*
X0468993Y0426885D01*
X0467358Y0426885D01*
X0466541Y0427702D01*
X0466541Y0430972D01*
X0471697Y0431789D02*
X0474967Y0431789D01*
X0473332Y0431789D02*
X0473332Y0426885D01*
X0470350Y0421454D02*
X0470350Y0418185D01*
X0470350Y0419819D02*
X0475254Y0419819D01*
X0473619Y0418185D01*
X0473619Y0416298D02*
X0472802Y0415480D01*
X0471985Y0416298D01*
X0471167Y0416298D01*
X0470350Y0415480D01*
X0470350Y0413846D01*
X0471167Y0413028D01*
X0472802Y0414663D02*
X0472802Y0415480D01*
X0473619Y0416298D02*
X0474437Y0416298D01*
X0475254Y0415480D01*
X0475254Y0413846D01*
X0474437Y0413028D01*
X0463754Y0413846D02*
X0463754Y0415480D01*
X0462937Y0416298D01*
X0462119Y0416298D01*
X0461302Y0415480D01*
X0460485Y0416298D01*
X0459667Y0416298D01*
X0458850Y0415480D01*
X0458850Y0413846D01*
X0459667Y0413028D01*
X0461302Y0414663D02*
X0461302Y0415480D01*
X0463754Y0413846D02*
X0462937Y0413028D01*
X0462937Y0418185D02*
X0463754Y0419002D01*
X0463754Y0420637D01*
X0462937Y0421454D01*
X0459667Y0418185D01*
X0458850Y0419002D01*
X0458850Y0420637D01*
X0459667Y0421454D01*
X0462937Y0421454D01*
X0462937Y0418185D02*
X0459667Y0418185D01*
X0452754Y0419002D02*
X0452754Y0420637D01*
X0451937Y0421454D01*
X0448667Y0421454D01*
X0447850Y0420637D01*
X0447850Y0419002D01*
X0448667Y0418185D01*
X0450302Y0419002D02*
X0450302Y0421454D01*
X0450302Y0419002D02*
X0451119Y0418185D01*
X0451937Y0418185D01*
X0452754Y0419002D01*
X0451937Y0416298D02*
X0452754Y0415480D01*
X0452754Y0413846D01*
X0451937Y0413028D01*
X0451937Y0416298D02*
X0451119Y0416298D01*
X0447850Y0413028D01*
X0447850Y0416298D01*
X0491350Y0415480D02*
X0491350Y0413846D01*
X0492167Y0413028D01*
X0493802Y0414663D02*
X0493802Y0415480D01*
X0492985Y0416298D01*
X0492167Y0416298D01*
X0491350Y0415480D01*
X0493802Y0415480D02*
X0494619Y0416298D01*
X0495437Y0416298D01*
X0496254Y0415480D01*
X0496254Y0413846D01*
X0495437Y0413028D01*
X0495437Y0418185D02*
X0496254Y0419002D01*
X0496254Y0420637D01*
X0495437Y0421454D01*
X0494619Y0421454D01*
X0493802Y0420637D01*
X0492985Y0421454D01*
X0492167Y0421454D01*
X0491350Y0420637D01*
X0491350Y0419002D01*
X0492167Y0418185D01*
X0493802Y0419819D02*
X0493802Y0420637D01*
X0501850Y0420637D02*
X0506754Y0420637D01*
X0504302Y0418185D01*
X0504302Y0421454D01*
X0503485Y0416298D02*
X0502667Y0416298D01*
X0501850Y0415480D01*
X0501850Y0413846D01*
X0502667Y0413028D01*
X0504302Y0414663D02*
X0504302Y0415480D01*
X0503485Y0416298D01*
X0504302Y0415480D02*
X0505119Y0416298D01*
X0505937Y0416298D01*
X0506754Y0415480D01*
X0506754Y0413846D01*
X0505937Y0413028D01*
X0512850Y0413846D02*
X0512850Y0415480D01*
X0513667Y0416298D01*
X0514485Y0416298D01*
X0515302Y0415480D01*
X0515302Y0414663D01*
X0515302Y0415480D02*
X0516119Y0416298D01*
X0516937Y0416298D01*
X0517754Y0415480D01*
X0517754Y0413846D01*
X0516937Y0413028D01*
X0513667Y0413028D02*
X0512850Y0413846D01*
X0513667Y0418185D02*
X0512850Y0419002D01*
X0512850Y0420637D01*
X0513667Y0421454D01*
X0515302Y0421454D01*
X0516119Y0420637D01*
X0516119Y0419819D01*
X0515302Y0418185D01*
X0517754Y0418185D01*
X0517754Y0421454D01*
X0524850Y0420637D02*
X0524850Y0419002D01*
X0525667Y0418185D01*
X0527302Y0418185D01*
X0527302Y0420637D01*
X0526485Y0421454D01*
X0525667Y0421454D01*
X0524850Y0420637D01*
X0527302Y0418185D02*
X0528937Y0419819D01*
X0529754Y0421454D01*
X0528937Y0416298D02*
X0528119Y0416298D01*
X0527302Y0415480D01*
X0526485Y0416298D01*
X0525667Y0416298D01*
X0524850Y0415480D01*
X0524850Y0413846D01*
X0525667Y0413028D01*
X0527302Y0414663D02*
X0527302Y0415480D01*
X0528937Y0416298D02*
X0529754Y0415480D01*
X0529754Y0413846D01*
X0528937Y0413028D01*
X0534350Y0413846D02*
X0534350Y0415480D01*
X0535167Y0416298D01*
X0535985Y0416298D01*
X0536802Y0415480D01*
X0536802Y0414663D01*
X0536802Y0415480D02*
X0537619Y0416298D01*
X0538437Y0416298D01*
X0539254Y0415480D01*
X0539254Y0413846D01*
X0538437Y0413028D01*
X0535167Y0413028D02*
X0534350Y0413846D01*
X0534350Y0418185D02*
X0535167Y0418185D01*
X0538437Y0421454D01*
X0539254Y0421454D01*
X0539254Y0418185D01*
X0544754Y0387663D02*
X0543119Y0386028D01*
X0500754Y0387663D02*
X0499119Y0386028D01*
X0101450Y0285154D02*
X0099815Y0286789D01*
X0098181Y0285154D01*
X0098181Y0281885D01*
X0096294Y0281885D02*
X0096294Y0286789D01*
X0093842Y0286789D01*
X0093024Y0285972D01*
X0093024Y0284337D01*
X0093842Y0283519D01*
X0096294Y0283519D01*
X0094659Y0283519D02*
X0093024Y0281885D01*
X0091137Y0281885D02*
X0091137Y0286789D01*
X0088685Y0286789D01*
X0087868Y0285972D01*
X0087868Y0282702D01*
X0088685Y0281885D01*
X0091137Y0281885D01*
X0085981Y0282702D02*
X0085163Y0281885D01*
X0083529Y0281885D01*
X0082711Y0282702D01*
X0082711Y0286789D01*
X0080824Y0286789D02*
X0079190Y0286789D01*
X0080007Y0286789D02*
X0080007Y0281885D01*
X0080824Y0281885D02*
X0079190Y0281885D01*
X0077387Y0281885D02*
X0077387Y0286789D01*
X0074117Y0281885D01*
X0074117Y0286789D01*
X0072230Y0285972D02*
X0072230Y0282702D01*
X0071413Y0281885D01*
X0069778Y0281885D01*
X0068961Y0282702D01*
X0068961Y0285972D01*
X0069778Y0286789D01*
X0071413Y0286789D01*
X0072230Y0285972D01*
X0061918Y0286789D02*
X0060283Y0286789D01*
X0061100Y0286789D02*
X0061100Y0281885D01*
X0060283Y0281885D02*
X0061918Y0281885D01*
X0058480Y0281885D02*
X0058480Y0286789D01*
X0055211Y0281885D01*
X0055211Y0286789D01*
X0085981Y0286789D02*
X0085981Y0282702D01*
X0098181Y0284337D02*
X0101450Y0284337D01*
X0101450Y0285154D02*
X0101450Y0281885D01*
D12*
X0479950Y0411904D02*
X0481068Y0410787D01*
X0479950Y0411904D02*
X0479950Y0414140D01*
X0481068Y0415257D01*
X0482185Y0415257D01*
X0483303Y0414140D01*
X0483303Y0413022D01*
X0483303Y0414140D02*
X0484420Y0415257D01*
X0485538Y0415257D01*
X0486656Y0414140D01*
X0486656Y0411904D01*
X0485538Y0410787D01*
X0485538Y0417785D02*
X0486656Y0418902D01*
X0486656Y0421138D01*
X0485538Y0422255D01*
X0484420Y0422255D01*
X0479950Y0417785D01*
X0479950Y0422255D01*
X0479450Y0074255D02*
X0479450Y0069785D01*
X0483920Y0074255D01*
X0485038Y0074255D01*
X0486156Y0073138D01*
X0486156Y0070902D01*
X0485038Y0069785D01*
X0485038Y0067257D02*
X0483920Y0067257D01*
X0482803Y0066140D01*
X0481685Y0067257D01*
X0480568Y0067257D01*
X0479450Y0066140D01*
X0479450Y0063904D01*
X0480568Y0062787D01*
X0482803Y0065022D02*
X0482803Y0066140D01*
X0485038Y0067257D02*
X0486156Y0066140D01*
X0486156Y0063904D01*
X0485038Y0062787D01*
D13*
X0590398Y0154537D02*
X0590398Y0158637D01*
X0583698Y0166637D02*
X0583698Y0181037D01*
X0603198Y0189037D02*
X0603198Y0193137D01*
X0614898Y0181037D02*
X0614898Y0175037D01*
X0614898Y0172637D01*
X0614898Y0166637D01*
X0614898Y0172637D02*
X0614829Y0172639D01*
X0614761Y0172645D01*
X0614693Y0172655D01*
X0614626Y0172668D01*
X0614560Y0172686D01*
X0614495Y0172707D01*
X0614431Y0172732D01*
X0614369Y0172760D01*
X0614308Y0172792D01*
X0614249Y0172827D01*
X0614193Y0172866D01*
X0614138Y0172908D01*
X0614087Y0172953D01*
X0614037Y0173001D01*
X0613991Y0173051D01*
X0613948Y0173104D01*
X0613907Y0173160D01*
X0613870Y0173217D01*
X0613837Y0173277D01*
X0613806Y0173339D01*
X0613780Y0173402D01*
X0613757Y0173466D01*
X0613737Y0173532D01*
X0613722Y0173599D01*
X0613710Y0173666D01*
X0613702Y0173734D01*
X0613698Y0173803D01*
X0613698Y0173871D01*
X0613702Y0173940D01*
X0613710Y0174008D01*
X0613722Y0174075D01*
X0613737Y0174142D01*
X0613757Y0174208D01*
X0613780Y0174272D01*
X0613806Y0174335D01*
X0613837Y0174397D01*
X0613870Y0174457D01*
X0613907Y0174514D01*
X0613948Y0174570D01*
X0613991Y0174623D01*
X0614037Y0174673D01*
X0614087Y0174721D01*
X0614138Y0174766D01*
X0614193Y0174808D01*
X0614249Y0174847D01*
X0614308Y0174882D01*
X0614369Y0174914D01*
X0614431Y0174942D01*
X0614495Y0174967D01*
X0614560Y0174988D01*
X0614626Y0175006D01*
X0614693Y0175019D01*
X0614761Y0175029D01*
X0614829Y0175035D01*
X0614898Y0175037D01*
X0590398Y0264537D02*
X0590398Y0268637D01*
X0583698Y0276637D02*
X0583698Y0291037D01*
X0603198Y0299037D02*
X0603198Y0303137D01*
X0614898Y0291037D02*
X0614898Y0285037D01*
X0614898Y0282637D01*
X0614898Y0276637D01*
X0614898Y0282637D02*
X0614829Y0282639D01*
X0614761Y0282645D01*
X0614693Y0282655D01*
X0614626Y0282668D01*
X0614560Y0282686D01*
X0614495Y0282707D01*
X0614431Y0282732D01*
X0614369Y0282760D01*
X0614308Y0282792D01*
X0614249Y0282827D01*
X0614193Y0282866D01*
X0614138Y0282908D01*
X0614087Y0282953D01*
X0614037Y0283001D01*
X0613991Y0283051D01*
X0613948Y0283104D01*
X0613907Y0283160D01*
X0613870Y0283217D01*
X0613837Y0283277D01*
X0613806Y0283339D01*
X0613780Y0283402D01*
X0613757Y0283466D01*
X0613737Y0283532D01*
X0613722Y0283599D01*
X0613710Y0283666D01*
X0613702Y0283734D01*
X0613698Y0283803D01*
X0613698Y0283871D01*
X0613702Y0283940D01*
X0613710Y0284008D01*
X0613722Y0284075D01*
X0613737Y0284142D01*
X0613757Y0284208D01*
X0613780Y0284272D01*
X0613806Y0284335D01*
X0613837Y0284397D01*
X0613870Y0284457D01*
X0613907Y0284514D01*
X0613948Y0284570D01*
X0613991Y0284623D01*
X0614037Y0284673D01*
X0614087Y0284721D01*
X0614138Y0284766D01*
X0614193Y0284808D01*
X0614249Y0284847D01*
X0614308Y0284882D01*
X0614369Y0284914D01*
X0614431Y0284942D01*
X0614495Y0284967D01*
X0614560Y0284988D01*
X0614626Y0285006D01*
X0614693Y0285019D01*
X0614761Y0285029D01*
X0614829Y0285035D01*
X0614898Y0285037D01*
X0590399Y0367037D02*
X0590399Y0371137D01*
X0583699Y0379137D02*
X0583699Y0393537D01*
X0603199Y0401537D02*
X0603199Y0405637D01*
X0614899Y0393537D02*
X0614899Y0387537D01*
X0614899Y0385137D01*
X0614899Y0379137D01*
X0614899Y0385137D02*
X0614830Y0385139D01*
X0614762Y0385145D01*
X0614694Y0385155D01*
X0614627Y0385168D01*
X0614561Y0385186D01*
X0614496Y0385207D01*
X0614432Y0385232D01*
X0614370Y0385260D01*
X0614309Y0385292D01*
X0614250Y0385327D01*
X0614194Y0385366D01*
X0614139Y0385408D01*
X0614088Y0385453D01*
X0614038Y0385501D01*
X0613992Y0385551D01*
X0613949Y0385604D01*
X0613908Y0385660D01*
X0613871Y0385717D01*
X0613838Y0385777D01*
X0613807Y0385839D01*
X0613781Y0385902D01*
X0613758Y0385966D01*
X0613738Y0386032D01*
X0613723Y0386099D01*
X0613711Y0386166D01*
X0613703Y0386234D01*
X0613699Y0386303D01*
X0613699Y0386371D01*
X0613703Y0386440D01*
X0613711Y0386508D01*
X0613723Y0386575D01*
X0613738Y0386642D01*
X0613758Y0386708D01*
X0613781Y0386772D01*
X0613807Y0386835D01*
X0613838Y0386897D01*
X0613871Y0386957D01*
X0613908Y0387014D01*
X0613949Y0387070D01*
X0613992Y0387123D01*
X0614038Y0387173D01*
X0614088Y0387221D01*
X0614139Y0387266D01*
X0614194Y0387308D01*
X0614250Y0387347D01*
X0614309Y0387382D01*
X0614370Y0387414D01*
X0614432Y0387442D01*
X0614496Y0387467D01*
X0614561Y0387488D01*
X0614627Y0387506D01*
X0614694Y0387519D01*
X0614762Y0387529D01*
X0614830Y0387535D01*
X0614899Y0387537D01*
X0302402Y0341036D02*
X0302402Y0326636D01*
X0282902Y0318636D02*
X0282902Y0314536D01*
X0271202Y0326636D02*
X0271202Y0332636D01*
X0271202Y0335036D01*
X0271202Y0341036D01*
X0271202Y0335036D02*
X0271271Y0335034D01*
X0271339Y0335028D01*
X0271407Y0335018D01*
X0271474Y0335005D01*
X0271540Y0334987D01*
X0271605Y0334966D01*
X0271669Y0334941D01*
X0271731Y0334913D01*
X0271792Y0334881D01*
X0271851Y0334846D01*
X0271907Y0334807D01*
X0271962Y0334765D01*
X0272013Y0334720D01*
X0272063Y0334672D01*
X0272109Y0334622D01*
X0272152Y0334569D01*
X0272193Y0334513D01*
X0272230Y0334456D01*
X0272263Y0334396D01*
X0272294Y0334334D01*
X0272320Y0334271D01*
X0272343Y0334207D01*
X0272363Y0334141D01*
X0272378Y0334074D01*
X0272390Y0334007D01*
X0272398Y0333939D01*
X0272402Y0333870D01*
X0272402Y0333802D01*
X0272398Y0333733D01*
X0272390Y0333665D01*
X0272378Y0333598D01*
X0272363Y0333531D01*
X0272343Y0333465D01*
X0272320Y0333401D01*
X0272294Y0333338D01*
X0272263Y0333276D01*
X0272230Y0333216D01*
X0272193Y0333159D01*
X0272152Y0333103D01*
X0272109Y0333050D01*
X0272063Y0333000D01*
X0272013Y0332952D01*
X0271962Y0332907D01*
X0271907Y0332865D01*
X0271851Y0332826D01*
X0271792Y0332791D01*
X0271731Y0332759D01*
X0271669Y0332731D01*
X0271605Y0332706D01*
X0271540Y0332685D01*
X0271474Y0332667D01*
X0271407Y0332654D01*
X0271339Y0332644D01*
X0271271Y0332638D01*
X0271202Y0332636D01*
X0295702Y0349036D02*
X0295702Y0353136D01*
X0295702Y0225633D02*
X0295702Y0221533D01*
X0302402Y0213533D02*
X0302402Y0199133D01*
X0282902Y0191133D02*
X0282902Y0187033D01*
X0271202Y0199133D02*
X0271202Y0205133D01*
X0271202Y0207533D01*
X0271202Y0213533D01*
X0271202Y0207533D02*
X0271271Y0207531D01*
X0271339Y0207525D01*
X0271407Y0207515D01*
X0271474Y0207502D01*
X0271540Y0207484D01*
X0271605Y0207463D01*
X0271669Y0207438D01*
X0271731Y0207410D01*
X0271792Y0207378D01*
X0271851Y0207343D01*
X0271907Y0207304D01*
X0271962Y0207262D01*
X0272013Y0207217D01*
X0272063Y0207169D01*
X0272109Y0207119D01*
X0272152Y0207066D01*
X0272193Y0207010D01*
X0272230Y0206953D01*
X0272263Y0206893D01*
X0272294Y0206831D01*
X0272320Y0206768D01*
X0272343Y0206704D01*
X0272363Y0206638D01*
X0272378Y0206571D01*
X0272390Y0206504D01*
X0272398Y0206436D01*
X0272402Y0206367D01*
X0272402Y0206299D01*
X0272398Y0206230D01*
X0272390Y0206162D01*
X0272378Y0206095D01*
X0272363Y0206028D01*
X0272343Y0205962D01*
X0272320Y0205898D01*
X0272294Y0205835D01*
X0272263Y0205773D01*
X0272230Y0205713D01*
X0272193Y0205656D01*
X0272152Y0205600D01*
X0272109Y0205547D01*
X0272063Y0205497D01*
X0272013Y0205449D01*
X0271962Y0205404D01*
X0271907Y0205362D01*
X0271851Y0205323D01*
X0271792Y0205288D01*
X0271731Y0205256D01*
X0271669Y0205228D01*
X0271605Y0205203D01*
X0271540Y0205182D01*
X0271474Y0205164D01*
X0271407Y0205151D01*
X0271339Y0205141D01*
X0271271Y0205135D01*
X0271202Y0205133D01*
D14*
X0270868Y0217447D02*
X0267732Y0220583D01*
X0269300Y0220583D02*
X0269300Y0217447D01*
X0267732Y0217447D02*
X0270868Y0220583D01*
X0270868Y0219015D02*
X0267732Y0219015D01*
X0267732Y0344950D02*
X0270868Y0348086D01*
X0270868Y0346518D02*
X0267732Y0346518D01*
X0267732Y0348086D02*
X0270868Y0344950D01*
X0269300Y0344950D02*
X0269300Y0348086D01*
X0615233Y0372087D02*
X0618369Y0375223D01*
X0618369Y0373655D02*
X0615233Y0373655D01*
X0615233Y0375223D02*
X0618369Y0372087D01*
X0616801Y0372087D02*
X0616801Y0375223D01*
X0616800Y0272723D02*
X0616800Y0269587D01*
X0615232Y0269587D02*
X0618368Y0272723D01*
X0618368Y0271155D02*
X0615232Y0271155D01*
X0615232Y0272723D02*
X0618368Y0269587D01*
X0618368Y0162723D02*
X0615232Y0159587D01*
X0615232Y0161155D02*
X0618368Y0161155D01*
X0618368Y0159587D02*
X0615232Y0162723D01*
X0616800Y0162723D02*
X0616800Y0159587D01*
D15*
X0578105Y0168137D02*
X0571933Y0168137D01*
X0570698Y0169371D01*
X0570698Y0171840D01*
X0571933Y0173074D01*
X0578105Y0173074D01*
X0576870Y0175687D02*
X0575636Y0175687D01*
X0574401Y0176922D01*
X0574401Y0180625D01*
X0571933Y0180625D02*
X0576870Y0180625D01*
X0578105Y0179390D01*
X0578105Y0176922D01*
X0576870Y0175687D01*
X0571933Y0175687D02*
X0570698Y0176922D01*
X0570698Y0179390D01*
X0571933Y0180625D01*
X0571433Y0273137D02*
X0570198Y0274371D01*
X0570198Y0276840D01*
X0571433Y0278074D01*
X0577605Y0278074D01*
X0575136Y0280687D02*
X0577605Y0283156D01*
X0570198Y0283156D01*
X0570198Y0280687D02*
X0570198Y0285625D01*
X0570198Y0288238D02*
X0570198Y0293175D01*
X0570198Y0290706D02*
X0577605Y0290706D01*
X0575136Y0288238D01*
X0577605Y0273137D02*
X0571433Y0273137D01*
X0621933Y0375137D02*
X0620699Y0376371D01*
X0620699Y0378840D01*
X0621933Y0380074D01*
X0628105Y0380074D01*
X0625636Y0382687D02*
X0628105Y0385156D01*
X0620699Y0385156D01*
X0620699Y0382687D02*
X0620699Y0387625D01*
X0624402Y0390238D02*
X0624402Y0395175D01*
X0628105Y0393941D02*
X0624402Y0390238D01*
X0620699Y0393941D02*
X0628105Y0393941D01*
X0628105Y0375137D02*
X0621933Y0375137D01*
X0315902Y0338302D02*
X0315902Y0335833D01*
X0314667Y0334599D01*
X0308495Y0334599D01*
X0309730Y0331986D02*
X0308495Y0330751D01*
X0308495Y0328283D01*
X0309730Y0327048D01*
X0310964Y0327048D01*
X0312199Y0328283D01*
X0313433Y0327048D01*
X0314667Y0327048D01*
X0315902Y0328283D01*
X0315902Y0330751D01*
X0314667Y0331986D01*
X0312199Y0329517D02*
X0312199Y0328283D01*
X0315902Y0338302D02*
X0314667Y0339536D01*
X0308495Y0339536D01*
X0306496Y0212533D02*
X0312668Y0212533D01*
X0313902Y0211298D01*
X0313902Y0208830D01*
X0312668Y0207595D01*
X0306496Y0207595D01*
X0310199Y0204982D02*
X0310199Y0201279D01*
X0311433Y0200045D01*
X0312668Y0200045D01*
X0313902Y0201279D01*
X0313902Y0203748D01*
X0312668Y0204982D01*
X0310199Y0204982D01*
X0307730Y0202514D01*
X0306496Y0200045D01*
M02*
