*
G04 Mass Parameters ***
*
G04 Image ***
*
%IND:\DOCUMENTS\CIRCUIT LAYOUTS, SCHEMATICS AND MISC TECHNICAL\SWTICH NETWORK\NEW DESIGN MARCH 2015\SWITCH-NETWORK-ROUTED.BOT*%
%ICAS*%
%MOIN*%
%IPPOS*%
%ASAXBY*%
G74*%FSLAN2X34Y34*%
*
G04 Aperture Definitions ***
*
%ADD10C,0.1200*%
%ADD11C,0.0630*%
%ADD12R,0.0630X0.0630*%
%ADD13R,0.0580X0.0580*%
%ADD14O,0.0160X0.0900*%
%ADD15R,0.0160X0.0900*%
%ADD16R,0.0500X0.0500*%
%ADD17C,0.0300*%
%ADD18C,0.0300*%
%ADD19C,0.0120*%
%ADD20C,0.0300*%
%ADD21C,0.0300*%
*
G04 Plot Data ***
*
G54D19*
G01X0008050Y0008700D02*
X0008550Y0008200D01*
Y0002050D01*
X0005200Y-0001300D01*
X-0005200D01*
X0001750Y0009100D02*
X-0006770D01*
X-0007848D01*
Y0008292D01*
X-0004650Y-0003700D02*
X-0007200D01*
X-0007440Y-0003940D02*
Y-0006392D01*
X-0047232Y0028392D02*
Y0027540D01*
X-0047472Y0027300D02*
X-0047500D01*
X-0059092D01*
Y0027342D01*
X-0059100Y0011200D02*
X-0061260D01*
X-0061500Y0011440D02*
Y0012270D01*
X-0062000D01*
X-0008046Y0023490D02*
Y0026320D01*
X0001750Y0030050D02*
X0000000D01*
X-0047232Y0028392D02*
Y0027540D01*
X-0047472Y0027300D02*
X-0047500D01*
Y0026311D01*
Y0025720D01*
X-0048652Y-0002608D02*
Y-0003328D01*
X-0049300D01*
X-0006750Y0011172D02*
Y0009540D01*
X-0006770D01*
Y0009100D01*
X-0007848D01*
Y0008292D01*
X-0049300Y-0003328D02*
X-0048652D01*
Y-0002608D01*
X-0047232Y0028392D02*
Y0027540D01*
X-0047472Y0027300D02*
X-0047500D01*
Y0026311D01*
X-0036290D01*
X-0036050Y0026551D02*
Y0026650D01*
X-0008046D01*
Y0026320D01*
Y0023490D01*
X-0050160Y0035600D02*
Y0034000D01*
X-0006700Y0019500D02*
X-0007350D01*
X-0008046Y0020196D01*
Y0020790D01*
X-0003160Y-0009000D02*
X-0002700D01*
Y-0002450D01*
X-0005310D01*
X-0005550Y-0002210D02*
Y-0000722D01*
X-0005530D01*
X-0005000D01*
Y0004000D01*
X-0052840Y0000000D02*
Y0000710D01*
X-0052600Y0000950D02*
X-0051400D01*
Y0001440D01*
X-0049257D01*
X-0048648Y0000831D01*
Y0000092D01*
X-0048652D01*
X0008000Y0009820D02*
X0008500D01*
Y0009850D01*
X0008750D01*
X0008810D01*
X0009050Y0009610D02*
Y-0002210D01*
X0008810Y-0002450D02*
X-0002700D01*
Y-0009000D01*
X-0003160D01*
X0008000Y0009820D02*
X0008500D01*
Y0009850D01*
X0008750D01*
Y0030660D01*
X0008510Y0030900D02*
X0002960D01*
X-0050160Y0035600D02*
Y0034000D01*
X-0048600Y0022000D02*
X-0053360D01*
X-0053600Y0021760D02*
Y0005450D01*
X-0048652Y0000092D02*
X-0048648D01*
Y0000831D01*
X-0049257Y0001440D01*
X-0051400D01*
X-0053600Y0001450D02*
Y0005450D01*
Y0021760D01*
X-0053360Y0022000D02*
X-0048600D01*
X-0062000Y0013360D02*
Y0013350D01*
X-0058750D01*
Y-0005610D01*
X-0058990Y-0005850D02*
X-0059390D01*
X-0059630Y-0005610D02*
Y-0005320D01*
X-0007400Y0027200D02*
Y0023490D01*
X-0007790D01*
X-0006150Y0008750D02*
X-0006500D01*
Y0008662D01*
X-0007592D01*
Y0008292D01*
X-0048908Y-0002608D02*
Y-0001940D01*
X-0049148Y-0001700D02*
X-0049390D01*
X-0049630Y-0001940D02*
Y-0005330D01*
X-0007184Y-0006392D02*
Y-0005240D01*
X-0006944Y-0005000D02*
X-0004540D01*
X-0004300Y-0004760D02*
Y-0003350D01*
X-0005850D01*
X-0007592Y0008292D02*
Y0008662D01*
X-0006500D01*
Y0008750D01*
X-0006150D01*
X0000500D01*
X0001250D01*
X-0050800Y0027650D02*
X-0047500D01*
Y0028392D01*
X-0047488D01*
X-0047500D01*
Y0027650D01*
X-0050800D01*
X-0058750Y0013350D02*
X-0062000D01*
Y0013360D01*
X-0007184Y-0006392D02*
Y-0005240D01*
X-0006944Y-0005000D02*
X-0004540D01*
X-0004300Y-0004760D02*
Y-0003350D01*
Y-0000700D02*
X0000260D01*
X0000500Y-0000460D02*
Y0008750D01*
X0001250D01*
X-0058750Y0013350D02*
X-0062000D01*
Y0013360D01*
X-0007150Y0030550D02*
X-0008350Y0031750D01*
X-0040950D01*
X-0047500Y0030372D02*
Y0031092D01*
X-0047488D01*
X0006880Y0011455D02*
X0005750D01*
X0005740D01*
X0005500Y0011215D02*
Y0010100D01*
X0005542D01*
Y0004842D01*
X-0056800Y0009545D02*
Y0001000D01*
Y0000950D02*
Y-0007800D01*
X-0056750D01*
Y-0008150D01*
X-0056800Y0009545D02*
Y0001000D01*
X-0055550D02*
X-0053750D01*
X-0050850D02*
X-0049250D01*
X-0048908Y0000658D01*
Y0000092D01*
X-0007184Y-0007950D02*
Y-0009092D01*
X-0050100Y0023100D02*
X-0056560D01*
X-0056800Y0022860D02*
Y0009545D01*
X-0005866Y0005142D02*
Y0005100D01*
X-0004000D01*
X-0000100D01*
X0000140Y0004860D02*
Y0000990D01*
X-0007592Y0005592D02*
Y0006260D01*
X-0007352Y0006500D02*
X-0006106D01*
X-0005866Y0006260D02*
Y0005142D01*
Y0005100D01*
X-0004000D01*
X-0000100D01*
X0000140Y0004860D02*
Y0000990D01*
X-0004000Y0007320D02*
Y0005100D01*
X-0000100D01*
X0000140Y0004860D02*
Y0000990D01*
X0006880Y0011455D02*
X0005750D01*
Y0023610D01*
X0005510Y0023850D02*
X0000920D01*
X-0005650Y0022350D02*
X-0007550D01*
X-0007790Y0022110D02*
Y0020790D01*
X-0007110Y0030540D02*
Y0029840D01*
X-0006870Y0029600D02*
X0000680D01*
X0000920Y0029360D02*
Y0023850D01*
X0005510D01*
X0005750Y0023610D02*
Y0011455D01*
X0006880D01*
X-0047488Y0031092D02*
X-0047500D01*
Y0030372D01*
X-0003160Y0023000D02*
X-0002700D01*
Y0028770D01*
X-0003160Y0023000D02*
X-0002700D01*
Y0019500D01*
X-0050160Y0034000D02*
X-0048761Y0032601D01*
X-0048076D01*
X-0047252Y0031777D01*
Y0031092D01*
X-0047232D01*
X-0050160Y0034000D02*
Y0035600D01*
X0002960Y0030900D02*
X0002600D01*
Y0030910D01*
X-0004610D01*
X-0003160Y0023000D02*
X-0002700D01*
Y0019500D01*
X-0006700D01*
X-0007350D01*
X-0008046Y0020196D01*
Y0020790D01*
X-0007848Y0005592D02*
X-0007832D01*
Y0004914D01*
X-0007592Y0004674D01*
X-0006204D01*
X-0005530Y0004000D01*
X-0005000D01*
X-0003160Y-0009000D02*
X-0004362Y-0010202D01*
X-0007184D01*
X-0007424Y-0009962D02*
Y-0009092D01*
X-0007440D01*
X-0005000Y0004000D02*
Y-0000722D01*
X-0005530D01*
X-0044875Y0026675D02*
X-0037075D01*
X-0044928Y0026652D02*
Y0028392D01*
X-0043955Y0027200D02*
X-0035985D01*
X-0044928Y0031092D02*
Y0031902D01*
X-0044548D01*
X-0043988Y0031342D01*
Y0027180D01*
X-0043405Y0027695D02*
X-0034895D01*
X-0043450Y0027670D02*
Y0031910D01*
X-0043690Y0032150D02*
X-0045200D01*
X-0045440Y0031910D02*
Y0031092D01*
X-0042905Y0028105D02*
X-0033805D01*
X-0042960Y0028100D02*
Y0032160D01*
X-0043200Y0032400D02*
X-0045712D01*
X-0045952Y0032160D02*
Y0031092D01*
X-0042435Y0028515D02*
X-0032715D01*
X-0042480Y0028540D02*
Y0032410D01*
X-0042720Y0032650D02*
X-0046224D01*
X-0046464Y0032410D02*
Y0031092D01*
X-0008814Y0023490D02*
Y0024478D01*
X-0008888Y0024552D01*
Y0026270D01*
X-0031625Y0026290D02*
Y0026322D01*
X-0008888D01*
Y0026270D01*
Y0024552D01*
X-0008814Y0024478D01*
Y0023490D01*
X-0009335Y0025985D02*
X-0030535D01*
X-0009330Y0025970D02*
X-0009326D01*
Y0023490D01*
X-0009905Y0025560D02*
X-0029445D01*
X-0009840D02*
X-0009838D01*
Y0023490D01*
X-0028355Y0025190D02*
X-0027625D01*
X-0027595Y0025220D01*
X-0026965D01*
X-0026935Y0025190D01*
X-0010375D01*
X-0010340Y0025200D02*
X-0010350D01*
Y0023490D01*
X-0011305Y0024890D02*
X-0027265D01*
X-0011280Y0024860D02*
Y0020390D01*
X-0011040Y0020150D02*
X-0010350D01*
Y0020790D01*
X-0026175Y0024470D02*
X-0011795D01*
X-0011770Y0024460D02*
Y0020140D01*
X-0011530Y0019900D02*
X-0010078D01*
X-0009838Y0020140D02*
Y0020790D01*
Y0020140D01*
X-0010078Y0019900D02*
X-0011530D01*
X-0011770Y0020140D02*
Y0024460D01*
X-0009326Y0020790D02*
Y0019890D01*
X-0009566Y0019650D02*
X-0012050D01*
X-0012290Y0019890D02*
Y0024050D01*
X-0012355Y0024070D02*
X-0025085D01*
X-0009326Y0020790D02*
Y0019890D01*
X-0009566Y0019650D02*
X-0012050D01*
X-0012290Y0019890D02*
Y0024050D01*
X-0023995Y0023710D02*
X-0012855D01*
X-0012790Y0023680D02*
Y0019390D01*
X-0012550Y0019150D02*
X-0009054D01*
X-0008814Y0019390D02*
Y0020790D01*
Y0019390D01*
X-0009054Y0019150D02*
X-0012550D01*
X-0012790Y0019390D02*
Y0023680D01*
X-0008616Y0008292D02*
Y0009200D01*
X-0008690D01*
Y0011040D01*
X-0008705Y0011105D02*
X-0022905D01*
X-0008616Y0008292D02*
Y0009200D01*
X-0008690D01*
Y0011040D01*
X-0021815Y0010660D02*
X-0009145D01*
X-0009140D02*
X-0009128D01*
Y0008292D01*
X-0009640D02*
Y0010310D01*
X-0020725D02*
X-0009640D01*
Y0008292D01*
X-0010175Y0009970D02*
X-0019635D01*
X-0010152Y0008292D02*
X-0010150Y0008300D01*
X-0010152Y0008302D01*
Y0009898D01*
X-0011105Y0009550D02*
X-0018545D01*
X-0011090Y0009560D02*
Y0005190D01*
X-0010850Y0004950D02*
X-0010152D01*
Y0005592D01*
X-0009640D02*
Y0004940D01*
X-0009880Y0004700D02*
X-0011350D01*
X-0011590Y0004940D02*
Y0009090D01*
X-0037620D01*
Y0009070D01*
X-0011590Y0009090D02*
X-0037620D01*
Y0009070D01*
X-0009128Y0005592D02*
Y0004690D01*
X-0009368Y0004450D02*
X-0011850D01*
X-0012090Y0004690D02*
Y0008670D01*
X-0012120Y0008630D02*
X-0036530D01*
X-0009128Y0005592D02*
Y0004690D01*
X-0009368Y0004450D02*
X-0011850D01*
X-0012090Y0004690D02*
Y0008670D01*
X-0012660Y0008140D02*
X-0035440D01*
X-0012590Y0008170D02*
Y0004440D01*
X-0012350Y0004200D02*
X-0009090D01*
X-0008850Y0004440D02*
Y0004800D01*
X-0008616D01*
Y0005592D01*
X-0047800Y-0005400D02*
X-0034350D01*
X-0047810Y-0005360D02*
Y-0005300D01*
X-0047884D01*
Y-0002608D01*
X-0047372D02*
Y-0004870D01*
X-0047370D01*
X-0047310Y-0004860D02*
X-0033260D01*
X-0047372Y-0002608D02*
Y-0004870D01*
X-0047370D01*
X-0046830Y-0004420D02*
X-0032170D01*
X-0046860D02*
Y-0002608D01*
X-0046348D02*
Y-0004000D01*
X-0046340D01*
X-0046280Y-0004030D02*
X-0031080D01*
X-0046348Y-0002608D02*
Y-0004000D01*
X-0046340D01*
X-0046348Y0000092D02*
Y0000750D01*
X-0045640D01*
X-0045400Y0000510D02*
Y-0003510D01*
X-0045440Y-0003540D02*
X-0029990D01*
X-0046348Y0000092D02*
Y0000750D01*
X-0045640D01*
X-0045400Y0000510D02*
Y-0003510D01*
X-0028900Y-0003000D02*
X-0044900D01*
Y0000760D01*
X-0045140Y0001000D02*
X-0046620D01*
X-0046860Y0000760D02*
Y0000092D01*
X-0027810Y-0002510D02*
X-0044410D01*
Y0001010D01*
X-0044650Y0001250D02*
X-0047132D01*
X-0047372Y0001010D02*
Y0000092D01*
X-0044410Y-0002510D02*
X-0027810D01*
X-0047884Y0000092D02*
Y0001260D01*
X-0047644Y0001500D02*
X-0044130D01*
X-0043890Y0001260D02*
Y-0002030D01*
X-0043830Y-0002070D02*
X-0026720D01*
X-0047884Y0000092D02*
Y0001260D01*
X-0047644Y0001500D02*
X-0044130D01*
X-0043890Y0001260D02*
Y-0002030D01*
X-0008208Y-0006392D02*
Y-0005470D01*
X-0008282Y-0005396D01*
Y-0003560D01*
X-0008220Y-0003530D02*
X-0008380D01*
X-0008410Y-0003500D01*
X-0009712D01*
X-0009742Y-0003530D01*
X-0025630D01*
X-0008208Y-0006392D02*
Y-0005470D01*
X-0008282Y-0005396D01*
Y-0003560D01*
X-0008710Y-0003830D02*
X-0008720D01*
Y-0006392D01*
Y-0003830D01*
X-0023950D01*
Y-0004000D01*
X-0024540D01*
X-0009220Y-0004180D02*
X-0009232D01*
Y-0006392D01*
X-0023450Y-0004330D02*
Y-0004300D01*
X-0022850D01*
Y-0004180D01*
X-0009232D01*
Y-0006392D01*
X-0009744D02*
Y-0004532D01*
X-0009760Y-0004510D02*
X-0022360D01*
X-0009744Y-0006392D02*
Y-0004532D01*
X-0021270Y-0004920D02*
X-0010710D01*
X-0009744Y-0009092D02*
X-0009750D01*
Y-0009750D01*
X-0010160D01*
X-0010400Y-0009510D02*
Y-0009350D01*
X-0010710D01*
Y-0004920D01*
X-0021270D01*
X-0011320Y-0005320D02*
X-0020180D01*
X-0009232Y-0009092D02*
Y-0009890D01*
X-0009684Y-0010342D01*
X-0010684D01*
X-0011184Y-0009842D01*
Y-0005396D01*
X-0011200Y-0005380D01*
X-0019090Y-0005910D02*
X-0011710D01*
X-0011530Y0000650D02*
X-0008720D01*
X-0019090Y-0005910D02*
X-0011710D01*
X-0011684Y-0005966D02*
Y-0009842D01*
X-0010934Y-0010592D01*
X-0009434D01*
X-0008720Y-0009878D01*
Y-0009092D01*
X-0017500Y-0000950D02*
X-0019090D01*
X-0012180Y-0006400D02*
Y-0009400D01*
X-0017760D01*
X-0018000Y-0009640D02*
Y-0011000D01*
X-0008208Y-0009092D02*
Y-0010610D01*
X-0008448Y-0010850D02*
X-0011910D01*
X-0012150Y-0010610D02*
Y-0009650D01*
X-0012180D01*
Y-0009400D01*
X-0017760D01*
X-0018000Y-0009640D02*
Y-0011000D01*
X-0008302Y0023490D02*
Y0022700D01*
X-0006770D01*
X-0015050Y0032200D02*
X-0040900D01*
X-0041150Y0032450D01*
X-0047300Y0033350D02*
Y0032300D01*
X-0046976Y0031976D01*
Y0031092D01*
X-0008302Y0023490D02*
Y0022700D01*
X-0006770D01*
X-0006150D01*
Y0022760D01*
X-0005910Y0023000D02*
X-0004000D01*
X-0046976Y0020850D02*
X-0016000D01*
X-0015970Y0027810D02*
X-0007850D01*
X-0008104Y0008292D02*
Y0007650D01*
X-0007440D01*
X-0007200Y0007890D02*
Y0008330D01*
Y0007890D01*
X-0007440Y0007650D02*
X-0008104D01*
Y0008292D01*
X-0008302Y0020790D02*
Y0015190D01*
X-0008062Y0014950D02*
X-0007690D01*
X-0007450Y0014710D02*
Y0009430D01*
X-0007200Y0008330D02*
Y0007890D01*
X-0007440Y0007650D02*
X-0008104D01*
Y0008292D01*
X-0004160Y0004000D02*
X-0003350D01*
X-0007200Y0008330D02*
Y0007890D01*
X-0007440Y0007650D02*
X-0008104D01*
Y0008292D01*
X-0048396Y-0002608D02*
Y-0000890D01*
X-0048636Y-0000650D02*
X-0052000D01*
Y0000000D01*
X-0052430Y-0000430D01*
X-0053180D01*
X-0053270Y-0000340D01*
Y0001200D01*
X-0051640Y0002830D01*
X-0009114D01*
X-0007850Y0004094D01*
Y0004600D01*
X-0008100Y0004850D01*
Y0005588D01*
X-0008104Y0005592D01*
X-0004000Y-0009000D02*
X-0006800D01*
Y-0008540D01*
Y-0007590D01*
X-0007040Y-0007350D02*
X-0007456D01*
X-0007696Y-0007110D02*
Y-0006392D01*
X-0048396Y0000092D02*
Y0001660D01*
X-0048156Y0001900D02*
X-0012700D01*
X-0006800Y-0008540D02*
Y-0009000D01*
X-0004000D01*
X-0004700Y0016000D02*
X-0006860D01*
X-0007100Y0015760D02*
Y0010512D01*
X-0006360Y0028750D02*
X-0004450D01*
Y0028070D02*
Y0023520D01*
Y0022480D02*
Y0020600D01*
X-0056350Y-0009000D02*
Y-0002950D01*
Y-0009000D02*
Y-0002950D01*
X-0037950Y0013450D02*
X-0008030D01*
X-0047958Y-0008150D02*
X-0016920D01*
X-0010350Y-0008900D02*
Y-0006200D01*
X-0009488Y-0009092D02*
Y-0007900D01*
Y-0006396D01*
X-0009384Y0008292D02*
Y0006950D01*
Y0005634D01*
X-0010094Y0020790D02*
Y0022020D01*
Y0023486D01*
X-0009070Y0023490D02*
Y0022020D01*
Y0020820D01*
X-0008872Y0008292D02*
Y0006950D01*
Y0005622D01*
X-0046092Y0000092D02*
Y-0001250D01*
Y-0002592D01*
X-0047628Y-0002608D02*
Y-0001250D01*
Y0000062D01*
X-0047116Y-0002608D02*
Y-0001250D01*
Y0000050D01*
X-0046604Y0000092D02*
Y-0001250D01*
Y-0002354D01*
X-0045696Y0028392D02*
Y0029700D01*
Y0031050D01*
X-0045184Y0031092D02*
Y0029700D01*
Y0028396D01*
X-0044672Y0028392D02*
Y0029700D01*
Y0031026D01*
X-0010000Y-0006392D02*
Y-0007900D01*
Y-0009092D01*
Y-0007900D01*
X-0009488D01*
Y-0009092D01*
Y-0007900D01*
X-0008976D01*
Y-0009092D01*
X-0008464Y-0006392D02*
Y-0007600D01*
Y-0009092D01*
X-0008976D02*
Y-0007900D01*
Y-0007600D01*
Y-0006392D01*
X-0008464Y-0009092D02*
Y-0007600D01*
X-0008976D01*
Y-0006392D01*
X-0047628Y-0002608D02*
Y-0001250D01*
X-0047116D01*
Y-0002608D01*
Y-0001250D01*
X-0046604D01*
Y0000092D01*
Y-0001250D01*
X-0046092D01*
Y0000092D01*
X-0009896Y0005592D02*
Y0006250D01*
Y0006950D01*
Y0008292D01*
Y0006950D01*
X-0009384D01*
Y0008292D01*
Y0006950D01*
X-0008872D01*
Y0008292D01*
X-0010606Y0023490D02*
Y0022020D01*
Y0020790D01*
X-0009582Y0023490D02*
Y0022020D01*
Y0020790D01*
X-0044672Y0028392D02*
Y0029700D01*
X-0045184D01*
Y0031092D01*
X-0044672Y0028392D02*
Y0029700D01*
X-0045696D02*
Y0028392D01*
X-0009070Y0023490D02*
Y0022020D01*
X-0009582D02*
Y0020790D01*
Y0022020D01*
X-0010094D02*
Y0020790D01*
Y0022020D01*
X-0010606D02*
Y0020790D01*
X-0010408Y0008292D02*
Y0007650D01*
X-0010450D01*
Y0006250D01*
X-0009896D01*
Y0005592D01*
Y0006250D01*
X-0010450D01*
X-0010700D01*
Y0005592D01*
X-0010408D01*
X-0047116Y-0002608D02*
Y-0001250D01*
X-0055000Y0001330D02*
Y0021000D01*
X-0045696Y0028392D02*
Y0029700D01*
X-0046200D02*
Y0029350D01*
X-0046208D01*
Y0028392D01*
Y0031092D02*
Y0030050D01*
X-0046200D01*
Y0029700D01*
Y0029350D01*
X-0046208D01*
Y0028392D01*
X-0008464Y-0009092D02*
Y-0007600D01*
X-0008872Y0006950D02*
Y0008292D01*
Y0006950D01*
X-0009070Y0022020D02*
Y0023490D01*
X-0010606Y0020790D02*
Y0022020D01*
X-0015350Y0029700D02*
X-0039480D01*
X-0044672D02*
Y0028392D01*
X-0056000Y0002000D02*
Y-0007360D01*
X-0055760Y-0007600D02*
X-0047650D01*
X-0045696Y0022850D02*
Y0022350D01*
X-0055760D01*
X-0056000Y0022110D02*
Y0002000D01*
X-0010500Y0001950D02*
X-0007490D01*
X-0007250Y0001710D02*
Y-0000360D01*
X-0007490Y-0000600D02*
X-0008260D01*
X-0008500Y-0000840D02*
Y-0001386D01*
X-0009896Y0013850D02*
X-0010710D01*
X-0010950Y0014090D02*
Y0014450D01*
X-0014310D01*
X-0014550Y0014690D02*
Y0022110D01*
X-0014790Y0022350D02*
X-0045696D01*
X-0055760D01*
X-0056000Y0022110D02*
Y0002000D01*
X-0009896Y0013850D02*
X-0010710D01*
X-0010950Y0014090D02*
Y0014450D01*
Y0018820D01*
Y0021510D02*
Y0024150D01*
X-0010900D01*
Y0024500D01*
X-0001630Y0031250D02*
X0004140D01*
Y0031310D01*
X-0046720Y0031092D02*
Y0028392D01*
X-0048140Y0000092D02*
Y-0002608D01*
X-0007952Y-0006392D02*
Y-0009092D01*
Y-0006392D02*
Y-0004498D01*
X-0008360Y0008292D02*
Y0009610D01*
X-0008558Y0023490D02*
Y0021540D01*
Y0020790D01*
Y0023490D02*
Y0024808D01*
Y0020790D02*
Y0021540D01*
X-0008360Y0005592D02*
Y0004460D01*
X-0046720Y0024042D02*
Y0023690D01*
X-0046960Y0023450D02*
X-0062260D01*
X-0062500Y0023210D02*
Y0010050D01*
X-0062000D01*
Y0010090D01*
X-0008360Y0005592D02*
Y0004460D01*
X-0048400Y-0007250D02*
Y-0003540D01*
X-0048160Y-0003300D02*
X-0048140D01*
Y-0002608D01*
X-0046720Y0024042D02*
Y0025560D01*
X-0046480Y0025800D02*
X-0045650D01*
X-0046720Y0026900D02*
Y0028392D01*
X-0062500Y-0007510D02*
Y0010050D01*
X-0062000D01*
Y0010090D01*
Y0010050D01*
X-0062500D01*
Y-0007510D01*
X-0048750Y-0007930D02*
Y-0010200D01*
X-0008300Y0002300D02*
X-0006990D01*
X-0006750Y0002060D02*
Y-0002210D01*
X-0006990Y-0002450D02*
X-0007660D01*
X-0007900Y-0002690D02*
Y-0004498D01*
X-0007952D01*
Y-0006392D01*
X-0046976Y0028392D02*
Y0029176D01*
X-0047050Y0029250D01*
X-0051460D01*
X-0051700Y0029490D02*
Y0033760D01*
X-0051460Y0034000D02*
X-0051000D01*
X0002700Y0010365D02*
Y0020210D01*
X0002460Y0020450D02*
X0000790D01*
X0000550Y0020690D02*
Y0029110D01*
X0000310Y0029350D02*
X-0040800D01*
Y0029250D01*
X-0041150D01*
X-0047050D02*
X-0046976Y0029176D01*
Y0028392D01*
X-0050450Y0026200D02*
Y0023780D01*
X0002100Y0017100D02*
X-0000610D01*
X-0000850Y0017340D02*
Y0028860D01*
X-0001090Y0029100D02*
X-0039400D01*
Y0028900D01*
X-0039750D01*
X-0007696Y-0009092D02*
Y-0011510D01*
X-0007936Y-0011750D02*
X-0059860D01*
X-0060100Y-0011510D02*
Y0010360D01*
X-0060340Y0010600D02*
X-0060880D01*
Y0010635D01*
X-0007600Y0001180D02*
Y0001200D01*
X-0007750D01*
Y0001550D01*
X-0040700D01*
G01X-0007200Y-0003700D02*
G03X-0007440Y-0003940I0000000J0000240D01*
G01X-0047472Y0027300D02*
G03X-0047232Y0027540I0000000J0000240D01*
G01X-0061500Y0011440D02*
G03X-0061260Y0011200I0000240J0000000D01*
G01X-0047472Y0027300D02*
G03X-0047232Y0027540I0000000J0000240D01*
G01X-0047472Y0027300D02*
G03X-0047232Y0027540I0000000J0000240D01*
G01X-0036290Y0026311D02*
G03X-0036050Y0026551I0000000J0000240D01*
G01X-0005550Y-0002210D02*
G03X-0005310Y-0002450I0000240J0000000D01*
G01X-0052600Y0000950D02*
G03X-0052840Y0000710I0000000J0000240D01*
G01X0009050Y0009610D02*
G03X0008810Y0009850I0000240J0000000D01*
Y-0002450D02*
G03X0009050Y-0002210I0000000J0000240D01*
G01X0008750Y0030660D02*
G03X0008510Y0030900I0000240J0000000D01*
G01X-0053360Y0022000D02*
G03X-0053600Y0021760I0000000J0000240D01*
G01X-0053360Y0022000D02*
G03X-0053600Y0021760I0000000J0000240D01*
G01X-0058990Y-0005850D02*
G03X-0058750Y-0005610I0000000J0000240D01*
G01X-0059630D02*
G03X-0059390Y-0005850I0000240J0000000D01*
G01X-0048908Y-0001940D02*
G03X-0049148Y-0001700I0000240J0000000D01*
G01X-0049390D02*
G03X-0049630Y-0001940I0000000J0000240D01*
G01X-0006944Y-0005000D02*
G03X-0007184Y-0005240I0000000J0000240D01*
G01X-0004540Y-0005000D02*
G03X-0004300Y-0004760I0000000J0000240D01*
G01X-0006944Y-0005000D02*
G03X-0007184Y-0005240I0000000J0000240D01*
G01X-0004540Y-0005000D02*
G03X-0004300Y-0004760I0000000J0000240D01*
G01X0000260Y-0000700D02*
G03X0000500Y-0000460I0000000J0000240D01*
G01X0005740Y0011455D02*
G03X0005500Y0011215I0000000J0000240D01*
G01X-0056560Y0023100D02*
G03X-0056800Y0022860I0000000J0000240D01*
G01X0000140Y0004860D02*
G03X-0000100Y0005100I0000240J0000000D01*
G01X-0007352Y0006500D02*
G03X-0007592Y0006260I0000000J0000240D01*
G01X-0005866D02*
G03X-0006106Y0006500I0000240J0000000D01*
G01X0000140Y0004860D02*
G03X-0000100Y0005100I0000240J0000000D01*
G01X0000140Y0004860D02*
G03X-0000100Y0005100I0000240J0000000D01*
G01X0005750Y0023610D02*
G03X0005510Y0023850I0000240J0000000D01*
G01X-0007550Y0022350D02*
G03X-0007790Y0022110I0000000J0000240D01*
G01X-0007110Y0029840D02*
G03X-0006870Y0029600I0000240J0000000D01*
G01X0000920Y0029360D02*
G03X0000680Y0029600I0000240J0000000D01*
G01X0005750Y0023610D02*
G03X0005510Y0023850I0000240J0000000D01*
G01X-0007424Y-0009962D02*
G03X-0007184Y-0010202I0000240J0000000D01*
G01X-0043450Y0031910D02*
G03X-0043690Y0032150I0000240J0000000D01*
G01X-0045200D02*
G03X-0045440Y0031910I0000000J0000240D01*
G01X-0042960Y0032160D02*
G03X-0043200Y0032400I0000240J0000000D01*
G01X-0045712D02*
G03X-0045952Y0032160I0000000J0000240D01*
G01X-0042480Y0032410D02*
G03X-0042720Y0032650I0000240J0000000D01*
G01X-0046224D02*
G03X-0046464Y0032410I0000000J0000240D01*
G01X-0011280Y0020390D02*
G03X-0011040Y0020150I0000240J0000000D01*
G01X-0011770Y0020140D02*
G03X-0011530Y0019900I0000240J0000000D01*
G01X-0010078D02*
G03X-0009838Y0020140I0000000J0000240D01*
G01X-0010078Y0019900D02*
G03X-0009838Y0020140I0000000J0000240D01*
G01X-0011770D02*
G03X-0011530Y0019900I0000240J0000000D01*
G01X-0009566Y0019650D02*
G03X-0009326Y0019890I0000000J0000240D01*
G01X-0012290D02*
G03X-0012050Y0019650I0000240J0000000D01*
G01X-0009566D02*
G03X-0009326Y0019890I0000000J0000240D01*
G01X-0012290D02*
G03X-0012050Y0019650I0000240J0000000D01*
G01X-0012790Y0019390D02*
G03X-0012550Y0019150I0000240J0000000D01*
G01X-0009054D02*
G03X-0008814Y0019390I0000000J0000240D01*
G01X-0009054Y0019150D02*
G03X-0008814Y0019390I0000000J0000240D01*
G01X-0012790D02*
G03X-0012550Y0019150I0000240J0000000D01*
G01X-0011090Y0005190D02*
G03X-0010850Y0004950I0000240J0000000D01*
G01X-0009880Y0004700D02*
G03X-0009640Y0004940I0000000J0000240D01*
G01X-0011590D02*
G03X-0011350Y0004700I0000240J0000000D01*
G01X-0009368Y0004450D02*
G03X-0009128Y0004690I0000000J0000240D01*
G01X-0012090D02*
G03X-0011850Y0004450I0000240J0000000D01*
G01X-0009368D02*
G03X-0009128Y0004690I0000000J0000240D01*
G01X-0012090D02*
G03X-0011850Y0004450I0000240J0000000D01*
G01X-0012590Y0004440D02*
G03X-0012350Y0004200I0000240J0000000D01*
G01X-0009090D02*
G03X-0008850Y0004440I0000000J0000240D01*
G01X-0045400Y0000510D02*
G03X-0045640Y0000750I0000240J0000000D01*
G01X-0045400Y0000510D02*
G03X-0045640Y0000750I0000240J0000000D01*
G01X-0044900Y0000760D02*
G03X-0045140Y0001000I0000240J0000000D01*
G01X-0046620D02*
G03X-0046860Y0000760I0000000J0000240D01*
G01X-0044410Y0001010D02*
G03X-0044650Y0001250I0000240J0000000D01*
G01X-0047132D02*
G03X-0047372Y0001010I0000000J0000240D01*
G01X-0047644Y0001500D02*
G03X-0047884Y0001260I0000000J0000240D01*
G01X-0043890D02*
G03X-0044130Y0001500I0000240J0000000D01*
G01X-0047644D02*
G03X-0047884Y0001260I0000000J0000240D01*
G01X-0043890D02*
G03X-0044130Y0001500I0000240J0000000D01*
G01X-0010400Y-0009510D02*
G03X-0010160Y-0009750I0000240J0000000D01*
G01X-0017760Y-0009400D02*
G03X-0018000Y-0009640I0000000J0000240D01*
G01X-0008448Y-0010850D02*
G03X-0008208Y-0010610I0000000J0000240D01*
G01X-0012150D02*
G03X-0011910Y-0010850I0000240J0000000D01*
G01X-0017760Y-0009400D02*
G03X-0018000Y-0009640I0000000J0000240D01*
G01X-0005910Y0023000D02*
G03X-0006150Y0022760I0000000J0000240D01*
G01X-0007440Y0007650D02*
G03X-0007200Y0007890I0000000J0000240D01*
G01X-0007440Y0007650D02*
G03X-0007200Y0007890I0000000J0000240D01*
G01X-0008302Y0015190D02*
G03X-0008062Y0014950I0000240J0000000D01*
G01X-0007450Y0014710D02*
G03X-0007690Y0014950I0000240J0000000D01*
G01X-0007440Y0007650D02*
G03X-0007200Y0007890I0000000J0000240D01*
G01X-0007440Y0007650D02*
G03X-0007200Y0007890I0000000J0000240D01*
G01X-0048396Y-0000890D02*
G03X-0048636Y-0000650I0000240J0000000D01*
G01X-0006800Y-0007590D02*
G03X-0007040Y-0007350I0000240J0000000D01*
G01X-0007696Y-0007110D02*
G03X-0007456Y-0007350I0000240J0000000D01*
G01X-0048156Y0001900D02*
G03X-0048396Y0001660I0000000J0000240D01*
G01X-0006860Y0016000D02*
G03X-0007100Y0015760I0000000J0000240D01*
G01X-0056000Y-0007360D02*
G03X-0055760Y-0007600I0000240J0000000D01*
Y0022350D02*
G03X-0056000Y0022110I0000000J0000240D01*
G01X-0007250Y0001710D02*
G03X-0007490Y0001950I0000240J0000000D01*
Y-0000600D02*
G03X-0007250Y-0000360I0000000J0000240D01*
G01X-0008260Y-0000600D02*
G03X-0008500Y-0000840I0000000J0000240D01*
G01X-0010950Y0014090D02*
G03X-0010710Y0013850I0000240J0000000D01*
G01X-0014550Y0014690D02*
G03X-0014310Y0014450I0000240J0000000D01*
G01X-0014550Y0022110D02*
G03X-0014790Y0022350I0000240J0000000D01*
G01X-0055760D02*
G03X-0056000Y0022110I0000000J0000240D01*
G01X-0010950Y0014090D02*
G03X-0010710Y0013850I0000240J0000000D01*
G01X-0046960Y0023450D02*
G03X-0046720Y0023690I0000000J0000240D01*
G01X-0062260Y0023450D02*
G03X-0062500Y0023210I0000000J0000240D01*
G01X-0048160Y-0003300D02*
G03X-0048400Y-0003540I0000000J0000240D01*
G01X-0046480Y0025800D02*
G03X-0046720Y0025560I0000000J0000240D01*
G01X-0006750Y0002060D02*
G03X-0006990Y0002300I0000240J0000000D01*
Y-0002450D02*
G03X-0006750Y-0002210I0000000J0000240D01*
G01X-0007660Y-0002450D02*
G03X-0007900Y-0002690I0000000J0000240D01*
G01X-0051700Y0029490D02*
G03X-0051460Y0029250I0000240J0000000D01*
Y0034000D02*
G03X-0051700Y0033760I0000000J0000240D01*
G01X0002700Y0020210D02*
G03X0002460Y0020450I0000240J0000000D01*
G01X0000550Y0020690D02*
G03X0000790Y0020450I0000240J0000000D01*
G01X0000550Y0029110D02*
G03X0000310Y0029350I0000240J0000000D01*
G01X-0000850Y0017340D02*
G03X-0000610Y0017100I0000240J0000000D01*
G01X-0000850Y0028860D02*
G03X-0001090Y0029100I0000240J0000000D01*
G01X-0007936Y-0011750D02*
G03X-0007696Y-0011510I0000000J0000240D01*
G01X-0060100D02*
G03X-0059860Y-0011750I0000240J0000000D01*
G01X-0060100Y0010360D02*
G03X-0060340Y0010600I0000240J0000000D01*
G54D10*
X-0040310Y-0010440D03*
X-0015310D03*
X-0040310Y0033440D03*
X-0015310D03*
X0007440Y0014740D03*
Y0004900D03*
X-0061440Y0006260D03*
Y0016100D03*
G54D11*
X-0019090Y-0011000D03*
X-0020180D03*
X-0021270D03*
X-0022360D03*
X-0023450D03*
X-0024540D03*
X-0025630D03*
X-0026720D03*
X-0028900D03*
X-0029990D03*
X-0031080D03*
X-0032170D03*
X-0033260D03*
X-0034350D03*
X-0035440D03*
X-0036530D03*
X-0037620D03*
X-0019635Y-0009880D03*
X-0020725D03*
X-0021815D03*
X-0022905D03*
X-0023995D03*
X-0025085D03*
X-0026175D03*
X-0027265D03*
X-0028355D03*
X-0030535D03*
X-0031625D03*
X-0032715D03*
X-0033805D03*
X-0034895D03*
X-0035985D03*
X-0037075D03*
X-0019090Y0034000D03*
X-0020180D03*
X-0021270D03*
X-0022360D03*
X-0023450D03*
X-0024540D03*
X-0025630D03*
X-0026720D03*
X-0028900D03*
X-0029990D03*
X-0031080D03*
X-0032170D03*
X-0033260D03*
X-0034350D03*
X-0035440D03*
X-0036530D03*
X-0037620D03*
X-0019635Y0032880D03*
X-0020725D03*
X-0021815D03*
X-0022905D03*
X-0023995D03*
X-0025085D03*
X-0026175D03*
X-0027265D03*
X-0028355D03*
X-0030535D03*
X-0031625D03*
X-0032715D03*
X-0033805D03*
X-0034895D03*
X-0035985D03*
X-0037075D03*
X0008000Y0010910D03*
Y0009820D03*
Y0008730D03*
Y0007640D03*
X0006880Y0011455D03*
Y0010365D03*
Y0009275D03*
Y0008185D03*
X-0062000Y0010090D03*
Y0011180D03*
Y0012270D03*
Y0013360D03*
X-0060880Y0009545D03*
Y0010635D03*
Y0011725D03*
Y0012815D03*
G54D12*
X-0018000Y-0011000D03*
X-0027810D03*
X-0018545Y-0009880D03*
X-0029445D03*
X-0018000Y0034000D03*
X-0027810D03*
X-0018545Y0032880D03*
X-0029445D03*
X0008000Y0012000D03*
X-0062000Y0009000D03*
G54D13*
X-0055000Y0021000D03*
X-0056000Y0002000D03*
G54D14*
X-0047232Y0031092D03*
X-0046976D03*
X-0046720D03*
X-0046464D03*
X-0046208D03*
X-0045952D03*
X-0045696D03*
X-0045440D03*
X-0045184D03*
X-0044928D03*
X-0044672D03*
Y0028392D03*
X-0044928D03*
X-0045184D03*
X-0045440D03*
X-0045696D03*
X-0045952D03*
X-0046208D03*
X-0046464D03*
X-0046720D03*
X-0046976D03*
X-0047232D03*
X-0047488D03*
X-0008046Y0020790D03*
X-0008302D03*
X-0008558D03*
X-0008814D03*
X-0009070D03*
X-0009326D03*
X-0009582D03*
X-0009838D03*
X-0010094D03*
X-0010350D03*
X-0010606D03*
Y0023490D03*
X-0010350D03*
X-0010094D03*
X-0009838D03*
X-0009582D03*
X-0009326D03*
X-0009070D03*
X-0008814D03*
X-0008558D03*
X-0008302D03*
X-0008046D03*
X-0007790D03*
X-0007848Y0005592D03*
X-0008104D03*
X-0008360D03*
X-0008616D03*
X-0008872D03*
X-0009128D03*
X-0009384D03*
X-0009640D03*
X-0009896D03*
X-0010152D03*
X-0010408D03*
Y0008292D03*
X-0010152D03*
X-0009896D03*
X-0009640D03*
X-0009384D03*
X-0009128D03*
X-0008872D03*
X-0008616D03*
X-0008360D03*
X-0008104D03*
X-0007848D03*
X-0007592D03*
X-0048652Y0000092D03*
X-0048396D03*
X-0048140D03*
X-0047884D03*
X-0047628D03*
X-0047372D03*
X-0047116D03*
X-0046860D03*
X-0046604D03*
X-0046348D03*
X-0046092D03*
Y-0002608D03*
X-0046348D03*
X-0046604D03*
X-0046860D03*
X-0047116D03*
X-0047372D03*
X-0047628D03*
X-0047884D03*
X-0048140D03*
X-0048396D03*
X-0048652D03*
X-0048908D03*
X-0007440Y-0009092D03*
X-0007696D03*
X-0007952D03*
X-0008208D03*
X-0008464D03*
X-0008720D03*
X-0008976D03*
X-0009232D03*
X-0009488D03*
X-0009744D03*
X-0010000D03*
Y-0006392D03*
X-0009744D03*
X-0009488D03*
X-0009232D03*
X-0008976D03*
X-0008720D03*
X-0008464D03*
X-0008208D03*
X-0007952D03*
X-0007696D03*
X-0007440D03*
X-0007184D03*
G54D15*
X-0047488Y0031092D03*
X-0007790Y0020790D03*
X-0007592Y0005592D03*
X-0048908Y0000092D03*
X-0007184Y-0009092D03*
G54D16*
X-0051000Y0034000D03*
X-0050160D03*
X-0004000Y0023000D03*
X-0003160D03*
X-0004160Y0004000D03*
X-0005000D03*
X-0052000Y0000000D03*
X-0052840D03*
X-0004000Y-0009000D03*
X-0003160D03*
G54D17*
X0000140Y0000990D03*
X0001750Y0030050D03*
G54D18*
X-0007600Y0001180D03*
X-0040700Y0001550D03*
G54D20*
X0008050Y0008700D03*
X-0005200Y-0001300D03*
X0001750Y0009100D03*
X-0004650Y-0003700D03*
X-0059092Y0027342D03*
X-0059100Y0011200D03*
X-0008046Y0026320D03*
X0000000Y0030050D03*
X-0047500Y0025720D03*
X-0006750Y0011172D03*
X-0049300Y-0003328D03*
X-0006700Y0019500D03*
X-0053600Y0005450D03*
X-0051400Y0001440D03*
X-0053600Y0001450D03*
X-0048600Y0022000D03*
X-0059630Y-0005230D03*
X-0007400Y0027200D03*
X-0006150Y0008750D03*
X-0049630Y-0005330D03*
X-0005850Y-0003350D03*
X-0050800Y0027650D03*
X-0004300Y-0003350D03*
Y-0000700D03*
X0001250Y0008750D03*
X-0058750Y0013350D03*
X-0040950Y0031750D03*
X0005542Y0004842D03*
X-0056750Y-0008150D03*
X-0007184Y-0007950D03*
X-0050100Y0023100D03*
X-0005866Y0005142D03*
X-0004000Y0007320D03*
X0000920Y0023850D03*
X-0005650Y0022350D03*
X-0007110Y0030540D03*
X-0047500Y0030372D03*
X-0002700Y0028770D03*
Y0019500D03*
X-0050160Y0035600D03*
X0002960Y0030900D03*
X-0004610Y0030910D03*
X-0005530Y-0000722D03*
X-0037075Y0026675D03*
X-0044928Y0026652D03*
X-0035985Y0027200D03*
X-0043980Y0027180D03*
X-0034895Y0027695D03*
X-0043450Y0027670D03*
X-0033805Y0028105D03*
X-0042960Y0028100D03*
X-0032715Y0028515D03*
X-0042480Y0028540D03*
X-0008888Y0026270D03*
X-0031625Y0026290D03*
X-0030535Y0025985D03*
X-0009330Y0025970D03*
X-0029445Y0025560D03*
X-0009840D03*
X-0028355Y0025190D03*
X-0010340Y0025200D03*
X-0027265Y0024890D03*
X-0011280Y0024860D03*
X-0026175Y0024470D03*
X-0011770Y0024460D03*
X-0025085Y0024070D03*
X-0012290Y0024050D03*
X-0023995Y0023710D03*
X-0012790Y0023680D03*
X-0022905Y0011105D03*
X-0008690Y0011040D03*
X-0021815Y0010660D03*
X-0009140D03*
X-0009640Y0010310D03*
X-0020725D03*
X-0019635Y0009970D03*
X-0010140Y0009930D03*
X-0018545Y0009550D03*
X-0011090Y0009560D03*
X-0011590Y0009090D03*
X-0037620Y0009070D03*
X-0036530Y0008630D03*
X-0012090Y0008670D03*
X-0035440Y0008140D03*
X-0012590Y0008170D03*
X-0034350Y-0005400D03*
X-0047810Y-0005360D03*
X-0033260Y-0004860D03*
X-0047370Y-0004870D03*
X-0032170Y-0004420D03*
X-0046860D03*
X-0031080Y-0004030D03*
X-0046340Y-0004000D03*
X-0029990Y-0003540D03*
X-0045400Y-0003510D03*
X-0044910Y-0002980D03*
X-0028900Y-0003000D03*
X-0044410Y-0002510D03*
X-0027810D03*
X-0026720Y-0002070D03*
X-0043890Y-0002030D03*
X-0025630Y-0003530D03*
X-0008282Y-0003560D03*
X-0008710Y-0003830D03*
X-0024540Y-0004000D03*
X-0009220Y-0004180D03*
X-0023450Y-0004330D03*
X-0022360Y-0004510D03*
X-0009744Y-0004532D03*
X-0010710Y-0004920D03*
X-0021270D03*
X-0020180Y-0005320D03*
X-0011200Y-0005380D03*
X-0011690Y-0005900D03*
X-0011530Y0000650D03*
X-0008720D03*
X-0019090Y-0005910D03*
X-0017500Y-0000950D03*
X-0019090D03*
X-0012180Y-0006400D03*
X-0006770Y0022700D03*
X-0015050Y0032200D03*
X-0041150Y0032450D03*
X-0047300Y0033350D03*
X-0046976Y0020850D03*
X-0016000D03*
X-0015970Y0027810D03*
X-0007850D03*
X-0007450Y0009430D03*
X-0003350Y0004000D03*
X-0007200Y0008330D03*
X-0012700Y0001900D03*
X-0006800Y-0008540D03*
X-0004700Y0016000D03*
X-0007100Y0010512D03*
X-0006360Y0028750D03*
X-0004450D03*
Y0028070D03*
Y0023520D03*
Y0022480D03*
Y0020600D03*
X-0056350Y-0009000D03*
Y-0002950D03*
X-0037950Y0013450D03*
X-0008030D03*
X-0047958Y-0008150D03*
X-0016920D03*
X-0010350Y-0008900D03*
Y-0006200D03*
X-0009582Y0022020D03*
X-0010094D03*
X-0047116Y-0001250D03*
X-0055000Y0001330D03*
X-0045696Y0029700D03*
X-0046200D03*
X-0008464Y-0007600D03*
X-0008872Y0006950D03*
X-0009070Y0022020D03*
X-0010606D03*
X-0015350Y0029700D03*
X-0039480D03*
X-0044672D03*
X-0047650Y-0007600D03*
X-0045696Y0022850D03*
X-0010500Y0001950D03*
X-0008500Y-0001386D03*
X-0009896Y0013850D03*
X-0010950Y0018820D03*
Y0021510D03*
X-0010900Y0024500D03*
X-0001630Y0031250D03*
X0004140Y0031310D03*
X-0007952Y-0004498D03*
X-0008360Y0009610D03*
X-0008558Y0024808D03*
Y0021540D03*
X-0008360Y0004460D03*
X-0048400Y-0007250D03*
X-0046720Y0024042D03*
X-0045650Y0025800D03*
X-0046720Y0026900D03*
X-0062500Y-0007510D03*
X-0048750Y-0007930D03*
Y-0010200D03*
X-0008300Y0002300D03*
X0002700Y0010365D03*
X-0041150Y0029250D03*
X-0047050D03*
X-0050450Y0026200D03*
Y0023780D03*
X0002100Y0017100D03*
X-0039750Y0028900D03*
G54D21*
X-0056800Y0009545D03*
Y0001000D03*
X-0055550D03*
X-0053750D03*
X-0050850D03*
M02*
