*
G04 Mass Parameters ***
*
G04 Image ***
*
%IND:\DOCUMENTS\CIRCUIT LAYOUTS AND SCHEMATICS\SWTICH NETWORK\FINAL\SWITCH NETWORK.SMT*%
%ICAS*%
%MOIN*%
%IPPOS*%
%ASAXBY*%
G74*%FSLAN2X34Y34*%
*
G04 Aperture Definitions ***
*
%ADD10O,0.0900X0.0160*%
%ADD11R,0.0900X0.0160*%
%ADD12C,0.0620*%
%ADD13R,0.0620X0.0620*%
%ADD14R,0.0580X0.0580*%
%ADD15C,0.1200*%
%ADD16C,0.0630*%
%ADD17R,0.0630X0.0630*%
%ADD18R,0.0500X0.0500*%
%ADD19C,0.0300*%
%ADD20C,0.0300*%
%ADD21C,0.0100*%
%ADD22C,0.0300*%
*
G04 Plot Data ***
*
G54D10*
X0047000Y0031744D03*
Y0031488D03*
Y0031232D03*
Y0030976D03*
Y0030720D03*
Y0030464D03*
Y0030208D03*
Y0029952D03*
Y0029696D03*
Y0029440D03*
Y0029184D03*
X0049700D03*
Y0029440D03*
Y0029696D03*
Y0029952D03*
Y0030208D03*
Y0030464D03*
Y0030720D03*
Y0030976D03*
Y0031232D03*
Y0031488D03*
Y0031744D03*
Y0032000D03*
X0035000Y0031744D03*
Y0031488D03*
Y0031232D03*
Y0030976D03*
Y0030720D03*
Y0030464D03*
Y0030208D03*
Y0029952D03*
Y0029696D03*
Y0029440D03*
Y0029184D03*
X0037700D03*
Y0029440D03*
Y0029696D03*
Y0029952D03*
Y0030208D03*
Y0030464D03*
Y0030720D03*
Y0030976D03*
Y0031232D03*
Y0031488D03*
Y0031744D03*
Y0032000D03*
X0023000Y0031744D03*
Y0031488D03*
Y0031232D03*
Y0030976D03*
Y0030720D03*
Y0030464D03*
Y0030208D03*
Y0029952D03*
Y0029696D03*
Y0029440D03*
Y0029184D03*
X0025700D03*
Y0029440D03*
Y0029696D03*
Y0029952D03*
Y0030208D03*
Y0030464D03*
Y0030720D03*
Y0030976D03*
Y0031232D03*
Y0031488D03*
Y0031744D03*
Y0032000D03*
X0041000Y0011744D03*
Y0011488D03*
Y0011232D03*
Y0010976D03*
Y0010720D03*
Y0010464D03*
Y0010208D03*
Y0009952D03*
Y0009696D03*
Y0009440D03*
Y0009184D03*
X0043700D03*
Y0009440D03*
Y0009696D03*
Y0009952D03*
Y0010208D03*
Y0010464D03*
Y0010720D03*
Y0010976D03*
Y0011232D03*
Y0011488D03*
Y0011744D03*
Y0012000D03*
X0028000Y0011744D03*
Y0011488D03*
Y0011232D03*
Y0010976D03*
Y0010720D03*
Y0010464D03*
Y0010208D03*
Y0009952D03*
Y0009696D03*
Y0009440D03*
Y0009184D03*
X0030700D03*
Y0009440D03*
Y0009696D03*
Y0009952D03*
Y0010208D03*
Y0010464D03*
Y0010720D03*
Y0010976D03*
Y0011232D03*
Y0011488D03*
Y0011744D03*
Y0012000D03*
X0047000Y0024744D03*
Y0024488D03*
Y0024232D03*
Y0023976D03*
Y0023720D03*
Y0023464D03*
Y0023208D03*
Y0022952D03*
Y0022696D03*
Y0022440D03*
Y0022184D03*
X0049700D03*
Y0022440D03*
Y0022696D03*
Y0022952D03*
Y0023208D03*
Y0023464D03*
Y0023720D03*
Y0023976D03*
Y0024232D03*
Y0024488D03*
Y0024744D03*
Y0025000D03*
X0035000Y0024744D03*
Y0024488D03*
Y0024232D03*
Y0023976D03*
Y0023720D03*
Y0023464D03*
Y0023208D03*
Y0022952D03*
Y0022696D03*
Y0022440D03*
Y0022184D03*
X0037700D03*
Y0022440D03*
Y0022696D03*
Y0022952D03*
Y0023208D03*
Y0023464D03*
Y0023720D03*
Y0023976D03*
Y0024232D03*
Y0024488D03*
Y0024744D03*
Y0025000D03*
X0023000Y0024744D03*
Y0024488D03*
Y0024232D03*
Y0023976D03*
Y0023720D03*
Y0023464D03*
Y0023208D03*
Y0022952D03*
Y0022696D03*
Y0022440D03*
Y0022184D03*
X0025700D03*
Y0022440D03*
Y0022696D03*
Y0022952D03*
Y0023208D03*
Y0023464D03*
Y0023720D03*
Y0023976D03*
Y0024232D03*
Y0024488D03*
Y0024744D03*
Y0025000D03*
X0041000Y0005744D03*
Y0005488D03*
Y0005232D03*
Y0004976D03*
Y0004720D03*
Y0004464D03*
Y0004208D03*
Y0003952D03*
Y0003696D03*
Y0003440D03*
Y0003184D03*
X0043700D03*
Y0003440D03*
Y0003696D03*
Y0003952D03*
Y0004208D03*
Y0004464D03*
Y0004720D03*
Y0004976D03*
Y0005232D03*
Y0005488D03*
Y0005744D03*
Y0006000D03*
X0028000Y0005744D03*
Y0005488D03*
Y0005232D03*
Y0004976D03*
Y0004720D03*
Y0004464D03*
Y0004208D03*
Y0003952D03*
Y0003696D03*
Y0003440D03*
Y0003184D03*
X0030700D03*
Y0003440D03*
Y0003696D03*
Y0003952D03*
Y0004208D03*
Y0004464D03*
Y0004720D03*
Y0004976D03*
Y0005232D03*
Y0005488D03*
Y0005744D03*
Y0006000D03*
G54D11*
X0047000Y0032000D03*
X0035000D03*
X0023000D03*
X0041000Y0012000D03*
X0028000D03*
X0047000Y0025000D03*
X0035000D03*
X0023000D03*
X0041000Y0006000D03*
X0028000D03*
G54D12*
X0057000Y0014000D03*
Y0015000D03*
Y0016000D03*
Y0009000D03*
Y0010000D03*
Y0011000D03*
G54D13*
Y0013000D03*
Y0008000D03*
G54D14*
Y0023000D03*
Y0029000D03*
G54D15*
X0048310Y0016560D03*
X0023310D03*
G54D16*
X0027090Y0016000D03*
X0028180D03*
X0029270D03*
X0030360D03*
X0031450D03*
X0032540D03*
X0033630D03*
X0034720D03*
X0036900D03*
X0037990D03*
X0039080D03*
X0040170D03*
X0041260D03*
X0042350D03*
X0043440D03*
X0044530D03*
X0045620D03*
X0027635Y0017120D03*
X0028725D03*
X0029815D03*
X0030905D03*
X0031995D03*
X0033085D03*
X0034175D03*
X0035265D03*
X0036355D03*
X0038535D03*
X0039625D03*
X0040715D03*
X0041805D03*
X0042895D03*
X0043985D03*
X0045075D03*
G54D17*
X0026000Y0016000D03*
X0035810D03*
X0026545Y0017120D03*
X0037445D03*
G54D18*
X0042000Y0032000D03*
X0042840D03*
X0043000Y0025000D03*
X0043840D03*
X0030000Y0032000D03*
X0030840D03*
X0024000Y0011000D03*
X0023160D03*
X0035000D03*
X0035840D03*
X0030000Y0025000D03*
X0030840D03*
X0022000Y0005000D03*
X0022840D03*
X0035000Y0004000D03*
X0035840D03*
G54D19*
X0039250Y0025250D03*
G54D20*
X0047500Y0007750D03*
Y0009000D03*
X0047250Y0026250D03*
X0048250Y0031000D03*
Y0026500D03*
X0029250Y0031250D03*
Y0026500D03*
X0041000Y0031000D03*
X0047750Y0024750D03*
X0029750Y0011500D03*
X0029250Y0025000D03*
X0028750Y0006750D03*
X0035250Y0026000D03*
X0021750Y0025000D03*
X0022250Y0011000D03*
X0036500Y0008500D03*
X0042500Y0012750D03*
X0043500Y0013250D03*
X0027000Y0009000D03*
Y0010000D03*
X0054000Y0009750D03*
X0034250Y0029000D03*
X0034000Y0030000D03*
X0027250Y0028250D03*
Y0029250D03*
X0045750Y0012750D03*
X0036500Y0007250D03*
X0030500Y0032750D03*
X0035750D03*
X0045750Y0031750D03*
Y0025000D03*
X0036500Y0004000D03*
Y0011000D03*
X0047750Y0031500D03*
X0036750Y0028000D03*
X0026750Y0027500D03*
X0030000Y0012250D03*
Y0006500D03*
X0036750Y0025000D03*
Y0032000D03*
X0043250Y0006750D03*
X0049500Y0013500D03*
X0026750Y0031750D03*
Y0025250D03*
X0049000Y0032250D03*
Y0025250D03*
X0024750Y0022500D03*
X0040000Y0004000D03*
X0040250Y0003000D03*
X0056500Y0024750D03*
X0029750Y0004000D03*
Y0005000D03*
X0042750Y0012000D03*
X0026500Y0005750D03*
X0039250Y0009000D03*
X0025250Y0011500D03*
X0024500Y0025000D03*
X0024750Y0028750D03*
X0024250Y0031500D03*
X0046250Y0031000D03*
X0032250Y0031500D03*
X0032500Y0024500D03*
X0039000Y0005500D03*
X0039250Y0011500D03*
X0046250Y0024000D03*
X0046750Y0008250D03*
X0049750Y0021750D03*
Y0028750D03*
X0036250Y0030250D03*
Y0023750D03*
X0041250Y0006500D03*
X0028250Y0014750D03*
X0041750D03*
Y0012250D03*
X0036250Y0028500D03*
X0034250Y0022500D03*
X0031500Y0027500D03*
X0026250Y0026250D03*
X0026500Y0032250D03*
X0031500Y0012000D03*
Y0006750D03*
X0043750Y0012500D03*
X0044000Y0007000D03*
X0032750Y0030250D03*
X0033000Y0023250D03*
X0047750Y0031000D03*
X0049000Y0014000D03*
X0038750Y0029750D03*
X0039750Y0030500D03*
X0038750Y0032000D03*
X0033750Y0031000D03*
X0035000Y0032500D03*
Y0025500D03*
X0033250Y0029250D03*
Y0022750D03*
X0045000Y0029000D03*
X0048500Y0032000D03*
Y0025250D03*
X0038750Y0022500D03*
X0039000Y0028750D03*
X0039250Y0023250D03*
X0038500Y0023000D03*
X0037250Y0028750D03*
X0028250Y0030250D03*
X0038500Y0003750D03*
X0034000Y0024000D03*
X0031500Y0005000D03*
X0021750Y0030000D03*
X0038000Y0004500D03*
X0035250Y0010000D03*
X0045000Y0009250D03*
X0027500Y0030000D03*
X0032250Y0004000D03*
X0040000Y0010000D03*
X0032250Y0009250D03*
Y0011000D03*
X0025750Y0014750D03*
X0046250Y0014500D03*
Y0011750D03*
X0048000Y0024000D03*
Y0019250D03*
X0022250Y0024000D03*
X0023000Y0019750D03*
X0043500D03*
X0024750Y0032250D03*
X0045750Y0003250D03*
X0044000Y0015500D03*
X0039750Y0024000D03*
X0039250Y0027500D03*
X0028000Y0024000D03*
X0042500Y0002500D03*
X0044750Y0004000D03*
X0045250Y0010250D03*
X0042500Y0004500D03*
X0038000Y0010250D03*
X0040250Y0009250D03*
X0031500Y0003500D03*
X0052750Y0026000D03*
Y0032000D03*
X0023250Y0025500D03*
Y0032500D03*
X0027000Y0005000D03*
X0025500Y0009000D03*
X0021750Y0032000D03*
X0026000Y0032500D03*
X0026500Y0012500D03*
X0026750Y0014250D03*
X0035250Y0011750D03*
X0040250Y0024250D03*
X0022500Y0017750D03*
X0028750Y0004000D03*
X0029000Y0010250D03*
X0028000Y0006500D03*
X0028250Y0012500D03*
X0026500Y0022000D03*
X0024250Y0030500D03*
Y0023500D03*
X0043500Y0030500D03*
X0042250Y0010500D03*
X0033250Y0005000D03*
X0029500Y0002500D03*
X0034500Y0005000D03*
X0024250Y0008250D03*
X0024000Y0025000D03*
X0029500Y0008750D03*
X0027250Y0015250D03*
X0026750Y0007000D03*
X0028250Y0031000D03*
X0025500Y0028250D03*
X0043000Y0023500D03*
X0026000Y0021500D03*
X0046500Y0032500D03*
X0045000Y0004750D03*
X0027250Y0003500D03*
X0026500Y0011000D03*
X0031750Y0010000D03*
X0029750Y0023500D03*
X0044750Y0022250D03*
X0039250Y0031500D03*
X0046250Y0020750D03*
X0021750D03*
Y0022250D03*
X0044500Y0010750D03*
X0037750Y0025750D03*
X0033500Y0032500D03*
X0022000Y0023500D03*
X0022250Y0030250D03*
X0028250Y0023000D03*
M02*
