*
G04 Mass Parameters ***
*
G04 Image ***
*
%IND:\DOCUMENTS\CIRCUIT LAYOUTS AND SCHEMATICS\SWTICH NETWORK\FINAL\SWITCH NETWORK.TOP*%
%ICAS*%
%MOIN*%
%IPPOS*%
%ASAXBY*%
G74*%FSLAN2X34Y34*%
*
G04 Aperture Definitions ***
*
%ADD10O,0.0900X0.0160*%
%ADD11R,0.0900X0.0160*%
%ADD12C,0.0620*%
%ADD13R,0.0620X0.0620*%
%ADD14R,0.0580X0.0580*%
%ADD15C,0.1200*%
%ADD16C,0.0630*%
%ADD17R,0.0630X0.0630*%
%ADD18R,0.0500X0.0500*%
%ADD19C,0.0300*%
%ADD20C,0.0300*%
%ADD21C,0.0100*%
%ADD22C,0.0300*%
*
G04 Plot Data ***
*
G54D21*
G01X0057483Y0030875D02*
Y0030542D01*
X0057650Y0030708D02*
X0057317D01*
X0057075Y0030458D02*
Y0030708D01*
X0057033Y0030792D01*
X0056783D01*
Y0030458D01*
X0056542D02*
X0056375D01*
X0056458D02*
Y0030958D01*
X0056542D02*
X0056375D01*
X0058983Y0007708D02*
Y0008208D01*
X0058942Y0007708D02*
X0059192D01*
X0059275Y0007875D01*
Y0008042D01*
X0059192Y0008208D01*
X0058942D01*
X0058700D02*
Y0007708D01*
X0058617Y0007792D01*
X0058450Y0008125D01*
X0058367Y0008208D01*
Y0007708D01*
X0057958Y0007958D02*
X0058125D01*
Y0007792D01*
X0058083Y0007708D01*
X0057833D01*
X0057792Y0007792D01*
Y0008125D01*
X0057833Y0008208D01*
X0058083D01*
X0058125Y0008125D01*
X0059275Y0009125D02*
X0059233Y0009208D01*
X0058983D01*
X0058942Y0009125D01*
Y0009042D01*
X0058983Y0008958D01*
X0059233D01*
X0059275Y0008875D01*
Y0008792D01*
X0059233Y0008708D01*
X0058983D01*
X0058942Y0008792D01*
X0058700Y0009125D02*
X0058658Y0009208D01*
X0058408D01*
X0058367Y0009125D01*
Y0009042D01*
X0058408Y0008958D01*
X0058658D01*
X0058700Y0008875D01*
Y0008792D01*
X0058658Y0008708D01*
X0058408D01*
X0058367Y0008792D01*
X0058125Y0009208D02*
Y0009042D01*
X0057958Y0008708D01*
X0057792Y0009042D01*
Y0009208D01*
X0059233Y0009708D02*
Y0010208D01*
X0059192Y0009708D02*
X0059442D01*
X0059525Y0009875D01*
Y0010042D01*
X0059442Y0010208D01*
X0059192D01*
X0058658Y0009708D02*
Y0010208D01*
X0058617Y0009708D02*
X0058867D01*
X0058950Y0009875D01*
Y0010042D01*
X0058867Y0010208D01*
X0058617D01*
X0058375D02*
Y0010042D01*
X0058208Y0009708D01*
X0058042Y0010042D01*
Y0010208D01*
X0060917Y0011125D02*
X0060750Y0010792D01*
X0060917D02*
X0060750Y0011125D01*
X0061000Y0010958D02*
X0060667D01*
X0060258Y0010708D02*
Y0011208D01*
X0060425D02*
X0060092D01*
X0059767Y0010958D02*
X0059517D01*
X0059850Y0010708D02*
X0059517D01*
Y0011208D01*
X0059850D01*
X0059275Y0011125D02*
X0059233Y0011208D01*
X0058983D01*
X0058942Y0011125D01*
Y0011042D01*
X0058983Y0010958D01*
X0059233D01*
X0059275Y0010875D01*
Y0010792D01*
X0059233Y0010708D01*
X0058983D01*
X0058942Y0010792D01*
X0058617Y0010958D02*
X0058367D01*
X0058700Y0010708D02*
X0058367D01*
Y0011208D01*
X0058700D01*
X0058000Y0010958D02*
X0058125Y0010708D01*
X0057792Y0010958D02*
X0058042D01*
X0058125Y0011042D01*
Y0011125D01*
X0058042Y0011208D01*
X0057792D01*
Y0010708D01*
X0060342Y0013125D02*
X0060175Y0012792D01*
X0060342D02*
X0060175Y0013125D01*
X0060425Y0012958D02*
X0060092D01*
X0059850Y0012792D02*
X0059808Y0012708D01*
X0059558D01*
X0059517Y0012792D01*
Y0013125D01*
X0059558Y0013208D01*
X0059808D01*
X0059850Y0013125D01*
X0059275Y0013208D02*
Y0012708D01*
X0059192Y0012792D01*
X0059025Y0013125D01*
X0058942Y0013208D01*
Y0012708D01*
X0058533D02*
Y0012958D01*
X0058700Y0013208D02*
X0058575Y0012958D01*
X0058492D01*
X0058367Y0013208D01*
X0058125Y0013125D02*
X0058083Y0013208D01*
X0057833D01*
X0057792Y0013125D01*
Y0013042D01*
X0057833Y0012958D01*
X0058083D01*
X0058125Y0012875D01*
Y0012792D01*
X0058083Y0012708D01*
X0057833D01*
X0057792Y0012792D01*
X0060058Y0013708D02*
X0059808Y0013958D01*
X0060058Y0014208D01*
X0059725D02*
Y0013708D01*
X0059483D02*
X0059192D01*
Y0014208D01*
X0058950Y0013792D02*
X0058908Y0013708D01*
X0058658D01*
X0058617Y0013792D01*
Y0014125D01*
X0058658Y0014208D01*
X0058908D01*
X0058950Y0014125D01*
X0058375D02*
X0058333Y0014208D01*
X0058083D01*
X0058042Y0014125D01*
Y0014042D01*
X0058083Y0013958D01*
X0058333D01*
X0058375Y0013875D01*
Y0013792D01*
X0058333Y0013708D01*
X0058083D01*
X0058042Y0013792D01*
X0060017Y0014958D02*
X0059683D01*
X0059442Y0015208D02*
Y0014708D01*
X0059358Y0014792D01*
X0059192Y0015125D01*
X0059108Y0015208D01*
Y0014708D01*
X0058867D02*
X0058700D01*
X0058783D02*
Y0015208D01*
X0058867D02*
X0058700D01*
X0058083Y0014708D02*
Y0015208D01*
X0058042Y0014708D02*
X0058292D01*
X0058375Y0014875D01*
Y0015042D01*
X0058292Y0015208D01*
X0058042D01*
X0059850Y0016375D02*
Y0016042D01*
X0060017Y0016208D02*
X0059683D01*
X0059442Y0016458D02*
Y0015958D01*
X0059358Y0016042D01*
X0059192Y0016375D01*
X0059108Y0016458D01*
Y0015958D01*
X0058867D02*
X0058700D01*
X0058783D02*
Y0016458D01*
X0058867D02*
X0058700D01*
X0058083Y0015958D02*
Y0016458D01*
X0058042Y0015958D02*
X0058292D01*
X0058375Y0016125D01*
Y0016292D01*
X0058292Y0016458D01*
X0058042D01*
X0057900Y0021208D02*
X0057567D01*
X0057325Y0020958D02*
Y0021208D01*
X0057283Y0021292D01*
X0057033D01*
Y0020958D01*
X0056792D02*
X0056625D01*
X0056708D02*
Y0021458D01*
X0056792D02*
X0056625D01*
X0043700Y0011232D02*
X0044750D01*
X0045232Y0010750D01*
X0054750D01*
Y0009000D01*
X0057000D01*
X0054750D01*
X0047500D01*
Y0007750D02*
X0045250D01*
X0044750Y0007250D01*
Y0005482D01*
X0044500Y0005232D01*
X0043700D01*
X0049700Y0024232D02*
X0048768D01*
X0048250Y0024750D01*
X0047750D01*
X0047500Y0009000D02*
X0054750D01*
X0057000D01*
X0025700Y0024232D02*
X0026482D01*
X0026750Y0024500D01*
X0028750D01*
X0029250Y0025000D01*
Y0026500D02*
X0036000D01*
X0036250Y0026250D01*
Y0025000D01*
X0037018Y0024232D01*
X0037700D01*
X0049700D02*
X0048768D01*
X0048250Y0024750D01*
X0047750D01*
X0047250Y0026250D02*
Y0026500D01*
X0036750D01*
X0036500Y0026250D01*
X0036250D01*
Y0025000D01*
X0037018Y0024232D01*
X0037700D01*
X0049700Y0031232D02*
X0049000D01*
X0048750Y0031482D01*
X0048732D01*
X0048250Y0031000D01*
Y0026500D02*
X0047250D01*
X0036750D01*
X0036500Y0026250D01*
X0036250D01*
Y0025000D01*
X0037018Y0024232D01*
X0037700D01*
X0025700Y0031232D02*
X0026500D01*
X0026518Y0031250D01*
X0027500D01*
X0027750Y0031500D01*
X0029000D01*
X0029250Y0031250D01*
Y0026500D02*
X0036000D01*
X0036250Y0026250D01*
Y0025000D01*
X0037018Y0024232D01*
X0037700D01*
Y0031232D02*
X0038750D01*
X0038982Y0031000D01*
X0041000D01*
X0047750Y0024750D02*
X0048250D01*
X0048768Y0024232D01*
X0049700D01*
X0030700Y0011232D02*
X0030000D01*
X0029750Y0011482D01*
Y0011500D01*
X0029250Y0025000D02*
X0028750Y0024500D01*
X0026750D01*
X0026482Y0024232D01*
X0025700D01*
X0026482D01*
X0026750Y0024500D01*
X0028750D01*
X0029250Y0025000D01*
X0028750Y0006750D02*
X0029000Y0006500D01*
Y0006250D01*
X0030018Y0005232D01*
X0030700D01*
X0035000Y0031744D02*
X0035625D01*
X0035750Y0031869D01*
Y0032750D01*
X0035250Y0026000D02*
X0031840D01*
X0030840Y0025000D01*
X0023000Y0024744D02*
X0022250D01*
Y0025000D01*
X0021750D01*
X0022250Y0011000D02*
X0023160D01*
X0022840Y0005000D02*
Y0005500D01*
X0023000Y0005660D01*
Y0007000D01*
X0023500Y0007500D01*
X0027500D01*
X0027698Y0007302D01*
X0028052D01*
Y0006948D01*
X0028750Y0006250D01*
Y0005869D01*
X0028625Y0005744D01*
X0028000D01*
X0035840Y0011000D02*
X0036500D01*
Y0008500D02*
X0036250Y0008250D01*
X0035500D01*
X0035250Y0008000D01*
X0028750D01*
X0028052Y0007302D01*
Y0006948D01*
X0028750Y0006250D01*
Y0005869D01*
X0028625Y0005744D01*
X0028000D01*
X0041000Y0011744D02*
X0041744D01*
X0041750Y0011750D01*
X0042000D01*
X0042500Y0012250D01*
Y0012750D01*
X0043500Y0013250D02*
X0045250D01*
X0045750Y0012750D01*
X0053750D01*
X0056500Y0010000D01*
X0057000D01*
X0049700Y0030208D02*
X0049000D01*
Y0030000D01*
X0048958Y0029958D01*
Y0029792D01*
X0049054Y0029696D01*
X0049700D01*
X0035000D02*
X0035570D01*
X0035766Y0029500D01*
X0036250D01*
Y0029750D01*
X0036000D01*
X0035542Y0030208D01*
X0035000D01*
X0037700Y0029696D02*
X0037000D01*
Y0029750D01*
X0036958Y0029792D01*
Y0030082D01*
X0037082D01*
Y0030208D01*
X0037700D01*
X0038500D01*
X0038542Y0030250D01*
X0039000D01*
X0039250Y0030000D01*
X0046304D01*
X0046512Y0030208D01*
X0047000D01*
X0025700Y0030720D02*
X0025030D01*
X0024750Y0031000D01*
X0024030D01*
X0023750Y0030720D01*
X0023662D01*
X0023000D01*
X0049700D02*
X0049000D01*
Y0030750D01*
X0048500D01*
X0048250Y0030500D01*
X0048082D01*
X0047994Y0030412D01*
X0047702D01*
Y0030208D01*
X0047000D01*
X0035000D02*
X0035542D01*
X0036000Y0029750D01*
X0036250D01*
X0036500D01*
X0036542Y0029792D01*
X0036958D01*
X0037000Y0029750D01*
Y0029696D01*
X0037700D01*
X0028000Y0009184D02*
X0027434D01*
X0027250Y0009000D01*
X0027000D01*
Y0010000D02*
X0027208Y0010208D01*
X0028000D01*
X0041000Y0009184D02*
X0041500D01*
X0041750Y0009434D01*
Y0009500D01*
X0042250D01*
X0042696Y0009946D01*
X0042750D01*
X0043000Y0009696D01*
X0043700D01*
X0054000Y0009750D02*
X0044804D01*
X0044750Y0009696D01*
X0043700D01*
X0041000Y0009184D02*
X0041500D01*
X0041750Y0009434D01*
Y0009500D01*
X0041716D01*
X0041662Y0009554D01*
Y0009588D01*
X0041554Y0009696D01*
X0041000D01*
Y0009184D02*
X0040566Y0008750D01*
X0040000D01*
X0039250Y0009500D01*
X0035000D01*
X0034250Y0008750D01*
X0030740D01*
X0030700Y0008790D01*
Y0008898D01*
Y0009184D01*
X0035000Y0029184D02*
X0034500D01*
X0034368Y0029052D01*
X0034302D01*
Y0029000D01*
X0034250D01*
X0034000Y0030000D02*
X0034208Y0030208D01*
X0035000D01*
X0023000Y0029184D02*
Y0027500D01*
X0023250Y0027250D01*
X0026000D01*
X0027000Y0028250D01*
X0027250D01*
Y0029250D02*
X0026750D01*
X0026684Y0029184D01*
X0026434D01*
X0025700D01*
X0035000D02*
X0034500D01*
X0034368Y0029052D01*
X0034302D01*
Y0029000D01*
X0034250D01*
Y0028986D01*
Y0028750D01*
X0033750Y0028250D01*
X0027250D01*
X0027000D01*
X0026000Y0027250D01*
X0023250D01*
X0023000Y0027500D01*
Y0029184D01*
X0037700Y0024744D02*
X0037006D01*
Y0024863D01*
X0037000D01*
Y0025000D01*
Y0025750D01*
X0037500Y0026250D01*
X0037750D01*
X0038000Y0026000D01*
X0043000D01*
X0043250Y0025750D01*
X0048500D01*
X0049000Y0025250D01*
Y0024869D01*
X0049125Y0024744D01*
X0049700D01*
X0043700Y0010208D02*
X0042958D01*
X0042750Y0010000D01*
Y0009946D01*
X0043000Y0009696D01*
X0043700D01*
X0028000Y0011744D02*
X0028625D01*
X0028750Y0011869D01*
Y0012500D01*
X0028250Y0013000D01*
X0025000D01*
X0024500Y0012500D01*
Y0010750D01*
X0024250Y0010500D01*
X0023660D01*
X0023160Y0011000D01*
X0043840Y0025000D02*
X0045750D01*
Y0012750D02*
X0053750D01*
X0056500Y0010000D01*
X0057000D01*
X0041000Y0005744D02*
X0041625D01*
X0041750Y0005869D01*
Y0006500D01*
X0041250Y0007000D01*
X0036750D01*
X0036500Y0007250D01*
Y0004000D02*
X0035840D01*
X0028000Y0011744D02*
X0028625D01*
X0028750Y0011869D01*
Y0012500D01*
X0029250Y0013000D01*
X0035500D01*
X0036000Y0012500D01*
Y0011660D01*
X0035840Y0011500D01*
Y0011000D01*
X0023000Y0024744D02*
X0022250D01*
Y0025000D01*
Y0026500D01*
X0022750Y0027000D01*
X0028000D01*
X0029250Y0025750D01*
X0030090D01*
X0030840Y0025000D01*
Y0032000D02*
X0030500Y0032750D01*
X0030000D01*
X0029500D01*
X0029250Y0033000D01*
X0024750D01*
X0023750Y0032000D01*
Y0031869D01*
X0023625Y0031744D01*
X0023000D01*
X0030840Y0032000D02*
X0030500Y0032750D01*
X0035750D02*
Y0031869D01*
X0035625Y0031744D01*
X0035000D01*
X0042840Y0032000D02*
X0042340Y0031500D01*
X0041500D01*
X0040000Y0033000D01*
X0036250D01*
X0036000Y0032750D01*
X0035750D01*
Y0031869D01*
X0035625Y0031744D01*
X0035000D01*
X0042840Y0032000D02*
X0045500D01*
X0045750Y0031750D01*
Y0025000D02*
X0043840D01*
X0035000Y0024744D02*
X0035625D01*
X0035750Y0024869D01*
Y0025250D01*
X0035250Y0025750D01*
Y0026000D01*
X0031840D01*
X0030840Y0025000D01*
X0035840Y0004000D02*
X0036500D01*
Y0011000D02*
X0035840D01*
X0047000Y0024744D02*
X0046256D01*
X0046000Y0025000D01*
X0045750D01*
X0043840D01*
X0042840Y0032000D02*
X0045500D01*
X0045750Y0031750D01*
X0046250D01*
X0046256Y0031744D01*
X0047000D01*
X0057000Y0023000D02*
Y0024000D01*
X0057750Y0024750D01*
Y0029250D01*
X0057250Y0029750D01*
X0050554D01*
X0050500Y0029696D01*
X0049700D01*
X0023000D02*
X0023570D01*
X0023766Y0029500D01*
X0024250D01*
X0024696Y0029946D01*
X0024750D01*
X0025000Y0029696D01*
X0025700D01*
X0049700D02*
X0049054D01*
Y0029625D01*
X0049000Y0029571D01*
Y0029309D01*
X0049125Y0029184D01*
X0049700D01*
X0043700Y0010720D02*
X0043030D01*
X0042750Y0011000D01*
X0042030D01*
X0041750Y0010720D01*
X0041662D01*
X0041000D01*
X0030700D02*
X0030030D01*
X0029750Y0011000D01*
X0029030D01*
X0028750Y0010720D01*
X0028662D01*
X0028000D01*
X0041000Y0010208D02*
X0041500D01*
X0041750Y0009958D01*
Y0009946D01*
X0041554Y0009750D01*
Y0009696D01*
X0041000D01*
X0028000D02*
X0028570D01*
X0028766Y0009500D01*
X0029250D01*
X0029696Y0009946D01*
X0029750D01*
X0030000Y0009696D01*
X0030700D01*
X0043700Y0009184D02*
X0043125D01*
X0043000Y0009309D01*
Y0009696D01*
X0043700D01*
X0028000Y0010208D02*
X0028500D01*
X0028662Y0010370D01*
Y0010720D01*
X0028000D01*
X0041000Y0010208D02*
X0041500D01*
X0041662Y0010370D01*
Y0010720D01*
X0041000D01*
X0025700Y0029696D02*
X0025000D01*
X0024750Y0029446D01*
Y0029434D01*
X0025000Y0029184D01*
X0025700D01*
X0037700Y0029696D02*
X0037000D01*
X0036750Y0029446D01*
Y0029434D01*
X0037000Y0029184D01*
X0037700D01*
X0047000Y0029696D02*
X0047500D01*
X0047662Y0029534D01*
Y0029358D01*
X0047488Y0029184D01*
X0047000D01*
X0025700Y0030208D02*
X0024958D01*
X0024750Y0030000D01*
Y0029946D01*
X0025000Y0029696D01*
X0025700D01*
X0047000Y0030208D02*
X0046512D01*
X0046304Y0030000D01*
Y0029821D01*
X0046429Y0029696D01*
X0047000D01*
X0042000Y0032000D02*
X0042500Y0032500D01*
X0046500D01*
X0047750Y0031500D02*
X0047500D01*
X0047488Y0031488D01*
X0047000D01*
X0037700Y0029696D02*
X0037000D01*
Y0029750D01*
X0036958Y0029792D01*
Y0030082D01*
Y0030208D01*
X0037082D01*
X0037700D01*
X0049750Y0029184D02*
X0049700D01*
X0037700Y0031744D02*
X0037000D01*
X0036750Y0031994D01*
Y0032000D01*
Y0028000D02*
X0028750D01*
X0028250Y0027500D01*
X0026750D01*
Y0025250D02*
X0026244Y0024744D01*
X0025700D01*
X0030700Y0011744D02*
X0030125D01*
X0030000Y0011869D01*
Y0012250D01*
Y0006500D02*
Y0005869D01*
X0030125Y0005744D01*
X0030700D01*
X0031500D01*
X0031506Y0005750D01*
X0034000D01*
X0036000Y0007750D01*
X0036750D01*
X0037000Y0007500D01*
X0042250D01*
X0042750Y0007000D01*
Y0006750D01*
Y0006000D01*
X0043006Y0005744D01*
X0043700D01*
X0037700Y0024744D02*
X0037006D01*
Y0024863D01*
X0037000D01*
Y0025000D01*
X0036750D01*
Y0032000D02*
Y0031994D01*
X0037000Y0031744D01*
X0037700D01*
X0057000Y0011000D02*
X0054500Y0013500D01*
X0049500D01*
X0044250D01*
X0044000Y0013750D01*
X0043500D01*
X0043000Y0013250D01*
Y0012500D01*
X0042750Y0012250D01*
Y0011994D01*
X0043000Y0011744D01*
X0043700D01*
Y0005744D02*
X0043006D01*
X0042750Y0006000D01*
Y0006750D01*
X0043250D01*
X0042750Y0012000D02*
Y0011994D01*
X0043000Y0011744D01*
X0043700D01*
X0049700Y0024744D02*
X0049125D01*
X0049000Y0024869D01*
Y0025250D01*
X0049500Y0013500D02*
X0054500D01*
X0057000Y0011000D01*
X0025700Y0031744D02*
X0026500D01*
X0026506Y0031750D01*
X0026750D01*
Y0025250D02*
X0026244Y0024744D01*
X0025700D01*
X0049700Y0031744D02*
X0049125D01*
X0049000Y0031869D01*
Y0032250D01*
Y0025250D02*
Y0024869D01*
X0049125Y0024744D01*
X0049700D01*
X0025700Y0022184D02*
X0025000D01*
X0024750Y0022434D01*
Y0022500D01*
X0029750Y0004000D02*
X0029958Y0004208D01*
X0030700D01*
X0047000Y0023208D02*
X0046250D01*
Y0022750D01*
X0044250D01*
Y0021750D01*
X0044750Y0021250D01*
X0047250D01*
X0047750Y0021750D01*
Y0021934D01*
X0047500Y0022184D01*
X0047000D01*
X0041000Y0003184D02*
X0040500D01*
X0040316Y0003000D01*
X0040250D01*
X0039500Y0002250D01*
X0030500D01*
X0030250Y0002500D01*
X0030000D01*
Y0003184D01*
X0030700D01*
X0041000Y0004208D02*
X0040208D01*
X0040000Y0004000D01*
X0040250Y0003000D02*
X0040316D01*
X0040500Y0003184D01*
X0041000D01*
X0028000Y0003696D02*
X0028570D01*
X0028766Y0003500D01*
X0029250D01*
X0029696Y0003946D01*
X0029750D01*
X0030000Y0003696D01*
X0030054D01*
X0030700D01*
X0041000Y0004208D02*
X0041750D01*
X0041958Y0004000D01*
X0042958D01*
Y0003750D01*
X0042500D01*
X0042250Y0003500D01*
X0041766D01*
X0041570Y0003696D01*
X0041000D01*
X0028000Y0003184D02*
Y0002500D01*
X0026000D01*
X0025500Y0003000D01*
Y0003250D01*
X0025750Y0003500D01*
X0026500D01*
X0027208Y0004208D01*
X0028000D01*
X0043700Y0003696D02*
X0043054D01*
X0043000D01*
Y0003750D01*
X0042958D01*
Y0004000D01*
X0041958D01*
X0041750Y0004208D01*
X0041000D01*
X0041750D01*
X0041958Y0004000D01*
X0042958D01*
X0042998D01*
Y0004040D01*
X0043040D01*
X0043208Y0004208D01*
X0043700D01*
X0023000Y0023208D02*
X0022208D01*
X0021250Y0022250D01*
Y0021684D01*
X0021750Y0021184D01*
X0022000D01*
X0022250Y0021434D01*
Y0021934D01*
X0022500Y0022184D01*
X0023000D01*
X0025700Y0023208D02*
X0024958D01*
X0024723Y0022973D01*
Y0022723D01*
X0024473D01*
X0024250Y0022500D01*
X0023946D01*
X0023750Y0022696D01*
X0023625D01*
X0023000D01*
X0037700D02*
X0037054D01*
X0037000D01*
X0036750Y0022946D01*
X0036696D01*
X0036250Y0022500D01*
X0035946D01*
X0035750Y0022696D01*
X0035625D01*
X0035000D01*
X0047000Y0023208D02*
X0046250D01*
Y0022750D01*
X0044250D01*
X0040500D01*
X0039500Y0023750D01*
X0038780D01*
X0038750Y0023720D01*
X0037700D01*
X0035000D02*
X0035662D01*
X0035720D01*
X0036250Y0024250D01*
X0036500D01*
X0036750Y0024000D01*
Y0023970D01*
X0037000Y0023720D01*
X0037700D01*
X0056500Y0024750D02*
X0051000D01*
X0050500Y0024250D01*
Y0023970D01*
X0050250Y0023720D01*
X0049700D01*
X0047000Y0023208D02*
X0047498D01*
X0047702Y0023412D01*
Y0023500D01*
X0048250D01*
X0048470Y0023720D01*
X0048750D01*
X0049700D01*
X0025700D02*
X0025030D01*
X0024750Y0024000D01*
X0024030D01*
X0023750Y0023720D01*
X0023570D01*
X0023000D01*
X0047000D02*
X0047570D01*
X0047702Y0023588D01*
Y0023500D01*
Y0023412D01*
X0047498Y0023208D01*
X0047000D01*
X0025700Y0022696D02*
X0025054D01*
X0025000D01*
X0024750D01*
X0024723Y0022723D01*
Y0022973D01*
X0024958Y0023208D01*
X0025700D01*
X0049700D02*
X0049000D01*
Y0023000D01*
X0048958Y0022958D01*
Y0022792D01*
X0049054Y0022696D01*
X0049700D01*
X0037700Y0023208D02*
X0036958D01*
X0036750Y0023000D01*
Y0022946D01*
X0037000Y0022696D01*
X0037054D01*
X0037700D01*
X0025700Y0022184D02*
X0025000D01*
X0024750Y0022434D01*
Y0022500D01*
Y0022696D01*
X0025000D01*
X0025054D01*
X0025700D01*
X0035000Y0022184D02*
Y0022000D01*
X0034250Y0021250D01*
X0028000D01*
X0026750Y0022500D01*
Y0022598D01*
X0026652Y0022696D01*
X0025700D01*
X0041000Y0004720D02*
X0041720D01*
X0042250Y0005250D01*
X0042500D01*
X0042750Y0005000D01*
Y0004970D01*
X0043000Y0004720D01*
X0043700D01*
X0030700Y0004208D02*
X0029958D01*
X0029750Y0004000D01*
Y0005000D02*
X0030030Y0004720D01*
X0030700D01*
Y0004208D02*
X0029958D01*
X0029750Y0004000D01*
Y0003946D01*
X0030000Y0003696D01*
X0030054D01*
X0030700D01*
X0043700D02*
X0043054D01*
X0043000D01*
X0042750Y0003446D01*
Y0003434D01*
X0043000Y0003184D01*
X0043700D01*
X0030700Y0003696D02*
X0030054D01*
X0030000D01*
X0029750Y0003446D01*
Y0003434D01*
X0030000Y0003184D01*
X0030700D01*
X0028000D02*
Y0002500D01*
X0028684D01*
X0029184Y0002000D01*
X0029500D01*
X0030000Y0002500D01*
Y0003184D01*
X0030700D01*
X0043700Y0004720D02*
X0044250D01*
X0044500Y0004470D01*
Y0004458D01*
X0044250Y0004208D01*
X0043700D01*
X0030700Y0004720D02*
X0030030D01*
X0029750Y0005000D01*
X0028850D01*
X0028570Y0004720D01*
X0028000D01*
X0049700Y0022696D02*
X0049054D01*
X0049000Y0022642D01*
Y0022309D01*
X0049125Y0022184D01*
X0049700D01*
X0035000D02*
X0037000D01*
Y0022696D01*
X0037054D01*
X0037700D01*
X0023000Y0023720D02*
X0023570D01*
X0023750D01*
Y0023458D01*
X0023500Y0023208D01*
X0023000D01*
Y0022696D02*
X0023625D01*
Y0023083D01*
X0023500Y0023208D01*
X0023000D01*
X0035000Y0022696D02*
X0035625D01*
Y0023083D01*
X0035500Y0023208D01*
X0035000D01*
X0047000Y0022696D02*
X0046304D01*
X0046250Y0022750D01*
Y0023208D01*
X0047000D01*
X0035000D02*
X0035500D01*
X0035662Y0023370D01*
Y0023720D01*
X0035000D01*
X0049700Y0023208D02*
X0049000D01*
X0048750Y0023458D01*
Y0023720D01*
X0049700D01*
X0037700Y0022184D02*
X0037000D01*
X0035000D01*
X0027750Y0003184D02*
X0028000D01*
X0034750Y0022184D02*
X0035000D01*
X0050000D02*
X0049700D01*
X0043700Y0011744D02*
X0043000D01*
X0042750Y0011994D01*
Y0012000D01*
X0043006Y0011744D02*
X0043700D01*
X0035000Y0031232D02*
X0034430D01*
X0034162Y0031500D01*
X0032250D01*
X0029500Y0028750D01*
X0024750D01*
X0024500Y0025000D02*
Y0024750D01*
X0024000Y0024250D01*
X0023750D01*
X0023732Y0024232D01*
X0023000D01*
X0028000Y0005232D02*
X0027430D01*
X0027162Y0005500D01*
X0026750D01*
X0026500Y0005750D01*
X0025250Y0011500D02*
X0027162D01*
X0027430Y0011232D01*
X0028000D01*
X0057000Y0008000D02*
X0047750D01*
X0047500Y0008250D01*
X0046750D01*
Y0008500D01*
X0039750D01*
X0039250Y0009000D01*
Y0011500D02*
X0040162D01*
X0040430Y0011232D01*
X0041000D01*
X0028000D02*
X0027430D01*
X0027162Y0011500D01*
X0025250D01*
X0024500Y0025000D02*
Y0024750D01*
X0024000Y0024250D01*
X0023750D01*
X0023732Y0024232D01*
X0023000D01*
X0035000Y0031232D02*
X0034430D01*
X0034162Y0031500D01*
X0032250D01*
X0029500Y0028750D01*
X0024750D01*
X0024250Y0031500D02*
X0024000D01*
X0023732Y0031232D01*
X0023500D01*
X0023000D01*
X0047000D02*
X0046250D01*
Y0031000D01*
Y0024000D02*
X0046482Y0024232D01*
X0047000D01*
X0035000Y0031232D02*
X0034430D01*
X0034162Y0031500D01*
X0032250D01*
X0032500Y0024500D02*
X0034162D01*
X0034430Y0024232D01*
X0035000D01*
X0041000Y0005232D02*
X0040430D01*
X0040162Y0005500D01*
X0039000D01*
X0039250Y0011500D02*
X0040162D01*
X0040430Y0011232D01*
X0041000D01*
X0047000Y0024232D02*
X0046482D01*
X0046250Y0024000D01*
X0046750Y0008250D02*
X0047500D01*
X0047750Y0008000D01*
X0057000D01*
X0035000Y0031232D02*
X0035482D01*
X0037000Y0032750D01*
X0039750D01*
X0041250Y0031250D01*
X0046000D01*
X0046018Y0031232D01*
X0046250D01*
X0047000D01*
Y0022952D02*
X0047548D01*
X0048750Y0021750D01*
X0049750D01*
Y0028750D02*
X0048500D01*
X0048000Y0029250D01*
Y0029702D01*
X0047750Y0029952D01*
X0047000D01*
X0030700Y0009696D02*
X0030000D01*
X0029750Y0009446D01*
Y0009434D01*
X0030000Y0009184D01*
X0030552D01*
X0030700D01*
X0037700Y0030464D02*
X0036750D01*
X0036714Y0030500D01*
X0036500D01*
X0036250Y0030250D01*
Y0023750D02*
X0036500Y0023500D01*
X0036750D01*
X0036786Y0023464D01*
X0037700D01*
X0030700Y0010208D02*
X0029958D01*
X0029750Y0010000D01*
Y0009946D01*
X0030000Y0009696D01*
X0030700D01*
Y0010720D02*
X0031250D01*
X0031500Y0010470D01*
Y0010458D01*
X0031250Y0010208D01*
X0030700D01*
X0041000Y0006000D02*
Y0006250D01*
X0041250Y0006500D01*
X0041750Y0012250D02*
X0041500Y0012000D01*
X0041000D01*
X0028000D02*
Y0012250D01*
X0028250Y0012500D01*
Y0014750D02*
X0041750D01*
Y0012250D02*
X0041500Y0012000D01*
X0041000D01*
X0030700D02*
X0031500D01*
Y0027500D02*
X0039250D01*
X0037700Y0030720D02*
X0037030D01*
X0036750Y0031000D01*
X0036030D01*
X0035750Y0030720D01*
X0035000D01*
X0023000Y0030208D02*
X0023500D01*
X0023662Y0030370D01*
Y0030720D01*
X0023000D01*
X0035000Y0029440D02*
X0035500D01*
X0036440Y0028500D01*
X0036250D01*
X0034250Y0022500D02*
Y0022470D01*
X0034280Y0022440D01*
X0035000D01*
X0039250Y0027500D02*
X0031500D01*
X0026500Y0032250D02*
X0026250Y0032000D01*
X0025700D01*
Y0025000D02*
Y0025750D01*
X0025950Y0026000D01*
X0026000D01*
X0026250Y0026250D01*
X0026500Y0032250D02*
X0026250Y0032000D01*
X0025700D01*
X0030700Y0012000D02*
X0031500D01*
Y0006750D02*
Y0006000D01*
X0030700D01*
X0043700Y0012000D02*
Y0012250D01*
X0043750Y0012300D01*
Y0012500D01*
X0044000Y0007000D02*
X0043700D01*
Y0006000D01*
X0030700D02*
X0031500D01*
X0033750D01*
X0035750Y0008000D01*
X0037250D01*
X0037500Y0007750D01*
X0042950D01*
X0043700Y0007000D01*
Y0006000D01*
X0049700Y0030720D02*
X0049000D01*
X0048750Y0030470D01*
Y0030458D01*
X0049000Y0030208D01*
X0049700D01*
X0035000Y0023464D02*
X0033464D01*
X0033250Y0023250D01*
X0033000D01*
X0032750Y0030250D02*
X0033250D01*
X0033464Y0030464D01*
X0035000D01*
Y0023464D02*
X0033464D01*
X0033250Y0023250D01*
X0033000D01*
X0035000Y0029184D02*
X0034500D01*
X0034368Y0029052D01*
X0034302D01*
Y0029000D01*
Y0028986D01*
X0034250D01*
Y0028750D01*
X0033750Y0028250D01*
X0027250D01*
X0027000D01*
X0026000Y0027250D01*
X0023250D01*
X0023000Y0027500D01*
Y0029184D01*
X0025700Y0030720D02*
X0026250D01*
X0026500Y0030470D01*
Y0030458D01*
X0026250Y0030208D01*
X0025700D01*
X0035000Y0029440D02*
X0035500D01*
X0036440Y0028500D01*
X0036500Y0028440D01*
Y0028470D01*
X0036470Y0028500D01*
X0036440D01*
X0035500Y0029440D01*
X0035000D01*
X0047000Y0023976D02*
X0047750D01*
X0047774Y0024000D01*
X0048000D01*
X0047750Y0031000D02*
X0047524D01*
X0047500Y0030976D01*
X0047000D01*
X0035000Y0030720D02*
X0035750D01*
Y0030458D01*
X0035542Y0030250D01*
Y0030208D01*
X0035000D01*
X0047000Y0030720D02*
X0047570D01*
X0047702Y0030588D01*
Y0030412D01*
Y0030208D01*
X0047000D01*
X0049700Y0022440D02*
X0050250D01*
X0051060Y0023250D01*
X0055500D01*
X0057500Y0025250D01*
Y0028000D01*
X0057000Y0028500D01*
X0051000D01*
X0050500Y0029000D01*
Y0029190D01*
X0050250Y0029440D01*
X0049700D01*
X0047000Y0025000D02*
X0047250Y0025250D01*
X0048500D01*
X0049000Y0014000D02*
X0057000D01*
X0037700Y0029952D02*
X0038548D01*
X0038750Y0029750D01*
X0038500Y0023000D02*
X0038250D01*
X0038202Y0022952D01*
X0037700D01*
Y0030976D02*
X0038298D01*
X0038524Y0030750D01*
X0039500D01*
X0039750Y0030500D01*
X0037700Y0032000D02*
X0038500D01*
X0038750D01*
X0035000Y0023976D02*
X0034298D01*
X0034250Y0024000D01*
X0034000D01*
X0033750Y0031000D02*
X0033951D01*
X0034000Y0030951D01*
X0034153D01*
X0034178Y0030976D01*
X0035000D01*
Y0032000D02*
Y0032500D01*
Y0025500D02*
Y0025000D01*
X0045075Y0017120D02*
X0045620D01*
X0046250Y0017750D01*
X0050000D01*
X0050500Y0018250D01*
Y0022190D01*
X0050250Y0022440D01*
X0049700D01*
X0033250Y0029250D02*
X0033500Y0029500D01*
X0034100D01*
X0034350Y0029750D01*
Y0029851D01*
X0034451Y0029952D01*
X0035000D01*
Y0022952D02*
X0034048D01*
X0034000Y0022904D01*
X0033654D01*
X0033500Y0022750D01*
X0033250D01*
X0045000Y0029000D02*
X0045440Y0029440D01*
X0047000D01*
Y0032000D02*
X0048500D01*
Y0025250D02*
X0047250D01*
X0047000Y0025000D01*
X0037700Y0022440D02*
X0038440D01*
X0038500Y0022500D01*
X0038750D01*
X0039000Y0028750D02*
X0038677Y0029073D01*
X0038323D01*
Y0029427D01*
X0038310Y0029440D01*
X0037700D01*
X0039250Y0023250D02*
X0038964D01*
X0038750Y0023464D01*
X0037700D01*
X0038500Y0023000D02*
X0038250D01*
X0038202Y0022952D01*
X0037700D01*
X0037250Y0028750D02*
X0038000D01*
X0038323Y0029073D01*
Y0029427D01*
X0038310Y0029440D01*
X0037700D01*
X0028250Y0030250D02*
X0027750Y0030750D01*
X0027250D01*
X0026452Y0029952D01*
X0025700D01*
X0022000Y0005000D02*
Y0007750D01*
X0022500Y0008250D01*
X0024250D01*
X0034750D01*
X0035500Y0009000D01*
X0037250D01*
X0038000Y0008250D01*
X0044250D01*
X0044500Y0008000D01*
Y0005738D01*
X0044250Y0005488D01*
X0043700D01*
X0035000Y0004000D02*
X0033500Y0005500D01*
X0036000D01*
X0036500Y0006000D01*
X0039488D01*
X0039500Y0005988D01*
X0040000D01*
X0040500Y0005488D01*
X0041000D01*
X0025700Y0024488D02*
X0025125D01*
X0025000Y0024613D01*
Y0026250D01*
X0025500Y0026750D01*
X0027750D01*
X0029000Y0025500D01*
X0029500D01*
X0030000Y0025000D01*
X0043700Y0003952D02*
X0044452D01*
X0044500Y0004000D01*
X0044750D01*
X0041000Y0003952D02*
X0040451D01*
X0040350Y0003851D01*
Y0003750D01*
X0040100Y0003500D01*
X0038750D01*
X0038500Y0003750D01*
X0034000Y0024000D02*
X0034250D01*
X0034298Y0023976D01*
X0035000D01*
X0030700Y0004976D02*
X0031250D01*
X0031274Y0005000D01*
X0031500D01*
X0023000Y0022952D02*
X0022500D01*
X0022000Y0022452D01*
Y0022351D01*
X0021899Y0022250D01*
X0021750D01*
Y0030000D02*
X0022000Y0029750D01*
X0022250D01*
X0022452Y0029952D01*
X0022500D01*
X0023000D01*
X0038000Y0004500D02*
Y0004482D01*
X0038018Y0004464D01*
X0039464D01*
X0041000D01*
Y0010976D02*
X0040250D01*
X0040024Y0010750D01*
X0037750D01*
X0037250Y0010250D01*
X0035500D01*
X0035250Y0010000D01*
X0030700Y0005488D02*
X0032012D01*
X0032250Y0005250D01*
X0032500D01*
X0032750Y0005500D01*
X0033500D01*
X0035000Y0004000D01*
X0043700Y0009440D02*
X0044560D01*
X0044750Y0009250D01*
X0045000D01*
X0045750Y0003250D02*
X0044690D01*
X0044500Y0003440D01*
X0043700D01*
X0027500Y0030000D02*
X0027000D01*
X0026440Y0029440D01*
X0025700D01*
X0030700Y0003952D02*
X0031702D01*
X0031750Y0004000D01*
X0032250D01*
X0031750Y0010000D02*
Y0009976D01*
X0031726Y0009952D01*
X0030700D01*
X0041000D02*
X0040250D01*
X0040024D01*
X0040000Y0009976D01*
Y0010000D01*
X0030700Y0011488D02*
X0032262D01*
X0033250Y0010500D01*
X0036500D01*
X0037500Y0011500D01*
Y0012500D01*
X0039488D01*
X0040500Y0011488D01*
X0041000D01*
X0030000Y0025000D02*
X0030500Y0024500D01*
X0032000D01*
X0032500Y0025000D01*
X0034000D01*
X0034512Y0024488D01*
X0035000D01*
X0030700Y0009440D02*
X0031500D01*
X0031690Y0009250D01*
X0032250D01*
X0031500Y0003500D02*
X0031250D01*
X0031190Y0003440D01*
X0030700D01*
X0032250Y0011000D02*
X0031750D01*
X0031726Y0010976D01*
X0030700D01*
X0030000Y0032000D02*
X0028250D01*
X0027500Y0032750D01*
X0026250D01*
X0026000Y0032500D01*
X0025750Y0014750D02*
X0026750Y0013750D01*
X0027000D01*
X0027250Y0014000D01*
X0042250D01*
X0042500Y0014250D01*
X0046000D01*
X0046250Y0014500D01*
Y0011750D02*
X0044750D01*
X0044488Y0011488D01*
X0043700D01*
X0047000Y0023976D02*
X0047750D01*
X0047774Y0024000D01*
X0048000D01*
Y0019250D02*
X0043250D01*
X0041750Y0017750D01*
X0041345D01*
X0040715Y0017120D01*
X0023000Y0023976D02*
X0022500D01*
X0022476Y0024000D01*
X0022250D01*
X0023000Y0019750D02*
X0043500D01*
X0047000Y0022952D02*
X0047548D01*
X0048750Y0021750D01*
Y0018250D01*
X0048500Y0018000D01*
X0043775D01*
X0042895Y0017120D01*
X0035000Y0031488D02*
X0034500D01*
X0033500Y0032488D01*
Y0032500D01*
X0024750Y0032250D02*
Y0031738D01*
X0025000Y0031488D01*
X0025700D01*
X0047000Y0032000D02*
Y0033000D01*
X0046750Y0033250D01*
X0035250D01*
X0035000Y0033000D01*
Y0032500D01*
Y0032000D01*
X0043700Y0003440D02*
X0044500D01*
X0044690Y0003250D01*
X0045750D01*
X0044000Y0015500D02*
X0039580D01*
X0039080Y0016000D01*
X0039750Y0024000D02*
X0038750D01*
X0038726Y0023976D01*
X0037700D01*
X0049700Y0025000D02*
Y0026500D01*
X0049250D01*
Y0027000D01*
X0039250D01*
Y0027500D01*
X0025700Y0023976D02*
X0026976D01*
X0027000Y0024000D01*
X0028000D01*
X0028250Y0031000D02*
X0027000D01*
X0026976Y0030976D01*
X0025700D01*
X0041000Y0003440D02*
X0041500D01*
X0042500Y0002440D01*
Y0002500D01*
X0040250Y0009250D02*
X0040440Y0009440D01*
X0041000D01*
X0043700Y0003952D02*
X0044452D01*
X0044500Y0004000D01*
X0044750D01*
X0045250Y0010250D02*
X0044750D01*
X0044452Y0009952D01*
X0043700D01*
Y0010464D02*
X0042750D01*
X0042714Y0010500D01*
X0042250D01*
X0042500Y0004500D02*
X0042714D01*
X0042750Y0004464D01*
X0043700D01*
X0041000Y0010464D02*
X0039464D01*
X0039250Y0010250D01*
X0038000D01*
X0023000Y0032000D02*
Y0032500D01*
Y0033000D01*
X0023250Y0033250D01*
X0034750D01*
X0035000Y0033000D01*
Y0032500D01*
Y0032000D01*
X0040250Y0009250D02*
X0040440Y0009440D01*
X0041000D01*
X0030700Y0003440D02*
X0031190D01*
X0031250Y0003500D01*
X0031500D01*
X0049700Y0025000D02*
X0052250D01*
X0052750Y0025500D01*
Y0026000D01*
X0049700Y0032000D02*
X0052750D01*
X0023000Y0025000D02*
Y0025250D01*
X0023250Y0025500D01*
Y0032500D02*
X0023000D01*
Y0032000D01*
X0028000Y0004976D02*
X0027274D01*
X0027250Y0005000D01*
X0027000D01*
X0026500Y0011000D02*
X0027000D01*
X0027024Y0010976D01*
X0028000D01*
Y0009952D02*
X0027475D01*
X0027350Y0009827D01*
Y0009702D01*
X0027100Y0009452D01*
X0026750D01*
X0026298Y0009000D01*
X0025500D01*
X0023000Y0031488D02*
X0022250D01*
X0021750Y0031988D01*
Y0032000D01*
X0026000Y0032500D02*
X0026250Y0032750D01*
X0027500D01*
X0028250Y0032000D01*
X0030000D01*
X0028000Y0011488D02*
X0027500D01*
X0026536Y0012452D01*
X0026786D01*
X0026762Y0012476D01*
X0026512D01*
X0026500Y0012488D01*
Y0012500D01*
X0026750Y0014250D02*
X0042000D01*
X0042250Y0014500D01*
X0045000D01*
X0045500Y0015000D01*
X0057000D01*
X0035000Y0011000D02*
Y0011500D01*
X0035250Y0011750D01*
X0040250Y0024250D02*
Y0024500D01*
X0045250D01*
X0045262Y0024488D01*
X0047000D01*
X0023000Y0023464D02*
X0022250D01*
X0022214Y0023500D01*
X0022000D01*
X0022500Y0017750D02*
X0039875D01*
X0040125Y0017500D01*
Y0017000D01*
X0040625Y0016500D01*
X0044030D01*
X0044530Y0016000D01*
X0030700Y0004464D02*
X0029786D01*
X0029750Y0004500D01*
X0029250D01*
X0028750Y0004000D01*
X0029000Y0010250D02*
X0029250Y0010500D01*
X0029714D01*
X0029750Y0010464D01*
X0030700D01*
X0028000Y0006000D02*
Y0006500D01*
X0028250Y0012500D02*
X0028000Y0012250D01*
Y0012000D01*
X0026500Y0022000D02*
Y0022190D01*
X0026250Y0022440D01*
X0025700D01*
Y0030464D02*
X0024750D01*
X0024714Y0030500D01*
X0024250D01*
Y0023500D02*
X0024750D01*
X0024786Y0023464D01*
X0025700D01*
X0047000Y0030464D02*
X0046250D01*
X0046214Y0030500D01*
X0043500D01*
X0043000Y0023500D02*
X0045500D01*
X0045536Y0023464D01*
X0047000D01*
X0042250Y0010500D02*
X0042714D01*
X0042750Y0010464D01*
X0043700D01*
X0033250Y0005000D02*
X0032750Y0004500D01*
X0031536D01*
X0031500Y0004464D01*
X0030700D01*
X0029500Y0002500D02*
Y0002440D01*
X0028500Y0003440D01*
X0028000D01*
Y0010464D02*
X0026464D01*
X0026000Y0010000D01*
X0021750D01*
Y0009250D01*
X0021500Y0009000D01*
Y0004625D01*
X0021750Y0004375D01*
X0026375D01*
X0026464Y0004464D01*
X0028000D01*
X0041000Y0004976D02*
X0040250D01*
X0040226Y0005000D01*
X0034500D01*
X0022000D02*
Y0007750D01*
X0022500Y0008250D01*
X0024250D01*
X0024000Y0025000D02*
X0023750Y0024750D01*
X0023488Y0024488D01*
X0023000D01*
X0028000Y0009440D02*
X0028500D01*
X0029220Y0008720D01*
X0029250D01*
X0029280Y0008750D01*
X0029500D01*
X0057000Y0014000D02*
X0049000D01*
X0042750D01*
X0042500Y0013750D01*
X0041000D01*
Y0012000D01*
X0039250Y0025250D02*
X0037700D01*
Y0025000D01*
X0057000Y0016000D02*
X0052750D01*
X0052000Y0015250D01*
X0045250D01*
X0045000Y0015000D01*
X0043750D01*
X0043500Y0015250D01*
X0027250D01*
X0026750Y0007000D02*
Y0006690D01*
X0026728Y0006668D01*
Y0006510D01*
X0026786Y0006452D01*
X0026536D01*
X0027500Y0005488D01*
X0028000D01*
X0025700Y0030976D02*
X0026976D01*
X0027000Y0031000D01*
X0028250D01*
X0025500Y0028250D02*
X0024500D01*
X0024250Y0028500D01*
Y0028690D01*
X0023500Y0029440D01*
X0023000D01*
X0043000Y0023500D02*
X0045500D01*
X0045536Y0023464D01*
X0047000D01*
X0026000Y0021500D02*
X0024440D01*
X0023500Y0022440D01*
X0023000D01*
X0024000Y0011000D02*
Y0012750D01*
X0024500Y0013250D01*
X0036750D01*
X0037500Y0012500D01*
X0039488D01*
X0040500Y0011488D01*
X0041000D01*
X0042000Y0032000D02*
X0042500Y0032500D01*
X0046500D01*
X0039250Y0031500D02*
Y0031494D01*
X0039256Y0031488D01*
X0037700D01*
X0023000Y0030976D02*
X0022250D01*
X0022024Y0030750D01*
X0021500D01*
X0021250Y0030500D01*
Y0025000D01*
X0022250Y0024000D01*
X0022476D01*
X0022500Y0023976D01*
X0023000D01*
X0043700Y0010976D02*
X0044274D01*
X0044500Y0010750D01*
X0045000Y0004750D02*
X0044750D01*
X0044524Y0004976D01*
X0043700D01*
X0028000Y0003952D02*
X0027452D01*
X0027250Y0003750D01*
Y0003500D01*
X0028000Y0010976D02*
X0027024D01*
X0027000Y0011000D01*
X0026500D01*
X0028000Y0010464D02*
X0026464D01*
X0026000Y0010000D01*
X0021750D01*
X0021250Y0010500D01*
Y0012500D01*
X0024250Y0015500D01*
X0026590D01*
X0027090Y0016000D01*
X0031750Y0010000D02*
Y0009976D01*
X0031726Y0009952D01*
X0030700D01*
X0029750Y0023500D02*
X0026536D01*
X0026500Y0023464D01*
X0025700D01*
X0044750Y0022250D02*
X0046060D01*
X0046250Y0022440D01*
X0047000D01*
X0037700Y0024488D02*
X0038988D01*
X0039250Y0024750D01*
X0039750D01*
X0040000Y0024500D01*
X0040250D01*
X0045250D01*
X0045262Y0024488D01*
X0047000D01*
X0037700Y0031488D02*
X0039256D01*
X0039250Y0031494D01*
Y0031500D01*
X0039488Y0031488D02*
X0039256D01*
X0037700D01*
X0046250Y0020750D02*
X0021750D01*
Y0022250D02*
X0021899D01*
X0022000Y0022351D01*
Y0022452D01*
X0022500Y0022952D01*
X0023000D01*
X0043700Y0010976D02*
X0044274D01*
X0044500Y0010750D01*
X0043000Y0025000D02*
X0041500D01*
X0040750Y0025750D01*
X0037750D01*
X0033500Y0032500D02*
Y0032488D01*
X0034500Y0031488D01*
X0035000D01*
X0023000Y0023464D02*
X0022250D01*
X0022214Y0023500D01*
X0022000D01*
X0022250Y0030250D02*
X0022000D01*
X0022214Y0030464D01*
X0023000D01*
X0028250Y0023000D02*
X0026750D01*
X0026702Y0022952D01*
X0025700D01*
G54D10*
X0047000Y0031744D03*
Y0031488D03*
Y0031232D03*
Y0030976D03*
Y0030720D03*
Y0030464D03*
Y0030208D03*
Y0029952D03*
Y0029696D03*
Y0029440D03*
Y0029184D03*
X0049700D03*
Y0029440D03*
Y0029696D03*
Y0029952D03*
Y0030208D03*
Y0030464D03*
Y0030720D03*
Y0030976D03*
Y0031232D03*
Y0031488D03*
Y0031744D03*
Y0032000D03*
X0035000Y0031744D03*
Y0031488D03*
Y0031232D03*
Y0030976D03*
Y0030720D03*
Y0030464D03*
Y0030208D03*
Y0029952D03*
Y0029696D03*
Y0029440D03*
Y0029184D03*
X0037700D03*
Y0029440D03*
Y0029696D03*
Y0029952D03*
Y0030208D03*
Y0030464D03*
Y0030720D03*
Y0030976D03*
Y0031232D03*
Y0031488D03*
Y0031744D03*
Y0032000D03*
X0023000Y0031744D03*
Y0031488D03*
Y0031232D03*
Y0030976D03*
Y0030720D03*
Y0030464D03*
Y0030208D03*
Y0029952D03*
Y0029696D03*
Y0029440D03*
Y0029184D03*
X0025700D03*
Y0029440D03*
Y0029696D03*
Y0029952D03*
Y0030208D03*
Y0030464D03*
Y0030720D03*
Y0030976D03*
Y0031232D03*
Y0031488D03*
Y0031744D03*
Y0032000D03*
X0041000Y0011744D03*
Y0011488D03*
Y0011232D03*
Y0010976D03*
Y0010720D03*
Y0010464D03*
Y0010208D03*
Y0009952D03*
Y0009696D03*
Y0009440D03*
Y0009184D03*
X0043700D03*
Y0009440D03*
Y0009696D03*
Y0009952D03*
Y0010208D03*
Y0010464D03*
Y0010720D03*
Y0010976D03*
Y0011232D03*
Y0011488D03*
Y0011744D03*
Y0012000D03*
X0028000Y0011744D03*
Y0011488D03*
Y0011232D03*
Y0010976D03*
Y0010720D03*
Y0010464D03*
Y0010208D03*
Y0009952D03*
Y0009696D03*
Y0009440D03*
Y0009184D03*
X0030700D03*
Y0009440D03*
Y0009696D03*
Y0009952D03*
Y0010208D03*
Y0010464D03*
Y0010720D03*
Y0010976D03*
Y0011232D03*
Y0011488D03*
Y0011744D03*
Y0012000D03*
X0047000Y0024744D03*
Y0024488D03*
Y0024232D03*
Y0023976D03*
Y0023720D03*
Y0023464D03*
Y0023208D03*
Y0022952D03*
Y0022696D03*
Y0022440D03*
Y0022184D03*
X0049700D03*
Y0022440D03*
Y0022696D03*
Y0022952D03*
Y0023208D03*
Y0023464D03*
Y0023720D03*
Y0023976D03*
Y0024232D03*
Y0024488D03*
Y0024744D03*
Y0025000D03*
X0035000Y0024744D03*
Y0024488D03*
Y0024232D03*
Y0023976D03*
Y0023720D03*
Y0023464D03*
Y0023208D03*
Y0022952D03*
Y0022696D03*
Y0022440D03*
Y0022184D03*
X0037700D03*
Y0022440D03*
Y0022696D03*
Y0022952D03*
Y0023208D03*
Y0023464D03*
Y0023720D03*
Y0023976D03*
Y0024232D03*
Y0024488D03*
Y0024744D03*
Y0025000D03*
X0023000Y0024744D03*
Y0024488D03*
Y0024232D03*
Y0023976D03*
Y0023720D03*
Y0023464D03*
Y0023208D03*
Y0022952D03*
Y0022696D03*
Y0022440D03*
Y0022184D03*
X0025700D03*
Y0022440D03*
Y0022696D03*
Y0022952D03*
Y0023208D03*
Y0023464D03*
Y0023720D03*
Y0023976D03*
Y0024232D03*
Y0024488D03*
Y0024744D03*
Y0025000D03*
X0041000Y0005744D03*
Y0005488D03*
Y0005232D03*
Y0004976D03*
Y0004720D03*
Y0004464D03*
Y0004208D03*
Y0003952D03*
Y0003696D03*
Y0003440D03*
Y0003184D03*
X0043700D03*
Y0003440D03*
Y0003696D03*
Y0003952D03*
Y0004208D03*
Y0004464D03*
Y0004720D03*
Y0004976D03*
Y0005232D03*
Y0005488D03*
Y0005744D03*
Y0006000D03*
X0028000Y0005744D03*
Y0005488D03*
Y0005232D03*
Y0004976D03*
Y0004720D03*
Y0004464D03*
Y0004208D03*
Y0003952D03*
Y0003696D03*
Y0003440D03*
Y0003184D03*
X0030700D03*
Y0003440D03*
Y0003696D03*
Y0003952D03*
Y0004208D03*
Y0004464D03*
Y0004720D03*
Y0004976D03*
Y0005232D03*
Y0005488D03*
Y0005744D03*
Y0006000D03*
G54D11*
X0047000Y0032000D03*
X0035000D03*
X0023000D03*
X0041000Y0012000D03*
X0028000D03*
X0047000Y0025000D03*
X0035000D03*
X0023000D03*
X0041000Y0006000D03*
X0028000D03*
G54D12*
X0057000Y0014000D03*
Y0015000D03*
Y0016000D03*
Y0009000D03*
Y0010000D03*
Y0011000D03*
G54D13*
Y0013000D03*
Y0008000D03*
G54D14*
Y0023000D03*
Y0029000D03*
G54D15*
X0048310Y0016560D03*
X0023310D03*
G54D16*
X0027090Y0016000D03*
X0028180D03*
X0029270D03*
X0030360D03*
X0031450D03*
X0032540D03*
X0033630D03*
X0034720D03*
X0036900D03*
X0037990D03*
X0039080D03*
X0040170D03*
X0041260D03*
X0042350D03*
X0043440D03*
X0044530D03*
X0045620D03*
X0027635Y0017120D03*
X0028725D03*
X0029815D03*
X0030905D03*
X0031995D03*
X0033085D03*
X0034175D03*
X0035265D03*
X0036355D03*
X0038535D03*
X0039625D03*
X0040715D03*
X0041805D03*
X0042895D03*
X0043985D03*
X0045075D03*
G54D17*
X0026000Y0016000D03*
X0035810D03*
X0026545Y0017120D03*
X0037445D03*
G54D18*
X0042000Y0032000D03*
X0042840D03*
X0043000Y0025000D03*
X0043840D03*
X0030000Y0032000D03*
X0030840D03*
X0024000Y0011000D03*
X0023160D03*
X0035000D03*
X0035840D03*
X0030000Y0025000D03*
X0030840D03*
X0022000Y0005000D03*
X0022840D03*
X0035000Y0004000D03*
X0035840D03*
G54D19*
X0039250Y0025250D03*
G54D20*
X0028250Y0023000D03*
G54D22*
X0047500Y0007750D03*
Y0009000D03*
X0047250Y0026250D03*
X0048250Y0031000D03*
Y0026500D03*
X0029250Y0031250D03*
Y0026500D03*
X0041000Y0031000D03*
X0047750Y0024750D03*
X0029750Y0011500D03*
X0029250Y0025000D03*
X0028750Y0006750D03*
X0035250Y0026000D03*
X0021750Y0025000D03*
X0022250Y0011000D03*
X0036500Y0008500D03*
X0042500Y0012750D03*
X0043500Y0013250D03*
X0027000Y0009000D03*
Y0010000D03*
X0054000Y0009750D03*
X0034250Y0029000D03*
X0034000Y0030000D03*
X0027250Y0028250D03*
Y0029250D03*
X0045750Y0012750D03*
X0036500Y0007250D03*
X0030500Y0032750D03*
X0035750D03*
X0045750Y0031750D03*
Y0025000D03*
X0036500Y0004000D03*
Y0011000D03*
X0047750Y0031500D03*
X0036750Y0028000D03*
X0026750Y0027500D03*
X0030000Y0012250D03*
Y0006500D03*
X0036750Y0025000D03*
Y0032000D03*
X0043250Y0006750D03*
X0049500Y0013500D03*
X0026750Y0031750D03*
Y0025250D03*
X0049000Y0032250D03*
Y0025250D03*
X0024750Y0022500D03*
X0040000Y0004000D03*
X0040250Y0003000D03*
X0056500Y0024750D03*
X0029750Y0004000D03*
Y0005000D03*
X0042750Y0012000D03*
X0026500Y0005750D03*
X0039250Y0009000D03*
X0025250Y0011500D03*
X0024500Y0025000D03*
X0024750Y0028750D03*
X0024250Y0031500D03*
X0046250Y0031000D03*
X0032250Y0031500D03*
X0032500Y0024500D03*
X0039000Y0005500D03*
X0039250Y0011500D03*
X0046250Y0024000D03*
X0046750Y0008250D03*
X0049750Y0021750D03*
Y0028750D03*
X0036250Y0030250D03*
Y0023750D03*
X0041250Y0006500D03*
X0028250Y0014750D03*
X0041750D03*
Y0012250D03*
X0036250Y0028500D03*
X0034250Y0022500D03*
X0031500Y0027500D03*
X0026250Y0026250D03*
X0026500Y0032250D03*
X0031500Y0012000D03*
Y0006750D03*
X0043750Y0012500D03*
X0044000Y0007000D03*
X0032750Y0030250D03*
X0033000Y0023250D03*
X0047750Y0031000D03*
X0049000Y0014000D03*
X0038750Y0029750D03*
X0039750Y0030500D03*
X0038750Y0032000D03*
X0033750Y0031000D03*
X0035000Y0032500D03*
Y0025500D03*
X0033250Y0029250D03*
Y0022750D03*
X0045000Y0029000D03*
X0048500Y0032000D03*
Y0025250D03*
X0038750Y0022500D03*
X0039000Y0028750D03*
X0039250Y0023250D03*
X0038500Y0023000D03*
X0037250Y0028750D03*
X0028250Y0030250D03*
X0038500Y0003750D03*
X0034000Y0024000D03*
X0031500Y0005000D03*
X0021750Y0030000D03*
X0038000Y0004500D03*
X0035250Y0010000D03*
X0045000Y0009250D03*
X0027500Y0030000D03*
X0032250Y0004000D03*
X0040000Y0010000D03*
X0032250Y0009250D03*
Y0011000D03*
X0025750Y0014750D03*
X0046250Y0014500D03*
Y0011750D03*
X0048000Y0024000D03*
Y0019250D03*
X0022250Y0024000D03*
X0023000Y0019750D03*
X0043500D03*
X0024750Y0032250D03*
X0045750Y0003250D03*
X0044000Y0015500D03*
X0039750Y0024000D03*
X0039250Y0027500D03*
X0028000Y0024000D03*
X0042500Y0002500D03*
X0044750Y0004000D03*
X0045250Y0010250D03*
X0042500Y0004500D03*
X0038000Y0010250D03*
X0040250Y0009250D03*
X0031500Y0003500D03*
X0052750Y0026000D03*
Y0032000D03*
X0023250Y0025500D03*
Y0032500D03*
X0027000Y0005000D03*
X0025500Y0009000D03*
X0021750Y0032000D03*
X0026000Y0032500D03*
X0026500Y0012500D03*
X0026750Y0014250D03*
X0035250Y0011750D03*
X0040250Y0024250D03*
X0022500Y0017750D03*
X0028750Y0004000D03*
X0029000Y0010250D03*
X0028000Y0006500D03*
X0028250Y0012500D03*
X0026500Y0022000D03*
X0024250Y0030500D03*
Y0023500D03*
X0043500Y0030500D03*
X0042250Y0010500D03*
X0033250Y0005000D03*
X0029500Y0002500D03*
X0034500Y0005000D03*
X0024250Y0008250D03*
X0024000Y0025000D03*
X0029500Y0008750D03*
X0027250Y0015250D03*
X0026750Y0007000D03*
X0028250Y0031000D03*
X0025500Y0028250D03*
X0043000Y0023500D03*
X0026000Y0021500D03*
X0046500Y0032500D03*
X0045000Y0004750D03*
X0027250Y0003500D03*
X0026500Y0011000D03*
X0031750Y0010000D03*
X0029750Y0023500D03*
X0044750Y0022250D03*
X0039250Y0031500D03*
X0046250Y0020750D03*
X0021750D03*
Y0022250D03*
X0044500Y0010750D03*
X0037750Y0025750D03*
X0033500Y0032500D03*
X0022000Y0023500D03*
X0022250Y0030250D03*
M02*
