*
G04 Mass Parameters ***
*
G04 Image ***
*
%IND:\DOCUMENTS\CIRCUIT LAYOUTS AND SCHEMATICS\SWTICH NETWORK\FINAL\SWITCH NETWORK.SST*%
%ICAS*%
%MOIN*%
%IPPOS*%
%ASAXBY*%
G74*%FSLAN2X34Y34*%
*
G04 Aperture Definitions ***
*
%ADD10O,0.0900X0.0160*%
%ADD11R,0.0900X0.0160*%
%ADD12C,0.0620*%
%ADD13R,0.0620X0.0620*%
%ADD14R,0.0580X0.0580*%
%ADD15C,0.1200*%
%ADD16C,0.0630*%
%ADD17R,0.0630X0.0630*%
%ADD18R,0.0500X0.0500*%
%ADD19C,0.0300*%
%ADD20C,0.0300*%
%ADD21C,0.0100*%
%ADD22C,0.0300*%
%ADD23C,0.0080*%
%ADD24C,0.0060*%
%ADD25C,0.0010*%
*
G04 Plot Data ***
*
G54D23*
G01X0057167Y0012055D02*
Y0011944D01*
Y0012000D02*
X0056834D01*
X0056890Y0011944D01*
X0057056Y0017111D02*
Y0016889D01*
X0056834Y0017000D01*
Y0017055D01*
X0057167D01*
X0058406Y0011650D02*
Y0011427D01*
X0058517Y0011650D02*
X0058351D01*
X0058184Y0011566D01*
Y0011511D01*
X0058351Y0011427D01*
X0058517D01*
X0058184Y0011240D02*
X0058517D01*
X0058462Y0011184D01*
X0058240Y0011073D01*
X0058184Y0011017D01*
X0058517D01*
X0058406Y0010830D02*
Y0010607D01*
X0058517Y0010830D02*
X0058351D01*
X0058184Y0010746D01*
Y0010691D01*
X0058351Y0010607D01*
X0058517D01*
X0058629Y0010420D02*
Y0010197D01*
X0058517Y0009815D02*
X0058462Y0009787D01*
X0058240D01*
X0058184Y0009815D01*
Y0009982D01*
X0058240Y0010010D01*
X0058462D01*
X0058517Y0009982D01*
Y0009815D01*
X0058184Y0009600D02*
X0058517D01*
X0058462Y0009544D01*
X0058240Y0009433D01*
X0058184Y0009377D01*
X0058517D01*
Y0009190D02*
Y0009079D01*
Y0009134D02*
X0058184D01*
Y0009190D02*
Y0009079D01*
Y0008835D02*
X0058462D01*
X0058517Y0008808D01*
Y0008641D01*
X0058462Y0008613D01*
X0058184D01*
X0058517Y0008231D02*
X0058184D01*
X0058517Y0008203D02*
Y0008370D01*
X0058406Y0008425D01*
X0058295D01*
X0058184Y0008370D01*
Y0008203D01*
X0058351Y0007932D02*
X0058517Y0008015D01*
X0058351Y0007793D02*
Y0007960D01*
X0058295Y0008015D01*
X0058240D01*
X0058184Y0007960D01*
Y0007793D01*
X0058517D01*
X0058406Y0007605D02*
Y0007383D01*
X0058517Y0007605D02*
X0058351D01*
X0058184Y0007522D01*
Y0007466D01*
X0058351Y0007383D01*
X0058517D01*
X0057167Y0007055D02*
Y0006944D01*
Y0007000D02*
X0056834D01*
X0056890Y0006944D01*
X0057056Y0012111D02*
Y0011889D01*
X0056834Y0012000D01*
Y0012055D01*
X0057167D01*
X0056500Y0016000D02*
Y0016550D01*
X0057500D01*
Y0012450D01*
X0056500D01*
Y0013000D01*
X0053500D01*
X0056500D02*
Y0014000D01*
Y0015000D01*
Y0016000D01*
X0053500D01*
X0041600Y0008967D02*
Y0012217D01*
X0043100D01*
Y0008967D01*
X0041600D01*
X0043100Y0011967D02*
X0041600D01*
X0028600Y0002967D02*
Y0006217D01*
X0030100D01*
Y0002967D01*
X0028600D01*
X0030100Y0005967D02*
X0028600D01*
X0049435Y0013935D02*
X0022185D01*
X0022060Y0014060D02*
Y0019060D01*
X0022185Y0019185D02*
X0049435D01*
X0049560Y0019060D02*
Y0014060D01*
X0035600Y0028967D02*
Y0032217D01*
X0037100D01*
Y0028967D01*
X0035600D01*
X0037100Y0031967D02*
X0035600D01*
X0024935Y0014810D02*
X0046685D01*
X0046185Y0018310D01*
X0025435D01*
X0024935Y0014810D01*
X0035600Y0021967D02*
Y0025217D01*
X0037100D01*
Y0021967D01*
X0035600D01*
X0037100Y0024967D02*
X0035600D01*
X0028600Y0008967D02*
Y0012217D01*
X0030100D01*
Y0008967D01*
X0028600D01*
X0030100Y0011967D02*
X0028600D01*
X0023600Y0028967D02*
Y0032217D01*
X0025100D01*
Y0028967D01*
X0023600D01*
X0025100Y0031967D02*
X0023600D01*
X0047600Y0021967D02*
Y0025217D01*
X0049100D01*
Y0021967D01*
X0047600D01*
X0049100Y0024967D02*
X0047600D01*
X0057500Y0029500D02*
Y0028500D01*
X0056500D01*
Y0029500D01*
X0057500D01*
X0023600Y0021967D02*
Y0025217D01*
X0025100D01*
Y0021967D01*
X0023600D01*
X0025100Y0024967D02*
X0023600D01*
X0047600Y0028967D02*
Y0032217D01*
X0049100D01*
Y0028967D01*
X0047600D01*
X0049100Y0031967D02*
X0047600D01*
X0041600Y0002967D02*
Y0006217D01*
X0043100D01*
Y0002967D01*
X0041600D01*
X0043100Y0005967D02*
X0041600D01*
X0056500Y0011000D02*
Y0011550D01*
X0057500D01*
Y0007450D01*
X0056500D01*
Y0008000D01*
X0053500D01*
X0056500D02*
Y0009000D01*
Y0010000D01*
Y0011000D01*
X0053500D01*
X0057500Y0023500D02*
Y0022500D01*
X0056500D01*
Y0023500D01*
X0057500D01*
G01X0022060Y0014060D02*
G03X0022185Y0013935I0000125J0000000D01*
Y0019185D02*
G03X0022060Y0019060I0000000J0000125D01*
G01X0049560D02*
G03X0049435Y0019185I0000125J0000000D01*
Y0013935D02*
G03X0049560Y0014060I0000000J0000125D01*
G54D24*
G01X0031220Y0031625D02*
Y0032375D01*
X0029620D01*
Y0031625D01*
X0031220D01*
X0044220Y0024625D02*
Y0025375D01*
X0042620D01*
Y0024625D01*
X0044220D01*
X0031220D02*
Y0025375D01*
X0029620D01*
Y0024625D01*
X0031220D01*
X0043220Y0031625D02*
Y0032375D01*
X0041620D01*
Y0031625D01*
X0043220D01*
X0022780Y0011375D02*
Y0010625D01*
X0024380D01*
Y0011375D01*
X0022780D01*
X0023220Y0004625D02*
Y0005375D01*
X0021620D01*
Y0004625D01*
X0023220D01*
X0036220Y0003625D02*
Y0004375D01*
X0034620D01*
Y0003625D01*
X0036220D01*
Y0010625D02*
Y0011375D01*
X0034620D01*
Y0010625D01*
X0036220D01*
G54D25*
G01X0042620Y0032045D02*
X0042642Y0032090D01*
Y0032135D01*
X0042620Y0032180D01*
X0042485D01*
X0042462Y0032135D01*
Y0032090D01*
X0042485Y0032045D01*
X0042620D01*
X0042642Y0032000D01*
Y0031955D01*
X0042620Y0031910D01*
X0042485D01*
X0042462Y0031955D01*
Y0032000D01*
X0042485Y0032045D01*
X0042352D02*
X0042420Y0031910D01*
X0042240Y0032045D02*
X0042375D01*
X0042420Y0032090D01*
Y0032135D01*
X0042375Y0032180D01*
X0042240D01*
Y0031910D01*
X0043507Y0024910D02*
X0043642Y0025180D01*
X0043462D01*
X0043352Y0025045D02*
X0043420Y0024910D01*
X0043240Y0025045D02*
X0043375D01*
X0043420Y0025090D01*
Y0025135D01*
X0043375Y0025180D01*
X0043240D01*
Y0024910D01*
X0030485Y0032045D02*
X0030620D01*
X0030642Y0032000D01*
Y0031955D01*
X0030620Y0031910D01*
X0030485D01*
X0030462Y0031955D01*
Y0032000D01*
X0030552Y0032180D01*
X0030352Y0032045D02*
X0030420Y0031910D01*
X0030240Y0032045D02*
X0030375D01*
X0030420Y0032090D01*
Y0032135D01*
X0030375Y0032180D01*
X0030240D01*
Y0031910D01*
X0023537Y0011045D02*
X0023515Y0011090D01*
X0023380D01*
X0023357Y0011045D01*
Y0010955D01*
X0023402Y0010910D01*
X0023537D01*
Y0010820D01*
X0023357D01*
X0023647Y0010955D02*
X0023580Y0011090D01*
X0023760Y0010955D02*
X0023625D01*
X0023580Y0010910D01*
Y0010865D01*
X0023625Y0010820D01*
X0023760D01*
Y0011090D01*
X0035642Y0011000D02*
X0035462D01*
X0035552Y0011180D01*
X0035597D01*
Y0010910D01*
X0035352Y0011045D02*
X0035420Y0010910D01*
X0035240Y0011045D02*
X0035375D01*
X0035420Y0011090D01*
Y0011135D01*
X0035375Y0011180D01*
X0035240D01*
Y0010910D01*
X0030462Y0024955D02*
X0030507Y0024910D01*
X0030597D01*
X0030642Y0024955D01*
Y0025000D01*
X0030552Y0025090D01*
X0030642Y0025180D01*
X0030462D01*
X0030352Y0025045D02*
X0030420Y0024910D01*
X0030240Y0025045D02*
X0030375D01*
X0030420Y0025090D01*
Y0025135D01*
X0030375Y0025180D01*
X0030240D01*
Y0024910D01*
X0022642Y0004910D02*
X0022462D01*
X0022642Y0005090D01*
Y0005135D01*
X0022620Y0005180D01*
X0022485D01*
X0022462Y0005135D01*
X0022352Y0005045D02*
X0022420Y0004910D01*
X0022240Y0005045D02*
X0022375D01*
X0022420Y0005090D01*
Y0005135D01*
X0022375Y0005180D01*
X0022240D01*
Y0004910D01*
X0035597Y0003910D02*
X0035507D01*
X0035552D02*
Y0004180D01*
X0035507Y0004135D01*
X0035352Y0004045D02*
X0035420Y0003910D01*
X0035240Y0004045D02*
X0035375D01*
X0035420Y0004090D01*
Y0004135D01*
X0035375Y0004180D01*
X0035240D01*
Y0003910D01*
X0039127Y0015968D02*
Y0017744D01*
X0039719D02*
X0038535D01*
X0038367D02*
Y0016264D01*
X0038219Y0015968D01*
X0037330D01*
X0037182Y0016264D01*
Y0017744D01*
X0035978Y0015968D02*
X0035830Y0016264D01*
Y0017448D01*
X0035978Y0017744D01*
X0036866D01*
X0037014Y0017448D01*
Y0016264D01*
X0036866Y0015968D01*
X0035978D01*
X0034625Y0016560D02*
Y0016264D01*
X0034773Y0015968D01*
X0035366D01*
X0035514Y0016264D01*
Y0017744D01*
X0035662D02*
X0035070D01*
X0056940Y0023520D02*
Y0023280D01*
X0056760Y0023230D02*
X0057120D01*
X0057060Y0023170D01*
X0056820Y0023050D01*
X0056760Y0022990D01*
X0057120D01*
Y0022940D02*
Y0022820D01*
Y0022880D02*
X0056760D01*
Y0022940D02*
Y0022820D01*
X0056820Y0029400D02*
X0057060D01*
X0056940Y0029520D02*
Y0029280D01*
X0056760Y0029230D02*
X0057120D01*
X0057060Y0029170D01*
X0056820Y0029050D01*
X0056760Y0028990D01*
X0057120D01*
Y0028940D02*
Y0028820D01*
Y0028880D02*
X0056760D01*
Y0028940D02*
Y0028820D01*
X0048462Y0030407D02*
X0048555Y0030222D01*
X0049110D01*
X0049202Y0030407D01*
Y0030777D01*
X0049017Y0030962D01*
X0048462D01*
Y0031332D01*
X0049202D01*
X0048350Y0030777D02*
X0047610D01*
X0037202Y0030592D02*
X0036462D01*
X0036832Y0031332D01*
X0037017D01*
Y0030222D01*
X0036350Y0030777D02*
X0035610D01*
X0024462Y0030407D02*
X0024647Y0030222D01*
X0025017D01*
X0025202Y0030407D01*
Y0030592D01*
X0024832Y0030962D01*
X0025202Y0031332D01*
X0024462D01*
X0024350Y0030777D02*
X0023610D01*
X0043202Y0010222D02*
X0042462D01*
X0043202Y0010962D01*
Y0011147D01*
X0043110Y0011332D01*
X0042555D01*
X0042462Y0011147D01*
X0042350Y0010777D02*
X0041610D01*
X0030017Y0010222D02*
X0029647D01*
X0029832D02*
Y0011332D01*
X0029647Y0011147D01*
X0029350Y0010777D02*
X0028610D01*
X0048462Y0023407D02*
X0048555Y0023222D01*
X0049110D01*
X0049202Y0023407D01*
Y0023777D01*
X0049017Y0023962D01*
X0048462D01*
Y0024332D01*
X0049202D01*
X0047980Y0024147D02*
Y0023407D01*
X0048350Y0023777D02*
X0047610D01*
X0037202Y0023592D02*
X0036462D01*
X0036832Y0024332D01*
X0037017D01*
Y0023222D01*
X0035980Y0024147D02*
Y0023407D01*
X0036350Y0023777D02*
X0035610D01*
X0024462Y0023407D02*
X0024647Y0023222D01*
X0025017D01*
X0025202Y0023407D01*
Y0023592D01*
X0024832Y0023962D01*
X0025202Y0024332D01*
X0024462D01*
X0023980Y0024147D02*
Y0023407D01*
X0024350Y0023777D02*
X0023610D01*
X0043202Y0004222D02*
X0042462D01*
X0043202Y0004962D01*
Y0005147D01*
X0043110Y0005332D01*
X0042555D01*
X0042462Y0005147D01*
X0041980D02*
Y0004407D01*
X0042350Y0004777D02*
X0041610D01*
X0030017Y0004222D02*
X0029647D01*
X0029832D02*
Y0005332D01*
X0029647Y0005147D01*
X0028980D02*
Y0004407D01*
X0029350Y0004777D02*
X0028610D01*
M02*
