G75*
%MOIN*%
%OFA0B0*%
%FSLAX25Y25*%
%IPPOS*%
%LPD*%
%AMOC8*
5,1,8,0,0,1.08239X$1,22.5*
%
%ADD10C,0.01200*%
%ADD11C,0.05937*%
%ADD12C,0.05937*%
%ADD13C,0.05600*%
%ADD14C,0.04756*%
%ADD15C,0.06000*%
%ADD16OC8,0.06000*%
%ADD17C,0.17000*%
%ADD18C,0.12661*%
%ADD19C,0.05543*%
%ADD20C,0.01600*%
%ADD21C,0.04362*%
%ADD22C,0.04000*%
%ADD23C,0.01000*%
D10*
X0157959Y0046188D02*
X0158921Y0045226D01*
X0160846Y0045226D01*
X0161808Y0046188D01*
X0161808Y0047150D01*
X0160846Y0048113D01*
X0158921Y0048113D01*
X0157959Y0047150D01*
X0157959Y0046188D01*
X0158921Y0048113D02*
X0157959Y0049075D01*
X0157959Y0050037D01*
X0158921Y0050999D01*
X0160846Y0050999D01*
X0161808Y0050037D01*
X0161808Y0049075D01*
X0160846Y0048113D01*
X0164376Y0045226D02*
X0168225Y0045226D01*
X0166300Y0045226D02*
X0166300Y0050999D01*
X0168225Y0049075D01*
X0170792Y0050037D02*
X0174641Y0046188D01*
X0173679Y0045226D01*
X0171754Y0045226D01*
X0170792Y0046188D01*
X0170792Y0050037D01*
X0171754Y0050999D01*
X0173679Y0050999D01*
X0174641Y0050037D01*
X0174641Y0046188D01*
X0177209Y0045226D02*
X0181058Y0045226D01*
X0177209Y0049075D01*
X0177209Y0050037D01*
X0178171Y0050999D01*
X0180095Y0050999D01*
X0181058Y0050037D01*
X0190042Y0050037D02*
X0190042Y0050999D01*
X0190042Y0050037D02*
X0191966Y0048113D01*
X0191966Y0045226D01*
X0191966Y0048113D02*
X0193891Y0050037D01*
X0193891Y0050999D01*
X0196458Y0050999D02*
X0196458Y0045226D01*
X0200307Y0045226D02*
X0200307Y0050999D01*
X0198383Y0049075D01*
X0196458Y0050999D01*
X0202875Y0050999D02*
X0202875Y0045226D01*
X0206724Y0045226D02*
X0206724Y0050999D01*
X0204799Y0049075D01*
X0202875Y0050999D01*
X0209077Y0050999D02*
X0211001Y0050999D01*
X0210039Y0050999D02*
X0210039Y0045226D01*
X0211001Y0045226D02*
X0209077Y0045226D01*
X0214531Y0046188D02*
X0214531Y0050999D01*
X0215493Y0050999D02*
X0213569Y0050999D01*
X0214531Y0046188D02*
X0215493Y0045226D01*
X0216455Y0045226D01*
X0217418Y0046188D01*
D11*
X0305942Y0043724D02*
X0305942Y0049661D01*
X0315942Y0049661D02*
X0315942Y0043724D01*
X0325942Y0043724D02*
X0325942Y0049661D01*
X0335942Y0049661D02*
X0335942Y0043724D01*
X0345942Y0043724D02*
X0345942Y0049661D01*
X0355942Y0049661D02*
X0355942Y0043724D01*
X0375942Y0043724D02*
X0375942Y0049661D01*
X0385942Y0049661D02*
X0385942Y0043724D01*
X0395942Y0043724D02*
X0395942Y0049661D01*
X0405942Y0049661D02*
X0405942Y0043724D01*
X0415942Y0043724D02*
X0415942Y0049661D01*
X0425942Y0049661D02*
X0425942Y0043724D01*
X0435942Y0043724D02*
X0435942Y0049661D01*
X0445942Y0049661D02*
X0445942Y0043724D01*
X0465942Y0043724D02*
X0465942Y0049661D01*
X0475942Y0049661D02*
X0475942Y0043724D01*
X0485942Y0043724D02*
X0485942Y0049661D01*
X0495942Y0049661D02*
X0495942Y0043724D01*
X0505942Y0043724D02*
X0505942Y0049661D01*
X0515942Y0049661D02*
X0515942Y0043724D01*
X0525942Y0043724D02*
X0525942Y0049661D01*
X0535942Y0049661D02*
X0535942Y0043724D01*
X0515942Y0233724D02*
X0515942Y0239661D01*
X0505942Y0239661D02*
X0505942Y0233724D01*
X0495942Y0233724D02*
X0495942Y0239661D01*
X0485942Y0239661D02*
X0485942Y0233724D01*
X0475942Y0233724D02*
X0475942Y0239661D01*
X0465942Y0239661D02*
X0465942Y0233724D01*
X0455942Y0233724D02*
X0455942Y0239661D01*
X0445942Y0239661D02*
X0445942Y0233724D01*
X0425942Y0233724D02*
X0425942Y0239661D01*
X0415942Y0239661D02*
X0415942Y0233724D01*
X0405942Y0233724D02*
X0405942Y0239661D01*
X0395942Y0239661D02*
X0395942Y0233724D01*
X0385942Y0233724D02*
X0385942Y0239661D01*
X0375942Y0239661D02*
X0375942Y0233724D01*
X0365942Y0233724D02*
X0365942Y0239661D01*
X0355942Y0239661D02*
X0355942Y0233724D01*
X0340942Y0233724D02*
X0340942Y0239661D01*
X0330942Y0239661D02*
X0330942Y0233724D01*
X0320942Y0233724D02*
X0320942Y0239661D01*
X0310942Y0239661D02*
X0310942Y0233724D01*
X0300942Y0233724D02*
X0300942Y0239661D01*
X0290942Y0239661D02*
X0290942Y0233724D01*
X0280942Y0233724D02*
X0280942Y0239661D01*
X0270942Y0239661D02*
X0270942Y0233724D01*
D12*
X0545942Y0236693D03*
X0555942Y0236693D03*
X0555942Y0226693D03*
X0545942Y0226693D03*
X0545942Y0216693D03*
X0555942Y0216693D03*
X0555942Y0206693D03*
X0545942Y0206693D03*
X0545942Y0196693D03*
X0555942Y0196693D03*
X0555942Y0186693D03*
X0545942Y0186693D03*
X0545942Y0176693D03*
X0555942Y0176693D03*
X0555942Y0166693D03*
X0545942Y0166693D03*
X0545942Y0156693D03*
X0555942Y0156693D03*
X0555942Y0146693D03*
X0545942Y0146693D03*
X0545942Y0136693D03*
X0555942Y0136693D03*
X0555942Y0126693D03*
X0545942Y0126693D03*
X0545942Y0116693D03*
X0555942Y0116693D03*
X0555942Y0106693D03*
X0545942Y0106693D03*
X0545942Y0096693D03*
X0555942Y0096693D03*
X0555942Y0086693D03*
X0545942Y0086693D03*
X0545942Y0076693D03*
X0555942Y0076693D03*
X0555942Y0066693D03*
X0545942Y0066693D03*
D13*
X0295942Y0049493D02*
X0295942Y0043893D01*
X0285942Y0043893D02*
X0285942Y0049493D01*
X0260942Y0233893D02*
X0260942Y0239493D01*
X0250942Y0239493D02*
X0250942Y0233893D01*
D14*
X0410745Y0093425D03*
X0410745Y0083425D03*
X0410745Y0073425D03*
X0410745Y0063425D03*
D15*
X0516572Y0065425D02*
X0516572Y0071425D01*
X0526572Y0071425D02*
X0526572Y0065425D01*
X0565272Y0058000D02*
X0565272Y0052000D01*
X0575272Y0052000D02*
X0575272Y0058000D01*
X0573863Y0066496D02*
X0567863Y0066496D01*
X0567863Y0076496D02*
X0573863Y0076496D01*
X0573863Y0086496D02*
X0567863Y0086496D01*
X0567863Y0096496D02*
X0573863Y0096496D01*
X0573863Y0106496D02*
X0567863Y0106496D01*
X0526572Y0110425D02*
X0526572Y0116425D01*
X0516572Y0116425D02*
X0516572Y0110425D01*
X0469335Y0140866D02*
X0463335Y0140866D01*
X0463335Y0150866D02*
X0469335Y0150866D01*
X0469335Y0160866D02*
X0463335Y0160866D01*
X0188666Y0141969D02*
X0182666Y0141969D01*
X0182666Y0131969D02*
X0188666Y0131969D01*
X0188666Y0121969D02*
X0182666Y0121969D01*
D16*
X0227674Y0167972D03*
X0237674Y0167972D03*
X0247674Y0167972D03*
X0257674Y0167972D03*
X0267674Y0167972D03*
X0267674Y0177972D03*
X0257674Y0177972D03*
X0247674Y0177972D03*
X0237674Y0177972D03*
X0227674Y0177972D03*
X0199589Y0212067D03*
X0188789Y0212067D03*
X0177989Y0212067D03*
X0167189Y0212067D03*
X0156389Y0212067D03*
X0161789Y0222067D03*
X0172589Y0222067D03*
X0183389Y0222067D03*
X0194189Y0222067D03*
X0198592Y0071378D03*
X0209392Y0071378D03*
X0203992Y0061378D03*
X0193192Y0061378D03*
X0182392Y0061378D03*
X0171592Y0061378D03*
X0176992Y0071378D03*
X0187792Y0071378D03*
X0166192Y0071378D03*
X0592320Y0125290D03*
X0602320Y0130690D03*
X0592320Y0136090D03*
X0602320Y0141490D03*
X0592320Y0146890D03*
X0602320Y0152290D03*
X0592320Y0157690D03*
X0602320Y0163090D03*
X0592320Y0168490D03*
D17*
X0597320Y0196190D03*
X0597320Y0097590D03*
X0237092Y0066378D03*
X0138492Y0066378D03*
X0128689Y0217067D03*
X0227289Y0217067D03*
D18*
X0128383Y0163543D03*
X0125233Y0136969D03*
X0128383Y0110394D03*
D19*
X0140194Y0123583D03*
X0150036Y0123583D03*
X0150036Y0131850D03*
X0150036Y0140512D03*
X0140194Y0142087D03*
X0140194Y0150354D03*
X0150036Y0150354D03*
X0140194Y0131850D03*
D20*
X0119470Y0038489D02*
X0248568Y0038489D01*
X0248568Y0059884D01*
X0248523Y0060031D01*
X0248562Y0060444D01*
X0247415Y0058457D01*
X0245013Y0056055D01*
X0242071Y0054357D01*
X0238790Y0053478D01*
X0235394Y0053478D01*
X0232113Y0054357D01*
X0229171Y0056055D01*
X0226769Y0058457D01*
X0225071Y0061399D01*
X0224192Y0064680D01*
X0224192Y0068076D01*
X0225071Y0071357D01*
X0226769Y0074299D01*
X0229171Y0076701D01*
X0232113Y0078399D01*
X0235394Y0079278D01*
X0238790Y0079278D01*
X0242071Y0078399D01*
X0245013Y0076701D01*
X0247415Y0074299D01*
X0249113Y0071357D01*
X0249992Y0068076D01*
X0249992Y0064692D01*
X0251924Y0067782D01*
X0251963Y0067930D01*
X0252259Y0068318D01*
X0252517Y0068732D01*
X0252612Y0068800D01*
X0252720Y0069026D01*
X0252971Y0069253D01*
X0253177Y0069523D01*
X0253439Y0069675D01*
X0253487Y0069718D01*
X0253666Y0069964D01*
X0253955Y0070140D01*
X0254207Y0070367D01*
X0254493Y0070469D01*
X0254547Y0070502D01*
X0254769Y0070711D01*
X0255085Y0070831D01*
X0255375Y0071008D01*
X0255622Y0071047D01*
X0255714Y0071118D01*
X0256184Y0071248D01*
X0256641Y0071422D01*
X0256793Y0071417D01*
X0277412Y0077127D01*
X0277677Y0077228D01*
X0277792Y0077298D01*
X0277891Y0077388D01*
X0277973Y0077494D01*
X0278033Y0077614D01*
X0278070Y0077743D01*
X0278096Y0078026D01*
X0278096Y0121944D01*
X0278077Y0122184D01*
X0278050Y0122295D01*
X0278007Y0122400D01*
X0277976Y0122451D01*
X0277846Y0122537D01*
X0277591Y0122914D01*
X0277296Y0123260D01*
X0277238Y0123437D01*
X0276298Y0124831D01*
X0275773Y0124831D01*
X0275182Y0124815D01*
X0275138Y0124831D01*
X0245720Y0124831D01*
X0244965Y0124810D01*
X0244704Y0124741D01*
X0244335Y0124792D01*
X0243962Y0124781D01*
X0243710Y0124877D01*
X0243278Y0124936D01*
X0243010Y0124911D01*
X0242654Y0125021D01*
X0242285Y0125072D01*
X0242052Y0125208D01*
X0241825Y0125278D01*
X0241754Y0125275D01*
X0241220Y0125466D01*
X0240678Y0125634D01*
X0240623Y0125680D01*
X0240555Y0125704D01*
X0240135Y0126085D01*
X0239698Y0126447D01*
X0239665Y0126511D01*
X0228083Y0137010D01*
X0228060Y0137016D01*
X0227788Y0137038D01*
X0198708Y0137423D01*
X0198602Y0137389D01*
X0198075Y0137432D01*
X0197546Y0137439D01*
X0197444Y0137483D01*
X0197333Y0137492D01*
X0196862Y0137733D01*
X0196377Y0137941D01*
X0196299Y0138021D01*
X0196200Y0138072D01*
X0195857Y0138475D01*
X0195488Y0138853D01*
X0195447Y0138957D01*
X0193425Y0141334D01*
X0193348Y0140844D01*
X0193114Y0140126D01*
X0192771Y0139453D01*
X0192327Y0138842D01*
X0191793Y0138307D01*
X0191182Y0137863D01*
X0190509Y0137520D01*
X0189873Y0137314D01*
X0191725Y0136546D01*
X0193244Y0135027D01*
X0194066Y0133043D01*
X0194066Y0130894D01*
X0193244Y0128910D01*
X0191725Y0127391D01*
X0190706Y0126969D01*
X0191725Y0126546D01*
X0193244Y0125027D01*
X0194066Y0123043D01*
X0194066Y0120894D01*
X0193244Y0118910D01*
X0191725Y0117391D01*
X0189740Y0116569D01*
X0188866Y0116569D01*
X0188866Y0099790D01*
X0194236Y0094420D01*
X0216388Y0094420D01*
X0221208Y0099241D01*
X0214496Y0099241D01*
X0213222Y0097967D01*
X0211538Y0097269D01*
X0209715Y0097269D01*
X0208032Y0097967D01*
X0206743Y0099255D01*
X0206046Y0100939D01*
X0206046Y0102762D01*
X0206743Y0104445D01*
X0208032Y0105734D01*
X0209715Y0106431D01*
X0211538Y0106431D01*
X0213222Y0105734D01*
X0213315Y0105641D01*
X0222293Y0105641D01*
X0222987Y0106335D01*
X0224163Y0106822D01*
X0229380Y0106822D01*
X0232717Y0110159D01*
X0233617Y0111059D01*
X0234793Y0111546D01*
X0256145Y0111546D01*
X0257321Y0111059D01*
X0258221Y0110159D01*
X0258221Y0110159D01*
X0258606Y0109775D01*
X0262269Y0109775D01*
X0262953Y0110458D01*
X0264637Y0111156D01*
X0266459Y0111156D01*
X0268143Y0110458D01*
X0269432Y0109170D01*
X0270129Y0107486D01*
X0270129Y0105664D01*
X0269432Y0103980D01*
X0268143Y0102691D01*
X0266459Y0101994D01*
X0264637Y0101994D01*
X0262953Y0102691D01*
X0262269Y0103375D01*
X0260426Y0103375D01*
X0260680Y0102762D01*
X0260680Y0100939D01*
X0259983Y0099255D01*
X0258694Y0097967D01*
X0257010Y0097269D01*
X0255188Y0097269D01*
X0253504Y0097967D01*
X0252215Y0099255D01*
X0252088Y0099564D01*
X0251715Y0098665D01*
X0250426Y0097376D01*
X0248743Y0096679D01*
X0246920Y0096679D01*
X0245236Y0097376D01*
X0244553Y0098060D01*
X0239117Y0098060D01*
X0233418Y0092361D01*
X0232518Y0091460D01*
X0231342Y0090973D01*
X0227306Y0090973D01*
X0223866Y0087533D01*
X0223866Y0084678D01*
X0223379Y0083502D01*
X0219836Y0079959D01*
X0219836Y0079959D01*
X0218935Y0079059D01*
X0217759Y0078572D01*
X0208218Y0078572D01*
X0207042Y0079059D01*
X0205958Y0080143D01*
X0204991Y0080143D01*
X0203307Y0080841D01*
X0202019Y0082129D01*
X0201321Y0083813D01*
X0201321Y0085636D01*
X0202019Y0087319D01*
X0202720Y0088020D01*
X0192274Y0088020D01*
X0191097Y0088508D01*
X0190197Y0089408D01*
X0190197Y0089408D01*
X0183853Y0095752D01*
X0183853Y0095752D01*
X0182953Y0096652D01*
X0182466Y0097828D01*
X0182466Y0116569D01*
X0181592Y0116569D01*
X0179607Y0117391D01*
X0178088Y0118910D01*
X0177266Y0120894D01*
X0177266Y0123043D01*
X0178088Y0125027D01*
X0179607Y0126546D01*
X0180626Y0126969D01*
X0179607Y0127391D01*
X0178088Y0128910D01*
X0177266Y0130894D01*
X0177266Y0133043D01*
X0178088Y0135027D01*
X0179607Y0136546D01*
X0181459Y0137314D01*
X0180823Y0137520D01*
X0180150Y0137863D01*
X0179539Y0138307D01*
X0179005Y0138842D01*
X0178561Y0139453D01*
X0178218Y0140126D01*
X0177984Y0140844D01*
X0177866Y0141591D01*
X0177866Y0141768D01*
X0185466Y0141768D01*
X0185466Y0142169D01*
X0177866Y0142169D01*
X0177866Y0142346D01*
X0177984Y0143093D01*
X0178218Y0143811D01*
X0178561Y0144484D01*
X0179005Y0145095D01*
X0179539Y0145630D01*
X0180150Y0146074D01*
X0180185Y0146091D01*
X0171197Y0146091D01*
X0171042Y0146044D01*
X0170565Y0146091D01*
X0170085Y0146091D01*
X0169943Y0146150D01*
X0169634Y0146120D01*
X0169327Y0146213D01*
X0169007Y0146245D01*
X0168723Y0146396D01*
X0168588Y0146437D01*
X0168268Y0146469D01*
X0167985Y0146620D01*
X0167677Y0146714D01*
X0167429Y0146917D01*
X0167304Y0146984D01*
X0166997Y0147077D01*
X0166748Y0147281D01*
X0166465Y0147433D01*
X0166268Y0147673D01*
X0166125Y0147732D01*
X0165786Y0148071D01*
X0165416Y0148375D01*
X0165340Y0148517D01*
X0160466Y0153391D01*
X0160350Y0153450D01*
X0160019Y0153838D01*
X0159657Y0154200D01*
X0159654Y0154209D01*
X0159573Y0154267D01*
X0159372Y0154595D01*
X0159122Y0154888D01*
X0159065Y0155065D01*
X0158933Y0155196D01*
X0158786Y0155551D01*
X0158585Y0155879D01*
X0158556Y0156063D01*
X0158447Y0156214D01*
X0158357Y0156588D01*
X0158210Y0156943D01*
X0158210Y0157129D01*
X0158125Y0157295D01*
X0158095Y0157678D01*
X0158005Y0158052D01*
X0158021Y0158150D01*
X0158017Y0158160D01*
X0158017Y0158670D01*
X0157977Y0159180D01*
X0158017Y0159303D01*
X0158017Y0165682D01*
X0155955Y0167745D01*
X0136092Y0167745D01*
X0137113Y0165280D01*
X0137113Y0161807D01*
X0135784Y0158598D01*
X0133328Y0156142D01*
X0130119Y0154813D01*
X0126646Y0154813D01*
X0123437Y0156142D01*
X0120981Y0158598D01*
X0119652Y0161807D01*
X0119652Y0165280D01*
X0120673Y0167745D01*
X0119470Y0167745D01*
X0119470Y0143553D01*
X0120287Y0144370D01*
X0123496Y0145699D01*
X0126970Y0145699D01*
X0130178Y0144370D01*
X0132634Y0141914D01*
X0133964Y0138705D01*
X0133964Y0135232D01*
X0132634Y0132023D01*
X0130178Y0129567D01*
X0126970Y0128238D01*
X0123496Y0128238D01*
X0120287Y0129567D01*
X0119470Y0130384D01*
X0119470Y0098452D01*
X0119476Y0098457D01*
X0121818Y0099810D01*
X0124432Y0100510D01*
X0127137Y0100510D01*
X0129750Y0099810D01*
X0132093Y0098457D01*
X0134005Y0096545D01*
X0135358Y0094202D01*
X0136058Y0091589D01*
X0136058Y0088884D01*
X0135358Y0086271D01*
X0134005Y0083928D01*
X0132093Y0082015D01*
X0129750Y0080662D01*
X0127137Y0079962D01*
X0124432Y0079962D01*
X0121818Y0080662D01*
X0119476Y0082015D01*
X0119470Y0082021D01*
X0119470Y0038489D01*
X0119470Y0039515D02*
X0248568Y0039515D01*
X0248568Y0041113D02*
X0119470Y0041113D01*
X0119470Y0042712D02*
X0157193Y0042712D01*
X0157222Y0042683D02*
X0157222Y0042683D01*
X0157222Y0042683D01*
X0156378Y0043527D01*
X0156378Y0043527D01*
X0156260Y0043645D01*
X0156260Y0043645D01*
X0155430Y0044475D01*
X0155416Y0044489D01*
X0155416Y0044489D01*
X0155154Y0045122D01*
X0154959Y0045591D01*
X0154959Y0047747D01*
X0155110Y0048113D01*
X0154959Y0048478D01*
X0154959Y0050634D01*
X0155416Y0051737D01*
X0156260Y0052580D01*
X0157222Y0053543D01*
X0158325Y0053999D01*
X0161443Y0053999D01*
X0161886Y0053816D01*
X0162545Y0053543D01*
X0163389Y0052699D01*
X0163389Y0052699D01*
X0163507Y0052580D01*
X0163507Y0052580D01*
X0163649Y0052439D01*
X0163757Y0052699D01*
X0164601Y0053543D01*
X0165703Y0053999D01*
X0166897Y0053999D01*
X0167999Y0053543D01*
X0168843Y0052699D01*
X0168843Y0052699D01*
X0169027Y0052515D01*
X0169093Y0052580D01*
X0170055Y0053543D01*
X0171158Y0053999D01*
X0174276Y0053999D01*
X0174719Y0053816D01*
X0175378Y0053543D01*
X0175925Y0052996D01*
X0176471Y0053543D01*
X0177574Y0053999D01*
X0180692Y0053999D01*
X0181162Y0053805D01*
X0181795Y0053543D01*
X0181795Y0053543D01*
X0181809Y0053529D01*
X0182639Y0052699D01*
X0182639Y0052699D01*
X0183601Y0051737D01*
X0184058Y0050634D01*
X0184058Y0049440D01*
X0183601Y0048338D01*
X0182895Y0047632D01*
X0183601Y0046925D01*
X0184058Y0045823D01*
X0184058Y0044629D01*
X0183601Y0043527D01*
X0182757Y0042683D01*
X0181654Y0042226D01*
X0176612Y0042226D01*
X0175509Y0042683D01*
X0175444Y0042748D01*
X0175378Y0042683D01*
X0174276Y0042226D01*
X0171158Y0042226D01*
X0170699Y0042416D01*
X0170055Y0042683D01*
X0170055Y0042683D01*
X0170055Y0042683D01*
X0169989Y0042748D01*
X0169924Y0042683D01*
X0168821Y0042226D01*
X0163779Y0042226D01*
X0162676Y0042683D01*
X0162611Y0042748D01*
X0162545Y0042683D01*
X0161443Y0042226D01*
X0158325Y0042226D01*
X0157398Y0042610D01*
X0157222Y0042683D01*
X0155594Y0044310D02*
X0119470Y0044310D01*
X0119470Y0045909D02*
X0154959Y0045909D01*
X0154959Y0047507D02*
X0119470Y0047507D01*
X0119470Y0049106D02*
X0154959Y0049106D01*
X0154988Y0050704D02*
X0119470Y0050704D01*
X0119470Y0052303D02*
X0155982Y0052303D01*
X0158088Y0053902D02*
X0141771Y0053902D01*
X0140190Y0053478D02*
X0143471Y0054357D01*
X0146413Y0056055D01*
X0148815Y0058457D01*
X0150513Y0061399D01*
X0151392Y0064680D01*
X0151392Y0068076D01*
X0150513Y0071357D01*
X0148815Y0074299D01*
X0146413Y0076701D01*
X0143471Y0078399D01*
X0140190Y0079278D01*
X0136794Y0079278D01*
X0133513Y0078399D01*
X0130571Y0076701D01*
X0128169Y0074299D01*
X0126471Y0071357D01*
X0125592Y0068076D01*
X0125592Y0064680D01*
X0126471Y0061399D01*
X0128169Y0058457D01*
X0130571Y0056055D01*
X0133513Y0054357D01*
X0136794Y0053478D01*
X0140190Y0053478D01*
X0135213Y0053902D02*
X0119470Y0053902D01*
X0119470Y0055500D02*
X0131533Y0055500D01*
X0129528Y0057099D02*
X0119470Y0057099D01*
X0119470Y0058697D02*
X0128031Y0058697D01*
X0127108Y0060296D02*
X0119470Y0060296D01*
X0119470Y0061894D02*
X0126338Y0061894D01*
X0125910Y0063493D02*
X0119470Y0063493D01*
X0119470Y0065091D02*
X0125592Y0065091D01*
X0125592Y0066690D02*
X0119470Y0066690D01*
X0119470Y0068288D02*
X0125649Y0068288D01*
X0126077Y0069887D02*
X0119470Y0069887D01*
X0119470Y0071485D02*
X0126545Y0071485D01*
X0127468Y0073084D02*
X0119470Y0073084D01*
X0119470Y0074682D02*
X0128553Y0074682D01*
X0130151Y0076281D02*
X0119470Y0076281D01*
X0119470Y0077879D02*
X0132613Y0077879D01*
X0130467Y0081076D02*
X0203072Y0081076D01*
X0201793Y0082675D02*
X0132752Y0082675D01*
X0134205Y0084273D02*
X0201321Y0084273D01*
X0201768Y0085118D02*
X0201768Y0079002D01*
X0209392Y0071378D01*
X0216242Y0078228D01*
X0223619Y0078228D01*
X0227162Y0081772D01*
X0227162Y0089449D01*
X0227000Y0090667D02*
X0278096Y0090667D01*
X0278096Y0089069D02*
X0225402Y0089069D01*
X0223866Y0087470D02*
X0278096Y0087470D01*
X0278096Y0085872D02*
X0223866Y0085872D01*
X0223698Y0084273D02*
X0278096Y0084273D01*
X0278096Y0082675D02*
X0222551Y0082675D01*
X0220953Y0081076D02*
X0278096Y0081076D01*
X0278096Y0079478D02*
X0219354Y0079478D01*
X0217123Y0081772D02*
X0208855Y0081772D01*
X0205902Y0084724D01*
X0201768Y0085118D02*
X0199012Y0087874D01*
X0191138Y0087874D01*
X0181099Y0097913D01*
X0181099Y0114252D01*
X0176375Y0118976D01*
X0176375Y0135512D01*
X0182831Y0141969D01*
X0185666Y0141969D01*
X0185466Y0141820D02*
X0154418Y0141820D01*
X0154495Y0141582D02*
X0154273Y0142267D01*
X0153946Y0142908D01*
X0153523Y0143490D01*
X0153014Y0143999D01*
X0152432Y0144422D01*
X0151791Y0144749D01*
X0151107Y0144971D01*
X0150396Y0145083D01*
X0150122Y0145083D01*
X0150122Y0140598D01*
X0149950Y0140598D01*
X0149950Y0145083D01*
X0149676Y0145083D01*
X0148966Y0144971D01*
X0148281Y0144749D01*
X0147640Y0144422D01*
X0147058Y0143999D01*
X0146549Y0143490D01*
X0146126Y0142908D01*
X0145799Y0142267D01*
X0145577Y0141582D01*
X0145464Y0140872D01*
X0145464Y0140598D01*
X0149950Y0140598D01*
X0149950Y0140426D01*
X0145464Y0140426D01*
X0145464Y0140152D01*
X0145577Y0139441D01*
X0145799Y0138757D01*
X0146126Y0138116D01*
X0146549Y0137534D01*
X0147058Y0137025D01*
X0147640Y0136602D01*
X0147798Y0136521D01*
X0147107Y0136235D01*
X0145652Y0134780D01*
X0145115Y0133484D01*
X0144578Y0134780D01*
X0143123Y0136235D01*
X0141352Y0136968D01*
X0143123Y0137702D01*
X0144578Y0139157D01*
X0145365Y0141058D01*
X0145365Y0143115D01*
X0144578Y0145016D01*
X0143374Y0146220D01*
X0144578Y0147425D01*
X0145365Y0149326D01*
X0145365Y0151383D01*
X0144578Y0153284D01*
X0143123Y0154739D01*
X0141222Y0155526D01*
X0139165Y0155526D01*
X0137264Y0154739D01*
X0135809Y0153284D01*
X0135022Y0151383D01*
X0135022Y0149326D01*
X0135809Y0147425D01*
X0137014Y0146220D01*
X0135809Y0145016D01*
X0135022Y0143115D01*
X0135022Y0141058D01*
X0135809Y0139157D01*
X0137264Y0137702D01*
X0139036Y0136968D01*
X0137264Y0136235D01*
X0135809Y0134780D01*
X0135022Y0132879D01*
X0135022Y0130822D01*
X0135809Y0128921D01*
X0137014Y0127717D01*
X0135809Y0126512D01*
X0135022Y0124611D01*
X0135022Y0122554D01*
X0135809Y0120653D01*
X0137264Y0119198D01*
X0139165Y0118411D01*
X0141222Y0118411D01*
X0143123Y0119198D01*
X0144578Y0120653D01*
X0145115Y0121949D01*
X0145652Y0120653D01*
X0147107Y0119198D01*
X0149007Y0118411D01*
X0151065Y0118411D01*
X0152966Y0119198D01*
X0154420Y0120653D01*
X0155208Y0122554D01*
X0155208Y0124611D01*
X0154420Y0126512D01*
X0153216Y0127717D01*
X0154420Y0128921D01*
X0155208Y0130822D01*
X0155208Y0132879D01*
X0154420Y0134780D01*
X0152966Y0136235D01*
X0152274Y0136521D01*
X0152432Y0136602D01*
X0153014Y0137025D01*
X0153523Y0137534D01*
X0153946Y0138116D01*
X0154273Y0138757D01*
X0154495Y0139441D01*
X0154608Y0140152D01*
X0154608Y0140426D01*
X0150122Y0140426D01*
X0150122Y0140598D01*
X0154608Y0140598D01*
X0154608Y0140872D01*
X0154495Y0141582D01*
X0154608Y0140221D02*
X0178187Y0140221D01*
X0179224Y0138623D02*
X0154204Y0138623D01*
X0153013Y0137024D02*
X0180760Y0137024D01*
X0178486Y0135426D02*
X0153775Y0135426D01*
X0154815Y0133827D02*
X0177591Y0133827D01*
X0177266Y0132229D02*
X0155208Y0132229D01*
X0155128Y0130630D02*
X0177375Y0130630D01*
X0178038Y0129032D02*
X0154466Y0129032D01*
X0153500Y0127433D02*
X0179565Y0127433D01*
X0178895Y0125835D02*
X0154701Y0125835D01*
X0155208Y0124236D02*
X0177760Y0124236D01*
X0177266Y0122637D02*
X0155208Y0122637D01*
X0154580Y0121039D02*
X0177266Y0121039D01*
X0177868Y0119440D02*
X0153208Y0119440D01*
X0146864Y0119440D02*
X0143365Y0119440D01*
X0144738Y0121039D02*
X0145492Y0121039D01*
X0137022Y0119440D02*
X0119470Y0119440D01*
X0119470Y0117842D02*
X0123550Y0117842D01*
X0123437Y0117795D02*
X0120981Y0115339D01*
X0119652Y0112130D01*
X0119652Y0108657D01*
X0120981Y0105448D01*
X0123437Y0102992D01*
X0126646Y0101663D01*
X0130119Y0101663D01*
X0133328Y0102992D01*
X0135784Y0105448D01*
X0137113Y0108657D01*
X0137113Y0112130D01*
X0135784Y0115339D01*
X0133328Y0117795D01*
X0130119Y0119124D01*
X0126646Y0119124D01*
X0123437Y0117795D01*
X0121885Y0116243D02*
X0119470Y0116243D01*
X0119470Y0114645D02*
X0120693Y0114645D01*
X0120031Y0113046D02*
X0119470Y0113046D01*
X0119470Y0111448D02*
X0119652Y0111448D01*
X0119652Y0109849D02*
X0119470Y0109849D01*
X0119470Y0108251D02*
X0119820Y0108251D01*
X0119470Y0106652D02*
X0120482Y0106652D01*
X0121375Y0105054D02*
X0119470Y0105054D01*
X0119470Y0103455D02*
X0122974Y0103455D01*
X0123491Y0100258D02*
X0119470Y0100258D01*
X0119470Y0098660D02*
X0119826Y0098660D01*
X0119470Y0101857D02*
X0126178Y0101857D01*
X0128077Y0100258D02*
X0182466Y0100258D01*
X0182466Y0098660D02*
X0131742Y0098660D01*
X0133489Y0097061D02*
X0182784Y0097061D01*
X0184142Y0095463D02*
X0134630Y0095463D01*
X0135448Y0093864D02*
X0185741Y0093864D01*
X0187339Y0092266D02*
X0135877Y0092266D01*
X0136058Y0090667D02*
X0188938Y0090667D01*
X0190536Y0089069D02*
X0136058Y0089069D01*
X0135679Y0087470D02*
X0202169Y0087470D01*
X0201419Y0085872D02*
X0135128Y0085872D01*
X0121102Y0081076D02*
X0119470Y0081076D01*
X0119470Y0079478D02*
X0206623Y0079478D01*
X0207404Y0076178D02*
X0204592Y0073366D01*
X0204592Y0071578D01*
X0209192Y0071578D01*
X0209192Y0076178D01*
X0207404Y0076178D01*
X0205908Y0074682D02*
X0202925Y0074682D01*
X0203992Y0073615D02*
X0200829Y0076778D01*
X0196355Y0076778D01*
X0193192Y0073615D01*
X0193192Y0069141D01*
X0196355Y0065978D01*
X0200829Y0065978D01*
X0203992Y0069141D01*
X0203992Y0073615D01*
X0203992Y0073084D02*
X0204592Y0073084D01*
X0203992Y0071485D02*
X0209192Y0071485D01*
X0209192Y0071578D02*
X0209192Y0071178D01*
X0204592Y0071178D01*
X0204592Y0069390D01*
X0207404Y0066578D01*
X0209192Y0066578D01*
X0209192Y0071178D01*
X0209592Y0071178D01*
X0209592Y0071578D01*
X0209192Y0071578D01*
X0209592Y0071578D02*
X0209592Y0076178D01*
X0211380Y0076178D01*
X0214192Y0073366D01*
X0214192Y0071578D01*
X0209592Y0071578D01*
X0209592Y0071485D02*
X0225145Y0071485D01*
X0224677Y0069887D02*
X0214192Y0069887D01*
X0214192Y0069390D02*
X0214192Y0071178D01*
X0209592Y0071178D01*
X0209592Y0066578D01*
X0211380Y0066578D01*
X0214192Y0069390D01*
X0213090Y0068288D02*
X0224249Y0068288D01*
X0224192Y0066690D02*
X0211492Y0066690D01*
X0209592Y0066690D02*
X0209192Y0066690D01*
X0209192Y0068288D02*
X0209592Y0068288D01*
X0209592Y0069887D02*
X0209192Y0069887D01*
X0209192Y0073084D02*
X0209592Y0073084D01*
X0209592Y0074682D02*
X0209192Y0074682D01*
X0212876Y0074682D02*
X0227153Y0074682D01*
X0226068Y0073084D02*
X0214192Y0073084D01*
X0204592Y0069887D02*
X0203992Y0069887D01*
X0203139Y0068288D02*
X0205694Y0068288D01*
X0206229Y0066778D02*
X0201755Y0066778D01*
X0198592Y0063615D01*
X0198592Y0059141D01*
X0201755Y0055978D01*
X0206229Y0055978D01*
X0209392Y0059141D01*
X0209392Y0063615D01*
X0206229Y0066778D01*
X0206317Y0066690D02*
X0207292Y0066690D01*
X0207916Y0065091D02*
X0224192Y0065091D01*
X0224510Y0063493D02*
X0209392Y0063493D01*
X0209392Y0061894D02*
X0224938Y0061894D01*
X0225708Y0060296D02*
X0209392Y0060296D01*
X0208948Y0058697D02*
X0226631Y0058697D01*
X0228128Y0057099D02*
X0207349Y0057099D01*
X0207320Y0053999D02*
X0206127Y0053999D01*
X0206114Y0053994D01*
X0205024Y0053543D01*
X0204799Y0053318D01*
X0204574Y0053543D01*
X0203471Y0053999D01*
X0202278Y0053999D01*
X0201591Y0053715D01*
X0200904Y0053999D01*
X0199710Y0053999D01*
X0199697Y0053994D01*
X0198608Y0053543D01*
X0198383Y0053318D01*
X0198157Y0053543D01*
X0197055Y0053999D01*
X0195861Y0053999D01*
X0195174Y0053715D01*
X0194487Y0053999D01*
X0193294Y0053999D01*
X0192191Y0053543D01*
X0191966Y0053318D01*
X0191741Y0053543D01*
X0190638Y0053999D01*
X0189445Y0053999D01*
X0188342Y0053543D01*
X0187498Y0052699D01*
X0187042Y0051596D01*
X0187042Y0049440D01*
X0187498Y0048338D01*
X0188342Y0047494D01*
X0188966Y0046870D01*
X0188966Y0044629D01*
X0189423Y0043527D01*
X0190267Y0042683D01*
X0191369Y0042226D01*
X0192563Y0042226D01*
X0193665Y0042683D01*
X0194212Y0043229D01*
X0194759Y0042683D01*
X0195861Y0042226D01*
X0197055Y0042226D01*
X0198157Y0042683D01*
X0198383Y0042908D01*
X0198608Y0042683D01*
X0199710Y0042226D01*
X0200904Y0042226D01*
X0201591Y0042511D01*
X0202278Y0042226D01*
X0203471Y0042226D01*
X0204574Y0042683D01*
X0204799Y0042908D01*
X0205024Y0042683D01*
X0206127Y0042226D01*
X0207320Y0042226D01*
X0207900Y0042466D01*
X0208480Y0042226D01*
X0211598Y0042226D01*
X0212701Y0042683D01*
X0213247Y0043229D01*
X0213794Y0042683D01*
X0213794Y0042683D01*
X0213794Y0042683D01*
X0213996Y0042599D01*
X0214896Y0042226D01*
X0217052Y0042226D01*
X0218155Y0042683D01*
X0218999Y0043527D01*
X0219961Y0044489D01*
X0220418Y0045591D01*
X0220418Y0046785D01*
X0219961Y0047888D01*
X0219117Y0048731D01*
X0218014Y0049188D01*
X0217925Y0049188D01*
X0218037Y0049300D01*
X0218493Y0050403D01*
X0218493Y0051596D01*
X0218037Y0052699D01*
X0217193Y0053543D01*
X0216090Y0053999D01*
X0212972Y0053999D01*
X0212285Y0053715D01*
X0211598Y0053999D01*
X0208480Y0053999D01*
X0207900Y0053759D01*
X0207320Y0053999D01*
X0207557Y0053902D02*
X0208244Y0053902D01*
X0205890Y0053902D02*
X0203708Y0053902D01*
X0202041Y0053902D02*
X0201140Y0053902D01*
X0199474Y0053902D02*
X0197291Y0053902D01*
X0195625Y0053902D02*
X0194724Y0053902D01*
X0193057Y0053902D02*
X0190875Y0053902D01*
X0189208Y0053902D02*
X0180928Y0053902D01*
X0180155Y0055978D02*
X0184629Y0055978D01*
X0187792Y0059141D01*
X0187792Y0063615D01*
X0184629Y0066778D01*
X0180155Y0066778D01*
X0176992Y0063615D01*
X0176992Y0059141D01*
X0180155Y0055978D01*
X0179035Y0057099D02*
X0174949Y0057099D01*
X0173829Y0055978D02*
X0169355Y0055978D01*
X0166192Y0059141D01*
X0166192Y0063615D01*
X0169355Y0066778D01*
X0173829Y0066778D01*
X0176992Y0063615D01*
X0176992Y0059141D01*
X0173829Y0055978D01*
X0174512Y0053902D02*
X0177338Y0053902D01*
X0177436Y0058697D02*
X0176548Y0058697D01*
X0176992Y0060296D02*
X0176992Y0060296D01*
X0176992Y0061894D02*
X0176992Y0061894D01*
X0176992Y0063493D02*
X0176992Y0063493D01*
X0175516Y0065091D02*
X0178468Y0065091D01*
X0179229Y0065978D02*
X0174755Y0065978D01*
X0171592Y0069141D01*
X0171592Y0073615D01*
X0174755Y0076778D01*
X0179229Y0076778D01*
X0182392Y0073615D01*
X0182392Y0069141D01*
X0185555Y0065978D01*
X0190029Y0065978D01*
X0193192Y0069141D01*
X0193192Y0073615D01*
X0190029Y0076778D01*
X0185555Y0076778D01*
X0182392Y0073615D01*
X0182392Y0069141D01*
X0179229Y0065978D01*
X0179940Y0066690D02*
X0180067Y0066690D01*
X0181539Y0068288D02*
X0183245Y0068288D01*
X0182392Y0069887D02*
X0182392Y0069887D01*
X0182392Y0071485D02*
X0182392Y0071485D01*
X0182392Y0073084D02*
X0182392Y0073084D01*
X0181325Y0074682D02*
X0183459Y0074682D01*
X0185058Y0076281D02*
X0179726Y0076281D01*
X0174258Y0076281D02*
X0168926Y0076281D01*
X0168429Y0076778D02*
X0163955Y0076778D01*
X0160792Y0073615D01*
X0160792Y0069141D01*
X0163955Y0065978D01*
X0168429Y0065978D01*
X0171592Y0069141D01*
X0171592Y0073615D01*
X0168429Y0076778D01*
X0170525Y0074682D02*
X0172659Y0074682D01*
X0171592Y0073084D02*
X0171592Y0073084D01*
X0171592Y0071485D02*
X0171592Y0071485D01*
X0171592Y0069887D02*
X0171592Y0069887D01*
X0170739Y0068288D02*
X0172445Y0068288D01*
X0173917Y0066690D02*
X0174044Y0066690D01*
X0169267Y0066690D02*
X0169140Y0066690D01*
X0167668Y0065091D02*
X0151392Y0065091D01*
X0151392Y0066690D02*
X0163244Y0066690D01*
X0161645Y0068288D02*
X0151335Y0068288D01*
X0150907Y0069887D02*
X0160792Y0069887D01*
X0160792Y0071485D02*
X0150439Y0071485D01*
X0149516Y0073084D02*
X0160792Y0073084D01*
X0161859Y0074682D02*
X0148431Y0074682D01*
X0146833Y0076281D02*
X0163458Y0076281D01*
X0144371Y0077879D02*
X0231213Y0077879D01*
X0228751Y0076281D02*
X0201326Y0076281D01*
X0195858Y0076281D02*
X0190526Y0076281D01*
X0192125Y0074682D02*
X0194259Y0074682D01*
X0193192Y0073084D02*
X0193192Y0073084D01*
X0193192Y0071485D02*
X0193192Y0071485D01*
X0193192Y0069887D02*
X0193192Y0069887D01*
X0192339Y0068288D02*
X0194045Y0068288D01*
X0195429Y0066778D02*
X0190955Y0066778D01*
X0187792Y0063615D01*
X0187792Y0059141D01*
X0190955Y0055978D01*
X0195429Y0055978D01*
X0198592Y0059141D01*
X0198592Y0063615D01*
X0195429Y0066778D01*
X0195517Y0066690D02*
X0195644Y0066690D01*
X0197116Y0065091D02*
X0200068Y0065091D01*
X0201540Y0066690D02*
X0201667Y0066690D01*
X0198592Y0063493D02*
X0198592Y0063493D01*
X0198592Y0061894D02*
X0198592Y0061894D01*
X0198592Y0060296D02*
X0198592Y0060296D01*
X0198148Y0058697D02*
X0199036Y0058697D01*
X0200635Y0057099D02*
X0196549Y0057099D01*
X0189835Y0057099D02*
X0185749Y0057099D01*
X0187348Y0058697D02*
X0188236Y0058697D01*
X0187792Y0060296D02*
X0187792Y0060296D01*
X0187792Y0061894D02*
X0187792Y0061894D01*
X0187792Y0063493D02*
X0187792Y0063493D01*
X0186316Y0065091D02*
X0189268Y0065091D01*
X0190740Y0066690D02*
X0190867Y0066690D01*
X0184844Y0066690D02*
X0184717Y0066690D01*
X0166192Y0063493D02*
X0151074Y0063493D01*
X0150646Y0061894D02*
X0166192Y0061894D01*
X0166192Y0060296D02*
X0149876Y0060296D01*
X0148953Y0058697D02*
X0166636Y0058697D01*
X0168235Y0057099D02*
X0147456Y0057099D01*
X0145451Y0055500D02*
X0230133Y0055500D01*
X0233813Y0053902D02*
X0216326Y0053902D01*
X0218200Y0052303D02*
X0248568Y0052303D01*
X0248568Y0050704D02*
X0218493Y0050704D01*
X0218213Y0049106D02*
X0248568Y0049106D01*
X0248568Y0047507D02*
X0220118Y0047507D01*
X0220418Y0045909D02*
X0248568Y0045909D01*
X0248568Y0044310D02*
X0219783Y0044310D01*
X0218184Y0042712D02*
X0248568Y0042712D01*
X0248568Y0053902D02*
X0240371Y0053902D01*
X0244051Y0055500D02*
X0248568Y0055500D01*
X0248568Y0057099D02*
X0246056Y0057099D01*
X0247553Y0058697D02*
X0248568Y0058697D01*
X0248548Y0060296D02*
X0248476Y0060296D01*
X0249992Y0065091D02*
X0250242Y0065091D01*
X0249992Y0066690D02*
X0251241Y0066690D01*
X0252236Y0068288D02*
X0249935Y0068288D01*
X0249507Y0069887D02*
X0253610Y0069887D01*
X0257039Y0071485D02*
X0249039Y0071485D01*
X0248116Y0073084D02*
X0262812Y0073084D01*
X0268584Y0074682D02*
X0247031Y0074682D01*
X0245433Y0076281D02*
X0274357Y0076281D01*
X0278082Y0077879D02*
X0242971Y0077879D01*
X0220666Y0085315D02*
X0217123Y0081772D01*
X0220666Y0085315D02*
X0220666Y0088858D01*
X0225981Y0094173D01*
X0230705Y0094173D01*
X0237792Y0101260D01*
X0247831Y0101260D01*
X0245996Y0097061D02*
X0238119Y0097061D01*
X0236520Y0095463D02*
X0278096Y0095463D01*
X0278096Y0097061D02*
X0249666Y0097061D01*
X0251710Y0098660D02*
X0252811Y0098660D01*
X0256099Y0101850D02*
X0252359Y0105591D01*
X0236808Y0105591D01*
X0231886Y0100669D01*
X0227162Y0100669D01*
X0217713Y0091220D01*
X0192910Y0091220D01*
X0185666Y0098465D01*
X0185666Y0121969D01*
X0182466Y0116243D02*
X0134880Y0116243D01*
X0136072Y0114645D02*
X0182466Y0114645D01*
X0182466Y0113046D02*
X0136734Y0113046D01*
X0137113Y0111448D02*
X0182466Y0111448D01*
X0182466Y0109849D02*
X0137113Y0109849D01*
X0136945Y0108251D02*
X0182466Y0108251D01*
X0182466Y0106652D02*
X0136283Y0106652D01*
X0135390Y0105054D02*
X0182466Y0105054D01*
X0182466Y0103455D02*
X0133791Y0103455D01*
X0130587Y0101857D02*
X0182466Y0101857D01*
X0188866Y0101857D02*
X0206046Y0101857D01*
X0206328Y0100258D02*
X0188866Y0100258D01*
X0189996Y0098660D02*
X0207339Y0098660D01*
X0210627Y0101850D02*
X0211217Y0102441D01*
X0223619Y0102441D01*
X0224800Y0103622D01*
X0230705Y0103622D01*
X0235430Y0108346D01*
X0255509Y0108346D01*
X0257280Y0106575D01*
X0265548Y0106575D01*
X0268752Y0109849D02*
X0278096Y0109849D01*
X0278096Y0108251D02*
X0269812Y0108251D01*
X0270129Y0106652D02*
X0278096Y0106652D01*
X0278096Y0105054D02*
X0269876Y0105054D01*
X0268907Y0103455D02*
X0278096Y0103455D01*
X0278096Y0101857D02*
X0260680Y0101857D01*
X0260398Y0100258D02*
X0278096Y0100258D01*
X0278096Y0098660D02*
X0259387Y0098660D01*
X0278096Y0093864D02*
X0234922Y0093864D01*
X0233323Y0092266D02*
X0278096Y0092266D01*
X0308118Y0092266D02*
X0406053Y0092266D01*
X0405967Y0092475D02*
X0406694Y0090719D01*
X0408038Y0089375D01*
X0409794Y0088647D01*
X0411695Y0088647D01*
X0413451Y0089375D01*
X0414795Y0090719D01*
X0415163Y0091607D01*
X0415901Y0090870D01*
X0417077Y0090383D01*
X0533704Y0090383D01*
X0534880Y0090870D01*
X0540573Y0096563D01*
X0540573Y0095625D01*
X0541390Y0093652D01*
X0542901Y0092142D01*
X0543984Y0091693D01*
X0542901Y0091244D01*
X0541390Y0089734D01*
X0540573Y0087761D01*
X0540573Y0085625D01*
X0541390Y0083652D01*
X0542901Y0082142D01*
X0543984Y0081693D01*
X0542901Y0081244D01*
X0541390Y0079734D01*
X0540573Y0077761D01*
X0540573Y0075625D01*
X0541390Y0073652D01*
X0542901Y0072142D01*
X0544826Y0071344D01*
X0544825Y0071344D01*
X0544111Y0071112D01*
X0543442Y0070771D01*
X0542835Y0070330D01*
X0542304Y0069799D01*
X0541863Y0069192D01*
X0541522Y0068523D01*
X0541291Y0067810D01*
X0541173Y0067068D01*
X0541173Y0066877D01*
X0545757Y0066877D01*
X0545757Y0066509D01*
X0541173Y0066509D01*
X0541173Y0066318D01*
X0541291Y0065576D01*
X0541522Y0064862D01*
X0541863Y0064194D01*
X0542304Y0063586D01*
X0542835Y0063056D01*
X0543442Y0062615D01*
X0544111Y0062274D01*
X0544825Y0062042D01*
X0545467Y0061940D01*
X0529875Y0061940D01*
X0530233Y0062298D01*
X0530677Y0062909D01*
X0531020Y0063583D01*
X0531253Y0064301D01*
X0531372Y0065047D01*
X0531372Y0068225D01*
X0526772Y0068225D01*
X0526772Y0068625D01*
X0531372Y0068625D01*
X0531372Y0071803D01*
X0531253Y0072549D01*
X0531020Y0073268D01*
X0530677Y0073941D01*
X0530233Y0074552D01*
X0529698Y0075086D01*
X0529087Y0075531D01*
X0528414Y0075874D01*
X0527696Y0076107D01*
X0526949Y0076225D01*
X0526772Y0076225D01*
X0526772Y0068625D01*
X0526371Y0068625D01*
X0526371Y0076225D01*
X0526194Y0076225D01*
X0525448Y0076107D01*
X0524729Y0075874D01*
X0524056Y0075531D01*
X0523445Y0075086D01*
X0522910Y0074552D01*
X0522466Y0073941D01*
X0522123Y0073268D01*
X0521917Y0072632D01*
X0521149Y0074484D01*
X0519630Y0076003D01*
X0517646Y0076825D01*
X0515497Y0076825D01*
X0513513Y0076003D01*
X0511994Y0074484D01*
X0511172Y0072499D01*
X0511172Y0064351D01*
X0511994Y0062366D01*
X0513392Y0060968D01*
X0513859Y0059841D01*
X0516772Y0056927D01*
X0517672Y0056027D01*
X0518848Y0055540D01*
X0555561Y0055540D01*
X0556836Y0054265D01*
X0556836Y0048458D01*
X0557323Y0047282D01*
X0559489Y0045116D01*
X0560389Y0044216D01*
X0561565Y0043729D01*
X0575043Y0043729D01*
X0576219Y0044216D01*
X0577316Y0045313D01*
X0578103Y0046101D01*
X0578590Y0047277D01*
X0578590Y0047681D01*
X0579850Y0048941D01*
X0580672Y0050926D01*
X0580672Y0059074D01*
X0579850Y0061059D01*
X0578331Y0062578D01*
X0577201Y0063046D01*
X0577524Y0063369D01*
X0577968Y0063980D01*
X0578311Y0064653D01*
X0578545Y0065372D01*
X0578663Y0066118D01*
X0578663Y0066296D01*
X0571063Y0066296D01*
X0571063Y0066696D01*
X0578663Y0066696D01*
X0578663Y0066874D01*
X0578545Y0067620D01*
X0578311Y0068339D01*
X0577968Y0069012D01*
X0577524Y0069623D01*
X0576990Y0070157D01*
X0576379Y0070601D01*
X0575705Y0070944D01*
X0575070Y0071151D01*
X0576922Y0071918D01*
X0578441Y0073437D01*
X0579263Y0075422D01*
X0579263Y0077570D01*
X0578441Y0079555D01*
X0576922Y0081074D01*
X0575903Y0081496D01*
X0576922Y0081918D01*
X0578441Y0083437D01*
X0579263Y0085422D01*
X0579263Y0087570D01*
X0578441Y0089555D01*
X0576922Y0091074D01*
X0575903Y0091496D01*
X0576922Y0091918D01*
X0578441Y0093437D01*
X0579263Y0095422D01*
X0579263Y0097570D01*
X0578441Y0099555D01*
X0576922Y0101074D01*
X0575903Y0101496D01*
X0576922Y0101918D01*
X0578441Y0103437D01*
X0579263Y0105422D01*
X0579263Y0107570D01*
X0578441Y0109555D01*
X0576922Y0111074D01*
X0574937Y0111896D01*
X0566789Y0111896D01*
X0564804Y0111074D01*
X0563285Y0109555D01*
X0562463Y0107570D01*
X0562463Y0105422D01*
X0563285Y0103437D01*
X0564804Y0101918D01*
X0565823Y0101496D01*
X0564804Y0101074D01*
X0563285Y0099555D01*
X0562463Y0097570D01*
X0562463Y0095422D01*
X0563285Y0093437D01*
X0564804Y0091918D01*
X0565823Y0091496D01*
X0564804Y0091074D01*
X0563285Y0089555D01*
X0562463Y0087570D01*
X0562463Y0085422D01*
X0563285Y0083437D01*
X0564804Y0081918D01*
X0565823Y0081496D01*
X0564804Y0081074D01*
X0563285Y0079555D01*
X0562463Y0077570D01*
X0562463Y0075422D01*
X0563285Y0073437D01*
X0564804Y0071918D01*
X0566656Y0071151D01*
X0566020Y0070944D01*
X0565347Y0070601D01*
X0564736Y0070157D01*
X0564202Y0069623D01*
X0563758Y0069012D01*
X0563415Y0068339D01*
X0563181Y0067620D01*
X0563063Y0066874D01*
X0563063Y0066696D01*
X0570663Y0066696D01*
X0570663Y0066296D01*
X0571063Y0066296D01*
X0571063Y0061696D01*
X0571332Y0061696D01*
X0570694Y0061059D01*
X0569927Y0059207D01*
X0569721Y0059843D01*
X0569378Y0060516D01*
X0568934Y0061127D01*
X0568399Y0061661D01*
X0568351Y0061696D01*
X0570663Y0061696D01*
X0570663Y0066296D01*
X0563063Y0066296D01*
X0563063Y0066118D01*
X0563181Y0065372D01*
X0563415Y0064653D01*
X0563758Y0063980D01*
X0564202Y0063369D01*
X0564736Y0062835D01*
X0564804Y0062786D01*
X0564148Y0062682D01*
X0563430Y0062448D01*
X0562757Y0062105D01*
X0562145Y0061661D01*
X0561611Y0061127D01*
X0561167Y0060516D01*
X0560824Y0059843D01*
X0560698Y0059454D01*
X0558699Y0061453D01*
X0557523Y0061940D01*
X0556416Y0061940D01*
X0557058Y0062042D01*
X0557772Y0062274D01*
X0558441Y0062615D01*
X0559048Y0063056D01*
X0559579Y0063586D01*
X0560020Y0064194D01*
X0560361Y0064862D01*
X0560593Y0065576D01*
X0560710Y0066318D01*
X0560710Y0066509D01*
X0556126Y0066509D01*
X0556126Y0066877D01*
X0560710Y0066877D01*
X0560710Y0067068D01*
X0560593Y0067810D01*
X0560361Y0068523D01*
X0560020Y0069192D01*
X0559579Y0069799D01*
X0559048Y0070330D01*
X0558441Y0070771D01*
X0557772Y0071112D01*
X0557058Y0071344D01*
X0557057Y0071344D01*
X0558983Y0072142D01*
X0560493Y0073652D01*
X0561310Y0075625D01*
X0561310Y0077761D01*
X0560493Y0079734D01*
X0558983Y0081244D01*
X0557899Y0081693D01*
X0558983Y0082142D01*
X0560493Y0083652D01*
X0561310Y0085625D01*
X0561310Y0087761D01*
X0560493Y0089734D01*
X0558983Y0091244D01*
X0557899Y0091693D01*
X0558983Y0092142D01*
X0560493Y0093652D01*
X0561310Y0095625D01*
X0561310Y0097761D01*
X0560493Y0099734D01*
X0558983Y0101244D01*
X0557899Y0101693D01*
X0558983Y0102142D01*
X0560493Y0103652D01*
X0561310Y0105625D01*
X0561310Y0107761D01*
X0560493Y0109734D01*
X0558983Y0111244D01*
X0557899Y0111693D01*
X0558983Y0112142D01*
X0560493Y0113652D01*
X0561310Y0115625D01*
X0561310Y0117761D01*
X0560493Y0119734D01*
X0558983Y0121244D01*
X0557899Y0121693D01*
X0558983Y0122142D01*
X0560493Y0123652D01*
X0561310Y0125625D01*
X0561310Y0127761D01*
X0560493Y0129734D01*
X0558983Y0131244D01*
X0557899Y0131693D01*
X0558983Y0132142D01*
X0560493Y0133652D01*
X0561310Y0135625D01*
X0561310Y0137761D01*
X0560493Y0139734D01*
X0558983Y0141244D01*
X0557899Y0141693D01*
X0558983Y0142142D01*
X0560493Y0143652D01*
X0561310Y0145625D01*
X0561310Y0147761D01*
X0560493Y0149734D01*
X0558983Y0151244D01*
X0557899Y0151693D01*
X0558983Y0152142D01*
X0560493Y0153652D01*
X0561310Y0155625D01*
X0561310Y0157761D01*
X0560493Y0159734D01*
X0558983Y0161244D01*
X0557899Y0161693D01*
X0558983Y0162142D01*
X0560493Y0163652D01*
X0561310Y0165625D01*
X0561310Y0167761D01*
X0560493Y0169734D01*
X0558983Y0171244D01*
X0557899Y0171693D01*
X0558983Y0172142D01*
X0560493Y0173652D01*
X0561310Y0175625D01*
X0561310Y0177761D01*
X0560493Y0179734D01*
X0558983Y0181244D01*
X0557899Y0181693D01*
X0558983Y0182142D01*
X0560493Y0183652D01*
X0561310Y0185625D01*
X0561310Y0187761D01*
X0560493Y0189734D01*
X0558983Y0191244D01*
X0557899Y0191693D01*
X0558983Y0192142D01*
X0560493Y0193652D01*
X0561310Y0195625D01*
X0561310Y0197761D01*
X0560493Y0199734D01*
X0558983Y0201244D01*
X0557899Y0201693D01*
X0558983Y0202142D01*
X0560493Y0203652D01*
X0561310Y0205625D01*
X0561310Y0207761D01*
X0560493Y0209734D01*
X0558983Y0211244D01*
X0557899Y0211693D01*
X0558983Y0212142D01*
X0560493Y0213652D01*
X0561310Y0215625D01*
X0561310Y0217761D01*
X0560493Y0219734D01*
X0558983Y0221244D01*
X0557899Y0221693D01*
X0558983Y0222142D01*
X0560493Y0223652D01*
X0561310Y0225625D01*
X0561310Y0227761D01*
X0560493Y0229734D01*
X0558983Y0231244D01*
X0557899Y0231693D01*
X0558983Y0232142D01*
X0560493Y0233652D01*
X0561310Y0235625D01*
X0561310Y0237761D01*
X0560493Y0239734D01*
X0558983Y0241244D01*
X0557009Y0242061D01*
X0554874Y0242061D01*
X0552901Y0241244D01*
X0551390Y0239734D01*
X0550942Y0238650D01*
X0550493Y0239734D01*
X0548983Y0241244D01*
X0547009Y0242061D01*
X0544874Y0242061D01*
X0542901Y0241244D01*
X0541390Y0239734D01*
X0540573Y0237761D01*
X0540573Y0235625D01*
X0541390Y0233652D01*
X0542901Y0232142D01*
X0543984Y0231693D01*
X0542901Y0231244D01*
X0541390Y0229734D01*
X0540573Y0227761D01*
X0540573Y0225625D01*
X0541390Y0223652D01*
X0542901Y0222142D01*
X0543984Y0221693D01*
X0542901Y0221244D01*
X0541549Y0219893D01*
X0540974Y0219893D01*
X0539798Y0219406D01*
X0533658Y0213266D01*
X0519142Y0227782D01*
X0519142Y0229332D01*
X0520493Y0230683D01*
X0521310Y0232657D01*
X0521310Y0240729D01*
X0520493Y0242702D01*
X0519027Y0244169D01*
X0609675Y0244169D01*
X0608705Y0243198D01*
X0607352Y0240855D01*
X0606652Y0238242D01*
X0606652Y0235537D01*
X0607352Y0232924D01*
X0608705Y0230581D01*
X0610617Y0228669D01*
X0612960Y0227316D01*
X0615573Y0226616D01*
X0618278Y0226616D01*
X0620891Y0227316D01*
X0623234Y0228669D01*
X0624480Y0229914D01*
X0624480Y0052920D01*
X0623234Y0054166D01*
X0620891Y0055519D01*
X0618278Y0056219D01*
X0615573Y0056219D01*
X0612960Y0055519D01*
X0610617Y0054166D01*
X0608705Y0052253D01*
X0607352Y0049910D01*
X0606652Y0047297D01*
X0606652Y0044592D01*
X0607352Y0041979D01*
X0608705Y0039636D01*
X0609852Y0038489D01*
X0537331Y0038489D01*
X0538983Y0039173D01*
X0540493Y0040683D01*
X0541310Y0042657D01*
X0541310Y0050729D01*
X0540493Y0052702D01*
X0538983Y0054213D01*
X0537009Y0055030D01*
X0534874Y0055030D01*
X0532901Y0054213D01*
X0531390Y0052702D01*
X0530942Y0051619D01*
X0530493Y0052702D01*
X0528983Y0054213D01*
X0527009Y0055030D01*
X0524874Y0055030D01*
X0522901Y0054213D01*
X0521390Y0052702D01*
X0520942Y0051619D01*
X0520493Y0052702D01*
X0518983Y0054213D01*
X0517009Y0055030D01*
X0514874Y0055030D01*
X0512901Y0054213D01*
X0511390Y0052702D01*
X0510942Y0051619D01*
X0510493Y0052702D01*
X0508983Y0054213D01*
X0507009Y0055030D01*
X0504874Y0055030D01*
X0502901Y0054213D01*
X0501390Y0052702D01*
X0500942Y0051619D01*
X0500493Y0052702D01*
X0498983Y0054213D01*
X0497009Y0055030D01*
X0494874Y0055030D01*
X0492901Y0054213D01*
X0491390Y0052702D01*
X0490942Y0051619D01*
X0490493Y0052702D01*
X0488983Y0054213D01*
X0487009Y0055030D01*
X0484874Y0055030D01*
X0482901Y0054213D01*
X0481390Y0052702D01*
X0480942Y0051619D01*
X0480493Y0052702D01*
X0478983Y0054213D01*
X0477009Y0055030D01*
X0474874Y0055030D01*
X0472901Y0054213D01*
X0471390Y0052702D01*
X0470942Y0051619D01*
X0470493Y0052702D01*
X0468983Y0054213D01*
X0467009Y0055030D01*
X0464874Y0055030D01*
X0462901Y0054213D01*
X0461390Y0052702D01*
X0460573Y0050729D01*
X0460573Y0042657D01*
X0461390Y0040683D01*
X0462901Y0039173D01*
X0464553Y0038489D01*
X0447331Y0038489D01*
X0448983Y0039173D01*
X0450493Y0040683D01*
X0451310Y0042657D01*
X0451310Y0050729D01*
X0450493Y0052702D01*
X0448983Y0054213D01*
X0447009Y0055030D01*
X0444874Y0055030D01*
X0442901Y0054213D01*
X0441390Y0052702D01*
X0440942Y0051619D01*
X0440493Y0052702D01*
X0438983Y0054213D01*
X0437009Y0055030D01*
X0434874Y0055030D01*
X0432901Y0054213D01*
X0431390Y0052702D01*
X0430942Y0051619D01*
X0430493Y0052702D01*
X0428983Y0054213D01*
X0427009Y0055030D01*
X0424874Y0055030D01*
X0422901Y0054213D01*
X0421390Y0052702D01*
X0420942Y0051619D01*
X0420493Y0052702D01*
X0418983Y0054213D01*
X0417009Y0055030D01*
X0414874Y0055030D01*
X0412901Y0054213D01*
X0411390Y0052702D01*
X0410942Y0051619D01*
X0410493Y0052702D01*
X0408983Y0054213D01*
X0407009Y0055030D01*
X0404874Y0055030D01*
X0402901Y0054213D01*
X0401390Y0052702D01*
X0400942Y0051619D01*
X0400493Y0052702D01*
X0398983Y0054213D01*
X0397009Y0055030D01*
X0394874Y0055030D01*
X0392901Y0054213D01*
X0391390Y0052702D01*
X0390942Y0051619D01*
X0390493Y0052702D01*
X0388983Y0054213D01*
X0387009Y0055030D01*
X0384874Y0055030D01*
X0382901Y0054213D01*
X0381390Y0052702D01*
X0380942Y0051619D01*
X0380493Y0052702D01*
X0378983Y0054213D01*
X0377009Y0055030D01*
X0374874Y0055030D01*
X0372901Y0054213D01*
X0371390Y0052702D01*
X0370573Y0050729D01*
X0370573Y0042657D01*
X0371390Y0040683D01*
X0372901Y0039173D01*
X0374553Y0038489D01*
X0357331Y0038489D01*
X0358983Y0039173D01*
X0360493Y0040683D01*
X0361310Y0042657D01*
X0361310Y0050729D01*
X0360493Y0052702D01*
X0358983Y0054213D01*
X0357009Y0055030D01*
X0354874Y0055030D01*
X0352901Y0054213D01*
X0351390Y0052702D01*
X0350593Y0050777D01*
X0350593Y0050778D01*
X0350361Y0051492D01*
X0350020Y0052161D01*
X0349579Y0052768D01*
X0349048Y0053299D01*
X0348441Y0053740D01*
X0347772Y0054081D01*
X0347058Y0054312D01*
X0346317Y0054430D01*
X0346126Y0054430D01*
X0346126Y0046877D01*
X0345757Y0046877D01*
X0345757Y0046509D01*
X0341173Y0046509D01*
X0341173Y0043349D01*
X0341291Y0042608D01*
X0341522Y0041894D01*
X0341863Y0041225D01*
X0342304Y0040618D01*
X0342835Y0040087D01*
X0343442Y0039646D01*
X0344111Y0039305D01*
X0344825Y0039073D01*
X0345566Y0038956D01*
X0345757Y0038956D01*
X0345757Y0046509D01*
X0346126Y0046509D01*
X0346126Y0038956D01*
X0346317Y0038956D01*
X0347058Y0039073D01*
X0347772Y0039305D01*
X0348441Y0039646D01*
X0349048Y0040087D01*
X0349579Y0040618D01*
X0350020Y0041225D01*
X0350361Y0041894D01*
X0350593Y0042608D01*
X0350593Y0042609D01*
X0351390Y0040683D01*
X0352901Y0039173D01*
X0354553Y0038489D01*
X0327331Y0038489D01*
X0328983Y0039173D01*
X0330493Y0040683D01*
X0331290Y0042609D01*
X0331291Y0042608D01*
X0331522Y0041894D01*
X0331863Y0041225D01*
X0332304Y0040618D01*
X0332835Y0040087D01*
X0333442Y0039646D01*
X0334111Y0039305D01*
X0334825Y0039073D01*
X0335566Y0038956D01*
X0335757Y0038956D01*
X0335757Y0046509D01*
X0336126Y0046509D01*
X0336126Y0046877D01*
X0340710Y0046877D01*
X0340710Y0050037D01*
X0340593Y0050778D01*
X0340361Y0051492D01*
X0340020Y0052161D01*
X0339579Y0052768D01*
X0339048Y0053299D01*
X0338441Y0053740D01*
X0337772Y0054081D01*
X0337058Y0054312D01*
X0336317Y0054430D01*
X0336126Y0054430D01*
X0336126Y0046877D01*
X0335757Y0046877D01*
X0335757Y0054430D01*
X0335566Y0054430D01*
X0334825Y0054312D01*
X0334111Y0054081D01*
X0333442Y0053740D01*
X0332835Y0053299D01*
X0332304Y0052768D01*
X0331863Y0052161D01*
X0331522Y0051492D01*
X0331291Y0050778D01*
X0331290Y0050777D01*
X0330493Y0052702D01*
X0328983Y0054213D01*
X0327009Y0055030D01*
X0324874Y0055030D01*
X0322901Y0054213D01*
X0321390Y0052702D01*
X0320942Y0051619D01*
X0320493Y0052702D01*
X0318983Y0054213D01*
X0317009Y0055030D01*
X0314874Y0055030D01*
X0312901Y0054213D01*
X0311390Y0052702D01*
X0310942Y0051619D01*
X0310493Y0052702D01*
X0308983Y0054213D01*
X0307093Y0054995D01*
X0307172Y0055166D01*
X0307377Y0055458D01*
X0307437Y0055730D01*
X0307607Y0055951D01*
X0307699Y0056295D01*
X0307850Y0056618D01*
X0307862Y0056896D01*
X0307990Y0057143D01*
X0308022Y0057499D01*
X0308114Y0057843D01*
X0308089Y0058033D01*
X0308118Y0058104D01*
X0308118Y0058600D01*
X0308161Y0059095D01*
X0308118Y0059233D01*
X0308118Y0121913D01*
X0308147Y0122211D01*
X0308188Y0122346D01*
X0308255Y0122471D01*
X0308445Y0122702D01*
X0309853Y0124111D01*
X0310085Y0124301D01*
X0310210Y0124367D01*
X0310345Y0124408D01*
X0310643Y0124438D01*
X0416292Y0124438D01*
X0430827Y0124048D01*
X0431141Y0124020D01*
X0431265Y0123986D01*
X0431381Y0123930D01*
X0431602Y0123772D01*
X0446309Y0111070D01*
X0446380Y0110954D01*
X0446788Y0110656D01*
X0447170Y0110327D01*
X0447208Y0110314D01*
X0447300Y0110208D01*
X0447633Y0110041D01*
X0447933Y0109822D01*
X0448155Y0109768D01*
X0448330Y0109623D01*
X0448685Y0109513D01*
X0449018Y0109346D01*
X0449245Y0109329D01*
X0449442Y0109215D01*
X0449810Y0109165D01*
X0450166Y0109055D01*
X0450306Y0109068D01*
X0450342Y0109050D01*
X0450846Y0109024D01*
X0451346Y0108956D01*
X0451478Y0108991D01*
X0471557Y0107934D01*
X0471670Y0107890D01*
X0472189Y0107901D01*
X0472708Y0107873D01*
X0472822Y0107914D01*
X0487427Y0108212D01*
X0487576Y0108169D01*
X0488059Y0108225D01*
X0488545Y0108234D01*
X0488660Y0108285D01*
X0488925Y0108261D01*
X0489244Y0108361D01*
X0489576Y0108399D01*
X0489671Y0108451D01*
X0489326Y0108107D01*
X0487835Y0106616D01*
X0487835Y0106616D01*
X0486466Y0105247D01*
X0423566Y0105247D01*
X0417557Y0111256D01*
X0416381Y0111743D01*
X0342964Y0111743D01*
X0342964Y0112604D01*
X0342266Y0114288D01*
X0340978Y0115577D01*
X0339294Y0116274D01*
X0337471Y0116274D01*
X0335788Y0115577D01*
X0334499Y0114288D01*
X0333801Y0112604D01*
X0333801Y0110956D01*
X0321273Y0110956D01*
X0320790Y0111156D01*
X0318967Y0111156D01*
X0317284Y0110458D01*
X0315995Y0109170D01*
X0315298Y0107486D01*
X0315298Y0105664D01*
X0315995Y0103980D01*
X0316449Y0103526D01*
X0315888Y0102171D01*
X0315888Y0100349D01*
X0316585Y0098665D01*
X0317874Y0097376D01*
X0319558Y0096679D01*
X0321380Y0096679D01*
X0323064Y0097376D01*
X0323748Y0098060D01*
X0326027Y0098060D01*
X0327116Y0098511D01*
X0327215Y0098271D01*
X0328504Y0096982D01*
X0330188Y0096285D01*
X0332010Y0096285D01*
X0333694Y0096982D01*
X0334378Y0097666D01*
X0408498Y0097666D01*
X0408038Y0097476D01*
X0406694Y0096132D01*
X0405967Y0094376D01*
X0405967Y0092475D01*
X0405967Y0093864D02*
X0308118Y0093864D01*
X0308118Y0095463D02*
X0406417Y0095463D01*
X0407624Y0097061D02*
X0333773Y0097061D01*
X0331099Y0100866D02*
X0407871Y0100866D01*
X0410430Y0100866D01*
X0417713Y0093583D01*
X0533068Y0093583D01*
X0538678Y0099193D01*
X0539564Y0100079D01*
X0539564Y0209921D01*
X0541335Y0211693D01*
X0551965Y0211693D01*
X0555942Y0215669D01*
X0555942Y0216693D01*
X0560984Y0218548D02*
X0624480Y0218548D01*
X0624480Y0216950D02*
X0561310Y0216950D01*
X0561197Y0215351D02*
X0624480Y0215351D01*
X0624480Y0213753D02*
X0560535Y0213753D01*
X0558995Y0212154D02*
X0624480Y0212154D01*
X0624480Y0210556D02*
X0559671Y0210556D01*
X0560815Y0208957D02*
X0595126Y0208957D01*
X0595621Y0209090D02*
X0592340Y0208211D01*
X0589399Y0206512D01*
X0586997Y0204111D01*
X0585299Y0201169D01*
X0584420Y0197888D01*
X0584420Y0194491D01*
X0585299Y0191211D01*
X0586997Y0188269D01*
X0589399Y0185867D01*
X0592340Y0184169D01*
X0595621Y0183290D01*
X0599018Y0183290D01*
X0602299Y0184169D01*
X0605240Y0185867D01*
X0607642Y0188269D01*
X0609340Y0191211D01*
X0610220Y0194491D01*
X0610220Y0197888D01*
X0609340Y0201169D01*
X0607642Y0204111D01*
X0605240Y0206512D01*
X0602299Y0208211D01*
X0599018Y0209090D01*
X0595621Y0209090D01*
X0599513Y0208957D02*
X0624480Y0208957D01*
X0624480Y0207359D02*
X0603775Y0207359D01*
X0605993Y0205760D02*
X0624480Y0205760D01*
X0624480Y0204162D02*
X0607591Y0204162D01*
X0608536Y0202563D02*
X0624480Y0202563D01*
X0624480Y0200965D02*
X0609395Y0200965D01*
X0609824Y0199366D02*
X0624480Y0199366D01*
X0624480Y0197768D02*
X0610220Y0197768D01*
X0610220Y0196169D02*
X0624480Y0196169D01*
X0624480Y0194571D02*
X0610220Y0194571D01*
X0609812Y0192972D02*
X0624480Y0192972D01*
X0624480Y0191373D02*
X0609384Y0191373D01*
X0608512Y0189775D02*
X0624480Y0189775D01*
X0624480Y0188176D02*
X0607550Y0188176D01*
X0605951Y0186578D02*
X0624480Y0186578D01*
X0624480Y0184979D02*
X0603703Y0184979D01*
X0599358Y0183381D02*
X0624480Y0183381D01*
X0624480Y0181782D02*
X0558115Y0181782D01*
X0560043Y0180184D02*
X0624480Y0180184D01*
X0624480Y0178585D02*
X0560969Y0178585D01*
X0561310Y0176987D02*
X0624480Y0176987D01*
X0624480Y0175388D02*
X0561212Y0175388D01*
X0560550Y0173790D02*
X0589983Y0173790D01*
X0590083Y0173890D02*
X0586920Y0170727D01*
X0586920Y0166253D01*
X0590083Y0163090D01*
X0594556Y0163090D01*
X0597720Y0166253D01*
X0597720Y0170727D01*
X0594556Y0173890D01*
X0590083Y0173890D01*
X0588384Y0172191D02*
X0559032Y0172191D01*
X0559634Y0170593D02*
X0586920Y0170593D01*
X0586920Y0168994D02*
X0560799Y0168994D01*
X0561310Y0167396D02*
X0586920Y0167396D01*
X0587375Y0165797D02*
X0561310Y0165797D01*
X0560719Y0164199D02*
X0588974Y0164199D01*
X0590083Y0163090D02*
X0586920Y0159927D01*
X0586920Y0155453D01*
X0590083Y0152290D01*
X0594556Y0152290D01*
X0597720Y0155453D01*
X0597720Y0159927D01*
X0594556Y0163090D01*
X0590083Y0163090D01*
X0589593Y0162600D02*
X0559441Y0162600D01*
X0559225Y0161002D02*
X0587995Y0161002D01*
X0586920Y0159403D02*
X0560630Y0159403D01*
X0561292Y0157805D02*
X0586920Y0157805D01*
X0586920Y0156206D02*
X0561310Y0156206D01*
X0560889Y0154608D02*
X0587765Y0154608D01*
X0589363Y0153009D02*
X0559850Y0153009D01*
X0558580Y0151411D02*
X0589204Y0151411D01*
X0590083Y0152290D02*
X0586920Y0149127D01*
X0586920Y0144653D01*
X0590083Y0141490D01*
X0594556Y0141490D01*
X0597720Y0144653D01*
X0597720Y0149127D01*
X0594556Y0152290D01*
X0590083Y0152290D01*
X0587605Y0149812D02*
X0560415Y0149812D01*
X0561123Y0148214D02*
X0586920Y0148214D01*
X0586920Y0146615D02*
X0561310Y0146615D01*
X0561058Y0145017D02*
X0586920Y0145017D01*
X0588154Y0143418D02*
X0560259Y0143418D01*
X0558205Y0141820D02*
X0589753Y0141820D01*
X0590083Y0141490D02*
X0586920Y0138327D01*
X0586920Y0133853D01*
X0590083Y0130690D01*
X0594556Y0130690D01*
X0597720Y0133853D01*
X0597720Y0138327D01*
X0594556Y0141490D01*
X0590083Y0141490D01*
X0588814Y0140221D02*
X0560006Y0140221D01*
X0560953Y0138623D02*
X0587216Y0138623D01*
X0586920Y0137024D02*
X0561310Y0137024D01*
X0561227Y0135426D02*
X0586920Y0135426D01*
X0586945Y0133827D02*
X0560565Y0133827D01*
X0559069Y0132229D02*
X0588544Y0132229D01*
X0587102Y0130690D02*
X0581690Y0136102D01*
X0581690Y0162677D01*
X0578540Y0165827D01*
X0595046Y0162600D02*
X0596920Y0162600D01*
X0596920Y0161002D02*
X0596644Y0161002D01*
X0596920Y0160853D02*
X0600083Y0157690D01*
X0604556Y0157690D01*
X0607720Y0160853D01*
X0607720Y0165327D01*
X0604556Y0168490D01*
X0600083Y0168490D01*
X0596920Y0165327D01*
X0596920Y0160853D01*
X0597720Y0159403D02*
X0598369Y0159403D01*
X0597720Y0157805D02*
X0599968Y0157805D01*
X0600083Y0157690D02*
X0596920Y0154527D01*
X0596920Y0150053D01*
X0600083Y0146890D01*
X0604556Y0146890D01*
X0607720Y0150053D01*
X0607720Y0154527D01*
X0604556Y0157690D01*
X0600083Y0157690D01*
X0598599Y0156206D02*
X0597720Y0156206D01*
X0597001Y0154608D02*
X0596874Y0154608D01*
X0596920Y0153009D02*
X0595276Y0153009D01*
X0595435Y0151411D02*
X0596920Y0151411D01*
X0597034Y0149812D02*
X0597160Y0149812D01*
X0597720Y0148214D02*
X0598759Y0148214D01*
X0600083Y0146890D02*
X0596920Y0143727D01*
X0596920Y0139253D01*
X0600083Y0136090D01*
X0604556Y0136090D01*
X0607720Y0139253D01*
X0607720Y0143727D01*
X0604556Y0146890D01*
X0600083Y0146890D01*
X0599808Y0146615D02*
X0597720Y0146615D01*
X0597720Y0145017D02*
X0598210Y0145017D01*
X0596920Y0143418D02*
X0596485Y0143418D01*
X0596920Y0141820D02*
X0594886Y0141820D01*
X0595825Y0140221D02*
X0596920Y0140221D01*
X0597423Y0138623D02*
X0597550Y0138623D01*
X0597720Y0137024D02*
X0599148Y0137024D01*
X0600331Y0135490D02*
X0597520Y0132678D01*
X0597520Y0130890D01*
X0602119Y0130890D01*
X0602119Y0130490D01*
X0597520Y0130490D01*
X0597520Y0128702D01*
X0600331Y0125890D01*
X0602120Y0125890D01*
X0602120Y0130490D01*
X0602520Y0130490D01*
X0602520Y0130890D01*
X0607120Y0130890D01*
X0607120Y0132678D01*
X0604308Y0135490D01*
X0602520Y0135490D01*
X0602520Y0130890D01*
X0602120Y0130890D01*
X0602120Y0135490D01*
X0600331Y0135490D01*
X0600267Y0135426D02*
X0597720Y0135426D01*
X0597694Y0133827D02*
X0598669Y0133827D01*
X0597520Y0132229D02*
X0596095Y0132229D01*
X0594556Y0130690D02*
X0590083Y0130690D01*
X0586920Y0127527D01*
X0586920Y0123053D01*
X0590083Y0119890D01*
X0594556Y0119890D01*
X0597720Y0123053D01*
X0597720Y0127527D01*
X0594556Y0130690D01*
X0594616Y0130630D02*
X0602119Y0130630D01*
X0602320Y0130690D02*
X0587102Y0130690D01*
X0588425Y0129032D02*
X0560784Y0129032D01*
X0561310Y0127433D02*
X0586920Y0127433D01*
X0586920Y0125835D02*
X0561310Y0125835D01*
X0560735Y0124236D02*
X0586920Y0124236D01*
X0587335Y0122637D02*
X0559478Y0122637D01*
X0559188Y0121039D02*
X0588934Y0121039D01*
X0595706Y0121039D02*
X0624480Y0121039D01*
X0624480Y0122637D02*
X0597304Y0122637D01*
X0597720Y0124236D02*
X0624480Y0124236D01*
X0624480Y0125835D02*
X0597720Y0125835D01*
X0597720Y0127433D02*
X0598788Y0127433D01*
X0597520Y0129032D02*
X0596214Y0129032D01*
X0602120Y0129032D02*
X0602520Y0129032D01*
X0602520Y0130490D02*
X0602520Y0125890D01*
X0604308Y0125890D01*
X0607120Y0128702D01*
X0607120Y0130490D01*
X0602520Y0130490D01*
X0602520Y0130630D02*
X0624480Y0130630D01*
X0624480Y0129032D02*
X0607120Y0129032D01*
X0605851Y0127433D02*
X0624480Y0127433D01*
X0624480Y0132229D02*
X0607120Y0132229D01*
X0605970Y0133827D02*
X0624480Y0133827D01*
X0624480Y0135426D02*
X0604372Y0135426D01*
X0602520Y0135426D02*
X0602120Y0135426D01*
X0602120Y0133827D02*
X0602520Y0133827D01*
X0602520Y0132229D02*
X0602120Y0132229D01*
X0605491Y0137024D02*
X0624480Y0137024D01*
X0624480Y0138623D02*
X0607089Y0138623D01*
X0607720Y0140221D02*
X0624480Y0140221D01*
X0624480Y0141820D02*
X0607720Y0141820D01*
X0607720Y0143418D02*
X0624480Y0143418D01*
X0624480Y0145017D02*
X0606429Y0145017D01*
X0604831Y0146615D02*
X0624480Y0146615D01*
X0624480Y0148214D02*
X0605880Y0148214D01*
X0607479Y0149812D02*
X0624480Y0149812D01*
X0624480Y0151411D02*
X0607720Y0151411D01*
X0607720Y0153009D02*
X0624480Y0153009D01*
X0624480Y0154608D02*
X0607638Y0154608D01*
X0606040Y0156206D02*
X0624480Y0156206D01*
X0624480Y0157805D02*
X0604671Y0157805D01*
X0606270Y0159403D02*
X0624480Y0159403D01*
X0624480Y0161002D02*
X0607720Y0161002D01*
X0607720Y0162600D02*
X0624480Y0162600D01*
X0624480Y0164199D02*
X0607720Y0164199D01*
X0607249Y0165797D02*
X0624480Y0165797D01*
X0624480Y0167396D02*
X0605650Y0167396D01*
X0598989Y0167396D02*
X0597720Y0167396D01*
X0597720Y0168994D02*
X0624480Y0168994D01*
X0624480Y0170593D02*
X0597720Y0170593D01*
X0596255Y0172191D02*
X0624480Y0172191D01*
X0624480Y0173790D02*
X0594656Y0173790D01*
X0597264Y0165797D02*
X0597390Y0165797D01*
X0596920Y0164199D02*
X0595665Y0164199D01*
X0595281Y0183381D02*
X0560222Y0183381D01*
X0561043Y0184979D02*
X0590936Y0184979D01*
X0588688Y0186578D02*
X0561310Y0186578D01*
X0561138Y0188176D02*
X0587089Y0188176D01*
X0586127Y0189775D02*
X0560452Y0189775D01*
X0558670Y0191373D02*
X0585255Y0191373D01*
X0584827Y0192972D02*
X0559813Y0192972D01*
X0560873Y0194571D02*
X0584420Y0194571D01*
X0584420Y0196169D02*
X0561310Y0196169D01*
X0561307Y0197768D02*
X0584420Y0197768D01*
X0584816Y0199366D02*
X0560645Y0199366D01*
X0559262Y0200965D02*
X0585244Y0200965D01*
X0586104Y0202563D02*
X0559404Y0202563D01*
X0560704Y0204162D02*
X0587048Y0204162D01*
X0588647Y0205760D02*
X0561310Y0205760D01*
X0561310Y0207359D02*
X0590865Y0207359D01*
X0560080Y0220147D02*
X0624480Y0220147D01*
X0624480Y0221745D02*
X0558025Y0221745D01*
X0560185Y0223344D02*
X0624480Y0223344D01*
X0624480Y0224942D02*
X0561027Y0224942D01*
X0561310Y0226541D02*
X0624480Y0226541D01*
X0624480Y0228139D02*
X0622318Y0228139D01*
X0624303Y0229738D02*
X0624480Y0229738D01*
X0611534Y0228139D02*
X0561153Y0228139D01*
X0560489Y0229738D02*
X0609548Y0229738D01*
X0608269Y0231336D02*
X0558760Y0231336D01*
X0559776Y0232935D02*
X0607349Y0232935D01*
X0606921Y0234533D02*
X0560858Y0234533D01*
X0561310Y0236132D02*
X0606652Y0236132D01*
X0606652Y0237730D02*
X0561310Y0237730D01*
X0560661Y0239329D02*
X0606943Y0239329D01*
X0607394Y0240927D02*
X0559299Y0240927D01*
X0552584Y0240927D02*
X0549299Y0240927D01*
X0550661Y0239329D02*
X0551223Y0239329D01*
X0542584Y0240927D02*
X0521228Y0240927D01*
X0521310Y0239329D02*
X0541223Y0239329D01*
X0540573Y0237730D02*
X0521310Y0237730D01*
X0521310Y0236132D02*
X0540573Y0236132D01*
X0541025Y0234533D02*
X0521310Y0234533D01*
X0521310Y0232935D02*
X0542108Y0232935D01*
X0543123Y0231336D02*
X0520763Y0231336D01*
X0519547Y0229738D02*
X0541394Y0229738D01*
X0540730Y0228139D02*
X0519142Y0228139D01*
X0520383Y0226541D02*
X0540573Y0226541D01*
X0540856Y0224942D02*
X0521982Y0224942D01*
X0523580Y0223344D02*
X0541699Y0223344D01*
X0543858Y0221745D02*
X0525179Y0221745D01*
X0526777Y0220147D02*
X0541803Y0220147D01*
X0538941Y0218548D02*
X0528376Y0218548D01*
X0529974Y0216950D02*
X0537342Y0216950D01*
X0535744Y0215351D02*
X0531573Y0215351D01*
X0533171Y0213753D02*
X0534145Y0213753D01*
X0536020Y0211102D02*
X0541611Y0216693D01*
X0545942Y0216693D01*
X0536020Y0211102D02*
X0536020Y0101260D01*
X0535725Y0100965D01*
X0530902Y0096142D01*
X0419091Y0096142D01*
X0411808Y0103425D01*
X0334642Y0103425D01*
X0333264Y0104803D01*
X0328934Y0104803D01*
X0325390Y0101260D01*
X0324603Y0101260D01*
X0320469Y0101260D01*
X0318634Y0097061D02*
X0308118Y0097061D01*
X0308118Y0098660D02*
X0316591Y0098660D01*
X0315925Y0100258D02*
X0308118Y0100258D01*
X0308118Y0101857D02*
X0315888Y0101857D01*
X0316420Y0103455D02*
X0308118Y0103455D01*
X0308118Y0105054D02*
X0315550Y0105054D01*
X0315298Y0106652D02*
X0308118Y0106652D01*
X0308118Y0108251D02*
X0315614Y0108251D01*
X0316675Y0109849D02*
X0308118Y0109849D01*
X0308118Y0111448D02*
X0333801Y0111448D01*
X0333985Y0113046D02*
X0308118Y0113046D01*
X0308118Y0114645D02*
X0334856Y0114645D01*
X0337398Y0116243D02*
X0308118Y0116243D01*
X0308118Y0117842D02*
X0438468Y0117842D01*
X0440319Y0116243D02*
X0339368Y0116243D01*
X0341909Y0114645D02*
X0442170Y0114645D01*
X0444021Y0113046D02*
X0342780Y0113046D01*
X0339367Y0110709D02*
X0338383Y0111693D01*
X0339367Y0110709D02*
X0341532Y0108543D01*
X0414170Y0108543D01*
X0415745Y0108543D01*
X0422241Y0102047D01*
X0487792Y0102047D01*
X0491138Y0105394D01*
X0490548Y0104803D01*
X0491138Y0105394D02*
X0495863Y0110118D01*
X0495863Y0127244D01*
X0502359Y0133740D01*
X0519485Y0133740D01*
X0521847Y0136102D01*
X0521847Y0206378D01*
X0502949Y0225276D01*
X0499406Y0225276D01*
X0499209Y0225276D01*
X0495863Y0228622D01*
X0490154Y0228622D01*
X0489957Y0228819D01*
X0485942Y0232835D01*
X0485942Y0236693D01*
X0485430Y0228622D02*
X0483068Y0228622D01*
X0387989Y0228622D01*
X0385942Y0230669D01*
X0385942Y0236693D01*
X0356464Y0228356D02*
X0355181Y0227825D01*
X0353944Y0226587D01*
X0353274Y0224970D01*
X0353274Y0223219D01*
X0353944Y0221602D01*
X0355181Y0220364D01*
X0356799Y0219694D01*
X0358549Y0219694D01*
X0360166Y0220364D01*
X0360696Y0220894D01*
X0421661Y0220894D01*
X0421857Y0220421D01*
X0423095Y0219183D01*
X0424712Y0218513D01*
X0426462Y0218513D01*
X0428080Y0219183D01*
X0429317Y0220421D01*
X0429987Y0222038D01*
X0429987Y0223789D01*
X0429317Y0225406D01*
X0429301Y0225422D01*
X0484104Y0225422D01*
X0486063Y0223463D01*
X0486964Y0222563D01*
X0488140Y0222076D01*
X0493553Y0222076D01*
X0495709Y0219920D01*
X0496609Y0219019D01*
X0497785Y0218532D01*
X0500443Y0218532D01*
X0509649Y0209326D01*
X0497098Y0212055D01*
X0497022Y0212101D01*
X0496479Y0212189D01*
X0496423Y0212201D01*
X0496273Y0212273D01*
X0496036Y0212285D01*
X0495940Y0212306D01*
X0495874Y0212294D01*
X0495809Y0212298D01*
X0495745Y0212308D01*
X0495683Y0212334D01*
X0495585Y0212334D01*
X0495350Y0212372D01*
X0495189Y0212334D01*
X0495132Y0212334D01*
X0494582Y0212363D01*
X0494498Y0212334D01*
X0477573Y0212334D01*
X0477458Y0212372D01*
X0476941Y0212334D01*
X0476518Y0212334D01*
X0476406Y0212353D01*
X0476014Y0212266D01*
X0475614Y0212236D01*
X0475497Y0212178D01*
X0475367Y0212181D01*
X0474992Y0212037D01*
X0474601Y0211950D01*
X0474508Y0211884D01*
X0474125Y0211705D01*
X0473640Y0211518D01*
X0473553Y0211435D01*
X0468575Y0209093D01*
X0468440Y0209075D01*
X0468003Y0208823D01*
X0467546Y0208609D01*
X0467455Y0208508D01*
X0455805Y0201800D01*
X0455698Y0201779D01*
X0455256Y0201484D01*
X0455023Y0201350D01*
X0454883Y0201303D01*
X0454563Y0201022D01*
X0454209Y0200786D01*
X0454126Y0200663D01*
X0453936Y0200473D01*
X0453537Y0200123D01*
X0453494Y0200036D01*
X0453294Y0199873D01*
X0453170Y0199806D01*
X0453034Y0199765D01*
X0452736Y0199735D01*
X0310643Y0199735D01*
X0310345Y0199765D01*
X0310210Y0199806D01*
X0310086Y0199872D01*
X0310086Y0200336D01*
X0310133Y0200490D01*
X0310086Y0200967D01*
X0310086Y0201447D01*
X0310027Y0201589D01*
X0310058Y0201898D01*
X0309965Y0202206D01*
X0309933Y0202525D01*
X0309782Y0202809D01*
X0309740Y0202944D01*
X0309709Y0203264D01*
X0309557Y0203547D01*
X0309464Y0203855D01*
X0309260Y0204103D01*
X0309194Y0204228D01*
X0309100Y0204535D01*
X0308897Y0204784D01*
X0308745Y0205067D01*
X0308505Y0205264D01*
X0308446Y0205407D01*
X0308107Y0205746D01*
X0307803Y0206116D01*
X0307660Y0206192D01*
X0300795Y0213057D01*
X0300719Y0213200D01*
X0300349Y0213504D01*
X0300010Y0213843D01*
X0299867Y0213902D01*
X0299670Y0214142D01*
X0299387Y0214294D01*
X0299138Y0214497D01*
X0298831Y0214591D01*
X0298706Y0214657D01*
X0298458Y0214861D01*
X0298150Y0214954D01*
X0297867Y0215106D01*
X0297547Y0215137D01*
X0297412Y0215179D01*
X0297128Y0215330D01*
X0296809Y0215361D01*
X0296501Y0215455D01*
X0296192Y0215424D01*
X0296050Y0215483D01*
X0295570Y0215483D01*
X0295093Y0215530D01*
X0294939Y0215483D01*
X0283084Y0215483D01*
X0282786Y0215513D01*
X0282651Y0215554D01*
X0282526Y0215621D01*
X0282294Y0215810D01*
X0269661Y0228444D01*
X0269874Y0228356D01*
X0272009Y0228356D01*
X0273983Y0229173D01*
X0275493Y0230683D01*
X0276290Y0232609D01*
X0276291Y0232608D01*
X0276522Y0231894D01*
X0276863Y0231225D01*
X0277304Y0230618D01*
X0277835Y0230087D01*
X0278442Y0229646D01*
X0279111Y0229305D01*
X0279825Y0229073D01*
X0280566Y0228956D01*
X0280757Y0228956D01*
X0280757Y0236509D01*
X0281126Y0236509D01*
X0281126Y0228956D01*
X0281317Y0228956D01*
X0282058Y0229073D01*
X0282772Y0229305D01*
X0283441Y0229646D01*
X0284048Y0230087D01*
X0284579Y0230618D01*
X0285020Y0231225D01*
X0285361Y0231894D01*
X0285593Y0232608D01*
X0285593Y0232609D01*
X0286390Y0230683D01*
X0287901Y0229173D01*
X0289874Y0228356D01*
X0292009Y0228356D01*
X0293983Y0229173D01*
X0295493Y0230683D01*
X0295942Y0231767D01*
X0296390Y0230683D01*
X0297901Y0229173D01*
X0299874Y0228356D01*
X0302009Y0228356D01*
X0303983Y0229173D01*
X0305493Y0230683D01*
X0305942Y0231767D01*
X0306390Y0230683D01*
X0307901Y0229173D01*
X0309874Y0228356D01*
X0312009Y0228356D01*
X0313983Y0229173D01*
X0315493Y0230683D01*
X0315942Y0231767D01*
X0316390Y0230683D01*
X0317901Y0229173D01*
X0319874Y0228356D01*
X0322009Y0228356D01*
X0323983Y0229173D01*
X0325493Y0230683D01*
X0325942Y0231767D01*
X0326390Y0230683D01*
X0327901Y0229173D01*
X0329874Y0228356D01*
X0332009Y0228356D01*
X0333983Y0229173D01*
X0335493Y0230683D01*
X0335942Y0231767D01*
X0336390Y0230683D01*
X0337901Y0229173D01*
X0339874Y0228356D01*
X0342009Y0228356D01*
X0343983Y0229173D01*
X0345493Y0230683D01*
X0346310Y0232657D01*
X0346310Y0240729D01*
X0345493Y0242702D01*
X0344027Y0244169D01*
X0352856Y0244169D01*
X0351390Y0242702D01*
X0350573Y0240729D01*
X0350573Y0232657D01*
X0351390Y0230683D01*
X0352901Y0229173D01*
X0354874Y0228356D01*
X0356464Y0228356D01*
X0355941Y0228139D02*
X0269966Y0228139D01*
X0271564Y0226541D02*
X0353925Y0226541D01*
X0353274Y0224942D02*
X0273163Y0224942D01*
X0274761Y0223344D02*
X0353274Y0223344D01*
X0353884Y0221745D02*
X0276360Y0221745D01*
X0277958Y0220147D02*
X0355707Y0220147D01*
X0359641Y0220147D02*
X0422131Y0220147D01*
X0424628Y0218548D02*
X0279557Y0218548D01*
X0281155Y0216950D02*
X0502025Y0216950D01*
X0503624Y0215351D02*
X0296914Y0215351D01*
X0300100Y0213753D02*
X0505223Y0213753D01*
X0506821Y0212154D02*
X0496695Y0212154D01*
X0503993Y0210556D02*
X0508420Y0210556D01*
X0518304Y0205197D02*
X0518304Y0140236D01*
X0515942Y0137874D01*
X0520075Y0130197D02*
X0525390Y0135512D01*
X0525390Y0207559D01*
X0505115Y0227835D01*
X0500390Y0227835D01*
X0495942Y0232283D01*
X0495942Y0236693D01*
X0505942Y0236693D02*
X0505942Y0231732D01*
X0528934Y0208740D01*
X0528934Y0134331D01*
X0520666Y0126063D01*
X0507674Y0126063D01*
X0503472Y0124236D02*
X0502606Y0124236D01*
X0502606Y0124737D02*
X0503093Y0125224D01*
X0503093Y0125152D01*
X0503790Y0123468D01*
X0505079Y0122179D01*
X0505584Y0121970D01*
X0505455Y0121659D01*
X0505455Y0119837D01*
X0506152Y0118153D01*
X0507441Y0116864D01*
X0509125Y0116167D01*
X0510947Y0116167D01*
X0511172Y0116260D01*
X0511172Y0109351D01*
X0511994Y0107366D01*
X0513513Y0105847D01*
X0515497Y0105025D01*
X0517646Y0105025D01*
X0519630Y0105847D01*
X0521149Y0107366D01*
X0521917Y0109218D01*
X0522123Y0108583D01*
X0522466Y0107909D01*
X0522910Y0107298D01*
X0523445Y0106764D01*
X0524056Y0106320D01*
X0524729Y0105977D01*
X0525448Y0105743D01*
X0526194Y0105625D01*
X0526371Y0105625D01*
X0526371Y0113225D01*
X0526772Y0113225D01*
X0526772Y0113625D01*
X0531372Y0113625D01*
X0531372Y0116803D01*
X0531253Y0117549D01*
X0531020Y0118268D01*
X0530677Y0118941D01*
X0530233Y0119552D01*
X0529698Y0120086D01*
X0529087Y0120531D01*
X0528414Y0120874D01*
X0527696Y0121107D01*
X0526949Y0121225D01*
X0526772Y0121225D01*
X0526772Y0113625D01*
X0526371Y0113625D01*
X0526371Y0121225D01*
X0526259Y0121225D01*
X0532820Y0127786D01*
X0532820Y0102585D01*
X0529577Y0099342D01*
X0493746Y0099342D01*
X0494442Y0100038D01*
X0502119Y0107715D01*
X0502606Y0108891D01*
X0502606Y0124737D01*
X0502606Y0122637D02*
X0504621Y0122637D01*
X0505455Y0121039D02*
X0502606Y0121039D01*
X0502606Y0119440D02*
X0505619Y0119440D01*
X0506463Y0117842D02*
X0502606Y0117842D01*
X0502606Y0116243D02*
X0508940Y0116243D01*
X0511132Y0116243D02*
X0511172Y0116243D01*
X0511172Y0114645D02*
X0502606Y0114645D01*
X0502606Y0113046D02*
X0511172Y0113046D01*
X0511172Y0111448D02*
X0502606Y0111448D01*
X0502606Y0109849D02*
X0511172Y0109849D01*
X0511627Y0108251D02*
X0502341Y0108251D01*
X0501056Y0106652D02*
X0512708Y0106652D01*
X0515428Y0105054D02*
X0499458Y0105054D01*
X0497859Y0103455D02*
X0532820Y0103455D01*
X0532820Y0105054D02*
X0517715Y0105054D01*
X0520435Y0106652D02*
X0523598Y0106652D01*
X0522292Y0108251D02*
X0521516Y0108251D01*
X0526371Y0108251D02*
X0526772Y0108251D01*
X0526772Y0109849D02*
X0526371Y0109849D01*
X0526371Y0111448D02*
X0526772Y0111448D01*
X0526772Y0113046D02*
X0526371Y0113046D01*
X0526772Y0113225D02*
X0526772Y0105625D01*
X0526949Y0105625D01*
X0527696Y0105743D01*
X0528414Y0105977D01*
X0529087Y0106320D01*
X0529698Y0106764D01*
X0530233Y0107298D01*
X0530677Y0107909D01*
X0531020Y0108583D01*
X0531253Y0109301D01*
X0531372Y0110047D01*
X0531372Y0113225D01*
X0526772Y0113225D01*
X0526772Y0114645D02*
X0526371Y0114645D01*
X0526371Y0116243D02*
X0526772Y0116243D01*
X0526772Y0117842D02*
X0526371Y0117842D01*
X0526371Y0119440D02*
X0526772Y0119440D01*
X0526772Y0121039D02*
X0526371Y0121039D01*
X0527905Y0121039D02*
X0532820Y0121039D01*
X0532820Y0122637D02*
X0527671Y0122637D01*
X0529270Y0124236D02*
X0532820Y0124236D01*
X0532820Y0125835D02*
X0530869Y0125835D01*
X0532467Y0127433D02*
X0532820Y0127433D01*
X0532477Y0131969D02*
X0523422Y0122913D01*
X0512005Y0122913D01*
X0511217Y0122126D01*
X0511217Y0121929D01*
X0510036Y0120748D01*
X0503540Y0130197D02*
X0499406Y0126063D01*
X0499406Y0109528D01*
X0491729Y0101850D01*
X0488776Y0098898D01*
X0420666Y0098898D01*
X0413579Y0105984D01*
X0337201Y0105984D01*
X0335430Y0107756D01*
X0321060Y0107756D01*
X0319879Y0106575D01*
X0322304Y0097061D02*
X0328425Y0097061D01*
X0345272Y0096535D02*
X0345272Y0087677D01*
X0347831Y0087677D01*
X0352260Y0092106D01*
X0366138Y0078228D01*
X0404721Y0078228D01*
X0409918Y0083425D01*
X0410745Y0083425D01*
X0410745Y0083425D01*
X0414923Y0083425D01*
X0414923Y0083096D01*
X0414820Y0082447D01*
X0414617Y0081821D01*
X0414318Y0081235D01*
X0413931Y0080703D01*
X0413466Y0080238D01*
X0412934Y0079852D01*
X0412349Y0079553D01*
X0411723Y0079350D01*
X0411074Y0079247D01*
X0410745Y0079247D01*
X0410745Y0083425D01*
X0410745Y0083425D01*
X0414923Y0083425D01*
X0414923Y0083754D01*
X0414820Y0084404D01*
X0414617Y0085029D01*
X0414318Y0085615D01*
X0413931Y0086147D01*
X0413466Y0086612D01*
X0412934Y0086998D01*
X0412349Y0087297D01*
X0411723Y0087500D01*
X0411074Y0087603D01*
X0410745Y0087603D01*
X0410745Y0083425D01*
X0410745Y0079247D01*
X0410416Y0079247D01*
X0409766Y0079350D01*
X0409141Y0079553D01*
X0408555Y0079852D01*
X0408023Y0080238D01*
X0407558Y0080703D01*
X0407171Y0081235D01*
X0406873Y0081821D01*
X0406670Y0082447D01*
X0406567Y0083096D01*
X0406567Y0083425D01*
X0410745Y0083425D01*
X0410745Y0083425D01*
X0410745Y0083425D01*
X0406567Y0083425D01*
X0406567Y0083754D01*
X0406670Y0084404D01*
X0406873Y0085029D01*
X0407171Y0085615D01*
X0407558Y0086147D01*
X0408023Y0086612D01*
X0408555Y0086998D01*
X0409141Y0087297D01*
X0409766Y0087500D01*
X0410416Y0087603D01*
X0410745Y0087603D01*
X0410745Y0083425D01*
X0410745Y0082675D02*
X0410745Y0082675D01*
X0410745Y0084273D02*
X0410745Y0084273D01*
X0410745Y0085872D02*
X0410745Y0085872D01*
X0410745Y0087470D02*
X0410745Y0087470D01*
X0411815Y0087470D02*
X0540573Y0087470D01*
X0540573Y0085872D02*
X0414131Y0085872D01*
X0414840Y0084273D02*
X0541133Y0084273D01*
X0542368Y0082675D02*
X0414856Y0082675D01*
X0414202Y0081076D02*
X0542733Y0081076D01*
X0541284Y0079478D02*
X0412116Y0079478D01*
X0411695Y0078203D02*
X0409794Y0078203D01*
X0408038Y0077476D01*
X0406694Y0076132D01*
X0405967Y0074376D01*
X0405967Y0072475D01*
X0406694Y0070719D01*
X0408038Y0069375D01*
X0409794Y0068647D01*
X0411695Y0068647D01*
X0413451Y0069375D01*
X0414795Y0070719D01*
X0415523Y0072475D01*
X0415523Y0074376D01*
X0414795Y0076132D01*
X0413451Y0077476D01*
X0411695Y0078203D01*
X0412477Y0077879D02*
X0540622Y0077879D01*
X0540573Y0076281D02*
X0518960Y0076281D01*
X0520951Y0074682D02*
X0523040Y0074682D01*
X0522063Y0073084D02*
X0521729Y0073084D01*
X0526371Y0073084D02*
X0526772Y0073084D01*
X0526772Y0074682D02*
X0526371Y0074682D01*
X0526371Y0071485D02*
X0526772Y0071485D01*
X0526772Y0069887D02*
X0526371Y0069887D01*
X0526572Y0068425D02*
X0544209Y0068425D01*
X0545942Y0066693D01*
X0555942Y0066693D01*
X0556126Y0066690D02*
X0570663Y0066690D01*
X0571063Y0066690D02*
X0624480Y0066690D01*
X0624480Y0068288D02*
X0578328Y0068288D01*
X0577260Y0069887D02*
X0624480Y0069887D01*
X0624480Y0071485D02*
X0575876Y0071485D01*
X0578087Y0073084D02*
X0624480Y0073084D01*
X0624480Y0074682D02*
X0578956Y0074682D01*
X0579263Y0076281D02*
X0624480Y0076281D01*
X0624480Y0077879D02*
X0579135Y0077879D01*
X0578473Y0079478D02*
X0624480Y0079478D01*
X0624480Y0081076D02*
X0576916Y0081076D01*
X0577678Y0082675D02*
X0624480Y0082675D01*
X0624480Y0084273D02*
X0578787Y0084273D01*
X0579263Y0085872D02*
X0591816Y0085872D01*
X0592340Y0085569D02*
X0595621Y0084690D01*
X0599018Y0084690D01*
X0602299Y0085569D01*
X0605240Y0087267D01*
X0607642Y0089669D01*
X0609340Y0092611D01*
X0610220Y0095891D01*
X0610220Y0099288D01*
X0609340Y0102569D01*
X0607642Y0105511D01*
X0605240Y0107912D01*
X0602299Y0109611D01*
X0599018Y0110490D01*
X0595621Y0110490D01*
X0592340Y0109611D01*
X0589399Y0107912D01*
X0586997Y0105511D01*
X0585299Y0102569D01*
X0584420Y0099288D01*
X0584420Y0095891D01*
X0585299Y0092611D01*
X0586997Y0089669D01*
X0589399Y0087267D01*
X0592340Y0085569D01*
X0589196Y0087470D02*
X0579263Y0087470D01*
X0578642Y0089069D02*
X0587597Y0089069D01*
X0586421Y0090667D02*
X0577328Y0090667D01*
X0577269Y0092266D02*
X0585498Y0092266D01*
X0584963Y0093864D02*
X0578618Y0093864D01*
X0579263Y0095463D02*
X0584534Y0095463D01*
X0584420Y0097061D02*
X0579263Y0097061D01*
X0578812Y0098660D02*
X0584420Y0098660D01*
X0584680Y0100258D02*
X0577737Y0100258D01*
X0576774Y0101857D02*
X0585108Y0101857D01*
X0585810Y0103455D02*
X0578448Y0103455D01*
X0579110Y0105054D02*
X0586733Y0105054D01*
X0588139Y0106652D02*
X0579263Y0106652D01*
X0578981Y0108251D02*
X0589985Y0108251D01*
X0593231Y0109849D02*
X0578146Y0109849D01*
X0576019Y0111448D02*
X0624480Y0111448D01*
X0624480Y0113046D02*
X0559887Y0113046D01*
X0560904Y0114645D02*
X0624480Y0114645D01*
X0624480Y0116243D02*
X0561310Y0116243D01*
X0561276Y0117842D02*
X0624480Y0117842D01*
X0624480Y0119440D02*
X0560614Y0119440D01*
X0558491Y0111448D02*
X0565707Y0111448D01*
X0563579Y0109849D02*
X0560377Y0109849D01*
X0561107Y0108251D02*
X0562745Y0108251D01*
X0562463Y0106652D02*
X0561310Y0106652D01*
X0561073Y0105054D02*
X0562615Y0105054D01*
X0563277Y0103455D02*
X0560296Y0103455D01*
X0558295Y0101857D02*
X0564952Y0101857D01*
X0563988Y0100258D02*
X0559968Y0100258D01*
X0560938Y0098660D02*
X0562914Y0098660D01*
X0562463Y0097061D02*
X0561310Y0097061D01*
X0561243Y0095463D02*
X0562463Y0095463D01*
X0563108Y0093864D02*
X0560581Y0093864D01*
X0559107Y0092266D02*
X0564456Y0092266D01*
X0564397Y0090667D02*
X0559559Y0090667D01*
X0560768Y0089069D02*
X0563084Y0089069D01*
X0562463Y0087470D02*
X0561310Y0087470D01*
X0561310Y0085872D02*
X0562463Y0085872D01*
X0562939Y0084273D02*
X0560750Y0084273D01*
X0559516Y0082675D02*
X0564047Y0082675D01*
X0564809Y0081076D02*
X0559151Y0081076D01*
X0560599Y0079478D02*
X0563253Y0079478D01*
X0562591Y0077879D02*
X0561261Y0077879D01*
X0561310Y0076281D02*
X0562463Y0076281D01*
X0562769Y0074682D02*
X0560920Y0074682D01*
X0559925Y0073084D02*
X0563639Y0073084D01*
X0565849Y0071485D02*
X0557397Y0071485D01*
X0554826Y0071344D02*
X0552901Y0072142D01*
X0551390Y0073652D01*
X0550942Y0074735D01*
X0550493Y0073652D01*
X0548983Y0072142D01*
X0547057Y0071344D01*
X0547058Y0071344D01*
X0547772Y0071112D01*
X0548441Y0070771D01*
X0549048Y0070330D01*
X0549579Y0069799D01*
X0550020Y0069192D01*
X0550361Y0068523D01*
X0550593Y0067810D01*
X0550710Y0067068D01*
X0550710Y0066877D01*
X0546126Y0066877D01*
X0546126Y0066509D01*
X0550710Y0066509D01*
X0550710Y0066318D01*
X0550593Y0065576D01*
X0550361Y0064862D01*
X0550020Y0064194D01*
X0549579Y0063586D01*
X0549048Y0063056D01*
X0548441Y0062615D01*
X0547772Y0062274D01*
X0547058Y0062042D01*
X0546416Y0061940D01*
X0552707Y0061940D01*
X0555467Y0061940D01*
X0554825Y0062042D01*
X0554111Y0062274D01*
X0553442Y0062615D01*
X0552835Y0063056D01*
X0552304Y0063586D01*
X0551863Y0064194D01*
X0551522Y0064862D01*
X0551291Y0065576D01*
X0551173Y0066318D01*
X0551173Y0066509D01*
X0555757Y0066509D01*
X0555757Y0066877D01*
X0551173Y0066877D01*
X0551173Y0067068D01*
X0551291Y0067810D01*
X0551522Y0068523D01*
X0551863Y0069192D01*
X0552304Y0069799D01*
X0552835Y0070330D01*
X0553442Y0070771D01*
X0554111Y0071112D01*
X0554825Y0071344D01*
X0554826Y0071344D01*
X0554486Y0071485D02*
X0547397Y0071485D01*
X0549492Y0069887D02*
X0552392Y0069887D01*
X0551446Y0068288D02*
X0550437Y0068288D01*
X0550435Y0065091D02*
X0551448Y0065091D01*
X0552398Y0063493D02*
X0549485Y0063493D01*
X0546126Y0066690D02*
X0555757Y0066690D01*
X0559485Y0063493D02*
X0564112Y0063493D01*
X0563272Y0065091D02*
X0560435Y0065091D01*
X0560437Y0068288D02*
X0563398Y0068288D01*
X0564465Y0069887D02*
X0559492Y0069887D01*
X0551959Y0073084D02*
X0549925Y0073084D01*
X0550920Y0074682D02*
X0550964Y0074682D01*
X0544486Y0071485D02*
X0531372Y0071485D01*
X0531372Y0069887D02*
X0542392Y0069887D01*
X0541446Y0068288D02*
X0526772Y0068288D01*
X0531372Y0066690D02*
X0545757Y0066690D01*
X0541448Y0065091D02*
X0531372Y0065091D01*
X0530974Y0063493D02*
X0542398Y0063493D01*
X0542910Y0058740D02*
X0553343Y0058740D01*
X0556886Y0058740D01*
X0560036Y0055591D01*
X0560036Y0049685D01*
X0560036Y0049094D01*
X0562201Y0046929D01*
X0574406Y0046929D01*
X0574603Y0047126D01*
X0575390Y0047913D01*
X0575390Y0054882D01*
X0575272Y0055000D01*
X0580672Y0055500D02*
X0612928Y0055500D01*
X0610353Y0053902D02*
X0580672Y0053902D01*
X0580672Y0052303D02*
X0608754Y0052303D01*
X0607810Y0050704D02*
X0580581Y0050704D01*
X0579918Y0049106D02*
X0607136Y0049106D01*
X0606708Y0047507D02*
X0578590Y0047507D01*
X0577911Y0045909D02*
X0606652Y0045909D01*
X0606727Y0044310D02*
X0576313Y0044310D01*
X0577316Y0045313D02*
X0577316Y0045313D01*
X0560295Y0044310D02*
X0541310Y0044310D01*
X0541310Y0042712D02*
X0607156Y0042712D01*
X0607852Y0041113D02*
X0540671Y0041113D01*
X0539324Y0039515D02*
X0608826Y0039515D01*
X0620924Y0055500D02*
X0624480Y0055500D01*
X0624480Y0053902D02*
X0623499Y0053902D01*
X0624480Y0057099D02*
X0580672Y0057099D01*
X0580672Y0058697D02*
X0624480Y0058697D01*
X0624480Y0060296D02*
X0580166Y0060296D01*
X0579015Y0061894D02*
X0624480Y0061894D01*
X0624480Y0063493D02*
X0577614Y0063493D01*
X0578453Y0065091D02*
X0624480Y0065091D01*
X0624480Y0085872D02*
X0602823Y0085872D01*
X0605443Y0087470D02*
X0624480Y0087470D01*
X0624480Y0089069D02*
X0607042Y0089069D01*
X0608218Y0090667D02*
X0624480Y0090667D01*
X0624480Y0092266D02*
X0609141Y0092266D01*
X0609676Y0093864D02*
X0624480Y0093864D01*
X0624480Y0095463D02*
X0610105Y0095463D01*
X0610220Y0097061D02*
X0624480Y0097061D01*
X0624480Y0098660D02*
X0610220Y0098660D01*
X0609960Y0100258D02*
X0624480Y0100258D01*
X0624480Y0101857D02*
X0609531Y0101857D01*
X0608829Y0103455D02*
X0624480Y0103455D01*
X0624480Y0105054D02*
X0607906Y0105054D01*
X0606500Y0106652D02*
X0624480Y0106652D01*
X0624480Y0108251D02*
X0604654Y0108251D01*
X0601408Y0109849D02*
X0624480Y0109849D01*
X0602520Y0127433D02*
X0602120Y0127433D01*
X0590023Y0130630D02*
X0559597Y0130630D01*
X0532477Y0131969D02*
X0532477Y0209921D01*
X0515942Y0226457D01*
X0515942Y0236693D01*
X0520566Y0242526D02*
X0608316Y0242526D01*
X0609631Y0244124D02*
X0519071Y0244124D01*
X0488776Y0225276D02*
X0485430Y0228622D01*
X0488776Y0225276D02*
X0494879Y0225276D01*
X0498422Y0221732D01*
X0499406Y0221732D01*
X0501768Y0221732D01*
X0518304Y0205197D01*
X0497747Y0218548D02*
X0426546Y0218548D01*
X0429043Y0220147D02*
X0495482Y0220147D01*
X0493884Y0221745D02*
X0429866Y0221745D01*
X0429987Y0223344D02*
X0486183Y0223344D01*
X0484584Y0224942D02*
X0429509Y0224942D01*
X0425587Y0222913D02*
X0424406Y0224094D01*
X0357674Y0224094D01*
X0352336Y0229738D02*
X0344547Y0229738D01*
X0345763Y0231336D02*
X0351120Y0231336D01*
X0350573Y0232935D02*
X0346310Y0232935D01*
X0346310Y0234533D02*
X0350573Y0234533D01*
X0350573Y0236132D02*
X0346310Y0236132D01*
X0346310Y0237730D02*
X0350573Y0237730D01*
X0350573Y0239329D02*
X0346310Y0239329D01*
X0346228Y0240927D02*
X0350655Y0240927D01*
X0351317Y0242526D02*
X0345566Y0242526D01*
X0344071Y0244124D02*
X0352812Y0244124D01*
X0336120Y0231336D02*
X0335763Y0231336D01*
X0334547Y0229738D02*
X0337336Y0229738D01*
X0327336Y0229738D02*
X0324547Y0229738D01*
X0325763Y0231336D02*
X0326120Y0231336D01*
X0317336Y0229738D02*
X0314547Y0229738D01*
X0315763Y0231336D02*
X0316120Y0231336D01*
X0307336Y0229738D02*
X0304547Y0229738D01*
X0305763Y0231336D02*
X0306120Y0231336D01*
X0297336Y0229738D02*
X0294547Y0229738D01*
X0295763Y0231336D02*
X0296120Y0231336D01*
X0287336Y0229738D02*
X0283567Y0229738D01*
X0285077Y0231336D02*
X0286120Y0231336D01*
X0281126Y0231336D02*
X0280757Y0231336D01*
X0280757Y0229738D02*
X0281126Y0229738D01*
X0278316Y0229738D02*
X0274547Y0229738D01*
X0275763Y0231336D02*
X0276807Y0231336D01*
X0280757Y0232935D02*
X0281126Y0232935D01*
X0281126Y0234533D02*
X0280757Y0234533D01*
X0280757Y0236132D02*
X0281126Y0236132D01*
X0301699Y0212154D02*
X0475296Y0212154D01*
X0471684Y0210556D02*
X0303297Y0210556D01*
X0304896Y0208957D02*
X0468235Y0208957D01*
X0465459Y0207359D02*
X0306494Y0207359D01*
X0308095Y0205760D02*
X0462682Y0205760D01*
X0459906Y0204162D02*
X0309229Y0204162D01*
X0309913Y0202563D02*
X0457130Y0202563D01*
X0454477Y0200965D02*
X0310087Y0200965D01*
X0285036Y0188661D02*
X0274997Y0198701D01*
X0242516Y0198701D01*
X0220666Y0198701D01*
X0213579Y0205787D01*
X0213579Y0220551D01*
X0198225Y0235906D01*
X0175784Y0235906D01*
X0167516Y0227638D01*
X0167516Y0212394D01*
X0167189Y0212067D01*
X0161789Y0209743D02*
X0169091Y0202441D01*
X0182477Y0202441D01*
X0185627Y0202441D01*
X0223028Y0165039D01*
X0228146Y0159921D01*
X0232477Y0159921D01*
X0237674Y0164567D02*
X0243501Y0158740D01*
X0263973Y0158740D01*
X0266335Y0156378D01*
X0266335Y0150276D01*
X0268304Y0148307D01*
X0271847Y0149882D02*
X0277162Y0144567D01*
X0283264Y0144961D02*
X0276965Y0151260D01*
X0283461Y0144764D01*
X0365351Y0144764D01*
X0365351Y0150079D02*
X0359249Y0150079D01*
X0357674Y0148504D01*
X0285036Y0148504D01*
X0277949Y0155591D01*
X0277949Y0181969D01*
X0277949Y0183937D01*
X0277949Y0184331D01*
X0271453Y0190827D01*
X0262792Y0190827D01*
X0218501Y0190827D01*
X0205312Y0204016D01*
X0205312Y0220551D01*
X0195863Y0230000D01*
X0192910Y0230000D01*
X0188776Y0225866D01*
X0188776Y0212080D01*
X0188789Y0212067D01*
X0194189Y0208543D02*
X0194189Y0205887D01*
X0217123Y0182953D01*
X0231099Y0182953D01*
X0231296Y0182756D01*
X0232477Y0181575D01*
X0232477Y0172126D01*
X0236631Y0167972D01*
X0237674Y0167972D01*
X0237674Y0164567D01*
X0242713Y0164252D02*
X0242713Y0170157D01*
X0237674Y0175197D01*
X0237674Y0177972D01*
X0257674Y0177972D02*
X0258461Y0178760D01*
X0258461Y0186890D01*
X0269682Y0186890D01*
X0274406Y0182165D01*
X0274406Y0180787D01*
X0274406Y0153819D01*
X0276965Y0151260D01*
X0271847Y0150276D02*
X0271847Y0149882D01*
X0271847Y0150276D02*
X0271847Y0159134D01*
X0269485Y0161496D01*
X0245469Y0161496D01*
X0242713Y0164252D01*
X0240154Y0158150D02*
X0230823Y0167480D01*
X0227674Y0167480D01*
X0227674Y0167972D01*
X0227753Y0167894D01*
X0227674Y0167972D02*
X0227182Y0167972D01*
X0189957Y0205197D01*
X0176965Y0205197D01*
X0172589Y0209573D01*
X0172589Y0222067D01*
X0178146Y0226457D02*
X0184642Y0232953D01*
X0197044Y0232953D01*
X0209446Y0220551D01*
X0209446Y0204606D01*
X0219288Y0194764D01*
X0252556Y0194764D01*
X0273225Y0194764D01*
X0281493Y0186496D01*
X0281493Y0157362D01*
X0286808Y0152047D01*
X0355902Y0152047D01*
X0359249Y0155394D01*
X0365351Y0155394D01*
X0359249Y0160709D02*
X0354131Y0155591D01*
X0288579Y0155591D01*
X0285036Y0159134D01*
X0285036Y0188661D01*
X0258461Y0186890D02*
X0217713Y0186890D01*
X0199589Y0205014D01*
X0199589Y0212067D01*
X0194189Y0208543D02*
X0194189Y0222067D01*
X0178146Y0226457D02*
X0178146Y0212224D01*
X0177989Y0212067D01*
X0161789Y0209743D02*
X0161789Y0222067D01*
X0156304Y0167396D02*
X0136237Y0167396D01*
X0136899Y0165797D02*
X0157902Y0165797D01*
X0158017Y0164199D02*
X0137113Y0164199D01*
X0137113Y0162600D02*
X0158017Y0162600D01*
X0158017Y0161002D02*
X0136780Y0161002D01*
X0136118Y0159403D02*
X0158017Y0159403D01*
X0158065Y0157805D02*
X0134991Y0157805D01*
X0133393Y0156206D02*
X0158452Y0156206D01*
X0159362Y0154608D02*
X0151740Y0154608D01*
X0151791Y0154591D02*
X0151107Y0154813D01*
X0150396Y0154926D01*
X0150122Y0154926D01*
X0150122Y0150440D01*
X0154608Y0150440D01*
X0154608Y0150714D01*
X0154495Y0151425D01*
X0154273Y0152109D01*
X0153946Y0152750D01*
X0153523Y0153333D01*
X0153014Y0153841D01*
X0152432Y0154264D01*
X0151791Y0154591D01*
X0150122Y0154608D02*
X0149950Y0154608D01*
X0149950Y0154926D02*
X0149676Y0154926D01*
X0148966Y0154813D01*
X0148281Y0154591D01*
X0147640Y0154264D01*
X0147058Y0153841D01*
X0146549Y0153333D01*
X0146126Y0152750D01*
X0145799Y0152109D01*
X0145577Y0151425D01*
X0145464Y0150714D01*
X0145464Y0150440D01*
X0149950Y0150440D01*
X0149950Y0150268D01*
X0150122Y0150268D01*
X0150122Y0145783D01*
X0150396Y0145783D01*
X0151107Y0145895D01*
X0151791Y0146118D01*
X0152432Y0146444D01*
X0153014Y0146867D01*
X0153523Y0147376D01*
X0153946Y0147958D01*
X0154273Y0148599D01*
X0154495Y0149284D01*
X0154608Y0149995D01*
X0154608Y0150268D01*
X0150122Y0150268D01*
X0150122Y0150440D01*
X0149950Y0150440D01*
X0149950Y0154926D01*
X0148333Y0154608D02*
X0143254Y0154608D01*
X0144692Y0153009D02*
X0146314Y0153009D01*
X0145575Y0151411D02*
X0145354Y0151411D01*
X0145464Y0150268D02*
X0145464Y0149995D01*
X0145577Y0149284D01*
X0145799Y0148599D01*
X0146126Y0147958D01*
X0146549Y0147376D01*
X0147058Y0146867D01*
X0147640Y0146444D01*
X0148281Y0146118D01*
X0148966Y0145895D01*
X0149676Y0145783D01*
X0149950Y0145783D01*
X0149950Y0150268D01*
X0145464Y0150268D01*
X0145493Y0149812D02*
X0145365Y0149812D01*
X0144905Y0148214D02*
X0145996Y0148214D01*
X0147405Y0146615D02*
X0143768Y0146615D01*
X0144577Y0145017D02*
X0149255Y0145017D01*
X0149950Y0145017D02*
X0150122Y0145017D01*
X0150818Y0145017D02*
X0178948Y0145017D01*
X0178090Y0143418D02*
X0153575Y0143418D01*
X0152667Y0146615D02*
X0167994Y0146615D01*
X0165612Y0148214D02*
X0154076Y0148214D01*
X0154579Y0149812D02*
X0164045Y0149812D01*
X0162446Y0151411D02*
X0154497Y0151411D01*
X0153758Y0153009D02*
X0160848Y0153009D01*
X0150122Y0153009D02*
X0149950Y0153009D01*
X0149950Y0151411D02*
X0150122Y0151411D01*
X0150122Y0149812D02*
X0149950Y0149812D01*
X0149950Y0148214D02*
X0150122Y0148214D01*
X0150122Y0146615D02*
X0149950Y0146615D01*
X0149950Y0143418D02*
X0150122Y0143418D01*
X0150122Y0141820D02*
X0149950Y0141820D01*
X0146497Y0143418D02*
X0145240Y0143418D01*
X0145365Y0141820D02*
X0145654Y0141820D01*
X0145464Y0140221D02*
X0145019Y0140221D01*
X0145868Y0138623D02*
X0144043Y0138623D01*
X0141486Y0137024D02*
X0147059Y0137024D01*
X0146297Y0135426D02*
X0143932Y0135426D01*
X0144973Y0133827D02*
X0145257Y0133827D01*
X0138901Y0137024D02*
X0133964Y0137024D01*
X0133964Y0135426D02*
X0136455Y0135426D01*
X0135415Y0133827D02*
X0133382Y0133827D01*
X0132720Y0132229D02*
X0135022Y0132229D01*
X0135101Y0130630D02*
X0131242Y0130630D01*
X0128886Y0129032D02*
X0135763Y0129032D01*
X0136730Y0127433D02*
X0119470Y0127433D01*
X0119470Y0125835D02*
X0135529Y0125835D01*
X0135022Y0124236D02*
X0119470Y0124236D01*
X0119470Y0122637D02*
X0135022Y0122637D01*
X0135649Y0121039D02*
X0119470Y0121039D01*
X0133215Y0117842D02*
X0179156Y0117842D01*
X0188866Y0116243D02*
X0278096Y0116243D01*
X0278096Y0114645D02*
X0188866Y0114645D01*
X0188866Y0113046D02*
X0278096Y0113046D01*
X0278096Y0111448D02*
X0256383Y0111448D01*
X0258531Y0109849D02*
X0262344Y0109849D01*
X0278096Y0117842D02*
X0192176Y0117842D01*
X0193464Y0119440D02*
X0278096Y0119440D01*
X0278096Y0121039D02*
X0194066Y0121039D01*
X0194066Y0122637D02*
X0277778Y0122637D01*
X0276700Y0124236D02*
X0193572Y0124236D01*
X0192437Y0125835D02*
X0240411Y0125835D01*
X0238648Y0127433D02*
X0191767Y0127433D01*
X0193294Y0129032D02*
X0236884Y0129032D01*
X0235121Y0130630D02*
X0193957Y0130630D01*
X0194066Y0132229D02*
X0233358Y0132229D01*
X0231594Y0133827D02*
X0193741Y0133827D01*
X0192846Y0135426D02*
X0229831Y0135426D01*
X0227956Y0137024D02*
X0190572Y0137024D01*
X0192108Y0138623D02*
X0195713Y0138623D01*
X0194372Y0140221D02*
X0193145Y0140221D01*
X0240154Y0155984D02*
X0240154Y0158150D01*
X0308392Y0122637D02*
X0432915Y0122637D01*
X0434766Y0121039D02*
X0308118Y0121039D01*
X0308118Y0119440D02*
X0436617Y0119440D01*
X0423815Y0124236D02*
X0310006Y0124236D01*
X0308118Y0090667D02*
X0406746Y0090667D01*
X0408777Y0089069D02*
X0308118Y0089069D01*
X0308118Y0087470D02*
X0409674Y0087470D01*
X0407358Y0085872D02*
X0308118Y0085872D01*
X0308118Y0084273D02*
X0406649Y0084273D01*
X0406634Y0082675D02*
X0308118Y0082675D01*
X0308118Y0081076D02*
X0407287Y0081076D01*
X0409374Y0079478D02*
X0308118Y0079478D01*
X0308118Y0077879D02*
X0409012Y0077879D01*
X0410745Y0079478D02*
X0410745Y0079478D01*
X0410745Y0081076D02*
X0410745Y0081076D01*
X0414646Y0076281D02*
X0514183Y0076281D01*
X0512192Y0074682D02*
X0415396Y0074682D01*
X0415523Y0073084D02*
X0511414Y0073084D01*
X0511172Y0071485D02*
X0415113Y0071485D01*
X0413963Y0069887D02*
X0511172Y0069887D01*
X0511172Y0068288D02*
X0308118Y0068288D01*
X0308118Y0066690D02*
X0407252Y0066690D01*
X0406694Y0066132D02*
X0408038Y0067476D01*
X0409794Y0068203D01*
X0411695Y0068203D01*
X0413451Y0067476D01*
X0414795Y0066132D01*
X0415523Y0064376D01*
X0415523Y0062475D01*
X0414795Y0060719D01*
X0413451Y0059375D01*
X0411695Y0058647D01*
X0409794Y0058647D01*
X0408038Y0059375D01*
X0406694Y0060719D01*
X0405967Y0062475D01*
X0405967Y0064376D01*
X0406694Y0066132D01*
X0406263Y0065091D02*
X0308118Y0065091D01*
X0308118Y0063493D02*
X0405967Y0063493D01*
X0406207Y0061894D02*
X0308118Y0061894D01*
X0308118Y0060296D02*
X0407117Y0060296D01*
X0409674Y0058697D02*
X0308126Y0058697D01*
X0307967Y0057099D02*
X0516601Y0057099D01*
X0515003Y0058697D02*
X0411815Y0058697D01*
X0414372Y0060296D02*
X0513670Y0060296D01*
X0512466Y0061894D02*
X0415282Y0061894D01*
X0415523Y0063493D02*
X0511527Y0063493D01*
X0511172Y0065091D02*
X0415226Y0065091D01*
X0414237Y0066690D02*
X0511172Y0066690D01*
X0516572Y0068425D02*
X0516572Y0061654D01*
X0519485Y0058740D01*
X0542910Y0058740D01*
X0539294Y0053902D02*
X0556836Y0053902D01*
X0556836Y0052303D02*
X0540658Y0052303D01*
X0541310Y0050704D02*
X0556836Y0050704D01*
X0556836Y0049106D02*
X0541310Y0049106D01*
X0541310Y0047507D02*
X0557230Y0047507D01*
X0558696Y0045909D02*
X0541310Y0045909D01*
X0531225Y0052303D02*
X0530658Y0052303D01*
X0529294Y0053902D02*
X0532589Y0053902D01*
X0522589Y0053902D02*
X0519294Y0053902D01*
X0520658Y0052303D02*
X0521225Y0052303D01*
X0512589Y0053902D02*
X0509294Y0053902D01*
X0510658Y0052303D02*
X0511225Y0052303D01*
X0502589Y0053902D02*
X0499294Y0053902D01*
X0500658Y0052303D02*
X0501225Y0052303D01*
X0492589Y0053902D02*
X0489294Y0053902D01*
X0490658Y0052303D02*
X0491225Y0052303D01*
X0482589Y0053902D02*
X0479294Y0053902D01*
X0480658Y0052303D02*
X0481225Y0052303D01*
X0472589Y0053902D02*
X0469294Y0053902D01*
X0470658Y0052303D02*
X0471225Y0052303D01*
X0462589Y0053902D02*
X0449294Y0053902D01*
X0450658Y0052303D02*
X0461225Y0052303D01*
X0460573Y0050704D02*
X0451310Y0050704D01*
X0451310Y0049106D02*
X0460573Y0049106D01*
X0460573Y0047507D02*
X0451310Y0047507D01*
X0451310Y0045909D02*
X0460573Y0045909D01*
X0460573Y0044310D02*
X0451310Y0044310D01*
X0451310Y0042712D02*
X0460573Y0042712D01*
X0461212Y0041113D02*
X0450671Y0041113D01*
X0449324Y0039515D02*
X0462559Y0039515D01*
X0441225Y0052303D02*
X0440658Y0052303D01*
X0439294Y0053902D02*
X0442589Y0053902D01*
X0432589Y0053902D02*
X0429294Y0053902D01*
X0430658Y0052303D02*
X0431225Y0052303D01*
X0422589Y0053902D02*
X0419294Y0053902D01*
X0420658Y0052303D02*
X0421225Y0052303D01*
X0412589Y0053902D02*
X0409294Y0053902D01*
X0410658Y0052303D02*
X0411225Y0052303D01*
X0402589Y0053902D02*
X0399294Y0053902D01*
X0400658Y0052303D02*
X0401225Y0052303D01*
X0392589Y0053902D02*
X0389294Y0053902D01*
X0390658Y0052303D02*
X0391225Y0052303D01*
X0382589Y0053902D02*
X0379294Y0053902D01*
X0380658Y0052303D02*
X0381225Y0052303D01*
X0372589Y0053902D02*
X0359294Y0053902D01*
X0360658Y0052303D02*
X0371225Y0052303D01*
X0370573Y0050704D02*
X0361310Y0050704D01*
X0361310Y0049106D02*
X0370573Y0049106D01*
X0370573Y0047507D02*
X0361310Y0047507D01*
X0361310Y0045909D02*
X0370573Y0045909D01*
X0370573Y0044310D02*
X0361310Y0044310D01*
X0361310Y0042712D02*
X0370573Y0042712D01*
X0371212Y0041113D02*
X0360671Y0041113D01*
X0359324Y0039515D02*
X0372559Y0039515D01*
X0352559Y0039515D02*
X0348184Y0039515D01*
X0346126Y0039515D02*
X0345757Y0039515D01*
X0345757Y0041113D02*
X0346126Y0041113D01*
X0346126Y0042712D02*
X0345757Y0042712D01*
X0345757Y0044310D02*
X0346126Y0044310D01*
X0346126Y0045909D02*
X0345757Y0045909D01*
X0345942Y0046693D02*
X0345942Y0048622D01*
X0341138Y0053425D01*
X0341138Y0083543D01*
X0345272Y0087677D01*
X0308118Y0076281D02*
X0406843Y0076281D01*
X0406094Y0074682D02*
X0308118Y0074682D01*
X0308118Y0073084D02*
X0405967Y0073084D01*
X0406377Y0071485D02*
X0308118Y0071485D01*
X0308118Y0069887D02*
X0407526Y0069887D01*
X0412713Y0089069D02*
X0541115Y0089069D01*
X0542324Y0090667D02*
X0534391Y0090667D01*
X0536276Y0092266D02*
X0542777Y0092266D01*
X0541302Y0093864D02*
X0537875Y0093864D01*
X0539473Y0095463D02*
X0540640Y0095463D01*
X0538678Y0099193D02*
X0535430Y0095945D01*
X0533658Y0098898D02*
X0535725Y0100965D01*
X0532092Y0101857D02*
X0496261Y0101857D01*
X0494662Y0100258D02*
X0530493Y0100258D01*
X0529545Y0106652D02*
X0532820Y0106652D01*
X0532820Y0108251D02*
X0530851Y0108251D01*
X0531340Y0109849D02*
X0532820Y0109849D01*
X0532820Y0111448D02*
X0531372Y0111448D01*
X0531372Y0113046D02*
X0532820Y0113046D01*
X0532820Y0114645D02*
X0531372Y0114645D01*
X0531372Y0116243D02*
X0532820Y0116243D01*
X0532820Y0117842D02*
X0531158Y0117842D01*
X0530314Y0119440D02*
X0532820Y0119440D01*
X0520075Y0130197D02*
X0503540Y0130197D01*
X0489470Y0108251D02*
X0488582Y0108251D01*
X0487872Y0106652D02*
X0422161Y0106652D01*
X0420563Y0108251D02*
X0465534Y0108251D01*
X0447895Y0109849D02*
X0418964Y0109849D01*
X0417094Y0111448D02*
X0445872Y0111448D01*
X0423816Y0108346D02*
X0423225Y0108937D01*
X0416390Y0090667D02*
X0414744Y0090667D01*
X0352589Y0053902D02*
X0348123Y0053902D01*
X0346126Y0053902D02*
X0345757Y0053902D01*
X0345757Y0054430D02*
X0345566Y0054430D01*
X0344825Y0054312D01*
X0344111Y0054081D01*
X0343442Y0053740D01*
X0342835Y0053299D01*
X0342304Y0052768D01*
X0341863Y0052161D01*
X0341522Y0051492D01*
X0341291Y0050778D01*
X0341173Y0050037D01*
X0341173Y0046877D01*
X0345757Y0046877D01*
X0345757Y0054430D01*
X0343760Y0053902D02*
X0338123Y0053902D01*
X0336126Y0053902D02*
X0335757Y0053902D01*
X0335757Y0052303D02*
X0336126Y0052303D01*
X0336126Y0050704D02*
X0335757Y0050704D01*
X0335757Y0049106D02*
X0336126Y0049106D01*
X0335942Y0048228D02*
X0341138Y0053425D01*
X0341967Y0052303D02*
X0339917Y0052303D01*
X0340604Y0050704D02*
X0341279Y0050704D01*
X0341173Y0049106D02*
X0340710Y0049106D01*
X0340710Y0047507D02*
X0341173Y0047507D01*
X0340710Y0046509D02*
X0336126Y0046509D01*
X0336126Y0038956D01*
X0336317Y0038956D01*
X0337058Y0039073D01*
X0337772Y0039305D01*
X0338441Y0039646D01*
X0339048Y0040087D01*
X0339579Y0040618D01*
X0340020Y0041225D01*
X0340361Y0041894D01*
X0340593Y0042608D01*
X0340710Y0043349D01*
X0340710Y0046509D01*
X0340710Y0045909D02*
X0341173Y0045909D01*
X0341173Y0044310D02*
X0340710Y0044310D01*
X0340609Y0042712D02*
X0341274Y0042712D01*
X0341944Y0041113D02*
X0339939Y0041113D01*
X0338184Y0039515D02*
X0343700Y0039515D01*
X0349939Y0041113D02*
X0351212Y0041113D01*
X0346126Y0047507D02*
X0345757Y0047507D01*
X0345757Y0049106D02*
X0346126Y0049106D01*
X0346126Y0050704D02*
X0345757Y0050704D01*
X0345757Y0052303D02*
X0346126Y0052303D01*
X0349917Y0052303D02*
X0351225Y0052303D01*
X0335942Y0048228D02*
X0335942Y0046693D01*
X0335757Y0045909D02*
X0336126Y0045909D01*
X0336126Y0047507D02*
X0335757Y0047507D01*
X0335757Y0044310D02*
X0336126Y0044310D01*
X0336126Y0042712D02*
X0335757Y0042712D01*
X0335757Y0041113D02*
X0336126Y0041113D01*
X0336126Y0039515D02*
X0335757Y0039515D01*
X0333700Y0039515D02*
X0329324Y0039515D01*
X0330671Y0041113D02*
X0331944Y0041113D01*
X0331967Y0052303D02*
X0330658Y0052303D01*
X0329294Y0053902D02*
X0333760Y0053902D01*
X0322589Y0053902D02*
X0319294Y0053902D01*
X0320658Y0052303D02*
X0321225Y0052303D01*
X0312589Y0053902D02*
X0309294Y0053902D01*
X0310658Y0052303D02*
X0311225Y0052303D01*
X0307386Y0055500D02*
X0555601Y0055500D01*
X0559857Y0060296D02*
X0561055Y0060296D01*
X0562466Y0061894D02*
X0557634Y0061894D01*
X0569490Y0060296D02*
X0570378Y0060296D01*
X0570663Y0061894D02*
X0571063Y0061894D01*
X0571063Y0063493D02*
X0570663Y0063493D01*
X0570663Y0065091D02*
X0571063Y0065091D01*
X0541959Y0073084D02*
X0531080Y0073084D01*
X0530103Y0074682D02*
X0540964Y0074682D01*
X0494442Y0100038D02*
X0494442Y0100038D01*
X0526371Y0106652D02*
X0526772Y0106652D01*
X0453343Y0150866D02*
X0448619Y0155591D01*
X0428540Y0155591D01*
X0365351Y0160709D02*
X0363383Y0160709D01*
X0359249Y0160709D01*
X0234555Y0111448D02*
X0188866Y0111448D01*
X0188866Y0109849D02*
X0232407Y0109849D01*
X0230809Y0108251D02*
X0188866Y0108251D01*
X0188866Y0106652D02*
X0223754Y0106652D01*
X0207351Y0105054D02*
X0188866Y0105054D01*
X0188866Y0103455D02*
X0206333Y0103455D01*
X0213915Y0098660D02*
X0220627Y0098660D01*
X0219029Y0097061D02*
X0191595Y0097061D01*
X0193193Y0095463D02*
X0217430Y0095463D01*
X0212736Y0053902D02*
X0211834Y0053902D01*
X0212730Y0042712D02*
X0213765Y0042712D01*
X0204995Y0042712D02*
X0204603Y0042712D01*
X0198578Y0042712D02*
X0198187Y0042712D01*
X0194729Y0042712D02*
X0193695Y0042712D01*
X0190237Y0042712D02*
X0182786Y0042712D01*
X0183925Y0044310D02*
X0189098Y0044310D01*
X0188966Y0045909D02*
X0184022Y0045909D01*
X0183019Y0047507D02*
X0188329Y0047507D01*
X0187180Y0049106D02*
X0183919Y0049106D01*
X0184028Y0050704D02*
X0187042Y0050704D01*
X0187334Y0052303D02*
X0183034Y0052303D01*
X0170921Y0053902D02*
X0167133Y0053902D01*
X0165467Y0053902D02*
X0161679Y0053902D01*
X0162574Y0042712D02*
X0162647Y0042712D01*
X0169953Y0042712D02*
X0170026Y0042712D01*
X0175407Y0042712D02*
X0175480Y0042712D01*
X0121580Y0129032D02*
X0119470Y0129032D01*
X0133964Y0138623D02*
X0136344Y0138623D01*
X0135369Y0140221D02*
X0133336Y0140221D01*
X0132674Y0141820D02*
X0135022Y0141820D01*
X0135147Y0143418D02*
X0131130Y0143418D01*
X0128617Y0145017D02*
X0135810Y0145017D01*
X0136619Y0146615D02*
X0119470Y0146615D01*
X0119470Y0145017D02*
X0121848Y0145017D01*
X0119470Y0148214D02*
X0135482Y0148214D01*
X0135022Y0149812D02*
X0119470Y0149812D01*
X0119470Y0151411D02*
X0135033Y0151411D01*
X0135696Y0153009D02*
X0119470Y0153009D01*
X0119470Y0154608D02*
X0137133Y0154608D01*
X0123373Y0156206D02*
X0119470Y0156206D01*
X0119470Y0157805D02*
X0121774Y0157805D01*
X0120647Y0159403D02*
X0119470Y0159403D01*
X0119470Y0161002D02*
X0119985Y0161002D01*
X0119652Y0162600D02*
X0119470Y0162600D01*
X0119470Y0164199D02*
X0119652Y0164199D01*
X0119470Y0165797D02*
X0119866Y0165797D01*
X0119470Y0167396D02*
X0120528Y0167396D01*
D21*
X0210627Y0101850D03*
X0227162Y0089449D03*
X0205902Y0084724D03*
X0247831Y0101260D03*
X0256099Y0101850D03*
X0265548Y0106575D03*
X0319879Y0106575D03*
X0320469Y0101260D03*
X0331099Y0100866D03*
X0345272Y0096535D03*
X0338383Y0111693D03*
X0365351Y0144764D03*
X0365351Y0150079D03*
X0365351Y0155394D03*
X0365351Y0160709D03*
X0428540Y0155591D03*
X0453343Y0150866D03*
X0507674Y0126063D03*
X0510036Y0120748D03*
X0423225Y0108937D03*
X0578540Y0165827D03*
D22*
X0622241Y0196929D03*
X0621060Y0224094D03*
X0603343Y0241811D03*
X0524603Y0242402D03*
X0493501Y0219370D03*
X0501768Y0213465D03*
X0480312Y0220551D03*
X0476965Y0214646D03*
X0466729Y0220945D03*
X0457871Y0221339D03*
X0452162Y0219370D03*
X0453343Y0212283D03*
X0458068Y0206378D03*
X0450981Y0204016D03*
X0463973Y0211102D03*
X0428540Y0214646D03*
X0425587Y0222913D03*
X0403737Y0209921D03*
X0401375Y0202835D03*
X0357674Y0215827D03*
X0357674Y0224094D03*
X0353540Y0204606D03*
X0309249Y0214646D03*
X0303343Y0214646D03*
X0274997Y0226457D03*
X0238383Y0204016D03*
X0242516Y0198701D03*
X0252556Y0194764D03*
X0262792Y0190827D03*
X0296257Y0166220D03*
X0305705Y0162677D03*
X0305705Y0170945D03*
X0268304Y0148307D03*
X0277162Y0144567D03*
X0240154Y0155984D03*
X0232477Y0159921D03*
X0208264Y0179803D03*
X0189957Y0197520D03*
X0149800Y0206378D03*
X0139170Y0206378D03*
X0121453Y0230000D03*
X0121453Y0241811D03*
X0135627Y0241811D03*
X0153343Y0241811D03*
X0184052Y0241811D03*
X0210036Y0241811D03*
X0225390Y0241811D03*
X0354131Y0167402D03*
X0382674Y0151457D03*
X0378934Y0146142D03*
X0405705Y0146339D03*
X0424997Y0146339D03*
X0453343Y0143780D03*
X0454524Y0160315D03*
X0450981Y0167402D03*
X0403737Y0166220D03*
X0401375Y0170945D03*
X0362398Y0122520D03*
X0344682Y0122520D03*
X0331690Y0122520D03*
X0321847Y0122717D03*
X0327359Y0115630D03*
X0368304Y0094173D03*
X0356493Y0080000D03*
X0326965Y0074094D03*
X0310823Y0056772D03*
X0274997Y0078819D03*
X0254918Y0072913D03*
X0241926Y0089449D03*
X0194682Y0097717D03*
X0247831Y0117795D03*
X0256099Y0122520D03*
X0262005Y0116614D03*
X0266729Y0122520D03*
X0155312Y0165039D03*
X0141532Y0165039D03*
X0121847Y0151260D03*
X0121847Y0125669D03*
X0121847Y0102047D03*
X0121847Y0076457D03*
X0123816Y0041024D03*
X0153343Y0041024D03*
X0220272Y0041024D03*
X0245863Y0041024D03*
X0245863Y0052835D03*
X0368304Y0064646D03*
X0400390Y0083150D03*
X0439957Y0074882D03*
X0544288Y0040433D03*
X0606886Y0039843D03*
X0621060Y0058740D03*
X0622241Y0097717D03*
X0515942Y0137874D03*
D23*
X0473656Y0139017D02*
X0473638Y0138833D01*
X0473557Y0138566D01*
X0473426Y0138319D01*
X0473172Y0138010D01*
X0472908Y0137748D01*
X0472859Y0137628D01*
X0472777Y0137529D01*
X0472669Y0137173D01*
X0472013Y0135598D01*
X0471997Y0135579D01*
X0471855Y0135452D01*
X0471696Y0135348D01*
X0471522Y0135271D01*
X0471464Y0135256D01*
X0449694Y0135256D01*
X0449682Y0135261D01*
X0449197Y0135256D01*
X0448712Y0135256D01*
X0448700Y0135251D01*
X0432123Y0135087D01*
X0432100Y0135096D01*
X0431627Y0135082D01*
X0431153Y0135078D01*
X0431130Y0135068D01*
X0430757Y0135057D01*
X0430064Y0135121D01*
X0429728Y0135194D01*
X0429641Y0135282D01*
X0429549Y0135422D01*
X0429487Y0135577D01*
X0429459Y0135734D01*
X0429481Y0135795D01*
X0429466Y0136225D01*
X0429474Y0136656D01*
X0429449Y0136720D01*
X0429444Y0136855D01*
X0429485Y0137075D01*
X0429427Y0137347D01*
X0429417Y0137624D01*
X0429324Y0137828D01*
X0429263Y0138113D01*
X0429265Y0138337D01*
X0429160Y0138594D01*
X0429103Y0138866D01*
X0428975Y0139051D01*
X0428866Y0139320D01*
X0428828Y0139541D01*
X0428681Y0139776D01*
X0428576Y0140033D01*
X0428419Y0140193D01*
X0428264Y0140439D01*
X0428189Y0140651D01*
X0428002Y0140856D01*
X0427855Y0141091D01*
X0427672Y0141221D01*
X0427477Y0141437D01*
X0427365Y0141632D01*
X0427146Y0141802D01*
X0426960Y0142007D01*
X0426757Y0142103D01*
X0426375Y0142399D01*
X0426064Y0142675D01*
X0425984Y0142702D01*
X0425918Y0142753D01*
X0425517Y0142863D01*
X0424426Y0143238D01*
X0424001Y0143413D01*
X0423819Y0143540D01*
X0423545Y0143601D01*
X0423286Y0143708D01*
X0423064Y0143707D01*
X0422812Y0143763D01*
X0422612Y0143857D01*
X0422332Y0143869D01*
X0422058Y0143930D01*
X0421840Y0143891D01*
X0421746Y0143895D01*
X0421693Y0143917D01*
X0421251Y0143917D01*
X0420810Y0143937D01*
X0420756Y0143917D01*
X0369201Y0143917D01*
X0369232Y0143992D01*
X0369232Y0145536D01*
X0368641Y0146962D01*
X0368182Y0147421D01*
X0368641Y0147880D01*
X0369232Y0149307D01*
X0369232Y0150851D01*
X0368641Y0152277D01*
X0368182Y0152736D01*
X0368641Y0153195D01*
X0369232Y0154622D01*
X0369232Y0156166D01*
X0368641Y0157592D01*
X0368182Y0158051D01*
X0368641Y0158510D01*
X0369232Y0159937D01*
X0369232Y0161481D01*
X0368641Y0162907D01*
X0367550Y0163999D01*
X0366123Y0164590D01*
X0364579Y0164590D01*
X0363153Y0163999D01*
X0362362Y0163209D01*
X0358751Y0163209D01*
X0357833Y0162828D01*
X0357129Y0162125D01*
X0353095Y0158091D01*
X0289615Y0158091D01*
X0287536Y0160169D01*
X0287536Y0185113D01*
X0295818Y0176519D01*
X0295889Y0176386D01*
X0296160Y0176164D01*
X0296404Y0175911D01*
X0296542Y0175851D01*
X0296680Y0175738D01*
X0296839Y0175544D01*
X0297060Y0175425D01*
X0297254Y0175266D01*
X0297495Y0175193D01*
X0297741Y0175061D01*
X0297935Y0174902D01*
X0298175Y0174829D01*
X0298397Y0174711D01*
X0298647Y0174686D01*
X0298914Y0174605D01*
X0299135Y0174487D01*
X0299385Y0174462D01*
X0299625Y0174389D01*
X0299875Y0174414D01*
X0300029Y0174399D01*
X0300146Y0174350D01*
X0300520Y0174350D01*
X0300893Y0174314D01*
X0301014Y0174350D01*
X0448834Y0174350D01*
X0449234Y0174311D01*
X0449502Y0174230D01*
X0449748Y0174098D01*
X0450059Y0173843D01*
X0453310Y0170592D01*
X0453369Y0170481D01*
X0453659Y0170243D01*
X0453924Y0169979D01*
X0454040Y0169930D01*
X0454160Y0169832D01*
X0454319Y0169638D01*
X0454541Y0169520D01*
X0454735Y0169360D01*
X0454975Y0169288D01*
X0455221Y0169156D01*
X0455415Y0168997D01*
X0455656Y0168924D01*
X0455877Y0168805D01*
X0456127Y0168781D01*
X0456394Y0168700D01*
X0456616Y0168581D01*
X0456865Y0168557D01*
X0457106Y0168484D01*
X0457355Y0168508D01*
X0457509Y0168493D01*
X0457626Y0168445D01*
X0458001Y0168445D01*
X0458373Y0168408D01*
X0458494Y0168445D01*
X0472456Y0168445D01*
X0472857Y0168405D01*
X0473124Y0168324D01*
X0473370Y0168193D01*
X0473586Y0168015D01*
X0473620Y0167974D01*
X0473645Y0167927D01*
X0473660Y0167876D01*
X0473678Y0167700D01*
X0473678Y0162063D01*
X0473506Y0162594D01*
X0473184Y0163225D01*
X0472768Y0163798D01*
X0472267Y0164299D01*
X0471694Y0164715D01*
X0471063Y0165036D01*
X0470389Y0165255D01*
X0469689Y0165366D01*
X0466835Y0165366D01*
X0466835Y0161366D01*
X0465835Y0161366D01*
X0465835Y0160366D01*
X0458858Y0160366D01*
X0458946Y0159812D01*
X0459165Y0159139D01*
X0459487Y0158508D01*
X0459903Y0157935D01*
X0460404Y0157434D01*
X0460977Y0157017D01*
X0461608Y0156696D01*
X0462282Y0156477D01*
X0462981Y0156366D01*
X0465835Y0156366D01*
X0465835Y0160366D01*
X0466835Y0160366D01*
X0466835Y0156366D01*
X0469689Y0156366D01*
X0470389Y0156477D01*
X0471063Y0156696D01*
X0471694Y0157017D01*
X0472267Y0157434D01*
X0472768Y0157935D01*
X0473184Y0158508D01*
X0473506Y0159139D01*
X0473678Y0159669D01*
X0473678Y0152664D01*
X0473320Y0153528D01*
X0471998Y0154851D01*
X0470270Y0155566D01*
X0462400Y0155566D01*
X0460673Y0154851D01*
X0459351Y0153528D01*
X0458635Y0151801D01*
X0458635Y0149931D01*
X0459351Y0148204D01*
X0460673Y0146882D01*
X0462400Y0146166D01*
X0470270Y0146166D01*
X0471998Y0146882D01*
X0473320Y0148204D01*
X0473678Y0149068D01*
X0473678Y0142664D01*
X0473320Y0143528D01*
X0471998Y0144851D01*
X0470270Y0145566D01*
X0462400Y0145566D01*
X0460673Y0144851D01*
X0459351Y0143528D01*
X0458635Y0141801D01*
X0458635Y0139931D01*
X0459351Y0138204D01*
X0460673Y0136882D01*
X0462400Y0136166D01*
X0470270Y0136166D01*
X0471998Y0136882D01*
X0473320Y0138204D01*
X0473656Y0139017D01*
X0473609Y0138735D02*
X0473540Y0138735D01*
X0472903Y0137736D02*
X0472852Y0137736D01*
X0472487Y0136738D02*
X0471650Y0136738D01*
X0472072Y0135739D02*
X0429460Y0135739D01*
X0429448Y0136738D02*
X0461020Y0136738D01*
X0459818Y0137736D02*
X0429366Y0137736D01*
X0429130Y0138735D02*
X0459131Y0138735D01*
X0458717Y0139733D02*
X0428708Y0139733D01*
X0428115Y0140732D02*
X0458635Y0140732D01*
X0458635Y0141730D02*
X0427238Y0141730D01*
X0425950Y0142729D02*
X0459020Y0142729D01*
X0459550Y0143727D02*
X0422973Y0143727D01*
X0426342Y0152300D02*
X0427768Y0151709D01*
X0429312Y0151709D01*
X0430738Y0152300D01*
X0431529Y0153091D01*
X0447583Y0153091D01*
X0449462Y0151212D01*
X0449462Y0150094D01*
X0450053Y0148668D01*
X0451145Y0147576D01*
X0452571Y0146985D01*
X0454115Y0146985D01*
X0455542Y0147576D01*
X0456633Y0148668D01*
X0457224Y0150094D01*
X0457224Y0151638D01*
X0456633Y0153065D01*
X0455542Y0154156D01*
X0454115Y0154747D01*
X0452998Y0154747D01*
X0450035Y0157710D01*
X0449116Y0158091D01*
X0431529Y0158091D01*
X0430738Y0158881D01*
X0429312Y0159472D01*
X0427768Y0159472D01*
X0426342Y0158881D01*
X0425250Y0157789D01*
X0424659Y0156363D01*
X0424659Y0154819D01*
X0425250Y0153392D01*
X0426342Y0152300D01*
X0425928Y0152714D02*
X0368205Y0152714D01*
X0368856Y0153712D02*
X0425117Y0153712D01*
X0424703Y0154711D02*
X0369232Y0154711D01*
X0369232Y0155709D02*
X0424659Y0155709D01*
X0424802Y0156708D02*
X0369008Y0156708D01*
X0368527Y0157706D02*
X0425216Y0157706D01*
X0426166Y0158705D02*
X0368722Y0158705D01*
X0369136Y0159704D02*
X0458981Y0159704D01*
X0459386Y0158705D02*
X0430914Y0158705D01*
X0431152Y0152714D02*
X0447960Y0152714D01*
X0448958Y0151715D02*
X0429326Y0151715D01*
X0427754Y0151715D02*
X0368874Y0151715D01*
X0369232Y0150717D02*
X0449462Y0150717D01*
X0449618Y0149718D02*
X0369232Y0149718D01*
X0368989Y0148720D02*
X0450031Y0148720D01*
X0450999Y0147721D02*
X0368482Y0147721D01*
X0368740Y0146723D02*
X0461056Y0146723D01*
X0459833Y0147721D02*
X0455687Y0147721D01*
X0456655Y0148720D02*
X0459137Y0148720D01*
X0458723Y0149718D02*
X0457069Y0149718D01*
X0457224Y0150717D02*
X0458635Y0150717D01*
X0458635Y0151715D02*
X0457192Y0151715D01*
X0456779Y0152714D02*
X0459013Y0152714D01*
X0459535Y0153712D02*
X0455986Y0153712D01*
X0454203Y0154711D02*
X0460533Y0154711D01*
X0461584Y0156708D02*
X0451037Y0156708D01*
X0452035Y0155709D02*
X0473678Y0155709D01*
X0473678Y0154711D02*
X0472137Y0154711D01*
X0473136Y0153712D02*
X0473678Y0153712D01*
X0473657Y0152714D02*
X0473678Y0152714D01*
X0473678Y0148720D02*
X0473534Y0148720D01*
X0473678Y0147721D02*
X0472837Y0147721D01*
X0473678Y0146723D02*
X0471614Y0146723D01*
X0472122Y0144726D02*
X0473678Y0144726D01*
X0473678Y0145724D02*
X0369154Y0145724D01*
X0369232Y0144726D02*
X0460548Y0144726D01*
X0473121Y0143727D02*
X0473678Y0143727D01*
X0473651Y0142729D02*
X0473678Y0142729D01*
X0473678Y0156708D02*
X0471087Y0156708D01*
X0472540Y0157706D02*
X0473678Y0157706D01*
X0473678Y0158705D02*
X0473285Y0158705D01*
X0466835Y0158705D02*
X0465835Y0158705D01*
X0465835Y0157706D02*
X0466835Y0157706D01*
X0466835Y0156708D02*
X0465835Y0156708D01*
X0465835Y0159704D02*
X0466835Y0159704D01*
X0465835Y0160702D02*
X0369232Y0160702D01*
X0369141Y0161701D02*
X0458911Y0161701D01*
X0458946Y0161920D02*
X0458858Y0161366D01*
X0465835Y0161366D01*
X0465835Y0165366D01*
X0462981Y0165366D01*
X0462282Y0165255D01*
X0461608Y0165036D01*
X0460977Y0164715D01*
X0460404Y0164299D01*
X0459903Y0163798D01*
X0459487Y0163225D01*
X0459165Y0162594D01*
X0458946Y0161920D01*
X0459219Y0162699D02*
X0368727Y0162699D01*
X0367851Y0163698D02*
X0459830Y0163698D01*
X0460951Y0164696D02*
X0287536Y0164696D01*
X0287536Y0163698D02*
X0362851Y0163698D01*
X0357704Y0162699D02*
X0287536Y0162699D01*
X0287536Y0161701D02*
X0356705Y0161701D01*
X0355707Y0160702D02*
X0287536Y0160702D01*
X0288002Y0159704D02*
X0354708Y0159704D01*
X0353709Y0158705D02*
X0289000Y0158705D01*
X0287536Y0165695D02*
X0473678Y0165695D01*
X0473678Y0166693D02*
X0287536Y0166693D01*
X0287536Y0167692D02*
X0473678Y0167692D01*
X0473678Y0164696D02*
X0471720Y0164696D01*
X0472840Y0163698D02*
X0473678Y0163698D01*
X0473678Y0162699D02*
X0473452Y0162699D01*
X0466835Y0162699D02*
X0465835Y0162699D01*
X0465835Y0161701D02*
X0466835Y0161701D01*
X0466835Y0163698D02*
X0465835Y0163698D01*
X0465835Y0164696D02*
X0466835Y0164696D01*
X0456412Y0168690D02*
X0287536Y0168690D01*
X0287536Y0169689D02*
X0454278Y0169689D01*
X0453215Y0170687D02*
X0287536Y0170687D01*
X0287536Y0171686D02*
X0452216Y0171686D01*
X0451218Y0172684D02*
X0287536Y0172684D01*
X0287536Y0173683D02*
X0450219Y0173683D01*
X0450038Y0157706D02*
X0460131Y0157706D01*
X0298663Y0174681D02*
X0287536Y0174681D01*
X0287536Y0175680D02*
X0296727Y0175680D01*
X0295665Y0176678D02*
X0287536Y0176678D01*
X0287536Y0177677D02*
X0294702Y0177677D01*
X0293740Y0178675D02*
X0287536Y0178675D01*
X0287536Y0179674D02*
X0292778Y0179674D01*
X0291815Y0180672D02*
X0287536Y0180672D01*
X0287536Y0181671D02*
X0290853Y0181671D01*
X0289891Y0182669D02*
X0287536Y0182669D01*
X0287536Y0183668D02*
X0288928Y0183668D01*
X0287966Y0184666D02*
X0287536Y0184666D01*
X0271906Y0181130D02*
X0271906Y0180104D01*
X0269538Y0182472D01*
X0268174Y0182472D01*
X0268174Y0178472D01*
X0267174Y0178472D01*
X0267174Y0177472D01*
X0268174Y0177472D01*
X0268174Y0173472D01*
X0269538Y0173472D01*
X0271906Y0175841D01*
X0271906Y0170104D01*
X0269538Y0172472D01*
X0268174Y0172472D01*
X0268174Y0168472D01*
X0267174Y0168472D01*
X0267174Y0167472D01*
X0263174Y0167472D01*
X0263174Y0166108D01*
X0265286Y0163996D01*
X0260344Y0163996D01*
X0262374Y0166026D01*
X0262374Y0169919D01*
X0259621Y0172672D01*
X0255727Y0172672D01*
X0252974Y0169919D01*
X0252974Y0166026D01*
X0255003Y0163996D01*
X0250344Y0163996D01*
X0252374Y0166026D01*
X0252374Y0169919D01*
X0249621Y0172672D01*
X0245727Y0172672D01*
X0244730Y0171676D01*
X0244129Y0172277D01*
X0241377Y0175029D01*
X0242374Y0176026D01*
X0242374Y0179919D01*
X0239621Y0182672D01*
X0235727Y0182672D01*
X0234977Y0181922D01*
X0234977Y0182072D01*
X0234596Y0182991D01*
X0233415Y0184172D01*
X0233198Y0184390D01*
X0255961Y0184390D01*
X0255961Y0182672D01*
X0255727Y0182672D01*
X0252974Y0179919D01*
X0252974Y0176026D01*
X0255727Y0173272D01*
X0259621Y0173272D01*
X0262374Y0176026D01*
X0262374Y0179919D01*
X0260961Y0181332D01*
X0260961Y0184390D01*
X0268646Y0184390D01*
X0271906Y0181130D01*
X0271906Y0180672D02*
X0271338Y0180672D01*
X0271365Y0181671D02*
X0270339Y0181671D01*
X0270367Y0182669D02*
X0260961Y0182669D01*
X0260961Y0181671D02*
X0265008Y0181671D01*
X0265810Y0182472D02*
X0263174Y0179836D01*
X0263174Y0178472D01*
X0267174Y0178472D01*
X0267174Y0182472D01*
X0265810Y0182472D01*
X0267174Y0181671D02*
X0268174Y0181671D01*
X0268174Y0180672D02*
X0267174Y0180672D01*
X0267174Y0179674D02*
X0268174Y0179674D01*
X0268174Y0178675D02*
X0267174Y0178675D01*
X0267174Y0177677D02*
X0262374Y0177677D01*
X0263174Y0177472D02*
X0263174Y0176108D01*
X0265810Y0173472D01*
X0267174Y0173472D01*
X0267174Y0177472D01*
X0263174Y0177472D01*
X0263174Y0176678D02*
X0262374Y0176678D01*
X0262028Y0175680D02*
X0263603Y0175680D01*
X0264601Y0174681D02*
X0261029Y0174681D01*
X0260031Y0173683D02*
X0265600Y0173683D01*
X0265810Y0172472D02*
X0263174Y0169836D01*
X0263174Y0168472D01*
X0267174Y0168472D01*
X0267174Y0172472D01*
X0265810Y0172472D01*
X0265023Y0171686D02*
X0260607Y0171686D01*
X0261606Y0170687D02*
X0264025Y0170687D01*
X0263174Y0169689D02*
X0262374Y0169689D01*
X0262374Y0168690D02*
X0263174Y0168690D01*
X0262374Y0167692D02*
X0267174Y0167692D01*
X0267174Y0168690D02*
X0268174Y0168690D01*
X0268174Y0169689D02*
X0267174Y0169689D01*
X0267174Y0170687D02*
X0268174Y0170687D01*
X0268174Y0171686D02*
X0267174Y0171686D01*
X0267174Y0173683D02*
X0268174Y0173683D01*
X0268174Y0174681D02*
X0267174Y0174681D01*
X0267174Y0175680D02*
X0268174Y0175680D01*
X0268174Y0176678D02*
X0267174Y0176678D01*
X0269748Y0173683D02*
X0271906Y0173683D01*
X0271906Y0174681D02*
X0270747Y0174681D01*
X0271745Y0175680D02*
X0271906Y0175680D01*
X0271906Y0172684D02*
X0243722Y0172684D01*
X0244129Y0172277D02*
X0244129Y0172277D01*
X0244721Y0171686D02*
X0244740Y0171686D01*
X0245727Y0173272D02*
X0249621Y0173272D01*
X0252374Y0176026D01*
X0252374Y0179919D01*
X0249621Y0182672D01*
X0245727Y0182672D01*
X0242974Y0179919D01*
X0242974Y0176026D01*
X0245727Y0173272D01*
X0245317Y0173683D02*
X0242724Y0173683D01*
X0241725Y0174681D02*
X0244318Y0174681D01*
X0243320Y0175680D02*
X0242028Y0175680D01*
X0242374Y0176678D02*
X0242974Y0176678D01*
X0242974Y0177677D02*
X0242374Y0177677D01*
X0242374Y0178675D02*
X0242974Y0178675D01*
X0242974Y0179674D02*
X0242374Y0179674D01*
X0241621Y0180672D02*
X0243727Y0180672D01*
X0244725Y0181671D02*
X0240622Y0181671D01*
X0239624Y0182669D02*
X0245724Y0182669D01*
X0249624Y0182669D02*
X0255724Y0182669D01*
X0255961Y0183668D02*
X0233920Y0183668D01*
X0234730Y0182669D02*
X0235724Y0182669D01*
X0250622Y0181671D02*
X0254725Y0181671D01*
X0253727Y0180672D02*
X0251621Y0180672D01*
X0252374Y0179674D02*
X0252974Y0179674D01*
X0252974Y0178675D02*
X0252374Y0178675D01*
X0252374Y0177677D02*
X0252974Y0177677D01*
X0252974Y0176678D02*
X0252374Y0176678D01*
X0252028Y0175680D02*
X0253320Y0175680D01*
X0254318Y0174681D02*
X0251029Y0174681D01*
X0250031Y0173683D02*
X0255317Y0173683D01*
X0254740Y0171686D02*
X0250607Y0171686D01*
X0251606Y0170687D02*
X0253742Y0170687D01*
X0252974Y0169689D02*
X0252374Y0169689D01*
X0252374Y0168690D02*
X0252974Y0168690D01*
X0252974Y0167692D02*
X0252374Y0167692D01*
X0252374Y0166693D02*
X0252974Y0166693D01*
X0253305Y0165695D02*
X0252043Y0165695D01*
X0251044Y0164696D02*
X0254303Y0164696D01*
X0261044Y0164696D02*
X0264586Y0164696D01*
X0263588Y0165695D02*
X0262043Y0165695D01*
X0262374Y0166693D02*
X0263174Y0166693D01*
X0270325Y0171686D02*
X0271906Y0171686D01*
X0271906Y0170687D02*
X0271323Y0170687D01*
X0263174Y0178675D02*
X0262374Y0178675D01*
X0262374Y0179674D02*
X0263174Y0179674D01*
X0264010Y0180672D02*
X0261621Y0180672D01*
X0260961Y0183668D02*
X0269368Y0183668D01*
X0242648Y0202401D02*
X0241780Y0202401D01*
X0240421Y0201837D01*
X0239784Y0201201D01*
X0221702Y0201201D01*
X0216079Y0206823D01*
X0216079Y0212082D01*
X0217526Y0209576D01*
X0219798Y0207305D01*
X0222580Y0205698D01*
X0225683Y0204867D01*
X0228895Y0204867D01*
X0231998Y0205698D01*
X0234780Y0207305D01*
X0237051Y0209576D01*
X0238657Y0212358D01*
X0239489Y0215461D01*
X0239489Y0218673D01*
X0239348Y0219200D01*
X0240904Y0217644D01*
X0241114Y0217398D01*
X0241231Y0217207D01*
X0241317Y0217000D01*
X0241369Y0216782D01*
X0241394Y0216460D01*
X0241394Y0206427D01*
X0241361Y0206321D01*
X0241394Y0205933D01*
X0241394Y0205543D01*
X0241437Y0205440D01*
X0241439Y0205414D01*
X0241411Y0205164D01*
X0241481Y0204923D01*
X0241503Y0204673D01*
X0241619Y0204450D01*
X0241665Y0204290D01*
X0241687Y0204040D01*
X0241802Y0203817D01*
X0241872Y0203576D01*
X0242029Y0203380D01*
X0242106Y0203232D01*
X0242176Y0202991D01*
X0242333Y0202795D01*
X0242449Y0202572D01*
X0242641Y0202410D01*
X0242648Y0202401D01*
X0242413Y0202640D02*
X0220263Y0202640D01*
X0219264Y0203638D02*
X0241854Y0203638D01*
X0241522Y0204637D02*
X0218266Y0204637D01*
X0217267Y0205635D02*
X0222816Y0205635D01*
X0220960Y0206634D02*
X0216269Y0206634D01*
X0216079Y0207632D02*
X0219470Y0207632D01*
X0218472Y0208631D02*
X0216079Y0208631D01*
X0216079Y0209629D02*
X0217496Y0209629D01*
X0216919Y0210628D02*
X0216079Y0210628D01*
X0216079Y0211626D02*
X0216343Y0211626D01*
X0215864Y0221567D02*
X0215699Y0221967D01*
X0214996Y0222671D01*
X0214996Y0222671D01*
X0199641Y0238025D01*
X0198722Y0238405D01*
X0175287Y0238405D01*
X0174368Y0238025D01*
X0173665Y0237322D01*
X0166100Y0229757D01*
X0165397Y0229054D01*
X0165016Y0228135D01*
X0165016Y0225203D01*
X0163653Y0226567D01*
X0162289Y0226567D01*
X0162289Y0222567D01*
X0161289Y0222567D01*
X0161289Y0226567D01*
X0159925Y0226567D01*
X0157289Y0223931D01*
X0157289Y0222567D01*
X0161289Y0222567D01*
X0161289Y0221567D01*
X0162289Y0221567D01*
X0162289Y0217567D01*
X0163653Y0217567D01*
X0165016Y0218931D01*
X0165016Y0216541D01*
X0162489Y0214014D01*
X0162489Y0210120D01*
X0165242Y0207367D01*
X0169136Y0207367D01*
X0170310Y0208542D01*
X0170469Y0208157D01*
X0174846Y0203781D01*
X0174846Y0203781D01*
X0175549Y0203077D01*
X0175836Y0202959D01*
X0131059Y0202745D01*
X0127689Y0204141D01*
X0123880Y0204141D01*
X0120386Y0202694D01*
X0118770Y0202686D01*
X0118770Y0209847D01*
X0118926Y0209576D01*
X0121198Y0207305D01*
X0123980Y0205698D01*
X0127083Y0204867D01*
X0130295Y0204867D01*
X0133398Y0205698D01*
X0136180Y0207305D01*
X0138451Y0209576D01*
X0140057Y0212358D01*
X0140889Y0215461D01*
X0140889Y0218673D01*
X0140057Y0221776D01*
X0138451Y0224558D01*
X0136180Y0226829D01*
X0133398Y0228436D01*
X0130295Y0229267D01*
X0127083Y0229267D01*
X0123980Y0228436D01*
X0121198Y0226829D01*
X0118926Y0224558D01*
X0118770Y0224287D01*
X0118770Y0244869D01*
X0229583Y0244869D01*
X0229583Y0232027D01*
X0229552Y0231930D01*
X0229583Y0231533D01*
X0229583Y0231133D01*
X0229609Y0231070D01*
X0229585Y0230915D01*
X0229655Y0230623D01*
X0229679Y0230323D01*
X0229770Y0230144D01*
X0229776Y0230118D01*
X0229776Y0229917D01*
X0229891Y0229639D01*
X0229961Y0229347D01*
X0230080Y0229184D01*
X0230090Y0229160D01*
X0230121Y0228961D01*
X0230138Y0228934D01*
X0228895Y0229267D01*
X0225683Y0229267D01*
X0222580Y0228436D01*
X0219798Y0226829D01*
X0217526Y0224558D01*
X0215920Y0221776D01*
X0215864Y0221567D01*
X0215876Y0221611D02*
X0215846Y0221611D01*
X0216402Y0222610D02*
X0215056Y0222610D01*
X0214058Y0223608D02*
X0216978Y0223608D01*
X0217575Y0224607D02*
X0213059Y0224607D01*
X0212061Y0225605D02*
X0218574Y0225605D01*
X0219572Y0226604D02*
X0211062Y0226604D01*
X0210064Y0227602D02*
X0221137Y0227602D01*
X0223197Y0228601D02*
X0209065Y0228601D01*
X0208067Y0229599D02*
X0229901Y0229599D01*
X0229657Y0230598D02*
X0207068Y0230598D01*
X0206070Y0231596D02*
X0229578Y0231596D01*
X0229583Y0232595D02*
X0205071Y0232595D01*
X0204073Y0233593D02*
X0229583Y0233593D01*
X0229583Y0234592D02*
X0203074Y0234592D01*
X0202076Y0235590D02*
X0229583Y0235590D01*
X0229583Y0236589D02*
X0201077Y0236589D01*
X0200079Y0237587D02*
X0229583Y0237587D01*
X0229583Y0238586D02*
X0118770Y0238586D01*
X0118770Y0239584D02*
X0229583Y0239584D01*
X0229583Y0240583D02*
X0118770Y0240583D01*
X0118770Y0241581D02*
X0229583Y0241581D01*
X0229583Y0242580D02*
X0118770Y0242580D01*
X0118770Y0243578D02*
X0229583Y0243578D01*
X0229583Y0244577D02*
X0118770Y0244577D01*
X0118770Y0237587D02*
X0173930Y0237587D01*
X0173665Y0237322D02*
X0173665Y0237322D01*
X0172932Y0236589D02*
X0118770Y0236589D01*
X0118770Y0235590D02*
X0171933Y0235590D01*
X0170935Y0234592D02*
X0118770Y0234592D01*
X0118770Y0233593D02*
X0169936Y0233593D01*
X0168938Y0232595D02*
X0118770Y0232595D01*
X0118770Y0231596D02*
X0167939Y0231596D01*
X0166941Y0230598D02*
X0118770Y0230598D01*
X0118770Y0229599D02*
X0165942Y0229599D01*
X0166100Y0229757D02*
X0166100Y0229757D01*
X0165209Y0228601D02*
X0132781Y0228601D01*
X0134841Y0227602D02*
X0165016Y0227602D01*
X0165016Y0226604D02*
X0136405Y0226604D01*
X0137404Y0225605D02*
X0158963Y0225605D01*
X0157965Y0224607D02*
X0138402Y0224607D01*
X0139000Y0223608D02*
X0157289Y0223608D01*
X0157289Y0222610D02*
X0139576Y0222610D01*
X0140102Y0221611D02*
X0161289Y0221611D01*
X0161289Y0221567D02*
X0157289Y0221567D01*
X0157289Y0220203D01*
X0159925Y0217567D01*
X0161289Y0217567D01*
X0161289Y0221567D01*
X0161289Y0220613D02*
X0162289Y0220613D01*
X0162289Y0219614D02*
X0161289Y0219614D01*
X0161289Y0218616D02*
X0162289Y0218616D01*
X0162289Y0217617D02*
X0161289Y0217617D01*
X0159875Y0217617D02*
X0140889Y0217617D01*
X0140889Y0216619D02*
X0154294Y0216619D01*
X0154442Y0216767D02*
X0151689Y0214014D01*
X0151689Y0210120D01*
X0154442Y0207367D01*
X0158336Y0207367D01*
X0161089Y0210120D01*
X0161089Y0214014D01*
X0158336Y0216767D01*
X0154442Y0216767D01*
X0153295Y0215620D02*
X0140889Y0215620D01*
X0140664Y0214622D02*
X0152297Y0214622D01*
X0151689Y0213623D02*
X0140396Y0213623D01*
X0140129Y0212625D02*
X0151689Y0212625D01*
X0151689Y0211626D02*
X0139635Y0211626D01*
X0139058Y0210628D02*
X0151689Y0210628D01*
X0152180Y0209629D02*
X0138482Y0209629D01*
X0137506Y0208631D02*
X0153178Y0208631D01*
X0154177Y0207632D02*
X0136507Y0207632D01*
X0135018Y0206634D02*
X0171993Y0206634D01*
X0170994Y0207632D02*
X0169401Y0207632D01*
X0172991Y0205635D02*
X0133162Y0205635D01*
X0128903Y0203638D02*
X0174989Y0203638D01*
X0173990Y0204637D02*
X0118770Y0204637D01*
X0118770Y0205635D02*
X0124216Y0205635D01*
X0122360Y0206634D02*
X0118770Y0206634D01*
X0118770Y0207632D02*
X0120870Y0207632D01*
X0119872Y0208631D02*
X0118770Y0208631D01*
X0118770Y0209629D02*
X0118896Y0209629D01*
X0118770Y0203638D02*
X0122666Y0203638D01*
X0140889Y0218616D02*
X0158876Y0218616D01*
X0157878Y0219614D02*
X0140637Y0219614D01*
X0140369Y0220613D02*
X0157289Y0220613D01*
X0158484Y0216619D02*
X0165016Y0216619D01*
X0165016Y0217617D02*
X0163703Y0217617D01*
X0164702Y0218616D02*
X0165016Y0218616D01*
X0164095Y0215620D02*
X0159482Y0215620D01*
X0160481Y0214622D02*
X0163097Y0214622D01*
X0162489Y0213623D02*
X0161089Y0213623D01*
X0161089Y0212625D02*
X0162489Y0212625D01*
X0162489Y0211626D02*
X0161089Y0211626D01*
X0161089Y0210628D02*
X0162489Y0210628D01*
X0162980Y0209629D02*
X0160598Y0209629D01*
X0159599Y0208631D02*
X0163978Y0208631D01*
X0164977Y0207632D02*
X0158601Y0207632D01*
X0180233Y0202697D02*
X0188922Y0202697D01*
X0222974Y0168645D01*
X0222974Y0166026D01*
X0225727Y0163272D01*
X0229621Y0163272D01*
X0230558Y0164210D01*
X0236921Y0157847D01*
X0236454Y0156720D01*
X0236454Y0155248D01*
X0237017Y0153888D01*
X0238058Y0152848D01*
X0239418Y0152284D01*
X0240890Y0152284D01*
X0242250Y0152848D01*
X0243291Y0153888D01*
X0243854Y0155248D01*
X0243854Y0156240D01*
X0262938Y0156240D01*
X0263835Y0155342D01*
X0263835Y0149778D01*
X0264216Y0148859D01*
X0264604Y0148472D01*
X0264604Y0148214D01*
X0264477Y0148256D01*
X0264214Y0148394D01*
X0264009Y0148412D01*
X0263965Y0148426D01*
X0263791Y0148534D01*
X0263498Y0148582D01*
X0263217Y0148675D01*
X0263012Y0148661D01*
X0262997Y0148663D01*
X0262838Y0148734D01*
X0262511Y0148742D01*
X0262187Y0148795D01*
X0262018Y0148755D01*
X0236155Y0149416D01*
X0236125Y0149429D01*
X0235659Y0149429D01*
X0235193Y0149441D01*
X0235163Y0149429D01*
X0233081Y0149430D01*
X0230851Y0150132D01*
X0228483Y0151172D01*
X0226243Y0152462D01*
X0224156Y0153988D01*
X0222247Y0155733D01*
X0220539Y0157674D01*
X0219051Y0159789D01*
X0217964Y0161761D01*
X0217677Y0163923D01*
X0217683Y0163970D01*
X0217762Y0164186D01*
X0217750Y0164458D01*
X0217788Y0164727D01*
X0217729Y0164950D01*
X0217724Y0165068D01*
X0217763Y0165294D01*
X0217703Y0165560D01*
X0217691Y0165831D01*
X0217594Y0166040D01*
X0217568Y0166155D01*
X0217566Y0166385D01*
X0217459Y0166635D01*
X0217399Y0166901D01*
X0217267Y0167088D01*
X0217220Y0167197D01*
X0217177Y0167423D01*
X0217028Y0167650D01*
X0216921Y0167900D01*
X0216757Y0168061D01*
X0216660Y0168208D01*
X0216545Y0168471D01*
X0216390Y0168619D01*
X0216272Y0168799D01*
X0216034Y0168960D01*
X0182458Y0201110D01*
X0182438Y0201152D01*
X0182100Y0201453D01*
X0181894Y0201650D01*
X0181796Y0201787D01*
X0181553Y0201940D01*
X0181339Y0202130D01*
X0181178Y0202186D01*
X0181057Y0202307D01*
X0180792Y0202416D01*
X0180549Y0202568D01*
X0180381Y0202596D01*
X0180242Y0202695D01*
X0180233Y0202697D01*
X0180320Y0202640D02*
X0188979Y0202640D01*
X0189978Y0201641D02*
X0181903Y0201641D01*
X0182946Y0200642D02*
X0190976Y0200642D01*
X0191975Y0199644D02*
X0183989Y0199644D01*
X0185032Y0198645D02*
X0192973Y0198645D01*
X0193972Y0197647D02*
X0186074Y0197647D01*
X0187117Y0196648D02*
X0194970Y0196648D01*
X0195969Y0195650D02*
X0188160Y0195650D01*
X0189203Y0194651D02*
X0196967Y0194651D01*
X0197966Y0193653D02*
X0190246Y0193653D01*
X0191288Y0192654D02*
X0198964Y0192654D01*
X0199963Y0191656D02*
X0192331Y0191656D01*
X0193374Y0190657D02*
X0200961Y0190657D01*
X0201960Y0189659D02*
X0194417Y0189659D01*
X0195460Y0188660D02*
X0202958Y0188660D01*
X0203957Y0187662D02*
X0196502Y0187662D01*
X0197545Y0186663D02*
X0204955Y0186663D01*
X0205954Y0185665D02*
X0198588Y0185665D01*
X0199631Y0184666D02*
X0206952Y0184666D01*
X0207951Y0183668D02*
X0200674Y0183668D01*
X0201716Y0182669D02*
X0208949Y0182669D01*
X0209948Y0181671D02*
X0202759Y0181671D01*
X0203802Y0180672D02*
X0210946Y0180672D01*
X0211945Y0179674D02*
X0204845Y0179674D01*
X0205888Y0178675D02*
X0212943Y0178675D01*
X0213942Y0177677D02*
X0206930Y0177677D01*
X0207973Y0176678D02*
X0214940Y0176678D01*
X0215939Y0175680D02*
X0209016Y0175680D01*
X0210059Y0174681D02*
X0216937Y0174681D01*
X0217936Y0173683D02*
X0211102Y0173683D01*
X0212145Y0172684D02*
X0218934Y0172684D01*
X0219933Y0171686D02*
X0213187Y0171686D01*
X0214230Y0170687D02*
X0220932Y0170687D01*
X0221930Y0169689D02*
X0215273Y0169689D01*
X0216343Y0168690D02*
X0222929Y0168690D01*
X0222974Y0167692D02*
X0217010Y0167692D01*
X0217446Y0166693D02*
X0222974Y0166693D01*
X0223305Y0165695D02*
X0217697Y0165695D01*
X0217783Y0164696D02*
X0224303Y0164696D01*
X0225302Y0163698D02*
X0217707Y0163698D01*
X0217840Y0162699D02*
X0232069Y0162699D01*
X0231071Y0163698D02*
X0230046Y0163698D01*
X0233068Y0161701D02*
X0217997Y0161701D01*
X0218548Y0160702D02*
X0234066Y0160702D01*
X0235065Y0159704D02*
X0219112Y0159704D01*
X0219814Y0158705D02*
X0236063Y0158705D01*
X0236863Y0157706D02*
X0220516Y0157706D01*
X0221388Y0156708D02*
X0236454Y0156708D01*
X0236454Y0155709D02*
X0222272Y0155709D01*
X0223365Y0154711D02*
X0236677Y0154711D01*
X0237193Y0153712D02*
X0224533Y0153712D01*
X0225898Y0152714D02*
X0238381Y0152714D01*
X0241928Y0152714D02*
X0263835Y0152714D01*
X0263835Y0153712D02*
X0243115Y0153712D01*
X0243632Y0154711D02*
X0263835Y0154711D01*
X0263468Y0155709D02*
X0243854Y0155709D01*
X0232166Y0149718D02*
X0263860Y0149718D01*
X0263835Y0150717D02*
X0229519Y0150717D01*
X0227539Y0151715D02*
X0263835Y0151715D01*
X0264355Y0148720D02*
X0262870Y0148720D01*
X0240224Y0201641D02*
X0221261Y0201641D01*
X0231762Y0205635D02*
X0241394Y0205635D01*
X0241394Y0206634D02*
X0233618Y0206634D01*
X0235107Y0207632D02*
X0241394Y0207632D01*
X0241394Y0208631D02*
X0236106Y0208631D01*
X0237082Y0209629D02*
X0241394Y0209629D01*
X0241394Y0210628D02*
X0237658Y0210628D01*
X0238235Y0211626D02*
X0241394Y0211626D01*
X0241394Y0212625D02*
X0238729Y0212625D01*
X0238996Y0213623D02*
X0241394Y0213623D01*
X0241394Y0214622D02*
X0239264Y0214622D01*
X0239489Y0215620D02*
X0241394Y0215620D01*
X0241382Y0216619D02*
X0239489Y0216619D01*
X0239489Y0217617D02*
X0240927Y0217617D01*
X0239932Y0218616D02*
X0239489Y0218616D01*
X0165016Y0225605D02*
X0164614Y0225605D01*
X0162289Y0225605D02*
X0161289Y0225605D01*
X0161289Y0224607D02*
X0162289Y0224607D01*
X0162289Y0223608D02*
X0161289Y0223608D01*
X0161289Y0222610D02*
X0162289Y0222610D01*
X0124597Y0228601D02*
X0118770Y0228601D01*
X0118770Y0227602D02*
X0122537Y0227602D01*
X0120972Y0226604D02*
X0118770Y0226604D01*
X0118770Y0225605D02*
X0119974Y0225605D01*
X0118975Y0224607D02*
X0118770Y0224607D01*
M02*
