%
M48
M72
T01C0.02000
T02C0.02362
T03C0.02756
T04C0.03150
T05C0.03543
T06C0.03937
T07C0.04000
T08C0.08661
T09C0.13000
T10C0.15748
%
T01
X46106Y48701
X75634Y48701
X142563Y48701
X168154Y48701
X168154Y60512
X177209Y80591
X197287Y86496
X164217Y97126
X116972Y105394
X170122Y125472
X178390Y130197
X184295Y124291
X189020Y130197
X199453Y152244
X190594Y155984
X162445Y163661
X154768Y167598
X185083Y198504
X174846Y202441
X164807Y206378
X160673Y211693
X197287Y234134
X225634Y222323
X233902Y222323
X275831Y212283
X279965Y223504
X279965Y231772
X326028Y217598
X323665Y210512
X350831Y222323
X347878Y230591
X374453Y227047
X379177Y230591
X388626Y230591
X402799Y230591
X399256Y222323
X386264Y218780
X375634Y219961
X380358Y214055
X373272Y211693
X415791Y227047
X424059Y221142
X373272Y175079
X376815Y167992
X375634Y151457
X326028Y173898
X323665Y178622
X304768Y159724
X301224Y153819
X276421Y175079
X227996Y178622
X218547Y173898
X227996Y170354
X244531Y130197
X248075Y124291
X253980Y130197
X266972Y130197
X284689Y130197
X290594Y101850
X278783Y87677
X290594Y72323
X249256Y81772
X77602Y172717
X63823Y172717
X44138Y158937
X44138Y133346
X44138Y109724
X44138Y84134
X61461Y214055
X72091Y214055
X43744Y237677
X43744Y249488
X57917Y249488
X75634Y249488
X106343Y249488
X132327Y249488
X147681Y249488
X438232Y145551
X544531Y105394
X543350Y66417
X529177Y47520
X544531Y204606
X543350Y231772
X525634Y249488
T02
X375634Y158543
X350831Y163268
X287642Y163071
X287642Y157756
X287642Y152441
X287642Y168386
X260673Y119370
X253390Y108543
X242760Y108937
X242169Y114252
X267563Y104213
X345516Y116614
X429965Y133740
X432327Y128425
X187839Y114252
X178390Y109528
X170122Y108937
X149453Y97126
X128193Y92402
X132917Y109528
T03
X333035Y101102
X333035Y91102
X333035Y81102
X333035Y71102
T04
X218232Y54370
X208232Y54370
X183232Y244370
X173232Y244370
T05
X72327Y158031
X62484Y158031
X62484Y149764
X72327Y148189
X72327Y139528
X72327Y131260
X62484Y131260
X62484Y139528
T06
X228232Y54370
X238232Y54370
X248232Y54370
X258232Y54370
X268232Y54370
X278232Y54370
X298232Y54370
X308232Y54370
X318232Y54370
X328232Y54370
X338232Y54370
X348232Y54370
X358232Y54370
X368232Y54370
X388232Y54370
X398232Y54370
X408232Y54370
X418232Y54370
X428232Y54370
X438232Y54370
X448232Y54370
X458232Y54370
X468232Y74370
X478232Y74370
X478232Y84370
X468232Y84370
X468232Y94370
X478232Y94370
X478232Y104370
X468232Y104370
X468232Y114370
X478232Y114370
X478232Y124370
X468232Y124370
X468232Y134370
X478232Y134370
X478232Y144370
X468232Y144370
X468232Y154370
X478232Y154370
X478232Y164370
X468232Y164370
X468232Y174370
X478232Y174370
X478232Y184370
X468232Y184370
X468232Y194370
X478232Y194370
X478232Y204370
X468232Y204370
X468232Y214370
X478232Y214370
X478232Y224370
X468232Y224370
X468232Y234370
X478232Y234370
X478232Y244370
X468232Y244370
X438232Y244370
X428232Y244370
X418232Y244370
X408232Y244370
X398232Y244370
X388232Y244370
X378232Y244370
X368232Y244370
X348232Y244370
X338232Y244370
X328232Y244370
X318232Y244370
X308232Y244370
X298232Y244370
X288232Y244370
X278232Y244370
X263232Y244370
X253232Y244370
X243232Y244370
X233232Y244370
X223232Y244370
X213232Y244370
X203232Y244370
X193232Y244370
T07
X121880Y219744
X111080Y219744
X100280Y219744
X89480Y219744
X78680Y219744
X84080Y229744
X94880Y229744
X105680Y229744
X116480Y229744
X149965Y185650
X159965Y185650
X169965Y185650
X179965Y185650
X189965Y185650
X189965Y175650
X179965Y175650
X169965Y175650
X159965Y175650
X149965Y175650
X107957Y149646
X107957Y139646
X107957Y129646
X110083Y79055
X120883Y79055
X131683Y79055
X126283Y69055
X115483Y69055
X104683Y69055
X93883Y69055
X99283Y79055
X88483Y79055
X388626Y148543
X388626Y158543
X388626Y168543
X438862Y121102
X448862Y121102
X493154Y114173
X493154Y104173
X493154Y94173
X493154Y84173
X493154Y74173
X497563Y55000
X487563Y55000
X448862Y76102
X438862Y76102
X514610Y132967
X524610Y138367
X514610Y143767
X524610Y149167
X514610Y154567
X524610Y159967
X514610Y165367
X524610Y170767
X514610Y176167
T08
X50673Y171220
X47524Y144646
X50673Y118071
T09
X60783Y74055
X159383Y74055
X149580Y224744
X50980Y224744
X519610Y203867
X519610Y105267
T10
X540201Y52638
X540201Y245551
X48075Y202244
X48075Y97913
M30
