G75*
%MOIN*%
%OFA0B0*%
%FSLAX25Y25*%
%IPPOS*%
%LPD*%
%AMOC8*
5,1,8,0,0,1.08239X$1,22.5*
%
%ADD10C,0.16732*%
%ADD11C,0.06921*%
%ADD12C,0.06921*%
%ADD13C,0.06584*%
%ADD14C,0.05740*%
%ADD15C,0.06984*%
%ADD16OC8,0.06984*%
%ADD17C,0.17984*%
%ADD18C,0.13646*%
%ADD19C,0.06528*%
%ADD20C,0.05346*%
%ADD21C,0.04984*%
D10*
X0048075Y0097913D03*
X0048075Y0202244D03*
X0540201Y0245551D03*
X0540201Y0052638D03*
D11*
X0458232Y0051402D02*
X0458232Y0057339D01*
X0448232Y0057339D02*
X0448232Y0051402D01*
X0438232Y0051402D02*
X0438232Y0057339D01*
X0428232Y0057339D02*
X0428232Y0051402D01*
X0418232Y0051402D02*
X0418232Y0057339D01*
X0408232Y0057339D02*
X0408232Y0051402D01*
X0398232Y0051402D02*
X0398232Y0057339D01*
X0388232Y0057339D02*
X0388232Y0051402D01*
X0368232Y0051402D02*
X0368232Y0057339D01*
X0358232Y0057339D02*
X0358232Y0051402D01*
X0348232Y0051402D02*
X0348232Y0057339D01*
X0338232Y0057339D02*
X0338232Y0051402D01*
X0328232Y0051402D02*
X0328232Y0057339D01*
X0318232Y0057339D02*
X0318232Y0051402D01*
X0308232Y0051402D02*
X0308232Y0057339D01*
X0298232Y0057339D02*
X0298232Y0051402D01*
X0278232Y0051402D02*
X0278232Y0057339D01*
X0268232Y0057339D02*
X0268232Y0051402D01*
X0258232Y0051402D02*
X0258232Y0057339D01*
X0248232Y0057339D02*
X0248232Y0051402D01*
X0238232Y0051402D02*
X0238232Y0057339D01*
X0228232Y0057339D02*
X0228232Y0051402D01*
X0223232Y0241402D02*
X0223232Y0247339D01*
X0213232Y0247339D02*
X0213232Y0241402D01*
X0203232Y0241402D02*
X0203232Y0247339D01*
X0193232Y0247339D02*
X0193232Y0241402D01*
X0233232Y0241402D02*
X0233232Y0247339D01*
X0243232Y0247339D02*
X0243232Y0241402D01*
X0253232Y0241402D02*
X0253232Y0247339D01*
X0263232Y0247339D02*
X0263232Y0241402D01*
X0278232Y0241402D02*
X0278232Y0247339D01*
X0288232Y0247339D02*
X0288232Y0241402D01*
X0298232Y0241402D02*
X0298232Y0247339D01*
X0308232Y0247339D02*
X0308232Y0241402D01*
X0318232Y0241402D02*
X0318232Y0247339D01*
X0328232Y0247339D02*
X0328232Y0241402D01*
X0338232Y0241402D02*
X0338232Y0247339D01*
X0348232Y0247339D02*
X0348232Y0241402D01*
X0368232Y0241402D02*
X0368232Y0247339D01*
X0378232Y0247339D02*
X0378232Y0241402D01*
X0388232Y0241402D02*
X0388232Y0247339D01*
X0398232Y0247339D02*
X0398232Y0241402D01*
X0408232Y0241402D02*
X0408232Y0247339D01*
X0418232Y0247339D02*
X0418232Y0241402D01*
X0428232Y0241402D02*
X0428232Y0247339D01*
X0438232Y0247339D02*
X0438232Y0241402D01*
D12*
X0468232Y0244370D03*
X0478232Y0244370D03*
X0478232Y0234370D03*
X0468232Y0234370D03*
X0468232Y0224370D03*
X0478232Y0224370D03*
X0478232Y0214370D03*
X0468232Y0214370D03*
X0468232Y0204370D03*
X0478232Y0204370D03*
X0478232Y0194370D03*
X0468232Y0194370D03*
X0468232Y0184370D03*
X0478232Y0184370D03*
X0478232Y0174370D03*
X0468232Y0174370D03*
X0468232Y0164370D03*
X0478232Y0164370D03*
X0478232Y0154370D03*
X0468232Y0154370D03*
X0468232Y0144370D03*
X0478232Y0144370D03*
X0478232Y0134370D03*
X0468232Y0134370D03*
X0468232Y0124370D03*
X0478232Y0124370D03*
X0478232Y0114370D03*
X0468232Y0114370D03*
X0468232Y0104370D03*
X0478232Y0104370D03*
X0478232Y0094370D03*
X0468232Y0094370D03*
X0468232Y0084370D03*
X0478232Y0084370D03*
X0478232Y0074370D03*
X0468232Y0074370D03*
D13*
X0218232Y0057170D02*
X0218232Y0051570D01*
X0208232Y0051570D02*
X0208232Y0057170D01*
X0183232Y0241570D02*
X0183232Y0247170D01*
X0173232Y0247170D02*
X0173232Y0241570D01*
D14*
X0333035Y0101102D03*
X0333035Y0091102D03*
X0333035Y0081102D03*
X0333035Y0071102D03*
D15*
X0438862Y0073102D02*
X0438862Y0079102D01*
X0448862Y0079102D02*
X0448862Y0073102D01*
X0490154Y0074173D02*
X0496154Y0074173D01*
X0496154Y0084173D02*
X0490154Y0084173D01*
X0490154Y0094173D02*
X0496154Y0094173D01*
X0496154Y0104173D02*
X0490154Y0104173D01*
X0490154Y0114173D02*
X0496154Y0114173D01*
X0448862Y0118102D02*
X0448862Y0124102D01*
X0438862Y0124102D02*
X0438862Y0118102D01*
X0391626Y0148543D02*
X0385626Y0148543D01*
X0385626Y0158543D02*
X0391626Y0158543D01*
X0391626Y0168543D02*
X0385626Y0168543D01*
X0487563Y0058000D02*
X0487563Y0052000D01*
X0497563Y0052000D02*
X0497563Y0058000D01*
X0110957Y0129646D02*
X0104957Y0129646D01*
X0104957Y0139646D02*
X0110957Y0139646D01*
X0110957Y0149646D02*
X0104957Y0149646D01*
D16*
X0149965Y0175650D03*
X0159965Y0175650D03*
X0169965Y0175650D03*
X0179965Y0175650D03*
X0189965Y0175650D03*
X0189965Y0185650D03*
X0179965Y0185650D03*
X0169965Y0185650D03*
X0159965Y0185650D03*
X0149965Y0185650D03*
X0121880Y0219744D03*
X0111080Y0219744D03*
X0100280Y0219744D03*
X0089480Y0219744D03*
X0078680Y0219744D03*
X0084080Y0229744D03*
X0094880Y0229744D03*
X0105680Y0229744D03*
X0116480Y0229744D03*
X0120883Y0079055D03*
X0110083Y0079055D03*
X0099283Y0079055D03*
X0088483Y0079055D03*
X0093883Y0069055D03*
X0104683Y0069055D03*
X0115483Y0069055D03*
X0126283Y0069055D03*
X0131683Y0079055D03*
X0514610Y0132967D03*
X0524610Y0138367D03*
X0514610Y0143767D03*
X0524610Y0149167D03*
X0514610Y0154567D03*
X0524610Y0159967D03*
X0514610Y0165367D03*
X0524610Y0170767D03*
X0514610Y0176167D03*
D17*
X0519610Y0203867D03*
X0519610Y0105267D03*
X0159383Y0074055D03*
X0060783Y0074055D03*
X0050980Y0224744D03*
X0149580Y0224744D03*
D18*
X0050673Y0171220D03*
X0047524Y0144646D03*
X0050673Y0118071D03*
D19*
X0062484Y0131260D03*
X0062484Y0139528D03*
X0072327Y0139528D03*
X0072327Y0131260D03*
X0072327Y0148189D03*
X0062484Y0149764D03*
X0062484Y0158031D03*
X0072327Y0158031D03*
D20*
X0132917Y0109528D03*
X0149453Y0097126D03*
X0128193Y0092402D03*
X0170122Y0108937D03*
X0178390Y0109528D03*
X0187839Y0114252D03*
X0242169Y0114252D03*
X0242760Y0108937D03*
X0253390Y0108543D03*
X0267563Y0104213D03*
X0260673Y0119370D03*
X0287642Y0152441D03*
X0287642Y0157756D03*
X0287642Y0163071D03*
X0287642Y0168386D03*
X0350831Y0163268D03*
X0375634Y0158543D03*
X0429965Y0133740D03*
X0432327Y0128425D03*
X0345516Y0116614D03*
D21*
X0046106Y0048701D03*
X0075634Y0048701D03*
X0142563Y0048701D03*
X0168154Y0048701D03*
X0168154Y0060512D03*
X0177209Y0080591D03*
X0197287Y0086496D03*
X0164217Y0097126D03*
X0116972Y0105394D03*
X0170122Y0125472D03*
X0178390Y0130197D03*
X0184295Y0124291D03*
X0189020Y0130197D03*
X0199453Y0152244D03*
X0190594Y0155984D03*
X0162445Y0163661D03*
X0154768Y0167598D03*
X0185083Y0198504D03*
X0174846Y0202441D03*
X0164807Y0206378D03*
X0160673Y0211693D03*
X0197287Y0234134D03*
X0225634Y0222323D03*
X0233902Y0222323D03*
X0275831Y0212283D03*
X0279965Y0223504D03*
X0279965Y0231772D03*
X0326028Y0217598D03*
X0323665Y0210512D03*
X0350831Y0222323D03*
X0347878Y0230591D03*
X0374453Y0227047D03*
X0379177Y0230591D03*
X0388626Y0230591D03*
X0402799Y0230591D03*
X0399256Y0222323D03*
X0386264Y0218780D03*
X0375634Y0219961D03*
X0380358Y0214055D03*
X0373272Y0211693D03*
X0415791Y0227047D03*
X0424059Y0221142D03*
X0373272Y0175079D03*
X0376815Y0167992D03*
X0375634Y0151457D03*
X0326028Y0173898D03*
X0323665Y0178622D03*
X0304768Y0159724D03*
X0301224Y0153819D03*
X0276421Y0175079D03*
X0227996Y0178622D03*
X0218547Y0173898D03*
X0227996Y0170354D03*
X0244531Y0130197D03*
X0248075Y0124291D03*
X0253980Y0130197D03*
X0266972Y0130197D03*
X0284689Y0130197D03*
X0290594Y0101850D03*
X0278783Y0087677D03*
X0290594Y0072323D03*
X0249256Y0081772D03*
X0077602Y0172717D03*
X0063823Y0172717D03*
X0044138Y0158937D03*
X0044138Y0133346D03*
X0044138Y0109724D03*
X0044138Y0084134D03*
X0061461Y0214055D03*
X0072091Y0214055D03*
X0043744Y0237677D03*
X0043744Y0249488D03*
X0057917Y0249488D03*
X0075634Y0249488D03*
X0106343Y0249488D03*
X0132327Y0249488D03*
X0147681Y0249488D03*
X0438232Y0145551D03*
X0544531Y0105394D03*
X0543350Y0066417D03*
X0529177Y0047520D03*
X0544531Y0204606D03*
X0543350Y0231772D03*
X0525634Y0249488D03*
M02*
