G75*
%MOIN*%
%OFA0B0*%
%FSLAX25Y25*%
%IPPOS*%
%LPD*%
%AMOC8*
5,1,8,0,0,1.08239X$1,22.5*
%
%ADD10R,0.00225X0.00075*%
%ADD11R,0.00150X0.00075*%
%ADD12R,0.00300X0.00075*%
%ADD13R,0.00375X0.00075*%
%ADD14R,0.00450X0.00075*%
%ADD15R,0.00525X0.00075*%
%ADD16R,0.00600X0.00075*%
%ADD17R,0.00675X0.00075*%
%ADD18R,0.00975X0.00075*%
%ADD19R,0.01275X0.00075*%
%ADD20R,0.01425X0.00075*%
%ADD21R,0.01725X0.00075*%
%ADD22R,0.01800X0.00075*%
%ADD23R,0.01875X0.00075*%
%ADD24R,0.02175X0.00075*%
%ADD25R,0.02250X0.00075*%
%ADD26R,0.02400X0.00075*%
%ADD27R,0.02700X0.00075*%
%ADD28R,0.02850X0.00075*%
%ADD29R,0.03150X0.00075*%
%ADD30R,0.03600X0.00075*%
%ADD31R,0.03675X0.00075*%
%ADD32R,0.03750X0.00075*%
%ADD33R,0.03825X0.00075*%
%ADD34R,0.04050X0.00075*%
%ADD35R,0.04125X0.00075*%
%ADD36R,0.04350X0.00075*%
%ADD37R,0.04425X0.00075*%
%ADD38R,0.04725X0.00075*%
%ADD39R,0.05175X0.00075*%
%ADD40R,0.05250X0.00075*%
%ADD41R,0.05325X0.00075*%
%ADD42R,0.05625X0.00075*%
%ADD43R,0.00075X0.00075*%
%ADD44R,0.00825X0.00075*%
%ADD45R,0.05700X0.00075*%
%ADD46R,0.06000X0.00075*%
%ADD47R,0.01125X0.00075*%
%ADD48R,0.06300X0.00075*%
%ADD49R,0.01950X0.00075*%
%ADD50R,0.00750X0.00075*%
%ADD51R,0.02025X0.00075*%
%ADD52R,0.02100X0.00075*%
%ADD53R,0.06225X0.00075*%
%ADD54R,0.06150X0.00075*%
%ADD55R,0.06075X0.00075*%
%ADD56R,0.03075X0.00075*%
%ADD57R,0.05925X0.00075*%
%ADD58R,0.05850X0.00075*%
%ADD59R,0.03000X0.00075*%
%ADD60R,0.05775X0.00075*%
%ADD61R,0.02475X0.00075*%
%ADD62R,0.05550X0.00075*%
%ADD63R,0.05475X0.00075*%
%ADD64R,0.05400X0.00075*%
%ADD65R,0.01200X0.00075*%
%ADD66R,0.05100X0.00075*%
%ADD67R,0.05025X0.00075*%
%ADD68R,0.01350X0.00075*%
%ADD69R,0.01050X0.00075*%
%ADD70R,0.04875X0.00075*%
%ADD71R,0.01500X0.00075*%
%ADD72R,0.01575X0.00075*%
%ADD73R,0.01650X0.00075*%
%ADD74R,0.02325X0.00075*%
%ADD75R,0.04575X0.00075*%
%ADD76R,0.02925X0.00075*%
%ADD77R,0.02550X0.00075*%
%ADD78R,0.02775X0.00075*%
%ADD79R,0.04500X0.00075*%
%ADD80R,0.04650X0.00075*%
%ADD81R,0.04800X0.00075*%
%ADD82R,0.04275X0.00075*%
%ADD83R,0.04200X0.00075*%
%ADD84R,0.03975X0.00075*%
%ADD85R,0.03900X0.00075*%
%ADD86R,0.00900X0.00075*%
%ADD87R,0.03525X0.00075*%
%ADD88R,0.02625X0.00075*%
%ADD89R,0.03225X0.00075*%
%ADD90R,0.06375X0.00075*%
%ADD91R,0.06450X0.00075*%
%ADD92R,0.03375X0.00075*%
%ADD93R,0.03450X0.00075*%
%ADD94R,0.03300X0.00075*%
%ADD95R,0.06900X0.00075*%
%ADD96R,0.06975X0.00075*%
%ADD97R,0.07125X0.00075*%
%ADD98R,0.07050X0.00075*%
%ADD99R,0.08475X0.00075*%
%ADD100R,0.08550X0.00075*%
%ADD101R,0.08625X0.00075*%
%ADD102R,0.08700X0.00075*%
%ADD103R,0.08775X0.00075*%
%ADD104R,0.08850X0.00075*%
%ADD105R,0.09000X0.00075*%
%ADD106R,0.08250X0.00075*%
%ADD107R,0.08175X0.00075*%
%ADD108R,0.08100X0.00075*%
%ADD109R,0.08025X0.00075*%
%ADD110R,0.07875X0.00075*%
%ADD111R,0.07725X0.00075*%
%ADD112R,0.07425X0.00075*%
%ADD113R,0.07275X0.00075*%
%ADD114R,0.06675X0.00075*%
%ADD115R,0.06525X0.00075*%
%ADD116R,0.04950X0.00075*%
%ADD117R,0.06600X0.00075*%
%ADD118R,0.07500X0.00075*%
%ADD119R,0.06750X0.00075*%
%ADD120R,0.07575X0.00075*%
%ADD121R,0.08325X0.00075*%
%ADD122R,0.07350X0.00075*%
%ADD123R,0.18750X0.00075*%
%ADD124C,0.01200*%
%ADD125C,0.05937*%
%ADD126C,0.05937*%
%ADD127C,0.05600*%
%ADD128C,0.04756*%
%ADD129C,0.06000*%
%ADD130OC8,0.06000*%
%ADD131C,0.17000*%
%ADD132C,0.12661*%
%ADD133C,0.05543*%
%ADD134C,0.01600*%
%ADD135C,0.04362*%
%ADD136C,0.04000*%
D10*
X0512606Y0060013D03*
X0514031Y0057613D03*
X0514031Y0057538D03*
X0514181Y0057313D03*
X0514181Y0057238D03*
X0518081Y0058588D03*
X0519131Y0064438D03*
X0520256Y0066388D03*
X0520106Y0066613D03*
X0517331Y0067438D03*
X0515756Y0067813D03*
X0515756Y0067888D03*
X0513881Y0063163D03*
X0513881Y0063088D03*
X0513881Y0063013D03*
X0522956Y0065638D03*
X0522956Y0065713D03*
X0522956Y0065788D03*
X0524606Y0066463D03*
X0521231Y0072913D03*
X0521231Y0072988D03*
X0527756Y0053863D03*
X0527756Y0053788D03*
X0527756Y0053713D03*
X0527756Y0053638D03*
X0527756Y0053413D03*
X0527756Y0053338D03*
D11*
X0527793Y0053488D03*
X0514218Y0057388D03*
X0520293Y0061138D03*
X0520593Y0066313D03*
X0520293Y0066463D03*
X0520518Y0066688D03*
X0514818Y0065638D03*
D12*
X0514818Y0065713D03*
X0514443Y0066463D03*
X0515193Y0063613D03*
X0518943Y0063913D03*
X0520368Y0062338D03*
X0520293Y0061063D03*
X0520818Y0060313D03*
X0521643Y0060463D03*
X0518118Y0058513D03*
X0516918Y0058738D03*
X0512643Y0059938D03*
X0518043Y0066463D03*
X0520143Y0066688D03*
X0520293Y0066313D03*
X0527718Y0053938D03*
D13*
X0527681Y0054013D03*
X0521531Y0058888D03*
X0520856Y0060388D03*
X0521606Y0060538D03*
X0520331Y0060988D03*
X0518981Y0063988D03*
X0519131Y0064363D03*
X0517256Y0063838D03*
X0515231Y0063538D03*
X0513656Y0063538D03*
X0513656Y0063463D03*
X0513506Y0063838D03*
X0513506Y0063913D03*
X0512231Y0063538D03*
X0512231Y0063463D03*
X0512681Y0059863D03*
X0513206Y0058813D03*
X0513656Y0058063D03*
X0513806Y0057763D03*
X0516956Y0058813D03*
X0517631Y0059038D03*
X0517706Y0057388D03*
X0509306Y0059263D03*
X0509306Y0059338D03*
X0522731Y0063613D03*
X0522731Y0063688D03*
X0524606Y0066388D03*
X0518006Y0066388D03*
X0518006Y0066313D03*
X0518006Y0066238D03*
X0517256Y0067513D03*
X0517256Y0067588D03*
X0514406Y0066388D03*
X0518006Y0073063D03*
X0518006Y0073138D03*
D14*
X0517293Y0067663D03*
X0518043Y0066163D03*
X0519093Y0064288D03*
X0518418Y0063913D03*
X0520368Y0062413D03*
X0520368Y0060913D03*
X0519993Y0060163D03*
X0521643Y0060613D03*
X0522243Y0059938D03*
X0522318Y0060013D03*
X0522393Y0060088D03*
X0517743Y0057463D03*
X0513168Y0058888D03*
X0513018Y0059188D03*
X0512868Y0059488D03*
X0512868Y0059563D03*
X0512868Y0059638D03*
X0512718Y0059788D03*
X0514818Y0065788D03*
X0514443Y0066313D03*
X0524568Y0066313D03*
X0527643Y0054088D03*
D15*
X0527606Y0054163D03*
X0521531Y0058963D03*
X0521531Y0059038D03*
X0521531Y0059113D03*
X0522206Y0059863D03*
X0522431Y0060163D03*
X0521681Y0060688D03*
X0520331Y0059863D03*
X0519956Y0060238D03*
X0519056Y0059863D03*
X0519056Y0059788D03*
X0517631Y0059938D03*
X0517631Y0060013D03*
X0516956Y0058888D03*
X0513881Y0057688D03*
X0513731Y0057838D03*
X0513731Y0057913D03*
X0513731Y0057988D03*
X0513581Y0058138D03*
X0513581Y0058213D03*
X0513431Y0058363D03*
X0513431Y0058438D03*
X0513431Y0058513D03*
X0513281Y0058663D03*
X0513056Y0059113D03*
X0512906Y0059413D03*
X0512756Y0059713D03*
X0513581Y0063613D03*
X0513581Y0063688D03*
X0513581Y0063763D03*
X0514481Y0066238D03*
X0517481Y0067063D03*
X0517481Y0067138D03*
X0517331Y0067738D03*
X0518081Y0066088D03*
X0519056Y0064213D03*
X0519056Y0064138D03*
X0518981Y0064063D03*
D16*
X0518418Y0063838D03*
X0518118Y0066013D03*
X0520368Y0066913D03*
X0514818Y0065863D03*
X0514668Y0066013D03*
X0514593Y0066088D03*
X0514518Y0066163D03*
X0520293Y0059788D03*
X0521568Y0059188D03*
X0522168Y0059638D03*
X0522168Y0059713D03*
X0522168Y0059788D03*
X0522468Y0060238D03*
X0516993Y0058963D03*
X0513243Y0058738D03*
X0513093Y0058963D03*
X0513093Y0059038D03*
X0512943Y0059263D03*
X0512943Y0059338D03*
X0527568Y0054238D03*
D17*
X0527531Y0054313D03*
X0521606Y0059263D03*
X0522506Y0060313D03*
X0517706Y0057538D03*
X0517031Y0059038D03*
X0513506Y0058288D03*
X0513356Y0058588D03*
X0512231Y0063613D03*
X0512231Y0063688D03*
X0514781Y0065938D03*
X0515681Y0065938D03*
X0515681Y0065863D03*
X0517406Y0067213D03*
X0517406Y0067288D03*
X0517406Y0067363D03*
X0521606Y0065788D03*
X0521606Y0065713D03*
X0521606Y0065638D03*
X0521606Y0065563D03*
X0521606Y0065488D03*
X0521606Y0065413D03*
X0524606Y0066238D03*
D18*
X0524606Y0065938D03*
X0520331Y0065338D03*
X0516131Y0067963D03*
X0516131Y0068038D03*
X0512231Y0063763D03*
X0509606Y0059488D03*
X0509606Y0059413D03*
X0519131Y0057238D03*
X0519731Y0059413D03*
X0527381Y0054463D03*
X0527381Y0054388D03*
D19*
X0527231Y0054538D03*
X0527231Y0054613D03*
X0517406Y0059263D03*
X0517331Y0059188D03*
X0521906Y0065338D03*
X0515981Y0065788D03*
D20*
X0519656Y0059563D03*
X0527156Y0054763D03*
X0527156Y0054688D03*
X0509831Y0059563D03*
X0509831Y0059638D03*
D21*
X0509981Y0059863D03*
X0516356Y0060163D03*
X0519656Y0059713D03*
X0522056Y0060913D03*
X0527006Y0054913D03*
X0527006Y0054838D03*
X0527006Y0070963D03*
X0527006Y0071113D03*
X0509981Y0071113D03*
X0509981Y0070813D03*
X0509981Y0070738D03*
X0509981Y0070363D03*
X0509981Y0070138D03*
D22*
X0510018Y0070213D03*
X0510018Y0070288D03*
X0510018Y0070438D03*
X0510018Y0070063D03*
X0510018Y0070888D03*
X0510018Y0070963D03*
X0510018Y0071038D03*
X0510018Y0071188D03*
X0517068Y0063913D03*
X0520593Y0063913D03*
X0520593Y0063838D03*
X0516393Y0060238D03*
X0516993Y0059638D03*
X0516993Y0059563D03*
X0516993Y0059488D03*
X0519168Y0057388D03*
X0510018Y0059938D03*
X0526968Y0054988D03*
X0526968Y0070888D03*
X0526968Y0071038D03*
X0526968Y0071188D03*
D23*
X0526931Y0071263D03*
X0526931Y0070813D03*
X0510056Y0070663D03*
X0510056Y0071263D03*
X0510056Y0060013D03*
X0519206Y0057463D03*
X0526931Y0055063D03*
D24*
X0526781Y0055138D03*
X0519356Y0057763D03*
X0522206Y0062338D03*
X0510206Y0060313D03*
X0510206Y0069088D03*
X0526781Y0069088D03*
D25*
X0526743Y0069013D03*
X0526743Y0068938D03*
X0526743Y0068863D03*
X0526743Y0068788D03*
X0526743Y0068713D03*
X0526743Y0065863D03*
X0526743Y0065788D03*
X0526743Y0065713D03*
X0526743Y0065638D03*
X0526743Y0065563D03*
X0522543Y0064588D03*
X0522543Y0064513D03*
X0522393Y0064963D03*
X0522393Y0065038D03*
X0522243Y0062563D03*
X0522243Y0062488D03*
X0522243Y0062413D03*
X0522093Y0062188D03*
X0522093Y0062113D03*
X0522093Y0061138D03*
X0519468Y0060838D03*
X0516918Y0059788D03*
X0516918Y0059713D03*
X0516618Y0060313D03*
X0516618Y0060388D03*
X0510243Y0060388D03*
X0510243Y0060463D03*
X0510243Y0060538D03*
X0510243Y0068038D03*
X0510243Y0068113D03*
X0510243Y0068488D03*
X0510243Y0068563D03*
X0510243Y0069013D03*
X0510243Y0072538D03*
X0510243Y0072613D03*
X0510243Y0072688D03*
X0510243Y0072763D03*
X0510243Y0072838D03*
X0510243Y0072913D03*
X0526743Y0072313D03*
X0526743Y0072238D03*
X0526743Y0072163D03*
X0526743Y0072088D03*
X0526743Y0055288D03*
X0526743Y0055213D03*
D26*
X0526668Y0055363D03*
X0526668Y0055438D03*
X0522018Y0061813D03*
X0522018Y0061888D03*
X0522018Y0061963D03*
X0522018Y0062038D03*
X0522243Y0062638D03*
X0520893Y0063613D03*
X0522468Y0064738D03*
X0522468Y0064813D03*
X0526668Y0065413D03*
X0526668Y0066013D03*
X0526668Y0066088D03*
X0526668Y0066163D03*
X0526668Y0066238D03*
X0526668Y0066313D03*
X0526668Y0068188D03*
X0526668Y0068263D03*
X0526668Y0068338D03*
X0526668Y0068413D03*
X0526668Y0068488D03*
X0526668Y0068563D03*
X0526668Y0072388D03*
X0526668Y0072463D03*
X0526668Y0072538D03*
X0526668Y0072613D03*
X0519543Y0073138D03*
X0510318Y0073063D03*
X0510318Y0068863D03*
X0510318Y0068788D03*
X0510318Y0068713D03*
X0510318Y0068638D03*
X0510318Y0067963D03*
X0510318Y0067888D03*
X0510318Y0063838D03*
X0510318Y0063763D03*
X0510318Y0063688D03*
X0510318Y0060913D03*
X0510318Y0060838D03*
X0510318Y0060763D03*
X0510318Y0060688D03*
X0516618Y0060463D03*
X0516843Y0059863D03*
X0519318Y0060388D03*
X0519018Y0058288D03*
D27*
X0519693Y0060613D03*
X0526518Y0055588D03*
X0526518Y0055513D03*
X0510468Y0061138D03*
X0510468Y0061213D03*
X0510468Y0061288D03*
X0510468Y0061363D03*
X0510468Y0061438D03*
X0510468Y0061513D03*
X0510468Y0061588D03*
X0510468Y0061663D03*
X0510468Y0061738D03*
X0510468Y0061813D03*
X0510468Y0062788D03*
X0510468Y0062863D03*
X0510468Y0062938D03*
X0510468Y0063013D03*
X0510468Y0063088D03*
X0510468Y0063163D03*
X0510468Y0063238D03*
X0510468Y0067738D03*
X0510468Y0067813D03*
X0510468Y0073513D03*
X0526518Y0073363D03*
X0526518Y0073288D03*
X0526518Y0073213D03*
X0526518Y0073138D03*
X0526518Y0073063D03*
X0526518Y0072988D03*
X0526518Y0067813D03*
X0526518Y0067738D03*
X0526518Y0067663D03*
X0526518Y0067588D03*
X0526518Y0067513D03*
X0526518Y0067438D03*
X0526518Y0067363D03*
X0526518Y0067288D03*
X0526518Y0067213D03*
X0526518Y0067138D03*
X0526518Y0067063D03*
X0526518Y0066988D03*
X0526518Y0066913D03*
X0526518Y0066838D03*
X0526518Y0066763D03*
D28*
X0526443Y0064813D03*
X0526443Y0064738D03*
X0526443Y0064663D03*
X0526443Y0073513D03*
X0526443Y0073588D03*
X0526443Y0073663D03*
X0526443Y0073738D03*
X0526443Y0073813D03*
X0510543Y0073663D03*
X0510543Y0067663D03*
X0510543Y0067588D03*
X0510543Y0067513D03*
X0510543Y0067438D03*
X0510543Y0062638D03*
X0510543Y0062563D03*
X0510543Y0062488D03*
X0510543Y0062413D03*
X0510543Y0062338D03*
X0510543Y0062263D03*
X0510543Y0062188D03*
X0510543Y0062113D03*
X0510543Y0062038D03*
X0510543Y0061963D03*
X0510543Y0061888D03*
X0526443Y0055738D03*
X0526443Y0055663D03*
D29*
X0526293Y0055813D03*
X0526293Y0055888D03*
X0518943Y0057838D03*
X0517218Y0064513D03*
X0510693Y0066238D03*
X0510693Y0066613D03*
X0510693Y0066688D03*
X0510693Y0066763D03*
X0510693Y0066838D03*
X0510693Y0066913D03*
X0510693Y0066988D03*
X0510693Y0067063D03*
X0510693Y0067138D03*
X0510693Y0067213D03*
X0510693Y0073963D03*
D30*
X0510918Y0074413D03*
X0526068Y0074563D03*
X0510918Y0064663D03*
X0526068Y0055963D03*
D31*
X0526031Y0056038D03*
X0510956Y0063913D03*
X0510956Y0063988D03*
X0510956Y0064063D03*
X0510956Y0064138D03*
X0510956Y0064213D03*
X0510956Y0064288D03*
X0510956Y0064363D03*
X0510956Y0064438D03*
X0510956Y0064513D03*
X0510956Y0064588D03*
X0517181Y0065488D03*
X0510956Y0074488D03*
X0526031Y0074638D03*
D32*
X0525993Y0074713D03*
X0510993Y0074563D03*
X0516693Y0062938D03*
X0516693Y0062863D03*
X0516693Y0062788D03*
X0516693Y0062713D03*
X0516693Y0062638D03*
X0516693Y0062563D03*
X0525993Y0056113D03*
D33*
X0525956Y0056188D03*
X0521606Y0062713D03*
X0521606Y0062788D03*
X0521456Y0063088D03*
X0521456Y0063163D03*
X0516806Y0063463D03*
X0511031Y0074638D03*
X0511031Y0074713D03*
X0511031Y0074788D03*
X0525956Y0074788D03*
X0525956Y0074863D03*
X0525956Y0074938D03*
D34*
X0511143Y0075163D03*
X0525843Y0063163D03*
X0516843Y0062113D03*
X0525843Y0056263D03*
D35*
X0525806Y0056338D03*
X0525806Y0062713D03*
X0525806Y0062788D03*
X0525806Y0062863D03*
X0525806Y0062938D03*
X0525806Y0063013D03*
X0525806Y0063088D03*
X0525806Y0064513D03*
X0525806Y0064588D03*
X0511181Y0075238D03*
D36*
X0525693Y0075313D03*
X0516993Y0061663D03*
X0525693Y0056413D03*
D37*
X0525656Y0056488D03*
X0525656Y0061063D03*
X0525656Y0061138D03*
X0525656Y0061213D03*
X0525656Y0061288D03*
X0525656Y0061363D03*
X0525656Y0061438D03*
X0525656Y0061513D03*
X0525656Y0061588D03*
X0525656Y0061663D03*
X0525656Y0061738D03*
X0525656Y0061813D03*
X0525656Y0061888D03*
X0517406Y0060988D03*
X0525656Y0075388D03*
D38*
X0525506Y0075538D03*
X0521006Y0067588D03*
X0521006Y0067513D03*
X0517256Y0061288D03*
X0525506Y0060313D03*
X0525506Y0060238D03*
X0525506Y0060163D03*
X0525506Y0060088D03*
X0525506Y0060013D03*
X0525506Y0059938D03*
X0525506Y0059863D03*
X0525506Y0059788D03*
X0525506Y0056638D03*
X0525506Y0056563D03*
X0511481Y0075538D03*
D39*
X0511706Y0075838D03*
X0525281Y0075838D03*
X0525281Y0059038D03*
X0525281Y0058963D03*
X0525281Y0058888D03*
X0525281Y0056788D03*
X0525281Y0056713D03*
D40*
X0525243Y0056863D03*
X0525243Y0058813D03*
X0525243Y0075913D03*
X0511743Y0075913D03*
D41*
X0525206Y0058738D03*
X0525206Y0056938D03*
D42*
X0525056Y0057013D03*
X0525056Y0057088D03*
X0525056Y0058288D03*
X0525056Y0076138D03*
D43*
X0522506Y0075913D03*
X0514481Y0075913D03*
X0520106Y0066538D03*
X0520931Y0060688D03*
X0522056Y0057163D03*
X0517706Y0057313D03*
X0514181Y0057163D03*
D44*
X0517781Y0057688D03*
X0517781Y0057763D03*
X0519131Y0057163D03*
X0522506Y0060613D03*
X0522506Y0060688D03*
X0524681Y0066088D03*
X0518306Y0065938D03*
D45*
X0525018Y0058213D03*
X0525018Y0057163D03*
X0525018Y0076213D03*
D46*
X0512118Y0076363D03*
X0524868Y0057913D03*
X0524868Y0057313D03*
X0524868Y0057238D03*
D47*
X0519131Y0057313D03*
X0520331Y0065038D03*
X0524381Y0064738D03*
X0524531Y0065488D03*
D48*
X0524718Y0064288D03*
X0524718Y0064213D03*
X0524718Y0064138D03*
X0524718Y0057613D03*
X0524718Y0057538D03*
X0524718Y0057463D03*
X0524718Y0057388D03*
D49*
X0522093Y0060988D03*
X0518943Y0058438D03*
X0519243Y0057538D03*
X0517068Y0059413D03*
X0510093Y0060088D03*
X0517068Y0063988D03*
X0522243Y0065113D03*
X0522243Y0065188D03*
X0526893Y0070438D03*
X0526893Y0070513D03*
X0526893Y0070588D03*
X0526893Y0070663D03*
X0526893Y0070738D03*
X0526893Y0071338D03*
X0510093Y0071338D03*
X0510093Y0071413D03*
X0510093Y0071488D03*
X0510093Y0071563D03*
X0510093Y0071638D03*
X0510093Y0071713D03*
X0510093Y0071788D03*
X0510093Y0070588D03*
X0510093Y0070513D03*
X0510093Y0069988D03*
X0510093Y0069913D03*
X0510093Y0069838D03*
X0510093Y0069763D03*
D50*
X0518343Y0065863D03*
X0520368Y0066163D03*
X0520368Y0066238D03*
X0520368Y0066763D03*
X0520368Y0066838D03*
X0524568Y0066163D03*
X0522543Y0060538D03*
X0522543Y0060463D03*
X0522543Y0060388D03*
X0521643Y0059338D03*
X0517743Y0057613D03*
D51*
X0518981Y0058363D03*
X0519281Y0057613D03*
X0522056Y0061063D03*
X0510131Y0060163D03*
X0526856Y0070363D03*
X0526856Y0071413D03*
X0510131Y0071863D03*
D52*
X0510168Y0071938D03*
X0510168Y0072013D03*
X0510168Y0072088D03*
X0510168Y0072163D03*
X0510168Y0072238D03*
X0510168Y0072313D03*
X0510168Y0072388D03*
X0510168Y0072463D03*
X0510168Y0069688D03*
X0510168Y0069613D03*
X0510168Y0069538D03*
X0510168Y0069463D03*
X0510168Y0069388D03*
X0510168Y0069313D03*
X0510168Y0069238D03*
X0510168Y0069163D03*
X0510168Y0068413D03*
X0510168Y0068338D03*
X0510168Y0068263D03*
X0510168Y0068188D03*
X0510168Y0060238D03*
X0519318Y0057688D03*
X0522168Y0062263D03*
X0520743Y0063688D03*
X0520743Y0063763D03*
X0526818Y0069163D03*
X0526818Y0069238D03*
X0526818Y0069313D03*
X0526818Y0069388D03*
X0526818Y0069463D03*
X0526818Y0069538D03*
X0526818Y0069613D03*
X0526818Y0069688D03*
X0526818Y0069763D03*
X0526818Y0069838D03*
X0526818Y0069913D03*
X0526818Y0069988D03*
X0526818Y0070063D03*
X0526818Y0070138D03*
X0526818Y0070213D03*
X0526818Y0070288D03*
X0526818Y0071488D03*
X0526818Y0071563D03*
X0526818Y0071638D03*
X0526818Y0071713D03*
X0526818Y0071788D03*
X0526818Y0071863D03*
X0526818Y0071938D03*
X0526818Y0072013D03*
D53*
X0524756Y0064063D03*
X0524756Y0057688D03*
D54*
X0524793Y0057763D03*
X0524793Y0076438D03*
X0524793Y0076513D03*
D55*
X0524831Y0057838D03*
D56*
X0519056Y0057913D03*
X0519056Y0057988D03*
X0519056Y0058063D03*
X0521081Y0063388D03*
X0521531Y0067438D03*
X0526331Y0074188D03*
X0510656Y0073888D03*
X0510656Y0066538D03*
X0510656Y0066313D03*
D57*
X0512081Y0076288D03*
X0524906Y0057988D03*
D58*
X0524943Y0058063D03*
X0520593Y0067738D03*
X0524943Y0076363D03*
X0512043Y0076213D03*
D59*
X0510618Y0073813D03*
X0510618Y0067363D03*
X0510618Y0067288D03*
X0510618Y0066463D03*
X0510618Y0066388D03*
X0516543Y0060763D03*
X0516543Y0060688D03*
X0519018Y0058138D03*
X0521043Y0063463D03*
X0521568Y0067363D03*
X0526368Y0073963D03*
X0526368Y0074038D03*
X0526368Y0074113D03*
D60*
X0524981Y0076288D03*
X0512006Y0076138D03*
X0520631Y0067663D03*
X0524981Y0058138D03*
D61*
X0519056Y0058213D03*
X0520931Y0063538D03*
X0526631Y0066388D03*
X0519506Y0073063D03*
D62*
X0525093Y0076063D03*
X0511893Y0076063D03*
X0525093Y0058513D03*
X0525093Y0058363D03*
D63*
X0525131Y0058438D03*
X0525131Y0058588D03*
X0525131Y0075988D03*
X0511856Y0075988D03*
D64*
X0525168Y0058663D03*
D65*
X0521868Y0059413D03*
X0521868Y0059488D03*
X0521868Y0059563D03*
X0520368Y0062638D03*
X0520293Y0064438D03*
X0520293Y0064513D03*
X0520293Y0064588D03*
X0520293Y0064663D03*
X0520293Y0064738D03*
X0520293Y0064813D03*
X0520293Y0064888D03*
X0520293Y0064963D03*
X0524343Y0064663D03*
X0524493Y0065413D03*
X0517293Y0059113D03*
D66*
X0525318Y0059113D03*
X0525318Y0075763D03*
X0511668Y0075763D03*
D67*
X0519581Y0072688D03*
X0519581Y0072613D03*
X0525356Y0075688D03*
X0525356Y0059413D03*
X0525356Y0059338D03*
X0525356Y0059263D03*
X0525356Y0059188D03*
D68*
X0522468Y0063913D03*
X0521943Y0065263D03*
X0520368Y0064363D03*
X0520368Y0064288D03*
X0520368Y0064213D03*
X0520368Y0064138D03*
X0518043Y0063688D03*
X0516018Y0065713D03*
X0518943Y0060913D03*
X0517368Y0059338D03*
X0520068Y0073213D03*
X0520068Y0073288D03*
D69*
X0518193Y0065788D03*
X0518193Y0065713D03*
X0520368Y0065263D03*
X0520368Y0065188D03*
X0520368Y0065113D03*
X0522543Y0063838D03*
X0524418Y0064813D03*
X0524568Y0065563D03*
X0524568Y0065638D03*
X0524568Y0065713D03*
X0524568Y0065788D03*
X0524568Y0065863D03*
X0520368Y0062563D03*
X0519768Y0059488D03*
X0512268Y0063838D03*
D70*
X0525431Y0059713D03*
X0525431Y0059638D03*
X0525431Y0059563D03*
X0525431Y0059488D03*
X0511556Y0075688D03*
D71*
X0520443Y0064063D03*
X0520443Y0063988D03*
X0522468Y0063988D03*
X0519693Y0059638D03*
X0516393Y0060088D03*
D72*
X0516431Y0060013D03*
X0522131Y0060763D03*
X0509906Y0059788D03*
X0509906Y0059713D03*
D73*
X0516468Y0059938D03*
X0517893Y0063763D03*
X0522093Y0060838D03*
D74*
X0522056Y0061213D03*
X0519581Y0060763D03*
X0519581Y0060688D03*
X0519356Y0060313D03*
X0517031Y0064063D03*
X0522431Y0064888D03*
X0522506Y0064663D03*
X0526706Y0065488D03*
X0526706Y0065938D03*
X0526706Y0068638D03*
X0510281Y0068938D03*
X0510281Y0072988D03*
X0510281Y0060613D03*
D75*
X0517331Y0061138D03*
X0525581Y0060913D03*
X0525581Y0060838D03*
X0525581Y0060763D03*
X0525581Y0060688D03*
X0525581Y0060613D03*
X0525581Y0060538D03*
X0525581Y0060463D03*
X0525581Y0060388D03*
X0525581Y0063613D03*
X0525581Y0063688D03*
X0525581Y0063763D03*
X0525581Y0063838D03*
X0525581Y0063913D03*
X0525581Y0063988D03*
X0511406Y0075388D03*
D76*
X0510581Y0073738D03*
X0517106Y0064438D03*
X0517106Y0064363D03*
X0517106Y0064288D03*
X0516656Y0060913D03*
X0516581Y0060838D03*
X0516506Y0060613D03*
X0519581Y0060463D03*
X0526406Y0073888D03*
D77*
X0526593Y0072913D03*
X0526593Y0072838D03*
X0526593Y0072763D03*
X0526593Y0072688D03*
X0526593Y0068113D03*
X0526593Y0068038D03*
X0526593Y0067963D03*
X0526593Y0067888D03*
X0526593Y0066688D03*
X0526593Y0066613D03*
X0526593Y0066538D03*
X0526593Y0066463D03*
X0521943Y0061738D03*
X0521943Y0061663D03*
X0521943Y0061588D03*
X0521943Y0061513D03*
X0521943Y0061438D03*
X0521943Y0061363D03*
X0521943Y0061288D03*
X0516618Y0060538D03*
X0510393Y0060988D03*
X0510393Y0061063D03*
X0510393Y0063388D03*
X0510393Y0063463D03*
X0510393Y0063538D03*
X0510393Y0063613D03*
X0510393Y0073138D03*
X0510393Y0073213D03*
X0510393Y0073288D03*
X0510393Y0073363D03*
D78*
X0510506Y0073588D03*
X0510506Y0062713D03*
X0517106Y0064213D03*
X0519656Y0060538D03*
X0526481Y0073438D03*
D79*
X0511368Y0075313D03*
X0517368Y0061063D03*
X0525618Y0060988D03*
D80*
X0517293Y0061213D03*
X0517143Y0061513D03*
X0517143Y0061588D03*
X0511443Y0075463D03*
X0525543Y0075463D03*
D81*
X0511518Y0075613D03*
X0517218Y0061438D03*
X0517218Y0061363D03*
D82*
X0516956Y0061738D03*
X0525731Y0061963D03*
X0525731Y0062038D03*
X0525731Y0062113D03*
X0525731Y0062188D03*
X0525731Y0062263D03*
X0525731Y0062338D03*
X0525731Y0062413D03*
X0525731Y0062488D03*
X0525731Y0062563D03*
X0525731Y0062638D03*
X0519506Y0072763D03*
X0519506Y0072838D03*
X0525731Y0075238D03*
D83*
X0525768Y0075163D03*
X0516918Y0062038D03*
X0516918Y0061963D03*
X0516918Y0061888D03*
X0516918Y0061813D03*
D84*
X0516806Y0062188D03*
X0521531Y0062863D03*
X0521531Y0062938D03*
X0525881Y0063238D03*
X0525881Y0063313D03*
X0525881Y0063388D03*
X0525881Y0063463D03*
X0525881Y0063538D03*
X0525881Y0064888D03*
X0525881Y0064963D03*
X0525881Y0065038D03*
X0525881Y0065113D03*
X0525881Y0065188D03*
X0525881Y0065263D03*
X0525881Y0065338D03*
X0525881Y0075088D03*
X0511106Y0075088D03*
X0511106Y0075013D03*
X0511106Y0074938D03*
D85*
X0511068Y0074863D03*
X0525918Y0075013D03*
X0521493Y0063013D03*
X0516768Y0063013D03*
X0516768Y0063088D03*
X0516768Y0063163D03*
X0516768Y0063238D03*
X0516768Y0063313D03*
X0516768Y0063388D03*
X0516768Y0062488D03*
X0516768Y0062413D03*
X0516768Y0062338D03*
X0516768Y0062263D03*
D86*
X0520368Y0062488D03*
X0522543Y0063763D03*
X0520293Y0065413D03*
X0520293Y0065488D03*
X0520293Y0065563D03*
X0520293Y0065638D03*
X0520293Y0065713D03*
X0520293Y0065788D03*
X0520293Y0065863D03*
X0520293Y0065938D03*
X0520293Y0066013D03*
X0520293Y0066088D03*
X0524643Y0066013D03*
D87*
X0521306Y0063313D03*
X0521306Y0063238D03*
X0517256Y0065338D03*
X0517256Y0065413D03*
X0510881Y0064738D03*
X0510881Y0074338D03*
X0526106Y0074488D03*
D88*
X0510431Y0073438D03*
X0510431Y0063313D03*
D89*
X0510731Y0066163D03*
X0517256Y0064663D03*
X0517256Y0064588D03*
X0517106Y0063613D03*
X0517106Y0063538D03*
X0510731Y0074038D03*
D90*
X0524681Y0064363D03*
D91*
X0524643Y0064438D03*
D92*
X0517331Y0064738D03*
X0517331Y0064813D03*
X0517331Y0064888D03*
X0517331Y0064963D03*
X0517331Y0065038D03*
X0517331Y0065113D03*
X0517331Y0065188D03*
X0517331Y0065263D03*
X0517031Y0065563D03*
X0517031Y0065638D03*
X0519206Y0072913D03*
X0510806Y0074188D03*
X0526181Y0074338D03*
D93*
X0526143Y0074413D03*
X0510843Y0074263D03*
X0510843Y0065038D03*
X0510843Y0064963D03*
X0510843Y0064888D03*
X0510843Y0064813D03*
D94*
X0510768Y0065113D03*
X0510768Y0065188D03*
X0510768Y0065263D03*
X0510768Y0065338D03*
X0510768Y0065413D03*
X0510768Y0065488D03*
X0510768Y0065563D03*
X0510768Y0065638D03*
X0510768Y0065713D03*
X0510768Y0065788D03*
X0510768Y0065863D03*
X0510768Y0065938D03*
X0510768Y0066013D03*
X0510768Y0066088D03*
X0510768Y0074113D03*
X0519168Y0072988D03*
X0526218Y0074263D03*
D95*
X0519393Y0072388D03*
X0520518Y0067813D03*
D96*
X0520556Y0067888D03*
X0519581Y0071938D03*
X0519581Y0072013D03*
X0519431Y0072163D03*
X0519431Y0072238D03*
X0519431Y0072313D03*
D97*
X0519506Y0071863D03*
X0519506Y0071788D03*
X0520481Y0067963D03*
D98*
X0520443Y0068038D03*
X0519468Y0072088D03*
X0512643Y0076588D03*
X0512643Y0076663D03*
D99*
X0519881Y0068113D03*
D100*
X0519918Y0068188D03*
X0519918Y0070138D03*
D101*
X0519881Y0070063D03*
X0519881Y0068263D03*
D102*
X0519843Y0068338D03*
X0519993Y0068863D03*
X0519993Y0068938D03*
X0519993Y0069013D03*
X0519843Y0069163D03*
X0519843Y0069763D03*
X0519843Y0069838D03*
X0519843Y0069913D03*
X0519843Y0069988D03*
D103*
X0519881Y0069088D03*
X0519806Y0068413D03*
X0513506Y0077038D03*
X0513506Y0077113D03*
D104*
X0519768Y0069688D03*
X0519768Y0069613D03*
X0519768Y0069538D03*
X0519768Y0069463D03*
X0519768Y0069388D03*
X0519768Y0069313D03*
X0519768Y0069238D03*
X0519768Y0068563D03*
X0519768Y0068488D03*
D105*
X0519843Y0068638D03*
X0519843Y0068713D03*
X0519843Y0068788D03*
D106*
X0519918Y0070213D03*
X0519768Y0070363D03*
D107*
X0519731Y0070438D03*
X0519881Y0070288D03*
D108*
X0519768Y0070513D03*
D109*
X0519806Y0070588D03*
X0519806Y0070663D03*
X0519806Y0070738D03*
X0519806Y0070813D03*
D110*
X0519731Y0070888D03*
X0519731Y0070963D03*
X0519731Y0071038D03*
X0519731Y0071113D03*
D111*
X0519656Y0071188D03*
X0519656Y0071263D03*
D112*
X0519656Y0071338D03*
X0519656Y0071413D03*
X0519656Y0071488D03*
X0519656Y0071563D03*
D113*
X0519581Y0071638D03*
X0519581Y0071713D03*
D114*
X0519281Y0072463D03*
D115*
X0519281Y0072538D03*
D116*
X0525393Y0075613D03*
D117*
X0524568Y0076588D03*
X0524568Y0076663D03*
X0512418Y0076513D03*
X0512418Y0076438D03*
D118*
X0512868Y0076738D03*
X0524118Y0077038D03*
D119*
X0524493Y0076813D03*
X0524493Y0076738D03*
D120*
X0524081Y0077113D03*
X0512906Y0076813D03*
D121*
X0513281Y0076888D03*
X0513281Y0076963D03*
D122*
X0524193Y0076963D03*
X0524193Y0076888D03*
D123*
X0518493Y0077188D03*
X0518493Y0077263D03*
X0518493Y0077338D03*
X0518493Y0077413D03*
X0518493Y0077488D03*
X0518493Y0077563D03*
X0518493Y0077638D03*
D124*
X0139708Y0053865D02*
X0138746Y0052903D01*
X0137784Y0052903D01*
X0136822Y0053865D01*
X0136822Y0058677D01*
X0137784Y0058677D02*
X0135859Y0058677D01*
X0133292Y0058677D02*
X0131367Y0058677D01*
X0132330Y0058677D02*
X0132330Y0052903D01*
X0133292Y0052903D02*
X0131367Y0052903D01*
X0129014Y0052903D02*
X0129014Y0058677D01*
X0127090Y0056752D01*
X0125165Y0058677D01*
X0125165Y0052903D01*
X0122598Y0052903D02*
X0122598Y0058677D01*
X0120673Y0056752D01*
X0118749Y0058677D01*
X0118749Y0052903D01*
X0114257Y0052903D02*
X0114257Y0055790D01*
X0112332Y0057714D01*
X0112332Y0058677D01*
X0114257Y0055790D02*
X0116181Y0057714D01*
X0116181Y0058677D01*
X0103348Y0057714D02*
X0102386Y0058677D01*
X0100462Y0058677D01*
X0099499Y0057714D01*
X0099499Y0056752D01*
X0103348Y0052903D01*
X0099499Y0052903D01*
X0096932Y0053865D02*
X0093083Y0057714D01*
X0093083Y0053865D01*
X0094045Y0052903D01*
X0095970Y0052903D01*
X0096932Y0053865D01*
X0096932Y0057714D01*
X0095970Y0058677D01*
X0094045Y0058677D01*
X0093083Y0057714D01*
X0090515Y0056752D02*
X0088591Y0058677D01*
X0088591Y0052903D01*
X0090515Y0052903D02*
X0086666Y0052903D01*
X0084099Y0053865D02*
X0083137Y0052903D01*
X0081212Y0052903D01*
X0080250Y0053865D01*
X0080250Y0055790D01*
X0081212Y0056752D01*
X0082174Y0056752D01*
X0084099Y0055790D01*
X0084099Y0058677D01*
X0080250Y0058677D01*
D125*
X0228232Y0057339D02*
X0228232Y0051402D01*
X0238232Y0051402D02*
X0238232Y0057339D01*
X0248232Y0057339D02*
X0248232Y0051402D01*
X0258232Y0051402D02*
X0258232Y0057339D01*
X0268232Y0057339D02*
X0268232Y0051402D01*
X0278232Y0051402D02*
X0278232Y0057339D01*
X0298232Y0057339D02*
X0298232Y0051402D01*
X0308232Y0051402D02*
X0308232Y0057339D01*
X0318232Y0057339D02*
X0318232Y0051402D01*
X0328232Y0051402D02*
X0328232Y0057339D01*
X0338232Y0057339D02*
X0338232Y0051402D01*
X0348232Y0051402D02*
X0348232Y0057339D01*
X0358232Y0057339D02*
X0358232Y0051402D01*
X0368232Y0051402D02*
X0368232Y0057339D01*
X0388232Y0057339D02*
X0388232Y0051402D01*
X0398232Y0051402D02*
X0398232Y0057339D01*
X0408232Y0057339D02*
X0408232Y0051402D01*
X0418232Y0051402D02*
X0418232Y0057339D01*
X0428232Y0057339D02*
X0428232Y0051402D01*
X0438232Y0051402D02*
X0438232Y0057339D01*
X0448232Y0057339D02*
X0448232Y0051402D01*
X0458232Y0051402D02*
X0458232Y0057339D01*
X0438232Y0241402D02*
X0438232Y0247339D01*
X0428232Y0247339D02*
X0428232Y0241402D01*
X0418232Y0241402D02*
X0418232Y0247339D01*
X0408232Y0247339D02*
X0408232Y0241402D01*
X0398232Y0241402D02*
X0398232Y0247339D01*
X0388232Y0247339D02*
X0388232Y0241402D01*
X0378232Y0241402D02*
X0378232Y0247339D01*
X0368232Y0247339D02*
X0368232Y0241402D01*
X0348232Y0241402D02*
X0348232Y0247339D01*
X0338232Y0247339D02*
X0338232Y0241402D01*
X0328232Y0241402D02*
X0328232Y0247339D01*
X0318232Y0247339D02*
X0318232Y0241402D01*
X0308232Y0241402D02*
X0308232Y0247339D01*
X0298232Y0247339D02*
X0298232Y0241402D01*
X0288232Y0241402D02*
X0288232Y0247339D01*
X0278232Y0247339D02*
X0278232Y0241402D01*
X0263232Y0241402D02*
X0263232Y0247339D01*
X0253232Y0247339D02*
X0253232Y0241402D01*
X0243232Y0241402D02*
X0243232Y0247339D01*
X0233232Y0247339D02*
X0233232Y0241402D01*
X0223232Y0241402D02*
X0223232Y0247339D01*
X0213232Y0247339D02*
X0213232Y0241402D01*
X0203232Y0241402D02*
X0203232Y0247339D01*
X0193232Y0247339D02*
X0193232Y0241402D01*
D126*
X0468232Y0244370D03*
X0478232Y0244370D03*
X0478232Y0234370D03*
X0468232Y0234370D03*
X0468232Y0224370D03*
X0478232Y0224370D03*
X0478232Y0214370D03*
X0468232Y0214370D03*
X0468232Y0204370D03*
X0478232Y0204370D03*
X0478232Y0194370D03*
X0468232Y0194370D03*
X0468232Y0184370D03*
X0478232Y0184370D03*
X0478232Y0174370D03*
X0468232Y0174370D03*
X0468232Y0164370D03*
X0478232Y0164370D03*
X0478232Y0154370D03*
X0468232Y0154370D03*
X0468232Y0144370D03*
X0478232Y0144370D03*
X0478232Y0134370D03*
X0468232Y0134370D03*
X0468232Y0124370D03*
X0478232Y0124370D03*
X0478232Y0114370D03*
X0468232Y0114370D03*
X0468232Y0104370D03*
X0478232Y0104370D03*
X0478232Y0094370D03*
X0468232Y0094370D03*
X0468232Y0084370D03*
X0478232Y0084370D03*
X0478232Y0074370D03*
X0468232Y0074370D03*
D127*
X0218232Y0057170D02*
X0218232Y0051570D01*
X0208232Y0051570D02*
X0208232Y0057170D01*
X0183232Y0241570D02*
X0183232Y0247170D01*
X0173232Y0247170D02*
X0173232Y0241570D01*
D128*
X0333035Y0101102D03*
X0333035Y0091102D03*
X0333035Y0081102D03*
X0333035Y0071102D03*
D129*
X0438862Y0073102D02*
X0438862Y0079102D01*
X0448862Y0079102D02*
X0448862Y0073102D01*
X0490154Y0074173D02*
X0496154Y0074173D01*
X0496154Y0084173D02*
X0490154Y0084173D01*
X0490154Y0094173D02*
X0496154Y0094173D01*
X0496154Y0104173D02*
X0490154Y0104173D01*
X0490154Y0114173D02*
X0496154Y0114173D01*
X0448862Y0118102D02*
X0448862Y0124102D01*
X0438862Y0124102D02*
X0438862Y0118102D01*
X0391626Y0148543D02*
X0385626Y0148543D01*
X0385626Y0158543D02*
X0391626Y0158543D01*
X0391626Y0168543D02*
X0385626Y0168543D01*
X0487563Y0058000D02*
X0487563Y0052000D01*
X0497563Y0052000D02*
X0497563Y0058000D01*
X0110957Y0129646D02*
X0104957Y0129646D01*
X0104957Y0139646D02*
X0110957Y0139646D01*
X0110957Y0149646D02*
X0104957Y0149646D01*
D130*
X0149965Y0175650D03*
X0159965Y0175650D03*
X0169965Y0175650D03*
X0179965Y0175650D03*
X0189965Y0175650D03*
X0189965Y0185650D03*
X0179965Y0185650D03*
X0169965Y0185650D03*
X0159965Y0185650D03*
X0149965Y0185650D03*
X0121880Y0219744D03*
X0111080Y0219744D03*
X0100280Y0219744D03*
X0089480Y0219744D03*
X0078680Y0219744D03*
X0084080Y0229744D03*
X0094880Y0229744D03*
X0105680Y0229744D03*
X0116480Y0229744D03*
X0120883Y0079055D03*
X0110083Y0079055D03*
X0099283Y0079055D03*
X0088483Y0079055D03*
X0093883Y0069055D03*
X0104683Y0069055D03*
X0115483Y0069055D03*
X0126283Y0069055D03*
X0131683Y0079055D03*
X0514610Y0132967D03*
X0524610Y0138367D03*
X0514610Y0143767D03*
X0524610Y0149167D03*
X0514610Y0154567D03*
X0524610Y0159967D03*
X0514610Y0165367D03*
X0524610Y0170767D03*
X0514610Y0176167D03*
D131*
X0519610Y0203867D03*
X0519610Y0105267D03*
X0159383Y0074055D03*
X0060783Y0074055D03*
X0050980Y0224744D03*
X0149580Y0224744D03*
D132*
X0050673Y0171220D03*
X0047524Y0144646D03*
X0050673Y0118071D03*
D133*
X0062484Y0131260D03*
X0062484Y0139528D03*
X0072327Y0139528D03*
X0072327Y0131260D03*
X0072327Y0148189D03*
X0062484Y0149764D03*
X0062484Y0158031D03*
X0072327Y0158031D03*
D134*
X0041761Y0046166D02*
X0170859Y0046166D01*
X0170859Y0067561D01*
X0170814Y0067708D01*
X0170852Y0068121D01*
X0169705Y0066134D01*
X0167303Y0063733D01*
X0164362Y0062034D01*
X0161081Y0061155D01*
X0157684Y0061155D01*
X0154403Y0062034D01*
X0151462Y0063733D01*
X0149060Y0066134D01*
X0147362Y0069076D01*
X0146483Y0072357D01*
X0146483Y0075753D01*
X0147362Y0079034D01*
X0149060Y0081976D01*
X0151462Y0084378D01*
X0154403Y0086076D01*
X0157684Y0086955D01*
X0161081Y0086955D01*
X0164362Y0086076D01*
X0167303Y0084378D01*
X0169705Y0081976D01*
X0171404Y0079034D01*
X0172283Y0075753D01*
X0172283Y0072369D01*
X0174214Y0075460D01*
X0174254Y0075607D01*
X0174549Y0075995D01*
X0174808Y0076409D01*
X0174903Y0076477D01*
X0175010Y0076703D01*
X0175262Y0076930D01*
X0175467Y0077200D01*
X0175730Y0077353D01*
X0175778Y0077395D01*
X0175957Y0077641D01*
X0176246Y0077818D01*
X0176497Y0078045D01*
X0176784Y0078146D01*
X0176838Y0078180D01*
X0177059Y0078388D01*
X0177376Y0078508D01*
X0177665Y0078685D01*
X0177913Y0078724D01*
X0178005Y0078795D01*
X0178475Y0078925D01*
X0178931Y0079099D01*
X0179084Y0079094D01*
X0199703Y0084804D01*
X0199968Y0084905D01*
X0200082Y0084975D01*
X0200182Y0085065D01*
X0200263Y0085171D01*
X0200323Y0085291D01*
X0200360Y0085420D01*
X0200387Y0085703D01*
X0200387Y0129621D01*
X0200368Y0129861D01*
X0200341Y0129972D01*
X0200297Y0130077D01*
X0200266Y0130128D01*
X0200136Y0130214D01*
X0199882Y0130591D01*
X0199587Y0130937D01*
X0199529Y0131115D01*
X0198589Y0132509D01*
X0198064Y0132509D01*
X0197473Y0132492D01*
X0197429Y0132509D01*
X0168011Y0132509D01*
X0167255Y0132487D01*
X0166994Y0132418D01*
X0166625Y0132469D01*
X0166253Y0132458D01*
X0166001Y0132554D01*
X0165569Y0132613D01*
X0165300Y0132588D01*
X0164945Y0132699D01*
X0164575Y0132749D01*
X0164342Y0132885D01*
X0164116Y0132955D01*
X0164045Y0132952D01*
X0163510Y0133143D01*
X0162968Y0133311D01*
X0162913Y0133357D01*
X0162846Y0133381D01*
X0162426Y0133762D01*
X0161989Y0134125D01*
X0161956Y0134188D01*
X0150374Y0144687D01*
X0150351Y0144693D01*
X0150079Y0144715D01*
X0120998Y0145100D01*
X0120893Y0145066D01*
X0120366Y0145109D01*
X0119837Y0145116D01*
X0119735Y0145160D01*
X0119624Y0145169D01*
X0119153Y0145410D01*
X0118667Y0145619D01*
X0118590Y0145698D01*
X0118491Y0145749D01*
X0118148Y0146152D01*
X0117779Y0146531D01*
X0117738Y0146634D01*
X0115716Y0149011D01*
X0115638Y0148522D01*
X0115405Y0147803D01*
X0115062Y0147130D01*
X0114618Y0146519D01*
X0114084Y0145984D01*
X0113472Y0145540D01*
X0112799Y0145197D01*
X0112163Y0144991D01*
X0114016Y0144224D01*
X0115535Y0142705D01*
X0116357Y0140720D01*
X0116357Y0138572D01*
X0115535Y0136587D01*
X0114016Y0135068D01*
X0112996Y0134646D01*
X0114016Y0134224D01*
X0115535Y0132705D01*
X0116357Y0130720D01*
X0116357Y0128572D01*
X0115535Y0126587D01*
X0114016Y0125068D01*
X0112031Y0124246D01*
X0111157Y0124246D01*
X0111157Y0107467D01*
X0116526Y0102098D01*
X0138678Y0102098D01*
X0143499Y0106918D01*
X0136787Y0106918D01*
X0135512Y0105644D01*
X0133829Y0104946D01*
X0132006Y0104946D01*
X0130322Y0105644D01*
X0129034Y0106933D01*
X0128336Y0108616D01*
X0128336Y0110439D01*
X0129034Y0112123D01*
X0130322Y0113411D01*
X0132006Y0114109D01*
X0133829Y0114109D01*
X0135512Y0113411D01*
X0135605Y0113318D01*
X0144584Y0113318D01*
X0145278Y0114012D01*
X0146454Y0114499D01*
X0151671Y0114499D01*
X0155008Y0117836D01*
X0155908Y0118736D01*
X0157084Y0119224D01*
X0178436Y0119224D01*
X0179612Y0118736D01*
X0180512Y0117836D01*
X0180512Y0117836D01*
X0180896Y0117452D01*
X0184560Y0117452D01*
X0185244Y0118136D01*
X0186927Y0118833D01*
X0188750Y0118833D01*
X0190434Y0118136D01*
X0191722Y0116847D01*
X0192420Y0115163D01*
X0192420Y0113341D01*
X0191722Y0111657D01*
X0190434Y0110368D01*
X0188750Y0109671D01*
X0186927Y0109671D01*
X0185244Y0110368D01*
X0184560Y0111052D01*
X0182717Y0111052D01*
X0182971Y0110439D01*
X0182971Y0108616D01*
X0182273Y0106933D01*
X0180985Y0105644D01*
X0179301Y0104946D01*
X0177479Y0104946D01*
X0175795Y0105644D01*
X0174506Y0106933D01*
X0174378Y0107241D01*
X0174006Y0106342D01*
X0172717Y0105053D01*
X0171033Y0104356D01*
X0169211Y0104356D01*
X0167527Y0105053D01*
X0166843Y0105737D01*
X0161408Y0105737D01*
X0155709Y0100038D01*
X0154809Y0099138D01*
X0153633Y0098650D01*
X0149597Y0098650D01*
X0146157Y0095210D01*
X0146157Y0092356D01*
X0145670Y0091179D01*
X0142126Y0087636D01*
X0141226Y0086736D01*
X0140050Y0086249D01*
X0130509Y0086249D01*
X0129333Y0086736D01*
X0128433Y0087636D01*
X0128433Y0087636D01*
X0128249Y0087820D01*
X0127282Y0087820D01*
X0125598Y0088518D01*
X0124309Y0089807D01*
X0123612Y0091490D01*
X0123612Y0093313D01*
X0124309Y0094997D01*
X0125010Y0095698D01*
X0114564Y0095698D01*
X0113388Y0096185D01*
X0105244Y0104329D01*
X0104757Y0105505D01*
X0104757Y0124246D01*
X0103883Y0124246D01*
X0101898Y0125068D01*
X0100379Y0126587D01*
X0099557Y0128572D01*
X0099557Y0130720D01*
X0100379Y0132705D01*
X0101898Y0134224D01*
X0102917Y0134646D01*
X0101898Y0135068D01*
X0100379Y0136587D01*
X0099557Y0138572D01*
X0099557Y0140720D01*
X0100379Y0142705D01*
X0101898Y0144224D01*
X0103750Y0144991D01*
X0103114Y0145197D01*
X0102441Y0145540D01*
X0101830Y0145984D01*
X0101295Y0146519D01*
X0100851Y0147130D01*
X0100508Y0147803D01*
X0100275Y0148522D01*
X0100157Y0149268D01*
X0100157Y0149446D01*
X0107757Y0149446D01*
X0107757Y0149846D01*
X0100157Y0149846D01*
X0100157Y0150023D01*
X0100275Y0150770D01*
X0100508Y0151488D01*
X0100851Y0152161D01*
X0101295Y0152773D01*
X0101830Y0153307D01*
X0102441Y0153751D01*
X0102475Y0153769D01*
X0093487Y0153769D01*
X0093332Y0153722D01*
X0092855Y0153769D01*
X0092376Y0153769D01*
X0092234Y0153828D01*
X0091925Y0153797D01*
X0091617Y0153890D01*
X0091297Y0153922D01*
X0091014Y0154073D01*
X0090879Y0154115D01*
X0090559Y0154146D01*
X0090275Y0154297D01*
X0089968Y0154391D01*
X0089720Y0154595D01*
X0089595Y0154661D01*
X0089287Y0154755D01*
X0089039Y0154958D01*
X0088756Y0155110D01*
X0088559Y0155350D01*
X0088416Y0155409D01*
X0088077Y0155748D01*
X0087707Y0156052D01*
X0087630Y0156195D01*
X0082757Y0161068D01*
X0082641Y0161127D01*
X0082309Y0161516D01*
X0081948Y0161877D01*
X0081944Y0161886D01*
X0081864Y0161944D01*
X0081663Y0162272D01*
X0081413Y0162565D01*
X0081356Y0162742D01*
X0081224Y0162873D01*
X0081077Y0163229D01*
X0080876Y0163557D01*
X0080847Y0163740D01*
X0080738Y0163891D01*
X0080648Y0164265D01*
X0080501Y0164620D01*
X0080501Y0164806D01*
X0080416Y0164972D01*
X0080386Y0165355D01*
X0080296Y0165729D01*
X0080312Y0165827D01*
X0080308Y0165837D01*
X0080308Y0166347D01*
X0080268Y0166857D01*
X0080308Y0166980D01*
X0080308Y0173360D01*
X0078245Y0175422D01*
X0058383Y0175422D01*
X0059404Y0172957D01*
X0059404Y0169484D01*
X0058075Y0166275D01*
X0055619Y0163819D01*
X0052410Y0162490D01*
X0048937Y0162490D01*
X0045728Y0163819D01*
X0043272Y0166275D01*
X0041943Y0169484D01*
X0041943Y0172957D01*
X0042964Y0175422D01*
X0041761Y0175422D01*
X0041761Y0151230D01*
X0042578Y0152047D01*
X0045787Y0153376D01*
X0049260Y0153376D01*
X0052469Y0152047D01*
X0054925Y0149591D01*
X0056254Y0146382D01*
X0056254Y0142909D01*
X0054925Y0139700D01*
X0052469Y0137244D01*
X0049260Y0135915D01*
X0045787Y0135915D01*
X0042578Y0137244D01*
X0041761Y0138062D01*
X0041761Y0106129D01*
X0041766Y0106135D01*
X0044109Y0107487D01*
X0046722Y0108187D01*
X0049427Y0108187D01*
X0052040Y0107487D01*
X0054383Y0106135D01*
X0056296Y0104222D01*
X0057649Y0101879D01*
X0058349Y0099266D01*
X0058349Y0096561D01*
X0057649Y0093948D01*
X0056296Y0091605D01*
X0054383Y0089692D01*
X0052040Y0088340D01*
X0049427Y0087639D01*
X0046722Y0087639D01*
X0044109Y0088340D01*
X0041766Y0089692D01*
X0041761Y0089698D01*
X0041761Y0046166D01*
X0041761Y0047192D02*
X0170859Y0047192D01*
X0170859Y0048791D02*
X0041761Y0048791D01*
X0041761Y0050389D02*
X0079483Y0050389D01*
X0079513Y0050360D02*
X0079513Y0050360D01*
X0079689Y0050287D01*
X0080615Y0049903D01*
X0083733Y0049903D01*
X0084836Y0050360D01*
X0084901Y0050425D01*
X0084967Y0050360D01*
X0086070Y0049903D01*
X0091112Y0049903D01*
X0092215Y0050360D01*
X0092280Y0050425D01*
X0092346Y0050360D01*
X0092522Y0050287D01*
X0093448Y0049903D01*
X0096566Y0049903D01*
X0097669Y0050360D01*
X0097734Y0050425D01*
X0097800Y0050360D01*
X0098903Y0049903D01*
X0103945Y0049903D01*
X0105048Y0050360D01*
X0105891Y0051204D01*
X0106348Y0052306D01*
X0106348Y0053500D01*
X0105891Y0054603D01*
X0105185Y0055309D01*
X0105891Y0056015D01*
X0106348Y0057118D01*
X0106348Y0058311D01*
X0105892Y0059414D01*
X0104929Y0060376D01*
X0104099Y0061206D01*
X0104085Y0061220D01*
X0103452Y0061482D01*
X0102983Y0061677D01*
X0099865Y0061677D01*
X0098762Y0061220D01*
X0098216Y0060673D01*
X0097669Y0061220D01*
X0097010Y0061493D01*
X0096566Y0061677D01*
X0093448Y0061677D01*
X0092346Y0061220D01*
X0091383Y0060258D01*
X0091318Y0060192D01*
X0091134Y0060376D01*
X0090290Y0061220D01*
X0089187Y0061677D01*
X0087994Y0061677D01*
X0086891Y0061220D01*
X0086345Y0060673D01*
X0085798Y0061220D01*
X0084695Y0061677D01*
X0079653Y0061677D01*
X0078550Y0061220D01*
X0077706Y0060376D01*
X0077250Y0059273D01*
X0077250Y0058080D01*
X0077600Y0057233D01*
X0077250Y0056387D01*
X0077250Y0053269D01*
X0077444Y0052799D01*
X0077706Y0052166D01*
X0077707Y0052166D01*
X0077720Y0052152D01*
X0078550Y0051322D01*
X0078550Y0051322D01*
X0078669Y0051204D01*
X0079513Y0050360D01*
X0079513Y0050360D01*
X0078669Y0051204D02*
X0078669Y0051204D01*
X0077885Y0051988D02*
X0041761Y0051988D01*
X0041761Y0053586D02*
X0077250Y0053586D01*
X0077707Y0052166D02*
X0077707Y0052166D01*
X0077250Y0055185D02*
X0041761Y0055185D01*
X0041761Y0056783D02*
X0077414Y0056783D01*
X0077250Y0058382D02*
X0041761Y0058382D01*
X0041761Y0059980D02*
X0077543Y0059980D01*
X0079417Y0061579D02*
X0064062Y0061579D01*
X0062481Y0061155D02*
X0065762Y0062034D01*
X0068703Y0063733D01*
X0071105Y0066134D01*
X0072804Y0069076D01*
X0073683Y0072357D01*
X0073683Y0075753D01*
X0072804Y0079034D01*
X0071105Y0081976D01*
X0068703Y0084378D01*
X0065762Y0086076D01*
X0062481Y0086955D01*
X0059084Y0086955D01*
X0055803Y0086076D01*
X0052862Y0084378D01*
X0050460Y0081976D01*
X0048762Y0079034D01*
X0047883Y0075753D01*
X0047883Y0072357D01*
X0048762Y0069076D01*
X0050460Y0066134D01*
X0052862Y0063733D01*
X0055803Y0062034D01*
X0059084Y0061155D01*
X0062481Y0061155D01*
X0057504Y0061579D02*
X0041761Y0061579D01*
X0041761Y0063177D02*
X0053824Y0063177D01*
X0051819Y0064776D02*
X0041761Y0064776D01*
X0041761Y0066374D02*
X0050322Y0066374D01*
X0049399Y0067973D02*
X0041761Y0067973D01*
X0041761Y0069571D02*
X0048629Y0069571D01*
X0048201Y0071170D02*
X0041761Y0071170D01*
X0041761Y0072768D02*
X0047883Y0072768D01*
X0047883Y0074367D02*
X0041761Y0074367D01*
X0041761Y0075965D02*
X0047939Y0075965D01*
X0048368Y0077564D02*
X0041761Y0077564D01*
X0041761Y0079162D02*
X0048836Y0079162D01*
X0049759Y0080761D02*
X0041761Y0080761D01*
X0041761Y0082359D02*
X0050844Y0082359D01*
X0052442Y0083958D02*
X0041761Y0083958D01*
X0041761Y0085556D02*
X0054903Y0085556D01*
X0052757Y0088753D02*
X0125362Y0088753D01*
X0124083Y0090352D02*
X0055043Y0090352D01*
X0056495Y0091950D02*
X0123612Y0091950D01*
X0124059Y0092795D02*
X0124059Y0086679D01*
X0131683Y0079055D01*
X0138533Y0085906D01*
X0145909Y0085906D01*
X0149453Y0089449D01*
X0149453Y0097126D01*
X0149291Y0098344D02*
X0200387Y0098344D01*
X0200387Y0096746D02*
X0147693Y0096746D01*
X0146157Y0095147D02*
X0200387Y0095147D01*
X0200387Y0093549D02*
X0146157Y0093549D01*
X0145989Y0091950D02*
X0200387Y0091950D01*
X0200387Y0090352D02*
X0144842Y0090352D01*
X0143243Y0088753D02*
X0200387Y0088753D01*
X0200387Y0087155D02*
X0141645Y0087155D01*
X0139413Y0089449D02*
X0131146Y0089449D01*
X0128193Y0092402D01*
X0124059Y0092795D02*
X0121303Y0095551D01*
X0113429Y0095551D01*
X0103390Y0105591D01*
X0103390Y0121929D01*
X0098665Y0126654D01*
X0098665Y0143189D01*
X0105122Y0149646D01*
X0107957Y0149646D01*
X0107757Y0149497D02*
X0076709Y0149497D01*
X0076786Y0149260D02*
X0076563Y0149944D01*
X0076237Y0150585D01*
X0075814Y0151167D01*
X0075305Y0151676D01*
X0074723Y0152099D01*
X0074082Y0152426D01*
X0073397Y0152648D01*
X0072687Y0152761D01*
X0072413Y0152761D01*
X0072413Y0148275D01*
X0076898Y0148275D01*
X0076898Y0148549D01*
X0076786Y0149260D01*
X0076898Y0148103D02*
X0072413Y0148103D01*
X0072413Y0148275D01*
X0072241Y0148275D01*
X0072241Y0152761D01*
X0071967Y0152761D01*
X0071256Y0152648D01*
X0070572Y0152426D01*
X0069931Y0152099D01*
X0069349Y0151676D01*
X0068840Y0151167D01*
X0068417Y0150585D01*
X0068090Y0149944D01*
X0067868Y0149260D01*
X0067755Y0148549D01*
X0067755Y0148275D01*
X0072241Y0148275D01*
X0072241Y0148103D01*
X0067755Y0148103D01*
X0067755Y0147829D01*
X0067868Y0147118D01*
X0068090Y0146434D01*
X0068417Y0145793D01*
X0068840Y0145211D01*
X0069349Y0144702D01*
X0069931Y0144279D01*
X0070089Y0144198D01*
X0069397Y0143912D01*
X0067942Y0142457D01*
X0067405Y0141161D01*
X0066869Y0142457D01*
X0065414Y0143912D01*
X0063642Y0144646D01*
X0065414Y0145379D01*
X0066869Y0146834D01*
X0067656Y0148735D01*
X0067656Y0150792D01*
X0066869Y0152693D01*
X0065664Y0153898D01*
X0066869Y0155102D01*
X0067656Y0157003D01*
X0067656Y0159060D01*
X0066869Y0160961D01*
X0065414Y0162416D01*
X0063513Y0163203D01*
X0061456Y0163203D01*
X0059555Y0162416D01*
X0058100Y0160961D01*
X0057313Y0159060D01*
X0057313Y0157003D01*
X0058100Y0155102D01*
X0059304Y0153898D01*
X0058100Y0152693D01*
X0057313Y0150792D01*
X0057313Y0148735D01*
X0058100Y0146834D01*
X0059555Y0145379D01*
X0061326Y0144646D01*
X0059555Y0143912D01*
X0058100Y0142457D01*
X0057313Y0140556D01*
X0057313Y0138499D01*
X0058100Y0136598D01*
X0059304Y0135394D01*
X0058100Y0134189D01*
X0057313Y0132289D01*
X0057313Y0130231D01*
X0058100Y0128330D01*
X0059555Y0126876D01*
X0061456Y0126088D01*
X0063513Y0126088D01*
X0065414Y0126876D01*
X0066869Y0128330D01*
X0067405Y0129627D01*
X0067942Y0128330D01*
X0069397Y0126876D01*
X0071298Y0126088D01*
X0073355Y0126088D01*
X0075256Y0126876D01*
X0076711Y0128330D01*
X0077498Y0130231D01*
X0077498Y0132289D01*
X0076711Y0134189D01*
X0075507Y0135394D01*
X0076711Y0136598D01*
X0077498Y0138499D01*
X0077498Y0140556D01*
X0076711Y0142457D01*
X0075256Y0143912D01*
X0074565Y0144198D01*
X0074723Y0144279D01*
X0075305Y0144702D01*
X0075814Y0145211D01*
X0076237Y0145793D01*
X0076563Y0146434D01*
X0076786Y0147118D01*
X0076898Y0147829D01*
X0076898Y0148103D01*
X0076898Y0147898D02*
X0100477Y0147898D01*
X0101514Y0146300D02*
X0076495Y0146300D01*
X0075304Y0144701D02*
X0103051Y0144701D01*
X0100777Y0143103D02*
X0076065Y0143103D01*
X0077106Y0141504D02*
X0099882Y0141504D01*
X0099557Y0139906D02*
X0077498Y0139906D01*
X0077419Y0138307D02*
X0099666Y0138307D01*
X0100328Y0136709D02*
X0076757Y0136709D01*
X0075790Y0135110D02*
X0101855Y0135110D01*
X0101186Y0133512D02*
X0076992Y0133512D01*
X0077498Y0131913D02*
X0100051Y0131913D01*
X0099557Y0130315D02*
X0077498Y0130315D01*
X0076871Y0128716D02*
X0099557Y0128716D01*
X0100159Y0127118D02*
X0075498Y0127118D01*
X0069155Y0127118D02*
X0065656Y0127118D01*
X0067028Y0128716D02*
X0067783Y0128716D01*
X0059313Y0127118D02*
X0041761Y0127118D01*
X0041761Y0128716D02*
X0057940Y0128716D01*
X0057313Y0130315D02*
X0041761Y0130315D01*
X0041761Y0131913D02*
X0057313Y0131913D01*
X0057819Y0133512D02*
X0041761Y0133512D01*
X0041761Y0135110D02*
X0059021Y0135110D01*
X0058054Y0136709D02*
X0051177Y0136709D01*
X0053532Y0138307D02*
X0057392Y0138307D01*
X0057313Y0139906D02*
X0055010Y0139906D01*
X0055672Y0141504D02*
X0057705Y0141504D01*
X0058746Y0143103D02*
X0056254Y0143103D01*
X0056254Y0144701D02*
X0061192Y0144701D01*
X0063776Y0144701D02*
X0069349Y0144701D01*
X0068588Y0143103D02*
X0066223Y0143103D01*
X0067263Y0141504D02*
X0067548Y0141504D01*
X0068158Y0146300D02*
X0066334Y0146300D01*
X0067309Y0147898D02*
X0067755Y0147898D01*
X0067656Y0149497D02*
X0067945Y0149497D01*
X0067530Y0151095D02*
X0068787Y0151095D01*
X0066868Y0152694D02*
X0071545Y0152694D01*
X0072241Y0152694D02*
X0072413Y0152694D01*
X0073108Y0152694D02*
X0101238Y0152694D01*
X0100381Y0151095D02*
X0075866Y0151095D01*
X0074723Y0154121D02*
X0075305Y0154544D01*
X0075814Y0155053D01*
X0076237Y0155635D01*
X0076563Y0156277D01*
X0076786Y0156961D01*
X0076898Y0157672D01*
X0076898Y0157946D01*
X0072413Y0157946D01*
X0072413Y0158117D01*
X0076898Y0158117D01*
X0076898Y0158391D01*
X0076786Y0159102D01*
X0076563Y0159786D01*
X0076237Y0160428D01*
X0075814Y0161010D01*
X0075305Y0161519D01*
X0074723Y0161942D01*
X0074082Y0162268D01*
X0073397Y0162491D01*
X0072687Y0162603D01*
X0072413Y0162603D01*
X0072413Y0158117D01*
X0072241Y0158117D01*
X0072241Y0157946D01*
X0067755Y0157946D01*
X0067755Y0157672D01*
X0067868Y0156961D01*
X0068090Y0156277D01*
X0068417Y0155635D01*
X0068840Y0155053D01*
X0069349Y0154544D01*
X0069931Y0154121D01*
X0070572Y0153795D01*
X0071256Y0153572D01*
X0071967Y0153460D01*
X0072241Y0153460D01*
X0072241Y0157946D01*
X0072413Y0157946D01*
X0072413Y0153460D01*
X0072687Y0153460D01*
X0073397Y0153572D01*
X0074082Y0153795D01*
X0074723Y0154121D01*
X0074958Y0154292D02*
X0090285Y0154292D01*
X0087903Y0155891D02*
X0076367Y0155891D01*
X0076870Y0157489D02*
X0086336Y0157489D01*
X0084737Y0159088D02*
X0076788Y0159088D01*
X0076049Y0160686D02*
X0083139Y0160686D01*
X0081652Y0162285D02*
X0074030Y0162285D01*
X0072413Y0162285D02*
X0072241Y0162285D01*
X0072241Y0162603D02*
X0071967Y0162603D01*
X0071256Y0162491D01*
X0070572Y0162268D01*
X0069931Y0161942D01*
X0069349Y0161519D01*
X0068840Y0161010D01*
X0068417Y0160428D01*
X0068090Y0159786D01*
X0067868Y0159102D01*
X0067755Y0158391D01*
X0067755Y0158117D01*
X0072241Y0158117D01*
X0072241Y0162603D01*
X0070623Y0162285D02*
X0065545Y0162285D01*
X0066982Y0160686D02*
X0068605Y0160686D01*
X0067865Y0159088D02*
X0067644Y0159088D01*
X0067656Y0157489D02*
X0067784Y0157489D01*
X0068287Y0155891D02*
X0067195Y0155891D01*
X0066059Y0154292D02*
X0069696Y0154292D01*
X0072241Y0154292D02*
X0072413Y0154292D01*
X0072413Y0155891D02*
X0072241Y0155891D01*
X0072241Y0157489D02*
X0072413Y0157489D01*
X0072413Y0159088D02*
X0072241Y0159088D01*
X0072241Y0160686D02*
X0072413Y0160686D01*
X0080743Y0163883D02*
X0055683Y0163883D01*
X0057282Y0165482D02*
X0080356Y0165482D01*
X0080308Y0167080D02*
X0058408Y0167080D01*
X0059071Y0168679D02*
X0080308Y0168679D01*
X0080308Y0170277D02*
X0059404Y0170277D01*
X0059404Y0171876D02*
X0080308Y0171876D01*
X0080193Y0173474D02*
X0059190Y0173474D01*
X0058528Y0175073D02*
X0078594Y0175073D01*
X0059424Y0162285D02*
X0041761Y0162285D01*
X0041761Y0163883D02*
X0045663Y0163883D01*
X0044065Y0165482D02*
X0041761Y0165482D01*
X0041761Y0167080D02*
X0042938Y0167080D01*
X0042276Y0168679D02*
X0041761Y0168679D01*
X0041761Y0170277D02*
X0041943Y0170277D01*
X0041943Y0171876D02*
X0041761Y0171876D01*
X0041761Y0173474D02*
X0042157Y0173474D01*
X0041761Y0175073D02*
X0042819Y0175073D01*
X0041761Y0160686D02*
X0057986Y0160686D01*
X0057324Y0159088D02*
X0041761Y0159088D01*
X0041761Y0157489D02*
X0057313Y0157489D01*
X0057773Y0155891D02*
X0041761Y0155891D01*
X0041761Y0154292D02*
X0058910Y0154292D01*
X0058100Y0152694D02*
X0050908Y0152694D01*
X0053421Y0151095D02*
X0057438Y0151095D01*
X0057313Y0149497D02*
X0054964Y0149497D01*
X0055626Y0147898D02*
X0057659Y0147898D01*
X0058634Y0146300D02*
X0056254Y0146300D01*
X0044139Y0152694D02*
X0041761Y0152694D01*
X0072241Y0151095D02*
X0072413Y0151095D01*
X0072413Y0149497D02*
X0072241Y0149497D01*
X0043871Y0136709D02*
X0041761Y0136709D01*
X0041761Y0125519D02*
X0045841Y0125519D01*
X0045728Y0125472D02*
X0043272Y0123016D01*
X0041943Y0119808D01*
X0041943Y0116334D01*
X0043272Y0113125D01*
X0045728Y0110669D01*
X0048937Y0109340D01*
X0052410Y0109340D01*
X0055619Y0110669D01*
X0058075Y0113125D01*
X0059404Y0116334D01*
X0059404Y0119808D01*
X0058075Y0123016D01*
X0055619Y0125472D01*
X0052410Y0126802D01*
X0048937Y0126802D01*
X0045728Y0125472D01*
X0044176Y0123921D02*
X0041761Y0123921D01*
X0041761Y0122322D02*
X0042984Y0122322D01*
X0042322Y0120724D02*
X0041761Y0120724D01*
X0041761Y0119125D02*
X0041943Y0119125D01*
X0041943Y0117527D02*
X0041761Y0117527D01*
X0041761Y0115928D02*
X0042111Y0115928D01*
X0041761Y0114330D02*
X0042773Y0114330D01*
X0043666Y0112731D02*
X0041761Y0112731D01*
X0041761Y0111133D02*
X0045264Y0111133D01*
X0045782Y0107936D02*
X0041761Y0107936D01*
X0041761Y0109534D02*
X0048469Y0109534D01*
X0050367Y0107936D02*
X0104757Y0107936D01*
X0104757Y0109534D02*
X0052878Y0109534D01*
X0054033Y0106337D02*
X0104757Y0106337D01*
X0105074Y0104738D02*
X0055779Y0104738D01*
X0056921Y0103140D02*
X0106433Y0103140D01*
X0108031Y0101541D02*
X0057739Y0101541D01*
X0058167Y0099943D02*
X0109630Y0099943D01*
X0111228Y0098344D02*
X0058349Y0098344D01*
X0058349Y0096746D02*
X0112827Y0096746D01*
X0115201Y0098898D02*
X0107957Y0106142D01*
X0107957Y0129646D01*
X0114467Y0125519D02*
X0200387Y0125519D01*
X0200387Y0123921D02*
X0111157Y0123921D01*
X0111157Y0122322D02*
X0200387Y0122322D01*
X0200387Y0120724D02*
X0111157Y0120724D01*
X0111157Y0119125D02*
X0156846Y0119125D01*
X0154698Y0117527D02*
X0111157Y0117527D01*
X0111157Y0115928D02*
X0153099Y0115928D01*
X0157720Y0116024D02*
X0152996Y0111299D01*
X0147091Y0111299D01*
X0145909Y0110118D01*
X0133508Y0110118D01*
X0132917Y0109528D01*
X0128336Y0109534D02*
X0111157Y0109534D01*
X0111157Y0107936D02*
X0128618Y0107936D01*
X0129629Y0106337D02*
X0112287Y0106337D01*
X0113885Y0104738D02*
X0141319Y0104738D01*
X0139721Y0103140D02*
X0115484Y0103140D01*
X0115201Y0098898D02*
X0140004Y0098898D01*
X0149453Y0108346D01*
X0154177Y0108346D01*
X0159098Y0113268D01*
X0174650Y0113268D01*
X0178390Y0109528D01*
X0182971Y0109534D02*
X0200387Y0109534D01*
X0200387Y0107936D02*
X0182689Y0107936D01*
X0181678Y0106337D02*
X0200387Y0106337D01*
X0200387Y0104738D02*
X0171957Y0104738D01*
X0174001Y0106337D02*
X0175102Y0106337D01*
X0170122Y0108937D02*
X0160083Y0108937D01*
X0152996Y0101850D01*
X0148272Y0101850D01*
X0142957Y0096535D01*
X0142957Y0092992D01*
X0139413Y0089449D01*
X0133671Y0083855D02*
X0131883Y0083855D01*
X0131883Y0079255D01*
X0136483Y0079255D01*
X0136483Y0081043D01*
X0133671Y0083855D01*
X0135167Y0082359D02*
X0149444Y0082359D01*
X0148359Y0080761D02*
X0136483Y0080761D01*
X0136483Y0078855D02*
X0131883Y0078855D01*
X0131883Y0079255D01*
X0131483Y0079255D01*
X0131483Y0083855D01*
X0129694Y0083855D01*
X0126883Y0081043D01*
X0126883Y0079255D01*
X0131483Y0079255D01*
X0131483Y0078855D01*
X0131883Y0078855D01*
X0131883Y0074255D01*
X0133671Y0074255D01*
X0136483Y0077067D01*
X0136483Y0078855D01*
X0136483Y0077564D02*
X0146968Y0077564D01*
X0146539Y0075965D02*
X0135381Y0075965D01*
X0133783Y0074367D02*
X0146483Y0074367D01*
X0146483Y0072768D02*
X0130206Y0072768D01*
X0129694Y0074255D02*
X0131483Y0074255D01*
X0131483Y0078855D01*
X0126883Y0078855D01*
X0126883Y0077067D01*
X0129694Y0074255D01*
X0129583Y0074367D02*
X0128608Y0074367D01*
X0128519Y0074455D02*
X0124046Y0074455D01*
X0120883Y0071292D01*
X0120883Y0066818D01*
X0124046Y0063655D01*
X0128519Y0063655D01*
X0131683Y0066818D01*
X0131683Y0071292D01*
X0128519Y0074455D01*
X0127984Y0075965D02*
X0125430Y0075965D01*
X0126283Y0076818D02*
X0123119Y0073655D01*
X0118646Y0073655D01*
X0115483Y0076818D01*
X0115483Y0081292D01*
X0118646Y0084455D01*
X0123119Y0084455D01*
X0126283Y0081292D01*
X0126283Y0076818D01*
X0126283Y0077564D02*
X0126883Y0077564D01*
X0126283Y0079162D02*
X0131483Y0079162D01*
X0131883Y0079162D02*
X0147436Y0079162D01*
X0151042Y0083958D02*
X0123617Y0083958D01*
X0125215Y0082359D02*
X0128199Y0082359D01*
X0126883Y0080761D02*
X0126283Y0080761D01*
X0131483Y0080761D02*
X0131883Y0080761D01*
X0131883Y0082359D02*
X0131483Y0082359D01*
X0131483Y0077564D02*
X0131883Y0077564D01*
X0131883Y0075965D02*
X0131483Y0075965D01*
X0131483Y0074367D02*
X0131883Y0074367D01*
X0123958Y0074367D02*
X0123831Y0074367D01*
X0122359Y0072768D02*
X0119406Y0072768D01*
X0120883Y0071292D02*
X0117719Y0074455D01*
X0113246Y0074455D01*
X0110083Y0071292D01*
X0110083Y0066818D01*
X0113246Y0063655D01*
X0117719Y0063655D01*
X0120883Y0066818D01*
X0120883Y0071292D01*
X0120883Y0071170D02*
X0120883Y0071170D01*
X0120883Y0069571D02*
X0120883Y0069571D01*
X0120883Y0067973D02*
X0120883Y0067973D01*
X0120439Y0066374D02*
X0121327Y0066374D01*
X0122925Y0064776D02*
X0118840Y0064776D01*
X0119346Y0061677D02*
X0118152Y0061677D01*
X0117465Y0061392D01*
X0116778Y0061677D01*
X0115584Y0061677D01*
X0114482Y0061220D01*
X0114257Y0060995D01*
X0114032Y0061220D01*
X0112929Y0061677D01*
X0111736Y0061677D01*
X0110633Y0061220D01*
X0109789Y0060376D01*
X0109332Y0059273D01*
X0109332Y0057118D01*
X0109789Y0056015D01*
X0110633Y0055171D01*
X0111257Y0054547D01*
X0111257Y0052306D01*
X0111713Y0051204D01*
X0112557Y0050360D01*
X0113660Y0049903D01*
X0114853Y0049903D01*
X0115956Y0050360D01*
X0116503Y0050907D01*
X0117049Y0050360D01*
X0118152Y0049903D01*
X0119346Y0049903D01*
X0120448Y0050360D01*
X0120673Y0050585D01*
X0120898Y0050360D01*
X0122001Y0049903D01*
X0123194Y0049903D01*
X0123881Y0050188D01*
X0124569Y0049903D01*
X0125762Y0049903D01*
X0126865Y0050360D01*
X0127090Y0050585D01*
X0127315Y0050360D01*
X0128417Y0049903D01*
X0129611Y0049903D01*
X0130191Y0050143D01*
X0130771Y0049903D01*
X0133889Y0049903D01*
X0134991Y0050360D01*
X0135538Y0050907D01*
X0136085Y0050360D01*
X0136085Y0050360D01*
X0136085Y0050360D01*
X0136287Y0050276D01*
X0137187Y0049903D01*
X0139343Y0049903D01*
X0140446Y0050360D01*
X0141289Y0051204D01*
X0142252Y0052166D01*
X0142708Y0053269D01*
X0142708Y0054462D01*
X0142252Y0055565D01*
X0141408Y0056409D01*
X0140305Y0056865D01*
X0140215Y0056865D01*
X0140327Y0056977D01*
X0140784Y0058080D01*
X0140784Y0059273D01*
X0140327Y0060376D01*
X0139483Y0061220D01*
X0138381Y0061677D01*
X0135263Y0061677D01*
X0134576Y0061392D01*
X0133889Y0061677D01*
X0130771Y0061677D01*
X0130191Y0061436D01*
X0129611Y0061677D01*
X0128417Y0061677D01*
X0128404Y0061671D01*
X0127315Y0061220D01*
X0127090Y0060995D01*
X0126865Y0061220D01*
X0125762Y0061677D01*
X0124569Y0061677D01*
X0123881Y0061392D01*
X0123194Y0061677D01*
X0122001Y0061677D01*
X0121988Y0061671D01*
X0120898Y0061220D01*
X0120673Y0060995D01*
X0120448Y0061220D01*
X0119346Y0061677D01*
X0119582Y0061579D02*
X0121765Y0061579D01*
X0123431Y0061579D02*
X0124332Y0061579D01*
X0125998Y0061579D02*
X0128181Y0061579D01*
X0129847Y0061579D02*
X0130534Y0061579D01*
X0129640Y0064776D02*
X0150419Y0064776D01*
X0148922Y0066374D02*
X0131239Y0066374D01*
X0131683Y0067973D02*
X0147999Y0067973D01*
X0147229Y0069571D02*
X0131683Y0069571D01*
X0131683Y0071170D02*
X0146801Y0071170D01*
X0152424Y0063177D02*
X0067742Y0063177D01*
X0069747Y0064776D02*
X0090525Y0064776D01*
X0091646Y0063655D02*
X0096119Y0063655D01*
X0099283Y0066818D01*
X0102446Y0063655D01*
X0106919Y0063655D01*
X0110083Y0066818D01*
X0110083Y0071292D01*
X0106919Y0074455D01*
X0102446Y0074455D01*
X0099283Y0071292D01*
X0099283Y0066818D01*
X0099283Y0071292D01*
X0096119Y0074455D01*
X0091646Y0074455D01*
X0088483Y0071292D01*
X0088483Y0066818D01*
X0091646Y0063655D01*
X0093212Y0061579D02*
X0089424Y0061579D01*
X0087758Y0061579D02*
X0084932Y0061579D01*
X0091134Y0060376D02*
X0091134Y0060376D01*
X0096803Y0061579D02*
X0099628Y0061579D01*
X0103219Y0061579D02*
X0111499Y0061579D01*
X0113165Y0061579D02*
X0115348Y0061579D01*
X0117014Y0061579D02*
X0117916Y0061579D01*
X0112125Y0064776D02*
X0108040Y0064776D01*
X0109639Y0066374D02*
X0110527Y0066374D01*
X0110083Y0067973D02*
X0110083Y0067973D01*
X0110083Y0069571D02*
X0110083Y0069571D01*
X0110083Y0071170D02*
X0110083Y0071170D01*
X0111559Y0072768D02*
X0108606Y0072768D01*
X0107846Y0073655D02*
X0112319Y0073655D01*
X0115483Y0076818D01*
X0115483Y0081292D01*
X0112319Y0084455D01*
X0107846Y0084455D01*
X0104683Y0081292D01*
X0104683Y0076818D01*
X0107846Y0073655D01*
X0107134Y0074367D02*
X0107008Y0074367D01*
X0105536Y0075965D02*
X0103830Y0075965D01*
X0104683Y0076818D02*
X0101519Y0073655D01*
X0097046Y0073655D01*
X0093883Y0076818D01*
X0093883Y0081292D01*
X0097046Y0084455D01*
X0101519Y0084455D01*
X0104683Y0081292D01*
X0104683Y0076818D01*
X0104683Y0077564D02*
X0104683Y0077564D01*
X0104683Y0079162D02*
X0104683Y0079162D01*
X0104683Y0080761D02*
X0104683Y0080761D01*
X0105750Y0082359D02*
X0103615Y0082359D01*
X0102017Y0083958D02*
X0107349Y0083958D01*
X0112817Y0083958D02*
X0118149Y0083958D01*
X0116550Y0082359D02*
X0114415Y0082359D01*
X0115483Y0080761D02*
X0115483Y0080761D01*
X0115483Y0079162D02*
X0115483Y0079162D01*
X0115483Y0077564D02*
X0115483Y0077564D01*
X0114630Y0075965D02*
X0116336Y0075965D01*
X0117808Y0074367D02*
X0117934Y0074367D01*
X0113158Y0074367D02*
X0113031Y0074367D01*
X0102358Y0074367D02*
X0102231Y0074367D01*
X0100759Y0072768D02*
X0097806Y0072768D01*
X0096334Y0074367D02*
X0096208Y0074367D01*
X0094736Y0075965D02*
X0093030Y0075965D01*
X0093883Y0076818D02*
X0090719Y0073655D01*
X0086246Y0073655D01*
X0083083Y0076818D01*
X0083083Y0081292D01*
X0086246Y0084455D01*
X0090719Y0084455D01*
X0093883Y0081292D01*
X0093883Y0076818D01*
X0093883Y0077564D02*
X0093883Y0077564D01*
X0093883Y0079162D02*
X0093883Y0079162D01*
X0093883Y0080761D02*
X0093883Y0080761D01*
X0094950Y0082359D02*
X0092815Y0082359D01*
X0091217Y0083958D02*
X0096549Y0083958D01*
X0085749Y0083958D02*
X0069123Y0083958D01*
X0070722Y0082359D02*
X0084150Y0082359D01*
X0083083Y0080761D02*
X0071807Y0080761D01*
X0072730Y0079162D02*
X0083083Y0079162D01*
X0083083Y0077564D02*
X0073198Y0077564D01*
X0073626Y0075965D02*
X0083936Y0075965D01*
X0085534Y0074367D02*
X0073683Y0074367D01*
X0073683Y0072768D02*
X0089959Y0072768D01*
X0091431Y0074367D02*
X0091558Y0074367D01*
X0088483Y0071170D02*
X0073365Y0071170D01*
X0072936Y0069571D02*
X0088483Y0069571D01*
X0088483Y0067973D02*
X0072167Y0067973D01*
X0071244Y0066374D02*
X0088927Y0066374D01*
X0097240Y0064776D02*
X0101325Y0064776D01*
X0099727Y0066374D02*
X0098839Y0066374D01*
X0099283Y0067973D02*
X0099283Y0067973D01*
X0099283Y0069571D02*
X0099283Y0069571D01*
X0099283Y0071170D02*
X0099283Y0071170D01*
X0104085Y0061220D02*
X0104085Y0061220D01*
X0104929Y0060376D02*
X0104929Y0060376D01*
X0105325Y0059980D02*
X0109625Y0059980D01*
X0109332Y0058382D02*
X0106319Y0058382D01*
X0106210Y0056783D02*
X0109471Y0056783D01*
X0110619Y0055185D02*
X0105309Y0055185D01*
X0106312Y0053586D02*
X0111257Y0053586D01*
X0111389Y0051988D02*
X0106216Y0051988D01*
X0105077Y0050389D02*
X0112528Y0050389D01*
X0115985Y0050389D02*
X0117020Y0050389D01*
X0120477Y0050389D02*
X0120869Y0050389D01*
X0126894Y0050389D02*
X0127286Y0050389D01*
X0135020Y0050389D02*
X0136055Y0050389D01*
X0140475Y0050389D02*
X0170859Y0050389D01*
X0170859Y0051988D02*
X0142073Y0051988D01*
X0142708Y0053586D02*
X0170859Y0053586D01*
X0170859Y0055185D02*
X0142409Y0055185D01*
X0140504Y0056783D02*
X0170859Y0056783D01*
X0170859Y0058382D02*
X0140784Y0058382D01*
X0140491Y0059980D02*
X0170859Y0059980D01*
X0170859Y0061579D02*
X0162662Y0061579D01*
X0166342Y0063177D02*
X0170859Y0063177D01*
X0170859Y0064776D02*
X0168347Y0064776D01*
X0169844Y0066374D02*
X0170859Y0066374D01*
X0170838Y0067973D02*
X0170767Y0067973D01*
X0172283Y0072768D02*
X0172532Y0072768D01*
X0172283Y0074367D02*
X0173531Y0074367D01*
X0174526Y0075965D02*
X0172226Y0075965D01*
X0171798Y0077564D02*
X0175900Y0077564D01*
X0179330Y0079162D02*
X0171330Y0079162D01*
X0170407Y0080761D02*
X0185103Y0080761D01*
X0190875Y0082359D02*
X0169322Y0082359D01*
X0167723Y0083958D02*
X0196647Y0083958D01*
X0200373Y0085556D02*
X0165262Y0085556D01*
X0153503Y0085556D02*
X0066662Y0085556D01*
X0057418Y0093549D02*
X0123710Y0093549D01*
X0124460Y0095147D02*
X0057970Y0095147D01*
X0043392Y0088753D02*
X0041761Y0088753D01*
X0041761Y0087155D02*
X0128914Y0087155D01*
X0155614Y0099943D02*
X0200387Y0099943D01*
X0200387Y0101541D02*
X0157213Y0101541D01*
X0158811Y0103140D02*
X0200387Y0103140D01*
X0200387Y0111133D02*
X0191198Y0111133D01*
X0192167Y0112731D02*
X0200387Y0112731D01*
X0200387Y0114330D02*
X0192420Y0114330D01*
X0192103Y0115928D02*
X0200387Y0115928D01*
X0200387Y0117527D02*
X0191043Y0117527D01*
X0187839Y0114252D02*
X0179571Y0114252D01*
X0177799Y0116024D01*
X0157720Y0116024D01*
X0146044Y0114330D02*
X0111157Y0114330D01*
X0111157Y0112731D02*
X0129642Y0112731D01*
X0128624Y0111133D02*
X0111157Y0111133D01*
X0104757Y0111133D02*
X0056082Y0111133D01*
X0057680Y0112731D02*
X0104757Y0112731D01*
X0104757Y0114330D02*
X0058574Y0114330D01*
X0059236Y0115928D02*
X0104757Y0115928D01*
X0104757Y0117527D02*
X0059404Y0117527D01*
X0059404Y0119125D02*
X0104757Y0119125D01*
X0104757Y0120724D02*
X0059024Y0120724D01*
X0058362Y0122322D02*
X0104757Y0122322D01*
X0104757Y0123921D02*
X0057171Y0123921D01*
X0055506Y0125519D02*
X0101446Y0125519D01*
X0114727Y0133512D02*
X0162702Y0133512D01*
X0160938Y0135110D02*
X0114058Y0135110D01*
X0115585Y0136709D02*
X0159175Y0136709D01*
X0157412Y0138307D02*
X0116247Y0138307D01*
X0116357Y0139906D02*
X0155648Y0139906D01*
X0153885Y0141504D02*
X0116032Y0141504D01*
X0115136Y0143103D02*
X0152121Y0143103D01*
X0150247Y0144701D02*
X0112862Y0144701D01*
X0114399Y0146300D02*
X0118004Y0146300D01*
X0116663Y0147898D02*
X0115436Y0147898D01*
X0115862Y0131913D02*
X0198991Y0131913D01*
X0200069Y0130315D02*
X0116357Y0130315D01*
X0116357Y0128716D02*
X0200387Y0128716D01*
X0200387Y0127118D02*
X0115754Y0127118D01*
X0136205Y0106337D02*
X0142918Y0106337D01*
X0160410Y0104738D02*
X0168287Y0104738D01*
X0180822Y0117527D02*
X0184635Y0117527D01*
X0178674Y0119125D02*
X0200387Y0119125D01*
X0230409Y0119125D02*
X0256092Y0119125D01*
X0256092Y0118633D02*
X0256092Y0120281D01*
X0256790Y0121965D01*
X0258078Y0123254D01*
X0259762Y0123951D01*
X0261584Y0123951D01*
X0263268Y0123254D01*
X0264557Y0121965D01*
X0264714Y0121586D01*
X0324702Y0121586D01*
X0335043Y0131927D01*
X0331839Y0132115D01*
X0232934Y0132115D01*
X0232636Y0132086D01*
X0232500Y0132045D01*
X0232376Y0131978D01*
X0232144Y0131788D01*
X0230736Y0130380D01*
X0230546Y0130148D01*
X0230479Y0130023D01*
X0230438Y0129888D01*
X0230409Y0129590D01*
X0230409Y0066910D01*
X0230452Y0066772D01*
X0230409Y0066278D01*
X0230409Y0065781D01*
X0230380Y0065710D01*
X0230405Y0065520D01*
X0230312Y0065176D01*
X0230281Y0064821D01*
X0230153Y0064574D01*
X0230140Y0064295D01*
X0229990Y0063972D01*
X0229897Y0063628D01*
X0229728Y0063407D01*
X0229668Y0063135D01*
X0229463Y0062843D01*
X0229384Y0062672D01*
X0231273Y0061890D01*
X0232783Y0060380D01*
X0233232Y0059296D01*
X0233681Y0060380D01*
X0235191Y0061890D01*
X0237164Y0062707D01*
X0239300Y0062707D01*
X0241273Y0061890D01*
X0242783Y0060380D01*
X0243232Y0059296D01*
X0243681Y0060380D01*
X0245191Y0061890D01*
X0247164Y0062707D01*
X0249300Y0062707D01*
X0251273Y0061890D01*
X0252783Y0060380D01*
X0253581Y0058454D01*
X0253581Y0058455D01*
X0253813Y0059169D01*
X0254154Y0059838D01*
X0254595Y0060445D01*
X0255126Y0060976D01*
X0255733Y0061417D01*
X0256402Y0061758D01*
X0257116Y0061990D01*
X0257857Y0062107D01*
X0258048Y0062107D01*
X0258048Y0054554D01*
X0258417Y0054554D01*
X0263001Y0054554D01*
X0263001Y0057714D01*
X0262883Y0058455D01*
X0262651Y0059169D01*
X0262311Y0059838D01*
X0261869Y0060445D01*
X0261339Y0060976D01*
X0260732Y0061417D01*
X0260063Y0061758D01*
X0259349Y0061990D01*
X0258608Y0062107D01*
X0258417Y0062107D01*
X0258417Y0054554D01*
X0258417Y0054186D01*
X0263001Y0054186D01*
X0263001Y0051026D01*
X0262883Y0050285D01*
X0262651Y0049571D01*
X0262311Y0048902D01*
X0261869Y0048295D01*
X0261339Y0047764D01*
X0260732Y0047323D01*
X0260063Y0046982D01*
X0259349Y0046750D01*
X0258608Y0046633D01*
X0258417Y0046633D01*
X0258417Y0054186D01*
X0258048Y0054186D01*
X0258048Y0046633D01*
X0257857Y0046633D01*
X0257116Y0046750D01*
X0256402Y0046982D01*
X0255733Y0047323D01*
X0255126Y0047764D01*
X0254595Y0048295D01*
X0254154Y0048902D01*
X0253813Y0049571D01*
X0253581Y0050285D01*
X0253581Y0050286D01*
X0252783Y0048361D01*
X0251273Y0046850D01*
X0249621Y0046166D01*
X0276843Y0046166D01*
X0275191Y0046850D01*
X0273681Y0048361D01*
X0272884Y0050286D01*
X0272883Y0050285D01*
X0272651Y0049571D01*
X0272311Y0048902D01*
X0271869Y0048295D01*
X0271339Y0047764D01*
X0270732Y0047323D01*
X0270063Y0046982D01*
X0269349Y0046750D01*
X0268608Y0046633D01*
X0268417Y0046633D01*
X0268417Y0054186D01*
X0268048Y0054186D01*
X0263464Y0054186D01*
X0263464Y0051026D01*
X0263581Y0050285D01*
X0263813Y0049571D01*
X0264154Y0048902D01*
X0264595Y0048295D01*
X0265126Y0047764D01*
X0265733Y0047323D01*
X0266402Y0046982D01*
X0267116Y0046750D01*
X0267857Y0046633D01*
X0268048Y0046633D01*
X0268048Y0054186D01*
X0268048Y0054554D01*
X0263464Y0054554D01*
X0263464Y0057714D01*
X0263581Y0058455D01*
X0263813Y0059169D01*
X0264154Y0059838D01*
X0264595Y0060445D01*
X0265126Y0060976D01*
X0265733Y0061417D01*
X0266402Y0061758D01*
X0267116Y0061990D01*
X0267857Y0062107D01*
X0268048Y0062107D01*
X0268048Y0054554D01*
X0268417Y0054554D01*
X0268417Y0062107D01*
X0268608Y0062107D01*
X0269349Y0061990D01*
X0270063Y0061758D01*
X0270732Y0061417D01*
X0271339Y0060976D01*
X0271869Y0060445D01*
X0272311Y0059838D01*
X0272651Y0059169D01*
X0272883Y0058455D01*
X0272884Y0058454D01*
X0273681Y0060380D01*
X0275191Y0061890D01*
X0277164Y0062707D01*
X0279300Y0062707D01*
X0281273Y0061890D01*
X0282783Y0060380D01*
X0283601Y0058406D01*
X0283601Y0050334D01*
X0282783Y0048361D01*
X0281273Y0046850D01*
X0279621Y0046166D01*
X0296843Y0046166D01*
X0295191Y0046850D01*
X0293681Y0048361D01*
X0292864Y0050334D01*
X0292864Y0058406D01*
X0293681Y0060380D01*
X0295191Y0061890D01*
X0297164Y0062707D01*
X0299300Y0062707D01*
X0301273Y0061890D01*
X0302783Y0060380D01*
X0303232Y0059296D01*
X0303681Y0060380D01*
X0305191Y0061890D01*
X0307164Y0062707D01*
X0309300Y0062707D01*
X0311273Y0061890D01*
X0312783Y0060380D01*
X0313232Y0059296D01*
X0313681Y0060380D01*
X0315191Y0061890D01*
X0317164Y0062707D01*
X0319300Y0062707D01*
X0321273Y0061890D01*
X0322783Y0060380D01*
X0323232Y0059296D01*
X0323681Y0060380D01*
X0325191Y0061890D01*
X0327164Y0062707D01*
X0329300Y0062707D01*
X0331273Y0061890D01*
X0332783Y0060380D01*
X0333232Y0059296D01*
X0333681Y0060380D01*
X0335191Y0061890D01*
X0337164Y0062707D01*
X0339300Y0062707D01*
X0341273Y0061890D01*
X0342783Y0060380D01*
X0343232Y0059296D01*
X0343681Y0060380D01*
X0345191Y0061890D01*
X0347164Y0062707D01*
X0349300Y0062707D01*
X0351273Y0061890D01*
X0352783Y0060380D01*
X0353232Y0059296D01*
X0353681Y0060380D01*
X0355191Y0061890D01*
X0357164Y0062707D01*
X0359300Y0062707D01*
X0361273Y0061890D01*
X0362783Y0060380D01*
X0363232Y0059296D01*
X0363681Y0060380D01*
X0365191Y0061890D01*
X0367164Y0062707D01*
X0369300Y0062707D01*
X0371273Y0061890D01*
X0372783Y0060380D01*
X0373601Y0058406D01*
X0373601Y0050334D01*
X0372783Y0048361D01*
X0371273Y0046850D01*
X0369621Y0046166D01*
X0386843Y0046166D01*
X0385191Y0046850D01*
X0383681Y0048361D01*
X0382864Y0050334D01*
X0382864Y0058406D01*
X0383681Y0060380D01*
X0385191Y0061890D01*
X0387164Y0062707D01*
X0389300Y0062707D01*
X0391273Y0061890D01*
X0392783Y0060380D01*
X0393232Y0059296D01*
X0393681Y0060380D01*
X0395191Y0061890D01*
X0397164Y0062707D01*
X0399300Y0062707D01*
X0401273Y0061890D01*
X0402783Y0060380D01*
X0403232Y0059296D01*
X0403681Y0060380D01*
X0405191Y0061890D01*
X0407164Y0062707D01*
X0409300Y0062707D01*
X0411273Y0061890D01*
X0412783Y0060380D01*
X0413232Y0059296D01*
X0413681Y0060380D01*
X0415191Y0061890D01*
X0417164Y0062707D01*
X0419300Y0062707D01*
X0421273Y0061890D01*
X0422783Y0060380D01*
X0423232Y0059296D01*
X0423681Y0060380D01*
X0425191Y0061890D01*
X0427164Y0062707D01*
X0429300Y0062707D01*
X0431273Y0061890D01*
X0432783Y0060380D01*
X0433232Y0059296D01*
X0433681Y0060380D01*
X0435191Y0061890D01*
X0437164Y0062707D01*
X0439300Y0062707D01*
X0441273Y0061890D01*
X0442783Y0060380D01*
X0443232Y0059296D01*
X0443681Y0060380D01*
X0445191Y0061890D01*
X0447164Y0062707D01*
X0449300Y0062707D01*
X0451273Y0061890D01*
X0452783Y0060380D01*
X0453232Y0059296D01*
X0453681Y0060380D01*
X0455191Y0061890D01*
X0457164Y0062707D01*
X0459300Y0062707D01*
X0461273Y0061890D01*
X0462783Y0060380D01*
X0463601Y0058406D01*
X0463601Y0050334D01*
X0462783Y0048361D01*
X0461273Y0046850D01*
X0459621Y0046166D01*
X0532143Y0046166D01*
X0531980Y0046329D01*
X0530627Y0048672D01*
X0529927Y0051285D01*
X0529927Y0051998D01*
X0529903Y0051941D01*
X0529228Y0051266D01*
X0528346Y0050900D01*
X0527166Y0050900D01*
X0526284Y0051266D01*
X0525609Y0051941D01*
X0525424Y0052387D01*
X0525234Y0052466D01*
X0525084Y0052616D01*
X0525040Y0052660D01*
X0524784Y0052766D01*
X0524590Y0052960D01*
X0524334Y0053066D01*
X0524259Y0053141D01*
X0524109Y0053291D01*
X0524065Y0053335D01*
X0523809Y0053441D01*
X0523677Y0053572D01*
X0522909Y0053891D01*
X0522834Y0053966D01*
X0522834Y0053966D01*
X0522759Y0054041D01*
X0522759Y0054041D01*
X0522715Y0054085D01*
X0522459Y0054191D01*
X0522424Y0054226D01*
X0522304Y0054275D01*
X0522216Y0054275D01*
X0521334Y0054641D01*
X0521140Y0054835D01*
X0520884Y0054941D01*
X0520787Y0055038D01*
X0520781Y0055040D01*
X0520021Y0054725D01*
X0518241Y0054725D01*
X0517879Y0054875D01*
X0517191Y0054875D01*
X0516309Y0055241D01*
X0516287Y0055263D01*
X0516159Y0055316D01*
X0515981Y0055494D01*
X0515653Y0055166D01*
X0515578Y0055091D01*
X0514696Y0054725D01*
X0513666Y0054725D01*
X0512784Y0055091D01*
X0512709Y0055166D01*
X0512034Y0055841D01*
X0512034Y0055841D01*
X0511434Y0056441D01*
X0511328Y0056697D01*
X0511134Y0056891D01*
X0511034Y0057131D01*
X0511021Y0057125D01*
X0510933Y0057125D01*
X0510571Y0056975D01*
X0510333Y0056975D01*
X0509971Y0056825D01*
X0508641Y0056825D01*
X0507759Y0057191D01*
X0507084Y0057866D01*
X0506718Y0058748D01*
X0506718Y0078153D01*
X0507084Y0079035D01*
X0507759Y0079710D01*
X0508641Y0080075D01*
X0528346Y0080075D01*
X0529228Y0079710D01*
X0529903Y0079035D01*
X0530268Y0078153D01*
X0530268Y0055265D01*
X0530627Y0056603D01*
X0531980Y0058946D01*
X0533892Y0060859D01*
X0536235Y0062212D01*
X0538848Y0062912D01*
X0541553Y0062912D01*
X0544166Y0062212D01*
X0546509Y0060859D01*
X0546771Y0060597D01*
X0546771Y0237592D01*
X0546509Y0237330D01*
X0544166Y0235977D01*
X0541553Y0235277D01*
X0538848Y0235277D01*
X0536235Y0235977D01*
X0533892Y0237330D01*
X0531980Y0239243D01*
X0530627Y0241586D01*
X0529927Y0244199D01*
X0529927Y0246904D01*
X0530627Y0249517D01*
X0531972Y0251846D01*
X0441317Y0251846D01*
X0442783Y0250380D01*
X0443601Y0248406D01*
X0443601Y0240334D01*
X0442783Y0238361D01*
X0441432Y0237009D01*
X0441432Y0235459D01*
X0455949Y0220943D01*
X0462089Y0227083D01*
X0463265Y0227570D01*
X0463840Y0227570D01*
X0465191Y0228921D01*
X0466275Y0229370D01*
X0465191Y0229819D01*
X0463681Y0231329D01*
X0462864Y0233302D01*
X0462864Y0235438D01*
X0463681Y0237411D01*
X0465191Y0238921D01*
X0466275Y0239370D01*
X0465191Y0239819D01*
X0463681Y0241329D01*
X0462864Y0243302D01*
X0462864Y0245438D01*
X0463681Y0247411D01*
X0465191Y0248921D01*
X0467164Y0249739D01*
X0469300Y0249739D01*
X0471273Y0248921D01*
X0472783Y0247411D01*
X0473232Y0246328D01*
X0473681Y0247411D01*
X0475191Y0248921D01*
X0477164Y0249739D01*
X0479300Y0249739D01*
X0481273Y0248921D01*
X0482783Y0247411D01*
X0483601Y0245438D01*
X0483601Y0243302D01*
X0482783Y0241329D01*
X0481273Y0239819D01*
X0480190Y0239370D01*
X0481273Y0238921D01*
X0482783Y0237411D01*
X0483601Y0235438D01*
X0483601Y0233302D01*
X0482783Y0231329D01*
X0481273Y0229819D01*
X0480190Y0229370D01*
X0481273Y0228921D01*
X0482783Y0227411D01*
X0483601Y0225438D01*
X0483601Y0223302D01*
X0482783Y0221329D01*
X0481273Y0219819D01*
X0480190Y0219370D01*
X0481273Y0218921D01*
X0482783Y0217411D01*
X0483601Y0215438D01*
X0483601Y0213302D01*
X0482783Y0211329D01*
X0481273Y0209819D01*
X0480190Y0209370D01*
X0481273Y0208921D01*
X0482783Y0207411D01*
X0483601Y0205438D01*
X0483601Y0203302D01*
X0482783Y0201329D01*
X0481273Y0199819D01*
X0480190Y0199370D01*
X0481273Y0198921D01*
X0482783Y0197411D01*
X0483601Y0195438D01*
X0483601Y0193302D01*
X0482783Y0191329D01*
X0481273Y0189819D01*
X0480190Y0189370D01*
X0481273Y0188921D01*
X0482783Y0187411D01*
X0483601Y0185438D01*
X0483601Y0183302D01*
X0482783Y0181329D01*
X0481273Y0179819D01*
X0480190Y0179370D01*
X0481273Y0178921D01*
X0482783Y0177411D01*
X0483601Y0175438D01*
X0483601Y0173302D01*
X0482783Y0171329D01*
X0481273Y0169819D01*
X0480190Y0169370D01*
X0481273Y0168921D01*
X0482783Y0167411D01*
X0483601Y0165438D01*
X0483601Y0163302D01*
X0482783Y0161329D01*
X0481273Y0159819D01*
X0480190Y0159370D01*
X0481273Y0158921D01*
X0482783Y0157411D01*
X0483601Y0155438D01*
X0483601Y0153302D01*
X0482783Y0151329D01*
X0481273Y0149819D01*
X0480190Y0149370D01*
X0481273Y0148921D01*
X0482783Y0147411D01*
X0483601Y0145438D01*
X0483601Y0143302D01*
X0482783Y0141329D01*
X0481273Y0139819D01*
X0480190Y0139370D01*
X0481273Y0138921D01*
X0482783Y0137411D01*
X0483601Y0135438D01*
X0483601Y0133302D01*
X0482783Y0131329D01*
X0481273Y0129819D01*
X0480190Y0129370D01*
X0481273Y0128921D01*
X0482783Y0127411D01*
X0483601Y0125438D01*
X0483601Y0123302D01*
X0482783Y0121329D01*
X0481273Y0119819D01*
X0480190Y0119370D01*
X0481273Y0118921D01*
X0482783Y0117411D01*
X0483601Y0115438D01*
X0483601Y0113302D01*
X0482783Y0111329D01*
X0481273Y0109819D01*
X0480190Y0109370D01*
X0481273Y0108921D01*
X0482783Y0107411D01*
X0483601Y0105438D01*
X0483601Y0103302D01*
X0482783Y0101329D01*
X0481273Y0099819D01*
X0480190Y0099370D01*
X0481273Y0098921D01*
X0482783Y0097411D01*
X0483601Y0095438D01*
X0483601Y0093302D01*
X0482783Y0091329D01*
X0481273Y0089819D01*
X0480190Y0089370D01*
X0481273Y0088921D01*
X0482783Y0087411D01*
X0483601Y0085438D01*
X0483601Y0083302D01*
X0482783Y0081329D01*
X0481273Y0079819D01*
X0479348Y0079021D01*
X0479349Y0079021D01*
X0480063Y0078789D01*
X0480732Y0078448D01*
X0481339Y0078007D01*
X0481869Y0077477D01*
X0482311Y0076869D01*
X0482651Y0076201D01*
X0482883Y0075487D01*
X0483001Y0074745D01*
X0483001Y0074554D01*
X0478417Y0074554D01*
X0478417Y0074186D01*
X0483001Y0074186D01*
X0483001Y0073995D01*
X0482883Y0073253D01*
X0482651Y0072540D01*
X0482311Y0071871D01*
X0481869Y0071264D01*
X0481339Y0070733D01*
X0480732Y0070292D01*
X0480063Y0069951D01*
X0479349Y0069719D01*
X0478707Y0069617D01*
X0488642Y0069617D01*
X0488311Y0069725D01*
X0487638Y0070068D01*
X0487027Y0070512D01*
X0486492Y0071046D01*
X0486048Y0071657D01*
X0485705Y0072331D01*
X0485472Y0073049D01*
X0485354Y0073795D01*
X0485354Y0073973D01*
X0492953Y0073973D01*
X0492953Y0074373D01*
X0485354Y0074373D01*
X0485354Y0074551D01*
X0485472Y0075297D01*
X0485705Y0076016D01*
X0486048Y0076689D01*
X0486492Y0077300D01*
X0487027Y0077834D01*
X0487638Y0078279D01*
X0488311Y0078622D01*
X0488947Y0078828D01*
X0487095Y0079595D01*
X0485576Y0081114D01*
X0484754Y0083099D01*
X0484754Y0085247D01*
X0485576Y0087232D01*
X0487095Y0088751D01*
X0488114Y0089173D01*
X0487095Y0089595D01*
X0485576Y0091114D01*
X0484754Y0093099D01*
X0484754Y0095247D01*
X0485576Y0097232D01*
X0487095Y0098751D01*
X0488114Y0099173D01*
X0487095Y0099595D01*
X0485576Y0101114D01*
X0484754Y0103099D01*
X0484754Y0105247D01*
X0485576Y0107232D01*
X0487095Y0108751D01*
X0488114Y0109173D01*
X0487095Y0109595D01*
X0485576Y0111114D01*
X0484754Y0113099D01*
X0484754Y0115247D01*
X0485576Y0117232D01*
X0487095Y0118751D01*
X0489079Y0119573D01*
X0497228Y0119573D01*
X0499212Y0118751D01*
X0500731Y0117232D01*
X0501554Y0115247D01*
X0501554Y0113099D01*
X0500731Y0111114D01*
X0499212Y0109595D01*
X0498193Y0109173D01*
X0499212Y0108751D01*
X0500731Y0107232D01*
X0501554Y0105247D01*
X0501554Y0103099D01*
X0500731Y0101114D01*
X0499212Y0099595D01*
X0498193Y0099173D01*
X0499212Y0098751D01*
X0500731Y0097232D01*
X0501554Y0095247D01*
X0501554Y0093099D01*
X0500731Y0091114D01*
X0499212Y0089595D01*
X0498193Y0089173D01*
X0499212Y0088751D01*
X0500731Y0087232D01*
X0501554Y0085247D01*
X0501554Y0083099D01*
X0500731Y0081114D01*
X0499212Y0079595D01*
X0497360Y0078828D01*
X0497996Y0078622D01*
X0498669Y0078279D01*
X0499281Y0077834D01*
X0499815Y0077300D01*
X0500259Y0076689D01*
X0500602Y0076016D01*
X0500835Y0075297D01*
X0500954Y0074551D01*
X0500954Y0074373D01*
X0493354Y0074373D01*
X0493354Y0073973D01*
X0500954Y0073973D01*
X0500954Y0073795D01*
X0500835Y0073049D01*
X0500602Y0072331D01*
X0500259Y0071657D01*
X0499815Y0071046D01*
X0499281Y0070512D01*
X0498669Y0070068D01*
X0497996Y0069725D01*
X0497278Y0069491D01*
X0496531Y0069373D01*
X0493354Y0069373D01*
X0493354Y0073973D01*
X0492954Y0073973D01*
X0492954Y0069373D01*
X0489776Y0069373D01*
X0489070Y0069485D01*
X0489927Y0069130D01*
X0495901Y0063156D01*
X0496489Y0063400D01*
X0498637Y0063400D01*
X0500622Y0062578D01*
X0502141Y0061059D01*
X0502963Y0059074D01*
X0502963Y0050926D01*
X0502141Y0048941D01*
X0500622Y0047422D01*
X0498637Y0046600D01*
X0496489Y0046600D01*
X0494504Y0047422D01*
X0492985Y0048941D01*
X0492218Y0050793D01*
X0492011Y0050157D01*
X0491668Y0049484D01*
X0491224Y0048873D01*
X0490690Y0048339D01*
X0490079Y0047895D01*
X0489406Y0047552D01*
X0488687Y0047318D01*
X0487941Y0047200D01*
X0487763Y0047200D01*
X0487763Y0054800D01*
X0487363Y0054800D01*
X0487363Y0047200D01*
X0487185Y0047200D01*
X0486439Y0047318D01*
X0485720Y0047552D01*
X0485047Y0047895D01*
X0484436Y0048339D01*
X0483902Y0048873D01*
X0483458Y0049484D01*
X0483115Y0050157D01*
X0482881Y0050876D01*
X0482763Y0051622D01*
X0482763Y0054800D01*
X0487363Y0054800D01*
X0487363Y0055200D01*
X0482763Y0055200D01*
X0482763Y0058378D01*
X0482881Y0059124D01*
X0483115Y0059843D01*
X0483458Y0060516D01*
X0483902Y0061127D01*
X0484436Y0061661D01*
X0485047Y0062105D01*
X0485720Y0062448D01*
X0486439Y0062682D01*
X0487185Y0062800D01*
X0487206Y0062800D01*
X0486789Y0063217D01*
X0441139Y0063217D01*
X0439963Y0063704D01*
X0439063Y0064605D01*
X0436149Y0067518D01*
X0435682Y0068645D01*
X0434284Y0070044D01*
X0433462Y0072028D01*
X0433462Y0080176D01*
X0434284Y0082161D01*
X0435803Y0083680D01*
X0437788Y0084502D01*
X0439936Y0084502D01*
X0441921Y0083680D01*
X0443440Y0082161D01*
X0444207Y0080309D01*
X0444414Y0080945D01*
X0444757Y0081618D01*
X0445201Y0082229D01*
X0445735Y0082764D01*
X0446346Y0083208D01*
X0447020Y0083551D01*
X0447738Y0083784D01*
X0448484Y0083902D01*
X0448662Y0083902D01*
X0448662Y0076302D01*
X0449062Y0076302D01*
X0453662Y0076302D01*
X0453662Y0079480D01*
X0453544Y0080226D01*
X0453311Y0080945D01*
X0452968Y0081618D01*
X0452523Y0082229D01*
X0451989Y0082764D01*
X0451378Y0083208D01*
X0450705Y0083551D01*
X0449986Y0083784D01*
X0449240Y0083902D01*
X0449062Y0083902D01*
X0449062Y0076302D01*
X0449062Y0075902D01*
X0453662Y0075902D01*
X0453662Y0072725D01*
X0453544Y0071978D01*
X0453311Y0071260D01*
X0452968Y0070587D01*
X0452523Y0069975D01*
X0452165Y0069617D01*
X0467758Y0069617D01*
X0467116Y0069719D01*
X0466402Y0069951D01*
X0465733Y0070292D01*
X0465126Y0070733D01*
X0464595Y0071264D01*
X0464154Y0071871D01*
X0463813Y0072540D01*
X0463581Y0073253D01*
X0463464Y0073995D01*
X0463464Y0074186D01*
X0468048Y0074186D01*
X0468048Y0074554D01*
X0463464Y0074554D01*
X0463464Y0074745D01*
X0463581Y0075487D01*
X0463813Y0076201D01*
X0464154Y0076869D01*
X0464595Y0077477D01*
X0465126Y0078007D01*
X0465733Y0078448D01*
X0466402Y0078789D01*
X0467116Y0079021D01*
X0467117Y0079021D01*
X0465191Y0079819D01*
X0463681Y0081329D01*
X0462864Y0083302D01*
X0462864Y0085438D01*
X0463681Y0087411D01*
X0465191Y0088921D01*
X0466275Y0089370D01*
X0465191Y0089819D01*
X0463681Y0091329D01*
X0462864Y0093302D01*
X0462864Y0095438D01*
X0463681Y0097411D01*
X0465191Y0098921D01*
X0466275Y0099370D01*
X0465191Y0099819D01*
X0463681Y0101329D01*
X0462864Y0103302D01*
X0462864Y0104240D01*
X0459533Y0100909D01*
X0458357Y0100422D01*
X0367911Y0100422D01*
X0366735Y0100909D01*
X0349505Y0118139D01*
X0343918Y0118139D01*
X0332884Y0106755D01*
X0332874Y0106731D01*
X0332442Y0106298D01*
X0332016Y0105859D01*
X0331992Y0105849D01*
X0331981Y0105837D01*
X0332085Y0105880D01*
X0333986Y0105880D01*
X0335742Y0105153D01*
X0337086Y0103809D01*
X0337813Y0102053D01*
X0337813Y0100152D01*
X0337086Y0098396D01*
X0335742Y0097052D01*
X0333986Y0096324D01*
X0332085Y0096324D01*
X0330329Y0097052D01*
X0328985Y0098396D01*
X0328257Y0100152D01*
X0328257Y0102053D01*
X0328985Y0103809D01*
X0330329Y0105153D01*
X0330789Y0105343D01*
X0330187Y0105343D01*
X0329575Y0105334D01*
X0329551Y0105343D01*
X0256668Y0105343D01*
X0255985Y0104660D01*
X0254301Y0103962D01*
X0252479Y0103962D01*
X0250795Y0104660D01*
X0249506Y0105948D01*
X0249195Y0106700D01*
X0248945Y0106399D01*
X0248812Y0106330D01*
X0248706Y0106224D01*
X0248252Y0106036D01*
X0247817Y0105808D01*
X0247668Y0105794D01*
X0247530Y0105737D01*
X0247039Y0105737D01*
X0246549Y0105693D01*
X0246407Y0105737D01*
X0246038Y0105737D01*
X0245355Y0105053D01*
X0243671Y0104356D01*
X0241849Y0104356D01*
X0240165Y0105053D01*
X0238876Y0106342D01*
X0238179Y0108026D01*
X0238179Y0109848D01*
X0238740Y0111203D01*
X0238286Y0111657D01*
X0237588Y0113341D01*
X0237588Y0115163D01*
X0238286Y0116847D01*
X0239574Y0118136D01*
X0241258Y0118833D01*
X0243081Y0118833D01*
X0243563Y0118633D01*
X0256092Y0118633D01*
X0256275Y0120724D02*
X0230409Y0120724D01*
X0230409Y0122322D02*
X0257147Y0122322D01*
X0259688Y0123921D02*
X0230409Y0123921D01*
X0230409Y0125519D02*
X0328635Y0125519D01*
X0327037Y0123921D02*
X0261658Y0123921D01*
X0264200Y0122322D02*
X0325438Y0122322D01*
X0330234Y0127118D02*
X0230409Y0127118D01*
X0230409Y0128716D02*
X0331832Y0128716D01*
X0333431Y0130315D02*
X0230682Y0130315D01*
X0232297Y0131913D02*
X0335029Y0131913D01*
X0338429Y0130787D02*
X0326028Y0118386D01*
X0261657Y0118386D01*
X0260673Y0119370D01*
X0249846Y0112480D02*
X0329571Y0112480D01*
X0341972Y0124882D01*
X0352012Y0124882D01*
X0370319Y0106575D01*
X0455949Y0106575D01*
X0458311Y0108937D01*
X0458311Y0218780D01*
X0463902Y0224370D01*
X0468232Y0224370D01*
X0464094Y0227824D02*
X0449068Y0227824D01*
X0450666Y0226225D02*
X0461231Y0226225D01*
X0459633Y0224627D02*
X0452265Y0224627D01*
X0453863Y0223028D02*
X0458034Y0223028D01*
X0456436Y0221430D02*
X0455462Y0221430D01*
X0454768Y0217598D02*
X0438232Y0234134D01*
X0438232Y0244370D01*
X0443601Y0243809D02*
X0462864Y0243809D01*
X0462864Y0245407D02*
X0443601Y0245407D01*
X0443601Y0247006D02*
X0463513Y0247006D01*
X0464874Y0248605D02*
X0443519Y0248605D01*
X0442857Y0250203D02*
X0531023Y0250203D01*
X0530382Y0248605D02*
X0481590Y0248605D01*
X0482951Y0247006D02*
X0529954Y0247006D01*
X0529927Y0245407D02*
X0483601Y0245407D01*
X0483601Y0243809D02*
X0530031Y0243809D01*
X0530459Y0242210D02*
X0483149Y0242210D01*
X0482066Y0240612D02*
X0531189Y0240612D01*
X0532209Y0239013D02*
X0481051Y0239013D01*
X0482780Y0237415D02*
X0533807Y0237415D01*
X0536836Y0235816D02*
X0483444Y0235816D01*
X0483601Y0234218D02*
X0546771Y0234218D01*
X0546771Y0235816D02*
X0543566Y0235816D01*
X0546594Y0237415D02*
X0546771Y0237415D01*
X0546771Y0232619D02*
X0483318Y0232619D01*
X0482475Y0231021D02*
X0546771Y0231021D01*
X0546771Y0229422D02*
X0480316Y0229422D01*
X0482371Y0227824D02*
X0546771Y0227824D01*
X0546771Y0226225D02*
X0483275Y0226225D01*
X0483601Y0224627D02*
X0546771Y0224627D01*
X0546771Y0223028D02*
X0483487Y0223028D01*
X0482825Y0221430D02*
X0546771Y0221430D01*
X0546771Y0219831D02*
X0481286Y0219831D01*
X0481962Y0218233D02*
X0546771Y0218233D01*
X0546771Y0216634D02*
X0521804Y0216634D01*
X0521309Y0216767D02*
X0517912Y0216767D01*
X0514631Y0215888D01*
X0511689Y0214189D01*
X0509288Y0211788D01*
X0507589Y0208846D01*
X0506710Y0205565D01*
X0506710Y0202169D01*
X0507589Y0198888D01*
X0509288Y0195946D01*
X0511689Y0193544D01*
X0514631Y0191846D01*
X0517912Y0190967D01*
X0521309Y0190967D01*
X0524589Y0191846D01*
X0527531Y0193544D01*
X0529933Y0195946D01*
X0531631Y0198888D01*
X0532510Y0202169D01*
X0532510Y0205565D01*
X0531631Y0208846D01*
X0529933Y0211788D01*
X0527531Y0214189D01*
X0524589Y0215888D01*
X0521309Y0216767D01*
X0517417Y0216634D02*
X0483105Y0216634D01*
X0483601Y0215036D02*
X0513155Y0215036D01*
X0510937Y0213437D02*
X0483601Y0213437D01*
X0482995Y0211839D02*
X0509339Y0211839D01*
X0508394Y0210240D02*
X0481695Y0210240D01*
X0481553Y0208642D02*
X0507535Y0208642D01*
X0507106Y0207043D02*
X0482936Y0207043D01*
X0483598Y0205445D02*
X0506710Y0205445D01*
X0506710Y0203846D02*
X0483601Y0203846D01*
X0483164Y0202248D02*
X0506710Y0202248D01*
X0507117Y0200649D02*
X0482104Y0200649D01*
X0480961Y0199051D02*
X0507546Y0199051D01*
X0508418Y0197452D02*
X0482742Y0197452D01*
X0483429Y0195854D02*
X0509380Y0195854D01*
X0510979Y0194255D02*
X0483601Y0194255D01*
X0483333Y0192657D02*
X0513227Y0192657D01*
X0517572Y0191058D02*
X0482513Y0191058D01*
X0480406Y0189460D02*
X0546771Y0189460D01*
X0546771Y0191058D02*
X0521649Y0191058D01*
X0525993Y0192657D02*
X0546771Y0192657D01*
X0546771Y0194255D02*
X0528242Y0194255D01*
X0529840Y0195854D02*
X0546771Y0195854D01*
X0546771Y0197452D02*
X0530802Y0197452D01*
X0531675Y0199051D02*
X0546771Y0199051D01*
X0546771Y0200649D02*
X0532103Y0200649D01*
X0532510Y0202248D02*
X0546771Y0202248D01*
X0546771Y0203846D02*
X0532510Y0203846D01*
X0532510Y0205445D02*
X0546771Y0205445D01*
X0546771Y0207043D02*
X0532114Y0207043D01*
X0531686Y0208642D02*
X0546771Y0208642D01*
X0546771Y0210240D02*
X0530826Y0210240D01*
X0529882Y0211839D02*
X0546771Y0211839D01*
X0546771Y0213437D02*
X0528283Y0213437D01*
X0526065Y0215036D02*
X0546771Y0215036D01*
X0546771Y0187861D02*
X0482333Y0187861D01*
X0483259Y0186263D02*
X0546771Y0186263D01*
X0546771Y0184664D02*
X0483601Y0184664D01*
X0483503Y0183066D02*
X0546771Y0183066D01*
X0546771Y0181467D02*
X0516947Y0181467D01*
X0516847Y0181567D02*
X0512373Y0181567D01*
X0509210Y0178404D01*
X0509210Y0173930D01*
X0512373Y0170767D01*
X0516847Y0170767D01*
X0520010Y0173930D01*
X0520010Y0178404D01*
X0516847Y0181567D01*
X0518545Y0179869D02*
X0546771Y0179869D01*
X0546771Y0178270D02*
X0520010Y0178270D01*
X0520010Y0176671D02*
X0546771Y0176671D01*
X0546771Y0175073D02*
X0527941Y0175073D01*
X0526847Y0176167D02*
X0530010Y0173004D01*
X0530010Y0168530D01*
X0526847Y0165367D01*
X0522373Y0165367D01*
X0519210Y0168530D01*
X0519210Y0173004D01*
X0522373Y0176167D01*
X0526847Y0176167D01*
X0529539Y0173474D02*
X0546771Y0173474D01*
X0546771Y0171876D02*
X0530010Y0171876D01*
X0530010Y0170277D02*
X0546771Y0170277D01*
X0546771Y0168679D02*
X0530010Y0168679D01*
X0528560Y0167080D02*
X0546771Y0167080D01*
X0546771Y0165482D02*
X0526962Y0165482D01*
X0526847Y0165367D02*
X0522373Y0165367D01*
X0519210Y0162204D01*
X0519210Y0157730D01*
X0522373Y0154567D01*
X0519210Y0151404D01*
X0519210Y0146930D01*
X0522373Y0143767D01*
X0526847Y0143767D01*
X0530010Y0146930D01*
X0530010Y0151404D01*
X0526847Y0154567D01*
X0530010Y0157730D01*
X0530010Y0162204D01*
X0526847Y0165367D01*
X0528330Y0163883D02*
X0546771Y0163883D01*
X0546771Y0162285D02*
X0529929Y0162285D01*
X0530010Y0160686D02*
X0546771Y0160686D01*
X0546771Y0159088D02*
X0530010Y0159088D01*
X0529769Y0157489D02*
X0546771Y0157489D01*
X0546771Y0155891D02*
X0528171Y0155891D01*
X0526847Y0154567D02*
X0522373Y0154567D01*
X0526847Y0154567D01*
X0527122Y0154292D02*
X0546771Y0154292D01*
X0546771Y0152694D02*
X0528720Y0152694D01*
X0530010Y0151095D02*
X0546771Y0151095D01*
X0546771Y0149497D02*
X0530010Y0149497D01*
X0530010Y0147898D02*
X0546771Y0147898D01*
X0546771Y0146300D02*
X0529380Y0146300D01*
X0527781Y0144701D02*
X0546771Y0144701D01*
X0546771Y0143103D02*
X0526663Y0143103D01*
X0526598Y0143167D02*
X0524810Y0143167D01*
X0524810Y0138567D01*
X0524410Y0138567D01*
X0524410Y0138167D01*
X0519810Y0138167D01*
X0519810Y0136379D01*
X0522622Y0133567D01*
X0524410Y0133567D01*
X0524410Y0138167D01*
X0524810Y0138167D01*
X0524810Y0133567D01*
X0526598Y0133567D01*
X0529410Y0136379D01*
X0529410Y0138167D01*
X0524810Y0138167D01*
X0524810Y0138567D01*
X0529410Y0138567D01*
X0529410Y0140355D01*
X0526598Y0143167D01*
X0524810Y0143103D02*
X0524410Y0143103D01*
X0524410Y0143167D02*
X0522622Y0143167D01*
X0519810Y0140355D01*
X0519810Y0138567D01*
X0524410Y0138567D01*
X0524410Y0143167D01*
X0524410Y0141504D02*
X0524810Y0141504D01*
X0524810Y0139906D02*
X0524410Y0139906D01*
X0524410Y0138307D02*
X0516907Y0138307D01*
X0516847Y0138367D02*
X0512373Y0138367D01*
X0516847Y0138367D01*
X0520010Y0141530D01*
X0520010Y0146004D01*
X0516847Y0149167D01*
X0520010Y0152330D01*
X0520010Y0156804D01*
X0516847Y0159967D01*
X0520010Y0163130D01*
X0520010Y0167604D01*
X0516847Y0170767D01*
X0512373Y0170767D01*
X0509210Y0167604D01*
X0509210Y0163130D01*
X0512373Y0159967D01*
X0516847Y0159967D01*
X0512373Y0159967D01*
X0509210Y0156804D01*
X0509210Y0152330D01*
X0512373Y0149167D01*
X0516847Y0149167D01*
X0512373Y0149167D01*
X0509210Y0146004D01*
X0509210Y0141530D01*
X0512373Y0138367D01*
X0509210Y0135204D01*
X0509210Y0130730D01*
X0512373Y0127567D01*
X0516847Y0127567D01*
X0520010Y0130730D01*
X0520010Y0135204D01*
X0516847Y0138367D01*
X0518386Y0139906D02*
X0519810Y0139906D01*
X0519984Y0141504D02*
X0520959Y0141504D01*
X0520010Y0143103D02*
X0522558Y0143103D01*
X0521439Y0144701D02*
X0520010Y0144701D01*
X0519841Y0146300D02*
X0519714Y0146300D01*
X0519210Y0147898D02*
X0518116Y0147898D01*
X0517177Y0149497D02*
X0519210Y0149497D01*
X0519210Y0151095D02*
X0518775Y0151095D01*
X0520010Y0152694D02*
X0520500Y0152694D01*
X0520010Y0154292D02*
X0522099Y0154292D01*
X0521050Y0155891D02*
X0520010Y0155891D01*
X0519451Y0157489D02*
X0519325Y0157489D01*
X0519210Y0159088D02*
X0517726Y0159088D01*
X0517566Y0160686D02*
X0519210Y0160686D01*
X0519165Y0162285D02*
X0519291Y0162285D01*
X0520010Y0163883D02*
X0520890Y0163883D01*
X0520010Y0165482D02*
X0522259Y0165482D01*
X0520660Y0167080D02*
X0520010Y0167080D01*
X0519210Y0168679D02*
X0518935Y0168679D01*
X0519210Y0170277D02*
X0517336Y0170277D01*
X0517956Y0171876D02*
X0519210Y0171876D01*
X0519555Y0173474D02*
X0519681Y0173474D01*
X0520010Y0175073D02*
X0521280Y0175073D01*
X0511264Y0171876D02*
X0483010Y0171876D01*
X0483601Y0173474D02*
X0509666Y0173474D01*
X0509210Y0175073D02*
X0483601Y0175073D01*
X0483090Y0176671D02*
X0509210Y0176671D01*
X0509210Y0178270D02*
X0481925Y0178270D01*
X0481323Y0179869D02*
X0510675Y0179869D01*
X0512274Y0181467D02*
X0482841Y0181467D01*
X0481732Y0170277D02*
X0511884Y0170277D01*
X0510286Y0168679D02*
X0481516Y0168679D01*
X0482920Y0167080D02*
X0509210Y0167080D01*
X0509210Y0165482D02*
X0483583Y0165482D01*
X0483601Y0163883D02*
X0509210Y0163883D01*
X0510056Y0162285D02*
X0483179Y0162285D01*
X0482141Y0160686D02*
X0511654Y0160686D01*
X0511494Y0159088D02*
X0480871Y0159088D01*
X0482705Y0157489D02*
X0509896Y0157489D01*
X0509210Y0155891D02*
X0483413Y0155891D01*
X0483601Y0154292D02*
X0509210Y0154292D01*
X0509210Y0152694D02*
X0483349Y0152694D01*
X0482550Y0151095D02*
X0510445Y0151095D01*
X0512044Y0149497D02*
X0480496Y0149497D01*
X0482296Y0147898D02*
X0511105Y0147898D01*
X0509506Y0146300D02*
X0483244Y0146300D01*
X0483601Y0144701D02*
X0509210Y0144701D01*
X0509210Y0143103D02*
X0483518Y0143103D01*
X0482856Y0141504D02*
X0509236Y0141504D01*
X0510835Y0139906D02*
X0481360Y0139906D01*
X0481887Y0138307D02*
X0512314Y0138307D01*
X0510715Y0136709D02*
X0483074Y0136709D01*
X0483601Y0135110D02*
X0509210Y0135110D01*
X0509210Y0133512D02*
X0483601Y0133512D01*
X0483025Y0131913D02*
X0509210Y0131913D01*
X0509626Y0130315D02*
X0481769Y0130315D01*
X0481478Y0128716D02*
X0511224Y0128716D01*
X0517996Y0128716D02*
X0546771Y0128716D01*
X0546771Y0127118D02*
X0482905Y0127118D01*
X0483567Y0125519D02*
X0546771Y0125519D01*
X0546771Y0123921D02*
X0483601Y0123921D01*
X0483195Y0122322D02*
X0546771Y0122322D01*
X0546771Y0120724D02*
X0482178Y0120724D01*
X0480781Y0119125D02*
X0487998Y0119125D01*
X0485870Y0117527D02*
X0482668Y0117527D01*
X0483398Y0115928D02*
X0485036Y0115928D01*
X0484754Y0114330D02*
X0483601Y0114330D01*
X0483364Y0112731D02*
X0484906Y0112731D01*
X0485568Y0111133D02*
X0482587Y0111133D01*
X0480586Y0109534D02*
X0487243Y0109534D01*
X0486279Y0107936D02*
X0482259Y0107936D01*
X0483228Y0106337D02*
X0485205Y0106337D01*
X0484754Y0104738D02*
X0483601Y0104738D01*
X0483534Y0103140D02*
X0484754Y0103140D01*
X0485399Y0101541D02*
X0482871Y0101541D01*
X0481397Y0099943D02*
X0486747Y0099943D01*
X0486688Y0098344D02*
X0481850Y0098344D01*
X0483059Y0096746D02*
X0485374Y0096746D01*
X0484754Y0095147D02*
X0483601Y0095147D01*
X0483601Y0093549D02*
X0484754Y0093549D01*
X0485229Y0091950D02*
X0483041Y0091950D01*
X0481806Y0090352D02*
X0486338Y0090352D01*
X0487100Y0088753D02*
X0481441Y0088753D01*
X0482890Y0087155D02*
X0485544Y0087155D01*
X0484882Y0085556D02*
X0483552Y0085556D01*
X0483601Y0083958D02*
X0484754Y0083958D01*
X0485060Y0082359D02*
X0483210Y0082359D01*
X0482215Y0080761D02*
X0485929Y0080761D01*
X0488140Y0079162D02*
X0479688Y0079162D01*
X0477117Y0079021D02*
X0477116Y0079021D01*
X0476402Y0078789D01*
X0475733Y0078448D01*
X0475126Y0078007D01*
X0474595Y0077477D01*
X0474154Y0076869D01*
X0473813Y0076201D01*
X0473581Y0075487D01*
X0473464Y0074745D01*
X0473464Y0074554D01*
X0478048Y0074554D01*
X0478048Y0074186D01*
X0473464Y0074186D01*
X0473464Y0073995D01*
X0473581Y0073253D01*
X0473813Y0072540D01*
X0474154Y0071871D01*
X0474595Y0071264D01*
X0475126Y0070733D01*
X0475733Y0070292D01*
X0476402Y0069951D01*
X0477116Y0069719D01*
X0477758Y0069617D01*
X0468707Y0069617D01*
X0469349Y0069719D01*
X0470063Y0069951D01*
X0470732Y0070292D01*
X0471339Y0070733D01*
X0471869Y0071264D01*
X0472311Y0071871D01*
X0472651Y0072540D01*
X0472883Y0073253D01*
X0473001Y0073995D01*
X0473001Y0074186D01*
X0468417Y0074186D01*
X0468417Y0074554D01*
X0473001Y0074554D01*
X0473001Y0074745D01*
X0472883Y0075487D01*
X0472651Y0076201D01*
X0472311Y0076869D01*
X0471869Y0077477D01*
X0471339Y0078007D01*
X0470732Y0078448D01*
X0470063Y0078789D01*
X0469349Y0079021D01*
X0469348Y0079021D01*
X0471273Y0079819D01*
X0472783Y0081329D01*
X0473232Y0082413D01*
X0473681Y0081329D01*
X0475191Y0079819D01*
X0477117Y0079021D01*
X0476776Y0079162D02*
X0469688Y0079162D01*
X0471782Y0077564D02*
X0474682Y0077564D01*
X0473737Y0075965D02*
X0472728Y0075965D01*
X0472726Y0072768D02*
X0473739Y0072768D01*
X0474689Y0071170D02*
X0471776Y0071170D01*
X0464689Y0071170D02*
X0453265Y0071170D01*
X0453662Y0072768D02*
X0463739Y0072768D01*
X0463737Y0075965D02*
X0449062Y0075965D01*
X0448862Y0076102D02*
X0466500Y0076102D01*
X0468232Y0074370D01*
X0478232Y0074370D01*
X0478048Y0074367D02*
X0468417Y0074367D01*
X0468048Y0074367D02*
X0453662Y0074367D01*
X0453662Y0077564D02*
X0464682Y0077564D01*
X0466776Y0079162D02*
X0453662Y0079162D01*
X0453370Y0080761D02*
X0464249Y0080761D01*
X0463254Y0082359D02*
X0452393Y0082359D01*
X0449062Y0082359D02*
X0448662Y0082359D01*
X0448662Y0080761D02*
X0449062Y0080761D01*
X0449062Y0079162D02*
X0448662Y0079162D01*
X0448662Y0077564D02*
X0449062Y0077564D01*
X0444354Y0080761D02*
X0444020Y0080761D01*
X0443242Y0082359D02*
X0445331Y0082359D01*
X0441251Y0083958D02*
X0462864Y0083958D01*
X0462913Y0085556D02*
X0334768Y0085556D01*
X0333986Y0085880D02*
X0335742Y0085153D01*
X0337086Y0083809D01*
X0337813Y0082053D01*
X0337813Y0080152D01*
X0337086Y0078396D01*
X0335742Y0077052D01*
X0333986Y0076324D01*
X0332085Y0076324D01*
X0330329Y0077052D01*
X0328985Y0078396D01*
X0328257Y0080152D01*
X0328257Y0082053D01*
X0328985Y0083809D01*
X0330329Y0085153D01*
X0332085Y0085880D01*
X0333986Y0085880D01*
X0334014Y0087027D02*
X0334639Y0087230D01*
X0335225Y0087529D01*
X0335757Y0087916D01*
X0336222Y0088381D01*
X0336609Y0088913D01*
X0336907Y0089499D01*
X0337110Y0090124D01*
X0337213Y0090774D01*
X0337213Y0091102D01*
X0333036Y0091102D01*
X0333036Y0091102D01*
X0333035Y0091102D02*
X0333035Y0086924D01*
X0333035Y0091102D01*
X0328857Y0091102D01*
X0328857Y0090774D01*
X0328960Y0090124D01*
X0329164Y0089499D01*
X0329462Y0088913D01*
X0329849Y0088381D01*
X0330314Y0087916D01*
X0330846Y0087529D01*
X0331432Y0087230D01*
X0332057Y0087027D01*
X0332707Y0086924D01*
X0333035Y0086924D01*
X0333364Y0086924D01*
X0334014Y0087027D01*
X0334406Y0087155D02*
X0463575Y0087155D01*
X0465023Y0088753D02*
X0336493Y0088753D01*
X0337147Y0090352D02*
X0464658Y0090352D01*
X0463424Y0091950D02*
X0337131Y0091950D01*
X0337110Y0092081D02*
X0336907Y0092706D01*
X0336609Y0093292D01*
X0336222Y0093824D01*
X0335757Y0094289D01*
X0335225Y0094676D01*
X0334639Y0094974D01*
X0334014Y0095177D01*
X0333364Y0095280D01*
X0333035Y0095280D01*
X0332707Y0095280D01*
X0332057Y0095177D01*
X0331432Y0094974D01*
X0330846Y0094676D01*
X0330314Y0094289D01*
X0329849Y0093824D01*
X0329462Y0093292D01*
X0329164Y0092706D01*
X0328960Y0092081D01*
X0328857Y0091431D01*
X0328857Y0091102D01*
X0333035Y0091102D01*
X0333035Y0091102D01*
X0333035Y0091102D01*
X0344335Y0102402D01*
X0344335Y0106575D01*
X0346106Y0108346D01*
X0346106Y0116024D01*
X0345516Y0116614D01*
X0343325Y0117527D02*
X0350117Y0117527D01*
X0351716Y0115928D02*
X0341775Y0115928D01*
X0340226Y0114330D02*
X0353314Y0114330D01*
X0354913Y0112731D02*
X0338677Y0112731D01*
X0337127Y0111133D02*
X0356511Y0111133D01*
X0358110Y0109534D02*
X0335578Y0109534D01*
X0334029Y0107936D02*
X0359708Y0107936D01*
X0361307Y0106337D02*
X0332481Y0106337D01*
X0329915Y0104738D02*
X0256064Y0104738D01*
X0253390Y0108543D02*
X0330161Y0108543D01*
X0342563Y0121339D01*
X0350831Y0121339D01*
X0368547Y0103622D01*
X0457720Y0103622D01*
X0461854Y0107756D01*
X0461854Y0217598D01*
X0463626Y0219370D01*
X0474256Y0219370D01*
X0478232Y0223346D01*
X0478232Y0224370D01*
X0466149Y0229422D02*
X0447469Y0229422D01*
X0445871Y0231021D02*
X0463989Y0231021D01*
X0463147Y0232619D02*
X0444272Y0232619D01*
X0442674Y0234218D02*
X0462864Y0234218D01*
X0463021Y0235816D02*
X0441432Y0235816D01*
X0441838Y0237415D02*
X0463685Y0237415D01*
X0465414Y0239013D02*
X0443054Y0239013D01*
X0443601Y0240612D02*
X0464398Y0240612D01*
X0463316Y0242210D02*
X0443601Y0242210D01*
X0428232Y0244370D02*
X0428232Y0239409D01*
X0451224Y0216417D01*
X0451224Y0142008D01*
X0442957Y0133740D01*
X0429965Y0133740D01*
X0425763Y0131913D02*
X0424897Y0131913D01*
X0424897Y0132415D02*
X0425383Y0132901D01*
X0425383Y0132829D01*
X0426081Y0131145D01*
X0427370Y0129856D01*
X0427874Y0129647D01*
X0427746Y0129336D01*
X0427746Y0127514D01*
X0428443Y0125830D01*
X0429732Y0124542D01*
X0431416Y0123844D01*
X0433238Y0123844D01*
X0433462Y0123937D01*
X0433462Y0117028D01*
X0434284Y0115044D01*
X0435803Y0113524D01*
X0437788Y0112702D01*
X0439936Y0112702D01*
X0441921Y0113524D01*
X0443440Y0115044D01*
X0444207Y0116896D01*
X0444414Y0116260D01*
X0444757Y0115587D01*
X0445201Y0114975D01*
X0445735Y0114441D01*
X0446346Y0113997D01*
X0447020Y0113654D01*
X0447738Y0113421D01*
X0448484Y0113302D01*
X0448662Y0113302D01*
X0448662Y0120902D01*
X0449062Y0120902D01*
X0449062Y0113302D01*
X0449240Y0113302D01*
X0449986Y0113421D01*
X0450705Y0113654D01*
X0451378Y0113997D01*
X0451989Y0114441D01*
X0452523Y0114975D01*
X0452968Y0115587D01*
X0453311Y0116260D01*
X0453544Y0116978D01*
X0453662Y0117725D01*
X0453662Y0120902D01*
X0449062Y0120902D01*
X0449062Y0121302D01*
X0453662Y0121302D01*
X0453662Y0124480D01*
X0453544Y0125226D01*
X0453311Y0125945D01*
X0452968Y0126618D01*
X0452523Y0127229D01*
X0451989Y0127764D01*
X0451378Y0128208D01*
X0450705Y0128551D01*
X0449986Y0128784D01*
X0449240Y0128902D01*
X0449062Y0128902D01*
X0449062Y0121302D01*
X0448662Y0121302D01*
X0448662Y0128902D01*
X0448550Y0128902D01*
X0455111Y0135464D01*
X0455111Y0110262D01*
X0454623Y0109775D01*
X0418792Y0109775D01*
X0424410Y0115392D01*
X0424897Y0116568D01*
X0424897Y0132415D01*
X0424897Y0130315D02*
X0426911Y0130315D01*
X0427746Y0128716D02*
X0424897Y0128716D01*
X0424897Y0127118D02*
X0427910Y0127118D01*
X0428754Y0125519D02*
X0424897Y0125519D01*
X0424897Y0123921D02*
X0431231Y0123921D01*
X0433423Y0123921D02*
X0433462Y0123921D01*
X0433462Y0122322D02*
X0424897Y0122322D01*
X0424897Y0120724D02*
X0433462Y0120724D01*
X0433462Y0119125D02*
X0424897Y0119125D01*
X0424897Y0117527D02*
X0433462Y0117527D01*
X0433918Y0115928D02*
X0424632Y0115928D01*
X0423347Y0114330D02*
X0434998Y0114330D01*
X0437719Y0112731D02*
X0421749Y0112731D01*
X0420150Y0111133D02*
X0455111Y0111133D01*
X0455111Y0112731D02*
X0440006Y0112731D01*
X0442726Y0114330D02*
X0445889Y0114330D01*
X0444583Y0115928D02*
X0443806Y0115928D01*
X0448662Y0115928D02*
X0449062Y0115928D01*
X0449062Y0114330D02*
X0448662Y0114330D01*
X0451836Y0114330D02*
X0455111Y0114330D01*
X0455111Y0115928D02*
X0453141Y0115928D01*
X0453631Y0117527D02*
X0455111Y0117527D01*
X0455111Y0119125D02*
X0453662Y0119125D01*
X0453662Y0120724D02*
X0455111Y0120724D01*
X0455111Y0122322D02*
X0453662Y0122322D01*
X0453662Y0123921D02*
X0455111Y0123921D01*
X0455111Y0125519D02*
X0453449Y0125519D01*
X0452605Y0127118D02*
X0455111Y0127118D01*
X0455111Y0128716D02*
X0450195Y0128716D01*
X0449062Y0128716D02*
X0448662Y0128716D01*
X0448662Y0127118D02*
X0449062Y0127118D01*
X0449062Y0125519D02*
X0448662Y0125519D01*
X0448662Y0123921D02*
X0449062Y0123921D01*
X0449062Y0122322D02*
X0448662Y0122322D01*
X0448662Y0120724D02*
X0449062Y0120724D01*
X0449062Y0119125D02*
X0448662Y0119125D01*
X0448662Y0117527D02*
X0449062Y0117527D01*
X0449962Y0130315D02*
X0455111Y0130315D01*
X0455111Y0131913D02*
X0451561Y0131913D01*
X0453159Y0133512D02*
X0455111Y0133512D01*
X0455111Y0135110D02*
X0454758Y0135110D01*
X0454768Y0139646D02*
X0454768Y0217598D01*
X0447681Y0215236D02*
X0427406Y0235512D01*
X0422681Y0235512D01*
X0418232Y0239961D01*
X0418232Y0244370D01*
X0412248Y0236496D02*
X0408232Y0240512D01*
X0408232Y0244370D01*
X0407524Y0236496D02*
X0411067Y0232953D01*
X0418154Y0232953D01*
X0421697Y0229409D01*
X0424059Y0229409D01*
X0440594Y0212874D01*
X0440594Y0147913D01*
X0438232Y0145551D01*
X0441776Y0141417D02*
X0444138Y0143780D01*
X0444138Y0214055D01*
X0425240Y0232953D01*
X0421697Y0232953D01*
X0418154Y0236496D01*
X0412248Y0236496D01*
X0407524Y0236496D02*
X0310083Y0236496D01*
X0308232Y0238346D01*
X0308232Y0244370D01*
X0278755Y0236033D02*
X0277472Y0235502D01*
X0276234Y0234264D01*
X0275565Y0232647D01*
X0275565Y0230896D01*
X0276234Y0229279D01*
X0277472Y0228042D01*
X0279089Y0227372D01*
X0280840Y0227372D01*
X0282457Y0228042D01*
X0282987Y0228572D01*
X0343952Y0228572D01*
X0344148Y0228098D01*
X0345386Y0226860D01*
X0347003Y0226191D01*
X0348753Y0226191D01*
X0350370Y0226860D01*
X0351608Y0228098D01*
X0352278Y0229715D01*
X0352278Y0231466D01*
X0351608Y0233083D01*
X0351395Y0233296D01*
X0406198Y0233296D01*
X0408354Y0231140D01*
X0409254Y0230240D01*
X0410430Y0229753D01*
X0416828Y0229753D01*
X0418984Y0227597D01*
X0419884Y0226697D01*
X0421060Y0226209D01*
X0422734Y0226209D01*
X0431940Y0217003D01*
X0419388Y0219732D01*
X0419313Y0219778D01*
X0418769Y0219866D01*
X0418713Y0219878D01*
X0418564Y0219950D01*
X0418326Y0219963D01*
X0418231Y0219983D01*
X0418164Y0219971D01*
X0418100Y0219975D01*
X0418036Y0219985D01*
X0417973Y0220011D01*
X0417876Y0220011D01*
X0417641Y0220049D01*
X0417480Y0220011D01*
X0417423Y0220011D01*
X0416872Y0220040D01*
X0416789Y0220011D01*
X0399864Y0220011D01*
X0399749Y0220049D01*
X0399231Y0220011D01*
X0398809Y0220011D01*
X0398696Y0220031D01*
X0398305Y0219943D01*
X0397904Y0219914D01*
X0397788Y0219855D01*
X0397658Y0219859D01*
X0397283Y0219715D01*
X0396891Y0219627D01*
X0396798Y0219562D01*
X0396416Y0219382D01*
X0395931Y0219196D01*
X0395843Y0219112D01*
X0390866Y0216770D01*
X0390731Y0216752D01*
X0390293Y0216501D01*
X0389837Y0216286D01*
X0389745Y0216185D01*
X0378095Y0209477D01*
X0377989Y0209456D01*
X0377547Y0209162D01*
X0377314Y0209027D01*
X0377174Y0208980D01*
X0376854Y0208699D01*
X0376499Y0208463D01*
X0376417Y0208340D01*
X0376227Y0208150D01*
X0375827Y0207800D01*
X0375785Y0207714D01*
X0375585Y0207550D01*
X0375460Y0207483D01*
X0375325Y0207442D01*
X0375027Y0207413D01*
X0232934Y0207413D01*
X0232636Y0207442D01*
X0232500Y0207483D01*
X0232377Y0207549D01*
X0232377Y0208013D01*
X0232424Y0208168D01*
X0232377Y0208645D01*
X0232377Y0209124D01*
X0232318Y0209266D01*
X0232348Y0209575D01*
X0232255Y0209883D01*
X0232224Y0210203D01*
X0232072Y0210486D01*
X0232031Y0210621D01*
X0232000Y0210941D01*
X0231848Y0211224D01*
X0231755Y0211532D01*
X0231551Y0211780D01*
X0231484Y0211905D01*
X0231391Y0212213D01*
X0231187Y0212461D01*
X0231036Y0212744D01*
X0230796Y0212941D01*
X0230737Y0213084D01*
X0230398Y0213423D01*
X0230094Y0213793D01*
X0229951Y0213870D01*
X0223086Y0220735D01*
X0223010Y0220877D01*
X0222639Y0221181D01*
X0222300Y0221520D01*
X0222158Y0221579D01*
X0221961Y0221819D01*
X0221678Y0221971D01*
X0221429Y0222175D01*
X0221122Y0222268D01*
X0220997Y0222335D01*
X0220749Y0222538D01*
X0220441Y0222632D01*
X0220158Y0222783D01*
X0219838Y0222815D01*
X0219702Y0222856D01*
X0219419Y0223007D01*
X0219099Y0223039D01*
X0218792Y0223132D01*
X0218483Y0223102D01*
X0218340Y0223161D01*
X0217861Y0223161D01*
X0217384Y0223208D01*
X0217229Y0223161D01*
X0205375Y0223161D01*
X0205077Y0223190D01*
X0204941Y0223231D01*
X0204816Y0223298D01*
X0204585Y0223488D01*
X0191951Y0236121D01*
X0192164Y0236033D01*
X0194300Y0236033D01*
X0196273Y0236850D01*
X0197783Y0238361D01*
X0198581Y0240286D01*
X0198581Y0240285D01*
X0198813Y0239571D01*
X0199154Y0238902D01*
X0199595Y0238295D01*
X0200126Y0237764D01*
X0200733Y0237323D01*
X0201402Y0236982D01*
X0202116Y0236750D01*
X0202857Y0236633D01*
X0203048Y0236633D01*
X0203048Y0244186D01*
X0203417Y0244186D01*
X0203417Y0236633D01*
X0203608Y0236633D01*
X0204349Y0236750D01*
X0205063Y0236982D01*
X0205732Y0237323D01*
X0206339Y0237764D01*
X0206869Y0238295D01*
X0207311Y0238902D01*
X0207651Y0239571D01*
X0207883Y0240285D01*
X0207884Y0240286D01*
X0208681Y0238361D01*
X0210191Y0236850D01*
X0212164Y0236033D01*
X0214300Y0236033D01*
X0216273Y0236850D01*
X0217783Y0238361D01*
X0218232Y0239444D01*
X0218681Y0238361D01*
X0220191Y0236850D01*
X0222164Y0236033D01*
X0224300Y0236033D01*
X0226273Y0236850D01*
X0227783Y0238361D01*
X0228232Y0239444D01*
X0228681Y0238361D01*
X0230191Y0236850D01*
X0232164Y0236033D01*
X0234300Y0236033D01*
X0236273Y0236850D01*
X0237783Y0238361D01*
X0238232Y0239444D01*
X0238681Y0238361D01*
X0240191Y0236850D01*
X0242164Y0236033D01*
X0244300Y0236033D01*
X0246273Y0236850D01*
X0247783Y0238361D01*
X0248232Y0239444D01*
X0248681Y0238361D01*
X0250191Y0236850D01*
X0252164Y0236033D01*
X0254300Y0236033D01*
X0256273Y0236850D01*
X0257783Y0238361D01*
X0258232Y0239444D01*
X0258681Y0238361D01*
X0260191Y0236850D01*
X0262164Y0236033D01*
X0264300Y0236033D01*
X0266273Y0236850D01*
X0267783Y0238361D01*
X0268601Y0240334D01*
X0268601Y0248406D01*
X0267783Y0250380D01*
X0266317Y0251846D01*
X0275147Y0251846D01*
X0273681Y0250380D01*
X0272864Y0248406D01*
X0272864Y0240334D01*
X0273681Y0238361D01*
X0275191Y0236850D01*
X0277164Y0236033D01*
X0278755Y0236033D01*
X0278232Y0235816D02*
X0192256Y0235816D01*
X0193855Y0234218D02*
X0276215Y0234218D01*
X0275565Y0232619D02*
X0195453Y0232619D01*
X0197052Y0231021D02*
X0275565Y0231021D01*
X0276175Y0229422D02*
X0198650Y0229422D01*
X0200249Y0227824D02*
X0277998Y0227824D01*
X0281931Y0227824D02*
X0344422Y0227824D01*
X0346919Y0226225D02*
X0201847Y0226225D01*
X0203446Y0224627D02*
X0424316Y0224627D01*
X0425915Y0223028D02*
X0219204Y0223028D01*
X0222391Y0221430D02*
X0427513Y0221430D01*
X0429112Y0219831D02*
X0418986Y0219831D01*
X0426283Y0218233D02*
X0430710Y0218233D01*
X0421022Y0226225D02*
X0348837Y0226225D01*
X0351334Y0227824D02*
X0418757Y0227824D01*
X0417158Y0229422D02*
X0352157Y0229422D01*
X0352278Y0231021D02*
X0408473Y0231021D01*
X0406875Y0232619D02*
X0351800Y0232619D01*
X0347878Y0230591D02*
X0346697Y0231772D01*
X0279965Y0231772D01*
X0274627Y0237415D02*
X0266838Y0237415D01*
X0268054Y0239013D02*
X0273411Y0239013D01*
X0272864Y0240612D02*
X0268601Y0240612D01*
X0268601Y0242210D02*
X0272864Y0242210D01*
X0272864Y0243809D02*
X0268601Y0243809D01*
X0268601Y0245407D02*
X0272864Y0245407D01*
X0272864Y0247006D02*
X0268601Y0247006D01*
X0268519Y0248605D02*
X0272946Y0248605D01*
X0273608Y0250203D02*
X0267857Y0250203D01*
X0266362Y0251802D02*
X0275103Y0251802D01*
X0258411Y0239013D02*
X0258054Y0239013D01*
X0256838Y0237415D02*
X0259627Y0237415D01*
X0249627Y0237415D02*
X0246838Y0237415D01*
X0248054Y0239013D02*
X0248411Y0239013D01*
X0239627Y0237415D02*
X0236838Y0237415D01*
X0238054Y0239013D02*
X0238411Y0239013D01*
X0229627Y0237415D02*
X0226838Y0237415D01*
X0228054Y0239013D02*
X0228411Y0239013D01*
X0219627Y0237415D02*
X0216838Y0237415D01*
X0218054Y0239013D02*
X0218411Y0239013D01*
X0209627Y0237415D02*
X0205858Y0237415D01*
X0207367Y0239013D02*
X0208411Y0239013D01*
X0203417Y0239013D02*
X0203048Y0239013D01*
X0203048Y0237415D02*
X0203417Y0237415D01*
X0200607Y0237415D02*
X0196838Y0237415D01*
X0198054Y0239013D02*
X0199097Y0239013D01*
X0203048Y0240612D02*
X0203417Y0240612D01*
X0203417Y0242210D02*
X0203048Y0242210D01*
X0203048Y0243809D02*
X0203417Y0243809D01*
X0163253Y0224748D02*
X0163321Y0224584D01*
X0163363Y0224412D01*
X0163385Y0224125D01*
X0163385Y0214161D01*
X0163350Y0214053D01*
X0163385Y0213607D01*
X0163385Y0213160D01*
X0163402Y0213120D01*
X0163381Y0212989D01*
X0163459Y0212662D01*
X0163486Y0212327D01*
X0163578Y0212146D01*
X0163578Y0211944D01*
X0163707Y0211633D01*
X0163785Y0211306D01*
X0163904Y0211142D01*
X0163936Y0210942D01*
X0164112Y0210655D01*
X0164226Y0210378D01*
X0164011Y0210378D01*
X0162541Y0209769D01*
X0161950Y0209178D01*
X0144116Y0209178D01*
X0138670Y0214624D01*
X0138670Y0218640D01*
X0139577Y0217069D01*
X0141904Y0214742D01*
X0144755Y0213096D01*
X0147934Y0212244D01*
X0151225Y0212244D01*
X0154404Y0213096D01*
X0157255Y0214742D01*
X0159582Y0217069D01*
X0161228Y0219919D01*
X0162080Y0223098D01*
X0162080Y0226012D01*
X0162974Y0225117D01*
X0163161Y0224899D01*
X0163253Y0224748D01*
X0163303Y0224627D02*
X0162080Y0224627D01*
X0162061Y0223028D02*
X0163385Y0223028D01*
X0163385Y0221430D02*
X0161632Y0221430D01*
X0161177Y0219831D02*
X0163385Y0219831D01*
X0163385Y0218233D02*
X0160254Y0218233D01*
X0159147Y0216634D02*
X0163385Y0216634D01*
X0163385Y0215036D02*
X0157549Y0215036D01*
X0154995Y0213437D02*
X0163385Y0213437D01*
X0163621Y0211839D02*
X0141456Y0211839D01*
X0143054Y0210240D02*
X0163679Y0210240D01*
X0164807Y0206378D02*
X0197287Y0206378D01*
X0207327Y0196339D01*
X0207327Y0166811D01*
X0210870Y0163268D01*
X0276421Y0163268D01*
X0280555Y0168386D01*
X0287642Y0168386D01*
X0284529Y0171186D02*
X0280959Y0171186D01*
X0280813Y0171229D01*
X0280407Y0171186D01*
X0279998Y0171186D01*
X0279857Y0171127D01*
X0279705Y0171111D01*
X0279346Y0170916D01*
X0278969Y0170760D01*
X0278861Y0170652D01*
X0278727Y0170578D01*
X0278470Y0170261D01*
X0278181Y0169972D01*
X0278123Y0169831D01*
X0275084Y0166068D01*
X0212030Y0166068D01*
X0210127Y0167971D01*
X0210127Y0192046D01*
X0217864Y0184018D01*
X0217943Y0183870D01*
X0218247Y0183620D01*
X0218520Y0183337D01*
X0218674Y0183270D01*
X0218757Y0183202D01*
X0218936Y0182984D01*
X0219183Y0182852D01*
X0219401Y0182673D01*
X0219670Y0182592D01*
X0219864Y0182488D01*
X0220081Y0182309D01*
X0220351Y0182228D01*
X0220599Y0182095D01*
X0220878Y0182068D01*
X0221089Y0182004D01*
X0221337Y0181871D01*
X0221617Y0181844D01*
X0221886Y0181762D01*
X0222166Y0181790D01*
X0222246Y0181782D01*
X0222377Y0181728D01*
X0222796Y0181728D01*
X0223214Y0181686D01*
X0223349Y0181728D01*
X0371110Y0181728D01*
X0371466Y0181692D01*
X0371677Y0181629D01*
X0371871Y0181525D01*
X0372148Y0181297D01*
X0375357Y0178089D01*
X0375424Y0177964D01*
X0375748Y0177698D01*
X0376044Y0177401D01*
X0376175Y0177347D01*
X0376237Y0177296D01*
X0376416Y0177079D01*
X0376664Y0176946D01*
X0376881Y0176768D01*
X0377150Y0176686D01*
X0377344Y0176582D01*
X0377562Y0176404D01*
X0377831Y0176322D01*
X0378079Y0176190D01*
X0378359Y0176162D01*
X0378569Y0176098D01*
X0378817Y0175966D01*
X0379097Y0175938D01*
X0379366Y0175857D01*
X0379646Y0175884D01*
X0379726Y0175876D01*
X0379857Y0175822D01*
X0380277Y0175822D01*
X0380694Y0175781D01*
X0380830Y0175822D01*
X0394732Y0175822D01*
X0395088Y0175787D01*
X0395299Y0175723D01*
X0395493Y0175619D01*
X0395656Y0175485D01*
X0395669Y0175363D01*
X0395669Y0171145D01*
X0395287Y0171670D01*
X0394753Y0172205D01*
X0394142Y0172649D01*
X0393469Y0172992D01*
X0392750Y0173225D01*
X0392004Y0173343D01*
X0388826Y0173343D01*
X0388826Y0168743D01*
X0388426Y0168743D01*
X0388426Y0168343D01*
X0388826Y0168343D01*
X0388826Y0163743D01*
X0392004Y0163743D01*
X0392750Y0163862D01*
X0393469Y0164095D01*
X0394142Y0164438D01*
X0394753Y0164882D01*
X0395287Y0165416D01*
X0395669Y0165941D01*
X0395669Y0161572D01*
X0394458Y0162782D01*
X0392621Y0163543D01*
X0384631Y0163543D01*
X0382794Y0162782D01*
X0381387Y0161376D01*
X0380626Y0159538D01*
X0380626Y0157549D01*
X0381387Y0155711D01*
X0382794Y0154305D01*
X0384631Y0153543D01*
X0382794Y0152782D01*
X0381387Y0151376D01*
X0380626Y0149538D01*
X0380626Y0147549D01*
X0381387Y0145711D01*
X0382794Y0144305D01*
X0384631Y0143543D01*
X0392621Y0143543D01*
X0394397Y0144279D01*
X0394049Y0143445D01*
X0393963Y0143368D01*
X0393843Y0143290D01*
X0393714Y0143233D01*
X0386388Y0143233D01*
X0386351Y0143247D01*
X0385832Y0143233D01*
X0385313Y0143233D01*
X0385277Y0143218D01*
X0371283Y0142840D01*
X0354498Y0143053D01*
X0354442Y0143075D01*
X0353943Y0143060D01*
X0353444Y0143067D01*
X0353389Y0143044D01*
X0353057Y0143035D01*
X0352400Y0143096D01*
X0352170Y0143145D01*
X0352166Y0143149D01*
X0352108Y0143238D01*
X0352068Y0143338D01*
X0352059Y0143384D01*
X0352074Y0143423D01*
X0352057Y0143905D01*
X0352065Y0144387D01*
X0352037Y0144459D01*
X0352036Y0144509D01*
X0352081Y0144757D01*
X0352016Y0145061D01*
X0352005Y0145372D01*
X0351901Y0145600D01*
X0351854Y0145820D01*
X0351856Y0146072D01*
X0351739Y0146360D01*
X0351674Y0146664D01*
X0351532Y0146871D01*
X0351447Y0147079D01*
X0351405Y0147327D01*
X0351240Y0147591D01*
X0351123Y0147879D01*
X0350946Y0148058D01*
X0350826Y0148248D01*
X0350742Y0148485D01*
X0350533Y0148715D01*
X0350368Y0148979D01*
X0350163Y0149124D01*
X0350012Y0149291D01*
X0349887Y0149509D01*
X0349641Y0149700D01*
X0349432Y0149930D01*
X0349205Y0150038D01*
X0348857Y0150307D01*
X0348508Y0150616D01*
X0348420Y0150647D01*
X0348346Y0150704D01*
X0347896Y0150827D01*
X0346823Y0151196D01*
X0346436Y0151355D01*
X0346233Y0151498D01*
X0345926Y0151565D01*
X0345636Y0151685D01*
X0345387Y0151684D01*
X0345200Y0151726D01*
X0344975Y0151831D01*
X0344662Y0151845D01*
X0344355Y0151913D01*
X0344110Y0151869D01*
X0344102Y0151870D01*
X0344043Y0151894D01*
X0343548Y0151894D01*
X0343054Y0151916D01*
X0342993Y0151894D01*
X0291823Y0151894D01*
X0291823Y0153273D01*
X0291186Y0154809D01*
X0290897Y0155098D01*
X0291186Y0155388D01*
X0291823Y0156924D01*
X0291823Y0158588D01*
X0291186Y0160124D01*
X0290897Y0160413D01*
X0291186Y0160702D01*
X0291823Y0162239D01*
X0291823Y0163903D01*
X0291186Y0165439D01*
X0290897Y0165728D01*
X0291186Y0166017D01*
X0291823Y0167554D01*
X0291823Y0169217D01*
X0291186Y0170754D01*
X0290010Y0171930D01*
X0288473Y0172567D01*
X0286810Y0172567D01*
X0285273Y0171930D01*
X0284529Y0171186D01*
X0285219Y0171876D02*
X0210127Y0171876D01*
X0210127Y0173474D02*
X0395669Y0173474D01*
X0395669Y0171876D02*
X0395082Y0171876D01*
X0395669Y0175073D02*
X0210127Y0175073D01*
X0210127Y0176671D02*
X0377178Y0176671D01*
X0375176Y0178270D02*
X0210127Y0178270D01*
X0210127Y0179869D02*
X0373577Y0179869D01*
X0371942Y0181467D02*
X0210127Y0181467D01*
X0210127Y0183066D02*
X0218869Y0183066D01*
X0217241Y0184664D02*
X0210127Y0184664D01*
X0210127Y0186263D02*
X0215701Y0186263D01*
X0214160Y0187861D02*
X0210127Y0187861D01*
X0210127Y0189460D02*
X0212620Y0189460D01*
X0211079Y0191058D02*
X0210127Y0191058D01*
X0203783Y0194173D02*
X0195516Y0202441D01*
X0174846Y0202441D01*
X0141579Y0202441D01*
X0131736Y0212283D01*
X0131736Y0228228D01*
X0119335Y0240630D01*
X0107524Y0240630D01*
X0100437Y0234134D01*
X0100437Y0219902D01*
X0100280Y0219744D01*
X0094880Y0217250D02*
X0099256Y0212874D01*
X0112248Y0212874D01*
X0149472Y0175650D01*
X0149965Y0175650D01*
X0149965Y0175157D01*
X0153114Y0175157D01*
X0162445Y0165827D01*
X0162445Y0163661D01*
X0166445Y0163617D02*
X0185104Y0163617D01*
X0185826Y0162895D01*
X0185826Y0157396D01*
X0186201Y0156490D01*
X0186188Y0156498D01*
X0185860Y0156551D01*
X0185545Y0156656D01*
X0185348Y0156642D01*
X0185196Y0156709D01*
X0184829Y0156719D01*
X0184467Y0156778D01*
X0184278Y0156733D01*
X0158509Y0157392D01*
X0158475Y0157406D01*
X0157954Y0157406D01*
X0157432Y0157420D01*
X0157398Y0157407D01*
X0155418Y0157407D01*
X0153247Y0158091D01*
X0150910Y0159117D01*
X0148697Y0160391D01*
X0146637Y0161898D01*
X0144752Y0163620D01*
X0143065Y0165537D01*
X0141597Y0167625D01*
X0140545Y0169533D01*
X0140272Y0171588D01*
X0140355Y0171816D01*
X0140342Y0172121D01*
X0140384Y0172423D01*
X0140318Y0172672D01*
X0140316Y0172726D01*
X0140360Y0172979D01*
X0140292Y0173277D01*
X0140279Y0173581D01*
X0140170Y0173815D01*
X0140159Y0173867D01*
X0140156Y0174125D01*
X0140037Y0174405D01*
X0139969Y0174702D01*
X0139821Y0174913D01*
X0139800Y0174962D01*
X0139751Y0175215D01*
X0139584Y0175470D01*
X0139464Y0175750D01*
X0139280Y0175930D01*
X0139216Y0176029D01*
X0139086Y0176323D01*
X0138912Y0176490D01*
X0138780Y0176691D01*
X0138514Y0176871D01*
X0104995Y0208966D01*
X0104972Y0209013D01*
X0104594Y0209350D01*
X0104413Y0209524D01*
X0104297Y0209687D01*
X0104024Y0209858D01*
X0103785Y0210071D01*
X0103776Y0210074D01*
X0111088Y0210074D01*
X0144965Y0176198D01*
X0144965Y0173579D01*
X0147894Y0170650D01*
X0152036Y0170650D01*
X0152849Y0171463D01*
X0158858Y0165454D01*
X0158445Y0164457D01*
X0158445Y0162866D01*
X0159054Y0161396D01*
X0160179Y0160270D01*
X0161649Y0159661D01*
X0163241Y0159661D01*
X0164711Y0160270D01*
X0165836Y0161396D01*
X0166445Y0162866D01*
X0166445Y0163617D01*
X0166204Y0162285D02*
X0185826Y0162285D01*
X0185826Y0160686D02*
X0165127Y0160686D01*
X0159763Y0160686D02*
X0148294Y0160686D01*
X0146213Y0162285D02*
X0158685Y0162285D01*
X0158445Y0163883D02*
X0144520Y0163883D01*
X0143114Y0165482D02*
X0158830Y0165482D01*
X0157231Y0167080D02*
X0141980Y0167080D01*
X0141016Y0168679D02*
X0155633Y0168679D01*
X0154768Y0167598D02*
X0150437Y0167598D01*
X0145319Y0172717D01*
X0145319Y0175079D01*
X0110280Y0210118D01*
X0091382Y0210118D01*
X0084080Y0217420D01*
X0084080Y0229744D01*
X0084280Y0229544D02*
X0084280Y0224944D01*
X0086068Y0224944D01*
X0087007Y0225883D01*
X0087007Y0224343D01*
X0084480Y0221815D01*
X0084480Y0217673D01*
X0087408Y0214744D01*
X0091551Y0214744D01*
X0092496Y0215689D01*
X0092506Y0215664D01*
X0096882Y0211288D01*
X0097239Y0210932D01*
X0053409Y0210722D01*
X0050039Y0212118D01*
X0046111Y0212118D01*
X0042617Y0210671D01*
X0041361Y0210665D01*
X0041361Y0216685D01*
X0043304Y0214742D01*
X0046155Y0213096D01*
X0049334Y0212244D01*
X0052625Y0212244D01*
X0055804Y0213096D01*
X0058655Y0214742D01*
X0060982Y0217069D01*
X0062628Y0219919D01*
X0063480Y0223098D01*
X0063480Y0226390D01*
X0062628Y0229569D01*
X0060982Y0232419D01*
X0058655Y0234747D01*
X0055804Y0236392D01*
X0052625Y0237244D01*
X0049334Y0237244D01*
X0046155Y0236392D01*
X0043304Y0234747D01*
X0041361Y0232803D01*
X0041361Y0252246D01*
X0151574Y0252246D01*
X0151574Y0239751D01*
X0151539Y0239643D01*
X0151574Y0239198D01*
X0151574Y0238751D01*
X0151591Y0238711D01*
X0151570Y0238580D01*
X0151648Y0238253D01*
X0151675Y0237917D01*
X0151767Y0237737D01*
X0151767Y0237534D01*
X0151896Y0237223D01*
X0151936Y0237054D01*
X0151225Y0237244D01*
X0147934Y0237244D01*
X0144755Y0236392D01*
X0141904Y0234747D01*
X0139577Y0232419D01*
X0138136Y0229923D01*
X0137456Y0230602D01*
X0122102Y0245956D01*
X0121073Y0246383D01*
X0097518Y0246383D01*
X0096489Y0245956D01*
X0095701Y0245169D01*
X0087433Y0236901D01*
X0087007Y0235872D01*
X0087007Y0233605D01*
X0086068Y0234544D01*
X0084280Y0234544D01*
X0084280Y0229944D01*
X0083880Y0229944D01*
X0083880Y0234544D01*
X0082091Y0234544D01*
X0079280Y0231732D01*
X0079280Y0229944D01*
X0083879Y0229944D01*
X0083879Y0229544D01*
X0079280Y0229544D01*
X0079280Y0227756D01*
X0082091Y0224944D01*
X0083880Y0224944D01*
X0083880Y0229544D01*
X0084280Y0229544D01*
X0084280Y0229422D02*
X0083880Y0229422D01*
X0083880Y0227824D02*
X0084280Y0227824D01*
X0084280Y0226225D02*
X0083880Y0226225D01*
X0080810Y0226225D02*
X0063480Y0226225D01*
X0063480Y0224627D02*
X0076491Y0224627D01*
X0076608Y0224744D02*
X0073680Y0221815D01*
X0073680Y0217673D01*
X0076608Y0214744D01*
X0080751Y0214744D01*
X0083680Y0217673D01*
X0083680Y0221815D01*
X0080751Y0224744D01*
X0076608Y0224744D01*
X0074893Y0223028D02*
X0063461Y0223028D01*
X0063032Y0221430D02*
X0073680Y0221430D01*
X0073680Y0219831D02*
X0062577Y0219831D01*
X0061654Y0218233D02*
X0073680Y0218233D01*
X0074718Y0216634D02*
X0060547Y0216634D01*
X0058949Y0215036D02*
X0076317Y0215036D01*
X0081042Y0215036D02*
X0087117Y0215036D01*
X0085518Y0216634D02*
X0082641Y0216634D01*
X0083680Y0218233D02*
X0084480Y0218233D01*
X0084480Y0219831D02*
X0083680Y0219831D01*
X0083680Y0221430D02*
X0084480Y0221430D01*
X0085693Y0223028D02*
X0082466Y0223028D01*
X0080868Y0224627D02*
X0087007Y0224627D01*
X0089807Y0220072D02*
X0089807Y0235315D01*
X0098075Y0243583D01*
X0120516Y0243583D01*
X0135870Y0228228D01*
X0135870Y0213465D01*
X0142957Y0206378D01*
X0164807Y0206378D01*
X0180752Y0194567D02*
X0140004Y0194567D01*
X0121880Y0212691D01*
X0121880Y0219744D01*
X0116480Y0213367D02*
X0139413Y0190433D01*
X0153587Y0190433D01*
X0154768Y0189252D01*
X0154768Y0179803D01*
X0158921Y0175650D01*
X0159965Y0175650D01*
X0159965Y0172244D01*
X0165791Y0166417D01*
X0186264Y0166417D01*
X0188626Y0164055D01*
X0188626Y0157953D01*
X0190594Y0155984D01*
X0194138Y0157953D02*
X0199453Y0152244D01*
X0205555Y0152638D02*
X0287642Y0152441D01*
X0291823Y0152694D02*
X0382705Y0152694D01*
X0382823Y0154292D02*
X0291400Y0154292D01*
X0291395Y0155891D02*
X0372373Y0155891D01*
X0372089Y0156175D02*
X0373265Y0154999D01*
X0374802Y0154362D01*
X0376466Y0154362D01*
X0378002Y0154999D01*
X0379178Y0156175D01*
X0379815Y0157712D01*
X0379815Y0159375D01*
X0379178Y0160912D01*
X0378002Y0162088D01*
X0376466Y0162724D01*
X0375413Y0162724D01*
X0372496Y0165641D01*
X0371466Y0166068D01*
X0353944Y0166068D01*
X0353199Y0166812D01*
X0351662Y0167449D01*
X0349999Y0167449D01*
X0348462Y0166812D01*
X0347286Y0165636D01*
X0346650Y0164099D01*
X0346650Y0162436D01*
X0347286Y0160899D01*
X0348462Y0159723D01*
X0349999Y0159087D01*
X0351662Y0159087D01*
X0353199Y0159723D01*
X0353944Y0160468D01*
X0369750Y0160468D01*
X0371453Y0158765D01*
X0371453Y0157712D01*
X0372089Y0156175D01*
X0371545Y0157489D02*
X0291823Y0157489D01*
X0291616Y0159088D02*
X0349996Y0159088D01*
X0351665Y0159088D02*
X0371129Y0159088D01*
X0370909Y0163268D02*
X0375634Y0158543D01*
X0377527Y0162285D02*
X0382297Y0162285D01*
X0381102Y0160686D02*
X0379272Y0160686D01*
X0379815Y0159088D02*
X0380626Y0159088D01*
X0380651Y0157489D02*
X0379723Y0157489D01*
X0378894Y0155891D02*
X0381313Y0155891D01*
X0384631Y0153543D02*
X0392621Y0153543D01*
X0384631Y0153543D01*
X0381271Y0151095D02*
X0347116Y0151095D01*
X0349894Y0149497D02*
X0380626Y0149497D01*
X0380626Y0147898D02*
X0351103Y0147898D01*
X0351763Y0146300D02*
X0381143Y0146300D01*
X0382397Y0144701D02*
X0352071Y0144701D01*
X0352367Y0143103D02*
X0381011Y0143103D01*
X0394458Y0152782D02*
X0395669Y0151572D01*
X0395669Y0155515D01*
X0394458Y0154305D01*
X0392621Y0153543D01*
X0394458Y0152782D01*
X0394547Y0152694D02*
X0395669Y0152694D01*
X0395669Y0154292D02*
X0394429Y0154292D01*
X0394955Y0162285D02*
X0395669Y0162285D01*
X0395669Y0163883D02*
X0392817Y0163883D01*
X0395335Y0165482D02*
X0395669Y0165482D01*
X0388826Y0165482D02*
X0388426Y0165482D01*
X0388426Y0167080D02*
X0388826Y0167080D01*
X0388426Y0168343D02*
X0388426Y0163743D01*
X0385248Y0163743D01*
X0384502Y0163862D01*
X0383783Y0164095D01*
X0383110Y0164438D01*
X0382499Y0164882D01*
X0381965Y0165416D01*
X0381521Y0166028D01*
X0381178Y0166701D01*
X0380944Y0167419D01*
X0380826Y0168166D01*
X0380826Y0168343D01*
X0388426Y0168343D01*
X0388426Y0168679D02*
X0291823Y0168679D01*
X0291627Y0167080D02*
X0349110Y0167080D01*
X0347222Y0165482D02*
X0291144Y0165482D01*
X0291823Y0163883D02*
X0346650Y0163883D01*
X0346712Y0162285D02*
X0291823Y0162285D01*
X0291170Y0160686D02*
X0347499Y0160686D01*
X0350831Y0163268D02*
X0370909Y0163268D01*
X0372655Y0165482D02*
X0381917Y0165482D01*
X0381054Y0167080D02*
X0352552Y0167080D01*
X0374254Y0163883D02*
X0384435Y0163883D01*
X0388426Y0163883D02*
X0388826Y0163883D01*
X0388426Y0168743D02*
X0380826Y0168743D01*
X0380826Y0168921D01*
X0380944Y0169667D01*
X0381178Y0170386D01*
X0381521Y0171059D01*
X0381965Y0171670D01*
X0382499Y0172205D01*
X0383110Y0172649D01*
X0383783Y0172992D01*
X0384502Y0173225D01*
X0385248Y0173343D01*
X0388426Y0173343D01*
X0388426Y0168743D01*
X0388426Y0170277D02*
X0388826Y0170277D01*
X0388826Y0171876D02*
X0388426Y0171876D01*
X0382170Y0171876D02*
X0290065Y0171876D01*
X0291384Y0170277D02*
X0381142Y0170277D01*
X0418154Y0134921D02*
X0424650Y0141417D01*
X0441776Y0141417D01*
X0442366Y0137874D02*
X0447681Y0143189D01*
X0447681Y0215236D01*
X0397587Y0219831D02*
X0223989Y0219831D01*
X0225588Y0218233D02*
X0393974Y0218233D01*
X0390526Y0216634D02*
X0227186Y0216634D01*
X0228785Y0215036D02*
X0387749Y0215036D01*
X0384973Y0213437D02*
X0230386Y0213437D01*
X0231520Y0211839D02*
X0382197Y0211839D01*
X0379420Y0210240D02*
X0232204Y0210240D01*
X0232377Y0208642D02*
X0376767Y0208642D01*
X0441362Y0251802D02*
X0531946Y0251802D01*
X0474874Y0248605D02*
X0471590Y0248605D01*
X0472951Y0247006D02*
X0473513Y0247006D01*
X0287642Y0163071D02*
X0281539Y0163071D01*
X0278193Y0159724D01*
X0209098Y0159724D01*
X0203783Y0165039D01*
X0203783Y0194173D01*
X0200240Y0192008D02*
X0200240Y0191614D01*
X0200240Y0189646D01*
X0200240Y0163268D01*
X0207327Y0156181D01*
X0279965Y0156181D01*
X0281539Y0157756D01*
X0287642Y0157756D01*
X0275902Y0167080D02*
X0211017Y0167080D01*
X0210127Y0168679D02*
X0277193Y0168679D01*
X0278484Y0170277D02*
X0210127Y0170277D01*
X0196697Y0161496D02*
X0205555Y0152638D01*
X0194138Y0157953D02*
X0194138Y0166811D01*
X0191776Y0169173D01*
X0167760Y0169173D01*
X0165004Y0171929D01*
X0165004Y0177835D01*
X0159965Y0182874D01*
X0159965Y0185650D01*
X0163226Y0189460D02*
X0166703Y0189460D01*
X0167894Y0190650D02*
X0164965Y0187721D01*
X0164965Y0183579D01*
X0167894Y0180650D01*
X0172036Y0180650D01*
X0174965Y0183579D01*
X0177894Y0180650D01*
X0174965Y0177721D01*
X0174965Y0173579D01*
X0176570Y0171973D01*
X0173359Y0171973D01*
X0174965Y0173579D01*
X0174965Y0177721D01*
X0172036Y0180650D01*
X0167894Y0180650D01*
X0167021Y0179777D01*
X0166590Y0180208D01*
X0164092Y0182706D01*
X0164965Y0183579D01*
X0164965Y0187721D01*
X0162036Y0190650D01*
X0157894Y0190650D01*
X0157417Y0190173D01*
X0157141Y0190838D01*
X0156213Y0191767D01*
X0177952Y0191767D01*
X0177952Y0190650D01*
X0177894Y0190650D01*
X0174965Y0187721D01*
X0174965Y0183579D01*
X0174965Y0187721D01*
X0172036Y0190650D01*
X0167894Y0190650D01*
X0165105Y0187861D02*
X0164824Y0187861D01*
X0164965Y0186263D02*
X0164965Y0186263D01*
X0164965Y0184664D02*
X0164965Y0184664D01*
X0164452Y0183066D02*
X0165478Y0183066D01*
X0165331Y0181467D02*
X0167076Y0181467D01*
X0166590Y0180208D02*
X0166590Y0180208D01*
X0166930Y0179869D02*
X0167112Y0179869D01*
X0172817Y0179869D02*
X0177112Y0179869D01*
X0177894Y0180650D02*
X0182036Y0180650D01*
X0184965Y0183579D01*
X0184965Y0187721D01*
X0183552Y0189133D01*
X0183552Y0191767D01*
X0190813Y0191767D01*
X0193897Y0188683D01*
X0193897Y0188506D01*
X0191953Y0190450D01*
X0190165Y0190450D01*
X0190165Y0185850D01*
X0189765Y0185850D01*
X0189765Y0190450D01*
X0187976Y0190450D01*
X0185165Y0187638D01*
X0185165Y0185850D01*
X0189764Y0185850D01*
X0189764Y0185450D01*
X0185165Y0185450D01*
X0185165Y0183661D01*
X0187976Y0180850D01*
X0189765Y0180850D01*
X0189765Y0185450D01*
X0190165Y0185450D01*
X0190165Y0180850D01*
X0191953Y0180850D01*
X0193897Y0182794D01*
X0193897Y0178506D01*
X0191953Y0180450D01*
X0190165Y0180450D01*
X0190165Y0175850D01*
X0189765Y0175850D01*
X0189765Y0180450D01*
X0187976Y0180450D01*
X0185165Y0177638D01*
X0185165Y0175850D01*
X0189764Y0175850D01*
X0189764Y0175450D01*
X0185165Y0175450D01*
X0185165Y0173661D01*
X0186853Y0171973D01*
X0183359Y0171973D01*
X0184965Y0173579D01*
X0184965Y0177721D01*
X0182036Y0180650D01*
X0177894Y0180650D01*
X0177076Y0181467D02*
X0172853Y0181467D01*
X0174452Y0183066D02*
X0175478Y0183066D01*
X0174965Y0184664D02*
X0174965Y0184664D01*
X0174965Y0186263D02*
X0174965Y0186263D01*
X0174824Y0187861D02*
X0175105Y0187861D01*
X0176703Y0189460D02*
X0173226Y0189460D01*
X0177952Y0191058D02*
X0156921Y0191058D01*
X0140791Y0198504D02*
X0127602Y0211693D01*
X0127602Y0228228D01*
X0118154Y0237677D01*
X0115201Y0237677D01*
X0111067Y0233543D01*
X0111067Y0219757D01*
X0111080Y0219744D01*
X0116480Y0213367D02*
X0116480Y0229744D01*
X0130643Y0237415D02*
X0151816Y0237415D01*
X0151574Y0239013D02*
X0129045Y0239013D01*
X0127446Y0240612D02*
X0151574Y0240612D01*
X0151574Y0242210D02*
X0125848Y0242210D01*
X0124249Y0243809D02*
X0151574Y0243809D01*
X0151574Y0245407D02*
X0122651Y0245407D01*
X0132242Y0235816D02*
X0143757Y0235816D01*
X0141376Y0234218D02*
X0133840Y0234218D01*
X0135439Y0232619D02*
X0139777Y0232619D01*
X0138770Y0231021D02*
X0137037Y0231021D01*
X0138670Y0218233D02*
X0138905Y0218233D01*
X0138670Y0216634D02*
X0140012Y0216634D01*
X0138670Y0215036D02*
X0141610Y0215036D01*
X0139857Y0213437D02*
X0144164Y0213437D01*
X0120513Y0200649D02*
X0113681Y0200649D01*
X0112012Y0202248D02*
X0118915Y0202248D01*
X0117316Y0203846D02*
X0110342Y0203846D01*
X0108673Y0205445D02*
X0115718Y0205445D01*
X0114119Y0207043D02*
X0107004Y0207043D01*
X0105334Y0208642D02*
X0112521Y0208642D01*
X0096331Y0211839D02*
X0050713Y0211839D01*
X0045436Y0211839D02*
X0041361Y0211839D01*
X0041361Y0213437D02*
X0045564Y0213437D01*
X0043010Y0215036D02*
X0041361Y0215036D01*
X0041361Y0216634D02*
X0041412Y0216634D01*
X0056395Y0213437D02*
X0094733Y0213437D01*
X0093134Y0215036D02*
X0091842Y0215036D01*
X0094880Y0217250D02*
X0094880Y0229744D01*
X0087007Y0234218D02*
X0086394Y0234218D01*
X0087007Y0235816D02*
X0056802Y0235816D01*
X0059183Y0234218D02*
X0081765Y0234218D01*
X0083880Y0234218D02*
X0084280Y0234218D01*
X0084280Y0232619D02*
X0083880Y0232619D01*
X0083880Y0231021D02*
X0084280Y0231021D01*
X0080167Y0232619D02*
X0060782Y0232619D01*
X0061789Y0231021D02*
X0079280Y0231021D01*
X0079280Y0229422D02*
X0062667Y0229422D01*
X0063095Y0227824D02*
X0079280Y0227824D01*
X0089480Y0219744D02*
X0089807Y0220072D01*
X0087947Y0237415D02*
X0041361Y0237415D01*
X0041361Y0239013D02*
X0089546Y0239013D01*
X0091144Y0240612D02*
X0041361Y0240612D01*
X0041361Y0242210D02*
X0092743Y0242210D01*
X0094341Y0243809D02*
X0041361Y0243809D01*
X0041361Y0245407D02*
X0095940Y0245407D01*
X0045157Y0235816D02*
X0041361Y0235816D01*
X0041361Y0234218D02*
X0042776Y0234218D01*
X0041361Y0247006D02*
X0151574Y0247006D01*
X0151574Y0248605D02*
X0041361Y0248605D01*
X0041361Y0250203D02*
X0151574Y0250203D01*
X0151574Y0251802D02*
X0041361Y0251802D01*
X0115351Y0199051D02*
X0122112Y0199051D01*
X0123710Y0197452D02*
X0117020Y0197452D01*
X0118689Y0195854D02*
X0125309Y0195854D01*
X0126907Y0194255D02*
X0120359Y0194255D01*
X0122028Y0192657D02*
X0128506Y0192657D01*
X0130104Y0191058D02*
X0123698Y0191058D01*
X0125367Y0189460D02*
X0131703Y0189460D01*
X0133301Y0187861D02*
X0127037Y0187861D01*
X0128706Y0186263D02*
X0134900Y0186263D01*
X0136498Y0184664D02*
X0130375Y0184664D01*
X0132045Y0183066D02*
X0138097Y0183066D01*
X0139695Y0181467D02*
X0133714Y0181467D01*
X0135384Y0179869D02*
X0141294Y0179869D01*
X0142892Y0178270D02*
X0137053Y0178270D01*
X0138793Y0176671D02*
X0144491Y0176671D01*
X0144965Y0175073D02*
X0139778Y0175073D01*
X0140284Y0173474D02*
X0145069Y0173474D01*
X0146667Y0171876D02*
X0140353Y0171876D01*
X0140446Y0170277D02*
X0154034Y0170277D01*
X0150043Y0175571D02*
X0149965Y0175650D01*
X0174415Y0178270D02*
X0175514Y0178270D01*
X0174965Y0176671D02*
X0174965Y0176671D01*
X0174965Y0175073D02*
X0174965Y0175073D01*
X0174860Y0173474D02*
X0175069Y0173474D01*
X0184415Y0178270D02*
X0185797Y0178270D01*
X0185165Y0176671D02*
X0184965Y0176671D01*
X0184965Y0175073D02*
X0185165Y0175073D01*
X0185351Y0173474D02*
X0184860Y0173474D01*
X0189765Y0176671D02*
X0190165Y0176671D01*
X0190165Y0178270D02*
X0189765Y0178270D01*
X0189765Y0179869D02*
X0190165Y0179869D01*
X0190165Y0181467D02*
X0189765Y0181467D01*
X0189765Y0183066D02*
X0190165Y0183066D01*
X0190165Y0184664D02*
X0189765Y0184664D01*
X0189765Y0186263D02*
X0190165Y0186263D01*
X0190165Y0187861D02*
X0189765Y0187861D01*
X0189765Y0189460D02*
X0190165Y0189460D01*
X0191521Y0191058D02*
X0183552Y0191058D01*
X0183552Y0189460D02*
X0186986Y0189460D01*
X0185388Y0187861D02*
X0184824Y0187861D01*
X0184965Y0186263D02*
X0185165Y0186263D01*
X0185165Y0184664D02*
X0184965Y0184664D01*
X0184452Y0183066D02*
X0185760Y0183066D01*
X0187359Y0181467D02*
X0182853Y0181467D01*
X0182817Y0179869D02*
X0187395Y0179869D01*
X0192534Y0179869D02*
X0193897Y0179869D01*
X0193897Y0181467D02*
X0192570Y0181467D01*
X0192943Y0189460D02*
X0193120Y0189460D01*
X0196697Y0189843D02*
X0196697Y0188465D01*
X0196697Y0161496D01*
X0185826Y0159088D02*
X0150976Y0159088D01*
X0155158Y0157489D02*
X0185826Y0157489D01*
X0179965Y0185650D02*
X0180752Y0186437D01*
X0180752Y0194567D01*
X0191972Y0194567D01*
X0196697Y0189843D01*
X0200240Y0192008D02*
X0193744Y0198504D01*
X0185083Y0198504D01*
X0140791Y0198504D01*
X0230409Y0117527D02*
X0238965Y0117527D01*
X0237905Y0115928D02*
X0230409Y0115928D01*
X0230409Y0114330D02*
X0237588Y0114330D01*
X0237841Y0112731D02*
X0230409Y0112731D01*
X0230409Y0111133D02*
X0238711Y0111133D01*
X0238179Y0109534D02*
X0230409Y0109534D01*
X0230409Y0107936D02*
X0238216Y0107936D01*
X0238881Y0106337D02*
X0230409Y0106337D01*
X0230409Y0104738D02*
X0240925Y0104738D01*
X0244595Y0104738D02*
X0250716Y0104738D01*
X0249345Y0106337D02*
X0248826Y0106337D01*
X0246894Y0108937D02*
X0249846Y0112480D01*
X0246894Y0108937D02*
X0242760Y0108937D01*
X0242169Y0114252D02*
X0243350Y0115433D01*
X0328390Y0115433D01*
X0340791Y0127835D01*
X0352602Y0127835D01*
X0370909Y0109528D01*
X0414020Y0109528D01*
X0421697Y0117205D01*
X0421697Y0133740D01*
X0425831Y0137874D01*
X0442366Y0137874D01*
X0445713Y0130591D02*
X0454768Y0139646D01*
X0445713Y0130591D02*
X0434295Y0130591D01*
X0433508Y0129803D01*
X0433508Y0129606D01*
X0432327Y0128425D01*
X0418154Y0134921D02*
X0418154Y0117795D01*
X0412839Y0112480D01*
X0372091Y0112480D01*
X0353783Y0130787D01*
X0338429Y0130787D01*
X0344335Y0105787D02*
X0280555Y0105787D01*
X0270122Y0095354D01*
X0267563Y0095354D01*
X0267563Y0104213D01*
X0267563Y0095354D02*
X0263429Y0091220D01*
X0263429Y0061102D01*
X0268232Y0056299D01*
X0268232Y0054370D01*
X0268048Y0053586D02*
X0268417Y0053586D01*
X0268417Y0051988D02*
X0268048Y0051988D01*
X0268048Y0050389D02*
X0268417Y0050389D01*
X0268417Y0048791D02*
X0268048Y0048791D01*
X0268048Y0047192D02*
X0268417Y0047192D01*
X0270474Y0047192D02*
X0274850Y0047192D01*
X0273503Y0048791D02*
X0272229Y0048791D01*
X0265990Y0047192D02*
X0260474Y0047192D01*
X0258417Y0047192D02*
X0258048Y0047192D01*
X0258048Y0048791D02*
X0258417Y0048791D01*
X0258417Y0050389D02*
X0258048Y0050389D01*
X0258048Y0051988D02*
X0258417Y0051988D01*
X0258417Y0053586D02*
X0258048Y0053586D01*
X0258232Y0054370D02*
X0258232Y0055906D01*
X0263429Y0061102D01*
X0264257Y0059980D02*
X0262207Y0059980D01*
X0262895Y0058382D02*
X0263570Y0058382D01*
X0263464Y0056783D02*
X0263001Y0056783D01*
X0263001Y0055185D02*
X0263464Y0055185D01*
X0263464Y0053586D02*
X0263001Y0053586D01*
X0263001Y0051988D02*
X0263464Y0051988D01*
X0263565Y0050389D02*
X0262900Y0050389D01*
X0262229Y0048791D02*
X0264235Y0048791D01*
X0255990Y0047192D02*
X0251615Y0047192D01*
X0252962Y0048791D02*
X0254235Y0048791D01*
X0258048Y0055185D02*
X0258417Y0055185D01*
X0258417Y0056783D02*
X0258048Y0056783D01*
X0258048Y0058382D02*
X0258417Y0058382D01*
X0258417Y0059980D02*
X0258048Y0059980D01*
X0258048Y0061579D02*
X0258417Y0061579D01*
X0260414Y0061579D02*
X0266050Y0061579D01*
X0268048Y0061579D02*
X0268417Y0061579D01*
X0268417Y0059980D02*
X0268048Y0059980D01*
X0268048Y0058382D02*
X0268417Y0058382D01*
X0268417Y0056783D02*
X0268048Y0056783D01*
X0268048Y0055185D02*
X0268417Y0055185D01*
X0272207Y0059980D02*
X0273516Y0059980D01*
X0274880Y0061579D02*
X0270414Y0061579D01*
X0281584Y0061579D02*
X0294880Y0061579D01*
X0293516Y0059980D02*
X0282949Y0059980D01*
X0283601Y0058382D02*
X0292864Y0058382D01*
X0292864Y0056783D02*
X0283601Y0056783D01*
X0283601Y0055185D02*
X0292864Y0055185D01*
X0292864Y0053586D02*
X0283601Y0053586D01*
X0283601Y0051988D02*
X0292864Y0051988D01*
X0292864Y0050389D02*
X0283601Y0050389D01*
X0282962Y0048791D02*
X0293503Y0048791D01*
X0294850Y0047192D02*
X0281615Y0047192D01*
X0301584Y0061579D02*
X0304880Y0061579D01*
X0303516Y0059980D02*
X0302949Y0059980D01*
X0311584Y0061579D02*
X0314880Y0061579D01*
X0313516Y0059980D02*
X0312949Y0059980D01*
X0321584Y0061579D02*
X0324880Y0061579D01*
X0323516Y0059980D02*
X0322949Y0059980D01*
X0331584Y0061579D02*
X0334880Y0061579D01*
X0333516Y0059980D02*
X0332949Y0059980D01*
X0332085Y0066324D02*
X0333986Y0066324D01*
X0335742Y0067052D01*
X0337086Y0068396D01*
X0337813Y0070152D01*
X0337813Y0072053D01*
X0337086Y0073809D01*
X0335742Y0075153D01*
X0333986Y0075880D01*
X0332085Y0075880D01*
X0330329Y0075153D01*
X0328985Y0073809D01*
X0328257Y0072053D01*
X0328257Y0070152D01*
X0328985Y0068396D01*
X0330329Y0067052D01*
X0332085Y0066324D01*
X0331965Y0066374D02*
X0230417Y0066374D01*
X0230409Y0067973D02*
X0329408Y0067973D01*
X0328498Y0069571D02*
X0230409Y0069571D01*
X0230409Y0071170D02*
X0328257Y0071170D01*
X0328554Y0072768D02*
X0230409Y0072768D01*
X0230409Y0074367D02*
X0329543Y0074367D01*
X0329817Y0077564D02*
X0230409Y0077564D01*
X0230409Y0079162D02*
X0328667Y0079162D01*
X0328257Y0080761D02*
X0230409Y0080761D01*
X0230409Y0082359D02*
X0328384Y0082359D01*
X0329134Y0083958D02*
X0230409Y0083958D01*
X0230409Y0085556D02*
X0331303Y0085556D01*
X0331664Y0087155D02*
X0230409Y0087155D01*
X0230409Y0088753D02*
X0329578Y0088753D01*
X0328924Y0090352D02*
X0230409Y0090352D01*
X0230409Y0091950D02*
X0328940Y0091950D01*
X0329649Y0093549D02*
X0230409Y0093549D01*
X0230409Y0095147D02*
X0331965Y0095147D01*
X0333035Y0095147D02*
X0333035Y0095147D01*
X0333035Y0095280D02*
X0333035Y0091102D01*
X0333035Y0095280D01*
X0334106Y0095147D02*
X0462864Y0095147D01*
X0462864Y0093549D02*
X0336422Y0093549D01*
X0337110Y0092081D02*
X0337213Y0091431D01*
X0337213Y0091102D01*
X0333036Y0091102D01*
X0333035Y0091102D02*
X0333035Y0091102D01*
X0333035Y0090352D02*
X0333035Y0090352D01*
X0333035Y0091950D02*
X0333035Y0091950D01*
X0333035Y0093549D02*
X0333035Y0093549D01*
X0331067Y0096746D02*
X0230409Y0096746D01*
X0230409Y0098344D02*
X0329036Y0098344D01*
X0328344Y0099943D02*
X0230409Y0099943D01*
X0230409Y0101541D02*
X0328257Y0101541D01*
X0328708Y0103140D02*
X0230409Y0103140D01*
X0230409Y0075965D02*
X0433462Y0075965D01*
X0433462Y0074367D02*
X0336528Y0074367D01*
X0337517Y0072768D02*
X0433462Y0072768D01*
X0433818Y0071170D02*
X0337813Y0071170D01*
X0337573Y0069571D02*
X0434757Y0069571D01*
X0435961Y0067973D02*
X0336663Y0067973D01*
X0334106Y0066374D02*
X0437293Y0066374D01*
X0438892Y0064776D02*
X0230258Y0064776D01*
X0229677Y0063177D02*
X0486829Y0063177D01*
X0484353Y0061579D02*
X0461584Y0061579D01*
X0462949Y0059980D02*
X0483185Y0059980D01*
X0482764Y0058382D02*
X0463601Y0058382D01*
X0463601Y0056783D02*
X0482763Y0056783D01*
X0482763Y0053586D02*
X0463601Y0053586D01*
X0463601Y0051988D02*
X0482763Y0051988D01*
X0483039Y0050389D02*
X0463601Y0050389D01*
X0462962Y0048791D02*
X0483984Y0048791D01*
X0487363Y0048791D02*
X0487763Y0048791D01*
X0487763Y0050389D02*
X0487363Y0050389D01*
X0487363Y0051988D02*
X0487763Y0051988D01*
X0487763Y0053586D02*
X0487363Y0053586D01*
X0487363Y0055185D02*
X0463601Y0055185D01*
X0454880Y0061579D02*
X0451584Y0061579D01*
X0452949Y0059980D02*
X0453516Y0059980D01*
X0444880Y0061579D02*
X0441584Y0061579D01*
X0442949Y0059980D02*
X0443516Y0059980D01*
X0434880Y0061579D02*
X0431584Y0061579D01*
X0432949Y0059980D02*
X0433516Y0059980D01*
X0424880Y0061579D02*
X0421584Y0061579D01*
X0422949Y0059980D02*
X0423516Y0059980D01*
X0414880Y0061579D02*
X0411584Y0061579D01*
X0412949Y0059980D02*
X0413516Y0059980D01*
X0404880Y0061579D02*
X0401584Y0061579D01*
X0402949Y0059980D02*
X0403516Y0059980D01*
X0394880Y0061579D02*
X0391584Y0061579D01*
X0392949Y0059980D02*
X0393516Y0059980D01*
X0384880Y0061579D02*
X0371584Y0061579D01*
X0372949Y0059980D02*
X0383516Y0059980D01*
X0382864Y0058382D02*
X0373601Y0058382D01*
X0373601Y0056783D02*
X0382864Y0056783D01*
X0382864Y0055185D02*
X0373601Y0055185D01*
X0373601Y0053586D02*
X0382864Y0053586D01*
X0382864Y0051988D02*
X0373601Y0051988D01*
X0373601Y0050389D02*
X0382864Y0050389D01*
X0383503Y0048791D02*
X0372962Y0048791D01*
X0371615Y0047192D02*
X0384850Y0047192D01*
X0364880Y0061579D02*
X0361584Y0061579D01*
X0362949Y0059980D02*
X0363516Y0059980D01*
X0354880Y0061579D02*
X0351584Y0061579D01*
X0352949Y0059980D02*
X0353516Y0059980D01*
X0344880Y0061579D02*
X0341584Y0061579D01*
X0342949Y0059980D02*
X0343516Y0059980D01*
X0336254Y0077564D02*
X0433462Y0077564D01*
X0433462Y0079162D02*
X0337403Y0079162D01*
X0337813Y0080761D02*
X0433704Y0080761D01*
X0434482Y0082359D02*
X0337686Y0082359D01*
X0336937Y0083958D02*
X0436473Y0083958D01*
X0438862Y0076102D02*
X0438862Y0069331D01*
X0441776Y0066417D01*
X0488114Y0066417D01*
X0497563Y0056969D01*
X0497563Y0055000D01*
X0502963Y0055185D02*
X0512690Y0055185D01*
X0511241Y0056783D02*
X0502963Y0056783D01*
X0502963Y0058382D02*
X0506870Y0058382D01*
X0506718Y0059980D02*
X0502588Y0059980D01*
X0501621Y0061579D02*
X0506718Y0061579D01*
X0506718Y0063177D02*
X0499175Y0063177D01*
X0495951Y0063177D02*
X0495880Y0063177D01*
X0494281Y0064776D02*
X0506718Y0064776D01*
X0506718Y0066374D02*
X0492683Y0066374D01*
X0491084Y0067973D02*
X0506718Y0067973D01*
X0506718Y0069571D02*
X0497523Y0069571D01*
X0499904Y0071170D02*
X0506718Y0071170D01*
X0506718Y0072768D02*
X0500744Y0072768D01*
X0500618Y0075965D02*
X0506718Y0075965D01*
X0506718Y0074367D02*
X0493354Y0074367D01*
X0492953Y0074367D02*
X0478417Y0074367D01*
X0482726Y0072768D02*
X0485563Y0072768D01*
X0486403Y0071170D02*
X0481776Y0071170D01*
X0482728Y0075965D02*
X0485689Y0075965D01*
X0486756Y0077564D02*
X0481782Y0077564D01*
X0474249Y0080761D02*
X0472215Y0080761D01*
X0473210Y0082359D02*
X0473254Y0082359D01*
X0492954Y0072768D02*
X0493354Y0072768D01*
X0493354Y0071170D02*
X0492954Y0071170D01*
X0492954Y0069571D02*
X0493354Y0069571D01*
X0499551Y0077564D02*
X0506718Y0077564D01*
X0507211Y0079162D02*
X0498167Y0079162D01*
X0500378Y0080761D02*
X0546771Y0080761D01*
X0546771Y0082359D02*
X0501247Y0082359D01*
X0501554Y0083958D02*
X0546771Y0083958D01*
X0546771Y0085556D02*
X0501426Y0085556D01*
X0500763Y0087155D02*
X0546771Y0087155D01*
X0546771Y0088753D02*
X0499207Y0088753D01*
X0499969Y0090352D02*
X0546771Y0090352D01*
X0546771Y0091950D02*
X0501078Y0091950D01*
X0501554Y0093549D02*
X0514106Y0093549D01*
X0514631Y0093246D02*
X0517912Y0092367D01*
X0521309Y0092367D01*
X0524589Y0093246D01*
X0527531Y0094944D01*
X0529933Y0097346D01*
X0531631Y0100288D01*
X0532510Y0103569D01*
X0532510Y0106965D01*
X0531631Y0110246D01*
X0529933Y0113188D01*
X0527531Y0115589D01*
X0524589Y0117288D01*
X0521309Y0118167D01*
X0517912Y0118167D01*
X0514631Y0117288D01*
X0511689Y0115589D01*
X0509288Y0113188D01*
X0507589Y0110246D01*
X0506710Y0106965D01*
X0506710Y0103569D01*
X0507589Y0100288D01*
X0509288Y0097346D01*
X0511689Y0094944D01*
X0514631Y0093246D01*
X0511486Y0095147D02*
X0501554Y0095147D01*
X0500933Y0096746D02*
X0509888Y0096746D01*
X0508711Y0098344D02*
X0499619Y0098344D01*
X0499560Y0099943D02*
X0507788Y0099943D01*
X0507253Y0101541D02*
X0500908Y0101541D01*
X0501554Y0103140D02*
X0506825Y0103140D01*
X0506710Y0104738D02*
X0501554Y0104738D01*
X0501102Y0106337D02*
X0506710Y0106337D01*
X0506970Y0107936D02*
X0500028Y0107936D01*
X0499064Y0109534D02*
X0507399Y0109534D01*
X0508101Y0111133D02*
X0500739Y0111133D01*
X0501401Y0112731D02*
X0509024Y0112731D01*
X0510430Y0114330D02*
X0501554Y0114330D01*
X0501272Y0115928D02*
X0512276Y0115928D01*
X0515522Y0117527D02*
X0500437Y0117527D01*
X0498310Y0119125D02*
X0546771Y0119125D01*
X0546771Y0117527D02*
X0523698Y0117527D01*
X0526945Y0115928D02*
X0546771Y0115928D01*
X0546771Y0114330D02*
X0528791Y0114330D01*
X0530196Y0112731D02*
X0546771Y0112731D01*
X0546771Y0111133D02*
X0531119Y0111133D01*
X0531822Y0109534D02*
X0546771Y0109534D01*
X0546771Y0107936D02*
X0532250Y0107936D01*
X0532510Y0106337D02*
X0546771Y0106337D01*
X0546771Y0104738D02*
X0532510Y0104738D01*
X0532395Y0103140D02*
X0546771Y0103140D01*
X0546771Y0101541D02*
X0531967Y0101541D01*
X0531432Y0099943D02*
X0546771Y0099943D01*
X0546771Y0098344D02*
X0530509Y0098344D01*
X0529333Y0096746D02*
X0546771Y0096746D01*
X0546771Y0095147D02*
X0527734Y0095147D01*
X0525114Y0093549D02*
X0546771Y0093549D01*
X0546771Y0079162D02*
X0529775Y0079162D01*
X0530268Y0077564D02*
X0546771Y0077564D01*
X0546771Y0075965D02*
X0530268Y0075965D01*
X0530268Y0074367D02*
X0546771Y0074367D01*
X0546771Y0072768D02*
X0530268Y0072768D01*
X0530268Y0071170D02*
X0546771Y0071170D01*
X0546771Y0069571D02*
X0530268Y0069571D01*
X0530268Y0067973D02*
X0546771Y0067973D01*
X0546771Y0066374D02*
X0530268Y0066374D01*
X0530268Y0064776D02*
X0546771Y0064776D01*
X0546771Y0063177D02*
X0530268Y0063177D01*
X0530268Y0061579D02*
X0535139Y0061579D01*
X0533014Y0059980D02*
X0530268Y0059980D01*
X0530268Y0058382D02*
X0531654Y0058382D01*
X0530731Y0056783D02*
X0530268Y0056783D01*
X0523644Y0053586D02*
X0502963Y0053586D01*
X0502963Y0051988D02*
X0525589Y0051988D01*
X0529922Y0051988D02*
X0529927Y0051988D01*
X0530167Y0050389D02*
X0502741Y0050389D01*
X0501990Y0048791D02*
X0530595Y0048791D01*
X0531481Y0047192D02*
X0500067Y0047192D01*
X0495059Y0047192D02*
X0461615Y0047192D01*
X0491142Y0048791D02*
X0493136Y0048791D01*
X0492385Y0050389D02*
X0492087Y0050389D01*
X0515672Y0055185D02*
X0516444Y0055185D01*
X0545263Y0061579D02*
X0546771Y0061579D01*
X0464614Y0098344D02*
X0337035Y0098344D01*
X0337727Y0099943D02*
X0465067Y0099943D01*
X0463593Y0101541D02*
X0460165Y0101541D01*
X0461764Y0103140D02*
X0462931Y0103140D01*
X0463406Y0096746D02*
X0335003Y0096746D01*
X0337813Y0101541D02*
X0366102Y0101541D01*
X0364504Y0103140D02*
X0337363Y0103140D01*
X0336156Y0104738D02*
X0362905Y0104738D01*
X0333035Y0088753D02*
X0333035Y0088753D01*
X0333035Y0087155D02*
X0333035Y0087155D01*
X0256050Y0061579D02*
X0251584Y0061579D01*
X0252949Y0059980D02*
X0254257Y0059980D01*
X0244880Y0061579D02*
X0241584Y0061579D01*
X0242949Y0059980D02*
X0243516Y0059980D01*
X0234880Y0061579D02*
X0231584Y0061579D01*
X0232949Y0059980D02*
X0233516Y0059980D01*
X0156104Y0061579D02*
X0138617Y0061579D01*
X0135026Y0061579D02*
X0134125Y0061579D01*
X0097771Y0050389D02*
X0097698Y0050389D01*
X0092346Y0050360D02*
X0092346Y0050360D01*
X0092346Y0050360D01*
X0092316Y0050389D02*
X0092244Y0050389D01*
X0084938Y0050389D02*
X0084865Y0050389D01*
X0042117Y0106337D02*
X0041761Y0106337D01*
X0518505Y0136709D02*
X0519810Y0136709D01*
X0520010Y0135110D02*
X0521079Y0135110D01*
X0520010Y0133512D02*
X0546771Y0133512D01*
X0546771Y0135110D02*
X0528142Y0135110D01*
X0529410Y0136709D02*
X0546771Y0136709D01*
X0546771Y0138307D02*
X0524810Y0138307D01*
X0524810Y0136709D02*
X0524410Y0136709D01*
X0524410Y0135110D02*
X0524810Y0135110D01*
X0520010Y0131913D02*
X0546771Y0131913D01*
X0546771Y0130315D02*
X0519595Y0130315D01*
X0529410Y0139906D02*
X0546771Y0139906D01*
X0546771Y0141504D02*
X0528261Y0141504D01*
D135*
X0432327Y0128425D03*
X0429965Y0133740D03*
X0375634Y0158543D03*
X0350831Y0163268D03*
X0287642Y0163071D03*
X0287642Y0157756D03*
X0287642Y0152441D03*
X0287642Y0168386D03*
X0260673Y0119370D03*
X0253390Y0108543D03*
X0242760Y0108937D03*
X0242169Y0114252D03*
X0267563Y0104213D03*
X0345516Y0116614D03*
X0187839Y0114252D03*
X0178390Y0109528D03*
X0170122Y0108937D03*
X0149453Y0097126D03*
X0128193Y0092402D03*
X0132917Y0109528D03*
D136*
X0116972Y0105394D03*
X0164217Y0097126D03*
X0177209Y0080591D03*
X0197287Y0086496D03*
X0168154Y0060512D03*
X0168154Y0048701D03*
X0142563Y0048701D03*
X0075634Y0048701D03*
X0046106Y0048701D03*
X0044138Y0084134D03*
X0044138Y0109724D03*
X0044138Y0133346D03*
X0044138Y0158937D03*
X0063823Y0172717D03*
X0077602Y0172717D03*
X0072091Y0214055D03*
X0061461Y0214055D03*
X0043744Y0237677D03*
X0043744Y0249488D03*
X0057917Y0249488D03*
X0075634Y0249488D03*
X0106343Y0249488D03*
X0132327Y0249488D03*
X0147681Y0249488D03*
X0197287Y0234134D03*
X0225634Y0222323D03*
X0233902Y0222323D03*
X0275831Y0212283D03*
X0279965Y0223504D03*
X0279965Y0231772D03*
X0326028Y0217598D03*
X0323665Y0210512D03*
X0350831Y0222323D03*
X0347878Y0230591D03*
X0374453Y0227047D03*
X0379177Y0230591D03*
X0388626Y0230591D03*
X0402799Y0230591D03*
X0399256Y0222323D03*
X0386264Y0218780D03*
X0375634Y0219961D03*
X0380358Y0214055D03*
X0373272Y0211693D03*
X0415791Y0227047D03*
X0424059Y0221142D03*
X0373272Y0175079D03*
X0376815Y0167992D03*
X0375634Y0151457D03*
X0326028Y0173898D03*
X0323665Y0178622D03*
X0304768Y0159724D03*
X0301224Y0153819D03*
X0276421Y0175079D03*
X0227996Y0178622D03*
X0218547Y0173898D03*
X0227996Y0170354D03*
X0199453Y0152244D03*
X0190594Y0155984D03*
X0162445Y0163661D03*
X0154768Y0167598D03*
X0185083Y0198504D03*
X0174846Y0202441D03*
X0164807Y0206378D03*
X0160673Y0211693D03*
X0178390Y0130197D03*
X0170122Y0125472D03*
X0184295Y0124291D03*
X0189020Y0130197D03*
X0244531Y0130197D03*
X0248075Y0124291D03*
X0253980Y0130197D03*
X0266972Y0130197D03*
X0284689Y0130197D03*
X0290594Y0101850D03*
X0278783Y0087677D03*
X0290594Y0072323D03*
X0249256Y0081772D03*
X0438232Y0145551D03*
X0544531Y0105394D03*
X0543350Y0066417D03*
X0529177Y0047520D03*
X0544531Y0204606D03*
X0543350Y0231772D03*
X0525634Y0249488D03*
M02*
