G75*
%MOIN*%
%OFA0B0*%
%FSLAX25Y25*%
%IPPOS*%
%LPD*%
%AMOC8*
5,1,8,0,0,1.08239X$1,22.5*
%
%ADD10R,0.05118X0.05906*%
%ADD11R,0.01400X0.05800*%
%ADD12R,0.05906X0.05118*%
%ADD13R,0.03543X0.03150*%
%ADD14R,0.03937X0.05512*%
%ADD15R,0.03543X0.01378*%
%ADD16R,0.02756X0.02756*%
%ADD17R,0.24409X0.22835*%
%ADD18R,0.11811X0.06299*%
%ADD19R,0.07800X0.02100*%
%ADD20R,0.02200X0.07800*%
%ADD21R,0.02100X0.07800*%
D10*
X0142150Y0131811D03*
X0149630Y0131811D03*
X0132130Y0136811D03*
X0124650Y0136811D03*
X0266185Y0157362D03*
X0273665Y0157362D03*
X0273665Y0166220D03*
X0266185Y0166220D03*
X0311657Y0166220D03*
X0319138Y0166220D03*
X0330555Y0165630D03*
X0338035Y0165630D03*
X0319138Y0157362D03*
X0311657Y0157362D03*
X0358902Y0156181D03*
X0366382Y0156181D03*
X0366382Y0146732D03*
X0358902Y0146732D03*
X0358902Y0165630D03*
X0366382Y0165630D03*
X0366382Y0221142D03*
X0358902Y0221142D03*
X0358902Y0230591D03*
X0366382Y0230591D03*
X0338035Y0225866D03*
X0330555Y0225866D03*
X0320594Y0230591D03*
X0313114Y0230591D03*
X0312524Y0221142D03*
X0320004Y0221142D03*
X0271894Y0222323D03*
X0264413Y0222323D03*
X0264413Y0231772D03*
X0271894Y0231772D03*
X0423035Y0101102D03*
X0430516Y0101102D03*
X0380378Y0076102D03*
X0372898Y0076102D03*
X0372898Y0066102D03*
X0380378Y0066102D03*
X0351953Y0083386D03*
X0344472Y0083386D03*
D11*
X0142390Y0100711D03*
X0139790Y0100711D03*
X0137190Y0100711D03*
X0134690Y0100711D03*
X0132090Y0100711D03*
X0129590Y0100711D03*
X0126990Y0100711D03*
X0124390Y0100711D03*
X0124390Y0122911D03*
X0126990Y0122911D03*
X0129590Y0122911D03*
X0132090Y0122911D03*
X0134690Y0122911D03*
X0137190Y0122911D03*
X0139790Y0122911D03*
X0142390Y0122911D03*
D12*
X0170713Y0092205D03*
X0170713Y0099685D03*
X0179571Y0099685D03*
X0188429Y0099685D03*
X0188429Y0092205D03*
X0179571Y0092205D03*
X0157839Y0099567D03*
X0148390Y0106890D03*
X0157839Y0107047D03*
X0148390Y0114370D03*
X0118055Y0114075D03*
X0118055Y0121555D03*
X0242760Y0097913D03*
X0251618Y0097913D03*
X0251618Y0090433D03*
X0242760Y0090433D03*
X0260476Y0090433D03*
X0260476Y0097913D03*
X0300535Y0099843D03*
X0310535Y0099843D03*
X0310535Y0092362D03*
X0300535Y0092362D03*
X0300535Y0079843D03*
X0310535Y0079843D03*
X0310535Y0072362D03*
X0300535Y0072362D03*
X0328272Y0116713D03*
X0328272Y0124193D03*
X0337091Y0124193D03*
X0337091Y0116713D03*
X0396362Y0117480D03*
X0396362Y0110000D03*
X0396362Y0099843D03*
X0396362Y0092362D03*
X0401362Y0082992D03*
X0401362Y0075512D03*
X0427268Y0079252D03*
X0427268Y0086732D03*
X0413862Y0112362D03*
X0413862Y0119843D03*
D13*
X0409925Y0082992D03*
X0418193Y0079252D03*
X0409925Y0075512D03*
D14*
X0411362Y0091772D03*
X0407622Y0100433D03*
X0415102Y0100433D03*
D15*
X0316500Y0113563D03*
X0316500Y0116122D03*
X0316500Y0118681D03*
X0316500Y0121240D03*
X0316500Y0123799D03*
X0316500Y0126358D03*
X0316500Y0128917D03*
X0293862Y0128917D03*
X0293862Y0126358D03*
X0293862Y0123799D03*
X0293862Y0121240D03*
X0293862Y0118681D03*
X0293862Y0116122D03*
X0293862Y0113563D03*
D16*
X0365280Y0073661D03*
X0365280Y0068543D03*
X0357996Y0071102D03*
D17*
X0375732Y0101102D03*
D18*
X0347465Y0092126D03*
X0347465Y0110079D03*
D19*
X0234094Y0108799D03*
X0234094Y0103799D03*
X0234094Y0098799D03*
X0234094Y0093799D03*
X0197094Y0093799D03*
X0197094Y0098799D03*
X0197094Y0103799D03*
X0197094Y0108799D03*
X0197094Y0113799D03*
X0197094Y0118799D03*
X0197094Y0123799D03*
X0197094Y0128799D03*
X0234094Y0128799D03*
X0234094Y0123799D03*
X0234094Y0118799D03*
X0234094Y0113799D03*
D20*
X0235299Y0175476D03*
X0240299Y0175476D03*
X0245299Y0175476D03*
X0250299Y0175476D03*
X0255299Y0175476D03*
X0260299Y0175476D03*
X0265299Y0175476D03*
X0270299Y0175476D03*
X0281362Y0175476D03*
X0286362Y0175476D03*
X0291362Y0175476D03*
X0296362Y0175476D03*
X0301362Y0175476D03*
X0306362Y0175476D03*
X0311362Y0175476D03*
X0316362Y0175476D03*
X0316362Y0212476D03*
X0311362Y0212476D03*
X0306362Y0212476D03*
X0301362Y0212476D03*
X0296362Y0212476D03*
X0291362Y0212476D03*
X0286362Y0212476D03*
X0281362Y0212476D03*
X0270299Y0212476D03*
X0265299Y0212476D03*
X0260299Y0212476D03*
X0255299Y0212476D03*
X0250299Y0212476D03*
X0245299Y0212476D03*
X0240299Y0212476D03*
X0235299Y0212476D03*
D21*
X0330969Y0212476D03*
X0335969Y0212476D03*
X0340969Y0212476D03*
X0345969Y0212476D03*
X0350969Y0212476D03*
X0355969Y0212476D03*
X0360969Y0212476D03*
X0365969Y0212476D03*
X0365969Y0175476D03*
X0360969Y0175476D03*
X0355969Y0175476D03*
X0350969Y0175476D03*
X0345969Y0175476D03*
X0340969Y0175476D03*
X0335969Y0175476D03*
X0330969Y0175476D03*
M02*
