G75*
%MOIN*%
%OFA0B0*%
%FSLAX25Y25*%
%IPPOS*%
%LPD*%
%AMOC8*
5,1,8,0,0,1.08239X$1,22.5*
%
%ADD10R,0.05118X0.05906*%
%ADD11R,0.01400X0.05800*%
%ADD12R,0.05906X0.05118*%
%ADD13R,0.03543X0.03150*%
%ADD14R,0.03937X0.05512*%
%ADD15R,0.03543X0.01378*%
%ADD16R,0.02756X0.02756*%
%ADD17R,0.24409X0.22835*%
%ADD18R,0.11811X0.06299*%
%ADD19R,0.07800X0.02100*%
%ADD20R,0.02200X0.07800*%
%ADD21R,0.02100X0.07800*%
D10*
X0219859Y0124134D03*
X0227339Y0124134D03*
X0209839Y0129134D03*
X0202359Y0129134D03*
X0343894Y0149685D03*
X0351375Y0149685D03*
X0351375Y0158543D03*
X0343894Y0158543D03*
X0389367Y0158543D03*
X0396847Y0158543D03*
X0408264Y0157953D03*
X0415745Y0157953D03*
X0396847Y0149685D03*
X0389367Y0149685D03*
X0436611Y0148504D03*
X0444091Y0148504D03*
X0444091Y0157953D03*
X0436611Y0157953D03*
X0436611Y0139055D03*
X0444091Y0139055D03*
X0500745Y0093425D03*
X0508225Y0093425D03*
X0458087Y0068425D03*
X0450607Y0068425D03*
X0450607Y0058425D03*
X0458087Y0058425D03*
X0429662Y0075709D03*
X0422182Y0075709D03*
X0436611Y0213465D03*
X0444091Y0213465D03*
X0444091Y0222913D03*
X0436611Y0222913D03*
X0415745Y0218189D03*
X0408264Y0218189D03*
X0398304Y0222913D03*
X0390823Y0222913D03*
X0390233Y0213465D03*
X0397713Y0213465D03*
X0349603Y0214646D03*
X0342123Y0214646D03*
X0342123Y0224094D03*
X0349603Y0224094D03*
D11*
X0202099Y0093034D03*
X0204699Y0093034D03*
X0207299Y0093034D03*
X0209799Y0093034D03*
X0212399Y0093034D03*
X0214899Y0093034D03*
X0217499Y0093034D03*
X0220099Y0093034D03*
X0220099Y0115234D03*
X0217499Y0115234D03*
X0214899Y0115234D03*
X0212399Y0115234D03*
X0209799Y0115234D03*
X0207299Y0115234D03*
X0204699Y0115234D03*
X0202099Y0115234D03*
D12*
X0195764Y0113878D03*
X0195764Y0106398D03*
X0168107Y0108346D03*
X0168107Y0115827D03*
X0166532Y0132362D03*
X0166532Y0139843D03*
X0226099Y0106693D03*
X0226099Y0099213D03*
X0235548Y0099370D03*
X0235548Y0091890D03*
X0248422Y0092008D03*
X0257280Y0092008D03*
X0257280Y0084528D03*
X0248422Y0084528D03*
X0266138Y0084528D03*
X0266138Y0092008D03*
X0320469Y0090236D03*
X0329327Y0090236D03*
X0338186Y0090236D03*
X0338186Y0082756D03*
X0329327Y0082756D03*
X0320469Y0082756D03*
X0378245Y0084685D03*
X0378245Y0092165D03*
X0388245Y0092165D03*
X0388245Y0084685D03*
X0388245Y0072165D03*
X0378245Y0072165D03*
X0378245Y0064685D03*
X0388245Y0064685D03*
X0474072Y0084685D03*
X0474072Y0092165D03*
X0474072Y0102323D03*
X0474072Y0109803D03*
X0491572Y0112165D03*
X0491572Y0104685D03*
X0504977Y0079055D03*
X0504977Y0071575D03*
X0479072Y0075315D03*
X0479072Y0067835D03*
X0414800Y0109035D03*
X0405981Y0109035D03*
X0405981Y0116516D03*
X0414800Y0116516D03*
X0571453Y0116417D03*
X0571453Y0123898D03*
X0572044Y0167795D03*
X0572044Y0175276D03*
D13*
X0487635Y0075315D03*
X0495902Y0071575D03*
X0487635Y0067835D03*
D14*
X0489072Y0084094D03*
X0492812Y0092756D03*
X0485331Y0092756D03*
D15*
X0394209Y0105886D03*
X0394209Y0108445D03*
X0394209Y0111004D03*
X0394209Y0113563D03*
X0394209Y0116122D03*
X0394209Y0118681D03*
X0394209Y0121240D03*
X0371572Y0121240D03*
X0371572Y0118681D03*
X0371572Y0116122D03*
X0371572Y0113563D03*
X0371572Y0111004D03*
X0371572Y0108445D03*
X0371572Y0105886D03*
D16*
X0442989Y0065984D03*
X0435705Y0063425D03*
X0442989Y0060866D03*
D17*
X0453442Y0093425D03*
D18*
X0425174Y0084449D03*
X0425174Y0102402D03*
D19*
X0311804Y0101122D03*
X0311804Y0106122D03*
X0311804Y0111122D03*
X0311804Y0116122D03*
X0311804Y0121122D03*
X0274804Y0121122D03*
X0274804Y0116122D03*
X0274804Y0111122D03*
X0274804Y0106122D03*
X0274804Y0101122D03*
X0274804Y0096122D03*
X0274804Y0091122D03*
X0274804Y0086122D03*
X0311804Y0086122D03*
X0311804Y0091122D03*
X0311804Y0096122D03*
D20*
X0313009Y0167799D03*
X0318009Y0167799D03*
X0323009Y0167799D03*
X0328009Y0167799D03*
X0333009Y0167799D03*
X0338009Y0167799D03*
X0343009Y0167799D03*
X0348009Y0167799D03*
X0359072Y0167799D03*
X0364072Y0167799D03*
X0369072Y0167799D03*
X0374072Y0167799D03*
X0379072Y0167799D03*
X0384072Y0167799D03*
X0389072Y0167799D03*
X0394072Y0167799D03*
X0394072Y0204799D03*
X0389072Y0204799D03*
X0384072Y0204799D03*
X0379072Y0204799D03*
X0374072Y0204799D03*
X0369072Y0204799D03*
X0364072Y0204799D03*
X0359072Y0204799D03*
X0348009Y0204799D03*
X0343009Y0204799D03*
X0338009Y0204799D03*
X0333009Y0204799D03*
X0328009Y0204799D03*
X0323009Y0204799D03*
X0318009Y0204799D03*
X0313009Y0204799D03*
D21*
X0408678Y0204799D03*
X0413678Y0204799D03*
X0418678Y0204799D03*
X0423678Y0204799D03*
X0428678Y0204799D03*
X0433678Y0204799D03*
X0438678Y0204799D03*
X0443678Y0204799D03*
X0443678Y0167799D03*
X0438678Y0167799D03*
X0433678Y0167799D03*
X0428678Y0167799D03*
X0423678Y0167799D03*
X0418678Y0167799D03*
X0413678Y0167799D03*
X0408678Y0167799D03*
M02*
