%
M48
M72
T01C0.02000
T02C0.02362
T03C0.02756
T04C0.03150
T05C0.03543
T06C0.03937
T07C0.04000
T08C0.08661
T09C0.13000
T10C0.15748
%
T01
X123816Y41024
X153343Y41024
X220272Y41024
X245863Y41024
X245863Y52835
X254918Y72913
X274997Y78819
X241926Y89449
X194682Y97717
X247831Y117795
X256099Y122520
X262005Y116614
X266729Y122520
X277162Y144567
X268304Y148307
X240154Y155984
X232477Y159921
X262792Y190827
X252556Y194764
X242516Y198701
X238383Y204016
X274997Y226457
X303343Y214646
X311611Y214646
X353540Y204606
X357674Y215827
X357674Y224094
X403737Y209921
X401375Y202835
X428540Y214646
X425587Y222913
X452162Y219370
X456886Y222913
X466335Y222913
X480509Y222913
X493501Y219370
X501768Y213465
X476965Y214646
X463973Y211102
X458068Y206378
X450981Y204016
X453343Y212283
X401375Y170945
X403737Y166220
X382477Y152047
X378934Y146142
X362398Y122520
X344682Y122520
X331690Y122520
X322241Y122520
X325784Y116614
X368304Y94173
X356493Y80000
X326965Y74094
X368304Y64646
X515942Y137874
X454524Y160315
X450981Y167402
X453343Y143780
X354131Y167402
X305705Y170945
X296257Y166220
X305705Y162677
X155312Y165039
X141532Y165039
X121847Y151260
X121847Y125669
X121847Y102047
X121847Y76457
X139170Y206378
X149800Y206378
X121453Y230000
X121453Y241811
X135627Y241811
X153343Y241811
X184052Y241811
X210036Y241811
X225390Y241811
X603343Y241811
X621060Y224094
X622241Y196929
X622241Y97717
X621060Y58740
X606886Y39843
T02
X510036Y120748
X507674Y126063
X453343Y150866
X428540Y155591
X365351Y155394
X365351Y160709
X365351Y150079
X365351Y144764
X338383Y111693
X319879Y106575
X320469Y101260
X331099Y100866
X345272Y96535
X265548Y106575
X256099Y101850
X247831Y101260
X227162Y89449
X205902Y84724
X210627Y101850
X423225Y108937
T03
X410745Y93425
X410745Y83425
X410745Y73425
X410745Y63425
T04
X295942Y46693
X285942Y46693
X260942Y236693
X250942Y236693
T05
X150036Y150354
X140194Y150354
X140194Y142087
X150036Y140512
X150036Y131850
X140194Y131850
X140194Y123583
X150036Y123583
T06
X305942Y46693
X315942Y46693
X325942Y46693
X335942Y46693
X345942Y46693
X355942Y46693
X375942Y46693
X385942Y46693
X395942Y46693
X405942Y46693
X415942Y46693
X425942Y46693
X435942Y46693
X445942Y46693
X465942Y46693
X475942Y46693
X485942Y46693
X495942Y46693
X505942Y46693
X515942Y46693
X525942Y46693
X535942Y46693
X545942Y66693
X555942Y66693
X555942Y76693
X545942Y76693
X545942Y86693
X555942Y86693
X555942Y96693
X545942Y96693
X545942Y106693
X555942Y106693
X555942Y116693
X545942Y116693
X545942Y126693
X555942Y126693
X555942Y136693
X545942Y136693
X545942Y146693
X555942Y146693
X555942Y156693
X545942Y156693
X545942Y166693
X555942Y166693
X555942Y176693
X545942Y176693
X545942Y186693
X555942Y186693
X555942Y196693
X545942Y196693
X545942Y206693
X555942Y206693
X555942Y216693
X545942Y216693
X545942Y226693
X555942Y226693
X555942Y236693
X545942Y236693
X515942Y236693
X505942Y236693
X495942Y236693
X485942Y236693
X475942Y236693
X465942Y236693
X455942Y236693
X445942Y236693
X425942Y236693
X415942Y236693
X405942Y236693
X395942Y236693
X385942Y236693
X375942Y236693
X365942Y236693
X355942Y236693
X340942Y236693
X330942Y236693
X320942Y236693
X310942Y236693
X300942Y236693
X290942Y236693
X280942Y236693
X270942Y236693
T07
X199589Y212067
X188789Y212067
X177989Y212067
X167189Y212067
X156389Y212067
X161789Y222067
X172589Y222067
X183389Y222067
X194189Y222067
X227674Y177972
X237674Y177972
X247674Y177972
X257674Y177972
X267674Y177972
X267674Y167972
X257674Y167972
X247674Y167972
X237674Y167972
X227674Y167972
X185666Y141969
X185666Y131969
X185666Y121969
X187792Y71378
X176992Y71378
X166192Y71378
X171592Y61378
X182392Y61378
X193192Y61378
X203992Y61378
X209392Y71378
X198592Y71378
X466335Y140866
X466335Y150866
X466335Y160866
X516572Y113425
X526572Y113425
X570863Y106496
X570863Y96496
X570863Y86496
X570863Y76496
X570863Y66496
X575272Y55000
X565272Y55000
X526572Y68425
X516572Y68425
X592320Y125290
X602320Y130690
X592320Y136090
X602320Y141490
X592320Y146890
X602320Y152290
X592320Y157690
X602320Y163090
X592320Y168490
T08
X128383Y163543
X125233Y136969
X128383Y110394
T09
X138492Y66378
X237092Y66378
X227289Y217067
X128689Y217067
X597320Y196190
X597320Y97590
T10
X617910Y44961
X617910Y237874
X125784Y194567
X125784Y90236
M30
