G75*
%MOIN*%
%OFA0B0*%
%FSLAX25Y25*%
%IPPOS*%
%LPD*%
%AMOC8*
5,1,8,0,0,1.08239X$1,22.5*
%
%ADD10C,0.00800*%
%ADD11C,0.00000*%
D10*
X0116670Y0035689D02*
X0627280Y0035689D01*
X0627280Y0246969D01*
X0116670Y0246969D01*
X0116670Y0035689D01*
D11*
X0117910Y0090236D02*
X0117912Y0090429D01*
X0117919Y0090622D01*
X0117931Y0090815D01*
X0117948Y0091008D01*
X0117969Y0091200D01*
X0117995Y0091391D01*
X0118026Y0091582D01*
X0118061Y0091772D01*
X0118101Y0091961D01*
X0118146Y0092149D01*
X0118195Y0092336D01*
X0118249Y0092522D01*
X0118307Y0092706D01*
X0118370Y0092889D01*
X0118438Y0093070D01*
X0118509Y0093249D01*
X0118586Y0093427D01*
X0118666Y0093603D01*
X0118751Y0093776D01*
X0118840Y0093948D01*
X0118933Y0094117D01*
X0119030Y0094284D01*
X0119132Y0094449D01*
X0119237Y0094611D01*
X0119346Y0094770D01*
X0119460Y0094927D01*
X0119577Y0095080D01*
X0119697Y0095231D01*
X0119822Y0095379D01*
X0119950Y0095524D01*
X0120081Y0095665D01*
X0120216Y0095804D01*
X0120355Y0095939D01*
X0120496Y0096070D01*
X0120641Y0096198D01*
X0120789Y0096323D01*
X0120940Y0096443D01*
X0121093Y0096560D01*
X0121250Y0096674D01*
X0121409Y0096783D01*
X0121571Y0096888D01*
X0121736Y0096990D01*
X0121903Y0097087D01*
X0122072Y0097180D01*
X0122244Y0097269D01*
X0122417Y0097354D01*
X0122593Y0097434D01*
X0122771Y0097511D01*
X0122950Y0097582D01*
X0123131Y0097650D01*
X0123314Y0097713D01*
X0123498Y0097771D01*
X0123684Y0097825D01*
X0123871Y0097874D01*
X0124059Y0097919D01*
X0124248Y0097959D01*
X0124438Y0097994D01*
X0124629Y0098025D01*
X0124820Y0098051D01*
X0125012Y0098072D01*
X0125205Y0098089D01*
X0125398Y0098101D01*
X0125591Y0098108D01*
X0125784Y0098110D01*
X0125977Y0098108D01*
X0126170Y0098101D01*
X0126363Y0098089D01*
X0126556Y0098072D01*
X0126748Y0098051D01*
X0126939Y0098025D01*
X0127130Y0097994D01*
X0127320Y0097959D01*
X0127509Y0097919D01*
X0127697Y0097874D01*
X0127884Y0097825D01*
X0128070Y0097771D01*
X0128254Y0097713D01*
X0128437Y0097650D01*
X0128618Y0097582D01*
X0128797Y0097511D01*
X0128975Y0097434D01*
X0129151Y0097354D01*
X0129324Y0097269D01*
X0129496Y0097180D01*
X0129665Y0097087D01*
X0129832Y0096990D01*
X0129997Y0096888D01*
X0130159Y0096783D01*
X0130318Y0096674D01*
X0130475Y0096560D01*
X0130628Y0096443D01*
X0130779Y0096323D01*
X0130927Y0096198D01*
X0131072Y0096070D01*
X0131213Y0095939D01*
X0131352Y0095804D01*
X0131487Y0095665D01*
X0131618Y0095524D01*
X0131746Y0095379D01*
X0131871Y0095231D01*
X0131991Y0095080D01*
X0132108Y0094927D01*
X0132222Y0094770D01*
X0132331Y0094611D01*
X0132436Y0094449D01*
X0132538Y0094284D01*
X0132635Y0094117D01*
X0132728Y0093948D01*
X0132817Y0093776D01*
X0132902Y0093603D01*
X0132982Y0093427D01*
X0133059Y0093249D01*
X0133130Y0093070D01*
X0133198Y0092889D01*
X0133261Y0092706D01*
X0133319Y0092522D01*
X0133373Y0092336D01*
X0133422Y0092149D01*
X0133467Y0091961D01*
X0133507Y0091772D01*
X0133542Y0091582D01*
X0133573Y0091391D01*
X0133599Y0091200D01*
X0133620Y0091008D01*
X0133637Y0090815D01*
X0133649Y0090622D01*
X0133656Y0090429D01*
X0133658Y0090236D01*
X0133656Y0090043D01*
X0133649Y0089850D01*
X0133637Y0089657D01*
X0133620Y0089464D01*
X0133599Y0089272D01*
X0133573Y0089081D01*
X0133542Y0088890D01*
X0133507Y0088700D01*
X0133467Y0088511D01*
X0133422Y0088323D01*
X0133373Y0088136D01*
X0133319Y0087950D01*
X0133261Y0087766D01*
X0133198Y0087583D01*
X0133130Y0087402D01*
X0133059Y0087223D01*
X0132982Y0087045D01*
X0132902Y0086869D01*
X0132817Y0086696D01*
X0132728Y0086524D01*
X0132635Y0086355D01*
X0132538Y0086188D01*
X0132436Y0086023D01*
X0132331Y0085861D01*
X0132222Y0085702D01*
X0132108Y0085545D01*
X0131991Y0085392D01*
X0131871Y0085241D01*
X0131746Y0085093D01*
X0131618Y0084948D01*
X0131487Y0084807D01*
X0131352Y0084668D01*
X0131213Y0084533D01*
X0131072Y0084402D01*
X0130927Y0084274D01*
X0130779Y0084149D01*
X0130628Y0084029D01*
X0130475Y0083912D01*
X0130318Y0083798D01*
X0130159Y0083689D01*
X0129997Y0083584D01*
X0129832Y0083482D01*
X0129665Y0083385D01*
X0129496Y0083292D01*
X0129324Y0083203D01*
X0129151Y0083118D01*
X0128975Y0083038D01*
X0128797Y0082961D01*
X0128618Y0082890D01*
X0128437Y0082822D01*
X0128254Y0082759D01*
X0128070Y0082701D01*
X0127884Y0082647D01*
X0127697Y0082598D01*
X0127509Y0082553D01*
X0127320Y0082513D01*
X0127130Y0082478D01*
X0126939Y0082447D01*
X0126748Y0082421D01*
X0126556Y0082400D01*
X0126363Y0082383D01*
X0126170Y0082371D01*
X0125977Y0082364D01*
X0125784Y0082362D01*
X0125591Y0082364D01*
X0125398Y0082371D01*
X0125205Y0082383D01*
X0125012Y0082400D01*
X0124820Y0082421D01*
X0124629Y0082447D01*
X0124438Y0082478D01*
X0124248Y0082513D01*
X0124059Y0082553D01*
X0123871Y0082598D01*
X0123684Y0082647D01*
X0123498Y0082701D01*
X0123314Y0082759D01*
X0123131Y0082822D01*
X0122950Y0082890D01*
X0122771Y0082961D01*
X0122593Y0083038D01*
X0122417Y0083118D01*
X0122244Y0083203D01*
X0122072Y0083292D01*
X0121903Y0083385D01*
X0121736Y0083482D01*
X0121571Y0083584D01*
X0121409Y0083689D01*
X0121250Y0083798D01*
X0121093Y0083912D01*
X0120940Y0084029D01*
X0120789Y0084149D01*
X0120641Y0084274D01*
X0120496Y0084402D01*
X0120355Y0084533D01*
X0120216Y0084668D01*
X0120081Y0084807D01*
X0119950Y0084948D01*
X0119822Y0085093D01*
X0119697Y0085241D01*
X0119577Y0085392D01*
X0119460Y0085545D01*
X0119346Y0085702D01*
X0119237Y0085861D01*
X0119132Y0086023D01*
X0119030Y0086188D01*
X0118933Y0086355D01*
X0118840Y0086524D01*
X0118751Y0086696D01*
X0118666Y0086869D01*
X0118586Y0087045D01*
X0118509Y0087223D01*
X0118438Y0087402D01*
X0118370Y0087583D01*
X0118307Y0087766D01*
X0118249Y0087950D01*
X0118195Y0088136D01*
X0118146Y0088323D01*
X0118101Y0088511D01*
X0118061Y0088700D01*
X0118026Y0088890D01*
X0117995Y0089081D01*
X0117969Y0089272D01*
X0117948Y0089464D01*
X0117931Y0089657D01*
X0117919Y0089850D01*
X0117912Y0090043D01*
X0117910Y0090236D01*
X0117910Y0194567D02*
X0117912Y0194760D01*
X0117919Y0194953D01*
X0117931Y0195146D01*
X0117948Y0195339D01*
X0117969Y0195531D01*
X0117995Y0195722D01*
X0118026Y0195913D01*
X0118061Y0196103D01*
X0118101Y0196292D01*
X0118146Y0196480D01*
X0118195Y0196667D01*
X0118249Y0196853D01*
X0118307Y0197037D01*
X0118370Y0197220D01*
X0118438Y0197401D01*
X0118509Y0197580D01*
X0118586Y0197758D01*
X0118666Y0197934D01*
X0118751Y0198107D01*
X0118840Y0198279D01*
X0118933Y0198448D01*
X0119030Y0198615D01*
X0119132Y0198780D01*
X0119237Y0198942D01*
X0119346Y0199101D01*
X0119460Y0199258D01*
X0119577Y0199411D01*
X0119697Y0199562D01*
X0119822Y0199710D01*
X0119950Y0199855D01*
X0120081Y0199996D01*
X0120216Y0200135D01*
X0120355Y0200270D01*
X0120496Y0200401D01*
X0120641Y0200529D01*
X0120789Y0200654D01*
X0120940Y0200774D01*
X0121093Y0200891D01*
X0121250Y0201005D01*
X0121409Y0201114D01*
X0121571Y0201219D01*
X0121736Y0201321D01*
X0121903Y0201418D01*
X0122072Y0201511D01*
X0122244Y0201600D01*
X0122417Y0201685D01*
X0122593Y0201765D01*
X0122771Y0201842D01*
X0122950Y0201913D01*
X0123131Y0201981D01*
X0123314Y0202044D01*
X0123498Y0202102D01*
X0123684Y0202156D01*
X0123871Y0202205D01*
X0124059Y0202250D01*
X0124248Y0202290D01*
X0124438Y0202325D01*
X0124629Y0202356D01*
X0124820Y0202382D01*
X0125012Y0202403D01*
X0125205Y0202420D01*
X0125398Y0202432D01*
X0125591Y0202439D01*
X0125784Y0202441D01*
X0125977Y0202439D01*
X0126170Y0202432D01*
X0126363Y0202420D01*
X0126556Y0202403D01*
X0126748Y0202382D01*
X0126939Y0202356D01*
X0127130Y0202325D01*
X0127320Y0202290D01*
X0127509Y0202250D01*
X0127697Y0202205D01*
X0127884Y0202156D01*
X0128070Y0202102D01*
X0128254Y0202044D01*
X0128437Y0201981D01*
X0128618Y0201913D01*
X0128797Y0201842D01*
X0128975Y0201765D01*
X0129151Y0201685D01*
X0129324Y0201600D01*
X0129496Y0201511D01*
X0129665Y0201418D01*
X0129832Y0201321D01*
X0129997Y0201219D01*
X0130159Y0201114D01*
X0130318Y0201005D01*
X0130475Y0200891D01*
X0130628Y0200774D01*
X0130779Y0200654D01*
X0130927Y0200529D01*
X0131072Y0200401D01*
X0131213Y0200270D01*
X0131352Y0200135D01*
X0131487Y0199996D01*
X0131618Y0199855D01*
X0131746Y0199710D01*
X0131871Y0199562D01*
X0131991Y0199411D01*
X0132108Y0199258D01*
X0132222Y0199101D01*
X0132331Y0198942D01*
X0132436Y0198780D01*
X0132538Y0198615D01*
X0132635Y0198448D01*
X0132728Y0198279D01*
X0132817Y0198107D01*
X0132902Y0197934D01*
X0132982Y0197758D01*
X0133059Y0197580D01*
X0133130Y0197401D01*
X0133198Y0197220D01*
X0133261Y0197037D01*
X0133319Y0196853D01*
X0133373Y0196667D01*
X0133422Y0196480D01*
X0133467Y0196292D01*
X0133507Y0196103D01*
X0133542Y0195913D01*
X0133573Y0195722D01*
X0133599Y0195531D01*
X0133620Y0195339D01*
X0133637Y0195146D01*
X0133649Y0194953D01*
X0133656Y0194760D01*
X0133658Y0194567D01*
X0133656Y0194374D01*
X0133649Y0194181D01*
X0133637Y0193988D01*
X0133620Y0193795D01*
X0133599Y0193603D01*
X0133573Y0193412D01*
X0133542Y0193221D01*
X0133507Y0193031D01*
X0133467Y0192842D01*
X0133422Y0192654D01*
X0133373Y0192467D01*
X0133319Y0192281D01*
X0133261Y0192097D01*
X0133198Y0191914D01*
X0133130Y0191733D01*
X0133059Y0191554D01*
X0132982Y0191376D01*
X0132902Y0191200D01*
X0132817Y0191027D01*
X0132728Y0190855D01*
X0132635Y0190686D01*
X0132538Y0190519D01*
X0132436Y0190354D01*
X0132331Y0190192D01*
X0132222Y0190033D01*
X0132108Y0189876D01*
X0131991Y0189723D01*
X0131871Y0189572D01*
X0131746Y0189424D01*
X0131618Y0189279D01*
X0131487Y0189138D01*
X0131352Y0188999D01*
X0131213Y0188864D01*
X0131072Y0188733D01*
X0130927Y0188605D01*
X0130779Y0188480D01*
X0130628Y0188360D01*
X0130475Y0188243D01*
X0130318Y0188129D01*
X0130159Y0188020D01*
X0129997Y0187915D01*
X0129832Y0187813D01*
X0129665Y0187716D01*
X0129496Y0187623D01*
X0129324Y0187534D01*
X0129151Y0187449D01*
X0128975Y0187369D01*
X0128797Y0187292D01*
X0128618Y0187221D01*
X0128437Y0187153D01*
X0128254Y0187090D01*
X0128070Y0187032D01*
X0127884Y0186978D01*
X0127697Y0186929D01*
X0127509Y0186884D01*
X0127320Y0186844D01*
X0127130Y0186809D01*
X0126939Y0186778D01*
X0126748Y0186752D01*
X0126556Y0186731D01*
X0126363Y0186714D01*
X0126170Y0186702D01*
X0125977Y0186695D01*
X0125784Y0186693D01*
X0125591Y0186695D01*
X0125398Y0186702D01*
X0125205Y0186714D01*
X0125012Y0186731D01*
X0124820Y0186752D01*
X0124629Y0186778D01*
X0124438Y0186809D01*
X0124248Y0186844D01*
X0124059Y0186884D01*
X0123871Y0186929D01*
X0123684Y0186978D01*
X0123498Y0187032D01*
X0123314Y0187090D01*
X0123131Y0187153D01*
X0122950Y0187221D01*
X0122771Y0187292D01*
X0122593Y0187369D01*
X0122417Y0187449D01*
X0122244Y0187534D01*
X0122072Y0187623D01*
X0121903Y0187716D01*
X0121736Y0187813D01*
X0121571Y0187915D01*
X0121409Y0188020D01*
X0121250Y0188129D01*
X0121093Y0188243D01*
X0120940Y0188360D01*
X0120789Y0188480D01*
X0120641Y0188605D01*
X0120496Y0188733D01*
X0120355Y0188864D01*
X0120216Y0188999D01*
X0120081Y0189138D01*
X0119950Y0189279D01*
X0119822Y0189424D01*
X0119697Y0189572D01*
X0119577Y0189723D01*
X0119460Y0189876D01*
X0119346Y0190033D01*
X0119237Y0190192D01*
X0119132Y0190354D01*
X0119030Y0190519D01*
X0118933Y0190686D01*
X0118840Y0190855D01*
X0118751Y0191027D01*
X0118666Y0191200D01*
X0118586Y0191376D01*
X0118509Y0191554D01*
X0118438Y0191733D01*
X0118370Y0191914D01*
X0118307Y0192097D01*
X0118249Y0192281D01*
X0118195Y0192467D01*
X0118146Y0192654D01*
X0118101Y0192842D01*
X0118061Y0193031D01*
X0118026Y0193221D01*
X0117995Y0193412D01*
X0117969Y0193603D01*
X0117948Y0193795D01*
X0117931Y0193988D01*
X0117919Y0194181D01*
X0117912Y0194374D01*
X0117910Y0194567D01*
X0609052Y0236890D02*
X0609054Y0237083D01*
X0609061Y0237276D01*
X0609073Y0237469D01*
X0609090Y0237662D01*
X0609111Y0237854D01*
X0609137Y0238045D01*
X0609168Y0238236D01*
X0609203Y0238426D01*
X0609243Y0238615D01*
X0609288Y0238803D01*
X0609337Y0238990D01*
X0609391Y0239176D01*
X0609449Y0239360D01*
X0609512Y0239543D01*
X0609580Y0239724D01*
X0609651Y0239903D01*
X0609728Y0240081D01*
X0609808Y0240257D01*
X0609893Y0240430D01*
X0609982Y0240602D01*
X0610075Y0240771D01*
X0610172Y0240938D01*
X0610274Y0241103D01*
X0610379Y0241265D01*
X0610488Y0241424D01*
X0610602Y0241581D01*
X0610719Y0241734D01*
X0610839Y0241885D01*
X0610964Y0242033D01*
X0611092Y0242178D01*
X0611223Y0242319D01*
X0611358Y0242458D01*
X0611497Y0242593D01*
X0611638Y0242724D01*
X0611783Y0242852D01*
X0611931Y0242977D01*
X0612082Y0243097D01*
X0612235Y0243214D01*
X0612392Y0243328D01*
X0612551Y0243437D01*
X0612713Y0243542D01*
X0612878Y0243644D01*
X0613045Y0243741D01*
X0613214Y0243834D01*
X0613386Y0243923D01*
X0613559Y0244008D01*
X0613735Y0244088D01*
X0613913Y0244165D01*
X0614092Y0244236D01*
X0614273Y0244304D01*
X0614456Y0244367D01*
X0614640Y0244425D01*
X0614826Y0244479D01*
X0615013Y0244528D01*
X0615201Y0244573D01*
X0615390Y0244613D01*
X0615580Y0244648D01*
X0615771Y0244679D01*
X0615962Y0244705D01*
X0616154Y0244726D01*
X0616347Y0244743D01*
X0616540Y0244755D01*
X0616733Y0244762D01*
X0616926Y0244764D01*
X0617119Y0244762D01*
X0617312Y0244755D01*
X0617505Y0244743D01*
X0617698Y0244726D01*
X0617890Y0244705D01*
X0618081Y0244679D01*
X0618272Y0244648D01*
X0618462Y0244613D01*
X0618651Y0244573D01*
X0618839Y0244528D01*
X0619026Y0244479D01*
X0619212Y0244425D01*
X0619396Y0244367D01*
X0619579Y0244304D01*
X0619760Y0244236D01*
X0619939Y0244165D01*
X0620117Y0244088D01*
X0620293Y0244008D01*
X0620466Y0243923D01*
X0620638Y0243834D01*
X0620807Y0243741D01*
X0620974Y0243644D01*
X0621139Y0243542D01*
X0621301Y0243437D01*
X0621460Y0243328D01*
X0621617Y0243214D01*
X0621770Y0243097D01*
X0621921Y0242977D01*
X0622069Y0242852D01*
X0622214Y0242724D01*
X0622355Y0242593D01*
X0622494Y0242458D01*
X0622629Y0242319D01*
X0622760Y0242178D01*
X0622888Y0242033D01*
X0623013Y0241885D01*
X0623133Y0241734D01*
X0623250Y0241581D01*
X0623364Y0241424D01*
X0623473Y0241265D01*
X0623578Y0241103D01*
X0623680Y0240938D01*
X0623777Y0240771D01*
X0623870Y0240602D01*
X0623959Y0240430D01*
X0624044Y0240257D01*
X0624124Y0240081D01*
X0624201Y0239903D01*
X0624272Y0239724D01*
X0624340Y0239543D01*
X0624403Y0239360D01*
X0624461Y0239176D01*
X0624515Y0238990D01*
X0624564Y0238803D01*
X0624609Y0238615D01*
X0624649Y0238426D01*
X0624684Y0238236D01*
X0624715Y0238045D01*
X0624741Y0237854D01*
X0624762Y0237662D01*
X0624779Y0237469D01*
X0624791Y0237276D01*
X0624798Y0237083D01*
X0624800Y0236890D01*
X0624798Y0236697D01*
X0624791Y0236504D01*
X0624779Y0236311D01*
X0624762Y0236118D01*
X0624741Y0235926D01*
X0624715Y0235735D01*
X0624684Y0235544D01*
X0624649Y0235354D01*
X0624609Y0235165D01*
X0624564Y0234977D01*
X0624515Y0234790D01*
X0624461Y0234604D01*
X0624403Y0234420D01*
X0624340Y0234237D01*
X0624272Y0234056D01*
X0624201Y0233877D01*
X0624124Y0233699D01*
X0624044Y0233523D01*
X0623959Y0233350D01*
X0623870Y0233178D01*
X0623777Y0233009D01*
X0623680Y0232842D01*
X0623578Y0232677D01*
X0623473Y0232515D01*
X0623364Y0232356D01*
X0623250Y0232199D01*
X0623133Y0232046D01*
X0623013Y0231895D01*
X0622888Y0231747D01*
X0622760Y0231602D01*
X0622629Y0231461D01*
X0622494Y0231322D01*
X0622355Y0231187D01*
X0622214Y0231056D01*
X0622069Y0230928D01*
X0621921Y0230803D01*
X0621770Y0230683D01*
X0621617Y0230566D01*
X0621460Y0230452D01*
X0621301Y0230343D01*
X0621139Y0230238D01*
X0620974Y0230136D01*
X0620807Y0230039D01*
X0620638Y0229946D01*
X0620466Y0229857D01*
X0620293Y0229772D01*
X0620117Y0229692D01*
X0619939Y0229615D01*
X0619760Y0229544D01*
X0619579Y0229476D01*
X0619396Y0229413D01*
X0619212Y0229355D01*
X0619026Y0229301D01*
X0618839Y0229252D01*
X0618651Y0229207D01*
X0618462Y0229167D01*
X0618272Y0229132D01*
X0618081Y0229101D01*
X0617890Y0229075D01*
X0617698Y0229054D01*
X0617505Y0229037D01*
X0617312Y0229025D01*
X0617119Y0229018D01*
X0616926Y0229016D01*
X0616733Y0229018D01*
X0616540Y0229025D01*
X0616347Y0229037D01*
X0616154Y0229054D01*
X0615962Y0229075D01*
X0615771Y0229101D01*
X0615580Y0229132D01*
X0615390Y0229167D01*
X0615201Y0229207D01*
X0615013Y0229252D01*
X0614826Y0229301D01*
X0614640Y0229355D01*
X0614456Y0229413D01*
X0614273Y0229476D01*
X0614092Y0229544D01*
X0613913Y0229615D01*
X0613735Y0229692D01*
X0613559Y0229772D01*
X0613386Y0229857D01*
X0613214Y0229946D01*
X0613045Y0230039D01*
X0612878Y0230136D01*
X0612713Y0230238D01*
X0612551Y0230343D01*
X0612392Y0230452D01*
X0612235Y0230566D01*
X0612082Y0230683D01*
X0611931Y0230803D01*
X0611783Y0230928D01*
X0611638Y0231056D01*
X0611497Y0231187D01*
X0611358Y0231322D01*
X0611223Y0231461D01*
X0611092Y0231602D01*
X0610964Y0231747D01*
X0610839Y0231895D01*
X0610719Y0232046D01*
X0610602Y0232199D01*
X0610488Y0232356D01*
X0610379Y0232515D01*
X0610274Y0232677D01*
X0610172Y0232842D01*
X0610075Y0233009D01*
X0609982Y0233178D01*
X0609893Y0233350D01*
X0609808Y0233523D01*
X0609728Y0233699D01*
X0609651Y0233877D01*
X0609580Y0234056D01*
X0609512Y0234237D01*
X0609449Y0234420D01*
X0609391Y0234604D01*
X0609337Y0234790D01*
X0609288Y0234977D01*
X0609243Y0235165D01*
X0609203Y0235354D01*
X0609168Y0235544D01*
X0609137Y0235735D01*
X0609111Y0235926D01*
X0609090Y0236118D01*
X0609073Y0236311D01*
X0609061Y0236504D01*
X0609054Y0236697D01*
X0609052Y0236890D01*
X0609052Y0045945D02*
X0609054Y0046138D01*
X0609061Y0046331D01*
X0609073Y0046524D01*
X0609090Y0046717D01*
X0609111Y0046909D01*
X0609137Y0047100D01*
X0609168Y0047291D01*
X0609203Y0047481D01*
X0609243Y0047670D01*
X0609288Y0047858D01*
X0609337Y0048045D01*
X0609391Y0048231D01*
X0609449Y0048415D01*
X0609512Y0048598D01*
X0609580Y0048779D01*
X0609651Y0048958D01*
X0609728Y0049136D01*
X0609808Y0049312D01*
X0609893Y0049485D01*
X0609982Y0049657D01*
X0610075Y0049826D01*
X0610172Y0049993D01*
X0610274Y0050158D01*
X0610379Y0050320D01*
X0610488Y0050479D01*
X0610602Y0050636D01*
X0610719Y0050789D01*
X0610839Y0050940D01*
X0610964Y0051088D01*
X0611092Y0051233D01*
X0611223Y0051374D01*
X0611358Y0051513D01*
X0611497Y0051648D01*
X0611638Y0051779D01*
X0611783Y0051907D01*
X0611931Y0052032D01*
X0612082Y0052152D01*
X0612235Y0052269D01*
X0612392Y0052383D01*
X0612551Y0052492D01*
X0612713Y0052597D01*
X0612878Y0052699D01*
X0613045Y0052796D01*
X0613214Y0052889D01*
X0613386Y0052978D01*
X0613559Y0053063D01*
X0613735Y0053143D01*
X0613913Y0053220D01*
X0614092Y0053291D01*
X0614273Y0053359D01*
X0614456Y0053422D01*
X0614640Y0053480D01*
X0614826Y0053534D01*
X0615013Y0053583D01*
X0615201Y0053628D01*
X0615390Y0053668D01*
X0615580Y0053703D01*
X0615771Y0053734D01*
X0615962Y0053760D01*
X0616154Y0053781D01*
X0616347Y0053798D01*
X0616540Y0053810D01*
X0616733Y0053817D01*
X0616926Y0053819D01*
X0617119Y0053817D01*
X0617312Y0053810D01*
X0617505Y0053798D01*
X0617698Y0053781D01*
X0617890Y0053760D01*
X0618081Y0053734D01*
X0618272Y0053703D01*
X0618462Y0053668D01*
X0618651Y0053628D01*
X0618839Y0053583D01*
X0619026Y0053534D01*
X0619212Y0053480D01*
X0619396Y0053422D01*
X0619579Y0053359D01*
X0619760Y0053291D01*
X0619939Y0053220D01*
X0620117Y0053143D01*
X0620293Y0053063D01*
X0620466Y0052978D01*
X0620638Y0052889D01*
X0620807Y0052796D01*
X0620974Y0052699D01*
X0621139Y0052597D01*
X0621301Y0052492D01*
X0621460Y0052383D01*
X0621617Y0052269D01*
X0621770Y0052152D01*
X0621921Y0052032D01*
X0622069Y0051907D01*
X0622214Y0051779D01*
X0622355Y0051648D01*
X0622494Y0051513D01*
X0622629Y0051374D01*
X0622760Y0051233D01*
X0622888Y0051088D01*
X0623013Y0050940D01*
X0623133Y0050789D01*
X0623250Y0050636D01*
X0623364Y0050479D01*
X0623473Y0050320D01*
X0623578Y0050158D01*
X0623680Y0049993D01*
X0623777Y0049826D01*
X0623870Y0049657D01*
X0623959Y0049485D01*
X0624044Y0049312D01*
X0624124Y0049136D01*
X0624201Y0048958D01*
X0624272Y0048779D01*
X0624340Y0048598D01*
X0624403Y0048415D01*
X0624461Y0048231D01*
X0624515Y0048045D01*
X0624564Y0047858D01*
X0624609Y0047670D01*
X0624649Y0047481D01*
X0624684Y0047291D01*
X0624715Y0047100D01*
X0624741Y0046909D01*
X0624762Y0046717D01*
X0624779Y0046524D01*
X0624791Y0046331D01*
X0624798Y0046138D01*
X0624800Y0045945D01*
X0624798Y0045752D01*
X0624791Y0045559D01*
X0624779Y0045366D01*
X0624762Y0045173D01*
X0624741Y0044981D01*
X0624715Y0044790D01*
X0624684Y0044599D01*
X0624649Y0044409D01*
X0624609Y0044220D01*
X0624564Y0044032D01*
X0624515Y0043845D01*
X0624461Y0043659D01*
X0624403Y0043475D01*
X0624340Y0043292D01*
X0624272Y0043111D01*
X0624201Y0042932D01*
X0624124Y0042754D01*
X0624044Y0042578D01*
X0623959Y0042405D01*
X0623870Y0042233D01*
X0623777Y0042064D01*
X0623680Y0041897D01*
X0623578Y0041732D01*
X0623473Y0041570D01*
X0623364Y0041411D01*
X0623250Y0041254D01*
X0623133Y0041101D01*
X0623013Y0040950D01*
X0622888Y0040802D01*
X0622760Y0040657D01*
X0622629Y0040516D01*
X0622494Y0040377D01*
X0622355Y0040242D01*
X0622214Y0040111D01*
X0622069Y0039983D01*
X0621921Y0039858D01*
X0621770Y0039738D01*
X0621617Y0039621D01*
X0621460Y0039507D01*
X0621301Y0039398D01*
X0621139Y0039293D01*
X0620974Y0039191D01*
X0620807Y0039094D01*
X0620638Y0039001D01*
X0620466Y0038912D01*
X0620293Y0038827D01*
X0620117Y0038747D01*
X0619939Y0038670D01*
X0619760Y0038599D01*
X0619579Y0038531D01*
X0619396Y0038468D01*
X0619212Y0038410D01*
X0619026Y0038356D01*
X0618839Y0038307D01*
X0618651Y0038262D01*
X0618462Y0038222D01*
X0618272Y0038187D01*
X0618081Y0038156D01*
X0617890Y0038130D01*
X0617698Y0038109D01*
X0617505Y0038092D01*
X0617312Y0038080D01*
X0617119Y0038073D01*
X0616926Y0038071D01*
X0616733Y0038073D01*
X0616540Y0038080D01*
X0616347Y0038092D01*
X0616154Y0038109D01*
X0615962Y0038130D01*
X0615771Y0038156D01*
X0615580Y0038187D01*
X0615390Y0038222D01*
X0615201Y0038262D01*
X0615013Y0038307D01*
X0614826Y0038356D01*
X0614640Y0038410D01*
X0614456Y0038468D01*
X0614273Y0038531D01*
X0614092Y0038599D01*
X0613913Y0038670D01*
X0613735Y0038747D01*
X0613559Y0038827D01*
X0613386Y0038912D01*
X0613214Y0039001D01*
X0613045Y0039094D01*
X0612878Y0039191D01*
X0612713Y0039293D01*
X0612551Y0039398D01*
X0612392Y0039507D01*
X0612235Y0039621D01*
X0612082Y0039738D01*
X0611931Y0039858D01*
X0611783Y0039983D01*
X0611638Y0040111D01*
X0611497Y0040242D01*
X0611358Y0040377D01*
X0611223Y0040516D01*
X0611092Y0040657D01*
X0610964Y0040802D01*
X0610839Y0040950D01*
X0610719Y0041101D01*
X0610602Y0041254D01*
X0610488Y0041411D01*
X0610379Y0041570D01*
X0610274Y0041732D01*
X0610172Y0041897D01*
X0610075Y0042064D01*
X0609982Y0042233D01*
X0609893Y0042405D01*
X0609808Y0042578D01*
X0609728Y0042754D01*
X0609651Y0042932D01*
X0609580Y0043111D01*
X0609512Y0043292D01*
X0609449Y0043475D01*
X0609391Y0043659D01*
X0609337Y0043845D01*
X0609288Y0044032D01*
X0609243Y0044220D01*
X0609203Y0044409D01*
X0609168Y0044599D01*
X0609137Y0044790D01*
X0609111Y0044981D01*
X0609090Y0045173D01*
X0609073Y0045366D01*
X0609061Y0045559D01*
X0609054Y0045752D01*
X0609052Y0045945D01*
M02*
