G75*
%MOIN*%
%OFA0B0*%
%FSLAX25Y25*%
%IPPOS*%
%LPD*%
%AMOC8*
5,1,8,0,0,1.08239X$1,22.5*
%
%ADD10C,0.16732*%
%ADD11R,0.06102X0.06890*%
%ADD12C,0.06921*%
%ADD13C,0.06921*%
%ADD14C,0.06584*%
%ADD15R,0.02384X0.06784*%
%ADD16C,0.05740*%
%ADD17R,0.06890X0.06102*%
%ADD18C,0.06984*%
%ADD19R,0.04528X0.04134*%
%ADD20R,0.04921X0.06496*%
%ADD21R,0.04528X0.02362*%
%ADD22R,0.03740X0.03740*%
%ADD23OC8,0.06984*%
%ADD24C,0.17984*%
%ADD25C,0.13646*%
%ADD26C,0.06528*%
%ADD27R,0.25394X0.23819*%
%ADD28R,0.12795X0.07283*%
%ADD29R,0.08784X0.03084*%
%ADD30R,0.03184X0.08784*%
%ADD31R,0.03084X0.08784*%
%ADD32C,0.05346*%
%ADD33C,0.04984*%
D10*
X0125784Y0090236D03*
X0125784Y0194567D03*
X0617910Y0237874D03*
X0617910Y0044961D03*
D11*
X0508225Y0093425D03*
X0500745Y0093425D03*
X0458087Y0068425D03*
X0450607Y0068425D03*
X0450607Y0058425D03*
X0458087Y0058425D03*
X0429662Y0075709D03*
X0422182Y0075709D03*
X0436611Y0139055D03*
X0444091Y0139055D03*
X0444091Y0148504D03*
X0436611Y0148504D03*
X0436611Y0157953D03*
X0444091Y0157953D03*
X0415745Y0157953D03*
X0408264Y0157953D03*
X0396847Y0158543D03*
X0389367Y0158543D03*
X0389367Y0149685D03*
X0396847Y0149685D03*
X0351375Y0149685D03*
X0343894Y0149685D03*
X0343894Y0158543D03*
X0351375Y0158543D03*
X0349603Y0214646D03*
X0342123Y0214646D03*
X0342123Y0224094D03*
X0349603Y0224094D03*
X0390823Y0222913D03*
X0398304Y0222913D03*
X0408264Y0218189D03*
X0415745Y0218189D03*
X0397713Y0213465D03*
X0390233Y0213465D03*
X0436611Y0213465D03*
X0444091Y0213465D03*
X0444091Y0222913D03*
X0436611Y0222913D03*
X0227339Y0124134D03*
X0219859Y0124134D03*
X0209839Y0129134D03*
X0202359Y0129134D03*
D12*
X0305942Y0049661D02*
X0305942Y0043724D01*
X0315942Y0043724D02*
X0315942Y0049661D01*
X0325942Y0049661D02*
X0325942Y0043724D01*
X0335942Y0043724D02*
X0335942Y0049661D01*
X0345942Y0049661D02*
X0345942Y0043724D01*
X0355942Y0043724D02*
X0355942Y0049661D01*
X0375942Y0049661D02*
X0375942Y0043724D01*
X0385942Y0043724D02*
X0385942Y0049661D01*
X0395942Y0049661D02*
X0395942Y0043724D01*
X0405942Y0043724D02*
X0405942Y0049661D01*
X0415942Y0049661D02*
X0415942Y0043724D01*
X0425942Y0043724D02*
X0425942Y0049661D01*
X0435942Y0049661D02*
X0435942Y0043724D01*
X0445942Y0043724D02*
X0445942Y0049661D01*
X0465942Y0049661D02*
X0465942Y0043724D01*
X0475942Y0043724D02*
X0475942Y0049661D01*
X0485942Y0049661D02*
X0485942Y0043724D01*
X0495942Y0043724D02*
X0495942Y0049661D01*
X0505942Y0049661D02*
X0505942Y0043724D01*
X0515942Y0043724D02*
X0515942Y0049661D01*
X0525942Y0049661D02*
X0525942Y0043724D01*
X0535942Y0043724D02*
X0535942Y0049661D01*
X0515942Y0233724D02*
X0515942Y0239661D01*
X0505942Y0239661D02*
X0505942Y0233724D01*
X0495942Y0233724D02*
X0495942Y0239661D01*
X0485942Y0239661D02*
X0485942Y0233724D01*
X0475942Y0233724D02*
X0475942Y0239661D01*
X0465942Y0239661D02*
X0465942Y0233724D01*
X0455942Y0233724D02*
X0455942Y0239661D01*
X0445942Y0239661D02*
X0445942Y0233724D01*
X0425942Y0233724D02*
X0425942Y0239661D01*
X0415942Y0239661D02*
X0415942Y0233724D01*
X0405942Y0233724D02*
X0405942Y0239661D01*
X0395942Y0239661D02*
X0395942Y0233724D01*
X0385942Y0233724D02*
X0385942Y0239661D01*
X0375942Y0239661D02*
X0375942Y0233724D01*
X0365942Y0233724D02*
X0365942Y0239661D01*
X0355942Y0239661D02*
X0355942Y0233724D01*
X0340942Y0233724D02*
X0340942Y0239661D01*
X0330942Y0239661D02*
X0330942Y0233724D01*
X0320942Y0233724D02*
X0320942Y0239661D01*
X0310942Y0239661D02*
X0310942Y0233724D01*
X0300942Y0233724D02*
X0300942Y0239661D01*
X0290942Y0239661D02*
X0290942Y0233724D01*
X0280942Y0233724D02*
X0280942Y0239661D01*
X0270942Y0239661D02*
X0270942Y0233724D01*
D13*
X0545942Y0236693D03*
X0555942Y0236693D03*
X0555942Y0226693D03*
X0545942Y0226693D03*
X0545942Y0216693D03*
X0555942Y0216693D03*
X0555942Y0206693D03*
X0545942Y0206693D03*
X0545942Y0196693D03*
X0555942Y0196693D03*
X0555942Y0186693D03*
X0545942Y0186693D03*
X0545942Y0176693D03*
X0555942Y0176693D03*
X0555942Y0166693D03*
X0545942Y0166693D03*
X0545942Y0156693D03*
X0555942Y0156693D03*
X0555942Y0146693D03*
X0545942Y0146693D03*
X0545942Y0136693D03*
X0555942Y0136693D03*
X0555942Y0126693D03*
X0545942Y0126693D03*
X0545942Y0116693D03*
X0555942Y0116693D03*
X0555942Y0106693D03*
X0545942Y0106693D03*
X0545942Y0096693D03*
X0555942Y0096693D03*
X0555942Y0086693D03*
X0545942Y0086693D03*
X0545942Y0076693D03*
X0555942Y0076693D03*
X0555942Y0066693D03*
X0545942Y0066693D03*
D14*
X0295942Y0049493D02*
X0295942Y0043893D01*
X0285942Y0043893D02*
X0285942Y0049493D01*
X0260942Y0233893D02*
X0260942Y0239493D01*
X0250942Y0239493D02*
X0250942Y0233893D01*
D15*
X0220099Y0115234D03*
X0217499Y0115234D03*
X0214899Y0115234D03*
X0212399Y0115234D03*
X0209799Y0115234D03*
X0207299Y0115234D03*
X0204699Y0115234D03*
X0202099Y0115234D03*
X0202099Y0093034D03*
X0204699Y0093034D03*
X0207299Y0093034D03*
X0209799Y0093034D03*
X0212399Y0093034D03*
X0214899Y0093034D03*
X0217499Y0093034D03*
X0220099Y0093034D03*
D16*
X0410745Y0093425D03*
X0410745Y0083425D03*
X0410745Y0073425D03*
X0410745Y0063425D03*
D17*
X0388245Y0064685D03*
X0378245Y0064685D03*
X0378245Y0072165D03*
X0388245Y0072165D03*
X0388245Y0084685D03*
X0388245Y0092165D03*
X0378245Y0092165D03*
X0378245Y0084685D03*
X0338186Y0082756D03*
X0329327Y0082756D03*
X0320469Y0082756D03*
X0320469Y0090236D03*
X0329327Y0090236D03*
X0338186Y0090236D03*
X0405981Y0109035D03*
X0414800Y0109035D03*
X0414800Y0116516D03*
X0405981Y0116516D03*
X0474072Y0109803D03*
X0474072Y0102323D03*
X0474072Y0092165D03*
X0474072Y0084685D03*
X0479072Y0075315D03*
X0479072Y0067835D03*
X0504977Y0071575D03*
X0504977Y0079055D03*
X0491572Y0104685D03*
X0491572Y0112165D03*
X0266138Y0092008D03*
X0266138Y0084528D03*
X0257280Y0084528D03*
X0248422Y0084528D03*
X0248422Y0092008D03*
X0257280Y0092008D03*
X0235548Y0091890D03*
X0235548Y0099370D03*
X0226099Y0099213D03*
X0226099Y0106693D03*
X0195764Y0106398D03*
X0195764Y0113878D03*
D18*
X0188666Y0121969D02*
X0182666Y0121969D01*
X0182666Y0131969D02*
X0188666Y0131969D01*
X0188666Y0141969D02*
X0182666Y0141969D01*
X0463335Y0140866D02*
X0469335Y0140866D01*
X0469335Y0150866D02*
X0463335Y0150866D01*
X0463335Y0160866D02*
X0469335Y0160866D01*
X0516572Y0116425D02*
X0516572Y0110425D01*
X0526572Y0110425D02*
X0526572Y0116425D01*
X0567863Y0106496D02*
X0573863Y0106496D01*
X0573863Y0096496D02*
X0567863Y0096496D01*
X0567863Y0086496D02*
X0573863Y0086496D01*
X0573863Y0076496D02*
X0567863Y0076496D01*
X0567863Y0066496D02*
X0573863Y0066496D01*
X0575272Y0058000D02*
X0575272Y0052000D01*
X0565272Y0052000D02*
X0565272Y0058000D01*
X0526572Y0065425D02*
X0526572Y0071425D01*
X0516572Y0071425D02*
X0516572Y0065425D01*
D19*
X0495902Y0071575D03*
X0487635Y0075315D03*
X0487635Y0067835D03*
D20*
X0489072Y0084094D03*
X0492812Y0092756D03*
X0485331Y0092756D03*
D21*
X0394209Y0105886D03*
X0394209Y0108445D03*
X0394209Y0111004D03*
X0394209Y0113563D03*
X0394209Y0116122D03*
X0394209Y0118681D03*
X0394209Y0121240D03*
X0371572Y0121240D03*
X0371572Y0118681D03*
X0371572Y0116122D03*
X0371572Y0113563D03*
X0371572Y0111004D03*
X0371572Y0108445D03*
X0371572Y0105886D03*
D22*
X0442989Y0065984D03*
X0435705Y0063425D03*
X0442989Y0060866D03*
D23*
X0592320Y0125290D03*
X0602320Y0130690D03*
X0592320Y0136090D03*
X0602320Y0141490D03*
X0592320Y0146890D03*
X0602320Y0152290D03*
X0592320Y0157690D03*
X0602320Y0163090D03*
X0592320Y0168490D03*
X0267674Y0167972D03*
X0257674Y0167972D03*
X0247674Y0167972D03*
X0237674Y0167972D03*
X0227674Y0167972D03*
X0227674Y0177972D03*
X0237674Y0177972D03*
X0247674Y0177972D03*
X0257674Y0177972D03*
X0267674Y0177972D03*
X0199589Y0212067D03*
X0188789Y0212067D03*
X0177989Y0212067D03*
X0167189Y0212067D03*
X0156389Y0212067D03*
X0161789Y0222067D03*
X0172589Y0222067D03*
X0183389Y0222067D03*
X0194189Y0222067D03*
X0198592Y0071378D03*
X0209392Y0071378D03*
X0203992Y0061378D03*
X0193192Y0061378D03*
X0182392Y0061378D03*
X0171592Y0061378D03*
X0176992Y0071378D03*
X0187792Y0071378D03*
X0166192Y0071378D03*
D24*
X0138492Y0066378D03*
X0237092Y0066378D03*
X0227289Y0217067D03*
X0128689Y0217067D03*
X0597320Y0196190D03*
X0597320Y0097590D03*
D25*
X0128383Y0110394D03*
X0125233Y0136969D03*
X0128383Y0163543D03*
D26*
X0140194Y0150354D03*
X0150036Y0150354D03*
X0140194Y0142087D03*
X0150036Y0140512D03*
X0150036Y0131850D03*
X0140194Y0131850D03*
X0140194Y0123583D03*
X0150036Y0123583D03*
D27*
X0453442Y0093425D03*
D28*
X0425174Y0084449D03*
X0425174Y0102402D03*
D29*
X0311804Y0101122D03*
X0311804Y0106122D03*
X0311804Y0111122D03*
X0311804Y0116122D03*
X0311804Y0121122D03*
X0274804Y0121122D03*
X0274804Y0116122D03*
X0274804Y0111122D03*
X0274804Y0106122D03*
X0274804Y0101122D03*
X0274804Y0096122D03*
X0274804Y0091122D03*
X0274804Y0086122D03*
X0311804Y0086122D03*
X0311804Y0091122D03*
X0311804Y0096122D03*
D30*
X0313009Y0167799D03*
X0318009Y0167799D03*
X0323009Y0167799D03*
X0328009Y0167799D03*
X0333009Y0167799D03*
X0338009Y0167799D03*
X0343009Y0167799D03*
X0348009Y0167799D03*
X0359072Y0167799D03*
X0364072Y0167799D03*
X0369072Y0167799D03*
X0374072Y0167799D03*
X0379072Y0167799D03*
X0384072Y0167799D03*
X0389072Y0167799D03*
X0394072Y0167799D03*
X0394072Y0204799D03*
X0389072Y0204799D03*
X0384072Y0204799D03*
X0379072Y0204799D03*
X0374072Y0204799D03*
X0369072Y0204799D03*
X0364072Y0204799D03*
X0359072Y0204799D03*
X0348009Y0204799D03*
X0343009Y0204799D03*
X0338009Y0204799D03*
X0333009Y0204799D03*
X0328009Y0204799D03*
X0323009Y0204799D03*
X0318009Y0204799D03*
X0313009Y0204799D03*
D31*
X0408678Y0204799D03*
X0413678Y0204799D03*
X0418678Y0204799D03*
X0423678Y0204799D03*
X0428678Y0204799D03*
X0433678Y0204799D03*
X0438678Y0204799D03*
X0443678Y0204799D03*
X0443678Y0167799D03*
X0438678Y0167799D03*
X0433678Y0167799D03*
X0428678Y0167799D03*
X0423678Y0167799D03*
X0418678Y0167799D03*
X0413678Y0167799D03*
X0408678Y0167799D03*
D32*
X0428540Y0155591D03*
X0453343Y0150866D03*
X0507674Y0126063D03*
X0510036Y0120748D03*
X0423225Y0108937D03*
X0365351Y0144764D03*
X0365351Y0150079D03*
X0365351Y0155394D03*
X0365351Y0160709D03*
X0338383Y0111693D03*
X0319879Y0106575D03*
X0320469Y0101260D03*
X0331099Y0100866D03*
X0345272Y0096535D03*
X0265548Y0106575D03*
X0256099Y0101850D03*
X0247831Y0101260D03*
X0227162Y0089449D03*
X0205902Y0084724D03*
X0210627Y0101850D03*
D33*
X0123816Y0041024D03*
X0153343Y0041024D03*
X0220272Y0041024D03*
X0245863Y0041024D03*
X0245863Y0052835D03*
X0254918Y0072913D03*
X0274997Y0078819D03*
X0241926Y0089449D03*
X0194682Y0097717D03*
X0247831Y0117795D03*
X0256099Y0122520D03*
X0262005Y0116614D03*
X0266729Y0122520D03*
X0277162Y0144567D03*
X0268304Y0148307D03*
X0240154Y0155984D03*
X0232477Y0159921D03*
X0262792Y0190827D03*
X0252556Y0194764D03*
X0242516Y0198701D03*
X0238383Y0204016D03*
X0274997Y0226457D03*
X0303343Y0214646D03*
X0311611Y0214646D03*
X0353540Y0204606D03*
X0357674Y0215827D03*
X0357674Y0224094D03*
X0403737Y0209921D03*
X0401375Y0202835D03*
X0428540Y0214646D03*
X0425587Y0222913D03*
X0452162Y0219370D03*
X0456886Y0222913D03*
X0466335Y0222913D03*
X0480509Y0222913D03*
X0493501Y0219370D03*
X0501768Y0213465D03*
X0476965Y0214646D03*
X0463973Y0211102D03*
X0458068Y0206378D03*
X0450981Y0204016D03*
X0453343Y0212283D03*
X0401375Y0170945D03*
X0403737Y0166220D03*
X0382477Y0152047D03*
X0378934Y0146142D03*
X0362398Y0122520D03*
X0344682Y0122520D03*
X0331690Y0122520D03*
X0322241Y0122520D03*
X0325784Y0116614D03*
X0368304Y0094173D03*
X0356493Y0080000D03*
X0326965Y0074094D03*
X0368304Y0064646D03*
X0515942Y0137874D03*
X0454524Y0160315D03*
X0450981Y0167402D03*
X0453343Y0143780D03*
X0354131Y0167402D03*
X0305705Y0170945D03*
X0296257Y0166220D03*
X0305705Y0162677D03*
X0155312Y0165039D03*
X0141532Y0165039D03*
X0121847Y0151260D03*
X0121847Y0125669D03*
X0121847Y0102047D03*
X0121847Y0076457D03*
X0139170Y0206378D03*
X0149800Y0206378D03*
X0121453Y0230000D03*
X0121453Y0241811D03*
X0135627Y0241811D03*
X0153343Y0241811D03*
X0184052Y0241811D03*
X0210036Y0241811D03*
X0225390Y0241811D03*
X0603343Y0241811D03*
X0621060Y0224094D03*
X0622241Y0196929D03*
X0622241Y0097717D03*
X0621060Y0058740D03*
X0606886Y0039843D03*
M02*
