G75*
%MOIN*%
%OFA0B0*%
%FSLAX25Y25*%
%IPPOS*%
%LPD*%
%AMOC8*
5,1,8,0,0,1.08239X$1,22.5*
%
%ADD10C,0.00600*%
%ADD11C,0.00400*%
%ADD12C,0.00800*%
%ADD13C,0.00300*%
%ADD14C,0.00500*%
D10*
X0174397Y0075741D02*
X0176665Y0079144D01*
X0178080Y0079144D02*
X0180348Y0079144D01*
X0179214Y0079144D02*
X0179214Y0075741D01*
X0176665Y0075741D02*
X0174397Y0079144D01*
X0184830Y0079341D02*
X0187098Y0075938D01*
X0188513Y0075938D02*
X0189647Y0077072D01*
X0189080Y0077072D02*
X0190781Y0077072D01*
X0190781Y0075938D02*
X0190781Y0079341D01*
X0189080Y0079341D01*
X0188513Y0078774D01*
X0188513Y0077639D01*
X0189080Y0077072D01*
X0187098Y0079341D02*
X0184830Y0075938D01*
D11*
X0187555Y0100345D02*
X0190624Y0100345D01*
X0191391Y0101112D01*
X0191391Y0102647D01*
X0190624Y0103414D01*
X0191391Y0104949D02*
X0191391Y0108018D01*
X0191391Y0106483D02*
X0186787Y0106483D01*
X0188322Y0104949D01*
X0187555Y0103414D02*
X0186787Y0102647D01*
X0186787Y0101112D01*
X0187555Y0100345D01*
X0187555Y0109553D02*
X0186787Y0110320D01*
X0186787Y0111855D01*
X0187555Y0112622D01*
X0190624Y0109553D01*
X0191391Y0110320D01*
X0191391Y0111855D01*
X0190624Y0112622D01*
X0187555Y0112622D01*
X0187555Y0109553D02*
X0190624Y0109553D01*
X0230468Y0109550D02*
X0231236Y0108783D01*
X0234305Y0108783D01*
X0235072Y0109550D01*
X0235072Y0111085D01*
X0234305Y0111852D01*
X0235072Y0113387D02*
X0235072Y0116456D01*
X0235072Y0117991D02*
X0235072Y0121060D01*
X0235072Y0119525D02*
X0230468Y0119525D01*
X0232003Y0117991D01*
X0230468Y0114921D02*
X0235072Y0114921D01*
X0232003Y0113387D02*
X0230468Y0114921D01*
X0231236Y0111852D02*
X0230468Y0111085D01*
X0230468Y0109550D01*
X0237319Y0109056D02*
X0237319Y0112125D01*
X0238086Y0112125D01*
X0241155Y0109056D01*
X0241923Y0109056D01*
X0241155Y0107521D02*
X0241923Y0106754D01*
X0241923Y0105219D01*
X0241155Y0104452D01*
X0238086Y0104452D01*
X0237319Y0105219D01*
X0237319Y0106754D01*
X0238086Y0107521D01*
X0238877Y0085276D02*
X0238110Y0084509D01*
X0238110Y0081440D01*
X0238877Y0080672D01*
X0240412Y0080672D01*
X0241179Y0081440D01*
X0242714Y0080672D02*
X0245783Y0080672D01*
X0244249Y0080672D02*
X0244249Y0085276D01*
X0242714Y0083742D01*
X0241179Y0084509D02*
X0240412Y0085276D01*
X0238877Y0085276D01*
X0258933Y0076993D02*
X0258933Y0075458D01*
X0259700Y0074691D01*
X0259700Y0073156D02*
X0258933Y0072389D01*
X0258933Y0070854D01*
X0259700Y0070087D01*
X0262770Y0070087D01*
X0263537Y0070854D01*
X0263537Y0072389D01*
X0262770Y0073156D01*
X0263537Y0074691D02*
X0260468Y0077760D01*
X0259700Y0077760D01*
X0258933Y0076993D01*
X0263537Y0077760D02*
X0263537Y0074691D01*
X0266610Y0075458D02*
X0266610Y0076993D01*
X0267377Y0077760D01*
X0268145Y0077760D01*
X0268912Y0076993D01*
X0269679Y0077760D01*
X0270447Y0077760D01*
X0271214Y0076993D01*
X0271214Y0075458D01*
X0270447Y0074691D01*
X0270447Y0073156D02*
X0271214Y0072389D01*
X0271214Y0070854D01*
X0270447Y0070087D01*
X0267377Y0070087D01*
X0266610Y0070854D01*
X0266610Y0072389D01*
X0267377Y0073156D01*
X0267377Y0074691D02*
X0266610Y0075458D01*
X0268912Y0076225D02*
X0268912Y0076993D01*
X0254533Y0058878D02*
X0254533Y0056476D01*
X0254533Y0057677D02*
X0250930Y0057677D01*
X0252131Y0056476D01*
X0252131Y0055195D02*
X0252732Y0054594D01*
X0252732Y0052793D01*
X0253933Y0051512D02*
X0250930Y0051512D01*
X0250930Y0052793D02*
X0250930Y0054594D01*
X0251531Y0055195D01*
X0252131Y0055195D01*
X0252732Y0054594D02*
X0253332Y0055195D01*
X0253933Y0055195D01*
X0254533Y0054594D01*
X0254533Y0052793D01*
X0250930Y0052793D01*
X0253933Y0051512D02*
X0254533Y0050911D01*
X0254533Y0049710D01*
X0253933Y0049110D01*
X0250930Y0049110D01*
X0251531Y0047829D02*
X0250930Y0047228D01*
X0250930Y0046027D01*
X0251531Y0045426D01*
X0252131Y0045426D01*
X0252732Y0046027D01*
X0252732Y0047228D01*
X0253332Y0047829D01*
X0253933Y0047829D01*
X0254533Y0047228D01*
X0254533Y0046027D01*
X0253933Y0045426D01*
X0253933Y0044145D02*
X0251531Y0044145D01*
X0250930Y0043545D01*
X0250930Y0041743D01*
X0254533Y0041743D01*
X0254533Y0043545D01*
X0253933Y0044145D01*
X0318972Y0069279D02*
X0319740Y0068512D01*
X0322809Y0068512D01*
X0323576Y0069279D01*
X0323576Y0070814D01*
X0322809Y0071581D01*
X0322809Y0073116D02*
X0323576Y0073883D01*
X0323576Y0075418D01*
X0322809Y0076185D01*
X0322042Y0076185D01*
X0321274Y0075418D01*
X0321274Y0073116D01*
X0322809Y0073116D01*
X0321274Y0073116D02*
X0319740Y0074650D01*
X0318972Y0076185D01*
X0329799Y0076185D02*
X0329799Y0073116D01*
X0332101Y0073116D01*
X0331334Y0074650D01*
X0331334Y0075418D01*
X0332101Y0076185D01*
X0333636Y0076185D01*
X0334403Y0075418D01*
X0334403Y0073883D01*
X0333636Y0073116D01*
X0333636Y0071581D02*
X0334403Y0070814D01*
X0334403Y0069279D01*
X0333636Y0068512D01*
X0330566Y0068512D01*
X0329799Y0069279D01*
X0329799Y0070814D01*
X0330566Y0071581D01*
X0337240Y0071006D02*
X0337240Y0069471D01*
X0338007Y0068704D01*
X0341077Y0068704D01*
X0341844Y0069471D01*
X0341844Y0071006D01*
X0341077Y0071773D01*
X0339542Y0073308D02*
X0339542Y0076377D01*
X0341844Y0075610D02*
X0337240Y0075610D01*
X0339542Y0073308D01*
X0338007Y0071773D02*
X0337240Y0071006D01*
X0319740Y0071581D02*
X0318972Y0070814D01*
X0318972Y0069279D01*
X0363268Y0057639D02*
X0363268Y0054570D01*
X0364035Y0053802D01*
X0365570Y0053802D01*
X0366337Y0054570D01*
X0367872Y0053802D02*
X0370941Y0053802D01*
X0369406Y0053802D02*
X0369406Y0058406D01*
X0367872Y0056872D01*
X0366337Y0057639D02*
X0365570Y0058406D01*
X0364035Y0058406D01*
X0363268Y0057639D01*
X0372475Y0056104D02*
X0375545Y0056104D01*
X0374777Y0053802D02*
X0374777Y0058406D01*
X0372475Y0056104D01*
X0379535Y0057363D02*
X0379535Y0054294D01*
X0380302Y0053527D01*
X0381836Y0053527D01*
X0382604Y0054294D01*
X0384138Y0053527D02*
X0387208Y0053527D01*
X0385673Y0053527D02*
X0385673Y0058131D01*
X0384138Y0056596D01*
X0382604Y0057363D02*
X0381836Y0058131D01*
X0380302Y0058131D01*
X0379535Y0057363D01*
X0388742Y0057363D02*
X0388742Y0056596D01*
X0389510Y0055829D01*
X0391044Y0055829D01*
X0391812Y0055061D01*
X0391812Y0054294D01*
X0391044Y0053527D01*
X0389510Y0053527D01*
X0388742Y0054294D01*
X0388742Y0055061D01*
X0389510Y0055829D01*
X0391044Y0055829D02*
X0391812Y0056596D01*
X0391812Y0057363D01*
X0391044Y0058131D01*
X0389510Y0058131D01*
X0388742Y0057363D01*
X0401260Y0054095D02*
X0401260Y0051026D01*
X0402794Y0049491D01*
X0404329Y0051026D01*
X0404329Y0054095D01*
X0405864Y0052561D02*
X0407398Y0054095D01*
X0407398Y0049491D01*
X0405864Y0049491D02*
X0408933Y0049491D01*
X0420708Y0065554D02*
X0422243Y0065554D01*
X0423010Y0066322D01*
X0424545Y0065554D02*
X0427614Y0068624D01*
X0427614Y0069391D01*
X0426847Y0070158D01*
X0425312Y0070158D01*
X0424545Y0069391D01*
X0423010Y0069391D02*
X0422243Y0070158D01*
X0420708Y0070158D01*
X0419941Y0069391D01*
X0419941Y0066322D01*
X0420708Y0065554D01*
X0424545Y0065554D02*
X0427614Y0065554D01*
X0429149Y0065554D02*
X0432218Y0068624D01*
X0432218Y0069391D01*
X0431451Y0070158D01*
X0429916Y0070158D01*
X0429149Y0069391D01*
X0429149Y0065554D02*
X0432218Y0065554D01*
X0452564Y0073980D02*
X0452564Y0078583D01*
X0454866Y0078583D01*
X0455633Y0077816D01*
X0455633Y0076281D01*
X0454866Y0075514D01*
X0452564Y0075514D01*
X0454098Y0075514D02*
X0455633Y0073980D01*
X0457168Y0073980D02*
X0460237Y0077049D01*
X0460237Y0077816D01*
X0459470Y0078583D01*
X0457935Y0078583D01*
X0457168Y0077816D01*
X0457168Y0073980D02*
X0460237Y0073980D01*
X0469268Y0071577D02*
X0470035Y0072344D01*
X0471570Y0072344D01*
X0472337Y0071577D01*
X0472337Y0069275D01*
X0472337Y0070809D02*
X0473872Y0072344D01*
X0473104Y0073879D02*
X0473872Y0074646D01*
X0473872Y0076181D01*
X0473104Y0076948D01*
X0472337Y0076948D01*
X0471570Y0076181D01*
X0471570Y0073879D01*
X0473104Y0073879D01*
X0471570Y0073879D02*
X0470035Y0075413D01*
X0469268Y0076948D01*
X0469268Y0071577D02*
X0469268Y0069275D01*
X0473872Y0069275D01*
X0469997Y0059961D02*
X0469997Y0055357D01*
X0471531Y0055357D02*
X0468462Y0055357D01*
X0466927Y0055357D02*
X0465393Y0056892D01*
X0466160Y0056892D02*
X0463858Y0056892D01*
X0463858Y0055357D02*
X0463858Y0059961D01*
X0466160Y0059961D01*
X0466927Y0059194D01*
X0466927Y0057659D01*
X0466160Y0056892D01*
X0468462Y0058427D02*
X0469997Y0059961D01*
X0503086Y0060479D02*
X0503086Y0058177D01*
X0507690Y0058177D01*
X0506156Y0058177D02*
X0506156Y0060479D01*
X0505388Y0061246D01*
X0503854Y0061246D01*
X0503086Y0060479D01*
X0503086Y0062781D02*
X0503086Y0065850D01*
X0503854Y0065850D01*
X0506923Y0062781D01*
X0507690Y0062781D01*
X0507690Y0061246D02*
X0506156Y0059712D01*
X0533521Y0064756D02*
X0533521Y0065957D01*
X0533521Y0065356D02*
X0536523Y0065356D01*
X0537124Y0064756D01*
X0537124Y0064155D01*
X0536523Y0063555D01*
X0537124Y0067238D02*
X0537124Y0069640D01*
X0537124Y0068439D02*
X0533521Y0068439D01*
X0534722Y0067238D01*
X0551473Y0042000D02*
X0552674Y0042000D01*
X0552073Y0042000D02*
X0552073Y0038997D01*
X0551473Y0038396D01*
X0550872Y0038396D01*
X0550272Y0038997D01*
X0553955Y0038396D02*
X0556357Y0040798D01*
X0556357Y0041399D01*
X0555756Y0042000D01*
X0554555Y0042000D01*
X0553955Y0041399D01*
X0553955Y0038396D02*
X0556357Y0038396D01*
X0596742Y0079842D02*
X0598543Y0079842D01*
X0599144Y0080442D01*
X0599144Y0082844D01*
X0598543Y0083445D01*
X0596742Y0083445D01*
X0596742Y0079842D01*
X0600425Y0080442D02*
X0601025Y0079842D01*
X0602226Y0079842D01*
X0602827Y0080442D01*
X0602827Y0081043D01*
X0602226Y0081643D01*
X0601025Y0081643D01*
X0600425Y0082244D01*
X0600425Y0082844D01*
X0601025Y0083445D01*
X0602226Y0083445D01*
X0602827Y0082844D01*
X0604108Y0083445D02*
X0604108Y0080442D01*
X0604708Y0079842D01*
X0605909Y0079842D01*
X0606510Y0080442D01*
X0606510Y0083445D01*
X0607791Y0083445D02*
X0609593Y0083445D01*
X0610193Y0082844D01*
X0610193Y0082244D01*
X0609593Y0081643D01*
X0607791Y0081643D01*
X0607791Y0079842D02*
X0607791Y0083445D01*
X0609593Y0081643D02*
X0610193Y0081043D01*
X0610193Y0080442D01*
X0609593Y0079842D01*
X0607791Y0079842D01*
X0611474Y0079842D02*
X0613876Y0082244D01*
X0613876Y0082844D01*
X0613276Y0083445D01*
X0612075Y0083445D01*
X0611474Y0082844D01*
X0611474Y0079842D02*
X0613876Y0079842D01*
X0518780Y0099747D02*
X0518013Y0098980D01*
X0516478Y0098980D01*
X0515711Y0099747D01*
X0515711Y0101281D02*
X0517246Y0102049D01*
X0518013Y0102049D01*
X0518780Y0101281D01*
X0518780Y0099747D01*
X0515711Y0101281D02*
X0515711Y0103583D01*
X0518780Y0103583D01*
X0514176Y0102816D02*
X0514176Y0101281D01*
X0513409Y0100514D01*
X0511107Y0100514D01*
X0511107Y0098980D02*
X0511107Y0103583D01*
X0513409Y0103583D01*
X0514176Y0102816D01*
X0512642Y0100514D02*
X0514176Y0098980D01*
X0501372Y0101917D02*
X0496768Y0101917D01*
X0496768Y0104219D01*
X0497535Y0104987D01*
X0499070Y0104987D01*
X0499837Y0104219D01*
X0499837Y0101917D01*
X0499837Y0103452D02*
X0501372Y0104987D01*
X0499070Y0106521D02*
X0499070Y0109591D01*
X0501372Y0108823D02*
X0496768Y0108823D01*
X0499070Y0106521D01*
X0468872Y0106125D02*
X0464268Y0106125D01*
X0464268Y0108427D01*
X0465035Y0109194D01*
X0466570Y0109194D01*
X0467337Y0108427D01*
X0467337Y0106125D01*
X0467337Y0107660D02*
X0468872Y0109194D01*
X0468104Y0110729D02*
X0468872Y0111496D01*
X0468872Y0113031D01*
X0468104Y0113798D01*
X0467337Y0113798D01*
X0466570Y0113031D01*
X0466570Y0112264D01*
X0466570Y0113031D02*
X0465802Y0113798D01*
X0465035Y0113798D01*
X0464268Y0113031D01*
X0464268Y0111496D01*
X0465035Y0110729D01*
X0445014Y0108625D02*
X0441945Y0108625D01*
X0443479Y0108625D02*
X0443479Y0113229D01*
X0441945Y0111694D01*
X0440410Y0112462D02*
X0439643Y0113229D01*
X0438108Y0113229D01*
X0437341Y0112462D01*
X0437341Y0109393D01*
X0438108Y0108625D01*
X0439643Y0108625D01*
X0440410Y0109393D01*
X0435806Y0108625D02*
X0434272Y0108625D01*
X0435039Y0108625D02*
X0435039Y0113229D01*
X0434272Y0113229D02*
X0435806Y0113229D01*
X0424647Y0122602D02*
X0424647Y0127205D01*
X0422345Y0124904D01*
X0425414Y0124904D01*
X0420810Y0125671D02*
X0420043Y0124904D01*
X0420810Y0124136D01*
X0420810Y0123369D01*
X0420043Y0122602D01*
X0418508Y0122602D01*
X0417741Y0123369D01*
X0416206Y0123369D02*
X0415439Y0122602D01*
X0413904Y0122602D01*
X0413137Y0123369D01*
X0413137Y0126438D01*
X0413904Y0127205D01*
X0415439Y0127205D01*
X0416206Y0126438D01*
X0417741Y0126438D02*
X0418508Y0127205D01*
X0420043Y0127205D01*
X0420810Y0126438D01*
X0420810Y0125671D01*
X0420043Y0124904D02*
X0419275Y0124904D01*
X0410919Y0122287D02*
X0407849Y0122287D01*
X0409384Y0122287D02*
X0409384Y0126891D01*
X0407849Y0125356D01*
X0406315Y0125356D02*
X0405547Y0124589D01*
X0406315Y0123821D01*
X0406315Y0123054D01*
X0405547Y0122287D01*
X0404013Y0122287D01*
X0403246Y0123054D01*
X0401711Y0123054D02*
X0400944Y0122287D01*
X0399409Y0122287D01*
X0398642Y0123054D01*
X0398642Y0126123D01*
X0399409Y0126891D01*
X0400944Y0126891D01*
X0401711Y0126123D01*
X0403246Y0126123D02*
X0404013Y0126891D01*
X0405547Y0126891D01*
X0406315Y0126123D01*
X0406315Y0125356D01*
X0405547Y0124589D02*
X0404780Y0124589D01*
X0386969Y0125791D02*
X0383900Y0125791D01*
X0386969Y0128860D01*
X0386969Y0129627D01*
X0386202Y0130394D01*
X0384667Y0130394D01*
X0383900Y0129627D01*
X0382365Y0129627D02*
X0381598Y0130394D01*
X0380063Y0130394D01*
X0379296Y0129627D01*
X0379296Y0126558D01*
X0380063Y0125791D01*
X0381598Y0125791D01*
X0382365Y0126558D01*
X0377761Y0125791D02*
X0376227Y0125791D01*
X0376994Y0125791D02*
X0376994Y0130394D01*
X0376227Y0130394D02*
X0377761Y0130394D01*
X0386444Y0139885D02*
X0387978Y0139885D01*
X0388746Y0140652D01*
X0390280Y0139885D02*
X0393349Y0139885D01*
X0391815Y0139885D02*
X0391815Y0144489D01*
X0390280Y0142954D01*
X0388746Y0143722D02*
X0387978Y0144489D01*
X0386444Y0144489D01*
X0385676Y0143722D01*
X0385676Y0140652D01*
X0386444Y0139885D01*
X0394884Y0139885D02*
X0394884Y0140652D01*
X0397953Y0143722D01*
X0397953Y0144489D01*
X0394884Y0144489D01*
X0404574Y0148920D02*
X0405341Y0148153D01*
X0406876Y0148153D01*
X0407643Y0148920D01*
X0409178Y0148153D02*
X0412247Y0151222D01*
X0412247Y0151989D01*
X0411480Y0152757D01*
X0409945Y0152757D01*
X0409178Y0151989D01*
X0407643Y0151989D02*
X0406876Y0152757D01*
X0405341Y0152757D01*
X0404574Y0151989D01*
X0404574Y0148920D01*
X0409178Y0148153D02*
X0412247Y0148153D01*
X0413782Y0148920D02*
X0413782Y0149687D01*
X0414549Y0150455D01*
X0416084Y0150455D01*
X0416851Y0149687D01*
X0416851Y0148920D01*
X0416084Y0148153D01*
X0414549Y0148153D01*
X0413782Y0148920D01*
X0414549Y0150455D02*
X0413782Y0151222D01*
X0413782Y0151989D01*
X0414549Y0152757D01*
X0416084Y0152757D01*
X0416851Y0151989D01*
X0416851Y0151222D01*
X0416084Y0150455D01*
X0383780Y0156597D02*
X0383013Y0155830D01*
X0381478Y0155830D01*
X0380711Y0156597D01*
X0380711Y0158132D01*
X0383013Y0158132D01*
X0383780Y0157365D01*
X0383780Y0156597D01*
X0382246Y0159667D02*
X0380711Y0158132D01*
X0382246Y0159667D02*
X0383780Y0160434D01*
X0377642Y0160434D02*
X0376107Y0158899D01*
X0374572Y0159667D02*
X0373805Y0160434D01*
X0372270Y0160434D01*
X0371503Y0159667D01*
X0371503Y0156597D01*
X0372270Y0155830D01*
X0373805Y0155830D01*
X0374572Y0156597D01*
X0376107Y0155830D02*
X0379176Y0155830D01*
X0377642Y0155830D02*
X0377642Y0160434D01*
X0337127Y0159667D02*
X0337127Y0156597D01*
X0336359Y0155830D01*
X0334825Y0155830D01*
X0334057Y0156597D01*
X0332523Y0155830D02*
X0329453Y0155830D01*
X0332523Y0158899D01*
X0332523Y0159667D01*
X0331755Y0160434D01*
X0330221Y0160434D01*
X0329453Y0159667D01*
X0327919Y0159667D02*
X0327151Y0160434D01*
X0325617Y0160434D01*
X0324849Y0159667D01*
X0324849Y0156597D01*
X0325617Y0155830D01*
X0327151Y0155830D01*
X0327919Y0156597D01*
X0334057Y0158899D02*
X0334057Y0159667D01*
X0334825Y0160434D01*
X0336359Y0160434D01*
X0337127Y0159667D01*
X0337127Y0158132D02*
X0334825Y0158132D01*
X0334057Y0158899D01*
X0334825Y0151576D02*
X0336359Y0151576D01*
X0337127Y0150808D01*
X0334057Y0147739D01*
X0334825Y0146972D01*
X0336359Y0146972D01*
X0337127Y0147739D01*
X0337127Y0150808D01*
X0334825Y0151576D02*
X0334057Y0150808D01*
X0334057Y0147739D01*
X0332523Y0147739D02*
X0331755Y0146972D01*
X0330221Y0146972D01*
X0329453Y0147739D01*
X0327919Y0147739D02*
X0327151Y0146972D01*
X0325617Y0146972D01*
X0324849Y0147739D01*
X0324849Y0150808D01*
X0325617Y0151576D01*
X0327151Y0151576D01*
X0327919Y0150808D01*
X0329453Y0150808D02*
X0330221Y0151576D01*
X0331755Y0151576D01*
X0332523Y0150808D01*
X0332523Y0150041D01*
X0331755Y0149274D01*
X0332523Y0148506D01*
X0332523Y0147739D01*
X0331755Y0149274D02*
X0330988Y0149274D01*
X0362933Y0102107D02*
X0362165Y0101340D01*
X0362165Y0098270D01*
X0362933Y0097503D01*
X0364467Y0097503D01*
X0365234Y0098270D01*
X0366769Y0097503D02*
X0369838Y0100572D01*
X0369838Y0101340D01*
X0369071Y0102107D01*
X0367536Y0102107D01*
X0366769Y0101340D01*
X0365234Y0101340D02*
X0364467Y0102107D01*
X0362933Y0102107D01*
X0366769Y0097503D02*
X0369838Y0097503D01*
X0371373Y0097503D02*
X0374442Y0097503D01*
X0372908Y0097503D02*
X0372908Y0102107D01*
X0371373Y0100572D01*
X0378432Y0101064D02*
X0378432Y0097995D01*
X0379199Y0097228D01*
X0380734Y0097228D01*
X0381501Y0097995D01*
X0383036Y0097228D02*
X0386105Y0100297D01*
X0386105Y0101064D01*
X0385338Y0101831D01*
X0383803Y0101831D01*
X0383036Y0101064D01*
X0381501Y0101064D02*
X0380734Y0101831D01*
X0379199Y0101831D01*
X0378432Y0101064D01*
X0383036Y0097228D02*
X0386105Y0097228D01*
X0387640Y0097995D02*
X0388407Y0097228D01*
X0389942Y0097228D01*
X0390709Y0097995D01*
X0390709Y0098762D01*
X0389942Y0099530D01*
X0389175Y0099530D01*
X0389942Y0099530D02*
X0390709Y0100297D01*
X0390709Y0101064D01*
X0389942Y0101831D01*
X0388407Y0101831D01*
X0387640Y0101064D01*
X0227653Y0130101D02*
X0226886Y0129334D01*
X0225351Y0129334D01*
X0224584Y0130101D01*
X0224584Y0130868D01*
X0225351Y0131636D01*
X0226886Y0131636D01*
X0227653Y0130868D01*
X0227653Y0130101D01*
X0226886Y0131636D02*
X0227653Y0132403D01*
X0227653Y0133170D01*
X0226886Y0133938D01*
X0225351Y0133938D01*
X0224584Y0133170D01*
X0224584Y0132403D01*
X0225351Y0131636D01*
X0223049Y0133170D02*
X0222282Y0133938D01*
X0220747Y0133938D01*
X0219980Y0133170D01*
X0219980Y0130101D01*
X0220747Y0129334D01*
X0222282Y0129334D01*
X0223049Y0130101D01*
X0210153Y0135101D02*
X0210153Y0138170D01*
X0209386Y0138938D01*
X0207851Y0138938D01*
X0207084Y0138170D01*
X0207084Y0137403D01*
X0207851Y0136636D01*
X0210153Y0136636D01*
X0210153Y0135101D02*
X0209386Y0134334D01*
X0207851Y0134334D01*
X0207084Y0135101D01*
X0205549Y0135101D02*
X0204782Y0134334D01*
X0203247Y0134334D01*
X0202480Y0135101D01*
X0202480Y0138170D01*
X0203247Y0138938D01*
X0204782Y0138938D01*
X0205549Y0138170D01*
X0243781Y0210658D02*
X0243781Y0212460D01*
X0244381Y0213060D01*
X0246783Y0213060D01*
X0247384Y0212460D01*
X0247384Y0210658D01*
X0243781Y0210658D01*
X0244381Y0214341D02*
X0243781Y0214942D01*
X0243781Y0216143D01*
X0244381Y0216743D01*
X0245582Y0216143D02*
X0246183Y0216743D01*
X0246783Y0216743D01*
X0247384Y0216143D01*
X0247384Y0214942D01*
X0246783Y0214341D01*
X0245582Y0214942D02*
X0245582Y0216143D01*
X0245582Y0214942D02*
X0244982Y0214341D01*
X0244381Y0214341D01*
X0243781Y0218025D02*
X0246783Y0218025D01*
X0247384Y0218625D01*
X0247384Y0219826D01*
X0246783Y0220427D01*
X0243781Y0220427D01*
X0243781Y0221708D02*
X0243781Y0223509D01*
X0244381Y0224110D01*
X0244982Y0224110D01*
X0245582Y0223509D01*
X0245582Y0221708D01*
X0243781Y0221708D02*
X0247384Y0221708D01*
X0247384Y0223509D01*
X0246783Y0224110D01*
X0246183Y0224110D01*
X0245582Y0223509D01*
X0244381Y0225391D02*
X0243781Y0225991D01*
X0243781Y0227192D01*
X0244381Y0227793D01*
X0244982Y0227793D01*
X0245582Y0227192D01*
X0246183Y0227793D01*
X0246783Y0227793D01*
X0247384Y0227192D01*
X0247384Y0225991D01*
X0246783Y0225391D01*
X0245582Y0226592D02*
X0245582Y0227192D01*
X0324259Y0225218D02*
X0324259Y0222148D01*
X0325026Y0221381D01*
X0326561Y0221381D01*
X0327328Y0222148D01*
X0328863Y0222148D02*
X0329630Y0221381D01*
X0331165Y0221381D01*
X0331932Y0222148D01*
X0331932Y0222916D01*
X0331165Y0223683D01*
X0330397Y0223683D01*
X0331165Y0223683D02*
X0331932Y0224450D01*
X0331932Y0225218D01*
X0331165Y0225985D01*
X0329630Y0225985D01*
X0328863Y0225218D01*
X0327328Y0225218D02*
X0326561Y0225985D01*
X0325026Y0225985D01*
X0324259Y0225218D01*
X0325026Y0216536D02*
X0324259Y0215769D01*
X0324259Y0212700D01*
X0325026Y0211932D01*
X0326561Y0211932D01*
X0327328Y0212700D01*
X0328863Y0212700D02*
X0329630Y0211932D01*
X0331165Y0211932D01*
X0331932Y0212700D01*
X0331932Y0213467D01*
X0331165Y0214234D01*
X0330397Y0214234D01*
X0331165Y0214234D02*
X0331932Y0215002D01*
X0331932Y0215769D01*
X0331165Y0216536D01*
X0329630Y0216536D01*
X0328863Y0215769D01*
X0327328Y0215769D02*
X0326561Y0216536D01*
X0325026Y0216536D01*
X0333467Y0215769D02*
X0334234Y0216536D01*
X0335769Y0216536D01*
X0336536Y0215769D01*
X0336536Y0215002D01*
X0333467Y0211932D01*
X0336536Y0211932D01*
X0335769Y0221381D02*
X0334234Y0221381D01*
X0333467Y0222148D01*
X0335001Y0223683D02*
X0335769Y0223683D01*
X0336536Y0222916D01*
X0336536Y0222148D01*
X0335769Y0221381D01*
X0335769Y0223683D02*
X0336536Y0224450D01*
X0336536Y0225218D01*
X0335769Y0225985D01*
X0334234Y0225985D01*
X0333467Y0225218D01*
X0371779Y0224037D02*
X0371779Y0220967D01*
X0372546Y0220200D01*
X0374081Y0220200D01*
X0374848Y0220967D01*
X0376383Y0220200D02*
X0379452Y0220200D01*
X0377917Y0220200D02*
X0377917Y0224804D01*
X0376383Y0223269D01*
X0374848Y0224037D02*
X0374081Y0224804D01*
X0372546Y0224804D01*
X0371779Y0224037D01*
X0380986Y0224037D02*
X0380986Y0223269D01*
X0381754Y0222502D01*
X0384056Y0222502D01*
X0384056Y0224037D02*
X0383288Y0224804D01*
X0381754Y0224804D01*
X0380986Y0224037D01*
X0380986Y0220967D02*
X0381754Y0220200D01*
X0383288Y0220200D01*
X0384056Y0220967D01*
X0384056Y0224037D01*
X0383879Y0215355D02*
X0384646Y0214588D01*
X0381577Y0211518D01*
X0382344Y0210751D01*
X0383879Y0210751D01*
X0384646Y0211518D01*
X0384646Y0214588D01*
X0383879Y0215355D02*
X0382344Y0215355D01*
X0381577Y0214588D01*
X0381577Y0211518D01*
X0380042Y0210751D02*
X0376973Y0210751D01*
X0380042Y0213820D01*
X0380042Y0214588D01*
X0379275Y0215355D01*
X0377740Y0215355D01*
X0376973Y0214588D01*
X0375438Y0214588D02*
X0374671Y0215355D01*
X0373136Y0215355D01*
X0372369Y0214588D01*
X0372369Y0211518D01*
X0373136Y0210751D01*
X0374671Y0210751D01*
X0375438Y0211518D01*
X0404574Y0224511D02*
X0405341Y0223743D01*
X0406876Y0223743D01*
X0407643Y0224511D01*
X0409178Y0223743D02*
X0412247Y0223743D01*
X0410712Y0223743D02*
X0410712Y0228347D01*
X0409178Y0226813D01*
X0407643Y0227580D02*
X0406876Y0228347D01*
X0405341Y0228347D01*
X0404574Y0227580D01*
X0404574Y0224511D01*
X0413782Y0223743D02*
X0416851Y0226813D01*
X0416851Y0227580D01*
X0416084Y0228347D01*
X0414549Y0228347D01*
X0413782Y0227580D01*
X0413782Y0223743D02*
X0416851Y0223743D01*
D12*
X0449353Y0199446D02*
X0450588Y0200680D01*
X0456760Y0200680D01*
X0449353Y0199446D02*
X0449353Y0196977D01*
X0450588Y0195743D01*
X0456760Y0195743D01*
X0455525Y0193130D02*
X0456760Y0191895D01*
X0456760Y0189427D01*
X0455525Y0188192D01*
X0454291Y0188192D01*
X0453057Y0189427D01*
X0451822Y0188192D01*
X0450588Y0188192D01*
X0449353Y0189427D01*
X0449353Y0191895D01*
X0450588Y0193130D01*
X0453057Y0190661D02*
X0453057Y0189427D01*
X0370539Y0209505D02*
X0366836Y0213209D01*
X0366836Y0208271D01*
X0363133Y0209505D02*
X0370539Y0209505D01*
X0370539Y0215822D02*
X0364367Y0215822D01*
X0363133Y0217056D01*
X0363133Y0219525D01*
X0364367Y0220759D01*
X0370539Y0220759D01*
X0306760Y0192413D02*
X0300588Y0192413D01*
X0299353Y0191178D01*
X0299353Y0188709D01*
X0300588Y0187475D01*
X0306760Y0187475D01*
X0306760Y0184862D02*
X0303057Y0184862D01*
X0304291Y0182393D01*
X0304291Y0181159D01*
X0303057Y0179925D01*
X0300588Y0179925D01*
X0299353Y0181159D01*
X0299353Y0183628D01*
X0300588Y0184862D01*
X0306760Y0184862D02*
X0306760Y0179925D01*
X0200207Y0094918D02*
X0200207Y0089980D01*
X0195269Y0094918D01*
X0194035Y0094918D01*
X0192801Y0093684D01*
X0192801Y0091215D01*
X0194035Y0089980D01*
X0192801Y0087367D02*
X0198973Y0087367D01*
X0200207Y0086133D01*
X0200207Y0083664D01*
X0198973Y0082430D01*
X0192801Y0082430D01*
X0294016Y0075722D02*
X0298953Y0075722D01*
X0296485Y0075722D02*
X0296485Y0068316D01*
X0298953Y0070784D01*
X0301566Y0068316D02*
X0301566Y0074488D01*
X0302801Y0075722D01*
X0305269Y0075722D01*
X0306504Y0074488D01*
X0306504Y0068316D01*
D13*
X0431263Y0060696D02*
X0434166Y0060696D01*
X0434166Y0061663D02*
X0434166Y0059728D01*
X0434166Y0058717D02*
X0433198Y0057749D01*
X0434166Y0057266D02*
X0433682Y0056782D01*
X0431747Y0056782D01*
X0431263Y0057266D01*
X0431263Y0058233D01*
X0431747Y0058717D01*
X0433682Y0058717D01*
X0434166Y0058233D01*
X0434166Y0057266D01*
X0432231Y0059728D02*
X0431263Y0060696D01*
X0478027Y0085634D02*
X0478511Y0085150D01*
X0480446Y0085150D01*
X0480929Y0085634D01*
X0480929Y0086601D01*
X0480446Y0087085D01*
X0480929Y0088097D02*
X0478994Y0090031D01*
X0478511Y0090031D01*
X0478027Y0089548D01*
X0478027Y0088580D01*
X0478511Y0088097D01*
X0478511Y0087085D02*
X0478027Y0086601D01*
X0478027Y0085634D01*
X0480929Y0088097D02*
X0480929Y0090031D01*
X0480929Y0091043D02*
X0480446Y0091043D01*
X0478511Y0092978D01*
X0478027Y0092978D01*
X0478027Y0091043D01*
X0496288Y0087746D02*
X0496288Y0085811D01*
X0496772Y0085327D01*
X0497740Y0085327D01*
X0498223Y0085811D01*
X0498223Y0087746D01*
X0497740Y0088230D01*
X0496772Y0088230D01*
X0496288Y0087746D01*
X0497256Y0086295D02*
X0498223Y0085327D01*
X0499235Y0085327D02*
X0501170Y0087262D01*
X0501170Y0087746D01*
X0500686Y0088230D01*
X0499719Y0088230D01*
X0499235Y0087746D01*
X0499235Y0085327D02*
X0501170Y0085327D01*
X0493775Y0064501D02*
X0494259Y0064018D01*
X0494259Y0063534D01*
X0493775Y0063050D01*
X0494259Y0062566D01*
X0494259Y0062083D01*
X0493775Y0061599D01*
X0492807Y0061599D01*
X0492324Y0062083D01*
X0491312Y0062083D02*
X0490828Y0061599D01*
X0489861Y0061599D01*
X0489377Y0062083D01*
X0489377Y0064018D01*
X0489861Y0064501D01*
X0490828Y0064501D01*
X0491312Y0064018D01*
X0491312Y0062083D01*
X0491312Y0061599D02*
X0490345Y0062566D01*
X0492324Y0064018D02*
X0492807Y0064501D01*
X0493775Y0064501D01*
X0493775Y0063050D02*
X0493291Y0063050D01*
X0431014Y0136911D02*
X0431497Y0137394D01*
X0431497Y0137878D01*
X0431014Y0138362D01*
X0429562Y0138362D01*
X0429562Y0137394D01*
X0430046Y0136911D01*
X0431014Y0136911D01*
X0429562Y0138362D02*
X0430530Y0139329D01*
X0431497Y0139813D01*
X0428551Y0139329D02*
X0428067Y0139813D01*
X0427100Y0139813D01*
X0426616Y0139329D01*
X0425604Y0139329D02*
X0425121Y0139813D01*
X0424153Y0139813D01*
X0423669Y0139329D01*
X0423669Y0137394D01*
X0424153Y0136911D01*
X0425121Y0136911D01*
X0425604Y0137394D01*
X0426616Y0136911D02*
X0428551Y0138846D01*
X0428551Y0139329D01*
X0428551Y0136911D02*
X0426616Y0136911D01*
X0426616Y0146359D02*
X0428551Y0148294D01*
X0428551Y0148778D01*
X0428067Y0149262D01*
X0427100Y0149262D01*
X0426616Y0148778D01*
X0425604Y0148778D02*
X0425121Y0149262D01*
X0424153Y0149262D01*
X0423669Y0148778D01*
X0423669Y0146843D01*
X0424153Y0146359D01*
X0425121Y0146359D01*
X0425604Y0146843D01*
X0426616Y0146359D02*
X0428551Y0146359D01*
X0429562Y0146843D02*
X0430046Y0146359D01*
X0431014Y0146359D01*
X0431497Y0146843D01*
X0431497Y0147811D01*
X0431014Y0148294D01*
X0430530Y0148294D01*
X0429562Y0147811D01*
X0429562Y0149262D01*
X0431497Y0149262D01*
X0432215Y0159559D02*
X0432215Y0162462D01*
X0430764Y0161011D01*
X0432699Y0161011D01*
X0429753Y0161494D02*
X0429753Y0161978D01*
X0429269Y0162462D01*
X0428301Y0162462D01*
X0427818Y0161978D01*
X0426806Y0161978D02*
X0426322Y0162462D01*
X0425355Y0162462D01*
X0424871Y0161978D01*
X0424871Y0160043D01*
X0425355Y0159559D01*
X0426322Y0159559D01*
X0426806Y0160043D01*
X0427818Y0159559D02*
X0429753Y0161494D01*
X0429753Y0159559D02*
X0427818Y0159559D01*
X0427583Y0217226D02*
X0427583Y0220128D01*
X0426616Y0219161D01*
X0425604Y0219644D02*
X0425121Y0220128D01*
X0424153Y0220128D01*
X0423669Y0219644D01*
X0423669Y0217709D01*
X0424153Y0217226D01*
X0425121Y0217226D01*
X0425604Y0217709D01*
X0426616Y0217226D02*
X0428551Y0217226D01*
X0429562Y0217709D02*
X0430046Y0217226D01*
X0431014Y0217226D01*
X0431497Y0217709D01*
X0431497Y0218677D01*
X0431014Y0219161D01*
X0430530Y0219161D01*
X0429562Y0218677D01*
X0429562Y0220128D01*
X0431497Y0220128D01*
X0431026Y0227856D02*
X0431510Y0228339D01*
X0431026Y0227856D02*
X0430059Y0227856D01*
X0429575Y0228339D01*
X0429575Y0230274D01*
X0430059Y0230758D01*
X0431026Y0230758D01*
X0431510Y0230274D01*
X0432521Y0229790D02*
X0433489Y0230758D01*
X0433489Y0227856D01*
X0434456Y0227856D02*
X0432521Y0227856D01*
X0435468Y0228339D02*
X0435952Y0227856D01*
X0436919Y0227856D01*
X0437403Y0228339D01*
X0437403Y0228823D01*
X0436919Y0229307D01*
X0436435Y0229307D01*
X0436919Y0229307D02*
X0437403Y0229790D01*
X0437403Y0230274D01*
X0436919Y0230758D01*
X0435952Y0230758D01*
X0435468Y0230274D01*
D14*
X0461645Y0172466D02*
X0463146Y0172466D01*
X0462395Y0172466D02*
X0462395Y0168712D01*
X0461645Y0167962D01*
X0460894Y0167962D01*
X0460144Y0168712D01*
X0464747Y0167962D02*
X0464747Y0172466D01*
X0466999Y0172466D01*
X0467750Y0171715D01*
X0467750Y0170214D01*
X0466999Y0169463D01*
X0464747Y0169463D01*
X0469351Y0167962D02*
X0472354Y0170964D01*
X0472354Y0171715D01*
X0471603Y0172466D01*
X0470102Y0172466D01*
X0469351Y0171715D01*
X0469351Y0167962D02*
X0472354Y0167962D01*
X0533023Y0119429D02*
X0533774Y0120180D01*
X0534524Y0120180D01*
X0535275Y0119429D01*
X0536026Y0120180D01*
X0536776Y0120180D01*
X0537527Y0119429D01*
X0537527Y0117928D01*
X0536776Y0117178D01*
X0535275Y0118679D02*
X0535275Y0119429D01*
X0533023Y0119429D02*
X0533023Y0117928D01*
X0533774Y0117178D01*
X0533774Y0115576D02*
X0535275Y0115576D01*
X0536026Y0114826D01*
X0536026Y0112574D01*
X0537527Y0112574D02*
X0533023Y0112574D01*
X0533023Y0114826D01*
X0533774Y0115576D01*
X0533023Y0110972D02*
X0533023Y0109471D01*
X0533023Y0110222D02*
X0536776Y0110222D01*
X0537527Y0109471D01*
X0537527Y0108720D01*
X0536776Y0107970D01*
X0570616Y0113594D02*
X0571367Y0112844D01*
X0572117Y0112844D01*
X0572868Y0113594D01*
X0572868Y0117348D01*
X0572117Y0117348D02*
X0573619Y0117348D01*
X0575220Y0117348D02*
X0577472Y0117348D01*
X0578222Y0116597D01*
X0578222Y0115096D01*
X0577472Y0114345D01*
X0575220Y0114345D01*
X0575220Y0112844D02*
X0575220Y0117348D01*
X0579824Y0115096D02*
X0582826Y0115096D01*
X0582076Y0117348D02*
X0579824Y0115096D01*
X0582076Y0112844D02*
X0582076Y0117348D01*
X0220637Y0169008D02*
X0219887Y0168257D01*
X0220637Y0169008D02*
X0220637Y0169758D01*
X0219887Y0170509D01*
X0216133Y0170509D01*
X0216133Y0169758D02*
X0216133Y0171260D01*
X0216133Y0172861D02*
X0216133Y0175113D01*
X0216884Y0175864D01*
X0218385Y0175864D01*
X0219136Y0175113D01*
X0219136Y0172861D01*
X0220637Y0172861D02*
X0216133Y0172861D01*
X0216133Y0177465D02*
X0218385Y0177465D01*
X0217635Y0178966D01*
X0217635Y0179717D01*
X0218385Y0180467D01*
X0219887Y0180467D01*
X0220637Y0179717D01*
X0220637Y0178216D01*
X0219887Y0177465D01*
X0216133Y0177465D02*
X0216133Y0180467D01*
X0179593Y0116438D02*
X0179593Y0111934D01*
X0178092Y0111934D02*
X0181095Y0111934D01*
X0178092Y0114936D02*
X0179593Y0116438D01*
X0176491Y0115687D02*
X0176491Y0114186D01*
X0175740Y0113435D01*
X0173488Y0113435D01*
X0173488Y0111934D02*
X0173488Y0116438D01*
X0175740Y0116438D01*
X0176491Y0115687D01*
X0171887Y0116438D02*
X0170385Y0116438D01*
X0171136Y0116438D02*
X0171136Y0112684D01*
X0170385Y0111934D01*
X0169635Y0111934D01*
X0168884Y0112684D01*
M02*
