%
M48
M72
T01C0.0200
T02C0.0236
T03C0.0276
T04C0.0315
T05C0.0354
T06C0.0394
T07C0.0400
T08C0.0866
T09C0.1300
T10C0.1575
%
T01
X12382Y4102
X15334Y4102
X22027Y4102
X24586Y4102
X24586Y5283
X25492Y7291
X27500Y7882
X24193Y8945
X19468Y9772
X24783Y11780
X25610Y12252
X26200Y11661
X26673Y12252
X27716Y14457
X26830Y14831
X24015Y15598
X23248Y15992
X20826Y17980
X18996Y19752
X14980Y20638
X13917Y20638
X12145Y23000
X12145Y24181
X13563Y24181
X15334Y24181
X18405Y24181
X21004Y24181
X22539Y24181
X27500Y22646
X30334Y21465
X30925Y21465
X35354Y20461
X35767Y21583
X35767Y22409
X40374Y20992
X40137Y20283
X42854Y21465
X42559Y22291
X45216Y21937
X45787Y22134
X46673Y22094
X47697Y21465
X48031Y22055
X49350Y21937
X50177Y21346
X46397Y21110
X45807Y20638
X45098Y20402
X45334Y21228
X52460Y24240
X60334Y24181
X62106Y22409
X62224Y19693
X51594Y13787
X45452Y16031
X45098Y16740
X42500Y14634
X40571Y14634
X38267Y15146
X37893Y14614
X36240Y12252
X34468Y12252
X33169Y12252
X32185Y12272
X32736Y11563
X36830Y9417
X35649Y8000
X32697Y7409
X31082Y5677
X36830Y6465
X40039Y8315
X43996Y7488
X54429Y4043
X60689Y3984
X62106Y5874
X62224Y9772
X45334Y14378
X40374Y16622
X40137Y17094
X35413Y16740
X30571Y17094
X29626Y16622
X30571Y16268
X26279Y19083
X25256Y19476
X24252Y19870
X23838Y20402
X15531Y16504
X14153Y16504
X12185Y15126
X12185Y12567
X12185Y10205
X12185Y7646
T02
X20590Y8472
X22716Y8945
X21063Y10185
X24783Y10126
X25610Y10185
X26555Y10657
X31988Y10657
X32047Y10126
X33110Y10087
X34527Y9654
X33838Y11169
X36535Y14476
X36535Y15008
X36535Y15539
X36535Y16071
X42854Y15559
X45334Y15087
X50767Y12606
X51004Y12075
X42323Y10894
X57854Y16583
T03
X41074Y9343
X41074Y8343
X41074Y7343
X41074Y6343
T04
X29594Y4669
X28594Y4669
X26094Y23669
X25094Y23669
T05
X15004Y15035
X14019Y15035
X14019Y14209
X15004Y14051
X15004Y13185
X14019Y13185
X14019Y12358
X15004Y12358
T06
X30594Y4669
X31594Y4669
X32594Y4669
X33594Y4669
X34594Y4669
X35594Y4669
X37594Y4669
X38594Y4669
X39594Y4669
X40594Y4669
X41594Y4669
X42594Y4669
X43594Y4669
X44594Y4669
X46594Y4669
X47594Y4669
X48594Y4669
X49594Y4669
X50594Y4669
X51594Y4669
X52594Y4669
X53594Y4669
X54594Y6669
X55594Y6669
X55594Y7669
X54594Y7669
X54594Y8669
X55594Y8669
X55594Y9669
X54594Y9669
X54594Y10669
X55594Y10669
X55594Y11669
X54594Y11669
X54594Y12669
X55594Y12669
X55594Y13669
X54594Y13669
X54594Y14669
X55594Y14669
X55594Y15669
X54594Y15669
X54594Y16669
X55594Y16669
X55594Y17669
X54594Y17669
X54594Y18669
X55594Y18669
X55594Y19669
X54594Y19669
X54594Y20669
X55594Y20669
X55594Y21669
X54594Y21669
X54594Y22669
X55594Y22669
X55594Y23669
X54594Y23669
X51594Y23669
X50594Y23669
X49594Y23669
X48594Y23669
X47594Y23669
X46594Y23669
X45594Y23669
X44594Y23669
X42594Y23669
X41594Y23669
X40594Y23669
X39594Y23669
X38594Y23669
X37594Y23669
X36594Y23669
X35594Y23669
X34094Y23669
X33094Y23669
X32094Y23669
X31094Y23669
X30094Y23669
X29094Y23669
X28094Y23669
X27094Y23669
T07
X19959Y21207
X18879Y21207
X17799Y21207
X16719Y21207
X15639Y21207
X16179Y22207
X17259Y22207
X18339Y22207
X19419Y22207
X22767Y17797
X23767Y17797
X24767Y17797
X25767Y17797
X26767Y17797
X26767Y16797
X25767Y16797
X24767Y16797
X23767Y16797
X22767Y16797
X18567Y14197
X18567Y13197
X18567Y12197
X18779Y7138
X17699Y7138
X16619Y7138
X17159Y6138
X18239Y6138
X19319Y6138
X20399Y6138
X19859Y7138
X20939Y7138
X46634Y14087
X46634Y15087
X46634Y16087
X51657Y11343
X52657Y11343
X57086Y10650
X57086Y9650
X57086Y8650
X57086Y7650
X57086Y6650
X57527Y5500
X56527Y5500
X52657Y6843
X51657Y6843
X59232Y12529
X60232Y13069
X59232Y13609
X60232Y14149
X59232Y14689
X60232Y15229
X59232Y15769
X60232Y16309
X59232Y16849
T08
X12838Y16354
X12523Y13697
X12838Y11039
T09
X13849Y6638
X23709Y6638
X22729Y21707
X12869Y21707
X59732Y19619
X59732Y9759
T10
X61693Y4594
X61693Y23689
X12578Y19457
X12578Y9024
M30
