%
M48
M72
T01C0.04000
T02C0.05200
T03C0.13000
%
T01
X196488Y97161
X207388Y97161
X218188Y97161
X229088Y97161
X239988Y97161
X250788Y97161
X261688Y97161
X272588Y97161
X283388Y97161
X294288Y97161
X305188Y97161
X315988Y97161
X326888Y97161
X337788Y97161
X348688Y97161
X359488Y97161
X370388Y97161
X381288Y97161
X392088Y97161
X386688Y107161
X375788Y107161
X364988Y107161
X354088Y107161
X343188Y107161
X332388Y107161
X321488Y107161
X310588Y107161
X299688Y107161
X288888Y107161
X277988Y107161
X267088Y107161
X256288Y107161
X245388Y107161
X234488Y107161
X223688Y107161
X212788Y107161
X201888Y107161
T02
X170075Y44563
X199603Y42594
X223225Y42594
X246847Y42594
X270469Y42594
X294091Y42594
X317713Y42594
X341335Y42594
X364957Y42594
X388579Y42594
X376768Y26846
X353146Y26846
X329524Y26846
X305902Y26846
X282280Y26846
X258658Y26846
X235036Y26846
X211414Y26846
X187792Y26846
X187910Y58185
X211532Y58185
X235154Y58185
X258776Y58185
X282398Y58185
X306020Y58185
X329642Y58185
X353264Y58185
X376886Y58185
X400509Y58185
X388698Y73933
X365075Y73933
X341453Y73933
X317831Y73933
X294209Y73933
X270587Y73933
X246965Y73933
X223343Y73933
X199721Y73933
T03
X169288Y102161
X419288Y102161
M30
