G75*
%MOIN*%
%OFA0B0*%
%FSLAX25Y25*%
%IPPOS*%
%LPD*%
%AMOC8*
5,1,8,0,0,1.08239X$1,22.5*
%
%ADD10C,0.00700*%
%ADD11C,0.00900*%
%ADD12C,0.00600*%
%ADD13C,0.01700*%
%ADD14C,0.00400*%
D10*
X0178492Y0038527D02*
X0178492Y0040162D01*
X0179309Y0040979D01*
X0180944Y0040979D01*
X0180944Y0039345D01*
X0182578Y0040979D02*
X0183396Y0040162D01*
X0183396Y0038527D01*
X0182578Y0037710D01*
X0179309Y0037710D01*
X0178492Y0038527D01*
X0178492Y0042866D02*
X0183396Y0042866D01*
X0178492Y0046136D01*
X0183396Y0046136D01*
X0183396Y0048023D02*
X0183396Y0050475D01*
X0182578Y0051292D01*
X0179309Y0051292D01*
X0178492Y0050475D01*
X0178492Y0048023D01*
X0183396Y0048023D01*
X0196306Y0055786D02*
X0199575Y0055786D01*
X0197941Y0055786D02*
X0197941Y0060690D01*
X0199575Y0059056D01*
X0219975Y0059056D02*
X0220793Y0058238D01*
X0219975Y0057421D01*
X0219975Y0056604D01*
X0220793Y0055786D01*
X0222427Y0055786D01*
X0223245Y0056604D01*
X0221610Y0058238D02*
X0220793Y0058238D01*
X0219975Y0059056D02*
X0219975Y0059873D01*
X0220793Y0060690D01*
X0222427Y0060690D01*
X0223245Y0059873D01*
X0243751Y0060494D02*
X0247020Y0060494D01*
X0247020Y0058041D01*
X0245385Y0058859D01*
X0244568Y0058859D01*
X0243751Y0058041D01*
X0243751Y0056407D01*
X0244568Y0055589D01*
X0246203Y0055589D01*
X0247020Y0056407D01*
X0256081Y0046470D02*
X0255263Y0045652D01*
X0255263Y0044018D01*
X0256081Y0043200D01*
X0257715Y0043200D02*
X0258533Y0044835D01*
X0258533Y0045652D01*
X0257715Y0046470D01*
X0256081Y0046470D01*
X0260167Y0046470D02*
X0260167Y0043200D01*
X0257715Y0043200D01*
X0258533Y0041313D02*
X0259350Y0041313D01*
X0260167Y0040496D01*
X0260167Y0038861D01*
X0259350Y0038044D01*
X0258533Y0041313D02*
X0255263Y0038044D01*
X0255263Y0041313D01*
X0236498Y0040890D02*
X0236498Y0039255D01*
X0235681Y0038438D01*
X0236498Y0040890D02*
X0235681Y0041707D01*
X0234863Y0041707D01*
X0231594Y0038438D01*
X0231594Y0041707D01*
X0232411Y0043594D02*
X0231594Y0044411D01*
X0231594Y0046046D01*
X0232411Y0046864D01*
X0233229Y0046864D01*
X0234046Y0046046D01*
X0234046Y0045229D01*
X0234046Y0046046D02*
X0234863Y0046864D01*
X0235681Y0046864D01*
X0236498Y0046046D01*
X0236498Y0044411D01*
X0235681Y0043594D01*
X0213010Y0045032D02*
X0211375Y0043397D01*
X0211375Y0041510D02*
X0212193Y0041510D01*
X0213010Y0040693D01*
X0213010Y0039058D01*
X0212193Y0038241D01*
X0211375Y0041510D02*
X0208106Y0038241D01*
X0208106Y0041510D01*
X0208106Y0043397D02*
X0208106Y0046667D01*
X0208106Y0045032D02*
X0213010Y0045032D01*
X0219850Y0030722D02*
X0219850Y0027452D01*
X0223119Y0030722D01*
X0223937Y0030722D01*
X0224754Y0029904D01*
X0224754Y0028270D01*
X0223937Y0027452D01*
X0223937Y0025565D02*
X0224754Y0024748D01*
X0224754Y0023113D01*
X0223937Y0022296D01*
X0223119Y0025565D02*
X0219850Y0022296D01*
X0219850Y0025565D01*
X0223119Y0025565D02*
X0223937Y0025565D01*
X0243429Y0025762D02*
X0243429Y0022493D01*
X0246698Y0025762D01*
X0247515Y0025762D01*
X0248333Y0024945D01*
X0248333Y0023310D01*
X0247515Y0022493D01*
X0245881Y0027649D02*
X0245881Y0030919D01*
X0243429Y0030101D02*
X0248333Y0030101D01*
X0245881Y0027649D01*
X0267098Y0028663D02*
X0267915Y0027846D01*
X0269550Y0027846D01*
X0269550Y0030298D01*
X0268733Y0031116D01*
X0267915Y0031116D01*
X0267098Y0030298D01*
X0267098Y0028663D01*
X0269550Y0027846D02*
X0271185Y0029481D01*
X0272002Y0031116D01*
X0271185Y0025959D02*
X0272002Y0025142D01*
X0272002Y0023507D01*
X0271185Y0022690D01*
X0270367Y0025959D02*
X0267098Y0022690D01*
X0267098Y0025959D01*
X0270367Y0025959D02*
X0271185Y0025959D01*
X0290767Y0025959D02*
X0290767Y0022690D01*
X0294037Y0025959D01*
X0294854Y0025959D01*
X0295671Y0025142D01*
X0295671Y0023507D01*
X0294854Y0022690D01*
X0294854Y0027846D02*
X0294037Y0027846D01*
X0293219Y0028663D01*
X0293219Y0030298D01*
X0292402Y0031116D01*
X0291585Y0031116D01*
X0290767Y0030298D01*
X0290767Y0028663D01*
X0291585Y0027846D01*
X0292402Y0027846D01*
X0293219Y0028663D01*
X0293219Y0030298D02*
X0294037Y0031116D01*
X0294854Y0031116D01*
X0295671Y0030298D01*
X0295671Y0028663D01*
X0294854Y0027846D01*
X0314346Y0028557D02*
X0315163Y0027740D01*
X0318433Y0031009D01*
X0315163Y0031009D01*
X0314346Y0030192D01*
X0314346Y0028557D01*
X0315163Y0027740D02*
X0318433Y0027740D01*
X0319250Y0028557D01*
X0319250Y0030192D01*
X0318433Y0031009D01*
X0318433Y0025853D02*
X0317615Y0025853D01*
X0316798Y0025035D01*
X0315981Y0025853D01*
X0315163Y0025853D01*
X0314346Y0025035D01*
X0314346Y0023401D01*
X0315163Y0022583D01*
X0316798Y0024218D02*
X0316798Y0025035D01*
X0318433Y0025853D02*
X0319250Y0025035D01*
X0319250Y0023401D01*
X0318433Y0022583D01*
X0337948Y0023401D02*
X0338766Y0022583D01*
X0337948Y0023401D02*
X0337948Y0025035D01*
X0338766Y0025853D01*
X0339583Y0025853D01*
X0340400Y0025035D01*
X0340400Y0024218D01*
X0340400Y0025035D02*
X0341218Y0025853D01*
X0342035Y0025853D01*
X0342852Y0025035D01*
X0342852Y0023401D01*
X0342035Y0022583D01*
X0342035Y0027740D02*
X0342852Y0028557D01*
X0342852Y0030192D01*
X0342035Y0031009D01*
X0341218Y0031009D01*
X0337948Y0027740D01*
X0337948Y0031009D01*
X0330161Y0038725D02*
X0330978Y0039542D01*
X0330978Y0041177D01*
X0330161Y0041995D01*
X0329344Y0041995D01*
X0328526Y0041177D01*
X0327709Y0041995D01*
X0326892Y0041995D01*
X0326074Y0041177D01*
X0326074Y0039542D01*
X0326892Y0038725D01*
X0328526Y0040360D02*
X0328526Y0041177D01*
X0329344Y0043881D02*
X0330978Y0045516D01*
X0326074Y0045516D01*
X0326074Y0043881D02*
X0326074Y0047151D01*
X0317694Y0054142D02*
X0319329Y0055777D01*
X0314425Y0055777D01*
X0314425Y0054142D02*
X0314425Y0057412D01*
X0314425Y0059299D02*
X0314425Y0062568D01*
X0314425Y0060934D02*
X0319329Y0060934D01*
X0317694Y0059299D01*
X0338003Y0060313D02*
X0338821Y0059496D01*
X0338003Y0060313D02*
X0338003Y0061948D01*
X0338821Y0062765D01*
X0339638Y0062765D01*
X0340455Y0061948D01*
X0340455Y0061130D01*
X0340455Y0061948D02*
X0341273Y0062765D01*
X0342090Y0062765D01*
X0342908Y0061948D01*
X0342908Y0060313D01*
X0342090Y0059496D01*
X0338003Y0057609D02*
X0338003Y0054339D01*
X0338003Y0055974D02*
X0342908Y0055974D01*
X0341273Y0054339D01*
X0349759Y0046137D02*
X0350577Y0046954D01*
X0351394Y0046954D01*
X0352211Y0046137D01*
X0352211Y0045319D01*
X0352211Y0046137D02*
X0353029Y0046954D01*
X0353846Y0046954D01*
X0354663Y0046137D01*
X0354663Y0044502D01*
X0353846Y0043685D01*
X0353846Y0041798D02*
X0353029Y0041798D01*
X0352211Y0040980D01*
X0351394Y0041798D01*
X0350577Y0041798D01*
X0349759Y0040980D01*
X0349759Y0039346D01*
X0350577Y0038528D01*
X0352211Y0040163D02*
X0352211Y0040980D01*
X0353846Y0041798D02*
X0354663Y0040980D01*
X0354663Y0039346D01*
X0353846Y0038528D01*
X0350577Y0043685D02*
X0349759Y0044502D01*
X0349759Y0046137D01*
X0361779Y0054142D02*
X0361779Y0057412D01*
X0361779Y0055777D02*
X0366683Y0055777D01*
X0365048Y0054142D01*
X0364231Y0059299D02*
X0365048Y0060934D01*
X0365048Y0061751D01*
X0364231Y0062568D01*
X0362596Y0062568D01*
X0361779Y0061751D01*
X0361779Y0060116D01*
X0362596Y0059299D01*
X0364231Y0059299D02*
X0366683Y0059299D01*
X0366683Y0062568D01*
X0373614Y0069890D02*
X0373614Y0073160D01*
X0373614Y0071525D02*
X0378518Y0071525D01*
X0376883Y0069890D01*
X0376066Y0075047D02*
X0374431Y0075047D01*
X0373614Y0075864D01*
X0373614Y0077499D01*
X0374431Y0078316D01*
X0375248Y0078316D01*
X0376066Y0077499D01*
X0376066Y0075047D01*
X0377700Y0076682D01*
X0378518Y0078316D01*
X0378098Y0084812D02*
X0378098Y0088081D01*
X0378098Y0086446D02*
X0383002Y0086446D01*
X0381367Y0084812D01*
X0389598Y0084812D02*
X0389598Y0088081D01*
X0389598Y0086446D02*
X0394502Y0086446D01*
X0392867Y0084812D01*
X0392867Y0089968D02*
X0392050Y0090785D01*
X0392050Y0093238D01*
X0390415Y0093238D02*
X0393685Y0093238D01*
X0394502Y0092420D01*
X0394502Y0090785D01*
X0393685Y0089968D01*
X0392867Y0089968D01*
X0390415Y0089968D02*
X0389598Y0090785D01*
X0389598Y0092420D01*
X0390415Y0093238D01*
X0383002Y0092420D02*
X0383002Y0090785D01*
X0382185Y0089968D01*
X0381367Y0089968D01*
X0380550Y0090785D01*
X0380550Y0092420D01*
X0379733Y0093238D01*
X0378915Y0093238D01*
X0378098Y0092420D01*
X0378098Y0090785D01*
X0378915Y0089968D01*
X0379733Y0089968D01*
X0380550Y0090785D01*
X0380550Y0092420D02*
X0381367Y0093238D01*
X0382185Y0093238D01*
X0383002Y0092420D01*
X0372002Y0093238D02*
X0372002Y0089968D01*
X0371185Y0093238D02*
X0367915Y0089968D01*
X0367098Y0089968D01*
X0367098Y0088081D02*
X0367098Y0084812D01*
X0367098Y0086446D02*
X0372002Y0086446D01*
X0370367Y0084812D01*
X0361502Y0086446D02*
X0359867Y0084812D01*
X0361502Y0086446D02*
X0356598Y0086446D01*
X0356598Y0084812D02*
X0356598Y0088081D01*
X0357415Y0089968D02*
X0356598Y0090785D01*
X0356598Y0092420D01*
X0357415Y0093238D01*
X0358233Y0093238D01*
X0359050Y0092420D01*
X0359050Y0089968D01*
X0357415Y0089968D01*
X0359050Y0089968D02*
X0360685Y0091603D01*
X0361502Y0093238D01*
X0350502Y0093238D02*
X0350502Y0089968D01*
X0348050Y0089968D01*
X0348867Y0091603D01*
X0348867Y0092420D01*
X0348050Y0093238D01*
X0346415Y0093238D01*
X0345598Y0092420D01*
X0345598Y0090785D01*
X0346415Y0089968D01*
X0345598Y0088081D02*
X0345598Y0084812D01*
X0345598Y0086446D02*
X0350502Y0086446D01*
X0348867Y0084812D01*
X0339502Y0086446D02*
X0337867Y0084812D01*
X0339502Y0086446D02*
X0334598Y0086446D01*
X0334598Y0084812D02*
X0334598Y0088081D01*
X0337050Y0089968D02*
X0337050Y0093238D01*
X0334598Y0092420D02*
X0339502Y0092420D01*
X0337050Y0089968D01*
X0329002Y0090785D02*
X0329002Y0092420D01*
X0328185Y0093238D01*
X0327367Y0093238D01*
X0326550Y0092420D01*
X0325733Y0093238D01*
X0324915Y0093238D01*
X0324098Y0092420D01*
X0324098Y0090785D01*
X0324915Y0089968D01*
X0324098Y0088081D02*
X0324098Y0084812D01*
X0324098Y0086446D02*
X0329002Y0086446D01*
X0327367Y0084812D01*
X0328185Y0089968D02*
X0329002Y0090785D01*
X0326550Y0091603D02*
X0326550Y0092420D01*
X0318002Y0092420D02*
X0318002Y0090785D01*
X0317185Y0089968D01*
X0318002Y0092420D02*
X0317185Y0093238D01*
X0316367Y0093238D01*
X0313098Y0089968D01*
X0313098Y0093238D01*
X0307502Y0091800D02*
X0302598Y0091800D01*
X0302598Y0093434D02*
X0302598Y0090165D01*
X0302598Y0088278D02*
X0302598Y0085009D01*
X0302598Y0086643D02*
X0307502Y0086643D01*
X0305867Y0085009D01*
X0313098Y0084812D02*
X0313098Y0088081D01*
X0313098Y0086446D02*
X0318002Y0086446D01*
X0316367Y0084812D01*
X0307494Y0077893D02*
X0306677Y0078710D01*
X0303407Y0075441D01*
X0302590Y0076258D01*
X0302590Y0077893D01*
X0303407Y0078710D01*
X0306677Y0078710D01*
X0307494Y0077893D02*
X0307494Y0076258D01*
X0306677Y0075441D01*
X0303407Y0075441D01*
X0302590Y0073554D02*
X0302590Y0070284D01*
X0302590Y0071919D02*
X0307494Y0071919D01*
X0305859Y0070284D01*
X0326366Y0069890D02*
X0326366Y0073160D01*
X0326366Y0071525D02*
X0331270Y0071525D01*
X0329635Y0069890D01*
X0330452Y0075047D02*
X0331270Y0075864D01*
X0331270Y0077499D01*
X0330452Y0078316D01*
X0329635Y0078316D01*
X0326366Y0075047D01*
X0326366Y0078316D01*
X0349944Y0077499D02*
X0354849Y0077499D01*
X0352396Y0075047D01*
X0352396Y0078316D01*
X0349944Y0073160D02*
X0349944Y0069890D01*
X0349944Y0071525D02*
X0354849Y0071525D01*
X0353214Y0069890D01*
X0385358Y0059693D02*
X0386175Y0059693D01*
X0389445Y0062962D01*
X0390262Y0062962D01*
X0390262Y0059693D01*
X0385358Y0057806D02*
X0385358Y0054536D01*
X0385358Y0056171D02*
X0390262Y0056171D01*
X0388627Y0054536D01*
X0378242Y0047151D02*
X0378242Y0043881D01*
X0375790Y0043881D01*
X0376608Y0045516D01*
X0376608Y0046334D01*
X0375790Y0047151D01*
X0374155Y0047151D01*
X0373338Y0046334D01*
X0373338Y0044699D01*
X0374155Y0043881D01*
X0374155Y0041995D02*
X0373338Y0041177D01*
X0373338Y0039542D01*
X0374155Y0038725D01*
X0375790Y0040360D02*
X0375790Y0041177D01*
X0374973Y0041995D01*
X0374155Y0041995D01*
X0375790Y0041177D02*
X0376608Y0041995D01*
X0377425Y0041995D01*
X0378242Y0041177D01*
X0378242Y0039542D01*
X0377425Y0038725D01*
X0385157Y0030389D02*
X0385974Y0031206D01*
X0386792Y0031206D01*
X0387609Y0030389D01*
X0387609Y0027937D01*
X0385974Y0027937D01*
X0385157Y0028754D01*
X0385157Y0030389D01*
X0387609Y0027937D02*
X0389244Y0029571D01*
X0390061Y0031206D01*
X0389244Y0026050D02*
X0388426Y0026050D01*
X0387609Y0025232D01*
X0386792Y0026050D01*
X0385974Y0026050D01*
X0385157Y0025232D01*
X0385157Y0023598D01*
X0385974Y0022780D01*
X0387609Y0024415D02*
X0387609Y0025232D01*
X0389244Y0026050D02*
X0390061Y0025232D01*
X0390061Y0023598D01*
X0389244Y0022780D01*
X0366408Y0023401D02*
X0366408Y0025035D01*
X0365590Y0025853D01*
X0364773Y0025853D01*
X0363955Y0025035D01*
X0363138Y0025853D01*
X0362321Y0025853D01*
X0361503Y0025035D01*
X0361503Y0023401D01*
X0362321Y0022583D01*
X0363955Y0024218D02*
X0363955Y0025035D01*
X0363955Y0027740D02*
X0363955Y0031009D01*
X0361503Y0030192D02*
X0366408Y0030192D01*
X0363955Y0027740D01*
X0366408Y0023401D02*
X0365590Y0022583D01*
X0397114Y0039542D02*
X0397931Y0038725D01*
X0397114Y0039542D02*
X0397114Y0041177D01*
X0397931Y0041995D01*
X0398748Y0041995D01*
X0399566Y0041177D01*
X0399566Y0040360D01*
X0399566Y0041177D02*
X0400383Y0041995D01*
X0401200Y0041995D01*
X0402018Y0041177D01*
X0402018Y0039542D01*
X0401200Y0038725D01*
X0402018Y0043881D02*
X0402018Y0047151D01*
X0401200Y0047151D01*
X0397931Y0043881D01*
X0397114Y0043881D01*
X0408921Y0054536D02*
X0408921Y0057806D01*
X0408921Y0056171D02*
X0413825Y0056171D01*
X0412190Y0054536D01*
X0412190Y0059693D02*
X0411373Y0060510D01*
X0411373Y0062962D01*
X0413008Y0062962D02*
X0413825Y0062145D01*
X0413825Y0060510D01*
X0413008Y0059693D01*
X0412190Y0059693D01*
X0409738Y0059693D02*
X0408921Y0060510D01*
X0408921Y0062145D01*
X0409738Y0062962D01*
X0413008Y0062962D01*
X0402097Y0071525D02*
X0400462Y0069890D01*
X0402097Y0071525D02*
X0397192Y0071525D01*
X0397192Y0069890D02*
X0397192Y0073160D01*
X0398010Y0075047D02*
X0398827Y0075047D01*
X0399644Y0075864D01*
X0399644Y0077499D01*
X0398827Y0078316D01*
X0398010Y0078316D01*
X0397192Y0077499D01*
X0397192Y0075864D01*
X0398010Y0075047D01*
X0399644Y0075864D02*
X0400462Y0075047D01*
X0401279Y0075047D01*
X0402097Y0075864D01*
X0402097Y0077499D01*
X0401279Y0078316D01*
X0400462Y0078316D01*
X0399644Y0077499D01*
X0372002Y0093238D02*
X0371185Y0093238D01*
X0374927Y0114119D02*
X0374110Y0114936D01*
X0374110Y0116571D01*
X0374927Y0117388D01*
X0375744Y0117388D01*
X0376562Y0116571D01*
X0376562Y0115754D01*
X0376562Y0116571D02*
X0377379Y0117388D01*
X0378197Y0117388D01*
X0379014Y0116571D01*
X0379014Y0114936D01*
X0378197Y0114119D01*
X0383610Y0114936D02*
X0383610Y0116571D01*
X0384427Y0117388D01*
X0385244Y0117388D01*
X0386062Y0116571D01*
X0386062Y0115754D01*
X0386062Y0116571D02*
X0386879Y0117388D01*
X0387697Y0117388D01*
X0388514Y0116571D01*
X0388514Y0114936D01*
X0387697Y0114119D01*
X0384427Y0114119D02*
X0383610Y0114936D01*
X0383610Y0119275D02*
X0384427Y0119275D01*
X0387697Y0122545D01*
X0388514Y0122545D01*
X0388514Y0119275D01*
X0379014Y0122545D02*
X0378197Y0120910D01*
X0376562Y0119275D01*
X0376562Y0121727D01*
X0375744Y0122545D01*
X0374927Y0122545D01*
X0374110Y0121727D01*
X0374110Y0120093D01*
X0374927Y0119275D01*
X0376562Y0119275D01*
X0367014Y0119275D02*
X0367014Y0122545D01*
X0365379Y0121727D02*
X0365379Y0120910D01*
X0364562Y0119275D01*
X0367014Y0119275D01*
X0366197Y0117388D02*
X0365379Y0117388D01*
X0364562Y0116571D01*
X0363744Y0117388D01*
X0362927Y0117388D01*
X0362110Y0116571D01*
X0362110Y0114936D01*
X0362927Y0114119D01*
X0364562Y0115754D02*
X0364562Y0116571D01*
X0366197Y0117388D02*
X0367014Y0116571D01*
X0367014Y0114936D01*
X0366197Y0114119D01*
X0362927Y0119275D02*
X0362110Y0120093D01*
X0362110Y0121727D01*
X0362927Y0122545D01*
X0364562Y0122545D01*
X0365379Y0121727D01*
X0356014Y0121727D02*
X0353562Y0119275D01*
X0353562Y0122545D01*
X0351110Y0121727D02*
X0356014Y0121727D01*
X0345514Y0121727D02*
X0345514Y0120093D01*
X0344697Y0119275D01*
X0344697Y0117388D02*
X0343879Y0117388D01*
X0343062Y0116571D01*
X0342244Y0117388D01*
X0341427Y0117388D01*
X0340610Y0116571D01*
X0340610Y0114936D01*
X0341427Y0114119D01*
X0343062Y0115754D02*
X0343062Y0116571D01*
X0344697Y0117388D02*
X0345514Y0116571D01*
X0345514Y0114936D01*
X0344697Y0114119D01*
X0351110Y0114936D02*
X0351927Y0114119D01*
X0351110Y0114936D02*
X0351110Y0116571D01*
X0351927Y0117388D01*
X0352744Y0117388D01*
X0353562Y0116571D01*
X0353562Y0115754D01*
X0353562Y0116571D02*
X0354379Y0117388D01*
X0355197Y0117388D01*
X0356014Y0116571D01*
X0356014Y0114936D01*
X0355197Y0114119D01*
X0341427Y0119275D02*
X0340610Y0120093D01*
X0340610Y0121727D01*
X0341427Y0122545D01*
X0342244Y0122545D01*
X0343062Y0121727D01*
X0343062Y0120910D01*
X0343062Y0121727D02*
X0343879Y0122545D01*
X0344697Y0122545D01*
X0345514Y0121727D01*
X0324514Y0120910D02*
X0322879Y0119275D01*
X0322879Y0117388D02*
X0322062Y0116571D01*
X0321244Y0117388D01*
X0320427Y0117388D01*
X0319610Y0116571D01*
X0319610Y0114936D01*
X0320427Y0114119D01*
X0322062Y0115754D02*
X0322062Y0116571D01*
X0322879Y0117388D02*
X0323697Y0117388D01*
X0324514Y0116571D01*
X0324514Y0114936D01*
X0323697Y0114119D01*
X0319610Y0119275D02*
X0319610Y0122545D01*
X0319610Y0120910D02*
X0324514Y0120910D01*
X0313014Y0120093D02*
X0313014Y0121727D01*
X0312197Y0122545D01*
X0308927Y0119275D01*
X0308110Y0120093D01*
X0308110Y0121727D01*
X0308927Y0122545D01*
X0312197Y0122545D01*
X0313014Y0120093D02*
X0312197Y0119275D01*
X0308927Y0119275D01*
X0308927Y0117388D02*
X0308110Y0116571D01*
X0308110Y0114936D01*
X0308927Y0114119D01*
X0310562Y0115754D02*
X0310562Y0116571D01*
X0309744Y0117388D01*
X0308927Y0117388D01*
X0310562Y0116571D02*
X0311379Y0117388D01*
X0312197Y0117388D01*
X0313014Y0116571D01*
X0313014Y0114936D01*
X0312197Y0114119D01*
X0302014Y0114936D02*
X0302014Y0116571D01*
X0301197Y0117388D01*
X0300379Y0117388D01*
X0297110Y0114119D01*
X0297110Y0117388D01*
X0297927Y0119275D02*
X0297110Y0120093D01*
X0297110Y0121727D01*
X0297927Y0122545D01*
X0301197Y0122545D01*
X0302014Y0121727D01*
X0302014Y0120093D01*
X0301197Y0119275D01*
X0300379Y0119275D01*
X0299562Y0120093D01*
X0299562Y0122545D01*
X0291514Y0122227D02*
X0291514Y0120593D01*
X0290697Y0119775D01*
X0289879Y0119775D01*
X0289062Y0120593D01*
X0289062Y0122227D01*
X0288244Y0123045D01*
X0287427Y0123045D01*
X0286610Y0122227D01*
X0286610Y0120593D01*
X0287427Y0119775D01*
X0288244Y0119775D01*
X0289062Y0120593D01*
X0289062Y0122227D02*
X0289879Y0123045D01*
X0290697Y0123045D01*
X0291514Y0122227D01*
X0290697Y0117888D02*
X0291514Y0117071D01*
X0291514Y0115436D01*
X0290697Y0114619D01*
X0289879Y0117888D02*
X0286610Y0114619D01*
X0286610Y0117888D01*
X0289879Y0117888D02*
X0290697Y0117888D01*
X0280014Y0117071D02*
X0280014Y0115436D01*
X0279197Y0114619D01*
X0280014Y0117071D02*
X0279197Y0117888D01*
X0278379Y0117888D01*
X0275110Y0114619D01*
X0275110Y0117888D01*
X0275110Y0119775D02*
X0275927Y0119775D01*
X0279197Y0123045D01*
X0280014Y0123045D01*
X0280014Y0119775D01*
X0269514Y0117071D02*
X0269514Y0115436D01*
X0268697Y0114619D01*
X0269514Y0117071D02*
X0268697Y0117888D01*
X0267879Y0117888D01*
X0264610Y0114619D01*
X0264610Y0117888D01*
X0265427Y0119775D02*
X0264610Y0120593D01*
X0264610Y0122227D01*
X0265427Y0123045D01*
X0266244Y0123045D01*
X0267062Y0122227D01*
X0267062Y0119775D01*
X0265427Y0119775D01*
X0267062Y0119775D02*
X0268697Y0121410D01*
X0269514Y0123045D01*
X0258514Y0123045D02*
X0258514Y0119775D01*
X0256062Y0119775D01*
X0256879Y0121410D01*
X0256879Y0122227D01*
X0256062Y0123045D01*
X0254427Y0123045D01*
X0253610Y0122227D01*
X0253610Y0120593D01*
X0254427Y0119775D01*
X0253610Y0117888D02*
X0253610Y0114619D01*
X0256879Y0117888D01*
X0257697Y0117888D01*
X0258514Y0117071D01*
X0258514Y0115436D01*
X0257697Y0114619D01*
X0247514Y0115436D02*
X0246697Y0114619D01*
X0247514Y0115436D02*
X0247514Y0117071D01*
X0246697Y0117888D01*
X0245879Y0117888D01*
X0242610Y0114619D01*
X0242610Y0117888D01*
X0245062Y0119775D02*
X0245062Y0123045D01*
X0242610Y0122227D02*
X0247514Y0122227D01*
X0245062Y0119775D01*
X0236514Y0120593D02*
X0236514Y0122227D01*
X0235697Y0123045D01*
X0234879Y0123045D01*
X0234062Y0122227D01*
X0233244Y0123045D01*
X0232427Y0123045D01*
X0231610Y0122227D01*
X0231610Y0120593D01*
X0232427Y0119775D01*
X0231610Y0117888D02*
X0231610Y0114619D01*
X0234879Y0117888D01*
X0235697Y0117888D01*
X0236514Y0117071D01*
X0236514Y0115436D01*
X0235697Y0114619D01*
X0235697Y0119775D02*
X0236514Y0120593D01*
X0234062Y0121410D02*
X0234062Y0122227D01*
X0226014Y0122227D02*
X0226014Y0120593D01*
X0225197Y0119775D01*
X0225197Y0117888D02*
X0226014Y0117071D01*
X0226014Y0115436D01*
X0225197Y0114619D01*
X0224379Y0117888D02*
X0221110Y0114619D01*
X0221110Y0117888D01*
X0221110Y0119775D02*
X0224379Y0123045D01*
X0225197Y0123045D01*
X0226014Y0122227D01*
X0221110Y0123045D02*
X0221110Y0119775D01*
X0224379Y0117888D02*
X0225197Y0117888D01*
X0215514Y0117071D02*
X0215514Y0115436D01*
X0214697Y0114619D01*
X0215514Y0117071D02*
X0214697Y0117888D01*
X0213879Y0117888D01*
X0210610Y0114619D01*
X0210610Y0117888D01*
X0210610Y0119775D02*
X0210610Y0123045D01*
X0210610Y0121410D02*
X0215514Y0121410D01*
X0213879Y0119775D01*
X0204014Y0120593D02*
X0204014Y0122227D01*
X0203197Y0123045D01*
X0199927Y0119775D01*
X0199110Y0120593D01*
X0199110Y0122227D01*
X0199927Y0123045D01*
X0203197Y0123045D01*
X0204014Y0120593D02*
X0203197Y0119775D01*
X0199927Y0119775D01*
X0199110Y0117888D02*
X0199110Y0114619D01*
X0202379Y0117888D01*
X0203197Y0117888D01*
X0204014Y0117071D01*
X0204014Y0115436D01*
X0203197Y0114619D01*
X0205824Y0090769D02*
X0207459Y0090769D01*
X0208276Y0089952D01*
X0205824Y0090769D02*
X0205007Y0089952D01*
X0205007Y0089134D01*
X0208276Y0085865D01*
X0205007Y0085865D01*
X0197276Y0085865D02*
X0194007Y0085865D01*
X0195641Y0085865D02*
X0195641Y0090769D01*
X0197276Y0089134D01*
X0216007Y0089134D02*
X0216824Y0088317D01*
X0216007Y0087500D01*
X0216007Y0086682D01*
X0216824Y0085865D01*
X0218459Y0085865D01*
X0219276Y0086682D01*
X0217641Y0088317D02*
X0216824Y0088317D01*
X0216007Y0089134D02*
X0216007Y0089952D01*
X0216824Y0090769D01*
X0218459Y0090769D01*
X0219276Y0089952D01*
X0227007Y0088317D02*
X0230276Y0088317D01*
X0227824Y0090769D01*
X0227824Y0085865D01*
X0237507Y0086682D02*
X0238324Y0085865D01*
X0239959Y0085865D01*
X0240776Y0086682D01*
X0240776Y0088317D02*
X0239141Y0089134D01*
X0238324Y0089134D01*
X0237507Y0088317D01*
X0237507Y0086682D01*
X0240776Y0088317D02*
X0240776Y0090769D01*
X0237507Y0090769D01*
X0248507Y0090769D02*
X0250141Y0089952D01*
X0251776Y0088317D01*
X0249324Y0088317D01*
X0248507Y0087500D01*
X0248507Y0086682D01*
X0249324Y0085865D01*
X0250959Y0085865D01*
X0251776Y0086682D01*
X0251776Y0088317D01*
X0259007Y0089452D02*
X0262276Y0086182D01*
X0262276Y0085365D01*
X0270007Y0086682D02*
X0270824Y0085865D01*
X0272459Y0085865D01*
X0273276Y0086682D01*
X0273276Y0087500D01*
X0272459Y0088317D01*
X0270824Y0088317D01*
X0270007Y0087500D01*
X0270007Y0086682D01*
X0270824Y0088317D02*
X0270007Y0089134D01*
X0270007Y0089952D01*
X0270824Y0090769D01*
X0272459Y0090769D01*
X0273276Y0089952D01*
X0273276Y0089134D01*
X0272459Y0088317D01*
X0281007Y0088317D02*
X0283459Y0088317D01*
X0284276Y0089134D01*
X0284276Y0089952D01*
X0283459Y0090769D01*
X0281824Y0090769D01*
X0281007Y0089952D01*
X0281007Y0086682D01*
X0281824Y0085865D01*
X0283459Y0085865D01*
X0284276Y0086682D01*
X0291598Y0086446D02*
X0296502Y0086446D01*
X0294867Y0084812D01*
X0291598Y0084812D02*
X0291598Y0088081D01*
X0292415Y0089968D02*
X0291598Y0090785D01*
X0291598Y0092420D01*
X0292415Y0093238D01*
X0295685Y0093238D01*
X0292415Y0089968D01*
X0295685Y0089968D01*
X0296502Y0090785D01*
X0296502Y0092420D01*
X0295685Y0093238D01*
X0305867Y0090165D02*
X0307502Y0091800D01*
X0282237Y0075621D02*
X0282237Y0074804D01*
X0281419Y0073986D01*
X0279785Y0073986D01*
X0278967Y0073169D01*
X0278967Y0072352D01*
X0279785Y0071534D01*
X0281419Y0071534D01*
X0282237Y0072352D01*
X0282237Y0073169D01*
X0281419Y0073986D01*
X0279785Y0073986D02*
X0278967Y0074804D01*
X0278967Y0075621D01*
X0279785Y0076438D01*
X0281419Y0076438D01*
X0282237Y0075621D01*
X0258658Y0073986D02*
X0258658Y0072352D01*
X0257841Y0071534D01*
X0256206Y0071534D01*
X0255389Y0072352D01*
X0255389Y0073169D01*
X0256206Y0073986D01*
X0258658Y0073986D01*
X0257023Y0075621D01*
X0255389Y0076438D01*
X0235079Y0073789D02*
X0231810Y0073789D01*
X0232627Y0071337D02*
X0232627Y0076242D01*
X0235079Y0073789D01*
X0211410Y0075621D02*
X0210593Y0076438D01*
X0208958Y0076438D01*
X0208141Y0075621D01*
X0208141Y0074804D01*
X0211410Y0071534D01*
X0208141Y0071534D01*
X0259007Y0089452D02*
X0259007Y0090269D01*
X0262276Y0090269D01*
X0301197Y0114119D02*
X0302014Y0114936D01*
X0293254Y0060690D02*
X0291619Y0060690D01*
X0290802Y0059873D01*
X0290802Y0056604D01*
X0291619Y0055786D01*
X0293254Y0055786D01*
X0294071Y0056604D01*
X0293254Y0058238D02*
X0290802Y0058238D01*
X0293254Y0058238D02*
X0294071Y0059056D01*
X0294071Y0059873D01*
X0293254Y0060690D01*
X0270599Y0060584D02*
X0267329Y0060584D01*
X0267329Y0059767D01*
X0270599Y0056497D01*
X0270599Y0055680D01*
X0279659Y0043791D02*
X0282929Y0047060D01*
X0283746Y0047060D01*
X0283746Y0043791D01*
X0282929Y0041904D02*
X0283746Y0041087D01*
X0283746Y0039452D01*
X0282929Y0038635D01*
X0282111Y0041904D02*
X0278842Y0038635D01*
X0278842Y0041904D01*
X0278842Y0043791D02*
X0279659Y0043791D01*
X0282111Y0041904D02*
X0282929Y0041904D01*
X0302511Y0041798D02*
X0302511Y0038528D01*
X0305781Y0041798D01*
X0306598Y0041798D01*
X0307415Y0040980D01*
X0307415Y0039346D01*
X0306598Y0038528D01*
X0306598Y0043685D02*
X0305781Y0043685D01*
X0304963Y0044502D01*
X0304963Y0046954D01*
X0303329Y0046954D02*
X0306598Y0046954D01*
X0307415Y0046137D01*
X0307415Y0044502D01*
X0306598Y0043685D01*
X0303329Y0043685D02*
X0302511Y0044502D01*
X0302511Y0046137D01*
X0303329Y0046954D01*
X0201085Y0030495D02*
X0201085Y0028860D01*
X0200267Y0028043D01*
X0196998Y0028043D01*
X0200267Y0031312D01*
X0196998Y0031312D01*
X0196181Y0030495D01*
X0196181Y0028860D01*
X0196998Y0028043D01*
X0196181Y0026156D02*
X0196181Y0022887D01*
X0199450Y0026156D01*
X0200267Y0026156D01*
X0201085Y0025339D01*
X0201085Y0023704D01*
X0200267Y0022887D01*
X0201085Y0030495D02*
X0200267Y0031312D01*
D11*
X0329210Y0112995D02*
X0330327Y0111877D01*
X0329210Y0112995D02*
X0329210Y0115230D01*
X0330327Y0116348D01*
X0331445Y0116348D01*
X0332563Y0115230D01*
X0332563Y0114112D01*
X0332563Y0115230D02*
X0333680Y0116348D01*
X0334798Y0116348D01*
X0335915Y0115230D01*
X0335915Y0112995D01*
X0334798Y0111877D01*
X0334798Y0118875D02*
X0335915Y0119993D01*
X0335915Y0122228D01*
X0334798Y0123346D01*
X0333680Y0123346D01*
X0329210Y0118875D01*
X0329210Y0123346D01*
D12*
X0158857Y0011565D02*
X0158857Y0010497D01*
X0159924Y0009430D01*
X0162060Y0009430D01*
X0163127Y0010497D01*
X0163127Y0012633D01*
X0159924Y0012633D01*
X0158857Y0011565D01*
X0160992Y0014768D02*
X0163127Y0012633D01*
X0160992Y0014768D02*
X0158857Y0015835D01*
X0167437Y0015835D02*
X0169573Y0013700D01*
X0171748Y0014768D02*
X0176018Y0010497D01*
X0174951Y0009430D01*
X0172815Y0009430D01*
X0171748Y0010497D01*
X0171748Y0014768D01*
X0172815Y0015835D01*
X0174951Y0015835D01*
X0176018Y0014768D01*
X0176018Y0010497D01*
X0178193Y0009430D02*
X0182464Y0009430D01*
X0178193Y0013700D01*
X0178193Y0014768D01*
X0179261Y0015835D01*
X0181396Y0015835D01*
X0182464Y0014768D01*
X0191084Y0013700D02*
X0191084Y0008362D01*
X0192152Y0007295D01*
X0193219Y0007295D01*
X0194287Y0009430D02*
X0191084Y0009430D01*
X0194287Y0009430D02*
X0195355Y0010497D01*
X0195355Y0013700D01*
X0197530Y0012633D02*
X0197530Y0009430D01*
X0199665Y0009430D02*
X0199665Y0012633D01*
X0198597Y0013700D01*
X0197530Y0012633D01*
X0199665Y0012633D02*
X0200732Y0013700D01*
X0201800Y0013700D01*
X0201800Y0009430D01*
X0203975Y0009430D02*
X0203975Y0012633D01*
X0205043Y0013700D01*
X0206110Y0012633D01*
X0206110Y0009430D01*
X0208246Y0009430D02*
X0208246Y0013700D01*
X0207178Y0013700D01*
X0206110Y0012633D01*
X0211475Y0013700D02*
X0211475Y0009430D01*
X0212543Y0009430D02*
X0210407Y0009430D01*
X0215785Y0010497D02*
X0215785Y0015835D01*
X0214718Y0015835D02*
X0216853Y0015835D01*
X0212543Y0013700D02*
X0211475Y0013700D01*
X0211475Y0015835D02*
X0211475Y0016903D01*
X0215785Y0010497D02*
X0216853Y0009430D01*
X0217920Y0009430D01*
X0218988Y0010497D01*
X0169573Y0009430D02*
X0165302Y0009430D01*
X0167437Y0009430D02*
X0167437Y0015835D01*
X0424312Y0015875D02*
X0430718Y0015875D01*
X0424312Y0020146D01*
X0430718Y0020146D01*
X0430718Y0022321D02*
X0424312Y0022321D01*
X0424312Y0025524D01*
X0425380Y0026591D01*
X0429650Y0026591D01*
X0430718Y0025524D01*
X0430718Y0022321D01*
X0429650Y0013700D02*
X0430718Y0012633D01*
X0430718Y0010497D01*
X0429650Y0009430D01*
X0425380Y0009430D01*
X0424312Y0010497D01*
X0424312Y0012633D01*
X0425380Y0013700D01*
X0427515Y0013700D01*
X0427515Y0011565D01*
D13*
X0346882Y0135807D02*
X0342729Y0135807D01*
X0341344Y0137191D01*
X0341344Y0142729D01*
X0342729Y0144114D01*
X0346882Y0144114D01*
X0346882Y0135807D01*
X0337674Y0137191D02*
X0336290Y0135807D01*
X0333521Y0135807D01*
X0332136Y0137191D01*
X0332136Y0138576D01*
X0333521Y0139960D01*
X0336290Y0139960D01*
X0337674Y0141345D01*
X0337674Y0142729D01*
X0336290Y0144114D01*
X0333521Y0144114D01*
X0332136Y0142729D01*
X0328466Y0144114D02*
X0328466Y0137191D01*
X0327082Y0135807D01*
X0324313Y0135807D01*
X0322928Y0137191D01*
X0322928Y0144114D01*
X0319259Y0144114D02*
X0315105Y0144114D01*
X0313720Y0142729D01*
X0313720Y0141345D01*
X0315105Y0139960D01*
X0319259Y0139960D01*
X0315105Y0139960D02*
X0313720Y0138576D01*
X0313720Y0137191D01*
X0315105Y0135807D01*
X0319259Y0135807D01*
X0319259Y0144114D01*
X0300843Y0144114D02*
X0295305Y0144114D01*
X0298074Y0144114D02*
X0298074Y0135807D01*
X0291635Y0137191D02*
X0290250Y0135807D01*
X0287481Y0135807D01*
X0286097Y0137191D01*
X0286097Y0142729D01*
X0287481Y0144114D01*
X0290250Y0144114D01*
X0291635Y0142729D01*
X0291635Y0137191D01*
X0273219Y0135807D02*
X0273219Y0144114D01*
X0267681Y0144114D02*
X0267681Y0135807D01*
X0270450Y0138576D01*
X0273219Y0135807D01*
X0264011Y0135807D02*
X0261242Y0135807D01*
X0262627Y0135807D02*
X0262627Y0144114D01*
X0264011Y0144114D02*
X0261242Y0144114D01*
X0257873Y0144114D02*
X0253719Y0144114D01*
X0252335Y0142729D01*
X0252335Y0139960D01*
X0253719Y0138576D01*
X0257873Y0138576D01*
X0255104Y0138576D02*
X0252335Y0135807D01*
X0248665Y0135807D02*
X0243127Y0135807D01*
X0239457Y0137191D02*
X0238073Y0135807D01*
X0235303Y0135807D01*
X0233919Y0137191D01*
X0233919Y0138576D01*
X0235303Y0139960D01*
X0238073Y0139960D01*
X0239457Y0141345D01*
X0239457Y0142729D01*
X0238073Y0144114D01*
X0235303Y0144114D01*
X0233919Y0142729D01*
X0243127Y0144114D02*
X0248665Y0144114D01*
X0248665Y0135807D01*
X0248665Y0139960D02*
X0245896Y0139960D01*
X0257873Y0135807D02*
X0257873Y0144114D01*
D14*
X0388914Y0014701D02*
X0388914Y0013934D01*
X0388914Y0012399D02*
X0388914Y0009330D01*
X0389681Y0009330D02*
X0388146Y0009330D01*
X0385844Y0010097D02*
X0385077Y0009330D01*
X0385844Y0010097D02*
X0385844Y0013167D01*
X0385077Y0012399D02*
X0386612Y0012399D01*
X0388914Y0012399D02*
X0389681Y0012399D01*
X0391216Y0012399D02*
X0393518Y0012399D01*
X0394285Y0011632D01*
X0394285Y0010097D01*
X0393518Y0009330D01*
X0391216Y0009330D01*
X0391216Y0008563D02*
X0391216Y0012399D01*
X0383542Y0011632D02*
X0382775Y0012399D01*
X0381240Y0012399D01*
X0380473Y0011632D01*
X0380473Y0009330D01*
X0378938Y0010097D02*
X0378938Y0012399D01*
X0378938Y0010097D02*
X0378171Y0009330D01*
X0375869Y0009330D01*
X0375869Y0012399D01*
X0374335Y0012399D02*
X0372033Y0012399D01*
X0371265Y0011632D01*
X0371265Y0010097D01*
X0372033Y0009330D01*
X0374335Y0009330D01*
X0374335Y0013934D01*
X0367429Y0011632D02*
X0367429Y0010097D01*
X0366661Y0009330D01*
X0364359Y0009330D01*
X0362825Y0010097D02*
X0362057Y0009330D01*
X0360523Y0009330D01*
X0359755Y0010097D01*
X0359755Y0011632D01*
X0360523Y0012399D01*
X0362057Y0012399D01*
X0362825Y0011632D01*
X0362825Y0010097D01*
X0364359Y0012399D02*
X0366661Y0012399D01*
X0367429Y0011632D01*
X0368963Y0010097D02*
X0368963Y0009330D01*
X0369731Y0009330D01*
X0369731Y0010097D01*
X0368963Y0010097D01*
X0358221Y0009330D02*
X0358221Y0012399D01*
X0357454Y0012399D01*
X0356686Y0011632D01*
X0355919Y0012399D01*
X0355152Y0011632D01*
X0355152Y0009330D01*
X0356686Y0009330D02*
X0356686Y0011632D01*
X0353617Y0009330D02*
X0350548Y0013934D01*
X0349013Y0013934D02*
X0349013Y0009330D01*
X0345944Y0009330D01*
X0344409Y0009330D02*
X0342874Y0009330D01*
X0343642Y0009330D02*
X0343642Y0013934D01*
X0344409Y0013934D02*
X0342874Y0013934D01*
X0341340Y0013934D02*
X0338271Y0013934D01*
X0339805Y0013934D02*
X0339805Y0009330D01*
X0336736Y0011632D02*
X0333667Y0011632D01*
X0332132Y0012399D02*
X0330597Y0012399D01*
X0331365Y0013167D02*
X0331365Y0010097D01*
X0330597Y0009330D01*
X0329063Y0010097D02*
X0329063Y0011632D01*
X0328295Y0012399D01*
X0326761Y0012399D01*
X0325993Y0011632D01*
X0325993Y0010865D01*
X0329063Y0010865D01*
X0329063Y0010097D02*
X0328295Y0009330D01*
X0326761Y0009330D01*
X0324459Y0010097D02*
X0323691Y0010865D01*
X0321389Y0010865D01*
X0321389Y0011632D02*
X0321389Y0009330D01*
X0323691Y0009330D01*
X0324459Y0010097D01*
X0323691Y0012399D02*
X0322157Y0012399D01*
X0321389Y0011632D01*
X0319855Y0012399D02*
X0319088Y0012399D01*
X0318320Y0011632D01*
X0317553Y0012399D01*
X0316786Y0011632D01*
X0316786Y0009330D01*
X0318320Y0009330D02*
X0318320Y0011632D01*
X0319855Y0012399D02*
X0319855Y0009330D01*
X0315251Y0009330D02*
X0312182Y0013934D01*
X0310647Y0013167D02*
X0310647Y0012399D01*
X0309880Y0011632D01*
X0308345Y0011632D01*
X0307578Y0010865D01*
X0307578Y0010097D01*
X0308345Y0009330D01*
X0309880Y0009330D01*
X0310647Y0010097D01*
X0306043Y0010097D02*
X0306043Y0011632D01*
X0305276Y0012399D01*
X0302974Y0012399D01*
X0301439Y0011632D02*
X0301439Y0010097D01*
X0300672Y0009330D01*
X0299137Y0009330D01*
X0298370Y0010097D01*
X0298370Y0011632D01*
X0299137Y0012399D01*
X0300672Y0012399D01*
X0301439Y0011632D01*
X0302974Y0009330D02*
X0305276Y0009330D01*
X0306043Y0010097D01*
X0307578Y0013167D02*
X0308345Y0013934D01*
X0309880Y0013934D01*
X0310647Y0013167D01*
X0296835Y0012399D02*
X0296835Y0010097D01*
X0296068Y0009330D01*
X0293766Y0009330D01*
X0293766Y0012399D01*
X0292231Y0011632D02*
X0291464Y0012399D01*
X0289162Y0012399D01*
X0289929Y0010865D02*
X0291464Y0010865D01*
X0292231Y0011632D01*
X0292231Y0009330D02*
X0289929Y0009330D01*
X0289162Y0010097D01*
X0289929Y0010865D01*
X0287627Y0010865D02*
X0284558Y0010865D01*
X0284558Y0011632D01*
X0285325Y0012399D01*
X0286860Y0012399D01*
X0287627Y0011632D01*
X0287627Y0010097D01*
X0286860Y0009330D01*
X0285325Y0009330D01*
X0281489Y0009330D02*
X0281489Y0013934D01*
X0283023Y0013934D02*
X0279954Y0013934D01*
X0277652Y0012399D02*
X0278419Y0011632D01*
X0278419Y0010097D01*
X0277652Y0009330D01*
X0276118Y0009330D01*
X0275350Y0010097D01*
X0275350Y0011632D01*
X0276118Y0012399D01*
X0277652Y0012399D01*
X0273816Y0012399D02*
X0273816Y0009330D01*
X0272281Y0009330D02*
X0272281Y0011632D01*
X0271514Y0012399D01*
X0270746Y0011632D01*
X0270746Y0009330D01*
X0272281Y0011632D02*
X0273048Y0012399D01*
X0273816Y0012399D01*
X0345944Y0013934D02*
X0349013Y0013934D01*
X0349013Y0011632D02*
X0347478Y0011632D01*
X0383542Y0013934D02*
X0383542Y0009330D01*
X0391216Y0008563D02*
X0391983Y0007795D01*
X0392750Y0007795D01*
M02*
