%
M48
M72
T01C0.0400
T02C0.0520
T03C0.1300
%
T01
X19649Y9716
X20739Y9716
X21819Y9716
X22909Y9716
X23999Y9716
X25079Y9716
X26169Y9716
X27259Y9716
X28339Y9716
X29429Y9716
X30519Y9716
X31599Y9716
X32689Y9716
X33779Y9716
X34869Y9716
X35949Y9716
X37039Y9716
X38129Y9716
X39209Y9716
X38669Y10716
X37579Y10716
X36499Y10716
X35409Y10716
X34319Y10716
X33239Y10716
X32149Y10716
X31059Y10716
X29969Y10716
X28889Y10716
X27799Y10716
X26709Y10716
X25629Y10716
X24539Y10716
X23449Y10716
X22369Y10716
X21279Y10716
X20189Y10716
T02
X18779Y2685
X21141Y2685
X23504Y2685
X25866Y2685
X28228Y2685
X30590Y2685
X32952Y2685
X35315Y2685
X37677Y2685
X38858Y4259
X36496Y4259
X34134Y4259
X31771Y4259
X29409Y4259
X27047Y4259
X24685Y4259
X22323Y4259
X19960Y4259
X18791Y5819
X21153Y5819
X23515Y5819
X25878Y5819
X28240Y5819
X30602Y5819
X32964Y5819
X35326Y5819
X37689Y5819
X40051Y5819
X38870Y7393
X36508Y7393
X34145Y7393
X31783Y7393
X29421Y7393
X27059Y7393
X24697Y7393
X22334Y7393
X19972Y7393
T03
X16929Y10216
X41929Y10216
M30
