G75*
%MOIN*%
%OFA0B0*%
%FSLAX25Y25*%
%IPPOS*%
%LPD*%
%AMOC8*
5,1,8,0,0,1.08239X$1,22.5*
%
%ADD10C,0.00700*%
%ADD11C,0.00600*%
D10*
X0156440Y0038527D02*
X0157258Y0037710D01*
X0160527Y0037710D01*
X0161344Y0038527D01*
X0161344Y0040162D01*
X0160527Y0040979D01*
X0158892Y0040979D01*
X0158892Y0039345D01*
X0157258Y0040979D02*
X0156440Y0040162D01*
X0156440Y0038527D01*
X0156440Y0042866D02*
X0161344Y0046136D01*
X0156440Y0046136D01*
X0156440Y0048023D02*
X0156440Y0050475D01*
X0157258Y0051292D01*
X0160527Y0051292D01*
X0161344Y0050475D01*
X0161344Y0048023D01*
X0156440Y0048023D01*
X0156440Y0042866D02*
X0161344Y0042866D01*
X0186054Y0045032D02*
X0190959Y0045032D01*
X0190959Y0043397D02*
X0190959Y0046667D01*
X0187689Y0043397D02*
X0186054Y0045032D01*
X0186872Y0041510D02*
X0186054Y0040693D01*
X0186054Y0039058D01*
X0186872Y0038241D01*
X0187689Y0041510D02*
X0190959Y0038241D01*
X0190959Y0041510D01*
X0187689Y0041510D02*
X0186872Y0041510D01*
X0178610Y0031312D02*
X0179427Y0030495D01*
X0179427Y0028860D01*
X0178610Y0028043D01*
X0175340Y0031312D01*
X0178610Y0031312D01*
X0175340Y0031312D02*
X0174523Y0030495D01*
X0174523Y0028860D01*
X0175340Y0028043D01*
X0178610Y0028043D01*
X0179427Y0026156D02*
X0179427Y0022887D01*
X0176158Y0026156D01*
X0175340Y0026156D01*
X0174523Y0025339D01*
X0174523Y0023704D01*
X0175340Y0022887D01*
X0198192Y0023113D02*
X0199009Y0022296D01*
X0198192Y0023113D02*
X0198192Y0024748D01*
X0199009Y0025565D01*
X0199827Y0025565D01*
X0203096Y0022296D01*
X0203096Y0025565D01*
X0203096Y0027452D02*
X0199827Y0030722D01*
X0199009Y0030722D01*
X0198192Y0029904D01*
X0198192Y0028270D01*
X0199009Y0027452D01*
X0203096Y0027452D02*
X0203096Y0030722D01*
X0210754Y0038438D02*
X0209936Y0039255D01*
X0209936Y0040890D01*
X0210754Y0041707D01*
X0211571Y0041707D01*
X0214840Y0038438D01*
X0214840Y0041707D01*
X0214023Y0043594D02*
X0214840Y0044411D01*
X0214840Y0046046D01*
X0214023Y0046864D01*
X0213206Y0046864D01*
X0212388Y0046046D01*
X0212388Y0045229D01*
X0212388Y0046046D02*
X0211571Y0046864D01*
X0210754Y0046864D01*
X0209936Y0046046D01*
X0209936Y0044411D01*
X0210754Y0043594D01*
X0233606Y0043200D02*
X0236058Y0043200D01*
X0235240Y0044835D01*
X0235240Y0045652D01*
X0236058Y0046470D01*
X0237692Y0046470D01*
X0238510Y0045652D01*
X0238510Y0044018D01*
X0237692Y0043200D01*
X0238510Y0041313D02*
X0238510Y0038044D01*
X0235240Y0041313D01*
X0234423Y0041313D01*
X0233606Y0040496D01*
X0233606Y0038861D01*
X0234423Y0038044D01*
X0233606Y0043200D02*
X0233606Y0046470D01*
X0225725Y0055393D02*
X0224090Y0055393D01*
X0223272Y0056210D01*
X0223272Y0057845D02*
X0224907Y0058662D01*
X0225725Y0058662D01*
X0226542Y0057845D01*
X0226542Y0056210D01*
X0225725Y0055393D01*
X0223272Y0057845D02*
X0223272Y0060297D01*
X0226542Y0060297D01*
X0247048Y0060584D02*
X0250317Y0060584D01*
X0250317Y0059767D01*
X0247048Y0056497D01*
X0247048Y0055680D01*
X0257184Y0047060D02*
X0258002Y0047060D01*
X0261271Y0043791D01*
X0262088Y0043791D01*
X0262088Y0041904D02*
X0262088Y0038635D01*
X0258819Y0041904D01*
X0258002Y0041904D01*
X0257184Y0041087D01*
X0257184Y0039452D01*
X0258002Y0038635D01*
X0257184Y0043791D02*
X0257184Y0047060D01*
X0270717Y0056604D02*
X0271535Y0055786D01*
X0273169Y0055786D01*
X0273987Y0056604D01*
X0273987Y0059873D01*
X0273169Y0060690D01*
X0271535Y0060690D01*
X0270717Y0059873D01*
X0270717Y0059056D01*
X0271535Y0058238D01*
X0273987Y0058238D01*
X0292767Y0055777D02*
X0294402Y0054142D01*
X0292767Y0055777D02*
X0297671Y0055777D01*
X0297671Y0054142D02*
X0297671Y0057412D01*
X0297671Y0059299D02*
X0297671Y0062568D01*
X0297671Y0060934D02*
X0292767Y0060934D01*
X0294402Y0059299D01*
X0316149Y0060313D02*
X0316149Y0061948D01*
X0316966Y0062765D01*
X0317784Y0062765D01*
X0318601Y0061948D01*
X0319418Y0062765D01*
X0320236Y0062765D01*
X0321053Y0061948D01*
X0321053Y0060313D01*
X0320236Y0059496D01*
X0321053Y0057609D02*
X0321053Y0054339D01*
X0321053Y0055974D02*
X0316149Y0055974D01*
X0317784Y0054339D01*
X0316966Y0059496D02*
X0316149Y0060313D01*
X0318601Y0061130D02*
X0318601Y0061948D01*
X0309218Y0069890D02*
X0309218Y0073160D01*
X0309218Y0071525D02*
X0304314Y0071525D01*
X0305949Y0069890D01*
X0305132Y0075047D02*
X0304314Y0075864D01*
X0304314Y0077499D01*
X0305132Y0078316D01*
X0305949Y0078316D01*
X0309218Y0075047D01*
X0309218Y0078316D01*
X0328090Y0077499D02*
X0330542Y0075047D01*
X0330542Y0078316D01*
X0332994Y0077499D02*
X0328090Y0077499D01*
X0332994Y0073160D02*
X0332994Y0069890D01*
X0332994Y0071525D02*
X0328090Y0071525D01*
X0329725Y0069890D01*
X0339924Y0062568D02*
X0339924Y0059299D01*
X0342377Y0059299D01*
X0341559Y0060934D01*
X0341559Y0061751D01*
X0342377Y0062568D01*
X0344011Y0062568D01*
X0344829Y0061751D01*
X0344829Y0060116D01*
X0344011Y0059299D01*
X0344829Y0057412D02*
X0344829Y0054142D01*
X0344829Y0055777D02*
X0339924Y0055777D01*
X0341559Y0054142D01*
X0333006Y0046137D02*
X0332188Y0046954D01*
X0331371Y0046954D01*
X0330554Y0046137D01*
X0330554Y0045319D01*
X0330554Y0046137D02*
X0329736Y0046954D01*
X0328919Y0046954D01*
X0328102Y0046137D01*
X0328102Y0044502D01*
X0328919Y0043685D01*
X0328919Y0041798D02*
X0329736Y0041798D01*
X0330554Y0040980D01*
X0331371Y0041798D01*
X0332188Y0041798D01*
X0333006Y0040980D01*
X0333006Y0039346D01*
X0332188Y0038528D01*
X0330554Y0040163D02*
X0330554Y0040980D01*
X0328919Y0041798D02*
X0328102Y0040980D01*
X0328102Y0039346D01*
X0328919Y0038528D01*
X0332188Y0043685D02*
X0333006Y0044502D01*
X0333006Y0046137D01*
X0351680Y0047151D02*
X0351680Y0043881D01*
X0354132Y0043881D01*
X0353315Y0045516D01*
X0353315Y0046334D01*
X0354132Y0047151D01*
X0355767Y0047151D01*
X0356585Y0046334D01*
X0356585Y0044699D01*
X0355767Y0043881D01*
X0355767Y0041995D02*
X0356585Y0041177D01*
X0356585Y0039542D01*
X0355767Y0038725D01*
X0354132Y0040360D02*
X0354132Y0041177D01*
X0354950Y0041995D01*
X0355767Y0041995D01*
X0354132Y0041177D02*
X0353315Y0041995D01*
X0352498Y0041995D01*
X0351680Y0041177D01*
X0351680Y0039542D01*
X0352498Y0038725D01*
X0342298Y0031009D02*
X0342298Y0027740D01*
X0339846Y0030192D01*
X0344750Y0030192D01*
X0343933Y0025853D02*
X0344750Y0025035D01*
X0344750Y0023401D01*
X0343933Y0022583D01*
X0342298Y0024218D02*
X0342298Y0025035D01*
X0343115Y0025853D01*
X0343933Y0025853D01*
X0342298Y0025035D02*
X0341480Y0025853D01*
X0340663Y0025853D01*
X0339846Y0025035D01*
X0339846Y0023401D01*
X0340663Y0022583D01*
X0321195Y0023401D02*
X0320377Y0022583D01*
X0321195Y0023401D02*
X0321195Y0025035D01*
X0320377Y0025853D01*
X0319560Y0025853D01*
X0318743Y0025035D01*
X0318743Y0024218D01*
X0318743Y0025035D02*
X0317925Y0025853D01*
X0317108Y0025853D01*
X0316291Y0025035D01*
X0316291Y0023401D01*
X0317108Y0022583D01*
X0317108Y0027740D02*
X0316291Y0028557D01*
X0316291Y0030192D01*
X0317108Y0031009D01*
X0317925Y0031009D01*
X0321195Y0027740D01*
X0321195Y0031009D01*
X0309321Y0039542D02*
X0308503Y0038725D01*
X0309321Y0039542D02*
X0309321Y0041177D01*
X0308503Y0041995D01*
X0307686Y0041995D01*
X0306869Y0041177D01*
X0306869Y0040360D01*
X0306869Y0041177D02*
X0306051Y0041995D01*
X0305234Y0041995D01*
X0304417Y0041177D01*
X0304417Y0039542D01*
X0305234Y0038725D01*
X0306051Y0043881D02*
X0304417Y0045516D01*
X0309321Y0045516D01*
X0309321Y0043881D02*
X0309321Y0047151D01*
X0285758Y0046137D02*
X0285758Y0044502D01*
X0284940Y0043685D01*
X0283306Y0044502D02*
X0283306Y0046954D01*
X0284940Y0046954D02*
X0281671Y0046954D01*
X0280854Y0046137D01*
X0280854Y0044502D01*
X0281671Y0043685D01*
X0282488Y0043685D01*
X0283306Y0044502D01*
X0282488Y0041798D02*
X0281671Y0041798D01*
X0280854Y0040980D01*
X0280854Y0039346D01*
X0281671Y0038528D01*
X0282488Y0041798D02*
X0285758Y0038528D01*
X0285758Y0041798D01*
X0285758Y0046137D02*
X0284940Y0046954D01*
X0293506Y0031009D02*
X0296775Y0027740D01*
X0297592Y0028557D01*
X0297592Y0030192D01*
X0296775Y0031009D01*
X0293506Y0031009D01*
X0292688Y0030192D01*
X0292688Y0028557D01*
X0293506Y0027740D01*
X0296775Y0027740D01*
X0296775Y0025853D02*
X0295958Y0025853D01*
X0295140Y0025035D01*
X0295140Y0024218D01*
X0295140Y0025035D02*
X0294323Y0025853D01*
X0293506Y0025853D01*
X0292688Y0025035D01*
X0292688Y0023401D01*
X0293506Y0022583D01*
X0296775Y0022583D02*
X0297592Y0023401D01*
X0297592Y0025035D01*
X0296775Y0025853D01*
X0273817Y0025959D02*
X0273817Y0022690D01*
X0270547Y0025959D01*
X0269730Y0025959D01*
X0268913Y0025142D01*
X0268913Y0023507D01*
X0269730Y0022690D01*
X0269730Y0027846D02*
X0270547Y0027846D01*
X0271365Y0028663D01*
X0271365Y0030298D01*
X0272182Y0031116D01*
X0272999Y0031116D01*
X0273817Y0030298D01*
X0273817Y0028663D01*
X0272999Y0027846D01*
X0272182Y0027846D01*
X0271365Y0028663D01*
X0271365Y0030298D02*
X0270547Y0031116D01*
X0269730Y0031116D01*
X0268913Y0030298D01*
X0268913Y0028663D01*
X0269730Y0027846D01*
X0250344Y0028663D02*
X0249527Y0027846D01*
X0247892Y0027846D01*
X0247892Y0030298D01*
X0248710Y0031116D01*
X0249527Y0031116D01*
X0250344Y0030298D01*
X0250344Y0028663D01*
X0247892Y0027846D02*
X0246258Y0029481D01*
X0245440Y0031116D01*
X0246258Y0025959D02*
X0245440Y0025142D01*
X0245440Y0023507D01*
X0246258Y0022690D01*
X0247075Y0025959D02*
X0250344Y0022690D01*
X0250344Y0025959D01*
X0247075Y0025959D02*
X0246258Y0025959D01*
X0226675Y0025762D02*
X0226675Y0022493D01*
X0223406Y0025762D01*
X0222588Y0025762D01*
X0221771Y0024945D01*
X0221771Y0023310D01*
X0222588Y0022493D01*
X0224223Y0027649D02*
X0224223Y0030919D01*
X0226675Y0030101D02*
X0221771Y0030101D01*
X0224223Y0027649D01*
X0201949Y0055786D02*
X0200314Y0055786D01*
X0199497Y0056604D01*
X0201132Y0058238D02*
X0201949Y0058238D01*
X0202766Y0057421D01*
X0202766Y0056604D01*
X0201949Y0055786D01*
X0201949Y0058238D02*
X0202766Y0059056D01*
X0202766Y0059873D01*
X0201949Y0060690D01*
X0200314Y0060690D01*
X0199497Y0059873D01*
X0179491Y0055786D02*
X0176221Y0055786D01*
X0177856Y0055786D02*
X0177856Y0060690D01*
X0176221Y0059056D01*
X0187662Y0071534D02*
X0190932Y0074804D01*
X0190932Y0075621D01*
X0190114Y0076438D01*
X0188480Y0076438D01*
X0187662Y0075621D01*
X0187662Y0071534D02*
X0190932Y0071534D01*
X0211725Y0073593D02*
X0214995Y0073593D01*
X0214177Y0076045D02*
X0211725Y0073593D01*
X0214177Y0071141D02*
X0214177Y0076045D01*
X0235304Y0073986D02*
X0235304Y0072352D01*
X0236121Y0071534D01*
X0237756Y0071534D01*
X0238573Y0072352D01*
X0238573Y0073169D01*
X0237756Y0073986D01*
X0235304Y0073986D01*
X0236939Y0075621D01*
X0238573Y0076438D01*
X0258883Y0075621D02*
X0258883Y0074804D01*
X0259700Y0073986D01*
X0261335Y0073986D01*
X0262152Y0073169D01*
X0262152Y0072352D01*
X0261335Y0071534D01*
X0259700Y0071534D01*
X0258883Y0072352D01*
X0258883Y0073169D01*
X0259700Y0073986D01*
X0261335Y0073986D02*
X0262152Y0074804D01*
X0262152Y0075621D01*
X0261335Y0076438D01*
X0259700Y0076438D01*
X0258883Y0075621D01*
X0280932Y0076258D02*
X0280932Y0077893D01*
X0281750Y0078710D01*
X0285019Y0075441D01*
X0285836Y0076258D01*
X0285836Y0077893D01*
X0285019Y0078710D01*
X0281750Y0078710D01*
X0280932Y0076258D02*
X0281750Y0075441D01*
X0285019Y0075441D01*
X0285836Y0073554D02*
X0285836Y0070284D01*
X0285836Y0071919D02*
X0280932Y0071919D01*
X0282567Y0070284D01*
X0351759Y0071525D02*
X0356663Y0071525D01*
X0356663Y0069890D02*
X0356663Y0073160D01*
X0355846Y0075047D02*
X0356663Y0075864D01*
X0356663Y0077499D01*
X0355846Y0078316D01*
X0355029Y0078316D01*
X0354211Y0077499D01*
X0354211Y0075047D01*
X0355846Y0075047D01*
X0354211Y0075047D02*
X0352576Y0076682D01*
X0351759Y0078316D01*
X0351759Y0071525D02*
X0353394Y0069890D01*
X0363700Y0062962D02*
X0364517Y0062962D01*
X0367787Y0059693D01*
X0368604Y0059693D01*
X0368604Y0057806D02*
X0368604Y0054536D01*
X0368604Y0056171D02*
X0363700Y0056171D01*
X0365335Y0054536D01*
X0363700Y0059693D02*
X0363700Y0062962D01*
X0375141Y0071525D02*
X0376776Y0069890D01*
X0375141Y0071525D02*
X0380045Y0071525D01*
X0380045Y0069890D02*
X0380045Y0073160D01*
X0379228Y0075047D02*
X0378410Y0075047D01*
X0377593Y0075864D01*
X0377593Y0077499D01*
X0378410Y0078316D01*
X0379228Y0078316D01*
X0380045Y0077499D01*
X0380045Y0075864D01*
X0379228Y0075047D01*
X0377593Y0075864D02*
X0376776Y0075047D01*
X0375958Y0075047D01*
X0375141Y0075864D01*
X0375141Y0077499D01*
X0375958Y0078316D01*
X0376776Y0078316D01*
X0377593Y0077499D01*
X0388080Y0062962D02*
X0387263Y0062145D01*
X0387263Y0060510D01*
X0388080Y0059693D01*
X0388898Y0059693D01*
X0389715Y0060510D01*
X0389715Y0062962D01*
X0391350Y0062962D02*
X0388080Y0062962D01*
X0391350Y0062962D02*
X0392167Y0062145D01*
X0392167Y0060510D01*
X0391350Y0059693D01*
X0392167Y0057806D02*
X0392167Y0054536D01*
X0392167Y0056171D02*
X0387263Y0056171D01*
X0388898Y0054536D01*
X0379346Y0043881D02*
X0376076Y0047151D01*
X0375259Y0047151D01*
X0375259Y0043881D01*
X0376076Y0041995D02*
X0376894Y0041995D01*
X0377711Y0041177D01*
X0378529Y0041995D01*
X0379346Y0041995D01*
X0380163Y0041177D01*
X0380163Y0039542D01*
X0379346Y0038725D01*
X0377711Y0040360D02*
X0377711Y0041177D01*
X0376076Y0041995D02*
X0375259Y0041177D01*
X0375259Y0039542D01*
X0376076Y0038725D01*
X0379346Y0043881D02*
X0380163Y0043881D01*
X0367586Y0031206D02*
X0366769Y0031206D01*
X0365951Y0030389D01*
X0365951Y0027937D01*
X0367586Y0027937D01*
X0368403Y0028754D01*
X0368403Y0030389D01*
X0367586Y0031206D01*
X0364317Y0029571D02*
X0365951Y0027937D01*
X0365134Y0026050D02*
X0365951Y0025232D01*
X0366769Y0026050D01*
X0367586Y0026050D01*
X0368403Y0025232D01*
X0368403Y0023598D01*
X0367586Y0022780D01*
X0365951Y0024415D02*
X0365951Y0025232D01*
X0365134Y0026050D02*
X0364317Y0026050D01*
X0363499Y0025232D01*
X0363499Y0023598D01*
X0364317Y0022780D01*
X0364317Y0029571D02*
X0363499Y0031206D01*
D11*
X0425181Y0025524D02*
X0425181Y0022321D01*
X0431586Y0022321D01*
X0431586Y0025524D01*
X0430519Y0026591D01*
X0426249Y0026591D01*
X0425181Y0025524D01*
X0425181Y0020146D02*
X0431586Y0020146D01*
X0425181Y0015875D01*
X0431586Y0015875D01*
X0430519Y0013700D02*
X0428384Y0013700D01*
X0428384Y0011565D01*
X0426249Y0009430D02*
X0430519Y0009430D01*
X0431586Y0010497D01*
X0431586Y0012633D01*
X0430519Y0013700D01*
X0426249Y0013700D02*
X0425181Y0012633D01*
X0425181Y0010497D01*
X0426249Y0009430D01*
M02*
