G75*
%MOIN*%
%OFA0B0*%
%FSLAX25Y25*%
%IPPOS*%
%LPD*%
%AMOC8*
5,1,8,0,0,1.08239X$1,22.5*
%
%ADD10C,0.01600*%
%ADD11OC8,0.06984*%
%ADD12C,0.20984*%
%ADD13OC8,0.15984*%
D10*
X0397733Y0005941D02*
X0420233Y0005941D01*
X0420233Y0025567D01*
X0420136Y0026799D01*
X0419848Y0028000D01*
X0419375Y0029142D01*
X0418729Y0030195D01*
X0417927Y0031135D01*
X0416987Y0031937D01*
X0415934Y0032583D01*
X0414792Y0033056D01*
X0413591Y0033344D01*
X0412359Y0033441D01*
X0405607Y0033441D01*
X0404375Y0033344D01*
X0403174Y0033056D01*
X0402032Y0032583D01*
X0400979Y0031937D01*
X0400039Y0031135D01*
X0399237Y0030195D01*
X0398591Y0029142D01*
X0398118Y0028000D01*
X0397830Y0026799D01*
X0397733Y0025567D01*
X0397733Y0005941D01*
X0398264Y0005941D02*
X0420764Y0005941D01*
X0420764Y0025567D01*
X0420667Y0026799D01*
X0420379Y0028000D01*
X0419906Y0029142D01*
X0419261Y0030195D01*
X0418458Y0031135D01*
X0417519Y0031937D01*
X0416465Y0032583D01*
X0415324Y0033056D01*
X0414122Y0033344D01*
X0412890Y0033441D01*
X0406138Y0033441D01*
X0404907Y0033344D01*
X0403705Y0033056D01*
X0402564Y0032583D01*
X0401510Y0031937D01*
X0400571Y0031135D01*
X0399768Y0030195D01*
X0399123Y0029142D01*
X0398650Y0028000D01*
X0398361Y0026799D01*
X0398264Y0025567D01*
X0398264Y0005941D01*
X0398264Y0006529D02*
X0420764Y0006529D01*
X0420233Y0006529D02*
X0397733Y0006529D01*
X0397733Y0008128D02*
X0420233Y0008128D01*
X0420764Y0008128D02*
X0398264Y0008128D01*
X0398264Y0009726D02*
X0420764Y0009726D01*
X0420233Y0009726D02*
X0397733Y0009726D01*
X0397733Y0011325D02*
X0420233Y0011325D01*
X0420764Y0011325D02*
X0398264Y0011325D01*
X0398264Y0012923D02*
X0420764Y0012923D01*
X0420233Y0012923D02*
X0397733Y0012923D01*
X0397733Y0014522D02*
X0420233Y0014522D01*
X0420764Y0014522D02*
X0398264Y0014522D01*
X0398264Y0016120D02*
X0420764Y0016120D01*
X0420233Y0016120D02*
X0397733Y0016120D01*
X0397733Y0017719D02*
X0420233Y0017719D01*
X0420764Y0017719D02*
X0398264Y0017719D01*
X0398264Y0019317D02*
X0420764Y0019317D01*
X0420233Y0019317D02*
X0397733Y0019317D01*
X0397733Y0020916D02*
X0420233Y0020916D01*
X0420764Y0020916D02*
X0398264Y0020916D01*
X0398264Y0022514D02*
X0420764Y0022514D01*
X0420233Y0022514D02*
X0397733Y0022514D01*
X0397733Y0024113D02*
X0420233Y0024113D01*
X0420764Y0024113D02*
X0398264Y0024113D01*
X0398276Y0025711D02*
X0420753Y0025711D01*
X0420222Y0025711D02*
X0397744Y0025711D01*
X0397953Y0027310D02*
X0420013Y0027310D01*
X0420545Y0027310D02*
X0398484Y0027310D01*
X0398495Y0028908D02*
X0419471Y0028908D01*
X0420003Y0028908D02*
X0399026Y0028908D01*
X0399503Y0030507D02*
X0418463Y0030507D01*
X0418994Y0030507D02*
X0400034Y0030507D01*
X0401253Y0032105D02*
X0416713Y0032105D01*
X0417244Y0032105D02*
X0401785Y0032105D01*
D11*
X0392088Y0097161D03*
X0381288Y0097161D03*
X0370388Y0097161D03*
X0359488Y0097161D03*
X0348688Y0097161D03*
X0337788Y0097161D03*
X0326888Y0097161D03*
X0315988Y0097161D03*
X0305188Y0097161D03*
X0294288Y0097161D03*
X0283388Y0097161D03*
X0272588Y0097161D03*
X0261688Y0097161D03*
X0250788Y0097161D03*
X0239988Y0097161D03*
X0229088Y0097161D03*
X0218188Y0097161D03*
X0207388Y0097161D03*
X0196488Y0097161D03*
X0201888Y0107161D03*
X0212788Y0107161D03*
X0223688Y0107161D03*
X0234488Y0107161D03*
X0245388Y0107161D03*
X0256288Y0107161D03*
X0267088Y0107161D03*
X0277988Y0107161D03*
X0288888Y0107161D03*
X0299688Y0107161D03*
X0310588Y0107161D03*
X0321488Y0107161D03*
X0332388Y0107161D03*
X0343188Y0107161D03*
X0354088Y0107161D03*
X0364988Y0107161D03*
X0375788Y0107161D03*
X0386688Y0107161D03*
D12*
X0419288Y0102161D03*
X0169288Y0102161D03*
D13*
X0170075Y0044563D03*
X0199603Y0042594D03*
X0223225Y0042594D03*
X0246847Y0042594D03*
X0270469Y0042594D03*
X0294091Y0042594D03*
X0317713Y0042594D03*
X0341335Y0042594D03*
X0364957Y0042594D03*
X0388579Y0042594D03*
X0376768Y0026846D03*
X0353146Y0026846D03*
X0329524Y0026846D03*
X0305902Y0026846D03*
X0282280Y0026846D03*
X0258658Y0026846D03*
X0235036Y0026846D03*
X0211414Y0026846D03*
X0187792Y0026846D03*
X0187910Y0058185D03*
X0211532Y0058185D03*
X0235154Y0058185D03*
X0258776Y0058185D03*
X0282398Y0058185D03*
X0306020Y0058185D03*
X0329642Y0058185D03*
X0353264Y0058185D03*
X0376886Y0058185D03*
X0400509Y0058185D03*
X0388698Y0073933D03*
X0365075Y0073933D03*
X0341453Y0073933D03*
X0317831Y0073933D03*
X0294209Y0073933D03*
X0270587Y0073933D03*
X0246965Y0073933D03*
X0223343Y0073933D03*
X0199721Y0073933D03*
M02*
