G75*
%MOIN*%
%OFA0B0*%
%FSLAX25Y25*%
%IPPOS*%
%LPD*%
%AMOC8*
5,1,8,0,0,1.08239X$1,22.5*
%
%ADD10OC8,0.06000*%
%ADD11C,0.20000*%
%ADD12OC8,0.15000*%
%ADD13C,0.01600*%
D10*
X0196488Y0097161D03*
X0207388Y0097161D03*
X0218188Y0097161D03*
X0229088Y0097161D03*
X0239988Y0097161D03*
X0250788Y0097161D03*
X0261688Y0097161D03*
X0272588Y0097161D03*
X0283388Y0097161D03*
X0294288Y0097161D03*
X0305188Y0097161D03*
X0315988Y0097161D03*
X0326888Y0097161D03*
X0337788Y0097161D03*
X0348688Y0097161D03*
X0359488Y0097161D03*
X0370388Y0097161D03*
X0381288Y0097161D03*
X0392088Y0097161D03*
X0386688Y0107161D03*
X0375788Y0107161D03*
X0364988Y0107161D03*
X0354088Y0107161D03*
X0343188Y0107161D03*
X0332388Y0107161D03*
X0321488Y0107161D03*
X0310588Y0107161D03*
X0299688Y0107161D03*
X0288888Y0107161D03*
X0277988Y0107161D03*
X0267088Y0107161D03*
X0256288Y0107161D03*
X0245388Y0107161D03*
X0234488Y0107161D03*
X0223688Y0107161D03*
X0212788Y0107161D03*
X0201888Y0107161D03*
D11*
X0169288Y0102161D03*
X0419288Y0102161D03*
D12*
X0388698Y0073933D03*
X0365075Y0073933D03*
X0341453Y0073933D03*
X0317831Y0073933D03*
X0294209Y0073933D03*
X0270587Y0073933D03*
X0246965Y0073933D03*
X0223343Y0073933D03*
X0199721Y0073933D03*
X0187910Y0058185D03*
X0211532Y0058185D03*
X0235154Y0058185D03*
X0258776Y0058185D03*
X0282398Y0058185D03*
X0306020Y0058185D03*
X0329642Y0058185D03*
X0353264Y0058185D03*
X0376886Y0058185D03*
X0400509Y0058185D03*
X0388579Y0042594D03*
X0364957Y0042594D03*
X0341335Y0042594D03*
X0317713Y0042594D03*
X0294091Y0042594D03*
X0270469Y0042594D03*
X0246847Y0042594D03*
X0223225Y0042594D03*
X0199603Y0042594D03*
X0187792Y0026846D03*
X0211414Y0026846D03*
X0235036Y0026846D03*
X0258658Y0026846D03*
X0282280Y0026846D03*
X0305902Y0026846D03*
X0329524Y0026846D03*
X0353146Y0026846D03*
X0376768Y0026846D03*
D13*
X0156127Y0006993D02*
X0156127Y0147094D01*
X0432055Y0147094D01*
X0432055Y0006993D01*
X0156127Y0006993D01*
X0156127Y0008128D02*
X0432055Y0008128D01*
X0432055Y0009726D02*
X0156127Y0009726D01*
X0156127Y0011325D02*
X0432055Y0011325D01*
X0432055Y0012923D02*
X0156127Y0012923D01*
X0156127Y0014522D02*
X0432055Y0014522D01*
X0432055Y0016120D02*
X0156127Y0016120D01*
X0156127Y0017719D02*
X0432055Y0017719D01*
X0432055Y0019317D02*
X0382091Y0019317D01*
X0380532Y0017759D02*
X0385856Y0023082D01*
X0385856Y0030611D01*
X0380532Y0035934D01*
X0379156Y0035934D01*
X0379156Y0043574D01*
X0379492Y0043910D01*
X0379492Y0038830D01*
X0384815Y0033507D01*
X0392344Y0033507D01*
X0397667Y0038830D01*
X0397667Y0046359D01*
X0392935Y0051090D01*
X0392935Y0052907D01*
X0396744Y0049098D01*
X0404273Y0049098D01*
X0409596Y0054421D01*
X0409596Y0061949D01*
X0404273Y0067272D01*
X0398917Y0067272D01*
X0400809Y0069165D01*
X0400809Y0079016D01*
X0399411Y0080415D01*
X0389075Y0090750D01*
X0389075Y0093686D01*
X0390188Y0092574D01*
X0393988Y0092574D01*
X0396675Y0095261D01*
X0396675Y0099062D01*
X0393988Y0101749D01*
X0390188Y0101749D01*
X0389075Y0100636D01*
X0389075Y0103061D01*
X0391275Y0105261D01*
X0391275Y0109062D01*
X0388588Y0111749D01*
X0384788Y0111749D01*
X0382101Y0109062D01*
X0382101Y0105261D01*
X0384301Y0103061D01*
X0384301Y0100636D01*
X0383188Y0101749D01*
X0379388Y0101749D01*
X0378175Y0100536D01*
X0378175Y0103061D01*
X0380375Y0105261D01*
X0380375Y0109062D01*
X0377688Y0111749D01*
X0373888Y0111749D01*
X0371201Y0109062D01*
X0371201Y0105261D01*
X0373401Y0103061D01*
X0373401Y0100636D01*
X0372288Y0101749D01*
X0368488Y0101749D01*
X0367375Y0100636D01*
X0367375Y0103061D01*
X0369575Y0105261D01*
X0369575Y0109062D01*
X0366888Y0111749D01*
X0363088Y0111749D01*
X0360401Y0109062D01*
X0360401Y0105261D01*
X0362601Y0103061D01*
X0362601Y0100536D01*
X0361388Y0101749D01*
X0357588Y0101749D01*
X0356475Y0100636D01*
X0356475Y0103061D01*
X0358675Y0105261D01*
X0358675Y0109062D01*
X0355988Y0111749D01*
X0352188Y0111749D01*
X0349501Y0109062D01*
X0349501Y0105261D01*
X0351701Y0103061D01*
X0351701Y0100636D01*
X0350588Y0101749D01*
X0346788Y0101749D01*
X0345575Y0100536D01*
X0345575Y0103061D01*
X0347775Y0105261D01*
X0347775Y0109062D01*
X0345088Y0111749D01*
X0341288Y0111749D01*
X0338601Y0109062D01*
X0338601Y0105261D01*
X0340801Y0103061D01*
X0340801Y0100636D01*
X0339688Y0101749D01*
X0335888Y0101749D01*
X0334775Y0100636D01*
X0334775Y0103061D01*
X0336975Y0105261D01*
X0336975Y0109062D01*
X0334288Y0111749D01*
X0330488Y0111749D01*
X0327801Y0109062D01*
X0327801Y0105261D01*
X0330001Y0103061D01*
X0330001Y0100536D01*
X0328788Y0101749D01*
X0324988Y0101749D01*
X0323875Y0100636D01*
X0323875Y0103061D01*
X0326075Y0105261D01*
X0326075Y0109062D01*
X0323388Y0111749D01*
X0319588Y0111749D01*
X0316901Y0109062D01*
X0316901Y0105261D01*
X0319101Y0103061D01*
X0319101Y0100536D01*
X0317888Y0101749D01*
X0314088Y0101749D01*
X0312975Y0100636D01*
X0312975Y0103061D01*
X0315175Y0105261D01*
X0315175Y0109062D01*
X0312488Y0111749D01*
X0308688Y0111749D01*
X0306001Y0109062D01*
X0306001Y0105261D01*
X0308201Y0103061D01*
X0308201Y0100636D01*
X0307088Y0101749D01*
X0303288Y0101749D01*
X0302075Y0100536D01*
X0302075Y0103061D01*
X0304275Y0105261D01*
X0304275Y0109062D01*
X0301588Y0111749D01*
X0297788Y0111749D01*
X0295101Y0109062D01*
X0295101Y0105261D01*
X0297301Y0103061D01*
X0297301Y0100636D01*
X0296188Y0101749D01*
X0292388Y0101749D01*
X0291275Y0100636D01*
X0291275Y0103061D01*
X0293475Y0105261D01*
X0293475Y0109062D01*
X0290788Y0111749D01*
X0286988Y0111749D01*
X0284301Y0109062D01*
X0284301Y0105261D01*
X0286501Y0103061D01*
X0286501Y0100536D01*
X0285288Y0101749D01*
X0281488Y0101749D01*
X0280375Y0100636D01*
X0280375Y0103061D01*
X0282575Y0105261D01*
X0282575Y0109062D01*
X0279888Y0111749D01*
X0276088Y0111749D01*
X0273401Y0109062D01*
X0273401Y0105261D01*
X0275601Y0103061D01*
X0275601Y0100636D01*
X0274488Y0101749D01*
X0270688Y0101749D01*
X0269475Y0100536D01*
X0269475Y0103061D01*
X0271675Y0105261D01*
X0271675Y0109062D01*
X0268988Y0111749D01*
X0265188Y0111749D01*
X0262501Y0109062D01*
X0262501Y0105261D01*
X0264701Y0103061D01*
X0264701Y0100636D01*
X0263588Y0101749D01*
X0259788Y0101749D01*
X0258675Y0100636D01*
X0258675Y0103061D01*
X0260875Y0105261D01*
X0260875Y0109062D01*
X0258188Y0111749D01*
X0254388Y0111749D01*
X0251701Y0109062D01*
X0251701Y0105261D01*
X0253901Y0103061D01*
X0253901Y0100536D01*
X0252688Y0101749D01*
X0248888Y0101749D01*
X0247775Y0100636D01*
X0247775Y0103061D01*
X0249975Y0105261D01*
X0249975Y0109062D01*
X0247288Y0111749D01*
X0243488Y0111749D01*
X0240801Y0109062D01*
X0240801Y0105261D01*
X0243001Y0103061D01*
X0243001Y0100636D01*
X0241888Y0101749D01*
X0238088Y0101749D01*
X0236875Y0100536D01*
X0236875Y0103061D01*
X0239075Y0105261D01*
X0239075Y0109062D01*
X0236388Y0111749D01*
X0232588Y0111749D01*
X0229901Y0109062D01*
X0229901Y0105261D01*
X0232101Y0103061D01*
X0232101Y0100636D01*
X0230988Y0101749D01*
X0227188Y0101749D01*
X0226075Y0100636D01*
X0226075Y0103061D01*
X0228275Y0105261D01*
X0228275Y0109062D01*
X0225588Y0111749D01*
X0221788Y0111749D01*
X0219101Y0109062D01*
X0219101Y0105261D01*
X0221301Y0103061D01*
X0221301Y0100536D01*
X0220088Y0101749D01*
X0216288Y0101749D01*
X0215175Y0100636D01*
X0215175Y0103061D01*
X0217375Y0105261D01*
X0217375Y0109062D01*
X0214688Y0111749D01*
X0210888Y0111749D01*
X0208201Y0109062D01*
X0208201Y0105261D01*
X0210401Y0103061D01*
X0210401Y0100636D01*
X0209288Y0101749D01*
X0205488Y0101749D01*
X0204275Y0100536D01*
X0204275Y0103061D01*
X0206475Y0105261D01*
X0206475Y0109062D01*
X0203788Y0111749D01*
X0199988Y0111749D01*
X0197301Y0109062D01*
X0197301Y0105261D01*
X0199501Y0103061D01*
X0199501Y0100636D01*
X0198388Y0101749D01*
X0194588Y0101749D01*
X0191901Y0099062D01*
X0191901Y0095261D01*
X0194588Y0092574D01*
X0198388Y0092574D01*
X0199501Y0093686D01*
X0199501Y0091144D01*
X0192709Y0084352D01*
X0188772Y0080415D01*
X0187373Y0079016D01*
X0187373Y0069165D01*
X0189265Y0067272D01*
X0184146Y0067272D01*
X0178823Y0061949D01*
X0178823Y0054421D01*
X0184146Y0049098D01*
X0188950Y0049098D01*
X0186803Y0046950D01*
X0185405Y0045552D01*
X0185405Y0035934D01*
X0184028Y0035934D01*
X0178705Y0030611D01*
X0178705Y0023082D01*
X0184028Y0017759D01*
X0191556Y0017759D01*
X0196879Y0023082D01*
X0196879Y0030611D01*
X0191556Y0035934D01*
X0190179Y0035934D01*
X0190179Y0043574D01*
X0190516Y0043910D01*
X0190516Y0038830D01*
X0195839Y0033507D01*
X0203367Y0033507D01*
X0208690Y0038830D01*
X0208690Y0046359D01*
X0203780Y0051269D01*
X0203959Y0051448D01*
X0203959Y0052907D01*
X0207768Y0049098D01*
X0212572Y0049098D01*
X0209027Y0045552D01*
X0209027Y0035934D01*
X0207650Y0035934D01*
X0202327Y0030611D01*
X0202327Y0023082D01*
X0207650Y0017759D01*
X0215178Y0017759D01*
X0220501Y0023082D01*
X0220501Y0030611D01*
X0215178Y0035934D01*
X0213801Y0035934D01*
X0213801Y0043574D01*
X0214138Y0043910D01*
X0214138Y0038830D01*
X0219461Y0033507D01*
X0226989Y0033507D01*
X0232312Y0038830D01*
X0232312Y0046359D01*
X0227581Y0051090D01*
X0227581Y0052907D01*
X0231390Y0049098D01*
X0236194Y0049098D01*
X0234047Y0046950D01*
X0232649Y0045552D01*
X0232649Y0035934D01*
X0231272Y0035934D01*
X0225949Y0030611D01*
X0225949Y0023082D01*
X0231272Y0017759D01*
X0238800Y0017759D01*
X0244123Y0023082D01*
X0244123Y0030611D01*
X0238800Y0035934D01*
X0237423Y0035934D01*
X0237423Y0043574D01*
X0237760Y0043910D01*
X0237760Y0038830D01*
X0243083Y0033507D01*
X0250611Y0033507D01*
X0255934Y0038830D01*
X0255934Y0046359D01*
X0251203Y0051090D01*
X0251203Y0052907D01*
X0255012Y0049098D01*
X0259816Y0049098D01*
X0257669Y0046950D01*
X0256271Y0045552D01*
X0256271Y0035934D01*
X0254894Y0035934D01*
X0249571Y0030611D01*
X0249571Y0023082D01*
X0254894Y0017759D01*
X0262422Y0017759D01*
X0267746Y0023082D01*
X0267746Y0030611D01*
X0262422Y0035934D01*
X0261046Y0035934D01*
X0261046Y0043574D01*
X0261382Y0043910D01*
X0261382Y0038830D01*
X0266705Y0033507D01*
X0274233Y0033507D01*
X0279557Y0038830D01*
X0279557Y0046359D01*
X0274825Y0051090D01*
X0274825Y0052907D01*
X0278634Y0049098D01*
X0283439Y0049098D01*
X0281291Y0046950D01*
X0279893Y0045552D01*
X0279893Y0035934D01*
X0278516Y0035934D01*
X0273193Y0030611D01*
X0273193Y0023082D01*
X0278516Y0017759D01*
X0286044Y0017759D01*
X0291368Y0023082D01*
X0291368Y0030611D01*
X0286044Y0035934D01*
X0284668Y0035934D01*
X0284668Y0043574D01*
X0285004Y0043910D01*
X0285004Y0038830D01*
X0290327Y0033507D01*
X0297855Y0033507D01*
X0303179Y0038830D01*
X0303179Y0046359D01*
X0298447Y0051090D01*
X0298447Y0052907D01*
X0302256Y0049098D01*
X0307061Y0049098D01*
X0304913Y0046950D01*
X0303515Y0045552D01*
X0303515Y0035934D01*
X0302138Y0035934D01*
X0296815Y0030611D01*
X0296815Y0023082D01*
X0302138Y0017759D01*
X0309666Y0017759D01*
X0314990Y0023082D01*
X0314990Y0030611D01*
X0309666Y0035934D01*
X0308290Y0035934D01*
X0308290Y0043574D01*
X0308626Y0043910D01*
X0308626Y0038830D01*
X0313949Y0033507D01*
X0321477Y0033507D01*
X0326801Y0038830D01*
X0326801Y0046359D01*
X0322069Y0051090D01*
X0322069Y0052907D01*
X0325878Y0049098D01*
X0330683Y0049098D01*
X0328535Y0046950D01*
X0327137Y0045552D01*
X0327137Y0035934D01*
X0325760Y0035934D01*
X0320437Y0030611D01*
X0320437Y0023082D01*
X0325760Y0017759D01*
X0333288Y0017759D01*
X0338612Y0023082D01*
X0338612Y0030611D01*
X0333288Y0035934D01*
X0331912Y0035934D01*
X0331912Y0043574D01*
X0332248Y0043910D01*
X0332248Y0038830D01*
X0337571Y0033507D01*
X0345099Y0033507D01*
X0350423Y0038830D01*
X0350423Y0046359D01*
X0345691Y0051090D01*
X0345691Y0052907D01*
X0349500Y0049098D01*
X0354305Y0049098D01*
X0352157Y0046950D01*
X0350759Y0045552D01*
X0350759Y0035934D01*
X0349382Y0035934D01*
X0344059Y0030611D01*
X0344059Y0023082D01*
X0349382Y0017759D01*
X0356910Y0017759D01*
X0362234Y0023082D01*
X0362234Y0030611D01*
X0356910Y0035934D01*
X0355534Y0035934D01*
X0355534Y0043574D01*
X0355870Y0043910D01*
X0355870Y0038830D01*
X0361193Y0033507D01*
X0368721Y0033507D01*
X0374045Y0038830D01*
X0374045Y0046359D01*
X0369313Y0051090D01*
X0369313Y0052907D01*
X0373122Y0049098D01*
X0377927Y0049098D01*
X0375779Y0046950D01*
X0374381Y0045552D01*
X0374381Y0035934D01*
X0373004Y0035934D01*
X0367681Y0030611D01*
X0367681Y0023082D01*
X0373004Y0017759D01*
X0380532Y0017759D01*
X0383689Y0020916D02*
X0432055Y0020916D01*
X0432055Y0022514D02*
X0385288Y0022514D01*
X0385856Y0024113D02*
X0432055Y0024113D01*
X0432055Y0025711D02*
X0385856Y0025711D01*
X0385856Y0027310D02*
X0432055Y0027310D01*
X0432055Y0028908D02*
X0385856Y0028908D01*
X0385856Y0030507D02*
X0432055Y0030507D01*
X0432055Y0032105D02*
X0384361Y0032105D01*
X0384618Y0033704D02*
X0382762Y0033704D01*
X0383020Y0035302D02*
X0381164Y0035302D01*
X0381421Y0036901D02*
X0379156Y0036901D01*
X0379156Y0038499D02*
X0379823Y0038499D01*
X0379492Y0040098D02*
X0379156Y0040098D01*
X0379156Y0041696D02*
X0379492Y0041696D01*
X0379492Y0043295D02*
X0379156Y0043295D01*
X0376768Y0044563D02*
X0376768Y0026846D01*
X0367681Y0027310D02*
X0362234Y0027310D01*
X0362234Y0028908D02*
X0367681Y0028908D01*
X0367681Y0030507D02*
X0362234Y0030507D01*
X0360739Y0032105D02*
X0369176Y0032105D01*
X0368918Y0033704D02*
X0370774Y0033704D01*
X0370517Y0035302D02*
X0372373Y0035302D01*
X0372115Y0036901D02*
X0374381Y0036901D01*
X0374381Y0038499D02*
X0373714Y0038499D01*
X0374045Y0040098D02*
X0374381Y0040098D01*
X0374381Y0041696D02*
X0374045Y0041696D01*
X0374045Y0043295D02*
X0374381Y0043295D01*
X0374381Y0044893D02*
X0374045Y0044893D01*
X0373911Y0046492D02*
X0375321Y0046492D01*
X0376920Y0048090D02*
X0372313Y0048090D01*
X0372531Y0049689D02*
X0370714Y0049689D01*
X0370932Y0051287D02*
X0369313Y0051287D01*
X0369313Y0052886D02*
X0369334Y0052886D01*
X0364538Y0052579D02*
X0364538Y0051682D01*
X0363641Y0051682D01*
X0364538Y0052579D01*
X0362989Y0054406D02*
X0353146Y0044563D01*
X0353146Y0026846D01*
X0362234Y0025711D02*
X0367681Y0025711D01*
X0367681Y0024113D02*
X0362234Y0024113D01*
X0361666Y0022514D02*
X0368249Y0022514D01*
X0369848Y0020916D02*
X0360067Y0020916D01*
X0358469Y0019317D02*
X0371446Y0019317D01*
X0347824Y0019317D02*
X0334847Y0019317D01*
X0336445Y0020916D02*
X0346225Y0020916D01*
X0344627Y0022514D02*
X0338044Y0022514D01*
X0338612Y0024113D02*
X0344059Y0024113D01*
X0344059Y0025711D02*
X0338612Y0025711D01*
X0338612Y0027310D02*
X0344059Y0027310D01*
X0344059Y0028908D02*
X0338612Y0028908D01*
X0338612Y0030507D02*
X0344059Y0030507D01*
X0345554Y0032105D02*
X0337117Y0032105D01*
X0337374Y0033704D02*
X0335518Y0033704D01*
X0335776Y0035302D02*
X0333920Y0035302D01*
X0334177Y0036901D02*
X0331912Y0036901D01*
X0331912Y0038499D02*
X0332579Y0038499D01*
X0332248Y0040098D02*
X0331912Y0040098D01*
X0331912Y0041696D02*
X0332248Y0041696D01*
X0332248Y0043295D02*
X0331912Y0043295D01*
X0329524Y0044563D02*
X0329524Y0026846D01*
X0320437Y0027310D02*
X0314990Y0027310D01*
X0314990Y0028908D02*
X0320437Y0028908D01*
X0320437Y0030507D02*
X0314990Y0030507D01*
X0313495Y0032105D02*
X0321932Y0032105D01*
X0321674Y0033704D02*
X0323530Y0033704D01*
X0323273Y0035302D02*
X0325129Y0035302D01*
X0324871Y0036901D02*
X0327137Y0036901D01*
X0327137Y0038499D02*
X0326470Y0038499D01*
X0326801Y0040098D02*
X0327137Y0040098D01*
X0327137Y0041696D02*
X0326801Y0041696D01*
X0326801Y0043295D02*
X0327137Y0043295D01*
X0327137Y0044893D02*
X0326801Y0044893D01*
X0326667Y0046492D02*
X0328077Y0046492D01*
X0329675Y0048090D02*
X0325069Y0048090D01*
X0325287Y0049689D02*
X0323470Y0049689D01*
X0323688Y0051287D02*
X0322069Y0051287D01*
X0322069Y0052886D02*
X0322090Y0052886D01*
X0317294Y0052579D02*
X0317294Y0051682D01*
X0316397Y0051682D01*
X0317294Y0052579D01*
X0315745Y0054406D02*
X0305902Y0044563D01*
X0305902Y0026846D01*
X0296815Y0027310D02*
X0291368Y0027310D01*
X0291368Y0028908D02*
X0296815Y0028908D01*
X0296815Y0030507D02*
X0291368Y0030507D01*
X0289873Y0032105D02*
X0298310Y0032105D01*
X0298052Y0033704D02*
X0299908Y0033704D01*
X0299651Y0035302D02*
X0301507Y0035302D01*
X0301249Y0036901D02*
X0303515Y0036901D01*
X0303515Y0038499D02*
X0302848Y0038499D01*
X0303179Y0040098D02*
X0303515Y0040098D01*
X0303515Y0041696D02*
X0303179Y0041696D01*
X0303179Y0043295D02*
X0303515Y0043295D01*
X0303515Y0044893D02*
X0303179Y0044893D01*
X0303045Y0046492D02*
X0304455Y0046492D01*
X0306053Y0048090D02*
X0301447Y0048090D01*
X0301665Y0049689D02*
X0299848Y0049689D01*
X0300066Y0051287D02*
X0298447Y0051287D01*
X0298447Y0052886D02*
X0298468Y0052886D01*
X0293672Y0052579D02*
X0293672Y0051682D01*
X0292775Y0051682D01*
X0293672Y0052579D01*
X0292123Y0054406D02*
X0282280Y0044563D01*
X0282280Y0026846D01*
X0273193Y0027310D02*
X0267746Y0027310D01*
X0267746Y0028908D02*
X0273193Y0028908D01*
X0273193Y0030507D02*
X0267746Y0030507D01*
X0266251Y0032105D02*
X0274688Y0032105D01*
X0274430Y0033704D02*
X0276286Y0033704D01*
X0276029Y0035302D02*
X0277885Y0035302D01*
X0277627Y0036901D02*
X0279893Y0036901D01*
X0279893Y0038499D02*
X0279226Y0038499D01*
X0279557Y0040098D02*
X0279893Y0040098D01*
X0279893Y0041696D02*
X0279557Y0041696D01*
X0279557Y0043295D02*
X0279893Y0043295D01*
X0279893Y0044893D02*
X0279557Y0044893D01*
X0279423Y0046492D02*
X0280833Y0046492D01*
X0282431Y0048090D02*
X0277825Y0048090D01*
X0278043Y0049689D02*
X0276226Y0049689D01*
X0276444Y0051287D02*
X0274825Y0051287D01*
X0274825Y0052886D02*
X0274846Y0052886D01*
X0270050Y0052579D02*
X0270050Y0051682D01*
X0269153Y0051682D01*
X0270050Y0052579D01*
X0268501Y0054406D02*
X0258658Y0044563D01*
X0258658Y0026846D01*
X0249571Y0027310D02*
X0244123Y0027310D01*
X0244123Y0028908D02*
X0249571Y0028908D01*
X0249571Y0030507D02*
X0244123Y0030507D01*
X0242629Y0032105D02*
X0251066Y0032105D01*
X0250808Y0033704D02*
X0252664Y0033704D01*
X0252407Y0035302D02*
X0254263Y0035302D01*
X0254005Y0036901D02*
X0256271Y0036901D01*
X0256271Y0038499D02*
X0255604Y0038499D01*
X0255934Y0040098D02*
X0256271Y0040098D01*
X0256271Y0041696D02*
X0255934Y0041696D01*
X0255934Y0043295D02*
X0256271Y0043295D01*
X0256271Y0044893D02*
X0255934Y0044893D01*
X0255801Y0046492D02*
X0257211Y0046492D01*
X0258809Y0048090D02*
X0254203Y0048090D01*
X0254421Y0049689D02*
X0252604Y0049689D01*
X0252822Y0051287D02*
X0251203Y0051287D01*
X0251203Y0052886D02*
X0251224Y0052886D01*
X0246428Y0052579D02*
X0246428Y0051682D01*
X0245531Y0051682D01*
X0246428Y0052579D01*
X0244879Y0054406D02*
X0235036Y0044563D01*
X0235036Y0026846D01*
X0225949Y0027310D02*
X0220501Y0027310D01*
X0220501Y0028908D02*
X0225949Y0028908D01*
X0225949Y0030507D02*
X0220501Y0030507D01*
X0219007Y0032105D02*
X0227443Y0032105D01*
X0227186Y0033704D02*
X0229042Y0033704D01*
X0228784Y0035302D02*
X0230641Y0035302D01*
X0230383Y0036901D02*
X0232649Y0036901D01*
X0232649Y0038499D02*
X0231981Y0038499D01*
X0232312Y0040098D02*
X0232649Y0040098D01*
X0232649Y0041696D02*
X0232312Y0041696D01*
X0232312Y0043295D02*
X0232649Y0043295D01*
X0232649Y0044893D02*
X0232312Y0044893D01*
X0232179Y0046492D02*
X0233589Y0046492D01*
X0235187Y0048090D02*
X0230581Y0048090D01*
X0230799Y0049689D02*
X0228982Y0049689D01*
X0229200Y0051287D02*
X0227581Y0051287D01*
X0227581Y0052886D02*
X0227602Y0052886D01*
X0222806Y0052579D02*
X0222806Y0051682D01*
X0221909Y0051682D01*
X0222245Y0052018D01*
X0222806Y0052579D01*
X0221257Y0054406D02*
X0221257Y0062280D01*
X0213383Y0070154D01*
X0213383Y0078028D01*
X0223688Y0088333D01*
X0223688Y0107161D01*
X0220472Y0110432D02*
X0216005Y0110432D01*
X0217375Y0108834D02*
X0219101Y0108834D01*
X0219101Y0107235D02*
X0217375Y0107235D01*
X0217375Y0105637D02*
X0219101Y0105637D01*
X0220324Y0104038D02*
X0216153Y0104038D01*
X0215175Y0102440D02*
X0221301Y0102440D01*
X0221301Y0100841D02*
X0220996Y0100841D01*
X0226075Y0100841D02*
X0226280Y0100841D01*
X0226075Y0102440D02*
X0232101Y0102440D01*
X0232101Y0100841D02*
X0231896Y0100841D01*
X0236875Y0100841D02*
X0237180Y0100841D01*
X0236875Y0102440D02*
X0243001Y0102440D01*
X0243001Y0100841D02*
X0242796Y0100841D01*
X0247775Y0100841D02*
X0247980Y0100841D01*
X0247775Y0102440D02*
X0253901Y0102440D01*
X0253901Y0100841D02*
X0253596Y0100841D01*
X0258675Y0100841D02*
X0258880Y0100841D01*
X0258675Y0102440D02*
X0264701Y0102440D01*
X0264701Y0100841D02*
X0264496Y0100841D01*
X0269475Y0100841D02*
X0269780Y0100841D01*
X0269475Y0102440D02*
X0275601Y0102440D01*
X0275601Y0100841D02*
X0275396Y0100841D01*
X0280375Y0100841D02*
X0280580Y0100841D01*
X0280375Y0102440D02*
X0286501Y0102440D01*
X0286501Y0100841D02*
X0286196Y0100841D01*
X0291275Y0100841D02*
X0291480Y0100841D01*
X0291275Y0102440D02*
X0297301Y0102440D01*
X0297301Y0100841D02*
X0297096Y0100841D01*
X0302075Y0100841D02*
X0302380Y0100841D01*
X0302075Y0102440D02*
X0308201Y0102440D01*
X0308201Y0100841D02*
X0307996Y0100841D01*
X0312975Y0100841D02*
X0313180Y0100841D01*
X0312975Y0102440D02*
X0319101Y0102440D01*
X0319101Y0100841D02*
X0318796Y0100841D01*
X0323875Y0100841D02*
X0324080Y0100841D01*
X0323875Y0102440D02*
X0330001Y0102440D01*
X0330001Y0100841D02*
X0329696Y0100841D01*
X0334775Y0100841D02*
X0334980Y0100841D01*
X0334775Y0102440D02*
X0340801Y0102440D01*
X0340801Y0100841D02*
X0340596Y0100841D01*
X0345575Y0100841D02*
X0345880Y0100841D01*
X0345575Y0102440D02*
X0351701Y0102440D01*
X0351701Y0100841D02*
X0351496Y0100841D01*
X0356475Y0100841D02*
X0356680Y0100841D01*
X0356475Y0102440D02*
X0362601Y0102440D01*
X0362601Y0100841D02*
X0362296Y0100841D01*
X0367375Y0100841D02*
X0367580Y0100841D01*
X0367375Y0102440D02*
X0373401Y0102440D01*
X0373401Y0100841D02*
X0373196Y0100841D01*
X0378175Y0100841D02*
X0378480Y0100841D01*
X0378175Y0102440D02*
X0384301Y0102440D01*
X0384301Y0100841D02*
X0384096Y0100841D01*
X0389075Y0100841D02*
X0389280Y0100841D01*
X0389075Y0102440D02*
X0407701Y0102440D01*
X0407701Y0103687D02*
X0407701Y0100636D01*
X0408490Y0097689D01*
X0410016Y0095047D01*
X0412173Y0092889D01*
X0414815Y0091364D01*
X0417763Y0090574D01*
X0420814Y0090574D01*
X0423761Y0091364D01*
X0426403Y0092889D01*
X0428560Y0095047D01*
X0430086Y0097689D01*
X0430875Y0100636D01*
X0430875Y0103687D01*
X0430086Y0106634D01*
X0428560Y0109276D01*
X0426403Y0111434D01*
X0423761Y0112959D01*
X0420814Y0113749D01*
X0417763Y0113749D01*
X0414815Y0112959D01*
X0412173Y0111434D01*
X0410016Y0109276D01*
X0408490Y0106634D01*
X0407701Y0103687D01*
X0407795Y0104038D02*
X0390053Y0104038D01*
X0391275Y0105637D02*
X0408223Y0105637D01*
X0408838Y0107235D02*
X0391275Y0107235D01*
X0391275Y0108834D02*
X0409760Y0108834D01*
X0411172Y0110432D02*
X0389905Y0110432D01*
X0386688Y0107161D02*
X0386688Y0089761D01*
X0398422Y0078028D01*
X0398422Y0070154D01*
X0390548Y0062280D01*
X0390548Y0044563D01*
X0388579Y0042594D01*
X0397667Y0043295D02*
X0432055Y0043295D01*
X0432055Y0044893D02*
X0397667Y0044893D01*
X0397533Y0046492D02*
X0432055Y0046492D01*
X0432055Y0048090D02*
X0395935Y0048090D01*
X0396153Y0049689D02*
X0394336Y0049689D01*
X0394555Y0051287D02*
X0392935Y0051287D01*
X0392935Y0052886D02*
X0392956Y0052886D01*
X0388160Y0052579D02*
X0388160Y0051682D01*
X0387264Y0051682D01*
X0388160Y0052579D01*
X0386611Y0054406D02*
X0376768Y0044563D01*
X0366926Y0044563D02*
X0364957Y0042594D01*
X0366926Y0044563D02*
X0366926Y0062280D01*
X0374800Y0070154D01*
X0374800Y0079996D01*
X0364988Y0089808D01*
X0364988Y0107161D01*
X0361772Y0110432D02*
X0357305Y0110432D01*
X0358675Y0108834D02*
X0360401Y0108834D01*
X0360401Y0107235D02*
X0358675Y0107235D01*
X0358675Y0105637D02*
X0360401Y0105637D01*
X0361624Y0104038D02*
X0357453Y0104038D01*
X0354088Y0107161D02*
X0354088Y0086928D01*
X0355115Y0085902D01*
X0355115Y0070154D01*
X0362989Y0062280D01*
X0362989Y0054406D01*
X0348909Y0049689D02*
X0347092Y0049689D01*
X0347310Y0051287D02*
X0345691Y0051287D01*
X0345691Y0052886D02*
X0345712Y0052886D01*
X0340916Y0052579D02*
X0340916Y0051682D01*
X0340019Y0051682D01*
X0340916Y0052579D01*
X0339367Y0054406D02*
X0329524Y0044563D01*
X0319682Y0044563D02*
X0317713Y0042594D01*
X0319682Y0044563D02*
X0319682Y0062280D01*
X0327556Y0070154D01*
X0327556Y0079996D01*
X0321488Y0086064D01*
X0321488Y0107161D01*
X0318272Y0110432D02*
X0313805Y0110432D01*
X0315175Y0108834D02*
X0316901Y0108834D01*
X0316901Y0107235D02*
X0315175Y0107235D01*
X0315175Y0105637D02*
X0316901Y0105637D01*
X0318124Y0104038D02*
X0313953Y0104038D01*
X0310588Y0107161D02*
X0310588Y0082713D01*
X0307871Y0079996D01*
X0307871Y0070154D01*
X0315745Y0062280D01*
X0315745Y0054406D01*
X0317713Y0063687D02*
X0316734Y0064667D01*
X0316555Y0064846D01*
X0318872Y0064846D01*
X0318693Y0064667D01*
X0317713Y0063687D01*
X0317325Y0064076D02*
X0318102Y0064076D01*
X0328051Y0067272D02*
X0330998Y0067272D01*
X0329524Y0068746D01*
X0328051Y0067272D01*
X0328051Y0067273D02*
X0330997Y0067273D01*
X0331493Y0070154D02*
X0339367Y0062280D01*
X0339367Y0054406D01*
X0343304Y0062280D02*
X0343304Y0044563D01*
X0341335Y0042594D01*
X0350423Y0043295D02*
X0350759Y0043295D01*
X0350759Y0044893D02*
X0350423Y0044893D01*
X0350289Y0046492D02*
X0351699Y0046492D01*
X0353298Y0048090D02*
X0348691Y0048090D01*
X0355534Y0043295D02*
X0355870Y0043295D01*
X0355870Y0041696D02*
X0355534Y0041696D01*
X0355534Y0040098D02*
X0355870Y0040098D01*
X0356201Y0038499D02*
X0355534Y0038499D01*
X0355534Y0036901D02*
X0357799Y0036901D01*
X0357542Y0035302D02*
X0359398Y0035302D01*
X0359140Y0033704D02*
X0360996Y0033704D01*
X0350759Y0036901D02*
X0348493Y0036901D01*
X0348751Y0035302D02*
X0346895Y0035302D01*
X0347152Y0033704D02*
X0345296Y0033704D01*
X0350092Y0038499D02*
X0350759Y0038499D01*
X0350759Y0040098D02*
X0350423Y0040098D01*
X0350423Y0041696D02*
X0350759Y0041696D01*
X0313752Y0033704D02*
X0311896Y0033704D01*
X0312154Y0035302D02*
X0310298Y0035302D01*
X0310555Y0036901D02*
X0308290Y0036901D01*
X0308290Y0038499D02*
X0308957Y0038499D01*
X0308626Y0040098D02*
X0308290Y0040098D01*
X0308290Y0041696D02*
X0308626Y0041696D01*
X0308626Y0043295D02*
X0308290Y0043295D01*
X0296060Y0044563D02*
X0294091Y0042594D01*
X0296060Y0044563D02*
X0296060Y0062280D01*
X0303934Y0070154D01*
X0303934Y0079996D01*
X0299688Y0084242D01*
X0299688Y0107161D01*
X0296472Y0110432D02*
X0292105Y0110432D01*
X0293475Y0108834D02*
X0295101Y0108834D01*
X0295101Y0107235D02*
X0293475Y0107235D01*
X0293475Y0105637D02*
X0295101Y0105637D01*
X0296324Y0104038D02*
X0292253Y0104038D01*
X0288888Y0107161D02*
X0288888Y0084635D01*
X0284249Y0079996D01*
X0284249Y0070154D01*
X0292123Y0062280D01*
X0292123Y0054406D01*
X0294091Y0063687D02*
X0293112Y0064667D01*
X0292933Y0064846D01*
X0295250Y0064846D01*
X0295071Y0064667D01*
X0294091Y0063687D01*
X0293703Y0064076D02*
X0294479Y0064076D01*
X0304429Y0067272D02*
X0307376Y0067272D01*
X0305902Y0068746D01*
X0304429Y0067272D01*
X0304429Y0067273D02*
X0307375Y0067273D01*
X0283754Y0067272D02*
X0280807Y0067272D01*
X0282280Y0068746D01*
X0283754Y0067272D01*
X0283753Y0067273D02*
X0280807Y0067273D01*
X0280312Y0070154D02*
X0272438Y0062280D01*
X0272438Y0044563D01*
X0270469Y0042594D01*
X0261713Y0038499D02*
X0261046Y0038499D01*
X0261046Y0036901D02*
X0263311Y0036901D01*
X0263054Y0035302D02*
X0264910Y0035302D01*
X0264652Y0033704D02*
X0266508Y0033704D01*
X0267746Y0025711D02*
X0273193Y0025711D01*
X0273193Y0024113D02*
X0267746Y0024113D01*
X0267177Y0022514D02*
X0273761Y0022514D01*
X0275359Y0020916D02*
X0265579Y0020916D01*
X0263980Y0019317D02*
X0276958Y0019317D01*
X0287603Y0019317D02*
X0300580Y0019317D01*
X0298981Y0020916D02*
X0289201Y0020916D01*
X0290800Y0022514D02*
X0297383Y0022514D01*
X0296815Y0024113D02*
X0291368Y0024113D01*
X0291368Y0025711D02*
X0296815Y0025711D01*
X0312823Y0020916D02*
X0322603Y0020916D01*
X0321005Y0022514D02*
X0314422Y0022514D01*
X0314990Y0024113D02*
X0320437Y0024113D01*
X0320437Y0025711D02*
X0314990Y0025711D01*
X0311225Y0019317D02*
X0324202Y0019317D01*
X0290130Y0033704D02*
X0288274Y0033704D01*
X0288532Y0035302D02*
X0286676Y0035302D01*
X0286933Y0036901D02*
X0284668Y0036901D01*
X0284668Y0038499D02*
X0285335Y0038499D01*
X0285004Y0040098D02*
X0284668Y0040098D01*
X0284668Y0041696D02*
X0285004Y0041696D01*
X0285004Y0043295D02*
X0284668Y0043295D01*
X0268501Y0054406D02*
X0268501Y0062280D01*
X0260627Y0070154D01*
X0260627Y0079996D01*
X0267088Y0086457D01*
X0267088Y0107161D01*
X0263872Y0110432D02*
X0259505Y0110432D01*
X0260875Y0108834D02*
X0262501Y0108834D01*
X0262501Y0107235D02*
X0260875Y0107235D01*
X0260875Y0105637D02*
X0262501Y0105637D01*
X0263724Y0104038D02*
X0259653Y0104038D01*
X0252924Y0104038D02*
X0248753Y0104038D01*
X0249975Y0105637D02*
X0251701Y0105637D01*
X0251701Y0107235D02*
X0249975Y0107235D01*
X0249975Y0108834D02*
X0251701Y0108834D01*
X0253072Y0110432D02*
X0248605Y0110432D01*
X0245388Y0107161D02*
X0245388Y0088380D01*
X0237005Y0079996D01*
X0237005Y0070154D01*
X0244879Y0062280D01*
X0244879Y0054406D01*
X0248816Y0062280D02*
X0248816Y0044563D01*
X0246847Y0042594D01*
X0237760Y0043295D02*
X0237423Y0043295D01*
X0237423Y0041696D02*
X0237760Y0041696D01*
X0237760Y0040098D02*
X0237423Y0040098D01*
X0237423Y0038499D02*
X0238091Y0038499D01*
X0237423Y0036901D02*
X0239689Y0036901D01*
X0239432Y0035302D02*
X0241288Y0035302D01*
X0241030Y0033704D02*
X0242886Y0033704D01*
X0244123Y0025711D02*
X0249571Y0025711D01*
X0249571Y0024113D02*
X0244123Y0024113D01*
X0243555Y0022514D02*
X0250139Y0022514D01*
X0251737Y0020916D02*
X0241957Y0020916D01*
X0240358Y0019317D02*
X0253336Y0019317D01*
X0229714Y0019317D02*
X0216736Y0019317D01*
X0218335Y0020916D02*
X0228115Y0020916D01*
X0226517Y0022514D02*
X0219933Y0022514D01*
X0220501Y0024113D02*
X0225949Y0024113D01*
X0225949Y0025711D02*
X0220501Y0025711D01*
X0211414Y0026846D02*
X0211414Y0044563D01*
X0221257Y0054406D01*
X0207177Y0049689D02*
X0205360Y0049689D01*
X0205578Y0051287D02*
X0203798Y0051287D01*
X0203959Y0052886D02*
X0203980Y0052886D01*
X0201572Y0052437D02*
X0201572Y0062280D01*
X0209446Y0070154D01*
X0209446Y0079996D01*
X0212788Y0083339D01*
X0212788Y0107161D01*
X0209572Y0110432D02*
X0205105Y0110432D01*
X0206475Y0108834D02*
X0208201Y0108834D01*
X0208201Y0107235D02*
X0206475Y0107235D01*
X0206475Y0105637D02*
X0208201Y0105637D01*
X0209424Y0104038D02*
X0205253Y0104038D01*
X0204275Y0102440D02*
X0210401Y0102440D01*
X0210401Y0100841D02*
X0210196Y0100841D01*
X0215175Y0100841D02*
X0215380Y0100841D01*
X0204580Y0100841D02*
X0204275Y0100841D01*
X0199501Y0100841D02*
X0199296Y0100841D01*
X0199501Y0102440D02*
X0180875Y0102440D01*
X0180875Y0103687D02*
X0180875Y0100636D01*
X0180086Y0097689D01*
X0178560Y0095047D01*
X0176403Y0092889D01*
X0173761Y0091364D01*
X0170814Y0090574D01*
X0167763Y0090574D01*
X0164815Y0091364D01*
X0162173Y0092889D01*
X0160016Y0095047D01*
X0158490Y0097689D01*
X0157701Y0100636D01*
X0157701Y0103687D01*
X0158490Y0106634D01*
X0160016Y0109276D01*
X0162173Y0111434D01*
X0164815Y0112959D01*
X0167763Y0113749D01*
X0170814Y0113749D01*
X0173761Y0112959D01*
X0176403Y0111434D01*
X0178560Y0109276D01*
X0180086Y0106634D01*
X0180875Y0103687D01*
X0180781Y0104038D02*
X0198524Y0104038D01*
X0197301Y0105637D02*
X0180353Y0105637D01*
X0179739Y0107235D02*
X0197301Y0107235D01*
X0197301Y0108834D02*
X0178816Y0108834D01*
X0177404Y0110432D02*
X0198672Y0110432D01*
X0201888Y0107161D02*
X0201888Y0090155D01*
X0193698Y0081965D01*
X0189760Y0078028D01*
X0189760Y0070154D01*
X0197635Y0062280D01*
X0197635Y0054406D01*
X0187792Y0044563D01*
X0187792Y0026846D01*
X0196879Y0027310D02*
X0202327Y0027310D01*
X0202327Y0028908D02*
X0196879Y0028908D01*
X0196879Y0030507D02*
X0202327Y0030507D01*
X0203821Y0032105D02*
X0195385Y0032105D01*
X0195642Y0033704D02*
X0193786Y0033704D01*
X0194044Y0035302D02*
X0192188Y0035302D01*
X0192445Y0036901D02*
X0190179Y0036901D01*
X0190179Y0038499D02*
X0190847Y0038499D01*
X0190516Y0040098D02*
X0190179Y0040098D01*
X0190179Y0041696D02*
X0190516Y0041696D01*
X0190516Y0043295D02*
X0190179Y0043295D01*
X0185405Y0043295D02*
X0156127Y0043295D01*
X0156127Y0044893D02*
X0185405Y0044893D01*
X0186345Y0046492D02*
X0156127Y0046492D01*
X0156127Y0048090D02*
X0187943Y0048090D01*
X0183555Y0049689D02*
X0156127Y0049689D01*
X0156127Y0051287D02*
X0181956Y0051287D01*
X0180358Y0052886D02*
X0156127Y0052886D01*
X0156127Y0054485D02*
X0178823Y0054485D01*
X0178823Y0056083D02*
X0156127Y0056083D01*
X0156127Y0057682D02*
X0178823Y0057682D01*
X0178823Y0059280D02*
X0156127Y0059280D01*
X0156127Y0060879D02*
X0178823Y0060879D01*
X0179351Y0062477D02*
X0156127Y0062477D01*
X0156127Y0064076D02*
X0180949Y0064076D01*
X0182548Y0065674D02*
X0156127Y0065674D01*
X0156127Y0067273D02*
X0189265Y0067273D01*
X0187667Y0068871D02*
X0156127Y0068871D01*
X0156127Y0070470D02*
X0187373Y0070470D01*
X0187373Y0072068D02*
X0156127Y0072068D01*
X0156127Y0073667D02*
X0187373Y0073667D01*
X0187373Y0075265D02*
X0156127Y0075265D01*
X0156127Y0076864D02*
X0187373Y0076864D01*
X0187373Y0078462D02*
X0156127Y0078462D01*
X0156127Y0080061D02*
X0188417Y0080061D01*
X0190016Y0081659D02*
X0156127Y0081659D01*
X0156127Y0083258D02*
X0191614Y0083258D01*
X0193213Y0084856D02*
X0156127Y0084856D01*
X0156127Y0086455D02*
X0194811Y0086455D01*
X0196410Y0088053D02*
X0156127Y0088053D01*
X0156127Y0089652D02*
X0198008Y0089652D01*
X0199501Y0091250D02*
X0173337Y0091250D01*
X0176333Y0092849D02*
X0194313Y0092849D01*
X0192715Y0094447D02*
X0177961Y0094447D01*
X0179137Y0096046D02*
X0191901Y0096046D01*
X0191901Y0097644D02*
X0180060Y0097644D01*
X0180502Y0099243D02*
X0192082Y0099243D01*
X0193680Y0100841D02*
X0180875Y0100841D01*
X0198663Y0092849D02*
X0199501Y0092849D01*
X0204275Y0092849D02*
X0205213Y0092849D01*
X0205488Y0092574D02*
X0209288Y0092574D01*
X0210401Y0093686D01*
X0210401Y0084327D01*
X0208457Y0082383D01*
X0207058Y0080985D01*
X0207058Y0079448D01*
X0203485Y0083020D01*
X0198130Y0083020D01*
X0202877Y0087768D01*
X0204275Y0089166D01*
X0204275Y0093786D01*
X0205488Y0092574D01*
X0204275Y0091250D02*
X0210401Y0091250D01*
X0210401Y0089652D02*
X0204275Y0089652D01*
X0203162Y0088053D02*
X0210401Y0088053D01*
X0210401Y0086455D02*
X0201564Y0086455D01*
X0202877Y0087768D02*
X0202877Y0087768D01*
X0199965Y0084856D02*
X0210401Y0084856D01*
X0209331Y0083258D02*
X0198367Y0083258D01*
X0204846Y0081659D02*
X0207732Y0081659D01*
X0207058Y0080061D02*
X0206445Y0080061D01*
X0215175Y0083197D02*
X0221301Y0089322D01*
X0221301Y0093786D01*
X0220088Y0092574D01*
X0216288Y0092574D01*
X0215175Y0093686D01*
X0215175Y0083197D01*
X0215175Y0083258D02*
X0215236Y0083258D01*
X0215175Y0084856D02*
X0216835Y0084856D01*
X0218433Y0086455D02*
X0215175Y0086455D01*
X0215175Y0088053D02*
X0220032Y0088053D01*
X0221301Y0089652D02*
X0215175Y0089652D01*
X0215175Y0091250D02*
X0221301Y0091250D01*
X0221301Y0092849D02*
X0220363Y0092849D01*
X0216013Y0092849D02*
X0215175Y0092849D01*
X0210401Y0092849D02*
X0209563Y0092849D01*
X0226075Y0092849D02*
X0226913Y0092849D01*
X0227188Y0092574D02*
X0230988Y0092574D01*
X0232101Y0093686D01*
X0232101Y0088311D01*
X0232079Y0088289D01*
X0230680Y0086890D01*
X0230680Y0079448D01*
X0227107Y0083020D01*
X0221752Y0083020D01*
X0224677Y0085946D01*
X0226075Y0087344D01*
X0226075Y0093686D01*
X0227188Y0092574D01*
X0226075Y0091250D02*
X0232101Y0091250D01*
X0232101Y0089652D02*
X0226075Y0089652D01*
X0226075Y0088053D02*
X0231843Y0088053D01*
X0230680Y0086455D02*
X0225186Y0086455D01*
X0223587Y0084856D02*
X0230680Y0084856D01*
X0230680Y0083258D02*
X0221989Y0083258D01*
X0228469Y0081659D02*
X0230680Y0081659D01*
X0230680Y0080061D02*
X0230067Y0080061D01*
X0235455Y0081823D02*
X0243001Y0089368D01*
X0243001Y0093686D01*
X0241888Y0092574D01*
X0238088Y0092574D01*
X0236875Y0093786D01*
X0236875Y0086333D01*
X0235477Y0084935D01*
X0235455Y0084913D01*
X0235455Y0081823D01*
X0235455Y0083258D02*
X0236890Y0083258D01*
X0235455Y0084856D02*
X0238488Y0084856D01*
X0240087Y0086455D02*
X0236875Y0086455D01*
X0236875Y0088053D02*
X0241686Y0088053D01*
X0243001Y0089652D02*
X0236875Y0089652D01*
X0236875Y0091250D02*
X0243001Y0091250D01*
X0243001Y0092849D02*
X0242163Y0092849D01*
X0237813Y0092849D02*
X0236875Y0092849D01*
X0232101Y0092849D02*
X0231263Y0092849D01*
X0243405Y0083020D02*
X0247775Y0087391D01*
X0247775Y0093686D01*
X0248888Y0092574D01*
X0252688Y0092574D01*
X0253901Y0093786D01*
X0253901Y0079849D01*
X0250729Y0083020D01*
X0243405Y0083020D01*
X0243643Y0083258D02*
X0253901Y0083258D01*
X0253901Y0084856D02*
X0245241Y0084856D01*
X0246840Y0086455D02*
X0253901Y0086455D01*
X0253901Y0088053D02*
X0247775Y0088053D01*
X0247775Y0089652D02*
X0253901Y0089652D01*
X0253901Y0091250D02*
X0247775Y0091250D01*
X0247775Y0092849D02*
X0248613Y0092849D01*
X0252963Y0092849D02*
X0253901Y0092849D01*
X0258675Y0092849D02*
X0259513Y0092849D01*
X0259788Y0092574D02*
X0258675Y0093686D01*
X0258675Y0081421D01*
X0259638Y0082383D01*
X0264701Y0087446D01*
X0264701Y0093686D01*
X0263588Y0092574D01*
X0259788Y0092574D01*
X0258675Y0091250D02*
X0264701Y0091250D01*
X0264701Y0089652D02*
X0258675Y0089652D01*
X0258675Y0088053D02*
X0264701Y0088053D01*
X0263709Y0086455D02*
X0258675Y0086455D01*
X0258675Y0084856D02*
X0262111Y0084856D01*
X0260512Y0083258D02*
X0258675Y0083258D01*
X0258675Y0081659D02*
X0258914Y0081659D01*
X0253901Y0081659D02*
X0252091Y0081659D01*
X0253689Y0080061D02*
X0253901Y0080061D01*
X0267027Y0083020D02*
X0268077Y0084070D01*
X0269475Y0085469D01*
X0269475Y0093786D01*
X0270688Y0092574D01*
X0274488Y0092574D01*
X0275601Y0093686D01*
X0275601Y0081771D01*
X0274351Y0083020D01*
X0267027Y0083020D01*
X0267265Y0083258D02*
X0275601Y0083258D01*
X0275601Y0084856D02*
X0268863Y0084856D01*
X0268077Y0084070D02*
X0268077Y0084070D01*
X0269475Y0086455D02*
X0275601Y0086455D01*
X0275601Y0088053D02*
X0269475Y0088053D01*
X0269475Y0089652D02*
X0275601Y0089652D01*
X0275601Y0091250D02*
X0269475Y0091250D01*
X0269475Y0092849D02*
X0270413Y0092849D01*
X0274763Y0092849D02*
X0275601Y0092849D01*
X0280375Y0092849D02*
X0281213Y0092849D01*
X0281488Y0092574D02*
X0280375Y0093686D01*
X0280375Y0083309D01*
X0281301Y0082383D01*
X0282280Y0081404D01*
X0283260Y0082383D01*
X0286501Y0085624D01*
X0286501Y0093786D01*
X0285288Y0092574D01*
X0281488Y0092574D01*
X0280375Y0091250D02*
X0286501Y0091250D01*
X0286501Y0089652D02*
X0280375Y0089652D01*
X0280375Y0088053D02*
X0286501Y0088053D01*
X0286501Y0086455D02*
X0280375Y0086455D01*
X0280375Y0084856D02*
X0285733Y0084856D01*
X0284134Y0083258D02*
X0280426Y0083258D01*
X0282025Y0081659D02*
X0282536Y0081659D01*
X0280312Y0079996D02*
X0277988Y0082320D01*
X0277988Y0107161D01*
X0274772Y0110432D02*
X0270305Y0110432D01*
X0271675Y0108834D02*
X0273401Y0108834D01*
X0273401Y0107235D02*
X0271675Y0107235D01*
X0271675Y0105637D02*
X0273401Y0105637D01*
X0274624Y0104038D02*
X0270453Y0104038D01*
X0281353Y0104038D02*
X0285524Y0104038D01*
X0284301Y0105637D02*
X0282575Y0105637D01*
X0282575Y0107235D02*
X0284301Y0107235D01*
X0284301Y0108834D02*
X0282575Y0108834D01*
X0281205Y0110432D02*
X0285672Y0110432D01*
X0302905Y0110432D02*
X0307372Y0110432D01*
X0306001Y0108834D02*
X0304275Y0108834D01*
X0304275Y0107235D02*
X0306001Y0107235D01*
X0306001Y0105637D02*
X0304275Y0105637D01*
X0303053Y0104038D02*
X0307224Y0104038D01*
X0324853Y0104038D02*
X0329024Y0104038D01*
X0327801Y0105637D02*
X0326075Y0105637D01*
X0326075Y0107235D02*
X0327801Y0107235D01*
X0327801Y0108834D02*
X0326075Y0108834D01*
X0324705Y0110432D02*
X0329172Y0110432D01*
X0332388Y0107161D02*
X0332388Y0080891D01*
X0331493Y0079996D01*
X0331493Y0070154D01*
X0340177Y0064846D02*
X0342494Y0064846D01*
X0342315Y0064667D01*
X0341335Y0063687D01*
X0340356Y0064667D01*
X0340177Y0064846D01*
X0340947Y0064076D02*
X0341724Y0064076D01*
X0343304Y0062280D02*
X0351178Y0070154D01*
X0351178Y0081965D01*
X0343188Y0089954D01*
X0343188Y0107161D01*
X0339972Y0110432D02*
X0335605Y0110432D01*
X0336975Y0108834D02*
X0338601Y0108834D01*
X0338601Y0107235D02*
X0336975Y0107235D01*
X0336975Y0105637D02*
X0338601Y0105637D01*
X0339824Y0104038D02*
X0335753Y0104038D01*
X0346553Y0104038D02*
X0350724Y0104038D01*
X0349501Y0105637D02*
X0347775Y0105637D01*
X0347775Y0107235D02*
X0349501Y0107235D01*
X0349501Y0108834D02*
X0347775Y0108834D01*
X0346405Y0110432D02*
X0350872Y0110432D01*
X0368205Y0110432D02*
X0372572Y0110432D01*
X0371201Y0108834D02*
X0369575Y0108834D01*
X0369575Y0107235D02*
X0371201Y0107235D01*
X0371201Y0105637D02*
X0369575Y0105637D01*
X0368353Y0104038D02*
X0372424Y0104038D01*
X0375788Y0107161D02*
X0375788Y0084913D01*
X0378737Y0081965D01*
X0378737Y0070154D01*
X0386611Y0062280D01*
X0386611Y0054406D01*
X0404864Y0049689D02*
X0432055Y0049689D01*
X0432055Y0051287D02*
X0406462Y0051287D01*
X0408061Y0052886D02*
X0432055Y0052886D01*
X0432055Y0054485D02*
X0409596Y0054485D01*
X0409596Y0056083D02*
X0432055Y0056083D01*
X0432055Y0057682D02*
X0409596Y0057682D01*
X0409596Y0059280D02*
X0432055Y0059280D01*
X0432055Y0060879D02*
X0409596Y0060879D01*
X0409068Y0062477D02*
X0432055Y0062477D01*
X0432055Y0064076D02*
X0407469Y0064076D01*
X0405871Y0065674D02*
X0432055Y0065674D01*
X0432055Y0067273D02*
X0398917Y0067273D01*
X0400516Y0068871D02*
X0432055Y0068871D01*
X0432055Y0070470D02*
X0400809Y0070470D01*
X0400809Y0072068D02*
X0432055Y0072068D01*
X0432055Y0073667D02*
X0400809Y0073667D01*
X0400809Y0075265D02*
X0432055Y0075265D01*
X0432055Y0076864D02*
X0400809Y0076864D01*
X0400809Y0078462D02*
X0432055Y0078462D01*
X0432055Y0080061D02*
X0399765Y0080061D01*
X0398167Y0081659D02*
X0432055Y0081659D01*
X0432055Y0083258D02*
X0396568Y0083258D01*
X0394970Y0084856D02*
X0432055Y0084856D01*
X0432055Y0086455D02*
X0393371Y0086455D01*
X0391772Y0088053D02*
X0432055Y0088053D01*
X0432055Y0089652D02*
X0390174Y0089652D01*
X0389075Y0091250D02*
X0415239Y0091250D01*
X0412243Y0092849D02*
X0394263Y0092849D01*
X0395861Y0094447D02*
X0410615Y0094447D01*
X0409439Y0096046D02*
X0396675Y0096046D01*
X0396675Y0097644D02*
X0408516Y0097644D01*
X0408074Y0099243D02*
X0396494Y0099243D01*
X0394896Y0100841D02*
X0407701Y0100841D01*
X0389913Y0092849D02*
X0389075Y0092849D01*
X0384301Y0092849D02*
X0383463Y0092849D01*
X0383188Y0092574D02*
X0384301Y0093686D01*
X0384301Y0088773D01*
X0385699Y0087374D01*
X0385699Y0087374D01*
X0390053Y0083020D01*
X0384933Y0083020D01*
X0381124Y0079211D01*
X0381124Y0082953D01*
X0379726Y0084352D01*
X0378175Y0085902D01*
X0378175Y0093786D01*
X0379388Y0092574D01*
X0383188Y0092574D01*
X0384301Y0091250D02*
X0378175Y0091250D01*
X0378175Y0089652D02*
X0384301Y0089652D01*
X0385020Y0088053D02*
X0378175Y0088053D01*
X0378175Y0086455D02*
X0386618Y0086455D01*
X0388217Y0084856D02*
X0379221Y0084856D01*
X0380820Y0083258D02*
X0389815Y0083258D01*
X0383572Y0081659D02*
X0381124Y0081659D01*
X0381124Y0080061D02*
X0381974Y0080061D01*
X0373401Y0084772D02*
X0367375Y0090797D01*
X0367375Y0093686D01*
X0368488Y0092574D01*
X0372288Y0092574D01*
X0373401Y0093686D01*
X0373401Y0084772D01*
X0373401Y0084856D02*
X0373316Y0084856D01*
X0373401Y0086455D02*
X0371717Y0086455D01*
X0370119Y0088053D02*
X0373401Y0088053D01*
X0373401Y0089652D02*
X0368520Y0089652D01*
X0367375Y0091250D02*
X0373401Y0091250D01*
X0373401Y0092849D02*
X0372563Y0092849D01*
X0368213Y0092849D02*
X0367375Y0092849D01*
X0362601Y0092849D02*
X0361663Y0092849D01*
X0361388Y0092574D02*
X0362601Y0093786D01*
X0362601Y0090797D01*
X0362601Y0088819D01*
X0368399Y0083020D01*
X0361311Y0083020D01*
X0357502Y0079211D01*
X0357502Y0086890D01*
X0356475Y0087917D01*
X0356475Y0093686D01*
X0357588Y0092574D01*
X0361388Y0092574D01*
X0362601Y0091250D02*
X0356475Y0091250D01*
X0356475Y0089652D02*
X0362601Y0089652D01*
X0363366Y0088053D02*
X0356475Y0088053D01*
X0357502Y0086455D02*
X0364965Y0086455D01*
X0366563Y0084856D02*
X0357502Y0084856D01*
X0357502Y0083258D02*
X0368162Y0083258D01*
X0359950Y0081659D02*
X0357502Y0081659D01*
X0357502Y0080061D02*
X0358352Y0080061D01*
X0352727Y0083791D02*
X0352727Y0084913D01*
X0351701Y0085939D01*
X0351701Y0093686D01*
X0350588Y0092574D01*
X0346788Y0092574D01*
X0345575Y0093786D01*
X0345575Y0090943D01*
X0352167Y0084352D01*
X0352727Y0083791D01*
X0352727Y0084856D02*
X0351662Y0084856D01*
X0351701Y0086455D02*
X0350064Y0086455D01*
X0348465Y0088053D02*
X0351701Y0088053D01*
X0351701Y0089652D02*
X0346867Y0089652D01*
X0345575Y0091250D02*
X0351701Y0091250D01*
X0351701Y0092849D02*
X0350863Y0092849D01*
X0346513Y0092849D02*
X0345575Y0092849D01*
X0340801Y0092849D02*
X0339963Y0092849D01*
X0339688Y0092574D02*
X0340801Y0093686D01*
X0340801Y0088965D01*
X0342199Y0087567D01*
X0348790Y0080976D01*
X0348790Y0079448D01*
X0345218Y0083020D01*
X0337689Y0083020D01*
X0334775Y0080107D01*
X0334775Y0093686D01*
X0335888Y0092574D01*
X0339688Y0092574D01*
X0340801Y0091250D02*
X0334775Y0091250D01*
X0334775Y0089652D02*
X0340801Y0089652D01*
X0341713Y0088053D02*
X0334775Y0088053D01*
X0334775Y0086455D02*
X0343311Y0086455D01*
X0344910Y0084856D02*
X0334775Y0084856D01*
X0334775Y0083258D02*
X0346508Y0083258D01*
X0346579Y0081659D02*
X0348107Y0081659D01*
X0348177Y0080061D02*
X0348790Y0080061D01*
X0336328Y0081659D02*
X0334775Y0081659D01*
X0330001Y0081880D02*
X0329524Y0081404D01*
X0328545Y0082383D01*
X0323875Y0087053D01*
X0323875Y0093686D01*
X0324988Y0092574D01*
X0328788Y0092574D01*
X0330001Y0093786D01*
X0330001Y0081880D01*
X0329780Y0081659D02*
X0329269Y0081659D01*
X0330001Y0083258D02*
X0327670Y0083258D01*
X0326072Y0084856D02*
X0330001Y0084856D01*
X0330001Y0086455D02*
X0324473Y0086455D01*
X0323875Y0088053D02*
X0330001Y0088053D01*
X0330001Y0089652D02*
X0323875Y0089652D01*
X0323875Y0091250D02*
X0330001Y0091250D01*
X0330001Y0092849D02*
X0329063Y0092849D01*
X0324713Y0092849D02*
X0323875Y0092849D01*
X0319101Y0092849D02*
X0318163Y0092849D01*
X0317888Y0092574D02*
X0319101Y0093786D01*
X0319101Y0085075D01*
X0320499Y0083676D01*
X0321155Y0083020D01*
X0314067Y0083020D01*
X0312975Y0081929D01*
X0312975Y0093686D01*
X0314088Y0092574D01*
X0317888Y0092574D01*
X0319101Y0091250D02*
X0312975Y0091250D01*
X0312975Y0089652D02*
X0319101Y0089652D01*
X0319101Y0088053D02*
X0312975Y0088053D01*
X0312975Y0086455D02*
X0319101Y0086455D01*
X0319319Y0084856D02*
X0312975Y0084856D01*
X0312975Y0083258D02*
X0320918Y0083258D01*
X0320499Y0083676D02*
X0320499Y0083676D01*
X0308201Y0083702D02*
X0306882Y0082383D01*
X0305902Y0081404D01*
X0304923Y0082383D01*
X0302075Y0085231D01*
X0302075Y0093786D01*
X0303288Y0092574D01*
X0307088Y0092574D01*
X0308201Y0093686D01*
X0308201Y0083702D01*
X0307756Y0083258D02*
X0304048Y0083258D01*
X0302450Y0084856D02*
X0308201Y0084856D01*
X0308201Y0086455D02*
X0302075Y0086455D01*
X0302075Y0088053D02*
X0308201Y0088053D01*
X0308201Y0089652D02*
X0302075Y0089652D01*
X0302075Y0091250D02*
X0308201Y0091250D01*
X0308201Y0092849D02*
X0307363Y0092849D01*
X0303013Y0092849D02*
X0302075Y0092849D01*
X0297301Y0092849D02*
X0296463Y0092849D01*
X0296188Y0092574D02*
X0297301Y0093686D01*
X0297301Y0083253D01*
X0297533Y0083020D01*
X0290649Y0083020D01*
X0291275Y0083647D01*
X0291275Y0093686D01*
X0292388Y0092574D01*
X0296188Y0092574D01*
X0297301Y0091250D02*
X0291275Y0091250D01*
X0291275Y0089652D02*
X0297301Y0089652D01*
X0297301Y0088053D02*
X0291275Y0088053D01*
X0291275Y0086455D02*
X0297301Y0086455D01*
X0297301Y0084856D02*
X0291275Y0084856D01*
X0290887Y0083258D02*
X0297301Y0083258D01*
X0305647Y0081659D02*
X0306158Y0081659D01*
X0306882Y0082383D02*
X0306882Y0082383D01*
X0312975Y0092849D02*
X0313813Y0092849D01*
X0334775Y0092849D02*
X0335613Y0092849D01*
X0356475Y0092849D02*
X0357313Y0092849D01*
X0378175Y0092849D02*
X0379113Y0092849D01*
X0379153Y0104038D02*
X0383324Y0104038D01*
X0382101Y0105637D02*
X0380375Y0105637D01*
X0380375Y0107235D02*
X0382101Y0107235D01*
X0382101Y0108834D02*
X0380375Y0108834D01*
X0379005Y0110432D02*
X0383472Y0110432D01*
X0413208Y0112031D02*
X0175368Y0112031D01*
X0171259Y0113629D02*
X0417317Y0113629D01*
X0421259Y0113629D02*
X0432055Y0113629D01*
X0432055Y0112031D02*
X0425368Y0112031D01*
X0427404Y0110432D02*
X0432055Y0110432D01*
X0432055Y0108834D02*
X0428816Y0108834D01*
X0429739Y0107235D02*
X0432055Y0107235D01*
X0432055Y0105637D02*
X0430353Y0105637D01*
X0430781Y0104038D02*
X0432055Y0104038D01*
X0432055Y0102440D02*
X0430875Y0102440D01*
X0430875Y0100841D02*
X0432055Y0100841D01*
X0432055Y0099243D02*
X0430502Y0099243D01*
X0430060Y0097644D02*
X0432055Y0097644D01*
X0432055Y0096046D02*
X0429137Y0096046D01*
X0427961Y0094447D02*
X0432055Y0094447D01*
X0432055Y0092849D02*
X0426333Y0092849D01*
X0423337Y0091250D02*
X0432055Y0091250D01*
X0432055Y0115228D02*
X0156127Y0115228D01*
X0156127Y0116826D02*
X0432055Y0116826D01*
X0432055Y0118425D02*
X0156127Y0118425D01*
X0156127Y0120023D02*
X0432055Y0120023D01*
X0432055Y0121622D02*
X0156127Y0121622D01*
X0156127Y0123221D02*
X0432055Y0123221D01*
X0432055Y0124819D02*
X0156127Y0124819D01*
X0156127Y0126418D02*
X0432055Y0126418D01*
X0432055Y0128016D02*
X0156127Y0128016D01*
X0156127Y0129615D02*
X0432055Y0129615D01*
X0432055Y0131213D02*
X0156127Y0131213D01*
X0156127Y0132812D02*
X0432055Y0132812D01*
X0432055Y0134410D02*
X0156127Y0134410D01*
X0156127Y0136009D02*
X0432055Y0136009D01*
X0432055Y0137607D02*
X0156127Y0137607D01*
X0156127Y0139206D02*
X0432055Y0139206D01*
X0432055Y0140804D02*
X0156127Y0140804D01*
X0156127Y0142403D02*
X0432055Y0142403D01*
X0432055Y0144001D02*
X0156127Y0144001D01*
X0156127Y0145600D02*
X0432055Y0145600D01*
X0292113Y0092849D02*
X0291275Y0092849D01*
X0286501Y0092849D02*
X0285563Y0092849D01*
X0264701Y0092849D02*
X0263863Y0092849D01*
X0242024Y0104038D02*
X0237853Y0104038D01*
X0239075Y0105637D02*
X0240801Y0105637D01*
X0240801Y0107235D02*
X0239075Y0107235D01*
X0239075Y0108834D02*
X0240801Y0108834D01*
X0242172Y0110432D02*
X0237705Y0110432D01*
X0234488Y0107161D02*
X0234488Y0087322D01*
X0233068Y0085902D01*
X0233068Y0070154D01*
X0225194Y0062280D01*
X0225194Y0044563D01*
X0223225Y0042594D01*
X0214138Y0043295D02*
X0213801Y0043295D01*
X0213801Y0041696D02*
X0214138Y0041696D01*
X0214138Y0040098D02*
X0213801Y0040098D01*
X0213801Y0038499D02*
X0214469Y0038499D01*
X0213801Y0036901D02*
X0216067Y0036901D01*
X0215810Y0035302D02*
X0217666Y0035302D01*
X0217408Y0033704D02*
X0219264Y0033704D01*
X0209027Y0036901D02*
X0206761Y0036901D01*
X0207018Y0035302D02*
X0205162Y0035302D01*
X0205420Y0033704D02*
X0203564Y0033704D01*
X0208359Y0038499D02*
X0209027Y0038499D01*
X0209027Y0040098D02*
X0208690Y0040098D01*
X0208690Y0041696D02*
X0209027Y0041696D01*
X0209027Y0043295D02*
X0208690Y0043295D01*
X0208690Y0044893D02*
X0209027Y0044893D01*
X0208557Y0046492D02*
X0209967Y0046492D01*
X0211565Y0048090D02*
X0206959Y0048090D01*
X0201572Y0052437D02*
X0199603Y0050469D01*
X0199603Y0042594D01*
X0185405Y0041696D02*
X0156127Y0041696D01*
X0156127Y0040098D02*
X0185405Y0040098D01*
X0185405Y0038499D02*
X0156127Y0038499D01*
X0156127Y0036901D02*
X0185405Y0036901D01*
X0183396Y0035302D02*
X0156127Y0035302D01*
X0156127Y0033704D02*
X0181798Y0033704D01*
X0180199Y0032105D02*
X0156127Y0032105D01*
X0156127Y0030507D02*
X0178705Y0030507D01*
X0178705Y0028908D02*
X0156127Y0028908D01*
X0156127Y0027310D02*
X0178705Y0027310D01*
X0178705Y0025711D02*
X0156127Y0025711D01*
X0156127Y0024113D02*
X0178705Y0024113D01*
X0179273Y0022514D02*
X0156127Y0022514D01*
X0156127Y0020916D02*
X0180871Y0020916D01*
X0182470Y0019317D02*
X0156127Y0019317D01*
X0193114Y0019317D02*
X0206092Y0019317D01*
X0204493Y0020916D02*
X0194713Y0020916D01*
X0196311Y0022514D02*
X0202895Y0022514D01*
X0202327Y0024113D02*
X0196879Y0024113D01*
X0196879Y0025711D02*
X0202327Y0025711D01*
X0261046Y0040098D02*
X0261382Y0040098D01*
X0261382Y0041696D02*
X0261046Y0041696D01*
X0261046Y0043295D02*
X0261382Y0043295D01*
X0248816Y0062280D02*
X0256288Y0069752D01*
X0256288Y0107161D01*
X0231272Y0110432D02*
X0226905Y0110432D01*
X0228275Y0108834D02*
X0229901Y0108834D01*
X0229901Y0107235D02*
X0228275Y0107235D01*
X0228275Y0105637D02*
X0229901Y0105637D01*
X0231124Y0104038D02*
X0227053Y0104038D01*
X0280312Y0079996D02*
X0280312Y0070154D01*
X0271628Y0064846D02*
X0269311Y0064846D01*
X0269490Y0064667D01*
X0270469Y0063687D01*
X0271449Y0064667D01*
X0271628Y0064846D01*
X0270857Y0064076D02*
X0270081Y0064076D01*
X0260131Y0067272D02*
X0257185Y0067272D01*
X0257277Y0067365D01*
X0258658Y0068746D01*
X0260131Y0067272D01*
X0260131Y0067273D02*
X0257185Y0067273D01*
X0257277Y0067365D02*
X0257277Y0067365D01*
X0248005Y0064846D02*
X0247827Y0064667D01*
X0246847Y0063687D01*
X0245867Y0064667D01*
X0245689Y0064846D01*
X0248005Y0064846D01*
X0247235Y0064076D02*
X0246459Y0064076D01*
X0245867Y0064667D02*
X0245867Y0064667D01*
X0236509Y0067272D02*
X0233563Y0067272D01*
X0235036Y0068746D01*
X0236509Y0067272D01*
X0236509Y0067273D02*
X0233563Y0067273D01*
X0224383Y0064846D02*
X0224205Y0064667D01*
X0223225Y0063687D01*
X0222245Y0064667D01*
X0222067Y0064846D01*
X0224383Y0064846D01*
X0223613Y0064076D02*
X0222837Y0064076D01*
X0212887Y0067272D02*
X0211414Y0068746D01*
X0209941Y0067272D01*
X0212887Y0067272D01*
X0212887Y0067273D02*
X0209941Y0067273D01*
X0200761Y0064846D02*
X0200583Y0064667D01*
X0199603Y0063687D01*
X0198623Y0064667D01*
X0198445Y0064846D01*
X0200761Y0064846D01*
X0199991Y0064076D02*
X0199215Y0064076D01*
X0165239Y0091250D02*
X0156127Y0091250D01*
X0156127Y0092849D02*
X0162243Y0092849D01*
X0160615Y0094447D02*
X0156127Y0094447D01*
X0156127Y0096046D02*
X0159439Y0096046D01*
X0158516Y0097644D02*
X0156127Y0097644D01*
X0156127Y0099243D02*
X0158074Y0099243D01*
X0157701Y0100841D02*
X0156127Y0100841D01*
X0156127Y0102440D02*
X0157701Y0102440D01*
X0157795Y0104038D02*
X0156127Y0104038D01*
X0156127Y0105637D02*
X0158223Y0105637D01*
X0158838Y0107235D02*
X0156127Y0107235D01*
X0156127Y0108834D02*
X0159760Y0108834D01*
X0161172Y0110432D02*
X0156127Y0110432D01*
X0156127Y0112031D02*
X0163208Y0112031D01*
X0167317Y0113629D02*
X0156127Y0113629D01*
X0351673Y0067272D02*
X0354620Y0067272D01*
X0353146Y0068746D01*
X0351673Y0067272D01*
X0351673Y0067273D02*
X0354619Y0067273D01*
X0363799Y0064846D02*
X0366116Y0064846D01*
X0364957Y0063687D01*
X0363978Y0064667D01*
X0363799Y0064846D01*
X0364569Y0064076D02*
X0365346Y0064076D01*
X0375295Y0067272D02*
X0376768Y0068746D01*
X0378242Y0067272D01*
X0375295Y0067272D01*
X0375295Y0067273D02*
X0378242Y0067273D01*
X0387421Y0064846D02*
X0389738Y0064846D01*
X0389559Y0064667D01*
X0388579Y0063687D01*
X0387600Y0064667D01*
X0387421Y0064846D01*
X0388191Y0064076D02*
X0388968Y0064076D01*
X0397667Y0041696D02*
X0432055Y0041696D01*
X0432055Y0040098D02*
X0397667Y0040098D01*
X0397336Y0038499D02*
X0432055Y0038499D01*
X0432055Y0036901D02*
X0395737Y0036901D01*
X0394139Y0035302D02*
X0432055Y0035302D01*
X0432055Y0033704D02*
X0392540Y0033704D01*
M02*
